G04 #@! TF.GenerationSoftware,KiCad,Pcbnew,(6.0.6)*
G04 #@! TF.CreationDate,2024-03-22T15:25:42+01:00*
G04 #@! TF.ProjectId,pi-pico-itm39xxc-if,70692d70-6963-46f2-9d69-746d33397878,rev?*
G04 #@! TF.SameCoordinates,Original*
G04 #@! TF.FileFunction,Paste,Bot*
G04 #@! TF.FilePolarity,Positive*
%FSLAX46Y46*%
G04 Gerber Fmt 4.6, Leading zero omitted, Abs format (unit mm)*
G04 Created by KiCad (PCBNEW (6.0.6)) date 2024-03-22 15:25:42*
%MOMM*%
%LPD*%
G01*
G04 APERTURE LIST*
%ADD10R,3.500000X2.950000*%
G04 APERTURE END LIST*
G36*
G01*
X160275200Y-81837000D02*
X161175200Y-81837000D01*
G75*
G02*
X161425200Y-82087000I0J-250000D01*
G01*
X161425200Y-82787000D01*
G75*
G02*
X161175200Y-83037000I-250000J0D01*
G01*
X160275200Y-83037000D01*
G75*
G02*
X160025200Y-82787000I0J250000D01*
G01*
X160025200Y-82087000D01*
G75*
G02*
X160275200Y-81837000I250000J0D01*
G01*
G37*
G36*
G01*
X160275200Y-83837000D02*
X161175200Y-83837000D01*
G75*
G02*
X161425200Y-84087000I0J-250000D01*
G01*
X161425200Y-84787000D01*
G75*
G02*
X161175200Y-85037000I-250000J0D01*
G01*
X160275200Y-85037000D01*
G75*
G02*
X160025200Y-84787000I0J250000D01*
G01*
X160025200Y-84087000D01*
G75*
G02*
X160275200Y-83837000I250000J0D01*
G01*
G37*
G36*
G01*
X125153000Y-74456600D02*
X126053000Y-74456600D01*
G75*
G02*
X126303000Y-74706600I0J-250000D01*
G01*
X126303000Y-75406600D01*
G75*
G02*
X126053000Y-75656600I-250000J0D01*
G01*
X125153000Y-75656600D01*
G75*
G02*
X124903000Y-75406600I0J250000D01*
G01*
X124903000Y-74706600D01*
G75*
G02*
X125153000Y-74456600I250000J0D01*
G01*
G37*
G36*
G01*
X125153000Y-76456600D02*
X126053000Y-76456600D01*
G75*
G02*
X126303000Y-76706600I0J-250000D01*
G01*
X126303000Y-77406600D01*
G75*
G02*
X126053000Y-77656600I-250000J0D01*
G01*
X125153000Y-77656600D01*
G75*
G02*
X124903000Y-77406600I0J250000D01*
G01*
X124903000Y-76706600D01*
G75*
G02*
X125153000Y-76456600I250000J0D01*
G01*
G37*
G36*
G01*
X159172200Y-69053800D02*
X159172200Y-69953800D01*
G75*
G02*
X158922200Y-70203800I-250000J0D01*
G01*
X158222200Y-70203800D01*
G75*
G02*
X157972200Y-69953800I0J250000D01*
G01*
X157972200Y-69053800D01*
G75*
G02*
X158222200Y-68803800I250000J0D01*
G01*
X158922200Y-68803800D01*
G75*
G02*
X159172200Y-69053800I0J-250000D01*
G01*
G37*
G36*
G01*
X157172200Y-69053800D02*
X157172200Y-69953800D01*
G75*
G02*
X156922200Y-70203800I-250000J0D01*
G01*
X156222200Y-70203800D01*
G75*
G02*
X155972200Y-69953800I0J250000D01*
G01*
X155972200Y-69053800D01*
G75*
G02*
X156222200Y-68803800I250000J0D01*
G01*
X156922200Y-68803800D01*
G75*
G02*
X157172200Y-69053800I0J-250000D01*
G01*
G37*
G36*
G01*
X151606500Y-54490600D02*
X151606500Y-55440600D01*
G75*
G02*
X151356500Y-55690600I-250000J0D01*
G01*
X150681500Y-55690600D01*
G75*
G02*
X150431500Y-55440600I0J250000D01*
G01*
X150431500Y-54490600D01*
G75*
G02*
X150681500Y-54240600I250000J0D01*
G01*
X151356500Y-54240600D01*
G75*
G02*
X151606500Y-54490600I0J-250000D01*
G01*
G37*
G36*
G01*
X149531500Y-54490600D02*
X149531500Y-55440600D01*
G75*
G02*
X149281500Y-55690600I-250000J0D01*
G01*
X148606500Y-55690600D01*
G75*
G02*
X148356500Y-55440600I0J250000D01*
G01*
X148356500Y-54490600D01*
G75*
G02*
X148606500Y-54240600I250000J0D01*
G01*
X149281500Y-54240600D01*
G75*
G02*
X149531500Y-54490600I0J-250000D01*
G01*
G37*
G36*
G01*
X111614800Y-84125000D02*
X112514800Y-84125000D01*
G75*
G02*
X112764800Y-84375000I0J-250000D01*
G01*
X112764800Y-85075000D01*
G75*
G02*
X112514800Y-85325000I-250000J0D01*
G01*
X111614800Y-85325000D01*
G75*
G02*
X111364800Y-85075000I0J250000D01*
G01*
X111364800Y-84375000D01*
G75*
G02*
X111614800Y-84125000I250000J0D01*
G01*
G37*
G36*
G01*
X111614800Y-86125000D02*
X112514800Y-86125000D01*
G75*
G02*
X112764800Y-86375000I0J-250000D01*
G01*
X112764800Y-87075000D01*
G75*
G02*
X112514800Y-87325000I-250000J0D01*
G01*
X111614800Y-87325000D01*
G75*
G02*
X111364800Y-87075000I0J250000D01*
G01*
X111364800Y-86375000D01*
G75*
G02*
X111614800Y-86125000I250000J0D01*
G01*
G37*
G36*
G01*
X88653600Y-86614600D02*
X89603600Y-86614600D01*
G75*
G02*
X89853600Y-86864600I0J-250000D01*
G01*
X89853600Y-87539600D01*
G75*
G02*
X89603600Y-87789600I-250000J0D01*
G01*
X88653600Y-87789600D01*
G75*
G02*
X88403600Y-87539600I0J250000D01*
G01*
X88403600Y-86864600D01*
G75*
G02*
X88653600Y-86614600I250000J0D01*
G01*
G37*
G36*
G01*
X88653600Y-88689600D02*
X89603600Y-88689600D01*
G75*
G02*
X89853600Y-88939600I0J-250000D01*
G01*
X89853600Y-89614600D01*
G75*
G02*
X89603600Y-89864600I-250000J0D01*
G01*
X88653600Y-89864600D01*
G75*
G02*
X88403600Y-89614600I0J250000D01*
G01*
X88403600Y-88939600D01*
G75*
G02*
X88653600Y-88689600I250000J0D01*
G01*
G37*
G36*
G01*
X136971600Y-79342000D02*
X136971600Y-78392000D01*
G75*
G02*
X137221600Y-78142000I250000J0D01*
G01*
X137896600Y-78142000D01*
G75*
G02*
X138146600Y-78392000I0J-250000D01*
G01*
X138146600Y-79342000D01*
G75*
G02*
X137896600Y-79592000I-250000J0D01*
G01*
X137221600Y-79592000D01*
G75*
G02*
X136971600Y-79342000I0J250000D01*
G01*
G37*
G36*
G01*
X139046600Y-79342000D02*
X139046600Y-78392000D01*
G75*
G02*
X139296600Y-78142000I250000J0D01*
G01*
X139971600Y-78142000D01*
G75*
G02*
X140221600Y-78392000I0J-250000D01*
G01*
X140221600Y-79342000D01*
G75*
G02*
X139971600Y-79592000I-250000J0D01*
G01*
X139296600Y-79592000D01*
G75*
G02*
X139046600Y-79342000I0J250000D01*
G01*
G37*
G36*
G01*
X148938000Y-45414600D02*
X147988000Y-45414600D01*
G75*
G02*
X147738000Y-45164600I0J250000D01*
G01*
X147738000Y-44489600D01*
G75*
G02*
X147988000Y-44239600I250000J0D01*
G01*
X148938000Y-44239600D01*
G75*
G02*
X149188000Y-44489600I0J-250000D01*
G01*
X149188000Y-45164600D01*
G75*
G02*
X148938000Y-45414600I-250000J0D01*
G01*
G37*
G36*
G01*
X148938000Y-43339600D02*
X147988000Y-43339600D01*
G75*
G02*
X147738000Y-43089600I0J250000D01*
G01*
X147738000Y-42414600D01*
G75*
G02*
X147988000Y-42164600I250000J0D01*
G01*
X148938000Y-42164600D01*
G75*
G02*
X149188000Y-42414600I0J-250000D01*
G01*
X149188000Y-43089600D01*
G75*
G02*
X148938000Y-43339600I-250000J0D01*
G01*
G37*
G36*
G01*
X127489800Y-74456600D02*
X128389800Y-74456600D01*
G75*
G02*
X128639800Y-74706600I0J-250000D01*
G01*
X128639800Y-75406600D01*
G75*
G02*
X128389800Y-75656600I-250000J0D01*
G01*
X127489800Y-75656600D01*
G75*
G02*
X127239800Y-75406600I0J250000D01*
G01*
X127239800Y-74706600D01*
G75*
G02*
X127489800Y-74456600I250000J0D01*
G01*
G37*
G36*
G01*
X127489800Y-76456600D02*
X128389800Y-76456600D01*
G75*
G02*
X128639800Y-76706600I0J-250000D01*
G01*
X128639800Y-77406600D01*
G75*
G02*
X128389800Y-77656600I-250000J0D01*
G01*
X127489800Y-77656600D01*
G75*
G02*
X127239800Y-77406600I0J250000D01*
G01*
X127239800Y-76706600D01*
G75*
G02*
X127489800Y-76456600I250000J0D01*
G01*
G37*
G36*
G01*
X149664400Y-98955100D02*
X150614400Y-98955100D01*
G75*
G02*
X150864400Y-99205100I0J-250000D01*
G01*
X150864400Y-99880100D01*
G75*
G02*
X150614400Y-100130100I-250000J0D01*
G01*
X149664400Y-100130100D01*
G75*
G02*
X149414400Y-99880100I0J250000D01*
G01*
X149414400Y-99205100D01*
G75*
G02*
X149664400Y-98955100I250000J0D01*
G01*
G37*
G36*
G01*
X149664400Y-101030100D02*
X150614400Y-101030100D01*
G75*
G02*
X150864400Y-101280100I0J-250000D01*
G01*
X150864400Y-101955100D01*
G75*
G02*
X150614400Y-102205100I-250000J0D01*
G01*
X149664400Y-102205100D01*
G75*
G02*
X149414400Y-101955100I0J250000D01*
G01*
X149414400Y-101280100D01*
G75*
G02*
X149664400Y-101030100I250000J0D01*
G01*
G37*
G36*
G01*
X151216200Y-82390000D02*
X151216200Y-81440000D01*
G75*
G02*
X151466200Y-81190000I250000J0D01*
G01*
X152141200Y-81190000D01*
G75*
G02*
X152391200Y-81440000I0J-250000D01*
G01*
X152391200Y-82390000D01*
G75*
G02*
X152141200Y-82640000I-250000J0D01*
G01*
X151466200Y-82640000D01*
G75*
G02*
X151216200Y-82390000I0J250000D01*
G01*
G37*
G36*
G01*
X153291200Y-82390000D02*
X153291200Y-81440000D01*
G75*
G02*
X153541200Y-81190000I250000J0D01*
G01*
X154216200Y-81190000D01*
G75*
G02*
X154466200Y-81440000I0J-250000D01*
G01*
X154466200Y-82390000D01*
G75*
G02*
X154216200Y-82640000I-250000J0D01*
G01*
X153541200Y-82640000D01*
G75*
G02*
X153291200Y-82390000I0J250000D01*
G01*
G37*
G36*
G01*
X123171800Y-94716800D02*
X124071800Y-94716800D01*
G75*
G02*
X124321800Y-94966800I0J-250000D01*
G01*
X124321800Y-95666800D01*
G75*
G02*
X124071800Y-95916800I-250000J0D01*
G01*
X123171800Y-95916800D01*
G75*
G02*
X122921800Y-95666800I0J250000D01*
G01*
X122921800Y-94966800D01*
G75*
G02*
X123171800Y-94716800I250000J0D01*
G01*
G37*
G36*
G01*
X123171800Y-96716800D02*
X124071800Y-96716800D01*
G75*
G02*
X124321800Y-96966800I0J-250000D01*
G01*
X124321800Y-97666800D01*
G75*
G02*
X124071800Y-97916800I-250000J0D01*
G01*
X123171800Y-97916800D01*
G75*
G02*
X122921800Y-97666800I0J250000D01*
G01*
X122921800Y-96966800D01*
G75*
G02*
X123171800Y-96716800I250000J0D01*
G01*
G37*
G36*
G01*
X152376200Y-84132800D02*
X153326200Y-84132800D01*
G75*
G02*
X153576200Y-84382800I0J-250000D01*
G01*
X153576200Y-85057800D01*
G75*
G02*
X153326200Y-85307800I-250000J0D01*
G01*
X152376200Y-85307800D01*
G75*
G02*
X152126200Y-85057800I0J250000D01*
G01*
X152126200Y-84382800D01*
G75*
G02*
X152376200Y-84132800I250000J0D01*
G01*
G37*
G36*
G01*
X152376200Y-86207800D02*
X153326200Y-86207800D01*
G75*
G02*
X153576200Y-86457800I0J-250000D01*
G01*
X153576200Y-87132800D01*
G75*
G02*
X153326200Y-87382800I-250000J0D01*
G01*
X152376200Y-87382800D01*
G75*
G02*
X152126200Y-87132800I0J250000D01*
G01*
X152126200Y-86457800D01*
G75*
G02*
X152376200Y-86207800I250000J0D01*
G01*
G37*
G36*
G01*
X129344400Y-92888400D02*
X130294400Y-92888400D01*
G75*
G02*
X130544400Y-93138400I0J-250000D01*
G01*
X130544400Y-93813400D01*
G75*
G02*
X130294400Y-94063400I-250000J0D01*
G01*
X129344400Y-94063400D01*
G75*
G02*
X129094400Y-93813400I0J250000D01*
G01*
X129094400Y-93138400D01*
G75*
G02*
X129344400Y-92888400I250000J0D01*
G01*
G37*
G36*
G01*
X129344400Y-94963400D02*
X130294400Y-94963400D01*
G75*
G02*
X130544400Y-95213400I0J-250000D01*
G01*
X130544400Y-95888400D01*
G75*
G02*
X130294400Y-96138400I-250000J0D01*
G01*
X129344400Y-96138400D01*
G75*
G02*
X129094400Y-95888400I0J250000D01*
G01*
X129094400Y-95213400D01*
G75*
G02*
X129344400Y-94963400I250000J0D01*
G01*
G37*
G36*
G01*
X145890000Y-74599200D02*
X144940000Y-74599200D01*
G75*
G02*
X144690000Y-74349200I0J250000D01*
G01*
X144690000Y-73674200D01*
G75*
G02*
X144940000Y-73424200I250000J0D01*
G01*
X145890000Y-73424200D01*
G75*
G02*
X146140000Y-73674200I0J-250000D01*
G01*
X146140000Y-74349200D01*
G75*
G02*
X145890000Y-74599200I-250000J0D01*
G01*
G37*
G36*
G01*
X145890000Y-72524200D02*
X144940000Y-72524200D01*
G75*
G02*
X144690000Y-72274200I0J250000D01*
G01*
X144690000Y-71599200D01*
G75*
G02*
X144940000Y-71349200I250000J0D01*
G01*
X145890000Y-71349200D01*
G75*
G02*
X146140000Y-71599200I0J-250000D01*
G01*
X146140000Y-72274200D01*
G75*
G02*
X145890000Y-72524200I-250000J0D01*
G01*
G37*
G36*
G01*
X155135600Y-100862800D02*
X154185600Y-100862800D01*
G75*
G02*
X153935600Y-100612800I0J250000D01*
G01*
X153935600Y-99937800D01*
G75*
G02*
X154185600Y-99687800I250000J0D01*
G01*
X155135600Y-99687800D01*
G75*
G02*
X155385600Y-99937800I0J-250000D01*
G01*
X155385600Y-100612800D01*
G75*
G02*
X155135600Y-100862800I-250000J0D01*
G01*
G37*
G36*
G01*
X155135600Y-98787800D02*
X154185600Y-98787800D01*
G75*
G02*
X153935600Y-98537800I0J250000D01*
G01*
X153935600Y-97862800D01*
G75*
G02*
X154185600Y-97612800I250000J0D01*
G01*
X155135600Y-97612800D01*
G75*
G02*
X155385600Y-97862800I0J-250000D01*
G01*
X155385600Y-98537800D01*
G75*
G02*
X155135600Y-98787800I-250000J0D01*
G01*
G37*
G36*
G01*
X158267200Y-81465000D02*
X158267200Y-82365000D01*
G75*
G02*
X158017200Y-82615000I-250000J0D01*
G01*
X157317200Y-82615000D01*
G75*
G02*
X157067200Y-82365000I0J250000D01*
G01*
X157067200Y-81465000D01*
G75*
G02*
X157317200Y-81215000I250000J0D01*
G01*
X158017200Y-81215000D01*
G75*
G02*
X158267200Y-81465000I0J-250000D01*
G01*
G37*
G36*
G01*
X156267200Y-81465000D02*
X156267200Y-82365000D01*
G75*
G02*
X156017200Y-82615000I-250000J0D01*
G01*
X155317200Y-82615000D01*
G75*
G02*
X155067200Y-82365000I0J250000D01*
G01*
X155067200Y-81465000D01*
G75*
G02*
X155317200Y-81215000I250000J0D01*
G01*
X156017200Y-81215000D01*
G75*
G02*
X156267200Y-81465000I0J-250000D01*
G01*
G37*
G36*
G01*
X156840500Y-41003200D02*
X156840500Y-41953200D01*
G75*
G02*
X156590500Y-42203200I-250000J0D01*
G01*
X155915500Y-42203200D01*
G75*
G02*
X155665500Y-41953200I0J250000D01*
G01*
X155665500Y-41003200D01*
G75*
G02*
X155915500Y-40753200I250000J0D01*
G01*
X156590500Y-40753200D01*
G75*
G02*
X156840500Y-41003200I0J-250000D01*
G01*
G37*
G36*
G01*
X154765500Y-41003200D02*
X154765500Y-41953200D01*
G75*
G02*
X154515500Y-42203200I-250000J0D01*
G01*
X153840500Y-42203200D01*
G75*
G02*
X153590500Y-41953200I0J250000D01*
G01*
X153590500Y-41003200D01*
G75*
G02*
X153840500Y-40753200I250000J0D01*
G01*
X154515500Y-40753200D01*
G75*
G02*
X154765500Y-41003200I0J-250000D01*
G01*
G37*
G36*
G01*
X152398200Y-71409400D02*
X153348200Y-71409400D01*
G75*
G02*
X153598200Y-71659400I0J-250000D01*
G01*
X153598200Y-72334400D01*
G75*
G02*
X153348200Y-72584400I-250000J0D01*
G01*
X152398200Y-72584400D01*
G75*
G02*
X152148200Y-72334400I0J250000D01*
G01*
X152148200Y-71659400D01*
G75*
G02*
X152398200Y-71409400I250000J0D01*
G01*
G37*
G36*
G01*
X152398200Y-73484400D02*
X153348200Y-73484400D01*
G75*
G02*
X153598200Y-73734400I0J-250000D01*
G01*
X153598200Y-74409400D01*
G75*
G02*
X153348200Y-74659400I-250000J0D01*
G01*
X152398200Y-74659400D01*
G75*
G02*
X152148200Y-74409400I0J250000D01*
G01*
X152148200Y-73734400D01*
G75*
G02*
X152398200Y-73484400I250000J0D01*
G01*
G37*
D10*
X134518400Y-92075000D03*
X134518400Y-97525000D03*
G36*
G01*
X156709200Y-79681600D02*
X156709200Y-78731600D01*
G75*
G02*
X156959200Y-78481600I250000J0D01*
G01*
X157634200Y-78481600D01*
G75*
G02*
X157884200Y-78731600I0J-250000D01*
G01*
X157884200Y-79681600D01*
G75*
G02*
X157634200Y-79931600I-250000J0D01*
G01*
X156959200Y-79931600D01*
G75*
G02*
X156709200Y-79681600I0J250000D01*
G01*
G37*
G36*
G01*
X158784200Y-79681600D02*
X158784200Y-78731600D01*
G75*
G02*
X159034200Y-78481600I250000J0D01*
G01*
X159709200Y-78481600D01*
G75*
G02*
X159959200Y-78731600I0J-250000D01*
G01*
X159959200Y-79681600D01*
G75*
G02*
X159709200Y-79931600I-250000J0D01*
G01*
X159034200Y-79931600D01*
G75*
G02*
X158784200Y-79681600I0J250000D01*
G01*
G37*
G36*
G01*
X137135200Y-40099000D02*
X137135200Y-39149000D01*
G75*
G02*
X137385200Y-38899000I250000J0D01*
G01*
X138060200Y-38899000D01*
G75*
G02*
X138310200Y-39149000I0J-250000D01*
G01*
X138310200Y-40099000D01*
G75*
G02*
X138060200Y-40349000I-250000J0D01*
G01*
X137385200Y-40349000D01*
G75*
G02*
X137135200Y-40099000I0J250000D01*
G01*
G37*
G36*
G01*
X139210200Y-40099000D02*
X139210200Y-39149000D01*
G75*
G02*
X139460200Y-38899000I250000J0D01*
G01*
X140135200Y-38899000D01*
G75*
G02*
X140385200Y-39149000I0J-250000D01*
G01*
X140385200Y-40099000D01*
G75*
G02*
X140135200Y-40349000I-250000J0D01*
G01*
X139460200Y-40349000D01*
G75*
G02*
X139210200Y-40099000I0J250000D01*
G01*
G37*
G36*
G01*
X148165400Y-59487000D02*
X149065400Y-59487000D01*
G75*
G02*
X149315400Y-59737000I0J-250000D01*
G01*
X149315400Y-60437000D01*
G75*
G02*
X149065400Y-60687000I-250000J0D01*
G01*
X148165400Y-60687000D01*
G75*
G02*
X147915400Y-60437000I0J250000D01*
G01*
X147915400Y-59737000D01*
G75*
G02*
X148165400Y-59487000I250000J0D01*
G01*
G37*
G36*
G01*
X148165400Y-61487000D02*
X149065400Y-61487000D01*
G75*
G02*
X149315400Y-61737000I0J-250000D01*
G01*
X149315400Y-62437000D01*
G75*
G02*
X149065400Y-62687000I-250000J0D01*
G01*
X148165400Y-62687000D01*
G75*
G02*
X147915400Y-62437000I0J250000D01*
G01*
X147915400Y-61737000D01*
G75*
G02*
X148165400Y-61487000I250000J0D01*
G01*
G37*
G36*
G01*
X152035600Y-69978800D02*
X152035600Y-69028800D01*
G75*
G02*
X152285600Y-68778800I250000J0D01*
G01*
X152960600Y-68778800D01*
G75*
G02*
X153210600Y-69028800I0J-250000D01*
G01*
X153210600Y-69978800D01*
G75*
G02*
X152960600Y-70228800I-250000J0D01*
G01*
X152285600Y-70228800D01*
G75*
G02*
X152035600Y-69978800I0J250000D01*
G01*
G37*
G36*
G01*
X154110600Y-69978800D02*
X154110600Y-69028800D01*
G75*
G02*
X154360600Y-68778800I250000J0D01*
G01*
X155035600Y-68778800D01*
G75*
G02*
X155285600Y-69028800I0J-250000D01*
G01*
X155285600Y-69978800D01*
G75*
G02*
X155035600Y-70228800I-250000J0D01*
G01*
X154360600Y-70228800D01*
G75*
G02*
X154110600Y-69978800I0J250000D01*
G01*
G37*
G36*
G01*
X138837000Y-55643800D02*
X138837000Y-54693800D01*
G75*
G02*
X139087000Y-54443800I250000J0D01*
G01*
X139762000Y-54443800D01*
G75*
G02*
X140012000Y-54693800I0J-250000D01*
G01*
X140012000Y-55643800D01*
G75*
G02*
X139762000Y-55893800I-250000J0D01*
G01*
X139087000Y-55893800D01*
G75*
G02*
X138837000Y-55643800I0J250000D01*
G01*
G37*
G36*
G01*
X140912000Y-55643800D02*
X140912000Y-54693800D01*
G75*
G02*
X141162000Y-54443800I250000J0D01*
G01*
X141837000Y-54443800D01*
G75*
G02*
X142087000Y-54693800I0J-250000D01*
G01*
X142087000Y-55643800D01*
G75*
G02*
X141837000Y-55893800I-250000J0D01*
G01*
X141162000Y-55893800D01*
G75*
G02*
X140912000Y-55643800I0J250000D01*
G01*
G37*
G36*
G01*
X158793200Y-46659200D02*
X157843200Y-46659200D01*
G75*
G02*
X157593200Y-46409200I0J250000D01*
G01*
X157593200Y-45734200D01*
G75*
G02*
X157843200Y-45484200I250000J0D01*
G01*
X158793200Y-45484200D01*
G75*
G02*
X159043200Y-45734200I0J-250000D01*
G01*
X159043200Y-46409200D01*
G75*
G02*
X158793200Y-46659200I-250000J0D01*
G01*
G37*
G36*
G01*
X158793200Y-44584200D02*
X157843200Y-44584200D01*
G75*
G02*
X157593200Y-44334200I0J250000D01*
G01*
X157593200Y-43659200D01*
G75*
G02*
X157843200Y-43409200I250000J0D01*
G01*
X158793200Y-43409200D01*
G75*
G02*
X159043200Y-43659200I0J-250000D01*
G01*
X159043200Y-44334200D01*
G75*
G02*
X158793200Y-44584200I-250000J0D01*
G01*
G37*
G36*
G01*
X158894800Y-61873800D02*
X157944800Y-61873800D01*
G75*
G02*
X157694800Y-61623800I0J250000D01*
G01*
X157694800Y-60948800D01*
G75*
G02*
X157944800Y-60698800I250000J0D01*
G01*
X158894800Y-60698800D01*
G75*
G02*
X159144800Y-60948800I0J-250000D01*
G01*
X159144800Y-61623800D01*
G75*
G02*
X158894800Y-61873800I-250000J0D01*
G01*
G37*
G36*
G01*
X158894800Y-59798800D02*
X157944800Y-59798800D01*
G75*
G02*
X157694800Y-59548800I0J250000D01*
G01*
X157694800Y-58873800D01*
G75*
G02*
X157944800Y-58623800I250000J0D01*
G01*
X158894800Y-58623800D01*
G75*
G02*
X159144800Y-58873800I0J-250000D01*
G01*
X159144800Y-59548800D01*
G75*
G02*
X158894800Y-59798800I-250000J0D01*
G01*
G37*
G36*
G01*
X150651900Y-65457600D02*
X150651900Y-64507600D01*
G75*
G02*
X150901900Y-64257600I250000J0D01*
G01*
X151576900Y-64257600D01*
G75*
G02*
X151826900Y-64507600I0J-250000D01*
G01*
X151826900Y-65457600D01*
G75*
G02*
X151576900Y-65707600I-250000J0D01*
G01*
X150901900Y-65707600D01*
G75*
G02*
X150651900Y-65457600I0J250000D01*
G01*
G37*
G36*
G01*
X152726900Y-65457600D02*
X152726900Y-64507600D01*
G75*
G02*
X152976900Y-64257600I250000J0D01*
G01*
X153651900Y-64257600D01*
G75*
G02*
X153901900Y-64507600I0J-250000D01*
G01*
X153901900Y-65457600D01*
G75*
G02*
X153651900Y-65707600I-250000J0D01*
G01*
X152976900Y-65707600D01*
G75*
G02*
X152726900Y-65457600I0J250000D01*
G01*
G37*
G36*
G01*
X160357400Y-101016000D02*
X161257400Y-101016000D01*
G75*
G02*
X161507400Y-101266000I0J-250000D01*
G01*
X161507400Y-101966000D01*
G75*
G02*
X161257400Y-102216000I-250000J0D01*
G01*
X160357400Y-102216000D01*
G75*
G02*
X160107400Y-101966000I0J250000D01*
G01*
X160107400Y-101266000D01*
G75*
G02*
X160357400Y-101016000I250000J0D01*
G01*
G37*
G36*
G01*
X160357400Y-103016000D02*
X161257400Y-103016000D01*
G75*
G02*
X161507400Y-103266000I0J-250000D01*
G01*
X161507400Y-103966000D01*
G75*
G02*
X161257400Y-104216000I-250000J0D01*
G01*
X160357400Y-104216000D01*
G75*
G02*
X160107400Y-103966000I0J250000D01*
G01*
X160107400Y-103266000D01*
G75*
G02*
X160357400Y-103016000I250000J0D01*
G01*
G37*
G36*
G01*
X155142600Y-95841800D02*
X155142600Y-96791800D01*
G75*
G02*
X154892600Y-97041800I-250000J0D01*
G01*
X154217600Y-97041800D01*
G75*
G02*
X153967600Y-96791800I0J250000D01*
G01*
X153967600Y-95841800D01*
G75*
G02*
X154217600Y-95591800I250000J0D01*
G01*
X154892600Y-95591800D01*
G75*
G02*
X155142600Y-95841800I0J-250000D01*
G01*
G37*
G36*
G01*
X153067600Y-95841800D02*
X153067600Y-96791800D01*
G75*
G02*
X152817600Y-97041800I-250000J0D01*
G01*
X152142600Y-97041800D01*
G75*
G02*
X151892600Y-96791800I0J250000D01*
G01*
X151892600Y-95841800D01*
G75*
G02*
X152142600Y-95591800I250000J0D01*
G01*
X152817600Y-95591800D01*
G75*
G02*
X153067600Y-95841800I0J-250000D01*
G01*
G37*
M02*
