M48
; DRILL file {KiCad (6.0.6)} date Fri Mar 22 15:25:49 2024
; FORMAT={-:-/ absolute / metric / decimal}
; #@! TF.CreationDate,2024-03-22T15:25:49+01:00
; #@! TF.GenerationSoftware,Kicad,Pcbnew,(6.0.6)
; #@! TF.FileFunction,Plated,1,2,PTH
FMAT,2
METRIC
; #@! TA.AperFunction,Plated,PTH,ViaDrill
T1C0.800
; #@! TA.AperFunction,Plated,PTH,ComponentDrill
T2C1.000
; #@! TA.AperFunction,Plated,PTH,ComponentDrill
T3C1.020
; #@! TA.AperFunction,Plated,PTH,ComponentDrill
T4C1.300
%
G90
G05
T1
X74.676Y-86.487
X76.556Y-59.258
X87.808Y-87.24
X87.884Y-64.745
X88.189Y-69.926
X89.738Y-102.21
X96.596Y-102.26
X107.366Y-77.699
X122.58Y-59.817
X123.622Y-95.301
X124.739Y-63.856
X125.603Y-74.955
X127.66Y-53.619
X127.991Y-75.006
X128.676Y-48.438
X129.819Y-95.529
X132.664Y-63.221
X132.994Y-59.487
X133.35Y-48.412
X133.456Y-96.723
X134.417Y-91.44
X135.611Y-64.313
X135.687Y-96.723
X137.541Y-83.058
X137.559Y-78.867
X137.723Y-39.624
X137.897Y-94.666
X139.424Y-55.143
X139.624Y-78.867
X139.802Y-39.573
X139.954Y-68.936
X141.503Y-55.118
X142.672Y-49.301
X142.773Y-44.171
X144.805Y-59.792
X145.415Y-66.675
X145.44Y-73.974
X145.898Y-50.927
X148.209Y-101.575
X148.463Y-42.774
X148.488Y-44.806
X148.59Y-68.732
X148.615Y-60.087
X148.793Y-78.969
X149.25Y-83.058
X149.53Y-75.209
X150.139Y-99.543
X150.139Y-101.618
X150.901Y-48.971
X151.003Y-54.94
X151.239Y-64.999
X151.765Y-81.915
X152.661Y-69.504
X152.832Y-86.741
X152.848Y-74.05
X152.851Y-84.72
X152.873Y-71.997
X154.153Y-41.453
X154.555Y-96.317
X154.661Y-100.279
X156.253Y-41.478
X156.286Y-103.759
X156.413Y-96.317
X157.334Y-79.207
X157.661Y-81.915
X158.318Y-40.157
X158.318Y-44.047
X158.318Y-46.047
X158.42Y-61.249
X158.572Y-69.504
X159.299Y-79.207
X160.426Y-43.993
X160.452Y-63.151
X160.503Y-89.281
X160.725Y-84.437
X160.807Y-101.616
X162.56Y-94.031
X164.211Y-77.394
X164.211Y-82.194
X164.668Y-40.157
X164.744Y-98.095
X166.522Y-47.168
T2
X74.092Y-91.973
X74.092Y-94.513
X76.632Y-91.973
X76.632Y-94.513
X79.172Y-91.973
X79.172Y-94.513
X81.712Y-91.973
X81.712Y-94.513
X84.252Y-91.973
X84.252Y-94.513
X120.802Y-93.309
X120.802Y-95.849
X120.802Y-98.389
X122.184Y-69.444
X124.724Y-69.444
X127.04Y-40.31
X127.264Y-69.444
X129.58Y-40.31
X129.804Y-69.444
X130.957Y-104.394
X130.962Y-101.854
X132.12Y-40.31
X133.497Y-104.394
X133.502Y-101.854
T3
X97.333Y-51.156
X97.333Y-53.696
X97.333Y-56.236
X97.333Y-58.776
X97.333Y-61.316
X97.333Y-63.856
X97.333Y-66.396
X97.333Y-68.936
X97.333Y-71.476
X97.333Y-74.016
X97.333Y-76.556
X97.333Y-79.096
X97.333Y-81.636
X97.333Y-84.176
X97.333Y-86.716
X97.333Y-89.256
X97.333Y-91.796
X97.333Y-94.336
X97.333Y-96.876
X97.333Y-99.416
X103.683Y-51.386
X106.223Y-51.386
X108.763Y-51.386
X115.113Y-51.156
X115.113Y-53.696
X115.113Y-56.236
X115.113Y-58.776
X115.113Y-61.316
X115.113Y-63.856
X115.113Y-66.396
X115.113Y-68.936
X115.113Y-71.476
X115.113Y-74.016
X115.113Y-76.556
X115.113Y-79.096
X115.113Y-81.636
X115.113Y-84.176
X115.113Y-86.716
X115.113Y-89.256
X115.113Y-91.796
X115.113Y-94.336
X115.113Y-96.876
X115.113Y-99.416
T4
X138.508Y-103.629
X143.588Y-103.629
X168.53Y-51.96
X168.53Y-57.04
X168.53Y-62.12
X168.53Y-67.2
X168.53Y-72.28
X168.53Y-77.36
X168.53Y-82.44
X168.53Y-87.52
X168.53Y-92.6
X168.53Y-97.68
T0
M30
