%FSLAX45Y45*%
G04 Gerber Fmt 4.5, Leading zero omitted, Abs format (unit mm)*
G04 Created by KiCad (PCBNEW (6.0.6)) date 2024-03-22 15:25:51*
%MOMM*%
%LPD*%
G01*
G04 APERTURE LIST*
%TA.AperFunction,Profile*%
%ADD10C,0.100000*%
%TD*%
%ADD11C,0.200000*%
%ADD12C,0.150000*%
%ADD13C,0.180000*%
%ADD14C,0.320000*%
G04 APERTURE END LIST*
D10*
X17399000Y-3238500D02*
X5717540Y-3238500D01*
X5717540Y-3238500D02*
X5717540Y-10939780D01*
X5717540Y-10939780D02*
X17399000Y-10939780D01*
X17399000Y-10939780D02*
X17399000Y-3238500D01*
D11*
D12*
X10304780Y-9550560D02*
X10454780Y-9700560D01*
X10454780Y-9550560D02*
X10304780Y-9700560D01*
X10789780Y-9550560D02*
X10939780Y-9700560D01*
X10939780Y-9550560D02*
X10789780Y-9700560D01*
D13*
X10439780Y-9928560D02*
G75*
G03*
X10439780Y-9928560I-90000J0D01*
G01*
X10984780Y-9928560D02*
G75*
G03*
X10984780Y-9928560I-90000J0D01*
G01*
D14*
X6017260Y-3378220D02*
X6017260Y-3698220D01*
X5857260Y-3538220D02*
X6177260Y-3538220D01*
X6017260Y-10480060D02*
X6017260Y-10800060D01*
X5857260Y-10640060D02*
X6177260Y-10640060D01*
X10624820Y-5862340D02*
X10624820Y-6182340D01*
X10464820Y-6022340D02*
X10784820Y-6022340D01*
X13489940Y-5260360D02*
X13489940Y-5580360D01*
X13329940Y-5420360D02*
X13649940Y-5420360D01*
X17099280Y-10480060D02*
X17099280Y-10800060D01*
X16939280Y-10640060D02*
X17259280Y-10640060D01*
X17101820Y-3378220D02*
X17101820Y-3698220D01*
X16941820Y-3538220D02*
X17261820Y-3538220D01*
D11*
X5970159Y-11255256D02*
X5970159Y-11055256D01*
X6017778Y-11055256D01*
X6046349Y-11064780D01*
X6065397Y-11083828D01*
X6074921Y-11102875D01*
X6084445Y-11140970D01*
X6084445Y-11169542D01*
X6074921Y-11207637D01*
X6065397Y-11226685D01*
X6046349Y-11245732D01*
X6017778Y-11255256D01*
X5970159Y-11255256D01*
X6170159Y-11255256D02*
X6170159Y-11121923D01*
X6170159Y-11160018D02*
X6179683Y-11140970D01*
X6189207Y-11131447D01*
X6208254Y-11121923D01*
X6227302Y-11121923D01*
X6293968Y-11255256D02*
X6293968Y-11121923D01*
X6293968Y-11055256D02*
X6284445Y-11064780D01*
X6293968Y-11074304D01*
X6303492Y-11064780D01*
X6293968Y-11055256D01*
X6293968Y-11074304D01*
X6417778Y-11255256D02*
X6398730Y-11245732D01*
X6389207Y-11226685D01*
X6389207Y-11055256D01*
X6522540Y-11255256D02*
X6503492Y-11245732D01*
X6493968Y-11226685D01*
X6493968Y-11055256D01*
X6751111Y-11255256D02*
X6751111Y-11055256D01*
X6817778Y-11198113D01*
X6884445Y-11055256D01*
X6884445Y-11255256D01*
X7065397Y-11255256D02*
X7065397Y-11150494D01*
X7055873Y-11131447D01*
X7036826Y-11121923D01*
X6998730Y-11121923D01*
X6979683Y-11131447D01*
X7065397Y-11245732D02*
X7046349Y-11255256D01*
X6998730Y-11255256D01*
X6979683Y-11245732D01*
X6970159Y-11226685D01*
X6970159Y-11207637D01*
X6979683Y-11188589D01*
X6998730Y-11179066D01*
X7046349Y-11179066D01*
X7065397Y-11169542D01*
X7160635Y-11121923D02*
X7160635Y-11321923D01*
X7160635Y-11131447D02*
X7179683Y-11121923D01*
X7217778Y-11121923D01*
X7236826Y-11131447D01*
X7246349Y-11140970D01*
X7255873Y-11160018D01*
X7255873Y-11217161D01*
X7246349Y-11236208D01*
X7236826Y-11245732D01*
X7217778Y-11255256D01*
X7179683Y-11255256D01*
X7160635Y-11245732D01*
X7341588Y-11236208D02*
X7351111Y-11245732D01*
X7341588Y-11255256D01*
X7332064Y-11245732D01*
X7341588Y-11236208D01*
X7341588Y-11255256D01*
X7341588Y-11131447D02*
X7351111Y-11140970D01*
X7341588Y-11150494D01*
X7332064Y-11140970D01*
X7341588Y-11131447D01*
X7341588Y-11150494D01*
D12*
X5562540Y-11509780D02*
X5712540Y-11659780D01*
X5712540Y-11509780D02*
X5562540Y-11659780D01*
D11*
X6074921Y-11675256D02*
X5960635Y-11675256D01*
X6017778Y-11675256D02*
X6017778Y-11475256D01*
X5998730Y-11503828D01*
X5979683Y-11522875D01*
X5960635Y-11532399D01*
X6160635Y-11656208D02*
X6170159Y-11665732D01*
X6160635Y-11675256D01*
X6151111Y-11665732D01*
X6160635Y-11656208D01*
X6160635Y-11675256D01*
X6351111Y-11475256D02*
X6255873Y-11475256D01*
X6246349Y-11570494D01*
X6255873Y-11560970D01*
X6274921Y-11551447D01*
X6322540Y-11551447D01*
X6341588Y-11560970D01*
X6351111Y-11570494D01*
X6360635Y-11589542D01*
X6360635Y-11637161D01*
X6351111Y-11656208D01*
X6341588Y-11665732D01*
X6322540Y-11675256D01*
X6274921Y-11675256D01*
X6255873Y-11665732D01*
X6246349Y-11656208D01*
X6484445Y-11475256D02*
X6503492Y-11475256D01*
X6522540Y-11484780D01*
X6532064Y-11494304D01*
X6541588Y-11513351D01*
X6551111Y-11551447D01*
X6551111Y-11599066D01*
X6541588Y-11637161D01*
X6532064Y-11656208D01*
X6522540Y-11665732D01*
X6503492Y-11675256D01*
X6484445Y-11675256D01*
X6465397Y-11665732D01*
X6455873Y-11656208D01*
X6446349Y-11637161D01*
X6436826Y-11599066D01*
X6436826Y-11551447D01*
X6446349Y-11513351D01*
X6455873Y-11494304D01*
X6465397Y-11484780D01*
X6484445Y-11475256D01*
X6674921Y-11475256D02*
X6693968Y-11475256D01*
X6713016Y-11484780D01*
X6722540Y-11494304D01*
X6732064Y-11513351D01*
X6741588Y-11551447D01*
X6741588Y-11599066D01*
X6732064Y-11637161D01*
X6722540Y-11656208D01*
X6713016Y-11665732D01*
X6693968Y-11675256D01*
X6674921Y-11675256D01*
X6655873Y-11665732D01*
X6646349Y-11656208D01*
X6636826Y-11637161D01*
X6627302Y-11599066D01*
X6627302Y-11551447D01*
X6636826Y-11513351D01*
X6646349Y-11494304D01*
X6655873Y-11484780D01*
X6674921Y-11475256D01*
X6827302Y-11675256D02*
X6827302Y-11541923D01*
X6827302Y-11560970D02*
X6836826Y-11551447D01*
X6855873Y-11541923D01*
X6884445Y-11541923D01*
X6903492Y-11551447D01*
X6913016Y-11570494D01*
X6913016Y-11675256D01*
X6913016Y-11570494D02*
X6922540Y-11551447D01*
X6941588Y-11541923D01*
X6970159Y-11541923D01*
X6989207Y-11551447D01*
X6998730Y-11570494D01*
X6998730Y-11675256D01*
X7093968Y-11675256D02*
X7093968Y-11541923D01*
X7093968Y-11560970D02*
X7103492Y-11551447D01*
X7122540Y-11541923D01*
X7151111Y-11541923D01*
X7170159Y-11551447D01*
X7179683Y-11570494D01*
X7179683Y-11675256D01*
X7179683Y-11570494D02*
X7189207Y-11551447D01*
X7208254Y-11541923D01*
X7236826Y-11541923D01*
X7255873Y-11551447D01*
X7265397Y-11570494D01*
X7265397Y-11675256D01*
X7655873Y-11465732D02*
X7484445Y-11722875D01*
X7913016Y-11475256D02*
X7932064Y-11475256D01*
X7951111Y-11484780D01*
X7960635Y-11494304D01*
X7970159Y-11513351D01*
X7979683Y-11551447D01*
X7979683Y-11599066D01*
X7970159Y-11637161D01*
X7960635Y-11656208D01*
X7951111Y-11665732D01*
X7932064Y-11675256D01*
X7913016Y-11675256D01*
X7893968Y-11665732D01*
X7884445Y-11656208D01*
X7874921Y-11637161D01*
X7865397Y-11599066D01*
X7865397Y-11551447D01*
X7874921Y-11513351D01*
X7884445Y-11494304D01*
X7893968Y-11484780D01*
X7913016Y-11475256D01*
X8065397Y-11656208D02*
X8074921Y-11665732D01*
X8065397Y-11675256D01*
X8055873Y-11665732D01*
X8065397Y-11656208D01*
X8065397Y-11675256D01*
X8198730Y-11475256D02*
X8217778Y-11475256D01*
X8236826Y-11484780D01*
X8246349Y-11494304D01*
X8255873Y-11513351D01*
X8265397Y-11551447D01*
X8265397Y-11599066D01*
X8255873Y-11637161D01*
X8246349Y-11656208D01*
X8236826Y-11665732D01*
X8217778Y-11675256D01*
X8198730Y-11675256D01*
X8179683Y-11665732D01*
X8170159Y-11656208D01*
X8160635Y-11637161D01*
X8151111Y-11599066D01*
X8151111Y-11551447D01*
X8160635Y-11513351D01*
X8170159Y-11494304D01*
X8179683Y-11484780D01*
X8198730Y-11475256D01*
X8446350Y-11475256D02*
X8351111Y-11475256D01*
X8341588Y-11570494D01*
X8351111Y-11560970D01*
X8370159Y-11551447D01*
X8417778Y-11551447D01*
X8436826Y-11560970D01*
X8446350Y-11570494D01*
X8455873Y-11589542D01*
X8455873Y-11637161D01*
X8446350Y-11656208D01*
X8436826Y-11665732D01*
X8417778Y-11675256D01*
X8370159Y-11675256D01*
X8351111Y-11665732D01*
X8341588Y-11656208D01*
X8551111Y-11675256D02*
X8589207Y-11675256D01*
X8608254Y-11665732D01*
X8617778Y-11656208D01*
X8636826Y-11627637D01*
X8646350Y-11589542D01*
X8646350Y-11513351D01*
X8636826Y-11494304D01*
X8627302Y-11484780D01*
X8608254Y-11475256D01*
X8570159Y-11475256D01*
X8551111Y-11484780D01*
X8541588Y-11494304D01*
X8532064Y-11513351D01*
X8532064Y-11560970D01*
X8541588Y-11580018D01*
X8551111Y-11589542D01*
X8570159Y-11599066D01*
X8608254Y-11599066D01*
X8627302Y-11589542D01*
X8636826Y-11580018D01*
X8646350Y-11560970D01*
X8836826Y-11675256D02*
X8722540Y-11675256D01*
X8779683Y-11675256D02*
X8779683Y-11475256D01*
X8760635Y-11503828D01*
X8741588Y-11522875D01*
X8722540Y-11532399D01*
X8913016Y-11475256D02*
X8913016Y-11513351D01*
X8989207Y-11475256D02*
X8989207Y-11513351D01*
X9284445Y-11751447D02*
X9274921Y-11741923D01*
X9255873Y-11713351D01*
X9246350Y-11694304D01*
X9236826Y-11665732D01*
X9227302Y-11618113D01*
X9227302Y-11580018D01*
X9236826Y-11532399D01*
X9246350Y-11503828D01*
X9255873Y-11484780D01*
X9274921Y-11456208D01*
X9284445Y-11446685D01*
X9351111Y-11494304D02*
X9360635Y-11484780D01*
X9379683Y-11475256D01*
X9427302Y-11475256D01*
X9446350Y-11484780D01*
X9455873Y-11494304D01*
X9465397Y-11513351D01*
X9465397Y-11532399D01*
X9455873Y-11560970D01*
X9341588Y-11675256D01*
X9465397Y-11675256D01*
X9703492Y-11675256D02*
X9703492Y-11475256D01*
X9789207Y-11675256D02*
X9789207Y-11570494D01*
X9779683Y-11551447D01*
X9760635Y-11541923D01*
X9732064Y-11541923D01*
X9713016Y-11551447D01*
X9703492Y-11560970D01*
X9913016Y-11675256D02*
X9893969Y-11665732D01*
X9884445Y-11656208D01*
X9874921Y-11637161D01*
X9874921Y-11580018D01*
X9884445Y-11560970D01*
X9893969Y-11551447D01*
X9913016Y-11541923D01*
X9941588Y-11541923D01*
X9960635Y-11551447D01*
X9970159Y-11560970D01*
X9979683Y-11580018D01*
X9979683Y-11637161D01*
X9970159Y-11656208D01*
X9960635Y-11665732D01*
X9941588Y-11675256D01*
X9913016Y-11675256D01*
X10093969Y-11675256D02*
X10074921Y-11665732D01*
X10065397Y-11646685D01*
X10065397Y-11475256D01*
X10246350Y-11665732D02*
X10227302Y-11675256D01*
X10189207Y-11675256D01*
X10170159Y-11665732D01*
X10160635Y-11646685D01*
X10160635Y-11570494D01*
X10170159Y-11551447D01*
X10189207Y-11541923D01*
X10227302Y-11541923D01*
X10246350Y-11551447D01*
X10255873Y-11570494D01*
X10255873Y-11589542D01*
X10160635Y-11608589D01*
X10332064Y-11665732D02*
X10351111Y-11675256D01*
X10389207Y-11675256D01*
X10408254Y-11665732D01*
X10417778Y-11646685D01*
X10417778Y-11637161D01*
X10408254Y-11618113D01*
X10389207Y-11608589D01*
X10360635Y-11608589D01*
X10341588Y-11599066D01*
X10332064Y-11580018D01*
X10332064Y-11570494D01*
X10341588Y-11551447D01*
X10360635Y-11541923D01*
X10389207Y-11541923D01*
X10408254Y-11551447D01*
X10484445Y-11751447D02*
X10493969Y-11741923D01*
X10513016Y-11713351D01*
X10522540Y-11694304D01*
X10532064Y-11665732D01*
X10541588Y-11618113D01*
X10541588Y-11580018D01*
X10532064Y-11532399D01*
X10522540Y-11503828D01*
X10513016Y-11484780D01*
X10493969Y-11456208D01*
X10484445Y-11446685D01*
X10846350Y-11751447D02*
X10836826Y-11741923D01*
X10817778Y-11713351D01*
X10808254Y-11694304D01*
X10798730Y-11665732D01*
X10789207Y-11618113D01*
X10789207Y-11580018D01*
X10798730Y-11532399D01*
X10808254Y-11503828D01*
X10817778Y-11484780D01*
X10836826Y-11456208D01*
X10846350Y-11446685D01*
X10922540Y-11541923D02*
X10922540Y-11675256D01*
X10922540Y-11560970D02*
X10932064Y-11551447D01*
X10951111Y-11541923D01*
X10979683Y-11541923D01*
X10998730Y-11551447D01*
X11008254Y-11570494D01*
X11008254Y-11675256D01*
X11132064Y-11675256D02*
X11113016Y-11665732D01*
X11103492Y-11656208D01*
X11093969Y-11637161D01*
X11093969Y-11580018D01*
X11103492Y-11560970D01*
X11113016Y-11551447D01*
X11132064Y-11541923D01*
X11160635Y-11541923D01*
X11179683Y-11551447D01*
X11189207Y-11560970D01*
X11198730Y-11580018D01*
X11198730Y-11637161D01*
X11189207Y-11656208D01*
X11179683Y-11665732D01*
X11160635Y-11675256D01*
X11132064Y-11675256D01*
X11255873Y-11541923D02*
X11332064Y-11541923D01*
X11284445Y-11475256D02*
X11284445Y-11646685D01*
X11293968Y-11665732D01*
X11313016Y-11675256D01*
X11332064Y-11675256D01*
X11551111Y-11541923D02*
X11551111Y-11741923D01*
X11551111Y-11551447D02*
X11570159Y-11541923D01*
X11608254Y-11541923D01*
X11627302Y-11551447D01*
X11636826Y-11560970D01*
X11646349Y-11580018D01*
X11646349Y-11637161D01*
X11636826Y-11656208D01*
X11627302Y-11665732D01*
X11608254Y-11675256D01*
X11570159Y-11675256D01*
X11551111Y-11665732D01*
X11760635Y-11675256D02*
X11741588Y-11665732D01*
X11732064Y-11646685D01*
X11732064Y-11475256D01*
X11922540Y-11675256D02*
X11922540Y-11570494D01*
X11913016Y-11551447D01*
X11893968Y-11541923D01*
X11855873Y-11541923D01*
X11836826Y-11551447D01*
X11922540Y-11665732D02*
X11903492Y-11675256D01*
X11855873Y-11675256D01*
X11836826Y-11665732D01*
X11827302Y-11646685D01*
X11827302Y-11627637D01*
X11836826Y-11608589D01*
X11855873Y-11599066D01*
X11903492Y-11599066D01*
X11922540Y-11589542D01*
X11989207Y-11541923D02*
X12065397Y-11541923D01*
X12017778Y-11475256D02*
X12017778Y-11646685D01*
X12027302Y-11665732D01*
X12046349Y-11675256D01*
X12065397Y-11675256D01*
X12208254Y-11665732D02*
X12189207Y-11675256D01*
X12151111Y-11675256D01*
X12132064Y-11665732D01*
X12122540Y-11646685D01*
X12122540Y-11570494D01*
X12132064Y-11551447D01*
X12151111Y-11541923D01*
X12189207Y-11541923D01*
X12208254Y-11551447D01*
X12217778Y-11570494D01*
X12217778Y-11589542D01*
X12122540Y-11608589D01*
X12389207Y-11675256D02*
X12389207Y-11475256D01*
X12389207Y-11665732D02*
X12370159Y-11675256D01*
X12332064Y-11675256D01*
X12313016Y-11665732D01*
X12303492Y-11656208D01*
X12293968Y-11637161D01*
X12293968Y-11580018D01*
X12303492Y-11560970D01*
X12313016Y-11551447D01*
X12332064Y-11541923D01*
X12370159Y-11541923D01*
X12389207Y-11551447D01*
X12465397Y-11751447D02*
X12474921Y-11741923D01*
X12493968Y-11713351D01*
X12503492Y-11694304D01*
X12513016Y-11665732D01*
X12522540Y-11618113D01*
X12522540Y-11580018D01*
X12513016Y-11532399D01*
X12503492Y-11503828D01*
X12493968Y-11484780D01*
X12474921Y-11456208D01*
X12465397Y-11446685D01*
D13*
X5712540Y-11854780D02*
G75*
G03*
X5712540Y-11854780I-90000J0D01*
G01*
D11*
X6074921Y-11945256D02*
X5960635Y-11945256D01*
X6017778Y-11945256D02*
X6017778Y-11745256D01*
X5998730Y-11773828D01*
X5979683Y-11792875D01*
X5960635Y-11802399D01*
X6160635Y-11926208D02*
X6170159Y-11935732D01*
X6160635Y-11945256D01*
X6151111Y-11935732D01*
X6160635Y-11926208D01*
X6160635Y-11945256D01*
X6284445Y-11830970D02*
X6265397Y-11821447D01*
X6255873Y-11811923D01*
X6246349Y-11792875D01*
X6246349Y-11783351D01*
X6255873Y-11764304D01*
X6265397Y-11754780D01*
X6284445Y-11745256D01*
X6322540Y-11745256D01*
X6341588Y-11754780D01*
X6351111Y-11764304D01*
X6360635Y-11783351D01*
X6360635Y-11792875D01*
X6351111Y-11811923D01*
X6341588Y-11821447D01*
X6322540Y-11830970D01*
X6284445Y-11830970D01*
X6265397Y-11840494D01*
X6255873Y-11850018D01*
X6246349Y-11869066D01*
X6246349Y-11907161D01*
X6255873Y-11926208D01*
X6265397Y-11935732D01*
X6284445Y-11945256D01*
X6322540Y-11945256D01*
X6341588Y-11935732D01*
X6351111Y-11926208D01*
X6360635Y-11907161D01*
X6360635Y-11869066D01*
X6351111Y-11850018D01*
X6341588Y-11840494D01*
X6322540Y-11830970D01*
X6484445Y-11745256D02*
X6503492Y-11745256D01*
X6522540Y-11754780D01*
X6532064Y-11764304D01*
X6541588Y-11783351D01*
X6551111Y-11821447D01*
X6551111Y-11869066D01*
X6541588Y-11907161D01*
X6532064Y-11926208D01*
X6522540Y-11935732D01*
X6503492Y-11945256D01*
X6484445Y-11945256D01*
X6465397Y-11935732D01*
X6455873Y-11926208D01*
X6446349Y-11907161D01*
X6436826Y-11869066D01*
X6436826Y-11821447D01*
X6446349Y-11783351D01*
X6455873Y-11764304D01*
X6465397Y-11754780D01*
X6484445Y-11745256D01*
X6674921Y-11745256D02*
X6693968Y-11745256D01*
X6713016Y-11754780D01*
X6722540Y-11764304D01*
X6732064Y-11783351D01*
X6741588Y-11821447D01*
X6741588Y-11869066D01*
X6732064Y-11907161D01*
X6722540Y-11926208D01*
X6713016Y-11935732D01*
X6693968Y-11945256D01*
X6674921Y-11945256D01*
X6655873Y-11935732D01*
X6646349Y-11926208D01*
X6636826Y-11907161D01*
X6627302Y-11869066D01*
X6627302Y-11821447D01*
X6636826Y-11783351D01*
X6646349Y-11764304D01*
X6655873Y-11754780D01*
X6674921Y-11745256D01*
X6827302Y-11945256D02*
X6827302Y-11811923D01*
X6827302Y-11830970D02*
X6836826Y-11821447D01*
X6855873Y-11811923D01*
X6884445Y-11811923D01*
X6903492Y-11821447D01*
X6913016Y-11840494D01*
X6913016Y-11945256D01*
X6913016Y-11840494D02*
X6922540Y-11821447D01*
X6941588Y-11811923D01*
X6970159Y-11811923D01*
X6989207Y-11821447D01*
X6998730Y-11840494D01*
X6998730Y-11945256D01*
X7093968Y-11945256D02*
X7093968Y-11811923D01*
X7093968Y-11830970D02*
X7103492Y-11821447D01*
X7122540Y-11811923D01*
X7151111Y-11811923D01*
X7170159Y-11821447D01*
X7179683Y-11840494D01*
X7179683Y-11945256D01*
X7179683Y-11840494D02*
X7189207Y-11821447D01*
X7208254Y-11811923D01*
X7236826Y-11811923D01*
X7255873Y-11821447D01*
X7265397Y-11840494D01*
X7265397Y-11945256D01*
X7655873Y-11735732D02*
X7484445Y-11992875D01*
X7913016Y-11745256D02*
X7932064Y-11745256D01*
X7951111Y-11754780D01*
X7960635Y-11764304D01*
X7970159Y-11783351D01*
X7979683Y-11821447D01*
X7979683Y-11869066D01*
X7970159Y-11907161D01*
X7960635Y-11926208D01*
X7951111Y-11935732D01*
X7932064Y-11945256D01*
X7913016Y-11945256D01*
X7893968Y-11935732D01*
X7884445Y-11926208D01*
X7874921Y-11907161D01*
X7865397Y-11869066D01*
X7865397Y-11821447D01*
X7874921Y-11783351D01*
X7884445Y-11764304D01*
X7893968Y-11754780D01*
X7913016Y-11745256D01*
X8065397Y-11926208D02*
X8074921Y-11935732D01*
X8065397Y-11945256D01*
X8055873Y-11935732D01*
X8065397Y-11926208D01*
X8065397Y-11945256D01*
X8198730Y-11745256D02*
X8217778Y-11745256D01*
X8236826Y-11754780D01*
X8246349Y-11764304D01*
X8255873Y-11783351D01*
X8265397Y-11821447D01*
X8265397Y-11869066D01*
X8255873Y-11907161D01*
X8246349Y-11926208D01*
X8236826Y-11935732D01*
X8217778Y-11945256D01*
X8198730Y-11945256D01*
X8179683Y-11935732D01*
X8170159Y-11926208D01*
X8160635Y-11907161D01*
X8151111Y-11869066D01*
X8151111Y-11821447D01*
X8160635Y-11783351D01*
X8170159Y-11764304D01*
X8179683Y-11754780D01*
X8198730Y-11745256D01*
X8332064Y-11745256D02*
X8465397Y-11745256D01*
X8379683Y-11945256D01*
X8579683Y-11745256D02*
X8598730Y-11745256D01*
X8617778Y-11754780D01*
X8627302Y-11764304D01*
X8636826Y-11783351D01*
X8646350Y-11821447D01*
X8646350Y-11869066D01*
X8636826Y-11907161D01*
X8627302Y-11926208D01*
X8617778Y-11935732D01*
X8598730Y-11945256D01*
X8579683Y-11945256D01*
X8560635Y-11935732D01*
X8551111Y-11926208D01*
X8541588Y-11907161D01*
X8532064Y-11869066D01*
X8532064Y-11821447D01*
X8541588Y-11783351D01*
X8551111Y-11764304D01*
X8560635Y-11754780D01*
X8579683Y-11745256D01*
X8741588Y-11945256D02*
X8779683Y-11945256D01*
X8798730Y-11935732D01*
X8808254Y-11926208D01*
X8827302Y-11897637D01*
X8836826Y-11859542D01*
X8836826Y-11783351D01*
X8827302Y-11764304D01*
X8817778Y-11754780D01*
X8798730Y-11745256D01*
X8760635Y-11745256D01*
X8741588Y-11754780D01*
X8732064Y-11764304D01*
X8722540Y-11783351D01*
X8722540Y-11830970D01*
X8732064Y-11850018D01*
X8741588Y-11859542D01*
X8760635Y-11869066D01*
X8798730Y-11869066D01*
X8817778Y-11859542D01*
X8827302Y-11850018D01*
X8836826Y-11830970D01*
X8913016Y-11745256D02*
X8913016Y-11783351D01*
X8989207Y-11745256D02*
X8989207Y-11783351D01*
X9284445Y-12021447D02*
X9274921Y-12011923D01*
X9255873Y-11983351D01*
X9246350Y-11964304D01*
X9236826Y-11935732D01*
X9227302Y-11888113D01*
X9227302Y-11850018D01*
X9236826Y-11802399D01*
X9246350Y-11773828D01*
X9255873Y-11754780D01*
X9274921Y-11726208D01*
X9284445Y-11716685D01*
X9351111Y-11764304D02*
X9360635Y-11754780D01*
X9379683Y-11745256D01*
X9427302Y-11745256D01*
X9446350Y-11754780D01*
X9455873Y-11764304D01*
X9465397Y-11783351D01*
X9465397Y-11802399D01*
X9455873Y-11830970D01*
X9341588Y-11945256D01*
X9465397Y-11945256D01*
X9703492Y-11945256D02*
X9703492Y-11745256D01*
X9789207Y-11945256D02*
X9789207Y-11840494D01*
X9779683Y-11821447D01*
X9760635Y-11811923D01*
X9732064Y-11811923D01*
X9713016Y-11821447D01*
X9703492Y-11830970D01*
X9913016Y-11945256D02*
X9893969Y-11935732D01*
X9884445Y-11926208D01*
X9874921Y-11907161D01*
X9874921Y-11850018D01*
X9884445Y-11830970D01*
X9893969Y-11821447D01*
X9913016Y-11811923D01*
X9941588Y-11811923D01*
X9960635Y-11821447D01*
X9970159Y-11830970D01*
X9979683Y-11850018D01*
X9979683Y-11907161D01*
X9970159Y-11926208D01*
X9960635Y-11935732D01*
X9941588Y-11945256D01*
X9913016Y-11945256D01*
X10093969Y-11945256D02*
X10074921Y-11935732D01*
X10065397Y-11916685D01*
X10065397Y-11745256D01*
X10246350Y-11935732D02*
X10227302Y-11945256D01*
X10189207Y-11945256D01*
X10170159Y-11935732D01*
X10160635Y-11916685D01*
X10160635Y-11840494D01*
X10170159Y-11821447D01*
X10189207Y-11811923D01*
X10227302Y-11811923D01*
X10246350Y-11821447D01*
X10255873Y-11840494D01*
X10255873Y-11859542D01*
X10160635Y-11878589D01*
X10332064Y-11935732D02*
X10351111Y-11945256D01*
X10389207Y-11945256D01*
X10408254Y-11935732D01*
X10417778Y-11916685D01*
X10417778Y-11907161D01*
X10408254Y-11888113D01*
X10389207Y-11878589D01*
X10360635Y-11878589D01*
X10341588Y-11869066D01*
X10332064Y-11850018D01*
X10332064Y-11840494D01*
X10341588Y-11821447D01*
X10360635Y-11811923D01*
X10389207Y-11811923D01*
X10408254Y-11821447D01*
X10484445Y-12021447D02*
X10493969Y-12011923D01*
X10513016Y-11983351D01*
X10522540Y-11964304D01*
X10532064Y-11935732D01*
X10541588Y-11888113D01*
X10541588Y-11850018D01*
X10532064Y-11802399D01*
X10522540Y-11773828D01*
X10513016Y-11754780D01*
X10493969Y-11726208D01*
X10484445Y-11716685D01*
X10846350Y-12021447D02*
X10836826Y-12011923D01*
X10817778Y-11983351D01*
X10808254Y-11964304D01*
X10798730Y-11935732D01*
X10789207Y-11888113D01*
X10789207Y-11850018D01*
X10798730Y-11802399D01*
X10808254Y-11773828D01*
X10817778Y-11754780D01*
X10836826Y-11726208D01*
X10846350Y-11716685D01*
X10922540Y-11811923D02*
X10922540Y-11945256D01*
X10922540Y-11830970D02*
X10932064Y-11821447D01*
X10951111Y-11811923D01*
X10979683Y-11811923D01*
X10998730Y-11821447D01*
X11008254Y-11840494D01*
X11008254Y-11945256D01*
X11132064Y-11945256D02*
X11113016Y-11935732D01*
X11103492Y-11926208D01*
X11093969Y-11907161D01*
X11093969Y-11850018D01*
X11103492Y-11830970D01*
X11113016Y-11821447D01*
X11132064Y-11811923D01*
X11160635Y-11811923D01*
X11179683Y-11821447D01*
X11189207Y-11830970D01*
X11198730Y-11850018D01*
X11198730Y-11907161D01*
X11189207Y-11926208D01*
X11179683Y-11935732D01*
X11160635Y-11945256D01*
X11132064Y-11945256D01*
X11255873Y-11811923D02*
X11332064Y-11811923D01*
X11284445Y-11745256D02*
X11284445Y-11916685D01*
X11293968Y-11935732D01*
X11313016Y-11945256D01*
X11332064Y-11945256D01*
X11551111Y-11811923D02*
X11551111Y-12011923D01*
X11551111Y-11821447D02*
X11570159Y-11811923D01*
X11608254Y-11811923D01*
X11627302Y-11821447D01*
X11636826Y-11830970D01*
X11646349Y-11850018D01*
X11646349Y-11907161D01*
X11636826Y-11926208D01*
X11627302Y-11935732D01*
X11608254Y-11945256D01*
X11570159Y-11945256D01*
X11551111Y-11935732D01*
X11760635Y-11945256D02*
X11741588Y-11935732D01*
X11732064Y-11916685D01*
X11732064Y-11745256D01*
X11922540Y-11945256D02*
X11922540Y-11840494D01*
X11913016Y-11821447D01*
X11893968Y-11811923D01*
X11855873Y-11811923D01*
X11836826Y-11821447D01*
X11922540Y-11935732D02*
X11903492Y-11945256D01*
X11855873Y-11945256D01*
X11836826Y-11935732D01*
X11827302Y-11916685D01*
X11827302Y-11897637D01*
X11836826Y-11878589D01*
X11855873Y-11869066D01*
X11903492Y-11869066D01*
X11922540Y-11859542D01*
X11989207Y-11811923D02*
X12065397Y-11811923D01*
X12017778Y-11745256D02*
X12017778Y-11916685D01*
X12027302Y-11935732D01*
X12046349Y-11945256D01*
X12065397Y-11945256D01*
X12208254Y-11935732D02*
X12189207Y-11945256D01*
X12151111Y-11945256D01*
X12132064Y-11935732D01*
X12122540Y-11916685D01*
X12122540Y-11840494D01*
X12132064Y-11821447D01*
X12151111Y-11811923D01*
X12189207Y-11811923D01*
X12208254Y-11821447D01*
X12217778Y-11840494D01*
X12217778Y-11859542D01*
X12122540Y-11878589D01*
X12389207Y-11945256D02*
X12389207Y-11745256D01*
X12389207Y-11935732D02*
X12370159Y-11945256D01*
X12332064Y-11945256D01*
X12313016Y-11935732D01*
X12303492Y-11926208D01*
X12293968Y-11907161D01*
X12293968Y-11850018D01*
X12303492Y-11830970D01*
X12313016Y-11821447D01*
X12332064Y-11811923D01*
X12370159Y-11811923D01*
X12389207Y-11821447D01*
X12465397Y-12021447D02*
X12474921Y-12011923D01*
X12493968Y-11983351D01*
X12503492Y-11964304D01*
X12513016Y-11935732D01*
X12522540Y-11888113D01*
X12522540Y-11850018D01*
X12513016Y-11802399D01*
X12503492Y-11773828D01*
X12493968Y-11754780D01*
X12474921Y-11726208D01*
X12465397Y-11716685D01*
X5612540Y-12054780D02*
X5612540Y-12254780D01*
X5512540Y-12154780D02*
X5712540Y-12154780D01*
X5951111Y-12045256D02*
X6074921Y-12045256D01*
X6008254Y-12121447D01*
X6036826Y-12121447D01*
X6055873Y-12130970D01*
X6065397Y-12140494D01*
X6074921Y-12159542D01*
X6074921Y-12207161D01*
X6065397Y-12226208D01*
X6055873Y-12235732D01*
X6036826Y-12245256D01*
X5979683Y-12245256D01*
X5960635Y-12235732D01*
X5951111Y-12226208D01*
X6160635Y-12226208D02*
X6170159Y-12235732D01*
X6160635Y-12245256D01*
X6151111Y-12235732D01*
X6160635Y-12226208D01*
X6160635Y-12245256D01*
X6246349Y-12064304D02*
X6255873Y-12054780D01*
X6274921Y-12045256D01*
X6322540Y-12045256D01*
X6341588Y-12054780D01*
X6351111Y-12064304D01*
X6360635Y-12083351D01*
X6360635Y-12102399D01*
X6351111Y-12130970D01*
X6236826Y-12245256D01*
X6360635Y-12245256D01*
X6484445Y-12045256D02*
X6503492Y-12045256D01*
X6522540Y-12054780D01*
X6532064Y-12064304D01*
X6541588Y-12083351D01*
X6551111Y-12121447D01*
X6551111Y-12169066D01*
X6541588Y-12207161D01*
X6532064Y-12226208D01*
X6522540Y-12235732D01*
X6503492Y-12245256D01*
X6484445Y-12245256D01*
X6465397Y-12235732D01*
X6455873Y-12226208D01*
X6446349Y-12207161D01*
X6436826Y-12169066D01*
X6436826Y-12121447D01*
X6446349Y-12083351D01*
X6455873Y-12064304D01*
X6465397Y-12054780D01*
X6484445Y-12045256D01*
X6674921Y-12045256D02*
X6693968Y-12045256D01*
X6713016Y-12054780D01*
X6722540Y-12064304D01*
X6732064Y-12083351D01*
X6741588Y-12121447D01*
X6741588Y-12169066D01*
X6732064Y-12207161D01*
X6722540Y-12226208D01*
X6713016Y-12235732D01*
X6693968Y-12245256D01*
X6674921Y-12245256D01*
X6655873Y-12235732D01*
X6646349Y-12226208D01*
X6636826Y-12207161D01*
X6627302Y-12169066D01*
X6627302Y-12121447D01*
X6636826Y-12083351D01*
X6646349Y-12064304D01*
X6655873Y-12054780D01*
X6674921Y-12045256D01*
X6827302Y-12245256D02*
X6827302Y-12111923D01*
X6827302Y-12130970D02*
X6836826Y-12121447D01*
X6855873Y-12111923D01*
X6884445Y-12111923D01*
X6903492Y-12121447D01*
X6913016Y-12140494D01*
X6913016Y-12245256D01*
X6913016Y-12140494D02*
X6922540Y-12121447D01*
X6941588Y-12111923D01*
X6970159Y-12111923D01*
X6989207Y-12121447D01*
X6998730Y-12140494D01*
X6998730Y-12245256D01*
X7093968Y-12245256D02*
X7093968Y-12111923D01*
X7093968Y-12130970D02*
X7103492Y-12121447D01*
X7122540Y-12111923D01*
X7151111Y-12111923D01*
X7170159Y-12121447D01*
X7179683Y-12140494D01*
X7179683Y-12245256D01*
X7179683Y-12140494D02*
X7189207Y-12121447D01*
X7208254Y-12111923D01*
X7236826Y-12111923D01*
X7255873Y-12121447D01*
X7265397Y-12140494D01*
X7265397Y-12245256D01*
X7655873Y-12035732D02*
X7484445Y-12292875D01*
X7913016Y-12045256D02*
X7932064Y-12045256D01*
X7951111Y-12054780D01*
X7960635Y-12064304D01*
X7970159Y-12083351D01*
X7979683Y-12121447D01*
X7979683Y-12169066D01*
X7970159Y-12207161D01*
X7960635Y-12226208D01*
X7951111Y-12235732D01*
X7932064Y-12245256D01*
X7913016Y-12245256D01*
X7893968Y-12235732D01*
X7884445Y-12226208D01*
X7874921Y-12207161D01*
X7865397Y-12169066D01*
X7865397Y-12121447D01*
X7874921Y-12083351D01*
X7884445Y-12064304D01*
X7893968Y-12054780D01*
X7913016Y-12045256D01*
X8065397Y-12226208D02*
X8074921Y-12235732D01*
X8065397Y-12245256D01*
X8055873Y-12235732D01*
X8065397Y-12226208D01*
X8065397Y-12245256D01*
X8265397Y-12245256D02*
X8151111Y-12245256D01*
X8208254Y-12245256D02*
X8208254Y-12045256D01*
X8189207Y-12073828D01*
X8170159Y-12092875D01*
X8151111Y-12102399D01*
X8341588Y-12064304D02*
X8351111Y-12054780D01*
X8370159Y-12045256D01*
X8417778Y-12045256D01*
X8436826Y-12054780D01*
X8446350Y-12064304D01*
X8455873Y-12083351D01*
X8455873Y-12102399D01*
X8446350Y-12130970D01*
X8332064Y-12245256D01*
X8455873Y-12245256D01*
X8627302Y-12045256D02*
X8589207Y-12045256D01*
X8570159Y-12054780D01*
X8560635Y-12064304D01*
X8541588Y-12092875D01*
X8532064Y-12130970D01*
X8532064Y-12207161D01*
X8541588Y-12226208D01*
X8551111Y-12235732D01*
X8570159Y-12245256D01*
X8608254Y-12245256D01*
X8627302Y-12235732D01*
X8636826Y-12226208D01*
X8646350Y-12207161D01*
X8646350Y-12159542D01*
X8636826Y-12140494D01*
X8627302Y-12130970D01*
X8608254Y-12121447D01*
X8570159Y-12121447D01*
X8551111Y-12130970D01*
X8541588Y-12140494D01*
X8532064Y-12159542D01*
X8770159Y-12045256D02*
X8789207Y-12045256D01*
X8808254Y-12054780D01*
X8817778Y-12064304D01*
X8827302Y-12083351D01*
X8836826Y-12121447D01*
X8836826Y-12169066D01*
X8827302Y-12207161D01*
X8817778Y-12226208D01*
X8808254Y-12235732D01*
X8789207Y-12245256D01*
X8770159Y-12245256D01*
X8751111Y-12235732D01*
X8741588Y-12226208D01*
X8732064Y-12207161D01*
X8722540Y-12169066D01*
X8722540Y-12121447D01*
X8732064Y-12083351D01*
X8741588Y-12064304D01*
X8751111Y-12054780D01*
X8770159Y-12045256D01*
X8913016Y-12045256D02*
X8913016Y-12083351D01*
X8989207Y-12045256D02*
X8989207Y-12083351D01*
X9284445Y-12321447D02*
X9274921Y-12311923D01*
X9255873Y-12283351D01*
X9246350Y-12264304D01*
X9236826Y-12235732D01*
X9227302Y-12188113D01*
X9227302Y-12150018D01*
X9236826Y-12102399D01*
X9246350Y-12073828D01*
X9255873Y-12054780D01*
X9274921Y-12026208D01*
X9284445Y-12016685D01*
X9446350Y-12045256D02*
X9408254Y-12045256D01*
X9389207Y-12054780D01*
X9379683Y-12064304D01*
X9360635Y-12092875D01*
X9351111Y-12130970D01*
X9351111Y-12207161D01*
X9360635Y-12226208D01*
X9370159Y-12235732D01*
X9389207Y-12245256D01*
X9427302Y-12245256D01*
X9446350Y-12235732D01*
X9455873Y-12226208D01*
X9465397Y-12207161D01*
X9465397Y-12159542D01*
X9455873Y-12140494D01*
X9446350Y-12130970D01*
X9427302Y-12121447D01*
X9389207Y-12121447D01*
X9370159Y-12130970D01*
X9360635Y-12140494D01*
X9351111Y-12159542D01*
X9703492Y-12245256D02*
X9703492Y-12045256D01*
X9789207Y-12245256D02*
X9789207Y-12140494D01*
X9779683Y-12121447D01*
X9760635Y-12111923D01*
X9732064Y-12111923D01*
X9713016Y-12121447D01*
X9703492Y-12130970D01*
X9913016Y-12245256D02*
X9893969Y-12235732D01*
X9884445Y-12226208D01*
X9874921Y-12207161D01*
X9874921Y-12150018D01*
X9884445Y-12130970D01*
X9893969Y-12121447D01*
X9913016Y-12111923D01*
X9941588Y-12111923D01*
X9960635Y-12121447D01*
X9970159Y-12130970D01*
X9979683Y-12150018D01*
X9979683Y-12207161D01*
X9970159Y-12226208D01*
X9960635Y-12235732D01*
X9941588Y-12245256D01*
X9913016Y-12245256D01*
X10093969Y-12245256D02*
X10074921Y-12235732D01*
X10065397Y-12216685D01*
X10065397Y-12045256D01*
X10246350Y-12235732D02*
X10227302Y-12245256D01*
X10189207Y-12245256D01*
X10170159Y-12235732D01*
X10160635Y-12216685D01*
X10160635Y-12140494D01*
X10170159Y-12121447D01*
X10189207Y-12111923D01*
X10227302Y-12111923D01*
X10246350Y-12121447D01*
X10255873Y-12140494D01*
X10255873Y-12159542D01*
X10160635Y-12178589D01*
X10332064Y-12235732D02*
X10351111Y-12245256D01*
X10389207Y-12245256D01*
X10408254Y-12235732D01*
X10417778Y-12216685D01*
X10417778Y-12207161D01*
X10408254Y-12188113D01*
X10389207Y-12178589D01*
X10360635Y-12178589D01*
X10341588Y-12169066D01*
X10332064Y-12150018D01*
X10332064Y-12140494D01*
X10341588Y-12121447D01*
X10360635Y-12111923D01*
X10389207Y-12111923D01*
X10408254Y-12121447D01*
X10484445Y-12321447D02*
X10493969Y-12311923D01*
X10513016Y-12283351D01*
X10522540Y-12264304D01*
X10532064Y-12235732D01*
X10541588Y-12188113D01*
X10541588Y-12150018D01*
X10532064Y-12102399D01*
X10522540Y-12073828D01*
X10513016Y-12054780D01*
X10493969Y-12026208D01*
X10484445Y-12016685D01*
X10846350Y-12321447D02*
X10836826Y-12311923D01*
X10817778Y-12283351D01*
X10808254Y-12264304D01*
X10798730Y-12235732D01*
X10789207Y-12188113D01*
X10789207Y-12150018D01*
X10798730Y-12102399D01*
X10808254Y-12073828D01*
X10817778Y-12054780D01*
X10836826Y-12026208D01*
X10846350Y-12016685D01*
X10922540Y-12111923D02*
X10922540Y-12245256D01*
X10922540Y-12130970D02*
X10932064Y-12121447D01*
X10951111Y-12111923D01*
X10979683Y-12111923D01*
X10998730Y-12121447D01*
X11008254Y-12140494D01*
X11008254Y-12245256D01*
X11132064Y-12245256D02*
X11113016Y-12235732D01*
X11103492Y-12226208D01*
X11093969Y-12207161D01*
X11093969Y-12150018D01*
X11103492Y-12130970D01*
X11113016Y-12121447D01*
X11132064Y-12111923D01*
X11160635Y-12111923D01*
X11179683Y-12121447D01*
X11189207Y-12130970D01*
X11198730Y-12150018D01*
X11198730Y-12207161D01*
X11189207Y-12226208D01*
X11179683Y-12235732D01*
X11160635Y-12245256D01*
X11132064Y-12245256D01*
X11255873Y-12111923D02*
X11332064Y-12111923D01*
X11284445Y-12045256D02*
X11284445Y-12216685D01*
X11293968Y-12235732D01*
X11313016Y-12245256D01*
X11332064Y-12245256D01*
X11551111Y-12111923D02*
X11551111Y-12311923D01*
X11551111Y-12121447D02*
X11570159Y-12111923D01*
X11608254Y-12111923D01*
X11627302Y-12121447D01*
X11636826Y-12130970D01*
X11646349Y-12150018D01*
X11646349Y-12207161D01*
X11636826Y-12226208D01*
X11627302Y-12235732D01*
X11608254Y-12245256D01*
X11570159Y-12245256D01*
X11551111Y-12235732D01*
X11760635Y-12245256D02*
X11741588Y-12235732D01*
X11732064Y-12216685D01*
X11732064Y-12045256D01*
X11922540Y-12245256D02*
X11922540Y-12140494D01*
X11913016Y-12121447D01*
X11893968Y-12111923D01*
X11855873Y-12111923D01*
X11836826Y-12121447D01*
X11922540Y-12235732D02*
X11903492Y-12245256D01*
X11855873Y-12245256D01*
X11836826Y-12235732D01*
X11827302Y-12216685D01*
X11827302Y-12197637D01*
X11836826Y-12178589D01*
X11855873Y-12169066D01*
X11903492Y-12169066D01*
X11922540Y-12159542D01*
X11989207Y-12111923D02*
X12065397Y-12111923D01*
X12017778Y-12045256D02*
X12017778Y-12216685D01*
X12027302Y-12235732D01*
X12046349Y-12245256D01*
X12065397Y-12245256D01*
X12208254Y-12235732D02*
X12189207Y-12245256D01*
X12151111Y-12245256D01*
X12132064Y-12235732D01*
X12122540Y-12216685D01*
X12122540Y-12140494D01*
X12132064Y-12121447D01*
X12151111Y-12111923D01*
X12189207Y-12111923D01*
X12208254Y-12121447D01*
X12217778Y-12140494D01*
X12217778Y-12159542D01*
X12122540Y-12178589D01*
X12389207Y-12245256D02*
X12389207Y-12045256D01*
X12389207Y-12235732D02*
X12370159Y-12245256D01*
X12332064Y-12245256D01*
X12313016Y-12235732D01*
X12303492Y-12226208D01*
X12293968Y-12207161D01*
X12293968Y-12150018D01*
X12303492Y-12130970D01*
X12313016Y-12121447D01*
X12332064Y-12111923D01*
X12370159Y-12111923D01*
X12389207Y-12121447D01*
X12465397Y-12321447D02*
X12474921Y-12311923D01*
X12493968Y-12283351D01*
X12503492Y-12264304D01*
X12513016Y-12235732D01*
X12522540Y-12188113D01*
X12522540Y-12150018D01*
X12513016Y-12102399D01*
X12503492Y-12073828D01*
X12493968Y-12054780D01*
X12474921Y-12026208D01*
X12465397Y-12016685D01*
M02*
