G04 #@! TF.GenerationSoftware,KiCad,Pcbnew,(6.0.6)*
G04 #@! TF.CreationDate,2022-08-29T09:11:03+02:00*
G04 #@! TF.ProjectId,relay-pc-module,72656c61-792d-4706-932d-6d6f64756c65,rev?*
G04 #@! TF.SameCoordinates,Original*
G04 #@! TF.FileFunction,Soldermask,Bot*
G04 #@! TF.FilePolarity,Negative*
%FSLAX46Y46*%
G04 Gerber Fmt 4.6, Leading zero omitted, Abs format (unit mm)*
G04 Created by KiCad (PCBNEW (6.0.6)) date 2022-08-29 09:11:03*
%MOMM*%
%LPD*%
G01*
G04 APERTURE LIST*
G04 Aperture macros list*
%AMRoundRect*
0 Rectangle with rounded corners*
0 $1 Rounding radius*
0 $2 $3 $4 $5 $6 $7 $8 $9 X,Y pos of 4 corners*
0 Add a 4 corners polygon primitive as box body*
4,1,4,$2,$3,$4,$5,$6,$7,$8,$9,$2,$3,0*
0 Add four circle primitives for the rounded corners*
1,1,$1+$1,$2,$3*
1,1,$1+$1,$4,$5*
1,1,$1+$1,$6,$7*
1,1,$1+$1,$8,$9*
0 Add four rect primitives between the rounded corners*
20,1,$1+$1,$2,$3,$4,$5,0*
20,1,$1+$1,$4,$5,$6,$7,0*
20,1,$1+$1,$6,$7,$8,$9,0*
20,1,$1+$1,$8,$9,$2,$3,0*%
G04 Aperture macros list end*
%ADD10C,3.200000*%
%ADD11R,2.600000X2.600000*%
%ADD12C,2.600000*%
%ADD13C,3.000000*%
%ADD14C,2.500000*%
%ADD15R,1.700000X1.700000*%
%ADD16O,1.700000X1.700000*%
%ADD17C,2.400000*%
%ADD18O,2.400000X2.400000*%
%ADD19RoundRect,0.250000X-0.450000X0.350000X-0.450000X-0.350000X0.450000X-0.350000X0.450000X0.350000X0*%
%ADD20R,0.900000X1.200000*%
%ADD21R,1.000000X0.700000*%
%ADD22RoundRect,0.250000X0.450000X-0.350000X0.450000X0.350000X-0.450000X0.350000X-0.450000X-0.350000X0*%
G04 APERTURE END LIST*
D10*
X39700200Y-92481400D03*
D11*
X41385000Y-25295000D03*
D12*
X36305000Y-25295000D03*
X31225000Y-25295000D03*
D10*
X79730600Y-92481400D03*
D13*
X35800000Y-69256800D03*
D14*
X41850000Y-67306800D03*
D13*
X41850000Y-55106800D03*
X29800000Y-55056800D03*
D14*
X29850000Y-67306800D03*
D15*
X92964000Y-83159600D03*
D16*
X92964000Y-80619600D03*
X92964000Y-78079600D03*
X92964000Y-75539600D03*
D17*
X41600000Y-40900000D03*
D18*
X36520000Y-40900000D03*
D17*
X91500000Y-34400000D03*
D18*
X86420000Y-34400000D03*
D15*
X30535800Y-87040800D03*
D16*
X30535800Y-89580800D03*
X27995800Y-87040800D03*
X27995800Y-89580800D03*
D17*
X41600000Y-47400000D03*
D18*
X36520000Y-47400000D03*
D17*
X66200000Y-34400000D03*
D18*
X61120000Y-34400000D03*
D13*
X60502800Y-69256800D03*
D14*
X66552800Y-67306800D03*
D13*
X66552800Y-55106800D03*
X54502800Y-55056800D03*
D14*
X54552800Y-67306800D03*
D17*
X41600000Y-34400000D03*
D18*
X36520000Y-34400000D03*
D11*
X66085000Y-25295000D03*
D12*
X61005000Y-25295000D03*
X55925000Y-25295000D03*
D13*
X85860800Y-69256800D03*
D14*
X91910800Y-67306800D03*
D13*
X91910800Y-55106800D03*
X79860800Y-55056800D03*
D14*
X79910800Y-67306800D03*
D17*
X66200000Y-40900000D03*
D18*
X61120000Y-40900000D03*
D11*
X91280000Y-25300000D03*
D12*
X86200000Y-25300000D03*
X81120000Y-25300000D03*
D15*
X29464000Y-83312000D03*
D16*
X29464000Y-80772000D03*
X29464000Y-78232000D03*
X29464000Y-75692000D03*
D15*
X67843400Y-91160600D03*
D16*
X67843400Y-93700600D03*
X65303400Y-91160600D03*
X65303400Y-93700600D03*
X62763400Y-91160600D03*
X62763400Y-93700600D03*
X60223400Y-91160600D03*
X60223400Y-93700600D03*
X57683400Y-91160600D03*
X57683400Y-93700600D03*
X55143400Y-91160600D03*
X55143400Y-93700600D03*
D17*
X66200000Y-47400000D03*
D18*
X61120000Y-47400000D03*
D17*
X91500000Y-47400000D03*
D18*
X86420000Y-47400000D03*
D17*
X91500000Y-40900000D03*
D18*
X86420000Y-40900000D03*
D19*
X59700000Y-83200000D03*
X59700000Y-85200000D03*
X40400000Y-83000000D03*
X40400000Y-85000000D03*
D20*
X56350000Y-75100000D03*
X59650000Y-75100000D03*
D21*
X64300000Y-83650000D03*
X64300000Y-85550000D03*
X61900000Y-84600000D03*
X45200000Y-83550000D03*
X45200000Y-85450000D03*
X42800000Y-84500000D03*
X83450000Y-83700000D03*
X83450000Y-85600000D03*
X81050000Y-84650000D03*
D20*
X37050000Y-74900000D03*
X40350000Y-74900000D03*
D19*
X78850000Y-83350000D03*
X78850000Y-85350000D03*
X96240600Y-85410800D03*
X96240600Y-87410800D03*
D20*
X75500000Y-75250000D03*
X78800000Y-75250000D03*
D22*
X26100000Y-72800000D03*
X26100000Y-70800000D03*
M02*
