%FSLAX45Y45*%
G04 Gerber Fmt 4.5, Leading zero omitted, Abs format (unit mm)*
G04 Created by KiCad (PCBNEW (6.0.6)) date 2022-08-27 11:47:31*
%MOMM*%
%LPD*%
G01*
G04 APERTURE LIST*
%TA.AperFunction,Profile*%
%ADD10C,0.100000*%
%TD*%
%ADD11C,0.200000*%
%ADD12C,0.040000*%
%ADD13C,0.100000*%
%ADD14C,0.120000*%
%ADD15C,0.130000*%
G04 APERTURE END LIST*
D10*
X8289000Y-6410000D02*
X8289000Y-7140000D01*
X8239000Y-7290000D02*
X8949000Y-7290000D01*
X8189000Y-7240000D02*
G75*
G03*
X8239000Y-7290000I50000J0D01*
G01*
X8999000Y-6410000D02*
X8999000Y-7240000D01*
X8999000Y-6410000D02*
G75*
G03*
X8899000Y-6410000I-50000J0D01*
G01*
X8189000Y-6410000D02*
X8189000Y-7240000D01*
X8339000Y-7190000D02*
X8849000Y-7190000D01*
X8899000Y-6410000D02*
X8899000Y-7140000D01*
X8849000Y-7190000D02*
G75*
G03*
X8899000Y-7140000I0J50000D01*
G01*
X8289000Y-7140000D02*
G75*
G03*
X8339000Y-7190000I50000J0D01*
G01*
X8289000Y-6410000D02*
G75*
G03*
X8189000Y-6410000I-50000J0D01*
G01*
X8949000Y-7290000D02*
G75*
G03*
X8999000Y-7240000I0J50000D01*
G01*
X5754000Y-6410000D02*
X5754000Y-7140000D01*
X5704000Y-7290000D02*
X6414000Y-7290000D01*
X5654000Y-7240000D02*
G75*
G03*
X5704000Y-7290000I50000J0D01*
G01*
X6464000Y-6410000D02*
X6464000Y-7240000D01*
X6464000Y-6410000D02*
G75*
G03*
X6364000Y-6410000I-50000J0D01*
G01*
X5654000Y-6410000D02*
X5654000Y-7240000D01*
X5804000Y-7190000D02*
X6314000Y-7190000D01*
X6364000Y-6410000D02*
X6364000Y-7140000D01*
X6314000Y-7190000D02*
G75*
G03*
X6364000Y-7140000I0J50000D01*
G01*
X5754000Y-7140000D02*
G75*
G03*
X5804000Y-7190000I50000J0D01*
G01*
X5754000Y-6410000D02*
G75*
G03*
X5654000Y-6410000I-50000J0D01*
G01*
X6414000Y-7290000D02*
G75*
G03*
X6464000Y-7240000I0J50000D01*
G01*
X3944000Y-7290000D02*
G75*
G03*
X3994000Y-7240000I0J50000D01*
G01*
X3994000Y-6410000D02*
X3994000Y-7240000D01*
X3234000Y-7290000D02*
X3944000Y-7290000D01*
X3184000Y-7240000D02*
G75*
G03*
X3234000Y-7290000I50000J0D01*
G01*
X3994000Y-6410000D02*
G75*
G03*
X3894000Y-6410000I-50000J0D01*
G01*
X3844000Y-7190000D02*
G75*
G03*
X3894000Y-7140000I0J50000D01*
G01*
X3284000Y-7140000D02*
G75*
G03*
X3334000Y-7190000I50000J0D01*
G01*
X3894000Y-6410000D02*
X3894000Y-7140000D01*
X3334000Y-7190000D02*
X3844000Y-7190000D01*
X3284000Y-6410000D02*
X3284000Y-7140000D01*
X3184000Y-6410000D02*
X3184000Y-7240000D01*
X3284000Y-6410000D02*
G75*
G03*
X3184000Y-6410000I-50000J0D01*
G01*
X2397760Y-9677400D02*
X2397760Y-9779000D01*
X2397760Y-9677400D02*
X2397760Y-8544560D01*
X4730000Y-5890000D02*
X4930000Y-5890000D01*
X7220000Y-5890000D02*
X7440000Y-5890000D01*
X2397760Y-2270000D02*
X4730000Y-2270000D01*
X7220000Y-2270000D02*
X7220000Y-5890000D01*
X9900920Y-2270000D02*
X9900920Y-9677400D01*
X4730000Y-2270000D02*
X4730000Y-5890000D01*
X9900920Y-9677400D02*
X9900920Y-9779000D01*
X7440000Y-5890000D02*
X7440000Y-2270000D01*
X9900920Y-9779000D02*
X2397760Y-9779000D01*
X4930000Y-2270000D02*
X7220000Y-2270000D01*
X7440000Y-2270000D02*
X9900920Y-2270000D01*
X4930000Y-5890000D02*
X4930000Y-2270000D01*
X2397760Y-8544560D02*
X2397760Y-2270000D01*
D11*
D12*
X2590000Y-7055000D02*
X2630000Y-7095000D01*
X2630000Y-7055000D02*
X2590000Y-7095000D01*
X2590000Y-7430000D02*
X2630000Y-7470000D01*
X2630000Y-7430000D02*
X2590000Y-7470000D01*
X3472500Y-9136700D02*
X3512500Y-9176700D01*
X3512500Y-9136700D02*
X3472500Y-9176700D01*
X3760000Y-8420000D02*
X3800000Y-8460000D01*
X3800000Y-8420000D02*
X3760000Y-8460000D01*
X4020000Y-8480000D02*
X4060000Y-8520000D01*
X4060000Y-8480000D02*
X4020000Y-8520000D01*
X4360000Y-7440000D02*
X4400000Y-7480000D01*
X4400000Y-7440000D02*
X4360000Y-7480000D01*
X4500000Y-8340000D02*
X4540000Y-8380000D01*
X4540000Y-8340000D02*
X4500000Y-8380000D01*
X4500000Y-8690000D02*
X4540000Y-8730000D01*
X4540000Y-8690000D02*
X4500000Y-8730000D01*
X4602800Y-9124000D02*
X4642800Y-9164000D01*
X4642800Y-9124000D02*
X4602800Y-9164000D01*
X5230000Y-7457500D02*
X5270000Y-7497500D01*
X5270000Y-7457500D02*
X5230000Y-7497500D01*
X5700000Y-8440000D02*
X5740000Y-8480000D01*
X5740000Y-8440000D02*
X5700000Y-8480000D01*
X5950000Y-8500000D02*
X5990000Y-8540000D01*
X5990000Y-8500000D02*
X5950000Y-8540000D01*
X6290000Y-7450000D02*
X6330000Y-7490000D01*
X6330000Y-7450000D02*
X6290000Y-7490000D01*
X6410000Y-8340000D02*
X6450000Y-8380000D01*
X6450000Y-8340000D02*
X6410000Y-8380000D01*
X6590000Y-8290000D02*
X6630000Y-8330000D01*
X6630000Y-8290000D02*
X6590000Y-8330000D01*
X7145000Y-7472500D02*
X7185000Y-7512500D01*
X7185000Y-7472500D02*
X7145000Y-7512500D01*
X7610000Y-8460000D02*
X7650000Y-8500000D01*
X7650000Y-8460000D02*
X7610000Y-8500000D01*
X7865000Y-8515000D02*
X7905000Y-8555000D01*
X7905000Y-8515000D02*
X7865000Y-8555000D01*
X8205000Y-7465000D02*
X8245000Y-7505000D01*
X8245000Y-7465000D02*
X8205000Y-7505000D01*
X8325000Y-8350000D02*
X8365000Y-8390000D01*
X8365000Y-8350000D02*
X8325000Y-8390000D01*
X8330000Y-8700000D02*
X8370000Y-8740000D01*
X8370000Y-8700000D02*
X8330000Y-8740000D01*
X9604060Y-8720140D02*
X9644060Y-8760140D01*
X9644060Y-8720140D02*
X9604060Y-8760140D01*
D13*
X2849580Y-8704080D02*
G75*
G03*
X2849580Y-8704080I-50000J0D01*
G01*
X2849580Y-8958080D02*
G75*
G03*
X2849580Y-8958080I-50000J0D01*
G01*
X2996400Y-7569200D02*
G75*
G03*
X2996400Y-7569200I-50000J0D01*
G01*
X2996400Y-7823200D02*
G75*
G03*
X2996400Y-7823200I-50000J0D01*
G01*
X2996400Y-8077200D02*
G75*
G03*
X2996400Y-8077200I-50000J0D01*
G01*
X2996400Y-8331200D02*
G75*
G03*
X2996400Y-8331200I-50000J0D01*
G01*
X3035000Y-6730680D02*
G75*
G03*
X3035000Y-6730680I-50000J0D01*
G01*
X3103580Y-8704080D02*
G75*
G03*
X3103580Y-8704080I-50000J0D01*
G01*
X3103580Y-8958080D02*
G75*
G03*
X3103580Y-8958080I-50000J0D01*
G01*
X4235000Y-6730680D02*
G75*
G03*
X4235000Y-6730680I-50000J0D01*
G01*
X5505280Y-6730680D02*
G75*
G03*
X5505280Y-6730680I-50000J0D01*
G01*
X5564340Y-9116060D02*
G75*
G03*
X5564340Y-9116060I-50000J0D01*
G01*
X5564340Y-9370060D02*
G75*
G03*
X5564340Y-9370060I-50000J0D01*
G01*
X5818340Y-9116060D02*
G75*
G03*
X5818340Y-9116060I-50000J0D01*
G01*
X5818340Y-9370060D02*
G75*
G03*
X5818340Y-9370060I-50000J0D01*
G01*
X6072340Y-9116060D02*
G75*
G03*
X6072340Y-9116060I-50000J0D01*
G01*
X6072340Y-9370060D02*
G75*
G03*
X6072340Y-9370060I-50000J0D01*
G01*
X6326340Y-9116060D02*
G75*
G03*
X6326340Y-9116060I-50000J0D01*
G01*
X6326340Y-9370060D02*
G75*
G03*
X6326340Y-9370060I-50000J0D01*
G01*
X6580340Y-9116060D02*
G75*
G03*
X6580340Y-9116060I-50000J0D01*
G01*
X6580340Y-9370060D02*
G75*
G03*
X6580340Y-9370060I-50000J0D01*
G01*
X6705280Y-6730680D02*
G75*
G03*
X6705280Y-6730680I-50000J0D01*
G01*
X6834340Y-9116060D02*
G75*
G03*
X6834340Y-9116060I-50000J0D01*
G01*
X6834340Y-9370060D02*
G75*
G03*
X6834340Y-9370060I-50000J0D01*
G01*
X8041080Y-6730680D02*
G75*
G03*
X8041080Y-6730680I-50000J0D01*
G01*
X9241080Y-6730680D02*
G75*
G03*
X9241080Y-6730680I-50000J0D01*
G01*
X9346400Y-7553960D02*
G75*
G03*
X9346400Y-7553960I-50000J0D01*
G01*
X9346400Y-7807960D02*
G75*
G03*
X9346400Y-7807960I-50000J0D01*
G01*
X9346400Y-8061960D02*
G75*
G03*
X9346400Y-8061960I-50000J0D01*
G01*
X9346400Y-8315960D02*
G75*
G03*
X9346400Y-8315960I-50000J0D01*
G01*
D14*
X3652000Y-3380000D02*
X3652000Y-3500000D01*
X3592000Y-3440000D02*
X3712000Y-3440000D01*
X3652000Y-4030000D02*
X3652000Y-4150000D01*
X3592000Y-4090000D02*
X3712000Y-4090000D01*
X3652000Y-4680000D02*
X3652000Y-4800000D01*
X3592000Y-4740000D02*
X3712000Y-4740000D01*
X4160000Y-3380000D02*
X4160000Y-3500000D01*
X4100000Y-3440000D02*
X4220000Y-3440000D01*
X4160000Y-4030000D02*
X4160000Y-4150000D01*
X4100000Y-4090000D02*
X4220000Y-4090000D01*
X4160000Y-4680000D02*
X4160000Y-4800000D01*
X4100000Y-4740000D02*
X4220000Y-4740000D01*
X6112000Y-3380000D02*
X6112000Y-3500000D01*
X6052000Y-3440000D02*
X6172000Y-3440000D01*
X6112000Y-4030000D02*
X6112000Y-4150000D01*
X6052000Y-4090000D02*
X6172000Y-4090000D01*
X6112000Y-4680000D02*
X6112000Y-4800000D01*
X6052000Y-4740000D02*
X6172000Y-4740000D01*
X6620000Y-3380000D02*
X6620000Y-3500000D01*
X6560000Y-3440000D02*
X6680000Y-3440000D01*
X6620000Y-4030000D02*
X6620000Y-4150000D01*
X6560000Y-4090000D02*
X6680000Y-4090000D01*
X6620000Y-4680000D02*
X6620000Y-4800000D01*
X6560000Y-4740000D02*
X6680000Y-4740000D01*
X8642000Y-3380000D02*
X8642000Y-3500000D01*
X8582000Y-3440000D02*
X8702000Y-3440000D01*
X8642000Y-4030000D02*
X8642000Y-4150000D01*
X8582000Y-4090000D02*
X8702000Y-4090000D01*
X8642000Y-4680000D02*
X8642000Y-4800000D01*
X8582000Y-4740000D02*
X8702000Y-4740000D01*
X9150000Y-3380000D02*
X9150000Y-3500000D01*
X9090000Y-3440000D02*
X9210000Y-3440000D01*
X9150000Y-4030000D02*
X9150000Y-4150000D01*
X9090000Y-4090000D02*
X9210000Y-4090000D01*
X9150000Y-4680000D02*
X9150000Y-4800000D01*
X9090000Y-4740000D02*
X9210000Y-4740000D01*
D15*
X3025962Y-5551642D02*
X3025962Y-5459718D01*
X2934038Y-5459718D01*
X2934038Y-5551642D01*
X3025962Y-5551642D01*
X3168462Y-2575462D02*
X3168462Y-2483538D01*
X3076538Y-2483538D01*
X3076538Y-2575462D01*
X3168462Y-2575462D01*
X3625962Y-6971642D02*
X3625962Y-6879718D01*
X3534038Y-6879718D01*
X3534038Y-6971642D01*
X3625962Y-6971642D01*
X3676462Y-2575462D02*
X3676462Y-2483538D01*
X3584538Y-2483538D01*
X3584538Y-2575462D01*
X3676462Y-2575462D01*
X4184462Y-2575462D02*
X4184462Y-2483538D01*
X4092538Y-2483538D01*
X4092538Y-2575462D01*
X4184462Y-2575462D01*
X4230962Y-5556642D02*
X4230962Y-5464718D01*
X4139038Y-5464718D01*
X4139038Y-5556642D01*
X4230962Y-5556642D01*
X5496242Y-5551642D02*
X5496242Y-5459718D01*
X5404318Y-5459718D01*
X5404318Y-5551642D01*
X5496242Y-5551642D01*
X5638462Y-2575462D02*
X5638462Y-2483538D01*
X5546538Y-2483538D01*
X5546538Y-2575462D01*
X5638462Y-2575462D01*
X6096242Y-6971642D02*
X6096242Y-6879718D01*
X6004318Y-6879718D01*
X6004318Y-6971642D01*
X6096242Y-6971642D01*
X6146462Y-2575462D02*
X6146462Y-2483538D01*
X6054538Y-2483538D01*
X6054538Y-2575462D01*
X6146462Y-2575462D01*
X6654462Y-2575462D02*
X6654462Y-2483538D01*
X6562538Y-2483538D01*
X6562538Y-2575462D01*
X6654462Y-2575462D01*
X6701242Y-5556642D02*
X6701242Y-5464718D01*
X6609318Y-5464718D01*
X6609318Y-5556642D01*
X6701242Y-5556642D01*
X8032042Y-5551642D02*
X8032042Y-5459718D01*
X7940118Y-5459718D01*
X7940118Y-5551642D01*
X8032042Y-5551642D01*
X8157962Y-2575962D02*
X8157962Y-2484038D01*
X8066038Y-2484038D01*
X8066038Y-2575962D01*
X8157962Y-2575962D01*
X8632042Y-6971642D02*
X8632042Y-6879718D01*
X8540118Y-6879718D01*
X8540118Y-6971642D01*
X8632042Y-6971642D01*
X8665962Y-2575962D02*
X8665962Y-2484038D01*
X8574038Y-2484038D01*
X8574038Y-2575962D01*
X8665962Y-2575962D01*
X9173962Y-2575962D02*
X9173962Y-2484038D01*
X9082038Y-2484038D01*
X9082038Y-2575962D01*
X9173962Y-2575962D01*
X9237042Y-5556642D02*
X9237042Y-5464718D01*
X9145118Y-5464718D01*
X9145118Y-5556642D01*
X9237042Y-5556642D01*
D11*
X2650379Y-10094476D02*
X2650379Y-9894476D01*
X2697998Y-9894476D01*
X2726570Y-9904000D01*
X2745617Y-9923048D01*
X2755141Y-9942095D01*
X2764665Y-9980190D01*
X2764665Y-10008762D01*
X2755141Y-10046857D01*
X2745617Y-10065905D01*
X2726570Y-10084952D01*
X2697998Y-10094476D01*
X2650379Y-10094476D01*
X2850379Y-10094476D02*
X2850379Y-9961143D01*
X2850379Y-9999238D02*
X2859903Y-9980190D01*
X2869427Y-9970667D01*
X2888474Y-9961143D01*
X2907522Y-9961143D01*
X2974188Y-10094476D02*
X2974188Y-9961143D01*
X2974188Y-9894476D02*
X2964665Y-9904000D01*
X2974188Y-9913524D01*
X2983712Y-9904000D01*
X2974188Y-9894476D01*
X2974188Y-9913524D01*
X3097998Y-10094476D02*
X3078950Y-10084952D01*
X3069427Y-10065905D01*
X3069427Y-9894476D01*
X3202760Y-10094476D02*
X3183712Y-10084952D01*
X3174188Y-10065905D01*
X3174188Y-9894476D01*
X3431331Y-10094476D02*
X3431331Y-9894476D01*
X3497998Y-10037333D01*
X3564665Y-9894476D01*
X3564665Y-10094476D01*
X3745617Y-10094476D02*
X3745617Y-9989714D01*
X3736093Y-9970667D01*
X3717046Y-9961143D01*
X3678950Y-9961143D01*
X3659903Y-9970667D01*
X3745617Y-10084952D02*
X3726569Y-10094476D01*
X3678950Y-10094476D01*
X3659903Y-10084952D01*
X3650379Y-10065905D01*
X3650379Y-10046857D01*
X3659903Y-10027810D01*
X3678950Y-10018286D01*
X3726569Y-10018286D01*
X3745617Y-10008762D01*
X3840855Y-9961143D02*
X3840855Y-10161143D01*
X3840855Y-9970667D02*
X3859903Y-9961143D01*
X3897998Y-9961143D01*
X3917046Y-9970667D01*
X3926569Y-9980190D01*
X3936093Y-9999238D01*
X3936093Y-10056381D01*
X3926569Y-10075429D01*
X3917046Y-10084952D01*
X3897998Y-10094476D01*
X3859903Y-10094476D01*
X3840855Y-10084952D01*
X4021808Y-10075429D02*
X4031331Y-10084952D01*
X4021808Y-10094476D01*
X4012284Y-10084952D01*
X4021808Y-10075429D01*
X4021808Y-10094476D01*
X4021808Y-9970667D02*
X4031331Y-9980190D01*
X4021808Y-9989714D01*
X4012284Y-9980190D01*
X4021808Y-9970667D01*
X4021808Y-9989714D01*
D12*
X2352760Y-10404000D02*
X2392760Y-10444000D01*
X2392760Y-10404000D02*
X2352760Y-10444000D01*
D11*
X2688474Y-10314476D02*
X2707522Y-10314476D01*
X2726570Y-10324000D01*
X2736093Y-10333524D01*
X2745617Y-10352571D01*
X2755141Y-10390667D01*
X2755141Y-10438286D01*
X2745617Y-10476381D01*
X2736093Y-10495429D01*
X2726570Y-10504952D01*
X2707522Y-10514476D01*
X2688474Y-10514476D01*
X2669427Y-10504952D01*
X2659903Y-10495429D01*
X2650379Y-10476381D01*
X2640855Y-10438286D01*
X2640855Y-10390667D01*
X2650379Y-10352571D01*
X2659903Y-10333524D01*
X2669427Y-10324000D01*
X2688474Y-10314476D01*
X2840855Y-10495429D02*
X2850379Y-10504952D01*
X2840855Y-10514476D01*
X2831331Y-10504952D01*
X2840855Y-10495429D01*
X2840855Y-10514476D01*
X3021808Y-10381143D02*
X3021808Y-10514476D01*
X2974188Y-10304952D02*
X2926569Y-10447810D01*
X3050379Y-10447810D01*
X3164665Y-10314476D02*
X3183712Y-10314476D01*
X3202760Y-10324000D01*
X3212284Y-10333524D01*
X3221808Y-10352571D01*
X3231331Y-10390667D01*
X3231331Y-10438286D01*
X3221808Y-10476381D01*
X3212284Y-10495429D01*
X3202760Y-10504952D01*
X3183712Y-10514476D01*
X3164665Y-10514476D01*
X3145617Y-10504952D01*
X3136093Y-10495429D01*
X3126569Y-10476381D01*
X3117046Y-10438286D01*
X3117046Y-10390667D01*
X3126569Y-10352571D01*
X3136093Y-10333524D01*
X3145617Y-10324000D01*
X3164665Y-10314476D01*
X3355141Y-10314476D02*
X3374188Y-10314476D01*
X3393236Y-10324000D01*
X3402760Y-10333524D01*
X3412284Y-10352571D01*
X3421808Y-10390667D01*
X3421808Y-10438286D01*
X3412284Y-10476381D01*
X3402760Y-10495429D01*
X3393236Y-10504952D01*
X3374188Y-10514476D01*
X3355141Y-10514476D01*
X3336093Y-10504952D01*
X3326569Y-10495429D01*
X3317046Y-10476381D01*
X3307522Y-10438286D01*
X3307522Y-10390667D01*
X3317046Y-10352571D01*
X3326569Y-10333524D01*
X3336093Y-10324000D01*
X3355141Y-10314476D01*
X3507522Y-10514476D02*
X3507522Y-10381143D01*
X3507522Y-10400190D02*
X3517046Y-10390667D01*
X3536093Y-10381143D01*
X3564665Y-10381143D01*
X3583712Y-10390667D01*
X3593236Y-10409714D01*
X3593236Y-10514476D01*
X3593236Y-10409714D02*
X3602760Y-10390667D01*
X3621808Y-10381143D01*
X3650379Y-10381143D01*
X3669427Y-10390667D01*
X3678950Y-10409714D01*
X3678950Y-10514476D01*
X3774188Y-10514476D02*
X3774188Y-10381143D01*
X3774188Y-10400190D02*
X3783712Y-10390667D01*
X3802760Y-10381143D01*
X3831331Y-10381143D01*
X3850379Y-10390667D01*
X3859903Y-10409714D01*
X3859903Y-10514476D01*
X3859903Y-10409714D02*
X3869427Y-10390667D01*
X3888474Y-10381143D01*
X3917046Y-10381143D01*
X3936093Y-10390667D01*
X3945617Y-10409714D01*
X3945617Y-10514476D01*
X4336093Y-10304952D02*
X4164665Y-10562095D01*
X4593236Y-10314476D02*
X4612284Y-10314476D01*
X4631331Y-10324000D01*
X4640855Y-10333524D01*
X4650379Y-10352571D01*
X4659903Y-10390667D01*
X4659903Y-10438286D01*
X4650379Y-10476381D01*
X4640855Y-10495429D01*
X4631331Y-10504952D01*
X4612284Y-10514476D01*
X4593236Y-10514476D01*
X4574189Y-10504952D01*
X4564665Y-10495429D01*
X4555141Y-10476381D01*
X4545617Y-10438286D01*
X4545617Y-10390667D01*
X4555141Y-10352571D01*
X4564665Y-10333524D01*
X4574189Y-10324000D01*
X4593236Y-10314476D01*
X4745617Y-10495429D02*
X4755141Y-10504952D01*
X4745617Y-10514476D01*
X4736093Y-10504952D01*
X4745617Y-10495429D01*
X4745617Y-10514476D01*
X4878950Y-10314476D02*
X4897998Y-10314476D01*
X4917046Y-10324000D01*
X4926570Y-10333524D01*
X4936093Y-10352571D01*
X4945617Y-10390667D01*
X4945617Y-10438286D01*
X4936093Y-10476381D01*
X4926570Y-10495429D01*
X4917046Y-10504952D01*
X4897998Y-10514476D01*
X4878950Y-10514476D01*
X4859903Y-10504952D01*
X4850379Y-10495429D01*
X4840855Y-10476381D01*
X4831331Y-10438286D01*
X4831331Y-10390667D01*
X4840855Y-10352571D01*
X4850379Y-10333524D01*
X4859903Y-10324000D01*
X4878950Y-10314476D01*
X5136093Y-10514476D02*
X5021808Y-10514476D01*
X5078950Y-10514476D02*
X5078950Y-10314476D01*
X5059903Y-10343048D01*
X5040855Y-10362095D01*
X5021808Y-10371619D01*
X5317046Y-10314476D02*
X5221808Y-10314476D01*
X5212284Y-10409714D01*
X5221808Y-10400190D01*
X5240855Y-10390667D01*
X5288474Y-10390667D01*
X5307522Y-10400190D01*
X5317046Y-10409714D01*
X5326570Y-10428762D01*
X5326570Y-10476381D01*
X5317046Y-10495429D01*
X5307522Y-10504952D01*
X5288474Y-10514476D01*
X5240855Y-10514476D01*
X5221808Y-10504952D01*
X5212284Y-10495429D01*
X5393236Y-10314476D02*
X5526570Y-10314476D01*
X5440855Y-10514476D01*
X5593236Y-10314476D02*
X5593236Y-10352571D01*
X5669427Y-10314476D02*
X5669427Y-10352571D01*
X5964665Y-10590667D02*
X5955141Y-10581143D01*
X5936093Y-10552571D01*
X5926569Y-10533524D01*
X5917046Y-10504952D01*
X5907522Y-10457333D01*
X5907522Y-10419238D01*
X5917046Y-10371619D01*
X5926569Y-10343048D01*
X5936093Y-10324000D01*
X5955141Y-10295429D01*
X5964665Y-10285905D01*
X6031331Y-10333524D02*
X6040855Y-10324000D01*
X6059903Y-10314476D01*
X6107522Y-10314476D01*
X6126569Y-10324000D01*
X6136093Y-10333524D01*
X6145617Y-10352571D01*
X6145617Y-10371619D01*
X6136093Y-10400190D01*
X6021808Y-10514476D01*
X6145617Y-10514476D01*
X6221808Y-10333524D02*
X6231331Y-10324000D01*
X6250379Y-10314476D01*
X6297998Y-10314476D01*
X6317046Y-10324000D01*
X6326569Y-10333524D01*
X6336093Y-10352571D01*
X6336093Y-10371619D01*
X6326569Y-10400190D01*
X6212284Y-10514476D01*
X6336093Y-10514476D01*
X6574188Y-10514476D02*
X6574188Y-10314476D01*
X6659903Y-10514476D02*
X6659903Y-10409714D01*
X6650379Y-10390667D01*
X6631331Y-10381143D01*
X6602760Y-10381143D01*
X6583712Y-10390667D01*
X6574188Y-10400190D01*
X6783712Y-10514476D02*
X6764665Y-10504952D01*
X6755141Y-10495429D01*
X6745617Y-10476381D01*
X6745617Y-10419238D01*
X6755141Y-10400190D01*
X6764665Y-10390667D01*
X6783712Y-10381143D01*
X6812284Y-10381143D01*
X6831331Y-10390667D01*
X6840855Y-10400190D01*
X6850379Y-10419238D01*
X6850379Y-10476381D01*
X6840855Y-10495429D01*
X6831331Y-10504952D01*
X6812284Y-10514476D01*
X6783712Y-10514476D01*
X6964665Y-10514476D02*
X6945617Y-10504952D01*
X6936093Y-10485905D01*
X6936093Y-10314476D01*
X7117046Y-10504952D02*
X7097998Y-10514476D01*
X7059903Y-10514476D01*
X7040855Y-10504952D01*
X7031331Y-10485905D01*
X7031331Y-10409714D01*
X7040855Y-10390667D01*
X7059903Y-10381143D01*
X7097998Y-10381143D01*
X7117046Y-10390667D01*
X7126569Y-10409714D01*
X7126569Y-10428762D01*
X7031331Y-10447810D01*
X7202760Y-10504952D02*
X7221808Y-10514476D01*
X7259903Y-10514476D01*
X7278950Y-10504952D01*
X7288474Y-10485905D01*
X7288474Y-10476381D01*
X7278950Y-10457333D01*
X7259903Y-10447810D01*
X7231331Y-10447810D01*
X7212284Y-10438286D01*
X7202760Y-10419238D01*
X7202760Y-10409714D01*
X7212284Y-10390667D01*
X7231331Y-10381143D01*
X7259903Y-10381143D01*
X7278950Y-10390667D01*
X7355141Y-10590667D02*
X7364665Y-10581143D01*
X7383712Y-10552571D01*
X7393236Y-10533524D01*
X7402760Y-10504952D01*
X7412284Y-10457333D01*
X7412284Y-10419238D01*
X7402760Y-10371619D01*
X7393236Y-10343048D01*
X7383712Y-10324000D01*
X7364665Y-10295429D01*
X7355141Y-10285905D01*
D13*
X2392760Y-10688000D02*
G75*
G03*
X2392760Y-10688000I-50000J0D01*
G01*
D11*
X2755141Y-10778476D02*
X2640855Y-10778476D01*
X2697998Y-10778476D02*
X2697998Y-10578476D01*
X2678950Y-10607048D01*
X2659903Y-10626095D01*
X2640855Y-10635619D01*
X2840855Y-10759429D02*
X2850379Y-10768952D01*
X2840855Y-10778476D01*
X2831331Y-10768952D01*
X2840855Y-10759429D01*
X2840855Y-10778476D01*
X2974188Y-10578476D02*
X2993236Y-10578476D01*
X3012284Y-10588000D01*
X3021808Y-10597524D01*
X3031331Y-10616571D01*
X3040855Y-10654667D01*
X3040855Y-10702286D01*
X3031331Y-10740381D01*
X3021808Y-10759429D01*
X3012284Y-10768952D01*
X2993236Y-10778476D01*
X2974188Y-10778476D01*
X2955141Y-10768952D01*
X2945617Y-10759429D01*
X2936093Y-10740381D01*
X2926569Y-10702286D01*
X2926569Y-10654667D01*
X2936093Y-10616571D01*
X2945617Y-10597524D01*
X2955141Y-10588000D01*
X2974188Y-10578476D01*
X3164665Y-10578476D02*
X3183712Y-10578476D01*
X3202760Y-10588000D01*
X3212284Y-10597524D01*
X3221808Y-10616571D01*
X3231331Y-10654667D01*
X3231331Y-10702286D01*
X3221808Y-10740381D01*
X3212284Y-10759429D01*
X3202760Y-10768952D01*
X3183712Y-10778476D01*
X3164665Y-10778476D01*
X3145617Y-10768952D01*
X3136093Y-10759429D01*
X3126569Y-10740381D01*
X3117046Y-10702286D01*
X3117046Y-10654667D01*
X3126569Y-10616571D01*
X3136093Y-10597524D01*
X3145617Y-10588000D01*
X3164665Y-10578476D01*
X3355141Y-10578476D02*
X3374188Y-10578476D01*
X3393236Y-10588000D01*
X3402760Y-10597524D01*
X3412284Y-10616571D01*
X3421808Y-10654667D01*
X3421808Y-10702286D01*
X3412284Y-10740381D01*
X3402760Y-10759429D01*
X3393236Y-10768952D01*
X3374188Y-10778476D01*
X3355141Y-10778476D01*
X3336093Y-10768952D01*
X3326569Y-10759429D01*
X3317046Y-10740381D01*
X3307522Y-10702286D01*
X3307522Y-10654667D01*
X3317046Y-10616571D01*
X3326569Y-10597524D01*
X3336093Y-10588000D01*
X3355141Y-10578476D01*
X3507522Y-10778476D02*
X3507522Y-10645143D01*
X3507522Y-10664190D02*
X3517046Y-10654667D01*
X3536093Y-10645143D01*
X3564665Y-10645143D01*
X3583712Y-10654667D01*
X3593236Y-10673714D01*
X3593236Y-10778476D01*
X3593236Y-10673714D02*
X3602760Y-10654667D01*
X3621808Y-10645143D01*
X3650379Y-10645143D01*
X3669427Y-10654667D01*
X3678950Y-10673714D01*
X3678950Y-10778476D01*
X3774188Y-10778476D02*
X3774188Y-10645143D01*
X3774188Y-10664190D02*
X3783712Y-10654667D01*
X3802760Y-10645143D01*
X3831331Y-10645143D01*
X3850379Y-10654667D01*
X3859903Y-10673714D01*
X3859903Y-10778476D01*
X3859903Y-10673714D02*
X3869427Y-10654667D01*
X3888474Y-10645143D01*
X3917046Y-10645143D01*
X3936093Y-10654667D01*
X3945617Y-10673714D01*
X3945617Y-10778476D01*
X4336093Y-10568952D02*
X4164665Y-10826095D01*
X4593236Y-10578476D02*
X4612284Y-10578476D01*
X4631331Y-10588000D01*
X4640855Y-10597524D01*
X4650379Y-10616571D01*
X4659903Y-10654667D01*
X4659903Y-10702286D01*
X4650379Y-10740381D01*
X4640855Y-10759429D01*
X4631331Y-10768952D01*
X4612284Y-10778476D01*
X4593236Y-10778476D01*
X4574189Y-10768952D01*
X4564665Y-10759429D01*
X4555141Y-10740381D01*
X4545617Y-10702286D01*
X4545617Y-10654667D01*
X4555141Y-10616571D01*
X4564665Y-10597524D01*
X4574189Y-10588000D01*
X4593236Y-10578476D01*
X4745617Y-10759429D02*
X4755141Y-10768952D01*
X4745617Y-10778476D01*
X4736093Y-10768952D01*
X4745617Y-10759429D01*
X4745617Y-10778476D01*
X4878950Y-10578476D02*
X4897998Y-10578476D01*
X4917046Y-10588000D01*
X4926570Y-10597524D01*
X4936093Y-10616571D01*
X4945617Y-10654667D01*
X4945617Y-10702286D01*
X4936093Y-10740381D01*
X4926570Y-10759429D01*
X4917046Y-10768952D01*
X4897998Y-10778476D01*
X4878950Y-10778476D01*
X4859903Y-10768952D01*
X4850379Y-10759429D01*
X4840855Y-10740381D01*
X4831331Y-10702286D01*
X4831331Y-10654667D01*
X4840855Y-10616571D01*
X4850379Y-10597524D01*
X4859903Y-10588000D01*
X4878950Y-10578476D01*
X5012284Y-10578476D02*
X5136093Y-10578476D01*
X5069427Y-10654667D01*
X5097998Y-10654667D01*
X5117046Y-10664190D01*
X5126570Y-10673714D01*
X5136093Y-10692762D01*
X5136093Y-10740381D01*
X5126570Y-10759429D01*
X5117046Y-10768952D01*
X5097998Y-10778476D01*
X5040855Y-10778476D01*
X5021808Y-10768952D01*
X5012284Y-10759429D01*
X5231331Y-10778476D02*
X5269427Y-10778476D01*
X5288474Y-10768952D01*
X5297998Y-10759429D01*
X5317046Y-10730857D01*
X5326570Y-10692762D01*
X5326570Y-10616571D01*
X5317046Y-10597524D01*
X5307522Y-10588000D01*
X5288474Y-10578476D01*
X5250379Y-10578476D01*
X5231331Y-10588000D01*
X5221808Y-10597524D01*
X5212284Y-10616571D01*
X5212284Y-10664190D01*
X5221808Y-10683238D01*
X5231331Y-10692762D01*
X5250379Y-10702286D01*
X5288474Y-10702286D01*
X5307522Y-10692762D01*
X5317046Y-10683238D01*
X5326570Y-10664190D01*
X5497998Y-10645143D02*
X5497998Y-10778476D01*
X5450379Y-10568952D02*
X5402760Y-10711810D01*
X5526570Y-10711810D01*
X5593236Y-10578476D02*
X5593236Y-10616571D01*
X5669427Y-10578476D02*
X5669427Y-10616571D01*
X5964665Y-10854667D02*
X5955141Y-10845143D01*
X5936093Y-10816571D01*
X5926569Y-10797524D01*
X5917046Y-10768952D01*
X5907522Y-10721333D01*
X5907522Y-10683238D01*
X5917046Y-10635619D01*
X5926569Y-10607048D01*
X5936093Y-10588000D01*
X5955141Y-10559429D01*
X5964665Y-10549905D01*
X6021808Y-10578476D02*
X6145617Y-10578476D01*
X6078950Y-10654667D01*
X6107522Y-10654667D01*
X6126569Y-10664190D01*
X6136093Y-10673714D01*
X6145617Y-10692762D01*
X6145617Y-10740381D01*
X6136093Y-10759429D01*
X6126569Y-10768952D01*
X6107522Y-10778476D01*
X6050379Y-10778476D01*
X6031331Y-10768952D01*
X6021808Y-10759429D01*
X6269427Y-10578476D02*
X6288474Y-10578476D01*
X6307522Y-10588000D01*
X6317046Y-10597524D01*
X6326569Y-10616571D01*
X6336093Y-10654667D01*
X6336093Y-10702286D01*
X6326569Y-10740381D01*
X6317046Y-10759429D01*
X6307522Y-10768952D01*
X6288474Y-10778476D01*
X6269427Y-10778476D01*
X6250379Y-10768952D01*
X6240855Y-10759429D01*
X6231331Y-10740381D01*
X6221808Y-10702286D01*
X6221808Y-10654667D01*
X6231331Y-10616571D01*
X6240855Y-10597524D01*
X6250379Y-10588000D01*
X6269427Y-10578476D01*
X6574188Y-10778476D02*
X6574188Y-10578476D01*
X6659903Y-10778476D02*
X6659903Y-10673714D01*
X6650379Y-10654667D01*
X6631331Y-10645143D01*
X6602760Y-10645143D01*
X6583712Y-10654667D01*
X6574188Y-10664190D01*
X6783712Y-10778476D02*
X6764665Y-10768952D01*
X6755141Y-10759429D01*
X6745617Y-10740381D01*
X6745617Y-10683238D01*
X6755141Y-10664190D01*
X6764665Y-10654667D01*
X6783712Y-10645143D01*
X6812284Y-10645143D01*
X6831331Y-10654667D01*
X6840855Y-10664190D01*
X6850379Y-10683238D01*
X6850379Y-10740381D01*
X6840855Y-10759429D01*
X6831331Y-10768952D01*
X6812284Y-10778476D01*
X6783712Y-10778476D01*
X6964665Y-10778476D02*
X6945617Y-10768952D01*
X6936093Y-10749905D01*
X6936093Y-10578476D01*
X7117046Y-10768952D02*
X7097998Y-10778476D01*
X7059903Y-10778476D01*
X7040855Y-10768952D01*
X7031331Y-10749905D01*
X7031331Y-10673714D01*
X7040855Y-10654667D01*
X7059903Y-10645143D01*
X7097998Y-10645143D01*
X7117046Y-10654667D01*
X7126569Y-10673714D01*
X7126569Y-10692762D01*
X7031331Y-10711810D01*
X7202760Y-10768952D02*
X7221808Y-10778476D01*
X7259903Y-10778476D01*
X7278950Y-10768952D01*
X7288474Y-10749905D01*
X7288474Y-10740381D01*
X7278950Y-10721333D01*
X7259903Y-10711810D01*
X7231331Y-10711810D01*
X7212284Y-10702286D01*
X7202760Y-10683238D01*
X7202760Y-10673714D01*
X7212284Y-10654667D01*
X7231331Y-10645143D01*
X7259903Y-10645143D01*
X7278950Y-10654667D01*
X7355141Y-10854667D02*
X7364665Y-10845143D01*
X7383712Y-10816571D01*
X7393236Y-10797524D01*
X7402760Y-10768952D01*
X7412284Y-10721333D01*
X7412284Y-10683238D01*
X7402760Y-10635619D01*
X7393236Y-10607048D01*
X7383712Y-10588000D01*
X7364665Y-10559429D01*
X7355141Y-10549905D01*
D14*
X2332760Y-10892000D02*
X2332760Y-11012000D01*
X2272760Y-10952000D02*
X2392760Y-10952000D01*
D11*
X2755141Y-11042476D02*
X2640855Y-11042476D01*
X2697998Y-11042476D02*
X2697998Y-10842476D01*
X2678950Y-10871048D01*
X2659903Y-10890095D01*
X2640855Y-10899619D01*
X2840855Y-11023429D02*
X2850379Y-11032952D01*
X2840855Y-11042476D01*
X2831331Y-11032952D01*
X2840855Y-11023429D01*
X2840855Y-11042476D01*
X2926569Y-10861524D02*
X2936093Y-10852000D01*
X2955141Y-10842476D01*
X3002760Y-10842476D01*
X3021808Y-10852000D01*
X3031331Y-10861524D01*
X3040855Y-10880571D01*
X3040855Y-10899619D01*
X3031331Y-10928190D01*
X2917046Y-11042476D01*
X3040855Y-11042476D01*
X3164665Y-10842476D02*
X3183712Y-10842476D01*
X3202760Y-10852000D01*
X3212284Y-10861524D01*
X3221808Y-10880571D01*
X3231331Y-10918667D01*
X3231331Y-10966286D01*
X3221808Y-11004381D01*
X3212284Y-11023429D01*
X3202760Y-11032952D01*
X3183712Y-11042476D01*
X3164665Y-11042476D01*
X3145617Y-11032952D01*
X3136093Y-11023429D01*
X3126569Y-11004381D01*
X3117046Y-10966286D01*
X3117046Y-10918667D01*
X3126569Y-10880571D01*
X3136093Y-10861524D01*
X3145617Y-10852000D01*
X3164665Y-10842476D01*
X3355141Y-10842476D02*
X3374188Y-10842476D01*
X3393236Y-10852000D01*
X3402760Y-10861524D01*
X3412284Y-10880571D01*
X3421808Y-10918667D01*
X3421808Y-10966286D01*
X3412284Y-11004381D01*
X3402760Y-11023429D01*
X3393236Y-11032952D01*
X3374188Y-11042476D01*
X3355141Y-11042476D01*
X3336093Y-11032952D01*
X3326569Y-11023429D01*
X3317046Y-11004381D01*
X3307522Y-10966286D01*
X3307522Y-10918667D01*
X3317046Y-10880571D01*
X3326569Y-10861524D01*
X3336093Y-10852000D01*
X3355141Y-10842476D01*
X3507522Y-11042476D02*
X3507522Y-10909143D01*
X3507522Y-10928190D02*
X3517046Y-10918667D01*
X3536093Y-10909143D01*
X3564665Y-10909143D01*
X3583712Y-10918667D01*
X3593236Y-10937714D01*
X3593236Y-11042476D01*
X3593236Y-10937714D02*
X3602760Y-10918667D01*
X3621808Y-10909143D01*
X3650379Y-10909143D01*
X3669427Y-10918667D01*
X3678950Y-10937714D01*
X3678950Y-11042476D01*
X3774188Y-11042476D02*
X3774188Y-10909143D01*
X3774188Y-10928190D02*
X3783712Y-10918667D01*
X3802760Y-10909143D01*
X3831331Y-10909143D01*
X3850379Y-10918667D01*
X3859903Y-10937714D01*
X3859903Y-11042476D01*
X3859903Y-10937714D02*
X3869427Y-10918667D01*
X3888474Y-10909143D01*
X3917046Y-10909143D01*
X3936093Y-10918667D01*
X3945617Y-10937714D01*
X3945617Y-11042476D01*
X4336093Y-10832952D02*
X4164665Y-11090095D01*
X4593236Y-10842476D02*
X4612284Y-10842476D01*
X4631331Y-10852000D01*
X4640855Y-10861524D01*
X4650379Y-10880571D01*
X4659903Y-10918667D01*
X4659903Y-10966286D01*
X4650379Y-11004381D01*
X4640855Y-11023429D01*
X4631331Y-11032952D01*
X4612284Y-11042476D01*
X4593236Y-11042476D01*
X4574189Y-11032952D01*
X4564665Y-11023429D01*
X4555141Y-11004381D01*
X4545617Y-10966286D01*
X4545617Y-10918667D01*
X4555141Y-10880571D01*
X4564665Y-10861524D01*
X4574189Y-10852000D01*
X4593236Y-10842476D01*
X4745617Y-11023429D02*
X4755141Y-11032952D01*
X4745617Y-11042476D01*
X4736093Y-11032952D01*
X4745617Y-11023429D01*
X4745617Y-11042476D01*
X4878950Y-10842476D02*
X4897998Y-10842476D01*
X4917046Y-10852000D01*
X4926570Y-10861524D01*
X4936093Y-10880571D01*
X4945617Y-10918667D01*
X4945617Y-10966286D01*
X4936093Y-11004381D01*
X4926570Y-11023429D01*
X4917046Y-11032952D01*
X4897998Y-11042476D01*
X4878950Y-11042476D01*
X4859903Y-11032952D01*
X4850379Y-11023429D01*
X4840855Y-11004381D01*
X4831331Y-10966286D01*
X4831331Y-10918667D01*
X4840855Y-10880571D01*
X4850379Y-10861524D01*
X4859903Y-10852000D01*
X4878950Y-10842476D01*
X5117046Y-10909143D02*
X5117046Y-11042476D01*
X5069427Y-10832952D02*
X5021808Y-10975810D01*
X5145617Y-10975810D01*
X5202760Y-10842476D02*
X5336093Y-10842476D01*
X5250379Y-11042476D01*
X5402760Y-10861524D02*
X5412284Y-10852000D01*
X5431331Y-10842476D01*
X5478950Y-10842476D01*
X5497998Y-10852000D01*
X5507522Y-10861524D01*
X5517046Y-10880571D01*
X5517046Y-10899619D01*
X5507522Y-10928190D01*
X5393236Y-11042476D01*
X5517046Y-11042476D01*
X5593236Y-10842476D02*
X5593236Y-10880571D01*
X5669427Y-10842476D02*
X5669427Y-10880571D01*
X5964665Y-11118667D02*
X5955141Y-11109143D01*
X5936093Y-11080571D01*
X5926569Y-11061524D01*
X5917046Y-11032952D01*
X5907522Y-10985333D01*
X5907522Y-10947238D01*
X5917046Y-10899619D01*
X5926569Y-10871048D01*
X5936093Y-10852000D01*
X5955141Y-10823429D01*
X5964665Y-10813905D01*
X6145617Y-11042476D02*
X6031331Y-11042476D01*
X6088474Y-11042476D02*
X6088474Y-10842476D01*
X6069427Y-10871048D01*
X6050379Y-10890095D01*
X6031331Y-10899619D01*
X6259903Y-10928190D02*
X6240855Y-10918667D01*
X6231331Y-10909143D01*
X6221808Y-10890095D01*
X6221808Y-10880571D01*
X6231331Y-10861524D01*
X6240855Y-10852000D01*
X6259903Y-10842476D01*
X6297998Y-10842476D01*
X6317046Y-10852000D01*
X6326569Y-10861524D01*
X6336093Y-10880571D01*
X6336093Y-10890095D01*
X6326569Y-10909143D01*
X6317046Y-10918667D01*
X6297998Y-10928190D01*
X6259903Y-10928190D01*
X6240855Y-10937714D01*
X6231331Y-10947238D01*
X6221808Y-10966286D01*
X6221808Y-11004381D01*
X6231331Y-11023429D01*
X6240855Y-11032952D01*
X6259903Y-11042476D01*
X6297998Y-11042476D01*
X6317046Y-11032952D01*
X6326569Y-11023429D01*
X6336093Y-11004381D01*
X6336093Y-10966286D01*
X6326569Y-10947238D01*
X6317046Y-10937714D01*
X6297998Y-10928190D01*
X6574188Y-11042476D02*
X6574188Y-10842476D01*
X6659903Y-11042476D02*
X6659903Y-10937714D01*
X6650379Y-10918667D01*
X6631331Y-10909143D01*
X6602760Y-10909143D01*
X6583712Y-10918667D01*
X6574188Y-10928190D01*
X6783712Y-11042476D02*
X6764665Y-11032952D01*
X6755141Y-11023429D01*
X6745617Y-11004381D01*
X6745617Y-10947238D01*
X6755141Y-10928190D01*
X6764665Y-10918667D01*
X6783712Y-10909143D01*
X6812284Y-10909143D01*
X6831331Y-10918667D01*
X6840855Y-10928190D01*
X6850379Y-10947238D01*
X6850379Y-11004381D01*
X6840855Y-11023429D01*
X6831331Y-11032952D01*
X6812284Y-11042476D01*
X6783712Y-11042476D01*
X6964665Y-11042476D02*
X6945617Y-11032952D01*
X6936093Y-11013905D01*
X6936093Y-10842476D01*
X7117046Y-11032952D02*
X7097998Y-11042476D01*
X7059903Y-11042476D01*
X7040855Y-11032952D01*
X7031331Y-11013905D01*
X7031331Y-10937714D01*
X7040855Y-10918667D01*
X7059903Y-10909143D01*
X7097998Y-10909143D01*
X7117046Y-10918667D01*
X7126569Y-10937714D01*
X7126569Y-10956762D01*
X7031331Y-10975810D01*
X7202760Y-11032952D02*
X7221808Y-11042476D01*
X7259903Y-11042476D01*
X7278950Y-11032952D01*
X7288474Y-11013905D01*
X7288474Y-11004381D01*
X7278950Y-10985333D01*
X7259903Y-10975810D01*
X7231331Y-10975810D01*
X7212284Y-10966286D01*
X7202760Y-10947238D01*
X7202760Y-10937714D01*
X7212284Y-10918667D01*
X7231331Y-10909143D01*
X7259903Y-10909143D01*
X7278950Y-10918667D01*
X7355141Y-11118667D02*
X7364665Y-11109143D01*
X7383712Y-11080571D01*
X7393236Y-11061524D01*
X7402760Y-11032952D01*
X7412284Y-10985333D01*
X7412284Y-10947238D01*
X7402760Y-10899619D01*
X7393236Y-10871048D01*
X7383712Y-10852000D01*
X7364665Y-10823429D01*
X7355141Y-10813905D01*
D15*
X2373722Y-11261962D02*
X2373722Y-11170038D01*
X2281798Y-11170038D01*
X2281798Y-11261962D01*
X2373722Y-11261962D01*
D11*
X2755141Y-11306476D02*
X2640855Y-11306476D01*
X2697998Y-11306476D02*
X2697998Y-11106476D01*
X2678950Y-11135048D01*
X2659903Y-11154095D01*
X2640855Y-11163619D01*
X2840855Y-11287428D02*
X2850379Y-11296952D01*
X2840855Y-11306476D01*
X2831331Y-11296952D01*
X2840855Y-11287428D01*
X2840855Y-11306476D01*
X2917046Y-11106476D02*
X3040855Y-11106476D01*
X2974188Y-11182667D01*
X3002760Y-11182667D01*
X3021808Y-11192190D01*
X3031331Y-11201714D01*
X3040855Y-11220762D01*
X3040855Y-11268381D01*
X3031331Y-11287428D01*
X3021808Y-11296952D01*
X3002760Y-11306476D01*
X2945617Y-11306476D01*
X2926569Y-11296952D01*
X2917046Y-11287428D01*
X3164665Y-11106476D02*
X3183712Y-11106476D01*
X3202760Y-11116000D01*
X3212284Y-11125524D01*
X3221808Y-11144571D01*
X3231331Y-11182667D01*
X3231331Y-11230286D01*
X3221808Y-11268381D01*
X3212284Y-11287428D01*
X3202760Y-11296952D01*
X3183712Y-11306476D01*
X3164665Y-11306476D01*
X3145617Y-11296952D01*
X3136093Y-11287428D01*
X3126569Y-11268381D01*
X3117046Y-11230286D01*
X3117046Y-11182667D01*
X3126569Y-11144571D01*
X3136093Y-11125524D01*
X3145617Y-11116000D01*
X3164665Y-11106476D01*
X3355141Y-11106476D02*
X3374188Y-11106476D01*
X3393236Y-11116000D01*
X3402760Y-11125524D01*
X3412284Y-11144571D01*
X3421808Y-11182667D01*
X3421808Y-11230286D01*
X3412284Y-11268381D01*
X3402760Y-11287428D01*
X3393236Y-11296952D01*
X3374188Y-11306476D01*
X3355141Y-11306476D01*
X3336093Y-11296952D01*
X3326569Y-11287428D01*
X3317046Y-11268381D01*
X3307522Y-11230286D01*
X3307522Y-11182667D01*
X3317046Y-11144571D01*
X3326569Y-11125524D01*
X3336093Y-11116000D01*
X3355141Y-11106476D01*
X3507522Y-11306476D02*
X3507522Y-11173143D01*
X3507522Y-11192190D02*
X3517046Y-11182667D01*
X3536093Y-11173143D01*
X3564665Y-11173143D01*
X3583712Y-11182667D01*
X3593236Y-11201714D01*
X3593236Y-11306476D01*
X3593236Y-11201714D02*
X3602760Y-11182667D01*
X3621808Y-11173143D01*
X3650379Y-11173143D01*
X3669427Y-11182667D01*
X3678950Y-11201714D01*
X3678950Y-11306476D01*
X3774188Y-11306476D02*
X3774188Y-11173143D01*
X3774188Y-11192190D02*
X3783712Y-11182667D01*
X3802760Y-11173143D01*
X3831331Y-11173143D01*
X3850379Y-11182667D01*
X3859903Y-11201714D01*
X3859903Y-11306476D01*
X3859903Y-11201714D02*
X3869427Y-11182667D01*
X3888474Y-11173143D01*
X3917046Y-11173143D01*
X3936093Y-11182667D01*
X3945617Y-11201714D01*
X3945617Y-11306476D01*
X4336093Y-11096952D02*
X4164665Y-11354095D01*
X4593236Y-11106476D02*
X4612284Y-11106476D01*
X4631331Y-11116000D01*
X4640855Y-11125524D01*
X4650379Y-11144571D01*
X4659903Y-11182667D01*
X4659903Y-11230286D01*
X4650379Y-11268381D01*
X4640855Y-11287428D01*
X4631331Y-11296952D01*
X4612284Y-11306476D01*
X4593236Y-11306476D01*
X4574189Y-11296952D01*
X4564665Y-11287428D01*
X4555141Y-11268381D01*
X4545617Y-11230286D01*
X4545617Y-11182667D01*
X4555141Y-11144571D01*
X4564665Y-11125524D01*
X4574189Y-11116000D01*
X4593236Y-11106476D01*
X4745617Y-11287428D02*
X4755141Y-11296952D01*
X4745617Y-11306476D01*
X4736093Y-11296952D01*
X4745617Y-11287428D01*
X4745617Y-11306476D01*
X4878950Y-11106476D02*
X4897998Y-11106476D01*
X4917046Y-11116000D01*
X4926570Y-11125524D01*
X4936093Y-11144571D01*
X4945617Y-11182667D01*
X4945617Y-11230286D01*
X4936093Y-11268381D01*
X4926570Y-11287428D01*
X4917046Y-11296952D01*
X4897998Y-11306476D01*
X4878950Y-11306476D01*
X4859903Y-11296952D01*
X4850379Y-11287428D01*
X4840855Y-11268381D01*
X4831331Y-11230286D01*
X4831331Y-11182667D01*
X4840855Y-11144571D01*
X4850379Y-11125524D01*
X4859903Y-11116000D01*
X4878950Y-11106476D01*
X5126570Y-11106476D02*
X5031331Y-11106476D01*
X5021808Y-11201714D01*
X5031331Y-11192190D01*
X5050379Y-11182667D01*
X5097998Y-11182667D01*
X5117046Y-11192190D01*
X5126570Y-11201714D01*
X5136093Y-11220762D01*
X5136093Y-11268381D01*
X5126570Y-11287428D01*
X5117046Y-11296952D01*
X5097998Y-11306476D01*
X5050379Y-11306476D01*
X5031331Y-11296952D01*
X5021808Y-11287428D01*
X5326570Y-11306476D02*
X5212284Y-11306476D01*
X5269427Y-11306476D02*
X5269427Y-11106476D01*
X5250379Y-11135048D01*
X5231331Y-11154095D01*
X5212284Y-11163619D01*
X5402760Y-11125524D02*
X5412284Y-11116000D01*
X5431331Y-11106476D01*
X5478950Y-11106476D01*
X5497998Y-11116000D01*
X5507522Y-11125524D01*
X5517046Y-11144571D01*
X5517046Y-11163619D01*
X5507522Y-11192190D01*
X5393236Y-11306476D01*
X5517046Y-11306476D01*
X5593236Y-11106476D02*
X5593236Y-11144571D01*
X5669427Y-11106476D02*
X5669427Y-11144571D01*
X5964665Y-11382667D02*
X5955141Y-11373143D01*
X5936093Y-11344571D01*
X5926569Y-11325524D01*
X5917046Y-11296952D01*
X5907522Y-11249333D01*
X5907522Y-11211238D01*
X5917046Y-11163619D01*
X5926569Y-11135048D01*
X5936093Y-11116000D01*
X5955141Y-11087429D01*
X5964665Y-11077905D01*
X6145617Y-11306476D02*
X6031331Y-11306476D01*
X6088474Y-11306476D02*
X6088474Y-11106476D01*
X6069427Y-11135048D01*
X6050379Y-11154095D01*
X6031331Y-11163619D01*
X6259903Y-11192190D02*
X6240855Y-11182667D01*
X6231331Y-11173143D01*
X6221808Y-11154095D01*
X6221808Y-11144571D01*
X6231331Y-11125524D01*
X6240855Y-11116000D01*
X6259903Y-11106476D01*
X6297998Y-11106476D01*
X6317046Y-11116000D01*
X6326569Y-11125524D01*
X6336093Y-11144571D01*
X6336093Y-11154095D01*
X6326569Y-11173143D01*
X6317046Y-11182667D01*
X6297998Y-11192190D01*
X6259903Y-11192190D01*
X6240855Y-11201714D01*
X6231331Y-11211238D01*
X6221808Y-11230286D01*
X6221808Y-11268381D01*
X6231331Y-11287428D01*
X6240855Y-11296952D01*
X6259903Y-11306476D01*
X6297998Y-11306476D01*
X6317046Y-11296952D01*
X6326569Y-11287428D01*
X6336093Y-11268381D01*
X6336093Y-11230286D01*
X6326569Y-11211238D01*
X6317046Y-11201714D01*
X6297998Y-11192190D01*
X6574188Y-11306476D02*
X6574188Y-11106476D01*
X6659903Y-11306476D02*
X6659903Y-11201714D01*
X6650379Y-11182667D01*
X6631331Y-11173143D01*
X6602760Y-11173143D01*
X6583712Y-11182667D01*
X6574188Y-11192190D01*
X6783712Y-11306476D02*
X6764665Y-11296952D01*
X6755141Y-11287428D01*
X6745617Y-11268381D01*
X6745617Y-11211238D01*
X6755141Y-11192190D01*
X6764665Y-11182667D01*
X6783712Y-11173143D01*
X6812284Y-11173143D01*
X6831331Y-11182667D01*
X6840855Y-11192190D01*
X6850379Y-11211238D01*
X6850379Y-11268381D01*
X6840855Y-11287428D01*
X6831331Y-11296952D01*
X6812284Y-11306476D01*
X6783712Y-11306476D01*
X6964665Y-11306476D02*
X6945617Y-11296952D01*
X6936093Y-11277905D01*
X6936093Y-11106476D01*
X7117046Y-11296952D02*
X7097998Y-11306476D01*
X7059903Y-11306476D01*
X7040855Y-11296952D01*
X7031331Y-11277905D01*
X7031331Y-11201714D01*
X7040855Y-11182667D01*
X7059903Y-11173143D01*
X7097998Y-11173143D01*
X7117046Y-11182667D01*
X7126569Y-11201714D01*
X7126569Y-11220762D01*
X7031331Y-11239809D01*
X7202760Y-11296952D02*
X7221808Y-11306476D01*
X7259903Y-11306476D01*
X7278950Y-11296952D01*
X7288474Y-11277905D01*
X7288474Y-11268381D01*
X7278950Y-11249333D01*
X7259903Y-11239809D01*
X7231331Y-11239809D01*
X7212284Y-11230286D01*
X7202760Y-11211238D01*
X7202760Y-11201714D01*
X7212284Y-11182667D01*
X7231331Y-11173143D01*
X7259903Y-11173143D01*
X7278950Y-11182667D01*
X7355141Y-11382667D02*
X7364665Y-11373143D01*
X7383712Y-11344571D01*
X7393236Y-11325524D01*
X7402760Y-11296952D01*
X7412284Y-11249333D01*
X7412284Y-11211238D01*
X7402760Y-11163619D01*
X7393236Y-11135048D01*
X7383712Y-11116000D01*
X7364665Y-11087429D01*
X7355141Y-11077905D01*
M02*
