G04 #@! TF.GenerationSoftware,KiCad,Pcbnew,(6.0.6)*
G04 #@! TF.CreationDate,2022-08-29T09:11:03+02:00*
G04 #@! TF.ProjectId,relay-pc-module,72656c61-792d-4706-932d-6d6f64756c65,rev?*
G04 #@! TF.SameCoordinates,Original*
G04 #@! TF.FileFunction,Profile,NP*
%FSLAX46Y46*%
G04 Gerber Fmt 4.6, Leading zero omitted, Abs format (unit mm)*
G04 Created by KiCad (PCBNEW (6.0.6)) date 2022-08-29 09:11:03*
%MOMM*%
%LPD*%
G01*
G04 APERTURE LIST*
G04 #@! TA.AperFunction,Profile*
%ADD10C,0.100000*%
G04 #@! TD*
G04 APERTURE END LIST*
D10*
X57040000Y-72900000D02*
X64140000Y-72900000D01*
X23977600Y-96774000D02*
X23977600Y-97790000D01*
X58040000Y-71900000D02*
X63140000Y-71900000D01*
X88990000Y-64100000D02*
X88990000Y-71400000D01*
X38940000Y-64100000D02*
X38940000Y-71400000D01*
X56540000Y-72400000D02*
G75*
G03*
X57040000Y-72900000I500000J0D01*
G01*
X82890000Y-64100000D02*
G75*
G03*
X81890000Y-64100000I-500000J0D01*
G01*
X23977600Y-96774000D02*
X23977600Y-85445600D01*
X64640000Y-64100000D02*
X64640000Y-72400000D01*
X63640000Y-64100000D02*
X63640000Y-71400000D01*
X33340000Y-71900000D02*
X38440000Y-71900000D01*
X32840000Y-71400000D02*
G75*
G03*
X33340000Y-71900000I500000J0D01*
G01*
X31840000Y-72400000D02*
G75*
G03*
X32340000Y-72900000I500000J0D01*
G01*
X38440000Y-71900000D02*
G75*
G03*
X38940000Y-71400000I0J500000D01*
G01*
X32840000Y-64100000D02*
X32840000Y-71400000D01*
X47300000Y-58900000D02*
X49300000Y-58900000D01*
X39940000Y-64100000D02*
G75*
G03*
X38940000Y-64100000I-500000J0D01*
G01*
X89490000Y-72900000D02*
G75*
G03*
X89990000Y-72400000I0J500000D01*
G01*
X72200000Y-58900000D02*
X74400000Y-58900000D01*
X23977600Y-22700000D02*
X47300000Y-22700000D01*
X32340000Y-72900000D02*
X39440000Y-72900000D01*
X82390000Y-72900000D02*
X89490000Y-72900000D01*
X72200000Y-22700000D02*
X72200000Y-58900000D01*
X81890000Y-64100000D02*
X81890000Y-72400000D01*
X99009200Y-22700000D02*
X99009200Y-96774000D01*
X31840000Y-64100000D02*
X31840000Y-72400000D01*
X47300000Y-22700000D02*
X47300000Y-58900000D01*
X99009200Y-96774000D02*
X99009200Y-97790000D01*
X39940000Y-64100000D02*
X39940000Y-72400000D01*
X39440000Y-72900000D02*
G75*
G03*
X39940000Y-72400000I0J500000D01*
G01*
X56540000Y-64100000D02*
X56540000Y-72400000D01*
X74400000Y-58900000D02*
X74400000Y-22700000D01*
X32840000Y-64100000D02*
G75*
G03*
X31840000Y-64100000I-500000J0D01*
G01*
X57540000Y-71400000D02*
G75*
G03*
X58040000Y-71900000I500000J0D01*
G01*
X64140000Y-72900000D02*
G75*
G03*
X64640000Y-72400000I0J500000D01*
G01*
X89990000Y-64100000D02*
G75*
G03*
X88990000Y-64100000I-500000J0D01*
G01*
X89990000Y-64100000D02*
X89990000Y-72400000D01*
X57540000Y-64100000D02*
X57540000Y-71400000D01*
X82890000Y-71400000D02*
G75*
G03*
X83390000Y-71900000I500000J0D01*
G01*
X99009200Y-97790000D02*
X23977600Y-97790000D01*
X82890000Y-64100000D02*
X82890000Y-71400000D01*
X63140000Y-71900000D02*
G75*
G03*
X63640000Y-71400000I0J500000D01*
G01*
X64640000Y-64100000D02*
G75*
G03*
X63640000Y-64100000I-500000J0D01*
G01*
X49300000Y-22700000D02*
X72200000Y-22700000D01*
X83390000Y-71900000D02*
X88490000Y-71900000D01*
X57540000Y-64100000D02*
G75*
G03*
X56540000Y-64100000I-500000J0D01*
G01*
X88490000Y-71900000D02*
G75*
G03*
X88990000Y-71400000I0J500000D01*
G01*
X74400000Y-22700000D02*
X99009200Y-22700000D01*
X49300000Y-58900000D02*
X49300000Y-22700000D01*
X81890000Y-72400000D02*
G75*
G03*
X82390000Y-72900000I500000J0D01*
G01*
X23977600Y-85445600D02*
X23977600Y-22700000D01*
M02*
