%FSLAX45Y45*%
G04 Gerber Fmt 4.5, Leading zero omitted, Abs format (unit mm)*
G04 Created by KiCad (PCBNEW (6.0.6)) date 2022-08-27 11:47:31*
%MOMM*%
%LPD*%
G01*
G04 APERTURE LIST*
%TA.AperFunction,Profile*%
%ADD10C,0.100000*%
%TD*%
%ADD11C,0.200000*%
%ADD12C,0.320000*%
G04 APERTURE END LIST*
D10*
X8289000Y-6410000D02*
X8289000Y-7140000D01*
X8239000Y-7290000D02*
X8949000Y-7290000D01*
X8189000Y-7240000D02*
G75*
G03*
X8239000Y-7290000I50000J0D01*
G01*
X8999000Y-6410000D02*
X8999000Y-7240000D01*
X8999000Y-6410000D02*
G75*
G03*
X8899000Y-6410000I-50000J0D01*
G01*
X8189000Y-6410000D02*
X8189000Y-7240000D01*
X8339000Y-7190000D02*
X8849000Y-7190000D01*
X8899000Y-6410000D02*
X8899000Y-7140000D01*
X8849000Y-7190000D02*
G75*
G03*
X8899000Y-7140000I0J50000D01*
G01*
X8289000Y-7140000D02*
G75*
G03*
X8339000Y-7190000I50000J0D01*
G01*
X8289000Y-6410000D02*
G75*
G03*
X8189000Y-6410000I-50000J0D01*
G01*
X8949000Y-7290000D02*
G75*
G03*
X8999000Y-7240000I0J50000D01*
G01*
X5754000Y-6410000D02*
X5754000Y-7140000D01*
X5704000Y-7290000D02*
X6414000Y-7290000D01*
X5654000Y-7240000D02*
G75*
G03*
X5704000Y-7290000I50000J0D01*
G01*
X6464000Y-6410000D02*
X6464000Y-7240000D01*
X6464000Y-6410000D02*
G75*
G03*
X6364000Y-6410000I-50000J0D01*
G01*
X5654000Y-6410000D02*
X5654000Y-7240000D01*
X5804000Y-7190000D02*
X6314000Y-7190000D01*
X6364000Y-6410000D02*
X6364000Y-7140000D01*
X6314000Y-7190000D02*
G75*
G03*
X6364000Y-7140000I0J50000D01*
G01*
X5754000Y-7140000D02*
G75*
G03*
X5804000Y-7190000I50000J0D01*
G01*
X5754000Y-6410000D02*
G75*
G03*
X5654000Y-6410000I-50000J0D01*
G01*
X6414000Y-7290000D02*
G75*
G03*
X6464000Y-7240000I0J50000D01*
G01*
X3944000Y-7290000D02*
G75*
G03*
X3994000Y-7240000I0J50000D01*
G01*
X3994000Y-6410000D02*
X3994000Y-7240000D01*
X3234000Y-7290000D02*
X3944000Y-7290000D01*
X3184000Y-7240000D02*
G75*
G03*
X3234000Y-7290000I50000J0D01*
G01*
X3994000Y-6410000D02*
G75*
G03*
X3894000Y-6410000I-50000J0D01*
G01*
X3844000Y-7190000D02*
G75*
G03*
X3894000Y-7140000I0J50000D01*
G01*
X3284000Y-7140000D02*
G75*
G03*
X3334000Y-7190000I50000J0D01*
G01*
X3894000Y-6410000D02*
X3894000Y-7140000D01*
X3334000Y-7190000D02*
X3844000Y-7190000D01*
X3284000Y-6410000D02*
X3284000Y-7140000D01*
X3184000Y-6410000D02*
X3184000Y-7240000D01*
X3284000Y-6410000D02*
G75*
G03*
X3184000Y-6410000I-50000J0D01*
G01*
X2397760Y-9677400D02*
X2397760Y-9779000D01*
X2397760Y-9677400D02*
X2397760Y-8544560D01*
X4730000Y-5890000D02*
X4930000Y-5890000D01*
X7220000Y-5890000D02*
X7440000Y-5890000D01*
X2397760Y-2270000D02*
X4730000Y-2270000D01*
X7220000Y-2270000D02*
X7220000Y-5890000D01*
X9900920Y-2270000D02*
X9900920Y-9677400D01*
X4730000Y-2270000D02*
X4730000Y-5890000D01*
X9900920Y-9677400D02*
X9900920Y-9779000D01*
X7440000Y-5890000D02*
X7440000Y-2270000D01*
X9900920Y-9779000D02*
X2397760Y-9779000D01*
X4930000Y-2270000D02*
X7220000Y-2270000D01*
X7440000Y-2270000D02*
X9900920Y-2270000D01*
X4930000Y-5890000D02*
X4930000Y-2270000D01*
X2397760Y-8544560D02*
X2397760Y-2270000D01*
D11*
D12*
X3810020Y-9088140D02*
X4130020Y-9408140D01*
X4130020Y-9088140D02*
X3810020Y-9408140D01*
X7813060Y-9088140D02*
X8133060Y-9408140D01*
X8133060Y-9088140D02*
X7813060Y-9408140D01*
D11*
X2650379Y-10094476D02*
X2650379Y-9894476D01*
X2697998Y-9894476D01*
X2726570Y-9904000D01*
X2745617Y-9923048D01*
X2755141Y-9942095D01*
X2764665Y-9980190D01*
X2764665Y-10008762D01*
X2755141Y-10046857D01*
X2745617Y-10065905D01*
X2726570Y-10084952D01*
X2697998Y-10094476D01*
X2650379Y-10094476D01*
X2850379Y-10094476D02*
X2850379Y-9961143D01*
X2850379Y-9999238D02*
X2859903Y-9980190D01*
X2869427Y-9970667D01*
X2888474Y-9961143D01*
X2907522Y-9961143D01*
X2974188Y-10094476D02*
X2974188Y-9961143D01*
X2974188Y-9894476D02*
X2964665Y-9904000D01*
X2974188Y-9913524D01*
X2983712Y-9904000D01*
X2974188Y-9894476D01*
X2974188Y-9913524D01*
X3097998Y-10094476D02*
X3078950Y-10084952D01*
X3069427Y-10065905D01*
X3069427Y-9894476D01*
X3202760Y-10094476D02*
X3183712Y-10084952D01*
X3174188Y-10065905D01*
X3174188Y-9894476D01*
X3431331Y-10094476D02*
X3431331Y-9894476D01*
X3497998Y-10037333D01*
X3564665Y-9894476D01*
X3564665Y-10094476D01*
X3745617Y-10094476D02*
X3745617Y-9989714D01*
X3736093Y-9970667D01*
X3717046Y-9961143D01*
X3678950Y-9961143D01*
X3659903Y-9970667D01*
X3745617Y-10084952D02*
X3726569Y-10094476D01*
X3678950Y-10094476D01*
X3659903Y-10084952D01*
X3650379Y-10065905D01*
X3650379Y-10046857D01*
X3659903Y-10027810D01*
X3678950Y-10018286D01*
X3726569Y-10018286D01*
X3745617Y-10008762D01*
X3840855Y-9961143D02*
X3840855Y-10161143D01*
X3840855Y-9970667D02*
X3859903Y-9961143D01*
X3897998Y-9961143D01*
X3917046Y-9970667D01*
X3926569Y-9980190D01*
X3936093Y-9999238D01*
X3936093Y-10056381D01*
X3926569Y-10075429D01*
X3917046Y-10084952D01*
X3897998Y-10094476D01*
X3859903Y-10094476D01*
X3840855Y-10084952D01*
X4021808Y-10075429D02*
X4031331Y-10084952D01*
X4021808Y-10094476D01*
X4012284Y-10084952D01*
X4021808Y-10075429D01*
X4021808Y-10094476D01*
X4021808Y-9970667D02*
X4031331Y-9980190D01*
X4021808Y-9989714D01*
X4012284Y-9980190D01*
X4021808Y-9970667D01*
X4021808Y-9989714D01*
X2192760Y-10324000D02*
X2392760Y-10524000D01*
X2392760Y-10324000D02*
X2192760Y-10524000D01*
X2631331Y-10314476D02*
X2755141Y-10314476D01*
X2688474Y-10390667D01*
X2717046Y-10390667D01*
X2736093Y-10400190D01*
X2745617Y-10409714D01*
X2755141Y-10428762D01*
X2755141Y-10476381D01*
X2745617Y-10495429D01*
X2736093Y-10504952D01*
X2717046Y-10514476D01*
X2659903Y-10514476D01*
X2640855Y-10504952D01*
X2631331Y-10495429D01*
X2840855Y-10495429D02*
X2850379Y-10504952D01*
X2840855Y-10514476D01*
X2831331Y-10504952D01*
X2840855Y-10495429D01*
X2840855Y-10514476D01*
X2926569Y-10333524D02*
X2936093Y-10324000D01*
X2955141Y-10314476D01*
X3002760Y-10314476D01*
X3021808Y-10324000D01*
X3031331Y-10333524D01*
X3040855Y-10352571D01*
X3040855Y-10371619D01*
X3031331Y-10400190D01*
X2917046Y-10514476D01*
X3040855Y-10514476D01*
X3164665Y-10314476D02*
X3183712Y-10314476D01*
X3202760Y-10324000D01*
X3212284Y-10333524D01*
X3221808Y-10352571D01*
X3231331Y-10390667D01*
X3231331Y-10438286D01*
X3221808Y-10476381D01*
X3212284Y-10495429D01*
X3202760Y-10504952D01*
X3183712Y-10514476D01*
X3164665Y-10514476D01*
X3145617Y-10504952D01*
X3136093Y-10495429D01*
X3126569Y-10476381D01*
X3117046Y-10438286D01*
X3117046Y-10390667D01*
X3126569Y-10352571D01*
X3136093Y-10333524D01*
X3145617Y-10324000D01*
X3164665Y-10314476D01*
X3355141Y-10314476D02*
X3374188Y-10314476D01*
X3393236Y-10324000D01*
X3402760Y-10333524D01*
X3412284Y-10352571D01*
X3421808Y-10390667D01*
X3421808Y-10438286D01*
X3412284Y-10476381D01*
X3402760Y-10495429D01*
X3393236Y-10504952D01*
X3374188Y-10514476D01*
X3355141Y-10514476D01*
X3336093Y-10504952D01*
X3326569Y-10495429D01*
X3317046Y-10476381D01*
X3307522Y-10438286D01*
X3307522Y-10390667D01*
X3317046Y-10352571D01*
X3326569Y-10333524D01*
X3336093Y-10324000D01*
X3355141Y-10314476D01*
X3507522Y-10514476D02*
X3507522Y-10381143D01*
X3507522Y-10400190D02*
X3517046Y-10390667D01*
X3536093Y-10381143D01*
X3564665Y-10381143D01*
X3583712Y-10390667D01*
X3593236Y-10409714D01*
X3593236Y-10514476D01*
X3593236Y-10409714D02*
X3602760Y-10390667D01*
X3621808Y-10381143D01*
X3650379Y-10381143D01*
X3669427Y-10390667D01*
X3678950Y-10409714D01*
X3678950Y-10514476D01*
X3774188Y-10514476D02*
X3774188Y-10381143D01*
X3774188Y-10400190D02*
X3783712Y-10390667D01*
X3802760Y-10381143D01*
X3831331Y-10381143D01*
X3850379Y-10390667D01*
X3859903Y-10409714D01*
X3859903Y-10514476D01*
X3859903Y-10409714D02*
X3869427Y-10390667D01*
X3888474Y-10381143D01*
X3917046Y-10381143D01*
X3936093Y-10390667D01*
X3945617Y-10409714D01*
X3945617Y-10514476D01*
X4336093Y-10304952D02*
X4164665Y-10562095D01*
X4593236Y-10314476D02*
X4612284Y-10314476D01*
X4631331Y-10324000D01*
X4640855Y-10333524D01*
X4650379Y-10352571D01*
X4659903Y-10390667D01*
X4659903Y-10438286D01*
X4650379Y-10476381D01*
X4640855Y-10495429D01*
X4631331Y-10504952D01*
X4612284Y-10514476D01*
X4593236Y-10514476D01*
X4574189Y-10504952D01*
X4564665Y-10495429D01*
X4555141Y-10476381D01*
X4545617Y-10438286D01*
X4545617Y-10390667D01*
X4555141Y-10352571D01*
X4564665Y-10333524D01*
X4574189Y-10324000D01*
X4593236Y-10314476D01*
X4745617Y-10495429D02*
X4755141Y-10504952D01*
X4745617Y-10514476D01*
X4736093Y-10504952D01*
X4745617Y-10495429D01*
X4745617Y-10514476D01*
X4945617Y-10514476D02*
X4831331Y-10514476D01*
X4888474Y-10514476D02*
X4888474Y-10314476D01*
X4869427Y-10343048D01*
X4850379Y-10362095D01*
X4831331Y-10371619D01*
X5021808Y-10333524D02*
X5031331Y-10324000D01*
X5050379Y-10314476D01*
X5097998Y-10314476D01*
X5117046Y-10324000D01*
X5126570Y-10333524D01*
X5136093Y-10352571D01*
X5136093Y-10371619D01*
X5126570Y-10400190D01*
X5012284Y-10514476D01*
X5136093Y-10514476D01*
X5307522Y-10314476D02*
X5269427Y-10314476D01*
X5250379Y-10324000D01*
X5240855Y-10333524D01*
X5221808Y-10362095D01*
X5212284Y-10400190D01*
X5212284Y-10476381D01*
X5221808Y-10495429D01*
X5231331Y-10504952D01*
X5250379Y-10514476D01*
X5288474Y-10514476D01*
X5307522Y-10504952D01*
X5317046Y-10495429D01*
X5326570Y-10476381D01*
X5326570Y-10428762D01*
X5317046Y-10409714D01*
X5307522Y-10400190D01*
X5288474Y-10390667D01*
X5250379Y-10390667D01*
X5231331Y-10400190D01*
X5221808Y-10409714D01*
X5212284Y-10428762D01*
X5450379Y-10314476D02*
X5469427Y-10314476D01*
X5488474Y-10324000D01*
X5497998Y-10333524D01*
X5507522Y-10352571D01*
X5517046Y-10390667D01*
X5517046Y-10438286D01*
X5507522Y-10476381D01*
X5497998Y-10495429D01*
X5488474Y-10504952D01*
X5469427Y-10514476D01*
X5450379Y-10514476D01*
X5431331Y-10504952D01*
X5421808Y-10495429D01*
X5412284Y-10476381D01*
X5402760Y-10438286D01*
X5402760Y-10390667D01*
X5412284Y-10352571D01*
X5421808Y-10333524D01*
X5431331Y-10324000D01*
X5450379Y-10314476D01*
X5593236Y-10314476D02*
X5593236Y-10352571D01*
X5669427Y-10314476D02*
X5669427Y-10352571D01*
X5964665Y-10590667D02*
X5955141Y-10581143D01*
X5936093Y-10552571D01*
X5926569Y-10533524D01*
X5917046Y-10504952D01*
X5907522Y-10457333D01*
X5907522Y-10419238D01*
X5917046Y-10371619D01*
X5926569Y-10343048D01*
X5936093Y-10324000D01*
X5955141Y-10295429D01*
X5964665Y-10285905D01*
X6031331Y-10333524D02*
X6040855Y-10324000D01*
X6059903Y-10314476D01*
X6107522Y-10314476D01*
X6126569Y-10324000D01*
X6136093Y-10333524D01*
X6145617Y-10352571D01*
X6145617Y-10371619D01*
X6136093Y-10400190D01*
X6021808Y-10514476D01*
X6145617Y-10514476D01*
X6383712Y-10514476D02*
X6383712Y-10314476D01*
X6469427Y-10514476D02*
X6469427Y-10409714D01*
X6459903Y-10390667D01*
X6440855Y-10381143D01*
X6412284Y-10381143D01*
X6393236Y-10390667D01*
X6383712Y-10400190D01*
X6593236Y-10514476D02*
X6574188Y-10504952D01*
X6564665Y-10495429D01*
X6555141Y-10476381D01*
X6555141Y-10419238D01*
X6564665Y-10400190D01*
X6574188Y-10390667D01*
X6593236Y-10381143D01*
X6621808Y-10381143D01*
X6640855Y-10390667D01*
X6650379Y-10400190D01*
X6659903Y-10419238D01*
X6659903Y-10476381D01*
X6650379Y-10495429D01*
X6640855Y-10504952D01*
X6621808Y-10514476D01*
X6593236Y-10514476D01*
X6774188Y-10514476D02*
X6755141Y-10504952D01*
X6745617Y-10485905D01*
X6745617Y-10314476D01*
X6926569Y-10504952D02*
X6907522Y-10514476D01*
X6869427Y-10514476D01*
X6850379Y-10504952D01*
X6840855Y-10485905D01*
X6840855Y-10409714D01*
X6850379Y-10390667D01*
X6869427Y-10381143D01*
X6907522Y-10381143D01*
X6926569Y-10390667D01*
X6936093Y-10409714D01*
X6936093Y-10428762D01*
X6840855Y-10447810D01*
X7012284Y-10504952D02*
X7031331Y-10514476D01*
X7069427Y-10514476D01*
X7088474Y-10504952D01*
X7097998Y-10485905D01*
X7097998Y-10476381D01*
X7088474Y-10457333D01*
X7069427Y-10447810D01*
X7040855Y-10447810D01*
X7021808Y-10438286D01*
X7012284Y-10419238D01*
X7012284Y-10409714D01*
X7021808Y-10390667D01*
X7040855Y-10381143D01*
X7069427Y-10381143D01*
X7088474Y-10390667D01*
X7164665Y-10590667D02*
X7174188Y-10581143D01*
X7193236Y-10552571D01*
X7202760Y-10533524D01*
X7212284Y-10504952D01*
X7221808Y-10457333D01*
X7221808Y-10419238D01*
X7212284Y-10371619D01*
X7202760Y-10343048D01*
X7193236Y-10324000D01*
X7174188Y-10295429D01*
X7164665Y-10285905D01*
X7526569Y-10590667D02*
X7517046Y-10581143D01*
X7497998Y-10552571D01*
X7488474Y-10533524D01*
X7478950Y-10504952D01*
X7469427Y-10457333D01*
X7469427Y-10419238D01*
X7478950Y-10371619D01*
X7488474Y-10343048D01*
X7497998Y-10324000D01*
X7517046Y-10295429D01*
X7526569Y-10285905D01*
X7602760Y-10381143D02*
X7602760Y-10514476D01*
X7602760Y-10400190D02*
X7612284Y-10390667D01*
X7631331Y-10381143D01*
X7659903Y-10381143D01*
X7678950Y-10390667D01*
X7688474Y-10409714D01*
X7688474Y-10514476D01*
X7812284Y-10514476D02*
X7793236Y-10504952D01*
X7783712Y-10495429D01*
X7774188Y-10476381D01*
X7774188Y-10419238D01*
X7783712Y-10400190D01*
X7793236Y-10390667D01*
X7812284Y-10381143D01*
X7840855Y-10381143D01*
X7859903Y-10390667D01*
X7869427Y-10400190D01*
X7878950Y-10419238D01*
X7878950Y-10476381D01*
X7869427Y-10495429D01*
X7859903Y-10504952D01*
X7840855Y-10514476D01*
X7812284Y-10514476D01*
X7936093Y-10381143D02*
X8012284Y-10381143D01*
X7964665Y-10314476D02*
X7964665Y-10485905D01*
X7974188Y-10504952D01*
X7993236Y-10514476D01*
X8012284Y-10514476D01*
X8231331Y-10381143D02*
X8231331Y-10581143D01*
X8231331Y-10390667D02*
X8250379Y-10381143D01*
X8288474Y-10381143D01*
X8307522Y-10390667D01*
X8317046Y-10400190D01*
X8326569Y-10419238D01*
X8326569Y-10476381D01*
X8317046Y-10495429D01*
X8307522Y-10504952D01*
X8288474Y-10514476D01*
X8250379Y-10514476D01*
X8231331Y-10504952D01*
X8440855Y-10514476D02*
X8421808Y-10504952D01*
X8412284Y-10485905D01*
X8412284Y-10314476D01*
X8602760Y-10514476D02*
X8602760Y-10409714D01*
X8593236Y-10390667D01*
X8574189Y-10381143D01*
X8536093Y-10381143D01*
X8517046Y-10390667D01*
X8602760Y-10504952D02*
X8583712Y-10514476D01*
X8536093Y-10514476D01*
X8517046Y-10504952D01*
X8507522Y-10485905D01*
X8507522Y-10466857D01*
X8517046Y-10447810D01*
X8536093Y-10438286D01*
X8583712Y-10438286D01*
X8602760Y-10428762D01*
X8669427Y-10381143D02*
X8745617Y-10381143D01*
X8697998Y-10314476D02*
X8697998Y-10485905D01*
X8707522Y-10504952D01*
X8726570Y-10514476D01*
X8745617Y-10514476D01*
X8888474Y-10504952D02*
X8869427Y-10514476D01*
X8831331Y-10514476D01*
X8812284Y-10504952D01*
X8802760Y-10485905D01*
X8802760Y-10409714D01*
X8812284Y-10390667D01*
X8831331Y-10381143D01*
X8869427Y-10381143D01*
X8888474Y-10390667D01*
X8897998Y-10409714D01*
X8897998Y-10428762D01*
X8802760Y-10447810D01*
X9069427Y-10514476D02*
X9069427Y-10314476D01*
X9069427Y-10504952D02*
X9050379Y-10514476D01*
X9012284Y-10514476D01*
X8993236Y-10504952D01*
X8983712Y-10495429D01*
X8974189Y-10476381D01*
X8974189Y-10419238D01*
X8983712Y-10400190D01*
X8993236Y-10390667D01*
X9012284Y-10381143D01*
X9050379Y-10381143D01*
X9069427Y-10390667D01*
X9145617Y-10590667D02*
X9155141Y-10581143D01*
X9174189Y-10552571D01*
X9183712Y-10533524D01*
X9193236Y-10504952D01*
X9202760Y-10457333D01*
X9202760Y-10419238D01*
X9193236Y-10371619D01*
X9183712Y-10343048D01*
X9174189Y-10324000D01*
X9155141Y-10295429D01*
X9145617Y-10285905D01*
M02*
