%FSLAX45Y45*%
G04 Gerber Fmt 4.5, Leading zero omitted, Abs format (unit mm)*
G04 Created by KiCad (PCBNEW (6.0.6)) date 2022-08-29 09:39:00*
%MOMM*%
%LPD*%
G01*
G04 APERTURE LIST*
%TA.AperFunction,Profile*%
%ADD10C,0.100000*%
%TD*%
%ADD11C,0.200000*%
%ADD12C,0.020000*%
%ADD13C,0.040000*%
%ADD14C,0.100000*%
G04 APERTURE END LIST*
D10*
X12491720Y-7856220D02*
X5989320Y-7856220D01*
X5989320Y-7856220D02*
X5989320Y-1851660D01*
X5989320Y-1851660D02*
X12491720Y-1851660D01*
X12491720Y-1851660D02*
X12491720Y-7856220D01*
D11*
D12*
X6746400Y-7213760D02*
X6766400Y-7233760D01*
X6766400Y-7213760D02*
X6746400Y-7233760D01*
X6944520Y-7218840D02*
X6964520Y-7238840D01*
X6964520Y-7218840D02*
X6944520Y-7238840D01*
X7757320Y-5999640D02*
X7777320Y-6019640D01*
X7777320Y-5999640D02*
X7757320Y-6019640D01*
X8128160Y-6426360D02*
X8148160Y-6446360D01*
X8148160Y-6426360D02*
X8128160Y-6446360D01*
X8265320Y-7208680D02*
X8285320Y-7228680D01*
X8285320Y-7208680D02*
X8265320Y-7228680D01*
X8483760Y-2585880D02*
X8503760Y-2605880D01*
X8503760Y-2585880D02*
X8483760Y-2605880D01*
X8488840Y-6009800D02*
X8508840Y-6029800D01*
X8508840Y-6009800D02*
X8488840Y-6029800D01*
X8717440Y-7234080D02*
X8737440Y-7254080D01*
X8737440Y-7234080D02*
X8717440Y-7254080D01*
X8747920Y-2580800D02*
X8767920Y-2600800D01*
X8767920Y-2580800D02*
X8747920Y-2600800D01*
X8747920Y-5354480D02*
X8767920Y-5374480D01*
X8767920Y-5354480D02*
X8747920Y-5374480D01*
X8753000Y-6004720D02*
X8773000Y-6024720D01*
X8773000Y-6004720D02*
X8753000Y-6024720D01*
X8940960Y-2585880D02*
X8960960Y-2605880D01*
X8960960Y-2585880D02*
X8940960Y-2605880D01*
X8996840Y-6045360D02*
X9016840Y-6065360D01*
X9016840Y-6045360D02*
X8996840Y-6065360D01*
X9007000Y-5354480D02*
X9027000Y-5374480D01*
X9027000Y-5354480D02*
X9007000Y-5374480D01*
X9113680Y-2585880D02*
X9133680Y-2605880D01*
X9133680Y-2585880D02*
X9113680Y-2605880D01*
X9250840Y-5354480D02*
X9270840Y-5374480D01*
X9270840Y-5354480D02*
X9250840Y-5374480D01*
X9306720Y-2585880D02*
X9326720Y-2605880D01*
X9326720Y-2585880D02*
X9306720Y-2605880D01*
X9469280Y-5354480D02*
X9489280Y-5374480D01*
X9489280Y-5354480D02*
X9469280Y-5374480D01*
D13*
X6499540Y-6123940D02*
G75*
G03*
X6499540Y-6123940I-20000J0D01*
G01*
X6504620Y-4140200D02*
G75*
G03*
X6504620Y-4140200I-20000J0D01*
G01*
X6758620Y-3236150D02*
G75*
G03*
X6758620Y-3236150I-20000J0D01*
G01*
X10378120Y-4671060D02*
G75*
G03*
X10378120Y-4671060I-20000J0D01*
G01*
X10385740Y-5722620D02*
G75*
G03*
X10385740Y-5722620I-20000J0D01*
G01*
X10916600Y-6426200D02*
G75*
G03*
X10916600Y-6426200I-20000J0D01*
G01*
X11107100Y-4261180D02*
G75*
G03*
X11107100Y-4261180I-20000J0D01*
G01*
X11127420Y-5267960D02*
G75*
G03*
X11127420Y-5267960I-20000J0D01*
G01*
X11147740Y-7018020D02*
G75*
G03*
X11147740Y-7018020I-20000J0D01*
G01*
X11150280Y-6807200D02*
G75*
G03*
X11150280Y-6807200I-20000J0D01*
G01*
X11325540Y-6461760D02*
G75*
G03*
X11325540Y-6461760I-20000J0D01*
G01*
X11349340Y-7018020D02*
G75*
G03*
X11349340Y-7018020I-20000J0D01*
G01*
X11716700Y-6103620D02*
G75*
G03*
X11716700Y-6103620I-20000J0D01*
G01*
X11871640Y-7465060D02*
G75*
G03*
X11871640Y-7465060I-20000J0D01*
G01*
X12067565Y-5456009D02*
G75*
G03*
X12067565Y-5456009I-20000J0D01*
G01*
D14*
X6205220Y-2096300D02*
X6205220Y-2196300D01*
X6155220Y-2146300D02*
X6255220Y-2146300D01*
X6205220Y-2350300D02*
X6205220Y-2450300D01*
X6155220Y-2400300D02*
X6255220Y-2400300D01*
X6205220Y-2604300D02*
X6205220Y-2704300D01*
X6155220Y-2654300D02*
X6255220Y-2654300D01*
X6205220Y-2858300D02*
X6205220Y-2958300D01*
X6155220Y-2908300D02*
X6255220Y-2908300D01*
X6205220Y-3112300D02*
X6205220Y-3212300D01*
X6155220Y-3162300D02*
X6255220Y-3162300D01*
X6205220Y-3366300D02*
X6205220Y-3466300D01*
X6155220Y-3416300D02*
X6255220Y-3416300D01*
X6212340Y-7348520D02*
X6212340Y-7448520D01*
X6162340Y-7398520D02*
X6262340Y-7398520D01*
X6212340Y-7602520D02*
X6212340Y-7702520D01*
X6162340Y-7652520D02*
X6262340Y-7652520D01*
X6459220Y-2096300D02*
X6459220Y-2196300D01*
X6409220Y-2146300D02*
X6509220Y-2146300D01*
X6459220Y-2350300D02*
X6459220Y-2450300D01*
X6409220Y-2400300D02*
X6509220Y-2400300D01*
X6459220Y-2604300D02*
X6459220Y-2704300D01*
X6409220Y-2654300D02*
X6509220Y-2654300D01*
X6459220Y-2858300D02*
X6459220Y-2958300D01*
X6409220Y-2908300D02*
X6509220Y-2908300D01*
X6459220Y-3112300D02*
X6459220Y-3212300D01*
X6409220Y-3162300D02*
X6509220Y-3162300D01*
X6459220Y-3366300D02*
X6459220Y-3466300D01*
X6409220Y-3416300D02*
X6509220Y-3416300D01*
X6466340Y-7348520D02*
X6466340Y-7448520D01*
X6416340Y-7398520D02*
X6516340Y-7398520D01*
X6466340Y-7602520D02*
X6466340Y-7702520D01*
X6416340Y-7652520D02*
X6516340Y-7652520D01*
X6720340Y-7348520D02*
X6720340Y-7448520D01*
X6670340Y-7398520D02*
X6770340Y-7398520D01*
X6720340Y-7602520D02*
X6720340Y-7702520D01*
X6670340Y-7652520D02*
X6770340Y-7652520D01*
X6974340Y-7348520D02*
X6974340Y-7448520D01*
X6924340Y-7398520D02*
X7024340Y-7398520D01*
X6974340Y-7602520D02*
X6974340Y-7702520D01*
X6924340Y-7652520D02*
X7024340Y-7652520D01*
X7228340Y-7348520D02*
X7228340Y-7448520D01*
X7178340Y-7398520D02*
X7278340Y-7398520D01*
X7228340Y-7602520D02*
X7228340Y-7702520D01*
X7178340Y-7652520D02*
X7278340Y-7652520D01*
X7228840Y-2074300D02*
X7228840Y-2174300D01*
X7178840Y-2124300D02*
X7278840Y-2124300D01*
X7228840Y-2328300D02*
X7228840Y-2428300D01*
X7178840Y-2378300D02*
X7278840Y-2378300D01*
X7228840Y-5527340D02*
X7228840Y-5627340D01*
X7178840Y-5577340D02*
X7278840Y-5577340D01*
X7228840Y-5781340D02*
X7228840Y-5881340D01*
X7178840Y-5831340D02*
X7278840Y-5831340D01*
X7482340Y-7348520D02*
X7482340Y-7448520D01*
X7432340Y-7398520D02*
X7532340Y-7398520D01*
X7482340Y-7602520D02*
X7482340Y-7702520D01*
X7432340Y-7652520D02*
X7532340Y-7652520D01*
X7482840Y-2074300D02*
X7482840Y-2174300D01*
X7432840Y-2124300D02*
X7532840Y-2124300D01*
X7482840Y-2328300D02*
X7482840Y-2428300D01*
X7432840Y-2378300D02*
X7532840Y-2378300D01*
X7482840Y-5527340D02*
X7482840Y-5627340D01*
X7432840Y-5577340D02*
X7532840Y-5577340D01*
X7482840Y-5781340D02*
X7482840Y-5881340D01*
X7432840Y-5831340D02*
X7532840Y-5831340D01*
X7736340Y-7348520D02*
X7736340Y-7448520D01*
X7686340Y-7398520D02*
X7786340Y-7398520D01*
X7736340Y-7602520D02*
X7736340Y-7702520D01*
X7686340Y-7652520D02*
X7786340Y-7652520D01*
X7736840Y-2074300D02*
X7736840Y-2174300D01*
X7686840Y-2124300D02*
X7786840Y-2124300D01*
X7736840Y-2328300D02*
X7736840Y-2428300D01*
X7686840Y-2378300D02*
X7786840Y-2378300D01*
X7736840Y-5527340D02*
X7736840Y-5627340D01*
X7686840Y-5577340D02*
X7786840Y-5577340D01*
X7736840Y-5781340D02*
X7736840Y-5881340D01*
X7686840Y-5831340D02*
X7786840Y-5831340D01*
X7990340Y-7348520D02*
X7990340Y-7448520D01*
X7940340Y-7398520D02*
X8040340Y-7398520D01*
X7990340Y-7602520D02*
X7990340Y-7702520D01*
X7940340Y-7652520D02*
X8040340Y-7652520D01*
X7990840Y-2074300D02*
X7990840Y-2174300D01*
X7940840Y-2124300D02*
X8040840Y-2124300D01*
X7990840Y-2328300D02*
X7990840Y-2428300D01*
X7940840Y-2378300D02*
X8040840Y-2378300D01*
X7990840Y-5527340D02*
X7990840Y-5627340D01*
X7940840Y-5577340D02*
X8040840Y-5577340D01*
X7990840Y-5781340D02*
X7990840Y-5881340D01*
X7940840Y-5831340D02*
X8040840Y-5831340D01*
X8244340Y-7348520D02*
X8244340Y-7448520D01*
X8194340Y-7398520D02*
X8294340Y-7398520D01*
X8244340Y-7602520D02*
X8244340Y-7702520D01*
X8194340Y-7652520D02*
X8294340Y-7652520D01*
X8244840Y-2074300D02*
X8244840Y-2174300D01*
X8194840Y-2124300D02*
X8294840Y-2124300D01*
X8244840Y-2328300D02*
X8244840Y-2428300D01*
X8194840Y-2378300D02*
X8294840Y-2378300D01*
X8244840Y-5527340D02*
X8244840Y-5627340D01*
X8194840Y-5577340D02*
X8294840Y-5577340D01*
X8244840Y-5781340D02*
X8244840Y-5881340D01*
X8194840Y-5831340D02*
X8294840Y-5831340D01*
X8498340Y-7348520D02*
X8498340Y-7448520D01*
X8448340Y-7398520D02*
X8548340Y-7398520D01*
X8498340Y-7602520D02*
X8498340Y-7702520D01*
X8448340Y-7652520D02*
X8548340Y-7652520D01*
X8498840Y-2074300D02*
X8498840Y-2174300D01*
X8448840Y-2124300D02*
X8548840Y-2124300D01*
X8498840Y-2328300D02*
X8498840Y-2428300D01*
X8448840Y-2378300D02*
X8548840Y-2378300D01*
X8498840Y-5527340D02*
X8498840Y-5627340D01*
X8448840Y-5577340D02*
X8548840Y-5577340D01*
X8498840Y-5781340D02*
X8498840Y-5881340D01*
X8448840Y-5831340D02*
X8548840Y-5831340D01*
X8752340Y-7348520D02*
X8752340Y-7448520D01*
X8702340Y-7398520D02*
X8802340Y-7398520D01*
X8752340Y-7602520D02*
X8752340Y-7702520D01*
X8702340Y-7652520D02*
X8802340Y-7652520D01*
X8752840Y-2074300D02*
X8752840Y-2174300D01*
X8702840Y-2124300D02*
X8802840Y-2124300D01*
X8752840Y-2328300D02*
X8752840Y-2428300D01*
X8702840Y-2378300D02*
X8802840Y-2378300D01*
X8752840Y-5527340D02*
X8752840Y-5627340D01*
X8702840Y-5577340D02*
X8802840Y-5577340D01*
X8752840Y-5781340D02*
X8752840Y-5881340D01*
X8702840Y-5831340D02*
X8802840Y-5831340D01*
X9006340Y-7348520D02*
X9006340Y-7448520D01*
X8956340Y-7398520D02*
X9056340Y-7398520D01*
X9006340Y-7602520D02*
X9006340Y-7702520D01*
X8956340Y-7652520D02*
X9056340Y-7652520D01*
X9006840Y-2074300D02*
X9006840Y-2174300D01*
X8956840Y-2124300D02*
X9056840Y-2124300D01*
X9006840Y-2328300D02*
X9006840Y-2428300D01*
X8956840Y-2378300D02*
X9056840Y-2378300D01*
X9006840Y-5527340D02*
X9006840Y-5627340D01*
X8956840Y-5577340D02*
X9056840Y-5577340D01*
X9006840Y-5781340D02*
X9006840Y-5881340D01*
X8956840Y-5831340D02*
X9056840Y-5831340D01*
X9260340Y-7348520D02*
X9260340Y-7448520D01*
X9210340Y-7398520D02*
X9310340Y-7398520D01*
X9260340Y-7602520D02*
X9260340Y-7702520D01*
X9210340Y-7652520D02*
X9310340Y-7652520D01*
X9260840Y-2074300D02*
X9260840Y-2174300D01*
X9210840Y-2124300D02*
X9310840Y-2124300D01*
X9260840Y-2328300D02*
X9260840Y-2428300D01*
X9210840Y-2378300D02*
X9310840Y-2378300D01*
X9260840Y-5527340D02*
X9260840Y-5627340D01*
X9210840Y-5577340D02*
X9310840Y-5577340D01*
X9260840Y-5781340D02*
X9260840Y-5881340D01*
X9210840Y-5831340D02*
X9310840Y-5831340D01*
X9514340Y-7348520D02*
X9514340Y-7448520D01*
X9464340Y-7398520D02*
X9564340Y-7398520D01*
X9514340Y-7602520D02*
X9514340Y-7702520D01*
X9464340Y-7652520D02*
X9564340Y-7652520D01*
X9514840Y-2074300D02*
X9514840Y-2174300D01*
X9464840Y-2124300D02*
X9564840Y-2124300D01*
X9514840Y-2328300D02*
X9514840Y-2428300D01*
X9464840Y-2378300D02*
X9564840Y-2378300D01*
X9514840Y-5527340D02*
X9514840Y-5627340D01*
X9464840Y-5577340D02*
X9564840Y-5577340D01*
X9514840Y-5781340D02*
X9514840Y-5881340D01*
X9464840Y-5831340D02*
X9564840Y-5831340D01*
X9768340Y-7348520D02*
X9768340Y-7448520D01*
X9718340Y-7398520D02*
X9818340Y-7398520D01*
X9768340Y-7602520D02*
X9768340Y-7702520D01*
X9718340Y-7652520D02*
X9818340Y-7652520D01*
X9768840Y-2074300D02*
X9768840Y-2174300D01*
X9718840Y-2124300D02*
X9818840Y-2124300D01*
X9768840Y-2328300D02*
X9768840Y-2428300D01*
X9718840Y-2378300D02*
X9818840Y-2378300D01*
X9768840Y-5527340D02*
X9768840Y-5627340D01*
X9718840Y-5577340D02*
X9818840Y-5577340D01*
X9768840Y-5781340D02*
X9768840Y-5881340D01*
X9718840Y-5831340D02*
X9818840Y-5831340D01*
X10022340Y-7348520D02*
X10022340Y-7448520D01*
X9972340Y-7398520D02*
X10072340Y-7398520D01*
X10022340Y-7602520D02*
X10022340Y-7702520D01*
X9972340Y-7652520D02*
X10072340Y-7652520D01*
X10022840Y-2074300D02*
X10022840Y-2174300D01*
X9972840Y-2124300D02*
X10072840Y-2124300D01*
X10022840Y-2328300D02*
X10022840Y-2428300D01*
X9972840Y-2378300D02*
X10072840Y-2378300D01*
X10022840Y-5527340D02*
X10022840Y-5627340D01*
X9972840Y-5577340D02*
X10072840Y-5577340D01*
X10022840Y-5781340D02*
X10022840Y-5881340D01*
X9972840Y-5831340D02*
X10072840Y-5831340D01*
X10276340Y-7348520D02*
X10276340Y-7448520D01*
X10226340Y-7398520D02*
X10326340Y-7398520D01*
X10276340Y-7602520D02*
X10276340Y-7702520D01*
X10226340Y-7652520D02*
X10326340Y-7652520D01*
X10530340Y-7348520D02*
X10530340Y-7448520D01*
X10480340Y-7398520D02*
X10580340Y-7398520D01*
X10530340Y-7602520D02*
X10530340Y-7702520D01*
X10480340Y-7652520D02*
X10580340Y-7652520D01*
X10784340Y-7348520D02*
X10784340Y-7448520D01*
X10734340Y-7398520D02*
X10834340Y-7398520D01*
X10784340Y-7602520D02*
X10784340Y-7702520D01*
X10734340Y-7652520D02*
X10834340Y-7652520D01*
X11038340Y-7348520D02*
X11038340Y-7448520D01*
X10988340Y-7398520D02*
X11088340Y-7398520D01*
X11038340Y-7602520D02*
X11038340Y-7702520D01*
X10988340Y-7652520D02*
X11088340Y-7652520D01*
X11526520Y-3869220D02*
X11526520Y-3969220D01*
X11476520Y-3919220D02*
X11576520Y-3919220D01*
X11526520Y-4123220D02*
X11526520Y-4223220D01*
X11476520Y-4173220D02*
X11576520Y-4173220D01*
X11526520Y-4377220D02*
X11526520Y-4477220D01*
X11476520Y-4427220D02*
X11576520Y-4427220D01*
X11526520Y-4631220D02*
X11526520Y-4731220D01*
X11476520Y-4681220D02*
X11576520Y-4681220D01*
X11526520Y-4885220D02*
X11526520Y-4985220D01*
X11476520Y-4935220D02*
X11576520Y-4935220D01*
X11526520Y-5139220D02*
X11526520Y-5239220D01*
X11476520Y-5189220D02*
X11576520Y-5189220D01*
X11526520Y-5393220D02*
X11526520Y-5493220D01*
X11476520Y-5443220D02*
X11576520Y-5443220D01*
X11526520Y-5647220D02*
X11526520Y-5747220D01*
X11476520Y-5697220D02*
X11576520Y-5697220D01*
X11526520Y-5901220D02*
X11526520Y-6001220D01*
X11476520Y-5951220D02*
X11576520Y-5951220D01*
X11526520Y-6155220D02*
X11526520Y-6255220D01*
X11476520Y-6205220D02*
X11576520Y-6205220D01*
X11526520Y-6409220D02*
X11526520Y-6509220D01*
X11476520Y-6459220D02*
X11576520Y-6459220D01*
X11526520Y-6663220D02*
X11526520Y-6763220D01*
X11476520Y-6713220D02*
X11576520Y-6713220D01*
X11526520Y-6917220D02*
X11526520Y-7017220D01*
X11476520Y-6967220D02*
X11576520Y-6967220D01*
X11526520Y-7171220D02*
X11526520Y-7271220D01*
X11476520Y-7221220D02*
X11576520Y-7221220D01*
X11526520Y-7425220D02*
X11526520Y-7525220D01*
X11476520Y-7475220D02*
X11576520Y-7475220D01*
X11526520Y-7679220D02*
X11526520Y-7779220D01*
X11476520Y-7729220D02*
X11576520Y-7729220D01*
X12006580Y-2096300D02*
X12006580Y-2196300D01*
X11956580Y-2146300D02*
X12056580Y-2146300D01*
X12006580Y-2350300D02*
X12006580Y-2450300D01*
X11956580Y-2400300D02*
X12056580Y-2400300D01*
X12006580Y-2604300D02*
X12006580Y-2704300D01*
X11956580Y-2654300D02*
X12056580Y-2654300D01*
X12006580Y-2858300D02*
X12006580Y-2958300D01*
X11956580Y-2908300D02*
X12056580Y-2908300D01*
X12006580Y-3112300D02*
X12006580Y-3212300D01*
X11956580Y-3162300D02*
X12056580Y-3162300D01*
X12006580Y-3366300D02*
X12006580Y-3466300D01*
X11956580Y-3416300D02*
X12056580Y-3416300D01*
X12260580Y-2096300D02*
X12260580Y-2196300D01*
X12210580Y-2146300D02*
X12310580Y-2146300D01*
X12260580Y-2350300D02*
X12260580Y-2450300D01*
X12210580Y-2400300D02*
X12310580Y-2400300D01*
X12260580Y-2604300D02*
X12260580Y-2704300D01*
X12210580Y-2654300D02*
X12310580Y-2654300D01*
X12260580Y-2858300D02*
X12260580Y-2958300D01*
X12210580Y-2908300D02*
X12310580Y-2908300D01*
X12260580Y-3112300D02*
X12260580Y-3212300D01*
X12210580Y-3162300D02*
X12310580Y-3162300D01*
X12260580Y-3366300D02*
X12260580Y-3466300D01*
X12210580Y-3416300D02*
X12310580Y-3416300D01*
X12288520Y-3869220D02*
X12288520Y-3969220D01*
X12238520Y-3919220D02*
X12338520Y-3919220D01*
X12288520Y-4631220D02*
X12288520Y-4731220D01*
X12238520Y-4681220D02*
X12338520Y-4681220D01*
X12288520Y-4885220D02*
X12288520Y-4985220D01*
X12238520Y-4935220D02*
X12338520Y-4935220D01*
X12288520Y-5647220D02*
X12288520Y-5747220D01*
X12238520Y-5697220D02*
X12338520Y-5697220D01*
X12288520Y-5901220D02*
X12288520Y-6001220D01*
X12238520Y-5951220D02*
X12338520Y-5951220D01*
X12288520Y-6663220D02*
X12288520Y-6763220D01*
X12238520Y-6713220D02*
X12338520Y-6713220D01*
X12288520Y-6917220D02*
X12288520Y-7017220D01*
X12238520Y-6967220D02*
X12338520Y-6967220D01*
X12288520Y-7679220D02*
X12288520Y-7779220D01*
X12238520Y-7729220D02*
X12338520Y-7729220D01*
D11*
X6241939Y-8171696D02*
X6241939Y-7971696D01*
X6289558Y-7971696D01*
X6318129Y-7981220D01*
X6337177Y-8000268D01*
X6346701Y-8019315D01*
X6356225Y-8057410D01*
X6356225Y-8085982D01*
X6346701Y-8124077D01*
X6337177Y-8143125D01*
X6318129Y-8162172D01*
X6289558Y-8171696D01*
X6241939Y-8171696D01*
X6441939Y-8171696D02*
X6441939Y-8038363D01*
X6441939Y-8076458D02*
X6451463Y-8057410D01*
X6460987Y-8047887D01*
X6480034Y-8038363D01*
X6499082Y-8038363D01*
X6565748Y-8171696D02*
X6565748Y-8038363D01*
X6565748Y-7971696D02*
X6556225Y-7981220D01*
X6565748Y-7990744D01*
X6575272Y-7981220D01*
X6565748Y-7971696D01*
X6565748Y-7990744D01*
X6689558Y-8171696D02*
X6670510Y-8162172D01*
X6660987Y-8143125D01*
X6660987Y-7971696D01*
X6794320Y-8171696D02*
X6775272Y-8162172D01*
X6765748Y-8143125D01*
X6765748Y-7971696D01*
X7022891Y-8171696D02*
X7022891Y-7971696D01*
X7089558Y-8114553D01*
X7156225Y-7971696D01*
X7156225Y-8171696D01*
X7337177Y-8171696D02*
X7337177Y-8066934D01*
X7327653Y-8047887D01*
X7308606Y-8038363D01*
X7270510Y-8038363D01*
X7251463Y-8047887D01*
X7337177Y-8162172D02*
X7318129Y-8171696D01*
X7270510Y-8171696D01*
X7251463Y-8162172D01*
X7241939Y-8143125D01*
X7241939Y-8124077D01*
X7251463Y-8105029D01*
X7270510Y-8095506D01*
X7318129Y-8095506D01*
X7337177Y-8085982D01*
X7432415Y-8038363D02*
X7432415Y-8238363D01*
X7432415Y-8047887D02*
X7451463Y-8038363D01*
X7489558Y-8038363D01*
X7508606Y-8047887D01*
X7518129Y-8057410D01*
X7527653Y-8076458D01*
X7527653Y-8133601D01*
X7518129Y-8152648D01*
X7508606Y-8162172D01*
X7489558Y-8171696D01*
X7451463Y-8171696D01*
X7432415Y-8162172D01*
X7613368Y-8152648D02*
X7622891Y-8162172D01*
X7613368Y-8171696D01*
X7603844Y-8162172D01*
X7613368Y-8152648D01*
X7613368Y-8171696D01*
X7613368Y-8047887D02*
X7622891Y-8057410D01*
X7613368Y-8066934D01*
X7603844Y-8057410D01*
X7613368Y-8047887D01*
X7613368Y-8066934D01*
D12*
X5964320Y-8491220D02*
X5984320Y-8511220D01*
X5984320Y-8491220D02*
X5964320Y-8511220D01*
D11*
X6280034Y-8391696D02*
X6299082Y-8391696D01*
X6318129Y-8401220D01*
X6327653Y-8410744D01*
X6337177Y-8429791D01*
X6346701Y-8467887D01*
X6346701Y-8515506D01*
X6337177Y-8553601D01*
X6327653Y-8572649D01*
X6318129Y-8582172D01*
X6299082Y-8591696D01*
X6280034Y-8591696D01*
X6260987Y-8582172D01*
X6251463Y-8572649D01*
X6241939Y-8553601D01*
X6232415Y-8515506D01*
X6232415Y-8467887D01*
X6241939Y-8429791D01*
X6251463Y-8410744D01*
X6260987Y-8401220D01*
X6280034Y-8391696D01*
X6432415Y-8572649D02*
X6441939Y-8582172D01*
X6432415Y-8591696D01*
X6422891Y-8582172D01*
X6432415Y-8572649D01*
X6432415Y-8591696D01*
X6518129Y-8410744D02*
X6527653Y-8401220D01*
X6546701Y-8391696D01*
X6594320Y-8391696D01*
X6613368Y-8401220D01*
X6622891Y-8410744D01*
X6632415Y-8429791D01*
X6632415Y-8448839D01*
X6622891Y-8477410D01*
X6508606Y-8591696D01*
X6632415Y-8591696D01*
X6756225Y-8391696D02*
X6775272Y-8391696D01*
X6794320Y-8401220D01*
X6803844Y-8410744D01*
X6813368Y-8429791D01*
X6822891Y-8467887D01*
X6822891Y-8515506D01*
X6813368Y-8553601D01*
X6803844Y-8572649D01*
X6794320Y-8582172D01*
X6775272Y-8591696D01*
X6756225Y-8591696D01*
X6737177Y-8582172D01*
X6727653Y-8572649D01*
X6718129Y-8553601D01*
X6708606Y-8515506D01*
X6708606Y-8467887D01*
X6718129Y-8429791D01*
X6727653Y-8410744D01*
X6737177Y-8401220D01*
X6756225Y-8391696D01*
X6946701Y-8391696D02*
X6965748Y-8391696D01*
X6984796Y-8401220D01*
X6994320Y-8410744D01*
X7003844Y-8429791D01*
X7013368Y-8467887D01*
X7013368Y-8515506D01*
X7003844Y-8553601D01*
X6994320Y-8572649D01*
X6984796Y-8582172D01*
X6965748Y-8591696D01*
X6946701Y-8591696D01*
X6927653Y-8582172D01*
X6918129Y-8572649D01*
X6908606Y-8553601D01*
X6899082Y-8515506D01*
X6899082Y-8467887D01*
X6908606Y-8429791D01*
X6918129Y-8410744D01*
X6927653Y-8401220D01*
X6946701Y-8391696D01*
X7099082Y-8591696D02*
X7099082Y-8458363D01*
X7099082Y-8477410D02*
X7108606Y-8467887D01*
X7127653Y-8458363D01*
X7156225Y-8458363D01*
X7175272Y-8467887D01*
X7184796Y-8486934D01*
X7184796Y-8591696D01*
X7184796Y-8486934D02*
X7194320Y-8467887D01*
X7213368Y-8458363D01*
X7241939Y-8458363D01*
X7260987Y-8467887D01*
X7270510Y-8486934D01*
X7270510Y-8591696D01*
X7365748Y-8591696D02*
X7365748Y-8458363D01*
X7365748Y-8477410D02*
X7375272Y-8467887D01*
X7394320Y-8458363D01*
X7422891Y-8458363D01*
X7441939Y-8467887D01*
X7451463Y-8486934D01*
X7451463Y-8591696D01*
X7451463Y-8486934D02*
X7460987Y-8467887D01*
X7480034Y-8458363D01*
X7508606Y-8458363D01*
X7527653Y-8467887D01*
X7537177Y-8486934D01*
X7537177Y-8591696D01*
X7927653Y-8382172D02*
X7756225Y-8639315D01*
X8184796Y-8391696D02*
X8203844Y-8391696D01*
X8222891Y-8401220D01*
X8232415Y-8410744D01*
X8241939Y-8429791D01*
X8251463Y-8467887D01*
X8251463Y-8515506D01*
X8241939Y-8553601D01*
X8232415Y-8572649D01*
X8222891Y-8582172D01*
X8203844Y-8591696D01*
X8184796Y-8591696D01*
X8165748Y-8582172D01*
X8156225Y-8572649D01*
X8146701Y-8553601D01*
X8137177Y-8515506D01*
X8137177Y-8467887D01*
X8146701Y-8429791D01*
X8156225Y-8410744D01*
X8165748Y-8401220D01*
X8184796Y-8391696D01*
X8337177Y-8572649D02*
X8346701Y-8582172D01*
X8337177Y-8591696D01*
X8327653Y-8582172D01*
X8337177Y-8572649D01*
X8337177Y-8591696D01*
X8470510Y-8391696D02*
X8489558Y-8391696D01*
X8508606Y-8401220D01*
X8518130Y-8410744D01*
X8527653Y-8429791D01*
X8537177Y-8467887D01*
X8537177Y-8515506D01*
X8527653Y-8553601D01*
X8518130Y-8572649D01*
X8508606Y-8582172D01*
X8489558Y-8591696D01*
X8470510Y-8591696D01*
X8451463Y-8582172D01*
X8441939Y-8572649D01*
X8432415Y-8553601D01*
X8422891Y-8515506D01*
X8422891Y-8467887D01*
X8432415Y-8429791D01*
X8441939Y-8410744D01*
X8451463Y-8401220D01*
X8470510Y-8391696D01*
X8660987Y-8391696D02*
X8680034Y-8391696D01*
X8699082Y-8401220D01*
X8708606Y-8410744D01*
X8718130Y-8429791D01*
X8727653Y-8467887D01*
X8727653Y-8515506D01*
X8718130Y-8553601D01*
X8708606Y-8572649D01*
X8699082Y-8582172D01*
X8680034Y-8591696D01*
X8660987Y-8591696D01*
X8641939Y-8582172D01*
X8632415Y-8572649D01*
X8622891Y-8553601D01*
X8613368Y-8515506D01*
X8613368Y-8467887D01*
X8622891Y-8429791D01*
X8632415Y-8410744D01*
X8641939Y-8401220D01*
X8660987Y-8391696D01*
X8794320Y-8391696D02*
X8927653Y-8391696D01*
X8841939Y-8591696D01*
X9013368Y-8591696D02*
X9051463Y-8591696D01*
X9070510Y-8582172D01*
X9080034Y-8572649D01*
X9099082Y-8544077D01*
X9108606Y-8505982D01*
X9108606Y-8429791D01*
X9099082Y-8410744D01*
X9089558Y-8401220D01*
X9070510Y-8391696D01*
X9032415Y-8391696D01*
X9013368Y-8401220D01*
X9003844Y-8410744D01*
X8994320Y-8429791D01*
X8994320Y-8477410D01*
X9003844Y-8496458D01*
X9013368Y-8505982D01*
X9032415Y-8515506D01*
X9070510Y-8515506D01*
X9089558Y-8505982D01*
X9099082Y-8496458D01*
X9108606Y-8477410D01*
X9184796Y-8391696D02*
X9184796Y-8429791D01*
X9260987Y-8391696D02*
X9260987Y-8429791D01*
X9556225Y-8667887D02*
X9546701Y-8658363D01*
X9527653Y-8629791D01*
X9518130Y-8610744D01*
X9508606Y-8582172D01*
X9499082Y-8534553D01*
X9499082Y-8496458D01*
X9508606Y-8448839D01*
X9518130Y-8420268D01*
X9527653Y-8401220D01*
X9546701Y-8372648D01*
X9556225Y-8363125D01*
X9737177Y-8591696D02*
X9622891Y-8591696D01*
X9680034Y-8591696D02*
X9680034Y-8391696D01*
X9660987Y-8420268D01*
X9641939Y-8439315D01*
X9622891Y-8448839D01*
X9851463Y-8477410D02*
X9832415Y-8467887D01*
X9822891Y-8458363D01*
X9813368Y-8439315D01*
X9813368Y-8429791D01*
X9822891Y-8410744D01*
X9832415Y-8401220D01*
X9851463Y-8391696D01*
X9889558Y-8391696D01*
X9908606Y-8401220D01*
X9918130Y-8410744D01*
X9927653Y-8429791D01*
X9927653Y-8439315D01*
X9918130Y-8458363D01*
X9908606Y-8467887D01*
X9889558Y-8477410D01*
X9851463Y-8477410D01*
X9832415Y-8486934D01*
X9822891Y-8496458D01*
X9813368Y-8515506D01*
X9813368Y-8553601D01*
X9822891Y-8572649D01*
X9832415Y-8582172D01*
X9851463Y-8591696D01*
X9889558Y-8591696D01*
X9908606Y-8582172D01*
X9918130Y-8572649D01*
X9927653Y-8553601D01*
X9927653Y-8515506D01*
X9918130Y-8496458D01*
X9908606Y-8486934D01*
X9889558Y-8477410D01*
X10165749Y-8591696D02*
X10165749Y-8391696D01*
X10251463Y-8591696D02*
X10251463Y-8486934D01*
X10241939Y-8467887D01*
X10222891Y-8458363D01*
X10194320Y-8458363D01*
X10175272Y-8467887D01*
X10165749Y-8477410D01*
X10375272Y-8591696D02*
X10356225Y-8582172D01*
X10346701Y-8572649D01*
X10337177Y-8553601D01*
X10337177Y-8496458D01*
X10346701Y-8477410D01*
X10356225Y-8467887D01*
X10375272Y-8458363D01*
X10403844Y-8458363D01*
X10422891Y-8467887D01*
X10432415Y-8477410D01*
X10441939Y-8496458D01*
X10441939Y-8553601D01*
X10432415Y-8572649D01*
X10422891Y-8582172D01*
X10403844Y-8591696D01*
X10375272Y-8591696D01*
X10556225Y-8591696D02*
X10537177Y-8582172D01*
X10527653Y-8563125D01*
X10527653Y-8391696D01*
X10708606Y-8582172D02*
X10689558Y-8591696D01*
X10651463Y-8591696D01*
X10632415Y-8582172D01*
X10622891Y-8563125D01*
X10622891Y-8486934D01*
X10632415Y-8467887D01*
X10651463Y-8458363D01*
X10689558Y-8458363D01*
X10708606Y-8467887D01*
X10718130Y-8486934D01*
X10718130Y-8505982D01*
X10622891Y-8525030D01*
X10794320Y-8582172D02*
X10813368Y-8591696D01*
X10851463Y-8591696D01*
X10870510Y-8582172D01*
X10880034Y-8563125D01*
X10880034Y-8553601D01*
X10870510Y-8534553D01*
X10851463Y-8525030D01*
X10822891Y-8525030D01*
X10803844Y-8515506D01*
X10794320Y-8496458D01*
X10794320Y-8486934D01*
X10803844Y-8467887D01*
X10822891Y-8458363D01*
X10851463Y-8458363D01*
X10870510Y-8467887D01*
X10946701Y-8667887D02*
X10956225Y-8658363D01*
X10975272Y-8629791D01*
X10984796Y-8610744D01*
X10994320Y-8582172D01*
X11003844Y-8534553D01*
X11003844Y-8496458D01*
X10994320Y-8448839D01*
X10984796Y-8420268D01*
X10975272Y-8401220D01*
X10956225Y-8372648D01*
X10946701Y-8363125D01*
D13*
X5984320Y-8765220D02*
G75*
G03*
X5984320Y-8765220I-20000J0D01*
G01*
D11*
X6280034Y-8655696D02*
X6299082Y-8655696D01*
X6318129Y-8665220D01*
X6327653Y-8674744D01*
X6337177Y-8693791D01*
X6346701Y-8731887D01*
X6346701Y-8779506D01*
X6337177Y-8817601D01*
X6327653Y-8836649D01*
X6318129Y-8846172D01*
X6299082Y-8855696D01*
X6280034Y-8855696D01*
X6260987Y-8846172D01*
X6251463Y-8836649D01*
X6241939Y-8817601D01*
X6232415Y-8779506D01*
X6232415Y-8731887D01*
X6241939Y-8693791D01*
X6251463Y-8674744D01*
X6260987Y-8665220D01*
X6280034Y-8655696D01*
X6432415Y-8836649D02*
X6441939Y-8846172D01*
X6432415Y-8855696D01*
X6422891Y-8846172D01*
X6432415Y-8836649D01*
X6432415Y-8855696D01*
X6613368Y-8722363D02*
X6613368Y-8855696D01*
X6565748Y-8646172D02*
X6518129Y-8789030D01*
X6641939Y-8789030D01*
X6756225Y-8655696D02*
X6775272Y-8655696D01*
X6794320Y-8665220D01*
X6803844Y-8674744D01*
X6813368Y-8693791D01*
X6822891Y-8731887D01*
X6822891Y-8779506D01*
X6813368Y-8817601D01*
X6803844Y-8836649D01*
X6794320Y-8846172D01*
X6775272Y-8855696D01*
X6756225Y-8855696D01*
X6737177Y-8846172D01*
X6727653Y-8836649D01*
X6718129Y-8817601D01*
X6708606Y-8779506D01*
X6708606Y-8731887D01*
X6718129Y-8693791D01*
X6727653Y-8674744D01*
X6737177Y-8665220D01*
X6756225Y-8655696D01*
X6946701Y-8655696D02*
X6965748Y-8655696D01*
X6984796Y-8665220D01*
X6994320Y-8674744D01*
X7003844Y-8693791D01*
X7013368Y-8731887D01*
X7013368Y-8779506D01*
X7003844Y-8817601D01*
X6994320Y-8836649D01*
X6984796Y-8846172D01*
X6965748Y-8855696D01*
X6946701Y-8855696D01*
X6927653Y-8846172D01*
X6918129Y-8836649D01*
X6908606Y-8817601D01*
X6899082Y-8779506D01*
X6899082Y-8731887D01*
X6908606Y-8693791D01*
X6918129Y-8674744D01*
X6927653Y-8665220D01*
X6946701Y-8655696D01*
X7099082Y-8855696D02*
X7099082Y-8722363D01*
X7099082Y-8741410D02*
X7108606Y-8731887D01*
X7127653Y-8722363D01*
X7156225Y-8722363D01*
X7175272Y-8731887D01*
X7184796Y-8750934D01*
X7184796Y-8855696D01*
X7184796Y-8750934D02*
X7194320Y-8731887D01*
X7213368Y-8722363D01*
X7241939Y-8722363D01*
X7260987Y-8731887D01*
X7270510Y-8750934D01*
X7270510Y-8855696D01*
X7365748Y-8855696D02*
X7365748Y-8722363D01*
X7365748Y-8741410D02*
X7375272Y-8731887D01*
X7394320Y-8722363D01*
X7422891Y-8722363D01*
X7441939Y-8731887D01*
X7451463Y-8750934D01*
X7451463Y-8855696D01*
X7451463Y-8750934D02*
X7460987Y-8731887D01*
X7480034Y-8722363D01*
X7508606Y-8722363D01*
X7527653Y-8731887D01*
X7537177Y-8750934D01*
X7537177Y-8855696D01*
X7927653Y-8646172D02*
X7756225Y-8903315D01*
X8184796Y-8655696D02*
X8203844Y-8655696D01*
X8222891Y-8665220D01*
X8232415Y-8674744D01*
X8241939Y-8693791D01*
X8251463Y-8731887D01*
X8251463Y-8779506D01*
X8241939Y-8817601D01*
X8232415Y-8836649D01*
X8222891Y-8846172D01*
X8203844Y-8855696D01*
X8184796Y-8855696D01*
X8165748Y-8846172D01*
X8156225Y-8836649D01*
X8146701Y-8817601D01*
X8137177Y-8779506D01*
X8137177Y-8731887D01*
X8146701Y-8693791D01*
X8156225Y-8674744D01*
X8165748Y-8665220D01*
X8184796Y-8655696D01*
X8337177Y-8836649D02*
X8346701Y-8846172D01*
X8337177Y-8855696D01*
X8327653Y-8846172D01*
X8337177Y-8836649D01*
X8337177Y-8855696D01*
X8470510Y-8655696D02*
X8489558Y-8655696D01*
X8508606Y-8665220D01*
X8518130Y-8674744D01*
X8527653Y-8693791D01*
X8537177Y-8731887D01*
X8537177Y-8779506D01*
X8527653Y-8817601D01*
X8518130Y-8836649D01*
X8508606Y-8846172D01*
X8489558Y-8855696D01*
X8470510Y-8855696D01*
X8451463Y-8846172D01*
X8441939Y-8836649D01*
X8432415Y-8817601D01*
X8422891Y-8779506D01*
X8422891Y-8731887D01*
X8432415Y-8693791D01*
X8441939Y-8674744D01*
X8451463Y-8665220D01*
X8470510Y-8655696D01*
X8727653Y-8855696D02*
X8613368Y-8855696D01*
X8670510Y-8855696D02*
X8670510Y-8655696D01*
X8651463Y-8684268D01*
X8632415Y-8703315D01*
X8613368Y-8712839D01*
X8908606Y-8655696D02*
X8813368Y-8655696D01*
X8803844Y-8750934D01*
X8813368Y-8741410D01*
X8832415Y-8731887D01*
X8880034Y-8731887D01*
X8899082Y-8741410D01*
X8908606Y-8750934D01*
X8918130Y-8769982D01*
X8918130Y-8817601D01*
X8908606Y-8836649D01*
X8899082Y-8846172D01*
X8880034Y-8855696D01*
X8832415Y-8855696D01*
X8813368Y-8846172D01*
X8803844Y-8836649D01*
X8984796Y-8655696D02*
X9118130Y-8655696D01*
X9032415Y-8855696D01*
X9184796Y-8655696D02*
X9184796Y-8693791D01*
X9260987Y-8655696D02*
X9260987Y-8693791D01*
X9556225Y-8931887D02*
X9546701Y-8922363D01*
X9527653Y-8893791D01*
X9518130Y-8874744D01*
X9508606Y-8846172D01*
X9499082Y-8798553D01*
X9499082Y-8760458D01*
X9508606Y-8712839D01*
X9518130Y-8684268D01*
X9527653Y-8665220D01*
X9546701Y-8636649D01*
X9556225Y-8627125D01*
X9737177Y-8855696D02*
X9622891Y-8855696D01*
X9680034Y-8855696D02*
X9680034Y-8655696D01*
X9660987Y-8684268D01*
X9641939Y-8703315D01*
X9622891Y-8712839D01*
X9918130Y-8655696D02*
X9822891Y-8655696D01*
X9813368Y-8750934D01*
X9822891Y-8741410D01*
X9841939Y-8731887D01*
X9889558Y-8731887D01*
X9908606Y-8741410D01*
X9918130Y-8750934D01*
X9927653Y-8769982D01*
X9927653Y-8817601D01*
X9918130Y-8836649D01*
X9908606Y-8846172D01*
X9889558Y-8855696D01*
X9841939Y-8855696D01*
X9822891Y-8846172D01*
X9813368Y-8836649D01*
X10165749Y-8855696D02*
X10165749Y-8655696D01*
X10251463Y-8855696D02*
X10251463Y-8750934D01*
X10241939Y-8731887D01*
X10222891Y-8722363D01*
X10194320Y-8722363D01*
X10175272Y-8731887D01*
X10165749Y-8741410D01*
X10375272Y-8855696D02*
X10356225Y-8846172D01*
X10346701Y-8836649D01*
X10337177Y-8817601D01*
X10337177Y-8760458D01*
X10346701Y-8741410D01*
X10356225Y-8731887D01*
X10375272Y-8722363D01*
X10403844Y-8722363D01*
X10422891Y-8731887D01*
X10432415Y-8741410D01*
X10441939Y-8760458D01*
X10441939Y-8817601D01*
X10432415Y-8836649D01*
X10422891Y-8846172D01*
X10403844Y-8855696D01*
X10375272Y-8855696D01*
X10556225Y-8855696D02*
X10537177Y-8846172D01*
X10527653Y-8827125D01*
X10527653Y-8655696D01*
X10708606Y-8846172D02*
X10689558Y-8855696D01*
X10651463Y-8855696D01*
X10632415Y-8846172D01*
X10622891Y-8827125D01*
X10622891Y-8750934D01*
X10632415Y-8731887D01*
X10651463Y-8722363D01*
X10689558Y-8722363D01*
X10708606Y-8731887D01*
X10718130Y-8750934D01*
X10718130Y-8769982D01*
X10622891Y-8789030D01*
X10794320Y-8846172D02*
X10813368Y-8855696D01*
X10851463Y-8855696D01*
X10870510Y-8846172D01*
X10880034Y-8827125D01*
X10880034Y-8817601D01*
X10870510Y-8798553D01*
X10851463Y-8789030D01*
X10822891Y-8789030D01*
X10803844Y-8779506D01*
X10794320Y-8760458D01*
X10794320Y-8750934D01*
X10803844Y-8731887D01*
X10822891Y-8722363D01*
X10851463Y-8722363D01*
X10870510Y-8731887D01*
X10946701Y-8931887D02*
X10956225Y-8922363D01*
X10975272Y-8893791D01*
X10984796Y-8874744D01*
X10994320Y-8846172D01*
X11003844Y-8798553D01*
X11003844Y-8760458D01*
X10994320Y-8712839D01*
X10984796Y-8684268D01*
X10975272Y-8665220D01*
X10956225Y-8636649D01*
X10946701Y-8627125D01*
D14*
X5934320Y-8979220D02*
X5934320Y-9079220D01*
X5884320Y-9029220D02*
X5984320Y-9029220D01*
D11*
X6346701Y-9119696D02*
X6232415Y-9119696D01*
X6289558Y-9119696D02*
X6289558Y-8919696D01*
X6270510Y-8948268D01*
X6251463Y-8967315D01*
X6232415Y-8976839D01*
X6432415Y-9100649D02*
X6441939Y-9110172D01*
X6432415Y-9119696D01*
X6422891Y-9110172D01*
X6432415Y-9100649D01*
X6432415Y-9119696D01*
X6565748Y-8919696D02*
X6584796Y-8919696D01*
X6603844Y-8929220D01*
X6613368Y-8938744D01*
X6622891Y-8957791D01*
X6632415Y-8995887D01*
X6632415Y-9043506D01*
X6622891Y-9081601D01*
X6613368Y-9100649D01*
X6603844Y-9110172D01*
X6584796Y-9119696D01*
X6565748Y-9119696D01*
X6546701Y-9110172D01*
X6537177Y-9100649D01*
X6527653Y-9081601D01*
X6518129Y-9043506D01*
X6518129Y-8995887D01*
X6527653Y-8957791D01*
X6537177Y-8938744D01*
X6546701Y-8929220D01*
X6565748Y-8919696D01*
X6756225Y-8919696D02*
X6775272Y-8919696D01*
X6794320Y-8929220D01*
X6803844Y-8938744D01*
X6813368Y-8957791D01*
X6822891Y-8995887D01*
X6822891Y-9043506D01*
X6813368Y-9081601D01*
X6803844Y-9100649D01*
X6794320Y-9110172D01*
X6775272Y-9119696D01*
X6756225Y-9119696D01*
X6737177Y-9110172D01*
X6727653Y-9100649D01*
X6718129Y-9081601D01*
X6708606Y-9043506D01*
X6708606Y-8995887D01*
X6718129Y-8957791D01*
X6727653Y-8938744D01*
X6737177Y-8929220D01*
X6756225Y-8919696D01*
X6946701Y-8919696D02*
X6965748Y-8919696D01*
X6984796Y-8929220D01*
X6994320Y-8938744D01*
X7003844Y-8957791D01*
X7013368Y-8995887D01*
X7013368Y-9043506D01*
X7003844Y-9081601D01*
X6994320Y-9100649D01*
X6984796Y-9110172D01*
X6965748Y-9119696D01*
X6946701Y-9119696D01*
X6927653Y-9110172D01*
X6918129Y-9100649D01*
X6908606Y-9081601D01*
X6899082Y-9043506D01*
X6899082Y-8995887D01*
X6908606Y-8957791D01*
X6918129Y-8938744D01*
X6927653Y-8929220D01*
X6946701Y-8919696D01*
X7099082Y-9119696D02*
X7099082Y-8986363D01*
X7099082Y-9005410D02*
X7108606Y-8995887D01*
X7127653Y-8986363D01*
X7156225Y-8986363D01*
X7175272Y-8995887D01*
X7184796Y-9014934D01*
X7184796Y-9119696D01*
X7184796Y-9014934D02*
X7194320Y-8995887D01*
X7213368Y-8986363D01*
X7241939Y-8986363D01*
X7260987Y-8995887D01*
X7270510Y-9014934D01*
X7270510Y-9119696D01*
X7365748Y-9119696D02*
X7365748Y-8986363D01*
X7365748Y-9005410D02*
X7375272Y-8995887D01*
X7394320Y-8986363D01*
X7422891Y-8986363D01*
X7441939Y-8995887D01*
X7451463Y-9014934D01*
X7451463Y-9119696D01*
X7451463Y-9014934D02*
X7460987Y-8995887D01*
X7480034Y-8986363D01*
X7508606Y-8986363D01*
X7527653Y-8995887D01*
X7537177Y-9014934D01*
X7537177Y-9119696D01*
X7927653Y-8910172D02*
X7756225Y-9167315D01*
X8184796Y-8919696D02*
X8203844Y-8919696D01*
X8222891Y-8929220D01*
X8232415Y-8938744D01*
X8241939Y-8957791D01*
X8251463Y-8995887D01*
X8251463Y-9043506D01*
X8241939Y-9081601D01*
X8232415Y-9100649D01*
X8222891Y-9110172D01*
X8203844Y-9119696D01*
X8184796Y-9119696D01*
X8165748Y-9110172D01*
X8156225Y-9100649D01*
X8146701Y-9081601D01*
X8137177Y-9043506D01*
X8137177Y-8995887D01*
X8146701Y-8957791D01*
X8156225Y-8938744D01*
X8165748Y-8929220D01*
X8184796Y-8919696D01*
X8337177Y-9100649D02*
X8346701Y-9110172D01*
X8337177Y-9119696D01*
X8327653Y-9110172D01*
X8337177Y-9100649D01*
X8337177Y-9119696D01*
X8470510Y-8919696D02*
X8489558Y-8919696D01*
X8508606Y-8929220D01*
X8518130Y-8938744D01*
X8527653Y-8957791D01*
X8537177Y-8995887D01*
X8537177Y-9043506D01*
X8527653Y-9081601D01*
X8518130Y-9100649D01*
X8508606Y-9110172D01*
X8489558Y-9119696D01*
X8470510Y-9119696D01*
X8451463Y-9110172D01*
X8441939Y-9100649D01*
X8432415Y-9081601D01*
X8422891Y-9043506D01*
X8422891Y-8995887D01*
X8432415Y-8957791D01*
X8441939Y-8938744D01*
X8451463Y-8929220D01*
X8470510Y-8919696D01*
X8603844Y-8919696D02*
X8727653Y-8919696D01*
X8660987Y-8995887D01*
X8689558Y-8995887D01*
X8708606Y-9005410D01*
X8718130Y-9014934D01*
X8727653Y-9033982D01*
X8727653Y-9081601D01*
X8718130Y-9100649D01*
X8708606Y-9110172D01*
X8689558Y-9119696D01*
X8632415Y-9119696D01*
X8613368Y-9110172D01*
X8603844Y-9100649D01*
X8822891Y-9119696D02*
X8860987Y-9119696D01*
X8880034Y-9110172D01*
X8889558Y-9100649D01*
X8908606Y-9072077D01*
X8918130Y-9033982D01*
X8918130Y-8957791D01*
X8908606Y-8938744D01*
X8899082Y-8929220D01*
X8880034Y-8919696D01*
X8841939Y-8919696D01*
X8822891Y-8929220D01*
X8813368Y-8938744D01*
X8803844Y-8957791D01*
X8803844Y-9005410D01*
X8813368Y-9024458D01*
X8822891Y-9033982D01*
X8841939Y-9043506D01*
X8880034Y-9043506D01*
X8899082Y-9033982D01*
X8908606Y-9024458D01*
X8918130Y-9005410D01*
X9089558Y-8986363D02*
X9089558Y-9119696D01*
X9041939Y-8910172D02*
X8994320Y-9053030D01*
X9118130Y-9053030D01*
X9184796Y-8919696D02*
X9184796Y-8957791D01*
X9260987Y-8919696D02*
X9260987Y-8957791D01*
X9556225Y-9195887D02*
X9546701Y-9186363D01*
X9527653Y-9157791D01*
X9518130Y-9138744D01*
X9508606Y-9110172D01*
X9499082Y-9062553D01*
X9499082Y-9024458D01*
X9508606Y-8976839D01*
X9518130Y-8948268D01*
X9527653Y-8929220D01*
X9546701Y-8900649D01*
X9556225Y-8891125D01*
X9737177Y-9119696D02*
X9622891Y-9119696D01*
X9680034Y-9119696D02*
X9680034Y-8919696D01*
X9660987Y-8948268D01*
X9641939Y-8967315D01*
X9622891Y-8976839D01*
X9803844Y-8919696D02*
X9927653Y-8919696D01*
X9860987Y-8995887D01*
X9889558Y-8995887D01*
X9908606Y-9005410D01*
X9918130Y-9014934D01*
X9927653Y-9033982D01*
X9927653Y-9081601D01*
X9918130Y-9100649D01*
X9908606Y-9110172D01*
X9889558Y-9119696D01*
X9832415Y-9119696D01*
X9813368Y-9110172D01*
X9803844Y-9100649D01*
X10099082Y-8919696D02*
X10060987Y-8919696D01*
X10041939Y-8929220D01*
X10032415Y-8938744D01*
X10013368Y-8967315D01*
X10003844Y-9005410D01*
X10003844Y-9081601D01*
X10013368Y-9100649D01*
X10022891Y-9110172D01*
X10041939Y-9119696D01*
X10080034Y-9119696D01*
X10099082Y-9110172D01*
X10108606Y-9100649D01*
X10118130Y-9081601D01*
X10118130Y-9033982D01*
X10108606Y-9014934D01*
X10099082Y-9005410D01*
X10080034Y-8995887D01*
X10041939Y-8995887D01*
X10022891Y-9005410D01*
X10013368Y-9014934D01*
X10003844Y-9033982D01*
X10356225Y-9119696D02*
X10356225Y-8919696D01*
X10441939Y-9119696D02*
X10441939Y-9014934D01*
X10432415Y-8995887D01*
X10413368Y-8986363D01*
X10384796Y-8986363D01*
X10365749Y-8995887D01*
X10356225Y-9005410D01*
X10565749Y-9119696D02*
X10546701Y-9110172D01*
X10537177Y-9100649D01*
X10527653Y-9081601D01*
X10527653Y-9024458D01*
X10537177Y-9005410D01*
X10546701Y-8995887D01*
X10565749Y-8986363D01*
X10594320Y-8986363D01*
X10613368Y-8995887D01*
X10622891Y-9005410D01*
X10632415Y-9024458D01*
X10632415Y-9081601D01*
X10622891Y-9100649D01*
X10613368Y-9110172D01*
X10594320Y-9119696D01*
X10565749Y-9119696D01*
X10746701Y-9119696D02*
X10727653Y-9110172D01*
X10718130Y-9091125D01*
X10718130Y-8919696D01*
X10899082Y-9110172D02*
X10880034Y-9119696D01*
X10841939Y-9119696D01*
X10822891Y-9110172D01*
X10813368Y-9091125D01*
X10813368Y-9014934D01*
X10822891Y-8995887D01*
X10841939Y-8986363D01*
X10880034Y-8986363D01*
X10899082Y-8995887D01*
X10908606Y-9014934D01*
X10908606Y-9033982D01*
X10813368Y-9053030D01*
X10984796Y-9110172D02*
X11003844Y-9119696D01*
X11041939Y-9119696D01*
X11060987Y-9110172D01*
X11070510Y-9091125D01*
X11070510Y-9081601D01*
X11060987Y-9062553D01*
X11041939Y-9053030D01*
X11013368Y-9053030D01*
X10994320Y-9043506D01*
X10984796Y-9024458D01*
X10984796Y-9014934D01*
X10994320Y-8995887D01*
X11013368Y-8986363D01*
X11041939Y-8986363D01*
X11060987Y-8995887D01*
X11137177Y-9195887D02*
X11146701Y-9186363D01*
X11165749Y-9157791D01*
X11175272Y-9138744D01*
X11184796Y-9110172D01*
X11194320Y-9062553D01*
X11194320Y-9024458D01*
X11184796Y-8976839D01*
X11175272Y-8948268D01*
X11165749Y-8929220D01*
X11146701Y-8900649D01*
X11137177Y-8891125D01*
M02*
