%FSLAX45Y45*%
G04 Gerber Fmt 4.5, Leading zero omitted, Abs format (unit mm)*
G04 Created by KiCad (PCBNEW (6.0.6)) date 2022-08-29 09:39:00*
%MOMM*%
%LPD*%
G01*
G04 APERTURE LIST*
%TA.AperFunction,Profile*%
%ADD10C,0.100000*%
%TD*%
%ADD11C,0.200000*%
G04 APERTURE END LIST*
D10*
X12491720Y-7856220D02*
X5989320Y-7856220D01*
X5989320Y-7856220D02*
X5989320Y-1851660D01*
X5989320Y-1851660D02*
X12491720Y-1851660D01*
X12491720Y-1851660D02*
X12491720Y-7856220D01*
D11*
X6241939Y-8171696D02*
X6241939Y-7971696D01*
X6289558Y-7971696D01*
X6318129Y-7981220D01*
X6337177Y-8000268D01*
X6346701Y-8019315D01*
X6356225Y-8057410D01*
X6356225Y-8085982D01*
X6346701Y-8124077D01*
X6337177Y-8143125D01*
X6318129Y-8162172D01*
X6289558Y-8171696D01*
X6241939Y-8171696D01*
X6441939Y-8171696D02*
X6441939Y-8038363D01*
X6441939Y-8076458D02*
X6451463Y-8057410D01*
X6460987Y-8047887D01*
X6480034Y-8038363D01*
X6499082Y-8038363D01*
X6565748Y-8171696D02*
X6565748Y-8038363D01*
X6565748Y-7971696D02*
X6556225Y-7981220D01*
X6565748Y-7990744D01*
X6575272Y-7981220D01*
X6565748Y-7971696D01*
X6565748Y-7990744D01*
X6689558Y-8171696D02*
X6670510Y-8162172D01*
X6660987Y-8143125D01*
X6660987Y-7971696D01*
X6794320Y-8171696D02*
X6775272Y-8162172D01*
X6765748Y-8143125D01*
X6765748Y-7971696D01*
X7022891Y-8171696D02*
X7022891Y-7971696D01*
X7089558Y-8114553D01*
X7156225Y-7971696D01*
X7156225Y-8171696D01*
X7337177Y-8171696D02*
X7337177Y-8066934D01*
X7327653Y-8047887D01*
X7308606Y-8038363D01*
X7270510Y-8038363D01*
X7251463Y-8047887D01*
X7337177Y-8162172D02*
X7318129Y-8171696D01*
X7270510Y-8171696D01*
X7251463Y-8162172D01*
X7241939Y-8143125D01*
X7241939Y-8124077D01*
X7251463Y-8105029D01*
X7270510Y-8095506D01*
X7318129Y-8095506D01*
X7337177Y-8085982D01*
X7432415Y-8038363D02*
X7432415Y-8238363D01*
X7432415Y-8047887D02*
X7451463Y-8038363D01*
X7489558Y-8038363D01*
X7508606Y-8047887D01*
X7518129Y-8057410D01*
X7527653Y-8076458D01*
X7527653Y-8133601D01*
X7518129Y-8152648D01*
X7508606Y-8162172D01*
X7489558Y-8171696D01*
X7451463Y-8171696D01*
X7432415Y-8162172D01*
X7613368Y-8152648D02*
X7622891Y-8162172D01*
X7613368Y-8171696D01*
X7603844Y-8162172D01*
X7613368Y-8152648D01*
X7613368Y-8171696D01*
X7613368Y-8047887D02*
X7622891Y-8057410D01*
X7613368Y-8066934D01*
X7603844Y-8057410D01*
X7613368Y-8047887D01*
X7613368Y-8066934D01*
M02*
