G04 #@! TF.GenerationSoftware,KiCad,Pcbnew,(6.0.6)*
G04 #@! TF.CreationDate,2022-08-29T09:38:23+02:00*
G04 #@! TF.ProjectId,afe-ep-shield,6166652d-6570-42d7-9368-69656c642e6b,rev?*
G04 #@! TF.SameCoordinates,Original*
G04 #@! TF.FileFunction,Legend,Bot*
G04 #@! TF.FilePolarity,Positive*
%FSLAX46Y46*%
G04 Gerber Fmt 4.6, Leading zero omitted, Abs format (unit mm)*
G04 Created by KiCad (PCBNEW (6.0.6)) date 2022-08-29 09:38:23*
%MOMM*%
%LPD*%
G01*
G04 APERTURE LIST*
G04 Aperture macros list*
%AMRoundRect*
0 Rectangle with rounded corners*
0 $1 Rounding radius*
0 $2 $3 $4 $5 $6 $7 $8 $9 X,Y pos of 4 corners*
0 Add a 4 corners polygon primitive as box body*
4,1,4,$2,$3,$4,$5,$6,$7,$8,$9,$2,$3,0*
0 Add four circle primitives for the rounded corners*
1,1,$1+$1,$2,$3*
1,1,$1+$1,$4,$5*
1,1,$1+$1,$6,$7*
1,1,$1+$1,$8,$9*
0 Add four rect primitives between the rounded corners*
20,1,$1+$1,$2,$3,$4,$5,0*
20,1,$1+$1,$4,$5,$6,$7,0*
20,1,$1+$1,$6,$7,$8,$9,0*
20,1,$1+$1,$8,$9,$2,$3,0*%
G04 Aperture macros list end*
%ADD10C,0.150000*%
%ADD11C,0.120000*%
%ADD12C,1.515000*%
%ADD13R,1.700000X1.700000*%
%ADD14O,1.700000X1.700000*%
%ADD15RoundRect,0.250000X0.262500X0.450000X-0.262500X0.450000X-0.262500X-0.450000X0.262500X-0.450000X0*%
%ADD16RoundRect,0.250000X0.450000X-0.350000X0.450000X0.350000X-0.450000X0.350000X-0.450000X-0.350000X0*%
%ADD17RoundRect,0.250000X-0.475000X0.337500X-0.475000X-0.337500X0.475000X-0.337500X0.475000X0.337500X0*%
%ADD18RoundRect,0.250000X0.450000X-0.262500X0.450000X0.262500X-0.450000X0.262500X-0.450000X-0.262500X0*%
%ADD19RoundRect,0.250000X-0.450000X0.350000X-0.450000X-0.350000X0.450000X-0.350000X0.450000X0.350000X0*%
%ADD20RoundRect,0.250000X0.475000X-0.337500X0.475000X0.337500X-0.475000X0.337500X-0.475000X-0.337500X0*%
%ADD21RoundRect,0.250000X0.337500X0.475000X-0.337500X0.475000X-0.337500X-0.475000X0.337500X-0.475000X0*%
%ADD22RoundRect,0.250000X0.350000X0.450000X-0.350000X0.450000X-0.350000X-0.450000X0.350000X-0.450000X0*%
%ADD23RoundRect,0.250000X-0.337500X-0.475000X0.337500X-0.475000X0.337500X0.475000X-0.337500X0.475000X0*%
G04 APERTURE END LIST*
D10*
X65775666Y-37375266D02*
X66009000Y-37041933D01*
X66175666Y-37375266D02*
X66175666Y-36675266D01*
X65909000Y-36675266D01*
X65842333Y-36708600D01*
X65809000Y-36741933D01*
X65775666Y-36808600D01*
X65775666Y-36908600D01*
X65809000Y-36975266D01*
X65842333Y-37008600D01*
X65909000Y-37041933D01*
X66175666Y-37041933D01*
X65509000Y-36741933D02*
X65475666Y-36708600D01*
X65409000Y-36675266D01*
X65242333Y-36675266D01*
X65175666Y-36708600D01*
X65142333Y-36741933D01*
X65109000Y-36808600D01*
X65109000Y-36875266D01*
X65142333Y-36975266D01*
X65542333Y-37375266D01*
X65109000Y-37375266D01*
X113146666Y-66331266D02*
X113380000Y-65997933D01*
X113546666Y-66331266D02*
X113546666Y-65631266D01*
X113280000Y-65631266D01*
X113213333Y-65664600D01*
X113180000Y-65697933D01*
X113146666Y-65764600D01*
X113146666Y-65864600D01*
X113180000Y-65931266D01*
X113213333Y-65964600D01*
X113280000Y-65997933D01*
X113546666Y-65997933D01*
X112746666Y-65931266D02*
X112813333Y-65897933D01*
X112846666Y-65864600D01*
X112880000Y-65797933D01*
X112880000Y-65764600D01*
X112846666Y-65697933D01*
X112813333Y-65664600D01*
X112746666Y-65631266D01*
X112613333Y-65631266D01*
X112546666Y-65664600D01*
X112513333Y-65697933D01*
X112480000Y-65764600D01*
X112480000Y-65797933D01*
X112513333Y-65864600D01*
X112546666Y-65897933D01*
X112613333Y-65931266D01*
X112746666Y-65931266D01*
X112813333Y-65964600D01*
X112846666Y-65997933D01*
X112880000Y-66064600D01*
X112880000Y-66197933D01*
X112846666Y-66264600D01*
X112813333Y-66297933D01*
X112746666Y-66331266D01*
X112613333Y-66331266D01*
X112546666Y-66297933D01*
X112513333Y-66264600D01*
X112480000Y-66197933D01*
X112480000Y-66064600D01*
X112513333Y-65997933D01*
X112546666Y-65964600D01*
X112613333Y-65931266D01*
X113019666Y-41296400D02*
X113053000Y-41329733D01*
X113153000Y-41363066D01*
X113219666Y-41363066D01*
X113319666Y-41329733D01*
X113386333Y-41263066D01*
X113419666Y-41196400D01*
X113453000Y-41063066D01*
X113453000Y-40963066D01*
X113419666Y-40829733D01*
X113386333Y-40763066D01*
X113319666Y-40696400D01*
X113219666Y-40663066D01*
X113153000Y-40663066D01*
X113053000Y-40696400D01*
X113019666Y-40729733D01*
X112419666Y-40663066D02*
X112553000Y-40663066D01*
X112619666Y-40696400D01*
X112653000Y-40729733D01*
X112719666Y-40829733D01*
X112753000Y-40963066D01*
X112753000Y-41229733D01*
X112719666Y-41296400D01*
X112686333Y-41329733D01*
X112619666Y-41363066D01*
X112486333Y-41363066D01*
X112419666Y-41329733D01*
X112386333Y-41296400D01*
X112353000Y-41229733D01*
X112353000Y-41063066D01*
X112386333Y-40996400D01*
X112419666Y-40963066D01*
X112486333Y-40929733D01*
X112619666Y-40929733D01*
X112686333Y-40963066D01*
X112719666Y-40996400D01*
X112753000Y-41063066D01*
X69382466Y-33590666D02*
X69615800Y-33257333D01*
X69782466Y-33590666D02*
X69782466Y-32890666D01*
X69515800Y-32890666D01*
X69449133Y-32924000D01*
X69415800Y-32957333D01*
X69382466Y-33024000D01*
X69382466Y-33124000D01*
X69415800Y-33190666D01*
X69449133Y-33224000D01*
X69515800Y-33257333D01*
X69782466Y-33257333D01*
X68715800Y-33590666D02*
X69115800Y-33590666D01*
X68915800Y-33590666D02*
X68915800Y-32890666D01*
X68982466Y-32990666D01*
X69049133Y-33057333D01*
X69115800Y-33090666D01*
X111190866Y-51548466D02*
X111424200Y-51215133D01*
X111590866Y-51548466D02*
X111590866Y-50848466D01*
X111324200Y-50848466D01*
X111257533Y-50881800D01*
X111224200Y-50915133D01*
X111190866Y-50981800D01*
X111190866Y-51081800D01*
X111224200Y-51148466D01*
X111257533Y-51181800D01*
X111324200Y-51215133D01*
X111590866Y-51215133D01*
X110557533Y-50848466D02*
X110890866Y-50848466D01*
X110924200Y-51181800D01*
X110890866Y-51148466D01*
X110824200Y-51115133D01*
X110657533Y-51115133D01*
X110590866Y-51148466D01*
X110557533Y-51181800D01*
X110524200Y-51248466D01*
X110524200Y-51415133D01*
X110557533Y-51481800D01*
X110590866Y-51515133D01*
X110657533Y-51548466D01*
X110824200Y-51548466D01*
X110890866Y-51515133D01*
X110924200Y-51481800D01*
X111216266Y-66340800D02*
X111249600Y-66374133D01*
X111349600Y-66407466D01*
X111416266Y-66407466D01*
X111516266Y-66374133D01*
X111582933Y-66307466D01*
X111616266Y-66240800D01*
X111649600Y-66107466D01*
X111649600Y-66007466D01*
X111616266Y-65874133D01*
X111582933Y-65807466D01*
X111516266Y-65740800D01*
X111416266Y-65707466D01*
X111349600Y-65707466D01*
X111249600Y-65740800D01*
X111216266Y-65774133D01*
X110949600Y-65774133D02*
X110916266Y-65740800D01*
X110849600Y-65707466D01*
X110682933Y-65707466D01*
X110616266Y-65740800D01*
X110582933Y-65774133D01*
X110549600Y-65840800D01*
X110549600Y-65907466D01*
X110582933Y-66007466D01*
X110982933Y-66407466D01*
X110549600Y-66407466D01*
X106314066Y-45280600D02*
X106347400Y-45313933D01*
X106447400Y-45347266D01*
X106514066Y-45347266D01*
X106614066Y-45313933D01*
X106680733Y-45247266D01*
X106714066Y-45180600D01*
X106747400Y-45047266D01*
X106747400Y-44947266D01*
X106714066Y-44813933D01*
X106680733Y-44747266D01*
X106614066Y-44680600D01*
X106514066Y-44647266D01*
X106447400Y-44647266D01*
X106347400Y-44680600D01*
X106314066Y-44713933D01*
X105980733Y-45347266D02*
X105847400Y-45347266D01*
X105780733Y-45313933D01*
X105747400Y-45280600D01*
X105680733Y-45180600D01*
X105647400Y-45047266D01*
X105647400Y-44780600D01*
X105680733Y-44713933D01*
X105714066Y-44680600D01*
X105780733Y-44647266D01*
X105914066Y-44647266D01*
X105980733Y-44680600D01*
X106014066Y-44713933D01*
X106047400Y-44780600D01*
X106047400Y-44947266D01*
X106014066Y-45013933D01*
X105980733Y-45047266D01*
X105914066Y-45080600D01*
X105780733Y-45080600D01*
X105714066Y-45047266D01*
X105680733Y-45013933D01*
X105647400Y-44947266D01*
X113146666Y-57720666D02*
X113380000Y-57387333D01*
X113546666Y-57720666D02*
X113546666Y-57020666D01*
X113280000Y-57020666D01*
X113213333Y-57054000D01*
X113180000Y-57087333D01*
X113146666Y-57154000D01*
X113146666Y-57254000D01*
X113180000Y-57320666D01*
X113213333Y-57354000D01*
X113280000Y-57387333D01*
X113546666Y-57387333D01*
X112913333Y-57020666D02*
X112446666Y-57020666D01*
X112746666Y-57720666D01*
X109847800Y-70496866D02*
X110081133Y-70163533D01*
X110247800Y-70496866D02*
X110247800Y-69796866D01*
X109981133Y-69796866D01*
X109914466Y-69830200D01*
X109881133Y-69863533D01*
X109847800Y-69930200D01*
X109847800Y-70030200D01*
X109881133Y-70096866D01*
X109914466Y-70130200D01*
X109981133Y-70163533D01*
X110247800Y-70163533D01*
X109181133Y-70496866D02*
X109581133Y-70496866D01*
X109381133Y-70496866D02*
X109381133Y-69796866D01*
X109447800Y-69896866D01*
X109514466Y-69963533D01*
X109581133Y-69996866D01*
X108747800Y-69796866D02*
X108681133Y-69796866D01*
X108614466Y-69830200D01*
X108581133Y-69863533D01*
X108547800Y-69930200D01*
X108514466Y-70063533D01*
X108514466Y-70230200D01*
X108547800Y-70363533D01*
X108581133Y-70430200D01*
X108614466Y-70463533D01*
X108681133Y-70496866D01*
X108747800Y-70496866D01*
X108814466Y-70463533D01*
X108847800Y-70430200D01*
X108881133Y-70363533D01*
X108914466Y-70230200D01*
X108914466Y-70063533D01*
X108881133Y-69930200D01*
X108847800Y-69863533D01*
X108814466Y-69830200D01*
X108747800Y-69796866D01*
X109616066Y-68363266D02*
X109849400Y-68029933D01*
X110016066Y-68363266D02*
X110016066Y-67663266D01*
X109749400Y-67663266D01*
X109682733Y-67696600D01*
X109649400Y-67729933D01*
X109616066Y-67796600D01*
X109616066Y-67896600D01*
X109649400Y-67963266D01*
X109682733Y-67996600D01*
X109749400Y-68029933D01*
X110016066Y-68029933D01*
X109282733Y-68363266D02*
X109149400Y-68363266D01*
X109082733Y-68329933D01*
X109049400Y-68296600D01*
X108982733Y-68196600D01*
X108949400Y-68063266D01*
X108949400Y-67796600D01*
X108982733Y-67729933D01*
X109016066Y-67696600D01*
X109082733Y-67663266D01*
X109216066Y-67663266D01*
X109282733Y-67696600D01*
X109316066Y-67729933D01*
X109349400Y-67796600D01*
X109349400Y-67963266D01*
X109316066Y-68029933D01*
X109282733Y-68063266D01*
X109216066Y-68096600D01*
X109082733Y-68096600D01*
X109016066Y-68063266D01*
X108982733Y-68029933D01*
X108949400Y-67963266D01*
X113197466Y-51380200D02*
X113230800Y-51413533D01*
X113330800Y-51446866D01*
X113397466Y-51446866D01*
X113497466Y-51413533D01*
X113564133Y-51346866D01*
X113597466Y-51280200D01*
X113630800Y-51146866D01*
X113630800Y-51046866D01*
X113597466Y-50913533D01*
X113564133Y-50846866D01*
X113497466Y-50780200D01*
X113397466Y-50746866D01*
X113330800Y-50746866D01*
X113230800Y-50780200D01*
X113197466Y-50813533D01*
X112530800Y-51446866D02*
X112930800Y-51446866D01*
X112730800Y-51446866D02*
X112730800Y-50746866D01*
X112797466Y-50846866D01*
X112864133Y-50913533D01*
X112930800Y-50946866D01*
X87949866Y-70522266D02*
X88183200Y-70188933D01*
X88349866Y-70522266D02*
X88349866Y-69822266D01*
X88083200Y-69822266D01*
X88016533Y-69855600D01*
X87983200Y-69888933D01*
X87949866Y-69955600D01*
X87949866Y-70055600D01*
X87983200Y-70122266D01*
X88016533Y-70155600D01*
X88083200Y-70188933D01*
X88349866Y-70188933D01*
X87716533Y-69822266D02*
X87283200Y-69822266D01*
X87516533Y-70088933D01*
X87416533Y-70088933D01*
X87349866Y-70122266D01*
X87316533Y-70155600D01*
X87283200Y-70222266D01*
X87283200Y-70388933D01*
X87316533Y-70455600D01*
X87349866Y-70488933D01*
X87416533Y-70522266D01*
X87616533Y-70522266D01*
X87683200Y-70488933D01*
X87716533Y-70455600D01*
X111140066Y-57654000D02*
X111173400Y-57687333D01*
X111273400Y-57720666D01*
X111340066Y-57720666D01*
X111440066Y-57687333D01*
X111506733Y-57620666D01*
X111540066Y-57554000D01*
X111573400Y-57420666D01*
X111573400Y-57320666D01*
X111540066Y-57187333D01*
X111506733Y-57120666D01*
X111440066Y-57054000D01*
X111340066Y-57020666D01*
X111273400Y-57020666D01*
X111173400Y-57054000D01*
X111140066Y-57087333D01*
X110906733Y-57020666D02*
X110473400Y-57020666D01*
X110706733Y-57287333D01*
X110606733Y-57287333D01*
X110540066Y-57320666D01*
X110506733Y-57354000D01*
X110473400Y-57420666D01*
X110473400Y-57587333D01*
X110506733Y-57654000D01*
X110540066Y-57687333D01*
X110606733Y-57720666D01*
X110806733Y-57720666D01*
X110873400Y-57687333D01*
X110906733Y-57654000D01*
X115080200Y-21652666D02*
X115313533Y-21319333D01*
X115480200Y-21652666D02*
X115480200Y-20952666D01*
X115213533Y-20952666D01*
X115146866Y-20986000D01*
X115113533Y-21019333D01*
X115080200Y-21086000D01*
X115080200Y-21186000D01*
X115113533Y-21252666D01*
X115146866Y-21286000D01*
X115213533Y-21319333D01*
X115480200Y-21319333D01*
X114413533Y-21652666D02*
X114813533Y-21652666D01*
X114613533Y-21652666D02*
X114613533Y-20952666D01*
X114680200Y-21052666D01*
X114746866Y-21119333D01*
X114813533Y-21152666D01*
X113813533Y-20952666D02*
X113946866Y-20952666D01*
X114013533Y-20986000D01*
X114046866Y-21019333D01*
X114113533Y-21119333D01*
X114146866Y-21252666D01*
X114146866Y-21519333D01*
X114113533Y-21586000D01*
X114080200Y-21619333D01*
X114013533Y-21652666D01*
X113880200Y-21652666D01*
X113813533Y-21619333D01*
X113780200Y-21586000D01*
X113746866Y-21519333D01*
X113746866Y-21352666D01*
X113780200Y-21286000D01*
X113813533Y-21252666D01*
X113880200Y-21219333D01*
X114013533Y-21219333D01*
X114080200Y-21252666D01*
X114113533Y-21286000D01*
X114146866Y-21352666D01*
X103570866Y-64537400D02*
X103604200Y-64570733D01*
X103704200Y-64604066D01*
X103770866Y-64604066D01*
X103870866Y-64570733D01*
X103937533Y-64504066D01*
X103970866Y-64437400D01*
X104004200Y-64304066D01*
X104004200Y-64204066D01*
X103970866Y-64070733D01*
X103937533Y-64004066D01*
X103870866Y-63937400D01*
X103770866Y-63904066D01*
X103704200Y-63904066D01*
X103604200Y-63937400D01*
X103570866Y-63970733D01*
X103337533Y-63904066D02*
X102870866Y-63904066D01*
X103170866Y-64604066D01*
X106647400Y-50643600D02*
X106680733Y-50676933D01*
X106780733Y-50710266D01*
X106847400Y-50710266D01*
X106947400Y-50676933D01*
X107014066Y-50610266D01*
X107047400Y-50543600D01*
X107080733Y-50410266D01*
X107080733Y-50310266D01*
X107047400Y-50176933D01*
X107014066Y-50110266D01*
X106947400Y-50043600D01*
X106847400Y-50010266D01*
X106780733Y-50010266D01*
X106680733Y-50043600D01*
X106647400Y-50076933D01*
X105980733Y-50710266D02*
X106380733Y-50710266D01*
X106180733Y-50710266D02*
X106180733Y-50010266D01*
X106247400Y-50110266D01*
X106314066Y-50176933D01*
X106380733Y-50210266D01*
X105547400Y-50010266D02*
X105480733Y-50010266D01*
X105414066Y-50043600D01*
X105380733Y-50076933D01*
X105347400Y-50143600D01*
X105314066Y-50276933D01*
X105314066Y-50443600D01*
X105347400Y-50576933D01*
X105380733Y-50643600D01*
X105414066Y-50676933D01*
X105480733Y-50710266D01*
X105547400Y-50710266D01*
X105614066Y-50676933D01*
X105647400Y-50643600D01*
X105680733Y-50576933D01*
X105714066Y-50443600D01*
X105714066Y-50276933D01*
X105680733Y-50143600D01*
X105647400Y-50076933D01*
X105614066Y-50043600D01*
X105547400Y-50010266D01*
X111321000Y-41439266D02*
X111554333Y-41105933D01*
X111721000Y-41439266D02*
X111721000Y-40739266D01*
X111454333Y-40739266D01*
X111387666Y-40772600D01*
X111354333Y-40805933D01*
X111321000Y-40872600D01*
X111321000Y-40972600D01*
X111354333Y-41039266D01*
X111387666Y-41072600D01*
X111454333Y-41105933D01*
X111721000Y-41105933D01*
X110654333Y-41439266D02*
X111054333Y-41439266D01*
X110854333Y-41439266D02*
X110854333Y-40739266D01*
X110921000Y-40839266D01*
X110987666Y-40905933D01*
X111054333Y-40939266D01*
X110387666Y-40805933D02*
X110354333Y-40772600D01*
X110287666Y-40739266D01*
X110121000Y-40739266D01*
X110054333Y-40772600D01*
X110021000Y-40805933D01*
X109987666Y-40872600D01*
X109987666Y-40939266D01*
X110021000Y-41039266D01*
X110421000Y-41439266D01*
X109987666Y-41439266D01*
X103545466Y-66671000D02*
X103578800Y-66704333D01*
X103678800Y-66737666D01*
X103745466Y-66737666D01*
X103845466Y-66704333D01*
X103912133Y-66637666D01*
X103945466Y-66571000D01*
X103978800Y-66437666D01*
X103978800Y-66337666D01*
X103945466Y-66204333D01*
X103912133Y-66137666D01*
X103845466Y-66071000D01*
X103745466Y-66037666D01*
X103678800Y-66037666D01*
X103578800Y-66071000D01*
X103545466Y-66104333D01*
X103145466Y-66337666D02*
X103212133Y-66304333D01*
X103245466Y-66271000D01*
X103278800Y-66204333D01*
X103278800Y-66171000D01*
X103245466Y-66104333D01*
X103212133Y-66071000D01*
X103145466Y-66037666D01*
X103012133Y-66037666D01*
X102945466Y-66071000D01*
X102912133Y-66104333D01*
X102878800Y-66171000D01*
X102878800Y-66204333D01*
X102912133Y-66271000D01*
X102945466Y-66304333D01*
X103012133Y-66337666D01*
X103145466Y-66337666D01*
X103212133Y-66371000D01*
X103245466Y-66404333D01*
X103278800Y-66471000D01*
X103278800Y-66604333D01*
X103245466Y-66671000D01*
X103212133Y-66704333D01*
X103145466Y-66737666D01*
X103012133Y-66737666D01*
X102945466Y-66704333D01*
X102912133Y-66671000D01*
X102878800Y-66604333D01*
X102878800Y-66471000D01*
X102912133Y-66404333D01*
X102945466Y-66371000D01*
X103012133Y-66337666D01*
D11*
X63219064Y-37768200D02*
X62764936Y-37768200D01*
X63219064Y-36298200D02*
X62764936Y-36298200D01*
X112320400Y-63844664D02*
X112320400Y-63390536D01*
X113790400Y-63844664D02*
X113790400Y-63390536D01*
X112168000Y-43325148D02*
X112168000Y-43847652D01*
X113638000Y-43325148D02*
X113638000Y-43847652D01*
X66651200Y-33501064D02*
X66651200Y-33046936D01*
X68121200Y-33501064D02*
X68121200Y-33046936D01*
X110339200Y-53493936D02*
X110339200Y-53948064D01*
X111809200Y-53493936D02*
X111809200Y-53948064D01*
X111758400Y-63939052D02*
X111758400Y-63416548D01*
X110288400Y-63939052D02*
X110288400Y-63416548D01*
X106458652Y-47445600D02*
X105936148Y-47445600D01*
X106458652Y-45975600D02*
X105936148Y-45975600D01*
X112320400Y-59564536D02*
X112320400Y-60018664D01*
X113790400Y-59564536D02*
X113790400Y-60018664D01*
X112520464Y-69445200D02*
X112066336Y-69445200D01*
X112520464Y-70915200D02*
X112066336Y-70915200D01*
X112529864Y-68807000D02*
X112075736Y-68807000D01*
X112529864Y-67337000D02*
X112075736Y-67337000D01*
X112345800Y-53485148D02*
X112345800Y-54007652D01*
X113815800Y-53485148D02*
X113815800Y-54007652D01*
X90397000Y-70430764D02*
X90397000Y-69976636D01*
X88927000Y-70430764D02*
X88927000Y-69976636D01*
X110288400Y-59555748D02*
X110288400Y-60078252D01*
X111758400Y-59555748D02*
X111758400Y-60078252D01*
X116409800Y-21563064D02*
X116409800Y-21108936D01*
X117879800Y-21563064D02*
X117879800Y-21108936D01*
X105932248Y-65022400D02*
X106454752Y-65022400D01*
X105932248Y-63552400D02*
X106454752Y-63552400D01*
X106458652Y-49528400D02*
X105936148Y-49528400D01*
X106458652Y-48058400D02*
X105936148Y-48058400D01*
X110136000Y-43384736D02*
X110136000Y-43838864D01*
X111606000Y-43384736D02*
X111606000Y-43838864D01*
X105932248Y-65686000D02*
X106454752Y-65686000D01*
X105932248Y-67156000D02*
X106454752Y-67156000D01*
%LPC*%
D12*
X115265200Y-39192200D03*
X115265200Y-41732200D03*
X115265200Y-44272200D03*
X115265200Y-46812200D03*
X122885200Y-46812200D03*
X122885200Y-39192200D03*
X115265200Y-69672200D03*
X115265200Y-72212200D03*
X115265200Y-74752200D03*
X115265200Y-77292200D03*
X122885200Y-77292200D03*
X122885200Y-69672200D03*
X115265200Y-59512200D03*
X115265200Y-62052200D03*
X115265200Y-64592200D03*
X115265200Y-67132200D03*
X122885200Y-67132200D03*
X122885200Y-59512200D03*
D13*
X100228400Y-55773400D03*
D14*
X100228400Y-58313400D03*
X97688400Y-55773400D03*
X97688400Y-58313400D03*
X95148400Y-55773400D03*
X95148400Y-58313400D03*
X92608400Y-55773400D03*
X92608400Y-58313400D03*
X90068400Y-55773400D03*
X90068400Y-58313400D03*
X87528400Y-55773400D03*
X87528400Y-58313400D03*
X84988400Y-55773400D03*
X84988400Y-58313400D03*
X82448400Y-55773400D03*
X82448400Y-58313400D03*
X79908400Y-55773400D03*
X79908400Y-58313400D03*
X77368400Y-55773400D03*
X77368400Y-58313400D03*
X74828400Y-55773400D03*
X74828400Y-58313400D03*
X72288400Y-55773400D03*
X72288400Y-58313400D03*
D13*
X120065800Y-21463000D03*
D14*
X122605800Y-21463000D03*
X120065800Y-24003000D03*
X122605800Y-24003000D03*
X120065800Y-26543000D03*
X122605800Y-26543000D03*
X120065800Y-29083000D03*
X122605800Y-29083000D03*
X120065800Y-31623000D03*
X122605800Y-31623000D03*
X120065800Y-34163000D03*
X122605800Y-34163000D03*
D12*
X115265200Y-49352200D03*
X115265200Y-51892200D03*
X115265200Y-54432200D03*
X115265200Y-56972200D03*
X122885200Y-56972200D03*
X122885200Y-49352200D03*
D13*
X100228400Y-21243000D03*
D14*
X100228400Y-23783000D03*
X97688400Y-21243000D03*
X97688400Y-23783000D03*
X95148400Y-21243000D03*
X95148400Y-23783000D03*
X92608400Y-21243000D03*
X92608400Y-23783000D03*
X90068400Y-21243000D03*
X90068400Y-23783000D03*
X87528400Y-21243000D03*
X87528400Y-23783000D03*
X84988400Y-21243000D03*
X84988400Y-23783000D03*
X82448400Y-21243000D03*
X82448400Y-23783000D03*
X79908400Y-21243000D03*
X79908400Y-23783000D03*
X77368400Y-21243000D03*
X77368400Y-23783000D03*
X74828400Y-21243000D03*
X74828400Y-23783000D03*
X72288400Y-21243000D03*
X72288400Y-23783000D03*
D13*
X110383400Y-73985200D03*
D14*
X110383400Y-76525200D03*
X107843400Y-73985200D03*
X107843400Y-76525200D03*
X105303400Y-73985200D03*
X105303400Y-76525200D03*
X102763400Y-73985200D03*
X102763400Y-76525200D03*
X100223400Y-73985200D03*
X100223400Y-76525200D03*
X97683400Y-73985200D03*
X97683400Y-76525200D03*
X95143400Y-73985200D03*
X95143400Y-76525200D03*
X92603400Y-73985200D03*
X92603400Y-76525200D03*
X90063400Y-73985200D03*
X90063400Y-76525200D03*
X87523400Y-73985200D03*
X87523400Y-76525200D03*
X84983400Y-73985200D03*
X84983400Y-76525200D03*
X82443400Y-73985200D03*
X82443400Y-76525200D03*
X79903400Y-73985200D03*
X79903400Y-76525200D03*
X77363400Y-73985200D03*
X77363400Y-76525200D03*
X74823400Y-73985200D03*
X74823400Y-76525200D03*
X72283400Y-73985200D03*
X72283400Y-76525200D03*
X69743400Y-73985200D03*
X69743400Y-76525200D03*
X67203400Y-73985200D03*
X67203400Y-76525200D03*
X64663400Y-73985200D03*
X64663400Y-76525200D03*
X62123400Y-73985200D03*
X62123400Y-76525200D03*
D13*
X64592200Y-34163000D03*
D14*
X62052200Y-34163000D03*
X64592200Y-31623000D03*
X62052200Y-31623000D03*
X64592200Y-29083000D03*
X62052200Y-29083000D03*
X64592200Y-26543000D03*
X62052200Y-26543000D03*
X64592200Y-24003000D03*
X62052200Y-24003000D03*
X64592200Y-21463000D03*
X62052200Y-21463000D03*
D15*
X63904500Y-37033200D03*
X62079500Y-37033200D03*
D16*
X113055400Y-64617600D03*
X113055400Y-62617600D03*
D17*
X112903000Y-42548900D03*
X112903000Y-44623900D03*
D18*
X67386200Y-34186500D03*
X67386200Y-32361500D03*
D19*
X111074200Y-52721000D03*
X111074200Y-54721000D03*
D20*
X111023400Y-64715300D03*
X111023400Y-62640300D03*
D21*
X107234900Y-46710600D03*
X105159900Y-46710600D03*
D19*
X113055400Y-58791600D03*
X113055400Y-60791600D03*
D22*
X113293400Y-70180200D03*
X111293400Y-70180200D03*
X113302800Y-68072000D03*
X111302800Y-68072000D03*
D17*
X113080800Y-52708900D03*
X113080800Y-54783900D03*
D18*
X89662000Y-71116200D03*
X89662000Y-69291200D03*
D17*
X111023400Y-58779500D03*
X111023400Y-60854500D03*
D18*
X117144800Y-22248500D03*
X117144800Y-20423500D03*
D23*
X105156000Y-64287400D03*
X107231000Y-64287400D03*
D21*
X107234900Y-48793400D03*
X105159900Y-48793400D03*
D19*
X110871000Y-42611800D03*
X110871000Y-44611800D03*
D23*
X105156000Y-66421000D03*
X107231000Y-66421000D03*
M02*
