G04 #@! TF.GenerationSoftware,KiCad,Pcbnew,(6.0.6)*
G04 #@! TF.CreationDate,2022-08-29T09:38:23+02:00*
G04 #@! TF.ProjectId,afe-ep-shield,6166652d-6570-42d7-9368-69656c642e6b,rev?*
G04 #@! TF.SameCoordinates,Original*
G04 #@! TF.FileFunction,Soldermask,Bot*
G04 #@! TF.FilePolarity,Negative*
%FSLAX46Y46*%
G04 Gerber Fmt 4.6, Leading zero omitted, Abs format (unit mm)*
G04 Created by KiCad (PCBNEW (6.0.6)) date 2022-08-29 09:38:23*
%MOMM*%
%LPD*%
G01*
G04 APERTURE LIST*
G04 Aperture macros list*
%AMRoundRect*
0 Rectangle with rounded corners*
0 $1 Rounding radius*
0 $2 $3 $4 $5 $6 $7 $8 $9 X,Y pos of 4 corners*
0 Add a 4 corners polygon primitive as box body*
4,1,4,$2,$3,$4,$5,$6,$7,$8,$9,$2,$3,0*
0 Add four circle primitives for the rounded corners*
1,1,$1+$1,$2,$3*
1,1,$1+$1,$4,$5*
1,1,$1+$1,$6,$7*
1,1,$1+$1,$8,$9*
0 Add four rect primitives between the rounded corners*
20,1,$1+$1,$2,$3,$4,$5,0*
20,1,$1+$1,$4,$5,$6,$7,0*
20,1,$1+$1,$6,$7,$8,$9,0*
20,1,$1+$1,$8,$9,$2,$3,0*%
G04 Aperture macros list end*
%ADD10C,1.515000*%
%ADD11R,1.700000X1.700000*%
%ADD12O,1.700000X1.700000*%
%ADD13RoundRect,0.250000X0.262500X0.450000X-0.262500X0.450000X-0.262500X-0.450000X0.262500X-0.450000X0*%
%ADD14RoundRect,0.250000X0.450000X-0.350000X0.450000X0.350000X-0.450000X0.350000X-0.450000X-0.350000X0*%
%ADD15RoundRect,0.250000X-0.475000X0.337500X-0.475000X-0.337500X0.475000X-0.337500X0.475000X0.337500X0*%
%ADD16RoundRect,0.250000X0.450000X-0.262500X0.450000X0.262500X-0.450000X0.262500X-0.450000X-0.262500X0*%
%ADD17RoundRect,0.250000X-0.450000X0.350000X-0.450000X-0.350000X0.450000X-0.350000X0.450000X0.350000X0*%
%ADD18RoundRect,0.250000X0.475000X-0.337500X0.475000X0.337500X-0.475000X0.337500X-0.475000X-0.337500X0*%
%ADD19RoundRect,0.250000X0.337500X0.475000X-0.337500X0.475000X-0.337500X-0.475000X0.337500X-0.475000X0*%
%ADD20RoundRect,0.250000X0.350000X0.450000X-0.350000X0.450000X-0.350000X-0.450000X0.350000X-0.450000X0*%
%ADD21RoundRect,0.250000X-0.337500X-0.475000X0.337500X-0.475000X0.337500X0.475000X-0.337500X0.475000X0*%
G04 APERTURE END LIST*
D10*
X115265200Y-39192200D03*
X115265200Y-41732200D03*
X115265200Y-44272200D03*
X115265200Y-46812200D03*
X122885200Y-46812200D03*
X122885200Y-39192200D03*
X115265200Y-69672200D03*
X115265200Y-72212200D03*
X115265200Y-74752200D03*
X115265200Y-77292200D03*
X122885200Y-77292200D03*
X122885200Y-69672200D03*
X115265200Y-59512200D03*
X115265200Y-62052200D03*
X115265200Y-64592200D03*
X115265200Y-67132200D03*
X122885200Y-67132200D03*
X122885200Y-59512200D03*
D11*
X100228400Y-55773400D03*
D12*
X100228400Y-58313400D03*
X97688400Y-55773400D03*
X97688400Y-58313400D03*
X95148400Y-55773400D03*
X95148400Y-58313400D03*
X92608400Y-55773400D03*
X92608400Y-58313400D03*
X90068400Y-55773400D03*
X90068400Y-58313400D03*
X87528400Y-55773400D03*
X87528400Y-58313400D03*
X84988400Y-55773400D03*
X84988400Y-58313400D03*
X82448400Y-55773400D03*
X82448400Y-58313400D03*
X79908400Y-55773400D03*
X79908400Y-58313400D03*
X77368400Y-55773400D03*
X77368400Y-58313400D03*
X74828400Y-55773400D03*
X74828400Y-58313400D03*
X72288400Y-55773400D03*
X72288400Y-58313400D03*
D11*
X120065800Y-21463000D03*
D12*
X122605800Y-21463000D03*
X120065800Y-24003000D03*
X122605800Y-24003000D03*
X120065800Y-26543000D03*
X122605800Y-26543000D03*
X120065800Y-29083000D03*
X122605800Y-29083000D03*
X120065800Y-31623000D03*
X122605800Y-31623000D03*
X120065800Y-34163000D03*
X122605800Y-34163000D03*
D10*
X115265200Y-49352200D03*
X115265200Y-51892200D03*
X115265200Y-54432200D03*
X115265200Y-56972200D03*
X122885200Y-56972200D03*
X122885200Y-49352200D03*
D11*
X100228400Y-21243000D03*
D12*
X100228400Y-23783000D03*
X97688400Y-21243000D03*
X97688400Y-23783000D03*
X95148400Y-21243000D03*
X95148400Y-23783000D03*
X92608400Y-21243000D03*
X92608400Y-23783000D03*
X90068400Y-21243000D03*
X90068400Y-23783000D03*
X87528400Y-21243000D03*
X87528400Y-23783000D03*
X84988400Y-21243000D03*
X84988400Y-23783000D03*
X82448400Y-21243000D03*
X82448400Y-23783000D03*
X79908400Y-21243000D03*
X79908400Y-23783000D03*
X77368400Y-21243000D03*
X77368400Y-23783000D03*
X74828400Y-21243000D03*
X74828400Y-23783000D03*
X72288400Y-21243000D03*
X72288400Y-23783000D03*
D11*
X110383400Y-73985200D03*
D12*
X110383400Y-76525200D03*
X107843400Y-73985200D03*
X107843400Y-76525200D03*
X105303400Y-73985200D03*
X105303400Y-76525200D03*
X102763400Y-73985200D03*
X102763400Y-76525200D03*
X100223400Y-73985200D03*
X100223400Y-76525200D03*
X97683400Y-73985200D03*
X97683400Y-76525200D03*
X95143400Y-73985200D03*
X95143400Y-76525200D03*
X92603400Y-73985200D03*
X92603400Y-76525200D03*
X90063400Y-73985200D03*
X90063400Y-76525200D03*
X87523400Y-73985200D03*
X87523400Y-76525200D03*
X84983400Y-73985200D03*
X84983400Y-76525200D03*
X82443400Y-73985200D03*
X82443400Y-76525200D03*
X79903400Y-73985200D03*
X79903400Y-76525200D03*
X77363400Y-73985200D03*
X77363400Y-76525200D03*
X74823400Y-73985200D03*
X74823400Y-76525200D03*
X72283400Y-73985200D03*
X72283400Y-76525200D03*
X69743400Y-73985200D03*
X69743400Y-76525200D03*
X67203400Y-73985200D03*
X67203400Y-76525200D03*
X64663400Y-73985200D03*
X64663400Y-76525200D03*
X62123400Y-73985200D03*
X62123400Y-76525200D03*
D11*
X64592200Y-34163000D03*
D12*
X62052200Y-34163000D03*
X64592200Y-31623000D03*
X62052200Y-31623000D03*
X64592200Y-29083000D03*
X62052200Y-29083000D03*
X64592200Y-26543000D03*
X62052200Y-26543000D03*
X64592200Y-24003000D03*
X62052200Y-24003000D03*
X64592200Y-21463000D03*
X62052200Y-21463000D03*
D13*
X63904500Y-37033200D03*
X62079500Y-37033200D03*
D14*
X113055400Y-64617600D03*
X113055400Y-62617600D03*
D15*
X112903000Y-42548900D03*
X112903000Y-44623900D03*
D16*
X67386200Y-34186500D03*
X67386200Y-32361500D03*
D17*
X111074200Y-52721000D03*
X111074200Y-54721000D03*
D18*
X111023400Y-64715300D03*
X111023400Y-62640300D03*
D19*
X107234900Y-46710600D03*
X105159900Y-46710600D03*
D17*
X113055400Y-58791600D03*
X113055400Y-60791600D03*
D20*
X113293400Y-70180200D03*
X111293400Y-70180200D03*
X113302800Y-68072000D03*
X111302800Y-68072000D03*
D15*
X113080800Y-52708900D03*
X113080800Y-54783900D03*
D16*
X89662000Y-71116200D03*
X89662000Y-69291200D03*
D15*
X111023400Y-58779500D03*
X111023400Y-60854500D03*
D16*
X117144800Y-22248500D03*
X117144800Y-20423500D03*
D21*
X105156000Y-64287400D03*
X107231000Y-64287400D03*
D19*
X107234900Y-48793400D03*
X105159900Y-48793400D03*
D17*
X110871000Y-42611800D03*
X110871000Y-44611800D03*
D21*
X105156000Y-66421000D03*
X107231000Y-66421000D03*
M02*
