M48
; DRILL file {KiCad (6.0.6)} date Mon Aug 29 09:38:58 2022
; FORMAT={-:-/ absolute / metric / decimal}
; #@! TF.CreationDate,2022-08-29T09:38:58+02:00
; #@! TF.GenerationSoftware,Kicad,Pcbnew,(6.0.6)
; #@! TF.FileFunction,Plated,1,2,PTH
FMAT,2
METRIC
; #@! TA.AperFunction,Plated,PTH,ViaDrill
T1C0.200
; #@! TA.AperFunction,Plated,PTH,ViaDrill
T2C0.400
; #@! TA.AperFunction,Plated,PTH,ComponentDrill
T3C1.000
%
G90
G05
T1
X67.564Y-72.238
X69.545Y-72.288
X77.673Y-60.096
X81.382Y-64.364
X82.753Y-72.187
X84.938Y-25.959
X84.988Y-60.198
X87.274Y-72.441
X87.579Y-25.908
X87.579Y-53.645
X87.63Y-60.147
X89.51Y-25.959
X90.068Y-60.554
X90.17Y-53.645
X91.237Y-25.959
X92.608Y-53.645
X93.167Y-25.959
X94.793Y-53.645
T2
X64.795Y-61.239
X64.846Y-41.402
X67.386Y-32.361
X103.581Y-46.711
X103.657Y-57.226
X108.966Y-64.262
X110.871Y-42.612
X111.074Y-52.68
X111.277Y-70.18
X111.303Y-68.072
X113.055Y-64.618
X113.293Y-70.18
X116.967Y-61.036
X118.516Y-74.651
X120.476Y-54.56
T3
X62.052Y-21.463
X62.052Y-24.003
X62.052Y-26.543
X62.052Y-29.083
X62.052Y-31.623
X62.052Y-34.163
X62.123Y-73.985
X62.123Y-76.525
X64.592Y-21.463
X64.592Y-24.003
X64.592Y-26.543
X64.592Y-29.083
X64.592Y-31.623
X64.592Y-34.163
X64.663Y-73.985
X64.663Y-76.525
X67.203Y-73.985
X67.203Y-76.525
X69.743Y-73.985
X69.743Y-76.525
X72.283Y-73.985
X72.283Y-76.525
X72.288Y-21.243
X72.288Y-23.783
X72.288Y-55.773
X72.288Y-58.313
X74.823Y-73.985
X74.823Y-76.525
X74.828Y-21.243
X74.828Y-23.783
X74.828Y-55.773
X74.828Y-58.313
X77.363Y-73.985
X77.363Y-76.525
X77.368Y-21.243
X77.368Y-23.783
X77.368Y-55.773
X77.368Y-58.313
X79.903Y-73.985
X79.903Y-76.525
X79.908Y-21.243
X79.908Y-23.783
X79.908Y-55.773
X79.908Y-58.313
X82.443Y-73.985
X82.443Y-76.525
X82.448Y-21.243
X82.448Y-23.783
X82.448Y-55.773
X82.448Y-58.313
X84.983Y-73.985
X84.983Y-76.525
X84.988Y-21.243
X84.988Y-23.783
X84.988Y-55.773
X84.988Y-58.313
X87.523Y-73.985
X87.523Y-76.525
X87.528Y-21.243
X87.528Y-23.783
X87.528Y-55.773
X87.528Y-58.313
X90.063Y-73.985
X90.063Y-76.525
X90.068Y-21.243
X90.068Y-23.783
X90.068Y-55.773
X90.068Y-58.313
X92.603Y-73.985
X92.603Y-76.525
X92.608Y-21.243
X92.608Y-23.783
X92.608Y-55.773
X92.608Y-58.313
X95.143Y-73.985
X95.143Y-76.525
X95.148Y-21.243
X95.148Y-23.783
X95.148Y-55.773
X95.148Y-58.313
X97.683Y-73.985
X97.683Y-76.525
X97.688Y-21.243
X97.688Y-23.783
X97.688Y-55.773
X97.688Y-58.313
X100.223Y-73.985
X100.223Y-76.525
X100.228Y-21.243
X100.228Y-23.783
X100.228Y-55.773
X100.228Y-58.313
X102.763Y-73.985
X102.763Y-76.525
X105.303Y-73.985
X105.303Y-76.525
X107.843Y-73.985
X107.843Y-76.525
X110.383Y-73.985
X110.383Y-76.525
X115.265Y-39.192
X115.265Y-41.732
X115.265Y-44.272
X115.265Y-46.812
X115.265Y-49.352
X115.265Y-51.892
X115.265Y-54.432
X115.265Y-56.972
X115.265Y-59.512
X115.265Y-62.052
X115.265Y-64.592
X115.265Y-67.132
X115.265Y-69.672
X115.265Y-72.212
X115.265Y-74.752
X115.265Y-77.292
X120.066Y-21.463
X120.066Y-24.003
X120.066Y-26.543
X120.066Y-29.083
X120.066Y-31.623
X120.066Y-34.163
X122.606Y-21.463
X122.606Y-24.003
X122.606Y-26.543
X122.606Y-29.083
X122.606Y-31.623
X122.606Y-34.163
X122.885Y-39.192
X122.885Y-46.812
X122.885Y-49.352
X122.885Y-56.972
X122.885Y-59.512
X122.885Y-67.132
X122.885Y-69.672
X122.885Y-77.292
T0
M30
