M48
; DRILL file {KiCad (6.0.6)} date Thu May  2 20:16:20 2024
; FORMAT={-:-/ absolute / metric / decimal}
; #@! TF.CreationDate,2024-05-02T20:16:20+02:00
; #@! TF.GenerationSoftware,Kicad,Pcbnew,(6.0.6)
; #@! TF.FileFunction,Plated,1,2,PTH
FMAT,2
METRIC
; #@! TA.AperFunction,Plated,PTH,ViaDrill
T1C0.400
; #@! TA.AperFunction,Plated,PTH,ViaDrill
T2C0.800
; #@! TA.AperFunction,Plated,PTH,ComponentDrill
T3C1.000
; #@! TA.AperFunction,Plated,PTH,ComponentDrill
T4C1.016
%
G90
G05
T1
X22.15Y-84.125
X41.96Y-112.54
X44.856Y-103.988
X58.064Y-84.303
X58.09Y-88.722
X69.799Y-112.243
X77.14Y-49.581
X77.85Y-59.35
X97.38Y-112.21
X98.4Y-106.197
X100.9Y-35.9
X111.379Y-101.016
X119.278Y-108.026
X125.43Y-113.59
X131.0Y-97.1
X133.05Y-61.75
X145.6Y-89.95
X148.75Y-107.35
X153.28Y-112.22
X177.9Y-107.6
X181.32Y-112.31
T2
X21.325Y-98.25
T3
X19.305Y-112.26
X19.305Y-114.8
X21.845Y-112.26
X21.845Y-114.8
X24.385Y-112.26
X24.385Y-114.8
X26.925Y-112.26
X26.925Y-114.8
X29.465Y-112.26
X29.465Y-114.8
X32.005Y-112.26
X32.005Y-114.8
X34.545Y-112.26
X34.545Y-114.8
X37.085Y-112.26
X37.085Y-114.8
X47.135Y-112.21
X47.135Y-114.75
X49.675Y-112.21
X49.675Y-114.75
X52.215Y-112.21
X52.215Y-114.75
X54.755Y-112.21
X54.755Y-114.75
X57.295Y-112.21
X57.295Y-114.75
X59.835Y-112.21
X59.835Y-114.75
X62.375Y-112.21
X62.375Y-114.75
X62.71Y-84.95
X62.71Y-87.49
X64.915Y-112.21
X64.915Y-114.75
X65.25Y-84.95
X65.25Y-87.49
X67.79Y-84.95
X67.79Y-87.49
X70.33Y-84.95
X70.33Y-87.49
X72.87Y-84.95
X72.87Y-87.49
X74.935Y-112.21
X74.935Y-114.75
X75.41Y-84.95
X75.41Y-87.49
X77.475Y-112.21
X77.475Y-114.75
X77.95Y-84.95
X77.95Y-87.49
X80.015Y-112.21
X80.015Y-114.75
X80.49Y-84.95
X80.49Y-87.49
X82.555Y-112.21
X82.555Y-114.75
X83.03Y-84.95
X83.03Y-87.49
X85.095Y-112.21
X85.095Y-114.75
X85.57Y-84.95
X85.57Y-87.49
X87.635Y-112.21
X87.635Y-114.75
X88.11Y-84.95
X88.11Y-87.49
X90.175Y-112.21
X90.175Y-114.75
X90.65Y-84.95
X90.65Y-87.49
X92.715Y-112.21
X92.715Y-114.75
X93.19Y-84.95
X93.19Y-87.49
X95.73Y-84.95
X95.73Y-87.49
X98.27Y-84.95
X98.27Y-87.49
X100.81Y-84.95
X100.81Y-87.49
X102.735Y-112.21
X102.735Y-114.75
X103.35Y-84.95
X103.35Y-87.49
X105.275Y-112.21
X105.275Y-114.75
X105.89Y-84.95
X105.89Y-87.49
X107.815Y-112.21
X107.815Y-114.75
X108.43Y-84.95
X108.43Y-87.49
X110.355Y-112.21
X110.355Y-114.75
X110.97Y-84.95
X110.97Y-87.49
X112.895Y-112.21
X112.895Y-114.75
X115.435Y-112.21
X115.435Y-114.75
X117.975Y-112.21
X117.975Y-114.75
X120.515Y-112.21
X120.515Y-114.75
X130.535Y-112.21
X130.535Y-114.75
X133.075Y-112.21
X133.075Y-114.75
X135.615Y-112.21
X135.615Y-114.75
X138.155Y-112.21
X138.155Y-114.75
X140.695Y-112.21
X140.695Y-114.75
X143.235Y-112.21
X143.235Y-114.75
X145.775Y-112.21
X145.775Y-114.75
X148.315Y-112.21
X148.315Y-114.75
X158.335Y-112.21
X158.335Y-114.75
X160.875Y-112.21
X160.875Y-114.75
X163.415Y-112.21
X163.415Y-114.75
X165.955Y-112.21
X165.955Y-114.75
X168.495Y-112.21
X168.495Y-114.75
X171.035Y-112.21
X171.035Y-114.75
X173.575Y-112.21
X173.575Y-114.75
X176.115Y-112.21
X176.115Y-114.75
T4
X71.222Y-44.552
X71.222Y-47.092
X71.222Y-49.632
X73.762Y-44.552
X73.762Y-47.092
X73.762Y-49.632
X73.889Y-21.692
X73.889Y-69.952
X76.429Y-21.692
X76.429Y-69.952
X78.969Y-21.692
X78.969Y-69.952
X81.509Y-21.692
X81.509Y-69.952
X84.049Y-21.692
X84.049Y-69.952
X86.589Y-21.692
X86.589Y-69.952
X89.129Y-69.952
X91.669Y-21.692
X91.669Y-69.952
X94.209Y-21.692
X95.733Y-69.952
X96.749Y-21.692
X98.273Y-69.952
X99.289Y-21.692
X100.813Y-69.952
X101.829Y-21.692
X103.353Y-69.952
X104.369Y-21.692
X105.893Y-69.952
X106.909Y-21.692
X108.433Y-69.952
X109.449Y-21.692
X110.973Y-69.952
X113.513Y-69.952
X116.053Y-69.952
X118.593Y-69.952
T0
M30
