%FSLAX45Y45*%
G04 Gerber Fmt 4.5, Leading zero omitted, Abs format (unit mm)*
G04 Created by KiCad (PCBNEW (6.0.6)) date 2024-05-02 20:16:21*
%MOMM*%
%LPD*%
G01*
G04 APERTURE LIST*
%TA.AperFunction,Profile*%
%ADD10C,0.200000*%
%TD*%
%ADD11C,0.200000*%
G04 APERTURE END LIST*
D10*
X12160000Y-5450000D02*
X12160000Y-1610000D01*
X12160000Y-1610000D02*
X6600000Y-1610000D01*
X14512000Y-7750000D02*
X14512000Y-5450000D01*
X14512000Y-5450000D02*
X12160000Y-5450000D01*
X6600000Y-7750000D02*
X6600000Y-1610000D01*
X18370000Y-11880000D02*
X1590000Y-11880000D01*
X18370000Y-11880000D02*
X18370000Y-7750000D01*
X18370000Y-7750000D02*
X14512000Y-7750000D01*
X1590000Y-11880000D02*
X1590000Y-7750000D01*
X6600000Y-7750000D02*
X1590000Y-7750000D01*
D11*
X1837619Y-12200476D02*
X1837619Y-12000476D01*
X1885238Y-12000476D01*
X1913809Y-12010000D01*
X1932857Y-12029048D01*
X1942381Y-12048095D01*
X1951905Y-12086190D01*
X1951905Y-12114762D01*
X1942381Y-12152857D01*
X1932857Y-12171905D01*
X1913809Y-12190952D01*
X1885238Y-12200476D01*
X1837619Y-12200476D01*
X2037619Y-12200476D02*
X2037619Y-12067143D01*
X2037619Y-12105238D02*
X2047143Y-12086190D01*
X2056667Y-12076667D01*
X2075714Y-12067143D01*
X2094762Y-12067143D01*
X2161429Y-12200476D02*
X2161429Y-12067143D01*
X2161429Y-12000476D02*
X2151905Y-12010000D01*
X2161429Y-12019524D01*
X2170952Y-12010000D01*
X2161429Y-12000476D01*
X2161429Y-12019524D01*
X2285238Y-12200476D02*
X2266190Y-12190952D01*
X2256667Y-12171905D01*
X2256667Y-12000476D01*
X2390000Y-12200476D02*
X2370952Y-12190952D01*
X2361429Y-12171905D01*
X2361429Y-12000476D01*
X2618571Y-12200476D02*
X2618571Y-12000476D01*
X2685238Y-12143333D01*
X2751905Y-12000476D01*
X2751905Y-12200476D01*
X2932857Y-12200476D02*
X2932857Y-12095714D01*
X2923333Y-12076667D01*
X2904286Y-12067143D01*
X2866190Y-12067143D01*
X2847143Y-12076667D01*
X2932857Y-12190952D02*
X2913809Y-12200476D01*
X2866190Y-12200476D01*
X2847143Y-12190952D01*
X2837619Y-12171905D01*
X2837619Y-12152857D01*
X2847143Y-12133809D01*
X2866190Y-12124286D01*
X2913809Y-12124286D01*
X2932857Y-12114762D01*
X3028095Y-12067143D02*
X3028095Y-12267143D01*
X3028095Y-12076667D02*
X3047143Y-12067143D01*
X3085238Y-12067143D01*
X3104286Y-12076667D01*
X3113809Y-12086190D01*
X3123333Y-12105238D01*
X3123333Y-12162381D01*
X3113809Y-12181428D01*
X3104286Y-12190952D01*
X3085238Y-12200476D01*
X3047143Y-12200476D01*
X3028095Y-12190952D01*
X3209048Y-12181428D02*
X3218571Y-12190952D01*
X3209048Y-12200476D01*
X3199524Y-12190952D01*
X3209048Y-12181428D01*
X3209048Y-12200476D01*
X3209048Y-12076667D02*
X3218571Y-12086190D01*
X3209048Y-12095714D01*
X3199524Y-12086190D01*
X3209048Y-12076667D01*
X3209048Y-12095714D01*
M02*
