G04 #@! TF.GenerationSoftware,KiCad,Pcbnew,(6.0.6)*
G04 #@! TF.CreationDate,2023-08-29T14:41:19+02:00*
G04 #@! TF.ProjectId,pynq-rpi-ph-adapter,70796e71-2d72-4706-992d-70682d616461,rev?*
G04 #@! TF.SameCoordinates,Original*
G04 #@! TF.FileFunction,Soldermask,Top*
G04 #@! TF.FilePolarity,Negative*
%FSLAX46Y46*%
G04 Gerber Fmt 4.6, Leading zero omitted, Abs format (unit mm)*
G04 Created by KiCad (PCBNEW (6.0.6)) date 2023-08-29 14:41:19*
%MOMM*%
%LPD*%
G01*
G04 APERTURE LIST*
%ADD10R,1.700000X1.700000*%
%ADD11O,1.700000X1.700000*%
%ADD12O,1.727200X1.727200*%
%ADD13R,1.727200X1.727200*%
G04 APERTURE END LIST*
D10*
X92715000Y-112210000D03*
D11*
X92715000Y-114750000D03*
X90175000Y-112210000D03*
X90175000Y-114750000D03*
X87635000Y-112210000D03*
X87635000Y-114750000D03*
X85095000Y-112210000D03*
X85095000Y-114750000D03*
X82555000Y-112210000D03*
X82555000Y-114750000D03*
X80015000Y-112210000D03*
X80015000Y-114750000D03*
X77475000Y-112210000D03*
X77475000Y-114750000D03*
X74935000Y-112210000D03*
X74935000Y-114750000D03*
D10*
X64915000Y-112210000D03*
D11*
X64915000Y-114750000D03*
X62375000Y-112210000D03*
X62375000Y-114750000D03*
X59835000Y-112210000D03*
X59835000Y-114750000D03*
X57295000Y-112210000D03*
X57295000Y-114750000D03*
X54755000Y-112210000D03*
X54755000Y-114750000D03*
X52215000Y-112210000D03*
X52215000Y-114750000D03*
X49675000Y-112210000D03*
X49675000Y-114750000D03*
X47135000Y-112210000D03*
X47135000Y-114750000D03*
D12*
X109448600Y-21691600D03*
X101828600Y-21691600D03*
X99288600Y-21691600D03*
X71221600Y-49631600D03*
X86588600Y-21691600D03*
X84048600Y-21691600D03*
X81508600Y-21691600D03*
X78968600Y-21691600D03*
X76428600Y-21691600D03*
X73888600Y-21691600D03*
X113512600Y-69951600D03*
X73888600Y-69951600D03*
X76428600Y-69951600D03*
X78968600Y-69951600D03*
X81508600Y-69951600D03*
X84048600Y-69951600D03*
X86588600Y-69951600D03*
X89128600Y-69951600D03*
X91668600Y-69951600D03*
X95732600Y-69951600D03*
X98272600Y-69951600D03*
X100812600Y-69951600D03*
X103352600Y-69951600D03*
X105892600Y-69951600D03*
X108432600Y-69951600D03*
D13*
X110972600Y-69951600D03*
X96748600Y-21691600D03*
X94208600Y-21691600D03*
X71221600Y-44551600D03*
D12*
X106908600Y-21691600D03*
X73761600Y-49631600D03*
X71221600Y-47091600D03*
X104368600Y-21691600D03*
X73761600Y-44551600D03*
X73761600Y-47091600D03*
X118592600Y-69951600D03*
X116052600Y-69951600D03*
X91668600Y-21691600D03*
D10*
X37085000Y-112260000D03*
D11*
X37085000Y-114800000D03*
X34545000Y-112260000D03*
X34545000Y-114800000D03*
X32005000Y-112260000D03*
X32005000Y-114800000D03*
X29465000Y-112260000D03*
X29465000Y-114800000D03*
X26925000Y-112260000D03*
X26925000Y-114800000D03*
X24385000Y-112260000D03*
X24385000Y-114800000D03*
X21845000Y-112260000D03*
X21845000Y-114800000D03*
X19305000Y-112260000D03*
X19305000Y-114800000D03*
D10*
X176115000Y-112210000D03*
D11*
X176115000Y-114750000D03*
X173575000Y-112210000D03*
X173575000Y-114750000D03*
X171035000Y-112210000D03*
X171035000Y-114750000D03*
X168495000Y-112210000D03*
X168495000Y-114750000D03*
X165955000Y-112210000D03*
X165955000Y-114750000D03*
X163415000Y-112210000D03*
X163415000Y-114750000D03*
X160875000Y-112210000D03*
X160875000Y-114750000D03*
X158335000Y-112210000D03*
X158335000Y-114750000D03*
G36*
G01*
X63205000Y-81550000D02*
X63205000Y-82450000D01*
G75*
G02*
X62955000Y-82700000I-250000J0D01*
G01*
X62430000Y-82700000D01*
G75*
G02*
X62180000Y-82450000I0J250000D01*
G01*
X62180000Y-81550000D01*
G75*
G02*
X62430000Y-81300000I250000J0D01*
G01*
X62955000Y-81300000D01*
G75*
G02*
X63205000Y-81550000I0J-250000D01*
G01*
G37*
G36*
G01*
X61380000Y-81550000D02*
X61380000Y-82450000D01*
G75*
G02*
X61130000Y-82700000I-250000J0D01*
G01*
X60605000Y-82700000D01*
G75*
G02*
X60355000Y-82450000I0J250000D01*
G01*
X60355000Y-81550000D01*
G75*
G02*
X60605000Y-81300000I250000J0D01*
G01*
X61130000Y-81300000D01*
G75*
G02*
X61380000Y-81550000I0J-250000D01*
G01*
G37*
D10*
X148315000Y-112210000D03*
D11*
X148315000Y-114750000D03*
X145775000Y-112210000D03*
X145775000Y-114750000D03*
X143235000Y-112210000D03*
X143235000Y-114750000D03*
X140695000Y-112210000D03*
X140695000Y-114750000D03*
X138155000Y-112210000D03*
X138155000Y-114750000D03*
X135615000Y-112210000D03*
X135615000Y-114750000D03*
X133075000Y-112210000D03*
X133075000Y-114750000D03*
X130535000Y-112210000D03*
X130535000Y-114750000D03*
D10*
X120515000Y-112210000D03*
D11*
X120515000Y-114750000D03*
X117975000Y-112210000D03*
X117975000Y-114750000D03*
X115435000Y-112210000D03*
X115435000Y-114750000D03*
X112895000Y-112210000D03*
X112895000Y-114750000D03*
X110355000Y-112210000D03*
X110355000Y-114750000D03*
X107815000Y-112210000D03*
X107815000Y-114750000D03*
X105275000Y-112210000D03*
X105275000Y-114750000D03*
X102735000Y-112210000D03*
X102735000Y-114750000D03*
D10*
X62710000Y-87490000D03*
D11*
X62710000Y-84950000D03*
X65250000Y-87490000D03*
X65250000Y-84950000D03*
X67790000Y-87490000D03*
X67790000Y-84950000D03*
X70330000Y-87490000D03*
X70330000Y-84950000D03*
X72870000Y-87490000D03*
X72870000Y-84950000D03*
X75410000Y-87490000D03*
X75410000Y-84950000D03*
X77950000Y-87490000D03*
X77950000Y-84950000D03*
X80490000Y-87490000D03*
X80490000Y-84950000D03*
X83030000Y-87490000D03*
X83030000Y-84950000D03*
X85570000Y-87490000D03*
X85570000Y-84950000D03*
X88110000Y-87490000D03*
X88110000Y-84950000D03*
X90650000Y-87490000D03*
X90650000Y-84950000D03*
X93190000Y-87490000D03*
X93190000Y-84950000D03*
X95730000Y-87490000D03*
X95730000Y-84950000D03*
X98270000Y-87490000D03*
X98270000Y-84950000D03*
X100810000Y-87490000D03*
X100810000Y-84950000D03*
X103350000Y-87490000D03*
X103350000Y-84950000D03*
X105890000Y-87490000D03*
X105890000Y-84950000D03*
X108430000Y-87490000D03*
X108430000Y-84950000D03*
X110970000Y-87490000D03*
X110970000Y-84950000D03*
M02*
