%FSLAX45Y45*%
G04 Gerber Fmt 4.5, Leading zero omitted, Abs format (unit mm)*
G04 Created by KiCad (PCBNEW (6.0.6)) date 2023-08-29 14:41:22*
%MOMM*%
%LPD*%
G01*
G04 APERTURE LIST*
%TA.AperFunction,Profile*%
%ADD10C,0.200000*%
%TD*%
%ADD11C,0.200000*%
%ADD12C,0.080000*%
%ADD13C,0.100000*%
%ADD14C,0.101600*%
G04 APERTURE END LIST*
D10*
X12160000Y-5450000D02*
X12160000Y-1610000D01*
X12160000Y-1610000D02*
X6600000Y-1610000D01*
X14512000Y-7750000D02*
X14512000Y-5450000D01*
X14512000Y-5450000D02*
X12160000Y-5450000D01*
X6600000Y-7750000D02*
X6600000Y-1610000D01*
X18370000Y-11880000D02*
X1590000Y-11880000D01*
X18370000Y-11880000D02*
X18370000Y-7750000D01*
X18370000Y-7750000D02*
X14512000Y-7750000D01*
X1590000Y-11880000D02*
X1590000Y-7750000D01*
X6600000Y-7750000D02*
X1590000Y-7750000D01*
D11*
D12*
X2092500Y-9785000D02*
X2172500Y-9865000D01*
X2172500Y-9785000D02*
X2092500Y-9865000D01*
X2175000Y-8372500D02*
X2255000Y-8452500D01*
X2255000Y-8372500D02*
X2175000Y-8452500D01*
X4156000Y-11214000D02*
X4236000Y-11294000D01*
X4236000Y-11214000D02*
X4156000Y-11294000D01*
X5765000Y-8385000D02*
X5845000Y-8465000D01*
X5845000Y-8385000D02*
X5765000Y-8465000D01*
X5765000Y-8830000D02*
X5845000Y-8910000D01*
X5845000Y-8830000D02*
X5765000Y-8910000D01*
X6949000Y-11196000D02*
X7029000Y-11276000D01*
X7029000Y-11196000D02*
X6949000Y-11276000D01*
X7745000Y-5895000D02*
X7825000Y-5975000D01*
X7825000Y-5895000D02*
X7745000Y-5975000D01*
X9698000Y-11181000D02*
X9778000Y-11261000D01*
X9778000Y-11181000D02*
X9698000Y-11261000D01*
X10050000Y-3550000D02*
X10130000Y-3630000D01*
X10130000Y-3550000D02*
X10050000Y-3630000D01*
X11875000Y-10770000D02*
X11955000Y-10850000D01*
X11955000Y-10770000D02*
X11875000Y-10850000D01*
X12503000Y-11319000D02*
X12583000Y-11399000D01*
X12583000Y-11319000D02*
X12503000Y-11399000D01*
X13060000Y-9670000D02*
X13140000Y-9750000D01*
X13140000Y-9670000D02*
X13060000Y-9750000D01*
X13265000Y-6135000D02*
X13345000Y-6215000D01*
X13345000Y-6135000D02*
X13265000Y-6215000D01*
X14520000Y-8955000D02*
X14600000Y-9035000D01*
X14600000Y-8955000D02*
X14520000Y-9035000D01*
X14835000Y-10695000D02*
X14915000Y-10775000D01*
X14915000Y-10695000D02*
X14835000Y-10775000D01*
X15288000Y-11182000D02*
X15368000Y-11262000D01*
X15368000Y-11182000D02*
X15288000Y-11262000D01*
X17750000Y-10720000D02*
X17830000Y-10800000D01*
X17830000Y-10720000D02*
X17750000Y-10800000D01*
X18092000Y-11191000D02*
X18172000Y-11271000D01*
X18172000Y-11191000D02*
X18092000Y-11271000D01*
D13*
X1980500Y-11226000D02*
G75*
G03*
X1980500Y-11226000I-50000J0D01*
G01*
X1980500Y-11480000D02*
G75*
G03*
X1980500Y-11480000I-50000J0D01*
G01*
X2234500Y-11226000D02*
G75*
G03*
X2234500Y-11226000I-50000J0D01*
G01*
X2234500Y-11480000D02*
G75*
G03*
X2234500Y-11480000I-50000J0D01*
G01*
X2488500Y-11226000D02*
G75*
G03*
X2488500Y-11226000I-50000J0D01*
G01*
X2488500Y-11480000D02*
G75*
G03*
X2488500Y-11480000I-50000J0D01*
G01*
X2742500Y-11226000D02*
G75*
G03*
X2742500Y-11226000I-50000J0D01*
G01*
X2742500Y-11480000D02*
G75*
G03*
X2742500Y-11480000I-50000J0D01*
G01*
X2996500Y-11226000D02*
G75*
G03*
X2996500Y-11226000I-50000J0D01*
G01*
X2996500Y-11480000D02*
G75*
G03*
X2996500Y-11480000I-50000J0D01*
G01*
X3250500Y-11226000D02*
G75*
G03*
X3250500Y-11226000I-50000J0D01*
G01*
X3250500Y-11480000D02*
G75*
G03*
X3250500Y-11480000I-50000J0D01*
G01*
X3504500Y-11226000D02*
G75*
G03*
X3504500Y-11226000I-50000J0D01*
G01*
X3504500Y-11480000D02*
G75*
G03*
X3504500Y-11480000I-50000J0D01*
G01*
X3758500Y-11226000D02*
G75*
G03*
X3758500Y-11226000I-50000J0D01*
G01*
X3758500Y-11480000D02*
G75*
G03*
X3758500Y-11480000I-50000J0D01*
G01*
X4763500Y-11221000D02*
G75*
G03*
X4763500Y-11221000I-50000J0D01*
G01*
X4763500Y-11475000D02*
G75*
G03*
X4763500Y-11475000I-50000J0D01*
G01*
X5017500Y-11221000D02*
G75*
G03*
X5017500Y-11221000I-50000J0D01*
G01*
X5017500Y-11475000D02*
G75*
G03*
X5017500Y-11475000I-50000J0D01*
G01*
X5271500Y-11221000D02*
G75*
G03*
X5271500Y-11221000I-50000J0D01*
G01*
X5271500Y-11475000D02*
G75*
G03*
X5271500Y-11475000I-50000J0D01*
G01*
X5525500Y-11221000D02*
G75*
G03*
X5525500Y-11221000I-50000J0D01*
G01*
X5525500Y-11475000D02*
G75*
G03*
X5525500Y-11475000I-50000J0D01*
G01*
X5779500Y-11221000D02*
G75*
G03*
X5779500Y-11221000I-50000J0D01*
G01*
X5779500Y-11475000D02*
G75*
G03*
X5779500Y-11475000I-50000J0D01*
G01*
X6033500Y-11221000D02*
G75*
G03*
X6033500Y-11221000I-50000J0D01*
G01*
X6033500Y-11475000D02*
G75*
G03*
X6033500Y-11475000I-50000J0D01*
G01*
X6287500Y-11221000D02*
G75*
G03*
X6287500Y-11221000I-50000J0D01*
G01*
X6287500Y-11475000D02*
G75*
G03*
X6287500Y-11475000I-50000J0D01*
G01*
X6321000Y-8495000D02*
G75*
G03*
X6321000Y-8495000I-50000J0D01*
G01*
X6321000Y-8749000D02*
G75*
G03*
X6321000Y-8749000I-50000J0D01*
G01*
X6541500Y-11221000D02*
G75*
G03*
X6541500Y-11221000I-50000J0D01*
G01*
X6541500Y-11475000D02*
G75*
G03*
X6541500Y-11475000I-50000J0D01*
G01*
X6575000Y-8495000D02*
G75*
G03*
X6575000Y-8495000I-50000J0D01*
G01*
X6575000Y-8749000D02*
G75*
G03*
X6575000Y-8749000I-50000J0D01*
G01*
X6829000Y-8495000D02*
G75*
G03*
X6829000Y-8495000I-50000J0D01*
G01*
X6829000Y-8749000D02*
G75*
G03*
X6829000Y-8749000I-50000J0D01*
G01*
X7083000Y-8495000D02*
G75*
G03*
X7083000Y-8495000I-50000J0D01*
G01*
X7083000Y-8749000D02*
G75*
G03*
X7083000Y-8749000I-50000J0D01*
G01*
X7337000Y-8495000D02*
G75*
G03*
X7337000Y-8495000I-50000J0D01*
G01*
X7337000Y-8749000D02*
G75*
G03*
X7337000Y-8749000I-50000J0D01*
G01*
X7543500Y-11221000D02*
G75*
G03*
X7543500Y-11221000I-50000J0D01*
G01*
X7543500Y-11475000D02*
G75*
G03*
X7543500Y-11475000I-50000J0D01*
G01*
X7591000Y-8495000D02*
G75*
G03*
X7591000Y-8495000I-50000J0D01*
G01*
X7591000Y-8749000D02*
G75*
G03*
X7591000Y-8749000I-50000J0D01*
G01*
X7797500Y-11221000D02*
G75*
G03*
X7797500Y-11221000I-50000J0D01*
G01*
X7797500Y-11475000D02*
G75*
G03*
X7797500Y-11475000I-50000J0D01*
G01*
X7845000Y-8495000D02*
G75*
G03*
X7845000Y-8495000I-50000J0D01*
G01*
X7845000Y-8749000D02*
G75*
G03*
X7845000Y-8749000I-50000J0D01*
G01*
X8051500Y-11221000D02*
G75*
G03*
X8051500Y-11221000I-50000J0D01*
G01*
X8051500Y-11475000D02*
G75*
G03*
X8051500Y-11475000I-50000J0D01*
G01*
X8099000Y-8495000D02*
G75*
G03*
X8099000Y-8495000I-50000J0D01*
G01*
X8099000Y-8749000D02*
G75*
G03*
X8099000Y-8749000I-50000J0D01*
G01*
X8305500Y-11221000D02*
G75*
G03*
X8305500Y-11221000I-50000J0D01*
G01*
X8305500Y-11475000D02*
G75*
G03*
X8305500Y-11475000I-50000J0D01*
G01*
X8353000Y-8495000D02*
G75*
G03*
X8353000Y-8495000I-50000J0D01*
G01*
X8353000Y-8749000D02*
G75*
G03*
X8353000Y-8749000I-50000J0D01*
G01*
X8559500Y-11221000D02*
G75*
G03*
X8559500Y-11221000I-50000J0D01*
G01*
X8559500Y-11475000D02*
G75*
G03*
X8559500Y-11475000I-50000J0D01*
G01*
X8607000Y-8495000D02*
G75*
G03*
X8607000Y-8495000I-50000J0D01*
G01*
X8607000Y-8749000D02*
G75*
G03*
X8607000Y-8749000I-50000J0D01*
G01*
X8813500Y-11221000D02*
G75*
G03*
X8813500Y-11221000I-50000J0D01*
G01*
X8813500Y-11475000D02*
G75*
G03*
X8813500Y-11475000I-50000J0D01*
G01*
X8861000Y-8495000D02*
G75*
G03*
X8861000Y-8495000I-50000J0D01*
G01*
X8861000Y-8749000D02*
G75*
G03*
X8861000Y-8749000I-50000J0D01*
G01*
X9067500Y-11221000D02*
G75*
G03*
X9067500Y-11221000I-50000J0D01*
G01*
X9067500Y-11475000D02*
G75*
G03*
X9067500Y-11475000I-50000J0D01*
G01*
X9115000Y-8495000D02*
G75*
G03*
X9115000Y-8495000I-50000J0D01*
G01*
X9115000Y-8749000D02*
G75*
G03*
X9115000Y-8749000I-50000J0D01*
G01*
X9321500Y-11221000D02*
G75*
G03*
X9321500Y-11221000I-50000J0D01*
G01*
X9321500Y-11475000D02*
G75*
G03*
X9321500Y-11475000I-50000J0D01*
G01*
X9369000Y-8495000D02*
G75*
G03*
X9369000Y-8495000I-50000J0D01*
G01*
X9369000Y-8749000D02*
G75*
G03*
X9369000Y-8749000I-50000J0D01*
G01*
X9623000Y-8495000D02*
G75*
G03*
X9623000Y-8495000I-50000J0D01*
G01*
X9623000Y-8749000D02*
G75*
G03*
X9623000Y-8749000I-50000J0D01*
G01*
X9877000Y-8495000D02*
G75*
G03*
X9877000Y-8495000I-50000J0D01*
G01*
X9877000Y-8749000D02*
G75*
G03*
X9877000Y-8749000I-50000J0D01*
G01*
X10131000Y-8495000D02*
G75*
G03*
X10131000Y-8495000I-50000J0D01*
G01*
X10131000Y-8749000D02*
G75*
G03*
X10131000Y-8749000I-50000J0D01*
G01*
X10323500Y-11221000D02*
G75*
G03*
X10323500Y-11221000I-50000J0D01*
G01*
X10323500Y-11475000D02*
G75*
G03*
X10323500Y-11475000I-50000J0D01*
G01*
X10385000Y-8495000D02*
G75*
G03*
X10385000Y-8495000I-50000J0D01*
G01*
X10385000Y-8749000D02*
G75*
G03*
X10385000Y-8749000I-50000J0D01*
G01*
X10577500Y-11221000D02*
G75*
G03*
X10577500Y-11221000I-50000J0D01*
G01*
X10577500Y-11475000D02*
G75*
G03*
X10577500Y-11475000I-50000J0D01*
G01*
X10639000Y-8495000D02*
G75*
G03*
X10639000Y-8495000I-50000J0D01*
G01*
X10639000Y-8749000D02*
G75*
G03*
X10639000Y-8749000I-50000J0D01*
G01*
X10831500Y-11221000D02*
G75*
G03*
X10831500Y-11221000I-50000J0D01*
G01*
X10831500Y-11475000D02*
G75*
G03*
X10831500Y-11475000I-50000J0D01*
G01*
X10893000Y-8495000D02*
G75*
G03*
X10893000Y-8495000I-50000J0D01*
G01*
X10893000Y-8749000D02*
G75*
G03*
X10893000Y-8749000I-50000J0D01*
G01*
X11085500Y-11221000D02*
G75*
G03*
X11085500Y-11221000I-50000J0D01*
G01*
X11085500Y-11475000D02*
G75*
G03*
X11085500Y-11475000I-50000J0D01*
G01*
X11147000Y-8495000D02*
G75*
G03*
X11147000Y-8495000I-50000J0D01*
G01*
X11147000Y-8749000D02*
G75*
G03*
X11147000Y-8749000I-50000J0D01*
G01*
X11339500Y-11221000D02*
G75*
G03*
X11339500Y-11221000I-50000J0D01*
G01*
X11339500Y-11475000D02*
G75*
G03*
X11339500Y-11475000I-50000J0D01*
G01*
X11593500Y-11221000D02*
G75*
G03*
X11593500Y-11221000I-50000J0D01*
G01*
X11593500Y-11475000D02*
G75*
G03*
X11593500Y-11475000I-50000J0D01*
G01*
X11847500Y-11221000D02*
G75*
G03*
X11847500Y-11221000I-50000J0D01*
G01*
X11847500Y-11475000D02*
G75*
G03*
X11847500Y-11475000I-50000J0D01*
G01*
X12101500Y-11221000D02*
G75*
G03*
X12101500Y-11221000I-50000J0D01*
G01*
X12101500Y-11475000D02*
G75*
G03*
X12101500Y-11475000I-50000J0D01*
G01*
X13103500Y-11221000D02*
G75*
G03*
X13103500Y-11221000I-50000J0D01*
G01*
X13103500Y-11475000D02*
G75*
G03*
X13103500Y-11475000I-50000J0D01*
G01*
X13357500Y-11221000D02*
G75*
G03*
X13357500Y-11221000I-50000J0D01*
G01*
X13357500Y-11475000D02*
G75*
G03*
X13357500Y-11475000I-50000J0D01*
G01*
X13611500Y-11221000D02*
G75*
G03*
X13611500Y-11221000I-50000J0D01*
G01*
X13611500Y-11475000D02*
G75*
G03*
X13611500Y-11475000I-50000J0D01*
G01*
X13865500Y-11221000D02*
G75*
G03*
X13865500Y-11221000I-50000J0D01*
G01*
X13865500Y-11475000D02*
G75*
G03*
X13865500Y-11475000I-50000J0D01*
G01*
X14119500Y-11221000D02*
G75*
G03*
X14119500Y-11221000I-50000J0D01*
G01*
X14119500Y-11475000D02*
G75*
G03*
X14119500Y-11475000I-50000J0D01*
G01*
X14373500Y-11221000D02*
G75*
G03*
X14373500Y-11221000I-50000J0D01*
G01*
X14373500Y-11475000D02*
G75*
G03*
X14373500Y-11475000I-50000J0D01*
G01*
X14627500Y-11221000D02*
G75*
G03*
X14627500Y-11221000I-50000J0D01*
G01*
X14627500Y-11475000D02*
G75*
G03*
X14627500Y-11475000I-50000J0D01*
G01*
X14881500Y-11221000D02*
G75*
G03*
X14881500Y-11221000I-50000J0D01*
G01*
X14881500Y-11475000D02*
G75*
G03*
X14881500Y-11475000I-50000J0D01*
G01*
X15883500Y-11221000D02*
G75*
G03*
X15883500Y-11221000I-50000J0D01*
G01*
X15883500Y-11475000D02*
G75*
G03*
X15883500Y-11475000I-50000J0D01*
G01*
X16137500Y-11221000D02*
G75*
G03*
X16137500Y-11221000I-50000J0D01*
G01*
X16137500Y-11475000D02*
G75*
G03*
X16137500Y-11475000I-50000J0D01*
G01*
X16391500Y-11221000D02*
G75*
G03*
X16391500Y-11221000I-50000J0D01*
G01*
X16391500Y-11475000D02*
G75*
G03*
X16391500Y-11475000I-50000J0D01*
G01*
X16645500Y-11221000D02*
G75*
G03*
X16645500Y-11221000I-50000J0D01*
G01*
X16645500Y-11475000D02*
G75*
G03*
X16645500Y-11475000I-50000J0D01*
G01*
X16899500Y-11221000D02*
G75*
G03*
X16899500Y-11221000I-50000J0D01*
G01*
X16899500Y-11475000D02*
G75*
G03*
X16899500Y-11475000I-50000J0D01*
G01*
X17153500Y-11221000D02*
G75*
G03*
X17153500Y-11221000I-50000J0D01*
G01*
X17153500Y-11475000D02*
G75*
G03*
X17153500Y-11475000I-50000J0D01*
G01*
X17407500Y-11221000D02*
G75*
G03*
X17407500Y-11221000I-50000J0D01*
G01*
X17407500Y-11475000D02*
G75*
G03*
X17407500Y-11475000I-50000J0D01*
G01*
X17661500Y-11221000D02*
G75*
G03*
X17661500Y-11221000I-50000J0D01*
G01*
X17661500Y-11475000D02*
G75*
G03*
X17661500Y-11475000I-50000J0D01*
G01*
D14*
X7122160Y-4404360D02*
X7122160Y-4505960D01*
X7071360Y-4455160D02*
X7172960Y-4455160D01*
X7122160Y-4658360D02*
X7122160Y-4759960D01*
X7071360Y-4709160D02*
X7172960Y-4709160D01*
X7122160Y-4912360D02*
X7122160Y-5013960D01*
X7071360Y-4963160D02*
X7172960Y-4963160D01*
X7376160Y-4404360D02*
X7376160Y-4505960D01*
X7325360Y-4455160D02*
X7426960Y-4455160D01*
X7376160Y-4658360D02*
X7376160Y-4759960D01*
X7325360Y-4709160D02*
X7426960Y-4709160D01*
X7376160Y-4912360D02*
X7376160Y-5013960D01*
X7325360Y-4963160D02*
X7426960Y-4963160D01*
X7388860Y-2118360D02*
X7388860Y-2219960D01*
X7338060Y-2169160D02*
X7439660Y-2169160D01*
X7388860Y-6944360D02*
X7388860Y-7045960D01*
X7338060Y-6995160D02*
X7439660Y-6995160D01*
X7642860Y-2118360D02*
X7642860Y-2219960D01*
X7592060Y-2169160D02*
X7693660Y-2169160D01*
X7642860Y-6944360D02*
X7642860Y-7045960D01*
X7592060Y-6995160D02*
X7693660Y-6995160D01*
X7896860Y-2118360D02*
X7896860Y-2219960D01*
X7846060Y-2169160D02*
X7947660Y-2169160D01*
X7896860Y-6944360D02*
X7896860Y-7045960D01*
X7846060Y-6995160D02*
X7947660Y-6995160D01*
X8150860Y-2118360D02*
X8150860Y-2219960D01*
X8100060Y-2169160D02*
X8201660Y-2169160D01*
X8150860Y-6944360D02*
X8150860Y-7045960D01*
X8100060Y-6995160D02*
X8201660Y-6995160D01*
X8404860Y-2118360D02*
X8404860Y-2219960D01*
X8354060Y-2169160D02*
X8455660Y-2169160D01*
X8404860Y-6944360D02*
X8404860Y-7045960D01*
X8354060Y-6995160D02*
X8455660Y-6995160D01*
X8658860Y-2118360D02*
X8658860Y-2219960D01*
X8608060Y-2169160D02*
X8709660Y-2169160D01*
X8658860Y-6944360D02*
X8658860Y-7045960D01*
X8608060Y-6995160D02*
X8709660Y-6995160D01*
X8912860Y-6944360D02*
X8912860Y-7045960D01*
X8862060Y-6995160D02*
X8963660Y-6995160D01*
X9166860Y-2118360D02*
X9166860Y-2219960D01*
X9116060Y-2169160D02*
X9217660Y-2169160D01*
X9166860Y-6944360D02*
X9166860Y-7045960D01*
X9116060Y-6995160D02*
X9217660Y-6995160D01*
X9420860Y-2118360D02*
X9420860Y-2219960D01*
X9370060Y-2169160D02*
X9471660Y-2169160D01*
X9573260Y-6944360D02*
X9573260Y-7045960D01*
X9522460Y-6995160D02*
X9624060Y-6995160D01*
X9674860Y-2118360D02*
X9674860Y-2219960D01*
X9624060Y-2169160D02*
X9725660Y-2169160D01*
X9827260Y-6944360D02*
X9827260Y-7045960D01*
X9776460Y-6995160D02*
X9878060Y-6995160D01*
X9928860Y-2118360D02*
X9928860Y-2219960D01*
X9878060Y-2169160D02*
X9979660Y-2169160D01*
X10081260Y-6944360D02*
X10081260Y-7045960D01*
X10030460Y-6995160D02*
X10132060Y-6995160D01*
X10182860Y-2118360D02*
X10182860Y-2219960D01*
X10132060Y-2169160D02*
X10233660Y-2169160D01*
X10335260Y-6944360D02*
X10335260Y-7045960D01*
X10284460Y-6995160D02*
X10386060Y-6995160D01*
X10436860Y-2118360D02*
X10436860Y-2219960D01*
X10386060Y-2169160D02*
X10487660Y-2169160D01*
X10589260Y-6944360D02*
X10589260Y-7045960D01*
X10538460Y-6995160D02*
X10640060Y-6995160D01*
X10690860Y-2118360D02*
X10690860Y-2219960D01*
X10640060Y-2169160D02*
X10741660Y-2169160D01*
X10843260Y-6944360D02*
X10843260Y-7045960D01*
X10792460Y-6995160D02*
X10894060Y-6995160D01*
X10944860Y-2118360D02*
X10944860Y-2219960D01*
X10894060Y-2169160D02*
X10995660Y-2169160D01*
X11097260Y-6944360D02*
X11097260Y-7045960D01*
X11046460Y-6995160D02*
X11148060Y-6995160D01*
X11351260Y-6944360D02*
X11351260Y-7045960D01*
X11300460Y-6995160D02*
X11402060Y-6995160D01*
X11605260Y-6944360D02*
X11605260Y-7045960D01*
X11554460Y-6995160D02*
X11656060Y-6995160D01*
X11859260Y-6944360D02*
X11859260Y-7045960D01*
X11808460Y-6995160D02*
X11910060Y-6995160D01*
D11*
X1837619Y-12200476D02*
X1837619Y-12000476D01*
X1885238Y-12000476D01*
X1913809Y-12010000D01*
X1932857Y-12029048D01*
X1942381Y-12048095D01*
X1951905Y-12086190D01*
X1951905Y-12114762D01*
X1942381Y-12152857D01*
X1932857Y-12171905D01*
X1913809Y-12190952D01*
X1885238Y-12200476D01*
X1837619Y-12200476D01*
X2037619Y-12200476D02*
X2037619Y-12067143D01*
X2037619Y-12105238D02*
X2047143Y-12086190D01*
X2056667Y-12076667D01*
X2075714Y-12067143D01*
X2094762Y-12067143D01*
X2161429Y-12200476D02*
X2161429Y-12067143D01*
X2161429Y-12000476D02*
X2151905Y-12010000D01*
X2161429Y-12019524D01*
X2170952Y-12010000D01*
X2161429Y-12000476D01*
X2161429Y-12019524D01*
X2285238Y-12200476D02*
X2266190Y-12190952D01*
X2256667Y-12171905D01*
X2256667Y-12000476D01*
X2390000Y-12200476D02*
X2370952Y-12190952D01*
X2361429Y-12171905D01*
X2361429Y-12000476D01*
X2618571Y-12200476D02*
X2618571Y-12000476D01*
X2685238Y-12143333D01*
X2751905Y-12000476D01*
X2751905Y-12200476D01*
X2932857Y-12200476D02*
X2932857Y-12095714D01*
X2923333Y-12076667D01*
X2904286Y-12067143D01*
X2866190Y-12067143D01*
X2847143Y-12076667D01*
X2932857Y-12190952D02*
X2913809Y-12200476D01*
X2866190Y-12200476D01*
X2847143Y-12190952D01*
X2837619Y-12171905D01*
X2837619Y-12152857D01*
X2847143Y-12133809D01*
X2866190Y-12124286D01*
X2913809Y-12124286D01*
X2932857Y-12114762D01*
X3028095Y-12067143D02*
X3028095Y-12267143D01*
X3028095Y-12076667D02*
X3047143Y-12067143D01*
X3085238Y-12067143D01*
X3104286Y-12076667D01*
X3113809Y-12086190D01*
X3123333Y-12105238D01*
X3123333Y-12162381D01*
X3113809Y-12181428D01*
X3104286Y-12190952D01*
X3085238Y-12200476D01*
X3047143Y-12200476D01*
X3028095Y-12190952D01*
X3209048Y-12181428D02*
X3218571Y-12190952D01*
X3209048Y-12200476D01*
X3199524Y-12190952D01*
X3209048Y-12181428D01*
X3209048Y-12200476D01*
X3209048Y-12076667D02*
X3218571Y-12086190D01*
X3209048Y-12095714D01*
X3199524Y-12086190D01*
X3209048Y-12076667D01*
X3209048Y-12095714D01*
D12*
X1500000Y-12490000D02*
X1580000Y-12570000D01*
X1580000Y-12490000D02*
X1500000Y-12570000D01*
D11*
X1875714Y-12420476D02*
X1894762Y-12420476D01*
X1913809Y-12430000D01*
X1923333Y-12439524D01*
X1932857Y-12458571D01*
X1942381Y-12496667D01*
X1942381Y-12544286D01*
X1932857Y-12582381D01*
X1923333Y-12601428D01*
X1913809Y-12610952D01*
X1894762Y-12620476D01*
X1875714Y-12620476D01*
X1856667Y-12610952D01*
X1847143Y-12601428D01*
X1837619Y-12582381D01*
X1828095Y-12544286D01*
X1828095Y-12496667D01*
X1837619Y-12458571D01*
X1847143Y-12439524D01*
X1856667Y-12430000D01*
X1875714Y-12420476D01*
X2028095Y-12601428D02*
X2037619Y-12610952D01*
X2028095Y-12620476D01*
X2018571Y-12610952D01*
X2028095Y-12601428D01*
X2028095Y-12620476D01*
X2151905Y-12506190D02*
X2132857Y-12496667D01*
X2123333Y-12487143D01*
X2113810Y-12468095D01*
X2113810Y-12458571D01*
X2123333Y-12439524D01*
X2132857Y-12430000D01*
X2151905Y-12420476D01*
X2190000Y-12420476D01*
X2209048Y-12430000D01*
X2218571Y-12439524D01*
X2228095Y-12458571D01*
X2228095Y-12468095D01*
X2218571Y-12487143D01*
X2209048Y-12496667D01*
X2190000Y-12506190D01*
X2151905Y-12506190D01*
X2132857Y-12515714D01*
X2123333Y-12525238D01*
X2113810Y-12544286D01*
X2113810Y-12582381D01*
X2123333Y-12601428D01*
X2132857Y-12610952D01*
X2151905Y-12620476D01*
X2190000Y-12620476D01*
X2209048Y-12610952D01*
X2218571Y-12601428D01*
X2228095Y-12582381D01*
X2228095Y-12544286D01*
X2218571Y-12525238D01*
X2209048Y-12515714D01*
X2190000Y-12506190D01*
X2351905Y-12420476D02*
X2370952Y-12420476D01*
X2390000Y-12430000D01*
X2399524Y-12439524D01*
X2409048Y-12458571D01*
X2418571Y-12496667D01*
X2418571Y-12544286D01*
X2409048Y-12582381D01*
X2399524Y-12601428D01*
X2390000Y-12610952D01*
X2370952Y-12620476D01*
X2351905Y-12620476D01*
X2332857Y-12610952D01*
X2323333Y-12601428D01*
X2313810Y-12582381D01*
X2304286Y-12544286D01*
X2304286Y-12496667D01*
X2313810Y-12458571D01*
X2323333Y-12439524D01*
X2332857Y-12430000D01*
X2351905Y-12420476D01*
X2542381Y-12420476D02*
X2561429Y-12420476D01*
X2580476Y-12430000D01*
X2590000Y-12439524D01*
X2599524Y-12458571D01*
X2609048Y-12496667D01*
X2609048Y-12544286D01*
X2599524Y-12582381D01*
X2590000Y-12601428D01*
X2580476Y-12610952D01*
X2561429Y-12620476D01*
X2542381Y-12620476D01*
X2523333Y-12610952D01*
X2513810Y-12601428D01*
X2504286Y-12582381D01*
X2494762Y-12544286D01*
X2494762Y-12496667D01*
X2504286Y-12458571D01*
X2513810Y-12439524D01*
X2523333Y-12430000D01*
X2542381Y-12420476D01*
X2694762Y-12620476D02*
X2694762Y-12487143D01*
X2694762Y-12506190D02*
X2704286Y-12496667D01*
X2723333Y-12487143D01*
X2751905Y-12487143D01*
X2770952Y-12496667D01*
X2780476Y-12515714D01*
X2780476Y-12620476D01*
X2780476Y-12515714D02*
X2790000Y-12496667D01*
X2809048Y-12487143D01*
X2837619Y-12487143D01*
X2856667Y-12496667D01*
X2866190Y-12515714D01*
X2866190Y-12620476D01*
X2961428Y-12620476D02*
X2961428Y-12487143D01*
X2961428Y-12506190D02*
X2970952Y-12496667D01*
X2990000Y-12487143D01*
X3018571Y-12487143D01*
X3037619Y-12496667D01*
X3047143Y-12515714D01*
X3047143Y-12620476D01*
X3047143Y-12515714D02*
X3056667Y-12496667D01*
X3075714Y-12487143D01*
X3104286Y-12487143D01*
X3123333Y-12496667D01*
X3132857Y-12515714D01*
X3132857Y-12620476D01*
X3523333Y-12410952D02*
X3351905Y-12668095D01*
X3780476Y-12420476D02*
X3799524Y-12420476D01*
X3818571Y-12430000D01*
X3828095Y-12439524D01*
X3837619Y-12458571D01*
X3847143Y-12496667D01*
X3847143Y-12544286D01*
X3837619Y-12582381D01*
X3828095Y-12601428D01*
X3818571Y-12610952D01*
X3799524Y-12620476D01*
X3780476Y-12620476D01*
X3761428Y-12610952D01*
X3751905Y-12601428D01*
X3742381Y-12582381D01*
X3732857Y-12544286D01*
X3732857Y-12496667D01*
X3742381Y-12458571D01*
X3751905Y-12439524D01*
X3761428Y-12430000D01*
X3780476Y-12420476D01*
X3932857Y-12601428D02*
X3942381Y-12610952D01*
X3932857Y-12620476D01*
X3923333Y-12610952D01*
X3932857Y-12601428D01*
X3932857Y-12620476D01*
X4066190Y-12420476D02*
X4085238Y-12420476D01*
X4104286Y-12430000D01*
X4113809Y-12439524D01*
X4123333Y-12458571D01*
X4132857Y-12496667D01*
X4132857Y-12544286D01*
X4123333Y-12582381D01*
X4113809Y-12601428D01*
X4104286Y-12610952D01*
X4085238Y-12620476D01*
X4066190Y-12620476D01*
X4047143Y-12610952D01*
X4037619Y-12601428D01*
X4028095Y-12582381D01*
X4018571Y-12544286D01*
X4018571Y-12496667D01*
X4028095Y-12458571D01*
X4037619Y-12439524D01*
X4047143Y-12430000D01*
X4066190Y-12420476D01*
X4199524Y-12420476D02*
X4323333Y-12420476D01*
X4256667Y-12496667D01*
X4285238Y-12496667D01*
X4304286Y-12506190D01*
X4313810Y-12515714D01*
X4323333Y-12534762D01*
X4323333Y-12582381D01*
X4313810Y-12601428D01*
X4304286Y-12610952D01*
X4285238Y-12620476D01*
X4228095Y-12620476D01*
X4209048Y-12610952D01*
X4199524Y-12601428D01*
X4513810Y-12620476D02*
X4399524Y-12620476D01*
X4456667Y-12620476D02*
X4456667Y-12420476D01*
X4437619Y-12449048D01*
X4418571Y-12468095D01*
X4399524Y-12477619D01*
X4694762Y-12420476D02*
X4599524Y-12420476D01*
X4590000Y-12515714D01*
X4599524Y-12506190D01*
X4618571Y-12496667D01*
X4666190Y-12496667D01*
X4685238Y-12506190D01*
X4694762Y-12515714D01*
X4704286Y-12534762D01*
X4704286Y-12582381D01*
X4694762Y-12601428D01*
X4685238Y-12610952D01*
X4666190Y-12620476D01*
X4618571Y-12620476D01*
X4599524Y-12610952D01*
X4590000Y-12601428D01*
X4780476Y-12420476D02*
X4780476Y-12458571D01*
X4856667Y-12420476D02*
X4856667Y-12458571D01*
X5151905Y-12696667D02*
X5142381Y-12687143D01*
X5123333Y-12658571D01*
X5113810Y-12639524D01*
X5104286Y-12610952D01*
X5094762Y-12563333D01*
X5094762Y-12525238D01*
X5104286Y-12477619D01*
X5113810Y-12449048D01*
X5123333Y-12430000D01*
X5142381Y-12401428D01*
X5151905Y-12391905D01*
X5332857Y-12620476D02*
X5218571Y-12620476D01*
X5275714Y-12620476D02*
X5275714Y-12420476D01*
X5256667Y-12449048D01*
X5237619Y-12468095D01*
X5218571Y-12477619D01*
X5447143Y-12506190D02*
X5428095Y-12496667D01*
X5418571Y-12487143D01*
X5409048Y-12468095D01*
X5409048Y-12458571D01*
X5418571Y-12439524D01*
X5428095Y-12430000D01*
X5447143Y-12420476D01*
X5485238Y-12420476D01*
X5504286Y-12430000D01*
X5513810Y-12439524D01*
X5523333Y-12458571D01*
X5523333Y-12468095D01*
X5513810Y-12487143D01*
X5504286Y-12496667D01*
X5485238Y-12506190D01*
X5447143Y-12506190D01*
X5428095Y-12515714D01*
X5418571Y-12525238D01*
X5409048Y-12544286D01*
X5409048Y-12582381D01*
X5418571Y-12601428D01*
X5428095Y-12610952D01*
X5447143Y-12620476D01*
X5485238Y-12620476D01*
X5504286Y-12610952D01*
X5513810Y-12601428D01*
X5523333Y-12582381D01*
X5523333Y-12544286D01*
X5513810Y-12525238D01*
X5504286Y-12515714D01*
X5485238Y-12506190D01*
X5761428Y-12620476D02*
X5761428Y-12420476D01*
X5847143Y-12620476D02*
X5847143Y-12515714D01*
X5837619Y-12496667D01*
X5818571Y-12487143D01*
X5790000Y-12487143D01*
X5770952Y-12496667D01*
X5761428Y-12506190D01*
X5970952Y-12620476D02*
X5951905Y-12610952D01*
X5942381Y-12601428D01*
X5932857Y-12582381D01*
X5932857Y-12525238D01*
X5942381Y-12506190D01*
X5951905Y-12496667D01*
X5970952Y-12487143D01*
X5999524Y-12487143D01*
X6018571Y-12496667D01*
X6028095Y-12506190D01*
X6037619Y-12525238D01*
X6037619Y-12582381D01*
X6028095Y-12601428D01*
X6018571Y-12610952D01*
X5999524Y-12620476D01*
X5970952Y-12620476D01*
X6151905Y-12620476D02*
X6132857Y-12610952D01*
X6123333Y-12591905D01*
X6123333Y-12420476D01*
X6304286Y-12610952D02*
X6285238Y-12620476D01*
X6247143Y-12620476D01*
X6228095Y-12610952D01*
X6218571Y-12591905D01*
X6218571Y-12515714D01*
X6228095Y-12496667D01*
X6247143Y-12487143D01*
X6285238Y-12487143D01*
X6304286Y-12496667D01*
X6313809Y-12515714D01*
X6313809Y-12534762D01*
X6218571Y-12553809D01*
X6390000Y-12610952D02*
X6409048Y-12620476D01*
X6447143Y-12620476D01*
X6466190Y-12610952D01*
X6475714Y-12591905D01*
X6475714Y-12582381D01*
X6466190Y-12563333D01*
X6447143Y-12553809D01*
X6418571Y-12553809D01*
X6399524Y-12544286D01*
X6390000Y-12525238D01*
X6390000Y-12515714D01*
X6399524Y-12496667D01*
X6418571Y-12487143D01*
X6447143Y-12487143D01*
X6466190Y-12496667D01*
X6542381Y-12696667D02*
X6551905Y-12687143D01*
X6570952Y-12658571D01*
X6580476Y-12639524D01*
X6590000Y-12610952D01*
X6599524Y-12563333D01*
X6599524Y-12525238D01*
X6590000Y-12477619D01*
X6580476Y-12449048D01*
X6570952Y-12430000D01*
X6551905Y-12401428D01*
X6542381Y-12391905D01*
D13*
X1580000Y-12794000D02*
G75*
G03*
X1580000Y-12794000I-50000J0D01*
G01*
D11*
X1942381Y-12884476D02*
X1828095Y-12884476D01*
X1885238Y-12884476D02*
X1885238Y-12684476D01*
X1866190Y-12713048D01*
X1847143Y-12732095D01*
X1828095Y-12741619D01*
X2028095Y-12865428D02*
X2037619Y-12874952D01*
X2028095Y-12884476D01*
X2018571Y-12874952D01*
X2028095Y-12865428D01*
X2028095Y-12884476D01*
X2161429Y-12684476D02*
X2180476Y-12684476D01*
X2199524Y-12694000D01*
X2209048Y-12703524D01*
X2218571Y-12722571D01*
X2228095Y-12760667D01*
X2228095Y-12808286D01*
X2218571Y-12846381D01*
X2209048Y-12865428D01*
X2199524Y-12874952D01*
X2180476Y-12884476D01*
X2161429Y-12884476D01*
X2142381Y-12874952D01*
X2132857Y-12865428D01*
X2123333Y-12846381D01*
X2113810Y-12808286D01*
X2113810Y-12760667D01*
X2123333Y-12722571D01*
X2132857Y-12703524D01*
X2142381Y-12694000D01*
X2161429Y-12684476D01*
X2351905Y-12684476D02*
X2370952Y-12684476D01*
X2390000Y-12694000D01*
X2399524Y-12703524D01*
X2409048Y-12722571D01*
X2418571Y-12760667D01*
X2418571Y-12808286D01*
X2409048Y-12846381D01*
X2399524Y-12865428D01*
X2390000Y-12874952D01*
X2370952Y-12884476D01*
X2351905Y-12884476D01*
X2332857Y-12874952D01*
X2323333Y-12865428D01*
X2313810Y-12846381D01*
X2304286Y-12808286D01*
X2304286Y-12760667D01*
X2313810Y-12722571D01*
X2323333Y-12703524D01*
X2332857Y-12694000D01*
X2351905Y-12684476D01*
X2542381Y-12684476D02*
X2561429Y-12684476D01*
X2580476Y-12694000D01*
X2590000Y-12703524D01*
X2599524Y-12722571D01*
X2609048Y-12760667D01*
X2609048Y-12808286D01*
X2599524Y-12846381D01*
X2590000Y-12865428D01*
X2580476Y-12874952D01*
X2561429Y-12884476D01*
X2542381Y-12884476D01*
X2523333Y-12874952D01*
X2513810Y-12865428D01*
X2504286Y-12846381D01*
X2494762Y-12808286D01*
X2494762Y-12760667D01*
X2504286Y-12722571D01*
X2513810Y-12703524D01*
X2523333Y-12694000D01*
X2542381Y-12684476D01*
X2694762Y-12884476D02*
X2694762Y-12751143D01*
X2694762Y-12770190D02*
X2704286Y-12760667D01*
X2723333Y-12751143D01*
X2751905Y-12751143D01*
X2770952Y-12760667D01*
X2780476Y-12779714D01*
X2780476Y-12884476D01*
X2780476Y-12779714D02*
X2790000Y-12760667D01*
X2809048Y-12751143D01*
X2837619Y-12751143D01*
X2856667Y-12760667D01*
X2866190Y-12779714D01*
X2866190Y-12884476D01*
X2961428Y-12884476D02*
X2961428Y-12751143D01*
X2961428Y-12770190D02*
X2970952Y-12760667D01*
X2990000Y-12751143D01*
X3018571Y-12751143D01*
X3037619Y-12760667D01*
X3047143Y-12779714D01*
X3047143Y-12884476D01*
X3047143Y-12779714D02*
X3056667Y-12760667D01*
X3075714Y-12751143D01*
X3104286Y-12751143D01*
X3123333Y-12760667D01*
X3132857Y-12779714D01*
X3132857Y-12884476D01*
X3523333Y-12674952D02*
X3351905Y-12932095D01*
X3780476Y-12684476D02*
X3799524Y-12684476D01*
X3818571Y-12694000D01*
X3828095Y-12703524D01*
X3837619Y-12722571D01*
X3847143Y-12760667D01*
X3847143Y-12808286D01*
X3837619Y-12846381D01*
X3828095Y-12865428D01*
X3818571Y-12874952D01*
X3799524Y-12884476D01*
X3780476Y-12884476D01*
X3761428Y-12874952D01*
X3751905Y-12865428D01*
X3742381Y-12846381D01*
X3732857Y-12808286D01*
X3732857Y-12760667D01*
X3742381Y-12722571D01*
X3751905Y-12703524D01*
X3761428Y-12694000D01*
X3780476Y-12684476D01*
X3932857Y-12865428D02*
X3942381Y-12874952D01*
X3932857Y-12884476D01*
X3923333Y-12874952D01*
X3932857Y-12865428D01*
X3932857Y-12884476D01*
X4066190Y-12684476D02*
X4085238Y-12684476D01*
X4104286Y-12694000D01*
X4113809Y-12703524D01*
X4123333Y-12722571D01*
X4132857Y-12760667D01*
X4132857Y-12808286D01*
X4123333Y-12846381D01*
X4113809Y-12865428D01*
X4104286Y-12874952D01*
X4085238Y-12884476D01*
X4066190Y-12884476D01*
X4047143Y-12874952D01*
X4037619Y-12865428D01*
X4028095Y-12846381D01*
X4018571Y-12808286D01*
X4018571Y-12760667D01*
X4028095Y-12722571D01*
X4037619Y-12703524D01*
X4047143Y-12694000D01*
X4066190Y-12684476D01*
X4199524Y-12684476D02*
X4323333Y-12684476D01*
X4256667Y-12760667D01*
X4285238Y-12760667D01*
X4304286Y-12770190D01*
X4313810Y-12779714D01*
X4323333Y-12798762D01*
X4323333Y-12846381D01*
X4313810Y-12865428D01*
X4304286Y-12874952D01*
X4285238Y-12884476D01*
X4228095Y-12884476D01*
X4209048Y-12874952D01*
X4199524Y-12865428D01*
X4418571Y-12884476D02*
X4456667Y-12884476D01*
X4475714Y-12874952D01*
X4485238Y-12865428D01*
X4504286Y-12836857D01*
X4513810Y-12798762D01*
X4513810Y-12722571D01*
X4504286Y-12703524D01*
X4494762Y-12694000D01*
X4475714Y-12684476D01*
X4437619Y-12684476D01*
X4418571Y-12694000D01*
X4409048Y-12703524D01*
X4399524Y-12722571D01*
X4399524Y-12770190D01*
X4409048Y-12789238D01*
X4418571Y-12798762D01*
X4437619Y-12808286D01*
X4475714Y-12808286D01*
X4494762Y-12798762D01*
X4504286Y-12789238D01*
X4513810Y-12770190D01*
X4685238Y-12751143D02*
X4685238Y-12884476D01*
X4637619Y-12674952D02*
X4590000Y-12817809D01*
X4713810Y-12817809D01*
X4780476Y-12684476D02*
X4780476Y-12722571D01*
X4856667Y-12684476D02*
X4856667Y-12722571D01*
X5151905Y-12960667D02*
X5142381Y-12951143D01*
X5123333Y-12922571D01*
X5113810Y-12903524D01*
X5104286Y-12874952D01*
X5094762Y-12827333D01*
X5094762Y-12789238D01*
X5104286Y-12741619D01*
X5113810Y-12713048D01*
X5123333Y-12694000D01*
X5142381Y-12665428D01*
X5151905Y-12655905D01*
X5332857Y-12884476D02*
X5218571Y-12884476D01*
X5275714Y-12884476D02*
X5275714Y-12684476D01*
X5256667Y-12713048D01*
X5237619Y-12732095D01*
X5218571Y-12741619D01*
X5399524Y-12684476D02*
X5523333Y-12684476D01*
X5456667Y-12760667D01*
X5485238Y-12760667D01*
X5504286Y-12770190D01*
X5513810Y-12779714D01*
X5523333Y-12798762D01*
X5523333Y-12846381D01*
X5513810Y-12865428D01*
X5504286Y-12874952D01*
X5485238Y-12884476D01*
X5428095Y-12884476D01*
X5409048Y-12874952D01*
X5399524Y-12865428D01*
X5694762Y-12684476D02*
X5656667Y-12684476D01*
X5637619Y-12694000D01*
X5628095Y-12703524D01*
X5609048Y-12732095D01*
X5599524Y-12770190D01*
X5599524Y-12846381D01*
X5609048Y-12865428D01*
X5618571Y-12874952D01*
X5637619Y-12884476D01*
X5675714Y-12884476D01*
X5694762Y-12874952D01*
X5704286Y-12865428D01*
X5713809Y-12846381D01*
X5713809Y-12798762D01*
X5704286Y-12779714D01*
X5694762Y-12770190D01*
X5675714Y-12760667D01*
X5637619Y-12760667D01*
X5618571Y-12770190D01*
X5609048Y-12779714D01*
X5599524Y-12798762D01*
X5951905Y-12884476D02*
X5951905Y-12684476D01*
X6037619Y-12884476D02*
X6037619Y-12779714D01*
X6028095Y-12760667D01*
X6009048Y-12751143D01*
X5980476Y-12751143D01*
X5961428Y-12760667D01*
X5951905Y-12770190D01*
X6161428Y-12884476D02*
X6142381Y-12874952D01*
X6132857Y-12865428D01*
X6123333Y-12846381D01*
X6123333Y-12789238D01*
X6132857Y-12770190D01*
X6142381Y-12760667D01*
X6161428Y-12751143D01*
X6190000Y-12751143D01*
X6209048Y-12760667D01*
X6218571Y-12770190D01*
X6228095Y-12789238D01*
X6228095Y-12846381D01*
X6218571Y-12865428D01*
X6209048Y-12874952D01*
X6190000Y-12884476D01*
X6161428Y-12884476D01*
X6342381Y-12884476D02*
X6323333Y-12874952D01*
X6313809Y-12855905D01*
X6313809Y-12684476D01*
X6494762Y-12874952D02*
X6475714Y-12884476D01*
X6437619Y-12884476D01*
X6418571Y-12874952D01*
X6409048Y-12855905D01*
X6409048Y-12779714D01*
X6418571Y-12760667D01*
X6437619Y-12751143D01*
X6475714Y-12751143D01*
X6494762Y-12760667D01*
X6504286Y-12779714D01*
X6504286Y-12798762D01*
X6409048Y-12817809D01*
X6580476Y-12874952D02*
X6599524Y-12884476D01*
X6637619Y-12884476D01*
X6656667Y-12874952D01*
X6666190Y-12855905D01*
X6666190Y-12846381D01*
X6656667Y-12827333D01*
X6637619Y-12817809D01*
X6609048Y-12817809D01*
X6590000Y-12808286D01*
X6580476Y-12789238D01*
X6580476Y-12779714D01*
X6590000Y-12760667D01*
X6609048Y-12751143D01*
X6637619Y-12751143D01*
X6656667Y-12760667D01*
X6732857Y-12960667D02*
X6742381Y-12951143D01*
X6761428Y-12922571D01*
X6770952Y-12903524D01*
X6780476Y-12874952D01*
X6790000Y-12827333D01*
X6790000Y-12789238D01*
X6780476Y-12741619D01*
X6770952Y-12713048D01*
X6761428Y-12694000D01*
X6742381Y-12665428D01*
X6732857Y-12655905D01*
D14*
X1529200Y-13007200D02*
X1529200Y-13108800D01*
X1478400Y-13058000D02*
X1580000Y-13058000D01*
D11*
X1942381Y-13148476D02*
X1828095Y-13148476D01*
X1885238Y-13148476D02*
X1885238Y-12948476D01*
X1866190Y-12977048D01*
X1847143Y-12996095D01*
X1828095Y-13005619D01*
X2028095Y-13129428D02*
X2037619Y-13138952D01*
X2028095Y-13148476D01*
X2018571Y-13138952D01*
X2028095Y-13129428D01*
X2028095Y-13148476D01*
X2161429Y-12948476D02*
X2180476Y-12948476D01*
X2199524Y-12958000D01*
X2209048Y-12967524D01*
X2218571Y-12986571D01*
X2228095Y-13024667D01*
X2228095Y-13072286D01*
X2218571Y-13110381D01*
X2209048Y-13129428D01*
X2199524Y-13138952D01*
X2180476Y-13148476D01*
X2161429Y-13148476D01*
X2142381Y-13138952D01*
X2132857Y-13129428D01*
X2123333Y-13110381D01*
X2113810Y-13072286D01*
X2113810Y-13024667D01*
X2123333Y-12986571D01*
X2132857Y-12967524D01*
X2142381Y-12958000D01*
X2161429Y-12948476D01*
X2418571Y-13148476D02*
X2304286Y-13148476D01*
X2361429Y-13148476D02*
X2361429Y-12948476D01*
X2342381Y-12977048D01*
X2323333Y-12996095D01*
X2304286Y-13005619D01*
X2590000Y-12948476D02*
X2551905Y-12948476D01*
X2532857Y-12958000D01*
X2523333Y-12967524D01*
X2504286Y-12996095D01*
X2494762Y-13034190D01*
X2494762Y-13110381D01*
X2504286Y-13129428D01*
X2513810Y-13138952D01*
X2532857Y-13148476D01*
X2570952Y-13148476D01*
X2590000Y-13138952D01*
X2599524Y-13129428D01*
X2609048Y-13110381D01*
X2609048Y-13062762D01*
X2599524Y-13043714D01*
X2590000Y-13034190D01*
X2570952Y-13024667D01*
X2532857Y-13024667D01*
X2513810Y-13034190D01*
X2504286Y-13043714D01*
X2494762Y-13062762D01*
X2694762Y-13148476D02*
X2694762Y-13015143D01*
X2694762Y-13034190D02*
X2704286Y-13024667D01*
X2723333Y-13015143D01*
X2751905Y-13015143D01*
X2770952Y-13024667D01*
X2780476Y-13043714D01*
X2780476Y-13148476D01*
X2780476Y-13043714D02*
X2790000Y-13024667D01*
X2809048Y-13015143D01*
X2837619Y-13015143D01*
X2856667Y-13024667D01*
X2866190Y-13043714D01*
X2866190Y-13148476D01*
X2961428Y-13148476D02*
X2961428Y-13015143D01*
X2961428Y-13034190D02*
X2970952Y-13024667D01*
X2990000Y-13015143D01*
X3018571Y-13015143D01*
X3037619Y-13024667D01*
X3047143Y-13043714D01*
X3047143Y-13148476D01*
X3047143Y-13043714D02*
X3056667Y-13024667D01*
X3075714Y-13015143D01*
X3104286Y-13015143D01*
X3123333Y-13024667D01*
X3132857Y-13043714D01*
X3132857Y-13148476D01*
X3523333Y-12938952D02*
X3351905Y-13196095D01*
X3780476Y-12948476D02*
X3799524Y-12948476D01*
X3818571Y-12958000D01*
X3828095Y-12967524D01*
X3837619Y-12986571D01*
X3847143Y-13024667D01*
X3847143Y-13072286D01*
X3837619Y-13110381D01*
X3828095Y-13129428D01*
X3818571Y-13138952D01*
X3799524Y-13148476D01*
X3780476Y-13148476D01*
X3761428Y-13138952D01*
X3751905Y-13129428D01*
X3742381Y-13110381D01*
X3732857Y-13072286D01*
X3732857Y-13024667D01*
X3742381Y-12986571D01*
X3751905Y-12967524D01*
X3761428Y-12958000D01*
X3780476Y-12948476D01*
X3932857Y-13129428D02*
X3942381Y-13138952D01*
X3932857Y-13148476D01*
X3923333Y-13138952D01*
X3932857Y-13129428D01*
X3932857Y-13148476D01*
X4066190Y-12948476D02*
X4085238Y-12948476D01*
X4104286Y-12958000D01*
X4113809Y-12967524D01*
X4123333Y-12986571D01*
X4132857Y-13024667D01*
X4132857Y-13072286D01*
X4123333Y-13110381D01*
X4113809Y-13129428D01*
X4104286Y-13138952D01*
X4085238Y-13148476D01*
X4066190Y-13148476D01*
X4047143Y-13138952D01*
X4037619Y-13129428D01*
X4028095Y-13110381D01*
X4018571Y-13072286D01*
X4018571Y-13024667D01*
X4028095Y-12986571D01*
X4037619Y-12967524D01*
X4047143Y-12958000D01*
X4066190Y-12948476D01*
X4304286Y-13015143D02*
X4304286Y-13148476D01*
X4256667Y-12938952D02*
X4209048Y-13081809D01*
X4332857Y-13081809D01*
X4447143Y-12948476D02*
X4466190Y-12948476D01*
X4485238Y-12958000D01*
X4494762Y-12967524D01*
X4504286Y-12986571D01*
X4513810Y-13024667D01*
X4513810Y-13072286D01*
X4504286Y-13110381D01*
X4494762Y-13129428D01*
X4485238Y-13138952D01*
X4466190Y-13148476D01*
X4447143Y-13148476D01*
X4428095Y-13138952D01*
X4418571Y-13129428D01*
X4409048Y-13110381D01*
X4399524Y-13072286D01*
X4399524Y-13024667D01*
X4409048Y-12986571D01*
X4418571Y-12967524D01*
X4428095Y-12958000D01*
X4447143Y-12948476D01*
X4637619Y-12948476D02*
X4656667Y-12948476D01*
X4675714Y-12958000D01*
X4685238Y-12967524D01*
X4694762Y-12986571D01*
X4704286Y-13024667D01*
X4704286Y-13072286D01*
X4694762Y-13110381D01*
X4685238Y-13129428D01*
X4675714Y-13138952D01*
X4656667Y-13148476D01*
X4637619Y-13148476D01*
X4618571Y-13138952D01*
X4609048Y-13129428D01*
X4599524Y-13110381D01*
X4590000Y-13072286D01*
X4590000Y-13024667D01*
X4599524Y-12986571D01*
X4609048Y-12967524D01*
X4618571Y-12958000D01*
X4637619Y-12948476D01*
X4780476Y-12948476D02*
X4780476Y-12986571D01*
X4856667Y-12948476D02*
X4856667Y-12986571D01*
X5151905Y-13224667D02*
X5142381Y-13215143D01*
X5123333Y-13186571D01*
X5113810Y-13167524D01*
X5104286Y-13138952D01*
X5094762Y-13091333D01*
X5094762Y-13053238D01*
X5104286Y-13005619D01*
X5113810Y-12977048D01*
X5123333Y-12958000D01*
X5142381Y-12929428D01*
X5151905Y-12919905D01*
X5209048Y-12948476D02*
X5332857Y-12948476D01*
X5266190Y-13024667D01*
X5294762Y-13024667D01*
X5313810Y-13034190D01*
X5323333Y-13043714D01*
X5332857Y-13062762D01*
X5332857Y-13110381D01*
X5323333Y-13129428D01*
X5313810Y-13138952D01*
X5294762Y-13148476D01*
X5237619Y-13148476D01*
X5218571Y-13138952D01*
X5209048Y-13129428D01*
X5447143Y-13034190D02*
X5428095Y-13024667D01*
X5418571Y-13015143D01*
X5409048Y-12996095D01*
X5409048Y-12986571D01*
X5418571Y-12967524D01*
X5428095Y-12958000D01*
X5447143Y-12948476D01*
X5485238Y-12948476D01*
X5504286Y-12958000D01*
X5513810Y-12967524D01*
X5523333Y-12986571D01*
X5523333Y-12996095D01*
X5513810Y-13015143D01*
X5504286Y-13024667D01*
X5485238Y-13034190D01*
X5447143Y-13034190D01*
X5428095Y-13043714D01*
X5418571Y-13053238D01*
X5409048Y-13072286D01*
X5409048Y-13110381D01*
X5418571Y-13129428D01*
X5428095Y-13138952D01*
X5447143Y-13148476D01*
X5485238Y-13148476D01*
X5504286Y-13138952D01*
X5513810Y-13129428D01*
X5523333Y-13110381D01*
X5523333Y-13072286D01*
X5513810Y-13053238D01*
X5504286Y-13043714D01*
X5485238Y-13034190D01*
X5761428Y-13148476D02*
X5761428Y-12948476D01*
X5847143Y-13148476D02*
X5847143Y-13043714D01*
X5837619Y-13024667D01*
X5818571Y-13015143D01*
X5790000Y-13015143D01*
X5770952Y-13024667D01*
X5761428Y-13034190D01*
X5970952Y-13148476D02*
X5951905Y-13138952D01*
X5942381Y-13129428D01*
X5932857Y-13110381D01*
X5932857Y-13053238D01*
X5942381Y-13034190D01*
X5951905Y-13024667D01*
X5970952Y-13015143D01*
X5999524Y-13015143D01*
X6018571Y-13024667D01*
X6028095Y-13034190D01*
X6037619Y-13053238D01*
X6037619Y-13110381D01*
X6028095Y-13129428D01*
X6018571Y-13138952D01*
X5999524Y-13148476D01*
X5970952Y-13148476D01*
X6151905Y-13148476D02*
X6132857Y-13138952D01*
X6123333Y-13119905D01*
X6123333Y-12948476D01*
X6304286Y-13138952D02*
X6285238Y-13148476D01*
X6247143Y-13148476D01*
X6228095Y-13138952D01*
X6218571Y-13119905D01*
X6218571Y-13043714D01*
X6228095Y-13024667D01*
X6247143Y-13015143D01*
X6285238Y-13015143D01*
X6304286Y-13024667D01*
X6313809Y-13043714D01*
X6313809Y-13062762D01*
X6218571Y-13081809D01*
X6390000Y-13138952D02*
X6409048Y-13148476D01*
X6447143Y-13148476D01*
X6466190Y-13138952D01*
X6475714Y-13119905D01*
X6475714Y-13110381D01*
X6466190Y-13091333D01*
X6447143Y-13081809D01*
X6418571Y-13081809D01*
X6399524Y-13072286D01*
X6390000Y-13053238D01*
X6390000Y-13043714D01*
X6399524Y-13024667D01*
X6418571Y-13015143D01*
X6447143Y-13015143D01*
X6466190Y-13024667D01*
X6542381Y-13224667D02*
X6551905Y-13215143D01*
X6570952Y-13186571D01*
X6580476Y-13167524D01*
X6590000Y-13138952D01*
X6599524Y-13091333D01*
X6599524Y-13053238D01*
X6590000Y-13005619D01*
X6580476Y-12977048D01*
X6570952Y-12958000D01*
X6551905Y-12929428D01*
X6542381Y-12919905D01*
M02*
