M48
; DRILL file {KiCad (6.0.6)} date Sat Aug 27 12:11:45 2022
; FORMAT={-:-/ absolute / metric / decimal}
; #@! TF.CreationDate,2022-08-27T12:11:45+02:00
; #@! TF.GenerationSoftware,Kicad,Pcbnew,(6.0.6)
; #@! TF.FileFunction,Plated,1,2,PTH
FMAT,2
METRIC
; #@! TA.AperFunction,Plated,PTH,ViaDrill
T1C0.400
; #@! TA.AperFunction,Plated,PTH,ViaDrill
T2C0.800
; #@! TA.AperFunction,Plated,PTH,ComponentDrill
T3C1.000
; #@! TA.AperFunction,Plated,PTH,ComponentDrill
T4C1.200
; #@! TA.AperFunction,Plated,PTH,ComponentDrill
T5C1.300
%
G90
G05
T1
X40.85Y-80.7
X47.5Y-69.0
X50.9Y-76.05
X50.9Y-79.0
X52.1Y-82.8
X53.79Y-66.64
X53.83Y-65.4
X55.49Y-65.19
X56.75Y-46.2
X57.1Y-52.0
X57.1Y-53.5
X57.1Y-55.0
X57.44Y-65.76
X57.74Y-79.11
X59.52Y-65.8
X61.55Y-67.85
X61.55Y-69.837
T2
X55.4Y-91.15
X55.4Y-93.4
X55.4Y-95.65
X57.3Y-93.4
X57.375Y-91.15
X57.375Y-95.65
X58.04Y-84.1
X59.3Y-93.45
X59.35Y-91.15
X59.35Y-95.65
X59.61Y-87.19
X60.04Y-84.1
X62.04Y-84.1
X62.16Y-87.19
X64.04Y-84.1
T3
X41.755Y-70.815
X41.755Y-73.355
X41.755Y-75.895
X42.364Y-58.16
X42.364Y-65.78
X49.984Y-58.16
X49.984Y-60.7
X49.984Y-63.24
X49.984Y-65.78
X54.15Y-69.025
X54.15Y-71.565
X54.15Y-74.105
T4
X69.1Y-48.89
X69.1Y-94.61
X79.15Y-48.88
X79.15Y-94.6
T5
X90.7Y-49.78
X90.7Y-54.86
X90.7Y-59.94
X90.7Y-65.02
X90.7Y-70.1
X90.705Y-77.73
X90.705Y-82.81
X90.705Y-87.89
X90.705Y-92.97
T0
M30
