%FSLAX45Y45*%
G04 Gerber Fmt 4.5, Leading zero omitted, Abs format (unit mm)*
G04 Created by KiCad (PCBNEW (6.0.6)) date 2022-08-27 12:11:47*
%MOMM*%
%LPD*%
G01*
G04 APERTURE LIST*
%TA.AperFunction,Profile*%
%ADD10C,0.100000*%
%TD*%
%ADD11C,0.200000*%
%ADD12C,0.320000*%
G04 APERTURE END LIST*
D10*
X9835000Y-9925000D02*
X9835000Y-4425000D01*
X3835000Y-4425000D02*
X9835000Y-4425000D01*
X3835000Y-9925000D02*
X9835000Y-9925000D01*
X3835000Y-9925000D02*
X3835000Y-4425000D01*
D11*
D12*
X4275000Y-4865000D02*
X4595000Y-5185000D01*
X4595000Y-4865000D02*
X4275000Y-5185000D01*
X4275000Y-9165000D02*
X4595000Y-9485000D01*
X4595000Y-9165000D02*
X4275000Y-9485000D01*
D11*
X4087619Y-10240476D02*
X4087619Y-10040476D01*
X4135238Y-10040476D01*
X4163809Y-10050000D01*
X4182857Y-10069048D01*
X4192381Y-10088095D01*
X4201905Y-10126190D01*
X4201905Y-10154762D01*
X4192381Y-10192857D01*
X4182857Y-10211905D01*
X4163809Y-10230952D01*
X4135238Y-10240476D01*
X4087619Y-10240476D01*
X4287619Y-10240476D02*
X4287619Y-10107143D01*
X4287619Y-10145238D02*
X4297143Y-10126190D01*
X4306667Y-10116667D01*
X4325714Y-10107143D01*
X4344762Y-10107143D01*
X4411429Y-10240476D02*
X4411429Y-10107143D01*
X4411429Y-10040476D02*
X4401905Y-10050000D01*
X4411429Y-10059524D01*
X4420952Y-10050000D01*
X4411429Y-10040476D01*
X4411429Y-10059524D01*
X4535238Y-10240476D02*
X4516190Y-10230952D01*
X4506667Y-10211905D01*
X4506667Y-10040476D01*
X4640000Y-10240476D02*
X4620952Y-10230952D01*
X4611429Y-10211905D01*
X4611429Y-10040476D01*
X4868571Y-10240476D02*
X4868571Y-10040476D01*
X4935238Y-10183333D01*
X5001905Y-10040476D01*
X5001905Y-10240476D01*
X5182857Y-10240476D02*
X5182857Y-10135714D01*
X5173333Y-10116667D01*
X5154286Y-10107143D01*
X5116190Y-10107143D01*
X5097143Y-10116667D01*
X5182857Y-10230952D02*
X5163810Y-10240476D01*
X5116190Y-10240476D01*
X5097143Y-10230952D01*
X5087619Y-10211905D01*
X5087619Y-10192857D01*
X5097143Y-10173810D01*
X5116190Y-10164286D01*
X5163810Y-10164286D01*
X5182857Y-10154762D01*
X5278095Y-10107143D02*
X5278095Y-10307143D01*
X5278095Y-10116667D02*
X5297143Y-10107143D01*
X5335238Y-10107143D01*
X5354286Y-10116667D01*
X5363810Y-10126190D01*
X5373333Y-10145238D01*
X5373333Y-10202381D01*
X5363810Y-10221429D01*
X5354286Y-10230952D01*
X5335238Y-10240476D01*
X5297143Y-10240476D01*
X5278095Y-10230952D01*
X5459048Y-10221429D02*
X5468571Y-10230952D01*
X5459048Y-10240476D01*
X5449524Y-10230952D01*
X5459048Y-10221429D01*
X5459048Y-10240476D01*
X5459048Y-10116667D02*
X5468571Y-10126190D01*
X5459048Y-10135714D01*
X5449524Y-10126190D01*
X5459048Y-10116667D01*
X5459048Y-10135714D01*
X3630000Y-10470000D02*
X3830000Y-10670000D01*
X3830000Y-10470000D02*
X3630000Y-10670000D01*
X4068571Y-10460476D02*
X4192381Y-10460476D01*
X4125714Y-10536667D01*
X4154286Y-10536667D01*
X4173333Y-10546190D01*
X4182857Y-10555714D01*
X4192381Y-10574762D01*
X4192381Y-10622381D01*
X4182857Y-10641429D01*
X4173333Y-10650952D01*
X4154286Y-10660476D01*
X4097143Y-10660476D01*
X4078095Y-10650952D01*
X4068571Y-10641429D01*
X4278095Y-10641429D02*
X4287619Y-10650952D01*
X4278095Y-10660476D01*
X4268571Y-10650952D01*
X4278095Y-10641429D01*
X4278095Y-10660476D01*
X4363810Y-10479524D02*
X4373333Y-10470000D01*
X4392381Y-10460476D01*
X4440000Y-10460476D01*
X4459048Y-10470000D01*
X4468571Y-10479524D01*
X4478095Y-10498571D01*
X4478095Y-10517619D01*
X4468571Y-10546190D01*
X4354286Y-10660476D01*
X4478095Y-10660476D01*
X4601905Y-10460476D02*
X4620952Y-10460476D01*
X4640000Y-10470000D01*
X4649524Y-10479524D01*
X4659048Y-10498571D01*
X4668571Y-10536667D01*
X4668571Y-10584286D01*
X4659048Y-10622381D01*
X4649524Y-10641429D01*
X4640000Y-10650952D01*
X4620952Y-10660476D01*
X4601905Y-10660476D01*
X4582857Y-10650952D01*
X4573333Y-10641429D01*
X4563810Y-10622381D01*
X4554286Y-10584286D01*
X4554286Y-10536667D01*
X4563810Y-10498571D01*
X4573333Y-10479524D01*
X4582857Y-10470000D01*
X4601905Y-10460476D01*
X4792381Y-10460476D02*
X4811429Y-10460476D01*
X4830476Y-10470000D01*
X4840000Y-10479524D01*
X4849524Y-10498571D01*
X4859048Y-10536667D01*
X4859048Y-10584286D01*
X4849524Y-10622381D01*
X4840000Y-10641429D01*
X4830476Y-10650952D01*
X4811429Y-10660476D01*
X4792381Y-10660476D01*
X4773333Y-10650952D01*
X4763810Y-10641429D01*
X4754286Y-10622381D01*
X4744762Y-10584286D01*
X4744762Y-10536667D01*
X4754286Y-10498571D01*
X4763810Y-10479524D01*
X4773333Y-10470000D01*
X4792381Y-10460476D01*
X4944762Y-10660476D02*
X4944762Y-10527143D01*
X4944762Y-10546190D02*
X4954286Y-10536667D01*
X4973333Y-10527143D01*
X5001905Y-10527143D01*
X5020952Y-10536667D01*
X5030476Y-10555714D01*
X5030476Y-10660476D01*
X5030476Y-10555714D02*
X5040000Y-10536667D01*
X5059048Y-10527143D01*
X5087619Y-10527143D01*
X5106667Y-10536667D01*
X5116190Y-10555714D01*
X5116190Y-10660476D01*
X5211429Y-10660476D02*
X5211429Y-10527143D01*
X5211429Y-10546190D02*
X5220952Y-10536667D01*
X5240000Y-10527143D01*
X5268571Y-10527143D01*
X5287619Y-10536667D01*
X5297143Y-10555714D01*
X5297143Y-10660476D01*
X5297143Y-10555714D02*
X5306667Y-10536667D01*
X5325714Y-10527143D01*
X5354286Y-10527143D01*
X5373333Y-10536667D01*
X5382857Y-10555714D01*
X5382857Y-10660476D01*
X5773333Y-10450952D02*
X5601905Y-10708095D01*
X6030476Y-10460476D02*
X6049524Y-10460476D01*
X6068571Y-10470000D01*
X6078095Y-10479524D01*
X6087619Y-10498571D01*
X6097143Y-10536667D01*
X6097143Y-10584286D01*
X6087619Y-10622381D01*
X6078095Y-10641429D01*
X6068571Y-10650952D01*
X6049524Y-10660476D01*
X6030476Y-10660476D01*
X6011428Y-10650952D01*
X6001905Y-10641429D01*
X5992381Y-10622381D01*
X5982857Y-10584286D01*
X5982857Y-10536667D01*
X5992381Y-10498571D01*
X6001905Y-10479524D01*
X6011428Y-10470000D01*
X6030476Y-10460476D01*
X6182857Y-10641429D02*
X6192381Y-10650952D01*
X6182857Y-10660476D01*
X6173333Y-10650952D01*
X6182857Y-10641429D01*
X6182857Y-10660476D01*
X6382857Y-10660476D02*
X6268571Y-10660476D01*
X6325714Y-10660476D02*
X6325714Y-10460476D01*
X6306667Y-10489048D01*
X6287619Y-10508095D01*
X6268571Y-10517619D01*
X6459048Y-10479524D02*
X6468571Y-10470000D01*
X6487619Y-10460476D01*
X6535238Y-10460476D01*
X6554286Y-10470000D01*
X6563809Y-10479524D01*
X6573333Y-10498571D01*
X6573333Y-10517619D01*
X6563809Y-10546190D01*
X6449524Y-10660476D01*
X6573333Y-10660476D01*
X6744762Y-10460476D02*
X6706667Y-10460476D01*
X6687619Y-10470000D01*
X6678095Y-10479524D01*
X6659048Y-10508095D01*
X6649524Y-10546190D01*
X6649524Y-10622381D01*
X6659048Y-10641429D01*
X6668571Y-10650952D01*
X6687619Y-10660476D01*
X6725714Y-10660476D01*
X6744762Y-10650952D01*
X6754286Y-10641429D01*
X6763809Y-10622381D01*
X6763809Y-10574762D01*
X6754286Y-10555714D01*
X6744762Y-10546190D01*
X6725714Y-10536667D01*
X6687619Y-10536667D01*
X6668571Y-10546190D01*
X6659048Y-10555714D01*
X6649524Y-10574762D01*
X6887619Y-10460476D02*
X6906667Y-10460476D01*
X6925714Y-10470000D01*
X6935238Y-10479524D01*
X6944762Y-10498571D01*
X6954286Y-10536667D01*
X6954286Y-10584286D01*
X6944762Y-10622381D01*
X6935238Y-10641429D01*
X6925714Y-10650952D01*
X6906667Y-10660476D01*
X6887619Y-10660476D01*
X6868571Y-10650952D01*
X6859048Y-10641429D01*
X6849524Y-10622381D01*
X6840000Y-10584286D01*
X6840000Y-10536667D01*
X6849524Y-10498571D01*
X6859048Y-10479524D01*
X6868571Y-10470000D01*
X6887619Y-10460476D01*
X7030476Y-10460476D02*
X7030476Y-10498571D01*
X7106667Y-10460476D02*
X7106667Y-10498571D01*
X7401905Y-10736667D02*
X7392381Y-10727143D01*
X7373333Y-10698571D01*
X7363809Y-10679524D01*
X7354286Y-10650952D01*
X7344762Y-10603333D01*
X7344762Y-10565238D01*
X7354286Y-10517619D01*
X7363809Y-10489048D01*
X7373333Y-10470000D01*
X7392381Y-10441429D01*
X7401905Y-10431905D01*
X7468571Y-10479524D02*
X7478095Y-10470000D01*
X7497143Y-10460476D01*
X7544762Y-10460476D01*
X7563809Y-10470000D01*
X7573333Y-10479524D01*
X7582857Y-10498571D01*
X7582857Y-10517619D01*
X7573333Y-10546190D01*
X7459048Y-10660476D01*
X7582857Y-10660476D01*
X7820952Y-10660476D02*
X7820952Y-10460476D01*
X7906667Y-10660476D02*
X7906667Y-10555714D01*
X7897143Y-10536667D01*
X7878095Y-10527143D01*
X7849524Y-10527143D01*
X7830476Y-10536667D01*
X7820952Y-10546190D01*
X8030476Y-10660476D02*
X8011428Y-10650952D01*
X8001905Y-10641429D01*
X7992381Y-10622381D01*
X7992381Y-10565238D01*
X8001905Y-10546190D01*
X8011428Y-10536667D01*
X8030476Y-10527143D01*
X8059048Y-10527143D01*
X8078095Y-10536667D01*
X8087619Y-10546190D01*
X8097143Y-10565238D01*
X8097143Y-10622381D01*
X8087619Y-10641429D01*
X8078095Y-10650952D01*
X8059048Y-10660476D01*
X8030476Y-10660476D01*
X8211428Y-10660476D02*
X8192381Y-10650952D01*
X8182857Y-10631905D01*
X8182857Y-10460476D01*
X8363809Y-10650952D02*
X8344762Y-10660476D01*
X8306667Y-10660476D01*
X8287619Y-10650952D01*
X8278095Y-10631905D01*
X8278095Y-10555714D01*
X8287619Y-10536667D01*
X8306667Y-10527143D01*
X8344762Y-10527143D01*
X8363809Y-10536667D01*
X8373333Y-10555714D01*
X8373333Y-10574762D01*
X8278095Y-10593810D01*
X8449524Y-10650952D02*
X8468571Y-10660476D01*
X8506667Y-10660476D01*
X8525714Y-10650952D01*
X8535238Y-10631905D01*
X8535238Y-10622381D01*
X8525714Y-10603333D01*
X8506667Y-10593810D01*
X8478095Y-10593810D01*
X8459048Y-10584286D01*
X8449524Y-10565238D01*
X8449524Y-10555714D01*
X8459048Y-10536667D01*
X8478095Y-10527143D01*
X8506667Y-10527143D01*
X8525714Y-10536667D01*
X8601905Y-10736667D02*
X8611429Y-10727143D01*
X8630476Y-10698571D01*
X8640000Y-10679524D01*
X8649524Y-10650952D01*
X8659048Y-10603333D01*
X8659048Y-10565238D01*
X8649524Y-10517619D01*
X8640000Y-10489048D01*
X8630476Y-10470000D01*
X8611429Y-10441429D01*
X8601905Y-10431905D01*
X8963810Y-10736667D02*
X8954286Y-10727143D01*
X8935238Y-10698571D01*
X8925714Y-10679524D01*
X8916190Y-10650952D01*
X8906667Y-10603333D01*
X8906667Y-10565238D01*
X8916190Y-10517619D01*
X8925714Y-10489048D01*
X8935238Y-10470000D01*
X8954286Y-10441429D01*
X8963810Y-10431905D01*
X9040000Y-10527143D02*
X9040000Y-10660476D01*
X9040000Y-10546190D02*
X9049524Y-10536667D01*
X9068571Y-10527143D01*
X9097143Y-10527143D01*
X9116190Y-10536667D01*
X9125714Y-10555714D01*
X9125714Y-10660476D01*
X9249524Y-10660476D02*
X9230476Y-10650952D01*
X9220952Y-10641429D01*
X9211429Y-10622381D01*
X9211429Y-10565238D01*
X9220952Y-10546190D01*
X9230476Y-10536667D01*
X9249524Y-10527143D01*
X9278095Y-10527143D01*
X9297143Y-10536667D01*
X9306667Y-10546190D01*
X9316190Y-10565238D01*
X9316190Y-10622381D01*
X9306667Y-10641429D01*
X9297143Y-10650952D01*
X9278095Y-10660476D01*
X9249524Y-10660476D01*
X9373333Y-10527143D02*
X9449524Y-10527143D01*
X9401905Y-10460476D02*
X9401905Y-10631905D01*
X9411429Y-10650952D01*
X9430476Y-10660476D01*
X9449524Y-10660476D01*
X9668571Y-10527143D02*
X9668571Y-10727143D01*
X9668571Y-10536667D02*
X9687619Y-10527143D01*
X9725714Y-10527143D01*
X9744762Y-10536667D01*
X9754286Y-10546190D01*
X9763810Y-10565238D01*
X9763810Y-10622381D01*
X9754286Y-10641429D01*
X9744762Y-10650952D01*
X9725714Y-10660476D01*
X9687619Y-10660476D01*
X9668571Y-10650952D01*
X9878095Y-10660476D02*
X9859048Y-10650952D01*
X9849524Y-10631905D01*
X9849524Y-10460476D01*
X10040000Y-10660476D02*
X10040000Y-10555714D01*
X10030476Y-10536667D01*
X10011429Y-10527143D01*
X9973333Y-10527143D01*
X9954286Y-10536667D01*
X10040000Y-10650952D02*
X10020952Y-10660476D01*
X9973333Y-10660476D01*
X9954286Y-10650952D01*
X9944762Y-10631905D01*
X9944762Y-10612857D01*
X9954286Y-10593810D01*
X9973333Y-10584286D01*
X10020952Y-10584286D01*
X10040000Y-10574762D01*
X10106667Y-10527143D02*
X10182857Y-10527143D01*
X10135238Y-10460476D02*
X10135238Y-10631905D01*
X10144762Y-10650952D01*
X10163810Y-10660476D01*
X10182857Y-10660476D01*
X10325714Y-10650952D02*
X10306667Y-10660476D01*
X10268571Y-10660476D01*
X10249524Y-10650952D01*
X10240000Y-10631905D01*
X10240000Y-10555714D01*
X10249524Y-10536667D01*
X10268571Y-10527143D01*
X10306667Y-10527143D01*
X10325714Y-10536667D01*
X10335238Y-10555714D01*
X10335238Y-10574762D01*
X10240000Y-10593810D01*
X10506667Y-10660476D02*
X10506667Y-10460476D01*
X10506667Y-10650952D02*
X10487619Y-10660476D01*
X10449524Y-10660476D01*
X10430476Y-10650952D01*
X10420952Y-10641429D01*
X10411429Y-10622381D01*
X10411429Y-10565238D01*
X10420952Y-10546190D01*
X10430476Y-10536667D01*
X10449524Y-10527143D01*
X10487619Y-10527143D01*
X10506667Y-10536667D01*
X10582857Y-10736667D02*
X10592381Y-10727143D01*
X10611429Y-10698571D01*
X10620952Y-10679524D01*
X10630476Y-10650952D01*
X10640000Y-10603333D01*
X10640000Y-10565238D01*
X10630476Y-10517619D01*
X10620952Y-10489048D01*
X10611429Y-10470000D01*
X10592381Y-10441429D01*
X10582857Y-10431905D01*
M02*
