G04 #@! TF.GenerationSoftware,KiCad,Pcbnew,(6.0.6)*
G04 #@! TF.CreationDate,2022-08-27T12:11:26+02:00*
G04 #@! TF.ProjectId,switched-load-module,73776974-6368-4656-942d-6c6f61642d6d,rev?*
G04 #@! TF.SameCoordinates,Original*
G04 #@! TF.FileFunction,Legend,Bot*
G04 #@! TF.FilePolarity,Positive*
%FSLAX46Y46*%
G04 Gerber Fmt 4.6, Leading zero omitted, Abs format (unit mm)*
G04 Created by KiCad (PCBNEW (6.0.6)) date 2022-08-27 12:11:26*
%MOMM*%
%LPD*%
G01*
G04 APERTURE LIST*
G04 Aperture macros list*
%AMRoundRect*
0 Rectangle with rounded corners*
0 $1 Rounding radius*
0 $2 $3 $4 $5 $6 $7 $8 $9 X,Y pos of 4 corners*
0 Add a 4 corners polygon primitive as box body*
4,1,4,$2,$3,$4,$5,$6,$7,$8,$9,$2,$3,0*
0 Add four circle primitives for the rounded corners*
1,1,$1+$1,$2,$3*
1,1,$1+$1,$4,$5*
1,1,$1+$1,$6,$7*
1,1,$1+$1,$8,$9*
0 Add four rect primitives between the rounded corners*
20,1,$1+$1,$2,$3,$4,$5,0*
20,1,$1+$1,$4,$5,$6,$7,0*
20,1,$1+$1,$6,$7,$8,$9,0*
20,1,$1+$1,$8,$9,$2,$3,0*%
G04 Aperture macros list end*
%ADD10C,0.150000*%
%ADD11C,0.120000*%
%ADD12C,1.515000*%
%ADD13R,2.600000X2.600000*%
%ADD14C,2.600000*%
%ADD15R,1.700000X1.700000*%
%ADD16O,1.700000X1.700000*%
%ADD17C,2.400000*%
%ADD18O,2.400000X2.400000*%
%ADD19C,3.200000*%
%ADD20RoundRect,0.250000X0.350000X0.450000X-0.350000X0.450000X-0.350000X-0.450000X0.350000X-0.450000X0*%
%ADD21RoundRect,0.250000X-0.475000X0.337500X-0.475000X-0.337500X0.475000X-0.337500X0.475000X0.337500X0*%
%ADD22RoundRect,0.250000X0.450000X-0.350000X0.450000X0.350000X-0.450000X0.350000X-0.450000X-0.350000X0*%
%ADD23RoundRect,0.250000X-0.350000X-0.450000X0.350000X-0.450000X0.350000X0.450000X-0.350000X0.450000X0*%
%ADD24RoundRect,0.250000X-0.450000X0.350000X-0.450000X-0.350000X0.450000X-0.350000X0.450000X0.350000X0*%
%ADD25R,0.700000X1.000000*%
%ADD26RoundRect,0.250000X0.475000X-0.337500X0.475000X0.337500X-0.475000X0.337500X-0.475000X-0.337500X0*%
%ADD27R,1.200000X2.200000*%
%ADD28R,5.800000X6.400000*%
G04 APERTURE END LIST*
D10*
X45516666Y-75902380D02*
X45850000Y-75426190D01*
X46088095Y-75902380D02*
X46088095Y-74902380D01*
X45707142Y-74902380D01*
X45611904Y-74950000D01*
X45564285Y-74997619D01*
X45516666Y-75092857D01*
X45516666Y-75235714D01*
X45564285Y-75330952D01*
X45611904Y-75378571D01*
X45707142Y-75426190D01*
X46088095Y-75426190D01*
X44611904Y-74902380D02*
X45088095Y-74902380D01*
X45135714Y-75378571D01*
X45088095Y-75330952D01*
X44992857Y-75283333D01*
X44754761Y-75283333D01*
X44659523Y-75330952D01*
X44611904Y-75378571D01*
X44564285Y-75473809D01*
X44564285Y-75711904D01*
X44611904Y-75807142D01*
X44659523Y-75854761D01*
X44754761Y-75902380D01*
X44992857Y-75902380D01*
X45088095Y-75854761D01*
X45135714Y-75807142D01*
X61916666Y-64207142D02*
X61964285Y-64254761D01*
X62107142Y-64302380D01*
X62202380Y-64302380D01*
X62345238Y-64254761D01*
X62440476Y-64159523D01*
X62488095Y-64064285D01*
X62535714Y-63873809D01*
X62535714Y-63730952D01*
X62488095Y-63540476D01*
X62440476Y-63445238D01*
X62345238Y-63350000D01*
X62202380Y-63302380D01*
X62107142Y-63302380D01*
X61964285Y-63350000D01*
X61916666Y-63397619D01*
X61059523Y-63302380D02*
X61250000Y-63302380D01*
X61345238Y-63350000D01*
X61392857Y-63397619D01*
X61488095Y-63540476D01*
X61535714Y-63730952D01*
X61535714Y-64111904D01*
X61488095Y-64207142D01*
X61440476Y-64254761D01*
X61345238Y-64302380D01*
X61154761Y-64302380D01*
X61059523Y-64254761D01*
X61011904Y-64207142D01*
X60964285Y-64111904D01*
X60964285Y-63873809D01*
X61011904Y-63778571D01*
X61059523Y-63730952D01*
X61154761Y-63683333D01*
X61345238Y-63683333D01*
X61440476Y-63730952D01*
X61488095Y-63778571D01*
X61535714Y-63873809D01*
X47466666Y-59452380D02*
X47800000Y-58976190D01*
X48038095Y-59452380D02*
X48038095Y-58452380D01*
X47657142Y-58452380D01*
X47561904Y-58500000D01*
X47514285Y-58547619D01*
X47466666Y-58642857D01*
X47466666Y-58785714D01*
X47514285Y-58880952D01*
X47561904Y-58928571D01*
X47657142Y-58976190D01*
X48038095Y-58976190D01*
X47133333Y-58452380D02*
X46466666Y-58452380D01*
X46895238Y-59452380D01*
X44866666Y-70102380D02*
X45200000Y-69626190D01*
X45438095Y-70102380D02*
X45438095Y-69102380D01*
X45057142Y-69102380D01*
X44961904Y-69150000D01*
X44914285Y-69197619D01*
X44866666Y-69292857D01*
X44866666Y-69435714D01*
X44914285Y-69530952D01*
X44961904Y-69578571D01*
X45057142Y-69626190D01*
X45438095Y-69626190D01*
X44009523Y-69435714D02*
X44009523Y-70102380D01*
X44247619Y-69054761D02*
X44485714Y-69769047D01*
X43866666Y-69769047D01*
X62192857Y-74452380D02*
X62526190Y-73976190D01*
X62764285Y-74452380D02*
X62764285Y-73452380D01*
X62383333Y-73452380D01*
X62288095Y-73500000D01*
X62240476Y-73547619D01*
X62192857Y-73642857D01*
X62192857Y-73785714D01*
X62240476Y-73880952D01*
X62288095Y-73928571D01*
X62383333Y-73976190D01*
X62764285Y-73976190D01*
X61240476Y-74452380D02*
X61811904Y-74452380D01*
X61526190Y-74452380D02*
X61526190Y-73452380D01*
X61621428Y-73595238D01*
X61716666Y-73690476D01*
X61811904Y-73738095D01*
X60907142Y-73452380D02*
X60288095Y-73452380D01*
X60621428Y-73833333D01*
X60478571Y-73833333D01*
X60383333Y-73880952D01*
X60335714Y-73928571D01*
X60288095Y-74023809D01*
X60288095Y-74261904D01*
X60335714Y-74357142D01*
X60383333Y-74404761D01*
X60478571Y-74452380D01*
X60764285Y-74452380D01*
X60859523Y-74404761D01*
X60907142Y-74357142D01*
X50995238Y-70347619D02*
X51090476Y-70300000D01*
X51185714Y-70204761D01*
X51328571Y-70061904D01*
X51423809Y-70014285D01*
X51519047Y-70014285D01*
X51471428Y-70252380D02*
X51566666Y-70204761D01*
X51661904Y-70109523D01*
X51709523Y-69919047D01*
X51709523Y-69585714D01*
X51661904Y-69395238D01*
X51566666Y-69300000D01*
X51471428Y-69252380D01*
X51280952Y-69252380D01*
X51185714Y-69300000D01*
X51090476Y-69395238D01*
X51042857Y-69585714D01*
X51042857Y-69919047D01*
X51090476Y-70109523D01*
X51185714Y-70204761D01*
X51280952Y-70252380D01*
X51471428Y-70252380D01*
X50090476Y-70252380D02*
X50661904Y-70252380D01*
X50376190Y-70252380D02*
X50376190Y-69252380D01*
X50471428Y-69395238D01*
X50566666Y-69490476D01*
X50661904Y-69538095D01*
X57514285Y-48161904D02*
X57780952Y-47780952D01*
X57971428Y-48161904D02*
X57971428Y-47361904D01*
X57666666Y-47361904D01*
X57590476Y-47400000D01*
X57552380Y-47438095D01*
X57514285Y-47514285D01*
X57514285Y-47628571D01*
X57552380Y-47704761D01*
X57590476Y-47742857D01*
X57666666Y-47780952D01*
X57971428Y-47780952D01*
X56752380Y-48161904D02*
X57209523Y-48161904D01*
X56980952Y-48161904D02*
X56980952Y-47361904D01*
X57057142Y-47476190D01*
X57133333Y-47552380D01*
X57209523Y-47590476D01*
X56066666Y-47361904D02*
X56219047Y-47361904D01*
X56295238Y-47400000D01*
X56333333Y-47438095D01*
X56409523Y-47552380D01*
X56447619Y-47704761D01*
X56447619Y-48009523D01*
X56409523Y-48085714D01*
X56371428Y-48123809D01*
X56295238Y-48161904D01*
X56142857Y-48161904D01*
X56066666Y-48123809D01*
X56028571Y-48085714D01*
X55990476Y-48009523D01*
X55990476Y-47819047D01*
X56028571Y-47742857D01*
X56066666Y-47704761D01*
X56142857Y-47666666D01*
X56295238Y-47666666D01*
X56371428Y-47704761D01*
X56409523Y-47742857D01*
X56447619Y-47819047D01*
X46066666Y-68052380D02*
X46400000Y-67576190D01*
X46638095Y-68052380D02*
X46638095Y-67052380D01*
X46257142Y-67052380D01*
X46161904Y-67100000D01*
X46114285Y-67147619D01*
X46066666Y-67242857D01*
X46066666Y-67385714D01*
X46114285Y-67480952D01*
X46161904Y-67528571D01*
X46257142Y-67576190D01*
X46638095Y-67576190D01*
X45209523Y-67052380D02*
X45400000Y-67052380D01*
X45495238Y-67100000D01*
X45542857Y-67147619D01*
X45638095Y-67290476D01*
X45685714Y-67480952D01*
X45685714Y-67861904D01*
X45638095Y-67957142D01*
X45590476Y-68004761D01*
X45495238Y-68052380D01*
X45304761Y-68052380D01*
X45209523Y-68004761D01*
X45161904Y-67957142D01*
X45114285Y-67861904D01*
X45114285Y-67623809D01*
X45161904Y-67528571D01*
X45209523Y-67480952D01*
X45304761Y-67433333D01*
X45495238Y-67433333D01*
X45590476Y-67480952D01*
X45638095Y-67528571D01*
X45685714Y-67623809D01*
X54666666Y-61457142D02*
X54714285Y-61504761D01*
X54857142Y-61552380D01*
X54952380Y-61552380D01*
X55095238Y-61504761D01*
X55190476Y-61409523D01*
X55238095Y-61314285D01*
X55285714Y-61123809D01*
X55285714Y-60980952D01*
X55238095Y-60790476D01*
X55190476Y-60695238D01*
X55095238Y-60600000D01*
X54952380Y-60552380D01*
X54857142Y-60552380D01*
X54714285Y-60600000D01*
X54666666Y-60647619D01*
X54333333Y-60552380D02*
X53714285Y-60552380D01*
X54047619Y-60933333D01*
X53904761Y-60933333D01*
X53809523Y-60980952D01*
X53761904Y-61028571D01*
X53714285Y-61123809D01*
X53714285Y-61361904D01*
X53761904Y-61457142D01*
X53809523Y-61504761D01*
X53904761Y-61552380D01*
X54190476Y-61552380D01*
X54285714Y-61504761D01*
X54333333Y-61457142D01*
X59716666Y-64157142D02*
X59764285Y-64204761D01*
X59907142Y-64252380D01*
X60002380Y-64252380D01*
X60145238Y-64204761D01*
X60240476Y-64109523D01*
X60288095Y-64014285D01*
X60335714Y-63823809D01*
X60335714Y-63680952D01*
X60288095Y-63490476D01*
X60240476Y-63395238D01*
X60145238Y-63300000D01*
X60002380Y-63252380D01*
X59907142Y-63252380D01*
X59764285Y-63300000D01*
X59716666Y-63347619D01*
X58811904Y-63252380D02*
X59288095Y-63252380D01*
X59335714Y-63728571D01*
X59288095Y-63680952D01*
X59192857Y-63633333D01*
X58954761Y-63633333D01*
X58859523Y-63680952D01*
X58811904Y-63728571D01*
X58764285Y-63823809D01*
X58764285Y-64061904D01*
X58811904Y-64157142D01*
X58859523Y-64204761D01*
X58954761Y-64252380D01*
X59192857Y-64252380D01*
X59288095Y-64204761D01*
X59335714Y-64157142D01*
X41364285Y-82561904D02*
X41630952Y-82180952D01*
X41821428Y-82561904D02*
X41821428Y-81761904D01*
X41516666Y-81761904D01*
X41440476Y-81800000D01*
X41402380Y-81838095D01*
X41364285Y-81914285D01*
X41364285Y-82028571D01*
X41402380Y-82104761D01*
X41440476Y-82142857D01*
X41516666Y-82180952D01*
X41821428Y-82180952D01*
X40602380Y-82561904D02*
X41059523Y-82561904D01*
X40830952Y-82561904D02*
X40830952Y-81761904D01*
X40907142Y-81876190D01*
X40983333Y-81952380D01*
X41059523Y-81990476D01*
X39878571Y-81761904D02*
X40259523Y-81761904D01*
X40297619Y-82142857D01*
X40259523Y-82104761D01*
X40183333Y-82066666D01*
X39992857Y-82066666D01*
X39916666Y-82104761D01*
X39878571Y-82142857D01*
X39840476Y-82219047D01*
X39840476Y-82409523D01*
X39878571Y-82485714D01*
X39916666Y-82523809D01*
X39992857Y-82561904D01*
X40183333Y-82561904D01*
X40259523Y-82523809D01*
X40297619Y-82485714D01*
X57566666Y-64107142D02*
X57614285Y-64154761D01*
X57757142Y-64202380D01*
X57852380Y-64202380D01*
X57995238Y-64154761D01*
X58090476Y-64059523D01*
X58138095Y-63964285D01*
X58185714Y-63773809D01*
X58185714Y-63630952D01*
X58138095Y-63440476D01*
X58090476Y-63345238D01*
X57995238Y-63250000D01*
X57852380Y-63202380D01*
X57757142Y-63202380D01*
X57614285Y-63250000D01*
X57566666Y-63297619D01*
X56709523Y-63535714D02*
X56709523Y-64202380D01*
X56947619Y-63154761D02*
X57185714Y-63869047D01*
X56566666Y-63869047D01*
X52645238Y-88797619D02*
X52740476Y-88750000D01*
X52835714Y-88654761D01*
X52978571Y-88511904D01*
X53073809Y-88464285D01*
X53169047Y-88464285D01*
X53121428Y-88702380D02*
X53216666Y-88654761D01*
X53311904Y-88559523D01*
X53359523Y-88369047D01*
X53359523Y-88035714D01*
X53311904Y-87845238D01*
X53216666Y-87750000D01*
X53121428Y-87702380D01*
X52930952Y-87702380D01*
X52835714Y-87750000D01*
X52740476Y-87845238D01*
X52692857Y-88035714D01*
X52692857Y-88369047D01*
X52740476Y-88559523D01*
X52835714Y-88654761D01*
X52930952Y-88702380D01*
X53121428Y-88702380D01*
X52311904Y-87797619D02*
X52264285Y-87750000D01*
X52169047Y-87702380D01*
X51930952Y-87702380D01*
X51835714Y-87750000D01*
X51788095Y-87797619D01*
X51740476Y-87892857D01*
X51740476Y-87988095D01*
X51788095Y-88130952D01*
X52359523Y-88702380D01*
X51740476Y-88702380D01*
D11*
X45577064Y-72615000D02*
X45122936Y-72615000D01*
X45577064Y-74085000D02*
X45122936Y-74085000D01*
X62285000Y-66538748D02*
X62285000Y-67061252D01*
X60815000Y-66538748D02*
X60815000Y-67061252D01*
X47015000Y-61927064D02*
X47015000Y-61472936D01*
X48485000Y-61927064D02*
X48485000Y-61472936D01*
X45122936Y-70615000D02*
X45577064Y-70615000D01*
X45122936Y-72085000D02*
X45577064Y-72085000D01*
X60815000Y-70610436D02*
X60815000Y-71064564D01*
X62285000Y-70610436D02*
X62285000Y-71064564D01*
X50660000Y-70475000D02*
X49750000Y-70475000D01*
X50660000Y-73050000D02*
X50660000Y-70475000D01*
X47440000Y-72625000D02*
X47440000Y-70475000D01*
X48350000Y-70475000D02*
X47440000Y-70475000D01*
X57977064Y-46935000D02*
X57522936Y-46935000D01*
X57977064Y-45465000D02*
X57522936Y-45465000D01*
X47127064Y-65065000D02*
X46672936Y-65065000D01*
X47127064Y-66535000D02*
X46672936Y-66535000D01*
X52985000Y-62361252D02*
X52985000Y-61838748D01*
X51515000Y-62361252D02*
X51515000Y-61838748D01*
X58765000Y-66538748D02*
X58765000Y-67061252D01*
X60235000Y-66538748D02*
X60235000Y-67061252D01*
X41585000Y-79472936D02*
X41585000Y-79927064D01*
X40115000Y-79472936D02*
X40115000Y-79927064D01*
X58185000Y-66526248D02*
X58185000Y-67048752D01*
X56715000Y-66526248D02*
X56715000Y-67048752D01*
X60800000Y-88880000D02*
X60530000Y-88880000D01*
X53900000Y-88880000D02*
X54170000Y-88880000D01*
X53900000Y-90380000D02*
X53900000Y-88880000D01*
X60530000Y-88880000D02*
X60530000Y-87780000D01*
X54170000Y-88880000D02*
X54170000Y-86050000D01*
X60800000Y-90380000D02*
X60800000Y-88880000D01*
%LPC*%
D12*
X49984000Y-65780000D03*
X49984000Y-63240000D03*
X49984000Y-60700000D03*
X49984000Y-58160000D03*
X42364000Y-58160000D03*
X42364000Y-65780000D03*
D13*
X90705000Y-92970000D03*
D14*
X90705000Y-87890000D03*
X90705000Y-82810000D03*
X90705000Y-77730000D03*
D15*
X54150000Y-69025000D03*
D16*
X54150000Y-71565000D03*
X54150000Y-74105000D03*
D17*
X79150000Y-94600000D03*
D18*
X79150000Y-48880000D03*
D19*
X44350000Y-93250000D03*
D15*
X41755000Y-75895000D03*
D16*
X41755000Y-73355000D03*
X41755000Y-70815000D03*
D17*
X69100000Y-94610000D03*
D18*
X69100000Y-48890000D03*
D13*
X90700000Y-70100000D03*
D14*
X90700000Y-65020000D03*
X90700000Y-59940000D03*
X90700000Y-54860000D03*
X90700000Y-49780000D03*
D19*
X44350000Y-50250000D03*
D20*
X46350000Y-73350000D03*
X44350000Y-73350000D03*
D21*
X61550000Y-65762500D03*
X61550000Y-67837500D03*
D22*
X47750000Y-62700000D03*
X47750000Y-60700000D03*
D23*
X44350000Y-71350000D03*
X46350000Y-71350000D03*
D24*
X61550000Y-69837500D03*
X61550000Y-71837500D03*
D25*
X50000000Y-72750000D03*
X48100000Y-72750000D03*
X49050000Y-70350000D03*
D20*
X58750000Y-46200000D03*
X56750000Y-46200000D03*
X47900000Y-65800000D03*
X45900000Y-65800000D03*
D26*
X52250000Y-63137500D03*
X52250000Y-61062500D03*
D21*
X59500000Y-65762500D03*
X59500000Y-67837500D03*
D24*
X40850000Y-78700000D03*
X40850000Y-80700000D03*
D21*
X57450000Y-65750000D03*
X57450000Y-67825000D03*
D27*
X55070000Y-87150000D03*
D28*
X57350000Y-93450000D03*
D27*
X59630000Y-87150000D03*
M02*
