G04 #@! TF.GenerationSoftware,KiCad,Pcbnew,(6.0.6)*
G04 #@! TF.CreationDate,2022-08-27T12:11:26+02:00*
G04 #@! TF.ProjectId,switched-load-module,73776974-6368-4656-942d-6c6f61642d6d,rev?*
G04 #@! TF.SameCoordinates,Original*
G04 #@! TF.FileFunction,Copper,L1,Top*
G04 #@! TF.FilePolarity,Positive*
%FSLAX46Y46*%
G04 Gerber Fmt 4.6, Leading zero omitted, Abs format (unit mm)*
G04 Created by KiCad (PCBNEW (6.0.6)) date 2022-08-27 12:11:26*
%MOMM*%
%LPD*%
G01*
G04 APERTURE LIST*
G04 Aperture macros list*
%AMRoundRect*
0 Rectangle with rounded corners*
0 $1 Rounding radius*
0 $2 $3 $4 $5 $6 $7 $8 $9 X,Y pos of 4 corners*
0 Add a 4 corners polygon primitive as box body*
4,1,4,$2,$3,$4,$5,$6,$7,$8,$9,$2,$3,0*
0 Add four circle primitives for the rounded corners*
1,1,$1+$1,$2,$3*
1,1,$1+$1,$4,$5*
1,1,$1+$1,$6,$7*
1,1,$1+$1,$8,$9*
0 Add four rect primitives between the rounded corners*
20,1,$1+$1,$2,$3,$4,$5,0*
20,1,$1+$1,$4,$5,$6,$7,0*
20,1,$1+$1,$6,$7,$8,$9,0*
20,1,$1+$1,$8,$9,$2,$3,0*%
%AMFreePoly0*
4,1,9,3.862500,-0.866500,0.737500,-0.866500,0.737500,-0.450000,-0.737500,-0.450000,-0.737500,0.450000,0.737500,0.450000,0.737500,0.866500,3.862500,0.866500,3.862500,-0.866500,3.862500,-0.866500,$1*%
G04 Aperture macros list end*
G04 #@! TA.AperFunction,SMDPad,CuDef*
%ADD10RoundRect,0.250000X0.450000X-0.350000X0.450000X0.350000X-0.450000X0.350000X-0.450000X-0.350000X0*%
G04 #@! TD*
G04 #@! TA.AperFunction,SMDPad,CuDef*
%ADD11R,1.800000X2.500000*%
G04 #@! TD*
G04 #@! TA.AperFunction,ComponentPad*
%ADD12C,1.515000*%
G04 #@! TD*
G04 #@! TA.AperFunction,SMDPad,CuDef*
%ADD13RoundRect,0.250000X0.475000X-0.337500X0.475000X0.337500X-0.475000X0.337500X-0.475000X-0.337500X0*%
G04 #@! TD*
G04 #@! TA.AperFunction,SMDPad,CuDef*
%ADD14RoundRect,0.250000X-0.475000X0.337500X-0.475000X-0.337500X0.475000X-0.337500X0.475000X0.337500X0*%
G04 #@! TD*
G04 #@! TA.AperFunction,SMDPad,CuDef*
%ADD15R,2.600000X2.100000*%
G04 #@! TD*
G04 #@! TA.AperFunction,ComponentPad*
%ADD16R,2.600000X2.600000*%
G04 #@! TD*
G04 #@! TA.AperFunction,ComponentPad*
%ADD17C,2.600000*%
G04 #@! TD*
G04 #@! TA.AperFunction,SMDPad,CuDef*
%ADD18RoundRect,0.250000X-0.350000X-0.450000X0.350000X-0.450000X0.350000X0.450000X-0.350000X0.450000X0*%
G04 #@! TD*
G04 #@! TA.AperFunction,SMDPad,CuDef*
%ADD19RoundRect,0.250000X0.450000X-0.325000X0.450000X0.325000X-0.450000X0.325000X-0.450000X-0.325000X0*%
G04 #@! TD*
G04 #@! TA.AperFunction,ComponentPad*
%ADD20R,1.700000X1.700000*%
G04 #@! TD*
G04 #@! TA.AperFunction,ComponentPad*
%ADD21O,1.700000X1.700000*%
G04 #@! TD*
G04 #@! TA.AperFunction,ComponentPad*
%ADD22C,2.400000*%
G04 #@! TD*
G04 #@! TA.AperFunction,ComponentPad*
%ADD23O,2.400000X2.400000*%
G04 #@! TD*
G04 #@! TA.AperFunction,SMDPad,CuDef*
%ADD24RoundRect,0.250000X0.350000X0.450000X-0.350000X0.450000X-0.350000X-0.450000X0.350000X-0.450000X0*%
G04 #@! TD*
G04 #@! TA.AperFunction,SMDPad,CuDef*
%ADD25RoundRect,0.250000X-0.325000X-0.450000X0.325000X-0.450000X0.325000X0.450000X-0.325000X0.450000X0*%
G04 #@! TD*
G04 #@! TA.AperFunction,SMDPad,CuDef*
%ADD26RoundRect,0.250000X-0.450000X0.350000X-0.450000X-0.350000X0.450000X-0.350000X0.450000X0.350000X0*%
G04 #@! TD*
G04 #@! TA.AperFunction,SMDPad,CuDef*
%ADD27R,1.300000X0.900000*%
G04 #@! TD*
G04 #@! TA.AperFunction,SMDPad,CuDef*
%ADD28FreePoly0,180.000000*%
G04 #@! TD*
G04 #@! TA.AperFunction,SMDPad,CuDef*
%ADD29R,0.650000X2.000000*%
G04 #@! TD*
G04 #@! TA.AperFunction,SMDPad,CuDef*
%ADD30R,1.600000X3.100000*%
G04 #@! TD*
G04 #@! TA.AperFunction,ViaPad*
%ADD31C,0.800000*%
G04 #@! TD*
G04 #@! TA.AperFunction,ViaPad*
%ADD32C,1.600000*%
G04 #@! TD*
G04 #@! TA.AperFunction,Conductor*
%ADD33C,0.500000*%
G04 #@! TD*
G04 #@! TA.AperFunction,Conductor*
%ADD34C,0.300000*%
G04 #@! TD*
G04 #@! TA.AperFunction,Conductor*
%ADD35C,0.254000*%
G04 #@! TD*
G04 #@! TA.AperFunction,Conductor*
%ADD36C,4.000000*%
G04 #@! TD*
G04 APERTURE END LIST*
D10*
X61550000Y-69837500D03*
X61550000Y-67837500D03*
D11*
X62150000Y-90900000D03*
X62150000Y-86900000D03*
D12*
X49984000Y-65780000D03*
X49984000Y-63240000D03*
X49984000Y-60700000D03*
X49984000Y-58160000D03*
X42364000Y-58160000D03*
X42364000Y-65780000D03*
D13*
X59087500Y-58750000D03*
X59087500Y-56675000D03*
D14*
X59087500Y-60562500D03*
X59087500Y-62637500D03*
D15*
X57750000Y-79100000D03*
X57750000Y-74200000D03*
D16*
X90705000Y-92970000D03*
D17*
X90705000Y-87890000D03*
X90705000Y-82810000D03*
X90705000Y-77730000D03*
D18*
X45500000Y-69000000D03*
X47500000Y-69000000D03*
D19*
X54250000Y-79000000D03*
X54250000Y-76950000D03*
D20*
X54150000Y-69025000D03*
D21*
X54150000Y-71565000D03*
X54150000Y-74105000D03*
D22*
X79150000Y-94600000D03*
D23*
X79150000Y-48880000D03*
D15*
X61000000Y-74200000D03*
X61000000Y-79100000D03*
D24*
X49800000Y-83850000D03*
X47800000Y-83850000D03*
D25*
X56725000Y-46200000D03*
X58775000Y-46200000D03*
D20*
X41755000Y-75895000D03*
D21*
X41755000Y-73355000D03*
X41755000Y-70815000D03*
D19*
X40850000Y-80725000D03*
X40850000Y-78675000D03*
D22*
X69100000Y-94610000D03*
D23*
X69100000Y-48890000D03*
D16*
X90700000Y-70100000D03*
D17*
X90700000Y-65020000D03*
X90700000Y-59940000D03*
X90700000Y-54860000D03*
X90700000Y-49780000D03*
D24*
X45600000Y-83850000D03*
X43600000Y-83850000D03*
D26*
X54250000Y-80925000D03*
X54250000Y-82925000D03*
D27*
X57137500Y-60950000D03*
D28*
X57050000Y-59450000D03*
D27*
X57137500Y-57950000D03*
D29*
X59550000Y-67890000D03*
X58600000Y-67890000D03*
X57650000Y-67890000D03*
X57650000Y-71310000D03*
X59550000Y-71310000D03*
D30*
X47970000Y-71955000D03*
X45430000Y-71955000D03*
X45430000Y-80845000D03*
X47970000Y-80845000D03*
D31*
X52100000Y-82800000D03*
X53790000Y-66640000D03*
X53830000Y-65400000D03*
X55490000Y-65190000D03*
X57440000Y-65760000D03*
X59520000Y-65800000D03*
X57100000Y-55000000D03*
D32*
X58040000Y-84100000D03*
D31*
X57100000Y-52000000D03*
D32*
X64040000Y-84100000D03*
X62160000Y-87190000D03*
X62040000Y-84100000D03*
D31*
X57100000Y-53500000D03*
D32*
X60040000Y-84100000D03*
X59610000Y-87190000D03*
D31*
X50900000Y-79000000D03*
X50900000Y-76050000D03*
X61550000Y-67850000D03*
D32*
X57375000Y-91150000D03*
X55400000Y-91150000D03*
X59350000Y-95650000D03*
X57375000Y-95650000D03*
X59300000Y-93450000D03*
X55400000Y-93400000D03*
X55400000Y-95650000D03*
X57300000Y-93400000D03*
X59350000Y-91150000D03*
D31*
X47500000Y-69000000D03*
X57740000Y-79110000D03*
X61550000Y-69837500D03*
X40850000Y-80700000D03*
X56750000Y-46200000D03*
D33*
X54250000Y-85050000D02*
X54950000Y-85750000D01*
X54250000Y-82925000D02*
X54250000Y-85050000D01*
X54950000Y-85750000D02*
X58050000Y-85750000D01*
D34*
X59087500Y-62637500D02*
X51921500Y-62637500D01*
X51921500Y-62637500D02*
X49984000Y-60700000D01*
X59087500Y-62637500D02*
X58825000Y-62637500D01*
X58825000Y-62637500D02*
X57137500Y-60950000D01*
D33*
X61775000Y-47925000D02*
X59087500Y-50612500D01*
D35*
X63500000Y-46200000D02*
X64500000Y-45200000D01*
D34*
X50900000Y-76050000D02*
X51450000Y-75500000D01*
X53600000Y-64100000D02*
X60600000Y-64100000D01*
D33*
X90700000Y-47000000D02*
X90700000Y-50480000D01*
X61550000Y-63150000D02*
X61550000Y-48150000D01*
D34*
X51450000Y-66250000D02*
X53600000Y-64100000D01*
D33*
X88900000Y-45200000D02*
X90700000Y-47000000D01*
X59550000Y-67890000D02*
X61510000Y-67890000D01*
D34*
X50900000Y-82750000D02*
X50900000Y-79000000D01*
D33*
X61550000Y-67837500D02*
X61550000Y-63150000D01*
X64500000Y-45200000D02*
X88900000Y-45200000D01*
D35*
X58775000Y-46200000D02*
X63500000Y-46200000D01*
D34*
X49800000Y-83850000D02*
X50900000Y-82750000D01*
D33*
X61775000Y-47925000D02*
X64500000Y-45200000D01*
D34*
X51450000Y-75500000D02*
X51450000Y-66250000D01*
D33*
X61510000Y-67890000D02*
X61550000Y-67850000D01*
D34*
X60600000Y-64100000D02*
X61550000Y-63150000D01*
D33*
X59087500Y-50612500D02*
X59087500Y-56675000D01*
D34*
X58412500Y-56675000D02*
X57137500Y-57950000D01*
X59087500Y-56675000D02*
X58412500Y-56675000D01*
D33*
X61550000Y-48150000D02*
X61775000Y-47925000D01*
D34*
X54250000Y-79000000D02*
X54250000Y-80925000D01*
X57750000Y-74200000D02*
X57750000Y-75000000D01*
X55800000Y-76950000D02*
X54250000Y-76950000D01*
X57750000Y-75000000D02*
X55800000Y-76950000D01*
X46841000Y-73909000D02*
X47970000Y-72780000D01*
X47970000Y-72780000D02*
X47970000Y-71955000D01*
X42105000Y-71564000D02*
X44450000Y-73909000D01*
X42105000Y-70815000D02*
X42105000Y-71564000D01*
X44450000Y-73909000D02*
X46841000Y-73909000D01*
D35*
X40850000Y-78675000D02*
X40400000Y-78225000D01*
X40400000Y-71650000D02*
X41235000Y-70815000D01*
X40400000Y-78225000D02*
X40400000Y-71650000D01*
X41235000Y-70815000D02*
X41755000Y-70815000D01*
D36*
X95850000Y-74800000D02*
X92920000Y-77730000D01*
X95850000Y-62300000D02*
X95850000Y-74800000D01*
X90700000Y-59940000D02*
X93490000Y-59940000D01*
X90705000Y-77730000D02*
X90705000Y-82810000D01*
X93490000Y-59940000D02*
X95850000Y-62300000D01*
X79140000Y-48890000D02*
X79150000Y-48880000D01*
X80380000Y-48880000D02*
X86360000Y-54860000D01*
X92920000Y-77730000D02*
X90705000Y-77730000D01*
X86360000Y-54860000D02*
X90700000Y-54860000D01*
X90700000Y-54860000D02*
X90700000Y-59940000D01*
X69100000Y-48890000D02*
X79140000Y-48890000D01*
X79150000Y-48880000D02*
X80380000Y-48880000D01*
X79150000Y-94600000D02*
X89075000Y-94600000D01*
X79140000Y-94610000D02*
X79150000Y-94600000D01*
X89075000Y-94600000D02*
X90705000Y-92970000D01*
X90705000Y-87890000D02*
X90705000Y-92970000D01*
X69100000Y-94610000D02*
X79140000Y-94610000D01*
X69100000Y-94610000D02*
X62660000Y-94610000D01*
D34*
X57650000Y-67890000D02*
X57650000Y-68065000D01*
X57650000Y-68065000D02*
X54150000Y-71565000D01*
X45430000Y-83680000D02*
X45600000Y-83850000D01*
X45430000Y-79220000D02*
X46050000Y-78600000D01*
X46050000Y-78600000D02*
X49655000Y-78600000D01*
X45430000Y-80845000D02*
X45430000Y-79220000D01*
X45430000Y-80845000D02*
X45430000Y-83680000D01*
X49655000Y-78600000D02*
X54150000Y-74105000D01*
X47800000Y-83850000D02*
X47970000Y-83680000D01*
X47970000Y-83680000D02*
X47970000Y-80845000D01*
X45500000Y-69000000D02*
X45500000Y-71885000D01*
X45500000Y-71885000D02*
X45430000Y-71955000D01*
X57650000Y-70600000D02*
X57650000Y-71310000D01*
X58412500Y-69837500D02*
X57650000Y-70600000D01*
X61550000Y-69837500D02*
X58412500Y-69837500D01*
G04 #@! TA.AperFunction,Conductor*
G36*
X60092121Y-71670002D02*
G01*
X60138614Y-71723658D01*
X60150000Y-71776000D01*
X60150000Y-74724000D01*
X60129998Y-74792121D01*
X60076342Y-74838614D01*
X60024000Y-74850000D01*
X58876000Y-74850000D01*
X58807879Y-74829998D01*
X58761386Y-74776342D01*
X58750000Y-74724000D01*
X58750000Y-71776000D01*
X58770002Y-71707879D01*
X58823658Y-71661386D01*
X58876000Y-71650000D01*
X60024000Y-71650000D01*
X60092121Y-71670002D01*
G37*
G04 #@! TD.AperFunction*
G04 #@! TA.AperFunction,Conductor*
G36*
X60292121Y-78470002D02*
G01*
X60338614Y-78523658D01*
X60350000Y-78576000D01*
X60350000Y-79724000D01*
X60329998Y-79792121D01*
X60276342Y-79838614D01*
X60224000Y-79850000D01*
X58676000Y-79850000D01*
X58607879Y-79829998D01*
X58561386Y-79776342D01*
X58550000Y-79724000D01*
X58550000Y-78576000D01*
X58570002Y-78507879D01*
X58623658Y-78461386D01*
X58676000Y-78450000D01*
X60224000Y-78450000D01*
X60292121Y-78470002D01*
G37*
G04 #@! TD.AperFunction*
G04 #@! TA.AperFunction,Conductor*
G36*
X57028266Y-89350646D02*
G01*
X57058432Y-89353713D01*
X57072823Y-89355177D01*
X57072824Y-89355177D01*
X57076000Y-89355500D01*
X63718500Y-89355500D01*
X63786621Y-89375502D01*
X63833114Y-89429158D01*
X63844500Y-89481500D01*
X63844500Y-91483500D01*
X63867478Y-91697229D01*
X63878864Y-91749571D01*
X63903395Y-91841266D01*
X63984487Y-92027856D01*
X63988159Y-92033080D01*
X64027084Y-92088460D01*
X64050000Y-92160915D01*
X64050000Y-97056792D01*
X64028725Y-97126854D01*
X63982004Y-97196690D01*
X63905231Y-97385099D01*
X63885229Y-97453220D01*
X63865083Y-97534094D01*
X63844500Y-97736500D01*
X63844500Y-97824000D01*
X63824498Y-97892121D01*
X63770842Y-97938614D01*
X63718500Y-97950000D01*
X50826000Y-97950000D01*
X50757879Y-97929998D01*
X50711386Y-97876342D01*
X50700000Y-97824000D01*
X50700000Y-89476000D01*
X50720002Y-89407879D01*
X50773658Y-89361386D01*
X50826000Y-89350000D01*
X57015521Y-89350000D01*
X57028266Y-89350646D01*
G37*
G04 #@! TD.AperFunction*
G04 #@! TA.AperFunction,Conductor*
G36*
X67064670Y-46470502D02*
G01*
X67111163Y-46524158D01*
X67121267Y-46594432D01*
X67091773Y-46659012D01*
X67082321Y-46668799D01*
X66930688Y-46809705D01*
X66928336Y-46812459D01*
X66928333Y-46812462D01*
X66792296Y-46971742D01*
X66705962Y-47072826D01*
X66703945Y-47075828D01*
X66703944Y-47075829D01*
X66693848Y-47090854D01*
X66512967Y-47360033D01*
X66354261Y-47667518D01*
X66231950Y-47991207D01*
X66147652Y-48326810D01*
X66128667Y-48471019D01*
X66108095Y-48627282D01*
X66102487Y-48669876D01*
X66097051Y-49015861D01*
X66131419Y-49360177D01*
X66132190Y-49363714D01*
X66132191Y-49363719D01*
X66198940Y-49669855D01*
X66205133Y-49698261D01*
X66317217Y-50025633D01*
X66466186Y-50337952D01*
X66468117Y-50341031D01*
X66468118Y-50341032D01*
X66495414Y-50384546D01*
X66650064Y-50631079D01*
X66866415Y-50901129D01*
X67112371Y-51144523D01*
X67115229Y-51146764D01*
X67162031Y-51183461D01*
X67384672Y-51358034D01*
X67679709Y-51538832D01*
X67682999Y-51540359D01*
X67683008Y-51540364D01*
X67944601Y-51661791D01*
X67993570Y-51684522D01*
X67997017Y-51685662D01*
X68318652Y-51792033D01*
X68318657Y-51792034D01*
X68322097Y-51793172D01*
X68325652Y-51793908D01*
X68325655Y-51793909D01*
X68657385Y-51862607D01*
X68657388Y-51862607D01*
X68660935Y-51863342D01*
X68814833Y-51877077D01*
X68962440Y-51890251D01*
X68962446Y-51890251D01*
X68965233Y-51890500D01*
X78967017Y-51890500D01*
X78975462Y-51890965D01*
X78975467Y-51890878D01*
X78979096Y-51891068D01*
X78982700Y-51891466D01*
X79094680Y-51890879D01*
X79162903Y-51910523D01*
X79184434Y-51927782D01*
X84116003Y-56859351D01*
X84121654Y-56865660D01*
X84121719Y-56865601D01*
X84124143Y-56868294D01*
X84126415Y-56871129D01*
X84128995Y-56873682D01*
X84257457Y-57000806D01*
X84257708Y-57001056D01*
X84300685Y-57044033D01*
X84302058Y-57045256D01*
X84302062Y-57045260D01*
X84302778Y-57045898D01*
X84307581Y-57050408D01*
X84350372Y-57092753D01*
X84372371Y-57114523D01*
X84375228Y-57116763D01*
X84375238Y-57116772D01*
X84431201Y-57160653D01*
X84437273Y-57165729D01*
X84483054Y-57206518D01*
X84493087Y-57215457D01*
X84496049Y-57217539D01*
X84496057Y-57217545D01*
X84567653Y-57267862D01*
X84572947Y-57271794D01*
X84644672Y-57328034D01*
X84665030Y-57340509D01*
X84708416Y-57367096D01*
X84715019Y-57371433D01*
X84776190Y-57414425D01*
X84779371Y-57416152D01*
X84779374Y-57416154D01*
X84856306Y-57457925D01*
X84862017Y-57461223D01*
X84939709Y-57508832D01*
X84943005Y-57510362D01*
X85007500Y-57540300D01*
X85014571Y-57543856D01*
X85080284Y-57579535D01*
X85098740Y-57586954D01*
X85164870Y-57613538D01*
X85170925Y-57616159D01*
X85253570Y-57654522D01*
X85257017Y-57655662D01*
X85324552Y-57677997D01*
X85331970Y-57680712D01*
X85401341Y-57708599D01*
X85404844Y-57709557D01*
X85404849Y-57709559D01*
X85454698Y-57723196D01*
X85489255Y-57732649D01*
X85495564Y-57734554D01*
X85578650Y-57762033D01*
X85578666Y-57762037D01*
X85582097Y-57763172D01*
X85585637Y-57763905D01*
X85585644Y-57763907D01*
X85655305Y-57778333D01*
X85663000Y-57780181D01*
X85735104Y-57799906D01*
X85738693Y-57800455D01*
X85738692Y-57800455D01*
X85825199Y-57813693D01*
X85831689Y-57814861D01*
X85901534Y-57829324D01*
X85920935Y-57833342D01*
X85924557Y-57833665D01*
X85924562Y-57833666D01*
X85995393Y-57839987D01*
X86003254Y-57840938D01*
X86077149Y-57852246D01*
X86168229Y-57855586D01*
X86174806Y-57856000D01*
X86182923Y-57856724D01*
X86222439Y-57860251D01*
X86222447Y-57860251D01*
X86225233Y-57860500D01*
X86299944Y-57860500D01*
X86304561Y-57860585D01*
X86419305Y-57864793D01*
X86419313Y-57864793D01*
X86422944Y-57864926D01*
X86426564Y-57864641D01*
X86426567Y-57864641D01*
X86474249Y-57860888D01*
X86484135Y-57860500D01*
X87573500Y-57860500D01*
X87641621Y-57880502D01*
X87688114Y-57934158D01*
X87699500Y-57986500D01*
X87699500Y-59909029D01*
X87699484Y-59911008D01*
X87697051Y-60065861D01*
X87697412Y-60069475D01*
X87697412Y-60069481D01*
X87707731Y-60172861D01*
X87708145Y-60178122D01*
X87714334Y-60285453D01*
X87714957Y-60289022D01*
X87714957Y-60289023D01*
X87724369Y-60342952D01*
X87725622Y-60352100D01*
X87731419Y-60410177D01*
X87732192Y-60413722D01*
X87754323Y-60515227D01*
X87755339Y-60520404D01*
X87773826Y-60626328D01*
X87790405Y-60682297D01*
X87792697Y-60691225D01*
X87805133Y-60748261D01*
X87806308Y-60751692D01*
X87806308Y-60751693D01*
X87839967Y-60850002D01*
X87841571Y-60855031D01*
X87871069Y-60954617D01*
X87871072Y-60954625D01*
X87872103Y-60958106D01*
X87873526Y-60961441D01*
X87895000Y-61011786D01*
X87898309Y-61020407D01*
X87917217Y-61075633D01*
X87918779Y-61078907D01*
X87963510Y-61172689D01*
X87965681Y-61177498D01*
X88007862Y-61276389D01*
X88009665Y-61279550D01*
X88009667Y-61279554D01*
X88036784Y-61327095D01*
X88041061Y-61335275D01*
X88066186Y-61387952D01*
X88068122Y-61391038D01*
X88123308Y-61479012D01*
X88126019Y-61483540D01*
X88179304Y-61576959D01*
X88181450Y-61579881D01*
X88181455Y-61579888D01*
X88213859Y-61623999D01*
X88219051Y-61631639D01*
X88250064Y-61681079D01*
X88317312Y-61765019D01*
X88320494Y-61769166D01*
X88382007Y-61852907D01*
X88382019Y-61852922D01*
X88384157Y-61855832D01*
X88408388Y-61881907D01*
X88423885Y-61898585D01*
X88429918Y-61905574D01*
X88452787Y-61934119D01*
X88466415Y-61951129D01*
X88542876Y-62026795D01*
X88546499Y-62030534D01*
X88619705Y-62109312D01*
X88622455Y-62111661D01*
X88622472Y-62111677D01*
X88664091Y-62147222D01*
X88670878Y-62153462D01*
X88712371Y-62194523D01*
X88715238Y-62196771D01*
X88796978Y-62260864D01*
X88801061Y-62264205D01*
X88882826Y-62334038D01*
X88931264Y-62366587D01*
X88938732Y-62372013D01*
X88984672Y-62408034D01*
X88987771Y-62409933D01*
X89076347Y-62464213D01*
X89080787Y-62467063D01*
X89170033Y-62527033D01*
X89173265Y-62528701D01*
X89221902Y-62553805D01*
X89229942Y-62558335D01*
X89279709Y-62588832D01*
X89377233Y-62634101D01*
X89381946Y-62636411D01*
X89474279Y-62684068D01*
X89474290Y-62684073D01*
X89477518Y-62685739D01*
X89519298Y-62701526D01*
X89532125Y-62706373D01*
X89540639Y-62709952D01*
X89593570Y-62734522D01*
X89597016Y-62735662D01*
X89597022Y-62735664D01*
X89695655Y-62768283D01*
X89700621Y-62770042D01*
X89801207Y-62808050D01*
X89804723Y-62808933D01*
X89804732Y-62808936D01*
X89857811Y-62822268D01*
X89866680Y-62824845D01*
X89918641Y-62842030D01*
X89918656Y-62842034D01*
X89922097Y-62843172D01*
X89925652Y-62843908D01*
X89925655Y-62843909D01*
X90027375Y-62864974D01*
X90032519Y-62866152D01*
X90136810Y-62892348D01*
X90194681Y-62899966D01*
X90203768Y-62901503D01*
X90260935Y-62913342D01*
X90264554Y-62913665D01*
X90264561Y-62913666D01*
X90334121Y-62919874D01*
X90368041Y-62922901D01*
X90373265Y-62923478D01*
X90410612Y-62928394D01*
X90476272Y-62937039D01*
X90476280Y-62937040D01*
X90479876Y-62937513D01*
X90538232Y-62938429D01*
X90547434Y-62938911D01*
X90565233Y-62940500D01*
X90669029Y-62940500D01*
X90671008Y-62940516D01*
X90822220Y-62942892D01*
X90822224Y-62942892D01*
X90825861Y-62942949D01*
X90829474Y-62942588D01*
X90829482Y-62942588D01*
X90844156Y-62941123D01*
X90856670Y-62940500D01*
X92194962Y-62940500D01*
X92263083Y-62960502D01*
X92284057Y-62977405D01*
X92812595Y-63505943D01*
X92846621Y-63568255D01*
X92849500Y-63595038D01*
X92849500Y-73504962D01*
X92829498Y-73573083D01*
X92812595Y-73594057D01*
X91714057Y-74692595D01*
X91651745Y-74726621D01*
X91624962Y-74729500D01*
X90735971Y-74729500D01*
X90733992Y-74729484D01*
X90582781Y-74727108D01*
X90582777Y-74727108D01*
X90579139Y-74727051D01*
X90575525Y-74727412D01*
X90575519Y-74727412D01*
X90472139Y-74737731D01*
X90466878Y-74738145D01*
X90363167Y-74744125D01*
X90363163Y-74744126D01*
X90359547Y-74744334D01*
X90355978Y-74744957D01*
X90355977Y-74744957D01*
X90302048Y-74754369D01*
X90292900Y-74755622D01*
X90276434Y-74757266D01*
X90234823Y-74761419D01*
X90231277Y-74762192D01*
X90231278Y-74762192D01*
X90129773Y-74784323D01*
X90124596Y-74785339D01*
X90018672Y-74803826D01*
X89962703Y-74820405D01*
X89953772Y-74822698D01*
X89900288Y-74834359D01*
X89900285Y-74834360D01*
X89896739Y-74835133D01*
X89893308Y-74836308D01*
X89893307Y-74836308D01*
X89794998Y-74869967D01*
X89789969Y-74871571D01*
X89690383Y-74901069D01*
X89690375Y-74901072D01*
X89686894Y-74902103D01*
X89633214Y-74925000D01*
X89624593Y-74928309D01*
X89573075Y-74945948D01*
X89569367Y-74947217D01*
X89502831Y-74978953D01*
X89472311Y-74993510D01*
X89467502Y-74995681D01*
X89368611Y-75037862D01*
X89365450Y-75039665D01*
X89365446Y-75039667D01*
X89317905Y-75066784D01*
X89309725Y-75071061D01*
X89257048Y-75096186D01*
X89253962Y-75098122D01*
X89165988Y-75153308D01*
X89161460Y-75156019D01*
X89068041Y-75209304D01*
X89065119Y-75211450D01*
X89065112Y-75211455D01*
X89021001Y-75243859D01*
X89013361Y-75249051D01*
X88963921Y-75280064D01*
X88879981Y-75347312D01*
X88875834Y-75350494D01*
X88792093Y-75412007D01*
X88792078Y-75412019D01*
X88789168Y-75414157D01*
X88774178Y-75428087D01*
X88746415Y-75453885D01*
X88739426Y-75459918D01*
X88696704Y-75494145D01*
X88693871Y-75496415D01*
X88618205Y-75572876D01*
X88614466Y-75576499D01*
X88535688Y-75649705D01*
X88533339Y-75652455D01*
X88533323Y-75652472D01*
X88497778Y-75694091D01*
X88491538Y-75700878D01*
X88450477Y-75742371D01*
X88448229Y-75745238D01*
X88384136Y-75826978D01*
X88380795Y-75831061D01*
X88310962Y-75912826D01*
X88278517Y-75961109D01*
X88278413Y-75961264D01*
X88272987Y-75968732D01*
X88236966Y-76014672D01*
X88235067Y-76017771D01*
X88180787Y-76106347D01*
X88177937Y-76110787D01*
X88117967Y-76200033D01*
X88091919Y-76250500D01*
X88091195Y-76251902D01*
X88086665Y-76259942D01*
X88056168Y-76309709D01*
X88010899Y-76407233D01*
X88008589Y-76411946D01*
X87960932Y-76504279D01*
X87960927Y-76504290D01*
X87959261Y-76507518D01*
X87957977Y-76510917D01*
X87938627Y-76562125D01*
X87935048Y-76570639D01*
X87910478Y-76623570D01*
X87909338Y-76627016D01*
X87909336Y-76627022D01*
X87876717Y-76725655D01*
X87874958Y-76730621D01*
X87836950Y-76831207D01*
X87836067Y-76834723D01*
X87836064Y-76834732D01*
X87822732Y-76887811D01*
X87820155Y-76896680D01*
X87802970Y-76948641D01*
X87802966Y-76948656D01*
X87801828Y-76952097D01*
X87801092Y-76955652D01*
X87801091Y-76955655D01*
X87780026Y-77057375D01*
X87778848Y-77062519D01*
X87752652Y-77166810D01*
X87752178Y-77170411D01*
X87745035Y-77224673D01*
X87743497Y-77233768D01*
X87731658Y-77290935D01*
X87731335Y-77294554D01*
X87731334Y-77294561D01*
X87722100Y-77398032D01*
X87721521Y-77403278D01*
X87709261Y-77496404D01*
X87707487Y-77509876D01*
X87706954Y-77543848D01*
X87706571Y-77568223D01*
X87706089Y-77577434D01*
X87704500Y-77595233D01*
X87704500Y-77699029D01*
X87704484Y-77701008D01*
X87702341Y-77837431D01*
X87702051Y-77855861D01*
X87702412Y-77859474D01*
X87702412Y-77859482D01*
X87703877Y-77874156D01*
X87704500Y-77886670D01*
X87704500Y-82898189D01*
X87719334Y-83155453D01*
X87719957Y-83159022D01*
X87719957Y-83159023D01*
X87735042Y-83245454D01*
X87778826Y-83496328D01*
X87877103Y-83828106D01*
X88012862Y-84146389D01*
X88184304Y-84446959D01*
X88186443Y-84449871D01*
X88186445Y-84449874D01*
X88260306Y-84550422D01*
X88389157Y-84725832D01*
X88624705Y-84979312D01*
X88887826Y-85204038D01*
X88890819Y-85206049D01*
X88890828Y-85206056D01*
X88947061Y-85243842D01*
X88992446Y-85298438D01*
X89001109Y-85368904D01*
X88970301Y-85432868D01*
X88955569Y-85446755D01*
X88693871Y-85656415D01*
X88450477Y-85902371D01*
X88236966Y-86174672D01*
X88056168Y-86469709D01*
X88054641Y-86472999D01*
X88054636Y-86473008D01*
X88015672Y-86556949D01*
X87910478Y-86783570D01*
X87801828Y-87112097D01*
X87731658Y-87450935D01*
X87704500Y-87755233D01*
X87704500Y-91473500D01*
X87684498Y-91541621D01*
X87630842Y-91588114D01*
X87578500Y-91599500D01*
X79322983Y-91599500D01*
X79314538Y-91599035D01*
X79314533Y-91599122D01*
X79310904Y-91598932D01*
X79307300Y-91598534D01*
X79195015Y-91599122D01*
X79123213Y-91599498D01*
X79122553Y-91599500D01*
X79061811Y-91599500D01*
X79060031Y-91599603D01*
X79059979Y-91599604D01*
X79058977Y-91599662D01*
X79052409Y-91599868D01*
X78971362Y-91600293D01*
X78961277Y-91600346D01*
X78957676Y-91600782D01*
X78957672Y-91600782D01*
X78893176Y-91608587D01*
X78878039Y-91609500D01*
X64976000Y-91609500D01*
X64907879Y-91589498D01*
X64861386Y-91535842D01*
X64850000Y-91483500D01*
X64850000Y-88350000D01*
X57076000Y-88350000D01*
X57007879Y-88329998D01*
X56961386Y-88276342D01*
X56950000Y-88224000D01*
X56950000Y-81706000D01*
X56970002Y-81637879D01*
X57023658Y-81591386D01*
X57076000Y-81580000D01*
X64550000Y-81580000D01*
X64550000Y-71418828D01*
X89146001Y-71418828D01*
X89147209Y-71431088D01*
X89158315Y-71486931D01*
X89167633Y-71509427D01*
X89209983Y-71572808D01*
X89227192Y-71590017D01*
X89290575Y-71632368D01*
X89313066Y-71641684D01*
X89368915Y-71652793D01*
X89381170Y-71654000D01*
X90056885Y-71654000D01*
X90072124Y-71649525D01*
X90073329Y-71648135D01*
X90075000Y-71640452D01*
X90075000Y-71635884D01*
X91325000Y-71635884D01*
X91329475Y-71651123D01*
X91330865Y-71652328D01*
X91338548Y-71653999D01*
X92018828Y-71653999D01*
X92031088Y-71652791D01*
X92086931Y-71641685D01*
X92109427Y-71632367D01*
X92172808Y-71590017D01*
X92190017Y-71572808D01*
X92232368Y-71509425D01*
X92241684Y-71486934D01*
X92252793Y-71431085D01*
X92254000Y-71418830D01*
X92254000Y-70743115D01*
X92249525Y-70727876D01*
X92248135Y-70726671D01*
X92240452Y-70725000D01*
X91343115Y-70725000D01*
X91327876Y-70729475D01*
X91326671Y-70730865D01*
X91325000Y-70738548D01*
X91325000Y-71635884D01*
X90075000Y-71635884D01*
X90075000Y-70743115D01*
X90070525Y-70727876D01*
X90069135Y-70726671D01*
X90061452Y-70725000D01*
X89164116Y-70725000D01*
X89148877Y-70729475D01*
X89147672Y-70730865D01*
X89146001Y-70738548D01*
X89146001Y-71418828D01*
X64550000Y-71418828D01*
X64550000Y-69456885D01*
X89146000Y-69456885D01*
X89150475Y-69472124D01*
X89151865Y-69473329D01*
X89159548Y-69475000D01*
X90056885Y-69475000D01*
X90072124Y-69470525D01*
X90073329Y-69469135D01*
X90075000Y-69461452D01*
X90075000Y-69456885D01*
X91325000Y-69456885D01*
X91329475Y-69472124D01*
X91330865Y-69473329D01*
X91338548Y-69475000D01*
X92235884Y-69475000D01*
X92251123Y-69470525D01*
X92252328Y-69469135D01*
X92253999Y-69461452D01*
X92253999Y-68781172D01*
X92252791Y-68768912D01*
X92241685Y-68713069D01*
X92232367Y-68690573D01*
X92190017Y-68627192D01*
X92172808Y-68609983D01*
X92109425Y-68567632D01*
X92086934Y-68558316D01*
X92031085Y-68547207D01*
X92018830Y-68546000D01*
X91343115Y-68546000D01*
X91327876Y-68550475D01*
X91326671Y-68551865D01*
X91325000Y-68559548D01*
X91325000Y-69456885D01*
X90075000Y-69456885D01*
X90075000Y-68564116D01*
X90070525Y-68548877D01*
X90069135Y-68547672D01*
X90061452Y-68546001D01*
X89381172Y-68546001D01*
X89368912Y-68547209D01*
X89313069Y-68558315D01*
X89290573Y-68567633D01*
X89227192Y-68609983D01*
X89209983Y-68627192D01*
X89167632Y-68690575D01*
X89158316Y-68713066D01*
X89147207Y-68768915D01*
X89146000Y-68781170D01*
X89146000Y-69456885D01*
X64550000Y-69456885D01*
X64550000Y-66467832D01*
X90141672Y-66467832D01*
X90144861Y-66472092D01*
X90213729Y-66500618D01*
X90223115Y-66503667D01*
X90451336Y-66558459D01*
X90461083Y-66560002D01*
X90695070Y-66578417D01*
X90704930Y-66578417D01*
X90938917Y-66560002D01*
X90948664Y-66558459D01*
X91176885Y-66503667D01*
X91186271Y-66500618D01*
X91247643Y-66475196D01*
X91258624Y-66466348D01*
X91257308Y-66461192D01*
X90712812Y-65916696D01*
X90698868Y-65909082D01*
X90697035Y-65909213D01*
X90690420Y-65913464D01*
X90148432Y-66455452D01*
X90141672Y-66467832D01*
X64550000Y-66467832D01*
X64550000Y-65024930D01*
X89141583Y-65024930D01*
X89159998Y-65258917D01*
X89161541Y-65268664D01*
X89216333Y-65496885D01*
X89219382Y-65506271D01*
X89244804Y-65567643D01*
X89253652Y-65578624D01*
X89258808Y-65577308D01*
X89803304Y-65032812D01*
X89809682Y-65021132D01*
X91589082Y-65021132D01*
X91589213Y-65022965D01*
X91593464Y-65029580D01*
X92135452Y-65571568D01*
X92147832Y-65578328D01*
X92152092Y-65575139D01*
X92180618Y-65506271D01*
X92183667Y-65496885D01*
X92238459Y-65268664D01*
X92240002Y-65258917D01*
X92258417Y-65024930D01*
X92258417Y-65015070D01*
X92240002Y-64781083D01*
X92238459Y-64771336D01*
X92183667Y-64543115D01*
X92180618Y-64533729D01*
X92155196Y-64472357D01*
X92146348Y-64461376D01*
X92141192Y-64462692D01*
X91596696Y-65007188D01*
X91589082Y-65021132D01*
X89809682Y-65021132D01*
X89810918Y-65018868D01*
X89810787Y-65017035D01*
X89806536Y-65010420D01*
X89264548Y-64468432D01*
X89252168Y-64461672D01*
X89247908Y-64464861D01*
X89219382Y-64533729D01*
X89216333Y-64543115D01*
X89161541Y-64771336D01*
X89159998Y-64781083D01*
X89141583Y-65015070D01*
X89141583Y-65024930D01*
X64550000Y-65024930D01*
X64550000Y-63573652D01*
X90141376Y-63573652D01*
X90142692Y-63578808D01*
X90687188Y-64123304D01*
X90701132Y-64130918D01*
X90702965Y-64130787D01*
X90709580Y-64126536D01*
X91251568Y-63584548D01*
X91258328Y-63572168D01*
X91255139Y-63567908D01*
X91186271Y-63539382D01*
X91176885Y-63536333D01*
X90948664Y-63481541D01*
X90938917Y-63479998D01*
X90704930Y-63461583D01*
X90695070Y-63461583D01*
X90461083Y-63479998D01*
X90451336Y-63481541D01*
X90223115Y-63536333D01*
X90213729Y-63539382D01*
X90152357Y-63564804D01*
X90141376Y-63573652D01*
X64550000Y-63573652D01*
X64550000Y-46970665D01*
X64570002Y-46902544D01*
X64586905Y-46881570D01*
X64981070Y-46487405D01*
X65043382Y-46453379D01*
X65070165Y-46450500D01*
X66996549Y-46450500D01*
X67064670Y-46470502D01*
G37*
G04 #@! TD.AperFunction*
G04 #@! TA.AperFunction,Conductor*
G36*
X55960448Y-45270002D02*
G01*
X56006941Y-45323658D01*
X56017045Y-45393932D01*
X55993153Y-45451565D01*
X55958311Y-45498054D01*
X55958309Y-45498057D01*
X55952929Y-45505236D01*
X55902202Y-45640552D01*
X55895500Y-45702244D01*
X55895500Y-46697756D01*
X55902202Y-46759448D01*
X55952929Y-46894764D01*
X55958309Y-46901943D01*
X55958311Y-46901946D01*
X56024287Y-46989977D01*
X56039596Y-47010404D01*
X56046776Y-47015785D01*
X56148054Y-47091689D01*
X56148057Y-47091691D01*
X56155236Y-47097071D01*
X56244954Y-47130704D01*
X56283157Y-47145026D01*
X56283159Y-47145026D01*
X56290552Y-47147798D01*
X56298402Y-47148651D01*
X56298403Y-47148651D01*
X56348847Y-47154131D01*
X56352244Y-47154500D01*
X57097756Y-47154500D01*
X57101153Y-47154131D01*
X57151597Y-47148651D01*
X57151598Y-47148651D01*
X57159448Y-47147798D01*
X57166841Y-47145026D01*
X57166843Y-47145026D01*
X57205046Y-47130704D01*
X57294764Y-47097071D01*
X57301943Y-47091691D01*
X57301946Y-47091689D01*
X57403224Y-47015785D01*
X57410404Y-47010404D01*
X57425713Y-46989977D01*
X57491689Y-46901946D01*
X57491691Y-46901943D01*
X57497071Y-46894764D01*
X57547798Y-46759448D01*
X57554500Y-46697756D01*
X57554500Y-45702244D01*
X57547798Y-45640552D01*
X57497071Y-45505236D01*
X57491691Y-45498057D01*
X57491689Y-45498054D01*
X57456847Y-45451565D01*
X57431999Y-45385058D01*
X57447052Y-45315676D01*
X57497226Y-45265446D01*
X57557673Y-45250000D01*
X57942327Y-45250000D01*
X58010448Y-45270002D01*
X58056941Y-45323658D01*
X58067045Y-45393932D01*
X58043153Y-45451565D01*
X58008311Y-45498054D01*
X58008309Y-45498057D01*
X58002929Y-45505236D01*
X57952202Y-45640552D01*
X57945500Y-45702244D01*
X57945500Y-46697756D01*
X57952202Y-46759448D01*
X58002929Y-46894764D01*
X58008309Y-46901943D01*
X58008311Y-46901946D01*
X58074287Y-46989977D01*
X58089596Y-47010404D01*
X58096776Y-47015785D01*
X58198054Y-47091689D01*
X58198057Y-47091691D01*
X58205236Y-47097071D01*
X58294954Y-47130704D01*
X58333157Y-47145026D01*
X58333159Y-47145026D01*
X58340552Y-47147798D01*
X58348402Y-47148651D01*
X58348403Y-47148651D01*
X58398847Y-47154131D01*
X58402244Y-47154500D01*
X59147756Y-47154500D01*
X59151153Y-47154131D01*
X59201597Y-47148651D01*
X59201598Y-47148651D01*
X59209448Y-47147798D01*
X59216841Y-47145026D01*
X59216843Y-47145026D01*
X59255046Y-47130704D01*
X59344764Y-47097071D01*
X59351943Y-47091691D01*
X59351946Y-47091689D01*
X59453224Y-47015785D01*
X59460404Y-47010404D01*
X59475713Y-46989977D01*
X59541689Y-46901946D01*
X59541691Y-46901943D01*
X59547071Y-46894764D01*
X59597798Y-46759448D01*
X59604500Y-46697756D01*
X59605169Y-46697829D01*
X59627808Y-46633754D01*
X59683896Y-46590227D01*
X59729972Y-46581500D01*
X62100839Y-46581500D01*
X62168960Y-46601502D01*
X62215453Y-46655158D01*
X62225557Y-46725432D01*
X62196063Y-46790012D01*
X62189934Y-46796595D01*
X61243206Y-47743323D01*
X61233766Y-47750865D01*
X61234089Y-47751245D01*
X61227253Y-47757063D01*
X61219661Y-47761853D01*
X61213719Y-47768581D01*
X61184329Y-47801859D01*
X61178983Y-47807546D01*
X58780706Y-50205823D01*
X58771266Y-50213365D01*
X58771589Y-50213745D01*
X58764753Y-50219563D01*
X58757161Y-50224353D01*
X58751219Y-50231081D01*
X58721829Y-50264359D01*
X58716483Y-50270046D01*
X58705149Y-50281380D01*
X58702464Y-50284963D01*
X58702462Y-50284965D01*
X58698947Y-50289655D01*
X58692562Y-50297498D01*
X58661499Y-50332670D01*
X58657686Y-50340792D01*
X58655846Y-50343593D01*
X58647437Y-50357588D01*
X58645815Y-50360551D01*
X58640430Y-50367736D01*
X58637277Y-50376146D01*
X58637276Y-50376148D01*
X58623954Y-50411682D01*
X58620030Y-50420995D01*
X58600083Y-50463482D01*
X58598701Y-50472356D01*
X58597715Y-50475583D01*
X58593575Y-50491366D01*
X58592854Y-50494644D01*
X58589702Y-50503052D01*
X58589037Y-50512003D01*
X58586224Y-50549857D01*
X58585070Y-50559904D01*
X58585040Y-50560100D01*
X58583000Y-50573197D01*
X58583000Y-50588562D01*
X58582654Y-50597899D01*
X58578993Y-50647167D01*
X58580866Y-50655942D01*
X58581459Y-50664638D01*
X58583000Y-50679238D01*
X58583000Y-55722403D01*
X58562998Y-55790524D01*
X58509342Y-55837017D01*
X58501229Y-55840385D01*
X58443852Y-55861895D01*
X58367736Y-55890429D01*
X58360557Y-55895809D01*
X58360554Y-55895811D01*
X58272523Y-55961787D01*
X58252096Y-55977096D01*
X58246715Y-55984276D01*
X58170811Y-56085554D01*
X58170809Y-56085557D01*
X58165429Y-56092736D01*
X58114702Y-56228052D01*
X58108000Y-56289744D01*
X58108000Y-56355260D01*
X58087998Y-56423381D01*
X58071095Y-56444355D01*
X57306855Y-57208595D01*
X57244543Y-57242621D01*
X57217760Y-57245500D01*
X56548042Y-57245501D01*
X56462434Y-57245501D01*
X56426682Y-57252612D01*
X56400374Y-57257844D01*
X56400372Y-57257845D01*
X56388199Y-57260266D01*
X56377879Y-57267161D01*
X56377878Y-57267162D01*
X56319390Y-57306243D01*
X56304016Y-57316516D01*
X56247766Y-57400699D01*
X56233000Y-57474933D01*
X56233001Y-58425066D01*
X56240112Y-58460818D01*
X56244415Y-58482452D01*
X56247766Y-58499301D01*
X56254661Y-58509621D01*
X56254662Y-58509622D01*
X56282976Y-58551996D01*
X56304016Y-58583484D01*
X56388199Y-58639734D01*
X56462433Y-58654500D01*
X57137390Y-58654500D01*
X57812566Y-58654499D01*
X57848318Y-58647388D01*
X57874626Y-58642156D01*
X57874628Y-58642155D01*
X57886801Y-58639734D01*
X57897121Y-58632839D01*
X57897122Y-58632838D01*
X57960668Y-58590377D01*
X57970984Y-58583484D01*
X57992024Y-58551996D01*
X58046502Y-58506470D01*
X58096788Y-58496000D01*
X60302384Y-58496000D01*
X60317623Y-58491525D01*
X60318828Y-58490135D01*
X60320499Y-58482452D01*
X60320499Y-58365405D01*
X60320162Y-58358886D01*
X60310243Y-58263294D01*
X60307351Y-58249900D01*
X60255912Y-58095716D01*
X60249739Y-58082538D01*
X60164437Y-57944693D01*
X60155401Y-57933292D01*
X60040671Y-57818761D01*
X60029260Y-57809749D01*
X59891257Y-57724684D01*
X59878074Y-57718536D01*
X59812490Y-57696783D01*
X59754130Y-57656353D01*
X59726893Y-57590788D01*
X59739426Y-57520907D01*
X59791647Y-57466670D01*
X59798857Y-57462723D01*
X59807264Y-57459571D01*
X59834004Y-57439531D01*
X59915724Y-57378285D01*
X59922904Y-57372904D01*
X59964836Y-57316954D01*
X60004189Y-57264446D01*
X60004191Y-57264443D01*
X60009571Y-57257264D01*
X60044823Y-57163229D01*
X60057526Y-57129343D01*
X60057526Y-57129341D01*
X60060298Y-57121948D01*
X60067000Y-57060256D01*
X60067000Y-56289744D01*
X60060298Y-56228052D01*
X60009571Y-56092736D01*
X60004191Y-56085557D01*
X60004189Y-56085554D01*
X59928285Y-55984276D01*
X59922904Y-55977096D01*
X59902477Y-55961787D01*
X59814446Y-55895811D01*
X59814443Y-55895809D01*
X59807264Y-55890429D01*
X59731148Y-55861895D01*
X59673771Y-55840385D01*
X59617006Y-55797744D01*
X59592306Y-55731182D01*
X59592000Y-55722403D01*
X59592000Y-50873661D01*
X59612002Y-50805540D01*
X59628905Y-50784566D01*
X60830405Y-49583066D01*
X60892717Y-49549040D01*
X60963532Y-49554105D01*
X61020368Y-49596652D01*
X61045179Y-49663172D01*
X61045500Y-49672161D01*
X61045500Y-63030260D01*
X61025498Y-63098381D01*
X61008595Y-63119355D01*
X60469355Y-63658595D01*
X60407043Y-63692621D01*
X60380260Y-63695500D01*
X59772942Y-63695500D01*
X59704821Y-63675498D01*
X59658328Y-63621842D01*
X59648224Y-63551568D01*
X59677718Y-63486988D01*
X59728713Y-63451518D01*
X59807264Y-63422071D01*
X59814443Y-63416691D01*
X59814446Y-63416689D01*
X59915724Y-63340785D01*
X59922904Y-63335404D01*
X59990302Y-63245475D01*
X60004189Y-63226946D01*
X60004191Y-63226943D01*
X60009571Y-63219764D01*
X60060298Y-63084448D01*
X60062737Y-63062002D01*
X60066631Y-63026153D01*
X60066631Y-63026152D01*
X60067000Y-63022756D01*
X60067000Y-62252244D01*
X60064875Y-62232679D01*
X60061151Y-62198403D01*
X60061151Y-62198402D01*
X60060298Y-62190552D01*
X60009571Y-62055236D01*
X60004191Y-62048057D01*
X60004189Y-62048054D01*
X59928285Y-61946776D01*
X59922904Y-61939596D01*
X59807264Y-61852929D01*
X59798855Y-61849777D01*
X59791626Y-61845819D01*
X59741479Y-61795562D01*
X59726464Y-61726171D01*
X59751348Y-61659678D01*
X59812257Y-61615774D01*
X59879284Y-61593412D01*
X59892462Y-61587239D01*
X60030307Y-61501937D01*
X60041708Y-61492901D01*
X60156239Y-61378171D01*
X60165251Y-61366760D01*
X60250316Y-61228757D01*
X60256463Y-61215576D01*
X60307638Y-61061290D01*
X60310505Y-61047914D01*
X60320172Y-60953562D01*
X60320500Y-60947146D01*
X60320500Y-60834615D01*
X60316025Y-60819376D01*
X60314635Y-60818171D01*
X60306952Y-60816500D01*
X58959500Y-60816500D01*
X58891379Y-60796498D01*
X58844886Y-60742842D01*
X58833500Y-60690500D01*
X58833500Y-60290385D01*
X59341500Y-60290385D01*
X59345975Y-60305624D01*
X59347365Y-60306829D01*
X59355048Y-60308500D01*
X60302384Y-60308500D01*
X60317623Y-60304025D01*
X60318828Y-60302635D01*
X60320499Y-60294952D01*
X60320499Y-60177905D01*
X60320162Y-60171386D01*
X60310243Y-60075794D01*
X60307351Y-60062400D01*
X60255912Y-59908216D01*
X60249739Y-59895038D01*
X60164437Y-59757193D01*
X60155401Y-59745793D01*
X60154934Y-59745326D01*
X60154716Y-59744928D01*
X60150854Y-59740055D01*
X60151688Y-59739394D01*
X60120854Y-59683044D01*
X60125856Y-59612224D01*
X60151921Y-59571591D01*
X60151701Y-59571417D01*
X60153464Y-59569185D01*
X60154782Y-59567130D01*
X60156240Y-59565669D01*
X60165251Y-59554260D01*
X60250316Y-59416257D01*
X60256463Y-59403076D01*
X60307638Y-59248790D01*
X60310505Y-59235414D01*
X60320172Y-59141062D01*
X60320500Y-59134646D01*
X60320500Y-59022115D01*
X60316025Y-59006876D01*
X60314635Y-59005671D01*
X60306952Y-59004000D01*
X59359615Y-59004000D01*
X59344376Y-59008475D01*
X59343171Y-59009865D01*
X59341500Y-59017548D01*
X59341500Y-60290385D01*
X58833500Y-60290385D01*
X58833500Y-59022115D01*
X58829025Y-59006876D01*
X58827635Y-59005671D01*
X58819952Y-59004000D01*
X57872616Y-59004000D01*
X57857377Y-59008475D01*
X57856172Y-59009865D01*
X57854501Y-59017548D01*
X57854501Y-59134595D01*
X57854838Y-59141114D01*
X57864757Y-59236706D01*
X57867649Y-59250100D01*
X57919088Y-59404284D01*
X57925261Y-59417462D01*
X58010563Y-59555307D01*
X58019599Y-59566707D01*
X58020066Y-59567174D01*
X58020284Y-59567572D01*
X58024146Y-59572445D01*
X58023312Y-59573106D01*
X58054146Y-59629456D01*
X58049144Y-59700276D01*
X58023079Y-59740909D01*
X58023299Y-59741083D01*
X58021536Y-59743315D01*
X58020218Y-59745370D01*
X58018760Y-59746831D01*
X58009749Y-59758240D01*
X57924684Y-59896243D01*
X57918537Y-59909424D01*
X57867362Y-60063710D01*
X57864495Y-60077086D01*
X57858833Y-60132343D01*
X57831991Y-60198070D01*
X57773876Y-60238852D01*
X57733489Y-60245500D01*
X56560432Y-60245501D01*
X56462434Y-60245501D01*
X56426682Y-60252612D01*
X56400374Y-60257844D01*
X56400372Y-60257845D01*
X56388199Y-60260266D01*
X56377879Y-60267161D01*
X56377878Y-60267162D01*
X56324790Y-60302635D01*
X56304016Y-60316516D01*
X56247766Y-60400699D01*
X56233000Y-60474933D01*
X56233001Y-61425066D01*
X56247766Y-61499301D01*
X56254661Y-61509621D01*
X56254662Y-61509622D01*
X56295016Y-61570015D01*
X56304016Y-61583484D01*
X56388199Y-61639734D01*
X56462433Y-61654500D01*
X56548016Y-61654500D01*
X57217760Y-61654499D01*
X57285881Y-61674501D01*
X57306855Y-61691404D01*
X57633356Y-62017905D01*
X57667382Y-62080217D01*
X57662317Y-62151032D01*
X57619770Y-62207868D01*
X57553250Y-62232679D01*
X57544261Y-62233000D01*
X52141239Y-62233000D01*
X52073118Y-62212998D01*
X52052144Y-62196095D01*
X50982155Y-61126106D01*
X50948129Y-61063794D01*
X50951692Y-60997241D01*
X50975626Y-60925292D01*
X51000501Y-60728393D01*
X51000897Y-60700000D01*
X50981530Y-60502484D01*
X50979749Y-60496585D01*
X50979748Y-60496580D01*
X50925949Y-60318390D01*
X50924168Y-60312491D01*
X50863329Y-60198070D01*
X50833889Y-60142700D01*
X50833887Y-60142697D01*
X50830995Y-60137258D01*
X50827105Y-60132488D01*
X50827102Y-60132484D01*
X50709455Y-59988235D01*
X50709452Y-59988232D01*
X50705560Y-59983460D01*
X50699171Y-59978174D01*
X50557390Y-59860882D01*
X50552642Y-59856954D01*
X50547225Y-59854025D01*
X50547222Y-59854023D01*
X50383483Y-59765490D01*
X50383478Y-59765488D01*
X50378063Y-59762560D01*
X50188476Y-59703873D01*
X50182351Y-59703229D01*
X50182350Y-59703229D01*
X49997227Y-59683772D01*
X49997226Y-59683772D01*
X49991099Y-59683128D01*
X49868421Y-59694292D01*
X49799594Y-59700556D01*
X49799593Y-59700556D01*
X49793453Y-59701115D01*
X49787539Y-59702856D01*
X49787537Y-59702856D01*
X49663393Y-59739394D01*
X49603064Y-59757150D01*
X49427185Y-59849097D01*
X49272514Y-59973455D01*
X49144945Y-60125487D01*
X49141981Y-60130879D01*
X49141978Y-60130883D01*
X49105042Y-60198070D01*
X49049334Y-60299402D01*
X48989325Y-60488575D01*
X48988639Y-60494692D01*
X48988638Y-60494696D01*
X48967889Y-60679677D01*
X48967202Y-60685802D01*
X48967718Y-60691946D01*
X48978419Y-60819376D01*
X48983809Y-60883569D01*
X49038513Y-61074345D01*
X49041331Y-61079827D01*
X49041332Y-61079831D01*
X49126410Y-61245375D01*
X49126413Y-61245379D01*
X49129230Y-61250861D01*
X49252506Y-61406396D01*
X49257200Y-61410391D01*
X49281577Y-61431137D01*
X49403643Y-61535024D01*
X49576886Y-61631847D01*
X49765636Y-61693175D01*
X49962704Y-61716674D01*
X49968839Y-61716202D01*
X49968841Y-61716202D01*
X50154440Y-61701921D01*
X50154444Y-61701920D01*
X50160582Y-61701448D01*
X50287302Y-61666067D01*
X50358291Y-61667013D01*
X50410280Y-61698330D01*
X50551568Y-61839618D01*
X50585594Y-61901930D01*
X50580529Y-61972745D01*
X50537982Y-62029581D01*
X50471462Y-62054392D01*
X50419372Y-62047112D01*
X50413169Y-62044854D01*
X50209902Y-61990388D01*
X50199113Y-61988486D01*
X49989475Y-61970145D01*
X49978525Y-61970145D01*
X49768887Y-61988486D01*
X49758098Y-61990388D01*
X49554829Y-62044854D01*
X49544535Y-62048602D01*
X49353817Y-62137534D01*
X49344329Y-62143012D01*
X49301466Y-62173025D01*
X49293091Y-62183502D01*
X49300159Y-62196949D01*
X51027772Y-63924562D01*
X51039547Y-63930992D01*
X51051562Y-63921696D01*
X51080988Y-63879671D01*
X51086466Y-63870183D01*
X51175398Y-63679465D01*
X51179146Y-63669171D01*
X51233612Y-63465902D01*
X51235514Y-63455113D01*
X51253855Y-63245475D01*
X51253855Y-63234525D01*
X51235514Y-63024887D01*
X51233612Y-63014098D01*
X51179144Y-62810825D01*
X51176887Y-62804623D01*
X51172382Y-62733770D01*
X51206899Y-62671729D01*
X51269479Y-62638197D01*
X51340252Y-62643822D01*
X51384382Y-62672431D01*
X51680777Y-62968826D01*
X51700660Y-62978957D01*
X51717513Y-62989284D01*
X51735571Y-63002405D01*
X51756795Y-63009301D01*
X51775061Y-63016866D01*
X51794945Y-63026998D01*
X51804738Y-63028549D01*
X51816987Y-63030489D01*
X51836213Y-63035105D01*
X51848000Y-63038935D01*
X51848002Y-63038935D01*
X51857434Y-63042000D01*
X58011461Y-63042000D01*
X58079582Y-63062002D01*
X58126075Y-63115658D01*
X58129443Y-63123771D01*
X58165429Y-63219764D01*
X58170809Y-63226943D01*
X58170811Y-63226946D01*
X58184698Y-63245475D01*
X58252096Y-63335404D01*
X58259276Y-63340785D01*
X58360554Y-63416689D01*
X58360557Y-63416691D01*
X58367736Y-63422071D01*
X58446287Y-63451518D01*
X58503052Y-63494159D01*
X58527752Y-63560720D01*
X58512545Y-63630069D01*
X58462259Y-63680188D01*
X58402058Y-63695500D01*
X53535934Y-63695500D01*
X53526501Y-63698565D01*
X53514714Y-63702395D01*
X53495483Y-63707012D01*
X53489363Y-63707981D01*
X53483244Y-63708950D01*
X53483243Y-63708950D01*
X53473445Y-63710502D01*
X53464610Y-63715004D01*
X53464606Y-63715005D01*
X53453557Y-63720635D01*
X53435295Y-63728199D01*
X53423503Y-63732031D01*
X53423501Y-63732032D01*
X53414071Y-63735096D01*
X53396017Y-63748213D01*
X53379160Y-63758543D01*
X53359277Y-63768674D01*
X53336489Y-63791462D01*
X53336485Y-63791465D01*
X51214592Y-65913358D01*
X51152280Y-65947384D01*
X51081465Y-65942319D01*
X51024629Y-65899772D01*
X50999818Y-65833252D01*
X51000333Y-65815428D01*
X50999814Y-65815392D01*
X51000059Y-65811894D01*
X51000501Y-65808393D01*
X51000897Y-65780000D01*
X50981530Y-65582484D01*
X50979749Y-65576585D01*
X50979748Y-65576580D01*
X50925949Y-65398390D01*
X50924168Y-65392491D01*
X50830995Y-65217258D01*
X50827105Y-65212488D01*
X50827102Y-65212484D01*
X50709455Y-65068235D01*
X50709452Y-65068232D01*
X50705560Y-65063460D01*
X50699171Y-65058174D01*
X50557390Y-64940882D01*
X50552642Y-64936954D01*
X50547225Y-64934025D01*
X50547222Y-64934023D01*
X50383483Y-64845490D01*
X50383478Y-64845488D01*
X50378063Y-64842560D01*
X50188476Y-64783873D01*
X50182351Y-64783229D01*
X50182350Y-64783229D01*
X49997227Y-64763772D01*
X49997226Y-64763772D01*
X49991099Y-64763128D01*
X49868421Y-64774292D01*
X49799594Y-64780556D01*
X49799593Y-64780556D01*
X49793453Y-64781115D01*
X49787539Y-64782856D01*
X49787537Y-64782856D01*
X49657937Y-64821000D01*
X49603064Y-64837150D01*
X49427185Y-64929097D01*
X49272514Y-65053455D01*
X49144945Y-65205487D01*
X49141981Y-65210879D01*
X49141978Y-65210883D01*
X49135482Y-65222700D01*
X49049334Y-65379402D01*
X48989325Y-65568575D01*
X48988639Y-65574692D01*
X48988638Y-65574696D01*
X48967889Y-65759677D01*
X48967202Y-65765802D01*
X48967718Y-65771946D01*
X48982025Y-65942319D01*
X48983809Y-65963569D01*
X49038513Y-66154345D01*
X49041331Y-66159827D01*
X49041332Y-66159831D01*
X49126410Y-66325375D01*
X49126413Y-66325379D01*
X49129230Y-66330861D01*
X49252506Y-66486396D01*
X49257200Y-66490391D01*
X49368443Y-66585066D01*
X49403643Y-66615024D01*
X49576886Y-66711847D01*
X49765636Y-66773175D01*
X49962704Y-66796674D01*
X49968839Y-66796202D01*
X49968841Y-66796202D01*
X50154440Y-66781921D01*
X50154444Y-66781920D01*
X50160582Y-66781448D01*
X50351735Y-66728077D01*
X50435335Y-66685848D01*
X50523380Y-66641374D01*
X50523382Y-66641373D01*
X50528881Y-66638595D01*
X50542980Y-66627580D01*
X50597394Y-66585066D01*
X50685272Y-66516408D01*
X50689298Y-66511744D01*
X50689301Y-66511741D01*
X50810923Y-66370840D01*
X50810924Y-66370838D01*
X50814952Y-66366172D01*
X50817057Y-66362467D01*
X50872152Y-66318743D01*
X50942796Y-66311680D01*
X51006044Y-66343932D01*
X51041815Y-66405259D01*
X51045500Y-66435508D01*
X51045500Y-75269560D01*
X51025498Y-75337681D01*
X50971842Y-75384174D01*
X50918841Y-75395558D01*
X50824221Y-75395062D01*
X50816841Y-75396834D01*
X50816839Y-75396834D01*
X50677563Y-75430271D01*
X50677560Y-75430272D01*
X50670184Y-75432043D01*
X50529414Y-75504700D01*
X50410039Y-75608838D01*
X50318950Y-75738444D01*
X50261406Y-75886037D01*
X50260414Y-75893570D01*
X50260414Y-75893571D01*
X50250068Y-75972162D01*
X50240729Y-76043096D01*
X50249275Y-76120500D01*
X50249921Y-76126349D01*
X50258113Y-76200553D01*
X50260723Y-76207684D01*
X50260723Y-76207686D01*
X50284177Y-76271776D01*
X50312553Y-76349319D01*
X50316789Y-76355622D01*
X50316789Y-76355623D01*
X50338976Y-76388640D01*
X50400908Y-76480805D01*
X50406527Y-76485918D01*
X50406528Y-76485919D01*
X50447723Y-76523403D01*
X50518076Y-76587419D01*
X50657293Y-76663008D01*
X50664635Y-76664934D01*
X50664637Y-76664935D01*
X50732198Y-76682659D01*
X50793014Y-76719293D01*
X50824369Y-76782990D01*
X50816310Y-76853527D01*
X50789320Y-76893630D01*
X49524355Y-78158595D01*
X49462043Y-78192621D01*
X49435260Y-78195500D01*
X46018166Y-78195500D01*
X46018162Y-78195501D01*
X45985934Y-78195501D01*
X45976497Y-78198567D01*
X45976498Y-78198567D01*
X45964718Y-78202394D01*
X45945493Y-78207010D01*
X45923445Y-78210502D01*
X45903560Y-78220634D01*
X45885296Y-78228199D01*
X45873507Y-78232030D01*
X45873506Y-78232031D01*
X45864071Y-78235096D01*
X45856047Y-78240926D01*
X45856045Y-78240927D01*
X45846023Y-78248209D01*
X45829164Y-78258541D01*
X45809277Y-78268674D01*
X45786485Y-78291466D01*
X45121465Y-78956485D01*
X45121462Y-78956489D01*
X45098674Y-78979277D01*
X45094169Y-78988119D01*
X45093846Y-78988563D01*
X45037623Y-79031916D01*
X44991910Y-79040501D01*
X44604934Y-79040501D01*
X44569182Y-79047612D01*
X44542874Y-79052844D01*
X44542872Y-79052845D01*
X44530699Y-79055266D01*
X44520379Y-79062161D01*
X44520378Y-79062162D01*
X44496439Y-79078158D01*
X44446516Y-79111516D01*
X44390266Y-79195699D01*
X44375500Y-79269933D01*
X44375501Y-82420066D01*
X44390266Y-82494301D01*
X44397161Y-82504620D01*
X44397162Y-82504622D01*
X44403651Y-82514333D01*
X44424866Y-82582086D01*
X44406083Y-82650553D01*
X44353266Y-82697996D01*
X44283183Y-82709353D01*
X44259219Y-82703928D01*
X44111293Y-82654863D01*
X44097914Y-82651995D01*
X44003562Y-82642328D01*
X43997145Y-82642000D01*
X43872115Y-82642000D01*
X43856876Y-82646475D01*
X43855671Y-82647865D01*
X43854000Y-82655548D01*
X43854000Y-83978000D01*
X43833998Y-84046121D01*
X43780342Y-84092614D01*
X43728000Y-84104000D01*
X42510116Y-84104000D01*
X42494877Y-84108475D01*
X42493672Y-84109865D01*
X42492001Y-84117548D01*
X42492001Y-84347095D01*
X42492338Y-84353614D01*
X42502257Y-84449206D01*
X42505149Y-84462600D01*
X42556588Y-84616784D01*
X42562761Y-84629962D01*
X42648063Y-84767807D01*
X42657099Y-84779208D01*
X42771829Y-84893739D01*
X42783240Y-84902751D01*
X42838381Y-84936740D01*
X42885874Y-84989512D01*
X42897298Y-85059583D01*
X42869024Y-85124707D01*
X42810030Y-85164207D01*
X42772265Y-85170000D01*
X39476000Y-85170000D01*
X39407879Y-85149998D01*
X39361386Y-85096342D01*
X39350000Y-85044000D01*
X39350000Y-83577885D01*
X42492000Y-83577885D01*
X42496475Y-83593124D01*
X42497865Y-83594329D01*
X42505548Y-83596000D01*
X43327885Y-83596000D01*
X43343124Y-83591525D01*
X43344329Y-83590135D01*
X43346000Y-83582452D01*
X43346000Y-82660116D01*
X43341525Y-82644877D01*
X43340135Y-82643672D01*
X43332452Y-82642001D01*
X43202905Y-82642001D01*
X43196386Y-82642338D01*
X43100794Y-82652257D01*
X43087400Y-82655149D01*
X42933216Y-82706588D01*
X42920038Y-82712761D01*
X42782193Y-82798063D01*
X42770792Y-82807099D01*
X42656261Y-82921829D01*
X42647249Y-82933240D01*
X42562184Y-83071243D01*
X42556037Y-83084424D01*
X42504862Y-83238710D01*
X42501995Y-83252086D01*
X42492328Y-83346438D01*
X42492000Y-83352855D01*
X42492000Y-83577885D01*
X39350000Y-83577885D01*
X39350000Y-81097756D01*
X39895500Y-81097756D01*
X39902202Y-81159448D01*
X39952929Y-81294764D01*
X39958309Y-81301943D01*
X39958311Y-81301946D01*
X40014259Y-81376597D01*
X40039596Y-81410404D01*
X40046776Y-81415785D01*
X40148054Y-81491689D01*
X40148057Y-81491691D01*
X40155236Y-81497071D01*
X40234929Y-81526946D01*
X40283157Y-81545026D01*
X40283159Y-81545026D01*
X40290552Y-81547798D01*
X40298402Y-81548651D01*
X40298403Y-81548651D01*
X40348847Y-81554131D01*
X40352244Y-81554500D01*
X41347756Y-81554500D01*
X41351153Y-81554131D01*
X41401597Y-81548651D01*
X41401598Y-81548651D01*
X41409448Y-81547798D01*
X41416841Y-81545026D01*
X41416843Y-81545026D01*
X41465071Y-81526946D01*
X41544764Y-81497071D01*
X41551943Y-81491691D01*
X41551946Y-81491689D01*
X41653224Y-81415785D01*
X41660404Y-81410404D01*
X41685741Y-81376597D01*
X41741689Y-81301946D01*
X41741691Y-81301943D01*
X41747071Y-81294764D01*
X41797798Y-81159448D01*
X41804500Y-81097756D01*
X41804500Y-80352244D01*
X41797798Y-80290552D01*
X41747071Y-80155236D01*
X41741691Y-80148057D01*
X41741689Y-80148054D01*
X41665785Y-80046776D01*
X41660404Y-80039596D01*
X41593772Y-79989658D01*
X41551946Y-79958311D01*
X41551943Y-79958309D01*
X41544764Y-79952929D01*
X41431162Y-79910342D01*
X41416843Y-79904974D01*
X41416841Y-79904974D01*
X41409448Y-79902202D01*
X41401598Y-79901349D01*
X41401597Y-79901349D01*
X41351153Y-79895869D01*
X41351152Y-79895869D01*
X41347756Y-79895500D01*
X40352244Y-79895500D01*
X40348848Y-79895869D01*
X40348847Y-79895869D01*
X40298403Y-79901349D01*
X40298402Y-79901349D01*
X40290552Y-79902202D01*
X40283159Y-79904974D01*
X40283157Y-79904974D01*
X40268838Y-79910342D01*
X40155236Y-79952929D01*
X40148057Y-79958309D01*
X40148054Y-79958311D01*
X40106228Y-79989658D01*
X40039596Y-80039596D01*
X40034215Y-80046776D01*
X39958311Y-80148054D01*
X39958309Y-80148057D01*
X39952929Y-80155236D01*
X39902202Y-80290552D01*
X39895500Y-80352244D01*
X39895500Y-81097756D01*
X39350000Y-81097756D01*
X39350000Y-79047756D01*
X39895500Y-79047756D01*
X39902202Y-79109448D01*
X39952929Y-79244764D01*
X39958309Y-79251943D01*
X39958311Y-79251946D01*
X39998540Y-79305623D01*
X40039596Y-79360404D01*
X40046776Y-79365785D01*
X40148054Y-79441689D01*
X40148057Y-79441691D01*
X40155236Y-79447071D01*
X40236585Y-79477567D01*
X40283157Y-79495026D01*
X40283159Y-79495026D01*
X40290552Y-79497798D01*
X40298402Y-79498651D01*
X40298403Y-79498651D01*
X40348847Y-79504131D01*
X40352244Y-79504500D01*
X41347756Y-79504500D01*
X41351153Y-79504131D01*
X41401597Y-79498651D01*
X41401598Y-79498651D01*
X41409448Y-79497798D01*
X41416841Y-79495026D01*
X41416843Y-79495026D01*
X41463415Y-79477567D01*
X41544764Y-79447071D01*
X41551943Y-79441691D01*
X41551946Y-79441689D01*
X41653224Y-79365785D01*
X41660404Y-79360404D01*
X41701460Y-79305623D01*
X41741689Y-79251946D01*
X41741691Y-79251943D01*
X41747071Y-79244764D01*
X41797798Y-79109448D01*
X41804500Y-79047756D01*
X41804500Y-78302244D01*
X41800364Y-78264174D01*
X41798651Y-78248403D01*
X41798651Y-78248402D01*
X41797798Y-78240552D01*
X41794604Y-78232030D01*
X41759081Y-78137274D01*
X41747071Y-78105236D01*
X41741691Y-78098057D01*
X41741689Y-78098054D01*
X41665785Y-77996776D01*
X41660404Y-77989596D01*
X41608504Y-77950699D01*
X41551946Y-77908311D01*
X41551943Y-77908309D01*
X41544764Y-77902929D01*
X41447631Y-77866516D01*
X41416843Y-77854974D01*
X41416841Y-77854974D01*
X41409448Y-77852202D01*
X41401598Y-77851349D01*
X41401597Y-77851349D01*
X41351153Y-77845869D01*
X41351152Y-77845869D01*
X41347756Y-77845500D01*
X40907500Y-77845500D01*
X40839379Y-77825498D01*
X40792886Y-77771842D01*
X40781500Y-77719500D01*
X40781500Y-77125500D01*
X40801502Y-77057379D01*
X40855158Y-77010886D01*
X40907500Y-76999500D01*
X42309188Y-76999499D01*
X42630066Y-76999499D01*
X42665818Y-76992388D01*
X42692126Y-76987156D01*
X42692128Y-76987155D01*
X42704301Y-76984734D01*
X42714621Y-76977839D01*
X42714622Y-76977838D01*
X42778168Y-76935377D01*
X42788484Y-76928484D01*
X42844734Y-76844301D01*
X42859500Y-76770067D01*
X42859499Y-75019934D01*
X42844734Y-74945699D01*
X42788484Y-74861516D01*
X42704301Y-74805266D01*
X42630067Y-74790500D01*
X42309264Y-74790500D01*
X40907500Y-74790501D01*
X40839379Y-74770499D01*
X40792886Y-74716843D01*
X40781500Y-74664501D01*
X40781500Y-74247362D01*
X40801502Y-74179241D01*
X40855158Y-74132748D01*
X40925432Y-74122644D01*
X40990012Y-74152138D01*
X40995415Y-74157102D01*
X41056938Y-74217035D01*
X41225720Y-74329812D01*
X41231023Y-74332090D01*
X41231026Y-74332092D01*
X41317896Y-74369414D01*
X41412228Y-74409942D01*
X41485244Y-74426464D01*
X41604579Y-74453467D01*
X41604584Y-74453468D01*
X41610216Y-74454742D01*
X41615987Y-74454969D01*
X41615989Y-74454969D01*
X41675756Y-74457317D01*
X41813053Y-74462712D01*
X41913499Y-74448148D01*
X42008231Y-74434413D01*
X42008236Y-74434412D01*
X42013945Y-74433584D01*
X42019409Y-74431729D01*
X42019414Y-74431728D01*
X42200693Y-74370192D01*
X42200698Y-74370190D01*
X42206165Y-74368334D01*
X42224206Y-74358231D01*
X42324632Y-74301989D01*
X42383276Y-74269147D01*
X42393332Y-74260784D01*
X42534913Y-74143031D01*
X42539345Y-74139345D01*
X42669147Y-73983276D01*
X42768334Y-73806165D01*
X42770190Y-73800698D01*
X42770192Y-73800693D01*
X42831728Y-73619414D01*
X42831729Y-73619409D01*
X42833584Y-73613945D01*
X42834412Y-73608236D01*
X42834413Y-73608231D01*
X42859006Y-73438614D01*
X42862712Y-73413053D01*
X42864232Y-73355000D01*
X42849608Y-73195848D01*
X42863293Y-73126183D01*
X42912469Y-73074976D01*
X42981524Y-73058484D01*
X43048532Y-73081944D01*
X43064174Y-73095224D01*
X44186485Y-74217535D01*
X44186489Y-74217538D01*
X44209277Y-74240326D01*
X44229154Y-74250454D01*
X44246011Y-74260784D01*
X44264071Y-74273905D01*
X44273504Y-74276970D01*
X44285295Y-74280801D01*
X44303561Y-74288366D01*
X44323445Y-74298498D01*
X44333238Y-74300049D01*
X44345487Y-74301989D01*
X44364713Y-74306605D01*
X44376500Y-74310435D01*
X44376502Y-74310435D01*
X44385934Y-74313500D01*
X46905066Y-74313500D01*
X46914498Y-74310435D01*
X46914500Y-74310435D01*
X46926287Y-74306605D01*
X46945513Y-74301989D01*
X46957762Y-74300049D01*
X46967555Y-74298498D01*
X46987439Y-74288366D01*
X47005705Y-74280801D01*
X47017496Y-74276970D01*
X47026929Y-74273905D01*
X47044989Y-74260784D01*
X47061846Y-74250454D01*
X47081723Y-74240326D01*
X47104511Y-74217538D01*
X47104515Y-74217535D01*
X47525645Y-73796405D01*
X47587957Y-73762379D01*
X47614740Y-73759500D01*
X48664402Y-73759499D01*
X48795066Y-73759499D01*
X48830818Y-73752388D01*
X48857126Y-73747156D01*
X48857128Y-73747155D01*
X48869301Y-73744734D01*
X48879621Y-73737839D01*
X48879622Y-73737838D01*
X48943168Y-73695377D01*
X48953484Y-73688484D01*
X49009734Y-73604301D01*
X49024500Y-73530067D01*
X49024499Y-70379934D01*
X49016161Y-70338011D01*
X49012156Y-70317874D01*
X49012155Y-70317872D01*
X49009734Y-70305699D01*
X48999993Y-70291120D01*
X48960377Y-70231832D01*
X48953484Y-70221516D01*
X48869301Y-70165266D01*
X48795067Y-70150500D01*
X48113792Y-70150500D01*
X48045671Y-70130498D01*
X47999178Y-70076842D01*
X47989074Y-70006568D01*
X48018568Y-69941988D01*
X48069561Y-69906519D01*
X48094764Y-69897071D01*
X48101943Y-69891691D01*
X48101946Y-69891689D01*
X48203224Y-69815785D01*
X48210404Y-69810404D01*
X48252987Y-69753586D01*
X48291689Y-69701946D01*
X48291691Y-69701943D01*
X48297071Y-69694764D01*
X48347798Y-69559448D01*
X48353586Y-69506174D01*
X48354131Y-69501153D01*
X48354131Y-69501152D01*
X48354500Y-69497756D01*
X48354500Y-68502244D01*
X48347798Y-68440552D01*
X48338033Y-68414502D01*
X48300221Y-68313640D01*
X48297071Y-68305236D01*
X48291691Y-68298057D01*
X48291689Y-68298054D01*
X48215785Y-68196776D01*
X48210404Y-68189596D01*
X48157482Y-68149933D01*
X48101946Y-68108311D01*
X48101943Y-68108309D01*
X48094764Y-68102929D01*
X47994601Y-68065380D01*
X47966843Y-68054974D01*
X47966841Y-68054974D01*
X47959448Y-68052202D01*
X47951598Y-68051349D01*
X47951597Y-68051349D01*
X47901153Y-68045869D01*
X47901152Y-68045869D01*
X47897756Y-68045500D01*
X47102244Y-68045500D01*
X47098848Y-68045869D01*
X47098847Y-68045869D01*
X47048403Y-68051349D01*
X47048402Y-68051349D01*
X47040552Y-68052202D01*
X47033159Y-68054974D01*
X47033157Y-68054974D01*
X47005399Y-68065380D01*
X46905236Y-68102929D01*
X46898057Y-68108309D01*
X46898054Y-68108311D01*
X46842518Y-68149933D01*
X46789596Y-68189596D01*
X46784215Y-68196776D01*
X46708311Y-68298054D01*
X46708309Y-68298057D01*
X46702929Y-68305236D01*
X46699779Y-68313640D01*
X46661968Y-68414502D01*
X46652202Y-68440552D01*
X46645500Y-68502244D01*
X46645500Y-69497756D01*
X46645869Y-69501152D01*
X46645869Y-69501153D01*
X46646415Y-69506174D01*
X46652202Y-69559448D01*
X46702929Y-69694764D01*
X46708309Y-69701943D01*
X46708311Y-69701946D01*
X46747013Y-69753586D01*
X46789596Y-69810404D01*
X46796776Y-69815785D01*
X46898054Y-69891689D01*
X46898057Y-69891691D01*
X46905236Y-69897071D01*
X47006379Y-69934987D01*
X47038293Y-69946951D01*
X47095058Y-69989592D01*
X47119758Y-70056153D01*
X47104551Y-70125502D01*
X47064068Y-70169696D01*
X46986516Y-70221516D01*
X46979623Y-70231832D01*
X46940008Y-70291120D01*
X46930266Y-70305699D01*
X46915500Y-70379933D01*
X46915501Y-71818231D01*
X46915501Y-73210259D01*
X46895499Y-73278380D01*
X46878596Y-73299354D01*
X46710355Y-73467595D01*
X46648043Y-73501621D01*
X46621260Y-73504500D01*
X46610500Y-73504500D01*
X46542379Y-73484498D01*
X46495886Y-73430842D01*
X46484500Y-73378500D01*
X46484499Y-70386123D01*
X46484499Y-70379934D01*
X46476161Y-70338011D01*
X46472156Y-70317874D01*
X46472155Y-70317872D01*
X46469734Y-70305699D01*
X46459993Y-70291120D01*
X46420377Y-70231832D01*
X46413484Y-70221516D01*
X46329301Y-70165266D01*
X46255067Y-70150500D01*
X46113793Y-70150500D01*
X46045672Y-70130498D01*
X45999179Y-70076842D01*
X45989075Y-70006568D01*
X46018569Y-69941988D01*
X46069564Y-69906518D01*
X46071795Y-69905681D01*
X46094764Y-69897071D01*
X46101943Y-69891691D01*
X46101946Y-69891689D01*
X46203224Y-69815785D01*
X46210404Y-69810404D01*
X46252987Y-69753586D01*
X46291689Y-69701946D01*
X46291691Y-69701943D01*
X46297071Y-69694764D01*
X46347798Y-69559448D01*
X46353586Y-69506174D01*
X46354131Y-69501153D01*
X46354131Y-69501152D01*
X46354500Y-69497756D01*
X46354500Y-68502244D01*
X46347798Y-68440552D01*
X46338033Y-68414502D01*
X46300221Y-68313640D01*
X46297071Y-68305236D01*
X46291691Y-68298057D01*
X46291689Y-68298054D01*
X46215785Y-68196776D01*
X46210404Y-68189596D01*
X46157482Y-68149933D01*
X46101946Y-68108311D01*
X46101943Y-68108309D01*
X46094764Y-68102929D01*
X45994601Y-68065380D01*
X45966843Y-68054974D01*
X45966841Y-68054974D01*
X45959448Y-68052202D01*
X45951598Y-68051349D01*
X45951597Y-68051349D01*
X45901153Y-68045869D01*
X45901152Y-68045869D01*
X45897756Y-68045500D01*
X45102244Y-68045500D01*
X45098848Y-68045869D01*
X45098847Y-68045869D01*
X45048403Y-68051349D01*
X45048402Y-68051349D01*
X45040552Y-68052202D01*
X45033159Y-68054974D01*
X45033157Y-68054974D01*
X45005399Y-68065380D01*
X44905236Y-68102929D01*
X44898057Y-68108309D01*
X44898054Y-68108311D01*
X44842518Y-68149933D01*
X44789596Y-68189596D01*
X44784215Y-68196776D01*
X44708311Y-68298054D01*
X44708309Y-68298057D01*
X44702929Y-68305236D01*
X44699779Y-68313640D01*
X44661968Y-68414502D01*
X44652202Y-68440552D01*
X44645500Y-68502244D01*
X44645500Y-69497756D01*
X44645869Y-69501152D01*
X44645869Y-69501153D01*
X44646415Y-69506174D01*
X44652202Y-69559448D01*
X44702929Y-69694764D01*
X44708309Y-69701943D01*
X44708311Y-69701946D01*
X44747013Y-69753586D01*
X44789596Y-69810404D01*
X44796776Y-69815785D01*
X44898054Y-69891689D01*
X44898057Y-69891691D01*
X44905236Y-69897071D01*
X44913640Y-69900221D01*
X44913639Y-69900221D01*
X44930439Y-69906519D01*
X44987204Y-69949160D01*
X45011904Y-70015721D01*
X44996697Y-70085070D01*
X44946411Y-70135189D01*
X44886210Y-70150501D01*
X44604934Y-70150501D01*
X44569182Y-70157612D01*
X44542874Y-70162844D01*
X44542872Y-70162845D01*
X44530699Y-70165266D01*
X44520379Y-70172161D01*
X44520378Y-70172162D01*
X44478148Y-70200380D01*
X44446516Y-70221516D01*
X44439623Y-70231832D01*
X44400008Y-70291120D01*
X44390266Y-70305699D01*
X44375500Y-70379933D01*
X44375501Y-71818231D01*
X44375501Y-72958261D01*
X44355499Y-73026382D01*
X44301843Y-73072875D01*
X44231569Y-73082979D01*
X44166989Y-73053485D01*
X44160406Y-73047356D01*
X42696089Y-71583039D01*
X42662063Y-71520727D01*
X42667128Y-71449912D01*
X42675250Y-71432378D01*
X42680399Y-71423185D01*
X42768334Y-71266165D01*
X42770190Y-71260698D01*
X42770192Y-71260693D01*
X42831728Y-71079414D01*
X42831729Y-71079409D01*
X42833584Y-71073945D01*
X42834412Y-71068236D01*
X42834413Y-71068231D01*
X42862179Y-70876727D01*
X42862712Y-70873053D01*
X42864232Y-70815000D01*
X42848588Y-70644741D01*
X42846187Y-70618613D01*
X42846186Y-70618610D01*
X42845658Y-70612859D01*
X42839931Y-70592551D01*
X42792125Y-70423046D01*
X42792124Y-70423044D01*
X42790557Y-70417487D01*
X42779978Y-70396033D01*
X42703331Y-70240609D01*
X42700776Y-70235428D01*
X42690388Y-70221516D01*
X42622421Y-70130498D01*
X42579320Y-70072779D01*
X42483953Y-69984622D01*
X42434503Y-69938911D01*
X42430258Y-69934987D01*
X42425375Y-69931906D01*
X42425371Y-69931903D01*
X42263464Y-69829748D01*
X42258581Y-69826667D01*
X42070039Y-69751446D01*
X42064379Y-69750320D01*
X42064375Y-69750319D01*
X41876613Y-69712971D01*
X41876610Y-69712971D01*
X41870946Y-69711844D01*
X41865171Y-69711768D01*
X41865167Y-69711768D01*
X41763793Y-69710441D01*
X41667971Y-69709187D01*
X41662274Y-69710166D01*
X41662273Y-69710166D01*
X41473607Y-69742585D01*
X41467910Y-69743564D01*
X41277463Y-69813824D01*
X41103010Y-69917612D01*
X41098670Y-69921418D01*
X41098666Y-69921421D01*
X40987860Y-70018596D01*
X40950392Y-70051455D01*
X40824720Y-70210869D01*
X40822031Y-70215980D01*
X40822029Y-70215983D01*
X40797817Y-70262002D01*
X40730203Y-70390515D01*
X40697584Y-70495565D01*
X40678929Y-70555646D01*
X40670007Y-70584378D01*
X40646148Y-70785964D01*
X40647234Y-70802541D01*
X40631733Y-70871822D01*
X40610600Y-70899877D01*
X40168520Y-71341957D01*
X40149504Y-71357316D01*
X40148444Y-71358280D01*
X40139696Y-71363929D01*
X40133252Y-71372104D01*
X40133249Y-71372106D01*
X40118771Y-71390472D01*
X40114794Y-71394947D01*
X40114865Y-71395008D01*
X40111512Y-71398965D01*
X40107829Y-71402648D01*
X40104803Y-71406883D01*
X40104801Y-71406885D01*
X40096547Y-71418436D01*
X40092984Y-71423182D01*
X40061066Y-71463670D01*
X40058015Y-71472357D01*
X40052666Y-71479843D01*
X40049683Y-71489819D01*
X40049682Y-71489820D01*
X40037902Y-71529211D01*
X40036072Y-71534843D01*
X40018984Y-71583502D01*
X40018500Y-71589091D01*
X40018500Y-71591802D01*
X40018385Y-71594469D01*
X40018366Y-71594532D01*
X40018192Y-71594525D01*
X40018145Y-71595271D01*
X40016275Y-71601524D01*
X40016684Y-71611928D01*
X40018403Y-71655678D01*
X40018500Y-71660625D01*
X40018500Y-77975768D01*
X39998498Y-78043889D01*
X39993326Y-78051333D01*
X39958315Y-78098049D01*
X39952929Y-78105236D01*
X39949779Y-78113640D01*
X39949777Y-78113643D01*
X39904974Y-78233157D01*
X39902202Y-78240552D01*
X39901349Y-78248402D01*
X39901349Y-78248403D01*
X39899636Y-78264174D01*
X39895500Y-78302244D01*
X39895500Y-79047756D01*
X39350000Y-79047756D01*
X39350000Y-65765802D01*
X41347202Y-65765802D01*
X41347718Y-65771946D01*
X41362025Y-65942319D01*
X41363809Y-65963569D01*
X41418513Y-66154345D01*
X41421331Y-66159827D01*
X41421332Y-66159831D01*
X41506410Y-66325375D01*
X41506413Y-66325379D01*
X41509230Y-66330861D01*
X41632506Y-66486396D01*
X41637200Y-66490391D01*
X41748443Y-66585066D01*
X41783643Y-66615024D01*
X41956886Y-66711847D01*
X42145636Y-66773175D01*
X42342704Y-66796674D01*
X42348839Y-66796202D01*
X42348841Y-66796202D01*
X42534440Y-66781921D01*
X42534444Y-66781920D01*
X42540582Y-66781448D01*
X42731735Y-66728077D01*
X42815335Y-66685848D01*
X42903380Y-66641374D01*
X42903382Y-66641373D01*
X42908881Y-66638595D01*
X42922980Y-66627580D01*
X42977394Y-66585066D01*
X43065272Y-66516408D01*
X43069298Y-66511744D01*
X43069301Y-66511741D01*
X43190923Y-66370840D01*
X43190924Y-66370838D01*
X43194952Y-66366172D01*
X43292982Y-66193609D01*
X43355626Y-66005292D01*
X43368957Y-65899772D01*
X43380059Y-65811894D01*
X43380059Y-65811889D01*
X43380501Y-65808393D01*
X43380897Y-65780000D01*
X43361530Y-65582484D01*
X43359749Y-65576585D01*
X43359748Y-65576580D01*
X43305949Y-65398390D01*
X43304168Y-65392491D01*
X43210995Y-65217258D01*
X43207105Y-65212488D01*
X43207102Y-65212484D01*
X43089455Y-65068235D01*
X43089452Y-65068232D01*
X43085560Y-65063460D01*
X43079171Y-65058174D01*
X42937390Y-64940882D01*
X42932642Y-64936954D01*
X42927225Y-64934025D01*
X42927222Y-64934023D01*
X42763483Y-64845490D01*
X42763478Y-64845488D01*
X42758063Y-64842560D01*
X42568476Y-64783873D01*
X42562351Y-64783229D01*
X42562350Y-64783229D01*
X42377227Y-64763772D01*
X42377226Y-64763772D01*
X42371099Y-64763128D01*
X42248421Y-64774292D01*
X42179594Y-64780556D01*
X42179593Y-64780556D01*
X42173453Y-64781115D01*
X42167539Y-64782856D01*
X42167537Y-64782856D01*
X42037937Y-64821000D01*
X41983064Y-64837150D01*
X41807185Y-64929097D01*
X41652514Y-65053455D01*
X41524945Y-65205487D01*
X41521981Y-65210879D01*
X41521978Y-65210883D01*
X41515482Y-65222700D01*
X41429334Y-65379402D01*
X41369325Y-65568575D01*
X41368639Y-65574692D01*
X41368638Y-65574696D01*
X41347889Y-65759677D01*
X41347202Y-65765802D01*
X39350000Y-65765802D01*
X39350000Y-64295547D01*
X49293008Y-64295547D01*
X49302304Y-64307562D01*
X49344329Y-64336988D01*
X49353817Y-64342466D01*
X49544535Y-64431398D01*
X49554829Y-64435146D01*
X49758098Y-64489612D01*
X49768887Y-64491514D01*
X49978525Y-64509855D01*
X49989475Y-64509855D01*
X50199113Y-64491514D01*
X50209902Y-64489612D01*
X50413171Y-64435146D01*
X50423465Y-64431398D01*
X50614183Y-64342466D01*
X50623671Y-64336988D01*
X50666534Y-64306975D01*
X50674909Y-64296498D01*
X50667841Y-64283051D01*
X49996812Y-63612022D01*
X49982868Y-63604408D01*
X49981035Y-63604539D01*
X49974420Y-63608790D01*
X49299438Y-64283772D01*
X49293008Y-64295547D01*
X39350000Y-64295547D01*
X39350000Y-63245475D01*
X48714145Y-63245475D01*
X48732486Y-63455113D01*
X48734388Y-63465902D01*
X48788854Y-63669171D01*
X48792602Y-63679465D01*
X48881534Y-63870183D01*
X48887012Y-63879671D01*
X48917025Y-63922534D01*
X48927502Y-63930909D01*
X48940949Y-63923841D01*
X49611978Y-63252812D01*
X49619592Y-63238868D01*
X49619461Y-63237035D01*
X49615210Y-63230420D01*
X48940228Y-62555438D01*
X48928453Y-62549008D01*
X48916438Y-62558304D01*
X48887012Y-62600329D01*
X48881534Y-62609817D01*
X48792602Y-62800535D01*
X48788854Y-62810829D01*
X48734388Y-63014098D01*
X48732486Y-63024887D01*
X48714145Y-63234525D01*
X48714145Y-63245475D01*
X39350000Y-63245475D01*
X39350000Y-58145802D01*
X41347202Y-58145802D01*
X41363809Y-58343569D01*
X41418513Y-58534345D01*
X41421331Y-58539827D01*
X41421332Y-58539831D01*
X41506410Y-58705375D01*
X41506413Y-58705379D01*
X41509230Y-58710861D01*
X41632506Y-58866396D01*
X41783643Y-58995024D01*
X41956886Y-59091847D01*
X42145636Y-59153175D01*
X42342704Y-59176674D01*
X42348839Y-59176202D01*
X42348841Y-59176202D01*
X42534440Y-59161921D01*
X42534444Y-59161920D01*
X42540582Y-59161448D01*
X42731735Y-59108077D01*
X42901913Y-59022115D01*
X42903380Y-59021374D01*
X42903382Y-59021373D01*
X42908881Y-59018595D01*
X43065272Y-58896408D01*
X43069298Y-58891744D01*
X43069301Y-58891741D01*
X43190923Y-58750840D01*
X43190924Y-58750838D01*
X43194952Y-58746172D01*
X43255418Y-58639734D01*
X43289937Y-58578970D01*
X43289939Y-58578966D01*
X43292982Y-58573609D01*
X43355626Y-58385292D01*
X43361673Y-58337428D01*
X43380059Y-58191894D01*
X43380059Y-58191889D01*
X43380501Y-58188393D01*
X43380897Y-58160000D01*
X43379505Y-58145802D01*
X48967202Y-58145802D01*
X48983809Y-58343569D01*
X49038513Y-58534345D01*
X49041331Y-58539827D01*
X49041332Y-58539831D01*
X49126410Y-58705375D01*
X49126413Y-58705379D01*
X49129230Y-58710861D01*
X49252506Y-58866396D01*
X49403643Y-58995024D01*
X49576886Y-59091847D01*
X49765636Y-59153175D01*
X49962704Y-59176674D01*
X49968839Y-59176202D01*
X49968841Y-59176202D01*
X50154440Y-59161921D01*
X50154444Y-59161920D01*
X50160582Y-59161448D01*
X50351735Y-59108077D01*
X50521913Y-59022115D01*
X50523380Y-59021374D01*
X50523382Y-59021373D01*
X50528881Y-59018595D01*
X50685272Y-58896408D01*
X50689298Y-58891744D01*
X50689301Y-58891741D01*
X50810923Y-58750840D01*
X50810924Y-58750838D01*
X50814952Y-58746172D01*
X50875418Y-58639734D01*
X50909937Y-58578970D01*
X50909939Y-58578966D01*
X50912982Y-58573609D01*
X50975626Y-58385292D01*
X50981673Y-58337428D01*
X51000059Y-58191894D01*
X51000059Y-58191889D01*
X51000501Y-58188393D01*
X51000897Y-58160000D01*
X50981530Y-57962484D01*
X50979749Y-57956585D01*
X50979748Y-57956580D01*
X50925949Y-57778390D01*
X50924168Y-57772491D01*
X50877582Y-57684875D01*
X50833889Y-57602700D01*
X50833887Y-57602697D01*
X50830995Y-57597258D01*
X50827105Y-57592488D01*
X50827102Y-57592484D01*
X50709455Y-57448235D01*
X50709452Y-57448232D01*
X50705560Y-57443460D01*
X50699171Y-57438174D01*
X50557390Y-57320882D01*
X50552642Y-57316954D01*
X50547225Y-57314025D01*
X50547222Y-57314023D01*
X50383483Y-57225490D01*
X50383478Y-57225488D01*
X50378063Y-57222560D01*
X50188476Y-57163873D01*
X50182351Y-57163229D01*
X50182350Y-57163229D01*
X49997227Y-57143772D01*
X49997226Y-57143772D01*
X49991099Y-57143128D01*
X49868421Y-57154292D01*
X49799594Y-57160556D01*
X49799593Y-57160556D01*
X49793453Y-57161115D01*
X49787539Y-57162856D01*
X49787537Y-57162856D01*
X49657937Y-57201000D01*
X49603064Y-57217150D01*
X49427185Y-57309097D01*
X49422385Y-57312957D01*
X49422384Y-57312957D01*
X49417413Y-57316954D01*
X49272514Y-57433455D01*
X49144945Y-57585487D01*
X49141981Y-57590879D01*
X49141978Y-57590883D01*
X49105986Y-57656353D01*
X49049334Y-57759402D01*
X48989325Y-57948575D01*
X48988639Y-57954692D01*
X48988638Y-57954696D01*
X48974298Y-58082538D01*
X48967202Y-58145802D01*
X43379505Y-58145802D01*
X43361530Y-57962484D01*
X43359749Y-57956585D01*
X43359748Y-57956580D01*
X43305949Y-57778390D01*
X43304168Y-57772491D01*
X43257582Y-57684875D01*
X43213889Y-57602700D01*
X43213887Y-57602697D01*
X43210995Y-57597258D01*
X43207105Y-57592488D01*
X43207102Y-57592484D01*
X43089455Y-57448235D01*
X43089452Y-57448232D01*
X43085560Y-57443460D01*
X43079171Y-57438174D01*
X42937390Y-57320882D01*
X42932642Y-57316954D01*
X42927225Y-57314025D01*
X42927222Y-57314023D01*
X42763483Y-57225490D01*
X42763478Y-57225488D01*
X42758063Y-57222560D01*
X42568476Y-57163873D01*
X42562351Y-57163229D01*
X42562350Y-57163229D01*
X42377227Y-57143772D01*
X42377226Y-57143772D01*
X42371099Y-57143128D01*
X42248421Y-57154292D01*
X42179594Y-57160556D01*
X42179593Y-57160556D01*
X42173453Y-57161115D01*
X42167539Y-57162856D01*
X42167537Y-57162856D01*
X42037937Y-57201000D01*
X41983064Y-57217150D01*
X41807185Y-57309097D01*
X41802385Y-57312957D01*
X41802384Y-57312957D01*
X41797413Y-57316954D01*
X41652514Y-57433455D01*
X41524945Y-57585487D01*
X41521981Y-57590879D01*
X41521978Y-57590883D01*
X41485986Y-57656353D01*
X41429334Y-57759402D01*
X41369325Y-57948575D01*
X41368639Y-57954692D01*
X41368638Y-57954696D01*
X41354298Y-58082538D01*
X41347202Y-58145802D01*
X39350000Y-58145802D01*
X39350000Y-50292186D01*
X42491018Y-50292186D01*
X42516579Y-50560100D01*
X42517664Y-50564534D01*
X42517665Y-50564540D01*
X42559665Y-50736180D01*
X42580547Y-50821518D01*
X42681583Y-51070963D01*
X42817569Y-51303210D01*
X42985658Y-51513395D01*
X43182327Y-51697113D01*
X43403457Y-51850516D01*
X43644416Y-51970391D01*
X43648750Y-51971812D01*
X43648753Y-51971813D01*
X43895823Y-52052807D01*
X43895829Y-52052808D01*
X43900156Y-52054227D01*
X43904647Y-52055007D01*
X43904648Y-52055007D01*
X44161538Y-52099611D01*
X44161546Y-52099612D01*
X44165319Y-52100267D01*
X44169156Y-52100458D01*
X44248777Y-52104422D01*
X44248785Y-52104422D01*
X44250348Y-52104500D01*
X44418374Y-52104500D01*
X44420642Y-52104335D01*
X44420654Y-52104335D01*
X44551457Y-52094844D01*
X44618425Y-52089985D01*
X44622880Y-52089001D01*
X44622883Y-52089001D01*
X44876770Y-52032947D01*
X44876772Y-52032946D01*
X44881226Y-52031963D01*
X45132900Y-51936613D01*
X45368172Y-51805931D01*
X45514842Y-51693996D01*
X45578491Y-51645421D01*
X45578495Y-51645417D01*
X45582116Y-51642654D01*
X45770249Y-51450203D01*
X45877242Y-51303210D01*
X45925942Y-51236304D01*
X45925947Y-51236297D01*
X45928630Y-51232610D01*
X46053941Y-50994433D01*
X46143557Y-50740662D01*
X46173536Y-50588562D01*
X46194720Y-50481083D01*
X46194721Y-50481077D01*
X46195601Y-50476611D01*
X46196659Y-50455355D01*
X46208755Y-50212383D01*
X46208755Y-50212377D01*
X46208982Y-50207814D01*
X46183421Y-49939900D01*
X46119453Y-49678482D01*
X46018417Y-49429037D01*
X45882431Y-49196790D01*
X45714342Y-48986605D01*
X45517673Y-48802887D01*
X45296543Y-48649484D01*
X45055584Y-48529609D01*
X45051250Y-48528188D01*
X45051247Y-48528187D01*
X44804177Y-48447193D01*
X44804171Y-48447192D01*
X44799844Y-48445773D01*
X44795352Y-48444993D01*
X44538462Y-48400389D01*
X44538454Y-48400388D01*
X44534681Y-48399733D01*
X44524718Y-48399237D01*
X44451223Y-48395578D01*
X44451215Y-48395578D01*
X44449652Y-48395500D01*
X44281626Y-48395500D01*
X44279358Y-48395665D01*
X44279346Y-48395665D01*
X44148543Y-48405156D01*
X44081575Y-48410015D01*
X44077120Y-48410999D01*
X44077117Y-48410999D01*
X43823230Y-48467053D01*
X43823228Y-48467054D01*
X43818774Y-48468037D01*
X43567100Y-48563387D01*
X43331828Y-48694069D01*
X43328196Y-48696841D01*
X43121509Y-48854579D01*
X43121505Y-48854583D01*
X43117884Y-48857346D01*
X42929751Y-49049797D01*
X42927066Y-49053486D01*
X42774058Y-49263696D01*
X42774053Y-49263703D01*
X42771370Y-49267390D01*
X42646059Y-49505567D01*
X42556443Y-49759338D01*
X42555560Y-49763820D01*
X42520855Y-49939900D01*
X42504399Y-50023389D01*
X42504172Y-50027942D01*
X42504172Y-50027945D01*
X42491556Y-50281380D01*
X42491018Y-50292186D01*
X39350000Y-50292186D01*
X39350000Y-45376000D01*
X39370002Y-45307879D01*
X39423658Y-45261386D01*
X39476000Y-45250000D01*
X55892327Y-45250000D01*
X55960448Y-45270002D01*
G37*
G04 #@! TD.AperFunction*
G04 #@! TA.AperFunction,Conductor*
G36*
X60981457Y-64418203D02*
G01*
X61030938Y-64469117D01*
X61045500Y-64527918D01*
X61045500Y-66881775D01*
X61025498Y-66949896D01*
X60971842Y-66996389D01*
X60963729Y-66999757D01*
X60920981Y-67015782D01*
X60855236Y-67040429D01*
X60848057Y-67045809D01*
X60848054Y-67045811D01*
X60760023Y-67111787D01*
X60739596Y-67127096D01*
X60734215Y-67134276D01*
X60658311Y-67235554D01*
X60658309Y-67235557D01*
X60652929Y-67242736D01*
X60649779Y-67251140D01*
X60630064Y-67303729D01*
X60587423Y-67360494D01*
X60520861Y-67385194D01*
X60512082Y-67385500D01*
X60255499Y-67385500D01*
X60187378Y-67365498D01*
X60140885Y-67311842D01*
X60129499Y-67259500D01*
X60129499Y-66864934D01*
X60114734Y-66790699D01*
X60101753Y-66771271D01*
X60065377Y-66716832D01*
X60058484Y-66706516D01*
X59974301Y-66650266D01*
X59900067Y-66635500D01*
X59881899Y-66635500D01*
X59432175Y-66635501D01*
X59364055Y-66615499D01*
X59331349Y-66585066D01*
X59293282Y-66534273D01*
X59280724Y-66521715D01*
X59178649Y-66445214D01*
X59163054Y-66436676D01*
X59042606Y-66391522D01*
X59027351Y-66387895D01*
X58976486Y-66382369D01*
X58969672Y-66382000D01*
X58872115Y-66382000D01*
X58856876Y-66386475D01*
X58855671Y-66387865D01*
X58854000Y-66395548D01*
X58854000Y-68018000D01*
X58833998Y-68086121D01*
X58780342Y-68132614D01*
X58728000Y-68144000D01*
X58472000Y-68144000D01*
X58403879Y-68123998D01*
X58357386Y-68070342D01*
X58346000Y-68018000D01*
X58346000Y-66400116D01*
X58341525Y-66384877D01*
X58340135Y-66383672D01*
X58332452Y-66382001D01*
X58230331Y-66382001D01*
X58223510Y-66382371D01*
X58172648Y-66387895D01*
X58157396Y-66391521D01*
X58036946Y-66436676D01*
X58021351Y-66445214D01*
X57919276Y-66521715D01*
X57906719Y-66534272D01*
X57868652Y-66585065D01*
X57811792Y-66627580D01*
X57767825Y-66635500D01*
X57318107Y-66635501D01*
X57299934Y-66635501D01*
X57270406Y-66641374D01*
X57237874Y-66647844D01*
X57237872Y-66647845D01*
X57225699Y-66650266D01*
X57215379Y-66657161D01*
X57215378Y-66657162D01*
X57154985Y-66697516D01*
X57141516Y-66706516D01*
X57085266Y-66790699D01*
X57070500Y-66864933D01*
X57070500Y-66871120D01*
X57070501Y-68020260D01*
X57050499Y-68088381D01*
X57033596Y-68109355D01*
X55469595Y-69673355D01*
X55407283Y-69707381D01*
X55336467Y-69702316D01*
X55279632Y-69659769D01*
X55254821Y-69593249D01*
X55254500Y-69584260D01*
X55254499Y-68156123D01*
X55254499Y-68149934D01*
X55245150Y-68102929D01*
X55242156Y-68087874D01*
X55242155Y-68087872D01*
X55239734Y-68075699D01*
X55219556Y-68045500D01*
X55190377Y-68001832D01*
X55183484Y-67991516D01*
X55099301Y-67935266D01*
X55025067Y-67920500D01*
X54150142Y-67920500D01*
X53274934Y-67920501D01*
X53239182Y-67927612D01*
X53212874Y-67932844D01*
X53212872Y-67932845D01*
X53200699Y-67935266D01*
X53190379Y-67942161D01*
X53190378Y-67942162D01*
X53129985Y-67982516D01*
X53116516Y-67991516D01*
X53060266Y-68075699D01*
X53045500Y-68149933D01*
X53045501Y-69900066D01*
X53051833Y-69931903D01*
X53056328Y-69954500D01*
X53060266Y-69974301D01*
X53116516Y-70058484D01*
X53200699Y-70114734D01*
X53274933Y-70129500D01*
X53309588Y-70129500D01*
X54709262Y-70129499D01*
X54777382Y-70149501D01*
X54823875Y-70203157D01*
X54833979Y-70273431D01*
X54804486Y-70338011D01*
X54798356Y-70344594D01*
X54649871Y-70493079D01*
X54587559Y-70527105D01*
X54514087Y-70521014D01*
X54465039Y-70501446D01*
X54459379Y-70500320D01*
X54459375Y-70500319D01*
X54271613Y-70462971D01*
X54271610Y-70462971D01*
X54265946Y-70461844D01*
X54260171Y-70461768D01*
X54260167Y-70461768D01*
X54158793Y-70460441D01*
X54062971Y-70459187D01*
X54057274Y-70460166D01*
X54057273Y-70460166D01*
X53868607Y-70492585D01*
X53862910Y-70493564D01*
X53672463Y-70563824D01*
X53498010Y-70667612D01*
X53493670Y-70671418D01*
X53493666Y-70671421D01*
X53363056Y-70785964D01*
X53345392Y-70801455D01*
X53219720Y-70960869D01*
X53125203Y-71140515D01*
X53065007Y-71334378D01*
X53041148Y-71535964D01*
X53054424Y-71738522D01*
X53055845Y-71744118D01*
X53055846Y-71744123D01*
X53098675Y-71912758D01*
X53104392Y-71935269D01*
X53106809Y-71940512D01*
X53144010Y-72021208D01*
X53189377Y-72119616D01*
X53192710Y-72124332D01*
X53286950Y-72257679D01*
X53306533Y-72285389D01*
X53451938Y-72427035D01*
X53456742Y-72430245D01*
X53503408Y-72461426D01*
X53620720Y-72539812D01*
X53626023Y-72542090D01*
X53626026Y-72542092D01*
X53801921Y-72617662D01*
X53807228Y-72619942D01*
X53880244Y-72636464D01*
X53999579Y-72663467D01*
X53999584Y-72663468D01*
X54005216Y-72664742D01*
X54010987Y-72664969D01*
X54010989Y-72664969D01*
X54070756Y-72667317D01*
X54208053Y-72672712D01*
X54308499Y-72658148D01*
X54403231Y-72644413D01*
X54403236Y-72644412D01*
X54408945Y-72643584D01*
X54414409Y-72641729D01*
X54414414Y-72641728D01*
X54595693Y-72580192D01*
X54595698Y-72580190D01*
X54601165Y-72578334D01*
X54625868Y-72564500D01*
X54752675Y-72493484D01*
X54778276Y-72479147D01*
X54840934Y-72427035D01*
X54929913Y-72353031D01*
X54934345Y-72349345D01*
X55015436Y-72251844D01*
X55060453Y-72197718D01*
X55060455Y-72197715D01*
X55064147Y-72193276D01*
X55163334Y-72016165D01*
X55165190Y-72010698D01*
X55165192Y-72010693D01*
X55226728Y-71829414D01*
X55226729Y-71829409D01*
X55228584Y-71823945D01*
X55229412Y-71818236D01*
X55229413Y-71818231D01*
X55249885Y-71677035D01*
X55257712Y-71623053D01*
X55259232Y-71565000D01*
X55244756Y-71407459D01*
X55241187Y-71368613D01*
X55241186Y-71368610D01*
X55240658Y-71362859D01*
X55234244Y-71340115D01*
X55191085Y-71187088D01*
X55191845Y-71116095D01*
X55223259Y-71063791D01*
X56169895Y-70117155D01*
X57121038Y-69166011D01*
X57183350Y-69131986D01*
X57234713Y-69131527D01*
X57299933Y-69144500D01*
X57318101Y-69144500D01*
X57767825Y-69144499D01*
X57835945Y-69164501D01*
X57868651Y-69194934D01*
X57906718Y-69245727D01*
X57919276Y-69258285D01*
X58021351Y-69334786D01*
X58036948Y-69343325D01*
X58070212Y-69355795D01*
X58126977Y-69398436D01*
X58151677Y-69464997D01*
X58136470Y-69534346D01*
X58115078Y-69562872D01*
X57659354Y-70018596D01*
X57597042Y-70052622D01*
X57570259Y-70055501D01*
X57299934Y-70055501D01*
X57264182Y-70062612D01*
X57237874Y-70067844D01*
X57237872Y-70067845D01*
X57225699Y-70070266D01*
X57215379Y-70077161D01*
X57215378Y-70077162D01*
X57169468Y-70107839D01*
X57141516Y-70126516D01*
X57085266Y-70210699D01*
X57070500Y-70284933D01*
X57070501Y-72335066D01*
X57085266Y-72409301D01*
X57092161Y-72419620D01*
X57092162Y-72419622D01*
X57115572Y-72454657D01*
X57141516Y-72493484D01*
X57225699Y-72549734D01*
X57299933Y-72564500D01*
X57649943Y-72564500D01*
X58000066Y-72564499D01*
X58035818Y-72557388D01*
X58062126Y-72552156D01*
X58062128Y-72552155D01*
X58074301Y-72549734D01*
X58084621Y-72542839D01*
X58084622Y-72542838D01*
X58148168Y-72500377D01*
X58158484Y-72493484D01*
X58184428Y-72454657D01*
X58207839Y-72419620D01*
X58214734Y-72409301D01*
X58229500Y-72335067D01*
X58229499Y-70644741D01*
X58249501Y-70576620D01*
X58266404Y-70555646D01*
X58543145Y-70278905D01*
X58605457Y-70244879D01*
X58632240Y-70242000D01*
X58844500Y-70242000D01*
X58912621Y-70262002D01*
X58959114Y-70315658D01*
X58970500Y-70368000D01*
X58970501Y-70818704D01*
X58970501Y-71267160D01*
X58950499Y-71335281D01*
X58896843Y-71381774D01*
X58857971Y-71392438D01*
X58843451Y-71393999D01*
X58820841Y-71396430D01*
X58768499Y-71407816D01*
X58741709Y-71415166D01*
X58734858Y-71419067D01*
X58734856Y-71419068D01*
X58702166Y-71437683D01*
X58653722Y-71465269D01*
X58649046Y-71469321D01*
X58608020Y-71504870D01*
X58600066Y-71511762D01*
X58567944Y-71545051D01*
X58521013Y-71634770D01*
X58519270Y-71640706D01*
X58508307Y-71678044D01*
X58501011Y-71702891D01*
X58500371Y-71707339D01*
X58500370Y-71707346D01*
X58496717Y-71732755D01*
X58490500Y-71776000D01*
X58490500Y-72769500D01*
X58470498Y-72837621D01*
X58416842Y-72884114D01*
X58364500Y-72895500D01*
X56521642Y-72895501D01*
X56424934Y-72895501D01*
X56389182Y-72902612D01*
X56362874Y-72907844D01*
X56362872Y-72907845D01*
X56350699Y-72910266D01*
X56340379Y-72917161D01*
X56340378Y-72917162D01*
X56280029Y-72957487D01*
X56266516Y-72966516D01*
X56210266Y-73050699D01*
X56195500Y-73124933D01*
X56195500Y-73358288D01*
X56175498Y-73426409D01*
X56164725Y-73440800D01*
X56156753Y-73450000D01*
X56150000Y-73450000D01*
X56150000Y-75975760D01*
X56129998Y-76043881D01*
X56113095Y-76064855D01*
X55669355Y-76508595D01*
X55607043Y-76542621D01*
X55580260Y-76545500D01*
X55296353Y-76545500D01*
X55228232Y-76525498D01*
X55181739Y-76471842D01*
X55178371Y-76463729D01*
X55150221Y-76388640D01*
X55147071Y-76380236D01*
X55141691Y-76373057D01*
X55141689Y-76373054D01*
X55065785Y-76271776D01*
X55060404Y-76264596D01*
X54984469Y-76207686D01*
X54951946Y-76183311D01*
X54951943Y-76183309D01*
X54944764Y-76177929D01*
X54826891Y-76133741D01*
X54816843Y-76129974D01*
X54816841Y-76129974D01*
X54809448Y-76127202D01*
X54801598Y-76126349D01*
X54801597Y-76126349D01*
X54751153Y-76120869D01*
X54751152Y-76120869D01*
X54747756Y-76120500D01*
X53752244Y-76120500D01*
X53748848Y-76120869D01*
X53748847Y-76120869D01*
X53698403Y-76126349D01*
X53698402Y-76126349D01*
X53690552Y-76127202D01*
X53683159Y-76129974D01*
X53683157Y-76129974D01*
X53673109Y-76133741D01*
X53555236Y-76177929D01*
X53548057Y-76183309D01*
X53548054Y-76183311D01*
X53515531Y-76207686D01*
X53439596Y-76264596D01*
X53434215Y-76271776D01*
X53358311Y-76373054D01*
X53358309Y-76373057D01*
X53352929Y-76380236D01*
X53302202Y-76515552D01*
X53301349Y-76523402D01*
X53301349Y-76523403D01*
X53295869Y-76573847D01*
X53295500Y-76577244D01*
X53295500Y-77322756D01*
X53295869Y-77326152D01*
X53295869Y-77326153D01*
X53298949Y-77354500D01*
X53302202Y-77384448D01*
X53352929Y-77519764D01*
X53358309Y-77526943D01*
X53358311Y-77526946D01*
X53424287Y-77614977D01*
X53439596Y-77635404D01*
X53446776Y-77640785D01*
X53548054Y-77716689D01*
X53548057Y-77716691D01*
X53555236Y-77722071D01*
X53644954Y-77755704D01*
X53683157Y-77770026D01*
X53683159Y-77770026D01*
X53690552Y-77772798D01*
X53698402Y-77773651D01*
X53698403Y-77773651D01*
X53748847Y-77779131D01*
X53752244Y-77779500D01*
X54747756Y-77779500D01*
X54751153Y-77779131D01*
X54801597Y-77773651D01*
X54801598Y-77773651D01*
X54809448Y-77772798D01*
X54816841Y-77770026D01*
X54816843Y-77770026D01*
X54855046Y-77755704D01*
X54944764Y-77722071D01*
X54951943Y-77716691D01*
X54951946Y-77716689D01*
X55053224Y-77640785D01*
X55060404Y-77635404D01*
X55075713Y-77614977D01*
X55141689Y-77526946D01*
X55141691Y-77526943D01*
X55147071Y-77519764D01*
X55178371Y-77436271D01*
X55221012Y-77379506D01*
X55287574Y-77354806D01*
X55296353Y-77354500D01*
X55864066Y-77354500D01*
X55873498Y-77351435D01*
X55873500Y-77351435D01*
X55885287Y-77347605D01*
X55904513Y-77342989D01*
X55916762Y-77341049D01*
X55926555Y-77339498D01*
X55946439Y-77329366D01*
X55964705Y-77321801D01*
X55985064Y-77315186D01*
X56056032Y-77313159D01*
X56116830Y-77349821D01*
X56148155Y-77413533D01*
X56150000Y-77435019D01*
X56150000Y-85044000D01*
X56129998Y-85112121D01*
X56076342Y-85158614D01*
X56024000Y-85170000D01*
X44427682Y-85170000D01*
X44359561Y-85149998D01*
X44313068Y-85096342D01*
X44302964Y-85026068D01*
X44332458Y-84961488D01*
X44361379Y-84936856D01*
X44417807Y-84901937D01*
X44429208Y-84892901D01*
X44543739Y-84778171D01*
X44552751Y-84766760D01*
X44641658Y-84622525D01*
X44643536Y-84623683D01*
X44683332Y-84578495D01*
X44751611Y-84559041D01*
X44819569Y-84579590D01*
X44851422Y-84609468D01*
X44889596Y-84660404D01*
X44896776Y-84665785D01*
X44998054Y-84741689D01*
X44998057Y-84741691D01*
X45005236Y-84747071D01*
X45088196Y-84778171D01*
X45133157Y-84795026D01*
X45133159Y-84795026D01*
X45140552Y-84797798D01*
X45148402Y-84798651D01*
X45148403Y-84798651D01*
X45198847Y-84804131D01*
X45202244Y-84804500D01*
X45997756Y-84804500D01*
X46001153Y-84804131D01*
X46051597Y-84798651D01*
X46051598Y-84798651D01*
X46059448Y-84797798D01*
X46066841Y-84795026D01*
X46066843Y-84795026D01*
X46111804Y-84778171D01*
X46194764Y-84747071D01*
X46201943Y-84741691D01*
X46201946Y-84741689D01*
X46303224Y-84665785D01*
X46310404Y-84660404D01*
X46348575Y-84609472D01*
X46391689Y-84551946D01*
X46391691Y-84551943D01*
X46397071Y-84544764D01*
X46447798Y-84409448D01*
X46454500Y-84347756D01*
X46454500Y-83352244D01*
X46447798Y-83290552D01*
X46397071Y-83155236D01*
X46391691Y-83148057D01*
X46391689Y-83148054D01*
X46315785Y-83046776D01*
X46310404Y-83039596D01*
X46245193Y-82990723D01*
X46201946Y-82958311D01*
X46201943Y-82958309D01*
X46194764Y-82952929D01*
X46092800Y-82914705D01*
X46066843Y-82904974D01*
X46066841Y-82904974D01*
X46059448Y-82902202D01*
X46051598Y-82901349D01*
X46051597Y-82901349D01*
X46046193Y-82900762D01*
X45980631Y-82873520D01*
X45940205Y-82815157D01*
X45937750Y-82744202D01*
X45974045Y-82683185D01*
X46037567Y-82651476D01*
X46059801Y-82649499D01*
X46255066Y-82649499D01*
X46292769Y-82642000D01*
X46317126Y-82637156D01*
X46317128Y-82637155D01*
X46329301Y-82634734D01*
X46339621Y-82627839D01*
X46339622Y-82627838D01*
X46403168Y-82585377D01*
X46413484Y-82578484D01*
X46469734Y-82494301D01*
X46484500Y-82420067D01*
X46484499Y-79269934D01*
X46469734Y-79195699D01*
X46462839Y-79185379D01*
X46460079Y-79178717D01*
X46452490Y-79108127D01*
X46484270Y-79044641D01*
X46545328Y-79008414D01*
X46576488Y-79004500D01*
X46823512Y-79004500D01*
X46891633Y-79024502D01*
X46938126Y-79078158D01*
X46948230Y-79148432D01*
X46939920Y-79178719D01*
X46937161Y-79185380D01*
X46930266Y-79195699D01*
X46927845Y-79207868D01*
X46927845Y-79207869D01*
X46922178Y-79236360D01*
X46915500Y-79269933D01*
X46915501Y-82420066D01*
X46930266Y-82494301D01*
X46937161Y-82504620D01*
X46937162Y-82504622D01*
X46952686Y-82527855D01*
X46986516Y-82578484D01*
X47070699Y-82634734D01*
X47144933Y-82649500D01*
X47340190Y-82649500D01*
X47408311Y-82669502D01*
X47454804Y-82723158D01*
X47464908Y-82793432D01*
X47435414Y-82858012D01*
X47375688Y-82896396D01*
X47353798Y-82900763D01*
X47348403Y-82901349D01*
X47348402Y-82901349D01*
X47340552Y-82902202D01*
X47333159Y-82904974D01*
X47333157Y-82904974D01*
X47307200Y-82914705D01*
X47205236Y-82952929D01*
X47198057Y-82958309D01*
X47198054Y-82958311D01*
X47154807Y-82990723D01*
X47089596Y-83039596D01*
X47084215Y-83046776D01*
X47008311Y-83148054D01*
X47008309Y-83148057D01*
X47002929Y-83155236D01*
X46952202Y-83290552D01*
X46945500Y-83352244D01*
X46945500Y-84347756D01*
X46952202Y-84409448D01*
X47002929Y-84544764D01*
X47008309Y-84551943D01*
X47008311Y-84551946D01*
X47051425Y-84609472D01*
X47089596Y-84660404D01*
X47096776Y-84665785D01*
X47198054Y-84741689D01*
X47198057Y-84741691D01*
X47205236Y-84747071D01*
X47288196Y-84778171D01*
X47333157Y-84795026D01*
X47333159Y-84795026D01*
X47340552Y-84797798D01*
X47348402Y-84798651D01*
X47348403Y-84798651D01*
X47398847Y-84804131D01*
X47402244Y-84804500D01*
X48197756Y-84804500D01*
X48201153Y-84804131D01*
X48251597Y-84798651D01*
X48251598Y-84798651D01*
X48259448Y-84797798D01*
X48266841Y-84795026D01*
X48266843Y-84795026D01*
X48311804Y-84778171D01*
X48394764Y-84747071D01*
X48401943Y-84741691D01*
X48401946Y-84741689D01*
X48503224Y-84665785D01*
X48510404Y-84660404D01*
X48548575Y-84609472D01*
X48591689Y-84551946D01*
X48591691Y-84551943D01*
X48597071Y-84544764D01*
X48647798Y-84409448D01*
X48654500Y-84347756D01*
X48654500Y-83352244D01*
X48647798Y-83290552D01*
X48597071Y-83155236D01*
X48591691Y-83148057D01*
X48591689Y-83148054D01*
X48515785Y-83046776D01*
X48510404Y-83039596D01*
X48424935Y-82975541D01*
X48382420Y-82918682D01*
X48374500Y-82874715D01*
X48374500Y-82775499D01*
X48394502Y-82707378D01*
X48448158Y-82660885D01*
X48500500Y-82649499D01*
X48795066Y-82649499D01*
X48832769Y-82642000D01*
X48857126Y-82637156D01*
X48857128Y-82637155D01*
X48869301Y-82634734D01*
X48879621Y-82627839D01*
X48879622Y-82627838D01*
X48943168Y-82585377D01*
X48953484Y-82578484D01*
X49009734Y-82494301D01*
X49024500Y-82420067D01*
X49024499Y-79269934D01*
X49009734Y-79195699D01*
X49002839Y-79185379D01*
X49000079Y-79178717D01*
X48992490Y-79108127D01*
X49024270Y-79044641D01*
X49085328Y-79008414D01*
X49116488Y-79004500D01*
X49719066Y-79004500D01*
X49728498Y-79001435D01*
X49728500Y-79001435D01*
X49740287Y-78997605D01*
X49759513Y-78992989D01*
X49771762Y-78991049D01*
X49781555Y-78989498D01*
X49801439Y-78979366D01*
X49819705Y-78971801D01*
X49831496Y-78967970D01*
X49840929Y-78964905D01*
X49858989Y-78951784D01*
X49875846Y-78941454D01*
X49895723Y-78931326D01*
X49918511Y-78908538D01*
X49918515Y-78908535D01*
X50039935Y-78787115D01*
X50102247Y-78753089D01*
X50173062Y-78758154D01*
X50229898Y-78800701D01*
X50254709Y-78867221D01*
X50253952Y-78892656D01*
X50243533Y-78971801D01*
X50240729Y-78993096D01*
X50258113Y-79150553D01*
X50260723Y-79157684D01*
X50260723Y-79157686D01*
X50304065Y-79276123D01*
X50312553Y-79299319D01*
X50316789Y-79305622D01*
X50316789Y-79305623D01*
X50396674Y-79424505D01*
X50396677Y-79424508D01*
X50400908Y-79430805D01*
X50413039Y-79441843D01*
X50454300Y-79479388D01*
X50491222Y-79540029D01*
X50495500Y-79572582D01*
X50495500Y-82530260D01*
X50475498Y-82598381D01*
X50458595Y-82619355D01*
X50219355Y-82858595D01*
X50157043Y-82892621D01*
X50130260Y-82895500D01*
X49402244Y-82895500D01*
X49398848Y-82895869D01*
X49398847Y-82895869D01*
X49348403Y-82901349D01*
X49348402Y-82901349D01*
X49340552Y-82902202D01*
X49333159Y-82904974D01*
X49333157Y-82904974D01*
X49307200Y-82914705D01*
X49205236Y-82952929D01*
X49198057Y-82958309D01*
X49198054Y-82958311D01*
X49154807Y-82990723D01*
X49089596Y-83039596D01*
X49084215Y-83046776D01*
X49008311Y-83148054D01*
X49008309Y-83148057D01*
X49002929Y-83155236D01*
X48952202Y-83290552D01*
X48945500Y-83352244D01*
X48945500Y-84347756D01*
X48952202Y-84409448D01*
X49002929Y-84544764D01*
X49008309Y-84551943D01*
X49008311Y-84551946D01*
X49051425Y-84609472D01*
X49089596Y-84660404D01*
X49096776Y-84665785D01*
X49198054Y-84741689D01*
X49198057Y-84741691D01*
X49205236Y-84747071D01*
X49288196Y-84778171D01*
X49333157Y-84795026D01*
X49333159Y-84795026D01*
X49340552Y-84797798D01*
X49348402Y-84798651D01*
X49348403Y-84798651D01*
X49398847Y-84804131D01*
X49402244Y-84804500D01*
X50197756Y-84804500D01*
X50201153Y-84804131D01*
X50251597Y-84798651D01*
X50251598Y-84798651D01*
X50259448Y-84797798D01*
X50266841Y-84795026D01*
X50266843Y-84795026D01*
X50311804Y-84778171D01*
X50394764Y-84747071D01*
X50401943Y-84741691D01*
X50401946Y-84741689D01*
X50503224Y-84665785D01*
X50510404Y-84660404D01*
X50548575Y-84609472D01*
X50591689Y-84551946D01*
X50591691Y-84551943D01*
X50597071Y-84544764D01*
X50647798Y-84409448D01*
X50654500Y-84347756D01*
X50654500Y-83619740D01*
X50674502Y-83551619D01*
X50691405Y-83530645D01*
X50899955Y-83322095D01*
X53042001Y-83322095D01*
X53042338Y-83328614D01*
X53052257Y-83424206D01*
X53055149Y-83437600D01*
X53106588Y-83591784D01*
X53112761Y-83604962D01*
X53198063Y-83742807D01*
X53207099Y-83754208D01*
X53321829Y-83868739D01*
X53333240Y-83877751D01*
X53471243Y-83962816D01*
X53484424Y-83968963D01*
X53638710Y-84020138D01*
X53652086Y-84023005D01*
X53746438Y-84032672D01*
X53752854Y-84033000D01*
X53977885Y-84033000D01*
X53993124Y-84028525D01*
X53994329Y-84027135D01*
X53996000Y-84019452D01*
X53996000Y-84014884D01*
X54504000Y-84014884D01*
X54508475Y-84030123D01*
X54509865Y-84031328D01*
X54517548Y-84032999D01*
X54747095Y-84032999D01*
X54753614Y-84032662D01*
X54849206Y-84022743D01*
X54862600Y-84019851D01*
X55016784Y-83968412D01*
X55029962Y-83962239D01*
X55167807Y-83876937D01*
X55179208Y-83867901D01*
X55293739Y-83753171D01*
X55302751Y-83741760D01*
X55387816Y-83603757D01*
X55393963Y-83590576D01*
X55445138Y-83436290D01*
X55448005Y-83422914D01*
X55457672Y-83328562D01*
X55458000Y-83322146D01*
X55458000Y-83197115D01*
X55453525Y-83181876D01*
X55452135Y-83180671D01*
X55444452Y-83179000D01*
X54522115Y-83179000D01*
X54506876Y-83183475D01*
X54505671Y-83184865D01*
X54504000Y-83192548D01*
X54504000Y-84014884D01*
X53996000Y-84014884D01*
X53996000Y-83197115D01*
X53991525Y-83181876D01*
X53990135Y-83180671D01*
X53982452Y-83179000D01*
X53060116Y-83179000D01*
X53044877Y-83183475D01*
X53043672Y-83184865D01*
X53042001Y-83192548D01*
X53042001Y-83322095D01*
X50899955Y-83322095D01*
X51208535Y-83013515D01*
X51208538Y-83013511D01*
X51231326Y-82990723D01*
X51241455Y-82970844D01*
X51251784Y-82953989D01*
X51259075Y-82943953D01*
X51264905Y-82935929D01*
X51271801Y-82914704D01*
X51279367Y-82896438D01*
X51289498Y-82876555D01*
X51292989Y-82854513D01*
X51297605Y-82835287D01*
X51301435Y-82823500D01*
X51301435Y-82823498D01*
X51304500Y-82814066D01*
X51304500Y-82652885D01*
X53042000Y-82652885D01*
X53046475Y-82668124D01*
X53047865Y-82669329D01*
X53055548Y-82671000D01*
X55439884Y-82671000D01*
X55455123Y-82666525D01*
X55456328Y-82665135D01*
X55457999Y-82657452D01*
X55457999Y-82527905D01*
X55457662Y-82521386D01*
X55447743Y-82425794D01*
X55444851Y-82412400D01*
X55393412Y-82258216D01*
X55387239Y-82245038D01*
X55301937Y-82107193D01*
X55292901Y-82095792D01*
X55178171Y-81981261D01*
X55166760Y-81972249D01*
X55022525Y-81883342D01*
X55023683Y-81881464D01*
X54978495Y-81841668D01*
X54959041Y-81773389D01*
X54979590Y-81705431D01*
X55009468Y-81673578D01*
X55060404Y-81635404D01*
X55121038Y-81554500D01*
X55141689Y-81526946D01*
X55141691Y-81526943D01*
X55147071Y-81519764D01*
X55180704Y-81430046D01*
X55195026Y-81391843D01*
X55195026Y-81391841D01*
X55197798Y-81384448D01*
X55204500Y-81322756D01*
X55204500Y-80527244D01*
X55197798Y-80465552D01*
X55147071Y-80330236D01*
X55141691Y-80323057D01*
X55141689Y-80323054D01*
X55065785Y-80221776D01*
X55060404Y-80214596D01*
X55039977Y-80199287D01*
X54951946Y-80133311D01*
X54951943Y-80133309D01*
X54944764Y-80127929D01*
X54855046Y-80094296D01*
X54816843Y-80079974D01*
X54816841Y-80079974D01*
X54809448Y-80077202D01*
X54801600Y-80076349D01*
X54801598Y-80076349D01*
X54791599Y-80075263D01*
X54726037Y-80048021D01*
X54685611Y-79989658D01*
X54683156Y-79918704D01*
X54719451Y-79857686D01*
X54782973Y-79825977D01*
X54791599Y-79824737D01*
X54801598Y-79823651D01*
X54801600Y-79823651D01*
X54809448Y-79822798D01*
X54816841Y-79820026D01*
X54816843Y-79820026D01*
X54855046Y-79805704D01*
X54944764Y-79772071D01*
X54951943Y-79766691D01*
X54951946Y-79766689D01*
X55053224Y-79690785D01*
X55060404Y-79685404D01*
X55075713Y-79664977D01*
X55141689Y-79576946D01*
X55141691Y-79576943D01*
X55147071Y-79569764D01*
X55197798Y-79434448D01*
X55204500Y-79372756D01*
X55204500Y-78627244D01*
X55197798Y-78565552D01*
X55147071Y-78430236D01*
X55141691Y-78423057D01*
X55141689Y-78423054D01*
X55065785Y-78321776D01*
X55060404Y-78314596D01*
X55008485Y-78275685D01*
X54951946Y-78233311D01*
X54951943Y-78233309D01*
X54944764Y-78227929D01*
X54844921Y-78190500D01*
X54816843Y-78179974D01*
X54816841Y-78179974D01*
X54809448Y-78177202D01*
X54801598Y-78176349D01*
X54801597Y-78176349D01*
X54751153Y-78170869D01*
X54751152Y-78170869D01*
X54747756Y-78170500D01*
X53752244Y-78170500D01*
X53748848Y-78170869D01*
X53748847Y-78170869D01*
X53698403Y-78176349D01*
X53698402Y-78176349D01*
X53690552Y-78177202D01*
X53683159Y-78179974D01*
X53683157Y-78179974D01*
X53655079Y-78190500D01*
X53555236Y-78227929D01*
X53548057Y-78233309D01*
X53548054Y-78233311D01*
X53491515Y-78275685D01*
X53439596Y-78314596D01*
X53434215Y-78321776D01*
X53358311Y-78423054D01*
X53358309Y-78423057D01*
X53352929Y-78430236D01*
X53302202Y-78565552D01*
X53295500Y-78627244D01*
X53295500Y-79372756D01*
X53302202Y-79434448D01*
X53352929Y-79569764D01*
X53358309Y-79576943D01*
X53358311Y-79576946D01*
X53424287Y-79664977D01*
X53439596Y-79685404D01*
X53446776Y-79690785D01*
X53548054Y-79766689D01*
X53548057Y-79766691D01*
X53555236Y-79772071D01*
X53644954Y-79805704D01*
X53683157Y-79820026D01*
X53683159Y-79820026D01*
X53690552Y-79822798D01*
X53698400Y-79823651D01*
X53698402Y-79823651D01*
X53708401Y-79824737D01*
X53773963Y-79851979D01*
X53814389Y-79910342D01*
X53816844Y-79981296D01*
X53780549Y-80042314D01*
X53717027Y-80074023D01*
X53708401Y-80075263D01*
X53698402Y-80076349D01*
X53698400Y-80076349D01*
X53690552Y-80077202D01*
X53683159Y-80079974D01*
X53683157Y-80079974D01*
X53644954Y-80094296D01*
X53555236Y-80127929D01*
X53548057Y-80133309D01*
X53548054Y-80133311D01*
X53460023Y-80199287D01*
X53439596Y-80214596D01*
X53434215Y-80221776D01*
X53358311Y-80323054D01*
X53358309Y-80323057D01*
X53352929Y-80330236D01*
X53302202Y-80465552D01*
X53295500Y-80527244D01*
X53295500Y-81322756D01*
X53302202Y-81384448D01*
X53304974Y-81391841D01*
X53304974Y-81391843D01*
X53319296Y-81430046D01*
X53352929Y-81519764D01*
X53358309Y-81526943D01*
X53358311Y-81526946D01*
X53378962Y-81554500D01*
X53439596Y-81635404D01*
X53490546Y-81673589D01*
X53533059Y-81730446D01*
X53538085Y-81801264D01*
X53504025Y-81863558D01*
X53475885Y-81883287D01*
X53476268Y-81883906D01*
X53332193Y-81973063D01*
X53320792Y-81982099D01*
X53206261Y-82096829D01*
X53197249Y-82108240D01*
X53112184Y-82246243D01*
X53106037Y-82259424D01*
X53054862Y-82413710D01*
X53051995Y-82427086D01*
X53042328Y-82521438D01*
X53042000Y-82527855D01*
X53042000Y-82652885D01*
X51304500Y-82652885D01*
X51304500Y-79573378D01*
X51324502Y-79505257D01*
X51348669Y-79477567D01*
X51379536Y-79451204D01*
X51385314Y-79446269D01*
X51477755Y-79317624D01*
X51536842Y-79170641D01*
X51553262Y-79055266D01*
X51558581Y-79017891D01*
X51558581Y-79017888D01*
X51559162Y-79013807D01*
X51559307Y-79000000D01*
X51557492Y-78984997D01*
X51550148Y-78924311D01*
X51540276Y-78842733D01*
X51484280Y-78694546D01*
X51394553Y-78563992D01*
X51276275Y-78458611D01*
X51268889Y-78454700D01*
X51142988Y-78388039D01*
X51142989Y-78388039D01*
X51136274Y-78384484D01*
X50982633Y-78345892D01*
X50975034Y-78345852D01*
X50975033Y-78345852D01*
X50909181Y-78345507D01*
X50824221Y-78345062D01*
X50816839Y-78346834D01*
X50816833Y-78346835D01*
X50808286Y-78348887D01*
X50737378Y-78345341D01*
X50679644Y-78304022D01*
X50653413Y-78238048D01*
X50667015Y-78168367D01*
X50689776Y-78137274D01*
X53648838Y-75178212D01*
X53711150Y-75144186D01*
X53787674Y-75151541D01*
X53801916Y-75157660D01*
X53801918Y-75157661D01*
X53807228Y-75159942D01*
X53880244Y-75176464D01*
X53999579Y-75203467D01*
X53999584Y-75203468D01*
X54005216Y-75204742D01*
X54010987Y-75204969D01*
X54010989Y-75204969D01*
X54070756Y-75207317D01*
X54208053Y-75212712D01*
X54308499Y-75198148D01*
X54403231Y-75184413D01*
X54403236Y-75184412D01*
X54408945Y-75183584D01*
X54414409Y-75181729D01*
X54414414Y-75181728D01*
X54595693Y-75120192D01*
X54595698Y-75120190D01*
X54601165Y-75118334D01*
X54616940Y-75109500D01*
X54765819Y-75026123D01*
X54778276Y-75019147D01*
X54784630Y-75013863D01*
X54929913Y-74893031D01*
X54934345Y-74889345D01*
X54963223Y-74854623D01*
X55060453Y-74737718D01*
X55060455Y-74737715D01*
X55064147Y-74733276D01*
X55163334Y-74556165D01*
X55165190Y-74550698D01*
X55165192Y-74550693D01*
X55226728Y-74369414D01*
X55226729Y-74369409D01*
X55228584Y-74363945D01*
X55229412Y-74358236D01*
X55229413Y-74358231D01*
X55247525Y-74233311D01*
X55257712Y-74163053D01*
X55259232Y-74105000D01*
X55240658Y-73902859D01*
X55234686Y-73881684D01*
X55187125Y-73713046D01*
X55187124Y-73713044D01*
X55185557Y-73707487D01*
X55179586Y-73695377D01*
X55098331Y-73530609D01*
X55095776Y-73525428D01*
X55077999Y-73501621D01*
X55009092Y-73409344D01*
X54974320Y-73362779D01*
X54825258Y-73224987D01*
X54820375Y-73221906D01*
X54820371Y-73221903D01*
X54658464Y-73119748D01*
X54653581Y-73116667D01*
X54465039Y-73041446D01*
X54459379Y-73040320D01*
X54459375Y-73040319D01*
X54271613Y-73002971D01*
X54271610Y-73002971D01*
X54265946Y-73001844D01*
X54260171Y-73001768D01*
X54260167Y-73001768D01*
X54158793Y-73000441D01*
X54062971Y-72999187D01*
X54057274Y-73000166D01*
X54057273Y-73000166D01*
X53904706Y-73026382D01*
X53862910Y-73033564D01*
X53672463Y-73103824D01*
X53498010Y-73207612D01*
X53493670Y-73211418D01*
X53493666Y-73211421D01*
X53349733Y-73337648D01*
X53345392Y-73341455D01*
X53219720Y-73500869D01*
X53217031Y-73505980D01*
X53217029Y-73505983D01*
X53171706Y-73592128D01*
X53125203Y-73680515D01*
X53065007Y-73874378D01*
X53041148Y-74075964D01*
X53044870Y-74132748D01*
X53052880Y-74254957D01*
X53054424Y-74278522D01*
X53055845Y-74284118D01*
X53055846Y-74284123D01*
X53079796Y-74378424D01*
X53104392Y-74475269D01*
X53105342Y-74477330D01*
X53109164Y-74547084D01*
X53075602Y-74607348D01*
X52069595Y-75613355D01*
X52007283Y-75647381D01*
X51936468Y-75642316D01*
X51879632Y-75599769D01*
X51854821Y-75533249D01*
X51854500Y-75524260D01*
X51854500Y-66469740D01*
X51874502Y-66401619D01*
X51891405Y-66380645D01*
X53730645Y-64541405D01*
X53792957Y-64507379D01*
X53819740Y-64504500D01*
X60664066Y-64504500D01*
X60673498Y-64501435D01*
X60673500Y-64501435D01*
X60685287Y-64497605D01*
X60704513Y-64492989D01*
X60716762Y-64491049D01*
X60726555Y-64489498D01*
X60746439Y-64479366D01*
X60764705Y-64471801D01*
X60776496Y-64467970D01*
X60785929Y-64464905D01*
X60803989Y-64451784D01*
X60820846Y-64441454D01*
X60840723Y-64431326D01*
X60846414Y-64425635D01*
X60912306Y-64402124D01*
X60981457Y-64418203D01*
G37*
G04 #@! TD.AperFunction*
M02*
