%FSLAX45Y45*%
G04 Gerber Fmt 4.5, Leading zero omitted, Abs format (unit mm)*
G04 Created by KiCad (PCBNEW (6.0.6)) date 2024-05-12 15:37:09*
%MOMM*%
%LPD*%
G01*
G04 APERTURE LIST*
%TA.AperFunction,Profile*%
%ADD10C,0.100000*%
%TD*%
%ADD11C,0.200000*%
G04 APERTURE END LIST*
D10*
X3715000Y-2380000D02*
X11915000Y-2380000D01*
X11915000Y-2380000D02*
X11915000Y-7380000D01*
X11915000Y-7380000D02*
X3715000Y-7380000D01*
X3715000Y-7380000D02*
X3715000Y-2380000D01*
D11*
X3967619Y-7695476D02*
X3967619Y-7495476D01*
X4015238Y-7495476D01*
X4043809Y-7505000D01*
X4062857Y-7524048D01*
X4072381Y-7543095D01*
X4081905Y-7581190D01*
X4081905Y-7609762D01*
X4072381Y-7647857D01*
X4062857Y-7666905D01*
X4043809Y-7685952D01*
X4015238Y-7695476D01*
X3967619Y-7695476D01*
X4167619Y-7695476D02*
X4167619Y-7562143D01*
X4167619Y-7600238D02*
X4177143Y-7581190D01*
X4186667Y-7571667D01*
X4205714Y-7562143D01*
X4224762Y-7562143D01*
X4291429Y-7695476D02*
X4291429Y-7562143D01*
X4291429Y-7495476D02*
X4281905Y-7505000D01*
X4291429Y-7514524D01*
X4300952Y-7505000D01*
X4291429Y-7495476D01*
X4291429Y-7514524D01*
X4415238Y-7695476D02*
X4396190Y-7685952D01*
X4386667Y-7666905D01*
X4386667Y-7495476D01*
X4520000Y-7695476D02*
X4500952Y-7685952D01*
X4491429Y-7666905D01*
X4491429Y-7495476D01*
X4748571Y-7695476D02*
X4748571Y-7495476D01*
X4815238Y-7638333D01*
X4881905Y-7495476D01*
X4881905Y-7695476D01*
X5062857Y-7695476D02*
X5062857Y-7590714D01*
X5053333Y-7571667D01*
X5034286Y-7562143D01*
X4996190Y-7562143D01*
X4977143Y-7571667D01*
X5062857Y-7685952D02*
X5043810Y-7695476D01*
X4996190Y-7695476D01*
X4977143Y-7685952D01*
X4967619Y-7666905D01*
X4967619Y-7647857D01*
X4977143Y-7628809D01*
X4996190Y-7619286D01*
X5043810Y-7619286D01*
X5062857Y-7609762D01*
X5158095Y-7562143D02*
X5158095Y-7762143D01*
X5158095Y-7571667D02*
X5177143Y-7562143D01*
X5215238Y-7562143D01*
X5234286Y-7571667D01*
X5243810Y-7581190D01*
X5253333Y-7600238D01*
X5253333Y-7657381D01*
X5243810Y-7676428D01*
X5234286Y-7685952D01*
X5215238Y-7695476D01*
X5177143Y-7695476D01*
X5158095Y-7685952D01*
X5339048Y-7676428D02*
X5348571Y-7685952D01*
X5339048Y-7695476D01*
X5329524Y-7685952D01*
X5339048Y-7676428D01*
X5339048Y-7695476D01*
X5339048Y-7571667D02*
X5348571Y-7581190D01*
X5339048Y-7590714D01*
X5329524Y-7581190D01*
X5339048Y-7571667D01*
X5339048Y-7590714D01*
M02*
