G04 #@! TF.GenerationSoftware,KiCad,Pcbnew,(6.0.6)*
G04 #@! TF.CreationDate,2024-05-12T15:36:13+02:00*
G04 #@! TF.ProjectId,pynq-buck-adapter,70796e71-2d62-4756-936b-2d6164617074,rev?*
G04 #@! TF.SameCoordinates,Original*
G04 #@! TF.FileFunction,Copper,L1,Top*
G04 #@! TF.FilePolarity,Positive*
%FSLAX46Y46*%
G04 Gerber Fmt 4.6, Leading zero omitted, Abs format (unit mm)*
G04 Created by KiCad (PCBNEW (6.0.6)) date 2024-05-12 15:36:13*
%MOMM*%
%LPD*%
G01*
G04 APERTURE LIST*
G04 #@! TA.AperFunction,NonConductor*
%ADD10C,0.200000*%
G04 #@! TD*
G04 #@! TA.AperFunction,ComponentPad*
%ADD11R,1.700000X1.700000*%
G04 #@! TD*
G04 #@! TA.AperFunction,ComponentPad*
%ADD12O,1.700000X1.700000*%
G04 #@! TD*
G04 #@! TA.AperFunction,ViaPad*
%ADD13C,1.400000*%
G04 #@! TD*
G04 #@! TA.AperFunction,Conductor*
%ADD14C,0.600000*%
G04 #@! TD*
G04 #@! TA.AperFunction,Conductor*
%ADD15C,0.300000*%
G04 #@! TD*
G04 APERTURE END LIST*
D10*
X37150000Y-73800000D02*
X37150000Y-23800000D01*
X119150000Y-73800000D02*
X37150000Y-73800000D01*
X119150000Y-23800000D02*
X119150000Y-73800000D01*
X37150000Y-23800000D02*
X119150000Y-23800000D01*
G04 #@! TA.AperFunction,SMDPad,CuDef*
G36*
G01*
X115950000Y-66600000D02*
X116850000Y-66600000D01*
G75*
G02*
X117100000Y-66850000I0J-250000D01*
G01*
X117100000Y-67550000D01*
G75*
G02*
X116850000Y-67800000I-250000J0D01*
G01*
X115950000Y-67800000D01*
G75*
G02*
X115700000Y-67550000I0J250000D01*
G01*
X115700000Y-66850000D01*
G75*
G02*
X115950000Y-66600000I250000J0D01*
G01*
G37*
G04 #@! TD.AperFunction*
G04 #@! TA.AperFunction,SMDPad,CuDef*
G36*
G01*
X115950000Y-64600000D02*
X116850000Y-64600000D01*
G75*
G02*
X117100000Y-64850000I0J-250000D01*
G01*
X117100000Y-65550000D01*
G75*
G02*
X116850000Y-65800000I-250000J0D01*
G01*
X115950000Y-65800000D01*
G75*
G02*
X115700000Y-65550000I0J250000D01*
G01*
X115700000Y-64850000D01*
G75*
G02*
X115950000Y-64600000I250000J0D01*
G01*
G37*
G04 #@! TD.AperFunction*
G04 #@! TA.AperFunction,SMDPad,CuDef*
G36*
G01*
X67450000Y-65000000D02*
X66550000Y-65000000D01*
G75*
G02*
X66300000Y-64750000I0J250000D01*
G01*
X66300000Y-64050000D01*
G75*
G02*
X66550000Y-63800000I250000J0D01*
G01*
X67450000Y-63800000D01*
G75*
G02*
X67700000Y-64050000I0J-250000D01*
G01*
X67700000Y-64750000D01*
G75*
G02*
X67450000Y-65000000I-250000J0D01*
G01*
G37*
G04 #@! TD.AperFunction*
G04 #@! TA.AperFunction,SMDPad,CuDef*
G36*
G01*
X67450000Y-63000000D02*
X66550000Y-63000000D01*
G75*
G02*
X66300000Y-62750000I0J250000D01*
G01*
X66300000Y-62050000D01*
G75*
G02*
X66550000Y-61800000I250000J0D01*
G01*
X67450000Y-61800000D01*
G75*
G02*
X67700000Y-62050000I0J-250000D01*
G01*
X67700000Y-62750000D01*
G75*
G02*
X67450000Y-63000000I-250000J0D01*
G01*
G37*
G04 #@! TD.AperFunction*
G04 #@! TA.AperFunction,SMDPad,CuDef*
G36*
G01*
X66550000Y-65600000D02*
X67450000Y-65600000D01*
G75*
G02*
X67700000Y-65850000I0J-250000D01*
G01*
X67700000Y-66550000D01*
G75*
G02*
X67450000Y-66800000I-250000J0D01*
G01*
X66550000Y-66800000D01*
G75*
G02*
X66300000Y-66550000I0J250000D01*
G01*
X66300000Y-65850000D01*
G75*
G02*
X66550000Y-65600000I250000J0D01*
G01*
G37*
G04 #@! TD.AperFunction*
G04 #@! TA.AperFunction,SMDPad,CuDef*
G36*
G01*
X66550000Y-67600000D02*
X67450000Y-67600000D01*
G75*
G02*
X67700000Y-67850000I0J-250000D01*
G01*
X67700000Y-68550000D01*
G75*
G02*
X67450000Y-68800000I-250000J0D01*
G01*
X66550000Y-68800000D01*
G75*
G02*
X66300000Y-68550000I0J250000D01*
G01*
X66300000Y-67850000D01*
G75*
G02*
X66550000Y-67600000I250000J0D01*
G01*
G37*
G04 #@! TD.AperFunction*
D11*
X40200000Y-61375000D03*
D12*
X40200000Y-63915000D03*
D11*
X40200000Y-37510000D03*
D12*
X40200000Y-40050000D03*
D11*
X113475000Y-67150000D03*
D12*
X113475000Y-69690000D03*
X110935000Y-67150000D03*
X110935000Y-69690000D03*
X108395000Y-67150000D03*
X108395000Y-69690000D03*
X105855000Y-67150000D03*
X105855000Y-69690000D03*
X103315000Y-67150000D03*
X103315000Y-69690000D03*
X100775000Y-67150000D03*
X100775000Y-69690000D03*
X98235000Y-67150000D03*
X98235000Y-69690000D03*
X95695000Y-67150000D03*
X95695000Y-69690000D03*
D11*
X40200000Y-28910000D03*
D12*
X40200000Y-31450000D03*
X102110000Y-52110000D03*
X99570000Y-52110000D03*
X102110000Y-49570000D03*
X99570000Y-49570000D03*
X102110000Y-47030000D03*
X99570000Y-47030000D03*
X102110000Y-44490000D03*
X99570000Y-44490000D03*
X102110000Y-41950000D03*
X99570000Y-41950000D03*
X102110000Y-39410000D03*
X99570000Y-39410000D03*
X102110000Y-36870000D03*
X99570000Y-36870000D03*
X102110000Y-34330000D03*
X99570000Y-34330000D03*
X102110000Y-31790000D03*
X99570000Y-31790000D03*
X102110000Y-29250000D03*
D11*
X99570000Y-29250000D03*
D12*
X58930000Y-52110000D03*
X56390000Y-52110000D03*
X58930000Y-49570000D03*
X56390000Y-49570000D03*
X58930000Y-47030000D03*
X56390000Y-47030000D03*
X58930000Y-44490000D03*
X56390000Y-44490000D03*
X58930000Y-41950000D03*
X56390000Y-41950000D03*
X58930000Y-39410000D03*
X56390000Y-39410000D03*
X58930000Y-36870000D03*
X56390000Y-36870000D03*
X58930000Y-34330000D03*
X56390000Y-34330000D03*
X58930000Y-31790000D03*
X56390000Y-31790000D03*
X58930000Y-29250000D03*
D11*
X56390000Y-29250000D03*
X63075000Y-67150000D03*
D12*
X63075000Y-69690000D03*
X60535000Y-67150000D03*
X60535000Y-69690000D03*
X57995000Y-67150000D03*
X57995000Y-69690000D03*
X55455000Y-67150000D03*
X55455000Y-69690000D03*
X52915000Y-67150000D03*
X52915000Y-69690000D03*
X50375000Y-67150000D03*
X50375000Y-69690000D03*
X47835000Y-67150000D03*
X47835000Y-69690000D03*
X45295000Y-67150000D03*
X45295000Y-69690000D03*
D11*
X40200000Y-46120000D03*
D12*
X40200000Y-48660000D03*
X40200000Y-51200000D03*
X40200000Y-53740000D03*
X40200000Y-56280000D03*
D13*
X92300000Y-63100000D03*
X88200000Y-30650000D03*
X63750000Y-26550000D03*
X79950000Y-34550000D03*
X80500000Y-59850000D03*
X115000000Y-43900000D03*
X105200000Y-30900000D03*
X105450000Y-35700000D03*
X49500000Y-29600000D03*
X43550000Y-44550000D03*
X101250000Y-58200000D03*
X64250000Y-63850000D03*
X51450000Y-42400000D03*
X47835000Y-37535000D03*
X47835000Y-48635000D03*
D14*
X116350000Y-67150000D02*
X116400000Y-67200000D01*
X113475000Y-67150000D02*
X116350000Y-67150000D01*
D15*
X67000000Y-44850000D02*
X67000000Y-62400000D01*
X61560000Y-39410000D02*
X67000000Y-44850000D01*
X58930000Y-39410000D02*
X61560000Y-39410000D01*
X60950000Y-60650000D02*
X60950000Y-66735000D01*
X64250000Y-57350000D02*
X60950000Y-60650000D01*
X64250000Y-45500000D02*
X64250000Y-57350000D01*
X58930000Y-41950000D02*
X60700000Y-41950000D01*
X60700000Y-41950000D02*
X64250000Y-45500000D01*
X60950000Y-66735000D02*
X60535000Y-67150000D01*
X57995000Y-61205000D02*
X57995000Y-67150000D01*
X62850000Y-56350000D02*
X57995000Y-61205000D01*
X62850000Y-46850000D02*
X62850000Y-56350000D01*
X58930000Y-44490000D02*
X60490000Y-44490000D01*
X60490000Y-44490000D02*
X62850000Y-46850000D01*
X55455000Y-60945000D02*
X55455000Y-67150000D01*
X61650000Y-49100000D02*
X61650000Y-54750000D01*
X59580000Y-47030000D02*
X61650000Y-49100000D01*
X61650000Y-54750000D02*
X55455000Y-60945000D01*
X58930000Y-47030000D02*
X59580000Y-47030000D01*
X59420000Y-49570000D02*
X60550000Y-50700000D01*
X52915000Y-60985000D02*
X52915000Y-67150000D01*
X58930000Y-49570000D02*
X59420000Y-49570000D01*
X60550000Y-50700000D02*
X60550000Y-53350000D01*
X60550000Y-53350000D02*
X52915000Y-60985000D01*
X50375000Y-60325000D02*
X50375000Y-67150000D01*
X58590000Y-52110000D02*
X50375000Y-60325000D01*
X58930000Y-52110000D02*
X58590000Y-52110000D01*
D14*
X98235000Y-65285000D02*
X98235000Y-67150000D01*
X93600000Y-60650000D02*
X98235000Y-65285000D01*
X88300000Y-26550000D02*
X93600000Y-31850000D01*
X93600000Y-31850000D02*
X93600000Y-60650000D01*
X63750000Y-26550000D02*
X88300000Y-26550000D01*
X92400000Y-67150000D02*
X95695000Y-67150000D01*
X82800000Y-29250000D02*
X88150000Y-34600000D01*
X88150000Y-34600000D02*
X88150000Y-62900000D01*
X88150000Y-62900000D02*
X92400000Y-67150000D01*
X58930000Y-29250000D02*
X82800000Y-29250000D01*
D15*
X105900000Y-38550000D02*
X105900000Y-67105000D01*
X105900000Y-67105000D02*
X105855000Y-67150000D01*
X100840000Y-35600000D02*
X102950000Y-35600000D01*
X99570000Y-34330000D02*
X100840000Y-35600000D01*
X102950000Y-35600000D02*
X105900000Y-38550000D01*
X103350000Y-38150000D02*
X104100000Y-38900000D01*
X104100000Y-38900000D02*
X104100000Y-66365000D01*
X100850000Y-38150000D02*
X103350000Y-38150000D01*
X99570000Y-36870000D02*
X100850000Y-38150000D01*
X104100000Y-66365000D02*
X103315000Y-67150000D01*
X42600000Y-70000000D02*
X42600000Y-52000000D01*
X44000000Y-71400000D02*
X42600000Y-70000000D01*
X41800000Y-51200000D02*
X40200000Y-51200000D01*
X67000000Y-69800000D02*
X65400000Y-71400000D01*
X65400000Y-71400000D02*
X44000000Y-71400000D01*
X42600000Y-52000000D02*
X41800000Y-51200000D01*
X67000000Y-68200000D02*
X67000000Y-69800000D01*
D14*
X49050000Y-27400000D02*
X45295000Y-31155000D01*
X40200000Y-28910000D02*
X47540000Y-28910000D01*
X47540000Y-28910000D02*
X49050000Y-27400000D01*
X50050000Y-26400000D02*
X49050000Y-27400000D01*
X45295000Y-31155000D02*
X45295000Y-33705000D01*
X57800000Y-26400000D02*
X50050000Y-26400000D01*
X58930000Y-27530000D02*
X57800000Y-26400000D01*
X58930000Y-29250000D02*
X58930000Y-27530000D01*
X47835000Y-37535000D02*
X47835000Y-48635000D01*
X47835000Y-34765000D02*
X47835000Y-37535000D01*
X40200000Y-44700000D02*
X45295000Y-39605000D01*
X45295000Y-39605000D02*
X45295000Y-33705000D01*
X40200000Y-46120000D02*
X40200000Y-44700000D01*
D15*
X97150000Y-59750000D02*
X100775000Y-63375000D01*
X97150000Y-41830000D02*
X97150000Y-59750000D01*
X100775000Y-63375000D02*
X100775000Y-67150000D01*
X99570000Y-39410000D02*
X97150000Y-41830000D01*
X108395000Y-36195000D02*
X108395000Y-67150000D01*
X105250000Y-33050000D02*
X108395000Y-36195000D01*
X100830000Y-33050000D02*
X105250000Y-33050000D01*
X99570000Y-31790000D02*
X100830000Y-33050000D01*
X103800000Y-26600000D02*
X110935000Y-33735000D01*
X101000000Y-26600000D02*
X103800000Y-26600000D01*
X99570000Y-28030000D02*
X101000000Y-26600000D01*
X99570000Y-29250000D02*
X99570000Y-28030000D01*
X110935000Y-33735000D02*
X110935000Y-67150000D01*
D14*
X47835000Y-48635000D02*
X47835000Y-67150000D01*
X45295000Y-33705000D02*
X45295000Y-67150000D01*
X53350000Y-29250000D02*
X47835000Y-34765000D01*
X56390000Y-29250000D02*
X53350000Y-29250000D01*
D15*
X67000000Y-64800000D02*
X67000000Y-66200000D01*
X64025000Y-66200000D02*
X67000000Y-66200000D01*
X63075000Y-67150000D02*
X64025000Y-66200000D01*
G04 #@! TA.AperFunction,Conductor*
G36*
X118395788Y-24419454D02*
G01*
X118476570Y-24473430D01*
X118530546Y-24554212D01*
X118549500Y-24649500D01*
X118549500Y-72950500D01*
X118530546Y-73045788D01*
X118476570Y-73126570D01*
X118395788Y-73180546D01*
X118300500Y-73199500D01*
X37999500Y-73199500D01*
X37904212Y-73180546D01*
X37823430Y-73126570D01*
X37769454Y-73045788D01*
X37750500Y-72950500D01*
X37750500Y-64173257D01*
X38872600Y-64173257D01*
X38873590Y-64180771D01*
X38923754Y-64367985D01*
X38931166Y-64388348D01*
X39021805Y-64582725D01*
X39032635Y-64601482D01*
X39155653Y-64777170D01*
X39169576Y-64793764D01*
X39321239Y-64945427D01*
X39337823Y-64959343D01*
X39513522Y-65082369D01*
X39532268Y-65093192D01*
X39726657Y-65183837D01*
X39747014Y-65191246D01*
X39926309Y-65239288D01*
X39947123Y-65240652D01*
X39949011Y-65236825D01*
X39950000Y-65229311D01*
X39950000Y-64189527D01*
X39945931Y-64169069D01*
X39925473Y-64165000D01*
X38893891Y-64165000D01*
X38873433Y-64169069D01*
X38872600Y-64173257D01*
X37750500Y-64173257D01*
X37750500Y-62265593D01*
X38850000Y-62265593D01*
X38850727Y-62279028D01*
X38854956Y-62317955D01*
X38862122Y-62348089D01*
X38900691Y-62450973D01*
X38917554Y-62481774D01*
X38982171Y-62567992D01*
X39007008Y-62592829D01*
X39093225Y-62657445D01*
X39096960Y-62659490D01*
X39105521Y-62666661D01*
X39107419Y-62668083D01*
X39107342Y-62668186D01*
X39171440Y-62721873D01*
X39216378Y-62808011D01*
X39224932Y-62904788D01*
X39195799Y-62997473D01*
X39168137Y-63037951D01*
X39155652Y-63052831D01*
X39032635Y-63228518D01*
X39021805Y-63247275D01*
X38931166Y-63441652D01*
X38923754Y-63462015D01*
X38875712Y-63641309D01*
X38874348Y-63662123D01*
X38878175Y-63664011D01*
X38885689Y-63665000D01*
X39925473Y-63665000D01*
X39945931Y-63660931D01*
X39950000Y-63640473D01*
X39950000Y-61649527D01*
X39945931Y-61629069D01*
X39925473Y-61625000D01*
X38874527Y-61625000D01*
X38854069Y-61629069D01*
X38850000Y-61649527D01*
X38850000Y-62265593D01*
X37750500Y-62265593D01*
X37750500Y-61100473D01*
X38850000Y-61100473D01*
X38854069Y-61120931D01*
X38874527Y-61125000D01*
X39925473Y-61125000D01*
X39945931Y-61120931D01*
X39950000Y-61100473D01*
X39950000Y-60049527D01*
X39945931Y-60029069D01*
X39925473Y-60025000D01*
X39309407Y-60025000D01*
X39295972Y-60025727D01*
X39257045Y-60029956D01*
X39226911Y-60037122D01*
X39124027Y-60075691D01*
X39093226Y-60092554D01*
X39007008Y-60157171D01*
X38982171Y-60182008D01*
X38917554Y-60268226D01*
X38900691Y-60299027D01*
X38862122Y-60401911D01*
X38854956Y-60432045D01*
X38850727Y-60470972D01*
X38850000Y-60484407D01*
X38850000Y-61100473D01*
X37750500Y-61100473D01*
X37750500Y-56538257D01*
X38872600Y-56538257D01*
X38873590Y-56545771D01*
X38923754Y-56732985D01*
X38931166Y-56753348D01*
X39021805Y-56947725D01*
X39032635Y-56966482D01*
X39155653Y-57142170D01*
X39169576Y-57158764D01*
X39321239Y-57310427D01*
X39337823Y-57324343D01*
X39513522Y-57447369D01*
X39532268Y-57458192D01*
X39726657Y-57548837D01*
X39747014Y-57556246D01*
X39926309Y-57604288D01*
X39947123Y-57605652D01*
X39949011Y-57601825D01*
X39950000Y-57594311D01*
X39950000Y-56554527D01*
X39945931Y-56534069D01*
X39925473Y-56530000D01*
X38893891Y-56530000D01*
X38873433Y-56534069D01*
X38872600Y-56538257D01*
X37750500Y-56538257D01*
X37750500Y-53998257D01*
X38872600Y-53998257D01*
X38873590Y-54005771D01*
X38923754Y-54192985D01*
X38931166Y-54213348D01*
X39021805Y-54407725D01*
X39032635Y-54426482D01*
X39155653Y-54602170D01*
X39169576Y-54618764D01*
X39321239Y-54770427D01*
X39337825Y-54784344D01*
X39368796Y-54806030D01*
X39435980Y-54876211D01*
X39471194Y-54966760D01*
X39469075Y-55063892D01*
X39429947Y-55152819D01*
X39368798Y-55213968D01*
X39337833Y-55235650D01*
X39321236Y-55249576D01*
X39169576Y-55401236D01*
X39155653Y-55417830D01*
X39032635Y-55593518D01*
X39021805Y-55612275D01*
X38931166Y-55806652D01*
X38923754Y-55827015D01*
X38875712Y-56006309D01*
X38874348Y-56027123D01*
X38878175Y-56029011D01*
X38885689Y-56030000D01*
X39925473Y-56030000D01*
X39945931Y-56025931D01*
X39950000Y-56005473D01*
X39950000Y-54014527D01*
X39945931Y-53994069D01*
X39925473Y-53990000D01*
X38893891Y-53990000D01*
X38873433Y-53994069D01*
X38872600Y-53998257D01*
X37750500Y-53998257D01*
X37750500Y-51200000D01*
X38844341Y-51200000D01*
X38864937Y-51435408D01*
X38926097Y-51663663D01*
X38930691Y-51673516D01*
X38930693Y-51673520D01*
X39013221Y-51850500D01*
X39025965Y-51877829D01*
X39161505Y-52071401D01*
X39328599Y-52238495D01*
X39337501Y-52244728D01*
X39337503Y-52244730D01*
X39368362Y-52266338D01*
X39435545Y-52336520D01*
X39470757Y-52427069D01*
X39468637Y-52524201D01*
X39429508Y-52613128D01*
X39368361Y-52674274D01*
X39337833Y-52695650D01*
X39321236Y-52709576D01*
X39169576Y-52861236D01*
X39155653Y-52877830D01*
X39032635Y-53053518D01*
X39021805Y-53072275D01*
X38931166Y-53266652D01*
X38923754Y-53287015D01*
X38875712Y-53466309D01*
X38874348Y-53487123D01*
X38878175Y-53489011D01*
X38885689Y-53490000D01*
X40201000Y-53490000D01*
X40296288Y-53508954D01*
X40377070Y-53562930D01*
X40431046Y-53643712D01*
X40450000Y-53739000D01*
X40450000Y-57586109D01*
X40454069Y-57606567D01*
X40458257Y-57607400D01*
X40465771Y-57606410D01*
X40652986Y-57556246D01*
X40673343Y-57548837D01*
X40867732Y-57458192D01*
X40886478Y-57447369D01*
X41062177Y-57324343D01*
X41078761Y-57310427D01*
X41230424Y-57158764D01*
X41244347Y-57142170D01*
X41367365Y-56966482D01*
X41378195Y-56947725D01*
X41473431Y-56743491D01*
X41475715Y-56744556D01*
X41516928Y-56676647D01*
X41595282Y-56619203D01*
X41689654Y-56596116D01*
X41785677Y-56610902D01*
X41868733Y-56661308D01*
X41926177Y-56739662D01*
X41949264Y-56834034D01*
X41949500Y-56844880D01*
X41949500Y-60148002D01*
X41930546Y-60243290D01*
X41876570Y-60324072D01*
X41795788Y-60378048D01*
X41700500Y-60397002D01*
X41605212Y-60378048D01*
X41524430Y-60324072D01*
X41493167Y-60282356D01*
X41493083Y-60282419D01*
X41417829Y-60182008D01*
X41392992Y-60157171D01*
X41306774Y-60092554D01*
X41275973Y-60075691D01*
X41173089Y-60037122D01*
X41142955Y-60029956D01*
X41104028Y-60025727D01*
X41090593Y-60025000D01*
X40474527Y-60025000D01*
X40454069Y-60029069D01*
X40450000Y-60049527D01*
X40450000Y-65221109D01*
X40454069Y-65241567D01*
X40458257Y-65242400D01*
X40465771Y-65241410D01*
X40652986Y-65191246D01*
X40673343Y-65183837D01*
X40867732Y-65093192D01*
X40886478Y-65082369D01*
X41062177Y-64959343D01*
X41078761Y-64945427D01*
X41230424Y-64793764D01*
X41244347Y-64777170D01*
X41367365Y-64601482D01*
X41378195Y-64582725D01*
X41473431Y-64378491D01*
X41475715Y-64379556D01*
X41516928Y-64311647D01*
X41595282Y-64254203D01*
X41689654Y-64231116D01*
X41785677Y-64245902D01*
X41868733Y-64296308D01*
X41926177Y-64374662D01*
X41949264Y-64469034D01*
X41949500Y-64479880D01*
X41949500Y-69923508D01*
X41949220Y-69929436D01*
X41947240Y-69938296D01*
X41947732Y-69953952D01*
X41949377Y-70006289D01*
X41949500Y-70014111D01*
X41949500Y-70040925D01*
X41950480Y-70048685D01*
X41950693Y-70052072D01*
X41951061Y-70059875D01*
X41952403Y-70102569D01*
X41956774Y-70117614D01*
X41957892Y-70124672D01*
X41961193Y-70140611D01*
X41962966Y-70147515D01*
X41964929Y-70163058D01*
X41978294Y-70196811D01*
X41979563Y-70200017D01*
X41987164Y-70222218D01*
X41987372Y-70222932D01*
X41998256Y-70260398D01*
X42006232Y-70273885D01*
X42009066Y-70280434D01*
X42016231Y-70295060D01*
X42019666Y-70301309D01*
X42025432Y-70315871D01*
X42034637Y-70328541D01*
X42034639Y-70328544D01*
X42048802Y-70348037D01*
X42061677Y-70367638D01*
X42081919Y-70401865D01*
X42092997Y-70412943D01*
X42097361Y-70418569D01*
X42107933Y-70430948D01*
X42112825Y-70436157D01*
X42122037Y-70448837D01*
X42134109Y-70458824D01*
X42134112Y-70458827D01*
X42152663Y-70474173D01*
X42170015Y-70489961D01*
X43485945Y-71805891D01*
X43489933Y-71810274D01*
X43494798Y-71817940D01*
X43506219Y-71828665D01*
X43544372Y-71864493D01*
X43549990Y-71869936D01*
X43568965Y-71888911D01*
X43575150Y-71893709D01*
X43577673Y-71895933D01*
X43583456Y-71901195D01*
X43614607Y-71930448D01*
X43628334Y-71937994D01*
X43634095Y-71942180D01*
X43647723Y-71951132D01*
X43653857Y-71954759D01*
X43666236Y-71964362D01*
X43702719Y-71980149D01*
X43723781Y-71990468D01*
X43744293Y-72001744D01*
X43758632Y-72009627D01*
X43773800Y-72013521D01*
X43780429Y-72016146D01*
X43795847Y-72021424D01*
X43802702Y-72023416D01*
X43817074Y-72029635D01*
X43832539Y-72032085D01*
X43832544Y-72032086D01*
X43856337Y-72035854D01*
X43879308Y-72040611D01*
X43902652Y-72046605D01*
X43902654Y-72046605D01*
X43917823Y-72050500D01*
X43933487Y-72050500D01*
X43940557Y-72051393D01*
X43956805Y-72052672D01*
X43963931Y-72052896D01*
X43979405Y-72055347D01*
X43994998Y-72053873D01*
X43995000Y-72053873D01*
X44018989Y-72051605D01*
X44042423Y-72050500D01*
X65323508Y-72050500D01*
X65329436Y-72050780D01*
X65338296Y-72052760D01*
X65353952Y-72052268D01*
X65406289Y-72050623D01*
X65414111Y-72050500D01*
X65440925Y-72050500D01*
X65448685Y-72049520D01*
X65452072Y-72049307D01*
X65459875Y-72048939D01*
X65502569Y-72047597D01*
X65517614Y-72043226D01*
X65524672Y-72042108D01*
X65540611Y-72038807D01*
X65547515Y-72037034D01*
X65563058Y-72035071D01*
X65600025Y-72020434D01*
X65622218Y-72012836D01*
X65645350Y-72006116D01*
X65645353Y-72006115D01*
X65660398Y-72001744D01*
X65673885Y-71993768D01*
X65680434Y-71990934D01*
X65695060Y-71983769D01*
X65701309Y-71980334D01*
X65715871Y-71974568D01*
X65728541Y-71965363D01*
X65728544Y-71965361D01*
X65748037Y-71951198D01*
X65767638Y-71938323D01*
X65801865Y-71918081D01*
X65812943Y-71907003D01*
X65818569Y-71902639D01*
X65830948Y-71892067D01*
X65836157Y-71887175D01*
X65848837Y-71877963D01*
X65858824Y-71865891D01*
X65858827Y-71865888D01*
X65874173Y-71847337D01*
X65889961Y-71829985D01*
X67405891Y-70314055D01*
X67410274Y-70310067D01*
X67417940Y-70305202D01*
X67464494Y-70255627D01*
X67469936Y-70250010D01*
X67488912Y-70231034D01*
X67493707Y-70224852D01*
X67495908Y-70222355D01*
X67501180Y-70216560D01*
X67519726Y-70196811D01*
X67519727Y-70196809D01*
X67530448Y-70185393D01*
X67537995Y-70171666D01*
X67542178Y-70165908D01*
X67551133Y-70152276D01*
X67554759Y-70146145D01*
X67564363Y-70133763D01*
X67570588Y-70119378D01*
X67580154Y-70097273D01*
X67590475Y-70076204D01*
X67595888Y-70066358D01*
X67609627Y-70041368D01*
X67613523Y-70026194D01*
X67616145Y-70019572D01*
X67621425Y-70004150D01*
X67623414Y-69997305D01*
X67629636Y-69982926D01*
X67632087Y-69967453D01*
X67632088Y-69967449D01*
X67635127Y-69948257D01*
X94367600Y-69948257D01*
X94368590Y-69955771D01*
X94418754Y-70142985D01*
X94426166Y-70163348D01*
X94516805Y-70357725D01*
X94527635Y-70376482D01*
X94650653Y-70552170D01*
X94664576Y-70568764D01*
X94816239Y-70720427D01*
X94832823Y-70734343D01*
X95008522Y-70857369D01*
X95027268Y-70868192D01*
X95221657Y-70958837D01*
X95242014Y-70966246D01*
X95421309Y-71014288D01*
X95442123Y-71015652D01*
X95444011Y-71011825D01*
X95445000Y-71004311D01*
X95445000Y-70996109D01*
X95945000Y-70996109D01*
X95949069Y-71016567D01*
X95953257Y-71017400D01*
X95960771Y-71016410D01*
X96147986Y-70966246D01*
X96168343Y-70958837D01*
X96362732Y-70868192D01*
X96381478Y-70857369D01*
X96557177Y-70734343D01*
X96573761Y-70720427D01*
X96725424Y-70568764D01*
X96739350Y-70552167D01*
X96761032Y-70521202D01*
X96831213Y-70454018D01*
X96921763Y-70418806D01*
X97018894Y-70420925D01*
X97107821Y-70460055D01*
X97168968Y-70521202D01*
X97190650Y-70552167D01*
X97204576Y-70568764D01*
X97356239Y-70720427D01*
X97372823Y-70734343D01*
X97548522Y-70857369D01*
X97567268Y-70868192D01*
X97761657Y-70958837D01*
X97782014Y-70966246D01*
X97961309Y-71014288D01*
X97982123Y-71015652D01*
X97984011Y-71011825D01*
X97985000Y-71004311D01*
X97985000Y-70996109D01*
X98485000Y-70996109D01*
X98489069Y-71016567D01*
X98493257Y-71017400D01*
X98500771Y-71016410D01*
X98687986Y-70966246D01*
X98708343Y-70958837D01*
X98902732Y-70868192D01*
X98921478Y-70857369D01*
X99097177Y-70734343D01*
X99113761Y-70720427D01*
X99265424Y-70568764D01*
X99279350Y-70552167D01*
X99301032Y-70521202D01*
X99371213Y-70454018D01*
X99461763Y-70418806D01*
X99558894Y-70420925D01*
X99647821Y-70460055D01*
X99708968Y-70521202D01*
X99730650Y-70552167D01*
X99744576Y-70568764D01*
X99896239Y-70720427D01*
X99912823Y-70734343D01*
X100088522Y-70857369D01*
X100107268Y-70868192D01*
X100301657Y-70958837D01*
X100322014Y-70966246D01*
X100501309Y-71014288D01*
X100522123Y-71015652D01*
X100524011Y-71011825D01*
X100525000Y-71004311D01*
X100525000Y-70996109D01*
X101025000Y-70996109D01*
X101029069Y-71016567D01*
X101033257Y-71017400D01*
X101040771Y-71016410D01*
X101227986Y-70966246D01*
X101248343Y-70958837D01*
X101442732Y-70868192D01*
X101461478Y-70857369D01*
X101637177Y-70734343D01*
X101653761Y-70720427D01*
X101805424Y-70568764D01*
X101819350Y-70552167D01*
X101841032Y-70521202D01*
X101911213Y-70454018D01*
X102001763Y-70418806D01*
X102098894Y-70420925D01*
X102187821Y-70460055D01*
X102248968Y-70521202D01*
X102270650Y-70552167D01*
X102284576Y-70568764D01*
X102436239Y-70720427D01*
X102452823Y-70734343D01*
X102628522Y-70857369D01*
X102647268Y-70868192D01*
X102841657Y-70958837D01*
X102862014Y-70966246D01*
X103041309Y-71014288D01*
X103062123Y-71015652D01*
X103064011Y-71011825D01*
X103065000Y-71004311D01*
X103065000Y-70996109D01*
X103565000Y-70996109D01*
X103569069Y-71016567D01*
X103573257Y-71017400D01*
X103580771Y-71016410D01*
X103767986Y-70966246D01*
X103788343Y-70958837D01*
X103982732Y-70868192D01*
X104001478Y-70857369D01*
X104177177Y-70734343D01*
X104193761Y-70720427D01*
X104345424Y-70568764D01*
X104359350Y-70552167D01*
X104381032Y-70521202D01*
X104451213Y-70454018D01*
X104541763Y-70418806D01*
X104638894Y-70420925D01*
X104727821Y-70460055D01*
X104788968Y-70521202D01*
X104810650Y-70552167D01*
X104824576Y-70568764D01*
X104976239Y-70720427D01*
X104992823Y-70734343D01*
X105168522Y-70857369D01*
X105187268Y-70868192D01*
X105381657Y-70958837D01*
X105402014Y-70966246D01*
X105581309Y-71014288D01*
X105602123Y-71015652D01*
X105604011Y-71011825D01*
X105605000Y-71004311D01*
X105605000Y-70996109D01*
X106105000Y-70996109D01*
X106109069Y-71016567D01*
X106113257Y-71017400D01*
X106120771Y-71016410D01*
X106307986Y-70966246D01*
X106328343Y-70958837D01*
X106522732Y-70868192D01*
X106541478Y-70857369D01*
X106717177Y-70734343D01*
X106733761Y-70720427D01*
X106885424Y-70568764D01*
X106899350Y-70552167D01*
X106921032Y-70521202D01*
X106991213Y-70454018D01*
X107081763Y-70418806D01*
X107178894Y-70420925D01*
X107267821Y-70460055D01*
X107328968Y-70521202D01*
X107350650Y-70552167D01*
X107364576Y-70568764D01*
X107516239Y-70720427D01*
X107532823Y-70734343D01*
X107708522Y-70857369D01*
X107727268Y-70868192D01*
X107921657Y-70958837D01*
X107942014Y-70966246D01*
X108121309Y-71014288D01*
X108142123Y-71015652D01*
X108144011Y-71011825D01*
X108145000Y-71004311D01*
X108145000Y-70996109D01*
X108645000Y-70996109D01*
X108649069Y-71016567D01*
X108653257Y-71017400D01*
X108660771Y-71016410D01*
X108847986Y-70966246D01*
X108868343Y-70958837D01*
X109062732Y-70868192D01*
X109081478Y-70857369D01*
X109257177Y-70734343D01*
X109273761Y-70720427D01*
X109425424Y-70568764D01*
X109439350Y-70552167D01*
X109461032Y-70521202D01*
X109531213Y-70454018D01*
X109621763Y-70418806D01*
X109718894Y-70420925D01*
X109807821Y-70460055D01*
X109868968Y-70521202D01*
X109890650Y-70552167D01*
X109904576Y-70568764D01*
X110056239Y-70720427D01*
X110072823Y-70734343D01*
X110248522Y-70857369D01*
X110267268Y-70868192D01*
X110461657Y-70958837D01*
X110482014Y-70966246D01*
X110661309Y-71014288D01*
X110682123Y-71015652D01*
X110684011Y-71011825D01*
X110685000Y-71004311D01*
X110685000Y-70996109D01*
X111185000Y-70996109D01*
X111189069Y-71016567D01*
X111193257Y-71017400D01*
X111200771Y-71016410D01*
X111387986Y-70966246D01*
X111408343Y-70958837D01*
X111602732Y-70868192D01*
X111621478Y-70857369D01*
X111797177Y-70734343D01*
X111813761Y-70720427D01*
X111965424Y-70568764D01*
X111979350Y-70552167D01*
X112001032Y-70521202D01*
X112071213Y-70454018D01*
X112161763Y-70418806D01*
X112258894Y-70420925D01*
X112347821Y-70460055D01*
X112408968Y-70521202D01*
X112430650Y-70552167D01*
X112444576Y-70568764D01*
X112596239Y-70720427D01*
X112612823Y-70734343D01*
X112788522Y-70857369D01*
X112807268Y-70868192D01*
X113001657Y-70958837D01*
X113022014Y-70966246D01*
X113201309Y-71014288D01*
X113222123Y-71015652D01*
X113224011Y-71011825D01*
X113225000Y-71004311D01*
X113225000Y-70996109D01*
X113725000Y-70996109D01*
X113729069Y-71016567D01*
X113733257Y-71017400D01*
X113740771Y-71016410D01*
X113927986Y-70966246D01*
X113948343Y-70958837D01*
X114142732Y-70868192D01*
X114161478Y-70857369D01*
X114337177Y-70734343D01*
X114353761Y-70720427D01*
X114505424Y-70568764D01*
X114519347Y-70552170D01*
X114642365Y-70376482D01*
X114653195Y-70357725D01*
X114743834Y-70163348D01*
X114751246Y-70142985D01*
X114799288Y-69963691D01*
X114800652Y-69942877D01*
X114796825Y-69940989D01*
X114789311Y-69940000D01*
X113749527Y-69940000D01*
X113729069Y-69944069D01*
X113725000Y-69964527D01*
X113725000Y-70996109D01*
X113225000Y-70996109D01*
X113225000Y-69964527D01*
X113220931Y-69944069D01*
X113200473Y-69940000D01*
X111209527Y-69940000D01*
X111189069Y-69944069D01*
X111185000Y-69964527D01*
X111185000Y-70996109D01*
X110685000Y-70996109D01*
X110685000Y-69964527D01*
X110680931Y-69944069D01*
X110660473Y-69940000D01*
X108669527Y-69940000D01*
X108649069Y-69944069D01*
X108645000Y-69964527D01*
X108645000Y-70996109D01*
X108145000Y-70996109D01*
X108145000Y-69964527D01*
X108140931Y-69944069D01*
X108120473Y-69940000D01*
X106129527Y-69940000D01*
X106109069Y-69944069D01*
X106105000Y-69964527D01*
X106105000Y-70996109D01*
X105605000Y-70996109D01*
X105605000Y-69964527D01*
X105600931Y-69944069D01*
X105580473Y-69940000D01*
X103589527Y-69940000D01*
X103569069Y-69944069D01*
X103565000Y-69964527D01*
X103565000Y-70996109D01*
X103065000Y-70996109D01*
X103065000Y-69964527D01*
X103060931Y-69944069D01*
X103040473Y-69940000D01*
X101049527Y-69940000D01*
X101029069Y-69944069D01*
X101025000Y-69964527D01*
X101025000Y-70996109D01*
X100525000Y-70996109D01*
X100525000Y-69964527D01*
X100520931Y-69944069D01*
X100500473Y-69940000D01*
X98509527Y-69940000D01*
X98489069Y-69944069D01*
X98485000Y-69964527D01*
X98485000Y-70996109D01*
X97985000Y-70996109D01*
X97985000Y-69964527D01*
X97980931Y-69944069D01*
X97960473Y-69940000D01*
X95969527Y-69940000D01*
X95949069Y-69944069D01*
X95945000Y-69964527D01*
X95945000Y-70996109D01*
X95445000Y-70996109D01*
X95445000Y-69964527D01*
X95440931Y-69944069D01*
X95420473Y-69940000D01*
X94388891Y-69940000D01*
X94368433Y-69944069D01*
X94367600Y-69948257D01*
X67635127Y-69948257D01*
X67635855Y-69943663D01*
X67640612Y-69920691D01*
X67646604Y-69897353D01*
X67646604Y-69897350D01*
X67650500Y-69882177D01*
X67650500Y-69866510D01*
X67651393Y-69859440D01*
X67652672Y-69843185D01*
X67652896Y-69836071D01*
X67655347Y-69820595D01*
X67651605Y-69781008D01*
X67650500Y-69757576D01*
X67650500Y-69446957D01*
X67669454Y-69351669D01*
X67723430Y-69270887D01*
X67772079Y-69236761D01*
X67770529Y-69234256D01*
X67798977Y-69216652D01*
X67919345Y-69142166D01*
X68042984Y-69018311D01*
X68052103Y-69003518D01*
X68127220Y-68881654D01*
X68127220Y-68881653D01*
X68134814Y-68869334D01*
X68166809Y-68772873D01*
X68185629Y-68716136D01*
X68185630Y-68716132D01*
X68189910Y-68703228D01*
X68192270Y-68680190D01*
X68199853Y-68606185D01*
X68199853Y-68606177D01*
X68200500Y-68599866D01*
X68200500Y-67800134D01*
X68189641Y-67695481D01*
X68158841Y-67603160D01*
X68138833Y-67543190D01*
X68134256Y-67529471D01*
X68042166Y-67380655D01*
X68031930Y-67370437D01*
X68022943Y-67359098D01*
X68025090Y-67357396D01*
X67983581Y-67295392D01*
X67964543Y-67200121D01*
X67983413Y-67104816D01*
X68025701Y-67041407D01*
X68023797Y-67039903D01*
X68032764Y-67028549D01*
X68042984Y-67018311D01*
X68101469Y-66923431D01*
X68127220Y-66881654D01*
X68127220Y-66881653D01*
X68134814Y-66869334D01*
X68189910Y-66703228D01*
X68192498Y-66677967D01*
X68199853Y-66606185D01*
X68199853Y-66606177D01*
X68200500Y-66599866D01*
X68200500Y-65800134D01*
X68198767Y-65783426D01*
X68191047Y-65709029D01*
X68191047Y-65709027D01*
X68189641Y-65695481D01*
X68185117Y-65681919D01*
X68138833Y-65543190D01*
X68134256Y-65529471D01*
X68073367Y-65431075D01*
X68039343Y-65340072D01*
X68042734Y-65242977D01*
X68073138Y-65169392D01*
X68120108Y-65093192D01*
X68134814Y-65069334D01*
X68175913Y-64945427D01*
X68185629Y-64916136D01*
X68185630Y-64916132D01*
X68189910Y-64903228D01*
X68197783Y-64826385D01*
X68199853Y-64806185D01*
X68199853Y-64806177D01*
X68200500Y-64799866D01*
X68200500Y-64000134D01*
X68189641Y-63895481D01*
X68134256Y-63729471D01*
X68042166Y-63580655D01*
X68031930Y-63570437D01*
X68022943Y-63559098D01*
X68025090Y-63557396D01*
X67983581Y-63495392D01*
X67964543Y-63400121D01*
X67983413Y-63304816D01*
X68025701Y-63241407D01*
X68023797Y-63239903D01*
X68032764Y-63228549D01*
X68042984Y-63218311D01*
X68053305Y-63201568D01*
X68127220Y-63081654D01*
X68127220Y-63081653D01*
X68134814Y-63069334D01*
X68163979Y-62981407D01*
X68185629Y-62916136D01*
X68185630Y-62916132D01*
X68189910Y-62903228D01*
X68200500Y-62799866D01*
X68200500Y-62000134D01*
X68189641Y-61895481D01*
X68134256Y-61729471D01*
X68042166Y-61580655D01*
X67943637Y-61482298D01*
X67928550Y-61467237D01*
X67928549Y-61467236D01*
X67918311Y-61457016D01*
X67905997Y-61449426D01*
X67905995Y-61449424D01*
X67769334Y-61365186D01*
X67771374Y-61361877D01*
X67715906Y-61321200D01*
X67665510Y-61238137D01*
X67650500Y-61152991D01*
X67650500Y-44926493D01*
X67650780Y-44920564D01*
X67652760Y-44911704D01*
X67650623Y-44843697D01*
X67650500Y-44835876D01*
X67650500Y-44809075D01*
X67649522Y-44801329D01*
X67649309Y-44797945D01*
X67648941Y-44790146D01*
X67648090Y-44763089D01*
X67647598Y-44747431D01*
X67643226Y-44732383D01*
X67642113Y-44725355D01*
X67638807Y-44709388D01*
X67637035Y-44702485D01*
X67635071Y-44686942D01*
X67620433Y-44649970D01*
X67612838Y-44627786D01*
X67606114Y-44604644D01*
X67601744Y-44589602D01*
X67593770Y-44576118D01*
X67590938Y-44569574D01*
X67583769Y-44554940D01*
X67580334Y-44548691D01*
X67574568Y-44534129D01*
X67551198Y-44501963D01*
X67538323Y-44482362D01*
X67518081Y-44448135D01*
X67507003Y-44437057D01*
X67502639Y-44431431D01*
X67492067Y-44419052D01*
X67487175Y-44413843D01*
X67477963Y-44401163D01*
X67465891Y-44391176D01*
X67465888Y-44391173D01*
X67447337Y-44375827D01*
X67429985Y-44360039D01*
X62074055Y-39004109D01*
X62070067Y-38999726D01*
X62065202Y-38992060D01*
X62015627Y-38945506D01*
X62010010Y-38940064D01*
X61991035Y-38921089D01*
X61984850Y-38916291D01*
X61982327Y-38914067D01*
X61976538Y-38908799D01*
X61956813Y-38890276D01*
X61945393Y-38879552D01*
X61931666Y-38872006D01*
X61925905Y-38867820D01*
X61912277Y-38858868D01*
X61906143Y-38855241D01*
X61893764Y-38845638D01*
X61857281Y-38829851D01*
X61836219Y-38819532D01*
X61815096Y-38807920D01*
X61815095Y-38807920D01*
X61801368Y-38800373D01*
X61786200Y-38796479D01*
X61779571Y-38793854D01*
X61764153Y-38788576D01*
X61757298Y-38786584D01*
X61742926Y-38780365D01*
X61727461Y-38777915D01*
X61727456Y-38777914D01*
X61703663Y-38774146D01*
X61680692Y-38769389D01*
X61657348Y-38763395D01*
X61657346Y-38763395D01*
X61642177Y-38759500D01*
X61626513Y-38759500D01*
X61619443Y-38758607D01*
X61603195Y-38757328D01*
X61596069Y-38757104D01*
X61580595Y-38754653D01*
X61565002Y-38756127D01*
X61565000Y-38756127D01*
X61541011Y-38758395D01*
X61517577Y-38759500D01*
X60252792Y-38759500D01*
X60157504Y-38740546D01*
X60076722Y-38686570D01*
X60048823Y-38653320D01*
X60013632Y-38603062D01*
X59968495Y-38538599D01*
X59801401Y-38371505D01*
X59792497Y-38365270D01*
X59762075Y-38343968D01*
X59694892Y-38273786D01*
X59659680Y-38183237D01*
X59661800Y-38086105D01*
X59700929Y-37997178D01*
X59762075Y-37936032D01*
X59792497Y-37914730D01*
X59792499Y-37914728D01*
X59801401Y-37908495D01*
X59968495Y-37741401D01*
X60104035Y-37547829D01*
X60203903Y-37333663D01*
X60265063Y-37105408D01*
X60266891Y-37084521D01*
X60284711Y-36880835D01*
X60285659Y-36870000D01*
X60265063Y-36634592D01*
X60203903Y-36406337D01*
X60134128Y-36256704D01*
X60108631Y-36202027D01*
X60104035Y-36192171D01*
X59968495Y-35998599D01*
X59801401Y-35831505D01*
X59792497Y-35825270D01*
X59762075Y-35803968D01*
X59694892Y-35733786D01*
X59659680Y-35643237D01*
X59661800Y-35546105D01*
X59700929Y-35457178D01*
X59762075Y-35396032D01*
X59792497Y-35374730D01*
X59792499Y-35374728D01*
X59801401Y-35368495D01*
X59968495Y-35201401D01*
X60089028Y-35029261D01*
X60097797Y-35016738D01*
X60097798Y-35016737D01*
X60104035Y-35007829D01*
X60139592Y-34931578D01*
X60199307Y-34803520D01*
X60199309Y-34803515D01*
X60203903Y-34793663D01*
X60265063Y-34565408D01*
X60267531Y-34537206D01*
X60284711Y-34340835D01*
X60285659Y-34330000D01*
X60273754Y-34193930D01*
X60266011Y-34105426D01*
X60266011Y-34105425D01*
X60265063Y-34094592D01*
X60203903Y-33866337D01*
X60176148Y-33806815D01*
X60108631Y-33662027D01*
X60104035Y-33652171D01*
X59968495Y-33458599D01*
X59801401Y-33291505D01*
X59792497Y-33285270D01*
X59761638Y-33263662D01*
X59694455Y-33193480D01*
X59659243Y-33102931D01*
X59661363Y-33005799D01*
X59700492Y-32916872D01*
X59761641Y-32855724D01*
X59792175Y-32834344D01*
X59808761Y-32820427D01*
X59960424Y-32668764D01*
X59974347Y-32652170D01*
X60097365Y-32476482D01*
X60108195Y-32457725D01*
X60198834Y-32263348D01*
X60206246Y-32242985D01*
X60254288Y-32063691D01*
X60255652Y-32042877D01*
X60251825Y-32040989D01*
X60244311Y-32040000D01*
X58929000Y-32040000D01*
X58833712Y-32021046D01*
X58752930Y-31967070D01*
X58698954Y-31886288D01*
X58680000Y-31791000D01*
X58680000Y-31789000D01*
X58698954Y-31693712D01*
X58752930Y-31612930D01*
X58833712Y-31558954D01*
X58929000Y-31540000D01*
X60236109Y-31540000D01*
X60256567Y-31535931D01*
X60257400Y-31531743D01*
X60256410Y-31524229D01*
X60206246Y-31337015D01*
X60198834Y-31316652D01*
X60108195Y-31122275D01*
X60097365Y-31103518D01*
X59974347Y-30927830D01*
X59960424Y-30911236D01*
X59808761Y-30759573D01*
X59792175Y-30745656D01*
X59761641Y-30724276D01*
X59694457Y-30654095D01*
X59659243Y-30563546D01*
X59661362Y-30466415D01*
X59700490Y-30377487D01*
X59761638Y-30316338D01*
X59792497Y-30294730D01*
X59792499Y-30294728D01*
X59801401Y-30288495D01*
X59966466Y-30123430D01*
X60047248Y-30069454D01*
X60142536Y-30050500D01*
X82365282Y-30050500D01*
X82460570Y-30069454D01*
X82541352Y-30123430D01*
X87276570Y-34858648D01*
X87330546Y-34939430D01*
X87349500Y-35034718D01*
X87349500Y-62890298D01*
X87349486Y-62892905D01*
X87348559Y-62981407D01*
X87351500Y-62995011D01*
X87351501Y-62995018D01*
X87356300Y-63017212D01*
X87360372Y-63042079D01*
X87364454Y-63078472D01*
X87372878Y-63102662D01*
X87381100Y-63131916D01*
X87386511Y-63156942D01*
X87392392Y-63169554D01*
X87392393Y-63169557D01*
X87401993Y-63190144D01*
X87411470Y-63213485D01*
X87423515Y-63248073D01*
X87430894Y-63259882D01*
X87430895Y-63259884D01*
X87437082Y-63269785D01*
X87451586Y-63296497D01*
X87462409Y-63319707D01*
X87480465Y-63342984D01*
X87484858Y-63348647D01*
X87499276Y-63369314D01*
X87518684Y-63400375D01*
X87539212Y-63421047D01*
X87547302Y-63429194D01*
X87547501Y-63429406D01*
X87548099Y-63430177D01*
X87573774Y-63455852D01*
X87574387Y-63456468D01*
X87645230Y-63527807D01*
X87646380Y-63528537D01*
X87647149Y-63529227D01*
X91827096Y-67709174D01*
X91828930Y-67711028D01*
X91890859Y-67774268D01*
X91902561Y-67781809D01*
X91902563Y-67781811D01*
X91921648Y-67794110D01*
X91942108Y-67808812D01*
X91970734Y-67831664D01*
X91993791Y-67842810D01*
X92020295Y-67857684D01*
X92030111Y-67864010D01*
X92041817Y-67871554D01*
X92076243Y-67884084D01*
X92099446Y-67893887D01*
X92132423Y-67909828D01*
X92157379Y-67915589D01*
X92186521Y-67924222D01*
X92197499Y-67928218D01*
X92197502Y-67928219D01*
X92210578Y-67932978D01*
X92246923Y-67937570D01*
X92271707Y-67941985D01*
X92293838Y-67947094D01*
X92293842Y-67947094D01*
X92307411Y-67950227D01*
X92348035Y-67950368D01*
X92348317Y-67950378D01*
X92349283Y-67950500D01*
X92385437Y-67950500D01*
X92386304Y-67950502D01*
X92487001Y-67950853D01*
X92488330Y-67950556D01*
X92489364Y-67950500D01*
X94482464Y-67950500D01*
X94577752Y-67969454D01*
X94658534Y-68023430D01*
X94823599Y-68188495D01*
X94832501Y-68194728D01*
X94832503Y-68194730D01*
X94863362Y-68216338D01*
X94930545Y-68286520D01*
X94965757Y-68377069D01*
X94963637Y-68474201D01*
X94924508Y-68563128D01*
X94863361Y-68624274D01*
X94832833Y-68645650D01*
X94816236Y-68659576D01*
X94664576Y-68811236D01*
X94650653Y-68827830D01*
X94527635Y-69003518D01*
X94516805Y-69022275D01*
X94426166Y-69216652D01*
X94418754Y-69237015D01*
X94370712Y-69416309D01*
X94369348Y-69437123D01*
X94373175Y-69439011D01*
X94380689Y-69440000D01*
X114781109Y-69440000D01*
X114801567Y-69435931D01*
X114802400Y-69431743D01*
X114801410Y-69424229D01*
X114751246Y-69237015D01*
X114743834Y-69216652D01*
X114653195Y-69022275D01*
X114642365Y-69003518D01*
X114519347Y-68827829D01*
X114507196Y-68813348D01*
X114460467Y-68728169D01*
X114449891Y-68631591D01*
X114477079Y-68538318D01*
X114537891Y-68462549D01*
X114563178Y-68445268D01*
X114567824Y-68443526D01*
X114582014Y-68432891D01*
X114582016Y-68432890D01*
X114668348Y-68368187D01*
X114682546Y-68357546D01*
X114768526Y-68242824D01*
X114817534Y-68112092D01*
X114868728Y-68029524D01*
X114947626Y-67972830D01*
X115050688Y-67950500D01*
X115185857Y-67950500D01*
X115281145Y-67969454D01*
X115361773Y-68023277D01*
X115481689Y-68142984D01*
X115494003Y-68150574D01*
X115494005Y-68150576D01*
X115565637Y-68194730D01*
X115630666Y-68234814D01*
X115697611Y-68257019D01*
X115783864Y-68285629D01*
X115783868Y-68285630D01*
X115796772Y-68289910D01*
X115810300Y-68291296D01*
X115893815Y-68299853D01*
X115893823Y-68299853D01*
X115900134Y-68300500D01*
X116899866Y-68300500D01*
X116906262Y-68299836D01*
X116906269Y-68299836D01*
X116990971Y-68291047D01*
X116990973Y-68291047D01*
X117004519Y-68289641D01*
X117017432Y-68285333D01*
X117017436Y-68285332D01*
X117156810Y-68238833D01*
X117170529Y-68234256D01*
X117182826Y-68226646D01*
X117182829Y-68226645D01*
X117266581Y-68174817D01*
X117319345Y-68142166D01*
X117442984Y-68018311D01*
X117465320Y-67982076D01*
X117527220Y-67881654D01*
X117527220Y-67881653D01*
X117534814Y-67869334D01*
X117589910Y-67703228D01*
X117598229Y-67622033D01*
X117599853Y-67606185D01*
X117599853Y-67606177D01*
X117600500Y-67599866D01*
X117600500Y-66800134D01*
X117589641Y-66695481D01*
X117557742Y-66599866D01*
X117538833Y-66543190D01*
X117534256Y-66529471D01*
X117442166Y-66380655D01*
X117431930Y-66370437D01*
X117422943Y-66359098D01*
X117425014Y-66357456D01*
X117383231Y-66295048D01*
X117364189Y-66199777D01*
X117383055Y-66104472D01*
X117425316Y-66041100D01*
X117423403Y-66039589D01*
X117450181Y-66005683D01*
X117526770Y-65881433D01*
X117538912Y-65855394D01*
X117585135Y-65716034D01*
X117590803Y-65689598D01*
X117599353Y-65606154D01*
X117600000Y-65593485D01*
X117600000Y-65474527D01*
X117595931Y-65454069D01*
X117575473Y-65450000D01*
X115224528Y-65450000D01*
X115204070Y-65454069D01*
X115200001Y-65474527D01*
X115200001Y-65593391D01*
X115200666Y-65606240D01*
X115209445Y-65690868D01*
X115215163Y-65717339D01*
X115261622Y-65856594D01*
X115273811Y-65882615D01*
X115327560Y-65969473D01*
X115361584Y-66060475D01*
X115358193Y-66157571D01*
X115317904Y-66245978D01*
X115246849Y-66312238D01*
X115155847Y-66346262D01*
X115115822Y-66349500D01*
X115050688Y-66349500D01*
X114955400Y-66330546D01*
X114874618Y-66276570D01*
X114817534Y-66187907D01*
X114768526Y-66057176D01*
X114682546Y-65942454D01*
X114567824Y-65856474D01*
X114464529Y-65817751D01*
X114448196Y-65811628D01*
X114448195Y-65811628D01*
X114433580Y-65806149D01*
X114372377Y-65799500D01*
X113475600Y-65799500D01*
X112577624Y-65799501D01*
X112516420Y-65806149D01*
X112382176Y-65856474D01*
X112267454Y-65942454D01*
X112184208Y-66053528D01*
X112184203Y-66053534D01*
X112181474Y-66057176D01*
X112181277Y-66057028D01*
X112127970Y-66120666D01*
X112041831Y-66165600D01*
X111945053Y-66174150D01*
X111852369Y-66145014D01*
X111813008Y-66118112D01*
X111806401Y-66111505D01*
X111797501Y-66105273D01*
X111797496Y-66105269D01*
X111691680Y-66031176D01*
X111624496Y-65960995D01*
X111589283Y-65870446D01*
X111585500Y-65827207D01*
X111585500Y-64925473D01*
X115200000Y-64925473D01*
X115204069Y-64945931D01*
X115224527Y-64950000D01*
X116125473Y-64950000D01*
X116145931Y-64945931D01*
X116150000Y-64925473D01*
X116650000Y-64925473D01*
X116654069Y-64945931D01*
X116674527Y-64950000D01*
X117575472Y-64950000D01*
X117595930Y-64945931D01*
X117599999Y-64925473D01*
X117599999Y-64806609D01*
X117599334Y-64793760D01*
X117590555Y-64709132D01*
X117584837Y-64682661D01*
X117538378Y-64543406D01*
X117526189Y-64517385D01*
X117449382Y-64393266D01*
X117431536Y-64370750D01*
X117328239Y-64267634D01*
X117305683Y-64249819D01*
X117181433Y-64173230D01*
X117155394Y-64161088D01*
X117016034Y-64114865D01*
X116989598Y-64109197D01*
X116906154Y-64100647D01*
X116893485Y-64100000D01*
X116674527Y-64100000D01*
X116654069Y-64104069D01*
X116650000Y-64124527D01*
X116650000Y-64925473D01*
X116150000Y-64925473D01*
X116150000Y-64124528D01*
X116145931Y-64104070D01*
X116125473Y-64100001D01*
X115906609Y-64100001D01*
X115893760Y-64100666D01*
X115809132Y-64109445D01*
X115782661Y-64115163D01*
X115643406Y-64161622D01*
X115617385Y-64173811D01*
X115493266Y-64250618D01*
X115470750Y-64268464D01*
X115367634Y-64371761D01*
X115349819Y-64394317D01*
X115273230Y-64518567D01*
X115261088Y-64544606D01*
X115214865Y-64683966D01*
X115209197Y-64710402D01*
X115200647Y-64793846D01*
X115200000Y-64806515D01*
X115200000Y-64925473D01*
X111585500Y-64925473D01*
X111585500Y-33811493D01*
X111585780Y-33805564D01*
X111587760Y-33796704D01*
X111585623Y-33728697D01*
X111585500Y-33720876D01*
X111585500Y-33694075D01*
X111584522Y-33686329D01*
X111584309Y-33682945D01*
X111583941Y-33675146D01*
X111583090Y-33648089D01*
X111582598Y-33632431D01*
X111578226Y-33617383D01*
X111577113Y-33610355D01*
X111573807Y-33594388D01*
X111572035Y-33587485D01*
X111570071Y-33571942D01*
X111555433Y-33534970D01*
X111547838Y-33512786D01*
X111541114Y-33489644D01*
X111536744Y-33474602D01*
X111528770Y-33461118D01*
X111525938Y-33454574D01*
X111518769Y-33439940D01*
X111515334Y-33433691D01*
X111509568Y-33419129D01*
X111486198Y-33386963D01*
X111473323Y-33367362D01*
X111453081Y-33333135D01*
X111442003Y-33322057D01*
X111437639Y-33316431D01*
X111427067Y-33304052D01*
X111422175Y-33298843D01*
X111412963Y-33286163D01*
X111400891Y-33276176D01*
X111400888Y-33276173D01*
X111382337Y-33260827D01*
X111364985Y-33245039D01*
X104314055Y-26194109D01*
X104310067Y-26189726D01*
X104305202Y-26182060D01*
X104255627Y-26135506D01*
X104250010Y-26130064D01*
X104231035Y-26111089D01*
X104224850Y-26106291D01*
X104222327Y-26104067D01*
X104216538Y-26098799D01*
X104205699Y-26088620D01*
X104185393Y-26069552D01*
X104171666Y-26062006D01*
X104165905Y-26057820D01*
X104152277Y-26048868D01*
X104146143Y-26045241D01*
X104133764Y-26035638D01*
X104097281Y-26019851D01*
X104076219Y-26009532D01*
X104055096Y-25997920D01*
X104055095Y-25997920D01*
X104041368Y-25990373D01*
X104026200Y-25986479D01*
X104019571Y-25983854D01*
X104004153Y-25978576D01*
X103997298Y-25976584D01*
X103982926Y-25970365D01*
X103967461Y-25967915D01*
X103967456Y-25967914D01*
X103943663Y-25964146D01*
X103920692Y-25959389D01*
X103897348Y-25953395D01*
X103897346Y-25953395D01*
X103882177Y-25949500D01*
X103866513Y-25949500D01*
X103859443Y-25948607D01*
X103843195Y-25947328D01*
X103836069Y-25947104D01*
X103820595Y-25944653D01*
X103805002Y-25946127D01*
X103805000Y-25946127D01*
X103781011Y-25948395D01*
X103757577Y-25949500D01*
X101076491Y-25949500D01*
X101070563Y-25949220D01*
X101061703Y-25947240D01*
X101046047Y-25947732D01*
X100993710Y-25949377D01*
X100985888Y-25949500D01*
X100959075Y-25949500D01*
X100951310Y-25950481D01*
X100947951Y-25950692D01*
X100940144Y-25951060D01*
X100921137Y-25951658D01*
X100897430Y-25952403D01*
X100882389Y-25956773D01*
X100875342Y-25957889D01*
X100859393Y-25961192D01*
X100852485Y-25962966D01*
X100836942Y-25964929D01*
X100799980Y-25979563D01*
X100777797Y-25987158D01*
X100754644Y-25993885D01*
X100754641Y-25993886D01*
X100739601Y-25998256D01*
X100726119Y-26006229D01*
X100719580Y-26009059D01*
X100704951Y-26016225D01*
X100698691Y-26019666D01*
X100684129Y-26025432D01*
X100671457Y-26034639D01*
X100671451Y-26034642D01*
X100651960Y-26048803D01*
X100632361Y-26061678D01*
X100598135Y-26081919D01*
X100587061Y-26092993D01*
X100581448Y-26097347D01*
X100569052Y-26107933D01*
X100563843Y-26112825D01*
X100551163Y-26122037D01*
X100541176Y-26134109D01*
X100541173Y-26134112D01*
X100525827Y-26152663D01*
X100510039Y-26170015D01*
X99164109Y-27515945D01*
X99159726Y-27519933D01*
X99152060Y-27524798D01*
X99141335Y-27536219D01*
X99105507Y-27574372D01*
X99100064Y-27579990D01*
X99081089Y-27598965D01*
X99076291Y-27605150D01*
X99074067Y-27607673D01*
X99068805Y-27613456D01*
X99039552Y-27644607D01*
X99032006Y-27658334D01*
X99027820Y-27664095D01*
X99018868Y-27677723D01*
X99015241Y-27683857D01*
X99005638Y-27696236D01*
X98996094Y-27718291D01*
X98989853Y-27732714D01*
X98979534Y-27753778D01*
X98970366Y-27770455D01*
X98907852Y-27844826D01*
X98821636Y-27889613D01*
X98752164Y-27899501D01*
X98672624Y-27899501D01*
X98611420Y-27906149D01*
X98477176Y-27956474D01*
X98362454Y-28042454D01*
X98276474Y-28157176D01*
X98270247Y-28173787D01*
X98232264Y-28275109D01*
X98226149Y-28291420D01*
X98219500Y-28352623D01*
X98219501Y-30147376D01*
X98226149Y-30208580D01*
X98276474Y-30342824D01*
X98362454Y-30457546D01*
X98473528Y-30540792D01*
X98473534Y-30540797D01*
X98477176Y-30543526D01*
X98477028Y-30543723D01*
X98540666Y-30597030D01*
X98585600Y-30683169D01*
X98594150Y-30779947D01*
X98565014Y-30872631D01*
X98538116Y-30911988D01*
X98531505Y-30918599D01*
X98395965Y-31112171D01*
X98391369Y-31122027D01*
X98337246Y-31238094D01*
X98296097Y-31326337D01*
X98234937Y-31554592D01*
X98233989Y-31565425D01*
X98233989Y-31565426D01*
X98230381Y-31606662D01*
X98214341Y-31790000D01*
X98234937Y-32025408D01*
X98296097Y-32253663D01*
X98300691Y-32263516D01*
X98300693Y-32263520D01*
X98380122Y-32433854D01*
X98395965Y-32467829D01*
X98531505Y-32661401D01*
X98698599Y-32828495D01*
X98707501Y-32834728D01*
X98707503Y-32834730D01*
X98737923Y-32856030D01*
X98805108Y-32926211D01*
X98840321Y-33016760D01*
X98838202Y-33113892D01*
X98799074Y-33202819D01*
X98737926Y-33263968D01*
X98698599Y-33291505D01*
X98531505Y-33458599D01*
X98395965Y-33652171D01*
X98391369Y-33662027D01*
X98323853Y-33806815D01*
X98296097Y-33866337D01*
X98234937Y-34094592D01*
X98233989Y-34105425D01*
X98233989Y-34105426D01*
X98226246Y-34193930D01*
X98214341Y-34330000D01*
X98215289Y-34340835D01*
X98232470Y-34537206D01*
X98234937Y-34565408D01*
X98296097Y-34793663D01*
X98300691Y-34803515D01*
X98300693Y-34803520D01*
X98360408Y-34931578D01*
X98395965Y-35007829D01*
X98402202Y-35016737D01*
X98402203Y-35016738D01*
X98410972Y-35029261D01*
X98531505Y-35201401D01*
X98698599Y-35368495D01*
X98707501Y-35374728D01*
X98707503Y-35374730D01*
X98737923Y-35396030D01*
X98805108Y-35466211D01*
X98840321Y-35556760D01*
X98838202Y-35653892D01*
X98799074Y-35742819D01*
X98737926Y-35803968D01*
X98698599Y-35831505D01*
X98531505Y-35998599D01*
X98395965Y-36192171D01*
X98391369Y-36202027D01*
X98365873Y-36256704D01*
X98296097Y-36406337D01*
X98234937Y-36634592D01*
X98214341Y-36870000D01*
X98215289Y-36880835D01*
X98233110Y-37084521D01*
X98234937Y-37105408D01*
X98296097Y-37333663D01*
X98395965Y-37547829D01*
X98531505Y-37741401D01*
X98698599Y-37908495D01*
X98707501Y-37914728D01*
X98707503Y-37914730D01*
X98737923Y-37936030D01*
X98805108Y-38006211D01*
X98840321Y-38096760D01*
X98838202Y-38193892D01*
X98799074Y-38282819D01*
X98737926Y-38343968D01*
X98698599Y-38371505D01*
X98531505Y-38538599D01*
X98395965Y-38732171D01*
X98391369Y-38742027D01*
X98305292Y-38926619D01*
X98296097Y-38946337D01*
X98234937Y-39174592D01*
X98214341Y-39410000D01*
X98234937Y-39645408D01*
X98237750Y-39655904D01*
X98239639Y-39666621D01*
X98236939Y-39667097D01*
X98242060Y-39745226D01*
X98210830Y-39837225D01*
X98171260Y-39888794D01*
X96744109Y-41315945D01*
X96739726Y-41319933D01*
X96732060Y-41324798D01*
X96721335Y-41336219D01*
X96685507Y-41374372D01*
X96680064Y-41379990D01*
X96661089Y-41398965D01*
X96656291Y-41405150D01*
X96654067Y-41407673D01*
X96648805Y-41413456D01*
X96619552Y-41444607D01*
X96612006Y-41458334D01*
X96607820Y-41464095D01*
X96598868Y-41477723D01*
X96595241Y-41483857D01*
X96585638Y-41496236D01*
X96570136Y-41532060D01*
X96569853Y-41532714D01*
X96559532Y-41553781D01*
X96547920Y-41574904D01*
X96540373Y-41588632D01*
X96536479Y-41603800D01*
X96533854Y-41610429D01*
X96528576Y-41625847D01*
X96526584Y-41632702D01*
X96520365Y-41647074D01*
X96517915Y-41662539D01*
X96517914Y-41662544D01*
X96514146Y-41686337D01*
X96509389Y-41709308D01*
X96505251Y-41725426D01*
X96499500Y-41747823D01*
X96499500Y-41763487D01*
X96498607Y-41770557D01*
X96497328Y-41786805D01*
X96497104Y-41793931D01*
X96494653Y-41809405D01*
X96496127Y-41824998D01*
X96496127Y-41825000D01*
X96498395Y-41848989D01*
X96499500Y-41872423D01*
X96499500Y-59673508D01*
X96499220Y-59679436D01*
X96497240Y-59688296D01*
X96497732Y-59703952D01*
X96499377Y-59756289D01*
X96499500Y-59764111D01*
X96499500Y-59790925D01*
X96500480Y-59798685D01*
X96500693Y-59802072D01*
X96501061Y-59809875D01*
X96502403Y-59852569D01*
X96506774Y-59867614D01*
X96507892Y-59874672D01*
X96511193Y-59890611D01*
X96512966Y-59897515D01*
X96514929Y-59913058D01*
X96520697Y-59927626D01*
X96529563Y-59950017D01*
X96537164Y-59972218D01*
X96548256Y-60010398D01*
X96556232Y-60023885D01*
X96559066Y-60030434D01*
X96566231Y-60045060D01*
X96569666Y-60051309D01*
X96575432Y-60065871D01*
X96584637Y-60078541D01*
X96584639Y-60078544D01*
X96598802Y-60098037D01*
X96611677Y-60117638D01*
X96631919Y-60151865D01*
X96642997Y-60162943D01*
X96647361Y-60168569D01*
X96657933Y-60180948D01*
X96662825Y-60186157D01*
X96672037Y-60198837D01*
X96684109Y-60208824D01*
X96684112Y-60208827D01*
X96702663Y-60224173D01*
X96720015Y-60239961D01*
X100051570Y-63571516D01*
X100105546Y-63652298D01*
X100124500Y-63747586D01*
X100124500Y-65827208D01*
X100105546Y-65922496D01*
X100051570Y-66003278D01*
X100018321Y-66031176D01*
X99903599Y-66111505D01*
X99736505Y-66278599D01*
X99708968Y-66317926D01*
X99638789Y-66385109D01*
X99548240Y-66420322D01*
X99451108Y-66418203D01*
X99362181Y-66379075D01*
X99301032Y-66317926D01*
X99273495Y-66278599D01*
X99108430Y-66113534D01*
X99054454Y-66032752D01*
X99035500Y-65937464D01*
X99035500Y-65294702D01*
X99035514Y-65292094D01*
X99036028Y-65242977D01*
X99036441Y-65203593D01*
X99033500Y-65189989D01*
X99033499Y-65189982D01*
X99028700Y-65167788D01*
X99024628Y-65142920D01*
X99022098Y-65120367D01*
X99020546Y-65106528D01*
X99012122Y-65082338D01*
X99003900Y-65053084D01*
X98998489Y-65028058D01*
X98983007Y-64994856D01*
X98973530Y-64971515D01*
X98966065Y-64950079D01*
X98961485Y-64936927D01*
X98948494Y-64916136D01*
X98947918Y-64915215D01*
X98933414Y-64888503D01*
X98922591Y-64865293D01*
X98900140Y-64836351D01*
X98885724Y-64815685D01*
X98873693Y-64796431D01*
X98866316Y-64784625D01*
X98837698Y-64755806D01*
X98837499Y-64755594D01*
X98836901Y-64754823D01*
X98811226Y-64729148D01*
X98810613Y-64728532D01*
X98791348Y-64709132D01*
X98739770Y-64657193D01*
X98738620Y-64656463D01*
X98737851Y-64655773D01*
X94473430Y-60391352D01*
X94419454Y-60310570D01*
X94400500Y-60215282D01*
X94400500Y-31859702D01*
X94400514Y-31857094D01*
X94401295Y-31782518D01*
X94401441Y-31768593D01*
X94398500Y-31754989D01*
X94398499Y-31754982D01*
X94393700Y-31732788D01*
X94389628Y-31707920D01*
X94389062Y-31702877D01*
X94385546Y-31671528D01*
X94377122Y-31647338D01*
X94368900Y-31618084D01*
X94363489Y-31593058D01*
X94348007Y-31559856D01*
X94338530Y-31536515D01*
X94331065Y-31515079D01*
X94326485Y-31501927D01*
X94312918Y-31480215D01*
X94298414Y-31453503D01*
X94287591Y-31430293D01*
X94265140Y-31401351D01*
X94250724Y-31380685D01*
X94238693Y-31361431D01*
X94231316Y-31349625D01*
X94202698Y-31320806D01*
X94202499Y-31320594D01*
X94201901Y-31319823D01*
X94176226Y-31294148D01*
X94175613Y-31293532D01*
X94175303Y-31293220D01*
X94104770Y-31222193D01*
X94103620Y-31221463D01*
X94102851Y-31220773D01*
X88872904Y-25990826D01*
X88871070Y-25988972D01*
X88818884Y-25935681D01*
X88818883Y-25935680D01*
X88809141Y-25925732D01*
X88797439Y-25918191D01*
X88797437Y-25918189D01*
X88778352Y-25905890D01*
X88757892Y-25891188D01*
X88740143Y-25877019D01*
X88740142Y-25877019D01*
X88729266Y-25868336D01*
X88716738Y-25862280D01*
X88716732Y-25862276D01*
X88706218Y-25857194D01*
X88679708Y-25842318D01*
X88658183Y-25828446D01*
X88645101Y-25823684D01*
X88645098Y-25823683D01*
X88623757Y-25815915D01*
X88600556Y-25806114D01*
X88580115Y-25796233D01*
X88580111Y-25796232D01*
X88567578Y-25790173D01*
X88542625Y-25784412D01*
X88513482Y-25775779D01*
X88502501Y-25771782D01*
X88502499Y-25771781D01*
X88489422Y-25767022D01*
X88453078Y-25762431D01*
X88428274Y-25758012D01*
X88406152Y-25752905D01*
X88406151Y-25752905D01*
X88392589Y-25749774D01*
X88378671Y-25749725D01*
X88378669Y-25749725D01*
X88364475Y-25749676D01*
X88351974Y-25749632D01*
X88351689Y-25749622D01*
X88350717Y-25749500D01*
X88314404Y-25749500D01*
X88313535Y-25749498D01*
X88313675Y-25749498D01*
X88213000Y-25749147D01*
X88211671Y-25749444D01*
X88210638Y-25749500D01*
X64750166Y-25749500D01*
X64654878Y-25730546D01*
X64581145Y-25683346D01*
X64504939Y-25612902D01*
X64483949Y-25593499D01*
X64444766Y-25568776D01*
X64307007Y-25481857D01*
X64307006Y-25481857D01*
X64297350Y-25475764D01*
X64286750Y-25471535D01*
X64286746Y-25471533D01*
X64103025Y-25398236D01*
X64103020Y-25398234D01*
X64092421Y-25394006D01*
X64039624Y-25383504D01*
X63887216Y-25353188D01*
X63887214Y-25353188D01*
X63876024Y-25350962D01*
X63756275Y-25349394D01*
X63666812Y-25348223D01*
X63666809Y-25348223D01*
X63655406Y-25348074D01*
X63561747Y-25364167D01*
X63449210Y-25383504D01*
X63449206Y-25383505D01*
X63437957Y-25385438D01*
X63358603Y-25414713D01*
X63241666Y-25457853D01*
X63241664Y-25457854D01*
X63230957Y-25461804D01*
X63041341Y-25574614D01*
X63010966Y-25601252D01*
X62884038Y-25712564D01*
X62884034Y-25712568D01*
X62875457Y-25720090D01*
X62868392Y-25729052D01*
X62868391Y-25729053D01*
X62857186Y-25743267D01*
X62738863Y-25893360D01*
X62636131Y-26088620D01*
X62632747Y-26099519D01*
X62632746Y-26099521D01*
X62631105Y-26104805D01*
X62570703Y-26299333D01*
X62544770Y-26518440D01*
X62559200Y-26738604D01*
X62562009Y-26749665D01*
X62562010Y-26749670D01*
X62600747Y-26902193D01*
X62613511Y-26952452D01*
X62705883Y-27152821D01*
X62833222Y-27333002D01*
X62841394Y-27340963D01*
X62841395Y-27340964D01*
X62983082Y-27478991D01*
X62983086Y-27478994D01*
X62991264Y-27486961D01*
X63174717Y-27609540D01*
X63185207Y-27614047D01*
X63185209Y-27614048D01*
X63333417Y-27677723D01*
X63377436Y-27696635D01*
X63592632Y-27745329D01*
X63702865Y-27749660D01*
X63801687Y-27753543D01*
X63801691Y-27753543D01*
X63813098Y-27753991D01*
X63959842Y-27732714D01*
X64020149Y-27723970D01*
X64020150Y-27723970D01*
X64031452Y-27722331D01*
X64042260Y-27718662D01*
X64042265Y-27718661D01*
X64203010Y-27664095D01*
X64240379Y-27651410D01*
X64432884Y-27543602D01*
X64510570Y-27478991D01*
X64595856Y-27408059D01*
X64681238Y-27361700D01*
X64755077Y-27350500D01*
X87865282Y-27350500D01*
X87960570Y-27369454D01*
X88041352Y-27423430D01*
X92726570Y-32108647D01*
X92780546Y-32189429D01*
X92799500Y-32284717D01*
X92799500Y-60640298D01*
X92799486Y-60642905D01*
X92798559Y-60731407D01*
X92801500Y-60745011D01*
X92801501Y-60745018D01*
X92806300Y-60767212D01*
X92810372Y-60792079D01*
X92814454Y-60828472D01*
X92822878Y-60852662D01*
X92831100Y-60881916D01*
X92836511Y-60906942D01*
X92842392Y-60919554D01*
X92842393Y-60919557D01*
X92851993Y-60940144D01*
X92861470Y-60963485D01*
X92873515Y-60998073D01*
X92880894Y-61009882D01*
X92880895Y-61009884D01*
X92887082Y-61019785D01*
X92901586Y-61046497D01*
X92912409Y-61069707D01*
X92920942Y-61080707D01*
X92934858Y-61098647D01*
X92949276Y-61119314D01*
X92968684Y-61150375D01*
X92995573Y-61177452D01*
X92997302Y-61179194D01*
X92997501Y-61179406D01*
X92998099Y-61180177D01*
X93023773Y-61205851D01*
X93024386Y-61206467D01*
X93095230Y-61277807D01*
X93096380Y-61278537D01*
X93097149Y-61279227D01*
X95264737Y-63446814D01*
X97361570Y-65543647D01*
X97415546Y-65624429D01*
X97434500Y-65719717D01*
X97434500Y-65937464D01*
X97415546Y-66032752D01*
X97361570Y-66113534D01*
X97196505Y-66278599D01*
X97168968Y-66317926D01*
X97098789Y-66385109D01*
X97008240Y-66420322D01*
X96911108Y-66418203D01*
X96822181Y-66379075D01*
X96761032Y-66317926D01*
X96733495Y-66278599D01*
X96566401Y-66111505D01*
X96557503Y-66105275D01*
X96557500Y-66105272D01*
X96381729Y-65982196D01*
X96381728Y-65982195D01*
X96372830Y-65975965D01*
X96362985Y-65971374D01*
X96362983Y-65971373D01*
X96278146Y-65931813D01*
X96158663Y-65876097D01*
X96148165Y-65873284D01*
X96148162Y-65873283D01*
X96032003Y-65842159D01*
X95930408Y-65814937D01*
X95919575Y-65813989D01*
X95919574Y-65813989D01*
X95753966Y-65799500D01*
X95695000Y-65794341D01*
X95636034Y-65799500D01*
X95470426Y-65813989D01*
X95470425Y-65813989D01*
X95459592Y-65814937D01*
X95231337Y-65876097D01*
X95221484Y-65880691D01*
X95221480Y-65880693D01*
X95049274Y-65960995D01*
X95017171Y-65975965D01*
X94823599Y-66111505D01*
X94658534Y-66276570D01*
X94577752Y-66330546D01*
X94482464Y-66349500D01*
X92834718Y-66349500D01*
X92739430Y-66330546D01*
X92658648Y-66276570D01*
X89023430Y-62641352D01*
X88969454Y-62560570D01*
X88950500Y-62465282D01*
X88950500Y-34609798D01*
X88950514Y-34607190D01*
X88951296Y-34532518D01*
X88951442Y-34518593D01*
X88948501Y-34504989D01*
X88948500Y-34504982D01*
X88943699Y-34482779D01*
X88939627Y-34457911D01*
X88937098Y-34435366D01*
X88935546Y-34421528D01*
X88930423Y-34406817D01*
X88927130Y-34397359D01*
X88918901Y-34368084D01*
X88916434Y-34356671D01*
X88916432Y-34356664D01*
X88913490Y-34343058D01*
X88898006Y-34309852D01*
X88888529Y-34286512D01*
X88881066Y-34265083D01*
X88876485Y-34251927D01*
X88862918Y-34230215D01*
X88848414Y-34203502D01*
X88843477Y-34192916D01*
X88837591Y-34180293D01*
X88815144Y-34151355D01*
X88800733Y-34130699D01*
X88781316Y-34099625D01*
X88752699Y-34070807D01*
X88752500Y-34070595D01*
X88751902Y-34069824D01*
X88726226Y-34044148D01*
X88725613Y-34043532D01*
X88725303Y-34043220D01*
X88654770Y-33972193D01*
X88653620Y-33971463D01*
X88652851Y-33970773D01*
X83372904Y-28690826D01*
X83371070Y-28688972D01*
X83318884Y-28635681D01*
X83318883Y-28635680D01*
X83309141Y-28625732D01*
X83297439Y-28618191D01*
X83297437Y-28618189D01*
X83278352Y-28605890D01*
X83257892Y-28591188D01*
X83240143Y-28577019D01*
X83240142Y-28577019D01*
X83229266Y-28568336D01*
X83216738Y-28562280D01*
X83216732Y-28562276D01*
X83206218Y-28557194D01*
X83179708Y-28542318D01*
X83158183Y-28528446D01*
X83145101Y-28523684D01*
X83145098Y-28523683D01*
X83123757Y-28515915D01*
X83100556Y-28506114D01*
X83080115Y-28496233D01*
X83080111Y-28496232D01*
X83067578Y-28490173D01*
X83042625Y-28484412D01*
X83013482Y-28475779D01*
X83002501Y-28471782D01*
X83002499Y-28471781D01*
X82989422Y-28467022D01*
X82953078Y-28462431D01*
X82928274Y-28458012D01*
X82906152Y-28452905D01*
X82906151Y-28452905D01*
X82892589Y-28449774D01*
X82878671Y-28449725D01*
X82878669Y-28449725D01*
X82864475Y-28449676D01*
X82851974Y-28449632D01*
X82851689Y-28449622D01*
X82850717Y-28449500D01*
X82814404Y-28449500D01*
X82813535Y-28449498D01*
X82813675Y-28449498D01*
X82713000Y-28449147D01*
X82711671Y-28449444D01*
X82710638Y-28449500D01*
X60142536Y-28449500D01*
X60047248Y-28430546D01*
X59966466Y-28376570D01*
X59803430Y-28213534D01*
X59749454Y-28132752D01*
X59730500Y-28037464D01*
X59730500Y-27539702D01*
X59730514Y-27537094D01*
X59730701Y-27519247D01*
X59731441Y-27448593D01*
X59728500Y-27434989D01*
X59728499Y-27434982D01*
X59723700Y-27412788D01*
X59719628Y-27387920D01*
X59715546Y-27351528D01*
X59707122Y-27327338D01*
X59698900Y-27298084D01*
X59693489Y-27273058D01*
X59687606Y-27260442D01*
X59687603Y-27260433D01*
X59678011Y-27239864D01*
X59668534Y-27216528D01*
X59656485Y-27181927D01*
X59642913Y-27160207D01*
X59628408Y-27133491D01*
X59617590Y-27110292D01*
X59609057Y-27099291D01*
X59595138Y-27081346D01*
X59580724Y-27060685D01*
X59561316Y-27029625D01*
X59532698Y-27000806D01*
X59532499Y-27000594D01*
X59531901Y-26999823D01*
X59506226Y-26974148D01*
X59505613Y-26973532D01*
X59494974Y-26962819D01*
X59434770Y-26902193D01*
X59433620Y-26901463D01*
X59432851Y-26900773D01*
X58372904Y-25840826D01*
X58371070Y-25838972D01*
X58318884Y-25785681D01*
X58318883Y-25785680D01*
X58309141Y-25775732D01*
X58297439Y-25768191D01*
X58297437Y-25768189D01*
X58278352Y-25755890D01*
X58257892Y-25741188D01*
X58240143Y-25727019D01*
X58240142Y-25727019D01*
X58229266Y-25718336D01*
X58216738Y-25712280D01*
X58216732Y-25712276D01*
X58206218Y-25707194D01*
X58179708Y-25692318D01*
X58158183Y-25678446D01*
X58145101Y-25673684D01*
X58145098Y-25673683D01*
X58123757Y-25665915D01*
X58100556Y-25656114D01*
X58080115Y-25646233D01*
X58080111Y-25646232D01*
X58067578Y-25640173D01*
X58042625Y-25634412D01*
X58013482Y-25625779D01*
X58002501Y-25621782D01*
X58002499Y-25621781D01*
X57989422Y-25617022D01*
X57953078Y-25612431D01*
X57928274Y-25608012D01*
X57906152Y-25602905D01*
X57906151Y-25602905D01*
X57892589Y-25599774D01*
X57878671Y-25599725D01*
X57878669Y-25599725D01*
X57864475Y-25599676D01*
X57851974Y-25599632D01*
X57851689Y-25599622D01*
X57850717Y-25599500D01*
X57814404Y-25599500D01*
X57813535Y-25599498D01*
X57813675Y-25599498D01*
X57713000Y-25599147D01*
X57711671Y-25599444D01*
X57710638Y-25599500D01*
X50059749Y-25599500D01*
X50057142Y-25599486D01*
X50056343Y-25599478D01*
X49968593Y-25598559D01*
X49932777Y-25606302D01*
X49907930Y-25610371D01*
X49871528Y-25614454D01*
X49847346Y-25622875D01*
X49818088Y-25631098D01*
X49811821Y-25632453D01*
X49793058Y-25636510D01*
X49780440Y-25642394D01*
X49759853Y-25651994D01*
X49736512Y-25661471D01*
X49723752Y-25665915D01*
X49701927Y-25673515D01*
X49686194Y-25683346D01*
X49680215Y-25687082D01*
X49653502Y-25701586D01*
X49645378Y-25705375D01*
X49630293Y-25712409D01*
X49611458Y-25727019D01*
X49601356Y-25734855D01*
X49580699Y-25749267D01*
X49549625Y-25768684D01*
X49539745Y-25778496D01*
X49539744Y-25778496D01*
X49520807Y-25797301D01*
X49520595Y-25797500D01*
X49519824Y-25798098D01*
X49494148Y-25823774D01*
X49493532Y-25824387D01*
X49422193Y-25895230D01*
X49421463Y-25896380D01*
X49420773Y-25897149D01*
X47281352Y-28036570D01*
X47200570Y-28090546D01*
X47105282Y-28109500D01*
X41775688Y-28109500D01*
X41680400Y-28090546D01*
X41599618Y-28036570D01*
X41542534Y-27947907D01*
X41493526Y-27817176D01*
X41430225Y-27732714D01*
X41418187Y-27716652D01*
X41407546Y-27702454D01*
X41292824Y-27616474D01*
X41231367Y-27593435D01*
X41173196Y-27571628D01*
X41173195Y-27571628D01*
X41158580Y-27566149D01*
X41097377Y-27559500D01*
X40200600Y-27559500D01*
X39302624Y-27559501D01*
X39241420Y-27566149D01*
X39107176Y-27616474D01*
X38992454Y-27702454D01*
X38981813Y-27716652D01*
X38969775Y-27732714D01*
X38906474Y-27817176D01*
X38856149Y-27951420D01*
X38849500Y-28012623D01*
X38849501Y-29807376D01*
X38856149Y-29868580D01*
X38906474Y-30002824D01*
X38992454Y-30117546D01*
X39006652Y-30128187D01*
X39092984Y-30192890D01*
X39092986Y-30192891D01*
X39104996Y-30201892D01*
X39107176Y-30203526D01*
X39107088Y-30203644D01*
X39171113Y-30257273D01*
X39216049Y-30343412D01*
X39224600Y-30440190D01*
X39195465Y-30532873D01*
X39167804Y-30573348D01*
X39155653Y-30587829D01*
X39032635Y-30763518D01*
X39021805Y-30782275D01*
X38931166Y-30976652D01*
X38923754Y-30997015D01*
X38875712Y-31176309D01*
X38874348Y-31197123D01*
X38878175Y-31199011D01*
X38885689Y-31200000D01*
X41506109Y-31200000D01*
X41526567Y-31195931D01*
X41527400Y-31191743D01*
X41526410Y-31184229D01*
X41476246Y-30997015D01*
X41468834Y-30976652D01*
X41378195Y-30782275D01*
X41367365Y-30763518D01*
X41244347Y-30587829D01*
X41232196Y-30573348D01*
X41185467Y-30488169D01*
X41174891Y-30391591D01*
X41202079Y-30298318D01*
X41262891Y-30222549D01*
X41288178Y-30205268D01*
X41292824Y-30203526D01*
X41307014Y-30192891D01*
X41307016Y-30192890D01*
X41393348Y-30128187D01*
X41407546Y-30117546D01*
X41493526Y-30002824D01*
X41542534Y-29872092D01*
X41593728Y-29789524D01*
X41672626Y-29732830D01*
X41775688Y-29710500D01*
X45006282Y-29710500D01*
X45101570Y-29729454D01*
X45182352Y-29783430D01*
X45236328Y-29864212D01*
X45255282Y-29959500D01*
X45236328Y-30054788D01*
X45182352Y-30135570D01*
X44735826Y-30582096D01*
X44733972Y-30583930D01*
X44670732Y-30645859D01*
X44663191Y-30657561D01*
X44663189Y-30657563D01*
X44650890Y-30676648D01*
X44636188Y-30697108D01*
X44613336Y-30725734D01*
X44607280Y-30738262D01*
X44607276Y-30738268D01*
X44602194Y-30748782D01*
X44587318Y-30775292D01*
X44573446Y-30796817D01*
X44568684Y-30809899D01*
X44568683Y-30809902D01*
X44560915Y-30831243D01*
X44551114Y-30854444D01*
X44541233Y-30874885D01*
X44541232Y-30874889D01*
X44535173Y-30887422D01*
X44529412Y-30912375D01*
X44520779Y-30941517D01*
X44512022Y-30965578D01*
X44510278Y-30979385D01*
X44507431Y-31001920D01*
X44503012Y-31026726D01*
X44494774Y-31062411D01*
X44494725Y-31076329D01*
X44494725Y-31076331D01*
X44494632Y-31103019D01*
X44494622Y-31103311D01*
X44494500Y-31104283D01*
X44494500Y-31140596D01*
X44494498Y-31141465D01*
X44494147Y-31242000D01*
X44494444Y-31243329D01*
X44494500Y-31244362D01*
X44494500Y-39170282D01*
X44475546Y-39265570D01*
X44421570Y-39346352D01*
X39640826Y-44127096D01*
X39638972Y-44128930D01*
X39575732Y-44190859D01*
X39568191Y-44202561D01*
X39568189Y-44202563D01*
X39555890Y-44221648D01*
X39541188Y-44242108D01*
X39518336Y-44270734D01*
X39512280Y-44283262D01*
X39512276Y-44283268D01*
X39507194Y-44293782D01*
X39492318Y-44320292D01*
X39478446Y-44341817D01*
X39473684Y-44354899D01*
X39473683Y-44354902D01*
X39465915Y-44376243D01*
X39456114Y-44399444D01*
X39446233Y-44419885D01*
X39446232Y-44419889D01*
X39440173Y-44432422D01*
X39434412Y-44457375D01*
X39425779Y-44486517D01*
X39417022Y-44510578D01*
X39415278Y-44524385D01*
X39412431Y-44546920D01*
X39408013Y-44571723D01*
X39402010Y-44597726D01*
X39362107Y-44686309D01*
X39291343Y-44752879D01*
X39240642Y-44774073D01*
X39241420Y-44776149D01*
X39107176Y-44826474D01*
X38992454Y-44912454D01*
X38906474Y-45027176D01*
X38856149Y-45161420D01*
X38849500Y-45222623D01*
X38849501Y-47017376D01*
X38856149Y-47078580D01*
X38906474Y-47212824D01*
X38992454Y-47327546D01*
X39103528Y-47410792D01*
X39103534Y-47410797D01*
X39107176Y-47413526D01*
X39107028Y-47413723D01*
X39170666Y-47467030D01*
X39215600Y-47553169D01*
X39224150Y-47649947D01*
X39195014Y-47742631D01*
X39168116Y-47781988D01*
X39161505Y-47788599D01*
X39155267Y-47797508D01*
X39034914Y-47969391D01*
X39025965Y-47982171D01*
X39021369Y-47992027D01*
X38982804Y-48074730D01*
X38926097Y-48196337D01*
X38864937Y-48424592D01*
X38844341Y-48660000D01*
X38864937Y-48895408D01*
X38926097Y-49123663D01*
X38930691Y-49133516D01*
X38930693Y-49133520D01*
X39012017Y-49307918D01*
X39025965Y-49337829D01*
X39161505Y-49531401D01*
X39328599Y-49698495D01*
X39337501Y-49704728D01*
X39337503Y-49704730D01*
X39367923Y-49726030D01*
X39435108Y-49796211D01*
X39470321Y-49886760D01*
X39468202Y-49983892D01*
X39429074Y-50072819D01*
X39367926Y-50133968D01*
X39328599Y-50161505D01*
X39161505Y-50328599D01*
X39025965Y-50522171D01*
X39021369Y-50532027D01*
X38935292Y-50716619D01*
X38926097Y-50736337D01*
X38864937Y-50964592D01*
X38844341Y-51200000D01*
X37750500Y-51200000D01*
X37750500Y-40308257D01*
X38872600Y-40308257D01*
X38873590Y-40315771D01*
X38923754Y-40502985D01*
X38931166Y-40523348D01*
X39021805Y-40717725D01*
X39032635Y-40736482D01*
X39155653Y-40912170D01*
X39169576Y-40928764D01*
X39321239Y-41080427D01*
X39337823Y-41094343D01*
X39513522Y-41217369D01*
X39532268Y-41228192D01*
X39726657Y-41318837D01*
X39747014Y-41326246D01*
X39926309Y-41374288D01*
X39947123Y-41375652D01*
X39949011Y-41371825D01*
X39950000Y-41364311D01*
X39950000Y-41356109D01*
X40450000Y-41356109D01*
X40454069Y-41376567D01*
X40458257Y-41377400D01*
X40465771Y-41376410D01*
X40652986Y-41326246D01*
X40673343Y-41318837D01*
X40867732Y-41228192D01*
X40886478Y-41217369D01*
X41062177Y-41094343D01*
X41078761Y-41080427D01*
X41230424Y-40928764D01*
X41244347Y-40912170D01*
X41367365Y-40736482D01*
X41378195Y-40717725D01*
X41468834Y-40523348D01*
X41476246Y-40502985D01*
X41524288Y-40323691D01*
X41525652Y-40302877D01*
X41521825Y-40300989D01*
X41514311Y-40300000D01*
X40474527Y-40300000D01*
X40454069Y-40304069D01*
X40450000Y-40324527D01*
X40450000Y-41356109D01*
X39950000Y-41356109D01*
X39950000Y-40324527D01*
X39945931Y-40304069D01*
X39925473Y-40300000D01*
X38893891Y-40300000D01*
X38873433Y-40304069D01*
X38872600Y-40308257D01*
X37750500Y-40308257D01*
X37750500Y-36612623D01*
X38849500Y-36612623D01*
X38849501Y-38407376D01*
X38856149Y-38468580D01*
X38906474Y-38602824D01*
X38992454Y-38717546D01*
X39006652Y-38728187D01*
X39092984Y-38792890D01*
X39092986Y-38792891D01*
X39104996Y-38801892D01*
X39107176Y-38803526D01*
X39107088Y-38803644D01*
X39171113Y-38857273D01*
X39216049Y-38943412D01*
X39224600Y-39040190D01*
X39195465Y-39132873D01*
X39167804Y-39173348D01*
X39155653Y-39187829D01*
X39032635Y-39363518D01*
X39021805Y-39382275D01*
X38931166Y-39576652D01*
X38923754Y-39597015D01*
X38875712Y-39776309D01*
X38874348Y-39797123D01*
X38878175Y-39799011D01*
X38885689Y-39800000D01*
X41506109Y-39800000D01*
X41526567Y-39795931D01*
X41527400Y-39791743D01*
X41526410Y-39784229D01*
X41476246Y-39597015D01*
X41468834Y-39576652D01*
X41378195Y-39382275D01*
X41367365Y-39363518D01*
X41244347Y-39187829D01*
X41232196Y-39173348D01*
X41185467Y-39088169D01*
X41174891Y-38991591D01*
X41202079Y-38898318D01*
X41262891Y-38822549D01*
X41288178Y-38805268D01*
X41292824Y-38803526D01*
X41307014Y-38792891D01*
X41307016Y-38792890D01*
X41393348Y-38728187D01*
X41407546Y-38717546D01*
X41493526Y-38602824D01*
X41517153Y-38539797D01*
X41538372Y-38483196D01*
X41538372Y-38483195D01*
X41543851Y-38468580D01*
X41550500Y-38407377D01*
X41550499Y-36612624D01*
X41543851Y-36551420D01*
X41493526Y-36417176D01*
X41407546Y-36302454D01*
X41292824Y-36216474D01*
X41197865Y-36180876D01*
X41173196Y-36171628D01*
X41173195Y-36171628D01*
X41158580Y-36166149D01*
X41097377Y-36159500D01*
X40200600Y-36159500D01*
X39302624Y-36159501D01*
X39241420Y-36166149D01*
X39107176Y-36216474D01*
X38992454Y-36302454D01*
X38906474Y-36417176D01*
X38856149Y-36551420D01*
X38849500Y-36612623D01*
X37750500Y-36612623D01*
X37750500Y-31708257D01*
X38872600Y-31708257D01*
X38873590Y-31715771D01*
X38923754Y-31902985D01*
X38931166Y-31923348D01*
X39021805Y-32117725D01*
X39032635Y-32136482D01*
X39155653Y-32312170D01*
X39169576Y-32328764D01*
X39321239Y-32480427D01*
X39337823Y-32494343D01*
X39513522Y-32617369D01*
X39532268Y-32628192D01*
X39726657Y-32718837D01*
X39747014Y-32726246D01*
X39926309Y-32774288D01*
X39947123Y-32775652D01*
X39949011Y-32771825D01*
X39950000Y-32764311D01*
X39950000Y-32756109D01*
X40450000Y-32756109D01*
X40454069Y-32776567D01*
X40458257Y-32777400D01*
X40465771Y-32776410D01*
X40652986Y-32726246D01*
X40673343Y-32718837D01*
X40867732Y-32628192D01*
X40886478Y-32617369D01*
X41062177Y-32494343D01*
X41078761Y-32480427D01*
X41230424Y-32328764D01*
X41244347Y-32312170D01*
X41367365Y-32136482D01*
X41378195Y-32117725D01*
X41468834Y-31923348D01*
X41476246Y-31902985D01*
X41524288Y-31723691D01*
X41525652Y-31702877D01*
X41521825Y-31700989D01*
X41514311Y-31700000D01*
X40474527Y-31700000D01*
X40454069Y-31704069D01*
X40450000Y-31724527D01*
X40450000Y-32756109D01*
X39950000Y-32756109D01*
X39950000Y-31724527D01*
X39945931Y-31704069D01*
X39925473Y-31700000D01*
X38893891Y-31700000D01*
X38873433Y-31704069D01*
X38872600Y-31708257D01*
X37750500Y-31708257D01*
X37750500Y-24649500D01*
X37769454Y-24554212D01*
X37823430Y-24473430D01*
X37904212Y-24419454D01*
X37999500Y-24400500D01*
X118300500Y-24400500D01*
X118395788Y-24419454D01*
G37*
G04 #@! TD.AperFunction*
G04 #@! TA.AperFunction,Conductor*
G36*
X44340788Y-41908672D02*
G01*
X44421570Y-41962648D01*
X44475546Y-42043430D01*
X44494500Y-42138718D01*
X44494500Y-65937464D01*
X44475546Y-66032752D01*
X44421570Y-66113534D01*
X44256505Y-66278599D01*
X44120965Y-66472171D01*
X44116369Y-66482027D01*
X44058473Y-66606185D01*
X44021097Y-66686337D01*
X43959937Y-66914592D01*
X43939341Y-67150000D01*
X43940289Y-67160835D01*
X43957723Y-67360097D01*
X43959937Y-67385408D01*
X44021097Y-67613663D01*
X44025691Y-67623516D01*
X44025693Y-67623520D01*
X44108428Y-67800943D01*
X44120965Y-67827829D01*
X44256505Y-68021401D01*
X44423599Y-68188495D01*
X44432501Y-68194728D01*
X44432503Y-68194730D01*
X44463362Y-68216338D01*
X44530545Y-68286520D01*
X44565757Y-68377069D01*
X44563637Y-68474201D01*
X44524508Y-68563128D01*
X44463361Y-68624274D01*
X44432833Y-68645650D01*
X44416236Y-68659576D01*
X44264576Y-68811236D01*
X44250653Y-68827830D01*
X44127635Y-69003518D01*
X44116805Y-69022275D01*
X44026166Y-69216652D01*
X44018754Y-69237015D01*
X43970712Y-69416309D01*
X43969348Y-69437123D01*
X43973175Y-69439011D01*
X43980689Y-69440000D01*
X64381109Y-69440000D01*
X64401567Y-69435931D01*
X64402400Y-69431743D01*
X64401410Y-69424229D01*
X64351246Y-69237015D01*
X64343834Y-69216652D01*
X64253195Y-69022275D01*
X64242365Y-69003518D01*
X64119347Y-68827829D01*
X64107196Y-68813348D01*
X64060467Y-68728169D01*
X64049891Y-68631591D01*
X64077079Y-68538318D01*
X64137891Y-68462549D01*
X64163178Y-68445268D01*
X64167824Y-68443526D01*
X64182014Y-68432891D01*
X64182016Y-68432890D01*
X64268348Y-68368187D01*
X64282546Y-68357546D01*
X64368526Y-68242824D01*
X64405954Y-68142984D01*
X64413372Y-68123196D01*
X64413372Y-68123195D01*
X64418851Y-68108580D01*
X64425500Y-68047377D01*
X64425499Y-67099499D01*
X64444453Y-67004212D01*
X64498429Y-66923431D01*
X64579211Y-66869454D01*
X64674499Y-66850500D01*
X65714615Y-66850500D01*
X65809903Y-66869454D01*
X65890685Y-66923430D01*
X65926352Y-66968471D01*
X65949573Y-67005995D01*
X65957834Y-67019345D01*
X65968069Y-67029562D01*
X65977057Y-67040902D01*
X65974910Y-67042604D01*
X66016419Y-67104608D01*
X66035457Y-67199879D01*
X66016587Y-67295184D01*
X65974299Y-67358593D01*
X65976203Y-67360097D01*
X65967236Y-67371451D01*
X65957016Y-67381689D01*
X65949426Y-67394003D01*
X65949424Y-67394005D01*
X65873504Y-67517171D01*
X65865186Y-67530666D01*
X65860630Y-67544403D01*
X65814803Y-67682564D01*
X65810090Y-67696772D01*
X65799500Y-67800134D01*
X65799500Y-68599866D01*
X65800164Y-68606262D01*
X65800164Y-68606269D01*
X65808821Y-68689700D01*
X65810359Y-68704519D01*
X65814667Y-68717432D01*
X65814668Y-68717436D01*
X65860762Y-68855597D01*
X65865744Y-68870529D01*
X65873354Y-68882826D01*
X65873355Y-68882829D01*
X65900059Y-68925982D01*
X65957834Y-69019345D01*
X66081689Y-69142984D01*
X66218993Y-69227619D01*
X66290159Y-69293751D01*
X66330603Y-69382087D01*
X66334164Y-69479177D01*
X66300299Y-69570239D01*
X66264402Y-69615652D01*
X65203484Y-70676570D01*
X65122702Y-70730546D01*
X65027414Y-70749500D01*
X64458283Y-70749500D01*
X64362995Y-70730546D01*
X64282213Y-70676570D01*
X64228237Y-70595788D01*
X64209283Y-70500500D01*
X64228237Y-70405212D01*
X64242643Y-70375999D01*
X64253199Y-70357716D01*
X64343834Y-70163348D01*
X64351246Y-70142985D01*
X64399288Y-69963691D01*
X64400652Y-69942877D01*
X64396825Y-69940989D01*
X64389311Y-69940000D01*
X43988891Y-69940000D01*
X43967241Y-69944307D01*
X43949629Y-69970665D01*
X43938444Y-69997666D01*
X43869744Y-70066364D01*
X43779984Y-70103541D01*
X43682829Y-70103540D01*
X43593070Y-70066358D01*
X43555341Y-70035395D01*
X43323430Y-69803484D01*
X43269454Y-69722702D01*
X43250500Y-69627414D01*
X43250500Y-52076492D01*
X43250780Y-52070564D01*
X43252760Y-52061704D01*
X43250623Y-51993710D01*
X43250500Y-51985889D01*
X43250500Y-51959075D01*
X43249520Y-51951315D01*
X43249307Y-51947928D01*
X43248939Y-51940122D01*
X43248089Y-51913091D01*
X43247597Y-51897431D01*
X43243226Y-51882386D01*
X43242108Y-51875328D01*
X43238807Y-51859389D01*
X43237034Y-51852485D01*
X43235071Y-51836942D01*
X43220434Y-51799975D01*
X43212836Y-51777782D01*
X43206116Y-51754650D01*
X43206115Y-51754647D01*
X43201744Y-51739602D01*
X43193768Y-51726115D01*
X43190934Y-51719566D01*
X43183769Y-51704940D01*
X43180334Y-51698691D01*
X43174568Y-51684129D01*
X43163600Y-51669032D01*
X43151198Y-51651963D01*
X43138323Y-51632362D01*
X43118081Y-51598135D01*
X43107003Y-51587057D01*
X43102639Y-51581431D01*
X43092067Y-51569052D01*
X43087175Y-51563843D01*
X43077963Y-51551163D01*
X43065891Y-51541176D01*
X43065888Y-51541173D01*
X43047337Y-51525827D01*
X43029985Y-51510039D01*
X42314055Y-50794109D01*
X42310067Y-50789726D01*
X42305202Y-50782060D01*
X42255627Y-50735506D01*
X42250010Y-50730064D01*
X42231035Y-50711089D01*
X42224850Y-50706291D01*
X42222327Y-50704067D01*
X42216538Y-50698799D01*
X42196813Y-50680276D01*
X42185393Y-50669552D01*
X42171666Y-50662006D01*
X42165905Y-50657820D01*
X42152277Y-50648868D01*
X42146143Y-50645241D01*
X42133764Y-50635638D01*
X42097281Y-50619851D01*
X42076219Y-50609532D01*
X42055096Y-50597920D01*
X42055095Y-50597920D01*
X42041368Y-50590373D01*
X42026200Y-50586479D01*
X42019571Y-50583854D01*
X42004153Y-50578576D01*
X41997298Y-50576584D01*
X41982926Y-50570365D01*
X41967461Y-50567915D01*
X41967456Y-50567914D01*
X41943663Y-50564146D01*
X41920692Y-50559389D01*
X41897348Y-50553395D01*
X41897346Y-50553395D01*
X41882177Y-50549500D01*
X41866513Y-50549500D01*
X41859443Y-50548607D01*
X41843195Y-50547328D01*
X41836069Y-50547104D01*
X41820595Y-50544653D01*
X41805002Y-50546127D01*
X41805000Y-50546127D01*
X41781011Y-50548395D01*
X41757577Y-50549500D01*
X41522792Y-50549500D01*
X41427504Y-50530546D01*
X41346722Y-50476570D01*
X41318823Y-50443320D01*
X41289944Y-50402076D01*
X41238495Y-50328599D01*
X41071401Y-50161505D01*
X41062497Y-50155270D01*
X41032075Y-50133968D01*
X40964892Y-50063786D01*
X40929680Y-49973237D01*
X40931800Y-49876105D01*
X40970929Y-49787178D01*
X41032075Y-49726032D01*
X41062497Y-49704730D01*
X41062499Y-49704728D01*
X41071401Y-49698495D01*
X41238495Y-49531401D01*
X41374035Y-49337829D01*
X41387983Y-49307918D01*
X41469307Y-49133520D01*
X41469309Y-49133516D01*
X41473903Y-49123663D01*
X41535063Y-48895408D01*
X41555659Y-48660000D01*
X41535063Y-48424592D01*
X41473903Y-48196337D01*
X41417197Y-48074730D01*
X41378631Y-47992027D01*
X41374035Y-47982171D01*
X41365087Y-47969391D01*
X41244733Y-47797508D01*
X41238495Y-47788599D01*
X41232216Y-47782320D01*
X41185916Y-47697920D01*
X41175341Y-47601342D01*
X41202530Y-47508069D01*
X41263343Y-47432301D01*
X41288373Y-47415195D01*
X41292824Y-47413526D01*
X41407546Y-47327546D01*
X41493526Y-47212824D01*
X41543851Y-47078580D01*
X41550500Y-47017377D01*
X41550499Y-45222624D01*
X41543851Y-45161420D01*
X41493526Y-45027176D01*
X41413671Y-44920626D01*
X41371692Y-44833008D01*
X41366438Y-44735996D01*
X41398709Y-44644357D01*
X41436853Y-44595225D01*
X44069430Y-41962648D01*
X44150212Y-41908672D01*
X44245500Y-41889718D01*
X44340788Y-41908672D01*
G37*
G04 #@! TD.AperFunction*
G04 #@! TA.AperFunction,Conductor*
G36*
X54909600Y-30069454D02*
G01*
X54990382Y-30123430D01*
X55047466Y-30212093D01*
X55096474Y-30342824D01*
X55182454Y-30457546D01*
X55293528Y-30540792D01*
X55293534Y-30540797D01*
X55297176Y-30543526D01*
X55297028Y-30543723D01*
X55360666Y-30597030D01*
X55405600Y-30683169D01*
X55414150Y-30779947D01*
X55385014Y-30872631D01*
X55358116Y-30911988D01*
X55351505Y-30918599D01*
X55215965Y-31112171D01*
X55211369Y-31122027D01*
X55157246Y-31238094D01*
X55116097Y-31326337D01*
X55054937Y-31554592D01*
X55053989Y-31565425D01*
X55053989Y-31565426D01*
X55050381Y-31606662D01*
X55034341Y-31790000D01*
X55054937Y-32025408D01*
X55116097Y-32253663D01*
X55120691Y-32263516D01*
X55120693Y-32263520D01*
X55200122Y-32433854D01*
X55215965Y-32467829D01*
X55351505Y-32661401D01*
X55518599Y-32828495D01*
X55527501Y-32834728D01*
X55527503Y-32834730D01*
X55557923Y-32856030D01*
X55625108Y-32926211D01*
X55660321Y-33016760D01*
X55658202Y-33113892D01*
X55619074Y-33202819D01*
X55557926Y-33263968D01*
X55518599Y-33291505D01*
X55351505Y-33458599D01*
X55215965Y-33652171D01*
X55211369Y-33662027D01*
X55143853Y-33806815D01*
X55116097Y-33866337D01*
X55054937Y-34094592D01*
X55053989Y-34105425D01*
X55053989Y-34105426D01*
X55046246Y-34193930D01*
X55034341Y-34330000D01*
X55035289Y-34340835D01*
X55052470Y-34537206D01*
X55054937Y-34565408D01*
X55116097Y-34793663D01*
X55120691Y-34803515D01*
X55120693Y-34803520D01*
X55180408Y-34931578D01*
X55215965Y-35007829D01*
X55222202Y-35016737D01*
X55222203Y-35016738D01*
X55230972Y-35029261D01*
X55351505Y-35201401D01*
X55518599Y-35368495D01*
X55527501Y-35374728D01*
X55527503Y-35374730D01*
X55557923Y-35396030D01*
X55625108Y-35466211D01*
X55660321Y-35556760D01*
X55658202Y-35653892D01*
X55619074Y-35742819D01*
X55557926Y-35803968D01*
X55518599Y-35831505D01*
X55351505Y-35998599D01*
X55215965Y-36192171D01*
X55211369Y-36202027D01*
X55185873Y-36256704D01*
X55116097Y-36406337D01*
X55054937Y-36634592D01*
X55034341Y-36870000D01*
X55035289Y-36880835D01*
X55053110Y-37084521D01*
X55054937Y-37105408D01*
X55116097Y-37333663D01*
X55215965Y-37547829D01*
X55351505Y-37741401D01*
X55518599Y-37908495D01*
X55527501Y-37914728D01*
X55527503Y-37914730D01*
X55557923Y-37936030D01*
X55625108Y-38006211D01*
X55660321Y-38096760D01*
X55658202Y-38193892D01*
X55619074Y-38282819D01*
X55557926Y-38343968D01*
X55518599Y-38371505D01*
X55351505Y-38538599D01*
X55215965Y-38732171D01*
X55211369Y-38742027D01*
X55125292Y-38926619D01*
X55116097Y-38946337D01*
X55054937Y-39174592D01*
X55034341Y-39410000D01*
X55054937Y-39645408D01*
X55116097Y-39873663D01*
X55120691Y-39883516D01*
X55120693Y-39883520D01*
X55203221Y-40060500D01*
X55215965Y-40087829D01*
X55351505Y-40281401D01*
X55518599Y-40448495D01*
X55527501Y-40454728D01*
X55527503Y-40454730D01*
X55557923Y-40476030D01*
X55625108Y-40546211D01*
X55660321Y-40636760D01*
X55658202Y-40733892D01*
X55619074Y-40822819D01*
X55557926Y-40883968D01*
X55518599Y-40911505D01*
X55351505Y-41078599D01*
X55215965Y-41272171D01*
X55211369Y-41282027D01*
X55125292Y-41466619D01*
X55116097Y-41486337D01*
X55054937Y-41714592D01*
X55053989Y-41725425D01*
X55053989Y-41725426D01*
X55042156Y-41860678D01*
X55034341Y-41950000D01*
X55054937Y-42185408D01*
X55116097Y-42413663D01*
X55215965Y-42627829D01*
X55351505Y-42821401D01*
X55518599Y-42988495D01*
X55527501Y-42994728D01*
X55527503Y-42994730D01*
X55557923Y-43016030D01*
X55625108Y-43086211D01*
X55660321Y-43176760D01*
X55658202Y-43273892D01*
X55619074Y-43362819D01*
X55557926Y-43423968D01*
X55518599Y-43451505D01*
X55351505Y-43618599D01*
X55215965Y-43812171D01*
X55211369Y-43822027D01*
X55125292Y-44006619D01*
X55116097Y-44026337D01*
X55054937Y-44254592D01*
X55034341Y-44490000D01*
X55035289Y-44500835D01*
X55051572Y-44686942D01*
X55054937Y-44725408D01*
X55116097Y-44953663D01*
X55120691Y-44963516D01*
X55120693Y-44963520D01*
X55203221Y-45140500D01*
X55215965Y-45167829D01*
X55351505Y-45361401D01*
X55518599Y-45528495D01*
X55527501Y-45534728D01*
X55527503Y-45534730D01*
X55557923Y-45556030D01*
X55625108Y-45626211D01*
X55660321Y-45716760D01*
X55658202Y-45813892D01*
X55619074Y-45902819D01*
X55557926Y-45963968D01*
X55518599Y-45991505D01*
X55351505Y-46158599D01*
X55215965Y-46352171D01*
X55116097Y-46566337D01*
X55054937Y-46794592D01*
X55034341Y-47030000D01*
X55054937Y-47265408D01*
X55116097Y-47493663D01*
X55120691Y-47503516D01*
X55120693Y-47503520D01*
X55135565Y-47535413D01*
X55215965Y-47707829D01*
X55222202Y-47716737D01*
X55222203Y-47716738D01*
X55249882Y-47756268D01*
X55351505Y-47901401D01*
X55518599Y-48068495D01*
X55527501Y-48074728D01*
X55527503Y-48074730D01*
X55557923Y-48096030D01*
X55625108Y-48166211D01*
X55660321Y-48256760D01*
X55658202Y-48353892D01*
X55619074Y-48442819D01*
X55557926Y-48503968D01*
X55518599Y-48531505D01*
X55351505Y-48698599D01*
X55215965Y-48892171D01*
X55211369Y-48902027D01*
X55143385Y-49047819D01*
X55116097Y-49106337D01*
X55054937Y-49334592D01*
X55053989Y-49345425D01*
X55053989Y-49345426D01*
X55051201Y-49377298D01*
X55034341Y-49570000D01*
X55054937Y-49805408D01*
X55116097Y-50033663D01*
X55120691Y-50043516D01*
X55120693Y-50043520D01*
X55206539Y-50227616D01*
X55215965Y-50247829D01*
X55351505Y-50441401D01*
X55518599Y-50608495D01*
X55527501Y-50614728D01*
X55527503Y-50614730D01*
X55557923Y-50636030D01*
X55625108Y-50706211D01*
X55660321Y-50796760D01*
X55658202Y-50893892D01*
X55619074Y-50982819D01*
X55557926Y-51043968D01*
X55518599Y-51071505D01*
X55351505Y-51238599D01*
X55215965Y-51432171D01*
X55211369Y-51442027D01*
X55160478Y-51551163D01*
X55116097Y-51646337D01*
X55054937Y-51874592D01*
X55053989Y-51885425D01*
X55053989Y-51885426D01*
X55046861Y-51966897D01*
X55034341Y-52110000D01*
X55054937Y-52345408D01*
X55116097Y-52573663D01*
X55120691Y-52583516D01*
X55120693Y-52583520D01*
X55179473Y-52709573D01*
X55215965Y-52787829D01*
X55351505Y-52981401D01*
X55518599Y-53148495D01*
X55527497Y-53154725D01*
X55527500Y-53154728D01*
X55700863Y-53276118D01*
X55712170Y-53284035D01*
X55722023Y-53288629D01*
X55722022Y-53288629D01*
X55924452Y-53383025D01*
X56002802Y-53440474D01*
X56053203Y-53523533D01*
X56067982Y-53619557D01*
X56044889Y-53713928D01*
X55995289Y-53784765D01*
X49969109Y-59810945D01*
X49964726Y-59814933D01*
X49957060Y-59819798D01*
X49946335Y-59831219D01*
X49910507Y-59869372D01*
X49905064Y-59874990D01*
X49886089Y-59893965D01*
X49881291Y-59900150D01*
X49879067Y-59902673D01*
X49873805Y-59908456D01*
X49844552Y-59939607D01*
X49837006Y-59953334D01*
X49832820Y-59959095D01*
X49823868Y-59972723D01*
X49820241Y-59978857D01*
X49810638Y-59991236D01*
X49804417Y-60005613D01*
X49794853Y-60027714D01*
X49784532Y-60048781D01*
X49775137Y-60065871D01*
X49765373Y-60083632D01*
X49761479Y-60098800D01*
X49758854Y-60105429D01*
X49753576Y-60120847D01*
X49751584Y-60127702D01*
X49745365Y-60142074D01*
X49742915Y-60157539D01*
X49742914Y-60157544D01*
X49739146Y-60181337D01*
X49734389Y-60204308D01*
X49728546Y-60227066D01*
X49724500Y-60242823D01*
X49724500Y-60258487D01*
X49723607Y-60265557D01*
X49722328Y-60281805D01*
X49722104Y-60288931D01*
X49719653Y-60304405D01*
X49721127Y-60319998D01*
X49721127Y-60320000D01*
X49723395Y-60343989D01*
X49724500Y-60367423D01*
X49724500Y-65827208D01*
X49705546Y-65922496D01*
X49651570Y-66003278D01*
X49618321Y-66031176D01*
X49503599Y-66111505D01*
X49336505Y-66278599D01*
X49308968Y-66317926D01*
X49238789Y-66385109D01*
X49148240Y-66420322D01*
X49051108Y-66418203D01*
X48962181Y-66379075D01*
X48901032Y-66317926D01*
X48873495Y-66278599D01*
X48708430Y-66113534D01*
X48654454Y-66032752D01*
X48635500Y-65937464D01*
X48635500Y-49640077D01*
X48654454Y-49544789D01*
X48693059Y-49480856D01*
X48821299Y-49326665D01*
X48821300Y-49326664D01*
X48828602Y-49317884D01*
X48936410Y-49125379D01*
X48966257Y-49037452D01*
X49003661Y-48927265D01*
X49003662Y-48927260D01*
X49007331Y-48916452D01*
X49038991Y-48698098D01*
X49040643Y-48635000D01*
X49020454Y-48415289D01*
X48960565Y-48202936D01*
X48862980Y-48005053D01*
X48839241Y-47973262D01*
X48737795Y-47837411D01*
X48730967Y-47828267D01*
X48722591Y-47820524D01*
X48722588Y-47820521D01*
X48715478Y-47813949D01*
X48658372Y-47735348D01*
X48635500Y-47631103D01*
X48635500Y-38540077D01*
X48654454Y-38444789D01*
X48693059Y-38380856D01*
X48821299Y-38226665D01*
X48821300Y-38226664D01*
X48828602Y-38217884D01*
X48936410Y-38025379D01*
X48978695Y-37900812D01*
X49003661Y-37827265D01*
X49003662Y-37827260D01*
X49007331Y-37816452D01*
X49038991Y-37598098D01*
X49040643Y-37535000D01*
X49020454Y-37315289D01*
X48960565Y-37102936D01*
X48862980Y-36905053D01*
X48844896Y-36880835D01*
X48737795Y-36737411D01*
X48730967Y-36728267D01*
X48722591Y-36720524D01*
X48722588Y-36720521D01*
X48715478Y-36713949D01*
X48658372Y-36635348D01*
X48635500Y-36531103D01*
X48635500Y-35199718D01*
X48654454Y-35104430D01*
X48708430Y-35023648D01*
X53608648Y-30123430D01*
X53689430Y-30069454D01*
X53784718Y-30050500D01*
X54814312Y-30050500D01*
X54909600Y-30069454D01*
G37*
G04 #@! TD.AperFunction*
G04 #@! TA.AperFunction,Conductor*
G36*
X57460570Y-27219454D02*
G01*
X57541352Y-27273430D01*
X58056570Y-27788648D01*
X58110546Y-27869430D01*
X58129500Y-27964718D01*
X58129500Y-28004806D01*
X58110546Y-28100094D01*
X58056570Y-28180876D01*
X57975788Y-28234852D01*
X57880500Y-28253806D01*
X57785212Y-28234852D01*
X57704430Y-28180876D01*
X57681249Y-28154137D01*
X57608189Y-28056654D01*
X57608187Y-28056652D01*
X57597546Y-28042454D01*
X57482824Y-27956474D01*
X57436288Y-27939029D01*
X57363196Y-27911628D01*
X57363195Y-27911628D01*
X57348580Y-27906149D01*
X57287377Y-27899500D01*
X56390600Y-27899500D01*
X55492624Y-27899501D01*
X55431420Y-27906149D01*
X55297176Y-27956474D01*
X55182454Y-28042454D01*
X55096474Y-28157176D01*
X55047466Y-28287908D01*
X54996272Y-28370476D01*
X54917374Y-28427170D01*
X54814312Y-28449500D01*
X53359702Y-28449500D01*
X53357094Y-28449486D01*
X53268593Y-28448559D01*
X53254989Y-28451500D01*
X53254982Y-28451501D01*
X53232788Y-28456300D01*
X53207921Y-28460372D01*
X53171528Y-28464454D01*
X53147338Y-28472878D01*
X53118084Y-28481100D01*
X53093058Y-28486511D01*
X53080446Y-28492392D01*
X53080443Y-28492393D01*
X53059856Y-28501993D01*
X53036515Y-28511470D01*
X53001927Y-28523515D01*
X52990118Y-28530894D01*
X52990116Y-28530895D01*
X52980215Y-28537082D01*
X52953503Y-28551586D01*
X52930293Y-28562409D01*
X52901348Y-28584862D01*
X52880690Y-28599272D01*
X52861436Y-28611303D01*
X52861432Y-28611306D01*
X52849625Y-28618684D01*
X52820787Y-28647322D01*
X52820597Y-28647500D01*
X52819824Y-28648099D01*
X52794292Y-28673631D01*
X52793676Y-28674244D01*
X52722193Y-28745230D01*
X52721462Y-28746381D01*
X52720771Y-28747152D01*
X47275826Y-34192096D01*
X47273972Y-34193930D01*
X47210732Y-34255859D01*
X47203191Y-34267561D01*
X47203189Y-34267563D01*
X47190890Y-34286648D01*
X47176188Y-34307108D01*
X47153336Y-34335734D01*
X47147280Y-34348262D01*
X47147276Y-34348268D01*
X47142194Y-34358782D01*
X47127318Y-34385292D01*
X47113446Y-34406817D01*
X47108684Y-34419899D01*
X47108683Y-34419902D01*
X47100915Y-34441243D01*
X47091114Y-34464444D01*
X47081233Y-34484885D01*
X47081232Y-34484889D01*
X47075173Y-34497422D01*
X47069412Y-34522375D01*
X47060779Y-34551517D01*
X47052022Y-34575578D01*
X47047860Y-34608527D01*
X47047431Y-34611920D01*
X47043012Y-34636726D01*
X47034774Y-34672411D01*
X47034725Y-34686329D01*
X47034725Y-34686331D01*
X47034632Y-34713019D01*
X47034622Y-34713311D01*
X47034500Y-34714283D01*
X47034500Y-34750596D01*
X47034498Y-34751465D01*
X47034147Y-34852000D01*
X47034444Y-34853329D01*
X47034500Y-34854362D01*
X47034500Y-36529242D01*
X47015546Y-36624530D01*
X46966899Y-36699441D01*
X46960457Y-36705090D01*
X46823863Y-36878360D01*
X46721131Y-37073620D01*
X46717747Y-37084519D01*
X46717746Y-37084521D01*
X46708618Y-37113918D01*
X46655703Y-37284333D01*
X46629770Y-37503440D01*
X46632679Y-37547829D01*
X46640103Y-37661089D01*
X46644200Y-37723604D01*
X46647009Y-37734665D01*
X46647010Y-37734670D01*
X46691157Y-37908495D01*
X46698511Y-37937452D01*
X46703289Y-37947816D01*
X46703290Y-37947819D01*
X46734062Y-38014567D01*
X46790883Y-38137821D01*
X46918222Y-38318002D01*
X46926394Y-38325963D01*
X46926395Y-38325964D01*
X46959251Y-38357971D01*
X47014279Y-38438039D01*
X47034500Y-38536329D01*
X47034500Y-47629242D01*
X47015546Y-47724530D01*
X46966899Y-47799441D01*
X46960457Y-47805090D01*
X46823863Y-47978360D01*
X46721131Y-48173620D01*
X46655703Y-48384333D01*
X46629770Y-48603440D01*
X46632767Y-48649165D01*
X46642988Y-48805109D01*
X46644200Y-48823604D01*
X46647009Y-48834665D01*
X46647010Y-48834670D01*
X46688104Y-48996476D01*
X46698511Y-49037452D01*
X46703289Y-49047816D01*
X46703290Y-49047819D01*
X46725723Y-49096480D01*
X46790883Y-49237821D01*
X46918222Y-49418002D01*
X46926394Y-49425963D01*
X46926395Y-49425964D01*
X46959251Y-49457971D01*
X47014279Y-49538039D01*
X47034500Y-49636329D01*
X47034500Y-65937464D01*
X47015546Y-66032752D01*
X46961570Y-66113534D01*
X46796505Y-66278599D01*
X46768968Y-66317926D01*
X46698789Y-66385109D01*
X46608240Y-66420322D01*
X46511108Y-66418203D01*
X46422181Y-66379075D01*
X46361032Y-66317926D01*
X46333495Y-66278599D01*
X46168430Y-66113534D01*
X46114454Y-66032752D01*
X46095500Y-65937464D01*
X46095500Y-39619404D01*
X46095502Y-39618535D01*
X46095839Y-39521906D01*
X46095853Y-39518000D01*
X46095556Y-39516671D01*
X46095500Y-39515638D01*
X46095500Y-31589718D01*
X46114454Y-31494430D01*
X46168430Y-31413648D01*
X48095852Y-29486226D01*
X48096468Y-29485613D01*
X48101067Y-29481046D01*
X48167807Y-29414770D01*
X48168537Y-29413620D01*
X48169227Y-29412851D01*
X50308648Y-27273430D01*
X50389430Y-27219454D01*
X50484718Y-27200500D01*
X57365282Y-27200500D01*
X57460570Y-27219454D01*
G37*
G04 #@! TD.AperFunction*
G04 #@! TA.AperFunction,Conductor*
G36*
X103522702Y-27269454D02*
G01*
X103603484Y-27323430D01*
X110211570Y-33931515D01*
X110265546Y-34012297D01*
X110284500Y-34107585D01*
X110284500Y-65827208D01*
X110265546Y-65922496D01*
X110211570Y-66003278D01*
X110178321Y-66031176D01*
X110063599Y-66111505D01*
X109896505Y-66278599D01*
X109868968Y-66317926D01*
X109798789Y-66385109D01*
X109708240Y-66420322D01*
X109611108Y-66418203D01*
X109522181Y-66379075D01*
X109461032Y-66317926D01*
X109433495Y-66278599D01*
X109266401Y-66111505D01*
X109257502Y-66105274D01*
X109257495Y-66105268D01*
X109151680Y-66031176D01*
X109084496Y-65960995D01*
X109049283Y-65870446D01*
X109045500Y-65827207D01*
X109045500Y-36271493D01*
X109045780Y-36265564D01*
X109047760Y-36256704D01*
X109045623Y-36188697D01*
X109045500Y-36180876D01*
X109045500Y-36154075D01*
X109044522Y-36146329D01*
X109044309Y-36142945D01*
X109043941Y-36135146D01*
X109043090Y-36108092D01*
X109042598Y-36092431D01*
X109038226Y-36077383D01*
X109037113Y-36070354D01*
X109033805Y-36054379D01*
X109032035Y-36047484D01*
X109030071Y-36031942D01*
X109015439Y-35994986D01*
X109007839Y-35972788D01*
X109001117Y-35949649D01*
X109001115Y-35949645D01*
X108996745Y-35934602D01*
X108988772Y-35921120D01*
X108985942Y-35914581D01*
X108978771Y-35899944D01*
X108975334Y-35893691D01*
X108969568Y-35879129D01*
X108946195Y-35846958D01*
X108933326Y-35827366D01*
X108921056Y-35806618D01*
X108921052Y-35806613D01*
X108913081Y-35793135D01*
X108902010Y-35782064D01*
X108897649Y-35776442D01*
X108887067Y-35764052D01*
X108882175Y-35758843D01*
X108872963Y-35746163D01*
X108860891Y-35736176D01*
X108860888Y-35736173D01*
X108842337Y-35720827D01*
X108824985Y-35705039D01*
X105764055Y-32644109D01*
X105760067Y-32639726D01*
X105755202Y-32632060D01*
X105705627Y-32585506D01*
X105700010Y-32580064D01*
X105681035Y-32561089D01*
X105674850Y-32556291D01*
X105672327Y-32554067D01*
X105666538Y-32548799D01*
X105646813Y-32530276D01*
X105635393Y-32519552D01*
X105621666Y-32512006D01*
X105615905Y-32507820D01*
X105602277Y-32498868D01*
X105596143Y-32495241D01*
X105583764Y-32485638D01*
X105547281Y-32469851D01*
X105526219Y-32459532D01*
X105505096Y-32447920D01*
X105505095Y-32447920D01*
X105491368Y-32440373D01*
X105476200Y-32436479D01*
X105469571Y-32433854D01*
X105454153Y-32428576D01*
X105447298Y-32426584D01*
X105432926Y-32420365D01*
X105417461Y-32417915D01*
X105417456Y-32417914D01*
X105393663Y-32414146D01*
X105370692Y-32409389D01*
X105347348Y-32403395D01*
X105347346Y-32403395D01*
X105332177Y-32399500D01*
X105316513Y-32399500D01*
X105309443Y-32398607D01*
X105293195Y-32397328D01*
X105286069Y-32397104D01*
X105270595Y-32394653D01*
X105255002Y-32396127D01*
X105255000Y-32396127D01*
X105231011Y-32398395D01*
X105207577Y-32399500D01*
X103669329Y-32399500D01*
X103574041Y-32380546D01*
X103493259Y-32326570D01*
X103439283Y-32245788D01*
X103420329Y-32150500D01*
X103428813Y-32086055D01*
X103442249Y-32035909D01*
X103445063Y-32025408D01*
X103465659Y-31790000D01*
X103449619Y-31606662D01*
X103446011Y-31565426D01*
X103446011Y-31565425D01*
X103445063Y-31554592D01*
X103383903Y-31326337D01*
X103342755Y-31238094D01*
X103288631Y-31122027D01*
X103284035Y-31112171D01*
X103148495Y-30918599D01*
X102981401Y-30751505D01*
X102962497Y-30738268D01*
X102941638Y-30723662D01*
X102874455Y-30653480D01*
X102839243Y-30562931D01*
X102841363Y-30465799D01*
X102880492Y-30376872D01*
X102941641Y-30315724D01*
X102972175Y-30294344D01*
X102988761Y-30280427D01*
X103140424Y-30128764D01*
X103154347Y-30112170D01*
X103277365Y-29936482D01*
X103288195Y-29917725D01*
X103378834Y-29723348D01*
X103386246Y-29702985D01*
X103434288Y-29523691D01*
X103435652Y-29502877D01*
X103431825Y-29500989D01*
X103424311Y-29500000D01*
X102109000Y-29500000D01*
X102013712Y-29481046D01*
X101932930Y-29427070D01*
X101878954Y-29346288D01*
X101860000Y-29251000D01*
X101860000Y-28975473D01*
X102360000Y-28975473D01*
X102364069Y-28995931D01*
X102384527Y-29000000D01*
X103416109Y-29000000D01*
X103436567Y-28995931D01*
X103437400Y-28991743D01*
X103436410Y-28984229D01*
X103386246Y-28797015D01*
X103378834Y-28776652D01*
X103288195Y-28582275D01*
X103277365Y-28563518D01*
X103154347Y-28387830D01*
X103140424Y-28371236D01*
X102988761Y-28219573D01*
X102972177Y-28205657D01*
X102796478Y-28082631D01*
X102777732Y-28071808D01*
X102583343Y-27981163D01*
X102562986Y-27973754D01*
X102383691Y-27925712D01*
X102362877Y-27924348D01*
X102360989Y-27928175D01*
X102360000Y-27935689D01*
X102360000Y-28975473D01*
X101860000Y-28975473D01*
X101860000Y-27943891D01*
X101855931Y-27923433D01*
X101851743Y-27922600D01*
X101844229Y-27923590D01*
X101657015Y-27973754D01*
X101636652Y-27981166D01*
X101442275Y-28071805D01*
X101423518Y-28082635D01*
X101247829Y-28205653D01*
X101233348Y-28217804D01*
X101148169Y-28264533D01*
X101051591Y-28275109D01*
X100958318Y-28247921D01*
X100882549Y-28187109D01*
X100865268Y-28161822D01*
X100863526Y-28157176D01*
X100778473Y-28043691D01*
X100736494Y-27956076D01*
X100731240Y-27859063D01*
X100763510Y-27767424D01*
X100801655Y-27718291D01*
X101196516Y-27323430D01*
X101277298Y-27269454D01*
X101372586Y-27250500D01*
X103427414Y-27250500D01*
X103522702Y-27269454D01*
G37*
G04 #@! TD.AperFunction*
G04 #@! TA.AperFunction,Conductor*
G36*
X98144788Y-52385367D02*
G01*
X98225570Y-52439343D01*
X98279546Y-52520125D01*
X98290016Y-52550968D01*
X98296097Y-52573663D01*
X98300691Y-52583516D01*
X98300693Y-52583520D01*
X98359473Y-52709573D01*
X98395965Y-52787829D01*
X98531505Y-52981401D01*
X98698599Y-53148495D01*
X98707497Y-53154725D01*
X98707500Y-53154728D01*
X98880863Y-53276118D01*
X98892170Y-53284035D01*
X98902015Y-53288626D01*
X98902017Y-53288627D01*
X98949280Y-53310666D01*
X99106337Y-53383903D01*
X99116835Y-53386716D01*
X99116838Y-53386717D01*
X99220465Y-53414483D01*
X99334592Y-53445063D01*
X99345425Y-53446011D01*
X99345426Y-53446011D01*
X99559165Y-53464711D01*
X99570000Y-53465659D01*
X99580835Y-53464711D01*
X99794574Y-53446011D01*
X99794575Y-53446011D01*
X99805408Y-53445063D01*
X99919535Y-53414483D01*
X100023162Y-53386717D01*
X100023165Y-53386716D01*
X100033663Y-53383903D01*
X100190720Y-53310666D01*
X100237983Y-53288627D01*
X100237985Y-53288626D01*
X100247830Y-53284035D01*
X100259137Y-53276118D01*
X100432500Y-53154728D01*
X100432503Y-53154725D01*
X100441401Y-53148495D01*
X100608495Y-52981401D01*
X100636032Y-52942074D01*
X100706211Y-52874891D01*
X100796760Y-52839678D01*
X100893892Y-52841797D01*
X100982819Y-52880925D01*
X101043968Y-52942074D01*
X101071505Y-52981401D01*
X101238599Y-53148495D01*
X101247497Y-53154725D01*
X101247500Y-53154728D01*
X101420863Y-53276118D01*
X101432170Y-53284035D01*
X101442015Y-53288626D01*
X101442017Y-53288627D01*
X101489280Y-53310666D01*
X101646337Y-53383903D01*
X101656835Y-53386716D01*
X101656838Y-53386717D01*
X101760465Y-53414483D01*
X101874592Y-53445063D01*
X101885425Y-53446011D01*
X101885426Y-53446011D01*
X102099165Y-53464711D01*
X102110000Y-53465659D01*
X102120835Y-53464711D01*
X102334574Y-53446011D01*
X102334575Y-53446011D01*
X102345408Y-53445063D01*
X102459535Y-53414483D01*
X102563162Y-53386717D01*
X102563165Y-53386716D01*
X102573663Y-53383903D01*
X102730720Y-53310666D01*
X102777983Y-53288627D01*
X102777985Y-53288626D01*
X102787830Y-53284035D01*
X102799137Y-53276118D01*
X102972500Y-53154728D01*
X102972503Y-53154725D01*
X102981401Y-53148495D01*
X103024430Y-53105466D01*
X103105212Y-53051490D01*
X103200500Y-53032536D01*
X103295788Y-53051490D01*
X103376570Y-53105466D01*
X103430546Y-53186248D01*
X103449500Y-53281536D01*
X103449500Y-65554408D01*
X103430546Y-65649696D01*
X103376570Y-65730478D01*
X103295788Y-65784454D01*
X103222202Y-65802460D01*
X103090426Y-65813989D01*
X103090425Y-65813989D01*
X103079592Y-65814937D01*
X102851337Y-65876097D01*
X102841484Y-65880691D01*
X102841480Y-65880693D01*
X102669274Y-65960995D01*
X102637171Y-65975965D01*
X102443599Y-66111505D01*
X102276505Y-66278599D01*
X102248968Y-66317926D01*
X102178789Y-66385109D01*
X102088240Y-66420322D01*
X101991108Y-66418203D01*
X101902181Y-66379075D01*
X101841032Y-66317926D01*
X101813495Y-66278599D01*
X101646401Y-66111505D01*
X101637502Y-66105274D01*
X101637495Y-66105268D01*
X101531680Y-66031176D01*
X101464496Y-65960995D01*
X101429283Y-65870446D01*
X101425500Y-65827207D01*
X101425500Y-63451491D01*
X101425780Y-63445563D01*
X101427760Y-63436703D01*
X101425623Y-63368709D01*
X101425500Y-63360888D01*
X101425500Y-63334075D01*
X101424519Y-63326310D01*
X101424308Y-63322952D01*
X101423940Y-63315145D01*
X101423089Y-63288092D01*
X101422597Y-63272431D01*
X101418226Y-63257386D01*
X101417108Y-63250328D01*
X101413806Y-63234386D01*
X101412034Y-63227485D01*
X101410071Y-63211942D01*
X101395434Y-63174973D01*
X101387838Y-63152790D01*
X101376744Y-63114601D01*
X101368767Y-63101112D01*
X101365937Y-63094573D01*
X101358775Y-63079951D01*
X101355334Y-63073691D01*
X101349568Y-63059129D01*
X101340361Y-63046457D01*
X101340358Y-63046451D01*
X101326197Y-63026960D01*
X101313319Y-63007356D01*
X101307475Y-62997473D01*
X101293081Y-62973135D01*
X101282007Y-62962061D01*
X101277653Y-62956448D01*
X101267067Y-62944052D01*
X101262175Y-62938843D01*
X101252963Y-62926163D01*
X101240891Y-62916176D01*
X101240888Y-62916173D01*
X101222337Y-62900827D01*
X101204985Y-62885039D01*
X97873430Y-59553484D01*
X97819454Y-59472702D01*
X97800500Y-59377414D01*
X97800500Y-52615413D01*
X97819454Y-52520125D01*
X97873430Y-52439343D01*
X97954212Y-52385367D01*
X98049500Y-52366413D01*
X98144788Y-52385367D01*
G37*
G04 #@! TD.AperFunction*
G04 #@! TA.AperFunction,Conductor*
G36*
X104972702Y-33719454D02*
G01*
X105053484Y-33773430D01*
X107671570Y-36391516D01*
X107725546Y-36472298D01*
X107744500Y-36567586D01*
X107744500Y-65827208D01*
X107725546Y-65922496D01*
X107671570Y-66003278D01*
X107638321Y-66031176D01*
X107523599Y-66111505D01*
X107356505Y-66278599D01*
X107328968Y-66317926D01*
X107258789Y-66385109D01*
X107168240Y-66420322D01*
X107071108Y-66418203D01*
X106982181Y-66379075D01*
X106921032Y-66317926D01*
X106893495Y-66278599D01*
X106726401Y-66111505D01*
X106656680Y-66062686D01*
X106589496Y-65992505D01*
X106554283Y-65901956D01*
X106550500Y-65858717D01*
X106550500Y-38626492D01*
X106550780Y-38620564D01*
X106552760Y-38611704D01*
X106550623Y-38543710D01*
X106550500Y-38535889D01*
X106550500Y-38509075D01*
X106549520Y-38501315D01*
X106549307Y-38497928D01*
X106548939Y-38490122D01*
X106547597Y-38447431D01*
X106543226Y-38432386D01*
X106542108Y-38425328D01*
X106538807Y-38409389D01*
X106537034Y-38402485D01*
X106535071Y-38386942D01*
X106520434Y-38349975D01*
X106512836Y-38327782D01*
X106506116Y-38304650D01*
X106506115Y-38304647D01*
X106501744Y-38289602D01*
X106493768Y-38276115D01*
X106490934Y-38269566D01*
X106483769Y-38254940D01*
X106480334Y-38248691D01*
X106474568Y-38234129D01*
X106462766Y-38217884D01*
X106451198Y-38201963D01*
X106438323Y-38182362D01*
X106418081Y-38148135D01*
X106407003Y-38137057D01*
X106402639Y-38131431D01*
X106392067Y-38119052D01*
X106387175Y-38113843D01*
X106377963Y-38101163D01*
X106365891Y-38091176D01*
X106365888Y-38091173D01*
X106347337Y-38075827D01*
X106329985Y-38060039D01*
X103464055Y-35194109D01*
X103460067Y-35189726D01*
X103455202Y-35182060D01*
X103411051Y-35140599D01*
X103354565Y-35061554D01*
X103332628Y-34966908D01*
X103348580Y-34871072D01*
X103355834Y-34853856D01*
X103355963Y-34853579D01*
X103383903Y-34793663D01*
X103445063Y-34565408D01*
X103447531Y-34537206D01*
X103464711Y-34340835D01*
X103465659Y-34330000D01*
X103453754Y-34193930D01*
X103446011Y-34105426D01*
X103446011Y-34105425D01*
X103445063Y-34094592D01*
X103423454Y-34013945D01*
X103417100Y-33916998D01*
X103448330Y-33824999D01*
X103512389Y-33751954D01*
X103599525Y-33708984D01*
X103663970Y-33700500D01*
X104877414Y-33700500D01*
X104972702Y-33719454D01*
G37*
G04 #@! TD.AperFunction*
G04 #@! TA.AperFunction,Conductor*
G36*
X61282702Y-40079454D02*
G01*
X61363484Y-40133430D01*
X66276570Y-45046515D01*
X66330546Y-45127297D01*
X66349500Y-45222585D01*
X66349500Y-61153043D01*
X66330546Y-61248331D01*
X66276570Y-61329113D01*
X66227921Y-61363239D01*
X66229471Y-61365744D01*
X66080655Y-61457834D01*
X65957016Y-61581689D01*
X65949426Y-61594003D01*
X65949424Y-61594005D01*
X65915200Y-61649527D01*
X65865186Y-61730666D01*
X65860630Y-61744403D01*
X65814803Y-61882564D01*
X65810090Y-61896772D01*
X65799500Y-62000134D01*
X65799500Y-62799866D01*
X65800164Y-62806262D01*
X65800164Y-62806269D01*
X65808821Y-62889700D01*
X65810359Y-62904519D01*
X65814667Y-62917432D01*
X65814668Y-62917436D01*
X65860762Y-63055597D01*
X65865744Y-63070529D01*
X65873354Y-63082826D01*
X65873355Y-63082829D01*
X65916639Y-63152774D01*
X65957834Y-63219345D01*
X65968070Y-63229563D01*
X65977057Y-63240902D01*
X65974910Y-63242604D01*
X66016419Y-63304608D01*
X66035457Y-63399879D01*
X66016587Y-63495184D01*
X65974299Y-63558593D01*
X65976203Y-63560097D01*
X65967236Y-63571451D01*
X65957016Y-63581689D01*
X65865186Y-63730666D01*
X65860630Y-63744403D01*
X65814803Y-63882564D01*
X65810090Y-63896772D01*
X65799500Y-64000134D01*
X65799500Y-64799866D01*
X65800164Y-64806262D01*
X65800164Y-64806269D01*
X65808696Y-64888494D01*
X65810359Y-64904519D01*
X65814667Y-64917432D01*
X65814668Y-64917436D01*
X65847366Y-65015443D01*
X65865744Y-65070529D01*
X65873354Y-65082826D01*
X65873355Y-65082829D01*
X65926633Y-65168925D01*
X65960657Y-65259928D01*
X65957266Y-65357023D01*
X65926998Y-65430387D01*
X65926661Y-65430935D01*
X65860600Y-65502175D01*
X65772306Y-65542711D01*
X65714558Y-65549500D01*
X64101492Y-65549500D01*
X64095564Y-65549220D01*
X64086704Y-65547240D01*
X64071048Y-65547732D01*
X64018711Y-65549377D01*
X64010889Y-65549500D01*
X63984075Y-65549500D01*
X63976315Y-65550480D01*
X63972928Y-65550693D01*
X63965125Y-65551061D01*
X63922431Y-65552403D01*
X63907386Y-65556774D01*
X63900328Y-65557892D01*
X63884389Y-65561193D01*
X63877485Y-65562966D01*
X63861942Y-65564929D01*
X63824975Y-65579566D01*
X63802782Y-65587164D01*
X63779650Y-65593884D01*
X63779647Y-65593885D01*
X63764602Y-65598256D01*
X63751115Y-65606232D01*
X63744566Y-65609066D01*
X63729940Y-65616231D01*
X63723691Y-65619666D01*
X63709129Y-65625432D01*
X63696459Y-65634637D01*
X63696456Y-65634639D01*
X63676963Y-65648802D01*
X63657362Y-65661677D01*
X63623135Y-65681919D01*
X63612057Y-65692997D01*
X63606431Y-65697361D01*
X63594052Y-65707933D01*
X63588843Y-65712824D01*
X63576163Y-65722037D01*
X63567378Y-65732656D01*
X63485970Y-65783426D01*
X63397956Y-65799500D01*
X62255925Y-65799501D01*
X62177624Y-65799501D01*
X62116420Y-65806149D01*
X61982176Y-65856474D01*
X61968566Y-65866674D01*
X61876391Y-65895648D01*
X61779613Y-65887095D01*
X61693475Y-65842159D01*
X61631090Y-65767679D01*
X61601956Y-65674995D01*
X61600500Y-65648104D01*
X61600500Y-61022586D01*
X61619454Y-60927298D01*
X61673430Y-60846516D01*
X64655886Y-57864059D01*
X64660271Y-57860069D01*
X64667940Y-57855202D01*
X64714509Y-57805611D01*
X64719951Y-57799994D01*
X64738911Y-57781034D01*
X64743709Y-57774849D01*
X64745909Y-57772353D01*
X64751181Y-57766559D01*
X64769721Y-57746816D01*
X64780448Y-57735393D01*
X64787997Y-57721661D01*
X64792187Y-57715894D01*
X64801135Y-57702272D01*
X64804760Y-57696143D01*
X64814363Y-57683763D01*
X64820586Y-57669383D01*
X64830154Y-57647273D01*
X64840475Y-57626204D01*
X64852080Y-57605095D01*
X64859627Y-57591368D01*
X64863523Y-57576194D01*
X64866145Y-57569572D01*
X64871425Y-57554150D01*
X64873414Y-57547305D01*
X64879636Y-57532926D01*
X64882087Y-57517453D01*
X64882088Y-57517449D01*
X64885855Y-57493663D01*
X64890612Y-57470691D01*
X64896604Y-57447353D01*
X64896604Y-57447350D01*
X64900500Y-57432177D01*
X64900500Y-57416510D01*
X64901393Y-57409440D01*
X64902672Y-57393185D01*
X64902896Y-57386071D01*
X64905347Y-57370595D01*
X64901605Y-57331011D01*
X64900500Y-57307577D01*
X64900500Y-45576491D01*
X64900780Y-45570563D01*
X64902760Y-45561703D01*
X64900623Y-45493709D01*
X64900500Y-45485888D01*
X64900500Y-45459075D01*
X64899519Y-45451310D01*
X64899308Y-45447952D01*
X64898940Y-45440145D01*
X64898089Y-45413092D01*
X64897597Y-45397431D01*
X64893226Y-45382386D01*
X64892108Y-45375328D01*
X64888806Y-45359386D01*
X64887034Y-45352485D01*
X64885071Y-45336942D01*
X64870434Y-45299973D01*
X64862838Y-45277790D01*
X64851744Y-45239601D01*
X64843767Y-45226112D01*
X64840937Y-45219573D01*
X64833775Y-45204951D01*
X64830334Y-45198691D01*
X64824568Y-45184129D01*
X64815361Y-45171457D01*
X64815358Y-45171451D01*
X64801197Y-45151960D01*
X64788319Y-45132356D01*
X64780684Y-45119445D01*
X64768081Y-45098135D01*
X64757007Y-45087061D01*
X64752653Y-45081448D01*
X64742067Y-45069052D01*
X64737175Y-45063843D01*
X64727963Y-45051163D01*
X64715891Y-45041176D01*
X64715888Y-45041173D01*
X64697337Y-45025827D01*
X64679985Y-45010039D01*
X61214055Y-41544109D01*
X61210067Y-41539726D01*
X61205202Y-41532060D01*
X61155627Y-41485506D01*
X61150010Y-41480064D01*
X61131035Y-41461089D01*
X61124850Y-41456291D01*
X61122327Y-41454067D01*
X61116538Y-41448799D01*
X61096813Y-41430276D01*
X61085393Y-41419552D01*
X61071666Y-41412006D01*
X61065905Y-41407820D01*
X61052277Y-41398868D01*
X61046143Y-41395241D01*
X61033764Y-41385638D01*
X60997281Y-41369851D01*
X60976219Y-41359532D01*
X60955096Y-41347920D01*
X60955095Y-41347920D01*
X60941368Y-41340373D01*
X60926200Y-41336479D01*
X60919571Y-41333854D01*
X60904153Y-41328576D01*
X60897298Y-41326584D01*
X60882926Y-41320365D01*
X60867461Y-41317915D01*
X60867456Y-41317914D01*
X60843663Y-41314146D01*
X60820692Y-41309389D01*
X60797348Y-41303395D01*
X60797346Y-41303395D01*
X60782177Y-41299500D01*
X60766513Y-41299500D01*
X60759443Y-41298607D01*
X60743195Y-41297328D01*
X60736069Y-41297104D01*
X60720595Y-41294653D01*
X60705002Y-41296127D01*
X60705000Y-41296127D01*
X60681011Y-41298395D01*
X60657577Y-41299500D01*
X60252792Y-41299500D01*
X60157504Y-41280546D01*
X60076722Y-41226570D01*
X60048823Y-41193320D01*
X60038849Y-41179075D01*
X59968495Y-41078599D01*
X59801401Y-40911505D01*
X59792497Y-40905270D01*
X59762075Y-40883968D01*
X59694892Y-40813786D01*
X59659680Y-40723237D01*
X59661800Y-40626105D01*
X59700929Y-40537178D01*
X59762075Y-40476032D01*
X59792497Y-40454730D01*
X59792499Y-40454728D01*
X59801401Y-40448495D01*
X59968495Y-40281401D01*
X60048824Y-40166680D01*
X60119004Y-40099496D01*
X60209553Y-40064283D01*
X60252792Y-40060500D01*
X61187414Y-40060500D01*
X61282702Y-40079454D01*
G37*
G04 #@! TD.AperFunction*
M02*
