G04 #@! TF.GenerationSoftware,KiCad,Pcbnew,(6.0.6)*
G04 #@! TF.CreationDate,2024-05-12T15:36:13+02:00*
G04 #@! TF.ProjectId,pynq-buck-adapter,70796e71-2d62-4756-936b-2d6164617074,rev?*
G04 #@! TF.SameCoordinates,Original*
G04 #@! TF.FileFunction,Copper,L2,Bot*
G04 #@! TF.FilePolarity,Positive*
%FSLAX46Y46*%
G04 Gerber Fmt 4.6, Leading zero omitted, Abs format (unit mm)*
G04 Created by KiCad (PCBNEW (6.0.6)) date 2024-05-12 15:36:13*
%MOMM*%
%LPD*%
G01*
G04 APERTURE LIST*
G04 #@! TA.AperFunction,NonConductor*
%ADD10C,0.200000*%
G04 #@! TD*
G04 #@! TA.AperFunction,ComponentPad*
%ADD11R,1.700000X1.700000*%
G04 #@! TD*
G04 #@! TA.AperFunction,ComponentPad*
%ADD12O,1.700000X1.700000*%
G04 #@! TD*
G04 #@! TA.AperFunction,ViaPad*
%ADD13C,1.400000*%
G04 #@! TD*
G04 #@! TA.AperFunction,Conductor*
%ADD14C,0.600000*%
G04 #@! TD*
G04 APERTURE END LIST*
D10*
X119150000Y-73800000D02*
X37150000Y-73800000D01*
X119150000Y-23800000D02*
X119150000Y-73800000D01*
X37150000Y-73800000D02*
X37150000Y-23800000D01*
X37150000Y-23800000D02*
X119150000Y-23800000D01*
D11*
X40200000Y-61375000D03*
D12*
X40200000Y-63915000D03*
D11*
X40200000Y-37510000D03*
D12*
X40200000Y-40050000D03*
D11*
X113475000Y-67150000D03*
D12*
X113475000Y-69690000D03*
X110935000Y-67150000D03*
X110935000Y-69690000D03*
X108395000Y-67150000D03*
X108395000Y-69690000D03*
X105855000Y-67150000D03*
X105855000Y-69690000D03*
X103315000Y-67150000D03*
X103315000Y-69690000D03*
X100775000Y-67150000D03*
X100775000Y-69690000D03*
X98235000Y-67150000D03*
X98235000Y-69690000D03*
X95695000Y-67150000D03*
X95695000Y-69690000D03*
D11*
X40200000Y-28910000D03*
D12*
X40200000Y-31450000D03*
X102110000Y-52110000D03*
X99570000Y-52110000D03*
X102110000Y-49570000D03*
X99570000Y-49570000D03*
X102110000Y-47030000D03*
X99570000Y-47030000D03*
X102110000Y-44490000D03*
X99570000Y-44490000D03*
X102110000Y-41950000D03*
X99570000Y-41950000D03*
X102110000Y-39410000D03*
X99570000Y-39410000D03*
X102110000Y-36870000D03*
X99570000Y-36870000D03*
X102110000Y-34330000D03*
X99570000Y-34330000D03*
X102110000Y-31790000D03*
X99570000Y-31790000D03*
X102110000Y-29250000D03*
D11*
X99570000Y-29250000D03*
D12*
X58930000Y-52110000D03*
X56390000Y-52110000D03*
X58930000Y-49570000D03*
X56390000Y-49570000D03*
X58930000Y-47030000D03*
X56390000Y-47030000D03*
X58930000Y-44490000D03*
X56390000Y-44490000D03*
X58930000Y-41950000D03*
X56390000Y-41950000D03*
X58930000Y-39410000D03*
X56390000Y-39410000D03*
X58930000Y-36870000D03*
X56390000Y-36870000D03*
X58930000Y-34330000D03*
X56390000Y-34330000D03*
X58930000Y-31790000D03*
X56390000Y-31790000D03*
X58930000Y-29250000D03*
D11*
X56390000Y-29250000D03*
X63075000Y-67150000D03*
D12*
X63075000Y-69690000D03*
X60535000Y-67150000D03*
X60535000Y-69690000D03*
X57995000Y-67150000D03*
X57995000Y-69690000D03*
X55455000Y-67150000D03*
X55455000Y-69690000D03*
X52915000Y-67150000D03*
X52915000Y-69690000D03*
X50375000Y-67150000D03*
X50375000Y-69690000D03*
X47835000Y-67150000D03*
X47835000Y-69690000D03*
X45295000Y-67150000D03*
X45295000Y-69690000D03*
D11*
X40200000Y-46120000D03*
D12*
X40200000Y-48660000D03*
X40200000Y-51200000D03*
X40200000Y-53740000D03*
X40200000Y-56280000D03*
D13*
X92300000Y-63100000D03*
X88200000Y-30650000D03*
X63750000Y-26550000D03*
X79950000Y-34550000D03*
X80500000Y-59850000D03*
X115000000Y-43900000D03*
X105200000Y-30900000D03*
X105450000Y-35700000D03*
X49500000Y-29600000D03*
X43550000Y-44550000D03*
X101250000Y-58200000D03*
X64250000Y-63850000D03*
X51450000Y-42400000D03*
X47835000Y-37535000D03*
X47835000Y-48635000D03*
D14*
X56390000Y-27810000D02*
X56390000Y-29250000D01*
X57650000Y-26550000D02*
X56390000Y-27810000D01*
X63750000Y-26550000D02*
X57650000Y-26550000D01*
X47810000Y-37510000D02*
X47835000Y-37535000D01*
X40200000Y-37510000D02*
X47810000Y-37510000D01*
X47810000Y-48660000D02*
X47835000Y-48635000D01*
X40200000Y-48660000D02*
X47810000Y-48660000D01*
G04 #@! TA.AperFunction,Conductor*
G36*
X118395788Y-24419454D02*
G01*
X118476570Y-24473430D01*
X118530546Y-24554212D01*
X118549500Y-24649500D01*
X118549500Y-72950500D01*
X118530546Y-73045788D01*
X118476570Y-73126570D01*
X118395788Y-73180546D01*
X118300500Y-73199500D01*
X37999500Y-73199500D01*
X37904212Y-73180546D01*
X37823430Y-73126570D01*
X37769454Y-73045788D01*
X37750500Y-72950500D01*
X37750500Y-69948257D01*
X43967600Y-69948257D01*
X43968590Y-69955771D01*
X44018754Y-70142985D01*
X44026166Y-70163348D01*
X44116805Y-70357725D01*
X44127635Y-70376482D01*
X44250653Y-70552170D01*
X44264576Y-70568764D01*
X44416239Y-70720427D01*
X44432823Y-70734343D01*
X44608522Y-70857369D01*
X44627268Y-70868192D01*
X44821657Y-70958837D01*
X44842014Y-70966246D01*
X45021309Y-71014288D01*
X45042123Y-71015652D01*
X45044011Y-71011825D01*
X45045000Y-71004311D01*
X45045000Y-70996109D01*
X45545000Y-70996109D01*
X45549069Y-71016567D01*
X45553257Y-71017400D01*
X45560771Y-71016410D01*
X45747986Y-70966246D01*
X45768343Y-70958837D01*
X45962732Y-70868192D01*
X45981478Y-70857369D01*
X46157177Y-70734343D01*
X46173761Y-70720427D01*
X46325424Y-70568764D01*
X46339350Y-70552167D01*
X46361032Y-70521202D01*
X46431213Y-70454018D01*
X46521763Y-70418806D01*
X46618894Y-70420925D01*
X46707821Y-70460055D01*
X46768968Y-70521202D01*
X46790650Y-70552167D01*
X46804576Y-70568764D01*
X46956239Y-70720427D01*
X46972823Y-70734343D01*
X47148522Y-70857369D01*
X47167268Y-70868192D01*
X47361657Y-70958837D01*
X47382014Y-70966246D01*
X47561309Y-71014288D01*
X47582123Y-71015652D01*
X47584011Y-71011825D01*
X47585000Y-71004311D01*
X47585000Y-70996109D01*
X48085000Y-70996109D01*
X48089069Y-71016567D01*
X48093257Y-71017400D01*
X48100771Y-71016410D01*
X48287986Y-70966246D01*
X48308343Y-70958837D01*
X48502732Y-70868192D01*
X48521478Y-70857369D01*
X48697177Y-70734343D01*
X48713761Y-70720427D01*
X48865424Y-70568764D01*
X48879350Y-70552167D01*
X48901032Y-70521202D01*
X48971213Y-70454018D01*
X49061763Y-70418806D01*
X49158894Y-70420925D01*
X49247821Y-70460055D01*
X49308968Y-70521202D01*
X49330650Y-70552167D01*
X49344576Y-70568764D01*
X49496239Y-70720427D01*
X49512823Y-70734343D01*
X49688522Y-70857369D01*
X49707268Y-70868192D01*
X49901657Y-70958837D01*
X49922014Y-70966246D01*
X50101309Y-71014288D01*
X50122123Y-71015652D01*
X50124011Y-71011825D01*
X50125000Y-71004311D01*
X50125000Y-70996109D01*
X50625000Y-70996109D01*
X50629069Y-71016567D01*
X50633257Y-71017400D01*
X50640771Y-71016410D01*
X50827986Y-70966246D01*
X50848343Y-70958837D01*
X51042732Y-70868192D01*
X51061478Y-70857369D01*
X51237177Y-70734343D01*
X51253761Y-70720427D01*
X51405424Y-70568764D01*
X51419350Y-70552167D01*
X51441032Y-70521202D01*
X51511213Y-70454018D01*
X51601763Y-70418806D01*
X51698894Y-70420925D01*
X51787821Y-70460055D01*
X51848968Y-70521202D01*
X51870650Y-70552167D01*
X51884576Y-70568764D01*
X52036239Y-70720427D01*
X52052823Y-70734343D01*
X52228522Y-70857369D01*
X52247268Y-70868192D01*
X52441657Y-70958837D01*
X52462014Y-70966246D01*
X52641309Y-71014288D01*
X52662123Y-71015652D01*
X52664011Y-71011825D01*
X52665000Y-71004311D01*
X52665000Y-70996109D01*
X53165000Y-70996109D01*
X53169069Y-71016567D01*
X53173257Y-71017400D01*
X53180771Y-71016410D01*
X53367986Y-70966246D01*
X53388343Y-70958837D01*
X53582732Y-70868192D01*
X53601478Y-70857369D01*
X53777177Y-70734343D01*
X53793761Y-70720427D01*
X53945424Y-70568764D01*
X53959350Y-70552167D01*
X53981032Y-70521202D01*
X54051213Y-70454018D01*
X54141763Y-70418806D01*
X54238894Y-70420925D01*
X54327821Y-70460055D01*
X54388968Y-70521202D01*
X54410650Y-70552167D01*
X54424576Y-70568764D01*
X54576239Y-70720427D01*
X54592823Y-70734343D01*
X54768522Y-70857369D01*
X54787268Y-70868192D01*
X54981657Y-70958837D01*
X55002014Y-70966246D01*
X55181309Y-71014288D01*
X55202123Y-71015652D01*
X55204011Y-71011825D01*
X55205000Y-71004311D01*
X55205000Y-70996109D01*
X55705000Y-70996109D01*
X55709069Y-71016567D01*
X55713257Y-71017400D01*
X55720771Y-71016410D01*
X55907986Y-70966246D01*
X55928343Y-70958837D01*
X56122732Y-70868192D01*
X56141478Y-70857369D01*
X56317177Y-70734343D01*
X56333761Y-70720427D01*
X56485424Y-70568764D01*
X56499350Y-70552167D01*
X56521032Y-70521202D01*
X56591213Y-70454018D01*
X56681763Y-70418806D01*
X56778894Y-70420925D01*
X56867821Y-70460055D01*
X56928968Y-70521202D01*
X56950650Y-70552167D01*
X56964576Y-70568764D01*
X57116239Y-70720427D01*
X57132823Y-70734343D01*
X57308522Y-70857369D01*
X57327268Y-70868192D01*
X57521657Y-70958837D01*
X57542014Y-70966246D01*
X57721309Y-71014288D01*
X57742123Y-71015652D01*
X57744011Y-71011825D01*
X57745000Y-71004311D01*
X57745000Y-70996109D01*
X58245000Y-70996109D01*
X58249069Y-71016567D01*
X58253257Y-71017400D01*
X58260771Y-71016410D01*
X58447986Y-70966246D01*
X58468343Y-70958837D01*
X58662732Y-70868192D01*
X58681478Y-70857369D01*
X58857177Y-70734343D01*
X58873761Y-70720427D01*
X59025424Y-70568764D01*
X59039350Y-70552167D01*
X59061032Y-70521202D01*
X59131213Y-70454018D01*
X59221763Y-70418806D01*
X59318894Y-70420925D01*
X59407821Y-70460055D01*
X59468968Y-70521202D01*
X59490650Y-70552167D01*
X59504576Y-70568764D01*
X59656239Y-70720427D01*
X59672823Y-70734343D01*
X59848522Y-70857369D01*
X59867268Y-70868192D01*
X60061657Y-70958837D01*
X60082014Y-70966246D01*
X60261309Y-71014288D01*
X60282123Y-71015652D01*
X60284011Y-71011825D01*
X60285000Y-71004311D01*
X60285000Y-70996109D01*
X60785000Y-70996109D01*
X60789069Y-71016567D01*
X60793257Y-71017400D01*
X60800771Y-71016410D01*
X60987986Y-70966246D01*
X61008343Y-70958837D01*
X61202732Y-70868192D01*
X61221478Y-70857369D01*
X61397177Y-70734343D01*
X61413761Y-70720427D01*
X61565424Y-70568764D01*
X61579350Y-70552167D01*
X61601032Y-70521202D01*
X61671213Y-70454018D01*
X61761763Y-70418806D01*
X61858894Y-70420925D01*
X61947821Y-70460055D01*
X62008968Y-70521202D01*
X62030650Y-70552167D01*
X62044576Y-70568764D01*
X62196239Y-70720427D01*
X62212823Y-70734343D01*
X62388522Y-70857369D01*
X62407268Y-70868192D01*
X62601657Y-70958837D01*
X62622014Y-70966246D01*
X62801309Y-71014288D01*
X62822123Y-71015652D01*
X62824011Y-71011825D01*
X62825000Y-71004311D01*
X62825000Y-70996109D01*
X63325000Y-70996109D01*
X63329069Y-71016567D01*
X63333257Y-71017400D01*
X63340771Y-71016410D01*
X63527986Y-70966246D01*
X63548343Y-70958837D01*
X63742732Y-70868192D01*
X63761478Y-70857369D01*
X63937177Y-70734343D01*
X63953761Y-70720427D01*
X64105424Y-70568764D01*
X64119347Y-70552170D01*
X64242365Y-70376482D01*
X64253195Y-70357725D01*
X64343834Y-70163348D01*
X64351246Y-70142985D01*
X64399288Y-69963691D01*
X64400299Y-69948257D01*
X94367600Y-69948257D01*
X94368590Y-69955771D01*
X94418754Y-70142985D01*
X94426166Y-70163348D01*
X94516805Y-70357725D01*
X94527635Y-70376482D01*
X94650653Y-70552170D01*
X94664576Y-70568764D01*
X94816239Y-70720427D01*
X94832823Y-70734343D01*
X95008522Y-70857369D01*
X95027268Y-70868192D01*
X95221657Y-70958837D01*
X95242014Y-70966246D01*
X95421309Y-71014288D01*
X95442123Y-71015652D01*
X95444011Y-71011825D01*
X95445000Y-71004311D01*
X95445000Y-70996109D01*
X95945000Y-70996109D01*
X95949069Y-71016567D01*
X95953257Y-71017400D01*
X95960771Y-71016410D01*
X96147986Y-70966246D01*
X96168343Y-70958837D01*
X96362732Y-70868192D01*
X96381478Y-70857369D01*
X96557177Y-70734343D01*
X96573761Y-70720427D01*
X96725424Y-70568764D01*
X96739350Y-70552167D01*
X96761032Y-70521202D01*
X96831213Y-70454018D01*
X96921763Y-70418806D01*
X97018894Y-70420925D01*
X97107821Y-70460055D01*
X97168968Y-70521202D01*
X97190650Y-70552167D01*
X97204576Y-70568764D01*
X97356239Y-70720427D01*
X97372823Y-70734343D01*
X97548522Y-70857369D01*
X97567268Y-70868192D01*
X97761657Y-70958837D01*
X97782014Y-70966246D01*
X97961309Y-71014288D01*
X97982123Y-71015652D01*
X97984011Y-71011825D01*
X97985000Y-71004311D01*
X97985000Y-70996109D01*
X98485000Y-70996109D01*
X98489069Y-71016567D01*
X98493257Y-71017400D01*
X98500771Y-71016410D01*
X98687986Y-70966246D01*
X98708343Y-70958837D01*
X98902732Y-70868192D01*
X98921478Y-70857369D01*
X99097177Y-70734343D01*
X99113761Y-70720427D01*
X99265424Y-70568764D01*
X99279350Y-70552167D01*
X99301032Y-70521202D01*
X99371213Y-70454018D01*
X99461763Y-70418806D01*
X99558894Y-70420925D01*
X99647821Y-70460055D01*
X99708968Y-70521202D01*
X99730650Y-70552167D01*
X99744576Y-70568764D01*
X99896239Y-70720427D01*
X99912823Y-70734343D01*
X100088522Y-70857369D01*
X100107268Y-70868192D01*
X100301657Y-70958837D01*
X100322014Y-70966246D01*
X100501309Y-71014288D01*
X100522123Y-71015652D01*
X100524011Y-71011825D01*
X100525000Y-71004311D01*
X100525000Y-70996109D01*
X101025000Y-70996109D01*
X101029069Y-71016567D01*
X101033257Y-71017400D01*
X101040771Y-71016410D01*
X101227986Y-70966246D01*
X101248343Y-70958837D01*
X101442732Y-70868192D01*
X101461478Y-70857369D01*
X101637177Y-70734343D01*
X101653761Y-70720427D01*
X101805424Y-70568764D01*
X101819350Y-70552167D01*
X101841032Y-70521202D01*
X101911213Y-70454018D01*
X102001763Y-70418806D01*
X102098894Y-70420925D01*
X102187821Y-70460055D01*
X102248968Y-70521202D01*
X102270650Y-70552167D01*
X102284576Y-70568764D01*
X102436239Y-70720427D01*
X102452823Y-70734343D01*
X102628522Y-70857369D01*
X102647268Y-70868192D01*
X102841657Y-70958837D01*
X102862014Y-70966246D01*
X103041309Y-71014288D01*
X103062123Y-71015652D01*
X103064011Y-71011825D01*
X103065000Y-71004311D01*
X103065000Y-70996109D01*
X103565000Y-70996109D01*
X103569069Y-71016567D01*
X103573257Y-71017400D01*
X103580771Y-71016410D01*
X103767986Y-70966246D01*
X103788343Y-70958837D01*
X103982732Y-70868192D01*
X104001478Y-70857369D01*
X104177177Y-70734343D01*
X104193761Y-70720427D01*
X104345424Y-70568764D01*
X104359350Y-70552167D01*
X104381032Y-70521202D01*
X104451213Y-70454018D01*
X104541763Y-70418806D01*
X104638894Y-70420925D01*
X104727821Y-70460055D01*
X104788968Y-70521202D01*
X104810650Y-70552167D01*
X104824576Y-70568764D01*
X104976239Y-70720427D01*
X104992823Y-70734343D01*
X105168522Y-70857369D01*
X105187268Y-70868192D01*
X105381657Y-70958837D01*
X105402014Y-70966246D01*
X105581309Y-71014288D01*
X105602123Y-71015652D01*
X105604011Y-71011825D01*
X105605000Y-71004311D01*
X105605000Y-70996109D01*
X106105000Y-70996109D01*
X106109069Y-71016567D01*
X106113257Y-71017400D01*
X106120771Y-71016410D01*
X106307986Y-70966246D01*
X106328343Y-70958837D01*
X106522732Y-70868192D01*
X106541478Y-70857369D01*
X106717177Y-70734343D01*
X106733761Y-70720427D01*
X106885424Y-70568764D01*
X106899350Y-70552167D01*
X106921032Y-70521202D01*
X106991213Y-70454018D01*
X107081763Y-70418806D01*
X107178894Y-70420925D01*
X107267821Y-70460055D01*
X107328968Y-70521202D01*
X107350650Y-70552167D01*
X107364576Y-70568764D01*
X107516239Y-70720427D01*
X107532823Y-70734343D01*
X107708522Y-70857369D01*
X107727268Y-70868192D01*
X107921657Y-70958837D01*
X107942014Y-70966246D01*
X108121309Y-71014288D01*
X108142123Y-71015652D01*
X108144011Y-71011825D01*
X108145000Y-71004311D01*
X108145000Y-70996109D01*
X108645000Y-70996109D01*
X108649069Y-71016567D01*
X108653257Y-71017400D01*
X108660771Y-71016410D01*
X108847986Y-70966246D01*
X108868343Y-70958837D01*
X109062732Y-70868192D01*
X109081478Y-70857369D01*
X109257177Y-70734343D01*
X109273761Y-70720427D01*
X109425424Y-70568764D01*
X109439350Y-70552167D01*
X109461032Y-70521202D01*
X109531213Y-70454018D01*
X109621763Y-70418806D01*
X109718894Y-70420925D01*
X109807821Y-70460055D01*
X109868968Y-70521202D01*
X109890650Y-70552167D01*
X109904576Y-70568764D01*
X110056239Y-70720427D01*
X110072823Y-70734343D01*
X110248522Y-70857369D01*
X110267268Y-70868192D01*
X110461657Y-70958837D01*
X110482014Y-70966246D01*
X110661309Y-71014288D01*
X110682123Y-71015652D01*
X110684011Y-71011825D01*
X110685000Y-71004311D01*
X110685000Y-70996109D01*
X111185000Y-70996109D01*
X111189069Y-71016567D01*
X111193257Y-71017400D01*
X111200771Y-71016410D01*
X111387986Y-70966246D01*
X111408343Y-70958837D01*
X111602732Y-70868192D01*
X111621478Y-70857369D01*
X111797177Y-70734343D01*
X111813761Y-70720427D01*
X111965424Y-70568764D01*
X111979350Y-70552167D01*
X112001032Y-70521202D01*
X112071213Y-70454018D01*
X112161763Y-70418806D01*
X112258894Y-70420925D01*
X112347821Y-70460055D01*
X112408968Y-70521202D01*
X112430650Y-70552167D01*
X112444576Y-70568764D01*
X112596239Y-70720427D01*
X112612823Y-70734343D01*
X112788522Y-70857369D01*
X112807268Y-70868192D01*
X113001657Y-70958837D01*
X113022014Y-70966246D01*
X113201309Y-71014288D01*
X113222123Y-71015652D01*
X113224011Y-71011825D01*
X113225000Y-71004311D01*
X113225000Y-70996109D01*
X113725000Y-70996109D01*
X113729069Y-71016567D01*
X113733257Y-71017400D01*
X113740771Y-71016410D01*
X113927986Y-70966246D01*
X113948343Y-70958837D01*
X114142732Y-70868192D01*
X114161478Y-70857369D01*
X114337177Y-70734343D01*
X114353761Y-70720427D01*
X114505424Y-70568764D01*
X114519347Y-70552170D01*
X114642365Y-70376482D01*
X114653195Y-70357725D01*
X114743834Y-70163348D01*
X114751246Y-70142985D01*
X114799288Y-69963691D01*
X114800652Y-69942877D01*
X114796825Y-69940989D01*
X114789311Y-69940000D01*
X113749527Y-69940000D01*
X113729069Y-69944069D01*
X113725000Y-69964527D01*
X113725000Y-70996109D01*
X113225000Y-70996109D01*
X113225000Y-69964527D01*
X113220931Y-69944069D01*
X113200473Y-69940000D01*
X111209527Y-69940000D01*
X111189069Y-69944069D01*
X111185000Y-69964527D01*
X111185000Y-70996109D01*
X110685000Y-70996109D01*
X110685000Y-69964527D01*
X110680931Y-69944069D01*
X110660473Y-69940000D01*
X108669527Y-69940000D01*
X108649069Y-69944069D01*
X108645000Y-69964527D01*
X108645000Y-70996109D01*
X108145000Y-70996109D01*
X108145000Y-69964527D01*
X108140931Y-69944069D01*
X108120473Y-69940000D01*
X106129527Y-69940000D01*
X106109069Y-69944069D01*
X106105000Y-69964527D01*
X106105000Y-70996109D01*
X105605000Y-70996109D01*
X105605000Y-69964527D01*
X105600931Y-69944069D01*
X105580473Y-69940000D01*
X103589527Y-69940000D01*
X103569069Y-69944069D01*
X103565000Y-69964527D01*
X103565000Y-70996109D01*
X103065000Y-70996109D01*
X103065000Y-69964527D01*
X103060931Y-69944069D01*
X103040473Y-69940000D01*
X101049527Y-69940000D01*
X101029069Y-69944069D01*
X101025000Y-69964527D01*
X101025000Y-70996109D01*
X100525000Y-70996109D01*
X100525000Y-69964527D01*
X100520931Y-69944069D01*
X100500473Y-69940000D01*
X98509527Y-69940000D01*
X98489069Y-69944069D01*
X98485000Y-69964527D01*
X98485000Y-70996109D01*
X97985000Y-70996109D01*
X97985000Y-69964527D01*
X97980931Y-69944069D01*
X97960473Y-69940000D01*
X95969527Y-69940000D01*
X95949069Y-69944069D01*
X95945000Y-69964527D01*
X95945000Y-70996109D01*
X95445000Y-70996109D01*
X95445000Y-69964527D01*
X95440931Y-69944069D01*
X95420473Y-69940000D01*
X94388891Y-69940000D01*
X94368433Y-69944069D01*
X94367600Y-69948257D01*
X64400299Y-69948257D01*
X64400652Y-69942877D01*
X64396825Y-69940989D01*
X64389311Y-69940000D01*
X63349527Y-69940000D01*
X63329069Y-69944069D01*
X63325000Y-69964527D01*
X63325000Y-70996109D01*
X62825000Y-70996109D01*
X62825000Y-69964527D01*
X62820931Y-69944069D01*
X62800473Y-69940000D01*
X60809527Y-69940000D01*
X60789069Y-69944069D01*
X60785000Y-69964527D01*
X60785000Y-70996109D01*
X60285000Y-70996109D01*
X60285000Y-69964527D01*
X60280931Y-69944069D01*
X60260473Y-69940000D01*
X58269527Y-69940000D01*
X58249069Y-69944069D01*
X58245000Y-69964527D01*
X58245000Y-70996109D01*
X57745000Y-70996109D01*
X57745000Y-69964527D01*
X57740931Y-69944069D01*
X57720473Y-69940000D01*
X55729527Y-69940000D01*
X55709069Y-69944069D01*
X55705000Y-69964527D01*
X55705000Y-70996109D01*
X55205000Y-70996109D01*
X55205000Y-69964527D01*
X55200931Y-69944069D01*
X55180473Y-69940000D01*
X53189527Y-69940000D01*
X53169069Y-69944069D01*
X53165000Y-69964527D01*
X53165000Y-70996109D01*
X52665000Y-70996109D01*
X52665000Y-69964527D01*
X52660931Y-69944069D01*
X52640473Y-69940000D01*
X50649527Y-69940000D01*
X50629069Y-69944069D01*
X50625000Y-69964527D01*
X50625000Y-70996109D01*
X50125000Y-70996109D01*
X50125000Y-69964527D01*
X50120931Y-69944069D01*
X50100473Y-69940000D01*
X48109527Y-69940000D01*
X48089069Y-69944069D01*
X48085000Y-69964527D01*
X48085000Y-70996109D01*
X47585000Y-70996109D01*
X47585000Y-69964527D01*
X47580931Y-69944069D01*
X47560473Y-69940000D01*
X45569527Y-69940000D01*
X45549069Y-69944069D01*
X45545000Y-69964527D01*
X45545000Y-70996109D01*
X45045000Y-70996109D01*
X45045000Y-69964527D01*
X45040931Y-69944069D01*
X45020473Y-69940000D01*
X43988891Y-69940000D01*
X43968433Y-69944069D01*
X43967600Y-69948257D01*
X37750500Y-69948257D01*
X37750500Y-67150000D01*
X43939341Y-67150000D01*
X43959937Y-67385408D01*
X44021097Y-67613663D01*
X44120965Y-67827829D01*
X44256505Y-68021401D01*
X44423599Y-68188495D01*
X44432501Y-68194728D01*
X44432503Y-68194730D01*
X44463362Y-68216338D01*
X44530545Y-68286520D01*
X44565757Y-68377069D01*
X44563637Y-68474201D01*
X44524508Y-68563128D01*
X44463361Y-68624274D01*
X44432833Y-68645650D01*
X44416236Y-68659576D01*
X44264576Y-68811236D01*
X44250653Y-68827830D01*
X44127635Y-69003518D01*
X44116805Y-69022275D01*
X44026166Y-69216652D01*
X44018754Y-69237015D01*
X43970712Y-69416309D01*
X43969348Y-69437123D01*
X43973175Y-69439011D01*
X43980689Y-69440000D01*
X64381109Y-69440000D01*
X64401567Y-69435931D01*
X64402400Y-69431743D01*
X64401410Y-69424229D01*
X64351246Y-69237015D01*
X64343834Y-69216652D01*
X64253195Y-69022275D01*
X64242365Y-69003518D01*
X64119347Y-68827829D01*
X64107196Y-68813348D01*
X64060467Y-68728169D01*
X64049891Y-68631591D01*
X64077079Y-68538318D01*
X64137891Y-68462549D01*
X64163178Y-68445268D01*
X64167824Y-68443526D01*
X64182014Y-68432891D01*
X64182016Y-68432890D01*
X64268348Y-68368187D01*
X64282546Y-68357546D01*
X64368526Y-68242824D01*
X64418851Y-68108580D01*
X64425500Y-68047377D01*
X64425499Y-67150000D01*
X94339341Y-67150000D01*
X94359937Y-67385408D01*
X94421097Y-67613663D01*
X94520965Y-67827829D01*
X94656505Y-68021401D01*
X94823599Y-68188495D01*
X94832501Y-68194728D01*
X94832503Y-68194730D01*
X94863362Y-68216338D01*
X94930545Y-68286520D01*
X94965757Y-68377069D01*
X94963637Y-68474201D01*
X94924508Y-68563128D01*
X94863361Y-68624274D01*
X94832833Y-68645650D01*
X94816236Y-68659576D01*
X94664576Y-68811236D01*
X94650653Y-68827830D01*
X94527635Y-69003518D01*
X94516805Y-69022275D01*
X94426166Y-69216652D01*
X94418754Y-69237015D01*
X94370712Y-69416309D01*
X94369348Y-69437123D01*
X94373175Y-69439011D01*
X94380689Y-69440000D01*
X114781109Y-69440000D01*
X114801567Y-69435931D01*
X114802400Y-69431743D01*
X114801410Y-69424229D01*
X114751246Y-69237015D01*
X114743834Y-69216652D01*
X114653195Y-69022275D01*
X114642365Y-69003518D01*
X114519347Y-68827829D01*
X114507196Y-68813348D01*
X114460467Y-68728169D01*
X114449891Y-68631591D01*
X114477079Y-68538318D01*
X114537891Y-68462549D01*
X114563178Y-68445268D01*
X114567824Y-68443526D01*
X114582014Y-68432891D01*
X114582016Y-68432890D01*
X114668348Y-68368187D01*
X114682546Y-68357546D01*
X114768526Y-68242824D01*
X114818851Y-68108580D01*
X114825500Y-68047377D01*
X114825499Y-66252624D01*
X114818851Y-66191420D01*
X114768526Y-66057176D01*
X114682546Y-65942454D01*
X114567824Y-65856474D01*
X114464529Y-65817751D01*
X114448196Y-65811628D01*
X114448195Y-65811628D01*
X114433580Y-65806149D01*
X114372377Y-65799500D01*
X113475600Y-65799500D01*
X112577624Y-65799501D01*
X112516420Y-65806149D01*
X112382176Y-65856474D01*
X112267454Y-65942454D01*
X112184208Y-66053528D01*
X112184203Y-66053534D01*
X112181474Y-66057176D01*
X112181277Y-66057028D01*
X112127970Y-66120666D01*
X112041831Y-66165600D01*
X111945053Y-66174150D01*
X111852369Y-66145014D01*
X111813008Y-66118112D01*
X111806401Y-66111505D01*
X111797501Y-66105273D01*
X111621729Y-65982196D01*
X111621728Y-65982195D01*
X111612830Y-65975965D01*
X111602985Y-65971374D01*
X111602983Y-65971373D01*
X111518146Y-65931813D01*
X111398663Y-65876097D01*
X111388165Y-65873284D01*
X111388162Y-65873283D01*
X111284535Y-65845517D01*
X111170408Y-65814937D01*
X111159575Y-65813989D01*
X111159574Y-65813989D01*
X110945835Y-65795289D01*
X110935000Y-65794341D01*
X110924165Y-65795289D01*
X110710426Y-65813989D01*
X110710425Y-65813989D01*
X110699592Y-65814937D01*
X110471337Y-65876097D01*
X110461484Y-65880691D01*
X110461480Y-65880693D01*
X110267027Y-65971369D01*
X110257171Y-65975965D01*
X110063599Y-66111505D01*
X109896505Y-66278599D01*
X109868968Y-66317926D01*
X109798789Y-66385109D01*
X109708240Y-66420322D01*
X109611108Y-66418203D01*
X109522181Y-66379075D01*
X109461032Y-66317926D01*
X109433495Y-66278599D01*
X109266401Y-66111505D01*
X109257501Y-66105273D01*
X109257500Y-66105272D01*
X109081729Y-65982196D01*
X109081728Y-65982195D01*
X109072830Y-65975965D01*
X109062985Y-65971374D01*
X109062983Y-65971373D01*
X108978146Y-65931813D01*
X108858663Y-65876097D01*
X108848165Y-65873284D01*
X108848162Y-65873283D01*
X108744535Y-65845517D01*
X108630408Y-65814937D01*
X108619575Y-65813989D01*
X108619574Y-65813989D01*
X108405835Y-65795289D01*
X108395000Y-65794341D01*
X108384165Y-65795289D01*
X108170426Y-65813989D01*
X108170425Y-65813989D01*
X108159592Y-65814937D01*
X107931337Y-65876097D01*
X107921484Y-65880691D01*
X107921480Y-65880693D01*
X107727027Y-65971369D01*
X107717171Y-65975965D01*
X107523599Y-66111505D01*
X107356505Y-66278599D01*
X107328968Y-66317926D01*
X107258789Y-66385109D01*
X107168240Y-66420322D01*
X107071108Y-66418203D01*
X106982181Y-66379075D01*
X106921032Y-66317926D01*
X106893495Y-66278599D01*
X106726401Y-66111505D01*
X106717501Y-66105273D01*
X106717500Y-66105272D01*
X106541729Y-65982196D01*
X106541728Y-65982195D01*
X106532830Y-65975965D01*
X106522985Y-65971374D01*
X106522983Y-65971373D01*
X106438146Y-65931813D01*
X106318663Y-65876097D01*
X106308165Y-65873284D01*
X106308162Y-65873283D01*
X106204535Y-65845517D01*
X106090408Y-65814937D01*
X106079575Y-65813989D01*
X106079574Y-65813989D01*
X105865835Y-65795289D01*
X105855000Y-65794341D01*
X105844165Y-65795289D01*
X105630426Y-65813989D01*
X105630425Y-65813989D01*
X105619592Y-65814937D01*
X105391337Y-65876097D01*
X105381484Y-65880691D01*
X105381480Y-65880693D01*
X105187027Y-65971369D01*
X105177171Y-65975965D01*
X104983599Y-66111505D01*
X104816505Y-66278599D01*
X104788968Y-66317926D01*
X104718789Y-66385109D01*
X104628240Y-66420322D01*
X104531108Y-66418203D01*
X104442181Y-66379075D01*
X104381032Y-66317926D01*
X104353495Y-66278599D01*
X104186401Y-66111505D01*
X104177501Y-66105273D01*
X104177500Y-66105272D01*
X104001729Y-65982196D01*
X104001728Y-65982195D01*
X103992830Y-65975965D01*
X103982985Y-65971374D01*
X103982983Y-65971373D01*
X103898146Y-65931813D01*
X103778663Y-65876097D01*
X103768165Y-65873284D01*
X103768162Y-65873283D01*
X103664535Y-65845517D01*
X103550408Y-65814937D01*
X103539575Y-65813989D01*
X103539574Y-65813989D01*
X103325835Y-65795289D01*
X103315000Y-65794341D01*
X103304165Y-65795289D01*
X103090426Y-65813989D01*
X103090425Y-65813989D01*
X103079592Y-65814937D01*
X102851337Y-65876097D01*
X102841484Y-65880691D01*
X102841480Y-65880693D01*
X102647027Y-65971369D01*
X102637171Y-65975965D01*
X102443599Y-66111505D01*
X102276505Y-66278599D01*
X102248968Y-66317926D01*
X102178789Y-66385109D01*
X102088240Y-66420322D01*
X101991108Y-66418203D01*
X101902181Y-66379075D01*
X101841032Y-66317926D01*
X101813495Y-66278599D01*
X101646401Y-66111505D01*
X101637501Y-66105273D01*
X101637500Y-66105272D01*
X101461729Y-65982196D01*
X101461728Y-65982195D01*
X101452830Y-65975965D01*
X101442985Y-65971374D01*
X101442983Y-65971373D01*
X101358146Y-65931813D01*
X101238663Y-65876097D01*
X101228165Y-65873284D01*
X101228162Y-65873283D01*
X101124535Y-65845517D01*
X101010408Y-65814937D01*
X100999575Y-65813989D01*
X100999574Y-65813989D01*
X100785835Y-65795289D01*
X100775000Y-65794341D01*
X100764165Y-65795289D01*
X100550426Y-65813989D01*
X100550425Y-65813989D01*
X100539592Y-65814937D01*
X100311337Y-65876097D01*
X100301484Y-65880691D01*
X100301480Y-65880693D01*
X100107027Y-65971369D01*
X100097171Y-65975965D01*
X99903599Y-66111505D01*
X99736505Y-66278599D01*
X99708968Y-66317926D01*
X99638789Y-66385109D01*
X99548240Y-66420322D01*
X99451108Y-66418203D01*
X99362181Y-66379075D01*
X99301032Y-66317926D01*
X99273495Y-66278599D01*
X99106401Y-66111505D01*
X99097501Y-66105273D01*
X99097500Y-66105272D01*
X98921729Y-65982196D01*
X98921728Y-65982195D01*
X98912830Y-65975965D01*
X98902985Y-65971374D01*
X98902983Y-65971373D01*
X98818146Y-65931813D01*
X98698663Y-65876097D01*
X98688165Y-65873284D01*
X98688162Y-65873283D01*
X98584535Y-65845517D01*
X98470408Y-65814937D01*
X98459575Y-65813989D01*
X98459574Y-65813989D01*
X98245835Y-65795289D01*
X98235000Y-65794341D01*
X98224165Y-65795289D01*
X98010426Y-65813989D01*
X98010425Y-65813989D01*
X97999592Y-65814937D01*
X97771337Y-65876097D01*
X97761484Y-65880691D01*
X97761480Y-65880693D01*
X97567027Y-65971369D01*
X97557171Y-65975965D01*
X97363599Y-66111505D01*
X97196505Y-66278599D01*
X97168968Y-66317926D01*
X97098789Y-66385109D01*
X97008240Y-66420322D01*
X96911108Y-66418203D01*
X96822181Y-66379075D01*
X96761032Y-66317926D01*
X96733495Y-66278599D01*
X96566401Y-66111505D01*
X96557501Y-66105273D01*
X96557500Y-66105272D01*
X96381729Y-65982196D01*
X96381728Y-65982195D01*
X96372830Y-65975965D01*
X96362985Y-65971374D01*
X96362983Y-65971373D01*
X96278146Y-65931813D01*
X96158663Y-65876097D01*
X96148165Y-65873284D01*
X96148162Y-65873283D01*
X96044535Y-65845517D01*
X95930408Y-65814937D01*
X95919575Y-65813989D01*
X95919574Y-65813989D01*
X95705835Y-65795289D01*
X95695000Y-65794341D01*
X95684165Y-65795289D01*
X95470426Y-65813989D01*
X95470425Y-65813989D01*
X95459592Y-65814937D01*
X95231337Y-65876097D01*
X95221484Y-65880691D01*
X95221480Y-65880693D01*
X95027027Y-65971369D01*
X95017171Y-65975965D01*
X94823599Y-66111505D01*
X94656505Y-66278599D01*
X94520965Y-66472171D01*
X94421097Y-66686337D01*
X94359937Y-66914592D01*
X94339341Y-67150000D01*
X64425499Y-67150000D01*
X64425499Y-66252624D01*
X64418851Y-66191420D01*
X64368526Y-66057176D01*
X64282546Y-65942454D01*
X64167824Y-65856474D01*
X64064529Y-65817751D01*
X64048196Y-65811628D01*
X64048195Y-65811628D01*
X64033580Y-65806149D01*
X63972377Y-65799500D01*
X63075600Y-65799500D01*
X62177624Y-65799501D01*
X62116420Y-65806149D01*
X61982176Y-65856474D01*
X61867454Y-65942454D01*
X61784208Y-66053528D01*
X61784203Y-66053534D01*
X61781474Y-66057176D01*
X61781277Y-66057028D01*
X61727970Y-66120666D01*
X61641831Y-66165600D01*
X61545053Y-66174150D01*
X61452369Y-66145014D01*
X61413008Y-66118112D01*
X61406401Y-66111505D01*
X61397501Y-66105273D01*
X61221729Y-65982196D01*
X61221728Y-65982195D01*
X61212830Y-65975965D01*
X61202985Y-65971374D01*
X61202983Y-65971373D01*
X61118146Y-65931813D01*
X60998663Y-65876097D01*
X60988165Y-65873284D01*
X60988162Y-65873283D01*
X60884535Y-65845517D01*
X60770408Y-65814937D01*
X60759575Y-65813989D01*
X60759574Y-65813989D01*
X60545835Y-65795289D01*
X60535000Y-65794341D01*
X60524165Y-65795289D01*
X60310426Y-65813989D01*
X60310425Y-65813989D01*
X60299592Y-65814937D01*
X60071337Y-65876097D01*
X60061484Y-65880691D01*
X60061480Y-65880693D01*
X59867027Y-65971369D01*
X59857171Y-65975965D01*
X59663599Y-66111505D01*
X59496505Y-66278599D01*
X59468968Y-66317926D01*
X59398789Y-66385109D01*
X59308240Y-66420322D01*
X59211108Y-66418203D01*
X59122181Y-66379075D01*
X59061032Y-66317926D01*
X59033495Y-66278599D01*
X58866401Y-66111505D01*
X58857501Y-66105273D01*
X58857500Y-66105272D01*
X58681729Y-65982196D01*
X58681728Y-65982195D01*
X58672830Y-65975965D01*
X58662985Y-65971374D01*
X58662983Y-65971373D01*
X58578146Y-65931813D01*
X58458663Y-65876097D01*
X58448165Y-65873284D01*
X58448162Y-65873283D01*
X58344535Y-65845517D01*
X58230408Y-65814937D01*
X58219575Y-65813989D01*
X58219574Y-65813989D01*
X58005835Y-65795289D01*
X57995000Y-65794341D01*
X57984165Y-65795289D01*
X57770426Y-65813989D01*
X57770425Y-65813989D01*
X57759592Y-65814937D01*
X57531337Y-65876097D01*
X57521484Y-65880691D01*
X57521480Y-65880693D01*
X57327027Y-65971369D01*
X57317171Y-65975965D01*
X57123599Y-66111505D01*
X56956505Y-66278599D01*
X56928968Y-66317926D01*
X56858789Y-66385109D01*
X56768240Y-66420322D01*
X56671108Y-66418203D01*
X56582181Y-66379075D01*
X56521032Y-66317926D01*
X56493495Y-66278599D01*
X56326401Y-66111505D01*
X56317501Y-66105273D01*
X56317500Y-66105272D01*
X56141729Y-65982196D01*
X56141728Y-65982195D01*
X56132830Y-65975965D01*
X56122985Y-65971374D01*
X56122983Y-65971373D01*
X56038146Y-65931813D01*
X55918663Y-65876097D01*
X55908165Y-65873284D01*
X55908162Y-65873283D01*
X55804535Y-65845517D01*
X55690408Y-65814937D01*
X55679575Y-65813989D01*
X55679574Y-65813989D01*
X55465835Y-65795289D01*
X55455000Y-65794341D01*
X55444165Y-65795289D01*
X55230426Y-65813989D01*
X55230425Y-65813989D01*
X55219592Y-65814937D01*
X54991337Y-65876097D01*
X54981484Y-65880691D01*
X54981480Y-65880693D01*
X54787027Y-65971369D01*
X54777171Y-65975965D01*
X54583599Y-66111505D01*
X54416505Y-66278599D01*
X54388968Y-66317926D01*
X54318789Y-66385109D01*
X54228240Y-66420322D01*
X54131108Y-66418203D01*
X54042181Y-66379075D01*
X53981032Y-66317926D01*
X53953495Y-66278599D01*
X53786401Y-66111505D01*
X53777501Y-66105273D01*
X53777500Y-66105272D01*
X53601729Y-65982196D01*
X53601728Y-65982195D01*
X53592830Y-65975965D01*
X53582985Y-65971374D01*
X53582983Y-65971373D01*
X53498146Y-65931813D01*
X53378663Y-65876097D01*
X53368165Y-65873284D01*
X53368162Y-65873283D01*
X53264535Y-65845517D01*
X53150408Y-65814937D01*
X53139575Y-65813989D01*
X53139574Y-65813989D01*
X52925835Y-65795289D01*
X52915000Y-65794341D01*
X52904165Y-65795289D01*
X52690426Y-65813989D01*
X52690425Y-65813989D01*
X52679592Y-65814937D01*
X52451337Y-65876097D01*
X52441484Y-65880691D01*
X52441480Y-65880693D01*
X52247027Y-65971369D01*
X52237171Y-65975965D01*
X52043599Y-66111505D01*
X51876505Y-66278599D01*
X51848968Y-66317926D01*
X51778789Y-66385109D01*
X51688240Y-66420322D01*
X51591108Y-66418203D01*
X51502181Y-66379075D01*
X51441032Y-66317926D01*
X51413495Y-66278599D01*
X51246401Y-66111505D01*
X51237501Y-66105273D01*
X51237500Y-66105272D01*
X51061729Y-65982196D01*
X51061728Y-65982195D01*
X51052830Y-65975965D01*
X51042985Y-65971374D01*
X51042983Y-65971373D01*
X50958146Y-65931813D01*
X50838663Y-65876097D01*
X50828165Y-65873284D01*
X50828162Y-65873283D01*
X50724535Y-65845517D01*
X50610408Y-65814937D01*
X50599575Y-65813989D01*
X50599574Y-65813989D01*
X50385835Y-65795289D01*
X50375000Y-65794341D01*
X50364165Y-65795289D01*
X50150426Y-65813989D01*
X50150425Y-65813989D01*
X50139592Y-65814937D01*
X49911337Y-65876097D01*
X49901484Y-65880691D01*
X49901480Y-65880693D01*
X49707027Y-65971369D01*
X49697171Y-65975965D01*
X49503599Y-66111505D01*
X49336505Y-66278599D01*
X49308968Y-66317926D01*
X49238789Y-66385109D01*
X49148240Y-66420322D01*
X49051108Y-66418203D01*
X48962181Y-66379075D01*
X48901032Y-66317926D01*
X48873495Y-66278599D01*
X48706401Y-66111505D01*
X48697501Y-66105273D01*
X48697500Y-66105272D01*
X48521729Y-65982196D01*
X48521728Y-65982195D01*
X48512830Y-65975965D01*
X48502985Y-65971374D01*
X48502983Y-65971373D01*
X48418146Y-65931813D01*
X48298663Y-65876097D01*
X48288165Y-65873284D01*
X48288162Y-65873283D01*
X48184535Y-65845517D01*
X48070408Y-65814937D01*
X48059575Y-65813989D01*
X48059574Y-65813989D01*
X47845835Y-65795289D01*
X47835000Y-65794341D01*
X47824165Y-65795289D01*
X47610426Y-65813989D01*
X47610425Y-65813989D01*
X47599592Y-65814937D01*
X47371337Y-65876097D01*
X47361484Y-65880691D01*
X47361480Y-65880693D01*
X47167027Y-65971369D01*
X47157171Y-65975965D01*
X46963599Y-66111505D01*
X46796505Y-66278599D01*
X46768968Y-66317926D01*
X46698789Y-66385109D01*
X46608240Y-66420322D01*
X46511108Y-66418203D01*
X46422181Y-66379075D01*
X46361032Y-66317926D01*
X46333495Y-66278599D01*
X46166401Y-66111505D01*
X46157501Y-66105273D01*
X46157500Y-66105272D01*
X45981729Y-65982196D01*
X45981728Y-65982195D01*
X45972830Y-65975965D01*
X45962985Y-65971374D01*
X45962983Y-65971373D01*
X45878146Y-65931813D01*
X45758663Y-65876097D01*
X45748165Y-65873284D01*
X45748162Y-65873283D01*
X45644535Y-65845517D01*
X45530408Y-65814937D01*
X45519575Y-65813989D01*
X45519574Y-65813989D01*
X45305835Y-65795289D01*
X45295000Y-65794341D01*
X45284165Y-65795289D01*
X45070426Y-65813989D01*
X45070425Y-65813989D01*
X45059592Y-65814937D01*
X44831337Y-65876097D01*
X44821484Y-65880691D01*
X44821480Y-65880693D01*
X44627027Y-65971369D01*
X44617171Y-65975965D01*
X44423599Y-66111505D01*
X44256505Y-66278599D01*
X44120965Y-66472171D01*
X44021097Y-66686337D01*
X43959937Y-66914592D01*
X43939341Y-67150000D01*
X37750500Y-67150000D01*
X37750500Y-64173257D01*
X38872600Y-64173257D01*
X38873590Y-64180771D01*
X38923754Y-64367985D01*
X38931166Y-64388348D01*
X39021805Y-64582725D01*
X39032635Y-64601482D01*
X39155653Y-64777170D01*
X39169576Y-64793764D01*
X39321239Y-64945427D01*
X39337823Y-64959343D01*
X39513522Y-65082369D01*
X39532268Y-65093192D01*
X39726657Y-65183837D01*
X39747014Y-65191246D01*
X39926309Y-65239288D01*
X39947123Y-65240652D01*
X39949011Y-65236825D01*
X39950000Y-65229311D01*
X39950000Y-65221109D01*
X40450000Y-65221109D01*
X40454069Y-65241567D01*
X40458257Y-65242400D01*
X40465771Y-65241410D01*
X40652986Y-65191246D01*
X40673343Y-65183837D01*
X40867732Y-65093192D01*
X40886478Y-65082369D01*
X41062177Y-64959343D01*
X41078761Y-64945427D01*
X41230424Y-64793764D01*
X41244347Y-64777170D01*
X41367365Y-64601482D01*
X41378195Y-64582725D01*
X41468834Y-64388348D01*
X41476246Y-64367985D01*
X41524288Y-64188691D01*
X41525652Y-64167877D01*
X41521825Y-64165989D01*
X41514311Y-64165000D01*
X40474527Y-64165000D01*
X40454069Y-64169069D01*
X40450000Y-64189527D01*
X40450000Y-65221109D01*
X39950000Y-65221109D01*
X39950000Y-64189527D01*
X39945931Y-64169069D01*
X39925473Y-64165000D01*
X38893891Y-64165000D01*
X38873433Y-64169069D01*
X38872600Y-64173257D01*
X37750500Y-64173257D01*
X37750500Y-62265593D01*
X38850000Y-62265593D01*
X38850727Y-62279028D01*
X38854956Y-62317955D01*
X38862122Y-62348089D01*
X38900691Y-62450973D01*
X38917554Y-62481774D01*
X38982171Y-62567992D01*
X39007008Y-62592829D01*
X39093225Y-62657445D01*
X39096960Y-62659490D01*
X39105521Y-62666661D01*
X39107419Y-62668083D01*
X39107342Y-62668186D01*
X39171440Y-62721873D01*
X39216378Y-62808011D01*
X39224932Y-62904788D01*
X39195799Y-62997473D01*
X39168137Y-63037951D01*
X39155652Y-63052831D01*
X39032635Y-63228518D01*
X39021805Y-63247275D01*
X38931166Y-63441652D01*
X38923754Y-63462015D01*
X38875712Y-63641309D01*
X38874348Y-63662123D01*
X38878175Y-63664011D01*
X38885689Y-63665000D01*
X39925473Y-63665000D01*
X39945931Y-63660931D01*
X39950000Y-63640473D01*
X40450000Y-63640473D01*
X40454069Y-63660931D01*
X40474527Y-63665000D01*
X41506109Y-63665000D01*
X41526567Y-63660931D01*
X41527400Y-63656743D01*
X41526410Y-63649229D01*
X41476246Y-63462015D01*
X41468834Y-63441652D01*
X41378195Y-63247275D01*
X41367365Y-63228518D01*
X41244348Y-63052831D01*
X41231863Y-63037951D01*
X41185135Y-62952771D01*
X41174560Y-62856193D01*
X41201749Y-62762920D01*
X41262562Y-62687152D01*
X41303040Y-62659490D01*
X41306775Y-62657445D01*
X41392992Y-62592829D01*
X41417829Y-62567992D01*
X41482446Y-62481774D01*
X41499309Y-62450973D01*
X41537878Y-62348089D01*
X41545044Y-62317955D01*
X41549273Y-62279028D01*
X41550000Y-62265593D01*
X41550000Y-61649527D01*
X41545931Y-61629069D01*
X41525473Y-61625000D01*
X40474527Y-61625000D01*
X40454069Y-61629069D01*
X40450000Y-61649527D01*
X40450000Y-63640473D01*
X39950000Y-63640473D01*
X39950000Y-61649527D01*
X39945931Y-61629069D01*
X39925473Y-61625000D01*
X38874527Y-61625000D01*
X38854069Y-61629069D01*
X38850000Y-61649527D01*
X38850000Y-62265593D01*
X37750500Y-62265593D01*
X37750500Y-61100473D01*
X38850000Y-61100473D01*
X38854069Y-61120931D01*
X38874527Y-61125000D01*
X39925473Y-61125000D01*
X39945931Y-61120931D01*
X39950000Y-61100473D01*
X40450000Y-61100473D01*
X40454069Y-61120931D01*
X40474527Y-61125000D01*
X41525473Y-61125000D01*
X41545931Y-61120931D01*
X41550000Y-61100473D01*
X41550000Y-60484407D01*
X41549273Y-60470972D01*
X41545044Y-60432045D01*
X41537878Y-60401911D01*
X41499309Y-60299027D01*
X41482446Y-60268226D01*
X41417829Y-60182008D01*
X41392992Y-60157171D01*
X41306774Y-60092554D01*
X41275973Y-60075691D01*
X41173089Y-60037122D01*
X41142955Y-60029956D01*
X41104028Y-60025727D01*
X41090593Y-60025000D01*
X40474527Y-60025000D01*
X40454069Y-60029069D01*
X40450000Y-60049527D01*
X40450000Y-61100473D01*
X39950000Y-61100473D01*
X39950000Y-60049527D01*
X39945931Y-60029069D01*
X39925473Y-60025000D01*
X39309407Y-60025000D01*
X39295972Y-60025727D01*
X39257045Y-60029956D01*
X39226911Y-60037122D01*
X39124027Y-60075691D01*
X39093226Y-60092554D01*
X39007008Y-60157171D01*
X38982171Y-60182008D01*
X38917554Y-60268226D01*
X38900691Y-60299027D01*
X38862122Y-60401911D01*
X38854956Y-60432045D01*
X38850727Y-60470972D01*
X38850000Y-60484407D01*
X38850000Y-61100473D01*
X37750500Y-61100473D01*
X37750500Y-56538257D01*
X38872600Y-56538257D01*
X38873590Y-56545771D01*
X38923754Y-56732985D01*
X38931166Y-56753348D01*
X39021805Y-56947725D01*
X39032635Y-56966482D01*
X39155653Y-57142170D01*
X39169576Y-57158764D01*
X39321239Y-57310427D01*
X39337823Y-57324343D01*
X39513522Y-57447369D01*
X39532268Y-57458192D01*
X39726657Y-57548837D01*
X39747014Y-57556246D01*
X39926309Y-57604288D01*
X39947123Y-57605652D01*
X39949011Y-57601825D01*
X39950000Y-57594311D01*
X39950000Y-57586109D01*
X40450000Y-57586109D01*
X40454069Y-57606567D01*
X40458257Y-57607400D01*
X40465771Y-57606410D01*
X40652986Y-57556246D01*
X40673343Y-57548837D01*
X40867732Y-57458192D01*
X40886478Y-57447369D01*
X41062177Y-57324343D01*
X41078761Y-57310427D01*
X41230424Y-57158764D01*
X41244347Y-57142170D01*
X41367365Y-56966482D01*
X41378195Y-56947725D01*
X41468834Y-56753348D01*
X41476246Y-56732985D01*
X41524288Y-56553691D01*
X41525652Y-56532877D01*
X41521825Y-56530989D01*
X41514311Y-56530000D01*
X40474527Y-56530000D01*
X40454069Y-56534069D01*
X40450000Y-56554527D01*
X40450000Y-57586109D01*
X39950000Y-57586109D01*
X39950000Y-56554527D01*
X39945931Y-56534069D01*
X39925473Y-56530000D01*
X38893891Y-56530000D01*
X38873433Y-56534069D01*
X38872600Y-56538257D01*
X37750500Y-56538257D01*
X37750500Y-53998257D01*
X38872600Y-53998257D01*
X38873590Y-54005771D01*
X38923754Y-54192985D01*
X38931166Y-54213348D01*
X39021805Y-54407725D01*
X39032635Y-54426482D01*
X39155653Y-54602170D01*
X39169576Y-54618764D01*
X39321239Y-54770427D01*
X39337825Y-54784344D01*
X39368796Y-54806030D01*
X39435980Y-54876211D01*
X39471194Y-54966760D01*
X39469075Y-55063892D01*
X39429947Y-55152819D01*
X39368798Y-55213968D01*
X39337833Y-55235650D01*
X39321236Y-55249576D01*
X39169576Y-55401236D01*
X39155653Y-55417830D01*
X39032635Y-55593518D01*
X39021805Y-55612275D01*
X38931166Y-55806652D01*
X38923754Y-55827015D01*
X38875712Y-56006309D01*
X38874348Y-56027123D01*
X38878175Y-56029011D01*
X38885689Y-56030000D01*
X39925473Y-56030000D01*
X39945931Y-56025931D01*
X39950000Y-56005473D01*
X40450000Y-56005473D01*
X40454069Y-56025931D01*
X40474527Y-56030000D01*
X41506109Y-56030000D01*
X41526567Y-56025931D01*
X41527400Y-56021743D01*
X41526410Y-56014229D01*
X41476246Y-55827015D01*
X41468834Y-55806652D01*
X41378195Y-55612275D01*
X41367365Y-55593518D01*
X41244347Y-55417830D01*
X41230424Y-55401236D01*
X41078761Y-55249573D01*
X41062169Y-55235651D01*
X41031203Y-55213968D01*
X40964019Y-55143787D01*
X40928807Y-55053237D01*
X40930926Y-54956106D01*
X40970056Y-54867179D01*
X41031203Y-54806032D01*
X41062169Y-54784349D01*
X41078761Y-54770427D01*
X41230424Y-54618764D01*
X41244347Y-54602170D01*
X41367365Y-54426482D01*
X41378195Y-54407725D01*
X41468834Y-54213348D01*
X41476246Y-54192985D01*
X41524288Y-54013691D01*
X41525652Y-53992877D01*
X41521825Y-53990989D01*
X41514311Y-53990000D01*
X40474527Y-53990000D01*
X40454069Y-53994069D01*
X40450000Y-54014527D01*
X40450000Y-56005473D01*
X39950000Y-56005473D01*
X39950000Y-54014527D01*
X39945931Y-53994069D01*
X39925473Y-53990000D01*
X38893891Y-53990000D01*
X38873433Y-53994069D01*
X38872600Y-53998257D01*
X37750500Y-53998257D01*
X37750500Y-51200000D01*
X38844341Y-51200000D01*
X38864937Y-51435408D01*
X38926097Y-51663663D01*
X39025965Y-51877829D01*
X39161505Y-52071401D01*
X39328599Y-52238495D01*
X39337501Y-52244728D01*
X39337503Y-52244730D01*
X39368362Y-52266338D01*
X39435545Y-52336520D01*
X39470757Y-52427069D01*
X39468637Y-52524201D01*
X39429508Y-52613128D01*
X39368361Y-52674274D01*
X39337833Y-52695650D01*
X39321236Y-52709576D01*
X39169576Y-52861236D01*
X39155653Y-52877830D01*
X39032635Y-53053518D01*
X39021805Y-53072275D01*
X38931166Y-53266652D01*
X38923754Y-53287015D01*
X38875712Y-53466309D01*
X38874348Y-53487123D01*
X38878175Y-53489011D01*
X38885689Y-53490000D01*
X41506109Y-53490000D01*
X41526567Y-53485931D01*
X41527400Y-53481743D01*
X41526410Y-53474229D01*
X41476246Y-53287015D01*
X41468834Y-53266652D01*
X41378195Y-53072275D01*
X41367365Y-53053518D01*
X41244347Y-52877830D01*
X41230424Y-52861236D01*
X41078761Y-52709573D01*
X41062175Y-52695656D01*
X41031641Y-52674276D01*
X40964457Y-52604095D01*
X40929243Y-52513546D01*
X40931362Y-52416415D01*
X40970490Y-52327487D01*
X41031638Y-52266338D01*
X41062497Y-52244730D01*
X41062499Y-52244728D01*
X41071401Y-52238495D01*
X41199896Y-52110000D01*
X55034341Y-52110000D01*
X55054937Y-52345408D01*
X55116097Y-52573663D01*
X55120691Y-52583516D01*
X55120693Y-52583520D01*
X55179473Y-52709573D01*
X55215965Y-52787829D01*
X55351505Y-52981401D01*
X55518599Y-53148495D01*
X55527497Y-53154725D01*
X55527500Y-53154728D01*
X55703271Y-53277804D01*
X55712170Y-53284035D01*
X55722015Y-53288626D01*
X55722017Y-53288627D01*
X55798945Y-53324499D01*
X55926337Y-53383903D01*
X55936835Y-53386716D01*
X55936838Y-53386717D01*
X56040465Y-53414483D01*
X56154592Y-53445063D01*
X56165425Y-53446011D01*
X56165426Y-53446011D01*
X56379165Y-53464711D01*
X56390000Y-53465659D01*
X56400835Y-53464711D01*
X56614574Y-53446011D01*
X56614575Y-53446011D01*
X56625408Y-53445063D01*
X56739535Y-53414483D01*
X56843162Y-53386717D01*
X56843165Y-53386716D01*
X56853663Y-53383903D01*
X56981055Y-53324499D01*
X57057983Y-53288627D01*
X57057985Y-53288626D01*
X57067830Y-53284035D01*
X57076729Y-53277804D01*
X57252500Y-53154728D01*
X57252503Y-53154725D01*
X57261401Y-53148495D01*
X57428495Y-52981401D01*
X57456032Y-52942074D01*
X57526211Y-52874891D01*
X57616760Y-52839678D01*
X57713892Y-52841797D01*
X57802819Y-52880925D01*
X57863968Y-52942074D01*
X57891505Y-52981401D01*
X58058599Y-53148495D01*
X58067497Y-53154725D01*
X58067500Y-53154728D01*
X58243271Y-53277804D01*
X58252170Y-53284035D01*
X58262015Y-53288626D01*
X58262017Y-53288627D01*
X58338945Y-53324499D01*
X58466337Y-53383903D01*
X58476835Y-53386716D01*
X58476838Y-53386717D01*
X58580465Y-53414483D01*
X58694592Y-53445063D01*
X58705425Y-53446011D01*
X58705426Y-53446011D01*
X58919165Y-53464711D01*
X58930000Y-53465659D01*
X58940835Y-53464711D01*
X59154574Y-53446011D01*
X59154575Y-53446011D01*
X59165408Y-53445063D01*
X59279535Y-53414483D01*
X59383162Y-53386717D01*
X59383165Y-53386716D01*
X59393663Y-53383903D01*
X59521055Y-53324499D01*
X59597983Y-53288627D01*
X59597985Y-53288626D01*
X59607830Y-53284035D01*
X59616729Y-53277804D01*
X59792500Y-53154728D01*
X59792503Y-53154725D01*
X59801401Y-53148495D01*
X59968495Y-52981401D01*
X60104035Y-52787829D01*
X60140527Y-52709573D01*
X60199307Y-52583520D01*
X60199309Y-52583516D01*
X60203903Y-52573663D01*
X60265063Y-52345408D01*
X60285659Y-52110000D01*
X98214341Y-52110000D01*
X98234937Y-52345408D01*
X98296097Y-52573663D01*
X98300691Y-52583516D01*
X98300693Y-52583520D01*
X98359473Y-52709573D01*
X98395965Y-52787829D01*
X98531505Y-52981401D01*
X98698599Y-53148495D01*
X98707497Y-53154725D01*
X98707500Y-53154728D01*
X98883271Y-53277804D01*
X98892170Y-53284035D01*
X98902015Y-53288626D01*
X98902017Y-53288627D01*
X98978945Y-53324499D01*
X99106337Y-53383903D01*
X99116835Y-53386716D01*
X99116838Y-53386717D01*
X99220465Y-53414483D01*
X99334592Y-53445063D01*
X99345425Y-53446011D01*
X99345426Y-53446011D01*
X99559165Y-53464711D01*
X99570000Y-53465659D01*
X99580835Y-53464711D01*
X99794574Y-53446011D01*
X99794575Y-53446011D01*
X99805408Y-53445063D01*
X99919535Y-53414483D01*
X100023162Y-53386717D01*
X100023165Y-53386716D01*
X100033663Y-53383903D01*
X100161055Y-53324499D01*
X100237983Y-53288627D01*
X100237985Y-53288626D01*
X100247830Y-53284035D01*
X100256729Y-53277804D01*
X100432500Y-53154728D01*
X100432503Y-53154725D01*
X100441401Y-53148495D01*
X100608495Y-52981401D01*
X100636032Y-52942074D01*
X100706211Y-52874891D01*
X100796760Y-52839678D01*
X100893892Y-52841797D01*
X100982819Y-52880925D01*
X101043968Y-52942074D01*
X101071505Y-52981401D01*
X101238599Y-53148495D01*
X101247497Y-53154725D01*
X101247500Y-53154728D01*
X101423271Y-53277804D01*
X101432170Y-53284035D01*
X101442015Y-53288626D01*
X101442017Y-53288627D01*
X101518945Y-53324499D01*
X101646337Y-53383903D01*
X101656835Y-53386716D01*
X101656838Y-53386717D01*
X101760465Y-53414483D01*
X101874592Y-53445063D01*
X101885425Y-53446011D01*
X101885426Y-53446011D01*
X102099165Y-53464711D01*
X102110000Y-53465659D01*
X102120835Y-53464711D01*
X102334574Y-53446011D01*
X102334575Y-53446011D01*
X102345408Y-53445063D01*
X102459535Y-53414483D01*
X102563162Y-53386717D01*
X102563165Y-53386716D01*
X102573663Y-53383903D01*
X102701055Y-53324499D01*
X102777983Y-53288627D01*
X102777985Y-53288626D01*
X102787830Y-53284035D01*
X102796729Y-53277804D01*
X102972500Y-53154728D01*
X102972503Y-53154725D01*
X102981401Y-53148495D01*
X103148495Y-52981401D01*
X103284035Y-52787829D01*
X103320527Y-52709573D01*
X103379307Y-52583520D01*
X103379309Y-52583516D01*
X103383903Y-52573663D01*
X103445063Y-52345408D01*
X103465659Y-52110000D01*
X103445063Y-51874592D01*
X103383903Y-51646337D01*
X103284035Y-51432171D01*
X103148495Y-51238599D01*
X102981401Y-51071505D01*
X102972497Y-51065270D01*
X102942075Y-51043968D01*
X102874892Y-50973786D01*
X102839680Y-50883237D01*
X102841800Y-50786105D01*
X102880929Y-50697178D01*
X102942075Y-50636032D01*
X102972497Y-50614730D01*
X102972499Y-50614728D01*
X102981401Y-50608495D01*
X103148495Y-50441401D01*
X103284035Y-50247829D01*
X103324289Y-50161505D01*
X103379307Y-50043520D01*
X103379309Y-50043516D01*
X103383903Y-50033663D01*
X103445063Y-49805408D01*
X103465659Y-49570000D01*
X103445063Y-49334592D01*
X103383903Y-49106337D01*
X103284035Y-48892171D01*
X103148495Y-48698599D01*
X102981401Y-48531505D01*
X102972497Y-48525270D01*
X102942075Y-48503968D01*
X102874892Y-48433786D01*
X102839680Y-48343237D01*
X102841800Y-48246105D01*
X102880929Y-48157178D01*
X102942075Y-48096032D01*
X102972497Y-48074730D01*
X102972499Y-48074728D01*
X102981401Y-48068495D01*
X103148495Y-47901401D01*
X103250118Y-47756268D01*
X103277797Y-47716738D01*
X103277798Y-47716737D01*
X103284035Y-47707829D01*
X103356155Y-47553169D01*
X103379307Y-47503520D01*
X103379309Y-47503516D01*
X103383903Y-47493663D01*
X103445063Y-47265408D01*
X103465659Y-47030000D01*
X103445063Y-46794592D01*
X103383903Y-46566337D01*
X103284035Y-46352171D01*
X103148495Y-46158599D01*
X102981401Y-45991505D01*
X102972497Y-45985270D01*
X102942075Y-45963968D01*
X102874892Y-45893786D01*
X102839680Y-45803237D01*
X102841800Y-45706105D01*
X102880929Y-45617178D01*
X102942075Y-45556032D01*
X102972497Y-45534730D01*
X102972499Y-45534728D01*
X102981401Y-45528495D01*
X103148495Y-45361401D01*
X103284035Y-45167829D01*
X103349623Y-45027176D01*
X103379307Y-44963520D01*
X103379309Y-44963516D01*
X103383903Y-44953663D01*
X103445063Y-44725408D01*
X103465659Y-44490000D01*
X103445063Y-44254592D01*
X103383903Y-44026337D01*
X103284035Y-43812171D01*
X103148495Y-43618599D01*
X102981401Y-43451505D01*
X102972497Y-43445270D01*
X102942075Y-43423968D01*
X102874892Y-43353786D01*
X102839680Y-43263237D01*
X102841800Y-43166105D01*
X102880929Y-43077178D01*
X102942075Y-43016032D01*
X102972497Y-42994730D01*
X102972499Y-42994728D01*
X102981401Y-42988495D01*
X103148495Y-42821401D01*
X103284035Y-42627829D01*
X103383903Y-42413663D01*
X103445063Y-42185408D01*
X103465659Y-41950000D01*
X103445063Y-41714592D01*
X103383903Y-41486337D01*
X103333105Y-41377400D01*
X103288631Y-41282027D01*
X103284035Y-41272171D01*
X103148495Y-41078599D01*
X102981401Y-40911505D01*
X102972497Y-40905270D01*
X102942075Y-40883968D01*
X102874892Y-40813786D01*
X102839680Y-40723237D01*
X102841800Y-40626105D01*
X102880929Y-40537178D01*
X102942075Y-40476032D01*
X102972497Y-40454730D01*
X102972499Y-40454728D01*
X102981401Y-40448495D01*
X103148495Y-40281401D01*
X103284035Y-40087829D01*
X103383903Y-39873663D01*
X103445063Y-39645408D01*
X103465659Y-39410000D01*
X103445063Y-39174592D01*
X103383903Y-38946337D01*
X103361512Y-38898318D01*
X103288631Y-38742027D01*
X103284035Y-38732171D01*
X103148495Y-38538599D01*
X102981401Y-38371505D01*
X102972497Y-38365270D01*
X102942075Y-38343968D01*
X102874892Y-38273786D01*
X102839680Y-38183237D01*
X102841800Y-38086105D01*
X102880929Y-37997178D01*
X102942075Y-37936032D01*
X102972497Y-37914730D01*
X102972499Y-37914728D01*
X102981401Y-37908495D01*
X103148495Y-37741401D01*
X103284035Y-37547829D01*
X103383903Y-37333663D01*
X103445063Y-37105408D01*
X103465659Y-36870000D01*
X103450461Y-36696286D01*
X103446011Y-36645426D01*
X103446011Y-36645425D01*
X103445063Y-36634592D01*
X103383903Y-36406337D01*
X103371159Y-36379006D01*
X103288631Y-36202027D01*
X103284035Y-36192171D01*
X103148495Y-35998599D01*
X102981401Y-35831505D01*
X102972497Y-35825270D01*
X102942075Y-35803968D01*
X102874892Y-35733786D01*
X102839680Y-35643237D01*
X102841800Y-35546105D01*
X102880929Y-35457178D01*
X102942075Y-35396032D01*
X102972497Y-35374730D01*
X102972499Y-35374728D01*
X102981401Y-35368495D01*
X103148495Y-35201401D01*
X103284035Y-35007829D01*
X103383903Y-34793663D01*
X103445063Y-34565408D01*
X103465659Y-34330000D01*
X103445063Y-34094592D01*
X103383903Y-33866337D01*
X103284035Y-33652171D01*
X103148495Y-33458599D01*
X102981401Y-33291505D01*
X102972497Y-33285270D01*
X102942075Y-33263968D01*
X102874892Y-33193786D01*
X102839680Y-33103237D01*
X102841800Y-33006105D01*
X102880929Y-32917178D01*
X102942075Y-32856032D01*
X102972497Y-32834730D01*
X102972499Y-32834728D01*
X102981401Y-32828495D01*
X103148495Y-32661401D01*
X103284035Y-32467829D01*
X103383903Y-32253663D01*
X103445063Y-32025408D01*
X103465659Y-31790000D01*
X103445063Y-31554592D01*
X103383903Y-31326337D01*
X103324530Y-31199011D01*
X103288631Y-31122027D01*
X103284035Y-31112171D01*
X103148495Y-30918599D01*
X102981401Y-30751505D01*
X102972497Y-30745270D01*
X102941638Y-30723662D01*
X102874455Y-30653480D01*
X102839243Y-30562931D01*
X102841363Y-30465799D01*
X102880492Y-30376872D01*
X102941641Y-30315724D01*
X102972175Y-30294344D01*
X102988761Y-30280427D01*
X103140424Y-30128764D01*
X103154347Y-30112170D01*
X103277365Y-29936482D01*
X103288195Y-29917725D01*
X103378834Y-29723348D01*
X103386246Y-29702985D01*
X103434288Y-29523691D01*
X103435652Y-29502877D01*
X103431825Y-29500989D01*
X103424311Y-29500000D01*
X102109000Y-29500000D01*
X102013712Y-29481046D01*
X101932930Y-29427070D01*
X101878954Y-29346288D01*
X101860000Y-29251000D01*
X101860000Y-28975473D01*
X102360000Y-28975473D01*
X102364069Y-28995931D01*
X102384527Y-29000000D01*
X103416109Y-29000000D01*
X103436567Y-28995931D01*
X103437400Y-28991743D01*
X103436410Y-28984229D01*
X103386246Y-28797015D01*
X103378834Y-28776652D01*
X103288195Y-28582275D01*
X103277365Y-28563518D01*
X103154347Y-28387830D01*
X103140424Y-28371236D01*
X102988761Y-28219573D01*
X102972177Y-28205657D01*
X102796478Y-28082631D01*
X102777732Y-28071808D01*
X102583343Y-27981163D01*
X102562986Y-27973754D01*
X102383691Y-27925712D01*
X102362877Y-27924348D01*
X102360989Y-27928175D01*
X102360000Y-27935689D01*
X102360000Y-28975473D01*
X101860000Y-28975473D01*
X101860000Y-27943891D01*
X101855931Y-27923433D01*
X101851743Y-27922600D01*
X101844229Y-27923590D01*
X101657015Y-27973754D01*
X101636652Y-27981166D01*
X101442275Y-28071805D01*
X101423518Y-28082635D01*
X101247829Y-28205653D01*
X101233348Y-28217804D01*
X101148169Y-28264533D01*
X101051591Y-28275109D01*
X100958318Y-28247921D01*
X100882549Y-28187109D01*
X100865268Y-28161822D01*
X100863526Y-28157176D01*
X100852888Y-28142981D01*
X100788187Y-28056652D01*
X100777546Y-28042454D01*
X100662824Y-27956474D01*
X100616288Y-27939029D01*
X100543196Y-27911628D01*
X100543195Y-27911628D01*
X100528580Y-27906149D01*
X100467377Y-27899500D01*
X99570600Y-27899500D01*
X98672624Y-27899501D01*
X98611420Y-27906149D01*
X98477176Y-27956474D01*
X98362454Y-28042454D01*
X98276474Y-28157176D01*
X98270247Y-28173787D01*
X98232264Y-28275109D01*
X98226149Y-28291420D01*
X98219500Y-28352623D01*
X98219501Y-30147376D01*
X98226149Y-30208580D01*
X98276474Y-30342824D01*
X98362454Y-30457546D01*
X98473528Y-30540792D01*
X98473534Y-30540797D01*
X98477176Y-30543526D01*
X98477028Y-30543723D01*
X98540666Y-30597030D01*
X98585600Y-30683169D01*
X98594150Y-30779947D01*
X98565014Y-30872631D01*
X98538116Y-30911988D01*
X98531505Y-30918599D01*
X98395965Y-31112171D01*
X98391369Y-31122027D01*
X98355471Y-31199011D01*
X98296097Y-31326337D01*
X98234937Y-31554592D01*
X98214341Y-31790000D01*
X98234937Y-32025408D01*
X98296097Y-32253663D01*
X98395965Y-32467829D01*
X98531505Y-32661401D01*
X98698599Y-32828495D01*
X98707501Y-32834728D01*
X98707503Y-32834730D01*
X98737923Y-32856030D01*
X98805108Y-32926211D01*
X98840321Y-33016760D01*
X98838202Y-33113892D01*
X98799074Y-33202819D01*
X98737926Y-33263968D01*
X98698599Y-33291505D01*
X98531505Y-33458599D01*
X98395965Y-33652171D01*
X98296097Y-33866337D01*
X98234937Y-34094592D01*
X98214341Y-34330000D01*
X98234937Y-34565408D01*
X98296097Y-34793663D01*
X98395965Y-35007829D01*
X98531505Y-35201401D01*
X98698599Y-35368495D01*
X98707501Y-35374728D01*
X98707503Y-35374730D01*
X98737923Y-35396030D01*
X98805108Y-35466211D01*
X98840321Y-35556760D01*
X98838202Y-35653892D01*
X98799074Y-35742819D01*
X98737926Y-35803968D01*
X98698599Y-35831505D01*
X98531505Y-35998599D01*
X98395965Y-36192171D01*
X98391369Y-36202027D01*
X98308842Y-36379006D01*
X98296097Y-36406337D01*
X98234937Y-36634592D01*
X98233989Y-36645425D01*
X98233989Y-36645426D01*
X98229539Y-36696286D01*
X98214341Y-36870000D01*
X98234937Y-37105408D01*
X98296097Y-37333663D01*
X98395965Y-37547829D01*
X98531505Y-37741401D01*
X98698599Y-37908495D01*
X98707501Y-37914728D01*
X98707503Y-37914730D01*
X98737923Y-37936030D01*
X98805108Y-38006211D01*
X98840321Y-38096760D01*
X98838202Y-38193892D01*
X98799074Y-38282819D01*
X98737926Y-38343968D01*
X98698599Y-38371505D01*
X98531505Y-38538599D01*
X98395965Y-38732171D01*
X98391369Y-38742027D01*
X98318489Y-38898318D01*
X98296097Y-38946337D01*
X98234937Y-39174592D01*
X98214341Y-39410000D01*
X98234937Y-39645408D01*
X98296097Y-39873663D01*
X98395965Y-40087829D01*
X98531505Y-40281401D01*
X98698599Y-40448495D01*
X98707501Y-40454728D01*
X98707503Y-40454730D01*
X98737923Y-40476030D01*
X98805108Y-40546211D01*
X98840321Y-40636760D01*
X98838202Y-40733892D01*
X98799074Y-40822819D01*
X98737926Y-40883968D01*
X98698599Y-40911505D01*
X98531505Y-41078599D01*
X98395965Y-41272171D01*
X98391369Y-41282027D01*
X98346896Y-41377400D01*
X98296097Y-41486337D01*
X98234937Y-41714592D01*
X98214341Y-41950000D01*
X98234937Y-42185408D01*
X98296097Y-42413663D01*
X98395965Y-42627829D01*
X98531505Y-42821401D01*
X98698599Y-42988495D01*
X98707501Y-42994728D01*
X98707503Y-42994730D01*
X98737923Y-43016030D01*
X98805108Y-43086211D01*
X98840321Y-43176760D01*
X98838202Y-43273892D01*
X98799074Y-43362819D01*
X98737926Y-43423968D01*
X98698599Y-43451505D01*
X98531505Y-43618599D01*
X98395965Y-43812171D01*
X98296097Y-44026337D01*
X98234937Y-44254592D01*
X98214341Y-44490000D01*
X98234937Y-44725408D01*
X98296097Y-44953663D01*
X98300691Y-44963516D01*
X98300693Y-44963520D01*
X98330377Y-45027176D01*
X98395965Y-45167829D01*
X98531505Y-45361401D01*
X98698599Y-45528495D01*
X98707501Y-45534728D01*
X98707503Y-45534730D01*
X98737923Y-45556030D01*
X98805108Y-45626211D01*
X98840321Y-45716760D01*
X98838202Y-45813892D01*
X98799074Y-45902819D01*
X98737926Y-45963968D01*
X98698599Y-45991505D01*
X98531505Y-46158599D01*
X98395965Y-46352171D01*
X98296097Y-46566337D01*
X98234937Y-46794592D01*
X98214341Y-47030000D01*
X98234937Y-47265408D01*
X98296097Y-47493663D01*
X98300691Y-47503516D01*
X98300693Y-47503520D01*
X98323845Y-47553169D01*
X98395965Y-47707829D01*
X98402202Y-47716737D01*
X98402203Y-47716738D01*
X98429882Y-47756268D01*
X98531505Y-47901401D01*
X98698599Y-48068495D01*
X98707501Y-48074728D01*
X98707503Y-48074730D01*
X98737923Y-48096030D01*
X98805108Y-48166211D01*
X98840321Y-48256760D01*
X98838202Y-48353892D01*
X98799074Y-48442819D01*
X98737926Y-48503968D01*
X98698599Y-48531505D01*
X98531505Y-48698599D01*
X98395965Y-48892171D01*
X98296097Y-49106337D01*
X98234937Y-49334592D01*
X98214341Y-49570000D01*
X98234937Y-49805408D01*
X98296097Y-50033663D01*
X98300691Y-50043516D01*
X98300693Y-50043520D01*
X98355711Y-50161505D01*
X98395965Y-50247829D01*
X98531505Y-50441401D01*
X98698599Y-50608495D01*
X98707501Y-50614728D01*
X98707503Y-50614730D01*
X98737923Y-50636030D01*
X98805108Y-50706211D01*
X98840321Y-50796760D01*
X98838202Y-50893892D01*
X98799074Y-50982819D01*
X98737926Y-51043968D01*
X98698599Y-51071505D01*
X98531505Y-51238599D01*
X98395965Y-51432171D01*
X98296097Y-51646337D01*
X98234937Y-51874592D01*
X98214341Y-52110000D01*
X60285659Y-52110000D01*
X60265063Y-51874592D01*
X60203903Y-51646337D01*
X60104035Y-51432171D01*
X59968495Y-51238599D01*
X59801401Y-51071505D01*
X59792497Y-51065270D01*
X59762075Y-51043968D01*
X59694892Y-50973786D01*
X59659680Y-50883237D01*
X59661800Y-50786105D01*
X59700929Y-50697178D01*
X59762075Y-50636032D01*
X59792497Y-50614730D01*
X59792499Y-50614728D01*
X59801401Y-50608495D01*
X59968495Y-50441401D01*
X60104035Y-50247829D01*
X60144289Y-50161505D01*
X60199307Y-50043520D01*
X60199309Y-50043516D01*
X60203903Y-50033663D01*
X60265063Y-49805408D01*
X60285659Y-49570000D01*
X60265063Y-49334592D01*
X60203903Y-49106337D01*
X60104035Y-48892171D01*
X59968495Y-48698599D01*
X59801401Y-48531505D01*
X59792497Y-48525270D01*
X59762075Y-48503968D01*
X59694892Y-48433786D01*
X59659680Y-48343237D01*
X59661800Y-48246105D01*
X59700929Y-48157178D01*
X59762075Y-48096032D01*
X59792497Y-48074730D01*
X59792499Y-48074728D01*
X59801401Y-48068495D01*
X59968495Y-47901401D01*
X60070118Y-47756268D01*
X60097797Y-47716738D01*
X60097798Y-47716737D01*
X60104035Y-47707829D01*
X60176155Y-47553169D01*
X60199307Y-47503520D01*
X60199309Y-47503516D01*
X60203903Y-47493663D01*
X60265063Y-47265408D01*
X60285659Y-47030000D01*
X60265063Y-46794592D01*
X60203903Y-46566337D01*
X60104035Y-46352171D01*
X59968495Y-46158599D01*
X59801401Y-45991505D01*
X59792497Y-45985270D01*
X59762075Y-45963968D01*
X59694892Y-45893786D01*
X59659680Y-45803237D01*
X59661800Y-45706105D01*
X59700929Y-45617178D01*
X59762075Y-45556032D01*
X59792497Y-45534730D01*
X59792499Y-45534728D01*
X59801401Y-45528495D01*
X59968495Y-45361401D01*
X60104035Y-45167829D01*
X60169623Y-45027176D01*
X60199307Y-44963520D01*
X60199309Y-44963516D01*
X60203903Y-44953663D01*
X60265063Y-44725408D01*
X60285659Y-44490000D01*
X60265063Y-44254592D01*
X60203903Y-44026337D01*
X60104035Y-43812171D01*
X59968495Y-43618599D01*
X59801401Y-43451505D01*
X59792497Y-43445270D01*
X59762075Y-43423968D01*
X59694892Y-43353786D01*
X59659680Y-43263237D01*
X59661800Y-43166105D01*
X59700929Y-43077178D01*
X59762075Y-43016032D01*
X59792497Y-42994730D01*
X59792499Y-42994728D01*
X59801401Y-42988495D01*
X59968495Y-42821401D01*
X60104035Y-42627829D01*
X60203903Y-42413663D01*
X60265063Y-42185408D01*
X60285659Y-41950000D01*
X60265063Y-41714592D01*
X60203903Y-41486337D01*
X60153105Y-41377400D01*
X60108631Y-41282027D01*
X60104035Y-41272171D01*
X59968495Y-41078599D01*
X59801401Y-40911505D01*
X59792497Y-40905270D01*
X59762075Y-40883968D01*
X59694892Y-40813786D01*
X59659680Y-40723237D01*
X59661800Y-40626105D01*
X59700929Y-40537178D01*
X59762075Y-40476032D01*
X59792497Y-40454730D01*
X59792499Y-40454728D01*
X59801401Y-40448495D01*
X59968495Y-40281401D01*
X60104035Y-40087829D01*
X60203903Y-39873663D01*
X60265063Y-39645408D01*
X60285659Y-39410000D01*
X60265063Y-39174592D01*
X60203903Y-38946337D01*
X60181512Y-38898318D01*
X60108631Y-38742027D01*
X60104035Y-38732171D01*
X59968495Y-38538599D01*
X59801401Y-38371505D01*
X59792497Y-38365270D01*
X59762075Y-38343968D01*
X59694892Y-38273786D01*
X59659680Y-38183237D01*
X59661800Y-38086105D01*
X59700929Y-37997178D01*
X59762075Y-37936032D01*
X59792497Y-37914730D01*
X59792499Y-37914728D01*
X59801401Y-37908495D01*
X59968495Y-37741401D01*
X60104035Y-37547829D01*
X60203903Y-37333663D01*
X60265063Y-37105408D01*
X60285659Y-36870000D01*
X60270461Y-36696286D01*
X60266011Y-36645426D01*
X60266011Y-36645425D01*
X60265063Y-36634592D01*
X60203903Y-36406337D01*
X60191159Y-36379006D01*
X60108631Y-36202027D01*
X60104035Y-36192171D01*
X59968495Y-35998599D01*
X59801401Y-35831505D01*
X59792497Y-35825270D01*
X59762075Y-35803968D01*
X59694892Y-35733786D01*
X59659680Y-35643237D01*
X59661800Y-35546105D01*
X59700929Y-35457178D01*
X59762075Y-35396032D01*
X59792497Y-35374730D01*
X59792499Y-35374728D01*
X59801401Y-35368495D01*
X59968495Y-35201401D01*
X60104035Y-35007829D01*
X60203903Y-34793663D01*
X60265063Y-34565408D01*
X60285659Y-34330000D01*
X60265063Y-34094592D01*
X60203903Y-33866337D01*
X60104035Y-33652171D01*
X59968495Y-33458599D01*
X59801401Y-33291505D01*
X59792497Y-33285270D01*
X59761638Y-33263662D01*
X59694455Y-33193480D01*
X59659243Y-33102931D01*
X59661363Y-33005799D01*
X59700492Y-32916872D01*
X59761641Y-32855724D01*
X59792175Y-32834344D01*
X59808761Y-32820427D01*
X59960424Y-32668764D01*
X59974347Y-32652170D01*
X60097365Y-32476482D01*
X60108195Y-32457725D01*
X60198834Y-32263348D01*
X60206246Y-32242985D01*
X60254288Y-32063691D01*
X60255652Y-32042877D01*
X60251825Y-32040989D01*
X60244311Y-32040000D01*
X58929000Y-32040000D01*
X58833712Y-32021046D01*
X58752930Y-31967070D01*
X58698954Y-31886288D01*
X58680000Y-31791000D01*
X58680000Y-31789000D01*
X58698954Y-31693712D01*
X58752930Y-31612930D01*
X58833712Y-31558954D01*
X58929000Y-31540000D01*
X60236109Y-31540000D01*
X60256567Y-31535931D01*
X60257400Y-31531743D01*
X60256410Y-31524229D01*
X60206246Y-31337015D01*
X60198834Y-31316652D01*
X60108195Y-31122275D01*
X60097365Y-31103518D01*
X59974347Y-30927830D01*
X59960424Y-30911236D01*
X59808761Y-30759573D01*
X59792175Y-30745656D01*
X59761641Y-30724276D01*
X59694457Y-30654095D01*
X59659243Y-30563546D01*
X59661362Y-30466415D01*
X59700490Y-30377487D01*
X59761638Y-30316338D01*
X59792497Y-30294730D01*
X59792499Y-30294728D01*
X59801401Y-30288495D01*
X59968495Y-30121401D01*
X60104035Y-29927829D01*
X60124848Y-29883196D01*
X60199307Y-29723520D01*
X60199309Y-29723516D01*
X60203903Y-29713663D01*
X60265063Y-29485408D01*
X60285659Y-29250000D01*
X60265063Y-29014592D01*
X60203903Y-28786337D01*
X60104035Y-28572171D01*
X59968495Y-28378599D01*
X59801401Y-28211505D01*
X59792503Y-28205275D01*
X59792500Y-28205272D01*
X59616729Y-28082196D01*
X59616728Y-28082195D01*
X59607830Y-28075965D01*
X59597985Y-28071374D01*
X59597983Y-28071373D01*
X59457629Y-28005925D01*
X59393663Y-27976097D01*
X59383165Y-27973284D01*
X59383162Y-27973283D01*
X59273467Y-27943891D01*
X59165408Y-27914937D01*
X59154575Y-27913989D01*
X59154574Y-27913989D01*
X58940835Y-27895289D01*
X58930000Y-27894341D01*
X58919165Y-27895289D01*
X58705426Y-27913989D01*
X58705425Y-27913989D01*
X58694592Y-27914937D01*
X58466337Y-27976097D01*
X58456484Y-27980691D01*
X58456480Y-27980693D01*
X58262027Y-28071369D01*
X58252171Y-28075965D01*
X58058599Y-28211505D01*
X58052320Y-28217784D01*
X57967920Y-28264084D01*
X57871342Y-28274659D01*
X57778069Y-28247470D01*
X57702301Y-28186657D01*
X57685195Y-28161627D01*
X57683526Y-28157176D01*
X57597546Y-28042454D01*
X57600458Y-28040272D01*
X57563901Y-27985560D01*
X57544947Y-27890272D01*
X57563901Y-27794984D01*
X57617877Y-27714203D01*
X57908648Y-27423431D01*
X57989429Y-27369454D01*
X58084718Y-27350500D01*
X62749948Y-27350500D01*
X62845236Y-27369454D01*
X62923698Y-27421141D01*
X62983082Y-27478991D01*
X62983086Y-27478994D01*
X62991264Y-27486961D01*
X63174717Y-27609540D01*
X63185207Y-27614047D01*
X63185209Y-27614048D01*
X63215619Y-27627113D01*
X63377436Y-27696635D01*
X63592632Y-27745329D01*
X63702865Y-27749660D01*
X63801687Y-27753543D01*
X63801691Y-27753543D01*
X63813098Y-27753991D01*
X63956662Y-27733175D01*
X64020149Y-27723970D01*
X64020150Y-27723970D01*
X64031452Y-27722331D01*
X64042260Y-27718662D01*
X64042265Y-27718661D01*
X64224147Y-27656920D01*
X64240379Y-27651410D01*
X64432884Y-27543602D01*
X64602518Y-27402518D01*
X64677333Y-27312563D01*
X64736299Y-27241665D01*
X64736300Y-27241664D01*
X64743602Y-27232884D01*
X64851410Y-27040379D01*
X64871043Y-26982543D01*
X64918661Y-26842265D01*
X64918662Y-26842260D01*
X64922331Y-26831452D01*
X64953991Y-26613098D01*
X64955643Y-26550000D01*
X64935454Y-26330289D01*
X64875565Y-26117936D01*
X64777980Y-25920053D01*
X64762467Y-25899278D01*
X64676063Y-25783570D01*
X64645967Y-25743267D01*
X64483949Y-25593499D01*
X64444766Y-25568776D01*
X64307007Y-25481857D01*
X64307006Y-25481857D01*
X64297350Y-25475764D01*
X64286750Y-25471535D01*
X64286746Y-25471533D01*
X64103025Y-25398236D01*
X64103020Y-25398234D01*
X64092421Y-25394006D01*
X64039624Y-25383504D01*
X63887216Y-25353188D01*
X63887214Y-25353188D01*
X63876024Y-25350962D01*
X63756275Y-25349394D01*
X63666812Y-25348223D01*
X63666809Y-25348223D01*
X63655406Y-25348074D01*
X63561747Y-25364167D01*
X63449210Y-25383504D01*
X63449206Y-25383505D01*
X63437957Y-25385438D01*
X63358603Y-25414713D01*
X63241666Y-25457853D01*
X63241664Y-25457854D01*
X63230957Y-25461804D01*
X63041341Y-25574614D01*
X63032756Y-25582143D01*
X62912382Y-25687708D01*
X62828243Y-25736286D01*
X62748205Y-25749500D01*
X57659702Y-25749500D01*
X57657094Y-25749486D01*
X57568593Y-25748559D01*
X57554989Y-25751500D01*
X57554982Y-25751501D01*
X57532788Y-25756300D01*
X57507921Y-25760372D01*
X57471528Y-25764454D01*
X57447338Y-25772878D01*
X57418084Y-25781100D01*
X57393058Y-25786511D01*
X57359848Y-25801997D01*
X57336528Y-25811466D01*
X57301927Y-25823515D01*
X57280212Y-25837084D01*
X57253507Y-25851583D01*
X57242915Y-25856522D01*
X57242909Y-25856525D01*
X57230292Y-25862409D01*
X57219291Y-25870942D01*
X57219290Y-25870943D01*
X57201349Y-25884860D01*
X57180689Y-25899273D01*
X57149625Y-25918684D01*
X57139745Y-25928496D01*
X57139744Y-25928496D01*
X57120806Y-25947302D01*
X57120594Y-25947501D01*
X57119823Y-25948099D01*
X57094148Y-25973774D01*
X57093532Y-25974387D01*
X57022193Y-26045230D01*
X57021463Y-26046380D01*
X57020773Y-26047149D01*
X55830826Y-27237096D01*
X55828972Y-27238930D01*
X55765732Y-27300859D01*
X55758191Y-27312561D01*
X55758189Y-27312563D01*
X55745890Y-27331648D01*
X55731188Y-27352108D01*
X55708336Y-27380734D01*
X55702280Y-27393262D01*
X55702276Y-27393268D01*
X55697194Y-27403782D01*
X55682318Y-27430292D01*
X55668446Y-27451817D01*
X55663684Y-27464899D01*
X55663683Y-27464902D01*
X55655915Y-27486243D01*
X55646114Y-27509444D01*
X55636233Y-27529885D01*
X55636232Y-27529889D01*
X55630173Y-27542422D01*
X55624412Y-27567375D01*
X55615779Y-27596517D01*
X55607022Y-27620578D01*
X55605278Y-27634385D01*
X55602431Y-27656920D01*
X55598012Y-27681726D01*
X55589773Y-27717413D01*
X55588107Y-27717028D01*
X55563440Y-27793641D01*
X55500540Y-27867686D01*
X55430473Y-27903623D01*
X55431420Y-27906149D01*
X55297176Y-27956474D01*
X55182454Y-28042454D01*
X55096474Y-28157176D01*
X55090247Y-28173787D01*
X55052264Y-28275109D01*
X55046149Y-28291420D01*
X55039500Y-28352623D01*
X55039501Y-30147376D01*
X55046149Y-30208580D01*
X55096474Y-30342824D01*
X55182454Y-30457546D01*
X55293528Y-30540792D01*
X55293534Y-30540797D01*
X55297176Y-30543526D01*
X55297028Y-30543723D01*
X55360666Y-30597030D01*
X55405600Y-30683169D01*
X55414150Y-30779947D01*
X55385014Y-30872631D01*
X55358116Y-30911988D01*
X55351505Y-30918599D01*
X55215965Y-31112171D01*
X55211369Y-31122027D01*
X55175471Y-31199011D01*
X55116097Y-31326337D01*
X55054937Y-31554592D01*
X55034341Y-31790000D01*
X55054937Y-32025408D01*
X55116097Y-32253663D01*
X55215965Y-32467829D01*
X55351505Y-32661401D01*
X55518599Y-32828495D01*
X55527501Y-32834728D01*
X55527503Y-32834730D01*
X55557923Y-32856030D01*
X55625108Y-32926211D01*
X55660321Y-33016760D01*
X55658202Y-33113892D01*
X55619074Y-33202819D01*
X55557926Y-33263968D01*
X55518599Y-33291505D01*
X55351505Y-33458599D01*
X55215965Y-33652171D01*
X55116097Y-33866337D01*
X55054937Y-34094592D01*
X55034341Y-34330000D01*
X55054937Y-34565408D01*
X55116097Y-34793663D01*
X55215965Y-35007829D01*
X55351505Y-35201401D01*
X55518599Y-35368495D01*
X55527501Y-35374728D01*
X55527503Y-35374730D01*
X55557923Y-35396030D01*
X55625108Y-35466211D01*
X55660321Y-35556760D01*
X55658202Y-35653892D01*
X55619074Y-35742819D01*
X55557926Y-35803968D01*
X55518599Y-35831505D01*
X55351505Y-35998599D01*
X55215965Y-36192171D01*
X55211369Y-36202027D01*
X55128842Y-36379006D01*
X55116097Y-36406337D01*
X55054937Y-36634592D01*
X55053989Y-36645425D01*
X55053989Y-36645426D01*
X55049539Y-36696286D01*
X55034341Y-36870000D01*
X55054937Y-37105408D01*
X55116097Y-37333663D01*
X55215965Y-37547829D01*
X55351505Y-37741401D01*
X55518599Y-37908495D01*
X55527501Y-37914728D01*
X55527503Y-37914730D01*
X55557923Y-37936030D01*
X55625108Y-38006211D01*
X55660321Y-38096760D01*
X55658202Y-38193892D01*
X55619074Y-38282819D01*
X55557926Y-38343968D01*
X55518599Y-38371505D01*
X55351505Y-38538599D01*
X55215965Y-38732171D01*
X55211369Y-38742027D01*
X55138489Y-38898318D01*
X55116097Y-38946337D01*
X55054937Y-39174592D01*
X55034341Y-39410000D01*
X55054937Y-39645408D01*
X55116097Y-39873663D01*
X55215965Y-40087829D01*
X55351505Y-40281401D01*
X55518599Y-40448495D01*
X55527501Y-40454728D01*
X55527503Y-40454730D01*
X55557923Y-40476030D01*
X55625108Y-40546211D01*
X55660321Y-40636760D01*
X55658202Y-40733892D01*
X55619074Y-40822819D01*
X55557926Y-40883968D01*
X55518599Y-40911505D01*
X55351505Y-41078599D01*
X55215965Y-41272171D01*
X55211369Y-41282027D01*
X55166896Y-41377400D01*
X55116097Y-41486337D01*
X55054937Y-41714592D01*
X55034341Y-41950000D01*
X55054937Y-42185408D01*
X55116097Y-42413663D01*
X55215965Y-42627829D01*
X55351505Y-42821401D01*
X55518599Y-42988495D01*
X55527501Y-42994728D01*
X55527503Y-42994730D01*
X55557923Y-43016030D01*
X55625108Y-43086211D01*
X55660321Y-43176760D01*
X55658202Y-43273892D01*
X55619074Y-43362819D01*
X55557926Y-43423968D01*
X55518599Y-43451505D01*
X55351505Y-43618599D01*
X55215965Y-43812171D01*
X55116097Y-44026337D01*
X55054937Y-44254592D01*
X55034341Y-44490000D01*
X55054937Y-44725408D01*
X55116097Y-44953663D01*
X55120691Y-44963516D01*
X55120693Y-44963520D01*
X55150377Y-45027176D01*
X55215965Y-45167829D01*
X55351505Y-45361401D01*
X55518599Y-45528495D01*
X55527501Y-45534728D01*
X55527503Y-45534730D01*
X55557923Y-45556030D01*
X55625108Y-45626211D01*
X55660321Y-45716760D01*
X55658202Y-45813892D01*
X55619074Y-45902819D01*
X55557926Y-45963968D01*
X55518599Y-45991505D01*
X55351505Y-46158599D01*
X55215965Y-46352171D01*
X55116097Y-46566337D01*
X55054937Y-46794592D01*
X55034341Y-47030000D01*
X55054937Y-47265408D01*
X55116097Y-47493663D01*
X55120691Y-47503516D01*
X55120693Y-47503520D01*
X55143845Y-47553169D01*
X55215965Y-47707829D01*
X55222202Y-47716737D01*
X55222203Y-47716738D01*
X55249882Y-47756268D01*
X55351505Y-47901401D01*
X55518599Y-48068495D01*
X55527501Y-48074728D01*
X55527503Y-48074730D01*
X55557923Y-48096030D01*
X55625108Y-48166211D01*
X55660321Y-48256760D01*
X55658202Y-48353892D01*
X55619074Y-48442819D01*
X55557926Y-48503968D01*
X55518599Y-48531505D01*
X55351505Y-48698599D01*
X55215965Y-48892171D01*
X55116097Y-49106337D01*
X55054937Y-49334592D01*
X55034341Y-49570000D01*
X55054937Y-49805408D01*
X55116097Y-50033663D01*
X55120691Y-50043516D01*
X55120693Y-50043520D01*
X55175711Y-50161505D01*
X55215965Y-50247829D01*
X55351505Y-50441401D01*
X55518599Y-50608495D01*
X55527501Y-50614728D01*
X55527503Y-50614730D01*
X55557923Y-50636030D01*
X55625108Y-50706211D01*
X55660321Y-50796760D01*
X55658202Y-50893892D01*
X55619074Y-50982819D01*
X55557926Y-51043968D01*
X55518599Y-51071505D01*
X55351505Y-51238599D01*
X55215965Y-51432171D01*
X55116097Y-51646337D01*
X55054937Y-51874592D01*
X55034341Y-52110000D01*
X41199896Y-52110000D01*
X41238495Y-52071401D01*
X41374035Y-51877829D01*
X41473903Y-51663663D01*
X41535063Y-51435408D01*
X41555659Y-51200000D01*
X41535063Y-50964592D01*
X41473903Y-50736337D01*
X41417197Y-50614730D01*
X41378631Y-50532027D01*
X41374035Y-50522171D01*
X41238495Y-50328599D01*
X41071401Y-50161505D01*
X41062497Y-50155270D01*
X41032075Y-50133968D01*
X40964892Y-50063786D01*
X40929680Y-49973237D01*
X40931800Y-49876105D01*
X40970929Y-49787178D01*
X41032075Y-49726032D01*
X41062497Y-49704730D01*
X41062499Y-49704728D01*
X41071401Y-49698495D01*
X41236466Y-49533430D01*
X41317248Y-49479454D01*
X41412536Y-49460500D01*
X46860611Y-49460500D01*
X46955899Y-49479454D01*
X47034361Y-49531141D01*
X47076264Y-49571961D01*
X47259717Y-49694540D01*
X47270207Y-49699047D01*
X47270209Y-49699048D01*
X47344182Y-49730829D01*
X47462436Y-49781635D01*
X47677632Y-49830329D01*
X47787865Y-49834660D01*
X47886687Y-49838543D01*
X47886691Y-49838543D01*
X47898098Y-49838991D01*
X48057291Y-49815909D01*
X48105149Y-49808970D01*
X48105150Y-49808970D01*
X48116452Y-49807331D01*
X48127260Y-49803662D01*
X48127265Y-49803661D01*
X48267543Y-49756043D01*
X48325379Y-49736410D01*
X48517884Y-49628602D01*
X48687518Y-49487518D01*
X48804604Y-49346738D01*
X48821299Y-49326665D01*
X48821300Y-49326664D01*
X48828602Y-49317884D01*
X48936410Y-49125379D01*
X48956043Y-49067543D01*
X49003661Y-48927265D01*
X49003662Y-48927260D01*
X49007331Y-48916452D01*
X49038991Y-48698098D01*
X49040643Y-48635000D01*
X49020454Y-48415289D01*
X48960565Y-48202936D01*
X48862980Y-48005053D01*
X48839241Y-47973262D01*
X48737795Y-47837411D01*
X48730967Y-47828267D01*
X48568949Y-47678499D01*
X48529766Y-47653776D01*
X48392007Y-47566857D01*
X48392006Y-47566857D01*
X48382350Y-47560764D01*
X48371750Y-47556535D01*
X48371746Y-47556533D01*
X48188025Y-47483236D01*
X48188020Y-47483234D01*
X48177421Y-47479006D01*
X48149806Y-47473513D01*
X47972216Y-47438188D01*
X47972214Y-47438188D01*
X47961024Y-47435962D01*
X47841275Y-47434394D01*
X47751812Y-47433223D01*
X47751809Y-47433223D01*
X47740406Y-47433074D01*
X47646747Y-47449167D01*
X47534210Y-47468504D01*
X47534206Y-47468505D01*
X47522957Y-47470438D01*
X47480869Y-47485965D01*
X47326666Y-47542853D01*
X47326664Y-47542854D01*
X47315957Y-47546804D01*
X47126341Y-47659614D01*
X46979262Y-47788599D01*
X46968875Y-47797708D01*
X46884736Y-47846286D01*
X46804698Y-47859500D01*
X41445194Y-47859500D01*
X41349906Y-47840546D01*
X41269124Y-47786570D01*
X41215148Y-47705788D01*
X41196194Y-47610500D01*
X41215148Y-47515212D01*
X41269124Y-47434430D01*
X41295863Y-47411249D01*
X41393346Y-47338189D01*
X41393348Y-47338187D01*
X41407546Y-47327546D01*
X41493526Y-47212824D01*
X41543851Y-47078580D01*
X41550500Y-47017377D01*
X41550499Y-45222624D01*
X41543851Y-45161420D01*
X41493526Y-45027176D01*
X41407546Y-44912454D01*
X41292824Y-44826474D01*
X41246288Y-44809029D01*
X41173196Y-44781628D01*
X41173195Y-44781628D01*
X41158580Y-44776149D01*
X41097377Y-44769500D01*
X40200600Y-44769500D01*
X39302624Y-44769501D01*
X39241420Y-44776149D01*
X39107176Y-44826474D01*
X38992454Y-44912454D01*
X38906474Y-45027176D01*
X38856149Y-45161420D01*
X38849500Y-45222623D01*
X38849501Y-47017376D01*
X38856149Y-47078580D01*
X38906474Y-47212824D01*
X38992454Y-47327546D01*
X39103528Y-47410792D01*
X39103534Y-47410797D01*
X39107176Y-47413526D01*
X39107028Y-47413723D01*
X39170666Y-47467030D01*
X39215600Y-47553169D01*
X39224150Y-47649947D01*
X39195014Y-47742631D01*
X39168116Y-47781988D01*
X39161505Y-47788599D01*
X39025965Y-47982171D01*
X39021369Y-47992027D01*
X38982804Y-48074730D01*
X38926097Y-48196337D01*
X38864937Y-48424592D01*
X38844341Y-48660000D01*
X38864937Y-48895408D01*
X38926097Y-49123663D01*
X39025965Y-49337829D01*
X39161505Y-49531401D01*
X39328599Y-49698495D01*
X39337501Y-49704728D01*
X39337503Y-49704730D01*
X39367923Y-49726030D01*
X39435108Y-49796211D01*
X39470321Y-49886760D01*
X39468202Y-49983892D01*
X39429074Y-50072819D01*
X39367926Y-50133968D01*
X39328599Y-50161505D01*
X39161505Y-50328599D01*
X39025965Y-50522171D01*
X39021369Y-50532027D01*
X38982804Y-50614730D01*
X38926097Y-50736337D01*
X38864937Y-50964592D01*
X38844341Y-51200000D01*
X37750500Y-51200000D01*
X37750500Y-40308257D01*
X38872600Y-40308257D01*
X38873590Y-40315771D01*
X38923754Y-40502985D01*
X38931166Y-40523348D01*
X39021805Y-40717725D01*
X39032635Y-40736482D01*
X39155653Y-40912170D01*
X39169576Y-40928764D01*
X39321239Y-41080427D01*
X39337823Y-41094343D01*
X39513522Y-41217369D01*
X39532268Y-41228192D01*
X39726657Y-41318837D01*
X39747014Y-41326246D01*
X39926309Y-41374288D01*
X39947123Y-41375652D01*
X39949011Y-41371825D01*
X39950000Y-41364311D01*
X39950000Y-41356109D01*
X40450000Y-41356109D01*
X40454069Y-41376567D01*
X40458257Y-41377400D01*
X40465771Y-41376410D01*
X40652986Y-41326246D01*
X40673343Y-41318837D01*
X40867732Y-41228192D01*
X40886478Y-41217369D01*
X41062177Y-41094343D01*
X41078761Y-41080427D01*
X41230424Y-40928764D01*
X41244347Y-40912170D01*
X41367365Y-40736482D01*
X41378195Y-40717725D01*
X41468834Y-40523348D01*
X41476246Y-40502985D01*
X41524288Y-40323691D01*
X41525652Y-40302877D01*
X41521825Y-40300989D01*
X41514311Y-40300000D01*
X40474527Y-40300000D01*
X40454069Y-40304069D01*
X40450000Y-40324527D01*
X40450000Y-41356109D01*
X39950000Y-41356109D01*
X39950000Y-40324527D01*
X39945931Y-40304069D01*
X39925473Y-40300000D01*
X38893891Y-40300000D01*
X38873433Y-40304069D01*
X38872600Y-40308257D01*
X37750500Y-40308257D01*
X37750500Y-36612623D01*
X38849500Y-36612623D01*
X38849501Y-38407376D01*
X38856149Y-38468580D01*
X38906474Y-38602824D01*
X38992454Y-38717546D01*
X39006652Y-38728187D01*
X39092984Y-38792890D01*
X39092986Y-38792891D01*
X39104996Y-38801892D01*
X39107176Y-38803526D01*
X39107088Y-38803644D01*
X39171113Y-38857273D01*
X39216049Y-38943412D01*
X39224600Y-39040190D01*
X39195465Y-39132873D01*
X39167804Y-39173348D01*
X39155653Y-39187829D01*
X39032635Y-39363518D01*
X39021805Y-39382275D01*
X38931166Y-39576652D01*
X38923754Y-39597015D01*
X38875712Y-39776309D01*
X38874348Y-39797123D01*
X38878175Y-39799011D01*
X38885689Y-39800000D01*
X41506109Y-39800000D01*
X41526567Y-39795931D01*
X41527400Y-39791743D01*
X41526410Y-39784229D01*
X41476246Y-39597015D01*
X41468834Y-39576652D01*
X41378195Y-39382275D01*
X41367365Y-39363518D01*
X41244347Y-39187829D01*
X41232196Y-39173348D01*
X41185467Y-39088169D01*
X41174891Y-38991591D01*
X41202079Y-38898318D01*
X41262891Y-38822549D01*
X41288178Y-38805268D01*
X41292824Y-38803526D01*
X41307014Y-38792891D01*
X41307016Y-38792890D01*
X41393348Y-38728187D01*
X41407546Y-38717546D01*
X41493526Y-38602824D01*
X41542534Y-38472092D01*
X41593728Y-38389524D01*
X41672626Y-38332830D01*
X41775688Y-38310500D01*
X46809285Y-38310500D01*
X46904573Y-38329454D01*
X46983035Y-38381141D01*
X47068082Y-38463991D01*
X47068086Y-38463994D01*
X47076264Y-38471961D01*
X47259717Y-38594540D01*
X47270207Y-38599047D01*
X47270209Y-38599048D01*
X47312038Y-38617019D01*
X47462436Y-38681635D01*
X47677632Y-38730329D01*
X47787865Y-38734660D01*
X47886687Y-38738543D01*
X47886691Y-38738543D01*
X47898098Y-38738991D01*
X48046001Y-38717546D01*
X48105149Y-38708970D01*
X48105150Y-38708970D01*
X48116452Y-38707331D01*
X48127260Y-38703662D01*
X48127265Y-38703661D01*
X48267543Y-38656043D01*
X48325379Y-38636410D01*
X48517884Y-38528602D01*
X48687518Y-38387518D01*
X48828602Y-38217884D01*
X48936410Y-38025379D01*
X48978695Y-37900812D01*
X49003661Y-37827265D01*
X49003662Y-37827260D01*
X49007331Y-37816452D01*
X49038991Y-37598098D01*
X49040643Y-37535000D01*
X49020454Y-37315289D01*
X48960565Y-37102936D01*
X48862980Y-36905053D01*
X48844896Y-36880835D01*
X48737795Y-36737411D01*
X48730967Y-36728267D01*
X48568949Y-36578499D01*
X48550628Y-36566939D01*
X48392007Y-36466857D01*
X48392006Y-36466857D01*
X48382350Y-36460764D01*
X48371750Y-36456535D01*
X48371746Y-36456533D01*
X48188025Y-36383236D01*
X48188020Y-36383234D01*
X48177421Y-36379006D01*
X48124624Y-36368504D01*
X47972216Y-36338188D01*
X47972214Y-36338188D01*
X47961024Y-36335962D01*
X47841275Y-36334394D01*
X47751812Y-36333223D01*
X47751809Y-36333223D01*
X47740406Y-36333074D01*
X47646747Y-36349167D01*
X47534210Y-36368504D01*
X47534206Y-36368505D01*
X47522957Y-36370438D01*
X47452367Y-36396480D01*
X47326666Y-36442853D01*
X47326664Y-36442854D01*
X47315957Y-36446804D01*
X47126341Y-36559614D01*
X47117756Y-36567143D01*
X47025889Y-36647708D01*
X46941750Y-36696286D01*
X46861712Y-36709500D01*
X41775688Y-36709500D01*
X41680400Y-36690546D01*
X41599618Y-36636570D01*
X41542534Y-36547907D01*
X41493526Y-36417176D01*
X41407546Y-36302454D01*
X41292824Y-36216474D01*
X41204230Y-36183262D01*
X41173196Y-36171628D01*
X41173195Y-36171628D01*
X41158580Y-36166149D01*
X41097377Y-36159500D01*
X40200600Y-36159500D01*
X39302624Y-36159501D01*
X39241420Y-36166149D01*
X39107176Y-36216474D01*
X38992454Y-36302454D01*
X38906474Y-36417176D01*
X38856149Y-36551420D01*
X38849500Y-36612623D01*
X37750500Y-36612623D01*
X37750500Y-31708257D01*
X38872600Y-31708257D01*
X38873590Y-31715771D01*
X38923754Y-31902985D01*
X38931166Y-31923348D01*
X39021805Y-32117725D01*
X39032635Y-32136482D01*
X39155653Y-32312170D01*
X39169576Y-32328764D01*
X39321239Y-32480427D01*
X39337823Y-32494343D01*
X39513522Y-32617369D01*
X39532268Y-32628192D01*
X39726657Y-32718837D01*
X39747014Y-32726246D01*
X39926309Y-32774288D01*
X39947123Y-32775652D01*
X39949011Y-32771825D01*
X39950000Y-32764311D01*
X39950000Y-32756109D01*
X40450000Y-32756109D01*
X40454069Y-32776567D01*
X40458257Y-32777400D01*
X40465771Y-32776410D01*
X40652986Y-32726246D01*
X40673343Y-32718837D01*
X40867732Y-32628192D01*
X40886478Y-32617369D01*
X41062177Y-32494343D01*
X41078761Y-32480427D01*
X41230424Y-32328764D01*
X41244347Y-32312170D01*
X41367365Y-32136482D01*
X41378195Y-32117725D01*
X41468834Y-31923348D01*
X41476246Y-31902985D01*
X41524288Y-31723691D01*
X41525652Y-31702877D01*
X41521825Y-31700989D01*
X41514311Y-31700000D01*
X40474527Y-31700000D01*
X40454069Y-31704069D01*
X40450000Y-31724527D01*
X40450000Y-32756109D01*
X39950000Y-32756109D01*
X39950000Y-31724527D01*
X39945931Y-31704069D01*
X39925473Y-31700000D01*
X38893891Y-31700000D01*
X38873433Y-31704069D01*
X38872600Y-31708257D01*
X37750500Y-31708257D01*
X37750500Y-28012623D01*
X38849500Y-28012623D01*
X38849501Y-29807376D01*
X38856149Y-29868580D01*
X38906474Y-30002824D01*
X38992454Y-30117546D01*
X39006652Y-30128187D01*
X39092984Y-30192890D01*
X39092986Y-30192891D01*
X39104996Y-30201892D01*
X39107176Y-30203526D01*
X39107088Y-30203644D01*
X39171113Y-30257273D01*
X39216049Y-30343412D01*
X39224600Y-30440190D01*
X39195465Y-30532873D01*
X39167804Y-30573348D01*
X39155653Y-30587829D01*
X39032635Y-30763518D01*
X39021805Y-30782275D01*
X38931166Y-30976652D01*
X38923754Y-30997015D01*
X38875712Y-31176309D01*
X38874348Y-31197123D01*
X38878175Y-31199011D01*
X38885689Y-31200000D01*
X41506109Y-31200000D01*
X41526567Y-31195931D01*
X41527400Y-31191743D01*
X41526410Y-31184229D01*
X41476246Y-30997015D01*
X41468834Y-30976652D01*
X41378195Y-30782275D01*
X41367365Y-30763518D01*
X41244347Y-30587829D01*
X41232196Y-30573348D01*
X41185467Y-30488169D01*
X41174891Y-30391591D01*
X41202079Y-30298318D01*
X41262891Y-30222549D01*
X41288178Y-30205268D01*
X41292824Y-30203526D01*
X41307014Y-30192891D01*
X41307016Y-30192890D01*
X41393348Y-30128187D01*
X41407546Y-30117546D01*
X41493526Y-30002824D01*
X41543851Y-29868580D01*
X41550500Y-29807377D01*
X41550499Y-28012624D01*
X41543851Y-27951420D01*
X41493526Y-27817176D01*
X41433472Y-27737047D01*
X41418187Y-27716652D01*
X41407546Y-27702454D01*
X41292824Y-27616474D01*
X41201413Y-27582206D01*
X41173196Y-27571628D01*
X41173195Y-27571628D01*
X41158580Y-27566149D01*
X41097377Y-27559500D01*
X40200600Y-27559500D01*
X39302624Y-27559501D01*
X39241420Y-27566149D01*
X39107176Y-27616474D01*
X38992454Y-27702454D01*
X38981813Y-27716652D01*
X38966528Y-27737047D01*
X38906474Y-27817176D01*
X38900247Y-27833787D01*
X38869826Y-27914937D01*
X38856149Y-27951420D01*
X38849500Y-28012623D01*
X37750500Y-28012623D01*
X37750500Y-24649500D01*
X37769454Y-24554212D01*
X37823430Y-24473430D01*
X37904212Y-24419454D01*
X37999500Y-24400500D01*
X118300500Y-24400500D01*
X118395788Y-24419454D01*
G37*
G04 #@! TD.AperFunction*
M02*
