%FSLAX45Y45*%
G04 Gerber Fmt 4.5, Leading zero omitted, Abs format (unit mm)*
G04 Created by KiCad (PCBNEW (6.0.6)) date 2024-05-12 15:37:09*
%MOMM*%
%LPD*%
G01*
G04 APERTURE LIST*
%TA.AperFunction,Profile*%
%ADD10C,0.100000*%
%TD*%
%ADD11C,0.200000*%
%ADD12C,0.080000*%
%ADD13C,0.100000*%
G04 APERTURE END LIST*
D10*
X3715000Y-2380000D02*
X11915000Y-2380000D01*
X11915000Y-2380000D02*
X11915000Y-7380000D01*
X11915000Y-7380000D02*
X3715000Y-7380000D01*
X3715000Y-7380000D02*
X3715000Y-2380000D01*
D11*
D12*
X4315000Y-4415000D02*
X4395000Y-4495000D01*
X4395000Y-4415000D02*
X4315000Y-4495000D01*
X4743500Y-3713500D02*
X4823500Y-3793500D01*
X4823500Y-3713500D02*
X4743500Y-3793500D01*
X4743500Y-4823500D02*
X4823500Y-4903500D01*
X4823500Y-4823500D02*
X4743500Y-4903500D01*
X4910000Y-2920000D02*
X4990000Y-3000000D01*
X4990000Y-2920000D02*
X4910000Y-3000000D01*
X5105000Y-4200000D02*
X5185000Y-4280000D01*
X5185000Y-4200000D02*
X5105000Y-4280000D01*
X6335000Y-2615000D02*
X6415000Y-2695000D01*
X6415000Y-2615000D02*
X6335000Y-2695000D01*
X6385000Y-6345000D02*
X6465000Y-6425000D01*
X6465000Y-6345000D02*
X6385000Y-6425000D01*
X7955000Y-3415000D02*
X8035000Y-3495000D01*
X8035000Y-3415000D02*
X7955000Y-3495000D01*
X8010000Y-5945000D02*
X8090000Y-6025000D01*
X8090000Y-5945000D02*
X8010000Y-6025000D01*
X8780000Y-3025000D02*
X8860000Y-3105000D01*
X8860000Y-3025000D02*
X8780000Y-3105000D01*
X9190000Y-6270000D02*
X9270000Y-6350000D01*
X9270000Y-6270000D02*
X9190000Y-6350000D01*
X10085000Y-5780000D02*
X10165000Y-5860000D01*
X10165000Y-5780000D02*
X10085000Y-5860000D01*
X10480000Y-3050000D02*
X10560000Y-3130000D01*
X10560000Y-3050000D02*
X10480000Y-3130000D01*
X10505000Y-3530000D02*
X10585000Y-3610000D01*
X10585000Y-3530000D02*
X10505000Y-3610000D01*
X11460000Y-4350000D02*
X11540000Y-4430000D01*
X11540000Y-4350000D02*
X11460000Y-4430000D01*
D13*
X4070000Y-2891000D02*
G75*
G03*
X4070000Y-2891000I-50000J0D01*
G01*
X4070000Y-3145000D02*
G75*
G03*
X4070000Y-3145000I-50000J0D01*
G01*
X4070000Y-3751000D02*
G75*
G03*
X4070000Y-3751000I-50000J0D01*
G01*
X4070000Y-4005000D02*
G75*
G03*
X4070000Y-4005000I-50000J0D01*
G01*
X4070000Y-4612000D02*
G75*
G03*
X4070000Y-4612000I-50000J0D01*
G01*
X4070000Y-4866000D02*
G75*
G03*
X4070000Y-4866000I-50000J0D01*
G01*
X4070000Y-5120000D02*
G75*
G03*
X4070000Y-5120000I-50000J0D01*
G01*
X4070000Y-5374000D02*
G75*
G03*
X4070000Y-5374000I-50000J0D01*
G01*
X4070000Y-5628000D02*
G75*
G03*
X4070000Y-5628000I-50000J0D01*
G01*
X4070000Y-6137500D02*
G75*
G03*
X4070000Y-6137500I-50000J0D01*
G01*
X4070000Y-6391500D02*
G75*
G03*
X4070000Y-6391500I-50000J0D01*
G01*
X4579500Y-6715000D02*
G75*
G03*
X4579500Y-6715000I-50000J0D01*
G01*
X4579500Y-6969000D02*
G75*
G03*
X4579500Y-6969000I-50000J0D01*
G01*
X4833500Y-6715000D02*
G75*
G03*
X4833500Y-6715000I-50000J0D01*
G01*
X4833500Y-6969000D02*
G75*
G03*
X4833500Y-6969000I-50000J0D01*
G01*
X5087500Y-6715000D02*
G75*
G03*
X5087500Y-6715000I-50000J0D01*
G01*
X5087500Y-6969000D02*
G75*
G03*
X5087500Y-6969000I-50000J0D01*
G01*
X5341500Y-6715000D02*
G75*
G03*
X5341500Y-6715000I-50000J0D01*
G01*
X5341500Y-6969000D02*
G75*
G03*
X5341500Y-6969000I-50000J0D01*
G01*
X5595500Y-6715000D02*
G75*
G03*
X5595500Y-6715000I-50000J0D01*
G01*
X5595500Y-6969000D02*
G75*
G03*
X5595500Y-6969000I-50000J0D01*
G01*
X5689000Y-2925000D02*
G75*
G03*
X5689000Y-2925000I-50000J0D01*
G01*
X5689000Y-3179000D02*
G75*
G03*
X5689000Y-3179000I-50000J0D01*
G01*
X5689000Y-3433000D02*
G75*
G03*
X5689000Y-3433000I-50000J0D01*
G01*
X5689000Y-3687000D02*
G75*
G03*
X5689000Y-3687000I-50000J0D01*
G01*
X5689000Y-3941000D02*
G75*
G03*
X5689000Y-3941000I-50000J0D01*
G01*
X5689000Y-4195000D02*
G75*
G03*
X5689000Y-4195000I-50000J0D01*
G01*
X5689000Y-4449000D02*
G75*
G03*
X5689000Y-4449000I-50000J0D01*
G01*
X5689000Y-4703000D02*
G75*
G03*
X5689000Y-4703000I-50000J0D01*
G01*
X5689000Y-4957000D02*
G75*
G03*
X5689000Y-4957000I-50000J0D01*
G01*
X5689000Y-5211000D02*
G75*
G03*
X5689000Y-5211000I-50000J0D01*
G01*
X5849500Y-6715000D02*
G75*
G03*
X5849500Y-6715000I-50000J0D01*
G01*
X5849500Y-6969000D02*
G75*
G03*
X5849500Y-6969000I-50000J0D01*
G01*
X5943000Y-2925000D02*
G75*
G03*
X5943000Y-2925000I-50000J0D01*
G01*
X5943000Y-3179000D02*
G75*
G03*
X5943000Y-3179000I-50000J0D01*
G01*
X5943000Y-3433000D02*
G75*
G03*
X5943000Y-3433000I-50000J0D01*
G01*
X5943000Y-3687000D02*
G75*
G03*
X5943000Y-3687000I-50000J0D01*
G01*
X5943000Y-3941000D02*
G75*
G03*
X5943000Y-3941000I-50000J0D01*
G01*
X5943000Y-4195000D02*
G75*
G03*
X5943000Y-4195000I-50000J0D01*
G01*
X5943000Y-4449000D02*
G75*
G03*
X5943000Y-4449000I-50000J0D01*
G01*
X5943000Y-4703000D02*
G75*
G03*
X5943000Y-4703000I-50000J0D01*
G01*
X5943000Y-4957000D02*
G75*
G03*
X5943000Y-4957000I-50000J0D01*
G01*
X5943000Y-5211000D02*
G75*
G03*
X5943000Y-5211000I-50000J0D01*
G01*
X6103500Y-6715000D02*
G75*
G03*
X6103500Y-6715000I-50000J0D01*
G01*
X6103500Y-6969000D02*
G75*
G03*
X6103500Y-6969000I-50000J0D01*
G01*
X6357500Y-6715000D02*
G75*
G03*
X6357500Y-6715000I-50000J0D01*
G01*
X6357500Y-6969000D02*
G75*
G03*
X6357500Y-6969000I-50000J0D01*
G01*
X9619500Y-6715000D02*
G75*
G03*
X9619500Y-6715000I-50000J0D01*
G01*
X9619500Y-6969000D02*
G75*
G03*
X9619500Y-6969000I-50000J0D01*
G01*
X9873500Y-6715000D02*
G75*
G03*
X9873500Y-6715000I-50000J0D01*
G01*
X9873500Y-6969000D02*
G75*
G03*
X9873500Y-6969000I-50000J0D01*
G01*
X10007000Y-2925000D02*
G75*
G03*
X10007000Y-2925000I-50000J0D01*
G01*
X10007000Y-3179000D02*
G75*
G03*
X10007000Y-3179000I-50000J0D01*
G01*
X10007000Y-3433000D02*
G75*
G03*
X10007000Y-3433000I-50000J0D01*
G01*
X10007000Y-3687000D02*
G75*
G03*
X10007000Y-3687000I-50000J0D01*
G01*
X10007000Y-3941000D02*
G75*
G03*
X10007000Y-3941000I-50000J0D01*
G01*
X10007000Y-4195000D02*
G75*
G03*
X10007000Y-4195000I-50000J0D01*
G01*
X10007000Y-4449000D02*
G75*
G03*
X10007000Y-4449000I-50000J0D01*
G01*
X10007000Y-4703000D02*
G75*
G03*
X10007000Y-4703000I-50000J0D01*
G01*
X10007000Y-4957000D02*
G75*
G03*
X10007000Y-4957000I-50000J0D01*
G01*
X10007000Y-5211000D02*
G75*
G03*
X10007000Y-5211000I-50000J0D01*
G01*
X10127500Y-6715000D02*
G75*
G03*
X10127500Y-6715000I-50000J0D01*
G01*
X10127500Y-6969000D02*
G75*
G03*
X10127500Y-6969000I-50000J0D01*
G01*
X10261000Y-2925000D02*
G75*
G03*
X10261000Y-2925000I-50000J0D01*
G01*
X10261000Y-3179000D02*
G75*
G03*
X10261000Y-3179000I-50000J0D01*
G01*
X10261000Y-3433000D02*
G75*
G03*
X10261000Y-3433000I-50000J0D01*
G01*
X10261000Y-3687000D02*
G75*
G03*
X10261000Y-3687000I-50000J0D01*
G01*
X10261000Y-3941000D02*
G75*
G03*
X10261000Y-3941000I-50000J0D01*
G01*
X10261000Y-4195000D02*
G75*
G03*
X10261000Y-4195000I-50000J0D01*
G01*
X10261000Y-4449000D02*
G75*
G03*
X10261000Y-4449000I-50000J0D01*
G01*
X10261000Y-4703000D02*
G75*
G03*
X10261000Y-4703000I-50000J0D01*
G01*
X10261000Y-4957000D02*
G75*
G03*
X10261000Y-4957000I-50000J0D01*
G01*
X10261000Y-5211000D02*
G75*
G03*
X10261000Y-5211000I-50000J0D01*
G01*
X10381500Y-6715000D02*
G75*
G03*
X10381500Y-6715000I-50000J0D01*
G01*
X10381500Y-6969000D02*
G75*
G03*
X10381500Y-6969000I-50000J0D01*
G01*
X10635500Y-6715000D02*
G75*
G03*
X10635500Y-6715000I-50000J0D01*
G01*
X10635500Y-6969000D02*
G75*
G03*
X10635500Y-6969000I-50000J0D01*
G01*
X10889500Y-6715000D02*
G75*
G03*
X10889500Y-6715000I-50000J0D01*
G01*
X10889500Y-6969000D02*
G75*
G03*
X10889500Y-6969000I-50000J0D01*
G01*
X11143500Y-6715000D02*
G75*
G03*
X11143500Y-6715000I-50000J0D01*
G01*
X11143500Y-6969000D02*
G75*
G03*
X11143500Y-6969000I-50000J0D01*
G01*
X11397500Y-6715000D02*
G75*
G03*
X11397500Y-6715000I-50000J0D01*
G01*
X11397500Y-6969000D02*
G75*
G03*
X11397500Y-6969000I-50000J0D01*
G01*
D11*
X3967619Y-7695476D02*
X3967619Y-7495476D01*
X4015238Y-7495476D01*
X4043809Y-7505000D01*
X4062857Y-7524048D01*
X4072381Y-7543095D01*
X4081905Y-7581190D01*
X4081905Y-7609762D01*
X4072381Y-7647857D01*
X4062857Y-7666905D01*
X4043809Y-7685952D01*
X4015238Y-7695476D01*
X3967619Y-7695476D01*
X4167619Y-7695476D02*
X4167619Y-7562143D01*
X4167619Y-7600238D02*
X4177143Y-7581190D01*
X4186667Y-7571667D01*
X4205714Y-7562143D01*
X4224762Y-7562143D01*
X4291429Y-7695476D02*
X4291429Y-7562143D01*
X4291429Y-7495476D02*
X4281905Y-7505000D01*
X4291429Y-7514524D01*
X4300952Y-7505000D01*
X4291429Y-7495476D01*
X4291429Y-7514524D01*
X4415238Y-7695476D02*
X4396190Y-7685952D01*
X4386667Y-7666905D01*
X4386667Y-7495476D01*
X4520000Y-7695476D02*
X4500952Y-7685952D01*
X4491429Y-7666905D01*
X4491429Y-7495476D01*
X4748571Y-7695476D02*
X4748571Y-7495476D01*
X4815238Y-7638333D01*
X4881905Y-7495476D01*
X4881905Y-7695476D01*
X5062857Y-7695476D02*
X5062857Y-7590714D01*
X5053333Y-7571667D01*
X5034286Y-7562143D01*
X4996190Y-7562143D01*
X4977143Y-7571667D01*
X5062857Y-7685952D02*
X5043810Y-7695476D01*
X4996190Y-7695476D01*
X4977143Y-7685952D01*
X4967619Y-7666905D01*
X4967619Y-7647857D01*
X4977143Y-7628809D01*
X4996190Y-7619286D01*
X5043810Y-7619286D01*
X5062857Y-7609762D01*
X5158095Y-7562143D02*
X5158095Y-7762143D01*
X5158095Y-7571667D02*
X5177143Y-7562143D01*
X5215238Y-7562143D01*
X5234286Y-7571667D01*
X5243810Y-7581190D01*
X5253333Y-7600238D01*
X5253333Y-7657381D01*
X5243810Y-7676428D01*
X5234286Y-7685952D01*
X5215238Y-7695476D01*
X5177143Y-7695476D01*
X5158095Y-7685952D01*
X5339048Y-7676428D02*
X5348571Y-7685952D01*
X5339048Y-7695476D01*
X5329524Y-7685952D01*
X5339048Y-7676428D01*
X5339048Y-7695476D01*
X5339048Y-7571667D02*
X5348571Y-7581190D01*
X5339048Y-7590714D01*
X5329524Y-7581190D01*
X5339048Y-7571667D01*
X5339048Y-7590714D01*
D12*
X3630000Y-7985000D02*
X3710000Y-8065000D01*
X3710000Y-7985000D02*
X3630000Y-8065000D01*
D11*
X4005714Y-7915476D02*
X4024762Y-7915476D01*
X4043809Y-7925000D01*
X4053333Y-7934524D01*
X4062857Y-7953571D01*
X4072381Y-7991667D01*
X4072381Y-8039286D01*
X4062857Y-8077381D01*
X4053333Y-8096428D01*
X4043809Y-8105952D01*
X4024762Y-8115476D01*
X4005714Y-8115476D01*
X3986667Y-8105952D01*
X3977143Y-8096428D01*
X3967619Y-8077381D01*
X3958095Y-8039286D01*
X3958095Y-7991667D01*
X3967619Y-7953571D01*
X3977143Y-7934524D01*
X3986667Y-7925000D01*
X4005714Y-7915476D01*
X4158095Y-8096428D02*
X4167619Y-8105952D01*
X4158095Y-8115476D01*
X4148571Y-8105952D01*
X4158095Y-8096428D01*
X4158095Y-8115476D01*
X4281905Y-8001190D02*
X4262857Y-7991667D01*
X4253333Y-7982143D01*
X4243810Y-7963095D01*
X4243810Y-7953571D01*
X4253333Y-7934524D01*
X4262857Y-7925000D01*
X4281905Y-7915476D01*
X4320000Y-7915476D01*
X4339048Y-7925000D01*
X4348571Y-7934524D01*
X4358095Y-7953571D01*
X4358095Y-7963095D01*
X4348571Y-7982143D01*
X4339048Y-7991667D01*
X4320000Y-8001190D01*
X4281905Y-8001190D01*
X4262857Y-8010714D01*
X4253333Y-8020238D01*
X4243810Y-8039286D01*
X4243810Y-8077381D01*
X4253333Y-8096428D01*
X4262857Y-8105952D01*
X4281905Y-8115476D01*
X4320000Y-8115476D01*
X4339048Y-8105952D01*
X4348571Y-8096428D01*
X4358095Y-8077381D01*
X4358095Y-8039286D01*
X4348571Y-8020238D01*
X4339048Y-8010714D01*
X4320000Y-8001190D01*
X4481905Y-7915476D02*
X4500952Y-7915476D01*
X4520000Y-7925000D01*
X4529524Y-7934524D01*
X4539048Y-7953571D01*
X4548571Y-7991667D01*
X4548571Y-8039286D01*
X4539048Y-8077381D01*
X4529524Y-8096428D01*
X4520000Y-8105952D01*
X4500952Y-8115476D01*
X4481905Y-8115476D01*
X4462857Y-8105952D01*
X4453333Y-8096428D01*
X4443810Y-8077381D01*
X4434286Y-8039286D01*
X4434286Y-7991667D01*
X4443810Y-7953571D01*
X4453333Y-7934524D01*
X4462857Y-7925000D01*
X4481905Y-7915476D01*
X4672381Y-7915476D02*
X4691429Y-7915476D01*
X4710476Y-7925000D01*
X4720000Y-7934524D01*
X4729524Y-7953571D01*
X4739048Y-7991667D01*
X4739048Y-8039286D01*
X4729524Y-8077381D01*
X4720000Y-8096428D01*
X4710476Y-8105952D01*
X4691429Y-8115476D01*
X4672381Y-8115476D01*
X4653333Y-8105952D01*
X4643810Y-8096428D01*
X4634286Y-8077381D01*
X4624762Y-8039286D01*
X4624762Y-7991667D01*
X4634286Y-7953571D01*
X4643810Y-7934524D01*
X4653333Y-7925000D01*
X4672381Y-7915476D01*
X4824762Y-8115476D02*
X4824762Y-7982143D01*
X4824762Y-8001190D02*
X4834286Y-7991667D01*
X4853333Y-7982143D01*
X4881905Y-7982143D01*
X4900952Y-7991667D01*
X4910476Y-8010714D01*
X4910476Y-8115476D01*
X4910476Y-8010714D02*
X4920000Y-7991667D01*
X4939048Y-7982143D01*
X4967619Y-7982143D01*
X4986667Y-7991667D01*
X4996190Y-8010714D01*
X4996190Y-8115476D01*
X5091429Y-8115476D02*
X5091429Y-7982143D01*
X5091429Y-8001190D02*
X5100952Y-7991667D01*
X5120000Y-7982143D01*
X5148571Y-7982143D01*
X5167619Y-7991667D01*
X5177143Y-8010714D01*
X5177143Y-8115476D01*
X5177143Y-8010714D02*
X5186667Y-7991667D01*
X5205714Y-7982143D01*
X5234286Y-7982143D01*
X5253333Y-7991667D01*
X5262857Y-8010714D01*
X5262857Y-8115476D01*
X5653333Y-7905952D02*
X5481905Y-8163095D01*
X5910476Y-7915476D02*
X5929524Y-7915476D01*
X5948571Y-7925000D01*
X5958095Y-7934524D01*
X5967619Y-7953571D01*
X5977143Y-7991667D01*
X5977143Y-8039286D01*
X5967619Y-8077381D01*
X5958095Y-8096428D01*
X5948571Y-8105952D01*
X5929524Y-8115476D01*
X5910476Y-8115476D01*
X5891428Y-8105952D01*
X5881905Y-8096428D01*
X5872381Y-8077381D01*
X5862857Y-8039286D01*
X5862857Y-7991667D01*
X5872381Y-7953571D01*
X5881905Y-7934524D01*
X5891428Y-7925000D01*
X5910476Y-7915476D01*
X6062857Y-8096428D02*
X6072381Y-8105952D01*
X6062857Y-8115476D01*
X6053333Y-8105952D01*
X6062857Y-8096428D01*
X6062857Y-8115476D01*
X6196190Y-7915476D02*
X6215238Y-7915476D01*
X6234286Y-7925000D01*
X6243809Y-7934524D01*
X6253333Y-7953571D01*
X6262857Y-7991667D01*
X6262857Y-8039286D01*
X6253333Y-8077381D01*
X6243809Y-8096428D01*
X6234286Y-8105952D01*
X6215238Y-8115476D01*
X6196190Y-8115476D01*
X6177143Y-8105952D01*
X6167619Y-8096428D01*
X6158095Y-8077381D01*
X6148571Y-8039286D01*
X6148571Y-7991667D01*
X6158095Y-7953571D01*
X6167619Y-7934524D01*
X6177143Y-7925000D01*
X6196190Y-7915476D01*
X6329524Y-7915476D02*
X6453333Y-7915476D01*
X6386667Y-7991667D01*
X6415238Y-7991667D01*
X6434286Y-8001190D01*
X6443809Y-8010714D01*
X6453333Y-8029762D01*
X6453333Y-8077381D01*
X6443809Y-8096428D01*
X6434286Y-8105952D01*
X6415238Y-8115476D01*
X6358095Y-8115476D01*
X6339048Y-8105952D01*
X6329524Y-8096428D01*
X6643809Y-8115476D02*
X6529524Y-8115476D01*
X6586667Y-8115476D02*
X6586667Y-7915476D01*
X6567619Y-7944048D01*
X6548571Y-7963095D01*
X6529524Y-7972619D01*
X6824762Y-7915476D02*
X6729524Y-7915476D01*
X6720000Y-8010714D01*
X6729524Y-8001190D01*
X6748571Y-7991667D01*
X6796190Y-7991667D01*
X6815238Y-8001190D01*
X6824762Y-8010714D01*
X6834286Y-8029762D01*
X6834286Y-8077381D01*
X6824762Y-8096428D01*
X6815238Y-8105952D01*
X6796190Y-8115476D01*
X6748571Y-8115476D01*
X6729524Y-8105952D01*
X6720000Y-8096428D01*
X6910476Y-7915476D02*
X6910476Y-7953571D01*
X6986667Y-7915476D02*
X6986667Y-7953571D01*
X7281905Y-8191667D02*
X7272381Y-8182143D01*
X7253333Y-8153571D01*
X7243809Y-8134524D01*
X7234286Y-8105952D01*
X7224762Y-8058333D01*
X7224762Y-8020238D01*
X7234286Y-7972619D01*
X7243809Y-7944048D01*
X7253333Y-7925000D01*
X7272381Y-7896428D01*
X7281905Y-7886905D01*
X7462857Y-8115476D02*
X7348571Y-8115476D01*
X7405714Y-8115476D02*
X7405714Y-7915476D01*
X7386667Y-7944048D01*
X7367619Y-7963095D01*
X7348571Y-7972619D01*
X7643809Y-7915476D02*
X7548571Y-7915476D01*
X7539048Y-8010714D01*
X7548571Y-8001190D01*
X7567619Y-7991667D01*
X7615238Y-7991667D01*
X7634286Y-8001190D01*
X7643809Y-8010714D01*
X7653333Y-8029762D01*
X7653333Y-8077381D01*
X7643809Y-8096428D01*
X7634286Y-8105952D01*
X7615238Y-8115476D01*
X7567619Y-8115476D01*
X7548571Y-8105952D01*
X7539048Y-8096428D01*
X7891428Y-8115476D02*
X7891428Y-7915476D01*
X7977143Y-8115476D02*
X7977143Y-8010714D01*
X7967619Y-7991667D01*
X7948571Y-7982143D01*
X7920000Y-7982143D01*
X7900952Y-7991667D01*
X7891428Y-8001190D01*
X8100952Y-8115476D02*
X8081905Y-8105952D01*
X8072381Y-8096428D01*
X8062857Y-8077381D01*
X8062857Y-8020238D01*
X8072381Y-8001190D01*
X8081905Y-7991667D01*
X8100952Y-7982143D01*
X8129524Y-7982143D01*
X8148571Y-7991667D01*
X8158095Y-8001190D01*
X8167619Y-8020238D01*
X8167619Y-8077381D01*
X8158095Y-8096428D01*
X8148571Y-8105952D01*
X8129524Y-8115476D01*
X8100952Y-8115476D01*
X8281905Y-8115476D02*
X8262857Y-8105952D01*
X8253333Y-8086905D01*
X8253333Y-7915476D01*
X8434286Y-8105952D02*
X8415238Y-8115476D01*
X8377143Y-8115476D01*
X8358095Y-8105952D01*
X8348571Y-8086905D01*
X8348571Y-8010714D01*
X8358095Y-7991667D01*
X8377143Y-7982143D01*
X8415238Y-7982143D01*
X8434286Y-7991667D01*
X8443810Y-8010714D01*
X8443810Y-8029762D01*
X8348571Y-8048809D01*
X8520000Y-8105952D02*
X8539048Y-8115476D01*
X8577143Y-8115476D01*
X8596190Y-8105952D01*
X8605714Y-8086905D01*
X8605714Y-8077381D01*
X8596190Y-8058333D01*
X8577143Y-8048809D01*
X8548571Y-8048809D01*
X8529524Y-8039286D01*
X8520000Y-8020238D01*
X8520000Y-8010714D01*
X8529524Y-7991667D01*
X8548571Y-7982143D01*
X8577143Y-7982143D01*
X8596190Y-7991667D01*
X8672381Y-8191667D02*
X8681905Y-8182143D01*
X8700952Y-8153571D01*
X8710476Y-8134524D01*
X8720000Y-8105952D01*
X8729524Y-8058333D01*
X8729524Y-8020238D01*
X8720000Y-7972619D01*
X8710476Y-7944048D01*
X8700952Y-7925000D01*
X8681905Y-7896428D01*
X8672381Y-7886905D01*
D13*
X3710000Y-8289000D02*
G75*
G03*
X3710000Y-8289000I-50000J0D01*
G01*
D11*
X4072381Y-8379476D02*
X3958095Y-8379476D01*
X4015238Y-8379476D02*
X4015238Y-8179476D01*
X3996190Y-8208048D01*
X3977143Y-8227095D01*
X3958095Y-8236619D01*
X4158095Y-8360428D02*
X4167619Y-8369952D01*
X4158095Y-8379476D01*
X4148571Y-8369952D01*
X4158095Y-8360428D01*
X4158095Y-8379476D01*
X4291429Y-8179476D02*
X4310476Y-8179476D01*
X4329524Y-8189000D01*
X4339048Y-8198524D01*
X4348571Y-8217571D01*
X4358095Y-8255667D01*
X4358095Y-8303286D01*
X4348571Y-8341381D01*
X4339048Y-8360428D01*
X4329524Y-8369952D01*
X4310476Y-8379476D01*
X4291429Y-8379476D01*
X4272381Y-8369952D01*
X4262857Y-8360428D01*
X4253333Y-8341381D01*
X4243810Y-8303286D01*
X4243810Y-8255667D01*
X4253333Y-8217571D01*
X4262857Y-8198524D01*
X4272381Y-8189000D01*
X4291429Y-8179476D01*
X4481905Y-8179476D02*
X4500952Y-8179476D01*
X4520000Y-8189000D01*
X4529524Y-8198524D01*
X4539048Y-8217571D01*
X4548571Y-8255667D01*
X4548571Y-8303286D01*
X4539048Y-8341381D01*
X4529524Y-8360428D01*
X4520000Y-8369952D01*
X4500952Y-8379476D01*
X4481905Y-8379476D01*
X4462857Y-8369952D01*
X4453333Y-8360428D01*
X4443810Y-8341381D01*
X4434286Y-8303286D01*
X4434286Y-8255667D01*
X4443810Y-8217571D01*
X4453333Y-8198524D01*
X4462857Y-8189000D01*
X4481905Y-8179476D01*
X4672381Y-8179476D02*
X4691429Y-8179476D01*
X4710476Y-8189000D01*
X4720000Y-8198524D01*
X4729524Y-8217571D01*
X4739048Y-8255667D01*
X4739048Y-8303286D01*
X4729524Y-8341381D01*
X4720000Y-8360428D01*
X4710476Y-8369952D01*
X4691429Y-8379476D01*
X4672381Y-8379476D01*
X4653333Y-8369952D01*
X4643810Y-8360428D01*
X4634286Y-8341381D01*
X4624762Y-8303286D01*
X4624762Y-8255667D01*
X4634286Y-8217571D01*
X4643810Y-8198524D01*
X4653333Y-8189000D01*
X4672381Y-8179476D01*
X4824762Y-8379476D02*
X4824762Y-8246143D01*
X4824762Y-8265190D02*
X4834286Y-8255667D01*
X4853333Y-8246143D01*
X4881905Y-8246143D01*
X4900952Y-8255667D01*
X4910476Y-8274714D01*
X4910476Y-8379476D01*
X4910476Y-8274714D02*
X4920000Y-8255667D01*
X4939048Y-8246143D01*
X4967619Y-8246143D01*
X4986667Y-8255667D01*
X4996190Y-8274714D01*
X4996190Y-8379476D01*
X5091429Y-8379476D02*
X5091429Y-8246143D01*
X5091429Y-8265190D02*
X5100952Y-8255667D01*
X5120000Y-8246143D01*
X5148571Y-8246143D01*
X5167619Y-8255667D01*
X5177143Y-8274714D01*
X5177143Y-8379476D01*
X5177143Y-8274714D02*
X5186667Y-8255667D01*
X5205714Y-8246143D01*
X5234286Y-8246143D01*
X5253333Y-8255667D01*
X5262857Y-8274714D01*
X5262857Y-8379476D01*
X5653333Y-8169952D02*
X5481905Y-8427095D01*
X5910476Y-8179476D02*
X5929524Y-8179476D01*
X5948571Y-8189000D01*
X5958095Y-8198524D01*
X5967619Y-8217571D01*
X5977143Y-8255667D01*
X5977143Y-8303286D01*
X5967619Y-8341381D01*
X5958095Y-8360428D01*
X5948571Y-8369952D01*
X5929524Y-8379476D01*
X5910476Y-8379476D01*
X5891428Y-8369952D01*
X5881905Y-8360428D01*
X5872381Y-8341381D01*
X5862857Y-8303286D01*
X5862857Y-8255667D01*
X5872381Y-8217571D01*
X5881905Y-8198524D01*
X5891428Y-8189000D01*
X5910476Y-8179476D01*
X6062857Y-8360428D02*
X6072381Y-8369952D01*
X6062857Y-8379476D01*
X6053333Y-8369952D01*
X6062857Y-8360428D01*
X6062857Y-8379476D01*
X6196190Y-8179476D02*
X6215238Y-8179476D01*
X6234286Y-8189000D01*
X6243809Y-8198524D01*
X6253333Y-8217571D01*
X6262857Y-8255667D01*
X6262857Y-8303286D01*
X6253333Y-8341381D01*
X6243809Y-8360428D01*
X6234286Y-8369952D01*
X6215238Y-8379476D01*
X6196190Y-8379476D01*
X6177143Y-8369952D01*
X6167619Y-8360428D01*
X6158095Y-8341381D01*
X6148571Y-8303286D01*
X6148571Y-8255667D01*
X6158095Y-8217571D01*
X6167619Y-8198524D01*
X6177143Y-8189000D01*
X6196190Y-8179476D01*
X6329524Y-8179476D02*
X6453333Y-8179476D01*
X6386667Y-8255667D01*
X6415238Y-8255667D01*
X6434286Y-8265190D01*
X6443809Y-8274714D01*
X6453333Y-8293762D01*
X6453333Y-8341381D01*
X6443809Y-8360428D01*
X6434286Y-8369952D01*
X6415238Y-8379476D01*
X6358095Y-8379476D01*
X6339048Y-8369952D01*
X6329524Y-8360428D01*
X6548571Y-8379476D02*
X6586667Y-8379476D01*
X6605714Y-8369952D01*
X6615238Y-8360428D01*
X6634286Y-8331857D01*
X6643809Y-8293762D01*
X6643809Y-8217571D01*
X6634286Y-8198524D01*
X6624762Y-8189000D01*
X6605714Y-8179476D01*
X6567619Y-8179476D01*
X6548571Y-8189000D01*
X6539048Y-8198524D01*
X6529524Y-8217571D01*
X6529524Y-8265190D01*
X6539048Y-8284238D01*
X6548571Y-8293762D01*
X6567619Y-8303286D01*
X6605714Y-8303286D01*
X6624762Y-8293762D01*
X6634286Y-8284238D01*
X6643809Y-8265190D01*
X6815238Y-8246143D02*
X6815238Y-8379476D01*
X6767619Y-8169952D02*
X6720000Y-8312809D01*
X6843809Y-8312809D01*
X6910476Y-8179476D02*
X6910476Y-8217571D01*
X6986667Y-8179476D02*
X6986667Y-8217571D01*
X7281905Y-8455667D02*
X7272381Y-8446143D01*
X7253333Y-8417571D01*
X7243809Y-8398524D01*
X7234286Y-8369952D01*
X7224762Y-8322333D01*
X7224762Y-8284238D01*
X7234286Y-8236619D01*
X7243809Y-8208048D01*
X7253333Y-8189000D01*
X7272381Y-8160428D01*
X7281905Y-8150905D01*
X7386667Y-8265190D02*
X7367619Y-8255667D01*
X7358095Y-8246143D01*
X7348571Y-8227095D01*
X7348571Y-8217571D01*
X7358095Y-8198524D01*
X7367619Y-8189000D01*
X7386667Y-8179476D01*
X7424762Y-8179476D01*
X7443809Y-8189000D01*
X7453333Y-8198524D01*
X7462857Y-8217571D01*
X7462857Y-8227095D01*
X7453333Y-8246143D01*
X7443809Y-8255667D01*
X7424762Y-8265190D01*
X7386667Y-8265190D01*
X7367619Y-8274714D01*
X7358095Y-8284238D01*
X7348571Y-8303286D01*
X7348571Y-8341381D01*
X7358095Y-8360428D01*
X7367619Y-8369952D01*
X7386667Y-8379476D01*
X7424762Y-8379476D01*
X7443809Y-8369952D01*
X7453333Y-8360428D01*
X7462857Y-8341381D01*
X7462857Y-8303286D01*
X7453333Y-8284238D01*
X7443809Y-8274714D01*
X7424762Y-8265190D01*
X7529524Y-8179476D02*
X7653333Y-8179476D01*
X7586667Y-8255667D01*
X7615238Y-8255667D01*
X7634286Y-8265190D01*
X7643809Y-8274714D01*
X7653333Y-8293762D01*
X7653333Y-8341381D01*
X7643809Y-8360428D01*
X7634286Y-8369952D01*
X7615238Y-8379476D01*
X7558095Y-8379476D01*
X7539048Y-8369952D01*
X7529524Y-8360428D01*
X7891428Y-8379476D02*
X7891428Y-8179476D01*
X7977143Y-8379476D02*
X7977143Y-8274714D01*
X7967619Y-8255667D01*
X7948571Y-8246143D01*
X7920000Y-8246143D01*
X7900952Y-8255667D01*
X7891428Y-8265190D01*
X8100952Y-8379476D02*
X8081905Y-8369952D01*
X8072381Y-8360428D01*
X8062857Y-8341381D01*
X8062857Y-8284238D01*
X8072381Y-8265190D01*
X8081905Y-8255667D01*
X8100952Y-8246143D01*
X8129524Y-8246143D01*
X8148571Y-8255667D01*
X8158095Y-8265190D01*
X8167619Y-8284238D01*
X8167619Y-8341381D01*
X8158095Y-8360428D01*
X8148571Y-8369952D01*
X8129524Y-8379476D01*
X8100952Y-8379476D01*
X8281905Y-8379476D02*
X8262857Y-8369952D01*
X8253333Y-8350905D01*
X8253333Y-8179476D01*
X8434286Y-8369952D02*
X8415238Y-8379476D01*
X8377143Y-8379476D01*
X8358095Y-8369952D01*
X8348571Y-8350905D01*
X8348571Y-8274714D01*
X8358095Y-8255667D01*
X8377143Y-8246143D01*
X8415238Y-8246143D01*
X8434286Y-8255667D01*
X8443810Y-8274714D01*
X8443810Y-8293762D01*
X8348571Y-8312809D01*
X8520000Y-8369952D02*
X8539048Y-8379476D01*
X8577143Y-8379476D01*
X8596190Y-8369952D01*
X8605714Y-8350905D01*
X8605714Y-8341381D01*
X8596190Y-8322333D01*
X8577143Y-8312809D01*
X8548571Y-8312809D01*
X8529524Y-8303286D01*
X8520000Y-8284238D01*
X8520000Y-8274714D01*
X8529524Y-8255667D01*
X8548571Y-8246143D01*
X8577143Y-8246143D01*
X8596190Y-8255667D01*
X8672381Y-8455667D02*
X8681905Y-8446143D01*
X8700952Y-8417571D01*
X8710476Y-8398524D01*
X8720000Y-8369952D01*
X8729524Y-8322333D01*
X8729524Y-8284238D01*
X8720000Y-8236619D01*
X8710476Y-8208048D01*
X8700952Y-8189000D01*
X8681905Y-8160428D01*
X8672381Y-8150905D01*
M02*
