G04 #@! TF.GenerationSoftware,KiCad,Pcbnew,(6.0.6)*
G04 #@! TF.CreationDate,2023-08-29T14:37:19+02:00*
G04 #@! TF.ProjectId,digital-isolator-2t6r,64696769-7461-46c2-9d69-736f6c61746f,rev?*
G04 #@! TF.SameCoordinates,Original*
G04 #@! TF.FileFunction,Copper,L1,Top*
G04 #@! TF.FilePolarity,Positive*
%FSLAX46Y46*%
G04 Gerber Fmt 4.6, Leading zero omitted, Abs format (unit mm)*
G04 Created by KiCad (PCBNEW (6.0.6)) date 2023-08-29 14:37:19*
%MOMM*%
%LPD*%
G01*
G04 APERTURE LIST*
G04 #@! TA.AperFunction,NonConductor*
%ADD10C,0.200000*%
G04 #@! TD*
G04 #@! TA.AperFunction,ComponentPad*
%ADD11R,1.700000X1.700000*%
G04 #@! TD*
G04 #@! TA.AperFunction,ComponentPad*
%ADD12O,1.700000X1.700000*%
G04 #@! TD*
G04 #@! TA.AperFunction,ViaPad*
%ADD13C,1.400000*%
G04 #@! TD*
G04 #@! TA.AperFunction,Conductor*
%ADD14C,0.300000*%
G04 #@! TD*
G04 APERTURE END LIST*
D10*
X139450000Y-64860000D02*
X92350000Y-64860000D01*
X92350000Y-64860000D02*
X92350000Y-22850000D01*
X139450000Y-22850000D02*
X139450000Y-64860000D01*
X92350000Y-22850000D02*
X139450000Y-22850000D01*
G04 #@! TA.AperFunction,SMDPad,CuDef*
G36*
G01*
X126250000Y-54800000D02*
X125350000Y-54800000D01*
G75*
G02*
X125100000Y-54550000I0J250000D01*
G01*
X125100000Y-53850000D01*
G75*
G02*
X125350000Y-53600000I250000J0D01*
G01*
X126250000Y-53600000D01*
G75*
G02*
X126500000Y-53850000I0J-250000D01*
G01*
X126500000Y-54550000D01*
G75*
G02*
X126250000Y-54800000I-250000J0D01*
G01*
G37*
G04 #@! TD.AperFunction*
G04 #@! TA.AperFunction,SMDPad,CuDef*
G36*
G01*
X126250000Y-52800000D02*
X125350000Y-52800000D01*
G75*
G02*
X125100000Y-52550000I0J250000D01*
G01*
X125100000Y-51850000D01*
G75*
G02*
X125350000Y-51600000I250000J0D01*
G01*
X126250000Y-51600000D01*
G75*
G02*
X126500000Y-51850000I0J-250000D01*
G01*
X126500000Y-52550000D01*
G75*
G02*
X126250000Y-52800000I-250000J0D01*
G01*
G37*
G04 #@! TD.AperFunction*
G04 #@! TA.AperFunction,SMDPad,CuDef*
G36*
G01*
X123570000Y-37660000D02*
X124470000Y-37660000D01*
G75*
G02*
X124720000Y-37910000I0J-250000D01*
G01*
X124720000Y-38610000D01*
G75*
G02*
X124470000Y-38860000I-250000J0D01*
G01*
X123570000Y-38860000D01*
G75*
G02*
X123320000Y-38610000I0J250000D01*
G01*
X123320000Y-37910000D01*
G75*
G02*
X123570000Y-37660000I250000J0D01*
G01*
G37*
G04 #@! TD.AperFunction*
G04 #@! TA.AperFunction,SMDPad,CuDef*
G36*
G01*
X123570000Y-39660000D02*
X124470000Y-39660000D01*
G75*
G02*
X124720000Y-39910000I0J-250000D01*
G01*
X124720000Y-40610000D01*
G75*
G02*
X124470000Y-40860000I-250000J0D01*
G01*
X123570000Y-40860000D01*
G75*
G02*
X123320000Y-40610000I0J250000D01*
G01*
X123320000Y-39910000D01*
G75*
G02*
X123570000Y-39660000I250000J0D01*
G01*
G37*
G04 #@! TD.AperFunction*
G04 #@! TA.AperFunction,SMDPad,CuDef*
G36*
G01*
X103110000Y-39460000D02*
X104010000Y-39460000D01*
G75*
G02*
X104260000Y-39710000I0J-250000D01*
G01*
X104260000Y-40410000D01*
G75*
G02*
X104010000Y-40660000I-250000J0D01*
G01*
X103110000Y-40660000D01*
G75*
G02*
X102860000Y-40410000I0J250000D01*
G01*
X102860000Y-39710000D01*
G75*
G02*
X103110000Y-39460000I250000J0D01*
G01*
G37*
G04 #@! TD.AperFunction*
G04 #@! TA.AperFunction,SMDPad,CuDef*
G36*
G01*
X103110000Y-41460000D02*
X104010000Y-41460000D01*
G75*
G02*
X104260000Y-41710000I0J-250000D01*
G01*
X104260000Y-42410000D01*
G75*
G02*
X104010000Y-42660000I-250000J0D01*
G01*
X103110000Y-42660000D01*
G75*
G02*
X102860000Y-42410000I0J250000D01*
G01*
X102860000Y-41710000D01*
G75*
G02*
X103110000Y-41460000I250000J0D01*
G01*
G37*
G04 #@! TD.AperFunction*
G04 #@! TA.AperFunction,SMDPad,CuDef*
G36*
G01*
X105260000Y-38670000D02*
X104360000Y-38670000D01*
G75*
G02*
X104110000Y-38420000I0J250000D01*
G01*
X104110000Y-37720000D01*
G75*
G02*
X104360000Y-37470000I250000J0D01*
G01*
X105260000Y-37470000D01*
G75*
G02*
X105510000Y-37720000I0J-250000D01*
G01*
X105510000Y-38420000D01*
G75*
G02*
X105260000Y-38670000I-250000J0D01*
G01*
G37*
G04 #@! TD.AperFunction*
G04 #@! TA.AperFunction,SMDPad,CuDef*
G36*
G01*
X105260000Y-36670000D02*
X104360000Y-36670000D01*
G75*
G02*
X104110000Y-36420000I0J250000D01*
G01*
X104110000Y-35720000D01*
G75*
G02*
X104360000Y-35470000I250000J0D01*
G01*
X105260000Y-35470000D01*
G75*
G02*
X105510000Y-35720000I0J-250000D01*
G01*
X105510000Y-36420000D01*
G75*
G02*
X105260000Y-36670000I-250000J0D01*
G01*
G37*
G04 #@! TD.AperFunction*
G04 #@! TA.AperFunction,SMDPad,CuDef*
G36*
G01*
X123250000Y-34400000D02*
X122350000Y-34400000D01*
G75*
G02*
X122100000Y-34150000I0J250000D01*
G01*
X122100000Y-33450000D01*
G75*
G02*
X122350000Y-33200000I250000J0D01*
G01*
X123250000Y-33200000D01*
G75*
G02*
X123500000Y-33450000I0J-250000D01*
G01*
X123500000Y-34150000D01*
G75*
G02*
X123250000Y-34400000I-250000J0D01*
G01*
G37*
G04 #@! TD.AperFunction*
G04 #@! TA.AperFunction,SMDPad,CuDef*
G36*
G01*
X123250000Y-32400000D02*
X122350000Y-32400000D01*
G75*
G02*
X122100000Y-32150000I0J250000D01*
G01*
X122100000Y-31450000D01*
G75*
G02*
X122350000Y-31200000I250000J0D01*
G01*
X123250000Y-31200000D01*
G75*
G02*
X123500000Y-31450000I0J-250000D01*
G01*
X123500000Y-32150000D01*
G75*
G02*
X123250000Y-32400000I-250000J0D01*
G01*
G37*
G04 #@! TD.AperFunction*
G04 #@! TA.AperFunction,SMDPad,CuDef*
G36*
G01*
X118547500Y-27495000D02*
X118547500Y-26545000D01*
G75*
G02*
X118797500Y-26295000I250000J0D01*
G01*
X119472500Y-26295000D01*
G75*
G02*
X119722500Y-26545000I0J-250000D01*
G01*
X119722500Y-27495000D01*
G75*
G02*
X119472500Y-27745000I-250000J0D01*
G01*
X118797500Y-27745000D01*
G75*
G02*
X118547500Y-27495000I0J250000D01*
G01*
G37*
G04 #@! TD.AperFunction*
G04 #@! TA.AperFunction,SMDPad,CuDef*
G36*
G01*
X120622500Y-27495000D02*
X120622500Y-26545000D01*
G75*
G02*
X120872500Y-26295000I250000J0D01*
G01*
X121547500Y-26295000D01*
G75*
G02*
X121797500Y-26545000I0J-250000D01*
G01*
X121797500Y-27495000D01*
G75*
G02*
X121547500Y-27745000I-250000J0D01*
G01*
X120872500Y-27745000D01*
G75*
G02*
X120622500Y-27495000I0J250000D01*
G01*
G37*
G04 #@! TD.AperFunction*
D11*
X99050000Y-53275000D03*
D12*
X96510000Y-53275000D03*
X99050000Y-50735000D03*
X96510000Y-50735000D03*
X99050000Y-48195000D03*
X96510000Y-48195000D03*
X99050000Y-45655000D03*
X96510000Y-45655000D03*
X99050000Y-43115000D03*
X96510000Y-43115000D03*
X99050000Y-40575000D03*
X96510000Y-40575000D03*
X99050000Y-38035000D03*
X96510000Y-38035000D03*
X99050000Y-35495000D03*
X96510000Y-35495000D03*
G04 #@! TA.AperFunction,SMDPad,CuDef*
G36*
G01*
X109185000Y-51795000D02*
X109185000Y-51495000D01*
G75*
G02*
X109335000Y-51345000I150000J0D01*
G01*
X111085000Y-51345000D01*
G75*
G02*
X111235000Y-51495000I0J-150000D01*
G01*
X111235000Y-51795000D01*
G75*
G02*
X111085000Y-51945000I-150000J0D01*
G01*
X109335000Y-51945000D01*
G75*
G02*
X109185000Y-51795000I0J150000D01*
G01*
G37*
G04 #@! TD.AperFunction*
G04 #@! TA.AperFunction,SMDPad,CuDef*
G36*
G01*
X109185000Y-53065000D02*
X109185000Y-52765000D01*
G75*
G02*
X109335000Y-52615000I150000J0D01*
G01*
X111085000Y-52615000D01*
G75*
G02*
X111235000Y-52765000I0J-150000D01*
G01*
X111235000Y-53065000D01*
G75*
G02*
X111085000Y-53215000I-150000J0D01*
G01*
X109335000Y-53215000D01*
G75*
G02*
X109185000Y-53065000I0J150000D01*
G01*
G37*
G04 #@! TD.AperFunction*
G04 #@! TA.AperFunction,SMDPad,CuDef*
G36*
G01*
X109185000Y-54335000D02*
X109185000Y-54035000D01*
G75*
G02*
X109335000Y-53885000I150000J0D01*
G01*
X111085000Y-53885000D01*
G75*
G02*
X111235000Y-54035000I0J-150000D01*
G01*
X111235000Y-54335000D01*
G75*
G02*
X111085000Y-54485000I-150000J0D01*
G01*
X109335000Y-54485000D01*
G75*
G02*
X109185000Y-54335000I0J150000D01*
G01*
G37*
G04 #@! TD.AperFunction*
G04 #@! TA.AperFunction,SMDPad,CuDef*
G36*
G01*
X109185000Y-55605000D02*
X109185000Y-55305000D01*
G75*
G02*
X109335000Y-55155000I150000J0D01*
G01*
X111085000Y-55155000D01*
G75*
G02*
X111235000Y-55305000I0J-150000D01*
G01*
X111235000Y-55605000D01*
G75*
G02*
X111085000Y-55755000I-150000J0D01*
G01*
X109335000Y-55755000D01*
G75*
G02*
X109185000Y-55605000I0J150000D01*
G01*
G37*
G04 #@! TD.AperFunction*
G04 #@! TA.AperFunction,SMDPad,CuDef*
G36*
G01*
X109185000Y-56875000D02*
X109185000Y-56575000D01*
G75*
G02*
X109335000Y-56425000I150000J0D01*
G01*
X111085000Y-56425000D01*
G75*
G02*
X111235000Y-56575000I0J-150000D01*
G01*
X111235000Y-56875000D01*
G75*
G02*
X111085000Y-57025000I-150000J0D01*
G01*
X109335000Y-57025000D01*
G75*
G02*
X109185000Y-56875000I0J150000D01*
G01*
G37*
G04 #@! TD.AperFunction*
G04 #@! TA.AperFunction,SMDPad,CuDef*
G36*
G01*
X109185000Y-58145000D02*
X109185000Y-57845000D01*
G75*
G02*
X109335000Y-57695000I150000J0D01*
G01*
X111085000Y-57695000D01*
G75*
G02*
X111235000Y-57845000I0J-150000D01*
G01*
X111235000Y-58145000D01*
G75*
G02*
X111085000Y-58295000I-150000J0D01*
G01*
X109335000Y-58295000D01*
G75*
G02*
X109185000Y-58145000I0J150000D01*
G01*
G37*
G04 #@! TD.AperFunction*
G04 #@! TA.AperFunction,SMDPad,CuDef*
G36*
G01*
X109185000Y-59415000D02*
X109185000Y-59115000D01*
G75*
G02*
X109335000Y-58965000I150000J0D01*
G01*
X111085000Y-58965000D01*
G75*
G02*
X111235000Y-59115000I0J-150000D01*
G01*
X111235000Y-59415000D01*
G75*
G02*
X111085000Y-59565000I-150000J0D01*
G01*
X109335000Y-59565000D01*
G75*
G02*
X109185000Y-59415000I0J150000D01*
G01*
G37*
G04 #@! TD.AperFunction*
G04 #@! TA.AperFunction,SMDPad,CuDef*
G36*
G01*
X109185000Y-60685000D02*
X109185000Y-60385000D01*
G75*
G02*
X109335000Y-60235000I150000J0D01*
G01*
X111085000Y-60235000D01*
G75*
G02*
X111235000Y-60385000I0J-150000D01*
G01*
X111235000Y-60685000D01*
G75*
G02*
X111085000Y-60835000I-150000J0D01*
G01*
X109335000Y-60835000D01*
G75*
G02*
X109185000Y-60685000I0J150000D01*
G01*
G37*
G04 #@! TD.AperFunction*
G04 #@! TA.AperFunction,SMDPad,CuDef*
G36*
G01*
X118485000Y-60685000D02*
X118485000Y-60385000D01*
G75*
G02*
X118635000Y-60235000I150000J0D01*
G01*
X120385000Y-60235000D01*
G75*
G02*
X120535000Y-60385000I0J-150000D01*
G01*
X120535000Y-60685000D01*
G75*
G02*
X120385000Y-60835000I-150000J0D01*
G01*
X118635000Y-60835000D01*
G75*
G02*
X118485000Y-60685000I0J150000D01*
G01*
G37*
G04 #@! TD.AperFunction*
G04 #@! TA.AperFunction,SMDPad,CuDef*
G36*
G01*
X118485000Y-59415000D02*
X118485000Y-59115000D01*
G75*
G02*
X118635000Y-58965000I150000J0D01*
G01*
X120385000Y-58965000D01*
G75*
G02*
X120535000Y-59115000I0J-150000D01*
G01*
X120535000Y-59415000D01*
G75*
G02*
X120385000Y-59565000I-150000J0D01*
G01*
X118635000Y-59565000D01*
G75*
G02*
X118485000Y-59415000I0J150000D01*
G01*
G37*
G04 #@! TD.AperFunction*
G04 #@! TA.AperFunction,SMDPad,CuDef*
G36*
G01*
X118485000Y-58145000D02*
X118485000Y-57845000D01*
G75*
G02*
X118635000Y-57695000I150000J0D01*
G01*
X120385000Y-57695000D01*
G75*
G02*
X120535000Y-57845000I0J-150000D01*
G01*
X120535000Y-58145000D01*
G75*
G02*
X120385000Y-58295000I-150000J0D01*
G01*
X118635000Y-58295000D01*
G75*
G02*
X118485000Y-58145000I0J150000D01*
G01*
G37*
G04 #@! TD.AperFunction*
G04 #@! TA.AperFunction,SMDPad,CuDef*
G36*
G01*
X118485000Y-56875000D02*
X118485000Y-56575000D01*
G75*
G02*
X118635000Y-56425000I150000J0D01*
G01*
X120385000Y-56425000D01*
G75*
G02*
X120535000Y-56575000I0J-150000D01*
G01*
X120535000Y-56875000D01*
G75*
G02*
X120385000Y-57025000I-150000J0D01*
G01*
X118635000Y-57025000D01*
G75*
G02*
X118485000Y-56875000I0J150000D01*
G01*
G37*
G04 #@! TD.AperFunction*
G04 #@! TA.AperFunction,SMDPad,CuDef*
G36*
G01*
X118485000Y-55605000D02*
X118485000Y-55305000D01*
G75*
G02*
X118635000Y-55155000I150000J0D01*
G01*
X120385000Y-55155000D01*
G75*
G02*
X120535000Y-55305000I0J-150000D01*
G01*
X120535000Y-55605000D01*
G75*
G02*
X120385000Y-55755000I-150000J0D01*
G01*
X118635000Y-55755000D01*
G75*
G02*
X118485000Y-55605000I0J150000D01*
G01*
G37*
G04 #@! TD.AperFunction*
G04 #@! TA.AperFunction,SMDPad,CuDef*
G36*
G01*
X118485000Y-54335000D02*
X118485000Y-54035000D01*
G75*
G02*
X118635000Y-53885000I150000J0D01*
G01*
X120385000Y-53885000D01*
G75*
G02*
X120535000Y-54035000I0J-150000D01*
G01*
X120535000Y-54335000D01*
G75*
G02*
X120385000Y-54485000I-150000J0D01*
G01*
X118635000Y-54485000D01*
G75*
G02*
X118485000Y-54335000I0J150000D01*
G01*
G37*
G04 #@! TD.AperFunction*
G04 #@! TA.AperFunction,SMDPad,CuDef*
G36*
G01*
X118485000Y-53065000D02*
X118485000Y-52765000D01*
G75*
G02*
X118635000Y-52615000I150000J0D01*
G01*
X120385000Y-52615000D01*
G75*
G02*
X120535000Y-52765000I0J-150000D01*
G01*
X120535000Y-53065000D01*
G75*
G02*
X120385000Y-53215000I-150000J0D01*
G01*
X118635000Y-53215000D01*
G75*
G02*
X118485000Y-53065000I0J150000D01*
G01*
G37*
G04 #@! TD.AperFunction*
G04 #@! TA.AperFunction,SMDPad,CuDef*
G36*
G01*
X118485000Y-51795000D02*
X118485000Y-51495000D01*
G75*
G02*
X118635000Y-51345000I150000J0D01*
G01*
X120385000Y-51345000D01*
G75*
G02*
X120535000Y-51495000I0J-150000D01*
G01*
X120535000Y-51795000D01*
G75*
G02*
X120385000Y-51945000I-150000J0D01*
G01*
X118635000Y-51945000D01*
G75*
G02*
X118485000Y-51795000I0J150000D01*
G01*
G37*
G04 #@! TD.AperFunction*
G04 #@! TA.AperFunction,SMDPad,CuDef*
G36*
G01*
X110912500Y-46475000D02*
X110912500Y-47425000D01*
G75*
G02*
X110662500Y-47675000I-250000J0D01*
G01*
X109987500Y-47675000D01*
G75*
G02*
X109737500Y-47425000I0J250000D01*
G01*
X109737500Y-46475000D01*
G75*
G02*
X109987500Y-46225000I250000J0D01*
G01*
X110662500Y-46225000D01*
G75*
G02*
X110912500Y-46475000I0J-250000D01*
G01*
G37*
G04 #@! TD.AperFunction*
G04 #@! TA.AperFunction,SMDPad,CuDef*
G36*
G01*
X108837500Y-46475000D02*
X108837500Y-47425000D01*
G75*
G02*
X108587500Y-47675000I-250000J0D01*
G01*
X107912500Y-47675000D01*
G75*
G02*
X107662500Y-47425000I0J250000D01*
G01*
X107662500Y-46475000D01*
G75*
G02*
X107912500Y-46225000I250000J0D01*
G01*
X108587500Y-46225000D01*
G75*
G02*
X108837500Y-46475000I0J-250000D01*
G01*
G37*
G04 #@! TD.AperFunction*
G04 #@! TA.AperFunction,SMDPad,CuDef*
G36*
G01*
X110935000Y-26545000D02*
X110935000Y-27495000D01*
G75*
G02*
X110685000Y-27745000I-250000J0D01*
G01*
X110010000Y-27745000D01*
G75*
G02*
X109760000Y-27495000I0J250000D01*
G01*
X109760000Y-26545000D01*
G75*
G02*
X110010000Y-26295000I250000J0D01*
G01*
X110685000Y-26295000D01*
G75*
G02*
X110935000Y-26545000I0J-250000D01*
G01*
G37*
G04 #@! TD.AperFunction*
G04 #@! TA.AperFunction,SMDPad,CuDef*
G36*
G01*
X108860000Y-26545000D02*
X108860000Y-27495000D01*
G75*
G02*
X108610000Y-27745000I-250000J0D01*
G01*
X107935000Y-27745000D01*
G75*
G02*
X107685000Y-27495000I0J250000D01*
G01*
X107685000Y-26545000D01*
G75*
G02*
X107935000Y-26295000I250000J0D01*
G01*
X108610000Y-26295000D01*
G75*
G02*
X108860000Y-26545000I0J-250000D01*
G01*
G37*
G04 #@! TD.AperFunction*
G04 #@! TA.AperFunction,SMDPad,CuDef*
G36*
G01*
X124210000Y-57730000D02*
X125110000Y-57730000D01*
G75*
G02*
X125360000Y-57980000I0J-250000D01*
G01*
X125360000Y-58680000D01*
G75*
G02*
X125110000Y-58930000I-250000J0D01*
G01*
X124210000Y-58930000D01*
G75*
G02*
X123960000Y-58680000I0J250000D01*
G01*
X123960000Y-57980000D01*
G75*
G02*
X124210000Y-57730000I250000J0D01*
G01*
G37*
G04 #@! TD.AperFunction*
G04 #@! TA.AperFunction,SMDPad,CuDef*
G36*
G01*
X124210000Y-59730000D02*
X125110000Y-59730000D01*
G75*
G02*
X125360000Y-59980000I0J-250000D01*
G01*
X125360000Y-60680000D01*
G75*
G02*
X125110000Y-60930000I-250000J0D01*
G01*
X124210000Y-60930000D01*
G75*
G02*
X123960000Y-60680000I0J250000D01*
G01*
X123960000Y-59980000D01*
G75*
G02*
X124210000Y-59730000I250000J0D01*
G01*
G37*
G04 #@! TD.AperFunction*
G04 #@! TA.AperFunction,SMDPad,CuDef*
G36*
G01*
X104850000Y-55450000D02*
X105750000Y-55450000D01*
G75*
G02*
X106000000Y-55700000I0J-250000D01*
G01*
X106000000Y-56400000D01*
G75*
G02*
X105750000Y-56650000I-250000J0D01*
G01*
X104850000Y-56650000D01*
G75*
G02*
X104600000Y-56400000I0J250000D01*
G01*
X104600000Y-55700000D01*
G75*
G02*
X104850000Y-55450000I250000J0D01*
G01*
G37*
G04 #@! TD.AperFunction*
G04 #@! TA.AperFunction,SMDPad,CuDef*
G36*
G01*
X104850000Y-57450000D02*
X105750000Y-57450000D01*
G75*
G02*
X106000000Y-57700000I0J-250000D01*
G01*
X106000000Y-58400000D01*
G75*
G02*
X105750000Y-58650000I-250000J0D01*
G01*
X104850000Y-58650000D01*
G75*
G02*
X104600000Y-58400000I0J250000D01*
G01*
X104600000Y-57700000D01*
G75*
G02*
X104850000Y-57450000I250000J0D01*
G01*
G37*
G04 #@! TD.AperFunction*
G04 #@! TA.AperFunction,SMDPad,CuDef*
G36*
G01*
X125450000Y-34400000D02*
X124550000Y-34400000D01*
G75*
G02*
X124300000Y-34150000I0J250000D01*
G01*
X124300000Y-33450000D01*
G75*
G02*
X124550000Y-33200000I250000J0D01*
G01*
X125450000Y-33200000D01*
G75*
G02*
X125700000Y-33450000I0J-250000D01*
G01*
X125700000Y-34150000D01*
G75*
G02*
X125450000Y-34400000I-250000J0D01*
G01*
G37*
G04 #@! TD.AperFunction*
G04 #@! TA.AperFunction,SMDPad,CuDef*
G36*
G01*
X125450000Y-32400000D02*
X124550000Y-32400000D01*
G75*
G02*
X124300000Y-32150000I0J250000D01*
G01*
X124300000Y-31450000D01*
G75*
G02*
X124550000Y-31200000I250000J0D01*
G01*
X125450000Y-31200000D01*
G75*
G02*
X125700000Y-31450000I0J-250000D01*
G01*
X125700000Y-32150000D01*
G75*
G02*
X125450000Y-32400000I-250000J0D01*
G01*
G37*
G04 #@! TD.AperFunction*
G04 #@! TA.AperFunction,SMDPad,CuDef*
G36*
G01*
X109185000Y-31795000D02*
X109185000Y-31495000D01*
G75*
G02*
X109335000Y-31345000I150000J0D01*
G01*
X111085000Y-31345000D01*
G75*
G02*
X111235000Y-31495000I0J-150000D01*
G01*
X111235000Y-31795000D01*
G75*
G02*
X111085000Y-31945000I-150000J0D01*
G01*
X109335000Y-31945000D01*
G75*
G02*
X109185000Y-31795000I0J150000D01*
G01*
G37*
G04 #@! TD.AperFunction*
G04 #@! TA.AperFunction,SMDPad,CuDef*
G36*
G01*
X109185000Y-33065000D02*
X109185000Y-32765000D01*
G75*
G02*
X109335000Y-32615000I150000J0D01*
G01*
X111085000Y-32615000D01*
G75*
G02*
X111235000Y-32765000I0J-150000D01*
G01*
X111235000Y-33065000D01*
G75*
G02*
X111085000Y-33215000I-150000J0D01*
G01*
X109335000Y-33215000D01*
G75*
G02*
X109185000Y-33065000I0J150000D01*
G01*
G37*
G04 #@! TD.AperFunction*
G04 #@! TA.AperFunction,SMDPad,CuDef*
G36*
G01*
X109185000Y-34335000D02*
X109185000Y-34035000D01*
G75*
G02*
X109335000Y-33885000I150000J0D01*
G01*
X111085000Y-33885000D01*
G75*
G02*
X111235000Y-34035000I0J-150000D01*
G01*
X111235000Y-34335000D01*
G75*
G02*
X111085000Y-34485000I-150000J0D01*
G01*
X109335000Y-34485000D01*
G75*
G02*
X109185000Y-34335000I0J150000D01*
G01*
G37*
G04 #@! TD.AperFunction*
G04 #@! TA.AperFunction,SMDPad,CuDef*
G36*
G01*
X109185000Y-35605000D02*
X109185000Y-35305000D01*
G75*
G02*
X109335000Y-35155000I150000J0D01*
G01*
X111085000Y-35155000D01*
G75*
G02*
X111235000Y-35305000I0J-150000D01*
G01*
X111235000Y-35605000D01*
G75*
G02*
X111085000Y-35755000I-150000J0D01*
G01*
X109335000Y-35755000D01*
G75*
G02*
X109185000Y-35605000I0J150000D01*
G01*
G37*
G04 #@! TD.AperFunction*
G04 #@! TA.AperFunction,SMDPad,CuDef*
G36*
G01*
X109185000Y-36875000D02*
X109185000Y-36575000D01*
G75*
G02*
X109335000Y-36425000I150000J0D01*
G01*
X111085000Y-36425000D01*
G75*
G02*
X111235000Y-36575000I0J-150000D01*
G01*
X111235000Y-36875000D01*
G75*
G02*
X111085000Y-37025000I-150000J0D01*
G01*
X109335000Y-37025000D01*
G75*
G02*
X109185000Y-36875000I0J150000D01*
G01*
G37*
G04 #@! TD.AperFunction*
G04 #@! TA.AperFunction,SMDPad,CuDef*
G36*
G01*
X109185000Y-38145000D02*
X109185000Y-37845000D01*
G75*
G02*
X109335000Y-37695000I150000J0D01*
G01*
X111085000Y-37695000D01*
G75*
G02*
X111235000Y-37845000I0J-150000D01*
G01*
X111235000Y-38145000D01*
G75*
G02*
X111085000Y-38295000I-150000J0D01*
G01*
X109335000Y-38295000D01*
G75*
G02*
X109185000Y-38145000I0J150000D01*
G01*
G37*
G04 #@! TD.AperFunction*
G04 #@! TA.AperFunction,SMDPad,CuDef*
G36*
G01*
X109185000Y-39415000D02*
X109185000Y-39115000D01*
G75*
G02*
X109335000Y-38965000I150000J0D01*
G01*
X111085000Y-38965000D01*
G75*
G02*
X111235000Y-39115000I0J-150000D01*
G01*
X111235000Y-39415000D01*
G75*
G02*
X111085000Y-39565000I-150000J0D01*
G01*
X109335000Y-39565000D01*
G75*
G02*
X109185000Y-39415000I0J150000D01*
G01*
G37*
G04 #@! TD.AperFunction*
G04 #@! TA.AperFunction,SMDPad,CuDef*
G36*
G01*
X109185000Y-40685000D02*
X109185000Y-40385000D01*
G75*
G02*
X109335000Y-40235000I150000J0D01*
G01*
X111085000Y-40235000D01*
G75*
G02*
X111235000Y-40385000I0J-150000D01*
G01*
X111235000Y-40685000D01*
G75*
G02*
X111085000Y-40835000I-150000J0D01*
G01*
X109335000Y-40835000D01*
G75*
G02*
X109185000Y-40685000I0J150000D01*
G01*
G37*
G04 #@! TD.AperFunction*
G04 #@! TA.AperFunction,SMDPad,CuDef*
G36*
G01*
X118485000Y-40685000D02*
X118485000Y-40385000D01*
G75*
G02*
X118635000Y-40235000I150000J0D01*
G01*
X120385000Y-40235000D01*
G75*
G02*
X120535000Y-40385000I0J-150000D01*
G01*
X120535000Y-40685000D01*
G75*
G02*
X120385000Y-40835000I-150000J0D01*
G01*
X118635000Y-40835000D01*
G75*
G02*
X118485000Y-40685000I0J150000D01*
G01*
G37*
G04 #@! TD.AperFunction*
G04 #@! TA.AperFunction,SMDPad,CuDef*
G36*
G01*
X118485000Y-39415000D02*
X118485000Y-39115000D01*
G75*
G02*
X118635000Y-38965000I150000J0D01*
G01*
X120385000Y-38965000D01*
G75*
G02*
X120535000Y-39115000I0J-150000D01*
G01*
X120535000Y-39415000D01*
G75*
G02*
X120385000Y-39565000I-150000J0D01*
G01*
X118635000Y-39565000D01*
G75*
G02*
X118485000Y-39415000I0J150000D01*
G01*
G37*
G04 #@! TD.AperFunction*
G04 #@! TA.AperFunction,SMDPad,CuDef*
G36*
G01*
X118485000Y-38145000D02*
X118485000Y-37845000D01*
G75*
G02*
X118635000Y-37695000I150000J0D01*
G01*
X120385000Y-37695000D01*
G75*
G02*
X120535000Y-37845000I0J-150000D01*
G01*
X120535000Y-38145000D01*
G75*
G02*
X120385000Y-38295000I-150000J0D01*
G01*
X118635000Y-38295000D01*
G75*
G02*
X118485000Y-38145000I0J150000D01*
G01*
G37*
G04 #@! TD.AperFunction*
G04 #@! TA.AperFunction,SMDPad,CuDef*
G36*
G01*
X118485000Y-36875000D02*
X118485000Y-36575000D01*
G75*
G02*
X118635000Y-36425000I150000J0D01*
G01*
X120385000Y-36425000D01*
G75*
G02*
X120535000Y-36575000I0J-150000D01*
G01*
X120535000Y-36875000D01*
G75*
G02*
X120385000Y-37025000I-150000J0D01*
G01*
X118635000Y-37025000D01*
G75*
G02*
X118485000Y-36875000I0J150000D01*
G01*
G37*
G04 #@! TD.AperFunction*
G04 #@! TA.AperFunction,SMDPad,CuDef*
G36*
G01*
X118485000Y-35605000D02*
X118485000Y-35305000D01*
G75*
G02*
X118635000Y-35155000I150000J0D01*
G01*
X120385000Y-35155000D01*
G75*
G02*
X120535000Y-35305000I0J-150000D01*
G01*
X120535000Y-35605000D01*
G75*
G02*
X120385000Y-35755000I-150000J0D01*
G01*
X118635000Y-35755000D01*
G75*
G02*
X118485000Y-35605000I0J150000D01*
G01*
G37*
G04 #@! TD.AperFunction*
G04 #@! TA.AperFunction,SMDPad,CuDef*
G36*
G01*
X118485000Y-34335000D02*
X118485000Y-34035000D01*
G75*
G02*
X118635000Y-33885000I150000J0D01*
G01*
X120385000Y-33885000D01*
G75*
G02*
X120535000Y-34035000I0J-150000D01*
G01*
X120535000Y-34335000D01*
G75*
G02*
X120385000Y-34485000I-150000J0D01*
G01*
X118635000Y-34485000D01*
G75*
G02*
X118485000Y-34335000I0J150000D01*
G01*
G37*
G04 #@! TD.AperFunction*
G04 #@! TA.AperFunction,SMDPad,CuDef*
G36*
G01*
X118485000Y-33065000D02*
X118485000Y-32765000D01*
G75*
G02*
X118635000Y-32615000I150000J0D01*
G01*
X120385000Y-32615000D01*
G75*
G02*
X120535000Y-32765000I0J-150000D01*
G01*
X120535000Y-33065000D01*
G75*
G02*
X120385000Y-33215000I-150000J0D01*
G01*
X118635000Y-33215000D01*
G75*
G02*
X118485000Y-33065000I0J150000D01*
G01*
G37*
G04 #@! TD.AperFunction*
G04 #@! TA.AperFunction,SMDPad,CuDef*
G36*
G01*
X118485000Y-31795000D02*
X118485000Y-31495000D01*
G75*
G02*
X118635000Y-31345000I150000J0D01*
G01*
X120385000Y-31345000D01*
G75*
G02*
X120535000Y-31495000I0J-150000D01*
G01*
X120535000Y-31795000D01*
G75*
G02*
X120385000Y-31945000I-150000J0D01*
G01*
X118635000Y-31945000D01*
G75*
G02*
X118485000Y-31795000I0J150000D01*
G01*
G37*
G04 #@! TD.AperFunction*
G04 #@! TA.AperFunction,SMDPad,CuDef*
G36*
G01*
X127650000Y-34400000D02*
X126750000Y-34400000D01*
G75*
G02*
X126500000Y-34150000I0J250000D01*
G01*
X126500000Y-33450000D01*
G75*
G02*
X126750000Y-33200000I250000J0D01*
G01*
X127650000Y-33200000D01*
G75*
G02*
X127900000Y-33450000I0J-250000D01*
G01*
X127900000Y-34150000D01*
G75*
G02*
X127650000Y-34400000I-250000J0D01*
G01*
G37*
G04 #@! TD.AperFunction*
G04 #@! TA.AperFunction,SMDPad,CuDef*
G36*
G01*
X127650000Y-32400000D02*
X126750000Y-32400000D01*
G75*
G02*
X126500000Y-32150000I0J250000D01*
G01*
X126500000Y-31450000D01*
G75*
G02*
X126750000Y-31200000I250000J0D01*
G01*
X127650000Y-31200000D01*
G75*
G02*
X127900000Y-31450000I0J-250000D01*
G01*
X127900000Y-32150000D01*
G75*
G02*
X127650000Y-32400000I-250000J0D01*
G01*
G37*
G04 #@! TD.AperFunction*
G04 #@! TA.AperFunction,SMDPad,CuDef*
G36*
G01*
X107250000Y-54550000D02*
X106350000Y-54550000D01*
G75*
G02*
X106100000Y-54300000I0J250000D01*
G01*
X106100000Y-53600000D01*
G75*
G02*
X106350000Y-53350000I250000J0D01*
G01*
X107250000Y-53350000D01*
G75*
G02*
X107500000Y-53600000I0J-250000D01*
G01*
X107500000Y-54300000D01*
G75*
G02*
X107250000Y-54550000I-250000J0D01*
G01*
G37*
G04 #@! TD.AperFunction*
G04 #@! TA.AperFunction,SMDPad,CuDef*
G36*
G01*
X107250000Y-52550000D02*
X106350000Y-52550000D01*
G75*
G02*
X106100000Y-52300000I0J250000D01*
G01*
X106100000Y-51600000D01*
G75*
G02*
X106350000Y-51350000I250000J0D01*
G01*
X107250000Y-51350000D01*
G75*
G02*
X107500000Y-51600000I0J-250000D01*
G01*
X107500000Y-52300000D01*
G75*
G02*
X107250000Y-52550000I-250000J0D01*
G01*
G37*
G04 #@! TD.AperFunction*
G04 #@! TA.AperFunction,SMDPad,CuDef*
G36*
G01*
X110935000Y-28845000D02*
X110935000Y-29795000D01*
G75*
G02*
X110685000Y-30045000I-250000J0D01*
G01*
X110010000Y-30045000D01*
G75*
G02*
X109760000Y-29795000I0J250000D01*
G01*
X109760000Y-28845000D01*
G75*
G02*
X110010000Y-28595000I250000J0D01*
G01*
X110685000Y-28595000D01*
G75*
G02*
X110935000Y-28845000I0J-250000D01*
G01*
G37*
G04 #@! TD.AperFunction*
G04 #@! TA.AperFunction,SMDPad,CuDef*
G36*
G01*
X108860000Y-28845000D02*
X108860000Y-29795000D01*
G75*
G02*
X108610000Y-30045000I-250000J0D01*
G01*
X107935000Y-30045000D01*
G75*
G02*
X107685000Y-29795000I0J250000D01*
G01*
X107685000Y-28845000D01*
G75*
G02*
X107935000Y-28595000I250000J0D01*
G01*
X108610000Y-28595000D01*
G75*
G02*
X108860000Y-28845000I0J-250000D01*
G01*
G37*
G04 #@! TD.AperFunction*
D11*
X132800000Y-35475000D03*
D12*
X135340000Y-35475000D03*
X132800000Y-38015000D03*
X135340000Y-38015000D03*
X132800000Y-40555000D03*
X135340000Y-40555000D03*
X132800000Y-43095000D03*
X135340000Y-43095000D03*
X132800000Y-45635000D03*
X135340000Y-45635000D03*
X132800000Y-48175000D03*
X135340000Y-48175000D03*
X132800000Y-50715000D03*
X135340000Y-50715000D03*
X132800000Y-53255000D03*
X135340000Y-53255000D03*
G04 #@! TA.AperFunction,SMDPad,CuDef*
G36*
G01*
X124050000Y-54800000D02*
X123150000Y-54800000D01*
G75*
G02*
X122900000Y-54550000I0J250000D01*
G01*
X122900000Y-53850000D01*
G75*
G02*
X123150000Y-53600000I250000J0D01*
G01*
X124050000Y-53600000D01*
G75*
G02*
X124300000Y-53850000I0J-250000D01*
G01*
X124300000Y-54550000D01*
G75*
G02*
X124050000Y-54800000I-250000J0D01*
G01*
G37*
G04 #@! TD.AperFunction*
G04 #@! TA.AperFunction,SMDPad,CuDef*
G36*
G01*
X124050000Y-52800000D02*
X123150000Y-52800000D01*
G75*
G02*
X122900000Y-52550000I0J250000D01*
G01*
X122900000Y-51850000D01*
G75*
G02*
X123150000Y-51600000I250000J0D01*
G01*
X124050000Y-51600000D01*
G75*
G02*
X124300000Y-51850000I0J-250000D01*
G01*
X124300000Y-52550000D01*
G75*
G02*
X124050000Y-52800000I-250000J0D01*
G01*
G37*
G04 #@! TD.AperFunction*
G04 #@! TA.AperFunction,SMDPad,CuDef*
G36*
G01*
X118535000Y-29795000D02*
X118535000Y-28845000D01*
G75*
G02*
X118785000Y-28595000I250000J0D01*
G01*
X119460000Y-28595000D01*
G75*
G02*
X119710000Y-28845000I0J-250000D01*
G01*
X119710000Y-29795000D01*
G75*
G02*
X119460000Y-30045000I-250000J0D01*
G01*
X118785000Y-30045000D01*
G75*
G02*
X118535000Y-29795000I0J250000D01*
G01*
G37*
G04 #@! TD.AperFunction*
G04 #@! TA.AperFunction,SMDPad,CuDef*
G36*
G01*
X120610000Y-29795000D02*
X120610000Y-28845000D01*
G75*
G02*
X120860000Y-28595000I250000J0D01*
G01*
X121535000Y-28595000D01*
G75*
G02*
X121785000Y-28845000I0J-250000D01*
G01*
X121785000Y-29795000D01*
G75*
G02*
X121535000Y-30045000I-250000J0D01*
G01*
X120860000Y-30045000D01*
G75*
G02*
X120610000Y-29795000I0J250000D01*
G01*
G37*
G04 #@! TD.AperFunction*
G04 #@! TA.AperFunction,SMDPad,CuDef*
G36*
G01*
X118500000Y-47375000D02*
X118500000Y-46425000D01*
G75*
G02*
X118750000Y-46175000I250000J0D01*
G01*
X119425000Y-46175000D01*
G75*
G02*
X119675000Y-46425000I0J-250000D01*
G01*
X119675000Y-47375000D01*
G75*
G02*
X119425000Y-47625000I-250000J0D01*
G01*
X118750000Y-47625000D01*
G75*
G02*
X118500000Y-47375000I0J250000D01*
G01*
G37*
G04 #@! TD.AperFunction*
G04 #@! TA.AperFunction,SMDPad,CuDef*
G36*
G01*
X120575000Y-47375000D02*
X120575000Y-46425000D01*
G75*
G02*
X120825000Y-46175000I250000J0D01*
G01*
X121500000Y-46175000D01*
G75*
G02*
X121750000Y-46425000I0J-250000D01*
G01*
X121750000Y-47375000D01*
G75*
G02*
X121500000Y-47625000I-250000J0D01*
G01*
X120825000Y-47625000D01*
G75*
G02*
X120575000Y-47375000I0J250000D01*
G01*
G37*
G04 #@! TD.AperFunction*
G04 #@! TA.AperFunction,SMDPad,CuDef*
G36*
G01*
X104360000Y-31470000D02*
X105260000Y-31470000D01*
G75*
G02*
X105510000Y-31720000I0J-250000D01*
G01*
X105510000Y-32420000D01*
G75*
G02*
X105260000Y-32670000I-250000J0D01*
G01*
X104360000Y-32670000D01*
G75*
G02*
X104110000Y-32420000I0J250000D01*
G01*
X104110000Y-31720000D01*
G75*
G02*
X104360000Y-31470000I250000J0D01*
G01*
G37*
G04 #@! TD.AperFunction*
G04 #@! TA.AperFunction,SMDPad,CuDef*
G36*
G01*
X104360000Y-33470000D02*
X105260000Y-33470000D01*
G75*
G02*
X105510000Y-33720000I0J-250000D01*
G01*
X105510000Y-34420000D01*
G75*
G02*
X105260000Y-34670000I-250000J0D01*
G01*
X104360000Y-34670000D01*
G75*
G02*
X104110000Y-34420000I0J250000D01*
G01*
X104110000Y-33720000D01*
G75*
G02*
X104360000Y-33470000I250000J0D01*
G01*
G37*
G04 #@! TD.AperFunction*
G04 #@! TA.AperFunction,SMDPad,CuDef*
G36*
G01*
X128450000Y-54800000D02*
X127550000Y-54800000D01*
G75*
G02*
X127300000Y-54550000I0J250000D01*
G01*
X127300000Y-53850000D01*
G75*
G02*
X127550000Y-53600000I250000J0D01*
G01*
X128450000Y-53600000D01*
G75*
G02*
X128700000Y-53850000I0J-250000D01*
G01*
X128700000Y-54550000D01*
G75*
G02*
X128450000Y-54800000I-250000J0D01*
G01*
G37*
G04 #@! TD.AperFunction*
G04 #@! TA.AperFunction,SMDPad,CuDef*
G36*
G01*
X128450000Y-52800000D02*
X127550000Y-52800000D01*
G75*
G02*
X127300000Y-52550000I0J250000D01*
G01*
X127300000Y-51850000D01*
G75*
G02*
X127550000Y-51600000I250000J0D01*
G01*
X128450000Y-51600000D01*
G75*
G02*
X128700000Y-51850000I0J-250000D01*
G01*
X128700000Y-52550000D01*
G75*
G02*
X128450000Y-52800000I-250000J0D01*
G01*
G37*
G04 #@! TD.AperFunction*
G04 #@! TA.AperFunction,SMDPad,CuDef*
G36*
G01*
X110925000Y-48775000D02*
X110925000Y-49725000D01*
G75*
G02*
X110675000Y-49975000I-250000J0D01*
G01*
X110000000Y-49975000D01*
G75*
G02*
X109750000Y-49725000I0J250000D01*
G01*
X109750000Y-48775000D01*
G75*
G02*
X110000000Y-48525000I250000J0D01*
G01*
X110675000Y-48525000D01*
G75*
G02*
X110925000Y-48775000I0J-250000D01*
G01*
G37*
G04 #@! TD.AperFunction*
G04 #@! TA.AperFunction,SMDPad,CuDef*
G36*
G01*
X108850000Y-48775000D02*
X108850000Y-49725000D01*
G75*
G02*
X108600000Y-49975000I-250000J0D01*
G01*
X107925000Y-49975000D01*
G75*
G02*
X107675000Y-49725000I0J250000D01*
G01*
X107675000Y-48775000D01*
G75*
G02*
X107925000Y-48525000I250000J0D01*
G01*
X108600000Y-48525000D01*
G75*
G02*
X108850000Y-48775000I0J-250000D01*
G01*
G37*
G04 #@! TD.AperFunction*
G04 #@! TA.AperFunction,SMDPad,CuDef*
G36*
G01*
X104850000Y-59500000D02*
X105750000Y-59500000D01*
G75*
G02*
X106000000Y-59750000I0J-250000D01*
G01*
X106000000Y-60450000D01*
G75*
G02*
X105750000Y-60700000I-250000J0D01*
G01*
X104850000Y-60700000D01*
G75*
G02*
X104600000Y-60450000I0J250000D01*
G01*
X104600000Y-59750000D01*
G75*
G02*
X104850000Y-59500000I250000J0D01*
G01*
G37*
G04 #@! TD.AperFunction*
G04 #@! TA.AperFunction,SMDPad,CuDef*
G36*
G01*
X104850000Y-61500000D02*
X105750000Y-61500000D01*
G75*
G02*
X106000000Y-61750000I0J-250000D01*
G01*
X106000000Y-62450000D01*
G75*
G02*
X105750000Y-62700000I-250000J0D01*
G01*
X104850000Y-62700000D01*
G75*
G02*
X104600000Y-62450000I0J250000D01*
G01*
X104600000Y-61750000D01*
G75*
G02*
X104850000Y-61500000I250000J0D01*
G01*
G37*
G04 #@! TD.AperFunction*
G04 #@! TA.AperFunction,SMDPad,CuDef*
G36*
G01*
X118512500Y-49725000D02*
X118512500Y-48775000D01*
G75*
G02*
X118762500Y-48525000I250000J0D01*
G01*
X119437500Y-48525000D01*
G75*
G02*
X119687500Y-48775000I0J-250000D01*
G01*
X119687500Y-49725000D01*
G75*
G02*
X119437500Y-49975000I-250000J0D01*
G01*
X118762500Y-49975000D01*
G75*
G02*
X118512500Y-49725000I0J250000D01*
G01*
G37*
G04 #@! TD.AperFunction*
G04 #@! TA.AperFunction,SMDPad,CuDef*
G36*
G01*
X120587500Y-49725000D02*
X120587500Y-48775000D01*
G75*
G02*
X120837500Y-48525000I250000J0D01*
G01*
X121512500Y-48525000D01*
G75*
G02*
X121762500Y-48775000I0J-250000D01*
G01*
X121762500Y-49725000D01*
G75*
G02*
X121512500Y-49975000I-250000J0D01*
G01*
X120837500Y-49975000D01*
G75*
G02*
X120587500Y-49725000I0J250000D01*
G01*
G37*
G04 #@! TD.AperFunction*
D13*
X101700000Y-56750000D03*
X107660000Y-56740000D03*
X102150000Y-35450000D03*
X107160000Y-35440000D03*
X106550000Y-42400000D03*
X122810000Y-43130000D03*
X100090000Y-62810000D03*
X126380000Y-62930000D03*
X104640000Y-44400000D03*
X96150000Y-27950000D03*
X109860000Y-62860000D03*
X104800000Y-34100000D03*
X108250000Y-49250000D03*
X109150000Y-42390000D03*
X125080000Y-45140000D03*
X128600000Y-25380000D03*
X121200000Y-29250000D03*
X124670000Y-60310000D03*
X119660000Y-62860000D03*
X121200000Y-49250000D03*
X119810000Y-43130000D03*
D14*
X132800000Y-35475000D02*
X132800000Y-31300000D01*
X122800000Y-30450000D02*
X122800000Y-31800000D01*
X124400000Y-28850000D02*
X122800000Y-30450000D01*
X132800000Y-31300000D02*
X130350000Y-28850000D01*
X130350000Y-28850000D02*
X124400000Y-28850000D01*
X130600000Y-31400000D02*
X129200000Y-30000000D01*
X129200000Y-30000000D02*
X125600000Y-30000000D01*
X132800000Y-38015000D02*
X131415000Y-38015000D01*
X130600000Y-37200000D02*
X130600000Y-31400000D01*
X125000000Y-30600000D02*
X125000000Y-31800000D01*
X131415000Y-38015000D02*
X130600000Y-37200000D01*
X125600000Y-30000000D02*
X125000000Y-30600000D01*
X131055000Y-40555000D02*
X129200000Y-38700000D01*
X132800000Y-40555000D02*
X131055000Y-40555000D01*
X128200000Y-31800000D02*
X127200000Y-31800000D01*
X129200000Y-38700000D02*
X129200000Y-32800000D01*
X129200000Y-32800000D02*
X128200000Y-31800000D01*
X126720000Y-38270000D02*
X130270000Y-41820000D01*
X134075000Y-41820000D02*
X135340000Y-40555000D01*
X130270000Y-41820000D02*
X134075000Y-41820000D01*
X119510000Y-37995000D02*
X123755000Y-37995000D01*
X124020000Y-38260000D02*
X124030000Y-38270000D01*
X124030000Y-38270000D02*
X126720000Y-38270000D01*
X123755000Y-37995000D02*
X124020000Y-38260000D01*
X132800000Y-43095000D02*
X132245000Y-43095000D01*
X123600000Y-51740000D02*
X123600000Y-52200000D01*
X132245000Y-43095000D02*
X123600000Y-51740000D01*
X137100000Y-44855000D02*
X135340000Y-43095000D01*
X137100000Y-54700000D02*
X137100000Y-44855000D01*
X124325000Y-57995000D02*
X124660000Y-58330000D01*
X119510000Y-57995000D02*
X124325000Y-57995000D01*
X133470000Y-58330000D02*
X137100000Y-54700000D01*
X124660000Y-58330000D02*
X133470000Y-58330000D01*
X131625000Y-45635000D02*
X132800000Y-45635000D01*
X125800000Y-52200000D02*
X125800000Y-51460000D01*
X125800000Y-51460000D02*
X131625000Y-45635000D01*
X128000000Y-52200000D02*
X128000000Y-51350000D01*
X131175000Y-48175000D02*
X132800000Y-48175000D01*
X128000000Y-51350000D02*
X131175000Y-48175000D01*
X110195000Y-56740000D02*
X110210000Y-56725000D01*
X101700000Y-49700000D02*
X101700000Y-56750000D01*
X107660000Y-56740000D02*
X110195000Y-56740000D01*
X99050000Y-48195000D02*
X100195000Y-48195000D01*
X100195000Y-48195000D02*
X101700000Y-49700000D01*
X105300000Y-56050000D02*
X105895000Y-55455000D01*
X103200000Y-55600000D02*
X103650000Y-56050000D01*
X103200000Y-49150000D02*
X103200000Y-55600000D01*
X103650000Y-56050000D02*
X105300000Y-56050000D01*
X99050000Y-45655000D02*
X99705000Y-45655000D01*
X99705000Y-45655000D02*
X103200000Y-49150000D01*
X105895000Y-55455000D02*
X110210000Y-55455000D01*
X105600000Y-53950000D02*
X104670000Y-53020000D01*
X110210000Y-54185000D02*
X107035000Y-54185000D01*
X99275000Y-43115000D02*
X99050000Y-43115000D01*
X107035000Y-54185000D02*
X106800000Y-53950000D01*
X104670000Y-48510000D02*
X99275000Y-43115000D01*
X104670000Y-53020000D02*
X104670000Y-48510000D01*
X107300000Y-53950000D02*
X105600000Y-53950000D01*
X94650000Y-54250000D02*
X102500000Y-62100000D01*
X95485000Y-43115000D02*
X94650000Y-43950000D01*
X102500000Y-62100000D02*
X105300000Y-62100000D01*
X96510000Y-43115000D02*
X95485000Y-43115000D01*
X94650000Y-43950000D02*
X94650000Y-54250000D01*
X107875000Y-36725000D02*
X110210000Y-36725000D01*
X99050000Y-40575000D02*
X99975000Y-40575000D01*
X102480000Y-38070000D02*
X104810000Y-38070000D01*
X104810000Y-38070000D02*
X106530000Y-38070000D01*
X99975000Y-40575000D02*
X102480000Y-38070000D01*
X106530000Y-38070000D02*
X107875000Y-36725000D01*
X96510000Y-40575000D02*
X97785000Y-41850000D01*
X103350000Y-41850000D02*
X103560000Y-42060000D01*
X97785000Y-41850000D02*
X103350000Y-41850000D01*
X110195000Y-35440000D02*
X110210000Y-35455000D01*
X99050000Y-38035000D02*
X99565000Y-38035000D01*
X99565000Y-38035000D02*
X102150000Y-35450000D01*
X107160000Y-35440000D02*
X110195000Y-35440000D01*
X102475000Y-32070000D02*
X104810000Y-32070000D01*
X106410000Y-32040000D02*
X104840000Y-32040000D01*
X104840000Y-32040000D02*
X104810000Y-32070000D01*
X108555000Y-34185000D02*
X106410000Y-32040000D01*
X110210000Y-34185000D02*
X108555000Y-34185000D01*
X99050000Y-35495000D02*
X102475000Y-32070000D01*
X119510000Y-34185000D02*
X122415000Y-34185000D01*
X122415000Y-34185000D02*
X122800000Y-33800000D01*
X103570000Y-40070000D02*
X103560000Y-40060000D01*
X106330000Y-40070000D02*
X103570000Y-40070000D01*
X108405000Y-37995000D02*
X110210000Y-37995000D01*
X106330000Y-40070000D02*
X108405000Y-37995000D01*
X125000000Y-34750000D02*
X125000000Y-33800000D01*
X124295000Y-35455000D02*
X125000000Y-34750000D01*
X119510000Y-35455000D02*
X124295000Y-35455000D01*
X125330000Y-36800000D02*
X127200000Y-34930000D01*
X119510000Y-36725000D02*
X119585000Y-36800000D01*
X119585000Y-36800000D02*
X125330000Y-36800000D01*
X127200000Y-34930000D02*
X127200000Y-33800000D01*
X119510000Y-54185000D02*
X123585000Y-54185000D01*
X123585000Y-54185000D02*
X123600000Y-54200000D01*
X108750000Y-58000000D02*
X110205000Y-58000000D01*
X105300000Y-60100000D02*
X106650000Y-60100000D01*
X106650000Y-60100000D02*
X108750000Y-58000000D01*
X110205000Y-58000000D02*
X110210000Y-57995000D01*
X119510000Y-55455000D02*
X125445000Y-55455000D01*
X125445000Y-55455000D02*
X125800000Y-55100000D01*
X125800000Y-55100000D02*
X125800000Y-54200000D01*
X128000000Y-55650000D02*
X128000000Y-54200000D01*
X119510000Y-56725000D02*
X126925000Y-56725000D01*
X126925000Y-56725000D02*
X128000000Y-55650000D01*
X106550000Y-41720000D02*
X106550000Y-42400000D01*
X109005000Y-39265000D02*
X110210000Y-39265000D01*
X109005000Y-39265000D02*
X106550000Y-41720000D01*
X121800000Y-39950000D02*
X121800000Y-42120000D01*
X121115000Y-39265000D02*
X121800000Y-39950000D01*
X119510000Y-39265000D02*
X121115000Y-39265000D01*
X121800000Y-42120000D02*
X122810000Y-43130000D01*
X110210000Y-59265000D02*
X109055000Y-59265000D01*
X107940000Y-62660000D02*
X106890000Y-63710000D01*
X107940000Y-60380000D02*
X107940000Y-62660000D01*
X100990000Y-63710000D02*
X100090000Y-62810000D01*
X106890000Y-63710000D02*
X100990000Y-63710000D01*
X109055000Y-59265000D02*
X107940000Y-60380000D01*
X121730000Y-61900000D02*
X122760000Y-62930000D01*
X121145000Y-59265000D02*
X121730000Y-59850000D01*
X122760000Y-62930000D02*
X126380000Y-62930000D01*
X119510000Y-59265000D02*
X121145000Y-59265000D01*
X121730000Y-59850000D02*
X121730000Y-61900000D01*
X110347500Y-25747500D02*
X110347500Y-27020000D01*
X109300000Y-44400000D02*
X110325000Y-45425000D01*
X110347500Y-27020000D02*
X110347500Y-29320000D01*
X110325000Y-46950000D02*
X110325000Y-49237500D01*
X110325000Y-49237500D02*
X110337500Y-49250000D01*
X104640000Y-44400000D02*
X109300000Y-44400000D01*
X110337500Y-51517500D02*
X110210000Y-51645000D01*
X99200000Y-24900000D02*
X109500000Y-24900000D01*
X110347500Y-29320000D02*
X110347500Y-31507500D01*
X110347500Y-31507500D02*
X110210000Y-31645000D01*
X110325000Y-45425000D02*
X110325000Y-46950000D01*
X109500000Y-24900000D02*
X110347500Y-25747500D01*
X110337500Y-49250000D02*
X110337500Y-51517500D01*
X96150000Y-27950000D02*
X99200000Y-24900000D01*
X119150000Y-27005000D02*
X119135000Y-27020000D01*
X119350000Y-49500000D02*
X119100000Y-49250000D01*
X119122500Y-29320000D02*
X119122500Y-27032500D01*
X119350000Y-51485000D02*
X119350000Y-49500000D01*
X128600000Y-25380000D02*
X128580000Y-25400000D01*
X119087500Y-45812500D02*
X119087500Y-46900000D01*
X128580000Y-25400000D02*
X119550000Y-25400000D01*
X119100000Y-49250000D02*
X119100000Y-46912500D01*
X119510000Y-31645000D02*
X119510000Y-29707500D01*
X119122500Y-27032500D02*
X119135000Y-27020000D01*
X119150000Y-25800000D02*
X119150000Y-27005000D01*
X119510000Y-51645000D02*
X119350000Y-51485000D01*
X119100000Y-46912500D02*
X119087500Y-46900000D01*
X119790000Y-45110000D02*
X119087500Y-45812500D01*
X125050000Y-45110000D02*
X119790000Y-45110000D01*
X119550000Y-25400000D02*
X119150000Y-25800000D01*
X125080000Y-45140000D02*
X125050000Y-45110000D01*
X119510000Y-29707500D02*
X119122500Y-29320000D01*
G04 #@! TA.AperFunction,Conductor*
G36*
X110796288Y-23469454D02*
G01*
X110877070Y-23523430D01*
X110931046Y-23604212D01*
X110950000Y-23699500D01*
X110950000Y-24828914D01*
X110931046Y-24924202D01*
X110877070Y-25004984D01*
X110796288Y-25058960D01*
X110701000Y-25077914D01*
X110605712Y-25058960D01*
X110524930Y-25004984D01*
X110014055Y-24494109D01*
X110010067Y-24489726D01*
X110005202Y-24482060D01*
X109955627Y-24435506D01*
X109950010Y-24430064D01*
X109931035Y-24411089D01*
X109924850Y-24406291D01*
X109922327Y-24404067D01*
X109916538Y-24398799D01*
X109896813Y-24380276D01*
X109885393Y-24369552D01*
X109871666Y-24362006D01*
X109865905Y-24357820D01*
X109852277Y-24348868D01*
X109846143Y-24345241D01*
X109833764Y-24335638D01*
X109797281Y-24319851D01*
X109776219Y-24309532D01*
X109755096Y-24297920D01*
X109755095Y-24297920D01*
X109741368Y-24290373D01*
X109726200Y-24286479D01*
X109719571Y-24283854D01*
X109704153Y-24278576D01*
X109697298Y-24276584D01*
X109682926Y-24270365D01*
X109667461Y-24267915D01*
X109667456Y-24267914D01*
X109643663Y-24264146D01*
X109620692Y-24259389D01*
X109597348Y-24253395D01*
X109597346Y-24253395D01*
X109582177Y-24249500D01*
X109566513Y-24249500D01*
X109559443Y-24248607D01*
X109543195Y-24247328D01*
X109536069Y-24247104D01*
X109520595Y-24244653D01*
X109505002Y-24246127D01*
X109505000Y-24246127D01*
X109481011Y-24248395D01*
X109457577Y-24249500D01*
X99276491Y-24249500D01*
X99270563Y-24249220D01*
X99261703Y-24247240D01*
X99246047Y-24247732D01*
X99193710Y-24249377D01*
X99185888Y-24249500D01*
X99159075Y-24249500D01*
X99151310Y-24250481D01*
X99147951Y-24250692D01*
X99140144Y-24251060D01*
X99121137Y-24251658D01*
X99097430Y-24252403D01*
X99082389Y-24256773D01*
X99075342Y-24257889D01*
X99059393Y-24261192D01*
X99052485Y-24262966D01*
X99036942Y-24264929D01*
X98999980Y-24279563D01*
X98977797Y-24287158D01*
X98954644Y-24293885D01*
X98954641Y-24293886D01*
X98939601Y-24298256D01*
X98926119Y-24306229D01*
X98919580Y-24309059D01*
X98904951Y-24316225D01*
X98898691Y-24319666D01*
X98884129Y-24325432D01*
X98871457Y-24334639D01*
X98871451Y-24334642D01*
X98851960Y-24348803D01*
X98832361Y-24361678D01*
X98798135Y-24381919D01*
X98787061Y-24392993D01*
X98781448Y-24397347D01*
X98769052Y-24407933D01*
X98763843Y-24412825D01*
X98751163Y-24422037D01*
X98741176Y-24434109D01*
X98741173Y-24434112D01*
X98725827Y-24452663D01*
X98710039Y-24470015D01*
X96497564Y-26682490D01*
X96416782Y-26736466D01*
X96321494Y-26755420D01*
X96295464Y-26754056D01*
X96287225Y-26753190D01*
X96276024Y-26750962D01*
X96148480Y-26749292D01*
X96066812Y-26748223D01*
X96066809Y-26748223D01*
X96055406Y-26748074D01*
X95961747Y-26764167D01*
X95849210Y-26783504D01*
X95849206Y-26783505D01*
X95837957Y-26785438D01*
X95827243Y-26789390D01*
X95827245Y-26789390D01*
X95641666Y-26857853D01*
X95641664Y-26857854D01*
X95630957Y-26861804D01*
X95441341Y-26974614D01*
X95432756Y-26982143D01*
X95284038Y-27112564D01*
X95284034Y-27112568D01*
X95275457Y-27120090D01*
X95138863Y-27293360D01*
X95036131Y-27488620D01*
X94970703Y-27699333D01*
X94944770Y-27918440D01*
X94947711Y-27963311D01*
X94955829Y-28087166D01*
X94959200Y-28138604D01*
X94962009Y-28149665D01*
X94962010Y-28149670D01*
X94985527Y-28242265D01*
X95013511Y-28352452D01*
X95018289Y-28362816D01*
X95018290Y-28362819D01*
X95024208Y-28375655D01*
X95105883Y-28552821D01*
X95233222Y-28733002D01*
X95241394Y-28740963D01*
X95241395Y-28740964D01*
X95383082Y-28878991D01*
X95383086Y-28878994D01*
X95391264Y-28886961D01*
X95574717Y-29009540D01*
X95585207Y-29014047D01*
X95585209Y-29014048D01*
X95715441Y-29070000D01*
X95777436Y-29096635D01*
X95992632Y-29145329D01*
X96102865Y-29149660D01*
X96201687Y-29153543D01*
X96201691Y-29153543D01*
X96213098Y-29153991D01*
X96356662Y-29133175D01*
X96420149Y-29123970D01*
X96420150Y-29123970D01*
X96431452Y-29122331D01*
X96442260Y-29118662D01*
X96442265Y-29118661D01*
X96582543Y-29071043D01*
X96640379Y-29051410D01*
X96650980Y-29045473D01*
X107185000Y-29045473D01*
X107189069Y-29065931D01*
X107209527Y-29070000D01*
X107997973Y-29070000D01*
X108018431Y-29065931D01*
X108022500Y-29045473D01*
X108022500Y-27294527D01*
X108018431Y-27274069D01*
X107997973Y-27270000D01*
X107209528Y-27270000D01*
X107189070Y-27274069D01*
X107185001Y-27294527D01*
X107185001Y-27538391D01*
X107185666Y-27551240D01*
X107194445Y-27635868D01*
X107200163Y-27662339D01*
X107246622Y-27801594D01*
X107258811Y-27827615D01*
X107335618Y-27951734D01*
X107353464Y-27974250D01*
X107373080Y-27993832D01*
X107427127Y-28074566D01*
X107446164Y-28169838D01*
X107427293Y-28265143D01*
X107373387Y-28345971D01*
X107352633Y-28366761D01*
X107334819Y-28389317D01*
X107258230Y-28513567D01*
X107246088Y-28539606D01*
X107199865Y-28678966D01*
X107194197Y-28705402D01*
X107185647Y-28788846D01*
X107185000Y-28801515D01*
X107185000Y-29045473D01*
X96650980Y-29045473D01*
X96832884Y-28943602D01*
X97002518Y-28802518D01*
X97143602Y-28632884D01*
X97251410Y-28440379D01*
X97285013Y-28341388D01*
X97318661Y-28242265D01*
X97318662Y-28242260D01*
X97322331Y-28231452D01*
X97331252Y-28169929D01*
X97352938Y-28020360D01*
X97353991Y-28013098D01*
X97355643Y-27950000D01*
X97342285Y-27804630D01*
X97352440Y-27708008D01*
X97398798Y-27622626D01*
X97414170Y-27605776D01*
X99396516Y-25623430D01*
X99477298Y-25569454D01*
X99572586Y-25550500D01*
X107267596Y-25550500D01*
X107362884Y-25569454D01*
X107443666Y-25623430D01*
X107497642Y-25704212D01*
X107516596Y-25799500D01*
X107497642Y-25894788D01*
X107443819Y-25975416D01*
X107352633Y-26066761D01*
X107334819Y-26089317D01*
X107258230Y-26213567D01*
X107246088Y-26239606D01*
X107199865Y-26378966D01*
X107194197Y-26405402D01*
X107185647Y-26488846D01*
X107185000Y-26501515D01*
X107185000Y-26745473D01*
X107189069Y-26765931D01*
X107209527Y-26770000D01*
X108273500Y-26770000D01*
X108368788Y-26788954D01*
X108449570Y-26842930D01*
X108503546Y-26923712D01*
X108522500Y-27019000D01*
X108522500Y-30520472D01*
X108526569Y-30540930D01*
X108547027Y-30544999D01*
X108653391Y-30544999D01*
X108666242Y-30544334D01*
X108754589Y-30535169D01*
X108851324Y-30544189D01*
X108937244Y-30589542D01*
X108999268Y-30664322D01*
X109027954Y-30757146D01*
X109018934Y-30853881D01*
X108973581Y-30939801D01*
X108939438Y-30973192D01*
X108933135Y-30976919D01*
X108816919Y-31093135D01*
X108808946Y-31106617D01*
X108808945Y-31106618D01*
X108741229Y-31221120D01*
X108733256Y-31234602D01*
X108687402Y-31392431D01*
X108686404Y-31405116D01*
X108686403Y-31405120D01*
X108685801Y-31412771D01*
X108684500Y-31429306D01*
X108684500Y-31860694D01*
X108687402Y-31897569D01*
X108733256Y-32055398D01*
X108741228Y-32068879D01*
X108741229Y-32068880D01*
X108791415Y-32153740D01*
X108823606Y-32245407D01*
X108818267Y-32342415D01*
X108791415Y-32407243D01*
X108741690Y-32491324D01*
X108729348Y-32519844D01*
X108691451Y-32650286D01*
X108691044Y-32652515D01*
X108692080Y-32661263D01*
X108705331Y-32665000D01*
X110211000Y-32665000D01*
X110306288Y-32683954D01*
X110387070Y-32737930D01*
X110441046Y-32818712D01*
X110460000Y-32914000D01*
X110460000Y-32916000D01*
X110441046Y-33011288D01*
X110387070Y-33092070D01*
X110306288Y-33146046D01*
X110211000Y-33165000D01*
X108712231Y-33165000D01*
X108651869Y-33177007D01*
X108631784Y-33185327D01*
X108534629Y-33185330D01*
X108444868Y-33148153D01*
X108407129Y-33117183D01*
X106924055Y-31634109D01*
X106920067Y-31629726D01*
X106915202Y-31622060D01*
X106865627Y-31575506D01*
X106860010Y-31570064D01*
X106841035Y-31551089D01*
X106834850Y-31546291D01*
X106832327Y-31544067D01*
X106826538Y-31538799D01*
X106806813Y-31520276D01*
X106795393Y-31509552D01*
X106781666Y-31502006D01*
X106775905Y-31497820D01*
X106762277Y-31488868D01*
X106756143Y-31485241D01*
X106743764Y-31475638D01*
X106707281Y-31459851D01*
X106686219Y-31449532D01*
X106665096Y-31437920D01*
X106665095Y-31437920D01*
X106651368Y-31430373D01*
X106636200Y-31426479D01*
X106629571Y-31423854D01*
X106614153Y-31418576D01*
X106607298Y-31416584D01*
X106592926Y-31410365D01*
X106577461Y-31407915D01*
X106577456Y-31407914D01*
X106553663Y-31404146D01*
X106530692Y-31399389D01*
X106507348Y-31393395D01*
X106507346Y-31393395D01*
X106492177Y-31389500D01*
X106476513Y-31389500D01*
X106469443Y-31388607D01*
X106453195Y-31387328D01*
X106446069Y-31387104D01*
X106430595Y-31384653D01*
X106415002Y-31386127D01*
X106415000Y-31386127D01*
X106391011Y-31388395D01*
X106367577Y-31389500D01*
X106076820Y-31389500D01*
X105981532Y-31370546D01*
X105900750Y-31316570D01*
X105865082Y-31271527D01*
X105859776Y-31262953D01*
X105852166Y-31250655D01*
X105728311Y-31127016D01*
X105715997Y-31119426D01*
X105715995Y-31119424D01*
X105591654Y-31042780D01*
X105591653Y-31042780D01*
X105579334Y-31035186D01*
X105497931Y-31008185D01*
X105426136Y-30984371D01*
X105426132Y-30984370D01*
X105413228Y-30980090D01*
X105396366Y-30978362D01*
X105316185Y-30970147D01*
X105316177Y-30970147D01*
X105309866Y-30969500D01*
X104310134Y-30969500D01*
X104303738Y-30970164D01*
X104303731Y-30970164D01*
X104219029Y-30978953D01*
X104219027Y-30978953D01*
X104205481Y-30980359D01*
X104192568Y-30984667D01*
X104192564Y-30984668D01*
X104054800Y-31030630D01*
X104039471Y-31035744D01*
X104027174Y-31043354D01*
X104027171Y-31043355D01*
X103964625Y-31082060D01*
X103890655Y-31127834D01*
X103767016Y-31251689D01*
X103736523Y-31301158D01*
X103670390Y-31372327D01*
X103582053Y-31412771D01*
X103524558Y-31419500D01*
X102551491Y-31419500D01*
X102545563Y-31419220D01*
X102536703Y-31417240D01*
X102521047Y-31417732D01*
X102468710Y-31419377D01*
X102460888Y-31419500D01*
X102434075Y-31419500D01*
X102426310Y-31420481D01*
X102422951Y-31420692D01*
X102415144Y-31421060D01*
X102396137Y-31421658D01*
X102372430Y-31422403D01*
X102357389Y-31426773D01*
X102350342Y-31427889D01*
X102334393Y-31431192D01*
X102327485Y-31432966D01*
X102311942Y-31434929D01*
X102275058Y-31449532D01*
X102274980Y-31449563D01*
X102252797Y-31457158D01*
X102229644Y-31463885D01*
X102229641Y-31463886D01*
X102214601Y-31468256D01*
X102201119Y-31476229D01*
X102194580Y-31479059D01*
X102179951Y-31486225D01*
X102173691Y-31489666D01*
X102159129Y-31495432D01*
X102146457Y-31504639D01*
X102146451Y-31504642D01*
X102126960Y-31518803D01*
X102107361Y-31531678D01*
X102073135Y-31551919D01*
X102062061Y-31562993D01*
X102056448Y-31567347D01*
X102044052Y-31577933D01*
X102038843Y-31582825D01*
X102026163Y-31592037D01*
X102016176Y-31604109D01*
X102016173Y-31604112D01*
X102000827Y-31622663D01*
X101985039Y-31640015D01*
X99528794Y-34096260D01*
X99448012Y-34150236D01*
X99352724Y-34169190D01*
X99306883Y-34163155D01*
X99306621Y-34164639D01*
X99295904Y-34162750D01*
X99285408Y-34159937D01*
X99274579Y-34158990D01*
X99274576Y-34158989D01*
X99060835Y-34140289D01*
X99050000Y-34139341D01*
X99039165Y-34140289D01*
X98825426Y-34158989D01*
X98825425Y-34158989D01*
X98814592Y-34159937D01*
X98586337Y-34221097D01*
X98576484Y-34225691D01*
X98576480Y-34225693D01*
X98434760Y-34291779D01*
X98372171Y-34320965D01*
X98178599Y-34456505D01*
X98011505Y-34623599D01*
X98005269Y-34632505D01*
X97983662Y-34663363D01*
X97913480Y-34730546D01*
X97822931Y-34765758D01*
X97725799Y-34763638D01*
X97636872Y-34724509D01*
X97575724Y-34663360D01*
X97554345Y-34632827D01*
X97540424Y-34616236D01*
X97388761Y-34464573D01*
X97372177Y-34450657D01*
X97196478Y-34327631D01*
X97177732Y-34316808D01*
X96983343Y-34226163D01*
X96962986Y-34218754D01*
X96783691Y-34170712D01*
X96762877Y-34169348D01*
X96760989Y-34173175D01*
X96760000Y-34180689D01*
X96760000Y-38036000D01*
X96741046Y-38131288D01*
X96687070Y-38212070D01*
X96606288Y-38266046D01*
X96511000Y-38285000D01*
X95203891Y-38285000D01*
X95183433Y-38289069D01*
X95182600Y-38293257D01*
X95183590Y-38300771D01*
X95233754Y-38487985D01*
X95241166Y-38508348D01*
X95331805Y-38702725D01*
X95342635Y-38721482D01*
X95465653Y-38897170D01*
X95479576Y-38913764D01*
X95631239Y-39065427D01*
X95647826Y-39079345D01*
X95678362Y-39100727D01*
X95745546Y-39170909D01*
X95780758Y-39261459D01*
X95778637Y-39358591D01*
X95739508Y-39447517D01*
X95678363Y-39508662D01*
X95638599Y-39536505D01*
X95471505Y-39703599D01*
X95335965Y-39897171D01*
X95331369Y-39907027D01*
X95258825Y-40062598D01*
X95236097Y-40111337D01*
X95174937Y-40339592D01*
X95173989Y-40350425D01*
X95173989Y-40350426D01*
X95166265Y-40438712D01*
X95154341Y-40575000D01*
X95157779Y-40614298D01*
X95173452Y-40793430D01*
X95174937Y-40810408D01*
X95236097Y-41038663D01*
X95240691Y-41048516D01*
X95240693Y-41048520D01*
X95307417Y-41191608D01*
X95335965Y-41252829D01*
X95471505Y-41446401D01*
X95638599Y-41613495D01*
X95647501Y-41619728D01*
X95647503Y-41619730D01*
X95677923Y-41641030D01*
X95745108Y-41711211D01*
X95780321Y-41801760D01*
X95778202Y-41898892D01*
X95739074Y-41987819D01*
X95677926Y-42048968D01*
X95638599Y-42076505D01*
X95471505Y-42243599D01*
X95361992Y-42400000D01*
X95346209Y-42422541D01*
X95276028Y-42489725D01*
X95241133Y-42508241D01*
X95239643Y-42508886D01*
X95224601Y-42513256D01*
X95211114Y-42521232D01*
X95204573Y-42524063D01*
X95189951Y-42531225D01*
X95183691Y-42534666D01*
X95169129Y-42540432D01*
X95156457Y-42549639D01*
X95156451Y-42549642D01*
X95136960Y-42563803D01*
X95117361Y-42576678D01*
X95083135Y-42596919D01*
X95072061Y-42607993D01*
X95066448Y-42612347D01*
X95054052Y-42622933D01*
X95048843Y-42627825D01*
X95036163Y-42637037D01*
X95026176Y-42649109D01*
X95026173Y-42649112D01*
X95010827Y-42667663D01*
X94995039Y-42685015D01*
X94244109Y-43435945D01*
X94239726Y-43439933D01*
X94232060Y-43444798D01*
X94221335Y-43456219D01*
X94185507Y-43494372D01*
X94180064Y-43499990D01*
X94161089Y-43518965D01*
X94156291Y-43525150D01*
X94154067Y-43527673D01*
X94148805Y-43533456D01*
X94119552Y-43564607D01*
X94112006Y-43578334D01*
X94107820Y-43584095D01*
X94098868Y-43597723D01*
X94095241Y-43603857D01*
X94085638Y-43616236D01*
X94079417Y-43630613D01*
X94069853Y-43652714D01*
X94059532Y-43673781D01*
X94057999Y-43676570D01*
X94040373Y-43708632D01*
X94036479Y-43723800D01*
X94033854Y-43730429D01*
X94028576Y-43745847D01*
X94026584Y-43752702D01*
X94020365Y-43767074D01*
X94017915Y-43782539D01*
X94017914Y-43782544D01*
X94014146Y-43806337D01*
X94009389Y-43829308D01*
X94004899Y-43846797D01*
X93999500Y-43867823D01*
X93999500Y-43883487D01*
X93998607Y-43890557D01*
X93997328Y-43906805D01*
X93997104Y-43913931D01*
X93994653Y-43929405D01*
X93996127Y-43944998D01*
X93996127Y-43945000D01*
X93998395Y-43968989D01*
X93999500Y-43992423D01*
X93999500Y-54173508D01*
X93999220Y-54179436D01*
X93997240Y-54188296D01*
X93997732Y-54203952D01*
X93999377Y-54256289D01*
X93999500Y-54264111D01*
X93999500Y-54290925D01*
X94000480Y-54298685D01*
X94000693Y-54302072D01*
X94001061Y-54309875D01*
X94002403Y-54352569D01*
X94006774Y-54367614D01*
X94007892Y-54374672D01*
X94011193Y-54390611D01*
X94012966Y-54397515D01*
X94014929Y-54413058D01*
X94026535Y-54442369D01*
X94029563Y-54450017D01*
X94037164Y-54472218D01*
X94040165Y-54482546D01*
X94048256Y-54510398D01*
X94056232Y-54523885D01*
X94059066Y-54530434D01*
X94066231Y-54545060D01*
X94069666Y-54551309D01*
X94075432Y-54565871D01*
X94084637Y-54578541D01*
X94084639Y-54578544D01*
X94098802Y-54598037D01*
X94111677Y-54617638D01*
X94131919Y-54651865D01*
X94142997Y-54662943D01*
X94147361Y-54668569D01*
X94157933Y-54680948D01*
X94162825Y-54686157D01*
X94172037Y-54698837D01*
X94184109Y-54708824D01*
X94184112Y-54708827D01*
X94202663Y-54724173D01*
X94220015Y-54739961D01*
X100743946Y-61263892D01*
X100797922Y-61344674D01*
X100816876Y-61439962D01*
X100797922Y-61535250D01*
X100743946Y-61616032D01*
X100663164Y-61670008D01*
X100567876Y-61688962D01*
X100475607Y-61671235D01*
X100443030Y-61658238D01*
X100443025Y-61658236D01*
X100432421Y-61654006D01*
X100379624Y-61643504D01*
X100227216Y-61613188D01*
X100227214Y-61613188D01*
X100216024Y-61610962D01*
X100096275Y-61609394D01*
X100006812Y-61608223D01*
X100006809Y-61608223D01*
X99995406Y-61608074D01*
X99901747Y-61624167D01*
X99789210Y-61643504D01*
X99789206Y-61643505D01*
X99777957Y-61645438D01*
X99743261Y-61658238D01*
X99581666Y-61717853D01*
X99581664Y-61717854D01*
X99570957Y-61721804D01*
X99381341Y-61834614D01*
X99372756Y-61842143D01*
X99224038Y-61972564D01*
X99224034Y-61972568D01*
X99215457Y-61980090D01*
X99078863Y-62153360D01*
X98976131Y-62348620D01*
X98972747Y-62359519D01*
X98972746Y-62359521D01*
X98948695Y-62436978D01*
X98910703Y-62559333D01*
X98909361Y-62570672D01*
X98892915Y-62709627D01*
X98884770Y-62778440D01*
X98886839Y-62810000D01*
X98893117Y-62905788D01*
X98899200Y-62998604D01*
X98902009Y-63009665D01*
X98902010Y-63009670D01*
X98938610Y-63153781D01*
X98953511Y-63212452D01*
X99045883Y-63412821D01*
X99173222Y-63593002D01*
X99181394Y-63600963D01*
X99181395Y-63600964D01*
X99323082Y-63738991D01*
X99323086Y-63738994D01*
X99331264Y-63746961D01*
X99340760Y-63753306D01*
X99415827Y-63803464D01*
X99484526Y-63872163D01*
X99521705Y-63961922D01*
X99521706Y-64059077D01*
X99484526Y-64148837D01*
X99415827Y-64217536D01*
X99326068Y-64254715D01*
X99277490Y-64259500D01*
X93199500Y-64259500D01*
X93104212Y-64240546D01*
X93023430Y-64186570D01*
X92969454Y-64105788D01*
X92950500Y-64010500D01*
X92950500Y-35753257D01*
X95182600Y-35753257D01*
X95183590Y-35760771D01*
X95233754Y-35947985D01*
X95241166Y-35968348D01*
X95331805Y-36162725D01*
X95342635Y-36181482D01*
X95465653Y-36357170D01*
X95479576Y-36373764D01*
X95631239Y-36525427D01*
X95647825Y-36539344D01*
X95678796Y-36561030D01*
X95745980Y-36631211D01*
X95781194Y-36721760D01*
X95779075Y-36818892D01*
X95739947Y-36907819D01*
X95678798Y-36968968D01*
X95647833Y-36990650D01*
X95631236Y-37004576D01*
X95479576Y-37156236D01*
X95465653Y-37172830D01*
X95342635Y-37348518D01*
X95331805Y-37367275D01*
X95241166Y-37561652D01*
X95233754Y-37582015D01*
X95185712Y-37761309D01*
X95184348Y-37782123D01*
X95188175Y-37784011D01*
X95195689Y-37785000D01*
X96235473Y-37785000D01*
X96255931Y-37780931D01*
X96260000Y-37760473D01*
X96260000Y-35769527D01*
X96255931Y-35749069D01*
X96235473Y-35745000D01*
X95203891Y-35745000D01*
X95183433Y-35749069D01*
X95182600Y-35753257D01*
X92950500Y-35753257D01*
X92950500Y-35242123D01*
X95184348Y-35242123D01*
X95188175Y-35244011D01*
X95195689Y-35245000D01*
X96235473Y-35245000D01*
X96255931Y-35240931D01*
X96260000Y-35220473D01*
X96260000Y-34188891D01*
X96255931Y-34168433D01*
X96251743Y-34167600D01*
X96244229Y-34168590D01*
X96057015Y-34218754D01*
X96036652Y-34226166D01*
X95842275Y-34316805D01*
X95823518Y-34327635D01*
X95647830Y-34450653D01*
X95631236Y-34464576D01*
X95479576Y-34616236D01*
X95465653Y-34632830D01*
X95342635Y-34808518D01*
X95331805Y-34827275D01*
X95241166Y-35021652D01*
X95233754Y-35042015D01*
X95185712Y-35221309D01*
X95184348Y-35242123D01*
X92950500Y-35242123D01*
X92950500Y-29838391D01*
X107185001Y-29838391D01*
X107185666Y-29851240D01*
X107194445Y-29935868D01*
X107200163Y-29962339D01*
X107246622Y-30101594D01*
X107258811Y-30127615D01*
X107335618Y-30251734D01*
X107353464Y-30274250D01*
X107456761Y-30377366D01*
X107479317Y-30395181D01*
X107603567Y-30471770D01*
X107629606Y-30483912D01*
X107768966Y-30530135D01*
X107795402Y-30535803D01*
X107878846Y-30544353D01*
X107891515Y-30545000D01*
X107997973Y-30545000D01*
X108018431Y-30540931D01*
X108022500Y-30520473D01*
X108022500Y-29594527D01*
X108018431Y-29574069D01*
X107997973Y-29570000D01*
X107209528Y-29570000D01*
X107189070Y-29574069D01*
X107185001Y-29594527D01*
X107185001Y-29838391D01*
X92950500Y-29838391D01*
X92950500Y-23699500D01*
X92969454Y-23604212D01*
X93023430Y-23523430D01*
X93104212Y-23469454D01*
X93199500Y-23450500D01*
X110701000Y-23450500D01*
X110796288Y-23469454D01*
G37*
G04 #@! TD.AperFunction*
G04 #@! TA.AperFunction,Conductor*
G36*
X110306288Y-60303954D02*
G01*
X110387070Y-60357930D01*
X110441046Y-60438712D01*
X110460000Y-60534000D01*
X110460000Y-61310473D01*
X110464069Y-61330931D01*
X110484527Y-61335000D01*
X110701000Y-61335000D01*
X110796288Y-61353954D01*
X110877070Y-61407930D01*
X110931046Y-61488712D01*
X110950000Y-61584000D01*
X110950000Y-64010500D01*
X110931046Y-64105788D01*
X110877070Y-64186570D01*
X110796288Y-64240546D01*
X110701000Y-64259500D01*
X107861586Y-64259500D01*
X107766298Y-64240546D01*
X107685516Y-64186570D01*
X107631540Y-64105788D01*
X107612586Y-64010500D01*
X107631540Y-63915212D01*
X107685516Y-63834430D01*
X108345891Y-63174055D01*
X108350274Y-63170067D01*
X108357940Y-63165202D01*
X108404494Y-63115627D01*
X108409936Y-63110010D01*
X108428911Y-63091035D01*
X108433709Y-63084850D01*
X108435933Y-63082327D01*
X108441201Y-63076538D01*
X108459724Y-63056813D01*
X108470448Y-63045393D01*
X108477994Y-63031666D01*
X108482180Y-63025905D01*
X108491126Y-63012286D01*
X108494757Y-63006147D01*
X108504362Y-62993764D01*
X108520153Y-62957274D01*
X108530468Y-62936220D01*
X108542079Y-62915100D01*
X108542082Y-62915092D01*
X108549627Y-62901368D01*
X108553522Y-62886200D01*
X108556145Y-62879574D01*
X108561422Y-62864159D01*
X108563413Y-62857306D01*
X108569635Y-62842927D01*
X108572087Y-62827447D01*
X108575854Y-62803666D01*
X108580611Y-62780694D01*
X108586603Y-62757357D01*
X108586604Y-62757352D01*
X108590500Y-62742177D01*
X108590500Y-62726506D01*
X108591393Y-62719437D01*
X108592671Y-62703206D01*
X108592895Y-62696067D01*
X108595346Y-62680595D01*
X108591605Y-62641019D01*
X108590500Y-62617587D01*
X108590500Y-61436410D01*
X108609454Y-61341122D01*
X108663430Y-61260340D01*
X108744212Y-61206364D01*
X108839500Y-61187410D01*
X108934788Y-61206364D01*
X108966251Y-61222085D01*
X109061320Y-61278309D01*
X109089844Y-61290652D01*
X109220287Y-61328549D01*
X109245199Y-61333099D01*
X109264470Y-61334615D01*
X109274255Y-61335000D01*
X109935473Y-61335000D01*
X109955931Y-61330931D01*
X109960000Y-61310473D01*
X109960000Y-60534000D01*
X109978954Y-60438712D01*
X110032930Y-60357930D01*
X110113712Y-60303954D01*
X110209000Y-60285000D01*
X110211000Y-60285000D01*
X110306288Y-60303954D01*
G37*
G04 #@! TD.AperFunction*
G04 #@! TA.AperFunction,Conductor*
G36*
X96606288Y-45423954D02*
G01*
X96687070Y-45477930D01*
X96741046Y-45558712D01*
X96760000Y-45654000D01*
X96760000Y-54581109D01*
X96764069Y-54601567D01*
X96768257Y-54602400D01*
X96775771Y-54601410D01*
X96962986Y-54551246D01*
X96983343Y-54543837D01*
X97177732Y-54453192D01*
X97196478Y-54442369D01*
X97372172Y-54319346D01*
X97386648Y-54307199D01*
X97471826Y-54260468D01*
X97568404Y-54249890D01*
X97661678Y-54277076D01*
X97737448Y-54337887D01*
X97754732Y-54363178D01*
X97756474Y-54367824D01*
X97767109Y-54382014D01*
X97767110Y-54382016D01*
X97814995Y-54445908D01*
X97842454Y-54482546D01*
X97957176Y-54568526D01*
X97990742Y-54581109D01*
X98076804Y-54613372D01*
X98076805Y-54613372D01*
X98091420Y-54618851D01*
X98152623Y-54625500D01*
X99049400Y-54625500D01*
X99947376Y-54625499D01*
X100008580Y-54618851D01*
X100142824Y-54568526D01*
X100257546Y-54482546D01*
X100343526Y-54367824D01*
X100393851Y-54233580D01*
X100400500Y-54172377D01*
X100400499Y-52377624D01*
X100393851Y-52316420D01*
X100343526Y-52182176D01*
X100257546Y-52067454D01*
X100146472Y-51984208D01*
X100146466Y-51984203D01*
X100142824Y-51981474D01*
X100142972Y-51981277D01*
X100079334Y-51927970D01*
X100034400Y-51841831D01*
X100025850Y-51745053D01*
X100054986Y-51652369D01*
X100081884Y-51613012D01*
X100088495Y-51606401D01*
X100224035Y-51412829D01*
X100239245Y-51380211D01*
X100319307Y-51208520D01*
X100319309Y-51208516D01*
X100323903Y-51198663D01*
X100385063Y-50970408D01*
X100395242Y-50854070D01*
X100404711Y-50745835D01*
X100405659Y-50735000D01*
X100385063Y-50499592D01*
X100323903Y-50271337D01*
X100224035Y-50057171D01*
X100215047Y-50044334D01*
X100186551Y-50003638D01*
X100088495Y-49863599D01*
X99921401Y-49696505D01*
X99912497Y-49690270D01*
X99882075Y-49668968D01*
X99814892Y-49598786D01*
X99779680Y-49508237D01*
X99781800Y-49411105D01*
X99820929Y-49322178D01*
X99882075Y-49261032D01*
X99912497Y-49239730D01*
X99912499Y-49239728D01*
X99921401Y-49233495D01*
X99941405Y-49213491D01*
X100022187Y-49159515D01*
X100117475Y-49140561D01*
X100212763Y-49159515D01*
X100293545Y-49213491D01*
X100976570Y-49896516D01*
X101030546Y-49977298D01*
X101049500Y-50072586D01*
X101049500Y-55610790D01*
X101030546Y-55706078D01*
X100976570Y-55786860D01*
X100964700Y-55797978D01*
X100825457Y-55920090D01*
X100688863Y-56093360D01*
X100586131Y-56288620D01*
X100520703Y-56499333D01*
X100517039Y-56530289D01*
X100496320Y-56705346D01*
X100494770Y-56718440D01*
X100495517Y-56729834D01*
X100506074Y-56890902D01*
X100509200Y-56938604D01*
X100512009Y-56949665D01*
X100512010Y-56949670D01*
X100535527Y-57042265D01*
X100563511Y-57152452D01*
X100655883Y-57352821D01*
X100783222Y-57533002D01*
X100791394Y-57540963D01*
X100791395Y-57540964D01*
X100933082Y-57678991D01*
X100933086Y-57678994D01*
X100941264Y-57686961D01*
X101124717Y-57809540D01*
X101135207Y-57814047D01*
X101135209Y-57814048D01*
X101209182Y-57845829D01*
X101327436Y-57896635D01*
X101542632Y-57945329D01*
X101652865Y-57949660D01*
X101751687Y-57953543D01*
X101751691Y-57953543D01*
X101763098Y-57953991D01*
X101906662Y-57933175D01*
X101970149Y-57923970D01*
X101970150Y-57923970D01*
X101981452Y-57922331D01*
X101992260Y-57918662D01*
X101992265Y-57918661D01*
X102132543Y-57871043D01*
X102190379Y-57851410D01*
X102382884Y-57743602D01*
X102455387Y-57683302D01*
X102543736Y-57609822D01*
X102552518Y-57602518D01*
X102603712Y-57540964D01*
X102686299Y-57441665D01*
X102686300Y-57441664D01*
X102693602Y-57432884D01*
X102801410Y-57240379D01*
X102854217Y-57084814D01*
X102868661Y-57042265D01*
X102868662Y-57042260D01*
X102872331Y-57031452D01*
X102903991Y-56813098D01*
X102904415Y-56796903D01*
X102925857Y-56702144D01*
X102981929Y-56622803D01*
X103064095Y-56570959D01*
X103159847Y-56554505D01*
X103254606Y-56575947D01*
X103273295Y-56585224D01*
X103274590Y-56585936D01*
X103297723Y-56601132D01*
X103303857Y-56604759D01*
X103316236Y-56614362D01*
X103352719Y-56630149D01*
X103373781Y-56640468D01*
X103394904Y-56652080D01*
X103408632Y-56659627D01*
X103423800Y-56663521D01*
X103430429Y-56666146D01*
X103445837Y-56671421D01*
X103452700Y-56673415D01*
X103467074Y-56679635D01*
X103482549Y-56682086D01*
X103506333Y-56685853D01*
X103529298Y-56690609D01*
X103567823Y-56700500D01*
X103583485Y-56700500D01*
X103590546Y-56701392D01*
X103606794Y-56702671D01*
X103613933Y-56702895D01*
X103629405Y-56705346D01*
X103644999Y-56703872D01*
X103645001Y-56703872D01*
X103668980Y-56701605D01*
X103692413Y-56700500D01*
X104014615Y-56700500D01*
X104109903Y-56719454D01*
X104190685Y-56773430D01*
X104226352Y-56818471D01*
X104257834Y-56869345D01*
X104268069Y-56879562D01*
X104277057Y-56890902D01*
X104274986Y-56892544D01*
X104316769Y-56954952D01*
X104335811Y-57050223D01*
X104316945Y-57145528D01*
X104274684Y-57208900D01*
X104276597Y-57210411D01*
X104249819Y-57244317D01*
X104173230Y-57368567D01*
X104161088Y-57394606D01*
X104114865Y-57533966D01*
X104109197Y-57560402D01*
X104100647Y-57643846D01*
X104100000Y-57656515D01*
X104100000Y-57775473D01*
X104104069Y-57795931D01*
X104124527Y-57800000D01*
X106475472Y-57800000D01*
X106497122Y-57795693D01*
X106504510Y-57784637D01*
X106529505Y-57724294D01*
X106598204Y-57655594D01*
X106687963Y-57618415D01*
X106785118Y-57618414D01*
X106874877Y-57655594D01*
X106893136Y-57669043D01*
X106901264Y-57676961D01*
X107084717Y-57799540D01*
X107095207Y-57804047D01*
X107095209Y-57804048D01*
X107213990Y-57855080D01*
X107287436Y-57886635D01*
X107298570Y-57889154D01*
X107298572Y-57889155D01*
X107381979Y-57908028D01*
X107470735Y-57947544D01*
X107537612Y-58018018D01*
X107572429Y-58108720D01*
X107569886Y-58205841D01*
X107530370Y-58294597D01*
X107503096Y-58326958D01*
X106838287Y-58991767D01*
X106757505Y-59045743D01*
X106662217Y-59064697D01*
X106566929Y-59045743D01*
X106486147Y-58991767D01*
X106432171Y-58910985D01*
X106413217Y-58815697D01*
X106432171Y-58720409D01*
X106436545Y-58710469D01*
X106438911Y-58705394D01*
X106485135Y-58566034D01*
X106490803Y-58539598D01*
X106499353Y-58456154D01*
X106500000Y-58443485D01*
X106500000Y-58324527D01*
X106495931Y-58304069D01*
X106475473Y-58300000D01*
X104124528Y-58300000D01*
X104104070Y-58304069D01*
X104100001Y-58324527D01*
X104100001Y-58443391D01*
X104100666Y-58456240D01*
X104109445Y-58540868D01*
X104115163Y-58567339D01*
X104161622Y-58706594D01*
X104173811Y-58732615D01*
X104250618Y-58856734D01*
X104268464Y-58879250D01*
X104287727Y-58898480D01*
X104341773Y-58979215D01*
X104360810Y-59074487D01*
X104341938Y-59169791D01*
X104288033Y-59250617D01*
X104257016Y-59281689D01*
X104165186Y-59430666D01*
X104110090Y-59596772D01*
X104099500Y-59700134D01*
X104099500Y-60499866D01*
X104100164Y-60506262D01*
X104100164Y-60506269D01*
X104103486Y-60538283D01*
X104110359Y-60604519D01*
X104114667Y-60617432D01*
X104114668Y-60617436D01*
X104144254Y-60706116D01*
X104165744Y-60770529D01*
X104173354Y-60782826D01*
X104173355Y-60782829D01*
X104225183Y-60866581D01*
X104257834Y-60919345D01*
X104268070Y-60929563D01*
X104277057Y-60940902D01*
X104274910Y-60942604D01*
X104316419Y-61004608D01*
X104335457Y-61099879D01*
X104316587Y-61195184D01*
X104274299Y-61258593D01*
X104276203Y-61260097D01*
X104267235Y-61271452D01*
X104257016Y-61281689D01*
X104226523Y-61331158D01*
X104160390Y-61402327D01*
X104072053Y-61442771D01*
X104014558Y-61449500D01*
X102872586Y-61449500D01*
X102777298Y-61430546D01*
X102696516Y-61376570D01*
X96266429Y-54946483D01*
X96212453Y-54865701D01*
X96193499Y-54770413D01*
X96212453Y-54675125D01*
X96242782Y-54629734D01*
X96259011Y-54596825D01*
X96260000Y-54589311D01*
X96260000Y-45654000D01*
X96278954Y-45558712D01*
X96332930Y-45477930D01*
X96413712Y-45423954D01*
X96509000Y-45405000D01*
X96511000Y-45405000D01*
X96606288Y-45423954D01*
G37*
G04 #@! TD.AperFunction*
G04 #@! TA.AperFunction,Conductor*
G36*
X102264869Y-42519454D02*
G01*
X102345651Y-42573430D01*
X102399627Y-42654212D01*
X102405783Y-42670699D01*
X102421165Y-42716806D01*
X102421167Y-42716811D01*
X102425744Y-42730529D01*
X102433354Y-42742826D01*
X102433355Y-42742829D01*
X102477364Y-42813946D01*
X102517834Y-42879345D01*
X102641689Y-43002984D01*
X102654003Y-43010574D01*
X102654005Y-43010576D01*
X102654836Y-43011088D01*
X102790666Y-43094814D01*
X102851524Y-43115000D01*
X102943864Y-43145629D01*
X102943868Y-43145630D01*
X102956772Y-43149910D01*
X102970300Y-43151296D01*
X103053815Y-43159853D01*
X103053823Y-43159853D01*
X103060134Y-43160500D01*
X103576021Y-43160500D01*
X103671309Y-43179454D01*
X103752091Y-43233430D01*
X103806067Y-43314212D01*
X103825021Y-43409500D01*
X103806067Y-43504788D01*
X103764267Y-43569152D01*
X103765457Y-43570090D01*
X103628863Y-43743360D01*
X103526131Y-43938620D01*
X103522747Y-43949519D01*
X103522746Y-43949521D01*
X103509425Y-43992423D01*
X103460703Y-44149333D01*
X103459361Y-44160672D01*
X103436688Y-44352238D01*
X103434770Y-44368440D01*
X103449200Y-44588604D01*
X103452009Y-44599665D01*
X103452010Y-44599670D01*
X103458335Y-44624573D01*
X103503511Y-44802452D01*
X103595883Y-45002821D01*
X103723222Y-45183002D01*
X103731394Y-45190963D01*
X103731395Y-45190964D01*
X103873082Y-45328991D01*
X103873086Y-45328994D01*
X103881264Y-45336961D01*
X104064717Y-45459540D01*
X104075207Y-45464047D01*
X104075209Y-45464048D01*
X104162172Y-45501410D01*
X104267436Y-45546635D01*
X104482632Y-45595329D01*
X104592865Y-45599660D01*
X104691687Y-45603543D01*
X104691691Y-45603543D01*
X104703098Y-45603991D01*
X104846662Y-45583175D01*
X104910149Y-45573970D01*
X104910150Y-45573970D01*
X104921452Y-45572331D01*
X104932260Y-45568662D01*
X104932265Y-45568661D01*
X105072543Y-45521043D01*
X105130379Y-45501410D01*
X105322884Y-45393602D01*
X105492518Y-45252518D01*
X105558084Y-45173684D01*
X105585867Y-45140279D01*
X105661371Y-45079138D01*
X105754525Y-45051544D01*
X105777308Y-45050500D01*
X108927414Y-45050500D01*
X109022702Y-45069454D01*
X109103484Y-45123430D01*
X109514455Y-45534401D01*
X109568431Y-45615183D01*
X109587385Y-45710471D01*
X109568431Y-45805759D01*
X109514609Y-45886386D01*
X109463359Y-45937726D01*
X109382625Y-45991773D01*
X109287353Y-46010811D01*
X109192049Y-45991941D01*
X109111219Y-45938034D01*
X109065739Y-45892633D01*
X109043183Y-45874819D01*
X108918933Y-45798230D01*
X108892894Y-45786088D01*
X108753534Y-45739865D01*
X108727098Y-45734197D01*
X108643654Y-45725647D01*
X108630985Y-45725000D01*
X108524527Y-45725000D01*
X108504069Y-45729069D01*
X108500000Y-45749527D01*
X108500000Y-47960474D01*
X108507716Y-47999265D01*
X108512500Y-48047842D01*
X108512500Y-50450472D01*
X108516569Y-50470930D01*
X108537027Y-50474999D01*
X108643391Y-50474999D01*
X108656240Y-50474334D01*
X108740868Y-50465555D01*
X108767339Y-50459837D01*
X108906594Y-50413378D01*
X108932615Y-50401189D01*
X109056734Y-50324382D01*
X109079250Y-50306536D01*
X109123435Y-50262274D01*
X109204169Y-50208227D01*
X109299441Y-50189190D01*
X109394745Y-50208061D01*
X109475574Y-50261967D01*
X109484961Y-50271337D01*
X109531689Y-50317984D01*
X109568658Y-50340772D01*
X109639827Y-50406905D01*
X109680271Y-50495241D01*
X109687000Y-50552737D01*
X109687000Y-50595500D01*
X109668046Y-50690788D01*
X109614070Y-50771570D01*
X109533288Y-50825546D01*
X109438000Y-50844500D01*
X109269306Y-50844500D01*
X109258746Y-50845331D01*
X109245120Y-50846403D01*
X109245116Y-50846404D01*
X109232431Y-50847402D01*
X109220214Y-50850952D01*
X109220211Y-50850952D01*
X109144340Y-50872995D01*
X109074602Y-50893256D01*
X109061121Y-50901228D01*
X109061120Y-50901229D01*
X109043547Y-50911622D01*
X108933135Y-50976919D01*
X108816919Y-51093135D01*
X108808946Y-51106617D01*
X108808945Y-51106618D01*
X108741229Y-51221120D01*
X108733256Y-51234602D01*
X108687402Y-51392431D01*
X108684500Y-51429306D01*
X108684500Y-51860694D01*
X108687402Y-51897569D01*
X108690952Y-51909786D01*
X108690952Y-51909789D01*
X108696234Y-51927970D01*
X108733256Y-52055398D01*
X108741228Y-52068879D01*
X108741229Y-52068880D01*
X108791415Y-52153740D01*
X108823606Y-52245407D01*
X108818267Y-52342415D01*
X108791415Y-52407243D01*
X108741690Y-52491324D01*
X108729348Y-52519844D01*
X108691451Y-52650286D01*
X108691044Y-52652515D01*
X108692080Y-52661263D01*
X108705331Y-52665000D01*
X110211000Y-52665000D01*
X110306288Y-52683954D01*
X110387070Y-52737930D01*
X110441046Y-52818712D01*
X110460000Y-52914000D01*
X110460000Y-52916000D01*
X110441046Y-53011288D01*
X110387070Y-53092070D01*
X110306288Y-53146046D01*
X110211000Y-53165000D01*
X108712231Y-53165000D01*
X108691773Y-53169069D01*
X108690592Y-53175009D01*
X108691452Y-53179717D01*
X108702002Y-53216032D01*
X108710385Y-53312825D01*
X108681089Y-53405457D01*
X108618574Y-53479828D01*
X108532357Y-53524613D01*
X108462889Y-53534500D01*
X108198760Y-53534500D01*
X108103472Y-53515546D01*
X108022690Y-53461570D01*
X107968714Y-53380788D01*
X107962558Y-53364303D01*
X107938833Y-53293190D01*
X107934256Y-53279471D01*
X107842166Y-53130655D01*
X107831930Y-53120437D01*
X107822943Y-53109098D01*
X107825014Y-53107456D01*
X107783231Y-53045048D01*
X107764189Y-52949777D01*
X107783055Y-52854472D01*
X107825316Y-52791100D01*
X107823403Y-52789589D01*
X107850181Y-52755683D01*
X107926770Y-52631433D01*
X107938912Y-52605394D01*
X107985135Y-52466034D01*
X107990803Y-52439598D01*
X107999353Y-52356154D01*
X108000000Y-52343485D01*
X108000000Y-52224527D01*
X107995931Y-52204069D01*
X107975473Y-52200000D01*
X106799000Y-52200000D01*
X106703712Y-52181046D01*
X106622930Y-52127070D01*
X106568954Y-52046288D01*
X106550000Y-51951000D01*
X106550000Y-51675473D01*
X107050000Y-51675473D01*
X107054069Y-51695931D01*
X107074527Y-51700000D01*
X107975472Y-51700000D01*
X107995930Y-51695931D01*
X107999999Y-51675473D01*
X107999999Y-51556609D01*
X107999334Y-51543760D01*
X107990555Y-51459132D01*
X107984837Y-51432661D01*
X107938378Y-51293406D01*
X107926189Y-51267385D01*
X107849382Y-51143266D01*
X107831536Y-51120750D01*
X107728239Y-51017634D01*
X107705683Y-50999819D01*
X107569122Y-50915642D01*
X107570512Y-50913387D01*
X107509960Y-50868987D01*
X107508822Y-50867111D01*
X107470591Y-50872995D01*
X107429260Y-50867700D01*
X107389598Y-50859197D01*
X107306154Y-50850647D01*
X107293485Y-50850000D01*
X107074527Y-50850000D01*
X107054069Y-50854069D01*
X107050000Y-50874527D01*
X107050000Y-51675473D01*
X106550000Y-51675473D01*
X106550000Y-50874528D01*
X106545931Y-50854070D01*
X106525473Y-50850001D01*
X106306609Y-50850001D01*
X106293760Y-50850666D01*
X106209132Y-50859445D01*
X106182661Y-50865163D01*
X106043406Y-50911622D01*
X106017385Y-50923811D01*
X105893266Y-51000618D01*
X105870750Y-51018464D01*
X105767629Y-51121765D01*
X105764906Y-51125213D01*
X105760080Y-51129328D01*
X105757411Y-51132001D01*
X105757196Y-51131786D01*
X105690973Y-51188244D01*
X105598546Y-51218184D01*
X105501698Y-51210475D01*
X105415171Y-51166290D01*
X105352140Y-51092357D01*
X105322200Y-50999930D01*
X105320500Y-50970884D01*
X105320500Y-49768391D01*
X107175001Y-49768391D01*
X107175666Y-49781240D01*
X107184445Y-49865868D01*
X107190163Y-49892339D01*
X107236622Y-50031594D01*
X107248811Y-50057615D01*
X107325618Y-50181734D01*
X107343464Y-50204250D01*
X107446761Y-50307366D01*
X107469317Y-50325181D01*
X107605878Y-50409358D01*
X107604488Y-50411613D01*
X107665040Y-50456013D01*
X107666178Y-50457889D01*
X107704409Y-50452005D01*
X107745740Y-50457300D01*
X107785402Y-50465803D01*
X107868846Y-50474353D01*
X107881515Y-50475000D01*
X107987973Y-50475000D01*
X108008431Y-50470931D01*
X108012500Y-50450473D01*
X108012500Y-49524527D01*
X108008431Y-49504069D01*
X107987973Y-49500000D01*
X107199528Y-49500000D01*
X107179070Y-49504069D01*
X107175001Y-49524527D01*
X107175001Y-49768391D01*
X105320500Y-49768391D01*
X105320500Y-48586491D01*
X105320780Y-48580563D01*
X105322760Y-48571703D01*
X105320623Y-48503709D01*
X105320500Y-48495888D01*
X105320500Y-48469075D01*
X105319519Y-48461310D01*
X105319308Y-48457952D01*
X105318940Y-48450145D01*
X105318089Y-48423092D01*
X105317597Y-48407431D01*
X105313226Y-48392386D01*
X105312108Y-48385328D01*
X105308806Y-48369386D01*
X105307034Y-48362485D01*
X105305071Y-48346942D01*
X105290434Y-48309973D01*
X105282838Y-48287790D01*
X105271744Y-48249601D01*
X105263767Y-48236112D01*
X105260937Y-48229573D01*
X105253775Y-48214951D01*
X105250334Y-48208691D01*
X105244568Y-48194129D01*
X105235361Y-48181457D01*
X105235358Y-48181451D01*
X105221197Y-48161960D01*
X105208319Y-48142356D01*
X105196051Y-48121612D01*
X105188081Y-48108135D01*
X105177007Y-48097061D01*
X105172653Y-48091448D01*
X105162067Y-48079052D01*
X105157175Y-48073843D01*
X105147963Y-48061163D01*
X105135891Y-48051176D01*
X105135888Y-48051173D01*
X105117337Y-48035827D01*
X105099985Y-48020039D01*
X104548337Y-47468391D01*
X107162501Y-47468391D01*
X107163166Y-47481240D01*
X107171945Y-47565868D01*
X107177663Y-47592339D01*
X107224122Y-47731594D01*
X107236311Y-47757615D01*
X107313118Y-47881734D01*
X107330964Y-47904250D01*
X107356841Y-47930082D01*
X107410888Y-48010816D01*
X107429925Y-48106088D01*
X107411054Y-48201392D01*
X107357147Y-48282222D01*
X107342633Y-48296761D01*
X107324819Y-48319317D01*
X107248230Y-48443567D01*
X107236088Y-48469606D01*
X107189865Y-48608966D01*
X107184197Y-48635402D01*
X107175647Y-48718846D01*
X107175000Y-48731515D01*
X107175000Y-48975473D01*
X107179069Y-48995931D01*
X107199527Y-49000000D01*
X107987973Y-49000000D01*
X108008431Y-48995931D01*
X108012500Y-48975473D01*
X108012500Y-48239526D01*
X108004784Y-48200735D01*
X108000000Y-48152158D01*
X108000000Y-47224527D01*
X107995931Y-47204069D01*
X107975473Y-47200000D01*
X107187028Y-47200000D01*
X107166570Y-47204069D01*
X107162501Y-47224527D01*
X107162501Y-47468391D01*
X104548337Y-47468391D01*
X103755419Y-46675473D01*
X107162500Y-46675473D01*
X107166569Y-46695931D01*
X107187027Y-46700000D01*
X107975473Y-46700000D01*
X107995931Y-46695931D01*
X108000000Y-46675473D01*
X108000000Y-45749528D01*
X107995931Y-45729070D01*
X107975473Y-45725001D01*
X107869109Y-45725001D01*
X107856260Y-45725666D01*
X107771632Y-45734445D01*
X107745161Y-45740163D01*
X107605906Y-45786622D01*
X107579885Y-45798811D01*
X107455766Y-45875618D01*
X107433250Y-45893464D01*
X107330134Y-45996761D01*
X107312319Y-46019317D01*
X107235730Y-46143567D01*
X107223588Y-46169606D01*
X107177365Y-46308966D01*
X107171697Y-46335402D01*
X107163147Y-46418846D01*
X107162500Y-46431515D01*
X107162500Y-46675473D01*
X103755419Y-46675473D01*
X100470809Y-43390863D01*
X100416833Y-43310081D01*
X100397879Y-43214793D01*
X100398825Y-43193111D01*
X100405659Y-43115000D01*
X100385063Y-42879592D01*
X100367473Y-42813944D01*
X100361119Y-42716999D01*
X100392349Y-42625000D01*
X100456408Y-42551955D01*
X100543543Y-42508984D01*
X100607989Y-42500500D01*
X102169581Y-42500500D01*
X102264869Y-42519454D01*
G37*
G04 #@! TD.AperFunction*
G04 #@! TA.AperFunction,Conductor*
G36*
X110306288Y-40303954D02*
G01*
X110387070Y-40357930D01*
X110441046Y-40438712D01*
X110460000Y-40534000D01*
X110460000Y-41310473D01*
X110464069Y-41330931D01*
X110484527Y-41335000D01*
X110701000Y-41335000D01*
X110796288Y-41353954D01*
X110877070Y-41407930D01*
X110931046Y-41488712D01*
X110950000Y-41584000D01*
X110950000Y-44528914D01*
X110931046Y-44624202D01*
X110877070Y-44704984D01*
X110796288Y-44758960D01*
X110701000Y-44777914D01*
X110605712Y-44758960D01*
X110524930Y-44704984D01*
X109814055Y-43994109D01*
X109810067Y-43989726D01*
X109805202Y-43982060D01*
X109755627Y-43935506D01*
X109750010Y-43930064D01*
X109731035Y-43911089D01*
X109724850Y-43906291D01*
X109722327Y-43904067D01*
X109716544Y-43898805D01*
X109685393Y-43869552D01*
X109671666Y-43862006D01*
X109665905Y-43857820D01*
X109652277Y-43848868D01*
X109646143Y-43845241D01*
X109633764Y-43835638D01*
X109597281Y-43819851D01*
X109576219Y-43809532D01*
X109555096Y-43797920D01*
X109555095Y-43797920D01*
X109541368Y-43790373D01*
X109526200Y-43786479D01*
X109519571Y-43783854D01*
X109504153Y-43778576D01*
X109497298Y-43776584D01*
X109482926Y-43770365D01*
X109467461Y-43767915D01*
X109467456Y-43767914D01*
X109443663Y-43764146D01*
X109420692Y-43759389D01*
X109397348Y-43753395D01*
X109397346Y-43753395D01*
X109382177Y-43749500D01*
X109366513Y-43749500D01*
X109359443Y-43748607D01*
X109343195Y-43747328D01*
X109336069Y-43747104D01*
X109320595Y-43744653D01*
X109305002Y-43746127D01*
X109305000Y-43746127D01*
X109281011Y-43748395D01*
X109257577Y-43749500D01*
X107493756Y-43749500D01*
X107398468Y-43730546D01*
X107317686Y-43676570D01*
X107263710Y-43595788D01*
X107244756Y-43500500D01*
X107263710Y-43405212D01*
X107317686Y-43324430D01*
X107334535Y-43309059D01*
X107334894Y-43308761D01*
X107402518Y-43252518D01*
X107487857Y-43149910D01*
X107536299Y-43091665D01*
X107536300Y-43091664D01*
X107543602Y-43082884D01*
X107651410Y-42890379D01*
X107671277Y-42831854D01*
X107718661Y-42692265D01*
X107718662Y-42692260D01*
X107722331Y-42681452D01*
X107726698Y-42651337D01*
X107752938Y-42470360D01*
X107753991Y-42463098D01*
X107755643Y-42400000D01*
X107735454Y-42180289D01*
X107675565Y-41967936D01*
X107604686Y-41824207D01*
X107579541Y-41730362D01*
X107592223Y-41634039D01*
X107640801Y-41549900D01*
X107651938Y-41538008D01*
X108328446Y-40861500D01*
X108409228Y-40807524D01*
X108504516Y-40788570D01*
X108599804Y-40807524D01*
X108680586Y-40861500D01*
X108733037Y-40938681D01*
X108741691Y-40958680D01*
X108809343Y-41073073D01*
X108828392Y-41097631D01*
X108922369Y-41191608D01*
X108946927Y-41210657D01*
X109061320Y-41278309D01*
X109089844Y-41290652D01*
X109220287Y-41328549D01*
X109245199Y-41333099D01*
X109264470Y-41334615D01*
X109274255Y-41335000D01*
X109935473Y-41335000D01*
X109955931Y-41330931D01*
X109960000Y-41310473D01*
X109960000Y-40534000D01*
X109978954Y-40438712D01*
X110032930Y-40357930D01*
X110113712Y-40303954D01*
X110209000Y-40285000D01*
X110211000Y-40285000D01*
X110306288Y-40303954D01*
G37*
G04 #@! TD.AperFunction*
G04 #@! TA.AperFunction,Conductor*
G36*
X103619903Y-32739454D02*
G01*
X103700685Y-32793430D01*
X103736352Y-32838471D01*
X103759575Y-32875998D01*
X103767834Y-32889345D01*
X103778069Y-32899562D01*
X103787057Y-32910902D01*
X103784986Y-32912544D01*
X103826769Y-32974952D01*
X103845811Y-33070223D01*
X103826945Y-33165528D01*
X103784684Y-33228900D01*
X103786597Y-33230411D01*
X103759819Y-33264317D01*
X103683230Y-33388567D01*
X103671088Y-33414606D01*
X103624865Y-33553966D01*
X103619197Y-33580402D01*
X103610647Y-33663846D01*
X103610000Y-33676515D01*
X103610000Y-33795473D01*
X103614069Y-33815931D01*
X103634527Y-33820000D01*
X105985472Y-33820000D01*
X106005930Y-33815931D01*
X106009999Y-33795473D01*
X106009999Y-33676609D01*
X106009334Y-33663760D01*
X106000555Y-33579132D01*
X105994837Y-33552661D01*
X105948378Y-33413406D01*
X105936189Y-33387385D01*
X105859382Y-33263266D01*
X105832549Y-33229411D01*
X105834705Y-33227702D01*
X105793229Y-33165748D01*
X105774190Y-33070477D01*
X105793059Y-32975172D01*
X105835623Y-32911345D01*
X105833797Y-32909903D01*
X105842763Y-32898550D01*
X105852984Y-32888311D01*
X105872789Y-32856181D01*
X105938924Y-32785012D01*
X106027260Y-32744568D01*
X106124350Y-32741008D01*
X106215412Y-32774874D01*
X106260824Y-32810770D01*
X107263322Y-33813268D01*
X107317298Y-33894050D01*
X107336252Y-33989338D01*
X107317298Y-34084626D01*
X107263322Y-34165408D01*
X107182540Y-34219384D01*
X107083997Y-34238317D01*
X107076815Y-34238223D01*
X107076811Y-34238223D01*
X107065406Y-34238074D01*
X106977446Y-34253188D01*
X106859210Y-34273504D01*
X106859206Y-34273505D01*
X106847957Y-34275438D01*
X106820851Y-34285438D01*
X106651666Y-34347853D01*
X106651664Y-34347854D01*
X106640957Y-34351804D01*
X106451341Y-34464614D01*
X106442756Y-34472143D01*
X106420145Y-34491972D01*
X106336006Y-34540549D01*
X106239682Y-34553230D01*
X106145838Y-34528084D01*
X106068760Y-34468939D01*
X106020183Y-34384800D01*
X106011753Y-34353340D01*
X106005931Y-34324069D01*
X105985473Y-34320000D01*
X105084527Y-34320000D01*
X105064069Y-34324069D01*
X105060000Y-34344527D01*
X105060000Y-36071000D01*
X105041046Y-36166288D01*
X104987070Y-36247070D01*
X104906288Y-36301046D01*
X104811000Y-36320000D01*
X103634528Y-36320000D01*
X103614070Y-36324069D01*
X103610001Y-36344527D01*
X103610001Y-36463391D01*
X103610666Y-36476240D01*
X103619445Y-36560868D01*
X103625163Y-36587339D01*
X103671622Y-36726594D01*
X103683811Y-36752615D01*
X103760618Y-36876734D01*
X103787451Y-36910589D01*
X103785295Y-36912298D01*
X103826771Y-36974252D01*
X103845810Y-37069523D01*
X103826941Y-37164828D01*
X103784377Y-37228655D01*
X103786203Y-37230097D01*
X103777235Y-37241452D01*
X103767016Y-37251689D01*
X103759427Y-37264001D01*
X103759426Y-37264002D01*
X103755392Y-37270546D01*
X103736523Y-37301158D01*
X103670390Y-37372327D01*
X103582053Y-37412771D01*
X103524558Y-37419500D01*
X102556492Y-37419500D01*
X102550564Y-37419220D01*
X102541704Y-37417240D01*
X102526048Y-37417732D01*
X102473711Y-37419377D01*
X102465889Y-37419500D01*
X102439075Y-37419500D01*
X102431315Y-37420480D01*
X102427928Y-37420693D01*
X102420125Y-37421061D01*
X102377431Y-37422403D01*
X102362386Y-37426774D01*
X102355328Y-37427892D01*
X102339389Y-37431193D01*
X102332485Y-37432966D01*
X102316942Y-37434929D01*
X102279975Y-37449566D01*
X102257782Y-37457164D01*
X102234650Y-37463884D01*
X102234647Y-37463885D01*
X102219602Y-37468256D01*
X102206115Y-37476232D01*
X102199566Y-37479066D01*
X102184940Y-37486231D01*
X102178691Y-37489666D01*
X102164129Y-37495432D01*
X102151459Y-37504637D01*
X102151456Y-37504639D01*
X102131963Y-37518802D01*
X102112362Y-37531677D01*
X102078135Y-37551919D01*
X102067057Y-37562997D01*
X102061431Y-37567361D01*
X102049052Y-37577933D01*
X102043843Y-37582825D01*
X102031163Y-37592037D01*
X102021176Y-37604109D01*
X102021173Y-37604112D01*
X102005827Y-37622663D01*
X101990039Y-37640015D01*
X100611914Y-39018140D01*
X100531132Y-39072116D01*
X100435844Y-39091070D01*
X100340556Y-39072116D01*
X100259774Y-39018140D01*
X100205798Y-38937358D01*
X100186844Y-38842070D01*
X100205798Y-38746782D01*
X100218986Y-38720040D01*
X100224035Y-38712829D01*
X100323903Y-38498663D01*
X100385063Y-38270408D01*
X100390158Y-38212173D01*
X100417345Y-38118900D01*
X100462140Y-38057806D01*
X101802450Y-36717496D01*
X101883232Y-36663520D01*
X101978520Y-36644566D01*
X101992626Y-36645491D01*
X101992632Y-36645329D01*
X102201687Y-36653543D01*
X102201691Y-36653543D01*
X102213098Y-36653991D01*
X102370208Y-36631211D01*
X102420149Y-36623970D01*
X102420150Y-36623970D01*
X102431452Y-36622331D01*
X102442260Y-36618662D01*
X102442265Y-36618661D01*
X102612039Y-36561030D01*
X102640379Y-36551410D01*
X102832884Y-36443602D01*
X103002518Y-36302518D01*
X103143602Y-36132884D01*
X103251410Y-35940379D01*
X103255077Y-35929577D01*
X103255868Y-35927800D01*
X103311942Y-35848461D01*
X103394110Y-35796619D01*
X103489862Y-35780168D01*
X103584621Y-35801613D01*
X103608617Y-35814846D01*
X103634527Y-35820000D01*
X104535473Y-35820000D01*
X104555931Y-35815931D01*
X104560000Y-35795473D01*
X104560000Y-34344527D01*
X104555931Y-34324069D01*
X104535473Y-34320000D01*
X103634528Y-34320000D01*
X103614070Y-34324069D01*
X103610001Y-34344527D01*
X103610001Y-34463391D01*
X103610666Y-34476240D01*
X103619445Y-34560868D01*
X103625161Y-34587333D01*
X103644511Y-34645330D01*
X103656688Y-34741719D01*
X103631053Y-34835431D01*
X103571506Y-34912199D01*
X103487115Y-34960336D01*
X103390726Y-34972513D01*
X103297014Y-34946878D01*
X103220246Y-34887331D01*
X103184991Y-34834270D01*
X103183031Y-34830296D01*
X103177980Y-34820053D01*
X103169367Y-34808518D01*
X103099867Y-34715448D01*
X103045967Y-34643267D01*
X102883949Y-34493499D01*
X102828917Y-34458776D01*
X102707007Y-34381857D01*
X102707006Y-34381857D01*
X102697350Y-34375764D01*
X102686750Y-34371535D01*
X102686746Y-34371533D01*
X102503025Y-34298236D01*
X102503020Y-34298234D01*
X102492421Y-34294006D01*
X102439629Y-34283505D01*
X102287216Y-34253188D01*
X102287214Y-34253188D01*
X102276024Y-34250962D01*
X102156275Y-34249394D01*
X102066812Y-34248223D01*
X102066809Y-34248223D01*
X102055406Y-34248074D01*
X101837957Y-34285438D01*
X101832180Y-34287569D01*
X101737695Y-34293763D01*
X101645695Y-34262535D01*
X101572650Y-34198477D01*
X101529678Y-34111342D01*
X101523323Y-34014395D01*
X101554551Y-33922395D01*
X101594123Y-33870823D01*
X102671516Y-32793430D01*
X102752298Y-32739454D01*
X102847586Y-32720500D01*
X103524615Y-32720500D01*
X103619903Y-32739454D01*
G37*
G04 #@! TD.AperFunction*
G04 #@! TA.AperFunction,Conductor*
G36*
X119606288Y-60303954D02*
G01*
X119687070Y-60357930D01*
X119741046Y-60438712D01*
X119760000Y-60534000D01*
X119760000Y-61310473D01*
X119764069Y-61330931D01*
X119784527Y-61335000D01*
X120445745Y-61335000D01*
X120455530Y-61334615D01*
X120474801Y-61333099D01*
X120499713Y-61328549D01*
X120630156Y-61290652D01*
X120658680Y-61278309D01*
X120703749Y-61251655D01*
X120795415Y-61219464D01*
X120892424Y-61224803D01*
X120980005Y-61266858D01*
X121044825Y-61339229D01*
X121077016Y-61430895D01*
X121079500Y-61465980D01*
X121079500Y-61823508D01*
X121079220Y-61829436D01*
X121077240Y-61838296D01*
X121077732Y-61853952D01*
X121079377Y-61906289D01*
X121079500Y-61914111D01*
X121079500Y-61940925D01*
X121080480Y-61948685D01*
X121080693Y-61952072D01*
X121081061Y-61959875D01*
X121082403Y-62002569D01*
X121086774Y-62017614D01*
X121087892Y-62024672D01*
X121091193Y-62040611D01*
X121092966Y-62047515D01*
X121094929Y-62063058D01*
X121100697Y-62077626D01*
X121109563Y-62100017D01*
X121117164Y-62122218D01*
X121128256Y-62160398D01*
X121136232Y-62173885D01*
X121139066Y-62180434D01*
X121146231Y-62195060D01*
X121149666Y-62201309D01*
X121155432Y-62215871D01*
X121164637Y-62228541D01*
X121164639Y-62228544D01*
X121178802Y-62248037D01*
X121191677Y-62267638D01*
X121211919Y-62301865D01*
X121222997Y-62312943D01*
X121227361Y-62318569D01*
X121237933Y-62330948D01*
X121242825Y-62336157D01*
X121252037Y-62348837D01*
X121264109Y-62358824D01*
X121264112Y-62358827D01*
X121282663Y-62374173D01*
X121300015Y-62389961D01*
X122245945Y-63335891D01*
X122249933Y-63340274D01*
X122254798Y-63347940D01*
X122266219Y-63358665D01*
X122304372Y-63394493D01*
X122309990Y-63399936D01*
X122328965Y-63418911D01*
X122335150Y-63423709D01*
X122337673Y-63425933D01*
X122343456Y-63431195D01*
X122374607Y-63460448D01*
X122388334Y-63467994D01*
X122394095Y-63472180D01*
X122407723Y-63481132D01*
X122413857Y-63484759D01*
X122426236Y-63494362D01*
X122462719Y-63510149D01*
X122483781Y-63520468D01*
X122504904Y-63532080D01*
X122518632Y-63539627D01*
X122533800Y-63543521D01*
X122540429Y-63546146D01*
X122555847Y-63551424D01*
X122562702Y-63553416D01*
X122577074Y-63559635D01*
X122592539Y-63562085D01*
X122592544Y-63562086D01*
X122616337Y-63565854D01*
X122639308Y-63570611D01*
X122662652Y-63576605D01*
X122662654Y-63576605D01*
X122677823Y-63580500D01*
X122693487Y-63580500D01*
X122700557Y-63581393D01*
X122716805Y-63582672D01*
X122723931Y-63582896D01*
X122739405Y-63585347D01*
X122754998Y-63583873D01*
X122755000Y-63583873D01*
X122778989Y-63581605D01*
X122802423Y-63580500D01*
X125240647Y-63580500D01*
X125335935Y-63599454D01*
X125416717Y-63653430D01*
X125443990Y-63685790D01*
X125463222Y-63713002D01*
X125542081Y-63789823D01*
X125585521Y-63832141D01*
X125640550Y-63912209D01*
X125660750Y-64007241D01*
X125643044Y-64102769D01*
X125590130Y-64184250D01*
X125510062Y-64239279D01*
X125411771Y-64259500D01*
X118799000Y-64259500D01*
X118703712Y-64240546D01*
X118622930Y-64186570D01*
X118568954Y-64105788D01*
X118550000Y-64010500D01*
X118550000Y-61584000D01*
X118568954Y-61488712D01*
X118622930Y-61407930D01*
X118703712Y-61353954D01*
X118799000Y-61335000D01*
X119235473Y-61335000D01*
X119255931Y-61330931D01*
X119260000Y-61310473D01*
X119260000Y-60534000D01*
X119278954Y-60438712D01*
X119332930Y-60357930D01*
X119413712Y-60303954D01*
X119509000Y-60285000D01*
X119511000Y-60285000D01*
X119606288Y-60303954D01*
G37*
G04 #@! TD.AperFunction*
G04 #@! TA.AperFunction,Conductor*
G36*
X135559086Y-23469454D02*
G01*
X135639868Y-23523430D01*
X135693844Y-23604212D01*
X135712798Y-23699500D01*
X135693844Y-23794788D01*
X135639868Y-23875570D01*
X135578002Y-23920766D01*
X135558988Y-23930580D01*
X135329342Y-24049109D01*
X135166001Y-24163908D01*
X135138568Y-24183188D01*
X135095024Y-24213791D01*
X135088813Y-24219562D01*
X135088810Y-24219565D01*
X135011072Y-24291804D01*
X134885224Y-24408749D01*
X134866588Y-24431518D01*
X134709194Y-24623814D01*
X134709189Y-24623821D01*
X134703823Y-24630377D01*
X134688946Y-24654654D01*
X134578650Y-24834642D01*
X134554180Y-24874573D01*
X134439062Y-25136818D01*
X134436742Y-25144961D01*
X134436741Y-25144965D01*
X134432376Y-25160289D01*
X134360600Y-25412261D01*
X134320246Y-25695804D01*
X134319543Y-25830075D01*
X134318901Y-25952834D01*
X134318747Y-25982200D01*
X134356129Y-26266149D01*
X134431702Y-26542398D01*
X134544068Y-26805835D01*
X134548422Y-26813110D01*
X134548423Y-26813112D01*
X134560116Y-26832650D01*
X134691146Y-27051585D01*
X134870215Y-27275100D01*
X135077962Y-27472245D01*
X135310543Y-27639371D01*
X135563653Y-27773386D01*
X135832610Y-27871810D01*
X135840883Y-27873614D01*
X135840887Y-27873615D01*
X136104147Y-27931015D01*
X136104151Y-27931016D01*
X136112436Y-27932822D01*
X136120887Y-27933487D01*
X136120893Y-27933488D01*
X136220698Y-27941343D01*
X136337053Y-27950500D01*
X136491992Y-27950500D01*
X136616517Y-27942011D01*
X136697278Y-27936505D01*
X136697283Y-27936504D01*
X136705737Y-27935928D01*
X136714031Y-27934210D01*
X136714034Y-27934210D01*
X136977890Y-27879568D01*
X136986186Y-27877850D01*
X137256158Y-27782248D01*
X137263679Y-27778366D01*
X137263684Y-27778364D01*
X137375411Y-27720697D01*
X137510658Y-27650891D01*
X137744976Y-27486209D01*
X137954776Y-27291251D01*
X137998855Y-27237397D01*
X138130806Y-27076186D01*
X138130811Y-27076179D01*
X138136177Y-27069623D01*
X138285820Y-26825427D01*
X138372500Y-26627965D01*
X138428157Y-26548332D01*
X138510051Y-26496059D01*
X138605715Y-26479105D01*
X138700585Y-26500050D01*
X138780218Y-26555707D01*
X138832491Y-26637601D01*
X138849500Y-26728050D01*
X138849500Y-60973557D01*
X138830546Y-61068845D01*
X138776570Y-61149627D01*
X138695788Y-61203603D01*
X138600500Y-61222557D01*
X138505212Y-61203603D01*
X138424430Y-61149627D01*
X138371465Y-61071249D01*
X138345951Y-61011433D01*
X138295932Y-60894165D01*
X138284207Y-60874573D01*
X138153211Y-60655695D01*
X138148854Y-60648415D01*
X137969785Y-60424900D01*
X137762038Y-60227755D01*
X137529457Y-60060629D01*
X137276347Y-59926614D01*
X137007390Y-59828190D01*
X136999117Y-59826386D01*
X136999113Y-59826385D01*
X136735853Y-59768985D01*
X136735849Y-59768984D01*
X136727564Y-59767178D01*
X136719113Y-59766513D01*
X136719107Y-59766512D01*
X136619302Y-59758657D01*
X136502947Y-59749500D01*
X136348008Y-59749500D01*
X136223483Y-59757989D01*
X136142722Y-59763495D01*
X136142717Y-59763496D01*
X136134263Y-59764072D01*
X136125969Y-59765790D01*
X136125966Y-59765790D01*
X135970778Y-59797928D01*
X135853814Y-59822150D01*
X135583842Y-59917752D01*
X135576321Y-59921634D01*
X135576316Y-59921636D01*
X135547489Y-59936515D01*
X135329342Y-60049109D01*
X135095024Y-60213791D01*
X134885224Y-60408749D01*
X134841145Y-60462603D01*
X134709194Y-60623814D01*
X134709189Y-60623821D01*
X134703823Y-60630377D01*
X134688308Y-60655695D01*
X134571669Y-60846034D01*
X134554180Y-60874573D01*
X134439062Y-61136818D01*
X134436742Y-61144961D01*
X134436741Y-61144965D01*
X134432960Y-61158239D01*
X134360600Y-61412261D01*
X134320246Y-61695804D01*
X134319892Y-61763504D01*
X134318793Y-61973499D01*
X134318747Y-61982200D01*
X134356129Y-62266149D01*
X134431702Y-62542398D01*
X134544068Y-62805835D01*
X134548422Y-62813110D01*
X134548423Y-62813112D01*
X134686789Y-63044305D01*
X134691146Y-63051585D01*
X134870215Y-63275100D01*
X135077962Y-63472245D01*
X135310543Y-63639371D01*
X135563653Y-63773386D01*
X135572557Y-63776644D01*
X135572616Y-63776666D01*
X135573106Y-63776964D01*
X135579358Y-63779748D01*
X135578999Y-63780555D01*
X135655586Y-63827214D01*
X135712897Y-63905664D01*
X135735824Y-64000076D01*
X135720876Y-64096074D01*
X135670328Y-64179044D01*
X135591878Y-64236355D01*
X135497466Y-64259282D01*
X135487042Y-64259500D01*
X127347804Y-64259500D01*
X127252516Y-64240546D01*
X127171734Y-64186570D01*
X127117758Y-64105788D01*
X127098804Y-64010500D01*
X127117758Y-63915212D01*
X127171734Y-63834430D01*
X127188582Y-63819060D01*
X127223735Y-63789823D01*
X127223736Y-63789822D01*
X127232518Y-63782518D01*
X127341992Y-63650891D01*
X127366299Y-63621665D01*
X127366300Y-63621664D01*
X127373602Y-63612884D01*
X127481410Y-63420379D01*
X127528744Y-63280937D01*
X127548661Y-63222265D01*
X127548662Y-63222260D01*
X127552331Y-63211452D01*
X127583991Y-62993098D01*
X127585643Y-62930000D01*
X127565454Y-62710289D01*
X127505565Y-62497936D01*
X127407980Y-62300053D01*
X127391344Y-62277774D01*
X127282795Y-62132411D01*
X127275967Y-62123267D01*
X127113949Y-61973499D01*
X127079990Y-61952072D01*
X126937007Y-61861857D01*
X126937006Y-61861857D01*
X126927350Y-61855764D01*
X126916750Y-61851535D01*
X126916746Y-61851533D01*
X126733025Y-61778236D01*
X126733020Y-61778234D01*
X126722421Y-61774006D01*
X126669624Y-61763504D01*
X126517216Y-61733188D01*
X126517214Y-61733188D01*
X126506024Y-61730962D01*
X126386275Y-61729394D01*
X126296812Y-61728223D01*
X126296809Y-61728223D01*
X126285406Y-61728074D01*
X126191747Y-61744167D01*
X126079210Y-61763504D01*
X126079206Y-61763505D01*
X126067957Y-61765438D01*
X125988603Y-61794713D01*
X125871666Y-61837853D01*
X125871664Y-61837854D01*
X125860957Y-61841804D01*
X125671341Y-61954614D01*
X125662756Y-61962143D01*
X125514038Y-62092564D01*
X125514034Y-62092568D01*
X125505457Y-62100090D01*
X125438792Y-62184655D01*
X125364917Y-62247751D01*
X125272517Y-62277774D01*
X125243249Y-62279500D01*
X123132586Y-62279500D01*
X123037298Y-62260546D01*
X122956516Y-62206570D01*
X122453430Y-61703484D01*
X122399454Y-61622702D01*
X122380500Y-61527414D01*
X122380500Y-60723391D01*
X123460001Y-60723391D01*
X123460666Y-60736240D01*
X123469445Y-60820868D01*
X123475163Y-60847339D01*
X123521622Y-60986594D01*
X123533811Y-61012615D01*
X123610618Y-61136734D01*
X123628464Y-61159250D01*
X123731761Y-61262366D01*
X123754317Y-61280181D01*
X123878567Y-61356770D01*
X123904606Y-61368912D01*
X124043966Y-61415135D01*
X124070402Y-61420803D01*
X124153846Y-61429353D01*
X124166515Y-61430000D01*
X124385473Y-61430000D01*
X124405931Y-61425931D01*
X124410000Y-61405473D01*
X124410000Y-61405472D01*
X124910000Y-61405472D01*
X124914069Y-61425930D01*
X124934527Y-61429999D01*
X125153391Y-61429999D01*
X125166240Y-61429334D01*
X125250868Y-61420555D01*
X125277339Y-61414837D01*
X125416594Y-61368378D01*
X125442615Y-61356189D01*
X125566734Y-61279382D01*
X125589250Y-61261536D01*
X125692366Y-61158239D01*
X125710181Y-61135683D01*
X125786770Y-61011433D01*
X125798912Y-60985394D01*
X125845135Y-60846034D01*
X125850803Y-60819598D01*
X125859353Y-60736154D01*
X125860000Y-60723485D01*
X125860000Y-60604527D01*
X125855931Y-60584069D01*
X125835473Y-60580000D01*
X124934527Y-60580000D01*
X124914069Y-60584069D01*
X124910000Y-60604527D01*
X124910000Y-61405472D01*
X124410000Y-61405472D01*
X124410000Y-60604527D01*
X124405931Y-60584069D01*
X124385473Y-60580000D01*
X123484528Y-60580000D01*
X123464070Y-60584069D01*
X123460001Y-60604527D01*
X123460001Y-60723391D01*
X122380500Y-60723391D01*
X122380500Y-59926492D01*
X122380780Y-59920564D01*
X122382760Y-59911704D01*
X122380623Y-59843710D01*
X122380500Y-59835889D01*
X122380500Y-59809075D01*
X122379520Y-59801315D01*
X122379307Y-59797928D01*
X122378939Y-59790122D01*
X122377597Y-59747431D01*
X122373226Y-59732386D01*
X122372108Y-59725328D01*
X122368807Y-59709389D01*
X122367034Y-59702485D01*
X122365071Y-59686942D01*
X122350434Y-59649975D01*
X122342836Y-59627782D01*
X122336116Y-59604650D01*
X122336115Y-59604647D01*
X122331744Y-59589602D01*
X122323768Y-59576115D01*
X122320934Y-59569566D01*
X122313769Y-59554940D01*
X122310334Y-59548691D01*
X122304568Y-59534129D01*
X122292537Y-59517569D01*
X122281198Y-59501963D01*
X122268323Y-59482362D01*
X122248081Y-59448135D01*
X122237003Y-59437057D01*
X122232639Y-59431431D01*
X122222067Y-59419052D01*
X122217175Y-59413843D01*
X122207963Y-59401163D01*
X122195891Y-59391176D01*
X122195888Y-59391173D01*
X122177337Y-59375827D01*
X122159985Y-59360039D01*
X121870516Y-59070570D01*
X121816540Y-58989788D01*
X121797586Y-58894500D01*
X121816540Y-58799212D01*
X121870516Y-58718430D01*
X121951298Y-58664454D01*
X122046586Y-58645500D01*
X123230092Y-58645500D01*
X123325380Y-58664454D01*
X123406162Y-58718430D01*
X123460138Y-58799212D01*
X123469958Y-58830658D01*
X123470359Y-58834519D01*
X123474666Y-58847429D01*
X123474667Y-58847433D01*
X123504254Y-58936116D01*
X123525744Y-59000529D01*
X123533354Y-59012826D01*
X123533355Y-59012829D01*
X123585183Y-59096581D01*
X123617834Y-59149345D01*
X123628070Y-59159563D01*
X123637057Y-59170902D01*
X123634986Y-59172544D01*
X123676769Y-59234952D01*
X123695811Y-59330223D01*
X123676945Y-59425528D01*
X123634684Y-59488900D01*
X123636597Y-59490411D01*
X123609819Y-59524317D01*
X123533230Y-59648567D01*
X123521088Y-59674606D01*
X123474865Y-59813966D01*
X123469197Y-59840402D01*
X123460647Y-59923846D01*
X123460000Y-59936515D01*
X123460000Y-60055473D01*
X123464069Y-60075931D01*
X123484527Y-60080000D01*
X125835472Y-60080000D01*
X125855930Y-60075931D01*
X125859999Y-60055473D01*
X125859999Y-59936609D01*
X125859334Y-59923760D01*
X125850555Y-59839132D01*
X125844837Y-59812661D01*
X125798378Y-59673406D01*
X125786189Y-59647385D01*
X125709382Y-59523266D01*
X125682549Y-59489411D01*
X125684705Y-59487702D01*
X125643229Y-59425748D01*
X125624190Y-59330477D01*
X125643059Y-59235172D01*
X125685623Y-59171345D01*
X125683797Y-59169903D01*
X125692765Y-59158548D01*
X125702984Y-59148311D01*
X125733477Y-59098842D01*
X125799610Y-59027673D01*
X125887947Y-58987229D01*
X125945442Y-58980500D01*
X133393508Y-58980500D01*
X133399436Y-58980780D01*
X133408296Y-58982760D01*
X133423952Y-58982268D01*
X133476289Y-58980623D01*
X133484111Y-58980500D01*
X133510925Y-58980500D01*
X133518685Y-58979520D01*
X133522072Y-58979307D01*
X133529875Y-58978939D01*
X133572569Y-58977597D01*
X133587614Y-58973226D01*
X133594672Y-58972108D01*
X133610611Y-58968807D01*
X133617515Y-58967034D01*
X133633058Y-58965071D01*
X133670025Y-58950434D01*
X133692218Y-58942836D01*
X133715350Y-58936116D01*
X133715353Y-58936115D01*
X133730398Y-58931744D01*
X133743885Y-58923768D01*
X133750434Y-58920934D01*
X133765060Y-58913769D01*
X133771309Y-58910334D01*
X133785871Y-58904568D01*
X133798541Y-58895363D01*
X133798544Y-58895361D01*
X133818037Y-58881198D01*
X133837638Y-58868323D01*
X133871865Y-58848081D01*
X133882943Y-58837003D01*
X133888569Y-58832639D01*
X133900948Y-58822067D01*
X133906157Y-58817175D01*
X133918837Y-58807963D01*
X133928824Y-58795891D01*
X133928827Y-58795888D01*
X133944173Y-58777337D01*
X133959961Y-58759985D01*
X137505891Y-55214055D01*
X137510274Y-55210067D01*
X137517940Y-55205202D01*
X137564494Y-55155627D01*
X137569936Y-55150010D01*
X137588911Y-55131035D01*
X137593709Y-55124850D01*
X137595933Y-55122327D01*
X137601201Y-55116538D01*
X137619724Y-55096813D01*
X137630448Y-55085393D01*
X137637994Y-55071666D01*
X137642180Y-55065905D01*
X137651126Y-55052286D01*
X137654757Y-55046147D01*
X137664362Y-55033764D01*
X137680153Y-54997274D01*
X137690468Y-54976220D01*
X137702079Y-54955100D01*
X137702082Y-54955092D01*
X137709627Y-54941368D01*
X137713522Y-54926200D01*
X137716145Y-54919574D01*
X137721422Y-54904159D01*
X137723413Y-54897306D01*
X137729635Y-54882927D01*
X137732087Y-54867447D01*
X137735854Y-54843666D01*
X137740611Y-54820694D01*
X137746603Y-54797357D01*
X137746604Y-54797352D01*
X137750500Y-54782177D01*
X137750500Y-54766506D01*
X137751393Y-54759437D01*
X137752671Y-54743206D01*
X137752895Y-54736067D01*
X137755346Y-54720595D01*
X137753705Y-54703228D01*
X137751605Y-54681020D01*
X137750500Y-54657587D01*
X137750500Y-44931492D01*
X137750780Y-44925564D01*
X137752760Y-44916704D01*
X137750623Y-44848710D01*
X137750500Y-44840889D01*
X137750500Y-44814075D01*
X137749520Y-44806315D01*
X137749307Y-44802928D01*
X137748939Y-44795122D01*
X137748089Y-44768091D01*
X137747597Y-44752431D01*
X137743226Y-44737386D01*
X137742108Y-44730328D01*
X137738807Y-44714389D01*
X137737034Y-44707485D01*
X137735071Y-44691942D01*
X137720434Y-44654975D01*
X137712836Y-44632782D01*
X137706116Y-44609650D01*
X137706115Y-44609647D01*
X137701744Y-44594602D01*
X137693768Y-44581115D01*
X137690934Y-44574566D01*
X137683769Y-44559940D01*
X137680334Y-44553691D01*
X137674568Y-44539129D01*
X137665198Y-44526231D01*
X137651198Y-44506963D01*
X137638323Y-44487362D01*
X137618081Y-44453135D01*
X137607003Y-44442057D01*
X137602639Y-44436431D01*
X137592067Y-44424052D01*
X137587175Y-44418843D01*
X137577963Y-44406163D01*
X137565891Y-44396176D01*
X137565888Y-44396173D01*
X137547337Y-44380827D01*
X137529985Y-44365039D01*
X136738740Y-43573794D01*
X136684764Y-43493012D01*
X136665810Y-43397724D01*
X136671845Y-43351883D01*
X136670361Y-43351621D01*
X136672250Y-43340904D01*
X136675063Y-43330408D01*
X136677093Y-43307213D01*
X136694711Y-43105835D01*
X136695659Y-43095000D01*
X136676947Y-42881124D01*
X136676011Y-42870426D01*
X136676011Y-42870425D01*
X136675063Y-42859592D01*
X136613903Y-42631337D01*
X136603936Y-42609961D01*
X136518631Y-42427027D01*
X136514035Y-42417171D01*
X136506960Y-42407066D01*
X136424944Y-42289936D01*
X136378495Y-42223599D01*
X136211401Y-42056505D01*
X136199519Y-42048185D01*
X136172075Y-42028968D01*
X136104892Y-41958786D01*
X136069680Y-41868237D01*
X136071800Y-41771105D01*
X136110929Y-41682178D01*
X136172075Y-41621032D01*
X136202497Y-41599730D01*
X136202499Y-41599728D01*
X136211401Y-41593495D01*
X136378495Y-41426401D01*
X136514035Y-41232829D01*
X136543566Y-41169500D01*
X136609307Y-41028520D01*
X136609309Y-41028516D01*
X136613903Y-41018663D01*
X136675063Y-40790408D01*
X136678634Y-40749598D01*
X136694711Y-40565835D01*
X136695659Y-40555000D01*
X136675063Y-40319592D01*
X136613903Y-40091337D01*
X136579120Y-40016744D01*
X136518631Y-39887027D01*
X136514035Y-39877171D01*
X136506640Y-39866609D01*
X136440971Y-39772824D01*
X136378495Y-39683599D01*
X136211401Y-39516505D01*
X136202497Y-39510270D01*
X136171638Y-39488662D01*
X136104455Y-39418480D01*
X136069243Y-39327931D01*
X136071363Y-39230799D01*
X136110492Y-39141872D01*
X136171641Y-39080724D01*
X136202175Y-39059344D01*
X136218761Y-39045427D01*
X136370424Y-38893764D01*
X136384347Y-38877170D01*
X136507365Y-38701482D01*
X136518195Y-38682725D01*
X136608834Y-38488348D01*
X136616246Y-38467985D01*
X136664288Y-38288691D01*
X136665652Y-38267877D01*
X136661825Y-38265989D01*
X136654311Y-38265000D01*
X135339000Y-38265000D01*
X135243712Y-38246046D01*
X135162930Y-38192070D01*
X135108954Y-38111288D01*
X135090000Y-38016000D01*
X135090000Y-37740473D01*
X135590000Y-37740473D01*
X135594069Y-37760931D01*
X135614527Y-37765000D01*
X136646109Y-37765000D01*
X136666567Y-37760931D01*
X136667400Y-37756743D01*
X136666410Y-37749229D01*
X136616246Y-37562015D01*
X136608834Y-37541652D01*
X136518195Y-37347275D01*
X136507365Y-37328518D01*
X136384347Y-37152830D01*
X136370424Y-37136236D01*
X136218761Y-36984573D01*
X136202169Y-36970651D01*
X136171203Y-36948968D01*
X136104019Y-36878787D01*
X136068807Y-36788237D01*
X136070926Y-36691106D01*
X136110056Y-36602179D01*
X136171203Y-36541032D01*
X136202169Y-36519349D01*
X136218761Y-36505427D01*
X136370424Y-36353764D01*
X136384347Y-36337170D01*
X136507365Y-36161482D01*
X136518195Y-36142725D01*
X136608834Y-35948348D01*
X136616246Y-35927985D01*
X136664288Y-35748691D01*
X136665652Y-35727877D01*
X136661825Y-35725989D01*
X136654311Y-35725000D01*
X135614527Y-35725000D01*
X135594069Y-35729069D01*
X135590000Y-35749527D01*
X135590000Y-37740473D01*
X135090000Y-37740473D01*
X135090000Y-35200473D01*
X135590000Y-35200473D01*
X135594069Y-35220931D01*
X135614527Y-35225000D01*
X136646109Y-35225000D01*
X136666567Y-35220931D01*
X136667400Y-35216743D01*
X136666410Y-35209229D01*
X136616246Y-35022015D01*
X136608834Y-35001652D01*
X136518195Y-34807275D01*
X136507365Y-34788518D01*
X136384347Y-34612830D01*
X136370424Y-34596236D01*
X136218761Y-34444573D01*
X136202177Y-34430657D01*
X136026478Y-34307631D01*
X136007732Y-34296808D01*
X135813343Y-34206163D01*
X135792986Y-34198754D01*
X135613691Y-34150712D01*
X135592877Y-34149348D01*
X135590989Y-34153175D01*
X135590000Y-34160689D01*
X135590000Y-35200473D01*
X135090000Y-35200473D01*
X135090000Y-34168891D01*
X135085931Y-34148433D01*
X135081743Y-34147600D01*
X135074229Y-34148590D01*
X134887015Y-34198754D01*
X134866652Y-34206166D01*
X134672275Y-34296805D01*
X134653518Y-34307635D01*
X134477829Y-34430653D01*
X134463348Y-34442804D01*
X134378169Y-34489533D01*
X134281591Y-34500109D01*
X134188318Y-34472921D01*
X134112549Y-34412109D01*
X134095268Y-34386822D01*
X134093526Y-34382176D01*
X134034358Y-34303228D01*
X134018187Y-34281652D01*
X134007546Y-34267454D01*
X133892824Y-34181474D01*
X133802464Y-34147600D01*
X133773196Y-34136628D01*
X133773195Y-34136628D01*
X133758580Y-34131149D01*
X133697377Y-34124500D01*
X133690642Y-34124500D01*
X133686029Y-34124250D01*
X133591906Y-34100169D01*
X133514163Y-34041902D01*
X133464636Y-33958318D01*
X133450500Y-33875615D01*
X133450500Y-31376491D01*
X133450780Y-31370563D01*
X133452760Y-31361703D01*
X133450623Y-31293709D01*
X133450500Y-31285888D01*
X133450500Y-31259075D01*
X133449519Y-31251310D01*
X133449308Y-31247951D01*
X133448940Y-31240144D01*
X133448089Y-31213085D01*
X133447597Y-31197430D01*
X133443227Y-31182389D01*
X133442111Y-31175342D01*
X133438808Y-31159393D01*
X133437034Y-31152485D01*
X133435071Y-31136942D01*
X133420436Y-31099977D01*
X133412842Y-31077797D01*
X133406115Y-31054644D01*
X133406114Y-31054641D01*
X133401744Y-31039601D01*
X133393771Y-31026119D01*
X133390941Y-31019580D01*
X133383775Y-31004951D01*
X133380334Y-30998691D01*
X133374568Y-30984129D01*
X133365361Y-30971457D01*
X133365358Y-30971451D01*
X133351197Y-30951960D01*
X133338319Y-30932356D01*
X133328994Y-30916587D01*
X133318081Y-30898135D01*
X133307007Y-30887061D01*
X133302653Y-30881448D01*
X133292067Y-30869052D01*
X133287175Y-30863843D01*
X133277963Y-30851163D01*
X133265891Y-30841176D01*
X133265888Y-30841173D01*
X133247337Y-30825827D01*
X133229985Y-30810039D01*
X130864055Y-28444109D01*
X130860067Y-28439726D01*
X130855202Y-28432060D01*
X130805627Y-28385506D01*
X130800010Y-28380064D01*
X130781035Y-28361089D01*
X130774850Y-28356291D01*
X130772327Y-28354067D01*
X130766538Y-28348799D01*
X130746813Y-28330276D01*
X130735393Y-28319552D01*
X130721666Y-28312006D01*
X130715905Y-28307820D01*
X130702277Y-28298868D01*
X130696143Y-28295241D01*
X130683764Y-28285638D01*
X130647281Y-28269851D01*
X130626219Y-28259532D01*
X130605096Y-28247920D01*
X130605095Y-28247920D01*
X130591368Y-28240373D01*
X130576200Y-28236479D01*
X130569571Y-28233854D01*
X130554153Y-28228576D01*
X130547298Y-28226584D01*
X130532926Y-28220365D01*
X130517461Y-28217915D01*
X130517456Y-28217914D01*
X130493663Y-28214146D01*
X130470692Y-28209389D01*
X130447348Y-28203395D01*
X130447346Y-28203395D01*
X130432177Y-28199500D01*
X130416513Y-28199500D01*
X130409443Y-28198607D01*
X130393195Y-28197328D01*
X130386069Y-28197104D01*
X130370595Y-28194653D01*
X130355002Y-28196127D01*
X130355000Y-28196127D01*
X130331011Y-28198395D01*
X130307577Y-28199500D01*
X124476493Y-28199500D01*
X124470564Y-28199220D01*
X124461704Y-28197240D01*
X124404167Y-28199048D01*
X124393697Y-28199377D01*
X124385876Y-28199500D01*
X124359075Y-28199500D01*
X124351329Y-28200478D01*
X124347945Y-28200691D01*
X124340146Y-28201059D01*
X124323423Y-28201585D01*
X124297431Y-28202402D01*
X124282383Y-28206774D01*
X124275354Y-28207887D01*
X124259379Y-28211195D01*
X124252484Y-28212965D01*
X124236942Y-28214929D01*
X124218684Y-28222158D01*
X124199989Y-28229560D01*
X124177788Y-28237161D01*
X124154649Y-28243883D01*
X124154645Y-28243885D01*
X124139602Y-28248255D01*
X124126120Y-28256228D01*
X124119581Y-28259058D01*
X124104944Y-28266229D01*
X124098691Y-28269666D01*
X124084129Y-28275432D01*
X124051958Y-28298805D01*
X124032366Y-28311674D01*
X124011618Y-28323944D01*
X124011613Y-28323948D01*
X123998135Y-28331919D01*
X123987064Y-28342990D01*
X123981442Y-28347351D01*
X123969052Y-28357933D01*
X123963843Y-28362825D01*
X123951163Y-28372037D01*
X123941176Y-28384109D01*
X123941173Y-28384112D01*
X123925827Y-28402663D01*
X123910039Y-28420015D01*
X122686372Y-29643682D01*
X122605590Y-29697658D01*
X122510302Y-29716612D01*
X122415014Y-29697658D01*
X122334232Y-29643682D01*
X122303265Y-29605948D01*
X122282123Y-29574307D01*
X122260473Y-29570000D01*
X121472027Y-29570000D01*
X121451569Y-29574069D01*
X121447500Y-29594527D01*
X121447500Y-30520472D01*
X121451569Y-30540930D01*
X121472027Y-30544999D01*
X121578392Y-30544999D01*
X121580092Y-30544911D01*
X121580696Y-30544999D01*
X121584834Y-30544999D01*
X121584834Y-30545602D01*
X121676233Y-30558913D01*
X121759697Y-30608641D01*
X121817778Y-30686524D01*
X121841633Y-30780704D01*
X121827631Y-30876845D01*
X121777903Y-30960309D01*
X121769194Y-30969489D01*
X121767239Y-30971448D01*
X121757016Y-30981689D01*
X121749426Y-30994003D01*
X121749424Y-30994005D01*
X121692327Y-31086634D01*
X121665186Y-31130666D01*
X121645819Y-31189056D01*
X121615562Y-31280276D01*
X121610090Y-31296772D01*
X121608704Y-31310300D01*
X121600456Y-31390807D01*
X121599500Y-31400134D01*
X121599500Y-32199866D01*
X121600164Y-32206262D01*
X121600164Y-32206269D01*
X121608953Y-32290971D01*
X121610359Y-32304519D01*
X121614667Y-32317432D01*
X121614668Y-32317436D01*
X121657394Y-32445500D01*
X121665744Y-32470529D01*
X121673354Y-32482826D01*
X121673355Y-32482829D01*
X121725183Y-32566581D01*
X121757834Y-32619345D01*
X121768070Y-32629563D01*
X121777057Y-32640902D01*
X121774910Y-32642604D01*
X121816419Y-32704608D01*
X121835457Y-32799879D01*
X121816587Y-32895184D01*
X121774299Y-32958593D01*
X121776203Y-32960097D01*
X121767236Y-32971451D01*
X121757016Y-32981689D01*
X121749426Y-32994003D01*
X121749424Y-32994005D01*
X121688977Y-33092070D01*
X121665186Y-33130666D01*
X121610090Y-33296772D01*
X121608645Y-33310877D01*
X121608432Y-33311569D01*
X121605855Y-33323589D01*
X121604804Y-33323364D01*
X121580081Y-33403733D01*
X121518154Y-33478594D01*
X121432293Y-33524058D01*
X121360942Y-33534500D01*
X121257111Y-33534500D01*
X121161823Y-33515546D01*
X121081041Y-33461570D01*
X121027065Y-33380788D01*
X121008111Y-33285500D01*
X121017998Y-33216032D01*
X121028548Y-33179717D01*
X121028956Y-33177485D01*
X121027920Y-33168737D01*
X121014669Y-33165000D01*
X119509000Y-33165000D01*
X119413712Y-33146046D01*
X119332930Y-33092070D01*
X119278954Y-33011288D01*
X119260000Y-32916000D01*
X119260000Y-32914000D01*
X119278954Y-32818712D01*
X119332930Y-32737930D01*
X119413712Y-32683954D01*
X119509000Y-32665000D01*
X121007769Y-32665000D01*
X121028227Y-32660931D01*
X121029408Y-32654991D01*
X121028549Y-32650286D01*
X120990652Y-32519844D01*
X120978310Y-32491324D01*
X120928585Y-32407243D01*
X120896394Y-32315576D01*
X120901733Y-32218568D01*
X120928585Y-32153740D01*
X120978771Y-32068880D01*
X120978772Y-32068879D01*
X120986744Y-32055398D01*
X121032598Y-31897569D01*
X121035500Y-31860694D01*
X121035500Y-31429306D01*
X121032598Y-31392431D01*
X120986744Y-31234602D01*
X120933401Y-31144403D01*
X120911055Y-31106618D01*
X120911054Y-31106617D01*
X120903081Y-31093135D01*
X120786865Y-30976919D01*
X120788035Y-30975749D01*
X120736467Y-30916321D01*
X120705720Y-30824160D01*
X120712583Y-30727248D01*
X120756010Y-30640339D01*
X120829390Y-30576664D01*
X120904180Y-30548738D01*
X120943431Y-30540931D01*
X120947500Y-30520473D01*
X120947500Y-29045473D01*
X121447500Y-29045473D01*
X121451569Y-29065931D01*
X121472027Y-29070000D01*
X122260472Y-29070000D01*
X122280930Y-29065931D01*
X122284999Y-29045473D01*
X122284999Y-28801609D01*
X122284334Y-28788760D01*
X122275555Y-28704132D01*
X122269837Y-28677661D01*
X122223378Y-28538406D01*
X122211189Y-28512385D01*
X122134382Y-28388266D01*
X122116536Y-28365750D01*
X122103181Y-28352418D01*
X122049134Y-28271683D01*
X122030097Y-28176412D01*
X122048968Y-28081107D01*
X122102874Y-28000279D01*
X122129867Y-27973239D01*
X122147681Y-27950683D01*
X122224270Y-27826433D01*
X122236412Y-27800394D01*
X122282635Y-27661034D01*
X122288303Y-27634598D01*
X122296853Y-27551154D01*
X122297500Y-27538485D01*
X122297500Y-27294527D01*
X122293431Y-27274069D01*
X122272973Y-27270000D01*
X121484527Y-27270000D01*
X121464069Y-27274069D01*
X121460000Y-27294527D01*
X121460000Y-28222158D01*
X121455216Y-28270735D01*
X121447500Y-28309526D01*
X121447500Y-29045473D01*
X120947500Y-29045473D01*
X120947500Y-28117842D01*
X120952284Y-28069265D01*
X120960000Y-28030474D01*
X120960000Y-27019000D01*
X120978954Y-26923712D01*
X121032930Y-26842930D01*
X121113712Y-26788954D01*
X121209000Y-26770000D01*
X122272972Y-26770000D01*
X122293430Y-26765931D01*
X122297499Y-26745473D01*
X122297499Y-26501609D01*
X122296834Y-26488760D01*
X122288055Y-26404132D01*
X122279462Y-26364347D01*
X122280753Y-26364068D01*
X122270375Y-26281909D01*
X122296013Y-26188198D01*
X122355562Y-26111432D01*
X122439955Y-26063297D01*
X122518753Y-26050500D01*
X127474783Y-26050500D01*
X127570071Y-26069454D01*
X127650853Y-26123430D01*
X127669111Y-26145095D01*
X127669222Y-26145000D01*
X127676628Y-26153672D01*
X127683222Y-26163002D01*
X127691402Y-26170971D01*
X127691404Y-26170973D01*
X127833082Y-26308991D01*
X127833086Y-26308994D01*
X127841264Y-26316961D01*
X128024717Y-26439540D01*
X128035207Y-26444047D01*
X128035209Y-26444048D01*
X128154115Y-26495134D01*
X128227436Y-26526635D01*
X128442632Y-26575329D01*
X128552865Y-26579660D01*
X128651687Y-26583543D01*
X128651691Y-26583543D01*
X128663098Y-26583991D01*
X128806662Y-26563175D01*
X128870149Y-26553970D01*
X128870150Y-26553970D01*
X128881452Y-26552331D01*
X128892260Y-26548662D01*
X128892265Y-26548661D01*
X129049949Y-26495134D01*
X129090379Y-26481410D01*
X129282884Y-26373602D01*
X129452518Y-26232518D01*
X129553225Y-26111432D01*
X129586299Y-26071665D01*
X129586300Y-26071664D01*
X129593602Y-26062884D01*
X129701410Y-25870379D01*
X129721043Y-25812543D01*
X129768661Y-25672265D01*
X129768662Y-25672260D01*
X129772331Y-25661452D01*
X129782888Y-25588646D01*
X129802938Y-25450360D01*
X129803991Y-25443098D01*
X129805643Y-25380000D01*
X129785454Y-25160289D01*
X129725565Y-24947936D01*
X129627980Y-24750053D01*
X129495967Y-24573267D01*
X129333949Y-24423499D01*
X129320979Y-24415315D01*
X129157007Y-24311857D01*
X129157006Y-24311857D01*
X129147350Y-24305764D01*
X129136750Y-24301535D01*
X129136746Y-24301533D01*
X128953025Y-24228236D01*
X128953020Y-24228234D01*
X128942421Y-24224006D01*
X128889624Y-24213504D01*
X128737216Y-24183188D01*
X128737214Y-24183188D01*
X128726024Y-24180962D01*
X128606275Y-24179394D01*
X128516812Y-24178223D01*
X128516809Y-24178223D01*
X128505406Y-24178074D01*
X128411747Y-24194167D01*
X128299210Y-24213504D01*
X128299206Y-24213505D01*
X128287957Y-24215438D01*
X128238746Y-24233593D01*
X128091666Y-24287853D01*
X128091664Y-24287854D01*
X128080957Y-24291804D01*
X127891341Y-24404614D01*
X127882756Y-24412143D01*
X127734038Y-24542564D01*
X127734034Y-24542568D01*
X127725457Y-24550090D01*
X127718392Y-24559052D01*
X127718391Y-24559053D01*
X127643026Y-24654654D01*
X127569149Y-24717751D01*
X127476750Y-24747774D01*
X127447482Y-24749500D01*
X119626491Y-24749500D01*
X119620563Y-24749220D01*
X119611703Y-24747240D01*
X119596047Y-24747732D01*
X119543710Y-24749377D01*
X119535888Y-24749500D01*
X119509075Y-24749500D01*
X119501310Y-24750481D01*
X119497951Y-24750692D01*
X119490144Y-24751060D01*
X119471137Y-24751658D01*
X119447430Y-24752403D01*
X119432389Y-24756773D01*
X119425342Y-24757889D01*
X119409393Y-24761192D01*
X119402485Y-24762966D01*
X119386942Y-24764929D01*
X119349980Y-24779563D01*
X119327797Y-24787158D01*
X119304644Y-24793885D01*
X119304641Y-24793886D01*
X119289601Y-24798256D01*
X119276119Y-24806229D01*
X119269580Y-24809059D01*
X119254951Y-24816225D01*
X119248691Y-24819666D01*
X119234129Y-24825432D01*
X119221457Y-24834639D01*
X119221451Y-24834642D01*
X119201960Y-24848803D01*
X119182361Y-24861678D01*
X119148135Y-24881919D01*
X119137061Y-24892993D01*
X119131448Y-24897347D01*
X119119052Y-24907933D01*
X119113843Y-24912825D01*
X119101163Y-24922037D01*
X119091176Y-24934109D01*
X119091173Y-24934112D01*
X119075827Y-24952663D01*
X119060039Y-24970015D01*
X118975070Y-25054984D01*
X118894288Y-25108960D01*
X118799000Y-25127914D01*
X118703712Y-25108960D01*
X118622930Y-25054984D01*
X118568954Y-24974202D01*
X118550000Y-24878914D01*
X118550000Y-23699500D01*
X118568954Y-23604212D01*
X118622930Y-23523430D01*
X118703712Y-23469454D01*
X118799000Y-23450500D01*
X135463798Y-23450500D01*
X135559086Y-23469454D01*
G37*
G04 #@! TD.AperFunction*
G04 #@! TA.AperFunction,Conductor*
G36*
X135436288Y-45403954D02*
G01*
X135517070Y-45457930D01*
X135571046Y-45538712D01*
X135590000Y-45634000D01*
X135590000Y-54561109D01*
X135594069Y-54581567D01*
X135598257Y-54582400D01*
X135605766Y-54581411D01*
X135654637Y-54568316D01*
X135751584Y-54561962D01*
X135843583Y-54593192D01*
X135916627Y-54657251D01*
X135959598Y-54744387D01*
X135965952Y-54841334D01*
X135934722Y-54933333D01*
X135895152Y-54984902D01*
X133273484Y-57606570D01*
X133192702Y-57660546D01*
X133097414Y-57679500D01*
X127488303Y-57679500D01*
X127393015Y-57660546D01*
X127312233Y-57606570D01*
X127258257Y-57525788D01*
X127239303Y-57430500D01*
X127258257Y-57335212D01*
X127312233Y-57254430D01*
X127321524Y-57246240D01*
X127326865Y-57243081D01*
X127337941Y-57232005D01*
X127343564Y-57227644D01*
X127355948Y-57217067D01*
X127361157Y-57212175D01*
X127373837Y-57202963D01*
X127383824Y-57190891D01*
X127383827Y-57190888D01*
X127399173Y-57172337D01*
X127414961Y-57154985D01*
X128405891Y-56164055D01*
X128410274Y-56160067D01*
X128417940Y-56155202D01*
X128464494Y-56105627D01*
X128469936Y-56100010D01*
X128488912Y-56081034D01*
X128493707Y-56074852D01*
X128495908Y-56072355D01*
X128501180Y-56066560D01*
X128519726Y-56046811D01*
X128519727Y-56046809D01*
X128530448Y-56035393D01*
X128537995Y-56021666D01*
X128542178Y-56015908D01*
X128551133Y-56002276D01*
X128554759Y-55996145D01*
X128564363Y-55983763D01*
X128578466Y-55951173D01*
X128580154Y-55947273D01*
X128590475Y-55926204D01*
X128602080Y-55905095D01*
X128609627Y-55891368D01*
X128613523Y-55876194D01*
X128616145Y-55869572D01*
X128621425Y-55854150D01*
X128623414Y-55847305D01*
X128629636Y-55832926D01*
X128632087Y-55817453D01*
X128632088Y-55817449D01*
X128635855Y-55793663D01*
X128640612Y-55770691D01*
X128646604Y-55747353D01*
X128646604Y-55747350D01*
X128650500Y-55732177D01*
X128650500Y-55716510D01*
X128651393Y-55709440D01*
X128652672Y-55693185D01*
X128652896Y-55686071D01*
X128655347Y-55670595D01*
X128653347Y-55649430D01*
X128651605Y-55631009D01*
X128650500Y-55607576D01*
X128650500Y-55446957D01*
X128669454Y-55351669D01*
X128723430Y-55270887D01*
X128772079Y-55236761D01*
X128770529Y-55234256D01*
X128782833Y-55226642D01*
X128919345Y-55142166D01*
X129042984Y-55018311D01*
X129063578Y-54984902D01*
X129127220Y-54881654D01*
X129127220Y-54881653D01*
X129134814Y-54869334D01*
X129189910Y-54703228D01*
X129194621Y-54657251D01*
X129199853Y-54606185D01*
X129199853Y-54606177D01*
X129200500Y-54599866D01*
X129200500Y-53800134D01*
X129192047Y-53718663D01*
X129191047Y-53709029D01*
X129191047Y-53709027D01*
X129189641Y-53695481D01*
X129134256Y-53529471D01*
X129116582Y-53500909D01*
X129049776Y-53392953D01*
X129042166Y-53380655D01*
X129031930Y-53370437D01*
X129022943Y-53359098D01*
X129025090Y-53357396D01*
X128983581Y-53295392D01*
X128964543Y-53200121D01*
X128983413Y-53104816D01*
X129025701Y-53041407D01*
X129023797Y-53039903D01*
X129032764Y-53028549D01*
X129042984Y-53018311D01*
X129099978Y-52925850D01*
X129127220Y-52881654D01*
X129127220Y-52881653D01*
X129134814Y-52869334D01*
X129178400Y-52737930D01*
X129185629Y-52716136D01*
X129185630Y-52716132D01*
X129189910Y-52703228D01*
X129200500Y-52599866D01*
X129200500Y-51800134D01*
X129194864Y-51745812D01*
X129191047Y-51709029D01*
X129191047Y-51709027D01*
X129189641Y-51695481D01*
X129155814Y-51594087D01*
X129138833Y-51543190D01*
X129134256Y-51529471D01*
X129087485Y-51453889D01*
X129053461Y-51362888D01*
X129056852Y-51265792D01*
X129097141Y-51177385D01*
X129123153Y-51146793D01*
X131330122Y-48939824D01*
X131410904Y-48885848D01*
X131506192Y-48866894D01*
X131601480Y-48885848D01*
X131682262Y-48939824D01*
X131710161Y-48973074D01*
X131761505Y-49046401D01*
X131928599Y-49213495D01*
X131937501Y-49219728D01*
X131937503Y-49219730D01*
X131967923Y-49241030D01*
X132035108Y-49311211D01*
X132070321Y-49401760D01*
X132068202Y-49498892D01*
X132029074Y-49587819D01*
X131967926Y-49648968D01*
X131928599Y-49676505D01*
X131761505Y-49843599D01*
X131625965Y-50037171D01*
X131621369Y-50047027D01*
X131548526Y-50203239D01*
X131526097Y-50251337D01*
X131464937Y-50479592D01*
X131444341Y-50715000D01*
X131464937Y-50950408D01*
X131526097Y-51178663D01*
X131530691Y-51188516D01*
X131530693Y-51188520D01*
X131563015Y-51257834D01*
X131625965Y-51392829D01*
X131761505Y-51586401D01*
X131928599Y-51753495D01*
X131937501Y-51759728D01*
X131937503Y-51759730D01*
X131967923Y-51781030D01*
X132035108Y-51851211D01*
X132070321Y-51941760D01*
X132068202Y-52038892D01*
X132029074Y-52127819D01*
X131967926Y-52188968D01*
X131928599Y-52216505D01*
X131761505Y-52383599D01*
X131625965Y-52577171D01*
X131621369Y-52587027D01*
X131589677Y-52654991D01*
X131526097Y-52791337D01*
X131464937Y-53019592D01*
X131463989Y-53030425D01*
X131463989Y-53030426D01*
X131463028Y-53041407D01*
X131444341Y-53255000D01*
X131445289Y-53265835D01*
X131463515Y-53474150D01*
X131464937Y-53490408D01*
X131526097Y-53718663D01*
X131530691Y-53728516D01*
X131530693Y-53728520D01*
X131621369Y-53922973D01*
X131625965Y-53932829D01*
X131761505Y-54126401D01*
X131928599Y-54293495D01*
X131937497Y-54299725D01*
X131937500Y-54299728D01*
X132081695Y-54400694D01*
X132122170Y-54429035D01*
X132132015Y-54433626D01*
X132132017Y-54433627D01*
X132140471Y-54437569D01*
X132336337Y-54528903D01*
X132346835Y-54531716D01*
X132346838Y-54531717D01*
X132450465Y-54559483D01*
X132564592Y-54590063D01*
X132575425Y-54591011D01*
X132575426Y-54591011D01*
X132789165Y-54609711D01*
X132800000Y-54610659D01*
X132810835Y-54609711D01*
X133024574Y-54591011D01*
X133024575Y-54591011D01*
X133035408Y-54590063D01*
X133149535Y-54559483D01*
X133253162Y-54531717D01*
X133253165Y-54531716D01*
X133263663Y-54528903D01*
X133459529Y-54437569D01*
X133467983Y-54433627D01*
X133467985Y-54433626D01*
X133477830Y-54429035D01*
X133518305Y-54400694D01*
X133662500Y-54299728D01*
X133662503Y-54299725D01*
X133671401Y-54293495D01*
X133838495Y-54126401D01*
X133866338Y-54086637D01*
X133936520Y-54019454D01*
X134027069Y-53984242D01*
X134124201Y-53986362D01*
X134213128Y-54025491D01*
X134274276Y-54086640D01*
X134295655Y-54117173D01*
X134309576Y-54133764D01*
X134461239Y-54285427D01*
X134477823Y-54299343D01*
X134653522Y-54422369D01*
X134672268Y-54433192D01*
X134866657Y-54523837D01*
X134887014Y-54531246D01*
X135066309Y-54579288D01*
X135087123Y-54580652D01*
X135089011Y-54576825D01*
X135090000Y-54569311D01*
X135090000Y-45634000D01*
X135108954Y-45538712D01*
X135162930Y-45457930D01*
X135243712Y-45403954D01*
X135339000Y-45385000D01*
X135341000Y-45385000D01*
X135436288Y-45403954D01*
G37*
G04 #@! TD.AperFunction*
G04 #@! TA.AperFunction,Conductor*
G36*
X126442702Y-38939454D02*
G01*
X126523484Y-38993430D01*
X129755945Y-42225891D01*
X129759933Y-42230274D01*
X129764798Y-42237940D01*
X129776219Y-42248665D01*
X129814372Y-42284493D01*
X129819990Y-42289936D01*
X129838965Y-42308911D01*
X129845150Y-42313709D01*
X129847673Y-42315933D01*
X129853456Y-42321195D01*
X129884607Y-42350448D01*
X129898334Y-42357994D01*
X129904095Y-42362180D01*
X129917714Y-42371126D01*
X129923853Y-42374757D01*
X129936236Y-42384362D01*
X129972726Y-42400153D01*
X129993780Y-42410468D01*
X130014900Y-42422079D01*
X130014908Y-42422082D01*
X130028632Y-42429627D01*
X130043800Y-42433522D01*
X130050426Y-42436145D01*
X130065841Y-42441422D01*
X130072694Y-42443413D01*
X130087073Y-42449635D01*
X130102550Y-42452086D01*
X130102553Y-42452087D01*
X130126334Y-42455854D01*
X130149306Y-42460611D01*
X130172643Y-42466603D01*
X130172648Y-42466604D01*
X130187823Y-42470500D01*
X130203494Y-42470500D01*
X130210563Y-42471393D01*
X130226794Y-42472671D01*
X130233933Y-42472895D01*
X130249405Y-42475346D01*
X130264999Y-42473872D01*
X130265001Y-42473872D01*
X130288980Y-42471605D01*
X130312413Y-42470500D01*
X131244690Y-42470500D01*
X131339978Y-42489454D01*
X131420760Y-42543430D01*
X131474736Y-42624212D01*
X131493690Y-42719500D01*
X131485206Y-42783944D01*
X131484610Y-42786169D01*
X131464937Y-42859592D01*
X131463989Y-42870425D01*
X131463989Y-42870426D01*
X131463677Y-42873994D01*
X131462875Y-42876745D01*
X131462103Y-42881124D01*
X131461623Y-42881039D01*
X131436489Y-42967267D01*
X131391695Y-43028359D01*
X123393484Y-51026570D01*
X123312702Y-51080546D01*
X123217414Y-51099500D01*
X123100134Y-51099500D01*
X123093738Y-51100164D01*
X123093731Y-51100164D01*
X123009029Y-51108953D01*
X123009027Y-51108953D01*
X122995481Y-51110359D01*
X122982568Y-51114667D01*
X122982564Y-51114668D01*
X122886274Y-51146793D01*
X122829471Y-51165744D01*
X122817174Y-51173354D01*
X122817171Y-51173355D01*
X122792665Y-51188520D01*
X122680655Y-51257834D01*
X122557016Y-51381689D01*
X122549426Y-51394003D01*
X122549424Y-51394005D01*
X122496753Y-51479454D01*
X122465186Y-51530666D01*
X122460630Y-51544403D01*
X122414803Y-51682564D01*
X122410090Y-51696772D01*
X122408704Y-51710300D01*
X122403640Y-51759730D01*
X122399500Y-51800134D01*
X122399500Y-52599866D01*
X122400164Y-52606262D01*
X122400164Y-52606269D01*
X122405220Y-52654991D01*
X122410359Y-52704519D01*
X122414667Y-52717432D01*
X122414668Y-52717436D01*
X122460762Y-52855597D01*
X122465744Y-52870529D01*
X122473354Y-52882826D01*
X122473355Y-52882829D01*
X122525183Y-52966581D01*
X122557834Y-53019345D01*
X122568070Y-53029563D01*
X122577057Y-53040902D01*
X122574910Y-53042604D01*
X122616419Y-53104608D01*
X122635457Y-53199879D01*
X122616587Y-53295184D01*
X122574299Y-53358593D01*
X122576203Y-53360097D01*
X122567235Y-53371452D01*
X122557016Y-53381689D01*
X122535769Y-53416158D01*
X122469636Y-53487327D01*
X122381300Y-53527771D01*
X122323804Y-53534500D01*
X121257111Y-53534500D01*
X121161823Y-53515546D01*
X121081041Y-53461570D01*
X121027065Y-53380788D01*
X121008111Y-53285500D01*
X121017998Y-53216032D01*
X121028548Y-53179717D01*
X121028956Y-53177485D01*
X121027920Y-53168737D01*
X121014669Y-53165000D01*
X119509000Y-53165000D01*
X119413712Y-53146046D01*
X119332930Y-53092070D01*
X119278954Y-53011288D01*
X119260000Y-52916000D01*
X119260000Y-52914000D01*
X119278954Y-52818712D01*
X119332930Y-52737930D01*
X119413712Y-52683954D01*
X119509000Y-52665000D01*
X121007769Y-52665000D01*
X121028227Y-52660931D01*
X121029408Y-52654991D01*
X121028549Y-52650286D01*
X120990652Y-52519844D01*
X120978310Y-52491324D01*
X120928585Y-52407243D01*
X120896394Y-52315576D01*
X120901733Y-52218568D01*
X120928585Y-52153740D01*
X120978771Y-52068880D01*
X120978772Y-52068879D01*
X120986744Y-52055398D01*
X121032598Y-51897569D01*
X121035500Y-51860694D01*
X121035500Y-51429306D01*
X121032598Y-51392431D01*
X121026503Y-51371450D01*
X120995806Y-51265792D01*
X120986744Y-51234602D01*
X120950523Y-51173355D01*
X120911055Y-51106618D01*
X120911054Y-51106617D01*
X120903081Y-51093135D01*
X120786865Y-50976919D01*
X120766047Y-50964607D01*
X120721606Y-50938325D01*
X120649236Y-50873505D01*
X120607180Y-50785924D01*
X120601841Y-50688916D01*
X120634032Y-50597249D01*
X120698852Y-50524879D01*
X120786433Y-50482823D01*
X120848357Y-50475000D01*
X120900473Y-50475000D01*
X120920931Y-50470931D01*
X120925000Y-50450473D01*
X120925000Y-50450472D01*
X121425000Y-50450472D01*
X121429069Y-50470930D01*
X121449527Y-50474999D01*
X121555891Y-50474999D01*
X121568740Y-50474334D01*
X121653368Y-50465555D01*
X121679839Y-50459837D01*
X121819094Y-50413378D01*
X121845115Y-50401189D01*
X121969234Y-50324382D01*
X121991750Y-50306536D01*
X122094866Y-50203239D01*
X122112681Y-50180683D01*
X122189270Y-50056433D01*
X122201412Y-50030394D01*
X122247635Y-49891034D01*
X122253303Y-49864598D01*
X122261853Y-49781154D01*
X122262500Y-49768485D01*
X122262500Y-49524527D01*
X122258431Y-49504069D01*
X122237973Y-49500000D01*
X121449527Y-49500000D01*
X121429069Y-49504069D01*
X121425000Y-49524527D01*
X121425000Y-50450472D01*
X120925000Y-50450472D01*
X120925000Y-48189526D01*
X120917284Y-48150735D01*
X120912500Y-48102158D01*
X120912500Y-47960474D01*
X121412500Y-47960474D01*
X121420216Y-47999265D01*
X121425000Y-48047842D01*
X121425000Y-48975473D01*
X121429069Y-48995931D01*
X121449527Y-49000000D01*
X122237972Y-49000000D01*
X122258430Y-48995931D01*
X122262499Y-48975473D01*
X122262499Y-48731609D01*
X122261834Y-48718760D01*
X122253055Y-48634132D01*
X122247337Y-48607661D01*
X122200878Y-48468406D01*
X122188689Y-48442385D01*
X122111882Y-48318266D01*
X122094037Y-48295751D01*
X122043160Y-48244963D01*
X121989113Y-48164229D01*
X121970075Y-48068957D01*
X121988946Y-47973652D01*
X122042852Y-47892823D01*
X122082366Y-47853239D01*
X122100181Y-47830683D01*
X122176770Y-47706433D01*
X122188912Y-47680394D01*
X122235135Y-47541034D01*
X122240803Y-47514598D01*
X122249353Y-47431154D01*
X122250000Y-47418485D01*
X122250000Y-47174527D01*
X122245931Y-47154069D01*
X122225473Y-47150000D01*
X121437027Y-47150000D01*
X121416569Y-47154069D01*
X121412500Y-47174527D01*
X121412500Y-47960474D01*
X120912500Y-47960474D01*
X120912500Y-46899000D01*
X120931454Y-46803712D01*
X120985430Y-46722930D01*
X121066212Y-46668954D01*
X121161500Y-46650000D01*
X122225472Y-46650000D01*
X122245930Y-46645931D01*
X122249999Y-46625473D01*
X122249999Y-46381609D01*
X122249334Y-46368760D01*
X122240555Y-46284132D01*
X122234837Y-46257661D01*
X122188379Y-46118408D01*
X122186839Y-46115121D01*
X122185585Y-46110034D01*
X122183800Y-46104684D01*
X122184231Y-46104540D01*
X122163584Y-46020790D01*
X122178198Y-45924741D01*
X122228456Y-45841595D01*
X122306707Y-45784011D01*
X122401038Y-45760756D01*
X122412328Y-45760500D01*
X123919445Y-45760500D01*
X124014733Y-45779454D01*
X124095515Y-45833430D01*
X124122788Y-45865790D01*
X124126052Y-45870408D01*
X124163222Y-45923002D01*
X124171394Y-45930963D01*
X124171395Y-45930964D01*
X124313082Y-46068991D01*
X124313086Y-46068994D01*
X124321264Y-46076961D01*
X124504717Y-46199540D01*
X124515207Y-46204047D01*
X124515209Y-46204048D01*
X124672841Y-46271772D01*
X124707436Y-46286635D01*
X124922632Y-46335329D01*
X125032865Y-46339660D01*
X125131687Y-46343543D01*
X125131691Y-46343543D01*
X125143098Y-46343991D01*
X125286662Y-46323175D01*
X125350149Y-46313970D01*
X125350150Y-46313970D01*
X125361452Y-46312331D01*
X125372260Y-46308662D01*
X125372265Y-46308661D01*
X125522505Y-46257661D01*
X125570379Y-46241410D01*
X125762884Y-46133602D01*
X125932518Y-45992518D01*
X126026694Y-45879284D01*
X126066299Y-45831665D01*
X126066300Y-45831664D01*
X126073602Y-45822884D01*
X126181410Y-45630379D01*
X126232886Y-45478736D01*
X126248661Y-45432265D01*
X126248662Y-45432260D01*
X126252331Y-45421452D01*
X126269688Y-45301747D01*
X126282938Y-45210360D01*
X126283991Y-45203098D01*
X126285643Y-45140000D01*
X126265454Y-44920289D01*
X126205565Y-44707936D01*
X126107980Y-44510053D01*
X126099567Y-44498786D01*
X125982795Y-44342411D01*
X125975967Y-44333267D01*
X125813949Y-44183499D01*
X125774766Y-44158776D01*
X125637007Y-44071857D01*
X125637006Y-44071857D01*
X125627350Y-44065764D01*
X125616750Y-44061535D01*
X125616746Y-44061533D01*
X125433025Y-43988236D01*
X125433020Y-43988234D01*
X125422421Y-43984006D01*
X125333915Y-43966401D01*
X125217216Y-43943188D01*
X125217214Y-43943188D01*
X125206024Y-43940962D01*
X125086275Y-43939394D01*
X124996812Y-43938223D01*
X124996809Y-43938223D01*
X124985406Y-43938074D01*
X124891747Y-43954167D01*
X124779210Y-43973504D01*
X124779206Y-43973505D01*
X124767957Y-43975438D01*
X124728965Y-43989823D01*
X124571666Y-44047853D01*
X124571664Y-44047854D01*
X124560957Y-44051804D01*
X124371341Y-44164614D01*
X124205457Y-44310090D01*
X124198390Y-44319055D01*
X124162442Y-44364654D01*
X124088565Y-44427752D01*
X123996165Y-44457774D01*
X123966898Y-44459500D01*
X123777804Y-44459500D01*
X123682516Y-44440546D01*
X123601734Y-44386570D01*
X123547758Y-44305788D01*
X123528804Y-44210500D01*
X123547758Y-44115212D01*
X123601734Y-44034430D01*
X123618582Y-44019060D01*
X123653735Y-43989823D01*
X123653736Y-43989822D01*
X123662518Y-43982518D01*
X123759488Y-43865925D01*
X123796299Y-43821665D01*
X123796300Y-43821664D01*
X123803602Y-43812884D01*
X123911410Y-43620379D01*
X123954645Y-43493012D01*
X123978661Y-43422265D01*
X123978662Y-43422260D01*
X123982331Y-43411452D01*
X123984322Y-43397724D01*
X124012938Y-43200360D01*
X124013991Y-43193098D01*
X124015643Y-43130000D01*
X123995454Y-42910289D01*
X123935565Y-42697936D01*
X123837980Y-42500053D01*
X123816579Y-42471393D01*
X123712795Y-42332411D01*
X123705967Y-42323267D01*
X123543949Y-42173499D01*
X123524021Y-42160925D01*
X123367007Y-42061857D01*
X123367006Y-42061857D01*
X123357350Y-42055764D01*
X123346750Y-42051535D01*
X123346746Y-42051533D01*
X123163025Y-41978236D01*
X123163020Y-41978234D01*
X123152421Y-41974006D01*
X123075905Y-41958786D01*
X122947216Y-41933188D01*
X122947214Y-41933188D01*
X122936024Y-41930962D01*
X122827409Y-41929540D01*
X122726818Y-41928223D01*
X122726814Y-41928223D01*
X122715406Y-41928074D01*
X122714259Y-41928271D01*
X122622551Y-41917415D01*
X122537784Y-41869941D01*
X122477638Y-41793643D01*
X122451267Y-41700135D01*
X122450500Y-41680603D01*
X122450500Y-41101804D01*
X122469454Y-41006516D01*
X122523430Y-40925734D01*
X122604212Y-40871758D01*
X122699500Y-40852804D01*
X122794788Y-40871758D01*
X122875570Y-40925734D01*
X122911238Y-40970777D01*
X122970618Y-41066734D01*
X122988464Y-41089250D01*
X123091761Y-41192366D01*
X123114317Y-41210181D01*
X123238567Y-41286770D01*
X123264606Y-41298912D01*
X123403966Y-41345135D01*
X123430402Y-41350803D01*
X123513846Y-41359353D01*
X123526515Y-41360000D01*
X123745473Y-41360000D01*
X123765931Y-41355931D01*
X123770000Y-41335473D01*
X123770000Y-41335472D01*
X124270000Y-41335472D01*
X124274069Y-41355930D01*
X124294527Y-41359999D01*
X124513391Y-41359999D01*
X124526240Y-41359334D01*
X124610868Y-41350555D01*
X124637339Y-41344837D01*
X124776594Y-41298378D01*
X124802615Y-41286189D01*
X124926734Y-41209382D01*
X124949250Y-41191536D01*
X125052366Y-41088239D01*
X125070181Y-41065683D01*
X125146770Y-40941433D01*
X125158912Y-40915394D01*
X125205135Y-40776034D01*
X125210803Y-40749598D01*
X125219353Y-40666154D01*
X125220000Y-40653485D01*
X125220000Y-40534527D01*
X125215931Y-40514069D01*
X125195473Y-40510000D01*
X124294527Y-40510000D01*
X124274069Y-40514069D01*
X124270000Y-40534527D01*
X124270000Y-41335472D01*
X123770000Y-41335472D01*
X123770000Y-40259000D01*
X123788954Y-40163712D01*
X123842930Y-40082930D01*
X123923712Y-40028954D01*
X124019000Y-40010000D01*
X125195472Y-40010000D01*
X125215930Y-40005931D01*
X125219999Y-39985473D01*
X125219999Y-39866609D01*
X125219334Y-39853760D01*
X125210555Y-39769132D01*
X125204837Y-39742661D01*
X125158378Y-39603406D01*
X125146189Y-39577385D01*
X125069382Y-39453266D01*
X125042549Y-39419411D01*
X125044705Y-39417702D01*
X125003229Y-39355748D01*
X124984190Y-39260477D01*
X125003059Y-39165172D01*
X125045623Y-39101345D01*
X125043797Y-39099903D01*
X125052765Y-39088548D01*
X125062984Y-39078311D01*
X125087313Y-39038842D01*
X125153446Y-38967673D01*
X125241782Y-38927229D01*
X125299278Y-38920500D01*
X126347414Y-38920500D01*
X126442702Y-38939454D01*
G37*
G04 #@! TD.AperFunction*
G04 #@! TA.AperFunction,Conductor*
G36*
X119606288Y-40303954D02*
G01*
X119687070Y-40357930D01*
X119741046Y-40438712D01*
X119760000Y-40534000D01*
X119760000Y-41310473D01*
X119764069Y-41330931D01*
X119784527Y-41335000D01*
X120445745Y-41335000D01*
X120455530Y-41334615D01*
X120474801Y-41333099D01*
X120499713Y-41328549D01*
X120630156Y-41290652D01*
X120658680Y-41278309D01*
X120773749Y-41210257D01*
X120865415Y-41178066D01*
X120962424Y-41183405D01*
X121050004Y-41225460D01*
X121114825Y-41297831D01*
X121147016Y-41389497D01*
X121149500Y-41424582D01*
X121149500Y-42043508D01*
X121149220Y-42049436D01*
X121147240Y-42058296D01*
X121147732Y-42073952D01*
X121149377Y-42126289D01*
X121149500Y-42134111D01*
X121149500Y-42160925D01*
X121150480Y-42168685D01*
X121150693Y-42172072D01*
X121151061Y-42179875D01*
X121152403Y-42222569D01*
X121156774Y-42237614D01*
X121157892Y-42244672D01*
X121161193Y-42260611D01*
X121162966Y-42267515D01*
X121164929Y-42283058D01*
X121177654Y-42315195D01*
X121179563Y-42320017D01*
X121187164Y-42342218D01*
X121198256Y-42380398D01*
X121206232Y-42393885D01*
X121209066Y-42400434D01*
X121216231Y-42415060D01*
X121219666Y-42421309D01*
X121225432Y-42435871D01*
X121234637Y-42448541D01*
X121234639Y-42448544D01*
X121248802Y-42468037D01*
X121261677Y-42487638D01*
X121281919Y-42521865D01*
X121292997Y-42532943D01*
X121297361Y-42538569D01*
X121307933Y-42550948D01*
X121312825Y-42556157D01*
X121322037Y-42568837D01*
X121334109Y-42578824D01*
X121334112Y-42578827D01*
X121352663Y-42594173D01*
X121370015Y-42609961D01*
X121546223Y-42786169D01*
X121600199Y-42866951D01*
X121619153Y-42962239D01*
X121617428Y-42991496D01*
X121604770Y-43098440D01*
X121619200Y-43318604D01*
X121622009Y-43329665D01*
X121622010Y-43329670D01*
X121663494Y-43493012D01*
X121673511Y-43532452D01*
X121765883Y-43732821D01*
X121893222Y-43913002D01*
X121901394Y-43920963D01*
X121901395Y-43920964D01*
X121931391Y-43950185D01*
X121972081Y-43989823D01*
X122015521Y-44032141D01*
X122070550Y-44112209D01*
X122090750Y-44207241D01*
X122073044Y-44302769D01*
X122020130Y-44384250D01*
X121940062Y-44439279D01*
X121841771Y-44459500D01*
X119866492Y-44459500D01*
X119860564Y-44459220D01*
X119851704Y-44457240D01*
X119836048Y-44457732D01*
X119783711Y-44459377D01*
X119775889Y-44459500D01*
X119749075Y-44459500D01*
X119741315Y-44460480D01*
X119737928Y-44460693D01*
X119730125Y-44461061D01*
X119687431Y-44462403D01*
X119672386Y-44466774D01*
X119665328Y-44467892D01*
X119649389Y-44471193D01*
X119642485Y-44472966D01*
X119626942Y-44474929D01*
X119589975Y-44489566D01*
X119567782Y-44497164D01*
X119544650Y-44503884D01*
X119544647Y-44503885D01*
X119529602Y-44508256D01*
X119516115Y-44516232D01*
X119509566Y-44519066D01*
X119494940Y-44526231D01*
X119488691Y-44529666D01*
X119474129Y-44535432D01*
X119461459Y-44544637D01*
X119461456Y-44544639D01*
X119441963Y-44558802D01*
X119422362Y-44571677D01*
X119388135Y-44591919D01*
X119377057Y-44602997D01*
X119371431Y-44607361D01*
X119359052Y-44617933D01*
X119353843Y-44622825D01*
X119341163Y-44632037D01*
X119331176Y-44644109D01*
X119331173Y-44644112D01*
X119315827Y-44662663D01*
X119300039Y-44680015D01*
X118975070Y-45004984D01*
X118894288Y-45058960D01*
X118799000Y-45077914D01*
X118703712Y-45058960D01*
X118622930Y-45004984D01*
X118568954Y-44924202D01*
X118550000Y-44828914D01*
X118550000Y-41584000D01*
X118568954Y-41488712D01*
X118622930Y-41407930D01*
X118703712Y-41353954D01*
X118799000Y-41335000D01*
X119235473Y-41335000D01*
X119255931Y-41330931D01*
X119260000Y-41310473D01*
X119260000Y-40534000D01*
X119278954Y-40438712D01*
X119332930Y-40357930D01*
X119413712Y-40303954D01*
X119509000Y-40285000D01*
X119511000Y-40285000D01*
X119606288Y-40303954D01*
G37*
G04 #@! TD.AperFunction*
M02*
