G04 #@! TF.GenerationSoftware,KiCad,Pcbnew,(6.0.6)*
G04 #@! TF.CreationDate,2023-08-29T14:37:19+02:00*
G04 #@! TF.ProjectId,digital-isolator-2t6r,64696769-7461-46c2-9d69-736f6c61746f,rev?*
G04 #@! TF.SameCoordinates,Original*
G04 #@! TF.FileFunction,Legend,Bot*
G04 #@! TF.FilePolarity,Positive*
%FSLAX46Y46*%
G04 Gerber Fmt 4.6, Leading zero omitted, Abs format (unit mm)*
G04 Created by KiCad (PCBNEW (6.0.6)) date 2023-08-29 14:37:19*
%MOMM*%
%LPD*%
G01*
G04 APERTURE LIST*
%ADD10C,0.150000*%
%ADD11C,0.120000*%
%ADD12C,3.200000*%
%ADD13R,1.700000X1.700000*%
%ADD14O,1.700000X1.700000*%
G04 APERTURE END LIST*
D10*
X125570000Y-43396666D02*
X125803333Y-43063333D01*
X125970000Y-43396666D02*
X125970000Y-42696666D01*
X125703333Y-42696666D01*
X125636666Y-42730000D01*
X125603333Y-42763333D01*
X125570000Y-42830000D01*
X125570000Y-42930000D01*
X125603333Y-42996666D01*
X125636666Y-43030000D01*
X125703333Y-43063333D01*
X125970000Y-43063333D01*
X124903333Y-43396666D02*
X125303333Y-43396666D01*
X125103333Y-43396666D02*
X125103333Y-42696666D01*
X125170000Y-42796666D01*
X125236666Y-42863333D01*
X125303333Y-42896666D01*
X124503333Y-42996666D02*
X124570000Y-42963333D01*
X124603333Y-42930000D01*
X124636666Y-42863333D01*
X124636666Y-42830000D01*
X124603333Y-42763333D01*
X124570000Y-42730000D01*
X124503333Y-42696666D01*
X124370000Y-42696666D01*
X124303333Y-42730000D01*
X124270000Y-42763333D01*
X124236666Y-42830000D01*
X124236666Y-42863333D01*
X124270000Y-42930000D01*
X124303333Y-42963333D01*
X124370000Y-42996666D01*
X124503333Y-42996666D01*
X124570000Y-43030000D01*
X124603333Y-43063333D01*
X124636666Y-43130000D01*
X124636666Y-43263333D01*
X124603333Y-43330000D01*
X124570000Y-43363333D01*
X124503333Y-43396666D01*
X124370000Y-43396666D01*
X124303333Y-43363333D01*
X124270000Y-43330000D01*
X124236666Y-43263333D01*
X124236666Y-43130000D01*
X124270000Y-43063333D01*
X124303333Y-43030000D01*
X124370000Y-42996666D01*
X105730000Y-58286666D02*
X105963333Y-57953333D01*
X106130000Y-58286666D02*
X106130000Y-57586666D01*
X105863333Y-57586666D01*
X105796666Y-57620000D01*
X105763333Y-57653333D01*
X105730000Y-57720000D01*
X105730000Y-57820000D01*
X105763333Y-57886666D01*
X105796666Y-57920000D01*
X105863333Y-57953333D01*
X106130000Y-57953333D01*
X105063333Y-58286666D02*
X105463333Y-58286666D01*
X105263333Y-58286666D02*
X105263333Y-57586666D01*
X105330000Y-57686666D01*
X105396666Y-57753333D01*
X105463333Y-57786666D01*
X104430000Y-57586666D02*
X104763333Y-57586666D01*
X104796666Y-57920000D01*
X104763333Y-57886666D01*
X104696666Y-57853333D01*
X104530000Y-57853333D01*
X104463333Y-57886666D01*
X104430000Y-57920000D01*
X104396666Y-57986666D01*
X104396666Y-58153333D01*
X104430000Y-58220000D01*
X104463333Y-58253333D01*
X104530000Y-58286666D01*
X104696666Y-58286666D01*
X104763333Y-58253333D01*
X104796666Y-58220000D01*
X104870000Y-42976666D02*
X105103333Y-42643333D01*
X105270000Y-42976666D02*
X105270000Y-42276666D01*
X105003333Y-42276666D01*
X104936666Y-42310000D01*
X104903333Y-42343333D01*
X104870000Y-42410000D01*
X104870000Y-42510000D01*
X104903333Y-42576666D01*
X104936666Y-42610000D01*
X105003333Y-42643333D01*
X105270000Y-42643333D01*
X104203333Y-42976666D02*
X104603333Y-42976666D01*
X104403333Y-42976666D02*
X104403333Y-42276666D01*
X104470000Y-42376666D01*
X104536666Y-42443333D01*
X104603333Y-42476666D01*
X103970000Y-42276666D02*
X103503333Y-42276666D01*
X103803333Y-42976666D01*
X99520000Y-61546666D02*
X99753333Y-61213333D01*
X99920000Y-61546666D02*
X99920000Y-60846666D01*
X99653333Y-60846666D01*
X99586666Y-60880000D01*
X99553333Y-60913333D01*
X99520000Y-60980000D01*
X99520000Y-61080000D01*
X99553333Y-61146666D01*
X99586666Y-61180000D01*
X99653333Y-61213333D01*
X99920000Y-61213333D01*
X98853333Y-61546666D02*
X99253333Y-61546666D01*
X99053333Y-61546666D02*
X99053333Y-60846666D01*
X99120000Y-60946666D01*
X99186666Y-61013333D01*
X99253333Y-61046666D01*
X98520000Y-61546666D02*
X98386666Y-61546666D01*
X98320000Y-61513333D01*
X98286666Y-61480000D01*
X98220000Y-61380000D01*
X98186666Y-61246666D01*
X98186666Y-60980000D01*
X98220000Y-60913333D01*
X98253333Y-60880000D01*
X98320000Y-60846666D01*
X98453333Y-60846666D01*
X98520000Y-60880000D01*
X98553333Y-60913333D01*
X98586666Y-60980000D01*
X98586666Y-61146666D01*
X98553333Y-61213333D01*
X98520000Y-61246666D01*
X98453333Y-61280000D01*
X98320000Y-61280000D01*
X98253333Y-61246666D01*
X98220000Y-61213333D01*
X98186666Y-61146666D01*
X127830000Y-61596666D02*
X128063333Y-61263333D01*
X128230000Y-61596666D02*
X128230000Y-60896666D01*
X127963333Y-60896666D01*
X127896666Y-60930000D01*
X127863333Y-60963333D01*
X127830000Y-61030000D01*
X127830000Y-61130000D01*
X127863333Y-61196666D01*
X127896666Y-61230000D01*
X127963333Y-61263333D01*
X128230000Y-61263333D01*
X127563333Y-60963333D02*
X127530000Y-60930000D01*
X127463333Y-60896666D01*
X127296666Y-60896666D01*
X127230000Y-60930000D01*
X127196666Y-60963333D01*
X127163333Y-61030000D01*
X127163333Y-61096666D01*
X127196666Y-61196666D01*
X127596666Y-61596666D01*
X127163333Y-61596666D01*
X126730000Y-60896666D02*
X126663333Y-60896666D01*
X126596666Y-60930000D01*
X126563333Y-60963333D01*
X126530000Y-61030000D01*
X126496666Y-61163333D01*
X126496666Y-61330000D01*
X126530000Y-61463333D01*
X126563333Y-61530000D01*
X126596666Y-61563333D01*
X126663333Y-61596666D01*
X126730000Y-61596666D01*
X126796666Y-61563333D01*
X126830000Y-61530000D01*
X126863333Y-61463333D01*
X126896666Y-61330000D01*
X126896666Y-61163333D01*
X126863333Y-61030000D01*
X126830000Y-60963333D01*
X126796666Y-60930000D01*
X126730000Y-60896666D01*
X105016666Y-37066666D02*
X105250000Y-36733333D01*
X105416666Y-37066666D02*
X105416666Y-36366666D01*
X105150000Y-36366666D01*
X105083333Y-36400000D01*
X105050000Y-36433333D01*
X105016666Y-36500000D01*
X105016666Y-36600000D01*
X105050000Y-36666666D01*
X105083333Y-36700000D01*
X105150000Y-36733333D01*
X105416666Y-36733333D01*
X104416666Y-36366666D02*
X104550000Y-36366666D01*
X104616666Y-36400000D01*
X104650000Y-36433333D01*
X104716666Y-36533333D01*
X104750000Y-36666666D01*
X104750000Y-36933333D01*
X104716666Y-37000000D01*
X104683333Y-37033333D01*
X104616666Y-37066666D01*
X104483333Y-37066666D01*
X104416666Y-37033333D01*
X104383333Y-37000000D01*
X104350000Y-36933333D01*
X104350000Y-36766666D01*
X104383333Y-36700000D01*
X104416666Y-36666666D01*
X104483333Y-36633333D01*
X104616666Y-36633333D01*
X104683333Y-36666666D01*
X104716666Y-36700000D01*
X104750000Y-36766666D01*
D11*
X123545000Y-44347064D02*
X123545000Y-43892936D01*
X122075000Y-44347064D02*
X122075000Y-43892936D01*
X108385000Y-57522936D02*
X108385000Y-57977064D01*
X106915000Y-57522936D02*
X106915000Y-57977064D01*
X107275000Y-43162936D02*
X107275000Y-43617064D01*
X105805000Y-43162936D02*
X105805000Y-43617064D01*
X99297064Y-62145000D02*
X98842936Y-62145000D01*
X99297064Y-63615000D02*
X98842936Y-63615000D01*
X127607064Y-62195000D02*
X127152936Y-62195000D01*
X127607064Y-63665000D02*
X127152936Y-63665000D01*
X106475000Y-36242936D02*
X106475000Y-36697064D01*
X107945000Y-36242936D02*
X107945000Y-36697064D01*
%LPC*%
D12*
X136420000Y-25850000D03*
D13*
X99050000Y-53275000D03*
D14*
X96510000Y-53275000D03*
X99050000Y-50735000D03*
X96510000Y-50735000D03*
X99050000Y-48195000D03*
X96510000Y-48195000D03*
X99050000Y-45655000D03*
X96510000Y-45655000D03*
X99050000Y-43115000D03*
X96510000Y-43115000D03*
X99050000Y-40575000D03*
X96510000Y-40575000D03*
X99050000Y-38035000D03*
X96510000Y-38035000D03*
X99050000Y-35495000D03*
X96510000Y-35495000D03*
D12*
X136420000Y-61850000D03*
D13*
X132800000Y-35475000D03*
D14*
X135340000Y-35475000D03*
X132800000Y-38015000D03*
X135340000Y-38015000D03*
X132800000Y-40555000D03*
X135340000Y-40555000D03*
X132800000Y-43095000D03*
X135340000Y-43095000D03*
X132800000Y-45635000D03*
X135340000Y-45635000D03*
X132800000Y-48175000D03*
X135340000Y-48175000D03*
X132800000Y-50715000D03*
X135340000Y-50715000D03*
X132800000Y-53255000D03*
X135340000Y-53255000D03*
G36*
G01*
X123260000Y-45720000D02*
X122360000Y-45720000D01*
G75*
G02*
X122110000Y-45470000I0J250000D01*
G01*
X122110000Y-44770000D01*
G75*
G02*
X122360000Y-44520000I250000J0D01*
G01*
X123260000Y-44520000D01*
G75*
G02*
X123510000Y-44770000I0J-250000D01*
G01*
X123510000Y-45470000D01*
G75*
G02*
X123260000Y-45720000I-250000J0D01*
G01*
G37*
G36*
G01*
X123260000Y-43720000D02*
X122360000Y-43720000D01*
G75*
G02*
X122110000Y-43470000I0J250000D01*
G01*
X122110000Y-42770000D01*
G75*
G02*
X122360000Y-42520000I250000J0D01*
G01*
X123260000Y-42520000D01*
G75*
G02*
X123510000Y-42770000I0J-250000D01*
G01*
X123510000Y-43470000D01*
G75*
G02*
X123260000Y-43720000I-250000J0D01*
G01*
G37*
G36*
G01*
X107200000Y-56150000D02*
X108100000Y-56150000D01*
G75*
G02*
X108350000Y-56400000I0J-250000D01*
G01*
X108350000Y-57100000D01*
G75*
G02*
X108100000Y-57350000I-250000J0D01*
G01*
X107200000Y-57350000D01*
G75*
G02*
X106950000Y-57100000I0J250000D01*
G01*
X106950000Y-56400000D01*
G75*
G02*
X107200000Y-56150000I250000J0D01*
G01*
G37*
G36*
G01*
X107200000Y-58150000D02*
X108100000Y-58150000D01*
G75*
G02*
X108350000Y-58400000I0J-250000D01*
G01*
X108350000Y-59100000D01*
G75*
G02*
X108100000Y-59350000I-250000J0D01*
G01*
X107200000Y-59350000D01*
G75*
G02*
X106950000Y-59100000I0J250000D01*
G01*
X106950000Y-58400000D01*
G75*
G02*
X107200000Y-58150000I250000J0D01*
G01*
G37*
G36*
G01*
X106090000Y-41790000D02*
X106990000Y-41790000D01*
G75*
G02*
X107240000Y-42040000I0J-250000D01*
G01*
X107240000Y-42740000D01*
G75*
G02*
X106990000Y-42990000I-250000J0D01*
G01*
X106090000Y-42990000D01*
G75*
G02*
X105840000Y-42740000I0J250000D01*
G01*
X105840000Y-42040000D01*
G75*
G02*
X106090000Y-41790000I250000J0D01*
G01*
G37*
G36*
G01*
X106090000Y-43790000D02*
X106990000Y-43790000D01*
G75*
G02*
X107240000Y-44040000I0J-250000D01*
G01*
X107240000Y-44740000D01*
G75*
G02*
X106990000Y-44990000I-250000J0D01*
G01*
X106090000Y-44990000D01*
G75*
G02*
X105840000Y-44740000I0J250000D01*
G01*
X105840000Y-44040000D01*
G75*
G02*
X106090000Y-43790000I250000J0D01*
G01*
G37*
G36*
G01*
X100670000Y-62430000D02*
X100670000Y-63330000D01*
G75*
G02*
X100420000Y-63580000I-250000J0D01*
G01*
X99720000Y-63580000D01*
G75*
G02*
X99470000Y-63330000I0J250000D01*
G01*
X99470000Y-62430000D01*
G75*
G02*
X99720000Y-62180000I250000J0D01*
G01*
X100420000Y-62180000D01*
G75*
G02*
X100670000Y-62430000I0J-250000D01*
G01*
G37*
G36*
G01*
X98670000Y-62430000D02*
X98670000Y-63330000D01*
G75*
G02*
X98420000Y-63580000I-250000J0D01*
G01*
X97720000Y-63580000D01*
G75*
G02*
X97470000Y-63330000I0J250000D01*
G01*
X97470000Y-62430000D01*
G75*
G02*
X97720000Y-62180000I250000J0D01*
G01*
X98420000Y-62180000D01*
G75*
G02*
X98670000Y-62430000I0J-250000D01*
G01*
G37*
G36*
G01*
X128980000Y-62480000D02*
X128980000Y-63380000D01*
G75*
G02*
X128730000Y-63630000I-250000J0D01*
G01*
X128030000Y-63630000D01*
G75*
G02*
X127780000Y-63380000I0J250000D01*
G01*
X127780000Y-62480000D01*
G75*
G02*
X128030000Y-62230000I250000J0D01*
G01*
X128730000Y-62230000D01*
G75*
G02*
X128980000Y-62480000I0J-250000D01*
G01*
G37*
G36*
G01*
X126980000Y-62480000D02*
X126980000Y-63380000D01*
G75*
G02*
X126730000Y-63630000I-250000J0D01*
G01*
X126030000Y-63630000D01*
G75*
G02*
X125780000Y-63380000I0J250000D01*
G01*
X125780000Y-62480000D01*
G75*
G02*
X126030000Y-62230000I250000J0D01*
G01*
X126730000Y-62230000D01*
G75*
G02*
X126980000Y-62480000I0J-250000D01*
G01*
G37*
G36*
G01*
X106760000Y-34870000D02*
X107660000Y-34870000D01*
G75*
G02*
X107910000Y-35120000I0J-250000D01*
G01*
X107910000Y-35820000D01*
G75*
G02*
X107660000Y-36070000I-250000J0D01*
G01*
X106760000Y-36070000D01*
G75*
G02*
X106510000Y-35820000I0J250000D01*
G01*
X106510000Y-35120000D01*
G75*
G02*
X106760000Y-34870000I250000J0D01*
G01*
G37*
G36*
G01*
X106760000Y-36870000D02*
X107660000Y-36870000D01*
G75*
G02*
X107910000Y-37120000I0J-250000D01*
G01*
X107910000Y-37820000D01*
G75*
G02*
X107660000Y-38070000I-250000J0D01*
G01*
X106760000Y-38070000D01*
G75*
G02*
X106510000Y-37820000I0J250000D01*
G01*
X106510000Y-37120000D01*
G75*
G02*
X106760000Y-36870000I250000J0D01*
G01*
G37*
M02*
