G04 #@! TF.GenerationSoftware,KiCad,Pcbnew,(6.0.6)*
G04 #@! TF.CreationDate,2024-05-02T18:03:26+02:00*
G04 #@! TF.ProjectId,digital-isolator-2t6r,64696769-7461-46c2-9d69-736f6c61746f,rev?*
G04 #@! TF.SameCoordinates,Original*
G04 #@! TF.FileFunction,Copper,L2,Bot*
G04 #@! TF.FilePolarity,Positive*
%FSLAX46Y46*%
G04 Gerber Fmt 4.6, Leading zero omitted, Abs format (unit mm)*
G04 Created by KiCad (PCBNEW (6.0.6)) date 2024-05-02 18:03:26*
%MOMM*%
%LPD*%
G01*
G04 APERTURE LIST*
G04 #@! TA.AperFunction,ComponentPad*
%ADD10R,1.700000X1.700000*%
G04 #@! TD*
G04 #@! TA.AperFunction,ComponentPad*
%ADD11O,1.700000X1.700000*%
G04 #@! TD*
G04 #@! TA.AperFunction,ViaPad*
%ADD12C,0.800000*%
G04 #@! TD*
G04 #@! TA.AperFunction,Conductor*
%ADD13C,0.254000*%
G04 #@! TD*
G04 APERTURE END LIST*
D10*
X99050000Y-53275000D03*
D11*
X96510000Y-53275000D03*
X99050000Y-50735000D03*
X96510000Y-50735000D03*
X99050000Y-48195000D03*
X96510000Y-48195000D03*
X99050000Y-45655000D03*
X96510000Y-45655000D03*
X99050000Y-43115000D03*
X96510000Y-43115000D03*
X99050000Y-40575000D03*
X96510000Y-40575000D03*
X99050000Y-38035000D03*
X96510000Y-38035000D03*
X99050000Y-35495000D03*
X96510000Y-35495000D03*
D10*
X132800000Y-35475000D03*
D11*
X135340000Y-35475000D03*
X132800000Y-38015000D03*
X135340000Y-38015000D03*
X132800000Y-40555000D03*
X135340000Y-40555000D03*
X132800000Y-43095000D03*
X135340000Y-43095000D03*
X132800000Y-45635000D03*
X135340000Y-45635000D03*
X132800000Y-48175000D03*
X135340000Y-48175000D03*
X132800000Y-50715000D03*
X135340000Y-50715000D03*
X132800000Y-53255000D03*
X135340000Y-53255000D03*
D12*
X103759000Y-38836600D03*
X102590600Y-32639000D03*
X124841000Y-62407800D03*
X124663200Y-60325000D03*
X119507000Y-60502800D03*
X121208800Y-49250600D03*
X124002800Y-40233600D03*
X119507000Y-40513000D03*
X121234200Y-29337000D03*
X119583200Y-32893000D03*
X105638600Y-47320200D03*
X102870000Y-53009800D03*
X102870000Y-49022000D03*
X110210600Y-60502800D03*
X103638600Y-61315600D03*
X106476800Y-44399200D03*
X110185200Y-52908200D03*
X110109000Y-32893000D03*
X108305600Y-29337000D03*
X110185200Y-40538400D03*
X96150000Y-27950000D03*
X108250000Y-49250000D03*
X127101600Y-44373800D03*
X128600000Y-25380000D03*
D13*
X137600000Y-55846400D02*
X137600000Y-51500000D01*
X124866400Y-62433200D02*
X131013200Y-62433200D01*
X131013200Y-62433200D02*
X137600000Y-55846400D01*
X124841000Y-62407800D02*
X124866400Y-62433200D01*
X127105400Y-44370000D02*
X137547156Y-44370000D01*
X137547156Y-44370000D02*
X137588578Y-44411422D01*
X127101600Y-44373800D02*
X127105400Y-44370000D01*
X94100000Y-57143000D02*
X94100000Y-50700000D01*
X98272600Y-61315600D02*
X94100000Y-57143000D01*
X98272600Y-61315600D02*
X103638600Y-61315600D01*
X106476800Y-44399200D02*
X106476000Y-44400000D01*
X106476000Y-44400000D02*
X104367800Y-44400000D01*
X104367800Y-44400000D02*
X94100000Y-44400000D01*
X94100000Y-30000000D02*
X96150000Y-27950000D01*
X94100000Y-44400000D02*
X94100000Y-30000000D01*
X95420000Y-52020000D02*
X94100000Y-50700000D01*
X99050000Y-50735000D02*
X97765000Y-52020000D01*
X97765000Y-52020000D02*
X95420000Y-52020000D01*
X94100000Y-50700000D02*
X94100000Y-44400000D01*
X129420000Y-25380000D02*
X137600000Y-33560000D01*
X134065000Y-51980000D02*
X132800000Y-50715000D01*
X128600000Y-25380000D02*
X129420000Y-25380000D01*
X137120000Y-51980000D02*
X134065000Y-51980000D01*
X137600000Y-33560000D02*
X137600000Y-51500000D01*
X137600000Y-51500000D02*
X137120000Y-51980000D01*
G04 #@! TA.AperFunction,Conductor*
G36*
X110796288Y-23369454D02*
G01*
X110877070Y-23423430D01*
X110931046Y-23504212D01*
X110950000Y-23599500D01*
X110950000Y-64100500D01*
X110931046Y-64195788D01*
X110877070Y-64276570D01*
X110796288Y-64330546D01*
X110701000Y-64349500D01*
X93124500Y-64349500D01*
X93029212Y-64330546D01*
X92948430Y-64276570D01*
X92894454Y-64195788D01*
X92875500Y-64100500D01*
X92875500Y-29980133D01*
X93467825Y-29980133D01*
X93469299Y-29995726D01*
X93469299Y-29995729D01*
X93471395Y-30017898D01*
X93472500Y-30041332D01*
X93472500Y-44324294D01*
X93472009Y-44339928D01*
X93471696Y-44344898D01*
X93468761Y-44360286D01*
X93469745Y-44375920D01*
X93472009Y-44411912D01*
X93472500Y-44427547D01*
X93472500Y-50626534D01*
X93472250Y-50631844D01*
X93470320Y-50640477D01*
X93470812Y-50656134D01*
X93472377Y-50705945D01*
X93472500Y-50713765D01*
X93472500Y-57069534D01*
X93472250Y-57074844D01*
X93470320Y-57083477D01*
X93470812Y-57099134D01*
X93472377Y-57148945D01*
X93472500Y-57156765D01*
X93472500Y-57182476D01*
X93473481Y-57190241D01*
X93473622Y-57192476D01*
X93473991Y-57200298D01*
X93475299Y-57241943D01*
X93479670Y-57256988D01*
X93481069Y-57265821D01*
X93483188Y-57276053D01*
X93485420Y-57284746D01*
X93487384Y-57300293D01*
X93493151Y-57314858D01*
X93501347Y-57335560D01*
X93508945Y-57357752D01*
X93515161Y-57379149D01*
X93515163Y-57379154D01*
X93519532Y-57394191D01*
X93527507Y-57407676D01*
X93531063Y-57415893D01*
X93535665Y-57425288D01*
X93539980Y-57433137D01*
X93545747Y-57447703D01*
X93568048Y-57478397D01*
X93580925Y-57498001D01*
X93600237Y-57530656D01*
X93611314Y-57541733D01*
X93616800Y-57548806D01*
X93623598Y-57556765D01*
X93629730Y-57563295D01*
X93638937Y-57575967D01*
X93651007Y-57585952D01*
X93668156Y-57600139D01*
X93685508Y-57615927D01*
X97776945Y-61707364D01*
X97780520Y-61711293D01*
X97785260Y-61718762D01*
X97796674Y-61729480D01*
X97796676Y-61729483D01*
X97833002Y-61763595D01*
X97838619Y-61769038D01*
X97856805Y-61787224D01*
X97862980Y-61792014D01*
X97864694Y-61793525D01*
X97870479Y-61798789D01*
X97900833Y-61827293D01*
X97914559Y-61834839D01*
X97921793Y-61840095D01*
X97930546Y-61845844D01*
X97938256Y-61850404D01*
X97950638Y-61860008D01*
X97985456Y-61875075D01*
X98006516Y-61885393D01*
X98039766Y-61903672D01*
X98054939Y-61907568D01*
X98063290Y-61910874D01*
X98073153Y-61914251D01*
X98081769Y-61916754D01*
X98096142Y-61922974D01*
X98133607Y-61928907D01*
X98156586Y-61933666D01*
X98178150Y-61939203D01*
X98178151Y-61939203D01*
X98193328Y-61943100D01*
X98209001Y-61943100D01*
X98217883Y-61944222D01*
X98228300Y-61945042D01*
X98237256Y-61945324D01*
X98252733Y-61947775D01*
X98268326Y-61946301D01*
X98268329Y-61946301D01*
X98290498Y-61944205D01*
X98313932Y-61943100D01*
X102889352Y-61943100D01*
X102984640Y-61962054D01*
X103035710Y-61990654D01*
X103043282Y-61996155D01*
X103185870Y-62099751D01*
X103197789Y-62105058D01*
X103197793Y-62105060D01*
X103264607Y-62134807D01*
X103358797Y-62176744D01*
X103543954Y-62216100D01*
X103733246Y-62216100D01*
X103918403Y-62176744D01*
X104012593Y-62134807D01*
X104079407Y-62105060D01*
X104079411Y-62105058D01*
X104091330Y-62099751D01*
X104101886Y-62092082D01*
X104233919Y-61996155D01*
X104233922Y-61996152D01*
X104244471Y-61988488D01*
X104253199Y-61978795D01*
X104362399Y-61857517D01*
X104362403Y-61857512D01*
X104371133Y-61847816D01*
X104465779Y-61683884D01*
X104524274Y-61503856D01*
X104544060Y-61315600D01*
X104524274Y-61127344D01*
X104465779Y-60947316D01*
X104371133Y-60783384D01*
X104362403Y-60773688D01*
X104362399Y-60773683D01*
X104253199Y-60652405D01*
X104253197Y-60652403D01*
X104244471Y-60642712D01*
X104233922Y-60635048D01*
X104233919Y-60635045D01*
X104101886Y-60539118D01*
X104101884Y-60539117D01*
X104091330Y-60531449D01*
X104079411Y-60526142D01*
X104079407Y-60526140D01*
X104012593Y-60496393D01*
X103918403Y-60454456D01*
X103733246Y-60415100D01*
X103543954Y-60415100D01*
X103358797Y-60454456D01*
X103264607Y-60496393D01*
X103197793Y-60526140D01*
X103197789Y-60526142D01*
X103185870Y-60531449D01*
X103175316Y-60539117D01*
X103175314Y-60539118D01*
X103035710Y-60640546D01*
X102947479Y-60681220D01*
X102889352Y-60688100D01*
X98635659Y-60688100D01*
X98540371Y-60669146D01*
X98459589Y-60615170D01*
X94800430Y-56956011D01*
X94746454Y-56875229D01*
X94727500Y-56779941D01*
X94727500Y-53729964D01*
X94746454Y-53634676D01*
X94800430Y-53553894D01*
X94881212Y-53499918D01*
X94976500Y-53480964D01*
X95071788Y-53499918D01*
X95152570Y-53553894D01*
X95206546Y-53634676D01*
X95217016Y-53665518D01*
X95233757Y-53727995D01*
X95241164Y-53748344D01*
X95331805Y-53942725D01*
X95342635Y-53961482D01*
X95465653Y-54137170D01*
X95479576Y-54153764D01*
X95631239Y-54305427D01*
X95647823Y-54319343D01*
X95823522Y-54442369D01*
X95842268Y-54453192D01*
X96036657Y-54543837D01*
X96057014Y-54551246D01*
X96236309Y-54599288D01*
X96257123Y-54600652D01*
X96259011Y-54596825D01*
X96260000Y-54589311D01*
X96260000Y-52896500D01*
X96278954Y-52801212D01*
X96332930Y-52720430D01*
X96413712Y-52666454D01*
X96509000Y-52647500D01*
X96511000Y-52647500D01*
X96606288Y-52666454D01*
X96687070Y-52720430D01*
X96741046Y-52801212D01*
X96760000Y-52896500D01*
X96760000Y-54581109D01*
X96764069Y-54601567D01*
X96768257Y-54602400D01*
X96775771Y-54601410D01*
X96962986Y-54551246D01*
X96983343Y-54543837D01*
X97177732Y-54453192D01*
X97196478Y-54442369D01*
X97372172Y-54319346D01*
X97386648Y-54307199D01*
X97471826Y-54260468D01*
X97568404Y-54249890D01*
X97661678Y-54277076D01*
X97737448Y-54337887D01*
X97754732Y-54363178D01*
X97756474Y-54367824D01*
X97767109Y-54382014D01*
X97767110Y-54382016D01*
X97812343Y-54442369D01*
X97842454Y-54482546D01*
X97957176Y-54568526D01*
X97973787Y-54574753D01*
X98076804Y-54613372D01*
X98076805Y-54613372D01*
X98091420Y-54618851D01*
X98152623Y-54625500D01*
X99049400Y-54625500D01*
X99947376Y-54625499D01*
X100008580Y-54618851D01*
X100142824Y-54568526D01*
X100257546Y-54482546D01*
X100343526Y-54367824D01*
X100393851Y-54233580D01*
X100400500Y-54172377D01*
X100400499Y-52377624D01*
X100393851Y-52316420D01*
X100343526Y-52182176D01*
X100257546Y-52067454D01*
X100146472Y-51984208D01*
X100146466Y-51984203D01*
X100142824Y-51981474D01*
X100142972Y-51981277D01*
X100079334Y-51927970D01*
X100034400Y-51841831D01*
X100025850Y-51745053D01*
X100054986Y-51652369D01*
X100081884Y-51613012D01*
X100088495Y-51606401D01*
X100224035Y-51412829D01*
X100267523Y-51319570D01*
X100319307Y-51208520D01*
X100319309Y-51208516D01*
X100323903Y-51198663D01*
X100385063Y-50970408D01*
X100405659Y-50735000D01*
X100385063Y-50499592D01*
X100323903Y-50271337D01*
X100224035Y-50057171D01*
X100088495Y-49863599D01*
X99921401Y-49696505D01*
X99912497Y-49690270D01*
X99882075Y-49668968D01*
X99814892Y-49598786D01*
X99779680Y-49508237D01*
X99781800Y-49411105D01*
X99820929Y-49322178D01*
X99882075Y-49261032D01*
X99912497Y-49239730D01*
X99912499Y-49239728D01*
X99921401Y-49233495D01*
X100088495Y-49066401D01*
X100224035Y-48872829D01*
X100323903Y-48658663D01*
X100385063Y-48430408D01*
X100405659Y-48195000D01*
X100385063Y-47959592D01*
X100323903Y-47731337D01*
X100224035Y-47517171D01*
X100088495Y-47323599D01*
X99921401Y-47156505D01*
X99912497Y-47150270D01*
X99882075Y-47128968D01*
X99814892Y-47058786D01*
X99779680Y-46968237D01*
X99781800Y-46871105D01*
X99820929Y-46782178D01*
X99882075Y-46721032D01*
X99912497Y-46699730D01*
X99912499Y-46699728D01*
X99921401Y-46693495D01*
X100088495Y-46526401D01*
X100224035Y-46332829D01*
X100323903Y-46118663D01*
X100385063Y-45890408D01*
X100405659Y-45655000D01*
X100385063Y-45419592D01*
X100363990Y-45340945D01*
X100357636Y-45243998D01*
X100388866Y-45151999D01*
X100452925Y-45078954D01*
X100540061Y-45035984D01*
X100604506Y-45027500D01*
X105728653Y-45027500D01*
X105823941Y-45046454D01*
X105875011Y-45075054D01*
X105881482Y-45079755D01*
X106024070Y-45183351D01*
X106035989Y-45188658D01*
X106035993Y-45188660D01*
X106102807Y-45218407D01*
X106196997Y-45260344D01*
X106382154Y-45299700D01*
X106571446Y-45299700D01*
X106756603Y-45260344D01*
X106850793Y-45218407D01*
X106917607Y-45188660D01*
X106917611Y-45188658D01*
X106929530Y-45183351D01*
X106972683Y-45151999D01*
X107072119Y-45079755D01*
X107072122Y-45079752D01*
X107082671Y-45072088D01*
X107105752Y-45046454D01*
X107200599Y-44941117D01*
X107200603Y-44941112D01*
X107209333Y-44931416D01*
X107303979Y-44767484D01*
X107362474Y-44587456D01*
X107382260Y-44399200D01*
X107362474Y-44210944D01*
X107303979Y-44030916D01*
X107209333Y-43866984D01*
X107200603Y-43857288D01*
X107200599Y-43857283D01*
X107091399Y-43736005D01*
X107091397Y-43736003D01*
X107082671Y-43726312D01*
X107072122Y-43718648D01*
X107072119Y-43718645D01*
X106940086Y-43622718D01*
X106940084Y-43622717D01*
X106929530Y-43615049D01*
X106917611Y-43609742D01*
X106917607Y-43609740D01*
X106847807Y-43578663D01*
X106756603Y-43538056D01*
X106571446Y-43498700D01*
X106382154Y-43498700D01*
X106196997Y-43538056D01*
X106105793Y-43578663D01*
X106035993Y-43609740D01*
X106035989Y-43609742D01*
X106024070Y-43615049D01*
X106013516Y-43622717D01*
X106013514Y-43622718D01*
X105872809Y-43724946D01*
X105784578Y-43765620D01*
X105726451Y-43772500D01*
X100596467Y-43772500D01*
X100501179Y-43753546D01*
X100420397Y-43699570D01*
X100366421Y-43618788D01*
X100347467Y-43523500D01*
X100355952Y-43459054D01*
X100382248Y-43360917D01*
X100382250Y-43360908D01*
X100385063Y-43350408D01*
X100405659Y-43115000D01*
X100385063Y-42879592D01*
X100323903Y-42651337D01*
X100224035Y-42437171D01*
X100088495Y-42243599D01*
X99921401Y-42076505D01*
X99912497Y-42070270D01*
X99882075Y-42048968D01*
X99814892Y-41978786D01*
X99779680Y-41888237D01*
X99781800Y-41791105D01*
X99820929Y-41702178D01*
X99882075Y-41641032D01*
X99912497Y-41619730D01*
X99912499Y-41619728D01*
X99921401Y-41613495D01*
X100088495Y-41446401D01*
X100224035Y-41252829D01*
X100323903Y-41038663D01*
X100385063Y-40810408D01*
X100405659Y-40575000D01*
X100385063Y-40339592D01*
X100323903Y-40111337D01*
X100224035Y-39897171D01*
X100088495Y-39703599D01*
X99921401Y-39536505D01*
X99912497Y-39530270D01*
X99882075Y-39508968D01*
X99814892Y-39438786D01*
X99779680Y-39348237D01*
X99781800Y-39251105D01*
X99820929Y-39162178D01*
X99882075Y-39101032D01*
X99912497Y-39079730D01*
X99912499Y-39079728D01*
X99921401Y-39073495D01*
X100088495Y-38906401D01*
X100224035Y-38712829D01*
X100323903Y-38498663D01*
X100385063Y-38270408D01*
X100405659Y-38035000D01*
X100385063Y-37799592D01*
X100323903Y-37571337D01*
X100224035Y-37357171D01*
X100088495Y-37163599D01*
X99921401Y-36996505D01*
X99912497Y-36990270D01*
X99882075Y-36968968D01*
X99814892Y-36898786D01*
X99779680Y-36808237D01*
X99781800Y-36711105D01*
X99820929Y-36622178D01*
X99882075Y-36561032D01*
X99912497Y-36539730D01*
X99912499Y-36539728D01*
X99921401Y-36533495D01*
X100088495Y-36366401D01*
X100224035Y-36172829D01*
X100323903Y-35958663D01*
X100385063Y-35730408D01*
X100405659Y-35495000D01*
X100385063Y-35259592D01*
X100323903Y-35031337D01*
X100224035Y-34817171D01*
X100088495Y-34623599D01*
X99921401Y-34456505D01*
X99912503Y-34450275D01*
X99912500Y-34450272D01*
X99736729Y-34327196D01*
X99736728Y-34327195D01*
X99727830Y-34320965D01*
X99717985Y-34316374D01*
X99717983Y-34316373D01*
X99524533Y-34226166D01*
X99513663Y-34221097D01*
X99503165Y-34218284D01*
X99503162Y-34218283D01*
X99325621Y-34170712D01*
X99285408Y-34159937D01*
X99274575Y-34158989D01*
X99274574Y-34158989D01*
X99060835Y-34140289D01*
X99050000Y-34139341D01*
X99039165Y-34140289D01*
X98825426Y-34158989D01*
X98825425Y-34158989D01*
X98814592Y-34159937D01*
X98586337Y-34221097D01*
X98576484Y-34225691D01*
X98576480Y-34225693D01*
X98382027Y-34316369D01*
X98372171Y-34320965D01*
X98178599Y-34456505D01*
X98011505Y-34623599D01*
X98005269Y-34632505D01*
X97983662Y-34663363D01*
X97913480Y-34730546D01*
X97822931Y-34765758D01*
X97725799Y-34763638D01*
X97636872Y-34724509D01*
X97575724Y-34663360D01*
X97554345Y-34632827D01*
X97540424Y-34616236D01*
X97388761Y-34464573D01*
X97372177Y-34450657D01*
X97196478Y-34327631D01*
X97177732Y-34316808D01*
X96983343Y-34226163D01*
X96962986Y-34218754D01*
X96783691Y-34170712D01*
X96762877Y-34169348D01*
X96760989Y-34173175D01*
X96760000Y-34180689D01*
X96760000Y-38036000D01*
X96741046Y-38131288D01*
X96687070Y-38212070D01*
X96606288Y-38266046D01*
X96511000Y-38285000D01*
X96509000Y-38285000D01*
X96413712Y-38266046D01*
X96332930Y-38212070D01*
X96278954Y-38131288D01*
X96260000Y-38036000D01*
X96260000Y-34188891D01*
X96255931Y-34168433D01*
X96251743Y-34167600D01*
X96244229Y-34168590D01*
X96057015Y-34218754D01*
X96036652Y-34226166D01*
X95842275Y-34316805D01*
X95823518Y-34327635D01*
X95647830Y-34450653D01*
X95631236Y-34464576D01*
X95479576Y-34616236D01*
X95465653Y-34632830D01*
X95342635Y-34808518D01*
X95331805Y-34827275D01*
X95241164Y-35021656D01*
X95233757Y-35042005D01*
X95217016Y-35104482D01*
X95174045Y-35191617D01*
X95101000Y-35255676D01*
X95009001Y-35286906D01*
X94912054Y-35280552D01*
X94824919Y-35237581D01*
X94760860Y-35164536D01*
X94729630Y-35072537D01*
X94727500Y-35040036D01*
X94727500Y-30363059D01*
X94746454Y-30267771D01*
X94800430Y-30186989D01*
X96063989Y-28923430D01*
X96144771Y-28869454D01*
X96218919Y-28854705D01*
X96218620Y-28851864D01*
X96231597Y-28850500D01*
X96244646Y-28850500D01*
X96429803Y-28811144D01*
X96523993Y-28769207D01*
X96590807Y-28739460D01*
X96590811Y-28739458D01*
X96602730Y-28734151D01*
X96613286Y-28726482D01*
X96745319Y-28630555D01*
X96745322Y-28630552D01*
X96755871Y-28622888D01*
X96764599Y-28613195D01*
X96873799Y-28491917D01*
X96873803Y-28491912D01*
X96882533Y-28482216D01*
X96977179Y-28318284D01*
X97035674Y-28138256D01*
X97055460Y-27950000D01*
X97035674Y-27761744D01*
X96977179Y-27581716D01*
X96882533Y-27417784D01*
X96873803Y-27408088D01*
X96873799Y-27408083D01*
X96764599Y-27286805D01*
X96764597Y-27286803D01*
X96755871Y-27277112D01*
X96745322Y-27269448D01*
X96745319Y-27269445D01*
X96613286Y-27173518D01*
X96613284Y-27173517D01*
X96602730Y-27165849D01*
X96590811Y-27160542D01*
X96590807Y-27160540D01*
X96523993Y-27130793D01*
X96429803Y-27088856D01*
X96244646Y-27049500D01*
X96055354Y-27049500D01*
X95870197Y-27088856D01*
X95776007Y-27130793D01*
X95709193Y-27160540D01*
X95709189Y-27160542D01*
X95697270Y-27165849D01*
X95686716Y-27173517D01*
X95686714Y-27173518D01*
X95554681Y-27269445D01*
X95554678Y-27269448D01*
X95544129Y-27277112D01*
X95535403Y-27286803D01*
X95535401Y-27286805D01*
X95426201Y-27408083D01*
X95426197Y-27408088D01*
X95417467Y-27417784D01*
X95322821Y-27581716D01*
X95264326Y-27761744D01*
X95262962Y-27774722D01*
X95251638Y-27882466D01*
X95222828Y-27975251D01*
X95180072Y-28032509D01*
X93708236Y-29504345D01*
X93704307Y-29507920D01*
X93696838Y-29512660D01*
X93686120Y-29524074D01*
X93686117Y-29524076D01*
X93652005Y-29560402D01*
X93646562Y-29566019D01*
X93628377Y-29584204D01*
X93623587Y-29590379D01*
X93622076Y-29592093D01*
X93616812Y-29597878D01*
X93588307Y-29628233D01*
X93580761Y-29641959D01*
X93575505Y-29649193D01*
X93569756Y-29657946D01*
X93565196Y-29665656D01*
X93555592Y-29678038D01*
X93549370Y-29692416D01*
X93540528Y-29712849D01*
X93530207Y-29733916D01*
X93511928Y-29767166D01*
X93508032Y-29782339D01*
X93504726Y-29790690D01*
X93501349Y-29800553D01*
X93498846Y-29809169D01*
X93492626Y-29823542D01*
X93490176Y-29839014D01*
X93486693Y-29861005D01*
X93481934Y-29883986D01*
X93472500Y-29920728D01*
X93472500Y-29936401D01*
X93471378Y-29945283D01*
X93470558Y-29955700D01*
X93470276Y-29964656D01*
X93467825Y-29980133D01*
X92875500Y-29980133D01*
X92875500Y-23599500D01*
X92894454Y-23504212D01*
X92948430Y-23423430D01*
X93029212Y-23369454D01*
X93124500Y-23350500D01*
X110701000Y-23350500D01*
X110796288Y-23369454D01*
G37*
G04 #@! TD.AperFunction*
G04 #@! TA.AperFunction,Conductor*
G36*
X96606288Y-45423954D02*
G01*
X96687070Y-45477930D01*
X96741046Y-45558712D01*
X96760000Y-45654000D01*
X96760000Y-51143500D01*
X96741046Y-51238788D01*
X96687070Y-51319570D01*
X96606288Y-51373546D01*
X96511000Y-51392500D01*
X96509000Y-51392500D01*
X96413712Y-51373546D01*
X96332930Y-51319570D01*
X96278954Y-51238788D01*
X96260000Y-51143500D01*
X96260000Y-45654000D01*
X96278954Y-45558712D01*
X96332930Y-45477930D01*
X96413712Y-45423954D01*
X96509000Y-45405000D01*
X96511000Y-45405000D01*
X96606288Y-45423954D01*
G37*
G04 #@! TD.AperFunction*
G04 #@! TA.AperFunction,Conductor*
G36*
X135831905Y-23369454D02*
G01*
X135912687Y-23423430D01*
X135966663Y-23504212D01*
X135985617Y-23599500D01*
X135966663Y-23694788D01*
X135912687Y-23775570D01*
X135831905Y-23829546D01*
X135819735Y-23834218D01*
X135583842Y-23917752D01*
X135576321Y-23921634D01*
X135576316Y-23921636D01*
X135464589Y-23979303D01*
X135329342Y-24049109D01*
X135095024Y-24213791D01*
X134885224Y-24408749D01*
X134879850Y-24415315D01*
X134709194Y-24623814D01*
X134709189Y-24623821D01*
X134703823Y-24630377D01*
X134688308Y-24655695D01*
X134578068Y-24835592D01*
X134554180Y-24874573D01*
X134439062Y-25136818D01*
X134436742Y-25144961D01*
X134436741Y-25144965D01*
X134423416Y-25191744D01*
X134360600Y-25412261D01*
X134320246Y-25695804D01*
X134319912Y-25759589D01*
X134319063Y-25921917D01*
X134318747Y-25982200D01*
X134356129Y-26266149D01*
X134431702Y-26542398D01*
X134544068Y-26805835D01*
X134548422Y-26813110D01*
X134548423Y-26813112D01*
X134560116Y-26832650D01*
X134691146Y-27051585D01*
X134870215Y-27275100D01*
X135077962Y-27472245D01*
X135310543Y-27639371D01*
X135563653Y-27773386D01*
X135832610Y-27871810D01*
X135840883Y-27873614D01*
X135840887Y-27873615D01*
X136104147Y-27931015D01*
X136104151Y-27931016D01*
X136112436Y-27932822D01*
X136120887Y-27933487D01*
X136120893Y-27933488D01*
X136220698Y-27941343D01*
X136337053Y-27950500D01*
X136491992Y-27950500D01*
X136616517Y-27942011D01*
X136697278Y-27936505D01*
X136697283Y-27936504D01*
X136705737Y-27935928D01*
X136714031Y-27934210D01*
X136714034Y-27934210D01*
X136977890Y-27879568D01*
X136986186Y-27877850D01*
X137256158Y-27782248D01*
X137263679Y-27778366D01*
X137263684Y-27778364D01*
X137375411Y-27720697D01*
X137510658Y-27650891D01*
X137744976Y-27486209D01*
X137954776Y-27291251D01*
X137998855Y-27237397D01*
X138130806Y-27076186D01*
X138130811Y-27076179D01*
X138136177Y-27069623D01*
X138285820Y-26825427D01*
X138400938Y-26563182D01*
X138406859Y-26542398D01*
X138436026Y-26440005D01*
X138480360Y-26353555D01*
X138554403Y-26290652D01*
X138646881Y-26260871D01*
X138743716Y-26268747D01*
X138830166Y-26313081D01*
X138893069Y-26387124D01*
X138922850Y-26479602D01*
X138924500Y-26508221D01*
X138924500Y-61190692D01*
X138905546Y-61285980D01*
X138851570Y-61366762D01*
X138770788Y-61420738D01*
X138675500Y-61439692D01*
X138580212Y-61420738D01*
X138499430Y-61366762D01*
X138445454Y-61285980D01*
X138435325Y-61256396D01*
X138410534Y-61165777D01*
X138408298Y-61157602D01*
X138295932Y-60894165D01*
X138284207Y-60874573D01*
X138153211Y-60655695D01*
X138148854Y-60648415D01*
X137969785Y-60424900D01*
X137762038Y-60227755D01*
X137529457Y-60060629D01*
X137276347Y-59926614D01*
X137007390Y-59828190D01*
X136999117Y-59826386D01*
X136999113Y-59826385D01*
X136735853Y-59768985D01*
X136735849Y-59768984D01*
X136727564Y-59767178D01*
X136719113Y-59766513D01*
X136719107Y-59766512D01*
X136619302Y-59758657D01*
X136502947Y-59749500D01*
X136348008Y-59749500D01*
X136223483Y-59757989D01*
X136142722Y-59763495D01*
X136142717Y-59763496D01*
X136134263Y-59764072D01*
X136125969Y-59765790D01*
X136125966Y-59765790D01*
X135877041Y-59817340D01*
X135853814Y-59822150D01*
X135583842Y-59917752D01*
X135576321Y-59921634D01*
X135576316Y-59921636D01*
X135464589Y-59979303D01*
X135329342Y-60049109D01*
X135095024Y-60213791D01*
X134885224Y-60408749D01*
X134879850Y-60415315D01*
X134709194Y-60623814D01*
X134709189Y-60623821D01*
X134703823Y-60630377D01*
X134554180Y-60874573D01*
X134439062Y-61136818D01*
X134436742Y-61144961D01*
X134436741Y-61144965D01*
X134407494Y-61247640D01*
X134360600Y-61412261D01*
X134320246Y-61695804D01*
X134318747Y-61982200D01*
X134356129Y-62266149D01*
X134431702Y-62542398D01*
X134544068Y-62805835D01*
X134548422Y-62813110D01*
X134548423Y-62813112D01*
X134560116Y-62832650D01*
X134691146Y-63051585D01*
X134870215Y-63275100D01*
X135077962Y-63472245D01*
X135310543Y-63639371D01*
X135563653Y-63773386D01*
X135816138Y-63865782D01*
X135818551Y-63866665D01*
X135901522Y-63917212D01*
X135958834Y-63995662D01*
X135981762Y-64090073D01*
X135966815Y-64186071D01*
X135916268Y-64269042D01*
X135837818Y-64326354D01*
X135743407Y-64349282D01*
X135732980Y-64349500D01*
X118799000Y-64349500D01*
X118703712Y-64330546D01*
X118622930Y-64276570D01*
X118568954Y-64195788D01*
X118550000Y-64100500D01*
X118550000Y-62407800D01*
X123935540Y-62407800D01*
X123955326Y-62596056D01*
X124013821Y-62776084D01*
X124108467Y-62940016D01*
X124117197Y-62949712D01*
X124117201Y-62949717D01*
X124223326Y-63067580D01*
X124235129Y-63080688D01*
X124245678Y-63088352D01*
X124245681Y-63088355D01*
X124273070Y-63108254D01*
X124388270Y-63191951D01*
X124400189Y-63197258D01*
X124400193Y-63197260D01*
X124467007Y-63227007D01*
X124561197Y-63268944D01*
X124746354Y-63308300D01*
X124935646Y-63308300D01*
X125120803Y-63268944D01*
X125214993Y-63227007D01*
X125281807Y-63197260D01*
X125281811Y-63197258D01*
X125293730Y-63191951D01*
X125408930Y-63108254D01*
X125497161Y-63067580D01*
X125555288Y-63060700D01*
X130939734Y-63060700D01*
X130945044Y-63060950D01*
X130953677Y-63062880D01*
X131019146Y-63060823D01*
X131026965Y-63060700D01*
X131052676Y-63060700D01*
X131060441Y-63059719D01*
X131062676Y-63059578D01*
X131070498Y-63059209D01*
X131081744Y-63058856D01*
X131096482Y-63058393D01*
X131112143Y-63057901D01*
X131127188Y-63053530D01*
X131136021Y-63052131D01*
X131146253Y-63050012D01*
X131154946Y-63047780D01*
X131170493Y-63045816D01*
X131205761Y-63031853D01*
X131227952Y-63024255D01*
X131249349Y-63018039D01*
X131249354Y-63018037D01*
X131264391Y-63013668D01*
X131277876Y-63005693D01*
X131286093Y-63002137D01*
X131295488Y-62997535D01*
X131303337Y-62993220D01*
X131317903Y-62987453D01*
X131348597Y-62965152D01*
X131368201Y-62952275D01*
X131387367Y-62940940D01*
X131400856Y-62932963D01*
X131411933Y-62921886D01*
X131419006Y-62916400D01*
X131426965Y-62909602D01*
X131433495Y-62903470D01*
X131446167Y-62894263D01*
X131470339Y-62865044D01*
X131486127Y-62847692D01*
X137991764Y-56342055D01*
X137995693Y-56338480D01*
X138003162Y-56333740D01*
X138013880Y-56322326D01*
X138013883Y-56322324D01*
X138047995Y-56285998D01*
X138053438Y-56280381D01*
X138071623Y-56262196D01*
X138076413Y-56256021D01*
X138077924Y-56254307D01*
X138083188Y-56248522D01*
X138100970Y-56229586D01*
X138100971Y-56229585D01*
X138111693Y-56218167D01*
X138119239Y-56204441D01*
X138124495Y-56197207D01*
X138130244Y-56188454D01*
X138134804Y-56180744D01*
X138144408Y-56168362D01*
X138159475Y-56133544D01*
X138169793Y-56112484D01*
X138180525Y-56092962D01*
X138188072Y-56079234D01*
X138191968Y-56064061D01*
X138195274Y-56055710D01*
X138198651Y-56045847D01*
X138201154Y-56037231D01*
X138207374Y-56022858D01*
X138213307Y-55985393D01*
X138218066Y-55962414D01*
X138223603Y-55940850D01*
X138223603Y-55940849D01*
X138227500Y-55925672D01*
X138227500Y-55909999D01*
X138228622Y-55901117D01*
X138229442Y-55890700D01*
X138229724Y-55881744D01*
X138232175Y-55866267D01*
X138228605Y-55828502D01*
X138227500Y-55805068D01*
X138227500Y-51568978D01*
X138229442Y-51544300D01*
X138229724Y-51535344D01*
X138232175Y-51519867D01*
X138228605Y-51482102D01*
X138227500Y-51458668D01*
X138227500Y-33633466D01*
X138227750Y-33628156D01*
X138229680Y-33619523D01*
X138227623Y-33554054D01*
X138227500Y-33546235D01*
X138227500Y-33520524D01*
X138226519Y-33512759D01*
X138226378Y-33510524D01*
X138226009Y-33502699D01*
X138225193Y-33476718D01*
X138224701Y-33461057D01*
X138220330Y-33446012D01*
X138218931Y-33437179D01*
X138216812Y-33426947D01*
X138214580Y-33418254D01*
X138212616Y-33402707D01*
X138198653Y-33367439D01*
X138191055Y-33345248D01*
X138184839Y-33323851D01*
X138184837Y-33323846D01*
X138180468Y-33308809D01*
X138172493Y-33295324D01*
X138168937Y-33287107D01*
X138164335Y-33277712D01*
X138160020Y-33269863D01*
X138154253Y-33255297D01*
X138131952Y-33224603D01*
X138119075Y-33204999D01*
X138107740Y-33185833D01*
X138099763Y-33172344D01*
X138088686Y-33161267D01*
X138083200Y-33154194D01*
X138076402Y-33146235D01*
X138070270Y-33139705D01*
X138061063Y-33127033D01*
X138031844Y-33102861D01*
X138014492Y-33087073D01*
X129915655Y-24988236D01*
X129912080Y-24984307D01*
X129907340Y-24976838D01*
X129895926Y-24966120D01*
X129895924Y-24966117D01*
X129859598Y-24932005D01*
X129853981Y-24926562D01*
X129835796Y-24908377D01*
X129829621Y-24903587D01*
X129827907Y-24902076D01*
X129822122Y-24896812D01*
X129803186Y-24879030D01*
X129803185Y-24879029D01*
X129791767Y-24868307D01*
X129778041Y-24860761D01*
X129770807Y-24855505D01*
X129762054Y-24849756D01*
X129754344Y-24845196D01*
X129741962Y-24835592D01*
X129707144Y-24820525D01*
X129686084Y-24810207D01*
X129666562Y-24799475D01*
X129652834Y-24791928D01*
X129637661Y-24788032D01*
X129629310Y-24784726D01*
X129619447Y-24781349D01*
X129610831Y-24778846D01*
X129596458Y-24772626D01*
X129558993Y-24766693D01*
X129536014Y-24761934D01*
X129514450Y-24756397D01*
X129514449Y-24756397D01*
X129499272Y-24752500D01*
X129483599Y-24752500D01*
X129474717Y-24751378D01*
X129464300Y-24750558D01*
X129455344Y-24750276D01*
X129439867Y-24747825D01*
X129424274Y-24749299D01*
X129424271Y-24749299D01*
X129402102Y-24751395D01*
X129378668Y-24752500D01*
X129349248Y-24752500D01*
X129253960Y-24733546D01*
X129202890Y-24704946D01*
X129063286Y-24603518D01*
X129063284Y-24603517D01*
X129052730Y-24595849D01*
X129040811Y-24590542D01*
X129040807Y-24590540D01*
X128973993Y-24560793D01*
X128879803Y-24518856D01*
X128694646Y-24479500D01*
X128505354Y-24479500D01*
X128320197Y-24518856D01*
X128226007Y-24560793D01*
X128159193Y-24590540D01*
X128159189Y-24590542D01*
X128147270Y-24595849D01*
X128136716Y-24603517D01*
X128136714Y-24603518D01*
X128004681Y-24699445D01*
X128004678Y-24699448D01*
X127994129Y-24707112D01*
X127985403Y-24716803D01*
X127985401Y-24716805D01*
X127876201Y-24838083D01*
X127876197Y-24838088D01*
X127867467Y-24847784D01*
X127772821Y-25011716D01*
X127768788Y-25024129D01*
X127727954Y-25149803D01*
X127714326Y-25191744D01*
X127694540Y-25380000D01*
X127714326Y-25568256D01*
X127772821Y-25748284D01*
X127867467Y-25912216D01*
X127876197Y-25921912D01*
X127876201Y-25921917D01*
X127950286Y-26004196D01*
X127994129Y-26052888D01*
X128004678Y-26060552D01*
X128004681Y-26060555D01*
X128110147Y-26137180D01*
X128147270Y-26164151D01*
X128159189Y-26169458D01*
X128159193Y-26169460D01*
X128183208Y-26180152D01*
X128320197Y-26241144D01*
X128505354Y-26280500D01*
X128694646Y-26280500D01*
X128879803Y-26241144D01*
X129016792Y-26180152D01*
X129040809Y-26169459D01*
X129040812Y-26169457D01*
X129052730Y-26164151D01*
X129057357Y-26160789D01*
X129145640Y-26130823D01*
X129242586Y-26137180D01*
X129329721Y-26180152D01*
X129354205Y-26201624D01*
X136899570Y-33746989D01*
X136953546Y-33827771D01*
X136972500Y-33923059D01*
X136972500Y-34664875D01*
X136953546Y-34760163D01*
X136899570Y-34840945D01*
X136818788Y-34894921D01*
X136723500Y-34913875D01*
X136628212Y-34894921D01*
X136547430Y-34840945D01*
X136513883Y-34797224D01*
X136513600Y-34797422D01*
X136509060Y-34790939D01*
X136507859Y-34789373D01*
X136507365Y-34788518D01*
X136384347Y-34612830D01*
X136370424Y-34596236D01*
X136218761Y-34444573D01*
X136202177Y-34430657D01*
X136026478Y-34307631D01*
X136007732Y-34296808D01*
X135813343Y-34206163D01*
X135792986Y-34198754D01*
X135613691Y-34150712D01*
X135592877Y-34149348D01*
X135590989Y-34153175D01*
X135590000Y-34160689D01*
X135590000Y-38016000D01*
X135571046Y-38111288D01*
X135517070Y-38192070D01*
X135436288Y-38246046D01*
X135341000Y-38265000D01*
X135339000Y-38265000D01*
X135243712Y-38246046D01*
X135162930Y-38192070D01*
X135108954Y-38111288D01*
X135090000Y-38016000D01*
X135090000Y-34168891D01*
X135085931Y-34148433D01*
X135081743Y-34147600D01*
X135074229Y-34148590D01*
X134887015Y-34198754D01*
X134866652Y-34206166D01*
X134672275Y-34296805D01*
X134653518Y-34307635D01*
X134477829Y-34430653D01*
X134463348Y-34442804D01*
X134378169Y-34489533D01*
X134281591Y-34500109D01*
X134188318Y-34472921D01*
X134112549Y-34412109D01*
X134095268Y-34386822D01*
X134093526Y-34382176D01*
X134082888Y-34367981D01*
X134018187Y-34281652D01*
X134007546Y-34267454D01*
X133892824Y-34181474D01*
X133802464Y-34147600D01*
X133773196Y-34136628D01*
X133773195Y-34136628D01*
X133758580Y-34131149D01*
X133697377Y-34124500D01*
X132800600Y-34124500D01*
X131902624Y-34124501D01*
X131841420Y-34131149D01*
X131707176Y-34181474D01*
X131592454Y-34267454D01*
X131506474Y-34382176D01*
X131500247Y-34398787D01*
X131462264Y-34500109D01*
X131456149Y-34516420D01*
X131449500Y-34577623D01*
X131449501Y-36372376D01*
X131456149Y-36433580D01*
X131506474Y-36567824D01*
X131592454Y-36682546D01*
X131703528Y-36765792D01*
X131703534Y-36765797D01*
X131707176Y-36768526D01*
X131707028Y-36768723D01*
X131770666Y-36822030D01*
X131815600Y-36908169D01*
X131824150Y-37004947D01*
X131795014Y-37097631D01*
X131768116Y-37136988D01*
X131761505Y-37143599D01*
X131625965Y-37337171D01*
X131621369Y-37347027D01*
X131571545Y-37453875D01*
X131526097Y-37551337D01*
X131464937Y-37779592D01*
X131444341Y-38015000D01*
X131464937Y-38250408D01*
X131526097Y-38478663D01*
X131625965Y-38692829D01*
X131761505Y-38886401D01*
X131928599Y-39053495D01*
X131937501Y-39059728D01*
X131937503Y-39059730D01*
X131967923Y-39081030D01*
X132035108Y-39151211D01*
X132070321Y-39241760D01*
X132068202Y-39338892D01*
X132029074Y-39427819D01*
X131967926Y-39488968D01*
X131928599Y-39516505D01*
X131761505Y-39683599D01*
X131625965Y-39877171D01*
X131526097Y-40091337D01*
X131464937Y-40319592D01*
X131444341Y-40555000D01*
X131464937Y-40790408D01*
X131526097Y-41018663D01*
X131625965Y-41232829D01*
X131761505Y-41426401D01*
X131928599Y-41593495D01*
X131937501Y-41599728D01*
X131937503Y-41599730D01*
X131967923Y-41621030D01*
X132035108Y-41691211D01*
X132070321Y-41781760D01*
X132068202Y-41878892D01*
X132029074Y-41967819D01*
X131967926Y-42028968D01*
X131928599Y-42056505D01*
X131761505Y-42223599D01*
X131625965Y-42417171D01*
X131526097Y-42631337D01*
X131464937Y-42859592D01*
X131444341Y-43095000D01*
X131464937Y-43330408D01*
X131467751Y-43340909D01*
X131491369Y-43429055D01*
X131497723Y-43526002D01*
X131466493Y-43618001D01*
X131402434Y-43691046D01*
X131315298Y-43734016D01*
X131250853Y-43742500D01*
X127845617Y-43742500D01*
X127750329Y-43723546D01*
X127699259Y-43694945D01*
X127564892Y-43597322D01*
X127564887Y-43597319D01*
X127554330Y-43589649D01*
X127542411Y-43584342D01*
X127542407Y-43584340D01*
X127475593Y-43554593D01*
X127381403Y-43512656D01*
X127196246Y-43473300D01*
X127006954Y-43473300D01*
X126821797Y-43512656D01*
X126727607Y-43554593D01*
X126660793Y-43584340D01*
X126660789Y-43584342D01*
X126648870Y-43589649D01*
X126638316Y-43597317D01*
X126638314Y-43597318D01*
X126506281Y-43693245D01*
X126506278Y-43693248D01*
X126495729Y-43700912D01*
X126487003Y-43710603D01*
X126487001Y-43710605D01*
X126377801Y-43831883D01*
X126377797Y-43831888D01*
X126369067Y-43841584D01*
X126274421Y-44005516D01*
X126215926Y-44185544D01*
X126196140Y-44373800D01*
X126215926Y-44562056D01*
X126274421Y-44742084D01*
X126369067Y-44906016D01*
X126377797Y-44915712D01*
X126377801Y-44915717D01*
X126464294Y-45011776D01*
X126495729Y-45046688D01*
X126506278Y-45054352D01*
X126506281Y-45054355D01*
X126638314Y-45150282D01*
X126648870Y-45157951D01*
X126660789Y-45163258D01*
X126660793Y-45163260D01*
X126727607Y-45193007D01*
X126821797Y-45234944D01*
X127006954Y-45274300D01*
X127196246Y-45274300D01*
X127381403Y-45234944D01*
X127475593Y-45193007D01*
X127542407Y-45163260D01*
X127542411Y-45163258D01*
X127554330Y-45157951D01*
X127707471Y-45046688D01*
X127709397Y-45049338D01*
X127772543Y-45011776D01*
X127855644Y-44997500D01*
X131248174Y-44997500D01*
X131343462Y-45016454D01*
X131424244Y-45070430D01*
X131478220Y-45151212D01*
X131497174Y-45246500D01*
X131488689Y-45310946D01*
X131467752Y-45389083D01*
X131467750Y-45389092D01*
X131464937Y-45399592D01*
X131444341Y-45635000D01*
X131464937Y-45870408D01*
X131526097Y-46098663D01*
X131625965Y-46312829D01*
X131761505Y-46506401D01*
X131928599Y-46673495D01*
X131937501Y-46679728D01*
X131937503Y-46679730D01*
X131967923Y-46701030D01*
X132035108Y-46771211D01*
X132070321Y-46861760D01*
X132068202Y-46958892D01*
X132029074Y-47047819D01*
X131967926Y-47108968D01*
X131928599Y-47136505D01*
X131761505Y-47303599D01*
X131625965Y-47497171D01*
X131621369Y-47507027D01*
X131571545Y-47613875D01*
X131526097Y-47711337D01*
X131464937Y-47939592D01*
X131444341Y-48175000D01*
X131464937Y-48410408D01*
X131526097Y-48638663D01*
X131625965Y-48852829D01*
X131761505Y-49046401D01*
X131928599Y-49213495D01*
X131937501Y-49219728D01*
X131937503Y-49219730D01*
X131967923Y-49241030D01*
X132035108Y-49311211D01*
X132070321Y-49401760D01*
X132068202Y-49498892D01*
X132029074Y-49587819D01*
X131967926Y-49648968D01*
X131928599Y-49676505D01*
X131761505Y-49843599D01*
X131625965Y-50037171D01*
X131621369Y-50047027D01*
X131571545Y-50153875D01*
X131526097Y-50251337D01*
X131464937Y-50479592D01*
X131444341Y-50715000D01*
X131464937Y-50950408D01*
X131526097Y-51178663D01*
X131530691Y-51188516D01*
X131530693Y-51188520D01*
X131554737Y-51240081D01*
X131625965Y-51392829D01*
X131761505Y-51586401D01*
X131928599Y-51753495D01*
X131937501Y-51759728D01*
X131937503Y-51759730D01*
X131967923Y-51781030D01*
X132035108Y-51851211D01*
X132070321Y-51941760D01*
X132068202Y-52038892D01*
X132029074Y-52127819D01*
X131967926Y-52188968D01*
X131928599Y-52216505D01*
X131761505Y-52383599D01*
X131625965Y-52577171D01*
X131621369Y-52587027D01*
X131540145Y-52761212D01*
X131526097Y-52791337D01*
X131464937Y-53019592D01*
X131444341Y-53255000D01*
X131464937Y-53490408D01*
X131526097Y-53718663D01*
X131625965Y-53932829D01*
X131761505Y-54126401D01*
X131928599Y-54293495D01*
X131937497Y-54299725D01*
X131937500Y-54299728D01*
X132112650Y-54422369D01*
X132122170Y-54429035D01*
X132132015Y-54433626D01*
X132132017Y-54433627D01*
X132208945Y-54469499D01*
X132336337Y-54528903D01*
X132346835Y-54531716D01*
X132346838Y-54531717D01*
X132450465Y-54559483D01*
X132564592Y-54590063D01*
X132575425Y-54591011D01*
X132575426Y-54591011D01*
X132789165Y-54609711D01*
X132800000Y-54610659D01*
X132810835Y-54609711D01*
X133024574Y-54591011D01*
X133024575Y-54591011D01*
X133035408Y-54590063D01*
X133149535Y-54559483D01*
X133253162Y-54531717D01*
X133253165Y-54531716D01*
X133263663Y-54528903D01*
X133391055Y-54469499D01*
X133467983Y-54433627D01*
X133467985Y-54433626D01*
X133477830Y-54429035D01*
X133487350Y-54422369D01*
X133662500Y-54299728D01*
X133662503Y-54299725D01*
X133671401Y-54293495D01*
X133838495Y-54126401D01*
X133866338Y-54086637D01*
X133936520Y-54019454D01*
X134027069Y-53984242D01*
X134124201Y-53986362D01*
X134213128Y-54025491D01*
X134274276Y-54086640D01*
X134295655Y-54117173D01*
X134309576Y-54133764D01*
X134461239Y-54285427D01*
X134477823Y-54299343D01*
X134653522Y-54422369D01*
X134672268Y-54433192D01*
X134866657Y-54523837D01*
X134887014Y-54531246D01*
X135066309Y-54579288D01*
X135087123Y-54580652D01*
X135089011Y-54576825D01*
X135090000Y-54569311D01*
X135090000Y-52856500D01*
X135108954Y-52761212D01*
X135162930Y-52680430D01*
X135243712Y-52626454D01*
X135339000Y-52607500D01*
X135341000Y-52607500D01*
X135436288Y-52626454D01*
X135517070Y-52680430D01*
X135571046Y-52761212D01*
X135590000Y-52856500D01*
X135590000Y-54561109D01*
X135594069Y-54581567D01*
X135598257Y-54582400D01*
X135605771Y-54581410D01*
X135792986Y-54531246D01*
X135813343Y-54523837D01*
X136007732Y-54433192D01*
X136026478Y-54422369D01*
X136202177Y-54299343D01*
X136218761Y-54285427D01*
X136370424Y-54133764D01*
X136384347Y-54117170D01*
X136507365Y-53941482D01*
X136507859Y-53940627D01*
X136508380Y-53940033D01*
X136513600Y-53932578D01*
X136514416Y-53933150D01*
X136571917Y-53867581D01*
X136659052Y-53824610D01*
X136755999Y-53818255D01*
X136847998Y-53849484D01*
X136921044Y-53913542D01*
X136964015Y-54000677D01*
X136972500Y-54065125D01*
X136972500Y-55483341D01*
X136953546Y-55578629D01*
X136899570Y-55659411D01*
X130826211Y-61732770D01*
X130745429Y-61786746D01*
X130650141Y-61805700D01*
X125619033Y-61805700D01*
X125523745Y-61786746D01*
X125453813Y-61742622D01*
X125446871Y-61734912D01*
X125436322Y-61727248D01*
X125436319Y-61727245D01*
X125304286Y-61631318D01*
X125304284Y-61631317D01*
X125293730Y-61623649D01*
X125281811Y-61618342D01*
X125281807Y-61618340D01*
X125214993Y-61588593D01*
X125120803Y-61546656D01*
X124935646Y-61507300D01*
X124746354Y-61507300D01*
X124561197Y-61546656D01*
X124467007Y-61588593D01*
X124400193Y-61618340D01*
X124400189Y-61618342D01*
X124388270Y-61623649D01*
X124377716Y-61631317D01*
X124377714Y-61631318D01*
X124245681Y-61727245D01*
X124245678Y-61727248D01*
X124235129Y-61734912D01*
X124226403Y-61744603D01*
X124226401Y-61744605D01*
X124117201Y-61865883D01*
X124117197Y-61865888D01*
X124108467Y-61875584D01*
X124013821Y-62039516D01*
X123955326Y-62219544D01*
X123935540Y-62407800D01*
X118550000Y-62407800D01*
X118550000Y-23599500D01*
X118568954Y-23504212D01*
X118622930Y-23423430D01*
X118703712Y-23369454D01*
X118799000Y-23350500D01*
X135736617Y-23350500D01*
X135831905Y-23369454D01*
G37*
G04 #@! TD.AperFunction*
G04 #@! TA.AperFunction,Conductor*
G36*
X135436288Y-45403954D02*
G01*
X135517070Y-45457930D01*
X135571046Y-45538712D01*
X135590000Y-45634000D01*
X135590000Y-51103500D01*
X135571046Y-51198788D01*
X135517070Y-51279570D01*
X135436288Y-51333546D01*
X135341000Y-51352500D01*
X135339000Y-51352500D01*
X135243712Y-51333546D01*
X135162930Y-51279570D01*
X135108954Y-51198788D01*
X135090000Y-51103500D01*
X135090000Y-45634000D01*
X135108954Y-45538712D01*
X135162930Y-45457930D01*
X135243712Y-45403954D01*
X135339000Y-45385000D01*
X135341000Y-45385000D01*
X135436288Y-45403954D01*
G37*
G04 #@! TD.AperFunction*
M02*
