G04 #@! TF.GenerationSoftware,KiCad,Pcbnew,(6.0.6)*
G04 #@! TF.CreationDate,2024-05-02T18:03:26+02:00*
G04 #@! TF.ProjectId,digital-isolator-2t6r,64696769-7461-46c2-9d69-736f6c61746f,rev?*
G04 #@! TF.SameCoordinates,Original*
G04 #@! TF.FileFunction,Copper,L1,Top*
G04 #@! TF.FilePolarity,Positive*
%FSLAX46Y46*%
G04 Gerber Fmt 4.6, Leading zero omitted, Abs format (unit mm)*
G04 Created by KiCad (PCBNEW (6.0.6)) date 2024-05-02 18:03:26*
%MOMM*%
%LPD*%
G01*
G04 APERTURE LIST*
G04 Aperture macros list*
%AMRoundRect*
0 Rectangle with rounded corners*
0 $1 Rounding radius*
0 $2 $3 $4 $5 $6 $7 $8 $9 X,Y pos of 4 corners*
0 Add a 4 corners polygon primitive as box body*
4,1,4,$2,$3,$4,$5,$6,$7,$8,$9,$2,$3,0*
0 Add four circle primitives for the rounded corners*
1,1,$1+$1,$2,$3*
1,1,$1+$1,$4,$5*
1,1,$1+$1,$6,$7*
1,1,$1+$1,$8,$9*
0 Add four rect primitives between the rounded corners*
20,1,$1+$1,$2,$3,$4,$5,0*
20,1,$1+$1,$4,$5,$6,$7,0*
20,1,$1+$1,$6,$7,$8,$9,0*
20,1,$1+$1,$8,$9,$2,$3,0*%
G04 Aperture macros list end*
G04 #@! TA.AperFunction,SMDPad,CuDef*
%ADD10RoundRect,0.250000X0.450000X-0.350000X0.450000X0.350000X-0.450000X0.350000X-0.450000X-0.350000X0*%
G04 #@! TD*
G04 #@! TA.AperFunction,SMDPad,CuDef*
%ADD11RoundRect,0.250000X-0.450000X0.350000X-0.450000X-0.350000X0.450000X-0.350000X0.450000X0.350000X0*%
G04 #@! TD*
G04 #@! TA.AperFunction,SMDPad,CuDef*
%ADD12RoundRect,0.250000X-0.337500X-0.475000X0.337500X-0.475000X0.337500X0.475000X-0.337500X0.475000X0*%
G04 #@! TD*
G04 #@! TA.AperFunction,ComponentPad*
%ADD13R,1.700000X1.700000*%
G04 #@! TD*
G04 #@! TA.AperFunction,ComponentPad*
%ADD14O,1.700000X1.700000*%
G04 #@! TD*
G04 #@! TA.AperFunction,SMDPad,CuDef*
%ADD15RoundRect,0.150000X-0.875000X-0.150000X0.875000X-0.150000X0.875000X0.150000X-0.875000X0.150000X0*%
G04 #@! TD*
G04 #@! TA.AperFunction,SMDPad,CuDef*
%ADD16RoundRect,0.250000X0.337500X0.475000X-0.337500X0.475000X-0.337500X-0.475000X0.337500X-0.475000X0*%
G04 #@! TD*
G04 #@! TA.AperFunction,SMDPad,CuDef*
%ADD17RoundRect,0.250000X0.350000X0.450000X-0.350000X0.450000X-0.350000X-0.450000X0.350000X-0.450000X0*%
G04 #@! TD*
G04 #@! TA.AperFunction,SMDPad,CuDef*
%ADD18RoundRect,0.250000X-0.350000X-0.450000X0.350000X-0.450000X0.350000X0.450000X-0.350000X0.450000X0*%
G04 #@! TD*
G04 #@! TA.AperFunction,ViaPad*
%ADD19C,0.800000*%
G04 #@! TD*
G04 #@! TA.AperFunction,Conductor*
%ADD20C,0.254000*%
G04 #@! TD*
G04 #@! TA.AperFunction,Conductor*
%ADD21C,0.300000*%
G04 #@! TD*
G04 APERTURE END LIST*
D10*
X125800000Y-54200000D03*
X125800000Y-52200000D03*
D11*
X124020000Y-38260000D03*
X124020000Y-40260000D03*
X106476800Y-40150800D03*
X106476800Y-38150800D03*
X103759000Y-36846000D03*
X103759000Y-38846000D03*
D10*
X122800000Y-33800000D03*
X122800000Y-31800000D03*
D12*
X119135000Y-27020000D03*
X121210000Y-27020000D03*
D13*
X99050000Y-53275000D03*
D14*
X96510000Y-53275000D03*
X99050000Y-50735000D03*
X96510000Y-50735000D03*
X99050000Y-48195000D03*
X96510000Y-48195000D03*
X99050000Y-45655000D03*
X96510000Y-45655000D03*
X99050000Y-43115000D03*
X96510000Y-43115000D03*
X99050000Y-40575000D03*
X96510000Y-40575000D03*
X99050000Y-38035000D03*
X96510000Y-38035000D03*
X99050000Y-35495000D03*
X96510000Y-35495000D03*
D15*
X110210000Y-51645000D03*
X110210000Y-52915000D03*
X110210000Y-54185000D03*
X110210000Y-55455000D03*
X110210000Y-56725000D03*
X110210000Y-57995000D03*
X110210000Y-59265000D03*
X110210000Y-60535000D03*
X119510000Y-60535000D03*
X119510000Y-59265000D03*
X119510000Y-57995000D03*
X119510000Y-56725000D03*
X119510000Y-55455000D03*
X119510000Y-54185000D03*
X119510000Y-52915000D03*
X119510000Y-51645000D03*
D16*
X110325000Y-46950000D03*
X108250000Y-46950000D03*
X110347500Y-27020000D03*
X108272500Y-27020000D03*
D11*
X124660000Y-58330000D03*
X124660000Y-60330000D03*
D10*
X102819200Y-51088800D03*
X102819200Y-49088800D03*
X125000000Y-33800000D03*
X125000000Y-31800000D03*
D15*
X110210000Y-31645000D03*
X110210000Y-32915000D03*
X110210000Y-34185000D03*
X110210000Y-35455000D03*
X110210000Y-36725000D03*
X110210000Y-37995000D03*
X110210000Y-39265000D03*
X110210000Y-40535000D03*
X119510000Y-40535000D03*
X119510000Y-39265000D03*
X119510000Y-37995000D03*
X119510000Y-36725000D03*
X119510000Y-35455000D03*
X119510000Y-34185000D03*
X119510000Y-32915000D03*
X119510000Y-31645000D03*
D10*
X127200000Y-33800000D03*
X127200000Y-31800000D03*
X105638600Y-49326800D03*
X105638600Y-47326800D03*
D16*
X110347500Y-29320000D03*
X108272500Y-29320000D03*
D13*
X132800000Y-35475000D03*
D14*
X135340000Y-35475000D03*
X132800000Y-38015000D03*
X135340000Y-38015000D03*
X132800000Y-40555000D03*
X135340000Y-40555000D03*
X132800000Y-43095000D03*
X135340000Y-43095000D03*
X132800000Y-45635000D03*
X135340000Y-45635000D03*
X132800000Y-48175000D03*
X135340000Y-48175000D03*
X132800000Y-50715000D03*
X135340000Y-50715000D03*
X132800000Y-53255000D03*
X135340000Y-53255000D03*
D10*
X123600000Y-54200000D03*
X123600000Y-52200000D03*
D12*
X119122500Y-29320000D03*
X121197500Y-29320000D03*
X119087500Y-46900000D03*
X121162500Y-46900000D03*
D17*
X99053400Y-31750000D03*
X97053400Y-31750000D03*
D10*
X128000000Y-54200000D03*
X128000000Y-52200000D03*
D16*
X110337500Y-49250000D03*
X108262500Y-49250000D03*
D17*
X105622600Y-58267600D03*
X103622600Y-58267600D03*
D12*
X119100000Y-49250000D03*
X121175000Y-49250000D03*
D18*
X121573800Y-42621200D03*
X119573800Y-42621200D03*
D10*
X102844600Y-53041800D03*
X102844600Y-55041800D03*
D11*
X106451400Y-44383200D03*
X106451400Y-42383200D03*
D17*
X105638600Y-61315600D03*
X103638600Y-61315600D03*
X124774200Y-62433200D03*
X122774200Y-62433200D03*
D10*
X102590600Y-32629600D03*
X102590600Y-34629600D03*
D19*
X103759000Y-38836600D03*
X102590600Y-32639000D03*
X124841000Y-62407800D03*
X124663200Y-60325000D03*
X119507000Y-60502800D03*
X121208800Y-49250600D03*
X124002800Y-40233600D03*
X119507000Y-40513000D03*
X121234200Y-29337000D03*
X119583200Y-32893000D03*
X105638600Y-47320200D03*
X102870000Y-53009800D03*
X102870000Y-49022000D03*
X110210600Y-60502800D03*
X103638600Y-61315600D03*
X106476800Y-44399200D03*
X110185200Y-52908200D03*
X110109000Y-32893000D03*
X108305600Y-29337000D03*
X110185200Y-40538400D03*
X96150000Y-27950000D03*
X108250000Y-49250000D03*
X127101600Y-44373800D03*
X128600000Y-25380000D03*
D20*
X122263200Y-62433200D02*
X121730000Y-61900000D01*
X122774200Y-62433200D02*
X122263200Y-62433200D01*
X137100000Y-44855000D02*
X135340000Y-43095000D01*
X137100000Y-54700000D02*
X137100000Y-44855000D01*
X124951000Y-58039000D02*
X133761000Y-58039000D01*
X133761000Y-58039000D02*
X137100000Y-54700000D01*
X124660000Y-58330000D02*
X124951000Y-58039000D01*
X126365400Y-45110000D02*
X119790000Y-45110000D01*
X127101600Y-44373800D02*
X126365400Y-45110000D01*
X119790000Y-45110000D02*
X119087500Y-45812500D01*
X119087500Y-43107500D02*
X119573800Y-42621200D01*
X119087500Y-45812500D02*
X119087500Y-43107500D01*
X105511600Y-49326800D02*
X105638600Y-49326800D01*
X103047800Y-46863000D02*
X105511600Y-49326800D01*
X100163400Y-43115000D02*
X103047800Y-45999400D01*
X103047800Y-45999400D02*
X103047800Y-46863000D01*
X99050000Y-43115000D02*
X100163400Y-43115000D01*
X119087500Y-45812500D02*
X119087500Y-46900000D01*
X121666000Y-42529000D02*
X121573800Y-42621200D01*
X121666000Y-39573200D02*
X121666000Y-42529000D01*
X121357800Y-39265000D02*
X121666000Y-39573200D01*
X119510000Y-39265000D02*
X121357800Y-39265000D01*
X100787200Y-53797200D02*
X102031800Y-55041800D01*
X100787200Y-49932200D02*
X100787200Y-53797200D01*
X99050000Y-48195000D02*
X100787200Y-49932200D01*
X102031800Y-55041800D02*
X102844600Y-55041800D01*
X101498400Y-46228000D02*
X101498400Y-49768000D01*
X100925400Y-45655000D02*
X101498400Y-46228000D01*
X99050000Y-45655000D02*
X100925400Y-45655000D01*
X101498400Y-49768000D02*
X102819200Y-51088800D01*
X106375200Y-55041800D02*
X102844600Y-55041800D01*
X108058400Y-56725000D02*
X106375200Y-55041800D01*
X110210000Y-56725000D02*
X108058400Y-56725000D01*
X103793800Y-51088800D02*
X102819200Y-51088800D01*
X110210000Y-55455000D02*
X108160000Y-55455000D01*
X108160000Y-55455000D02*
X103793800Y-51088800D01*
X105638600Y-51638200D02*
X108185400Y-54185000D01*
X108185400Y-54185000D02*
X110210000Y-54185000D01*
X105638600Y-49326800D02*
X105638600Y-51638200D01*
X106705400Y-61315600D02*
X108756000Y-59265000D01*
X108756000Y-59265000D02*
X110210000Y-59265000D01*
X105638600Y-61315600D02*
X106705400Y-61315600D01*
X108077000Y-39547800D02*
X108359800Y-39265000D01*
X108077000Y-41884600D02*
X108077000Y-39547800D01*
X108359800Y-39265000D02*
X110210000Y-39265000D01*
X107578400Y-42383200D02*
X108077000Y-41884600D01*
X106451400Y-42383200D02*
X107578400Y-42383200D01*
X110325000Y-45425000D02*
X110325000Y-46950000D01*
X109300000Y-44400000D02*
X110325000Y-45425000D01*
X106476800Y-44399200D02*
X106477600Y-44400000D01*
X106477600Y-44400000D02*
X109300000Y-44400000D01*
D21*
X98602800Y-58267600D02*
X103622600Y-58267600D01*
X94650000Y-54314800D02*
X98602800Y-58267600D01*
X94650000Y-43950000D02*
X94650000Y-54314800D01*
X95485000Y-43115000D02*
X94650000Y-43950000D01*
X96510000Y-43115000D02*
X95485000Y-43115000D01*
D20*
X105895200Y-57995000D02*
X105622600Y-58267600D01*
X110210000Y-57995000D02*
X105895200Y-57995000D01*
X105902000Y-34629600D02*
X106727400Y-35455000D01*
X106727400Y-35455000D02*
X110210000Y-35455000D01*
X102590600Y-34629600D02*
X105902000Y-34629600D01*
X108403800Y-34185000D02*
X110210000Y-34185000D01*
X105587800Y-31369000D02*
X108403800Y-34185000D01*
X99434400Y-31369000D02*
X105587800Y-31369000D01*
X99053400Y-31750000D02*
X99434400Y-31369000D01*
X102997000Y-41833800D02*
X97768800Y-41833800D01*
X104680000Y-40150800D02*
X102997000Y-41833800D01*
X106476800Y-40150800D02*
X104680000Y-40150800D01*
X97768800Y-41833800D02*
X96510000Y-40575000D01*
X106632600Y-37995000D02*
X106476800Y-38150800D01*
X110210000Y-37995000D02*
X106632600Y-37995000D01*
X110089000Y-36846000D02*
X110210000Y-36725000D01*
X103759000Y-36846000D02*
X110089000Y-36846000D01*
X102779000Y-36846000D02*
X103759000Y-36846000D01*
X99050000Y-40575000D02*
X102779000Y-36846000D01*
X99050000Y-38035000D02*
X102455400Y-34629600D01*
X102455400Y-34629600D02*
X102590600Y-34629600D01*
X99050000Y-35495000D02*
X99050000Y-31753400D01*
X99050000Y-31753400D02*
X99053400Y-31750000D01*
X132800000Y-35475000D02*
X132800000Y-31300000D01*
X122800000Y-30450000D02*
X122800000Y-31800000D01*
X124400000Y-28850000D02*
X122800000Y-30450000D01*
X132800000Y-31300000D02*
X130350000Y-28850000D01*
X130350000Y-28850000D02*
X124400000Y-28850000D01*
X130600000Y-31400000D02*
X129200000Y-30000000D01*
X129200000Y-30000000D02*
X125600000Y-30000000D01*
X132800000Y-38015000D02*
X131415000Y-38015000D01*
X130600000Y-37200000D02*
X130600000Y-31400000D01*
X125000000Y-30600000D02*
X125000000Y-31800000D01*
X131415000Y-38015000D02*
X130600000Y-37200000D01*
X125600000Y-30000000D02*
X125000000Y-30600000D01*
X131055000Y-40555000D02*
X129200000Y-38700000D01*
X132800000Y-40555000D02*
X131055000Y-40555000D01*
X128200000Y-31800000D02*
X127200000Y-31800000D01*
X129200000Y-38700000D02*
X129200000Y-32800000D01*
X129200000Y-32800000D02*
X128200000Y-31800000D01*
X126720000Y-38270000D02*
X130270000Y-41820000D01*
X134075000Y-41820000D02*
X135340000Y-40555000D01*
X130270000Y-41820000D02*
X134075000Y-41820000D01*
X119510000Y-37995000D02*
X123755000Y-37995000D01*
X124020000Y-38260000D02*
X124030000Y-38270000D01*
X124030000Y-38270000D02*
X126720000Y-38270000D01*
X123755000Y-37995000D02*
X124020000Y-38260000D01*
X132800000Y-43095000D02*
X132245000Y-43095000D01*
X123600000Y-51740000D02*
X123600000Y-52200000D01*
X132245000Y-43095000D02*
X123600000Y-51740000D01*
X124325000Y-57995000D02*
X124660000Y-58330000D01*
X119510000Y-57995000D02*
X124325000Y-57995000D01*
X131625000Y-45635000D02*
X132800000Y-45635000D01*
X125800000Y-52200000D02*
X125800000Y-51460000D01*
X125800000Y-51460000D02*
X131625000Y-45635000D01*
X128000000Y-52200000D02*
X128000000Y-51350000D01*
X131175000Y-48175000D02*
X132800000Y-48175000D01*
X128000000Y-51350000D02*
X131175000Y-48175000D01*
X119510000Y-34185000D02*
X122415000Y-34185000D01*
X122415000Y-34185000D02*
X122800000Y-33800000D01*
X125000000Y-34750000D02*
X125000000Y-33800000D01*
X124295000Y-35455000D02*
X125000000Y-34750000D01*
X119510000Y-35455000D02*
X124295000Y-35455000D01*
X125330000Y-36800000D02*
X127200000Y-34930000D01*
X119510000Y-36725000D02*
X119585000Y-36800000D01*
X119585000Y-36800000D02*
X125330000Y-36800000D01*
X127200000Y-34930000D02*
X127200000Y-33800000D01*
X119510000Y-54185000D02*
X123585000Y-54185000D01*
X123585000Y-54185000D02*
X123600000Y-54200000D01*
X119510000Y-55455000D02*
X125445000Y-55455000D01*
X125445000Y-55455000D02*
X125800000Y-55100000D01*
X125800000Y-55100000D02*
X125800000Y-54200000D01*
X128000000Y-55650000D02*
X128000000Y-54200000D01*
X119510000Y-56725000D02*
X126925000Y-56725000D01*
X126925000Y-56725000D02*
X128000000Y-55650000D01*
X121145000Y-59265000D02*
X121730000Y-59850000D01*
X119510000Y-59265000D02*
X121145000Y-59265000D01*
X121730000Y-59850000D02*
X121730000Y-61900000D01*
X110347500Y-25747500D02*
X110347500Y-27020000D01*
X110347500Y-27020000D02*
X110347500Y-29320000D01*
X110325000Y-46950000D02*
X110325000Y-49237500D01*
X110325000Y-49237500D02*
X110337500Y-49250000D01*
X110337500Y-51517500D02*
X110210000Y-51645000D01*
X99200000Y-24900000D02*
X109500000Y-24900000D01*
X110347500Y-29320000D02*
X110347500Y-31507500D01*
X110347500Y-31507500D02*
X110210000Y-31645000D01*
X109500000Y-24900000D02*
X110347500Y-25747500D01*
X110337500Y-49250000D02*
X110337500Y-51517500D01*
X96150000Y-27950000D02*
X99200000Y-24900000D01*
X119150000Y-27005000D02*
X119135000Y-27020000D01*
X119350000Y-49500000D02*
X119100000Y-49250000D01*
X119122500Y-29320000D02*
X119122500Y-27032500D01*
X119350000Y-51485000D02*
X119350000Y-49500000D01*
X128600000Y-25380000D02*
X128580000Y-25400000D01*
X128580000Y-25400000D02*
X119550000Y-25400000D01*
X119100000Y-49250000D02*
X119100000Y-46912500D01*
X119510000Y-31645000D02*
X119510000Y-29707500D01*
X119122500Y-27032500D02*
X119135000Y-27020000D01*
X119150000Y-25800000D02*
X119150000Y-27005000D01*
X119510000Y-51645000D02*
X119350000Y-51485000D01*
X119100000Y-46912500D02*
X119087500Y-46900000D01*
X119550000Y-25400000D02*
X119150000Y-25800000D01*
X119510000Y-29707500D02*
X119122500Y-29320000D01*
G04 #@! TA.AperFunction,Conductor*
G36*
X110796288Y-23369454D02*
G01*
X110877070Y-23423430D01*
X110931046Y-23504212D01*
X110950000Y-23599500D01*
X110950000Y-24861441D01*
X110931046Y-24956729D01*
X110877070Y-25037511D01*
X110796288Y-25091487D01*
X110701000Y-25110441D01*
X110605712Y-25091487D01*
X110524930Y-25037511D01*
X109995655Y-24508236D01*
X109992080Y-24504307D01*
X109987340Y-24496838D01*
X109975926Y-24486120D01*
X109975924Y-24486117D01*
X109939598Y-24452005D01*
X109933981Y-24446562D01*
X109915796Y-24428377D01*
X109909621Y-24423587D01*
X109907907Y-24422076D01*
X109902122Y-24416812D01*
X109883186Y-24399030D01*
X109883185Y-24399029D01*
X109871767Y-24388307D01*
X109858041Y-24380761D01*
X109850807Y-24375505D01*
X109842054Y-24369756D01*
X109834344Y-24365196D01*
X109821962Y-24355592D01*
X109787144Y-24340525D01*
X109766084Y-24330207D01*
X109746562Y-24319475D01*
X109732834Y-24311928D01*
X109717661Y-24308032D01*
X109709310Y-24304726D01*
X109699447Y-24301349D01*
X109690831Y-24298846D01*
X109676458Y-24292626D01*
X109638993Y-24286693D01*
X109616014Y-24281934D01*
X109594450Y-24276397D01*
X109594449Y-24276397D01*
X109579272Y-24272500D01*
X109563599Y-24272500D01*
X109554717Y-24271378D01*
X109544300Y-24270558D01*
X109535344Y-24270276D01*
X109519867Y-24267825D01*
X109504274Y-24269299D01*
X109504271Y-24269299D01*
X109482102Y-24271395D01*
X109458668Y-24272500D01*
X99273460Y-24272500D01*
X99268156Y-24272250D01*
X99259523Y-24270320D01*
X99243862Y-24270812D01*
X99243860Y-24270812D01*
X99194068Y-24272377D01*
X99186247Y-24272500D01*
X99160524Y-24272500D01*
X99152769Y-24273480D01*
X99150497Y-24273623D01*
X99142680Y-24273992D01*
X99116717Y-24274808D01*
X99101057Y-24275300D01*
X99086012Y-24279671D01*
X99077177Y-24281070D01*
X99066918Y-24283194D01*
X99058246Y-24285421D01*
X99042707Y-24287384D01*
X99007436Y-24301348D01*
X98985254Y-24308943D01*
X98948809Y-24319532D01*
X98935328Y-24327505D01*
X98927114Y-24331059D01*
X98917712Y-24335665D01*
X98909863Y-24339980D01*
X98895297Y-24345747D01*
X98864603Y-24368048D01*
X98844999Y-24380925D01*
X98812344Y-24400237D01*
X98801267Y-24411314D01*
X98794194Y-24416800D01*
X98786235Y-24423598D01*
X98779705Y-24429730D01*
X98767033Y-24438937D01*
X98757047Y-24451007D01*
X98757048Y-24451007D01*
X98742861Y-24468156D01*
X98727073Y-24485508D01*
X96236011Y-26976570D01*
X96155229Y-27030546D01*
X96081081Y-27045295D01*
X96081380Y-27048136D01*
X96068403Y-27049500D01*
X96055354Y-27049500D01*
X95870197Y-27088856D01*
X95776007Y-27130793D01*
X95709193Y-27160540D01*
X95709189Y-27160542D01*
X95697270Y-27165849D01*
X95686716Y-27173517D01*
X95686714Y-27173518D01*
X95554681Y-27269445D01*
X95554678Y-27269448D01*
X95544129Y-27277112D01*
X95535403Y-27286803D01*
X95535401Y-27286805D01*
X95426201Y-27408083D01*
X95426197Y-27408088D01*
X95417467Y-27417784D01*
X95322821Y-27581716D01*
X95264326Y-27761744D01*
X95244540Y-27950000D01*
X95264326Y-28138256D01*
X95268357Y-28150664D01*
X95268358Y-28150666D01*
X95274617Y-28169929D01*
X95322821Y-28318284D01*
X95417467Y-28482216D01*
X95426197Y-28491912D01*
X95426201Y-28491917D01*
X95469141Y-28539606D01*
X95544129Y-28622888D01*
X95554678Y-28630552D01*
X95554681Y-28630555D01*
X95657700Y-28705402D01*
X95697270Y-28734151D01*
X95709189Y-28739458D01*
X95709193Y-28739460D01*
X95776007Y-28769207D01*
X95870197Y-28811144D01*
X96055354Y-28850500D01*
X96244646Y-28850500D01*
X96429803Y-28811144D01*
X96523993Y-28769207D01*
X96590807Y-28739460D01*
X96590811Y-28739458D01*
X96602730Y-28734151D01*
X96642300Y-28705402D01*
X96745319Y-28630555D01*
X96745322Y-28630552D01*
X96755871Y-28622888D01*
X96830859Y-28539606D01*
X96873799Y-28491917D01*
X96873803Y-28491912D01*
X96882533Y-28482216D01*
X96977179Y-28318284D01*
X97025383Y-28169929D01*
X97031642Y-28150666D01*
X97031643Y-28150664D01*
X97035674Y-28138256D01*
X97048362Y-28017534D01*
X97077172Y-27924749D01*
X97119928Y-27867491D01*
X99386989Y-25600430D01*
X99467771Y-25546454D01*
X99563059Y-25527500D01*
X107290769Y-25527500D01*
X107386057Y-25546454D01*
X107466839Y-25600430D01*
X107520815Y-25681212D01*
X107539769Y-25776500D01*
X107520815Y-25871788D01*
X107466839Y-25952570D01*
X107464899Y-25954298D01*
X107352634Y-26066761D01*
X107334819Y-26089317D01*
X107258230Y-26213567D01*
X107246088Y-26239606D01*
X107199865Y-26378966D01*
X107194197Y-26405402D01*
X107185647Y-26488846D01*
X107185000Y-26501515D01*
X107185000Y-26745473D01*
X107189069Y-26765931D01*
X107209527Y-26770000D01*
X108273500Y-26770000D01*
X108368788Y-26788954D01*
X108449570Y-26842930D01*
X108503546Y-26923712D01*
X108522500Y-27019000D01*
X108522500Y-30520472D01*
X108526569Y-30540930D01*
X108547027Y-30544999D01*
X108653391Y-30544999D01*
X108666242Y-30544334D01*
X108754589Y-30535169D01*
X108851324Y-30544189D01*
X108937244Y-30589542D01*
X108999268Y-30664322D01*
X109027954Y-30757146D01*
X109018934Y-30853881D01*
X108973581Y-30939801D01*
X108939438Y-30973192D01*
X108933135Y-30976919D01*
X108816919Y-31093135D01*
X108808946Y-31106617D01*
X108808945Y-31106618D01*
X108741229Y-31221120D01*
X108733256Y-31234602D01*
X108687402Y-31392431D01*
X108684500Y-31429306D01*
X108684500Y-31860694D01*
X108687402Y-31897569D01*
X108733256Y-32055398D01*
X108741228Y-32068879D01*
X108741229Y-32068880D01*
X108791415Y-32153740D01*
X108823606Y-32245407D01*
X108818267Y-32342415D01*
X108791415Y-32407243D01*
X108741690Y-32491324D01*
X108729348Y-32519844D01*
X108691451Y-32650286D01*
X108691044Y-32652515D01*
X108692080Y-32661263D01*
X108705331Y-32665000D01*
X110211000Y-32665000D01*
X110306288Y-32683954D01*
X110387070Y-32737930D01*
X110441046Y-32818712D01*
X110460000Y-32914000D01*
X110460000Y-32916000D01*
X110441046Y-33011288D01*
X110387070Y-33092070D01*
X110306288Y-33146046D01*
X110211000Y-33165000D01*
X108712231Y-33165000D01*
X108689570Y-33169508D01*
X108688541Y-33170195D01*
X108624198Y-33234538D01*
X108534438Y-33271718D01*
X108437283Y-33271718D01*
X108347524Y-33234538D01*
X108309791Y-33203572D01*
X106083455Y-30977236D01*
X106079880Y-30973307D01*
X106075140Y-30965838D01*
X106063726Y-30955120D01*
X106063724Y-30955117D01*
X106027398Y-30921005D01*
X106021781Y-30915562D01*
X106003596Y-30897377D01*
X105997421Y-30892587D01*
X105995707Y-30891076D01*
X105989922Y-30885812D01*
X105970986Y-30868030D01*
X105970985Y-30868029D01*
X105959567Y-30857307D01*
X105945841Y-30849761D01*
X105938607Y-30844505D01*
X105929854Y-30838756D01*
X105922144Y-30834196D01*
X105909762Y-30824592D01*
X105874944Y-30809525D01*
X105853884Y-30799207D01*
X105834362Y-30788475D01*
X105820634Y-30780928D01*
X105805461Y-30777032D01*
X105797110Y-30773726D01*
X105787247Y-30770349D01*
X105778631Y-30767846D01*
X105764258Y-30761626D01*
X105726793Y-30755693D01*
X105703814Y-30750934D01*
X105682250Y-30745397D01*
X105682249Y-30745397D01*
X105667072Y-30741500D01*
X105651399Y-30741500D01*
X105642517Y-30740378D01*
X105632100Y-30739558D01*
X105623144Y-30739276D01*
X105607667Y-30736825D01*
X105592074Y-30738299D01*
X105592071Y-30738299D01*
X105569902Y-30740395D01*
X105546468Y-30741500D01*
X99998231Y-30741500D01*
X99902943Y-30722546D01*
X99867574Y-30704466D01*
X99735054Y-30622780D01*
X99735053Y-30622780D01*
X99722734Y-30615186D01*
X99641331Y-30588185D01*
X99569536Y-30564371D01*
X99569532Y-30564370D01*
X99556628Y-30560090D01*
X99539766Y-30558362D01*
X99459585Y-30550147D01*
X99459577Y-30550147D01*
X99453266Y-30549500D01*
X98653534Y-30549500D01*
X98647138Y-30550164D01*
X98647131Y-30550164D01*
X98562429Y-30558953D01*
X98562427Y-30558953D01*
X98548881Y-30560359D01*
X98535968Y-30564667D01*
X98535964Y-30564668D01*
X98461408Y-30589542D01*
X98382871Y-30615744D01*
X98370574Y-30623354D01*
X98370571Y-30623355D01*
X98304370Y-30664322D01*
X98234055Y-30707834D01*
X98223837Y-30718070D01*
X98212498Y-30727057D01*
X98210856Y-30724986D01*
X98148448Y-30766769D01*
X98053177Y-30785811D01*
X97957872Y-30766945D01*
X97894500Y-30724684D01*
X97892989Y-30726597D01*
X97859083Y-30699819D01*
X97734833Y-30623230D01*
X97708794Y-30611088D01*
X97569434Y-30564865D01*
X97542998Y-30559197D01*
X97459554Y-30550647D01*
X97446885Y-30550000D01*
X97327927Y-30550000D01*
X97307469Y-30554069D01*
X97303400Y-30574527D01*
X97303400Y-32925472D01*
X97307469Y-32945930D01*
X97327927Y-32949999D01*
X97446791Y-32949999D01*
X97459640Y-32949334D01*
X97544268Y-32940555D01*
X97570739Y-32934837D01*
X97709994Y-32888378D01*
X97736015Y-32876189D01*
X97860134Y-32799382D01*
X97893989Y-32772549D01*
X97895698Y-32774705D01*
X97957652Y-32733229D01*
X98052923Y-32714190D01*
X98148228Y-32733059D01*
X98212055Y-32775623D01*
X98213497Y-32773797D01*
X98224851Y-32782764D01*
X98235089Y-32792984D01*
X98247403Y-32800574D01*
X98247405Y-32800576D01*
X98304157Y-32835558D01*
X98375328Y-32901693D01*
X98415771Y-32990030D01*
X98422500Y-33047524D01*
X98422500Y-34156103D01*
X98403546Y-34251391D01*
X98349570Y-34332173D01*
X98316320Y-34360072D01*
X98178599Y-34456505D01*
X98011505Y-34623599D01*
X98005269Y-34632505D01*
X97983662Y-34663363D01*
X97913480Y-34730546D01*
X97822931Y-34765758D01*
X97725799Y-34763638D01*
X97636872Y-34724509D01*
X97575724Y-34663360D01*
X97554345Y-34632827D01*
X97540424Y-34616236D01*
X97388761Y-34464573D01*
X97372177Y-34450657D01*
X97196478Y-34327631D01*
X97177732Y-34316808D01*
X96983343Y-34226163D01*
X96962986Y-34218754D01*
X96783691Y-34170712D01*
X96762877Y-34169348D01*
X96760989Y-34173175D01*
X96760000Y-34180689D01*
X96760000Y-38036000D01*
X96741046Y-38131288D01*
X96687070Y-38212070D01*
X96606288Y-38266046D01*
X96511000Y-38285000D01*
X95203891Y-38285000D01*
X95183433Y-38289069D01*
X95182600Y-38293257D01*
X95183590Y-38300771D01*
X95233754Y-38487985D01*
X95241166Y-38508348D01*
X95331805Y-38702725D01*
X95342635Y-38721482D01*
X95465653Y-38897170D01*
X95479576Y-38913764D01*
X95631239Y-39065427D01*
X95647826Y-39079345D01*
X95678362Y-39100727D01*
X95745546Y-39170909D01*
X95780758Y-39261459D01*
X95778637Y-39358591D01*
X95739508Y-39447517D01*
X95678363Y-39508662D01*
X95638599Y-39536505D01*
X95471505Y-39703599D01*
X95335965Y-39897171D01*
X95331369Y-39907027D01*
X95241518Y-40099712D01*
X95236097Y-40111337D01*
X95174937Y-40339592D01*
X95173989Y-40350425D01*
X95173989Y-40350426D01*
X95172183Y-40371070D01*
X95154341Y-40575000D01*
X95174937Y-40810408D01*
X95236097Y-41038663D01*
X95240691Y-41048516D01*
X95240693Y-41048520D01*
X95314268Y-41206300D01*
X95335965Y-41252829D01*
X95471505Y-41446401D01*
X95638599Y-41613495D01*
X95647501Y-41619728D01*
X95647503Y-41619730D01*
X95677923Y-41641030D01*
X95745108Y-41711211D01*
X95780321Y-41801760D01*
X95778202Y-41898892D01*
X95739074Y-41987819D01*
X95677926Y-42048968D01*
X95638599Y-42076505D01*
X95471505Y-42243599D01*
X95375818Y-42380255D01*
X95346209Y-42422541D01*
X95276028Y-42489725D01*
X95241133Y-42508241D01*
X95239643Y-42508886D01*
X95224601Y-42513256D01*
X95211114Y-42521232D01*
X95204573Y-42524063D01*
X95189951Y-42531225D01*
X95183691Y-42534666D01*
X95169129Y-42540432D01*
X95156457Y-42549639D01*
X95156451Y-42549642D01*
X95136960Y-42563803D01*
X95117361Y-42576678D01*
X95083135Y-42596919D01*
X95072061Y-42607993D01*
X95066448Y-42612347D01*
X95054052Y-42622933D01*
X95048843Y-42627825D01*
X95036163Y-42637037D01*
X95026176Y-42649109D01*
X95026173Y-42649112D01*
X95010827Y-42667663D01*
X94995039Y-42685015D01*
X94244109Y-43435945D01*
X94239726Y-43439933D01*
X94232060Y-43444798D01*
X94221335Y-43456219D01*
X94185507Y-43494372D01*
X94180064Y-43499990D01*
X94161089Y-43518965D01*
X94156291Y-43525150D01*
X94154067Y-43527673D01*
X94148805Y-43533456D01*
X94119552Y-43564607D01*
X94112006Y-43578334D01*
X94107820Y-43584095D01*
X94098868Y-43597723D01*
X94095241Y-43603857D01*
X94085638Y-43616236D01*
X94079417Y-43630613D01*
X94069853Y-43652714D01*
X94059532Y-43673781D01*
X94047920Y-43694904D01*
X94040373Y-43708632D01*
X94036479Y-43723800D01*
X94033854Y-43730429D01*
X94028576Y-43745847D01*
X94026584Y-43752702D01*
X94020365Y-43767074D01*
X94017915Y-43782539D01*
X94017914Y-43782544D01*
X94014146Y-43806337D01*
X94009389Y-43829308D01*
X94004899Y-43846797D01*
X93999500Y-43867823D01*
X93999500Y-43883487D01*
X93998607Y-43890557D01*
X93997328Y-43906805D01*
X93997104Y-43913931D01*
X93994653Y-43929405D01*
X93996127Y-43944998D01*
X93996127Y-43945000D01*
X93998395Y-43968989D01*
X93999500Y-43992423D01*
X93999500Y-54238308D01*
X93999220Y-54244236D01*
X93997240Y-54253096D01*
X93997732Y-54268752D01*
X93999377Y-54321089D01*
X93999500Y-54328911D01*
X93999500Y-54355725D01*
X94000480Y-54363485D01*
X94000693Y-54366872D01*
X94001061Y-54374675D01*
X94002403Y-54417369D01*
X94006774Y-54432414D01*
X94007892Y-54439472D01*
X94011193Y-54455411D01*
X94012966Y-54462315D01*
X94014929Y-54477858D01*
X94020697Y-54492426D01*
X94029563Y-54514817D01*
X94037164Y-54537018D01*
X94041298Y-54551246D01*
X94048256Y-54575198D01*
X94056232Y-54588685D01*
X94059066Y-54595234D01*
X94066231Y-54609860D01*
X94069666Y-54616109D01*
X94075432Y-54630671D01*
X94084637Y-54643341D01*
X94084639Y-54643344D01*
X94098802Y-54662837D01*
X94111677Y-54682438D01*
X94131919Y-54716665D01*
X94142997Y-54727743D01*
X94147361Y-54733369D01*
X94157933Y-54745748D01*
X94162825Y-54750957D01*
X94172037Y-54763637D01*
X94184109Y-54773624D01*
X94184112Y-54773627D01*
X94202663Y-54788973D01*
X94220015Y-54804761D01*
X98088745Y-58673491D01*
X98092733Y-58677874D01*
X98097598Y-58685540D01*
X98109019Y-58696265D01*
X98147172Y-58732093D01*
X98152790Y-58737536D01*
X98171765Y-58756511D01*
X98177950Y-58761309D01*
X98180473Y-58763533D01*
X98186256Y-58768795D01*
X98217407Y-58798048D01*
X98231134Y-58805594D01*
X98236895Y-58809780D01*
X98250514Y-58818726D01*
X98256653Y-58822357D01*
X98269036Y-58831962D01*
X98305526Y-58847753D01*
X98326580Y-58858068D01*
X98347700Y-58869679D01*
X98347708Y-58869682D01*
X98361432Y-58877227D01*
X98376600Y-58881122D01*
X98383226Y-58883745D01*
X98398641Y-58889022D01*
X98405494Y-58891013D01*
X98419873Y-58897235D01*
X98435350Y-58899686D01*
X98435353Y-58899687D01*
X98459134Y-58903454D01*
X98482106Y-58908211D01*
X98505443Y-58914203D01*
X98505448Y-58914204D01*
X98520623Y-58918100D01*
X98536294Y-58918100D01*
X98543363Y-58918993D01*
X98559594Y-58920271D01*
X98566733Y-58920495D01*
X98582205Y-58922946D01*
X98597799Y-58921472D01*
X98597801Y-58921472D01*
X98621780Y-58919205D01*
X98645213Y-58918100D01*
X102375643Y-58918100D01*
X102470931Y-58937054D01*
X102551713Y-58991030D01*
X102585839Y-59039679D01*
X102588344Y-59038129D01*
X102680434Y-59186945D01*
X102804289Y-59310584D01*
X102816603Y-59318174D01*
X102816605Y-59318176D01*
X102940013Y-59394245D01*
X102953266Y-59402414D01*
X103034669Y-59429415D01*
X103106464Y-59453229D01*
X103106468Y-59453230D01*
X103119372Y-59457510D01*
X103132900Y-59458896D01*
X103216415Y-59467453D01*
X103216423Y-59467453D01*
X103222734Y-59468100D01*
X104022466Y-59468100D01*
X104028862Y-59467436D01*
X104028869Y-59467436D01*
X104113571Y-59458647D01*
X104113573Y-59458647D01*
X104127119Y-59457241D01*
X104140032Y-59452933D01*
X104140036Y-59452932D01*
X104279410Y-59406433D01*
X104293129Y-59401856D01*
X104305426Y-59394246D01*
X104305429Y-59394245D01*
X104389181Y-59342417D01*
X104441945Y-59309766D01*
X104452163Y-59299530D01*
X104463502Y-59290543D01*
X104465204Y-59292690D01*
X104527208Y-59251181D01*
X104622479Y-59232143D01*
X104717784Y-59251013D01*
X104781193Y-59293301D01*
X104782697Y-59291397D01*
X104794050Y-59300363D01*
X104804289Y-59310584D01*
X104816603Y-59318174D01*
X104816605Y-59318176D01*
X104940013Y-59394245D01*
X104953266Y-59402414D01*
X105034669Y-59429415D01*
X105106464Y-59453229D01*
X105106468Y-59453230D01*
X105119372Y-59457510D01*
X105132900Y-59458896D01*
X105216415Y-59467453D01*
X105216423Y-59467453D01*
X105222734Y-59468100D01*
X106022466Y-59468100D01*
X106028862Y-59467436D01*
X106028869Y-59467436D01*
X106113571Y-59458647D01*
X106113573Y-59458647D01*
X106127119Y-59457241D01*
X106140032Y-59452933D01*
X106140036Y-59452932D01*
X106279410Y-59406433D01*
X106293129Y-59401856D01*
X106305426Y-59394246D01*
X106305429Y-59394245D01*
X106389181Y-59342417D01*
X106441945Y-59309766D01*
X106565584Y-59185911D01*
X106622578Y-59093450D01*
X106649820Y-59049254D01*
X106649820Y-59049253D01*
X106657414Y-59036934D01*
X106684415Y-58955531D01*
X106708229Y-58883736D01*
X106708230Y-58883732D01*
X106712510Y-58870828D01*
X106715041Y-58846120D01*
X106743606Y-58753265D01*
X106805534Y-58678404D01*
X106891395Y-58632941D01*
X106962744Y-58622500D01*
X107909941Y-58622500D01*
X108005229Y-58641454D01*
X108086011Y-58695430D01*
X108139987Y-58776212D01*
X108158941Y-58871500D01*
X108139987Y-58966788D01*
X108086011Y-59047570D01*
X106835030Y-60298551D01*
X106754248Y-60352527D01*
X106658960Y-60371481D01*
X106563672Y-60352527D01*
X106483044Y-60298703D01*
X106456911Y-60272616D01*
X106444597Y-60265026D01*
X106444595Y-60265024D01*
X106320254Y-60188380D01*
X106320253Y-60188380D01*
X106307934Y-60180786D01*
X106226531Y-60153785D01*
X106154736Y-60129971D01*
X106154732Y-60129970D01*
X106141828Y-60125690D01*
X106124966Y-60123962D01*
X106044785Y-60115747D01*
X106044777Y-60115747D01*
X106038466Y-60115100D01*
X105238734Y-60115100D01*
X105232338Y-60115764D01*
X105232331Y-60115764D01*
X105147629Y-60124553D01*
X105147627Y-60124553D01*
X105134081Y-60125959D01*
X105121168Y-60130267D01*
X105121164Y-60130268D01*
X104983400Y-60176230D01*
X104968071Y-60181344D01*
X104955774Y-60188954D01*
X104955771Y-60188955D01*
X104872019Y-60240783D01*
X104819255Y-60273434D01*
X104809037Y-60283670D01*
X104797698Y-60292657D01*
X104795996Y-60290510D01*
X104733992Y-60332019D01*
X104638721Y-60351057D01*
X104543416Y-60332187D01*
X104480007Y-60289899D01*
X104478503Y-60291803D01*
X104467149Y-60282836D01*
X104456911Y-60272616D01*
X104444597Y-60265026D01*
X104444595Y-60265024D01*
X104320254Y-60188380D01*
X104320253Y-60188380D01*
X104307934Y-60180786D01*
X104226531Y-60153785D01*
X104154736Y-60129971D01*
X104154732Y-60129970D01*
X104141828Y-60125690D01*
X104124966Y-60123962D01*
X104044785Y-60115747D01*
X104044777Y-60115747D01*
X104038466Y-60115100D01*
X103238734Y-60115100D01*
X103232338Y-60115764D01*
X103232331Y-60115764D01*
X103147629Y-60124553D01*
X103147627Y-60124553D01*
X103134081Y-60125959D01*
X103121168Y-60130267D01*
X103121164Y-60130268D01*
X102983400Y-60176230D01*
X102968071Y-60181344D01*
X102955774Y-60188954D01*
X102955771Y-60188955D01*
X102872019Y-60240783D01*
X102819255Y-60273434D01*
X102695616Y-60397289D01*
X102688026Y-60409603D01*
X102688024Y-60409605D01*
X102636639Y-60492968D01*
X102603786Y-60546266D01*
X102548690Y-60712372D01*
X102547304Y-60725900D01*
X102539742Y-60799712D01*
X102538100Y-60815734D01*
X102538100Y-61815466D01*
X102548959Y-61920119D01*
X102553267Y-61933032D01*
X102553268Y-61933036D01*
X102597968Y-62067018D01*
X102604344Y-62086129D01*
X102611954Y-62098426D01*
X102611955Y-62098429D01*
X102663783Y-62182181D01*
X102696434Y-62234945D01*
X102820289Y-62358584D01*
X102832603Y-62366174D01*
X102832605Y-62366176D01*
X102956013Y-62442245D01*
X102969266Y-62450414D01*
X103050669Y-62477415D01*
X103122464Y-62501229D01*
X103122468Y-62501230D01*
X103135372Y-62505510D01*
X103148900Y-62506896D01*
X103232415Y-62515453D01*
X103232423Y-62515453D01*
X103238734Y-62516100D01*
X104038466Y-62516100D01*
X104044862Y-62515436D01*
X104044869Y-62515436D01*
X104129571Y-62506647D01*
X104129573Y-62506647D01*
X104143119Y-62505241D01*
X104156032Y-62500933D01*
X104156036Y-62500932D01*
X104295410Y-62454433D01*
X104309129Y-62449856D01*
X104321426Y-62442246D01*
X104321429Y-62442245D01*
X104405181Y-62390417D01*
X104457945Y-62357766D01*
X104468163Y-62347530D01*
X104479502Y-62338543D01*
X104481204Y-62340690D01*
X104543208Y-62299181D01*
X104638479Y-62280143D01*
X104733784Y-62299013D01*
X104797193Y-62341301D01*
X104798697Y-62339397D01*
X104810050Y-62348363D01*
X104820289Y-62358584D01*
X104832603Y-62366174D01*
X104832605Y-62366176D01*
X104956013Y-62442245D01*
X104969266Y-62450414D01*
X105050669Y-62477415D01*
X105122464Y-62501229D01*
X105122468Y-62501230D01*
X105135372Y-62505510D01*
X105148900Y-62506896D01*
X105232415Y-62515453D01*
X105232423Y-62515453D01*
X105238734Y-62516100D01*
X106038466Y-62516100D01*
X106044862Y-62515436D01*
X106044869Y-62515436D01*
X106129571Y-62506647D01*
X106129573Y-62506647D01*
X106143119Y-62505241D01*
X106156032Y-62500933D01*
X106156036Y-62500932D01*
X106295410Y-62454433D01*
X106309129Y-62449856D01*
X106321426Y-62442246D01*
X106321429Y-62442245D01*
X106405181Y-62390417D01*
X106457945Y-62357766D01*
X106581584Y-62233911D01*
X106589176Y-62221595D01*
X106665823Y-62097250D01*
X106665825Y-62097246D01*
X106673414Y-62084934D01*
X106677968Y-62071204D01*
X106679920Y-62067018D01*
X106737369Y-61988668D01*
X106820428Y-61938267D01*
X106843670Y-61931073D01*
X106847150Y-61930180D01*
X106862693Y-61928216D01*
X106897961Y-61914253D01*
X106920152Y-61906655D01*
X106941549Y-61900439D01*
X106941554Y-61900437D01*
X106956591Y-61896068D01*
X106970076Y-61888093D01*
X106978293Y-61884537D01*
X106987688Y-61879935D01*
X106995537Y-61875620D01*
X107010103Y-61869853D01*
X107040797Y-61847552D01*
X107060401Y-61834675D01*
X107079567Y-61823340D01*
X107093056Y-61815363D01*
X107104133Y-61804286D01*
X107111206Y-61798800D01*
X107119165Y-61792002D01*
X107125695Y-61785870D01*
X107138367Y-61776663D01*
X107162539Y-61747444D01*
X107178327Y-61730092D01*
X108265739Y-60642680D01*
X108346521Y-60588704D01*
X108441809Y-60569750D01*
X108537097Y-60588704D01*
X108617879Y-60642680D01*
X108671855Y-60723462D01*
X108686758Y-60774017D01*
X108691450Y-60799712D01*
X108729348Y-60930156D01*
X108741691Y-60958680D01*
X108809343Y-61073073D01*
X108828392Y-61097631D01*
X108922369Y-61191608D01*
X108946927Y-61210657D01*
X109061320Y-61278309D01*
X109089844Y-61290652D01*
X109220287Y-61328549D01*
X109245199Y-61333099D01*
X109264470Y-61334615D01*
X109274255Y-61335000D01*
X109935473Y-61335000D01*
X109955931Y-61330931D01*
X109960000Y-61310473D01*
X109960000Y-60534000D01*
X109978954Y-60438712D01*
X110032930Y-60357930D01*
X110113712Y-60303954D01*
X110209000Y-60285000D01*
X110211000Y-60285000D01*
X110306288Y-60303954D01*
X110387070Y-60357930D01*
X110441046Y-60438712D01*
X110460000Y-60534000D01*
X110460000Y-61310473D01*
X110464069Y-61330931D01*
X110484527Y-61335000D01*
X110701000Y-61335000D01*
X110796288Y-61353954D01*
X110877070Y-61407930D01*
X110931046Y-61488712D01*
X110950000Y-61584000D01*
X110950000Y-64100500D01*
X110931046Y-64195788D01*
X110877070Y-64276570D01*
X110796288Y-64330546D01*
X110701000Y-64349500D01*
X93124500Y-64349500D01*
X93029212Y-64330546D01*
X92948430Y-64276570D01*
X92894454Y-64195788D01*
X92875500Y-64100500D01*
X92875500Y-35753257D01*
X95182600Y-35753257D01*
X95183590Y-35760771D01*
X95233754Y-35947985D01*
X95241166Y-35968348D01*
X95331805Y-36162725D01*
X95342635Y-36181482D01*
X95465653Y-36357170D01*
X95479576Y-36373764D01*
X95631239Y-36525427D01*
X95647825Y-36539344D01*
X95678796Y-36561030D01*
X95745980Y-36631211D01*
X95781194Y-36721760D01*
X95779075Y-36818892D01*
X95739947Y-36907819D01*
X95678798Y-36968968D01*
X95647833Y-36990650D01*
X95631236Y-37004576D01*
X95479576Y-37156236D01*
X95465653Y-37172830D01*
X95342635Y-37348518D01*
X95331805Y-37367275D01*
X95241166Y-37561652D01*
X95233754Y-37582015D01*
X95185712Y-37761309D01*
X95184348Y-37782123D01*
X95188175Y-37784011D01*
X95195689Y-37785000D01*
X96235473Y-37785000D01*
X96255931Y-37780931D01*
X96260000Y-37760473D01*
X96260000Y-35769527D01*
X96255931Y-35749069D01*
X96235473Y-35745000D01*
X95203891Y-35745000D01*
X95183433Y-35749069D01*
X95182600Y-35753257D01*
X92875500Y-35753257D01*
X92875500Y-35242123D01*
X95184348Y-35242123D01*
X95188175Y-35244011D01*
X95195689Y-35245000D01*
X96235473Y-35245000D01*
X96255931Y-35240931D01*
X96260000Y-35220473D01*
X96260000Y-34188891D01*
X96255931Y-34168433D01*
X96251743Y-34167600D01*
X96244229Y-34168590D01*
X96057015Y-34218754D01*
X96036652Y-34226166D01*
X95842275Y-34316805D01*
X95823518Y-34327635D01*
X95647830Y-34450653D01*
X95631236Y-34464576D01*
X95479576Y-34616236D01*
X95465653Y-34632830D01*
X95342635Y-34808518D01*
X95331805Y-34827275D01*
X95241166Y-35021652D01*
X95233754Y-35042015D01*
X95185712Y-35221309D01*
X95184348Y-35242123D01*
X92875500Y-35242123D01*
X92875500Y-32243391D01*
X95953401Y-32243391D01*
X95954066Y-32256240D01*
X95962845Y-32340868D01*
X95968563Y-32367339D01*
X96015022Y-32506594D01*
X96027211Y-32532615D01*
X96104018Y-32656734D01*
X96121864Y-32679250D01*
X96225161Y-32782366D01*
X96247717Y-32800181D01*
X96371967Y-32876770D01*
X96398006Y-32888912D01*
X96537366Y-32935135D01*
X96563802Y-32940803D01*
X96647246Y-32949353D01*
X96659915Y-32950000D01*
X96778873Y-32950000D01*
X96799331Y-32945931D01*
X96803400Y-32925473D01*
X96803400Y-32024527D01*
X96799331Y-32004069D01*
X96778873Y-32000000D01*
X95977928Y-32000000D01*
X95957470Y-32004069D01*
X95953401Y-32024527D01*
X95953401Y-32243391D01*
X92875500Y-32243391D01*
X92875500Y-31475473D01*
X95953400Y-31475473D01*
X95957469Y-31495931D01*
X95977927Y-31500000D01*
X96778873Y-31500000D01*
X96799331Y-31495931D01*
X96803400Y-31475473D01*
X96803400Y-30574528D01*
X96799331Y-30554070D01*
X96778873Y-30550001D01*
X96660009Y-30550001D01*
X96647160Y-30550666D01*
X96562532Y-30559445D01*
X96536061Y-30565163D01*
X96396806Y-30611622D01*
X96370785Y-30623811D01*
X96246666Y-30700618D01*
X96224150Y-30718464D01*
X96121034Y-30821761D01*
X96103219Y-30844317D01*
X96026630Y-30968567D01*
X96014488Y-30994606D01*
X95968265Y-31133966D01*
X95962597Y-31160402D01*
X95954047Y-31243846D01*
X95953400Y-31256515D01*
X95953400Y-31475473D01*
X92875500Y-31475473D01*
X92875500Y-29838391D01*
X107185001Y-29838391D01*
X107185666Y-29851240D01*
X107194445Y-29935868D01*
X107200163Y-29962339D01*
X107246622Y-30101594D01*
X107258811Y-30127615D01*
X107335618Y-30251734D01*
X107353464Y-30274250D01*
X107456761Y-30377366D01*
X107479317Y-30395181D01*
X107603567Y-30471770D01*
X107629606Y-30483912D01*
X107768966Y-30530135D01*
X107795402Y-30535803D01*
X107878846Y-30544353D01*
X107891515Y-30545000D01*
X107997973Y-30545000D01*
X108018431Y-30540931D01*
X108022500Y-30520473D01*
X108022500Y-29594527D01*
X108018431Y-29574069D01*
X107997973Y-29570000D01*
X107209528Y-29570000D01*
X107189070Y-29574069D01*
X107185001Y-29594527D01*
X107185001Y-29838391D01*
X92875500Y-29838391D01*
X92875500Y-29045473D01*
X107185000Y-29045473D01*
X107189069Y-29065931D01*
X107209527Y-29070000D01*
X107997973Y-29070000D01*
X108018431Y-29065931D01*
X108022500Y-29045473D01*
X108022500Y-27294527D01*
X108018431Y-27274069D01*
X107997973Y-27270000D01*
X107209528Y-27270000D01*
X107189070Y-27274069D01*
X107185001Y-27294527D01*
X107185001Y-27538391D01*
X107185666Y-27551240D01*
X107194445Y-27635868D01*
X107200163Y-27662339D01*
X107246622Y-27801594D01*
X107258811Y-27827615D01*
X107335618Y-27951734D01*
X107353464Y-27974250D01*
X107373080Y-27993832D01*
X107427127Y-28074566D01*
X107446164Y-28169838D01*
X107427293Y-28265143D01*
X107373387Y-28345971D01*
X107352633Y-28366761D01*
X107334819Y-28389317D01*
X107258230Y-28513567D01*
X107246088Y-28539606D01*
X107199865Y-28678966D01*
X107194197Y-28705402D01*
X107185647Y-28788846D01*
X107185000Y-28801515D01*
X107185000Y-29045473D01*
X92875500Y-29045473D01*
X92875500Y-23599500D01*
X92894454Y-23504212D01*
X92948430Y-23423430D01*
X93029212Y-23369454D01*
X93124500Y-23350500D01*
X110701000Y-23350500D01*
X110796288Y-23369454D01*
G37*
G04 #@! TD.AperFunction*
G04 #@! TA.AperFunction,Conductor*
G36*
X96606288Y-45423954D02*
G01*
X96687070Y-45477930D01*
X96741046Y-45558712D01*
X96760000Y-45654000D01*
X96760000Y-54581109D01*
X96764069Y-54601567D01*
X96768257Y-54602400D01*
X96775771Y-54601410D01*
X96962986Y-54551246D01*
X96983343Y-54543837D01*
X97177732Y-54453192D01*
X97196478Y-54442369D01*
X97372172Y-54319346D01*
X97386648Y-54307199D01*
X97471826Y-54260468D01*
X97568404Y-54249890D01*
X97661678Y-54277076D01*
X97737448Y-54337887D01*
X97754732Y-54363178D01*
X97756474Y-54367824D01*
X97767109Y-54382014D01*
X97767110Y-54382016D01*
X97812343Y-54442369D01*
X97842454Y-54482546D01*
X97957176Y-54568526D01*
X97973787Y-54574753D01*
X98076804Y-54613372D01*
X98076805Y-54613372D01*
X98091420Y-54618851D01*
X98152623Y-54625500D01*
X99049400Y-54625500D01*
X99947376Y-54625499D01*
X100008580Y-54618851D01*
X100142824Y-54568526D01*
X100244364Y-54492426D01*
X100257546Y-54482546D01*
X100258099Y-54483284D01*
X100324270Y-54439071D01*
X100419558Y-54420117D01*
X100514846Y-54439071D01*
X100595628Y-54493047D01*
X101536145Y-55433564D01*
X101539720Y-55437493D01*
X101544460Y-55444962D01*
X101555874Y-55455680D01*
X101555876Y-55455683D01*
X101592202Y-55489795D01*
X101597819Y-55495238D01*
X101616004Y-55513423D01*
X101614256Y-55515171D01*
X101663995Y-55580380D01*
X101676559Y-55611063D01*
X101710344Y-55712329D01*
X101802434Y-55861145D01*
X101926289Y-55984784D01*
X101938603Y-55992374D01*
X101938605Y-55992376D01*
X101962111Y-56006865D01*
X102075266Y-56076614D01*
X102138234Y-56097500D01*
X102228464Y-56127429D01*
X102228468Y-56127430D01*
X102241372Y-56131710D01*
X102254900Y-56133096D01*
X102338415Y-56141653D01*
X102338423Y-56141653D01*
X102344734Y-56142300D01*
X103344466Y-56142300D01*
X103350862Y-56141636D01*
X103350869Y-56141636D01*
X103435571Y-56132847D01*
X103435573Y-56132847D01*
X103449119Y-56131441D01*
X103462032Y-56127133D01*
X103462036Y-56127132D01*
X103601410Y-56080633D01*
X103615129Y-56076056D01*
X103627426Y-56068446D01*
X103627429Y-56068445D01*
X103711181Y-56016617D01*
X103763945Y-55983966D01*
X103887584Y-55860111D01*
X103932255Y-55787641D01*
X103998390Y-55716472D01*
X104086727Y-55676028D01*
X104144220Y-55669300D01*
X106012141Y-55669300D01*
X106107429Y-55688254D01*
X106188211Y-55742230D01*
X107388411Y-56942430D01*
X107442387Y-57023212D01*
X107461341Y-57118500D01*
X107442387Y-57213788D01*
X107388411Y-57294570D01*
X107307629Y-57348546D01*
X107212341Y-57367500D01*
X106687056Y-57367500D01*
X106591768Y-57348546D01*
X106511140Y-57294723D01*
X106505544Y-57289136D01*
X106440911Y-57224616D01*
X106428597Y-57217026D01*
X106428595Y-57217024D01*
X106304254Y-57140380D01*
X106304253Y-57140380D01*
X106291934Y-57132786D01*
X106210531Y-57105785D01*
X106138736Y-57081971D01*
X106138732Y-57081970D01*
X106125828Y-57077690D01*
X106108966Y-57075962D01*
X106028785Y-57067747D01*
X106028777Y-57067747D01*
X106022466Y-57067100D01*
X105222734Y-57067100D01*
X105216338Y-57067764D01*
X105216331Y-57067764D01*
X105131629Y-57076553D01*
X105131627Y-57076553D01*
X105118081Y-57077959D01*
X105105168Y-57082267D01*
X105105164Y-57082268D01*
X104996564Y-57118500D01*
X104952071Y-57133344D01*
X104939774Y-57140954D01*
X104939771Y-57140955D01*
X104856019Y-57192783D01*
X104803255Y-57225434D01*
X104793037Y-57235670D01*
X104781698Y-57244657D01*
X104779996Y-57242510D01*
X104717992Y-57284019D01*
X104622721Y-57303057D01*
X104527416Y-57284187D01*
X104464007Y-57241899D01*
X104462503Y-57243803D01*
X104451149Y-57234836D01*
X104440911Y-57224616D01*
X104428597Y-57217026D01*
X104428595Y-57217024D01*
X104304254Y-57140380D01*
X104304253Y-57140380D01*
X104291934Y-57132786D01*
X104210531Y-57105785D01*
X104138736Y-57081971D01*
X104138732Y-57081970D01*
X104125828Y-57077690D01*
X104108966Y-57075962D01*
X104028785Y-57067747D01*
X104028777Y-57067747D01*
X104022466Y-57067100D01*
X103222734Y-57067100D01*
X103216338Y-57067764D01*
X103216331Y-57067764D01*
X103131629Y-57076553D01*
X103131627Y-57076553D01*
X103118081Y-57077959D01*
X103105168Y-57082267D01*
X103105164Y-57082268D01*
X102996564Y-57118500D01*
X102952071Y-57133344D01*
X102939774Y-57140954D01*
X102939771Y-57140955D01*
X102856019Y-57192783D01*
X102803255Y-57225434D01*
X102679616Y-57349289D01*
X102672026Y-57361603D01*
X102672024Y-57361605D01*
X102622623Y-57441750D01*
X102587786Y-57498266D01*
X102584477Y-57496226D01*
X102543800Y-57551694D01*
X102460737Y-57602090D01*
X102375591Y-57617100D01*
X98975386Y-57617100D01*
X98880098Y-57598146D01*
X98799316Y-57544170D01*
X96231905Y-54976759D01*
X96177929Y-54895977D01*
X96158975Y-54800689D01*
X96177929Y-54705401D01*
X96231905Y-54624619D01*
X96243799Y-54613480D01*
X96256130Y-54602666D01*
X96259011Y-54596825D01*
X96260000Y-54589311D01*
X96260000Y-45654000D01*
X96278954Y-45558712D01*
X96332930Y-45477930D01*
X96413712Y-45423954D01*
X96509000Y-45405000D01*
X96511000Y-45405000D01*
X96606288Y-45423954D01*
G37*
G04 #@! TD.AperFunction*
G04 #@! TA.AperFunction,Conductor*
G36*
X104336145Y-52577911D02*
G01*
X104425905Y-52615091D01*
X104463637Y-52646056D01*
X105806811Y-53989230D01*
X105860787Y-54070012D01*
X105879741Y-54165300D01*
X105860787Y-54260588D01*
X105806811Y-54341370D01*
X105726029Y-54395346D01*
X105630741Y-54414300D01*
X104144217Y-54414300D01*
X104048929Y-54395346D01*
X103968147Y-54341370D01*
X103932479Y-54296326D01*
X103894379Y-54234756D01*
X103894375Y-54234751D01*
X103886766Y-54222455D01*
X103876531Y-54212238D01*
X103867543Y-54200898D01*
X103869614Y-54199256D01*
X103827831Y-54136848D01*
X103808789Y-54041577D01*
X103827655Y-53946272D01*
X103869916Y-53882900D01*
X103868003Y-53881389D01*
X103894781Y-53847483D01*
X103971370Y-53723233D01*
X103983512Y-53697194D01*
X104029735Y-53557834D01*
X104035403Y-53531398D01*
X104043953Y-53447954D01*
X104044600Y-53435285D01*
X104044600Y-53316327D01*
X104040531Y-53295869D01*
X104020073Y-53291800D01*
X102843600Y-53291800D01*
X102748312Y-53272846D01*
X102667530Y-53218870D01*
X102613554Y-53138088D01*
X102594600Y-53042800D01*
X102594600Y-53040800D01*
X102613554Y-52945512D01*
X102667530Y-52864730D01*
X102748312Y-52810754D01*
X102843600Y-52791800D01*
X104020072Y-52791800D01*
X104040531Y-52787730D01*
X104043352Y-52773548D01*
X104080532Y-52683788D01*
X104149231Y-52615090D01*
X104238990Y-52577910D01*
X104336145Y-52577911D01*
G37*
G04 #@! TD.AperFunction*
G04 #@! TA.AperFunction,Conductor*
G36*
X105272471Y-40797254D02*
G01*
X105353253Y-40851230D01*
X105388921Y-40896274D01*
X105427021Y-40957844D01*
X105427025Y-40957849D01*
X105434634Y-40970145D01*
X105543927Y-41079247D01*
X105597971Y-41159978D01*
X105617008Y-41255249D01*
X105598137Y-41350554D01*
X105544232Y-41431383D01*
X105536479Y-41438296D01*
X105532055Y-41441034D01*
X105408416Y-41564889D01*
X105316586Y-41713866D01*
X105312030Y-41727603D01*
X105265892Y-41866702D01*
X105261490Y-41879972D01*
X105250900Y-41983334D01*
X105250900Y-42783066D01*
X105251564Y-42789462D01*
X105251564Y-42789469D01*
X105259072Y-42861828D01*
X105261759Y-42887719D01*
X105266067Y-42900632D01*
X105266068Y-42900636D01*
X105291722Y-42977530D01*
X105317144Y-43053729D01*
X105409234Y-43202545D01*
X105419470Y-43212763D01*
X105428457Y-43224102D01*
X105426310Y-43225804D01*
X105467819Y-43287808D01*
X105486857Y-43383079D01*
X105467987Y-43478384D01*
X105425699Y-43541793D01*
X105427603Y-43543297D01*
X105418636Y-43554651D01*
X105408416Y-43564889D01*
X105400826Y-43577203D01*
X105400824Y-43577205D01*
X105328274Y-43694904D01*
X105316586Y-43713866D01*
X105297782Y-43770558D01*
X105269577Y-43855592D01*
X105261490Y-43879972D01*
X105260104Y-43893500D01*
X105252370Y-43968989D01*
X105250900Y-43983334D01*
X105250900Y-44783066D01*
X105251564Y-44789462D01*
X105251564Y-44789469D01*
X105253740Y-44810441D01*
X105261759Y-44887719D01*
X105266067Y-44900632D01*
X105266068Y-44900636D01*
X105284062Y-44954570D01*
X105317144Y-45053729D01*
X105324754Y-45066026D01*
X105324755Y-45066029D01*
X105340123Y-45090863D01*
X105409234Y-45202545D01*
X105533089Y-45326184D01*
X105545403Y-45333774D01*
X105545405Y-45333776D01*
X105613452Y-45375720D01*
X105682066Y-45418014D01*
X105763469Y-45445015D01*
X105835264Y-45468829D01*
X105835268Y-45468830D01*
X105848172Y-45473110D01*
X105861700Y-45474496D01*
X105945215Y-45483053D01*
X105945223Y-45483053D01*
X105951534Y-45483700D01*
X106951266Y-45483700D01*
X106957662Y-45483036D01*
X106957669Y-45483036D01*
X107042371Y-45474247D01*
X107042373Y-45474247D01*
X107055919Y-45472841D01*
X107068832Y-45468533D01*
X107068836Y-45468532D01*
X107208210Y-45422033D01*
X107221929Y-45417456D01*
X107234226Y-45409846D01*
X107234229Y-45409845D01*
X107317981Y-45358017D01*
X107370745Y-45325366D01*
X107494384Y-45201511D01*
X107528698Y-45145843D01*
X107594833Y-45074673D01*
X107683170Y-45034229D01*
X107740664Y-45027500D01*
X108936941Y-45027500D01*
X109032229Y-45046454D01*
X109113011Y-45100430D01*
X109532186Y-45519605D01*
X109586162Y-45600387D01*
X109605116Y-45695675D01*
X109586162Y-45790963D01*
X109532186Y-45871745D01*
X109523344Y-45879623D01*
X109518155Y-45882834D01*
X109507938Y-45893069D01*
X109463359Y-45937726D01*
X109382624Y-45991774D01*
X109287353Y-46010811D01*
X109192048Y-45991940D01*
X109111219Y-45938034D01*
X109065739Y-45892633D01*
X109043183Y-45874819D01*
X108918933Y-45798230D01*
X108892894Y-45786088D01*
X108753534Y-45739865D01*
X108727098Y-45734197D01*
X108643654Y-45725647D01*
X108630985Y-45725000D01*
X108524527Y-45725000D01*
X108504069Y-45729069D01*
X108500000Y-45749527D01*
X108500000Y-47960474D01*
X108507716Y-47999265D01*
X108512500Y-48047842D01*
X108512500Y-50450472D01*
X108516569Y-50470930D01*
X108537027Y-50474999D01*
X108643391Y-50474999D01*
X108656240Y-50474334D01*
X108740868Y-50465555D01*
X108767339Y-50459837D01*
X108906594Y-50413378D01*
X108932615Y-50401189D01*
X109056734Y-50324382D01*
X109079250Y-50306536D01*
X109123435Y-50262274D01*
X109204169Y-50208227D01*
X109299441Y-50189190D01*
X109394745Y-50208061D01*
X109475574Y-50261967D01*
X109484961Y-50271337D01*
X109531689Y-50317984D01*
X109589216Y-50353444D01*
X109591658Y-50354949D01*
X109662828Y-50421085D01*
X109703272Y-50509422D01*
X109710000Y-50566915D01*
X109710000Y-50595500D01*
X109691046Y-50690788D01*
X109637070Y-50771570D01*
X109556288Y-50825546D01*
X109461000Y-50844500D01*
X109269306Y-50844500D01*
X109258746Y-50845331D01*
X109245120Y-50846403D01*
X109245116Y-50846404D01*
X109232431Y-50847402D01*
X109220214Y-50850952D01*
X109220211Y-50850952D01*
X109135371Y-50875601D01*
X109074602Y-50893256D01*
X109061121Y-50901228D01*
X109061120Y-50901229D01*
X109041506Y-50912829D01*
X108933135Y-50976919D01*
X108816919Y-51093135D01*
X108733256Y-51234602D01*
X108687402Y-51392431D01*
X108684500Y-51429306D01*
X108684500Y-51860694D01*
X108687402Y-51897569D01*
X108690952Y-51909786D01*
X108690952Y-51909789D01*
X108697158Y-51931149D01*
X108733256Y-52055398D01*
X108741228Y-52068879D01*
X108741229Y-52068880D01*
X108791415Y-52153740D01*
X108823606Y-52245407D01*
X108818267Y-52342415D01*
X108791415Y-52407243D01*
X108741690Y-52491324D01*
X108729348Y-52519844D01*
X108691451Y-52650286D01*
X108691044Y-52652515D01*
X108692080Y-52661263D01*
X108705331Y-52665000D01*
X110211000Y-52665000D01*
X110306288Y-52683954D01*
X110387070Y-52737930D01*
X110441046Y-52818712D01*
X110460000Y-52914000D01*
X110460000Y-52916000D01*
X110441046Y-53011288D01*
X110387070Y-53092070D01*
X110306288Y-53146046D01*
X110211000Y-53165000D01*
X108712231Y-53165000D01*
X108691773Y-53169069D01*
X108686886Y-53193637D01*
X108685922Y-53254954D01*
X108647336Y-53344117D01*
X108577565Y-53411728D01*
X108487232Y-53447491D01*
X108390089Y-53445963D01*
X108300926Y-53407377D01*
X108266431Y-53378612D01*
X106339030Y-51451211D01*
X106285054Y-51370429D01*
X106266100Y-51275141D01*
X106266100Y-50584531D01*
X106285054Y-50489243D01*
X106339030Y-50408461D01*
X106404320Y-50362661D01*
X106409129Y-50361056D01*
X106557945Y-50268966D01*
X106681584Y-50145111D01*
X106743704Y-50044334D01*
X106765822Y-50008451D01*
X106765823Y-50008449D01*
X106773414Y-49996134D01*
X106774988Y-49991387D01*
X106829113Y-49917570D01*
X106912172Y-49867168D01*
X107008196Y-49852388D01*
X107102567Y-49875480D01*
X107180917Y-49932928D01*
X107233537Y-50022346D01*
X107236624Y-50031598D01*
X107248811Y-50057615D01*
X107325618Y-50181734D01*
X107343464Y-50204250D01*
X107446761Y-50307366D01*
X107469317Y-50325181D01*
X107593567Y-50401770D01*
X107619606Y-50413912D01*
X107758966Y-50460135D01*
X107785402Y-50465803D01*
X107868846Y-50474353D01*
X107881515Y-50475000D01*
X107987973Y-50475000D01*
X108008431Y-50470931D01*
X108012500Y-50450473D01*
X108012500Y-48239526D01*
X108004784Y-48200735D01*
X108000000Y-48152158D01*
X108000000Y-45749528D01*
X107995931Y-45729070D01*
X107975473Y-45725001D01*
X107869109Y-45725001D01*
X107856260Y-45725666D01*
X107771632Y-45734445D01*
X107745161Y-45740163D01*
X107605906Y-45786622D01*
X107579885Y-45798811D01*
X107455766Y-45875618D01*
X107433250Y-45893464D01*
X107330134Y-45996761D01*
X107312319Y-46019317D01*
X107235730Y-46143567D01*
X107223588Y-46169606D01*
X107177365Y-46308966D01*
X107171697Y-46335402D01*
X107163148Y-46418844D01*
X107162829Y-46425077D01*
X107139035Y-46519273D01*
X107081005Y-46597193D01*
X106997573Y-46646975D01*
X106901441Y-46661039D01*
X106807245Y-46637245D01*
X106729325Y-46579215D01*
X106702416Y-46543390D01*
X106687985Y-46520069D01*
X106670136Y-46497550D01*
X106566839Y-46394434D01*
X106544283Y-46376619D01*
X106420033Y-46300030D01*
X106393994Y-46287888D01*
X106254634Y-46241665D01*
X106228198Y-46235997D01*
X106144754Y-46227447D01*
X106132085Y-46226800D01*
X105913127Y-46226800D01*
X105892669Y-46230869D01*
X105888600Y-46251327D01*
X105888600Y-47327800D01*
X105869646Y-47423088D01*
X105815670Y-47503870D01*
X105734888Y-47557846D01*
X105639600Y-47576800D01*
X105637600Y-47576800D01*
X105542312Y-47557846D01*
X105461530Y-47503870D01*
X105407554Y-47423088D01*
X105388600Y-47327800D01*
X105388600Y-46251328D01*
X105384531Y-46230870D01*
X105364073Y-46226801D01*
X105145209Y-46226801D01*
X105132360Y-46227466D01*
X105047732Y-46236245D01*
X105021261Y-46241963D01*
X104882006Y-46288422D01*
X104855985Y-46300611D01*
X104731866Y-46377418D01*
X104709350Y-46395264D01*
X104606234Y-46498561D01*
X104588419Y-46521117D01*
X104511830Y-46645367D01*
X104499688Y-46671406D01*
X104453464Y-46810766D01*
X104448686Y-46833055D01*
X104410178Y-46922253D01*
X104340468Y-46989925D01*
X104250166Y-47025768D01*
X104153022Y-47024327D01*
X104063824Y-46985819D01*
X104029148Y-46956929D01*
X103748230Y-46676011D01*
X103694254Y-46595229D01*
X103675300Y-46499941D01*
X103675300Y-46072866D01*
X103675550Y-46067556D01*
X103677480Y-46058923D01*
X103675423Y-45993455D01*
X103675300Y-45985636D01*
X103675300Y-45959924D01*
X103674317Y-45952147D01*
X103674178Y-45949935D01*
X103673809Y-45942105D01*
X103673672Y-45937726D01*
X103672501Y-45900458D01*
X103668130Y-45885412D01*
X103666729Y-45876569D01*
X103664610Y-45866337D01*
X103662379Y-45857649D01*
X103660416Y-45842107D01*
X103646449Y-45806829D01*
X103638853Y-45784641D01*
X103632639Y-45763254D01*
X103628268Y-45748209D01*
X103620294Y-45734726D01*
X103616736Y-45726503D01*
X103612135Y-45717112D01*
X103607820Y-45709264D01*
X103602053Y-45694697D01*
X103579752Y-45664002D01*
X103566879Y-45644405D01*
X103555538Y-45625228D01*
X103555537Y-45625227D01*
X103547564Y-45611745D01*
X103536488Y-45600669D01*
X103531010Y-45593607D01*
X103524202Y-45585635D01*
X103518070Y-45579105D01*
X103508863Y-45566433D01*
X103479644Y-45542261D01*
X103462292Y-45526473D01*
X100822189Y-42886370D01*
X100768213Y-42805588D01*
X100749259Y-42710300D01*
X100768213Y-42615012D01*
X100822189Y-42534230D01*
X100902971Y-42480254D01*
X100998259Y-42461300D01*
X102923534Y-42461300D01*
X102928844Y-42461550D01*
X102937477Y-42463480D01*
X103002946Y-42461423D01*
X103010765Y-42461300D01*
X103036476Y-42461300D01*
X103044241Y-42460319D01*
X103046476Y-42460178D01*
X103054298Y-42459809D01*
X103065544Y-42459456D01*
X103080282Y-42458993D01*
X103095943Y-42458501D01*
X103110988Y-42454130D01*
X103119821Y-42452731D01*
X103130053Y-42450612D01*
X103138746Y-42448380D01*
X103154293Y-42446416D01*
X103189561Y-42432453D01*
X103211752Y-42424855D01*
X103233149Y-42418639D01*
X103233154Y-42418637D01*
X103248191Y-42414268D01*
X103261676Y-42406293D01*
X103269893Y-42402737D01*
X103279288Y-42398135D01*
X103287137Y-42393820D01*
X103301703Y-42388053D01*
X103332397Y-42365752D01*
X103352001Y-42352875D01*
X103371167Y-42341540D01*
X103384656Y-42333563D01*
X103395733Y-42322486D01*
X103402806Y-42317000D01*
X103410765Y-42310202D01*
X103417295Y-42304070D01*
X103429967Y-42294863D01*
X103454139Y-42265644D01*
X103469927Y-42248292D01*
X104866989Y-40851230D01*
X104947771Y-40797254D01*
X105043059Y-40778300D01*
X105177183Y-40778300D01*
X105272471Y-40797254D01*
G37*
G04 #@! TD.AperFunction*
G04 #@! TA.AperFunction,Conductor*
G36*
X102470188Y-47199613D02*
G01*
X102550970Y-47253589D01*
X102555317Y-47257936D01*
X102571398Y-47276765D01*
X102577530Y-47283295D01*
X102586737Y-47295967D01*
X102598807Y-47305952D01*
X102615956Y-47320139D01*
X102633308Y-47335927D01*
X103015157Y-47717776D01*
X103069133Y-47798558D01*
X103088087Y-47893846D01*
X103083303Y-47942422D01*
X103069200Y-48013325D01*
X103069200Y-49089800D01*
X103050246Y-49185088D01*
X102996270Y-49265870D01*
X102915488Y-49319846D01*
X102820200Y-49338800D01*
X102818200Y-49338800D01*
X102722912Y-49319846D01*
X102642130Y-49265870D01*
X102588154Y-49185088D01*
X102569200Y-49089800D01*
X102569200Y-48013328D01*
X102565131Y-47992870D01*
X102544673Y-47988801D01*
X102374900Y-47988801D01*
X102279612Y-47969847D01*
X102198830Y-47915871D01*
X102144854Y-47835089D01*
X102125900Y-47739801D01*
X102125900Y-47429659D01*
X102144854Y-47334371D01*
X102198830Y-47253589D01*
X102279612Y-47199613D01*
X102374900Y-47180659D01*
X102470188Y-47199613D01*
G37*
G04 #@! TD.AperFunction*
G04 #@! TA.AperFunction,Conductor*
G36*
X110306288Y-40303954D02*
G01*
X110387070Y-40357930D01*
X110441046Y-40438712D01*
X110460000Y-40534000D01*
X110460000Y-41310473D01*
X110464069Y-41330931D01*
X110484527Y-41335000D01*
X110701000Y-41335000D01*
X110796288Y-41353954D01*
X110877070Y-41407930D01*
X110931046Y-41488712D01*
X110950000Y-41584000D01*
X110950000Y-44561441D01*
X110931046Y-44656729D01*
X110877070Y-44737511D01*
X110796288Y-44791487D01*
X110701000Y-44810441D01*
X110605712Y-44791487D01*
X110524930Y-44737511D01*
X109795655Y-44008236D01*
X109792080Y-44004307D01*
X109787340Y-43996838D01*
X109775926Y-43986120D01*
X109775924Y-43986117D01*
X109739598Y-43952005D01*
X109733981Y-43946562D01*
X109715796Y-43928377D01*
X109709621Y-43923587D01*
X109707907Y-43922076D01*
X109702122Y-43916812D01*
X109683186Y-43899030D01*
X109683185Y-43899029D01*
X109671767Y-43888307D01*
X109658041Y-43880761D01*
X109650807Y-43875505D01*
X109642054Y-43869756D01*
X109634344Y-43865196D01*
X109621962Y-43855592D01*
X109587144Y-43840525D01*
X109566084Y-43830207D01*
X109546562Y-43819475D01*
X109532834Y-43811928D01*
X109517661Y-43808032D01*
X109509310Y-43804726D01*
X109499447Y-43801349D01*
X109490831Y-43798846D01*
X109476458Y-43792626D01*
X109438993Y-43786693D01*
X109416014Y-43781934D01*
X109394450Y-43776397D01*
X109394449Y-43776397D01*
X109379272Y-43772500D01*
X109363599Y-43772500D01*
X109354717Y-43771378D01*
X109344300Y-43770558D01*
X109335344Y-43770276D01*
X109319867Y-43767825D01*
X109304274Y-43769299D01*
X109304271Y-43769299D01*
X109282102Y-43771395D01*
X109258668Y-43772500D01*
X107761413Y-43772500D01*
X107666125Y-43753546D01*
X107585343Y-43699570D01*
X107549675Y-43654526D01*
X107501179Y-43576156D01*
X107501175Y-43576151D01*
X107493566Y-43563855D01*
X107483331Y-43553638D01*
X107474343Y-43542298D01*
X107476490Y-43540596D01*
X107434981Y-43478592D01*
X107415943Y-43383321D01*
X107434813Y-43288016D01*
X107477101Y-43224607D01*
X107475197Y-43223103D01*
X107484165Y-43211748D01*
X107494384Y-43201511D01*
X107548976Y-43112946D01*
X107615108Y-43041778D01*
X107703444Y-43001334D01*
X107713175Y-42999570D01*
X107720147Y-42997780D01*
X107735693Y-42995816D01*
X107770961Y-42981853D01*
X107793152Y-42974255D01*
X107814549Y-42968039D01*
X107814554Y-42968037D01*
X107829591Y-42963668D01*
X107843076Y-42955693D01*
X107851293Y-42952137D01*
X107860688Y-42947535D01*
X107868537Y-42943220D01*
X107883103Y-42937453D01*
X107913797Y-42915152D01*
X107933401Y-42902275D01*
X107952567Y-42890940D01*
X107966056Y-42882963D01*
X107977133Y-42871886D01*
X107984206Y-42866400D01*
X107992165Y-42859602D01*
X107998695Y-42853470D01*
X108011367Y-42844263D01*
X108035539Y-42815044D01*
X108051327Y-42797692D01*
X108468764Y-42380255D01*
X108472693Y-42376680D01*
X108480162Y-42371940D01*
X108490880Y-42360526D01*
X108490883Y-42360524D01*
X108524995Y-42324198D01*
X108530438Y-42318581D01*
X108548623Y-42300396D01*
X108553413Y-42294221D01*
X108554924Y-42292507D01*
X108560188Y-42286722D01*
X108577970Y-42267786D01*
X108577971Y-42267785D01*
X108588693Y-42256367D01*
X108596239Y-42242641D01*
X108601495Y-42235407D01*
X108607244Y-42226654D01*
X108611804Y-42218944D01*
X108621408Y-42206562D01*
X108636475Y-42171744D01*
X108646793Y-42150684D01*
X108657525Y-42131162D01*
X108665072Y-42117434D01*
X108668968Y-42102261D01*
X108672274Y-42093910D01*
X108675651Y-42084047D01*
X108678154Y-42075431D01*
X108684374Y-42061058D01*
X108690307Y-42023593D01*
X108695066Y-42000614D01*
X108700603Y-41979050D01*
X108700603Y-41979049D01*
X108704500Y-41963872D01*
X108704500Y-41948199D01*
X108705622Y-41939317D01*
X108706442Y-41928900D01*
X108706724Y-41919944D01*
X108709175Y-41904467D01*
X108706860Y-41879972D01*
X108705605Y-41866702D01*
X108704500Y-41843268D01*
X108704500Y-41502965D01*
X108723454Y-41407677D01*
X108777430Y-41326895D01*
X108858212Y-41272919D01*
X108953500Y-41253965D01*
X109052389Y-41274444D01*
X109089844Y-41290652D01*
X109220287Y-41328549D01*
X109245199Y-41333099D01*
X109264470Y-41334615D01*
X109274255Y-41335000D01*
X109935473Y-41335000D01*
X109955931Y-41330931D01*
X109960000Y-41310473D01*
X109960000Y-40534000D01*
X109978954Y-40438712D01*
X110032930Y-40357930D01*
X110113712Y-40303954D01*
X110209000Y-40285000D01*
X110211000Y-40285000D01*
X110306288Y-40303954D01*
G37*
G04 #@! TD.AperFunction*
G04 #@! TA.AperFunction,Conductor*
G36*
X102405288Y-38324513D02*
G01*
X102486070Y-38378489D01*
X102540046Y-38459271D01*
X102559000Y-38554559D01*
X102559000Y-38571473D01*
X102563069Y-38591931D01*
X102583527Y-38596000D01*
X103760000Y-38596000D01*
X103855288Y-38614954D01*
X103936070Y-38668930D01*
X103990046Y-38749712D01*
X104009000Y-38845000D01*
X104009000Y-38847000D01*
X103990046Y-38942288D01*
X103936070Y-39023070D01*
X103855288Y-39077046D01*
X103760000Y-39096000D01*
X102583528Y-39096000D01*
X102563070Y-39100069D01*
X102559001Y-39120527D01*
X102559001Y-39239391D01*
X102559666Y-39252240D01*
X102568445Y-39336868D01*
X102574163Y-39363339D01*
X102620622Y-39502594D01*
X102632811Y-39528615D01*
X102709618Y-39652734D01*
X102727464Y-39675250D01*
X102830761Y-39778366D01*
X102853317Y-39796181D01*
X102977567Y-39872770D01*
X103003606Y-39884912D01*
X103142966Y-39931135D01*
X103169402Y-39936803D01*
X103252846Y-39945353D01*
X103265515Y-39946000D01*
X103396241Y-39946000D01*
X103491529Y-39964954D01*
X103572311Y-40018930D01*
X103626287Y-40099712D01*
X103645241Y-40195000D01*
X103626287Y-40290288D01*
X103572311Y-40371070D01*
X102810011Y-41133370D01*
X102729229Y-41187346D01*
X102633941Y-41206300D01*
X100603488Y-41206300D01*
X100508200Y-41187346D01*
X100427418Y-41133370D01*
X100373442Y-41052588D01*
X100354488Y-40957300D01*
X100362972Y-40892856D01*
X100382249Y-40820913D01*
X100382250Y-40820905D01*
X100385063Y-40810408D01*
X100405659Y-40575000D01*
X100387817Y-40371070D01*
X100386011Y-40350426D01*
X100386011Y-40350425D01*
X100385063Y-40339592D01*
X100382249Y-40329091D01*
X100382248Y-40329083D01*
X100377421Y-40311069D01*
X100371066Y-40214122D01*
X100402296Y-40122123D01*
X100441866Y-40070553D01*
X102133930Y-38378489D01*
X102214712Y-38324513D01*
X102310000Y-38305559D01*
X102405288Y-38324513D01*
G37*
G04 #@! TD.AperFunction*
G04 #@! TA.AperFunction,Conductor*
G36*
X101236888Y-32015454D02*
G01*
X101317670Y-32069430D01*
X101371646Y-32150212D01*
X101390600Y-32245500D01*
X101390600Y-32355073D01*
X101394669Y-32375531D01*
X101415127Y-32379600D01*
X103766072Y-32379600D01*
X103786530Y-32375531D01*
X103790599Y-32355073D01*
X103790599Y-32245500D01*
X103809553Y-32150212D01*
X103863529Y-32069430D01*
X103944311Y-32015454D01*
X104039599Y-31996500D01*
X105224741Y-31996500D01*
X105320029Y-32015454D01*
X105400811Y-32069430D01*
X107733811Y-34402430D01*
X107787787Y-34483212D01*
X107806741Y-34578500D01*
X107787787Y-34673788D01*
X107733811Y-34754570D01*
X107653029Y-34808546D01*
X107557741Y-34827500D01*
X107090459Y-34827500D01*
X106995171Y-34808546D01*
X106914389Y-34754570D01*
X106397655Y-34237836D01*
X106394080Y-34233907D01*
X106389340Y-34226438D01*
X106377926Y-34215720D01*
X106377924Y-34215717D01*
X106341598Y-34181605D01*
X106335981Y-34176162D01*
X106317796Y-34157977D01*
X106311621Y-34153187D01*
X106309907Y-34151676D01*
X106304122Y-34146412D01*
X106285186Y-34128630D01*
X106285185Y-34128629D01*
X106273767Y-34117907D01*
X106260041Y-34110361D01*
X106252807Y-34105105D01*
X106244054Y-34099356D01*
X106236344Y-34094796D01*
X106223962Y-34085192D01*
X106189144Y-34070125D01*
X106168084Y-34059807D01*
X106148562Y-34049075D01*
X106134834Y-34041528D01*
X106119661Y-34037632D01*
X106111310Y-34034326D01*
X106101447Y-34030949D01*
X106092831Y-34028446D01*
X106078458Y-34022226D01*
X106040993Y-34016293D01*
X106018014Y-34011534D01*
X105996450Y-34005997D01*
X105996449Y-34005997D01*
X105981272Y-34002100D01*
X105965599Y-34002100D01*
X105956717Y-34000978D01*
X105946300Y-34000158D01*
X105937344Y-33999876D01*
X105921867Y-33997425D01*
X105906274Y-33998899D01*
X105906271Y-33998899D01*
X105884102Y-34000995D01*
X105860668Y-34002100D01*
X103890217Y-34002100D01*
X103794929Y-33983146D01*
X103714147Y-33929170D01*
X103678479Y-33884126D01*
X103640379Y-33822556D01*
X103640375Y-33822551D01*
X103632766Y-33810255D01*
X103622531Y-33800038D01*
X103613543Y-33788698D01*
X103615614Y-33787056D01*
X103573831Y-33724648D01*
X103554789Y-33629377D01*
X103573655Y-33534072D01*
X103615916Y-33470700D01*
X103614003Y-33469189D01*
X103640781Y-33435283D01*
X103717370Y-33311033D01*
X103729512Y-33284994D01*
X103775735Y-33145634D01*
X103781403Y-33119198D01*
X103789953Y-33035754D01*
X103790600Y-33023085D01*
X103790600Y-32904127D01*
X103786531Y-32883669D01*
X103766073Y-32879600D01*
X101415128Y-32879600D01*
X101394670Y-32883669D01*
X101390601Y-32904127D01*
X101390601Y-33022991D01*
X101391266Y-33035840D01*
X101400045Y-33120468D01*
X101405763Y-33146939D01*
X101452222Y-33286194D01*
X101464411Y-33312215D01*
X101541218Y-33436334D01*
X101568051Y-33470189D01*
X101565895Y-33471898D01*
X101607371Y-33533852D01*
X101626410Y-33629123D01*
X101607541Y-33724428D01*
X101564977Y-33788255D01*
X101566803Y-33789697D01*
X101557836Y-33801051D01*
X101547616Y-33811289D01*
X101540026Y-33823603D01*
X101540024Y-33823605D01*
X101463380Y-33947946D01*
X101455786Y-33960266D01*
X101432341Y-34030949D01*
X101419346Y-34070128D01*
X101400690Y-34126372D01*
X101399304Y-34139900D01*
X101391048Y-34220484D01*
X101390100Y-34229734D01*
X101390100Y-34704341D01*
X101371146Y-34799629D01*
X101317170Y-34880411D01*
X100805353Y-35392228D01*
X100724571Y-35446204D01*
X100629283Y-35465158D01*
X100533995Y-35446204D01*
X100453213Y-35392228D01*
X100399237Y-35311446D01*
X100385466Y-35264197D01*
X100385063Y-35259592D01*
X100323903Y-35031337D01*
X100224035Y-34817171D01*
X100088495Y-34623599D01*
X99921401Y-34456505D01*
X99912503Y-34450275D01*
X99912500Y-34450272D01*
X99801696Y-34372687D01*
X99783679Y-34360071D01*
X99716496Y-34289890D01*
X99681283Y-34199340D01*
X99677500Y-34156102D01*
X99677500Y-33051721D01*
X99696454Y-32956433D01*
X99750430Y-32875651D01*
X99795473Y-32839983D01*
X99859155Y-32800576D01*
X99872745Y-32792166D01*
X99996384Y-32668311D01*
X100088214Y-32519334D01*
X100134563Y-32379600D01*
X100139029Y-32366136D01*
X100139030Y-32366132D01*
X100143310Y-32353228D01*
X100153900Y-32249866D01*
X100153900Y-32243519D01*
X100154225Y-32237157D01*
X100155546Y-32237225D01*
X100172854Y-32150212D01*
X100226830Y-32069430D01*
X100307612Y-32015454D01*
X100402900Y-31996500D01*
X101141600Y-31996500D01*
X101236888Y-32015454D01*
G37*
G04 #@! TD.AperFunction*
G04 #@! TA.AperFunction,Conductor*
G36*
X135831905Y-23369454D02*
G01*
X135912687Y-23423430D01*
X135966663Y-23504212D01*
X135985617Y-23599500D01*
X135966663Y-23694788D01*
X135912687Y-23775570D01*
X135831905Y-23829546D01*
X135819735Y-23834218D01*
X135583842Y-23917752D01*
X135576321Y-23921634D01*
X135576316Y-23921636D01*
X135464589Y-23979303D01*
X135329342Y-24049109D01*
X135095024Y-24213791D01*
X134885224Y-24408749D01*
X134879850Y-24415315D01*
X134709194Y-24623814D01*
X134709189Y-24623821D01*
X134703823Y-24630377D01*
X134688308Y-24655695D01*
X134571845Y-24845747D01*
X134554180Y-24874573D01*
X134439062Y-25136818D01*
X134436742Y-25144961D01*
X134436741Y-25144965D01*
X134423416Y-25191744D01*
X134360600Y-25412261D01*
X134320246Y-25695804D01*
X134319959Y-25750616D01*
X134318901Y-25952834D01*
X134318747Y-25982200D01*
X134356129Y-26266149D01*
X134431702Y-26542398D01*
X134544068Y-26805835D01*
X134548422Y-26813110D01*
X134548423Y-26813112D01*
X134560116Y-26832650D01*
X134691146Y-27051585D01*
X134870215Y-27275100D01*
X135077962Y-27472245D01*
X135310543Y-27639371D01*
X135563653Y-27773386D01*
X135832610Y-27871810D01*
X135840883Y-27873614D01*
X135840887Y-27873615D01*
X136104147Y-27931015D01*
X136104151Y-27931016D01*
X136112436Y-27932822D01*
X136120887Y-27933487D01*
X136120893Y-27933488D01*
X136220698Y-27941343D01*
X136337053Y-27950500D01*
X136491992Y-27950500D01*
X136616517Y-27942011D01*
X136697278Y-27936505D01*
X136697283Y-27936504D01*
X136705737Y-27935928D01*
X136714031Y-27934210D01*
X136714034Y-27934210D01*
X136977890Y-27879568D01*
X136986186Y-27877850D01*
X137256158Y-27782248D01*
X137263679Y-27778366D01*
X137263684Y-27778364D01*
X137375411Y-27720697D01*
X137510658Y-27650891D01*
X137744976Y-27486209D01*
X137954776Y-27291251D01*
X137998855Y-27237397D01*
X138130806Y-27076186D01*
X138130811Y-27076179D01*
X138136177Y-27069623D01*
X138285820Y-26825427D01*
X138400938Y-26563182D01*
X138406859Y-26542398D01*
X138436026Y-26440005D01*
X138480360Y-26353555D01*
X138554403Y-26290652D01*
X138646881Y-26260871D01*
X138743716Y-26268747D01*
X138830166Y-26313081D01*
X138893069Y-26387124D01*
X138922850Y-26479602D01*
X138924500Y-26508221D01*
X138924500Y-61190692D01*
X138905546Y-61285980D01*
X138851570Y-61366762D01*
X138770788Y-61420738D01*
X138675500Y-61439692D01*
X138580212Y-61420738D01*
X138499430Y-61366762D01*
X138445454Y-61285980D01*
X138435325Y-61256396D01*
X138417350Y-61190692D01*
X138408298Y-61157602D01*
X138295932Y-60894165D01*
X138284207Y-60874573D01*
X138153211Y-60655695D01*
X138148854Y-60648415D01*
X137969785Y-60424900D01*
X137762038Y-60227755D01*
X137529457Y-60060629D01*
X137276347Y-59926614D01*
X137007390Y-59828190D01*
X136999117Y-59826386D01*
X136999113Y-59826385D01*
X136735853Y-59768985D01*
X136735849Y-59768984D01*
X136727564Y-59767178D01*
X136719113Y-59766513D01*
X136719107Y-59766512D01*
X136619302Y-59758657D01*
X136502947Y-59749500D01*
X136348008Y-59749500D01*
X136223483Y-59757989D01*
X136142722Y-59763495D01*
X136142717Y-59763496D01*
X136134263Y-59764072D01*
X136125969Y-59765790D01*
X136125966Y-59765790D01*
X135958242Y-59800524D01*
X135853814Y-59822150D01*
X135583842Y-59917752D01*
X135576321Y-59921634D01*
X135576316Y-59921636D01*
X135547489Y-59936515D01*
X135329342Y-60049109D01*
X135095024Y-60213791D01*
X134885224Y-60408749D01*
X134841145Y-60462603D01*
X134709194Y-60623814D01*
X134709189Y-60623821D01*
X134703823Y-60630377D01*
X134688308Y-60655695D01*
X134571669Y-60846034D01*
X134554180Y-60874573D01*
X134439062Y-61136818D01*
X134436742Y-61144961D01*
X134436741Y-61144965D01*
X134419394Y-61205862D01*
X134360600Y-61412261D01*
X134320246Y-61695804D01*
X134320202Y-61704274D01*
X134318971Y-61939476D01*
X134318747Y-61982200D01*
X134356129Y-62266149D01*
X134431702Y-62542398D01*
X134544068Y-62805835D01*
X134548422Y-62813110D01*
X134548423Y-62813112D01*
X134560116Y-62832650D01*
X134691146Y-63051585D01*
X134870215Y-63275100D01*
X134950735Y-63351511D01*
X135063257Y-63458290D01*
X135077962Y-63472245D01*
X135310543Y-63639371D01*
X135563653Y-63773386D01*
X135816138Y-63865782D01*
X135818551Y-63866665D01*
X135901522Y-63917212D01*
X135958834Y-63995662D01*
X135981762Y-64090073D01*
X135966815Y-64186071D01*
X135916268Y-64269042D01*
X135837818Y-64326354D01*
X135743407Y-64349282D01*
X135732980Y-64349500D01*
X118799000Y-64349500D01*
X118703712Y-64330546D01*
X118622930Y-64276570D01*
X118568954Y-64195788D01*
X118550000Y-64100500D01*
X118550000Y-61584000D01*
X118568954Y-61488712D01*
X118622930Y-61407930D01*
X118703712Y-61353954D01*
X118799000Y-61335000D01*
X119235473Y-61335000D01*
X119255931Y-61330931D01*
X119260000Y-61310473D01*
X119260000Y-60534000D01*
X119278954Y-60438712D01*
X119332930Y-60357930D01*
X119413712Y-60303954D01*
X119509000Y-60285000D01*
X119511000Y-60285000D01*
X119606288Y-60303954D01*
X119687070Y-60357930D01*
X119741046Y-60438712D01*
X119760000Y-60534000D01*
X119760000Y-61310473D01*
X119764069Y-61330931D01*
X119784527Y-61335000D01*
X120445745Y-61335000D01*
X120455530Y-61334615D01*
X120474801Y-61333099D01*
X120499713Y-61328549D01*
X120630156Y-61290652D01*
X120658680Y-61278309D01*
X120726749Y-61238053D01*
X120818416Y-61205862D01*
X120915424Y-61211201D01*
X121003005Y-61253257D01*
X121067825Y-61325627D01*
X121100016Y-61417294D01*
X121102500Y-61452378D01*
X121102500Y-61826534D01*
X121102250Y-61831844D01*
X121100320Y-61840477D01*
X121100812Y-61856134D01*
X121102377Y-61905945D01*
X121102500Y-61913765D01*
X121102500Y-61939476D01*
X121103481Y-61947241D01*
X121103622Y-61949476D01*
X121103991Y-61957298D01*
X121105299Y-61998943D01*
X121109670Y-62013988D01*
X121111069Y-62022821D01*
X121113188Y-62033053D01*
X121115420Y-62041746D01*
X121117384Y-62057293D01*
X121123151Y-62071858D01*
X121131347Y-62092560D01*
X121138945Y-62114752D01*
X121145161Y-62136149D01*
X121145163Y-62136154D01*
X121149532Y-62151191D01*
X121157507Y-62164676D01*
X121161063Y-62172893D01*
X121165665Y-62182288D01*
X121169980Y-62190137D01*
X121175747Y-62204703D01*
X121198048Y-62235397D01*
X121210925Y-62255001D01*
X121230237Y-62287656D01*
X121241314Y-62298733D01*
X121246800Y-62305806D01*
X121253598Y-62313765D01*
X121259730Y-62320295D01*
X121268937Y-62332967D01*
X121281007Y-62342952D01*
X121298156Y-62357139D01*
X121315508Y-62372927D01*
X121600770Y-62658189D01*
X121654746Y-62738971D01*
X121673700Y-62834259D01*
X121673700Y-62933066D01*
X121684559Y-63037719D01*
X121688867Y-63050632D01*
X121688868Y-63050636D01*
X121734962Y-63188797D01*
X121739944Y-63203729D01*
X121747554Y-63216026D01*
X121747555Y-63216029D01*
X121780014Y-63268482D01*
X121832034Y-63352545D01*
X121955889Y-63476184D01*
X121968203Y-63483774D01*
X121968205Y-63483776D01*
X121980061Y-63491084D01*
X122104866Y-63568014D01*
X122186269Y-63595015D01*
X122258064Y-63618829D01*
X122258068Y-63618830D01*
X122270972Y-63623110D01*
X122284500Y-63624496D01*
X122368015Y-63633053D01*
X122368023Y-63633053D01*
X122374334Y-63633700D01*
X123174066Y-63633700D01*
X123180462Y-63633036D01*
X123180469Y-63633036D01*
X123265171Y-63624247D01*
X123265173Y-63624247D01*
X123278719Y-63622841D01*
X123291632Y-63618533D01*
X123291636Y-63618532D01*
X123431010Y-63572033D01*
X123444729Y-63567456D01*
X123457026Y-63559846D01*
X123457029Y-63559845D01*
X123576023Y-63486209D01*
X123593545Y-63475366D01*
X123603763Y-63465130D01*
X123615102Y-63456143D01*
X123616804Y-63458290D01*
X123678808Y-63416781D01*
X123774079Y-63397743D01*
X123869384Y-63416613D01*
X123932793Y-63458901D01*
X123934297Y-63456997D01*
X123945650Y-63465963D01*
X123955889Y-63476184D01*
X123968203Y-63483774D01*
X123968205Y-63483776D01*
X123980061Y-63491084D01*
X124104866Y-63568014D01*
X124186269Y-63595015D01*
X124258064Y-63618829D01*
X124258068Y-63618830D01*
X124270972Y-63623110D01*
X124284500Y-63624496D01*
X124368015Y-63633053D01*
X124368023Y-63633053D01*
X124374334Y-63633700D01*
X125174066Y-63633700D01*
X125180462Y-63633036D01*
X125180469Y-63633036D01*
X125265171Y-63624247D01*
X125265173Y-63624247D01*
X125278719Y-63622841D01*
X125291632Y-63618533D01*
X125291636Y-63618532D01*
X125431010Y-63572033D01*
X125444729Y-63567456D01*
X125457026Y-63559846D01*
X125457029Y-63559845D01*
X125576023Y-63486209D01*
X125593545Y-63475366D01*
X125717184Y-63351511D01*
X125754329Y-63291251D01*
X125801420Y-63214854D01*
X125801420Y-63214853D01*
X125809014Y-63202534D01*
X125850923Y-63076186D01*
X125859829Y-63049336D01*
X125859830Y-63049332D01*
X125864110Y-63036428D01*
X125874700Y-62933066D01*
X125874700Y-61933334D01*
X125872670Y-61913765D01*
X125865247Y-61842229D01*
X125865247Y-61842227D01*
X125863841Y-61828681D01*
X125826849Y-61717800D01*
X125813033Y-61676390D01*
X125808456Y-61662671D01*
X125774223Y-61607350D01*
X125723976Y-61526153D01*
X125716366Y-61513855D01*
X125705572Y-61503080D01*
X125702756Y-61500268D01*
X125698931Y-61494554D01*
X125697143Y-61492298D01*
X125697325Y-61492154D01*
X125648712Y-61419533D01*
X125629677Y-61324261D01*
X125648550Y-61228956D01*
X125686532Y-61172060D01*
X125683403Y-61169589D01*
X125710181Y-61135683D01*
X125786770Y-61011433D01*
X125798912Y-60985394D01*
X125845135Y-60846034D01*
X125850803Y-60819598D01*
X125859353Y-60736154D01*
X125860000Y-60723485D01*
X125860000Y-60604527D01*
X125855931Y-60584069D01*
X125835473Y-60580000D01*
X123484528Y-60580000D01*
X123464070Y-60584069D01*
X123460001Y-60604527D01*
X123460001Y-60723391D01*
X123460666Y-60736240D01*
X123469445Y-60820868D01*
X123475162Y-60847336D01*
X123496892Y-60912468D01*
X123509069Y-61008857D01*
X123483433Y-61102568D01*
X123423887Y-61179336D01*
X123339495Y-61227473D01*
X123235312Y-61238975D01*
X123180385Y-61233347D01*
X123180377Y-61233347D01*
X123174066Y-61232700D01*
X122606500Y-61232700D01*
X122511212Y-61213746D01*
X122430430Y-61159770D01*
X122376454Y-61078988D01*
X122357500Y-60983700D01*
X122357500Y-59923466D01*
X122357750Y-59918156D01*
X122359680Y-59909523D01*
X122357623Y-59844054D01*
X122357500Y-59836235D01*
X122357500Y-59810524D01*
X122356519Y-59802759D01*
X122356378Y-59800524D01*
X122356009Y-59792699D01*
X122355193Y-59766718D01*
X122354701Y-59751057D01*
X122350330Y-59736012D01*
X122348931Y-59727179D01*
X122346812Y-59716947D01*
X122344580Y-59708254D01*
X122342616Y-59692707D01*
X122328653Y-59657439D01*
X122321055Y-59635248D01*
X122314839Y-59613851D01*
X122314837Y-59613846D01*
X122310468Y-59598809D01*
X122302493Y-59585324D01*
X122298937Y-59577107D01*
X122294335Y-59567712D01*
X122290020Y-59559863D01*
X122284253Y-59545297D01*
X122261952Y-59514603D01*
X122249075Y-59494999D01*
X122237740Y-59475833D01*
X122229763Y-59462344D01*
X122218686Y-59451267D01*
X122213200Y-59444194D01*
X122206402Y-59436235D01*
X122200270Y-59429705D01*
X122191063Y-59417033D01*
X122161844Y-59392861D01*
X122144492Y-59377073D01*
X121814989Y-59047570D01*
X121761013Y-58966788D01*
X121742059Y-58871500D01*
X121761013Y-58776212D01*
X121814989Y-58695430D01*
X121895771Y-58641454D01*
X121991059Y-58622500D01*
X123225125Y-58622500D01*
X123320413Y-58641454D01*
X123401195Y-58695430D01*
X123455171Y-58776212D01*
X123468514Y-58818937D01*
X123468953Y-58820971D01*
X123470359Y-58834519D01*
X123474668Y-58847435D01*
X123474669Y-58847439D01*
X123514487Y-58966788D01*
X123525744Y-59000529D01*
X123617834Y-59149345D01*
X123628070Y-59159563D01*
X123637057Y-59170902D01*
X123634986Y-59172544D01*
X123676769Y-59234952D01*
X123695811Y-59330223D01*
X123676945Y-59425528D01*
X123634684Y-59488900D01*
X123636597Y-59490411D01*
X123609819Y-59524317D01*
X123533230Y-59648567D01*
X123521088Y-59674606D01*
X123474865Y-59813966D01*
X123469197Y-59840402D01*
X123460647Y-59923846D01*
X123460000Y-59936515D01*
X123460000Y-60055473D01*
X123464069Y-60075931D01*
X123484527Y-60080000D01*
X125835472Y-60080000D01*
X125855930Y-60075931D01*
X125859999Y-60055473D01*
X125859999Y-59936609D01*
X125859334Y-59923760D01*
X125850555Y-59839132D01*
X125844837Y-59812661D01*
X125798378Y-59673406D01*
X125786189Y-59647385D01*
X125709382Y-59523266D01*
X125682549Y-59489411D01*
X125684705Y-59487702D01*
X125643229Y-59425748D01*
X125624190Y-59330477D01*
X125643059Y-59235172D01*
X125685623Y-59171345D01*
X125683797Y-59169903D01*
X125692764Y-59158549D01*
X125702984Y-59148311D01*
X125794814Y-58999334D01*
X125848623Y-58837108D01*
X125896612Y-58752633D01*
X125973276Y-58692952D01*
X126066943Y-58667153D01*
X126084961Y-58666500D01*
X133687534Y-58666500D01*
X133692844Y-58666750D01*
X133701477Y-58668680D01*
X133766946Y-58666623D01*
X133774765Y-58666500D01*
X133800476Y-58666500D01*
X133808241Y-58665519D01*
X133810476Y-58665378D01*
X133818298Y-58665009D01*
X133829544Y-58664656D01*
X133844282Y-58664193D01*
X133859943Y-58663701D01*
X133874988Y-58659330D01*
X133883821Y-58657931D01*
X133894053Y-58655812D01*
X133902746Y-58653580D01*
X133918293Y-58651616D01*
X133953561Y-58637653D01*
X133975752Y-58630055D01*
X133997149Y-58623839D01*
X133997154Y-58623837D01*
X134012191Y-58619468D01*
X134025676Y-58611493D01*
X134033893Y-58607937D01*
X134043288Y-58603335D01*
X134051137Y-58599020D01*
X134065703Y-58593253D01*
X134096397Y-58570952D01*
X134116001Y-58558075D01*
X134135167Y-58546740D01*
X134148656Y-58538763D01*
X134159733Y-58527686D01*
X134166806Y-58522200D01*
X134174765Y-58515402D01*
X134181295Y-58509270D01*
X134193967Y-58500063D01*
X134218139Y-58470844D01*
X134233927Y-58453492D01*
X137491764Y-55195655D01*
X137495693Y-55192080D01*
X137503162Y-55187340D01*
X137513880Y-55175926D01*
X137513883Y-55175924D01*
X137547995Y-55139598D01*
X137553438Y-55133981D01*
X137571623Y-55115796D01*
X137576413Y-55109621D01*
X137577924Y-55107907D01*
X137583188Y-55102122D01*
X137600970Y-55083186D01*
X137600971Y-55083185D01*
X137611693Y-55071767D01*
X137619239Y-55058041D01*
X137624495Y-55050807D01*
X137630250Y-55042045D01*
X137634806Y-55034341D01*
X137644408Y-55021962D01*
X137659474Y-54987147D01*
X137669793Y-54966085D01*
X137680525Y-54946563D01*
X137680527Y-54946559D01*
X137688072Y-54932834D01*
X137691967Y-54917665D01*
X137695265Y-54909335D01*
X137698657Y-54899427D01*
X137701154Y-54890833D01*
X137707374Y-54876459D01*
X137713311Y-54838975D01*
X137718065Y-54816022D01*
X137723604Y-54794450D01*
X137723605Y-54794443D01*
X137727500Y-54779272D01*
X137727500Y-54763603D01*
X137728622Y-54754720D01*
X137729444Y-54744278D01*
X137729725Y-54735337D01*
X137732175Y-54719867D01*
X137728605Y-54682102D01*
X137727500Y-54658668D01*
X137727500Y-44928466D01*
X137727750Y-44923156D01*
X137729680Y-44914523D01*
X137727623Y-44849054D01*
X137727500Y-44841235D01*
X137727500Y-44815524D01*
X137726519Y-44807759D01*
X137726378Y-44805524D01*
X137726009Y-44797699D01*
X137725193Y-44771718D01*
X137724701Y-44756057D01*
X137720330Y-44741012D01*
X137718931Y-44732179D01*
X137716812Y-44721947D01*
X137714580Y-44713254D01*
X137712616Y-44697707D01*
X137698653Y-44662439D01*
X137691055Y-44640248D01*
X137684839Y-44618851D01*
X137684837Y-44618846D01*
X137680468Y-44603809D01*
X137672493Y-44590324D01*
X137668937Y-44582107D01*
X137664335Y-44572712D01*
X137660020Y-44564863D01*
X137654253Y-44550297D01*
X137631952Y-44519603D01*
X137619075Y-44499999D01*
X137607740Y-44480833D01*
X137599763Y-44467344D01*
X137588686Y-44456267D01*
X137583200Y-44449194D01*
X137576402Y-44441235D01*
X137570270Y-44434705D01*
X137561063Y-44422033D01*
X137531844Y-44397861D01*
X137514492Y-44382073D01*
X136731866Y-43599447D01*
X136677890Y-43518665D01*
X136658936Y-43423377D01*
X136667421Y-43358931D01*
X136672248Y-43340917D01*
X136672250Y-43340908D01*
X136675063Y-43330408D01*
X136695659Y-43095000D01*
X136675063Y-42859592D01*
X136613903Y-42631337D01*
X136599856Y-42601212D01*
X136518631Y-42427027D01*
X136514035Y-42417171D01*
X136378495Y-42223599D01*
X136211401Y-42056505D01*
X136202497Y-42050270D01*
X136172075Y-42028968D01*
X136104892Y-41958786D01*
X136069680Y-41868237D01*
X136071800Y-41771105D01*
X136110929Y-41682178D01*
X136172075Y-41621032D01*
X136202497Y-41599730D01*
X136202499Y-41599728D01*
X136211401Y-41593495D01*
X136378495Y-41426401D01*
X136514035Y-41232829D01*
X136576251Y-41099408D01*
X136609307Y-41028520D01*
X136609309Y-41028516D01*
X136613903Y-41018663D01*
X136675063Y-40790408D01*
X136676207Y-40777339D01*
X136694711Y-40565835D01*
X136695659Y-40555000D01*
X136675063Y-40319592D01*
X136613903Y-40091337D01*
X136579120Y-40016744D01*
X136518631Y-39887027D01*
X136514035Y-39877171D01*
X136506640Y-39866609D01*
X136439275Y-39770402D01*
X136378495Y-39683599D01*
X136211401Y-39516505D01*
X136202497Y-39510270D01*
X136171638Y-39488662D01*
X136104455Y-39418480D01*
X136069243Y-39327931D01*
X136071363Y-39230799D01*
X136110492Y-39141872D01*
X136171641Y-39080724D01*
X136202175Y-39059344D01*
X136218761Y-39045427D01*
X136370424Y-38893764D01*
X136384347Y-38877170D01*
X136507365Y-38701482D01*
X136518195Y-38682725D01*
X136608834Y-38488348D01*
X136616246Y-38467985D01*
X136664288Y-38288691D01*
X136665652Y-38267877D01*
X136661825Y-38265989D01*
X136654311Y-38265000D01*
X135339000Y-38265000D01*
X135243712Y-38246046D01*
X135162930Y-38192070D01*
X135108954Y-38111288D01*
X135090000Y-38016000D01*
X135090000Y-37740473D01*
X135590000Y-37740473D01*
X135594069Y-37760931D01*
X135614527Y-37765000D01*
X136646109Y-37765000D01*
X136666567Y-37760931D01*
X136667400Y-37756743D01*
X136666410Y-37749229D01*
X136616246Y-37562015D01*
X136608834Y-37541652D01*
X136518195Y-37347275D01*
X136507365Y-37328518D01*
X136384347Y-37152830D01*
X136370424Y-37136236D01*
X136218761Y-36984573D01*
X136202169Y-36970651D01*
X136171203Y-36948968D01*
X136104019Y-36878787D01*
X136068807Y-36788237D01*
X136070926Y-36691106D01*
X136110056Y-36602179D01*
X136171203Y-36541032D01*
X136202169Y-36519349D01*
X136218761Y-36505427D01*
X136370424Y-36353764D01*
X136384347Y-36337170D01*
X136507365Y-36161482D01*
X136518195Y-36142725D01*
X136608834Y-35948348D01*
X136616246Y-35927985D01*
X136664288Y-35748691D01*
X136665652Y-35727877D01*
X136661825Y-35725989D01*
X136654311Y-35725000D01*
X135614527Y-35725000D01*
X135594069Y-35729069D01*
X135590000Y-35749527D01*
X135590000Y-37740473D01*
X135090000Y-37740473D01*
X135090000Y-35200473D01*
X135590000Y-35200473D01*
X135594069Y-35220931D01*
X135614527Y-35225000D01*
X136646109Y-35225000D01*
X136666567Y-35220931D01*
X136667400Y-35216743D01*
X136666410Y-35209229D01*
X136616246Y-35022015D01*
X136608834Y-35001652D01*
X136518195Y-34807275D01*
X136507365Y-34788518D01*
X136384347Y-34612830D01*
X136370424Y-34596236D01*
X136218761Y-34444573D01*
X136202177Y-34430657D01*
X136026478Y-34307631D01*
X136007732Y-34296808D01*
X135813343Y-34206163D01*
X135792986Y-34198754D01*
X135613691Y-34150712D01*
X135592877Y-34149348D01*
X135590989Y-34153175D01*
X135590000Y-34160689D01*
X135590000Y-35200473D01*
X135090000Y-35200473D01*
X135090000Y-34168891D01*
X135085931Y-34148433D01*
X135081743Y-34147600D01*
X135074229Y-34148590D01*
X134887015Y-34198754D01*
X134866652Y-34206166D01*
X134672275Y-34296805D01*
X134653518Y-34307635D01*
X134477829Y-34430653D01*
X134463348Y-34442804D01*
X134378169Y-34489533D01*
X134281591Y-34500109D01*
X134188318Y-34472921D01*
X134112549Y-34412109D01*
X134095268Y-34386822D01*
X134093526Y-34382176D01*
X134034358Y-34303228D01*
X134018187Y-34281652D01*
X134007546Y-34267454D01*
X133892824Y-34181474D01*
X133802464Y-34147600D01*
X133773196Y-34136628D01*
X133773195Y-34136628D01*
X133758580Y-34131149D01*
X133697377Y-34124500D01*
X133676500Y-34124500D01*
X133581212Y-34105546D01*
X133500430Y-34051570D01*
X133446454Y-33970788D01*
X133427500Y-33875500D01*
X133427500Y-31373465D01*
X133427750Y-31368156D01*
X133429680Y-31359523D01*
X133427623Y-31294068D01*
X133427500Y-31286247D01*
X133427500Y-31260524D01*
X133426520Y-31252769D01*
X133426377Y-31250497D01*
X133426008Y-31242680D01*
X133425192Y-31216717D01*
X133424700Y-31201057D01*
X133420329Y-31186012D01*
X133418930Y-31177177D01*
X133416806Y-31166918D01*
X133414579Y-31158246D01*
X133412616Y-31142707D01*
X133398652Y-31107436D01*
X133391057Y-31085254D01*
X133380468Y-31048809D01*
X133372495Y-31035328D01*
X133368941Y-31027114D01*
X133364335Y-31017712D01*
X133360020Y-31009863D01*
X133354253Y-30995297D01*
X133331952Y-30964603D01*
X133319075Y-30944999D01*
X133307740Y-30925833D01*
X133299763Y-30912344D01*
X133288686Y-30901267D01*
X133283200Y-30894194D01*
X133276402Y-30886235D01*
X133270270Y-30879705D01*
X133261063Y-30867033D01*
X133231844Y-30842861D01*
X133214492Y-30827073D01*
X130845655Y-28458236D01*
X130842080Y-28454307D01*
X130837340Y-28446838D01*
X130825926Y-28436120D01*
X130825924Y-28436117D01*
X130789598Y-28402005D01*
X130783981Y-28396562D01*
X130765796Y-28378377D01*
X130759621Y-28373587D01*
X130757907Y-28372076D01*
X130752122Y-28366812D01*
X130733186Y-28349030D01*
X130733185Y-28349029D01*
X130721767Y-28338307D01*
X130708041Y-28330761D01*
X130700807Y-28325505D01*
X130692054Y-28319756D01*
X130684344Y-28315196D01*
X130671962Y-28305592D01*
X130637144Y-28290525D01*
X130616084Y-28280207D01*
X130596562Y-28269475D01*
X130582834Y-28261928D01*
X130567661Y-28258032D01*
X130559310Y-28254726D01*
X130549447Y-28251349D01*
X130540831Y-28248846D01*
X130526458Y-28242626D01*
X130488993Y-28236693D01*
X130466014Y-28231934D01*
X130444450Y-28226397D01*
X130444449Y-28226397D01*
X130429272Y-28222500D01*
X130413599Y-28222500D01*
X130404717Y-28221378D01*
X130394300Y-28220558D01*
X130385344Y-28220276D01*
X130369867Y-28217825D01*
X130354274Y-28219299D01*
X130354271Y-28219299D01*
X130332102Y-28221395D01*
X130308668Y-28222500D01*
X124473466Y-28222500D01*
X124468156Y-28222250D01*
X124459523Y-28220320D01*
X124401026Y-28222158D01*
X124394056Y-28222377D01*
X124386236Y-28222500D01*
X124360524Y-28222500D01*
X124352747Y-28223483D01*
X124350535Y-28223622D01*
X124342721Y-28223990D01*
X124322461Y-28224627D01*
X124316718Y-28224807D01*
X124316717Y-28224807D01*
X124301058Y-28225299D01*
X124286012Y-28229670D01*
X124277169Y-28231071D01*
X124266937Y-28233190D01*
X124258249Y-28235421D01*
X124242707Y-28237384D01*
X124228143Y-28243150D01*
X124207429Y-28251351D01*
X124185241Y-28258947D01*
X124148809Y-28269532D01*
X124135326Y-28277506D01*
X124127103Y-28281064D01*
X124117712Y-28285665D01*
X124109863Y-28289980D01*
X124095297Y-28295747D01*
X124064603Y-28318048D01*
X124044999Y-28330925D01*
X124012344Y-28350237D01*
X124001267Y-28361314D01*
X123994194Y-28366800D01*
X123986235Y-28373598D01*
X123979705Y-28379730D01*
X123967033Y-28388937D01*
X123957047Y-28401007D01*
X123957048Y-28401007D01*
X123942861Y-28418156D01*
X123927073Y-28435508D01*
X122694548Y-29668033D01*
X122613766Y-29722009D01*
X122518478Y-29740963D01*
X122423190Y-29722009D01*
X122342408Y-29668033D01*
X122288432Y-29587251D01*
X122286486Y-29580836D01*
X122282123Y-29574307D01*
X122260473Y-29570000D01*
X121472027Y-29570000D01*
X121451569Y-29574069D01*
X121447500Y-29594527D01*
X121447500Y-30520472D01*
X121451569Y-30540930D01*
X121472027Y-30544999D01*
X121578392Y-30544999D01*
X121580092Y-30544911D01*
X121580696Y-30544999D01*
X121584834Y-30544999D01*
X121584834Y-30545602D01*
X121676233Y-30558913D01*
X121759697Y-30608641D01*
X121817778Y-30686524D01*
X121841633Y-30780704D01*
X121827631Y-30876845D01*
X121777903Y-30960309D01*
X121769194Y-30969489D01*
X121767239Y-30971448D01*
X121757016Y-30981689D01*
X121749426Y-30994003D01*
X121749424Y-30994005D01*
X121672780Y-31118346D01*
X121665186Y-31130666D01*
X121641838Y-31201057D01*
X121616589Y-31277179D01*
X121610090Y-31296772D01*
X121608704Y-31310300D01*
X121600448Y-31390884D01*
X121599500Y-31400134D01*
X121599500Y-32199866D01*
X121600164Y-32206262D01*
X121600164Y-32206269D01*
X121608953Y-32290971D01*
X121610359Y-32304519D01*
X121614667Y-32317432D01*
X121614668Y-32317436D01*
X121657394Y-32445500D01*
X121665744Y-32470529D01*
X121673354Y-32482826D01*
X121673355Y-32482829D01*
X121714185Y-32548809D01*
X121757834Y-32619345D01*
X121768070Y-32629563D01*
X121777057Y-32640902D01*
X121774910Y-32642604D01*
X121816419Y-32704608D01*
X121835457Y-32799879D01*
X121816587Y-32895184D01*
X121774299Y-32958593D01*
X121776203Y-32960097D01*
X121767236Y-32971451D01*
X121757016Y-32981689D01*
X121749426Y-32994003D01*
X121749424Y-32994005D01*
X121688977Y-33092070D01*
X121665186Y-33130666D01*
X121610090Y-33296772D01*
X121608704Y-33310300D01*
X121606288Y-33333880D01*
X121577720Y-33426740D01*
X121515791Y-33501599D01*
X121429929Y-33547060D01*
X121358585Y-33557500D01*
X121250429Y-33557500D01*
X121155141Y-33538546D01*
X121074359Y-33484570D01*
X121020383Y-33403788D01*
X121001429Y-33308500D01*
X121011316Y-33239032D01*
X121028548Y-33179717D01*
X121028956Y-33177485D01*
X121027920Y-33168737D01*
X121014669Y-33165000D01*
X119509000Y-33165000D01*
X119413712Y-33146046D01*
X119332930Y-33092070D01*
X119278954Y-33011288D01*
X119260000Y-32916000D01*
X119260000Y-32914000D01*
X119278954Y-32818712D01*
X119332930Y-32737930D01*
X119413712Y-32683954D01*
X119509000Y-32665000D01*
X121007769Y-32665000D01*
X121028227Y-32660931D01*
X121029408Y-32654991D01*
X121028549Y-32650286D01*
X120990652Y-32519844D01*
X120978310Y-32491324D01*
X120928585Y-32407243D01*
X120896394Y-32315576D01*
X120901733Y-32218568D01*
X120928585Y-32153740D01*
X120978771Y-32068880D01*
X120978772Y-32068879D01*
X120986744Y-32055398D01*
X121032598Y-31897569D01*
X121035500Y-31860694D01*
X121035500Y-31429306D01*
X121032598Y-31392431D01*
X121025602Y-31368349D01*
X121004021Y-31294068D01*
X120986744Y-31234602D01*
X120972574Y-31210641D01*
X120911055Y-31106618D01*
X120911054Y-31106617D01*
X120903081Y-31093135D01*
X120786865Y-30976919D01*
X120788035Y-30975749D01*
X120736467Y-30916321D01*
X120705720Y-30824160D01*
X120712583Y-30727248D01*
X120756010Y-30640339D01*
X120829390Y-30576664D01*
X120904180Y-30548738D01*
X120943431Y-30540931D01*
X120947500Y-30520473D01*
X120947500Y-29045473D01*
X121447500Y-29045473D01*
X121451569Y-29065931D01*
X121472027Y-29070000D01*
X122260472Y-29070000D01*
X122280930Y-29065931D01*
X122284999Y-29045473D01*
X122284999Y-28801609D01*
X122284334Y-28788760D01*
X122275555Y-28704132D01*
X122269837Y-28677661D01*
X122223378Y-28538406D01*
X122211189Y-28512385D01*
X122134382Y-28388266D01*
X122116536Y-28365750D01*
X122103181Y-28352418D01*
X122049134Y-28271683D01*
X122030097Y-28176412D01*
X122048968Y-28081107D01*
X122102874Y-28000279D01*
X122129867Y-27973239D01*
X122147681Y-27950683D01*
X122224270Y-27826433D01*
X122236412Y-27800394D01*
X122282635Y-27661034D01*
X122288303Y-27634598D01*
X122296853Y-27551154D01*
X122297500Y-27538485D01*
X122297500Y-27294527D01*
X122293431Y-27274069D01*
X122272973Y-27270000D01*
X121484527Y-27270000D01*
X121464069Y-27274069D01*
X121460000Y-27294527D01*
X121460000Y-28222158D01*
X121455216Y-28270735D01*
X121447500Y-28309526D01*
X121447500Y-29045473D01*
X120947500Y-29045473D01*
X120947500Y-28117842D01*
X120952284Y-28069265D01*
X120960000Y-28030474D01*
X120960000Y-27019000D01*
X120978954Y-26923712D01*
X121032930Y-26842930D01*
X121113712Y-26788954D01*
X121209000Y-26770000D01*
X122272972Y-26770000D01*
X122293430Y-26765931D01*
X122297499Y-26745473D01*
X122297499Y-26501609D01*
X122296834Y-26488760D01*
X122288055Y-26404132D01*
X122282339Y-26377667D01*
X122274878Y-26355305D01*
X122262701Y-26258916D01*
X122288336Y-26165204D01*
X122347883Y-26088436D01*
X122432274Y-26040299D01*
X122511079Y-26027500D01*
X127878280Y-26027500D01*
X127973568Y-26046454D01*
X128024638Y-26075054D01*
X128147270Y-26164151D01*
X128159189Y-26169458D01*
X128159193Y-26169460D01*
X128226007Y-26199207D01*
X128320197Y-26241144D01*
X128505354Y-26280500D01*
X128694646Y-26280500D01*
X128879803Y-26241144D01*
X128973993Y-26199207D01*
X129040807Y-26169460D01*
X129040811Y-26169458D01*
X129052730Y-26164151D01*
X129063286Y-26156482D01*
X129195319Y-26060555D01*
X129195322Y-26060552D01*
X129205871Y-26052888D01*
X129214599Y-26043195D01*
X129323799Y-25921917D01*
X129323803Y-25921912D01*
X129332533Y-25912216D01*
X129427179Y-25748284D01*
X129455228Y-25661958D01*
X129481642Y-25580666D01*
X129481643Y-25580664D01*
X129485674Y-25568256D01*
X129505460Y-25380000D01*
X129485674Y-25191744D01*
X129472047Y-25149803D01*
X129431212Y-25024129D01*
X129427179Y-25011716D01*
X129332533Y-24847784D01*
X129323803Y-24838088D01*
X129323799Y-24838083D01*
X129214599Y-24716805D01*
X129214597Y-24716803D01*
X129205871Y-24707112D01*
X129195322Y-24699448D01*
X129195319Y-24699445D01*
X129063286Y-24603518D01*
X129063284Y-24603517D01*
X129052730Y-24595849D01*
X129040811Y-24590542D01*
X129040807Y-24590540D01*
X128973993Y-24560793D01*
X128879803Y-24518856D01*
X128694646Y-24479500D01*
X128505354Y-24479500D01*
X128320197Y-24518856D01*
X128226007Y-24560793D01*
X128159193Y-24590540D01*
X128159189Y-24590542D01*
X128147270Y-24595849D01*
X128136716Y-24603517D01*
X128136714Y-24603518D01*
X128004681Y-24699445D01*
X128004678Y-24699448D01*
X127994129Y-24707112D01*
X127990836Y-24710769D01*
X127911080Y-24758218D01*
X127827964Y-24772500D01*
X119623460Y-24772500D01*
X119618156Y-24772250D01*
X119609523Y-24770320D01*
X119593862Y-24770812D01*
X119593860Y-24770812D01*
X119544068Y-24772377D01*
X119536247Y-24772500D01*
X119510524Y-24772500D01*
X119502769Y-24773480D01*
X119500497Y-24773623D01*
X119492680Y-24773992D01*
X119466717Y-24774808D01*
X119451057Y-24775300D01*
X119436012Y-24779671D01*
X119427177Y-24781070D01*
X119416918Y-24783194D01*
X119408246Y-24785421D01*
X119392707Y-24787384D01*
X119357436Y-24801348D01*
X119335254Y-24808943D01*
X119298809Y-24819532D01*
X119285328Y-24827505D01*
X119277114Y-24831059D01*
X119267712Y-24835665D01*
X119259863Y-24839980D01*
X119245297Y-24845747D01*
X119214603Y-24868048D01*
X119194999Y-24880925D01*
X119162344Y-24900237D01*
X119151267Y-24911314D01*
X119144194Y-24916800D01*
X119136235Y-24923598D01*
X119129705Y-24929730D01*
X119117033Y-24938937D01*
X119107047Y-24951007D01*
X119107048Y-24951007D01*
X119092861Y-24968156D01*
X119077073Y-24985508D01*
X118975070Y-25087511D01*
X118894288Y-25141487D01*
X118799000Y-25160441D01*
X118703712Y-25141487D01*
X118622930Y-25087511D01*
X118568954Y-25006729D01*
X118550000Y-24911441D01*
X118550000Y-23599500D01*
X118568954Y-23504212D01*
X118622930Y-23423430D01*
X118703712Y-23369454D01*
X118799000Y-23350500D01*
X135736617Y-23350500D01*
X135831905Y-23369454D01*
G37*
G04 #@! TD.AperFunction*
G04 #@! TA.AperFunction,Conductor*
G36*
X135436288Y-45403954D02*
G01*
X135517070Y-45457930D01*
X135571046Y-45538712D01*
X135590000Y-45634000D01*
X135590000Y-54561109D01*
X135594069Y-54581567D01*
X135598257Y-54582400D01*
X135605763Y-54581411D01*
X135699069Y-54556410D01*
X135796016Y-54550056D01*
X135888015Y-54581286D01*
X135961060Y-54645344D01*
X136004031Y-54732480D01*
X136010385Y-54829427D01*
X135979155Y-54921426D01*
X135939585Y-54972996D01*
X133574011Y-57338570D01*
X133493229Y-57392546D01*
X133397941Y-57411500D01*
X127727059Y-57411500D01*
X127631771Y-57392546D01*
X127550989Y-57338570D01*
X127497013Y-57257788D01*
X127478059Y-57162500D01*
X127497013Y-57067212D01*
X127550989Y-56986430D01*
X128391764Y-56145655D01*
X128395693Y-56142080D01*
X128403162Y-56137340D01*
X128413880Y-56125926D01*
X128413883Y-56125924D01*
X128447995Y-56089598D01*
X128453438Y-56083981D01*
X128471624Y-56065795D01*
X128476414Y-56059620D01*
X128477925Y-56057906D01*
X128483189Y-56052121D01*
X128500970Y-56033186D01*
X128500971Y-56033185D01*
X128511693Y-56021767D01*
X128519239Y-56008041D01*
X128524495Y-56000807D01*
X128530244Y-55992054D01*
X128534804Y-55984344D01*
X128544408Y-55971962D01*
X128559475Y-55937144D01*
X128569793Y-55916084D01*
X128580525Y-55896562D01*
X128588072Y-55882834D01*
X128591968Y-55867661D01*
X128595274Y-55859310D01*
X128598651Y-55849447D01*
X128601154Y-55840831D01*
X128607374Y-55826458D01*
X128613307Y-55788993D01*
X128618066Y-55766014D01*
X128623603Y-55744450D01*
X128623603Y-55744449D01*
X128627500Y-55729272D01*
X128627500Y-55713599D01*
X128628622Y-55704717D01*
X128629442Y-55694300D01*
X128629724Y-55685344D01*
X128632175Y-55669867D01*
X128628605Y-55632102D01*
X128627500Y-55608668D01*
X128627500Y-55457731D01*
X128646454Y-55362443D01*
X128700430Y-55281661D01*
X128765720Y-55235861D01*
X128770529Y-55234256D01*
X128919345Y-55142166D01*
X129042984Y-55018311D01*
X129070917Y-54972996D01*
X129127220Y-54881654D01*
X129127220Y-54881653D01*
X129134814Y-54869334D01*
X129178753Y-54736865D01*
X129185629Y-54716136D01*
X129185630Y-54716132D01*
X129189910Y-54703228D01*
X129193272Y-54670413D01*
X129199853Y-54606185D01*
X129199853Y-54606177D01*
X129200500Y-54599866D01*
X129200500Y-53800134D01*
X129192047Y-53718663D01*
X129191047Y-53709029D01*
X129191047Y-53709027D01*
X129189641Y-53695481D01*
X129134256Y-53529471D01*
X129116582Y-53500909D01*
X129049776Y-53392953D01*
X129042166Y-53380655D01*
X129031930Y-53370437D01*
X129022943Y-53359098D01*
X129025090Y-53357396D01*
X128983581Y-53295392D01*
X128964543Y-53200121D01*
X128983413Y-53104816D01*
X129025701Y-53041407D01*
X129023797Y-53039903D01*
X129032764Y-53028549D01*
X129042984Y-53018311D01*
X129099978Y-52925850D01*
X129127220Y-52881654D01*
X129127220Y-52881653D01*
X129134814Y-52869334D01*
X129178400Y-52737930D01*
X129185629Y-52716136D01*
X129185630Y-52716132D01*
X129189910Y-52703228D01*
X129200500Y-52599866D01*
X129200500Y-51800134D01*
X129194864Y-51745812D01*
X129191047Y-51709029D01*
X129191047Y-51709027D01*
X129189641Y-51695481D01*
X129155814Y-51594087D01*
X129138833Y-51543190D01*
X129134256Y-51529471D01*
X129075051Y-51433796D01*
X129041027Y-51342795D01*
X129044418Y-51245699D01*
X129084707Y-51157292D01*
X129110719Y-51126700D01*
X131316726Y-48920693D01*
X131397508Y-48866717D01*
X131492796Y-48847763D01*
X131588084Y-48866717D01*
X131668866Y-48920693D01*
X131696764Y-48953940D01*
X131761505Y-49046401D01*
X131928599Y-49213495D01*
X131937501Y-49219728D01*
X131937503Y-49219730D01*
X131967923Y-49241030D01*
X132035108Y-49311211D01*
X132070321Y-49401760D01*
X132068202Y-49498892D01*
X132029074Y-49587819D01*
X131967926Y-49648968D01*
X131928599Y-49676505D01*
X131761505Y-49843599D01*
X131625965Y-50037171D01*
X131621369Y-50047027D01*
X131548526Y-50203239D01*
X131526097Y-50251337D01*
X131464937Y-50479592D01*
X131444341Y-50715000D01*
X131464937Y-50950408D01*
X131526097Y-51178663D01*
X131530691Y-51188516D01*
X131530693Y-51188520D01*
X131602723Y-51342987D01*
X131625965Y-51392829D01*
X131761505Y-51586401D01*
X131928599Y-51753495D01*
X131937501Y-51759728D01*
X131937503Y-51759730D01*
X131967923Y-51781030D01*
X132035108Y-51851211D01*
X132070321Y-51941760D01*
X132068202Y-52038892D01*
X132029074Y-52127819D01*
X131967926Y-52188968D01*
X131928599Y-52216505D01*
X131761505Y-52383599D01*
X131625965Y-52577171D01*
X131621369Y-52587027D01*
X131589677Y-52654991D01*
X131526097Y-52791337D01*
X131464937Y-53019592D01*
X131463989Y-53030425D01*
X131463989Y-53030426D01*
X131463028Y-53041407D01*
X131444341Y-53255000D01*
X131445289Y-53265835D01*
X131463515Y-53474150D01*
X131464937Y-53490408D01*
X131526097Y-53718663D01*
X131530691Y-53728516D01*
X131530693Y-53728520D01*
X131621369Y-53922973D01*
X131625965Y-53932829D01*
X131761505Y-54126401D01*
X131928599Y-54293495D01*
X131937497Y-54299725D01*
X131937500Y-54299728D01*
X132081695Y-54400694D01*
X132122170Y-54429035D01*
X132132015Y-54433626D01*
X132132017Y-54433627D01*
X132140471Y-54437569D01*
X132336337Y-54528903D01*
X132346835Y-54531716D01*
X132346838Y-54531717D01*
X132415282Y-54550056D01*
X132564592Y-54590063D01*
X132575425Y-54591011D01*
X132575426Y-54591011D01*
X132789165Y-54609711D01*
X132800000Y-54610659D01*
X132810835Y-54609711D01*
X133024574Y-54591011D01*
X133024575Y-54591011D01*
X133035408Y-54590063D01*
X133184718Y-54550056D01*
X133253162Y-54531717D01*
X133253165Y-54531716D01*
X133263663Y-54528903D01*
X133459529Y-54437569D01*
X133467983Y-54433627D01*
X133467985Y-54433626D01*
X133477830Y-54429035D01*
X133518305Y-54400694D01*
X133662500Y-54299728D01*
X133662503Y-54299725D01*
X133671401Y-54293495D01*
X133838495Y-54126401D01*
X133866338Y-54086637D01*
X133936520Y-54019454D01*
X134027069Y-53984242D01*
X134124201Y-53986362D01*
X134213128Y-54025491D01*
X134274276Y-54086640D01*
X134295655Y-54117173D01*
X134309576Y-54133764D01*
X134461239Y-54285427D01*
X134477823Y-54299343D01*
X134653522Y-54422369D01*
X134672268Y-54433192D01*
X134866657Y-54523837D01*
X134887014Y-54531246D01*
X135066309Y-54579288D01*
X135087123Y-54580652D01*
X135089011Y-54576825D01*
X135090000Y-54569311D01*
X135090000Y-45634000D01*
X135108954Y-45538712D01*
X135162930Y-45457930D01*
X135243712Y-45403954D01*
X135339000Y-45385000D01*
X135341000Y-45385000D01*
X135436288Y-45403954D01*
G37*
G04 #@! TD.AperFunction*
G04 #@! TA.AperFunction,Conductor*
G36*
X122698846Y-38641454D02*
G01*
X122779628Y-38695430D01*
X122833604Y-38776212D01*
X122839760Y-38792698D01*
X122874725Y-38897500D01*
X122885744Y-38930529D01*
X122893354Y-38942826D01*
X122893355Y-38942829D01*
X122910435Y-38970430D01*
X122977834Y-39079345D01*
X122988070Y-39089563D01*
X122997057Y-39100902D01*
X122994986Y-39102544D01*
X123036769Y-39164952D01*
X123055811Y-39260223D01*
X123036945Y-39355528D01*
X122994684Y-39418900D01*
X122996597Y-39420411D01*
X122969819Y-39454317D01*
X122893230Y-39578567D01*
X122881088Y-39604606D01*
X122834865Y-39743966D01*
X122829197Y-39770402D01*
X122820647Y-39853846D01*
X122820000Y-39866515D01*
X122820000Y-39985473D01*
X122824069Y-40005931D01*
X122844527Y-40010000D01*
X125195472Y-40010000D01*
X125215930Y-40005931D01*
X125219999Y-39985473D01*
X125219999Y-39866609D01*
X125219334Y-39853760D01*
X125210555Y-39769132D01*
X125204837Y-39742661D01*
X125158378Y-39603406D01*
X125146189Y-39577385D01*
X125069382Y-39453266D01*
X125042549Y-39419411D01*
X125044705Y-39417702D01*
X125003229Y-39355748D01*
X124984190Y-39260477D01*
X125003059Y-39165172D01*
X125045623Y-39101345D01*
X125043797Y-39099903D01*
X125052763Y-39088550D01*
X125062984Y-39078311D01*
X125101490Y-39015842D01*
X125167626Y-38944672D01*
X125255963Y-38904228D01*
X125313456Y-38897500D01*
X126356941Y-38897500D01*
X126452229Y-38916454D01*
X126533011Y-38970430D01*
X129774345Y-42211764D01*
X129777920Y-42215693D01*
X129782660Y-42223162D01*
X129794074Y-42233880D01*
X129794076Y-42233883D01*
X129830402Y-42267995D01*
X129836019Y-42273438D01*
X129854204Y-42291623D01*
X129860379Y-42296413D01*
X129862093Y-42297924D01*
X129867878Y-42303188D01*
X129898233Y-42331693D01*
X129911959Y-42339239D01*
X129919193Y-42344495D01*
X129927955Y-42350250D01*
X129935659Y-42354806D01*
X129948038Y-42364408D01*
X129962414Y-42370629D01*
X129982853Y-42379474D01*
X130003915Y-42389793D01*
X130023437Y-42400525D01*
X130023441Y-42400527D01*
X130037166Y-42408072D01*
X130052335Y-42411967D01*
X130060665Y-42415265D01*
X130070573Y-42418657D01*
X130079167Y-42421154D01*
X130093541Y-42427374D01*
X130131025Y-42433311D01*
X130153978Y-42438065D01*
X130175550Y-42443604D01*
X130175557Y-42443605D01*
X130190728Y-42447500D01*
X130206397Y-42447500D01*
X130215280Y-42448622D01*
X130225722Y-42449444D01*
X130234663Y-42449725D01*
X130250133Y-42452175D01*
X130265726Y-42450701D01*
X130287898Y-42448605D01*
X130311332Y-42447500D01*
X131250853Y-42447500D01*
X131346141Y-42466454D01*
X131426923Y-42520430D01*
X131480899Y-42601212D01*
X131499853Y-42696500D01*
X131491369Y-42760945D01*
X131464937Y-42859592D01*
X131463989Y-42870426D01*
X131463989Y-42870427D01*
X131460558Y-42909639D01*
X131433370Y-43002913D01*
X131388576Y-43064005D01*
X123426011Y-51026570D01*
X123345229Y-51080546D01*
X123249941Y-51099500D01*
X123100134Y-51099500D01*
X123093738Y-51100164D01*
X123093731Y-51100164D01*
X123009029Y-51108953D01*
X123009027Y-51108953D01*
X122995481Y-51110359D01*
X122982568Y-51114667D01*
X122982564Y-51114668D01*
X122854805Y-51157292D01*
X122829471Y-51165744D01*
X122817174Y-51173354D01*
X122817171Y-51173355D01*
X122792665Y-51188520D01*
X122680655Y-51257834D01*
X122670437Y-51268070D01*
X122595651Y-51342987D01*
X122557016Y-51381689D01*
X122549426Y-51394003D01*
X122549424Y-51394005D01*
X122496753Y-51479454D01*
X122465186Y-51530666D01*
X122460630Y-51544403D01*
X122414803Y-51682564D01*
X122410090Y-51696772D01*
X122408704Y-51710300D01*
X122403640Y-51759730D01*
X122399500Y-51800134D01*
X122399500Y-52599866D01*
X122400164Y-52606262D01*
X122400164Y-52606269D01*
X122405220Y-52654991D01*
X122410359Y-52704519D01*
X122414667Y-52717432D01*
X122414668Y-52717436D01*
X122460762Y-52855597D01*
X122465744Y-52870529D01*
X122473354Y-52882826D01*
X122473355Y-52882829D01*
X122525183Y-52966581D01*
X122557834Y-53019345D01*
X122568070Y-53029563D01*
X122577057Y-53040902D01*
X122574910Y-53042604D01*
X122616419Y-53104608D01*
X122635457Y-53199879D01*
X122616587Y-53295184D01*
X122574299Y-53358593D01*
X122576203Y-53360097D01*
X122567237Y-53371450D01*
X122557016Y-53381689D01*
X122521591Y-53439159D01*
X122455459Y-53510326D01*
X122367123Y-53550771D01*
X122309627Y-53557500D01*
X121250429Y-53557500D01*
X121155141Y-53538546D01*
X121074359Y-53484570D01*
X121020383Y-53403788D01*
X121001429Y-53308500D01*
X121011316Y-53239032D01*
X121028548Y-53179717D01*
X121028956Y-53177485D01*
X121027920Y-53168737D01*
X121014669Y-53165000D01*
X119509000Y-53165000D01*
X119413712Y-53146046D01*
X119332930Y-53092070D01*
X119278954Y-53011288D01*
X119260000Y-52916000D01*
X119260000Y-52914000D01*
X119278954Y-52818712D01*
X119332930Y-52737930D01*
X119413712Y-52683954D01*
X119509000Y-52665000D01*
X121007769Y-52665000D01*
X121028227Y-52660931D01*
X121029408Y-52654991D01*
X121028549Y-52650286D01*
X120990652Y-52519844D01*
X120978310Y-52491324D01*
X120928585Y-52407243D01*
X120896394Y-52315576D01*
X120901733Y-52218568D01*
X120928585Y-52153740D01*
X120978771Y-52068880D01*
X120978772Y-52068879D01*
X120986744Y-52055398D01*
X121032598Y-51897569D01*
X121035500Y-51860694D01*
X121035500Y-51429306D01*
X121032598Y-51392431D01*
X121026503Y-51371450D01*
X120996467Y-51268070D01*
X120986744Y-51234602D01*
X120950523Y-51173355D01*
X120911055Y-51106618D01*
X120911054Y-51106617D01*
X120903081Y-51093135D01*
X120786865Y-50976919D01*
X120759794Y-50960909D01*
X120721606Y-50938325D01*
X120649236Y-50873505D01*
X120607180Y-50785924D01*
X120601841Y-50688916D01*
X120634032Y-50597249D01*
X120698852Y-50524879D01*
X120786433Y-50482823D01*
X120848357Y-50475000D01*
X120900473Y-50475000D01*
X120920931Y-50470931D01*
X120925000Y-50450473D01*
X120925000Y-50450472D01*
X121425000Y-50450472D01*
X121429069Y-50470930D01*
X121449527Y-50474999D01*
X121555891Y-50474999D01*
X121568740Y-50474334D01*
X121653368Y-50465555D01*
X121679839Y-50459837D01*
X121819094Y-50413378D01*
X121845115Y-50401189D01*
X121969234Y-50324382D01*
X121991750Y-50306536D01*
X122094866Y-50203239D01*
X122112681Y-50180683D01*
X122189270Y-50056433D01*
X122201412Y-50030394D01*
X122247635Y-49891034D01*
X122253303Y-49864598D01*
X122261853Y-49781154D01*
X122262500Y-49768485D01*
X122262500Y-49524527D01*
X122258431Y-49504069D01*
X122237973Y-49500000D01*
X121449527Y-49500000D01*
X121429069Y-49504069D01*
X121425000Y-49524527D01*
X121425000Y-50450472D01*
X120925000Y-50450472D01*
X120925000Y-48189526D01*
X120917284Y-48150735D01*
X120912500Y-48102158D01*
X120912500Y-47960474D01*
X121412500Y-47960474D01*
X121420216Y-47999265D01*
X121425000Y-48047842D01*
X121425000Y-48975473D01*
X121429069Y-48995931D01*
X121449527Y-49000000D01*
X122237972Y-49000000D01*
X122258430Y-48995931D01*
X122262499Y-48975473D01*
X122262499Y-48731609D01*
X122261834Y-48718760D01*
X122253055Y-48634132D01*
X122247337Y-48607661D01*
X122200878Y-48468406D01*
X122188689Y-48442385D01*
X122111882Y-48318266D01*
X122094037Y-48295751D01*
X122043160Y-48244963D01*
X121989113Y-48164229D01*
X121970075Y-48068957D01*
X121988946Y-47973652D01*
X122042852Y-47892823D01*
X122082366Y-47853239D01*
X122100181Y-47830683D01*
X122176770Y-47706433D01*
X122188912Y-47680394D01*
X122235135Y-47541034D01*
X122240803Y-47514598D01*
X122249353Y-47431154D01*
X122250000Y-47418485D01*
X122250000Y-47174527D01*
X122245931Y-47154069D01*
X122225473Y-47150000D01*
X121437027Y-47150000D01*
X121416569Y-47154069D01*
X121412500Y-47174527D01*
X121412500Y-47960474D01*
X120912500Y-47960474D01*
X120912500Y-46899000D01*
X120931454Y-46803712D01*
X120985430Y-46722930D01*
X121066212Y-46668954D01*
X121161500Y-46650000D01*
X122225472Y-46650000D01*
X122245930Y-46645931D01*
X122249999Y-46625473D01*
X122249999Y-46381609D01*
X122249334Y-46368760D01*
X122240555Y-46284132D01*
X122234837Y-46257661D01*
X122188380Y-46118413D01*
X122176066Y-46092124D01*
X122152810Y-45997793D01*
X122167423Y-45901744D01*
X122217680Y-45818597D01*
X122295930Y-45761012D01*
X122390261Y-45737756D01*
X122401554Y-45737500D01*
X126291934Y-45737500D01*
X126297244Y-45737750D01*
X126305877Y-45739680D01*
X126371346Y-45737623D01*
X126379165Y-45737500D01*
X126404876Y-45737500D01*
X126412641Y-45736519D01*
X126414876Y-45736378D01*
X126422698Y-45736009D01*
X126433944Y-45735656D01*
X126448682Y-45735193D01*
X126464343Y-45734701D01*
X126479388Y-45730330D01*
X126488221Y-45728931D01*
X126498453Y-45726812D01*
X126507146Y-45724580D01*
X126522693Y-45722616D01*
X126557961Y-45708653D01*
X126580152Y-45701055D01*
X126601549Y-45694839D01*
X126601554Y-45694837D01*
X126616591Y-45690468D01*
X126630076Y-45682493D01*
X126638293Y-45678937D01*
X126647688Y-45674335D01*
X126655537Y-45670020D01*
X126670103Y-45664253D01*
X126700797Y-45641952D01*
X126720401Y-45629075D01*
X126739567Y-45617740D01*
X126753056Y-45609763D01*
X126764133Y-45598686D01*
X126771206Y-45593200D01*
X126779165Y-45586402D01*
X126785695Y-45580270D01*
X126798367Y-45571063D01*
X126822539Y-45541844D01*
X126838327Y-45524492D01*
X127015589Y-45347230D01*
X127096371Y-45293254D01*
X127170519Y-45278505D01*
X127170220Y-45275664D01*
X127183197Y-45274300D01*
X127196246Y-45274300D01*
X127381403Y-45234944D01*
X127475593Y-45193007D01*
X127542407Y-45163260D01*
X127542411Y-45163258D01*
X127554330Y-45157951D01*
X127564886Y-45150282D01*
X127696919Y-45054355D01*
X127696922Y-45054352D01*
X127707471Y-45046688D01*
X127716199Y-45036995D01*
X127825399Y-44915717D01*
X127825403Y-44915712D01*
X127834133Y-44906016D01*
X127928779Y-44742084D01*
X127968820Y-44618851D01*
X127983242Y-44574466D01*
X127983243Y-44574464D01*
X127987274Y-44562056D01*
X128007060Y-44373800D01*
X127987274Y-44185544D01*
X127928779Y-44005516D01*
X127834133Y-43841584D01*
X127825403Y-43831888D01*
X127825399Y-43831883D01*
X127716199Y-43710605D01*
X127716197Y-43710603D01*
X127707471Y-43700912D01*
X127696922Y-43693248D01*
X127696919Y-43693245D01*
X127564886Y-43597318D01*
X127564884Y-43597317D01*
X127554330Y-43589649D01*
X127542411Y-43584342D01*
X127542407Y-43584340D01*
X127464716Y-43549750D01*
X127381403Y-43512656D01*
X127196246Y-43473300D01*
X127006954Y-43473300D01*
X126821797Y-43512656D01*
X126738484Y-43549750D01*
X126660793Y-43584340D01*
X126660789Y-43584342D01*
X126648870Y-43589649D01*
X126638316Y-43597317D01*
X126638314Y-43597318D01*
X126506281Y-43693245D01*
X126506278Y-43693248D01*
X126495729Y-43700912D01*
X126487003Y-43710603D01*
X126487001Y-43710605D01*
X126377801Y-43831883D01*
X126377797Y-43831888D01*
X126369067Y-43841584D01*
X126274421Y-44005516D01*
X126215926Y-44185544D01*
X126214562Y-44198522D01*
X126208150Y-44259528D01*
X126179339Y-44352313D01*
X126117215Y-44427009D01*
X126031234Y-44472246D01*
X125960514Y-44482500D01*
X119964000Y-44482500D01*
X119868712Y-44463546D01*
X119787930Y-44409570D01*
X119733954Y-44328788D01*
X119715000Y-44233500D01*
X119715000Y-44070700D01*
X119733954Y-43975412D01*
X119787930Y-43894630D01*
X119868712Y-43840654D01*
X119960813Y-43822334D01*
X119960797Y-43822033D01*
X119962864Y-43821926D01*
X119964000Y-43821700D01*
X119973666Y-43821700D01*
X119980062Y-43821036D01*
X119980069Y-43821036D01*
X120064771Y-43812247D01*
X120064773Y-43812247D01*
X120078319Y-43810841D01*
X120091232Y-43806533D01*
X120091236Y-43806532D01*
X120230610Y-43760033D01*
X120244329Y-43755456D01*
X120256626Y-43747846D01*
X120256629Y-43747845D01*
X120344861Y-43693245D01*
X120393145Y-43663366D01*
X120403363Y-43653130D01*
X120414702Y-43644143D01*
X120416404Y-43646290D01*
X120478408Y-43604781D01*
X120573679Y-43585743D01*
X120668984Y-43604613D01*
X120732393Y-43646901D01*
X120733897Y-43644997D01*
X120745251Y-43653964D01*
X120755489Y-43664184D01*
X120767803Y-43671774D01*
X120767805Y-43671776D01*
X120802635Y-43693245D01*
X120904466Y-43756014D01*
X120955161Y-43772829D01*
X121057664Y-43806829D01*
X121057668Y-43806830D01*
X121070572Y-43811110D01*
X121084100Y-43812496D01*
X121167615Y-43821053D01*
X121167623Y-43821053D01*
X121173934Y-43821700D01*
X121973666Y-43821700D01*
X121980062Y-43821036D01*
X121980069Y-43821036D01*
X122064771Y-43812247D01*
X122064773Y-43812247D01*
X122078319Y-43810841D01*
X122091232Y-43806533D01*
X122091236Y-43806532D01*
X122230610Y-43760033D01*
X122244329Y-43755456D01*
X122256626Y-43747846D01*
X122256629Y-43747845D01*
X122344861Y-43693245D01*
X122393145Y-43663366D01*
X122516784Y-43539511D01*
X122530065Y-43517966D01*
X122601020Y-43402854D01*
X122601020Y-43402853D01*
X122608614Y-43390534D01*
X122663710Y-43224428D01*
X122674300Y-43121066D01*
X122674300Y-42121334D01*
X122668371Y-42064188D01*
X122664847Y-42030229D01*
X122664847Y-42030227D01*
X122663441Y-42016681D01*
X122608056Y-41850671D01*
X122592171Y-41825000D01*
X122523576Y-41714153D01*
X122515966Y-41701855D01*
X122392111Y-41578216D01*
X122385566Y-41574181D01*
X122325142Y-41503310D01*
X122295201Y-41410884D01*
X122293500Y-41381833D01*
X122293500Y-40653391D01*
X122820001Y-40653391D01*
X122820666Y-40666240D01*
X122829445Y-40750868D01*
X122835163Y-40777339D01*
X122881622Y-40916594D01*
X122893811Y-40942615D01*
X122970618Y-41066734D01*
X122988464Y-41089250D01*
X123091761Y-41192366D01*
X123114317Y-41210181D01*
X123238567Y-41286770D01*
X123264606Y-41298912D01*
X123403966Y-41345135D01*
X123430402Y-41350803D01*
X123513846Y-41359353D01*
X123526515Y-41360000D01*
X123745473Y-41360000D01*
X123765931Y-41355931D01*
X123770000Y-41335473D01*
X123770000Y-41335472D01*
X124270000Y-41335472D01*
X124274069Y-41355930D01*
X124294527Y-41359999D01*
X124513391Y-41359999D01*
X124526240Y-41359334D01*
X124610868Y-41350555D01*
X124637339Y-41344837D01*
X124776594Y-41298378D01*
X124802615Y-41286189D01*
X124926734Y-41209382D01*
X124949250Y-41191536D01*
X125052366Y-41088239D01*
X125070181Y-41065683D01*
X125146770Y-40941433D01*
X125158912Y-40915394D01*
X125205135Y-40776034D01*
X125210803Y-40749598D01*
X125219353Y-40666154D01*
X125220000Y-40653485D01*
X125220000Y-40534527D01*
X125215931Y-40514069D01*
X125195473Y-40510000D01*
X124294527Y-40510000D01*
X124274069Y-40514069D01*
X124270000Y-40534527D01*
X124270000Y-41335472D01*
X123770000Y-41335472D01*
X123770000Y-40534527D01*
X123765931Y-40514069D01*
X123745473Y-40510000D01*
X122844528Y-40510000D01*
X122824070Y-40514069D01*
X122820001Y-40534527D01*
X122820001Y-40653391D01*
X122293500Y-40653391D01*
X122293500Y-39646666D01*
X122293750Y-39641356D01*
X122295680Y-39632723D01*
X122293623Y-39567255D01*
X122293500Y-39559436D01*
X122293500Y-39533724D01*
X122292517Y-39525947D01*
X122292378Y-39523735D01*
X122292009Y-39515905D01*
X122291193Y-39489918D01*
X122291193Y-39489917D01*
X122290701Y-39474258D01*
X122286330Y-39459212D01*
X122284929Y-39450369D01*
X122282810Y-39440137D01*
X122280579Y-39431449D01*
X122278616Y-39415907D01*
X122264649Y-39380629D01*
X122257053Y-39358441D01*
X122250839Y-39337054D01*
X122246468Y-39322009D01*
X122238494Y-39308526D01*
X122234936Y-39300303D01*
X122230335Y-39290912D01*
X122226020Y-39283064D01*
X122220253Y-39268497D01*
X122197952Y-39237802D01*
X122185079Y-39218205D01*
X122173738Y-39199028D01*
X122173737Y-39199027D01*
X122165764Y-39185545D01*
X122154688Y-39174469D01*
X122149210Y-39167407D01*
X122142402Y-39159435D01*
X122136270Y-39152905D01*
X122127063Y-39140233D01*
X122097844Y-39116061D01*
X122080492Y-39100273D01*
X122027789Y-39047570D01*
X121973813Y-38966788D01*
X121954859Y-38871500D01*
X121973813Y-38776212D01*
X122027789Y-38695430D01*
X122108571Y-38641454D01*
X122203859Y-38622500D01*
X122603558Y-38622500D01*
X122698846Y-38641454D01*
G37*
G04 #@! TD.AperFunction*
M02*
