%FSLAX45Y45*%
G04 Gerber Fmt 4.5, Leading zero omitted, Abs format (unit mm)*
G04 Created by KiCad (PCBNEW (6.0.6)) date 2024-05-02 18:04:45*
%MOMM*%
%LPD*%
G01*
G04 APERTURE LIST*
%TA.AperFunction,Profile*%
%ADD10C,0.100000*%
%TD*%
%ADD11C,0.200000*%
%ADD12C,0.320000*%
G04 APERTURE END LIST*
D10*
X9237500Y-2285000D02*
X13942500Y-2285000D01*
X13942500Y-2285000D02*
X13942500Y-6485000D01*
X13942500Y-6485000D02*
X9237500Y-6485000D01*
X9237500Y-6485000D02*
X9237500Y-2285000D01*
D11*
D12*
X13482000Y-2425000D02*
X13802000Y-2745000D01*
X13802000Y-2425000D02*
X13482000Y-2745000D01*
X13482000Y-6025000D02*
X13802000Y-6345000D01*
X13802000Y-6025000D02*
X13482000Y-6345000D01*
D11*
X9490119Y-6800476D02*
X9490119Y-6600476D01*
X9537738Y-6600476D01*
X9566310Y-6610000D01*
X9585357Y-6629048D01*
X9594881Y-6648095D01*
X9604405Y-6686190D01*
X9604405Y-6714762D01*
X9594881Y-6752857D01*
X9585357Y-6771905D01*
X9566310Y-6790952D01*
X9537738Y-6800476D01*
X9490119Y-6800476D01*
X9690119Y-6800476D02*
X9690119Y-6667143D01*
X9690119Y-6705238D02*
X9699643Y-6686190D01*
X9709167Y-6676667D01*
X9728214Y-6667143D01*
X9747262Y-6667143D01*
X9813929Y-6800476D02*
X9813929Y-6667143D01*
X9813929Y-6600476D02*
X9804405Y-6610000D01*
X9813929Y-6619524D01*
X9823452Y-6610000D01*
X9813929Y-6600476D01*
X9813929Y-6619524D01*
X9937738Y-6800476D02*
X9918690Y-6790952D01*
X9909167Y-6771905D01*
X9909167Y-6600476D01*
X10042500Y-6800476D02*
X10023452Y-6790952D01*
X10013929Y-6771905D01*
X10013929Y-6600476D01*
X10271071Y-6800476D02*
X10271071Y-6600476D01*
X10337738Y-6743333D01*
X10404405Y-6600476D01*
X10404405Y-6800476D01*
X10585357Y-6800476D02*
X10585357Y-6695714D01*
X10575833Y-6676667D01*
X10556786Y-6667143D01*
X10518690Y-6667143D01*
X10499643Y-6676667D01*
X10585357Y-6790952D02*
X10566310Y-6800476D01*
X10518690Y-6800476D01*
X10499643Y-6790952D01*
X10490119Y-6771905D01*
X10490119Y-6752857D01*
X10499643Y-6733809D01*
X10518690Y-6724286D01*
X10566310Y-6724286D01*
X10585357Y-6714762D01*
X10680595Y-6667143D02*
X10680595Y-6867143D01*
X10680595Y-6676667D02*
X10699643Y-6667143D01*
X10737738Y-6667143D01*
X10756786Y-6676667D01*
X10766310Y-6686190D01*
X10775833Y-6705238D01*
X10775833Y-6762381D01*
X10766310Y-6781428D01*
X10756786Y-6790952D01*
X10737738Y-6800476D01*
X10699643Y-6800476D01*
X10680595Y-6790952D01*
X10861548Y-6781428D02*
X10871071Y-6790952D01*
X10861548Y-6800476D01*
X10852024Y-6790952D01*
X10861548Y-6781428D01*
X10861548Y-6800476D01*
X10861548Y-6676667D02*
X10871071Y-6686190D01*
X10861548Y-6695714D01*
X10852024Y-6686190D01*
X10861548Y-6676667D01*
X10861548Y-6695714D01*
X9032500Y-7030000D02*
X9232500Y-7230000D01*
X9232500Y-7030000D02*
X9032500Y-7230000D01*
X9471071Y-7020476D02*
X9594881Y-7020476D01*
X9528214Y-7096667D01*
X9556786Y-7096667D01*
X9575833Y-7106190D01*
X9585357Y-7115714D01*
X9594881Y-7134762D01*
X9594881Y-7182381D01*
X9585357Y-7201428D01*
X9575833Y-7210952D01*
X9556786Y-7220476D01*
X9499643Y-7220476D01*
X9480595Y-7210952D01*
X9471071Y-7201428D01*
X9680595Y-7201428D02*
X9690119Y-7210952D01*
X9680595Y-7220476D01*
X9671071Y-7210952D01*
X9680595Y-7201428D01*
X9680595Y-7220476D01*
X9766310Y-7039524D02*
X9775833Y-7030000D01*
X9794881Y-7020476D01*
X9842500Y-7020476D01*
X9861548Y-7030000D01*
X9871071Y-7039524D01*
X9880595Y-7058571D01*
X9880595Y-7077619D01*
X9871071Y-7106190D01*
X9756786Y-7220476D01*
X9880595Y-7220476D01*
X10004405Y-7020476D02*
X10023452Y-7020476D01*
X10042500Y-7030000D01*
X10052024Y-7039524D01*
X10061548Y-7058571D01*
X10071071Y-7096667D01*
X10071071Y-7144286D01*
X10061548Y-7182381D01*
X10052024Y-7201428D01*
X10042500Y-7210952D01*
X10023452Y-7220476D01*
X10004405Y-7220476D01*
X9985357Y-7210952D01*
X9975833Y-7201428D01*
X9966310Y-7182381D01*
X9956786Y-7144286D01*
X9956786Y-7096667D01*
X9966310Y-7058571D01*
X9975833Y-7039524D01*
X9985357Y-7030000D01*
X10004405Y-7020476D01*
X10194881Y-7020476D02*
X10213929Y-7020476D01*
X10232976Y-7030000D01*
X10242500Y-7039524D01*
X10252024Y-7058571D01*
X10261548Y-7096667D01*
X10261548Y-7144286D01*
X10252024Y-7182381D01*
X10242500Y-7201428D01*
X10232976Y-7210952D01*
X10213929Y-7220476D01*
X10194881Y-7220476D01*
X10175833Y-7210952D01*
X10166310Y-7201428D01*
X10156786Y-7182381D01*
X10147262Y-7144286D01*
X10147262Y-7096667D01*
X10156786Y-7058571D01*
X10166310Y-7039524D01*
X10175833Y-7030000D01*
X10194881Y-7020476D01*
X10347262Y-7220476D02*
X10347262Y-7087143D01*
X10347262Y-7106190D02*
X10356786Y-7096667D01*
X10375833Y-7087143D01*
X10404405Y-7087143D01*
X10423452Y-7096667D01*
X10432976Y-7115714D01*
X10432976Y-7220476D01*
X10432976Y-7115714D02*
X10442500Y-7096667D01*
X10461548Y-7087143D01*
X10490119Y-7087143D01*
X10509167Y-7096667D01*
X10518690Y-7115714D01*
X10518690Y-7220476D01*
X10613929Y-7220476D02*
X10613929Y-7087143D01*
X10613929Y-7106190D02*
X10623452Y-7096667D01*
X10642500Y-7087143D01*
X10671071Y-7087143D01*
X10690119Y-7096667D01*
X10699643Y-7115714D01*
X10699643Y-7220476D01*
X10699643Y-7115714D02*
X10709167Y-7096667D01*
X10728214Y-7087143D01*
X10756786Y-7087143D01*
X10775833Y-7096667D01*
X10785357Y-7115714D01*
X10785357Y-7220476D01*
X11175833Y-7010952D02*
X11004405Y-7268095D01*
X11432976Y-7020476D02*
X11452024Y-7020476D01*
X11471071Y-7030000D01*
X11480595Y-7039524D01*
X11490119Y-7058571D01*
X11499643Y-7096667D01*
X11499643Y-7144286D01*
X11490119Y-7182381D01*
X11480595Y-7201428D01*
X11471071Y-7210952D01*
X11452024Y-7220476D01*
X11432976Y-7220476D01*
X11413928Y-7210952D01*
X11404405Y-7201428D01*
X11394881Y-7182381D01*
X11385357Y-7144286D01*
X11385357Y-7096667D01*
X11394881Y-7058571D01*
X11404405Y-7039524D01*
X11413928Y-7030000D01*
X11432976Y-7020476D01*
X11585357Y-7201428D02*
X11594881Y-7210952D01*
X11585357Y-7220476D01*
X11575833Y-7210952D01*
X11585357Y-7201428D01*
X11585357Y-7220476D01*
X11785357Y-7220476D02*
X11671071Y-7220476D01*
X11728214Y-7220476D02*
X11728214Y-7020476D01*
X11709167Y-7049048D01*
X11690119Y-7068095D01*
X11671071Y-7077619D01*
X11861548Y-7039524D02*
X11871071Y-7030000D01*
X11890119Y-7020476D01*
X11937738Y-7020476D01*
X11956786Y-7030000D01*
X11966309Y-7039524D01*
X11975833Y-7058571D01*
X11975833Y-7077619D01*
X11966309Y-7106190D01*
X11852024Y-7220476D01*
X11975833Y-7220476D01*
X12147262Y-7020476D02*
X12109167Y-7020476D01*
X12090119Y-7030000D01*
X12080595Y-7039524D01*
X12061548Y-7068095D01*
X12052024Y-7106190D01*
X12052024Y-7182381D01*
X12061548Y-7201428D01*
X12071071Y-7210952D01*
X12090119Y-7220476D01*
X12128214Y-7220476D01*
X12147262Y-7210952D01*
X12156786Y-7201428D01*
X12166309Y-7182381D01*
X12166309Y-7134762D01*
X12156786Y-7115714D01*
X12147262Y-7106190D01*
X12128214Y-7096667D01*
X12090119Y-7096667D01*
X12071071Y-7106190D01*
X12061548Y-7115714D01*
X12052024Y-7134762D01*
X12290119Y-7020476D02*
X12309167Y-7020476D01*
X12328214Y-7030000D01*
X12337738Y-7039524D01*
X12347262Y-7058571D01*
X12356786Y-7096667D01*
X12356786Y-7144286D01*
X12347262Y-7182381D01*
X12337738Y-7201428D01*
X12328214Y-7210952D01*
X12309167Y-7220476D01*
X12290119Y-7220476D01*
X12271071Y-7210952D01*
X12261548Y-7201428D01*
X12252024Y-7182381D01*
X12242500Y-7144286D01*
X12242500Y-7096667D01*
X12252024Y-7058571D01*
X12261548Y-7039524D01*
X12271071Y-7030000D01*
X12290119Y-7020476D01*
X12432976Y-7020476D02*
X12432976Y-7058571D01*
X12509167Y-7020476D02*
X12509167Y-7058571D01*
X12804405Y-7296667D02*
X12794881Y-7287143D01*
X12775833Y-7258571D01*
X12766309Y-7239524D01*
X12756786Y-7210952D01*
X12747262Y-7163333D01*
X12747262Y-7125238D01*
X12756786Y-7077619D01*
X12766309Y-7049048D01*
X12775833Y-7030000D01*
X12794881Y-7001428D01*
X12804405Y-6991905D01*
X12871071Y-7039524D02*
X12880595Y-7030000D01*
X12899643Y-7020476D01*
X12947262Y-7020476D01*
X12966309Y-7030000D01*
X12975833Y-7039524D01*
X12985357Y-7058571D01*
X12985357Y-7077619D01*
X12975833Y-7106190D01*
X12861548Y-7220476D01*
X12985357Y-7220476D01*
X13223452Y-7220476D02*
X13223452Y-7020476D01*
X13309167Y-7220476D02*
X13309167Y-7115714D01*
X13299643Y-7096667D01*
X13280595Y-7087143D01*
X13252024Y-7087143D01*
X13232976Y-7096667D01*
X13223452Y-7106190D01*
X13432976Y-7220476D02*
X13413928Y-7210952D01*
X13404405Y-7201428D01*
X13394881Y-7182381D01*
X13394881Y-7125238D01*
X13404405Y-7106190D01*
X13413928Y-7096667D01*
X13432976Y-7087143D01*
X13461548Y-7087143D01*
X13480595Y-7096667D01*
X13490119Y-7106190D01*
X13499643Y-7125238D01*
X13499643Y-7182381D01*
X13490119Y-7201428D01*
X13480595Y-7210952D01*
X13461548Y-7220476D01*
X13432976Y-7220476D01*
X13613928Y-7220476D02*
X13594881Y-7210952D01*
X13585357Y-7191905D01*
X13585357Y-7020476D01*
X13766309Y-7210952D02*
X13747262Y-7220476D01*
X13709167Y-7220476D01*
X13690119Y-7210952D01*
X13680595Y-7191905D01*
X13680595Y-7115714D01*
X13690119Y-7096667D01*
X13709167Y-7087143D01*
X13747262Y-7087143D01*
X13766309Y-7096667D01*
X13775833Y-7115714D01*
X13775833Y-7134762D01*
X13680595Y-7153809D01*
X13852024Y-7210952D02*
X13871071Y-7220476D01*
X13909167Y-7220476D01*
X13928214Y-7210952D01*
X13937738Y-7191905D01*
X13937738Y-7182381D01*
X13928214Y-7163333D01*
X13909167Y-7153809D01*
X13880595Y-7153809D01*
X13861548Y-7144286D01*
X13852024Y-7125238D01*
X13852024Y-7115714D01*
X13861548Y-7096667D01*
X13880595Y-7087143D01*
X13909167Y-7087143D01*
X13928214Y-7096667D01*
X14004405Y-7296667D02*
X14013928Y-7287143D01*
X14032976Y-7258571D01*
X14042500Y-7239524D01*
X14052024Y-7210952D01*
X14061548Y-7163333D01*
X14061548Y-7125238D01*
X14052024Y-7077619D01*
X14042500Y-7049048D01*
X14032976Y-7030000D01*
X14013928Y-7001428D01*
X14004405Y-6991905D01*
X14366309Y-7296667D02*
X14356786Y-7287143D01*
X14337738Y-7258571D01*
X14328214Y-7239524D01*
X14318690Y-7210952D01*
X14309167Y-7163333D01*
X14309167Y-7125238D01*
X14318690Y-7077619D01*
X14328214Y-7049048D01*
X14337738Y-7030000D01*
X14356786Y-7001428D01*
X14366309Y-6991905D01*
X14442500Y-7087143D02*
X14442500Y-7220476D01*
X14442500Y-7106190D02*
X14452024Y-7096667D01*
X14471071Y-7087143D01*
X14499643Y-7087143D01*
X14518690Y-7096667D01*
X14528214Y-7115714D01*
X14528214Y-7220476D01*
X14652024Y-7220476D02*
X14632976Y-7210952D01*
X14623452Y-7201428D01*
X14613928Y-7182381D01*
X14613928Y-7125238D01*
X14623452Y-7106190D01*
X14632976Y-7096667D01*
X14652024Y-7087143D01*
X14680595Y-7087143D01*
X14699643Y-7096667D01*
X14709167Y-7106190D01*
X14718690Y-7125238D01*
X14718690Y-7182381D01*
X14709167Y-7201428D01*
X14699643Y-7210952D01*
X14680595Y-7220476D01*
X14652024Y-7220476D01*
X14775833Y-7087143D02*
X14852024Y-7087143D01*
X14804405Y-7020476D02*
X14804405Y-7191905D01*
X14813928Y-7210952D01*
X14832976Y-7220476D01*
X14852024Y-7220476D01*
X15071071Y-7087143D02*
X15071071Y-7287143D01*
X15071071Y-7096667D02*
X15090119Y-7087143D01*
X15128214Y-7087143D01*
X15147262Y-7096667D01*
X15156786Y-7106190D01*
X15166309Y-7125238D01*
X15166309Y-7182381D01*
X15156786Y-7201428D01*
X15147262Y-7210952D01*
X15128214Y-7220476D01*
X15090119Y-7220476D01*
X15071071Y-7210952D01*
X15280595Y-7220476D02*
X15261548Y-7210952D01*
X15252024Y-7191905D01*
X15252024Y-7020476D01*
X15442500Y-7220476D02*
X15442500Y-7115714D01*
X15432976Y-7096667D01*
X15413928Y-7087143D01*
X15375833Y-7087143D01*
X15356786Y-7096667D01*
X15442500Y-7210952D02*
X15423452Y-7220476D01*
X15375833Y-7220476D01*
X15356786Y-7210952D01*
X15347262Y-7191905D01*
X15347262Y-7172857D01*
X15356786Y-7153809D01*
X15375833Y-7144286D01*
X15423452Y-7144286D01*
X15442500Y-7134762D01*
X15509167Y-7087143D02*
X15585357Y-7087143D01*
X15537738Y-7020476D02*
X15537738Y-7191905D01*
X15547262Y-7210952D01*
X15566309Y-7220476D01*
X15585357Y-7220476D01*
X15728214Y-7210952D02*
X15709167Y-7220476D01*
X15671071Y-7220476D01*
X15652024Y-7210952D01*
X15642500Y-7191905D01*
X15642500Y-7115714D01*
X15652024Y-7096667D01*
X15671071Y-7087143D01*
X15709167Y-7087143D01*
X15728214Y-7096667D01*
X15737738Y-7115714D01*
X15737738Y-7134762D01*
X15642500Y-7153809D01*
X15909167Y-7220476D02*
X15909167Y-7020476D01*
X15909167Y-7210952D02*
X15890119Y-7220476D01*
X15852024Y-7220476D01*
X15832976Y-7210952D01*
X15823452Y-7201428D01*
X15813928Y-7182381D01*
X15813928Y-7125238D01*
X15823452Y-7106190D01*
X15832976Y-7096667D01*
X15852024Y-7087143D01*
X15890119Y-7087143D01*
X15909167Y-7096667D01*
X15985357Y-7296667D02*
X15994881Y-7287143D01*
X16013928Y-7258571D01*
X16023452Y-7239524D01*
X16032976Y-7210952D01*
X16042500Y-7163333D01*
X16042500Y-7125238D01*
X16032976Y-7077619D01*
X16023452Y-7049048D01*
X16013928Y-7030000D01*
X15994881Y-7001428D01*
X15985357Y-6991905D01*
M02*
