G04 #@! TF.GenerationSoftware,KiCad,Pcbnew,(6.0.6)*
G04 #@! TF.CreationDate,2023-08-29T14:37:19+02:00*
G04 #@! TF.ProjectId,digital-isolator-2t6r,64696769-7461-46c2-9d69-736f6c61746f,rev?*
G04 #@! TF.SameCoordinates,Original*
G04 #@! TF.FileFunction,Paste,Top*
G04 #@! TF.FilePolarity,Positive*
%FSLAX46Y46*%
G04 Gerber Fmt 4.6, Leading zero omitted, Abs format (unit mm)*
G04 Created by KiCad (PCBNEW (6.0.6)) date 2023-08-29 14:37:19*
%MOMM*%
%LPD*%
G01*
G04 APERTURE LIST*
G04 APERTURE END LIST*
G36*
G01*
X126250000Y-54800000D02*
X125350000Y-54800000D01*
G75*
G02*
X125100000Y-54550000I0J250000D01*
G01*
X125100000Y-53850000D01*
G75*
G02*
X125350000Y-53600000I250000J0D01*
G01*
X126250000Y-53600000D01*
G75*
G02*
X126500000Y-53850000I0J-250000D01*
G01*
X126500000Y-54550000D01*
G75*
G02*
X126250000Y-54800000I-250000J0D01*
G01*
G37*
G36*
G01*
X126250000Y-52800000D02*
X125350000Y-52800000D01*
G75*
G02*
X125100000Y-52550000I0J250000D01*
G01*
X125100000Y-51850000D01*
G75*
G02*
X125350000Y-51600000I250000J0D01*
G01*
X126250000Y-51600000D01*
G75*
G02*
X126500000Y-51850000I0J-250000D01*
G01*
X126500000Y-52550000D01*
G75*
G02*
X126250000Y-52800000I-250000J0D01*
G01*
G37*
G36*
G01*
X123570000Y-37660000D02*
X124470000Y-37660000D01*
G75*
G02*
X124720000Y-37910000I0J-250000D01*
G01*
X124720000Y-38610000D01*
G75*
G02*
X124470000Y-38860000I-250000J0D01*
G01*
X123570000Y-38860000D01*
G75*
G02*
X123320000Y-38610000I0J250000D01*
G01*
X123320000Y-37910000D01*
G75*
G02*
X123570000Y-37660000I250000J0D01*
G01*
G37*
G36*
G01*
X123570000Y-39660000D02*
X124470000Y-39660000D01*
G75*
G02*
X124720000Y-39910000I0J-250000D01*
G01*
X124720000Y-40610000D01*
G75*
G02*
X124470000Y-40860000I-250000J0D01*
G01*
X123570000Y-40860000D01*
G75*
G02*
X123320000Y-40610000I0J250000D01*
G01*
X123320000Y-39910000D01*
G75*
G02*
X123570000Y-39660000I250000J0D01*
G01*
G37*
G36*
G01*
X103110000Y-39460000D02*
X104010000Y-39460000D01*
G75*
G02*
X104260000Y-39710000I0J-250000D01*
G01*
X104260000Y-40410000D01*
G75*
G02*
X104010000Y-40660000I-250000J0D01*
G01*
X103110000Y-40660000D01*
G75*
G02*
X102860000Y-40410000I0J250000D01*
G01*
X102860000Y-39710000D01*
G75*
G02*
X103110000Y-39460000I250000J0D01*
G01*
G37*
G36*
G01*
X103110000Y-41460000D02*
X104010000Y-41460000D01*
G75*
G02*
X104260000Y-41710000I0J-250000D01*
G01*
X104260000Y-42410000D01*
G75*
G02*
X104010000Y-42660000I-250000J0D01*
G01*
X103110000Y-42660000D01*
G75*
G02*
X102860000Y-42410000I0J250000D01*
G01*
X102860000Y-41710000D01*
G75*
G02*
X103110000Y-41460000I250000J0D01*
G01*
G37*
G36*
G01*
X105260000Y-38670000D02*
X104360000Y-38670000D01*
G75*
G02*
X104110000Y-38420000I0J250000D01*
G01*
X104110000Y-37720000D01*
G75*
G02*
X104360000Y-37470000I250000J0D01*
G01*
X105260000Y-37470000D01*
G75*
G02*
X105510000Y-37720000I0J-250000D01*
G01*
X105510000Y-38420000D01*
G75*
G02*
X105260000Y-38670000I-250000J0D01*
G01*
G37*
G36*
G01*
X105260000Y-36670000D02*
X104360000Y-36670000D01*
G75*
G02*
X104110000Y-36420000I0J250000D01*
G01*
X104110000Y-35720000D01*
G75*
G02*
X104360000Y-35470000I250000J0D01*
G01*
X105260000Y-35470000D01*
G75*
G02*
X105510000Y-35720000I0J-250000D01*
G01*
X105510000Y-36420000D01*
G75*
G02*
X105260000Y-36670000I-250000J0D01*
G01*
G37*
G36*
G01*
X123250000Y-34400000D02*
X122350000Y-34400000D01*
G75*
G02*
X122100000Y-34150000I0J250000D01*
G01*
X122100000Y-33450000D01*
G75*
G02*
X122350000Y-33200000I250000J0D01*
G01*
X123250000Y-33200000D01*
G75*
G02*
X123500000Y-33450000I0J-250000D01*
G01*
X123500000Y-34150000D01*
G75*
G02*
X123250000Y-34400000I-250000J0D01*
G01*
G37*
G36*
G01*
X123250000Y-32400000D02*
X122350000Y-32400000D01*
G75*
G02*
X122100000Y-32150000I0J250000D01*
G01*
X122100000Y-31450000D01*
G75*
G02*
X122350000Y-31200000I250000J0D01*
G01*
X123250000Y-31200000D01*
G75*
G02*
X123500000Y-31450000I0J-250000D01*
G01*
X123500000Y-32150000D01*
G75*
G02*
X123250000Y-32400000I-250000J0D01*
G01*
G37*
G36*
G01*
X118547500Y-27495000D02*
X118547500Y-26545000D01*
G75*
G02*
X118797500Y-26295000I250000J0D01*
G01*
X119472500Y-26295000D01*
G75*
G02*
X119722500Y-26545000I0J-250000D01*
G01*
X119722500Y-27495000D01*
G75*
G02*
X119472500Y-27745000I-250000J0D01*
G01*
X118797500Y-27745000D01*
G75*
G02*
X118547500Y-27495000I0J250000D01*
G01*
G37*
G36*
G01*
X120622500Y-27495000D02*
X120622500Y-26545000D01*
G75*
G02*
X120872500Y-26295000I250000J0D01*
G01*
X121547500Y-26295000D01*
G75*
G02*
X121797500Y-26545000I0J-250000D01*
G01*
X121797500Y-27495000D01*
G75*
G02*
X121547500Y-27745000I-250000J0D01*
G01*
X120872500Y-27745000D01*
G75*
G02*
X120622500Y-27495000I0J250000D01*
G01*
G37*
G36*
G01*
X109185000Y-51795000D02*
X109185000Y-51495000D01*
G75*
G02*
X109335000Y-51345000I150000J0D01*
G01*
X111085000Y-51345000D01*
G75*
G02*
X111235000Y-51495000I0J-150000D01*
G01*
X111235000Y-51795000D01*
G75*
G02*
X111085000Y-51945000I-150000J0D01*
G01*
X109335000Y-51945000D01*
G75*
G02*
X109185000Y-51795000I0J150000D01*
G01*
G37*
G36*
G01*
X109185000Y-53065000D02*
X109185000Y-52765000D01*
G75*
G02*
X109335000Y-52615000I150000J0D01*
G01*
X111085000Y-52615000D01*
G75*
G02*
X111235000Y-52765000I0J-150000D01*
G01*
X111235000Y-53065000D01*
G75*
G02*
X111085000Y-53215000I-150000J0D01*
G01*
X109335000Y-53215000D01*
G75*
G02*
X109185000Y-53065000I0J150000D01*
G01*
G37*
G36*
G01*
X109185000Y-54335000D02*
X109185000Y-54035000D01*
G75*
G02*
X109335000Y-53885000I150000J0D01*
G01*
X111085000Y-53885000D01*
G75*
G02*
X111235000Y-54035000I0J-150000D01*
G01*
X111235000Y-54335000D01*
G75*
G02*
X111085000Y-54485000I-150000J0D01*
G01*
X109335000Y-54485000D01*
G75*
G02*
X109185000Y-54335000I0J150000D01*
G01*
G37*
G36*
G01*
X109185000Y-55605000D02*
X109185000Y-55305000D01*
G75*
G02*
X109335000Y-55155000I150000J0D01*
G01*
X111085000Y-55155000D01*
G75*
G02*
X111235000Y-55305000I0J-150000D01*
G01*
X111235000Y-55605000D01*
G75*
G02*
X111085000Y-55755000I-150000J0D01*
G01*
X109335000Y-55755000D01*
G75*
G02*
X109185000Y-55605000I0J150000D01*
G01*
G37*
G36*
G01*
X109185000Y-56875000D02*
X109185000Y-56575000D01*
G75*
G02*
X109335000Y-56425000I150000J0D01*
G01*
X111085000Y-56425000D01*
G75*
G02*
X111235000Y-56575000I0J-150000D01*
G01*
X111235000Y-56875000D01*
G75*
G02*
X111085000Y-57025000I-150000J0D01*
G01*
X109335000Y-57025000D01*
G75*
G02*
X109185000Y-56875000I0J150000D01*
G01*
G37*
G36*
G01*
X109185000Y-58145000D02*
X109185000Y-57845000D01*
G75*
G02*
X109335000Y-57695000I150000J0D01*
G01*
X111085000Y-57695000D01*
G75*
G02*
X111235000Y-57845000I0J-150000D01*
G01*
X111235000Y-58145000D01*
G75*
G02*
X111085000Y-58295000I-150000J0D01*
G01*
X109335000Y-58295000D01*
G75*
G02*
X109185000Y-58145000I0J150000D01*
G01*
G37*
G36*
G01*
X109185000Y-59415000D02*
X109185000Y-59115000D01*
G75*
G02*
X109335000Y-58965000I150000J0D01*
G01*
X111085000Y-58965000D01*
G75*
G02*
X111235000Y-59115000I0J-150000D01*
G01*
X111235000Y-59415000D01*
G75*
G02*
X111085000Y-59565000I-150000J0D01*
G01*
X109335000Y-59565000D01*
G75*
G02*
X109185000Y-59415000I0J150000D01*
G01*
G37*
G36*
G01*
X109185000Y-60685000D02*
X109185000Y-60385000D01*
G75*
G02*
X109335000Y-60235000I150000J0D01*
G01*
X111085000Y-60235000D01*
G75*
G02*
X111235000Y-60385000I0J-150000D01*
G01*
X111235000Y-60685000D01*
G75*
G02*
X111085000Y-60835000I-150000J0D01*
G01*
X109335000Y-60835000D01*
G75*
G02*
X109185000Y-60685000I0J150000D01*
G01*
G37*
G36*
G01*
X118485000Y-60685000D02*
X118485000Y-60385000D01*
G75*
G02*
X118635000Y-60235000I150000J0D01*
G01*
X120385000Y-60235000D01*
G75*
G02*
X120535000Y-60385000I0J-150000D01*
G01*
X120535000Y-60685000D01*
G75*
G02*
X120385000Y-60835000I-150000J0D01*
G01*
X118635000Y-60835000D01*
G75*
G02*
X118485000Y-60685000I0J150000D01*
G01*
G37*
G36*
G01*
X118485000Y-59415000D02*
X118485000Y-59115000D01*
G75*
G02*
X118635000Y-58965000I150000J0D01*
G01*
X120385000Y-58965000D01*
G75*
G02*
X120535000Y-59115000I0J-150000D01*
G01*
X120535000Y-59415000D01*
G75*
G02*
X120385000Y-59565000I-150000J0D01*
G01*
X118635000Y-59565000D01*
G75*
G02*
X118485000Y-59415000I0J150000D01*
G01*
G37*
G36*
G01*
X118485000Y-58145000D02*
X118485000Y-57845000D01*
G75*
G02*
X118635000Y-57695000I150000J0D01*
G01*
X120385000Y-57695000D01*
G75*
G02*
X120535000Y-57845000I0J-150000D01*
G01*
X120535000Y-58145000D01*
G75*
G02*
X120385000Y-58295000I-150000J0D01*
G01*
X118635000Y-58295000D01*
G75*
G02*
X118485000Y-58145000I0J150000D01*
G01*
G37*
G36*
G01*
X118485000Y-56875000D02*
X118485000Y-56575000D01*
G75*
G02*
X118635000Y-56425000I150000J0D01*
G01*
X120385000Y-56425000D01*
G75*
G02*
X120535000Y-56575000I0J-150000D01*
G01*
X120535000Y-56875000D01*
G75*
G02*
X120385000Y-57025000I-150000J0D01*
G01*
X118635000Y-57025000D01*
G75*
G02*
X118485000Y-56875000I0J150000D01*
G01*
G37*
G36*
G01*
X118485000Y-55605000D02*
X118485000Y-55305000D01*
G75*
G02*
X118635000Y-55155000I150000J0D01*
G01*
X120385000Y-55155000D01*
G75*
G02*
X120535000Y-55305000I0J-150000D01*
G01*
X120535000Y-55605000D01*
G75*
G02*
X120385000Y-55755000I-150000J0D01*
G01*
X118635000Y-55755000D01*
G75*
G02*
X118485000Y-55605000I0J150000D01*
G01*
G37*
G36*
G01*
X118485000Y-54335000D02*
X118485000Y-54035000D01*
G75*
G02*
X118635000Y-53885000I150000J0D01*
G01*
X120385000Y-53885000D01*
G75*
G02*
X120535000Y-54035000I0J-150000D01*
G01*
X120535000Y-54335000D01*
G75*
G02*
X120385000Y-54485000I-150000J0D01*
G01*
X118635000Y-54485000D01*
G75*
G02*
X118485000Y-54335000I0J150000D01*
G01*
G37*
G36*
G01*
X118485000Y-53065000D02*
X118485000Y-52765000D01*
G75*
G02*
X118635000Y-52615000I150000J0D01*
G01*
X120385000Y-52615000D01*
G75*
G02*
X120535000Y-52765000I0J-150000D01*
G01*
X120535000Y-53065000D01*
G75*
G02*
X120385000Y-53215000I-150000J0D01*
G01*
X118635000Y-53215000D01*
G75*
G02*
X118485000Y-53065000I0J150000D01*
G01*
G37*
G36*
G01*
X118485000Y-51795000D02*
X118485000Y-51495000D01*
G75*
G02*
X118635000Y-51345000I150000J0D01*
G01*
X120385000Y-51345000D01*
G75*
G02*
X120535000Y-51495000I0J-150000D01*
G01*
X120535000Y-51795000D01*
G75*
G02*
X120385000Y-51945000I-150000J0D01*
G01*
X118635000Y-51945000D01*
G75*
G02*
X118485000Y-51795000I0J150000D01*
G01*
G37*
G36*
G01*
X110912500Y-46475000D02*
X110912500Y-47425000D01*
G75*
G02*
X110662500Y-47675000I-250000J0D01*
G01*
X109987500Y-47675000D01*
G75*
G02*
X109737500Y-47425000I0J250000D01*
G01*
X109737500Y-46475000D01*
G75*
G02*
X109987500Y-46225000I250000J0D01*
G01*
X110662500Y-46225000D01*
G75*
G02*
X110912500Y-46475000I0J-250000D01*
G01*
G37*
G36*
G01*
X108837500Y-46475000D02*
X108837500Y-47425000D01*
G75*
G02*
X108587500Y-47675000I-250000J0D01*
G01*
X107912500Y-47675000D01*
G75*
G02*
X107662500Y-47425000I0J250000D01*
G01*
X107662500Y-46475000D01*
G75*
G02*
X107912500Y-46225000I250000J0D01*
G01*
X108587500Y-46225000D01*
G75*
G02*
X108837500Y-46475000I0J-250000D01*
G01*
G37*
G36*
G01*
X110935000Y-26545000D02*
X110935000Y-27495000D01*
G75*
G02*
X110685000Y-27745000I-250000J0D01*
G01*
X110010000Y-27745000D01*
G75*
G02*
X109760000Y-27495000I0J250000D01*
G01*
X109760000Y-26545000D01*
G75*
G02*
X110010000Y-26295000I250000J0D01*
G01*
X110685000Y-26295000D01*
G75*
G02*
X110935000Y-26545000I0J-250000D01*
G01*
G37*
G36*
G01*
X108860000Y-26545000D02*
X108860000Y-27495000D01*
G75*
G02*
X108610000Y-27745000I-250000J0D01*
G01*
X107935000Y-27745000D01*
G75*
G02*
X107685000Y-27495000I0J250000D01*
G01*
X107685000Y-26545000D01*
G75*
G02*
X107935000Y-26295000I250000J0D01*
G01*
X108610000Y-26295000D01*
G75*
G02*
X108860000Y-26545000I0J-250000D01*
G01*
G37*
G36*
G01*
X124210000Y-57730000D02*
X125110000Y-57730000D01*
G75*
G02*
X125360000Y-57980000I0J-250000D01*
G01*
X125360000Y-58680000D01*
G75*
G02*
X125110000Y-58930000I-250000J0D01*
G01*
X124210000Y-58930000D01*
G75*
G02*
X123960000Y-58680000I0J250000D01*
G01*
X123960000Y-57980000D01*
G75*
G02*
X124210000Y-57730000I250000J0D01*
G01*
G37*
G36*
G01*
X124210000Y-59730000D02*
X125110000Y-59730000D01*
G75*
G02*
X125360000Y-59980000I0J-250000D01*
G01*
X125360000Y-60680000D01*
G75*
G02*
X125110000Y-60930000I-250000J0D01*
G01*
X124210000Y-60930000D01*
G75*
G02*
X123960000Y-60680000I0J250000D01*
G01*
X123960000Y-59980000D01*
G75*
G02*
X124210000Y-59730000I250000J0D01*
G01*
G37*
G36*
G01*
X104850000Y-55450000D02*
X105750000Y-55450000D01*
G75*
G02*
X106000000Y-55700000I0J-250000D01*
G01*
X106000000Y-56400000D01*
G75*
G02*
X105750000Y-56650000I-250000J0D01*
G01*
X104850000Y-56650000D01*
G75*
G02*
X104600000Y-56400000I0J250000D01*
G01*
X104600000Y-55700000D01*
G75*
G02*
X104850000Y-55450000I250000J0D01*
G01*
G37*
G36*
G01*
X104850000Y-57450000D02*
X105750000Y-57450000D01*
G75*
G02*
X106000000Y-57700000I0J-250000D01*
G01*
X106000000Y-58400000D01*
G75*
G02*
X105750000Y-58650000I-250000J0D01*
G01*
X104850000Y-58650000D01*
G75*
G02*
X104600000Y-58400000I0J250000D01*
G01*
X104600000Y-57700000D01*
G75*
G02*
X104850000Y-57450000I250000J0D01*
G01*
G37*
G36*
G01*
X125450000Y-34400000D02*
X124550000Y-34400000D01*
G75*
G02*
X124300000Y-34150000I0J250000D01*
G01*
X124300000Y-33450000D01*
G75*
G02*
X124550000Y-33200000I250000J0D01*
G01*
X125450000Y-33200000D01*
G75*
G02*
X125700000Y-33450000I0J-250000D01*
G01*
X125700000Y-34150000D01*
G75*
G02*
X125450000Y-34400000I-250000J0D01*
G01*
G37*
G36*
G01*
X125450000Y-32400000D02*
X124550000Y-32400000D01*
G75*
G02*
X124300000Y-32150000I0J250000D01*
G01*
X124300000Y-31450000D01*
G75*
G02*
X124550000Y-31200000I250000J0D01*
G01*
X125450000Y-31200000D01*
G75*
G02*
X125700000Y-31450000I0J-250000D01*
G01*
X125700000Y-32150000D01*
G75*
G02*
X125450000Y-32400000I-250000J0D01*
G01*
G37*
G36*
G01*
X109185000Y-31795000D02*
X109185000Y-31495000D01*
G75*
G02*
X109335000Y-31345000I150000J0D01*
G01*
X111085000Y-31345000D01*
G75*
G02*
X111235000Y-31495000I0J-150000D01*
G01*
X111235000Y-31795000D01*
G75*
G02*
X111085000Y-31945000I-150000J0D01*
G01*
X109335000Y-31945000D01*
G75*
G02*
X109185000Y-31795000I0J150000D01*
G01*
G37*
G36*
G01*
X109185000Y-33065000D02*
X109185000Y-32765000D01*
G75*
G02*
X109335000Y-32615000I150000J0D01*
G01*
X111085000Y-32615000D01*
G75*
G02*
X111235000Y-32765000I0J-150000D01*
G01*
X111235000Y-33065000D01*
G75*
G02*
X111085000Y-33215000I-150000J0D01*
G01*
X109335000Y-33215000D01*
G75*
G02*
X109185000Y-33065000I0J150000D01*
G01*
G37*
G36*
G01*
X109185000Y-34335000D02*
X109185000Y-34035000D01*
G75*
G02*
X109335000Y-33885000I150000J0D01*
G01*
X111085000Y-33885000D01*
G75*
G02*
X111235000Y-34035000I0J-150000D01*
G01*
X111235000Y-34335000D01*
G75*
G02*
X111085000Y-34485000I-150000J0D01*
G01*
X109335000Y-34485000D01*
G75*
G02*
X109185000Y-34335000I0J150000D01*
G01*
G37*
G36*
G01*
X109185000Y-35605000D02*
X109185000Y-35305000D01*
G75*
G02*
X109335000Y-35155000I150000J0D01*
G01*
X111085000Y-35155000D01*
G75*
G02*
X111235000Y-35305000I0J-150000D01*
G01*
X111235000Y-35605000D01*
G75*
G02*
X111085000Y-35755000I-150000J0D01*
G01*
X109335000Y-35755000D01*
G75*
G02*
X109185000Y-35605000I0J150000D01*
G01*
G37*
G36*
G01*
X109185000Y-36875000D02*
X109185000Y-36575000D01*
G75*
G02*
X109335000Y-36425000I150000J0D01*
G01*
X111085000Y-36425000D01*
G75*
G02*
X111235000Y-36575000I0J-150000D01*
G01*
X111235000Y-36875000D01*
G75*
G02*
X111085000Y-37025000I-150000J0D01*
G01*
X109335000Y-37025000D01*
G75*
G02*
X109185000Y-36875000I0J150000D01*
G01*
G37*
G36*
G01*
X109185000Y-38145000D02*
X109185000Y-37845000D01*
G75*
G02*
X109335000Y-37695000I150000J0D01*
G01*
X111085000Y-37695000D01*
G75*
G02*
X111235000Y-37845000I0J-150000D01*
G01*
X111235000Y-38145000D01*
G75*
G02*
X111085000Y-38295000I-150000J0D01*
G01*
X109335000Y-38295000D01*
G75*
G02*
X109185000Y-38145000I0J150000D01*
G01*
G37*
G36*
G01*
X109185000Y-39415000D02*
X109185000Y-39115000D01*
G75*
G02*
X109335000Y-38965000I150000J0D01*
G01*
X111085000Y-38965000D01*
G75*
G02*
X111235000Y-39115000I0J-150000D01*
G01*
X111235000Y-39415000D01*
G75*
G02*
X111085000Y-39565000I-150000J0D01*
G01*
X109335000Y-39565000D01*
G75*
G02*
X109185000Y-39415000I0J150000D01*
G01*
G37*
G36*
G01*
X109185000Y-40685000D02*
X109185000Y-40385000D01*
G75*
G02*
X109335000Y-40235000I150000J0D01*
G01*
X111085000Y-40235000D01*
G75*
G02*
X111235000Y-40385000I0J-150000D01*
G01*
X111235000Y-40685000D01*
G75*
G02*
X111085000Y-40835000I-150000J0D01*
G01*
X109335000Y-40835000D01*
G75*
G02*
X109185000Y-40685000I0J150000D01*
G01*
G37*
G36*
G01*
X118485000Y-40685000D02*
X118485000Y-40385000D01*
G75*
G02*
X118635000Y-40235000I150000J0D01*
G01*
X120385000Y-40235000D01*
G75*
G02*
X120535000Y-40385000I0J-150000D01*
G01*
X120535000Y-40685000D01*
G75*
G02*
X120385000Y-40835000I-150000J0D01*
G01*
X118635000Y-40835000D01*
G75*
G02*
X118485000Y-40685000I0J150000D01*
G01*
G37*
G36*
G01*
X118485000Y-39415000D02*
X118485000Y-39115000D01*
G75*
G02*
X118635000Y-38965000I150000J0D01*
G01*
X120385000Y-38965000D01*
G75*
G02*
X120535000Y-39115000I0J-150000D01*
G01*
X120535000Y-39415000D01*
G75*
G02*
X120385000Y-39565000I-150000J0D01*
G01*
X118635000Y-39565000D01*
G75*
G02*
X118485000Y-39415000I0J150000D01*
G01*
G37*
G36*
G01*
X118485000Y-38145000D02*
X118485000Y-37845000D01*
G75*
G02*
X118635000Y-37695000I150000J0D01*
G01*
X120385000Y-37695000D01*
G75*
G02*
X120535000Y-37845000I0J-150000D01*
G01*
X120535000Y-38145000D01*
G75*
G02*
X120385000Y-38295000I-150000J0D01*
G01*
X118635000Y-38295000D01*
G75*
G02*
X118485000Y-38145000I0J150000D01*
G01*
G37*
G36*
G01*
X118485000Y-36875000D02*
X118485000Y-36575000D01*
G75*
G02*
X118635000Y-36425000I150000J0D01*
G01*
X120385000Y-36425000D01*
G75*
G02*
X120535000Y-36575000I0J-150000D01*
G01*
X120535000Y-36875000D01*
G75*
G02*
X120385000Y-37025000I-150000J0D01*
G01*
X118635000Y-37025000D01*
G75*
G02*
X118485000Y-36875000I0J150000D01*
G01*
G37*
G36*
G01*
X118485000Y-35605000D02*
X118485000Y-35305000D01*
G75*
G02*
X118635000Y-35155000I150000J0D01*
G01*
X120385000Y-35155000D01*
G75*
G02*
X120535000Y-35305000I0J-150000D01*
G01*
X120535000Y-35605000D01*
G75*
G02*
X120385000Y-35755000I-150000J0D01*
G01*
X118635000Y-35755000D01*
G75*
G02*
X118485000Y-35605000I0J150000D01*
G01*
G37*
G36*
G01*
X118485000Y-34335000D02*
X118485000Y-34035000D01*
G75*
G02*
X118635000Y-33885000I150000J0D01*
G01*
X120385000Y-33885000D01*
G75*
G02*
X120535000Y-34035000I0J-150000D01*
G01*
X120535000Y-34335000D01*
G75*
G02*
X120385000Y-34485000I-150000J0D01*
G01*
X118635000Y-34485000D01*
G75*
G02*
X118485000Y-34335000I0J150000D01*
G01*
G37*
G36*
G01*
X118485000Y-33065000D02*
X118485000Y-32765000D01*
G75*
G02*
X118635000Y-32615000I150000J0D01*
G01*
X120385000Y-32615000D01*
G75*
G02*
X120535000Y-32765000I0J-150000D01*
G01*
X120535000Y-33065000D01*
G75*
G02*
X120385000Y-33215000I-150000J0D01*
G01*
X118635000Y-33215000D01*
G75*
G02*
X118485000Y-33065000I0J150000D01*
G01*
G37*
G36*
G01*
X118485000Y-31795000D02*
X118485000Y-31495000D01*
G75*
G02*
X118635000Y-31345000I150000J0D01*
G01*
X120385000Y-31345000D01*
G75*
G02*
X120535000Y-31495000I0J-150000D01*
G01*
X120535000Y-31795000D01*
G75*
G02*
X120385000Y-31945000I-150000J0D01*
G01*
X118635000Y-31945000D01*
G75*
G02*
X118485000Y-31795000I0J150000D01*
G01*
G37*
G36*
G01*
X127650000Y-34400000D02*
X126750000Y-34400000D01*
G75*
G02*
X126500000Y-34150000I0J250000D01*
G01*
X126500000Y-33450000D01*
G75*
G02*
X126750000Y-33200000I250000J0D01*
G01*
X127650000Y-33200000D01*
G75*
G02*
X127900000Y-33450000I0J-250000D01*
G01*
X127900000Y-34150000D01*
G75*
G02*
X127650000Y-34400000I-250000J0D01*
G01*
G37*
G36*
G01*
X127650000Y-32400000D02*
X126750000Y-32400000D01*
G75*
G02*
X126500000Y-32150000I0J250000D01*
G01*
X126500000Y-31450000D01*
G75*
G02*
X126750000Y-31200000I250000J0D01*
G01*
X127650000Y-31200000D01*
G75*
G02*
X127900000Y-31450000I0J-250000D01*
G01*
X127900000Y-32150000D01*
G75*
G02*
X127650000Y-32400000I-250000J0D01*
G01*
G37*
G36*
G01*
X107250000Y-54550000D02*
X106350000Y-54550000D01*
G75*
G02*
X106100000Y-54300000I0J250000D01*
G01*
X106100000Y-53600000D01*
G75*
G02*
X106350000Y-53350000I250000J0D01*
G01*
X107250000Y-53350000D01*
G75*
G02*
X107500000Y-53600000I0J-250000D01*
G01*
X107500000Y-54300000D01*
G75*
G02*
X107250000Y-54550000I-250000J0D01*
G01*
G37*
G36*
G01*
X107250000Y-52550000D02*
X106350000Y-52550000D01*
G75*
G02*
X106100000Y-52300000I0J250000D01*
G01*
X106100000Y-51600000D01*
G75*
G02*
X106350000Y-51350000I250000J0D01*
G01*
X107250000Y-51350000D01*
G75*
G02*
X107500000Y-51600000I0J-250000D01*
G01*
X107500000Y-52300000D01*
G75*
G02*
X107250000Y-52550000I-250000J0D01*
G01*
G37*
G36*
G01*
X110935000Y-28845000D02*
X110935000Y-29795000D01*
G75*
G02*
X110685000Y-30045000I-250000J0D01*
G01*
X110010000Y-30045000D01*
G75*
G02*
X109760000Y-29795000I0J250000D01*
G01*
X109760000Y-28845000D01*
G75*
G02*
X110010000Y-28595000I250000J0D01*
G01*
X110685000Y-28595000D01*
G75*
G02*
X110935000Y-28845000I0J-250000D01*
G01*
G37*
G36*
G01*
X108860000Y-28845000D02*
X108860000Y-29795000D01*
G75*
G02*
X108610000Y-30045000I-250000J0D01*
G01*
X107935000Y-30045000D01*
G75*
G02*
X107685000Y-29795000I0J250000D01*
G01*
X107685000Y-28845000D01*
G75*
G02*
X107935000Y-28595000I250000J0D01*
G01*
X108610000Y-28595000D01*
G75*
G02*
X108860000Y-28845000I0J-250000D01*
G01*
G37*
G36*
G01*
X124050000Y-54800000D02*
X123150000Y-54800000D01*
G75*
G02*
X122900000Y-54550000I0J250000D01*
G01*
X122900000Y-53850000D01*
G75*
G02*
X123150000Y-53600000I250000J0D01*
G01*
X124050000Y-53600000D01*
G75*
G02*
X124300000Y-53850000I0J-250000D01*
G01*
X124300000Y-54550000D01*
G75*
G02*
X124050000Y-54800000I-250000J0D01*
G01*
G37*
G36*
G01*
X124050000Y-52800000D02*
X123150000Y-52800000D01*
G75*
G02*
X122900000Y-52550000I0J250000D01*
G01*
X122900000Y-51850000D01*
G75*
G02*
X123150000Y-51600000I250000J0D01*
G01*
X124050000Y-51600000D01*
G75*
G02*
X124300000Y-51850000I0J-250000D01*
G01*
X124300000Y-52550000D01*
G75*
G02*
X124050000Y-52800000I-250000J0D01*
G01*
G37*
G36*
G01*
X118535000Y-29795000D02*
X118535000Y-28845000D01*
G75*
G02*
X118785000Y-28595000I250000J0D01*
G01*
X119460000Y-28595000D01*
G75*
G02*
X119710000Y-28845000I0J-250000D01*
G01*
X119710000Y-29795000D01*
G75*
G02*
X119460000Y-30045000I-250000J0D01*
G01*
X118785000Y-30045000D01*
G75*
G02*
X118535000Y-29795000I0J250000D01*
G01*
G37*
G36*
G01*
X120610000Y-29795000D02*
X120610000Y-28845000D01*
G75*
G02*
X120860000Y-28595000I250000J0D01*
G01*
X121535000Y-28595000D01*
G75*
G02*
X121785000Y-28845000I0J-250000D01*
G01*
X121785000Y-29795000D01*
G75*
G02*
X121535000Y-30045000I-250000J0D01*
G01*
X120860000Y-30045000D01*
G75*
G02*
X120610000Y-29795000I0J250000D01*
G01*
G37*
G36*
G01*
X118500000Y-47375000D02*
X118500000Y-46425000D01*
G75*
G02*
X118750000Y-46175000I250000J0D01*
G01*
X119425000Y-46175000D01*
G75*
G02*
X119675000Y-46425000I0J-250000D01*
G01*
X119675000Y-47375000D01*
G75*
G02*
X119425000Y-47625000I-250000J0D01*
G01*
X118750000Y-47625000D01*
G75*
G02*
X118500000Y-47375000I0J250000D01*
G01*
G37*
G36*
G01*
X120575000Y-47375000D02*
X120575000Y-46425000D01*
G75*
G02*
X120825000Y-46175000I250000J0D01*
G01*
X121500000Y-46175000D01*
G75*
G02*
X121750000Y-46425000I0J-250000D01*
G01*
X121750000Y-47375000D01*
G75*
G02*
X121500000Y-47625000I-250000J0D01*
G01*
X120825000Y-47625000D01*
G75*
G02*
X120575000Y-47375000I0J250000D01*
G01*
G37*
G36*
G01*
X104360000Y-31470000D02*
X105260000Y-31470000D01*
G75*
G02*
X105510000Y-31720000I0J-250000D01*
G01*
X105510000Y-32420000D01*
G75*
G02*
X105260000Y-32670000I-250000J0D01*
G01*
X104360000Y-32670000D01*
G75*
G02*
X104110000Y-32420000I0J250000D01*
G01*
X104110000Y-31720000D01*
G75*
G02*
X104360000Y-31470000I250000J0D01*
G01*
G37*
G36*
G01*
X104360000Y-33470000D02*
X105260000Y-33470000D01*
G75*
G02*
X105510000Y-33720000I0J-250000D01*
G01*
X105510000Y-34420000D01*
G75*
G02*
X105260000Y-34670000I-250000J0D01*
G01*
X104360000Y-34670000D01*
G75*
G02*
X104110000Y-34420000I0J250000D01*
G01*
X104110000Y-33720000D01*
G75*
G02*
X104360000Y-33470000I250000J0D01*
G01*
G37*
G36*
G01*
X128450000Y-54800000D02*
X127550000Y-54800000D01*
G75*
G02*
X127300000Y-54550000I0J250000D01*
G01*
X127300000Y-53850000D01*
G75*
G02*
X127550000Y-53600000I250000J0D01*
G01*
X128450000Y-53600000D01*
G75*
G02*
X128700000Y-53850000I0J-250000D01*
G01*
X128700000Y-54550000D01*
G75*
G02*
X128450000Y-54800000I-250000J0D01*
G01*
G37*
G36*
G01*
X128450000Y-52800000D02*
X127550000Y-52800000D01*
G75*
G02*
X127300000Y-52550000I0J250000D01*
G01*
X127300000Y-51850000D01*
G75*
G02*
X127550000Y-51600000I250000J0D01*
G01*
X128450000Y-51600000D01*
G75*
G02*
X128700000Y-51850000I0J-250000D01*
G01*
X128700000Y-52550000D01*
G75*
G02*
X128450000Y-52800000I-250000J0D01*
G01*
G37*
G36*
G01*
X110925000Y-48775000D02*
X110925000Y-49725000D01*
G75*
G02*
X110675000Y-49975000I-250000J0D01*
G01*
X110000000Y-49975000D01*
G75*
G02*
X109750000Y-49725000I0J250000D01*
G01*
X109750000Y-48775000D01*
G75*
G02*
X110000000Y-48525000I250000J0D01*
G01*
X110675000Y-48525000D01*
G75*
G02*
X110925000Y-48775000I0J-250000D01*
G01*
G37*
G36*
G01*
X108850000Y-48775000D02*
X108850000Y-49725000D01*
G75*
G02*
X108600000Y-49975000I-250000J0D01*
G01*
X107925000Y-49975000D01*
G75*
G02*
X107675000Y-49725000I0J250000D01*
G01*
X107675000Y-48775000D01*
G75*
G02*
X107925000Y-48525000I250000J0D01*
G01*
X108600000Y-48525000D01*
G75*
G02*
X108850000Y-48775000I0J-250000D01*
G01*
G37*
G36*
G01*
X104850000Y-59500000D02*
X105750000Y-59500000D01*
G75*
G02*
X106000000Y-59750000I0J-250000D01*
G01*
X106000000Y-60450000D01*
G75*
G02*
X105750000Y-60700000I-250000J0D01*
G01*
X104850000Y-60700000D01*
G75*
G02*
X104600000Y-60450000I0J250000D01*
G01*
X104600000Y-59750000D01*
G75*
G02*
X104850000Y-59500000I250000J0D01*
G01*
G37*
G36*
G01*
X104850000Y-61500000D02*
X105750000Y-61500000D01*
G75*
G02*
X106000000Y-61750000I0J-250000D01*
G01*
X106000000Y-62450000D01*
G75*
G02*
X105750000Y-62700000I-250000J0D01*
G01*
X104850000Y-62700000D01*
G75*
G02*
X104600000Y-62450000I0J250000D01*
G01*
X104600000Y-61750000D01*
G75*
G02*
X104850000Y-61500000I250000J0D01*
G01*
G37*
G36*
G01*
X118512500Y-49725000D02*
X118512500Y-48775000D01*
G75*
G02*
X118762500Y-48525000I250000J0D01*
G01*
X119437500Y-48525000D01*
G75*
G02*
X119687500Y-48775000I0J-250000D01*
G01*
X119687500Y-49725000D01*
G75*
G02*
X119437500Y-49975000I-250000J0D01*
G01*
X118762500Y-49975000D01*
G75*
G02*
X118512500Y-49725000I0J250000D01*
G01*
G37*
G36*
G01*
X120587500Y-49725000D02*
X120587500Y-48775000D01*
G75*
G02*
X120837500Y-48525000I250000J0D01*
G01*
X121512500Y-48525000D01*
G75*
G02*
X121762500Y-48775000I0J-250000D01*
G01*
X121762500Y-49725000D01*
G75*
G02*
X121512500Y-49975000I-250000J0D01*
G01*
X120837500Y-49975000D01*
G75*
G02*
X120587500Y-49725000I0J250000D01*
G01*
G37*
M02*
