G04 #@! TF.GenerationSoftware,KiCad,Pcbnew,(6.0.6)*
G04 #@! TF.CreationDate,2024-05-02T18:03:26+02:00*
G04 #@! TF.ProjectId,digital-isolator-2t6r,64696769-7461-46c2-9d69-736f6c61746f,rev?*
G04 #@! TF.SameCoordinates,Original*
G04 #@! TF.FileFunction,Paste,Top*
G04 #@! TF.FilePolarity,Positive*
%FSLAX46Y46*%
G04 Gerber Fmt 4.6, Leading zero omitted, Abs format (unit mm)*
G04 Created by KiCad (PCBNEW (6.0.6)) date 2024-05-02 18:03:26*
%MOMM*%
%LPD*%
G01*
G04 APERTURE LIST*
G04 Aperture macros list*
%AMRoundRect*
0 Rectangle with rounded corners*
0 $1 Rounding radius*
0 $2 $3 $4 $5 $6 $7 $8 $9 X,Y pos of 4 corners*
0 Add a 4 corners polygon primitive as box body*
4,1,4,$2,$3,$4,$5,$6,$7,$8,$9,$2,$3,0*
0 Add four circle primitives for the rounded corners*
1,1,$1+$1,$2,$3*
1,1,$1+$1,$4,$5*
1,1,$1+$1,$6,$7*
1,1,$1+$1,$8,$9*
0 Add four rect primitives between the rounded corners*
20,1,$1+$1,$2,$3,$4,$5,0*
20,1,$1+$1,$4,$5,$6,$7,0*
20,1,$1+$1,$6,$7,$8,$9,0*
20,1,$1+$1,$8,$9,$2,$3,0*%
G04 Aperture macros list end*
%ADD10RoundRect,0.250000X0.450000X-0.350000X0.450000X0.350000X-0.450000X0.350000X-0.450000X-0.350000X0*%
%ADD11RoundRect,0.250000X-0.450000X0.350000X-0.450000X-0.350000X0.450000X-0.350000X0.450000X0.350000X0*%
%ADD12RoundRect,0.250000X-0.337500X-0.475000X0.337500X-0.475000X0.337500X0.475000X-0.337500X0.475000X0*%
%ADD13RoundRect,0.150000X-0.875000X-0.150000X0.875000X-0.150000X0.875000X0.150000X-0.875000X0.150000X0*%
%ADD14RoundRect,0.250000X0.337500X0.475000X-0.337500X0.475000X-0.337500X-0.475000X0.337500X-0.475000X0*%
%ADD15RoundRect,0.250000X0.350000X0.450000X-0.350000X0.450000X-0.350000X-0.450000X0.350000X-0.450000X0*%
%ADD16RoundRect,0.250000X-0.350000X-0.450000X0.350000X-0.450000X0.350000X0.450000X-0.350000X0.450000X0*%
G04 APERTURE END LIST*
D10*
X125800000Y-54200000D03*
X125800000Y-52200000D03*
D11*
X124020000Y-38260000D03*
X124020000Y-40260000D03*
X106476800Y-40150800D03*
X106476800Y-38150800D03*
X103759000Y-36846000D03*
X103759000Y-38846000D03*
D10*
X122800000Y-33800000D03*
X122800000Y-31800000D03*
D12*
X119135000Y-27020000D03*
X121210000Y-27020000D03*
D13*
X110210000Y-51645000D03*
X110210000Y-52915000D03*
X110210000Y-54185000D03*
X110210000Y-55455000D03*
X110210000Y-56725000D03*
X110210000Y-57995000D03*
X110210000Y-59265000D03*
X110210000Y-60535000D03*
X119510000Y-60535000D03*
X119510000Y-59265000D03*
X119510000Y-57995000D03*
X119510000Y-56725000D03*
X119510000Y-55455000D03*
X119510000Y-54185000D03*
X119510000Y-52915000D03*
X119510000Y-51645000D03*
D14*
X110325000Y-46950000D03*
X108250000Y-46950000D03*
X110347500Y-27020000D03*
X108272500Y-27020000D03*
D11*
X124660000Y-58330000D03*
X124660000Y-60330000D03*
D10*
X102819200Y-51088800D03*
X102819200Y-49088800D03*
X125000000Y-33800000D03*
X125000000Y-31800000D03*
D13*
X110210000Y-31645000D03*
X110210000Y-32915000D03*
X110210000Y-34185000D03*
X110210000Y-35455000D03*
X110210000Y-36725000D03*
X110210000Y-37995000D03*
X110210000Y-39265000D03*
X110210000Y-40535000D03*
X119510000Y-40535000D03*
X119510000Y-39265000D03*
X119510000Y-37995000D03*
X119510000Y-36725000D03*
X119510000Y-35455000D03*
X119510000Y-34185000D03*
X119510000Y-32915000D03*
X119510000Y-31645000D03*
D10*
X127200000Y-33800000D03*
X127200000Y-31800000D03*
X105638600Y-49326800D03*
X105638600Y-47326800D03*
D14*
X110347500Y-29320000D03*
X108272500Y-29320000D03*
D10*
X123600000Y-54200000D03*
X123600000Y-52200000D03*
D12*
X119122500Y-29320000D03*
X121197500Y-29320000D03*
X119087500Y-46900000D03*
X121162500Y-46900000D03*
D15*
X99053400Y-31750000D03*
X97053400Y-31750000D03*
D10*
X128000000Y-54200000D03*
X128000000Y-52200000D03*
D14*
X110337500Y-49250000D03*
X108262500Y-49250000D03*
D15*
X105622600Y-58267600D03*
X103622600Y-58267600D03*
D12*
X119100000Y-49250000D03*
X121175000Y-49250000D03*
D16*
X121573800Y-42621200D03*
X119573800Y-42621200D03*
D10*
X102844600Y-53041800D03*
X102844600Y-55041800D03*
D11*
X106451400Y-44383200D03*
X106451400Y-42383200D03*
D15*
X105638600Y-61315600D03*
X103638600Y-61315600D03*
X124774200Y-62433200D03*
X122774200Y-62433200D03*
D10*
X102590600Y-32629600D03*
X102590600Y-34629600D03*
M02*
