G04 #@! TF.GenerationSoftware,KiCad,Pcbnew,(6.0.6)*
G04 #@! TF.CreationDate,2023-08-29T14:37:19+02:00*
G04 #@! TF.ProjectId,digital-isolator-2t6r,64696769-7461-46c2-9d69-736f6c61746f,rev?*
G04 #@! TF.SameCoordinates,Original*
G04 #@! TF.FileFunction,Legend,Top*
G04 #@! TF.FilePolarity,Positive*
%FSLAX46Y46*%
G04 Gerber Fmt 4.6, Leading zero omitted, Abs format (unit mm)*
G04 Created by KiCad (PCBNEW (6.0.6)) date 2023-08-29 14:37:19*
%MOMM*%
%LPD*%
G01*
G04 APERTURE LIST*
%ADD10C,0.150000*%
%ADD11C,0.120000*%
%ADD12C,3.200000*%
%ADD13R,1.700000X1.700000*%
%ADD14O,1.700000X1.700000*%
G04 APERTURE END LIST*
D10*
X125500000Y-56166666D02*
X125266666Y-55833333D01*
X125100000Y-56166666D02*
X125100000Y-55466666D01*
X125366666Y-55466666D01*
X125433333Y-55500000D01*
X125466666Y-55533333D01*
X125500000Y-55600000D01*
X125500000Y-55700000D01*
X125466666Y-55766666D01*
X125433333Y-55800000D01*
X125366666Y-55833333D01*
X125100000Y-55833333D01*
X126166666Y-56166666D02*
X125766666Y-56166666D01*
X125966666Y-56166666D02*
X125966666Y-55466666D01*
X125900000Y-55566666D01*
X125833333Y-55633333D01*
X125766666Y-55666666D01*
X126833333Y-56166666D02*
X126433333Y-56166666D01*
X126633333Y-56166666D02*
X126633333Y-55466666D01*
X126566666Y-55566666D01*
X126500000Y-55633333D01*
X126433333Y-55666666D01*
X126203333Y-39576666D02*
X125970000Y-39243333D01*
X125803333Y-39576666D02*
X125803333Y-38876666D01*
X126070000Y-38876666D01*
X126136666Y-38910000D01*
X126170000Y-38943333D01*
X126203333Y-39010000D01*
X126203333Y-39110000D01*
X126170000Y-39176666D01*
X126136666Y-39210000D01*
X126070000Y-39243333D01*
X125803333Y-39243333D01*
X126603333Y-39176666D02*
X126536666Y-39143333D01*
X126503333Y-39110000D01*
X126470000Y-39043333D01*
X126470000Y-39010000D01*
X126503333Y-38943333D01*
X126536666Y-38910000D01*
X126603333Y-38876666D01*
X126736666Y-38876666D01*
X126803333Y-38910000D01*
X126836666Y-38943333D01*
X126870000Y-39010000D01*
X126870000Y-39043333D01*
X126836666Y-39110000D01*
X126803333Y-39143333D01*
X126736666Y-39176666D01*
X126603333Y-39176666D01*
X126536666Y-39210000D01*
X126503333Y-39243333D01*
X126470000Y-39310000D01*
X126470000Y-39443333D01*
X126503333Y-39510000D01*
X126536666Y-39543333D01*
X126603333Y-39576666D01*
X126736666Y-39576666D01*
X126803333Y-39543333D01*
X126836666Y-39510000D01*
X126870000Y-39443333D01*
X126870000Y-39310000D01*
X126836666Y-39243333D01*
X126803333Y-39210000D01*
X126736666Y-39176666D01*
X101383333Y-41356666D02*
X101150000Y-41023333D01*
X100983333Y-41356666D02*
X100983333Y-40656666D01*
X101250000Y-40656666D01*
X101316666Y-40690000D01*
X101350000Y-40723333D01*
X101383333Y-40790000D01*
X101383333Y-40890000D01*
X101350000Y-40956666D01*
X101316666Y-40990000D01*
X101250000Y-41023333D01*
X100983333Y-41023333D01*
X101650000Y-40723333D02*
X101683333Y-40690000D01*
X101750000Y-40656666D01*
X101916666Y-40656666D01*
X101983333Y-40690000D01*
X102016666Y-40723333D01*
X102050000Y-40790000D01*
X102050000Y-40856666D01*
X102016666Y-40956666D01*
X101616666Y-41356666D01*
X102050000Y-41356666D01*
X102633333Y-37816666D02*
X102400000Y-37483333D01*
X102233333Y-37816666D02*
X102233333Y-37116666D01*
X102500000Y-37116666D01*
X102566666Y-37150000D01*
X102600000Y-37183333D01*
X102633333Y-37250000D01*
X102633333Y-37350000D01*
X102600000Y-37416666D01*
X102566666Y-37450000D01*
X102500000Y-37483333D01*
X102233333Y-37483333D01*
X102866666Y-37116666D02*
X103333333Y-37116666D01*
X103033333Y-37816666D01*
X122283333Y-35666666D02*
X122050000Y-35333333D01*
X121883333Y-35666666D02*
X121883333Y-34966666D01*
X122150000Y-34966666D01*
X122216666Y-35000000D01*
X122250000Y-35033333D01*
X122283333Y-35100000D01*
X122283333Y-35200000D01*
X122250000Y-35266666D01*
X122216666Y-35300000D01*
X122150000Y-35333333D01*
X121883333Y-35333333D01*
X122950000Y-35666666D02*
X122550000Y-35666666D01*
X122750000Y-35666666D02*
X122750000Y-34966666D01*
X122683333Y-35066666D01*
X122616666Y-35133333D01*
X122550000Y-35166666D01*
X123133333Y-27250000D02*
X123100000Y-27283333D01*
X123000000Y-27316666D01*
X122933333Y-27316666D01*
X122833333Y-27283333D01*
X122766666Y-27216666D01*
X122733333Y-27150000D01*
X122700000Y-27016666D01*
X122700000Y-26916666D01*
X122733333Y-26783333D01*
X122766666Y-26716666D01*
X122833333Y-26650000D01*
X122933333Y-26616666D01*
X123000000Y-26616666D01*
X123100000Y-26650000D01*
X123133333Y-26683333D01*
X123366666Y-26616666D02*
X123800000Y-26616666D01*
X123566666Y-26883333D01*
X123666666Y-26883333D01*
X123733333Y-26916666D01*
X123766666Y-26950000D01*
X123800000Y-27016666D01*
X123800000Y-27183333D01*
X123766666Y-27250000D01*
X123733333Y-27283333D01*
X123666666Y-27316666D01*
X123466666Y-27316666D01*
X123400000Y-27283333D01*
X123366666Y-27250000D01*
X93866666Y-55116666D02*
X93866666Y-55616666D01*
X93833333Y-55716666D01*
X93766666Y-55783333D01*
X93666666Y-55816666D01*
X93600000Y-55816666D01*
X94166666Y-55183333D02*
X94200000Y-55150000D01*
X94266666Y-55116666D01*
X94433333Y-55116666D01*
X94500000Y-55150000D01*
X94533333Y-55183333D01*
X94566666Y-55250000D01*
X94566666Y-55316666D01*
X94533333Y-55416666D01*
X94133333Y-55816666D01*
X94566666Y-55816666D01*
X114326666Y-49606666D02*
X114326666Y-50173333D01*
X114360000Y-50240000D01*
X114393333Y-50273333D01*
X114460000Y-50306666D01*
X114593333Y-50306666D01*
X114660000Y-50273333D01*
X114693333Y-50240000D01*
X114726666Y-50173333D01*
X114726666Y-49606666D01*
X115026666Y-49673333D02*
X115060000Y-49640000D01*
X115126666Y-49606666D01*
X115293333Y-49606666D01*
X115360000Y-49640000D01*
X115393333Y-49673333D01*
X115426666Y-49740000D01*
X115426666Y-49806666D01*
X115393333Y-49906666D01*
X114993333Y-50306666D01*
X115426666Y-50306666D01*
X106183333Y-47200000D02*
X106150000Y-47233333D01*
X106050000Y-47266666D01*
X105983333Y-47266666D01*
X105883333Y-47233333D01*
X105816666Y-47166666D01*
X105783333Y-47100000D01*
X105750000Y-46966666D01*
X105750000Y-46866666D01*
X105783333Y-46733333D01*
X105816666Y-46666666D01*
X105883333Y-46600000D01*
X105983333Y-46566666D01*
X106050000Y-46566666D01*
X106150000Y-46600000D01*
X106183333Y-46633333D01*
X106816666Y-46566666D02*
X106483333Y-46566666D01*
X106450000Y-46900000D01*
X106483333Y-46866666D01*
X106550000Y-46833333D01*
X106716666Y-46833333D01*
X106783333Y-46866666D01*
X106816666Y-46900000D01*
X106850000Y-46966666D01*
X106850000Y-47133333D01*
X106816666Y-47200000D01*
X106783333Y-47233333D01*
X106716666Y-47266666D01*
X106550000Y-47266666D01*
X106483333Y-47233333D01*
X106450000Y-47200000D01*
X106083333Y-27250000D02*
X106050000Y-27283333D01*
X105950000Y-27316666D01*
X105883333Y-27316666D01*
X105783333Y-27283333D01*
X105716666Y-27216666D01*
X105683333Y-27150000D01*
X105650000Y-27016666D01*
X105650000Y-26916666D01*
X105683333Y-26783333D01*
X105716666Y-26716666D01*
X105783333Y-26650000D01*
X105883333Y-26616666D01*
X105950000Y-26616666D01*
X106050000Y-26650000D01*
X106083333Y-26683333D01*
X106750000Y-27316666D02*
X106350000Y-27316666D01*
X106550000Y-27316666D02*
X106550000Y-26616666D01*
X106483333Y-26716666D01*
X106416666Y-26783333D01*
X106350000Y-26816666D01*
X125660000Y-62646666D02*
X125426666Y-62313333D01*
X125260000Y-62646666D02*
X125260000Y-61946666D01*
X125526666Y-61946666D01*
X125593333Y-61980000D01*
X125626666Y-62013333D01*
X125660000Y-62080000D01*
X125660000Y-62180000D01*
X125626666Y-62246666D01*
X125593333Y-62280000D01*
X125526666Y-62313333D01*
X125260000Y-62313333D01*
X126326666Y-62646666D02*
X125926666Y-62646666D01*
X126126666Y-62646666D02*
X126126666Y-61946666D01*
X126060000Y-62046666D01*
X125993333Y-62113333D01*
X125926666Y-62146666D01*
X126926666Y-61946666D02*
X126793333Y-61946666D01*
X126726666Y-61980000D01*
X126693333Y-62013333D01*
X126626666Y-62113333D01*
X126593333Y-62246666D01*
X126593333Y-62513333D01*
X126626666Y-62580000D01*
X126660000Y-62613333D01*
X126726666Y-62646666D01*
X126860000Y-62646666D01*
X126926666Y-62613333D01*
X126960000Y-62580000D01*
X126993333Y-62513333D01*
X126993333Y-62346666D01*
X126960000Y-62280000D01*
X126926666Y-62246666D01*
X126860000Y-62213333D01*
X126726666Y-62213333D01*
X126660000Y-62246666D01*
X126626666Y-62280000D01*
X126593333Y-62346666D01*
X102250000Y-58966666D02*
X102016666Y-58633333D01*
X101850000Y-58966666D02*
X101850000Y-58266666D01*
X102116666Y-58266666D01*
X102183333Y-58300000D01*
X102216666Y-58333333D01*
X102250000Y-58400000D01*
X102250000Y-58500000D01*
X102216666Y-58566666D01*
X102183333Y-58600000D01*
X102116666Y-58633333D01*
X101850000Y-58633333D01*
X102916666Y-58966666D02*
X102516666Y-58966666D01*
X102716666Y-58966666D02*
X102716666Y-58266666D01*
X102650000Y-58366666D01*
X102583333Y-58433333D01*
X102516666Y-58466666D01*
X103516666Y-58500000D02*
X103516666Y-58966666D01*
X103350000Y-58233333D02*
X103183333Y-58733333D01*
X103616666Y-58733333D01*
X124883333Y-35666666D02*
X124650000Y-35333333D01*
X124483333Y-35666666D02*
X124483333Y-34966666D01*
X124750000Y-34966666D01*
X124816666Y-35000000D01*
X124850000Y-35033333D01*
X124883333Y-35100000D01*
X124883333Y-35200000D01*
X124850000Y-35266666D01*
X124816666Y-35300000D01*
X124750000Y-35333333D01*
X124483333Y-35333333D01*
X125116666Y-34966666D02*
X125550000Y-34966666D01*
X125316666Y-35233333D01*
X125416666Y-35233333D01*
X125483333Y-35266666D01*
X125516666Y-35300000D01*
X125550000Y-35366666D01*
X125550000Y-35533333D01*
X125516666Y-35600000D01*
X125483333Y-35633333D01*
X125416666Y-35666666D01*
X125216666Y-35666666D01*
X125150000Y-35633333D01*
X125116666Y-35600000D01*
X114326666Y-29606666D02*
X114326666Y-30173333D01*
X114360000Y-30240000D01*
X114393333Y-30273333D01*
X114460000Y-30306666D01*
X114593333Y-30306666D01*
X114660000Y-30273333D01*
X114693333Y-30240000D01*
X114726666Y-30173333D01*
X114726666Y-29606666D01*
X115426666Y-30306666D02*
X115026666Y-30306666D01*
X115226666Y-30306666D02*
X115226666Y-29606666D01*
X115160000Y-29706666D01*
X115093333Y-29773333D01*
X115026666Y-29806666D01*
X127833333Y-35716666D02*
X127600000Y-35383333D01*
X127433333Y-35716666D02*
X127433333Y-35016666D01*
X127700000Y-35016666D01*
X127766666Y-35050000D01*
X127800000Y-35083333D01*
X127833333Y-35150000D01*
X127833333Y-35250000D01*
X127800000Y-35316666D01*
X127766666Y-35350000D01*
X127700000Y-35383333D01*
X127433333Y-35383333D01*
X128433333Y-35250000D02*
X128433333Y-35716666D01*
X128266666Y-34983333D02*
X128100000Y-35483333D01*
X128533333Y-35483333D01*
X103650000Y-53216666D02*
X103416666Y-52883333D01*
X103250000Y-53216666D02*
X103250000Y-52516666D01*
X103516666Y-52516666D01*
X103583333Y-52550000D01*
X103616666Y-52583333D01*
X103650000Y-52650000D01*
X103650000Y-52750000D01*
X103616666Y-52816666D01*
X103583333Y-52850000D01*
X103516666Y-52883333D01*
X103250000Y-52883333D01*
X104316666Y-53216666D02*
X103916666Y-53216666D01*
X104116666Y-53216666D02*
X104116666Y-52516666D01*
X104050000Y-52616666D01*
X103983333Y-52683333D01*
X103916666Y-52716666D01*
X104550000Y-52516666D02*
X104983333Y-52516666D01*
X104750000Y-52783333D01*
X104850000Y-52783333D01*
X104916666Y-52816666D01*
X104950000Y-52850000D01*
X104983333Y-52916666D01*
X104983333Y-53083333D01*
X104950000Y-53150000D01*
X104916666Y-53183333D01*
X104850000Y-53216666D01*
X104650000Y-53216666D01*
X104583333Y-53183333D01*
X104550000Y-53150000D01*
X105983333Y-29550000D02*
X105950000Y-29583333D01*
X105850000Y-29616666D01*
X105783333Y-29616666D01*
X105683333Y-29583333D01*
X105616666Y-29516666D01*
X105583333Y-29450000D01*
X105550000Y-29316666D01*
X105550000Y-29216666D01*
X105583333Y-29083333D01*
X105616666Y-29016666D01*
X105683333Y-28950000D01*
X105783333Y-28916666D01*
X105850000Y-28916666D01*
X105950000Y-28950000D01*
X105983333Y-28983333D01*
X106250000Y-28983333D02*
X106283333Y-28950000D01*
X106350000Y-28916666D01*
X106516666Y-28916666D01*
X106583333Y-28950000D01*
X106616666Y-28983333D01*
X106650000Y-29050000D01*
X106650000Y-29116666D01*
X106616666Y-29216666D01*
X106216666Y-29616666D01*
X106650000Y-29616666D01*
X137516666Y-32821666D02*
X137516666Y-33321666D01*
X137483333Y-33421666D01*
X137416666Y-33488333D01*
X137316666Y-33521666D01*
X137250000Y-33521666D01*
X138216666Y-33521666D02*
X137816666Y-33521666D01*
X138016666Y-33521666D02*
X138016666Y-32821666D01*
X137950000Y-32921666D01*
X137883333Y-32988333D01*
X137816666Y-33021666D01*
X123183333Y-56166666D02*
X122950000Y-55833333D01*
X122783333Y-56166666D02*
X122783333Y-55466666D01*
X123050000Y-55466666D01*
X123116666Y-55500000D01*
X123150000Y-55533333D01*
X123183333Y-55600000D01*
X123183333Y-55700000D01*
X123150000Y-55766666D01*
X123116666Y-55800000D01*
X123050000Y-55833333D01*
X122783333Y-55833333D01*
X123516666Y-56166666D02*
X123650000Y-56166666D01*
X123716666Y-56133333D01*
X123750000Y-56100000D01*
X123816666Y-56000000D01*
X123850000Y-55866666D01*
X123850000Y-55600000D01*
X123816666Y-55533333D01*
X123783333Y-55500000D01*
X123716666Y-55466666D01*
X123583333Y-55466666D01*
X123516666Y-55500000D01*
X123483333Y-55533333D01*
X123450000Y-55600000D01*
X123450000Y-55766666D01*
X123483333Y-55833333D01*
X123516666Y-55866666D01*
X123583333Y-55900000D01*
X123716666Y-55900000D01*
X123783333Y-55866666D01*
X123816666Y-55833333D01*
X123850000Y-55766666D01*
X123183333Y-29550000D02*
X123150000Y-29583333D01*
X123050000Y-29616666D01*
X122983333Y-29616666D01*
X122883333Y-29583333D01*
X122816666Y-29516666D01*
X122783333Y-29450000D01*
X122750000Y-29316666D01*
X122750000Y-29216666D01*
X122783333Y-29083333D01*
X122816666Y-29016666D01*
X122883333Y-28950000D01*
X122983333Y-28916666D01*
X123050000Y-28916666D01*
X123150000Y-28950000D01*
X123183333Y-28983333D01*
X123783333Y-29150000D02*
X123783333Y-29616666D01*
X123616666Y-28883333D02*
X123450000Y-29383333D01*
X123883333Y-29383333D01*
X123183333Y-47150000D02*
X123150000Y-47183333D01*
X123050000Y-47216666D01*
X122983333Y-47216666D01*
X122883333Y-47183333D01*
X122816666Y-47116666D01*
X122783333Y-47050000D01*
X122750000Y-46916666D01*
X122750000Y-46816666D01*
X122783333Y-46683333D01*
X122816666Y-46616666D01*
X122883333Y-46550000D01*
X122983333Y-46516666D01*
X123050000Y-46516666D01*
X123150000Y-46550000D01*
X123183333Y-46583333D01*
X123416666Y-46516666D02*
X123883333Y-46516666D01*
X123583333Y-47216666D01*
X102683333Y-32366666D02*
X102450000Y-32033333D01*
X102283333Y-32366666D02*
X102283333Y-31666666D01*
X102550000Y-31666666D01*
X102616666Y-31700000D01*
X102650000Y-31733333D01*
X102683333Y-31800000D01*
X102683333Y-31900000D01*
X102650000Y-31966666D01*
X102616666Y-32000000D01*
X102550000Y-32033333D01*
X102283333Y-32033333D01*
X103316666Y-31666666D02*
X102983333Y-31666666D01*
X102950000Y-32000000D01*
X102983333Y-31966666D01*
X103050000Y-31933333D01*
X103216666Y-31933333D01*
X103283333Y-31966666D01*
X103316666Y-32000000D01*
X103350000Y-32066666D01*
X103350000Y-32233333D01*
X103316666Y-32300000D01*
X103283333Y-32333333D01*
X103216666Y-32366666D01*
X103050000Y-32366666D01*
X102983333Y-32333333D01*
X102950000Y-32300000D01*
X128550000Y-56166666D02*
X128316666Y-55833333D01*
X128150000Y-56166666D02*
X128150000Y-55466666D01*
X128416666Y-55466666D01*
X128483333Y-55500000D01*
X128516666Y-55533333D01*
X128550000Y-55600000D01*
X128550000Y-55700000D01*
X128516666Y-55766666D01*
X128483333Y-55800000D01*
X128416666Y-55833333D01*
X128150000Y-55833333D01*
X129216666Y-56166666D02*
X128816666Y-56166666D01*
X129016666Y-56166666D02*
X129016666Y-55466666D01*
X128950000Y-55566666D01*
X128883333Y-55633333D01*
X128816666Y-55666666D01*
X129483333Y-55533333D02*
X129516666Y-55500000D01*
X129583333Y-55466666D01*
X129750000Y-55466666D01*
X129816666Y-55500000D01*
X129850000Y-55533333D01*
X129883333Y-55600000D01*
X129883333Y-55666666D01*
X129850000Y-55766666D01*
X129450000Y-56166666D01*
X129883333Y-56166666D01*
X106183333Y-49500000D02*
X106150000Y-49533333D01*
X106050000Y-49566666D01*
X105983333Y-49566666D01*
X105883333Y-49533333D01*
X105816666Y-49466666D01*
X105783333Y-49400000D01*
X105750000Y-49266666D01*
X105750000Y-49166666D01*
X105783333Y-49033333D01*
X105816666Y-48966666D01*
X105883333Y-48900000D01*
X105983333Y-48866666D01*
X106050000Y-48866666D01*
X106150000Y-48900000D01*
X106183333Y-48933333D01*
X106783333Y-48866666D02*
X106650000Y-48866666D01*
X106583333Y-48900000D01*
X106550000Y-48933333D01*
X106483333Y-49033333D01*
X106450000Y-49166666D01*
X106450000Y-49433333D01*
X106483333Y-49500000D01*
X106516666Y-49533333D01*
X106583333Y-49566666D01*
X106716666Y-49566666D01*
X106783333Y-49533333D01*
X106816666Y-49500000D01*
X106850000Y-49433333D01*
X106850000Y-49266666D01*
X106816666Y-49200000D01*
X106783333Y-49166666D01*
X106716666Y-49133333D01*
X106583333Y-49133333D01*
X106516666Y-49166666D01*
X106483333Y-49200000D01*
X106450000Y-49266666D01*
X102150000Y-61466666D02*
X101916666Y-61133333D01*
X101750000Y-61466666D02*
X101750000Y-60766666D01*
X102016666Y-60766666D01*
X102083333Y-60800000D01*
X102116666Y-60833333D01*
X102150000Y-60900000D01*
X102150000Y-61000000D01*
X102116666Y-61066666D01*
X102083333Y-61100000D01*
X102016666Y-61133333D01*
X101750000Y-61133333D01*
X102816666Y-61466666D02*
X102416666Y-61466666D01*
X102616666Y-61466666D02*
X102616666Y-60766666D01*
X102550000Y-60866666D01*
X102483333Y-60933333D01*
X102416666Y-60966666D01*
X103250000Y-60766666D02*
X103316666Y-60766666D01*
X103383333Y-60800000D01*
X103416666Y-60833333D01*
X103450000Y-60900000D01*
X103483333Y-61033333D01*
X103483333Y-61200000D01*
X103450000Y-61333333D01*
X103416666Y-61400000D01*
X103383333Y-61433333D01*
X103316666Y-61466666D01*
X103250000Y-61466666D01*
X103183333Y-61433333D01*
X103150000Y-61400000D01*
X103116666Y-61333333D01*
X103083333Y-61200000D01*
X103083333Y-61033333D01*
X103116666Y-60900000D01*
X103150000Y-60833333D01*
X103183333Y-60800000D01*
X103250000Y-60766666D01*
X123183333Y-49550000D02*
X123150000Y-49583333D01*
X123050000Y-49616666D01*
X122983333Y-49616666D01*
X122883333Y-49583333D01*
X122816666Y-49516666D01*
X122783333Y-49450000D01*
X122750000Y-49316666D01*
X122750000Y-49216666D01*
X122783333Y-49083333D01*
X122816666Y-49016666D01*
X122883333Y-48950000D01*
X122983333Y-48916666D01*
X123050000Y-48916666D01*
X123150000Y-48950000D01*
X123183333Y-48983333D01*
X123583333Y-49216666D02*
X123516666Y-49183333D01*
X123483333Y-49150000D01*
X123450000Y-49083333D01*
X123450000Y-49050000D01*
X123483333Y-48983333D01*
X123516666Y-48950000D01*
X123583333Y-48916666D01*
X123716666Y-48916666D01*
X123783333Y-48950000D01*
X123816666Y-48983333D01*
X123850000Y-49050000D01*
X123850000Y-49083333D01*
X123816666Y-49150000D01*
X123783333Y-49183333D01*
X123716666Y-49216666D01*
X123583333Y-49216666D01*
X123516666Y-49250000D01*
X123483333Y-49283333D01*
X123450000Y-49350000D01*
X123450000Y-49483333D01*
X123483333Y-49550000D01*
X123516666Y-49583333D01*
X123583333Y-49616666D01*
X123716666Y-49616666D01*
X123783333Y-49583333D01*
X123816666Y-49550000D01*
X123850000Y-49483333D01*
X123850000Y-49350000D01*
X123816666Y-49283333D01*
X123783333Y-49250000D01*
X123716666Y-49216666D01*
D11*
X125065000Y-53427064D02*
X125065000Y-52972936D01*
X126535000Y-53427064D02*
X126535000Y-52972936D01*
X123285000Y-39032936D02*
X123285000Y-39487064D01*
X124755000Y-39032936D02*
X124755000Y-39487064D01*
X102825000Y-40832936D02*
X102825000Y-41287064D01*
X104295000Y-40832936D02*
X104295000Y-41287064D01*
X104075000Y-37297064D02*
X104075000Y-36842936D01*
X105545000Y-37297064D02*
X105545000Y-36842936D01*
X123535000Y-33027064D02*
X123535000Y-32572936D01*
X122065000Y-33027064D02*
X122065000Y-32572936D01*
X119911248Y-26285000D02*
X120433752Y-26285000D01*
X119911248Y-27755000D02*
X120433752Y-27755000D01*
X95070000Y-39305000D02*
X92410000Y-39305000D01*
X92410000Y-53115000D02*
X86410000Y-53115000D01*
X97940000Y-52895000D02*
X97552929Y-52895000D01*
X98007071Y-35115000D02*
X97552929Y-35115000D01*
X86410000Y-50355000D02*
X92410000Y-50355000D01*
X95467071Y-47815000D02*
X95070000Y-47815000D01*
X98007071Y-38415000D02*
X97552929Y-38415000D01*
X100320000Y-54545000D02*
X99050000Y-54545000D01*
X86410000Y-52895000D02*
X92410000Y-52895000D01*
X98007071Y-46035000D02*
X97552929Y-46035000D01*
X98007071Y-40955000D02*
X97552929Y-40955000D01*
X92410000Y-35875000D02*
X86410000Y-35875000D01*
X98007071Y-37655000D02*
X97552929Y-37655000D01*
X92410000Y-43495000D02*
X86410000Y-43495000D01*
X95070000Y-44385000D02*
X92410000Y-44385000D01*
X86410000Y-38415000D02*
X86410000Y-37655000D01*
X95467071Y-35875000D02*
X95070000Y-35875000D01*
X92410000Y-52995000D02*
X86410000Y-52995000D01*
X92410000Y-40955000D02*
X86410000Y-40955000D01*
X92410000Y-48575000D02*
X86410000Y-48575000D01*
X92410000Y-53235000D02*
X86410000Y-53235000D01*
X86410000Y-40955000D02*
X86410000Y-40195000D01*
X95467071Y-53655000D02*
X95070000Y-53655000D01*
X95467071Y-52895000D02*
X95070000Y-52895000D01*
X92410000Y-34165000D02*
X92410000Y-54605000D01*
X92410000Y-46035000D02*
X86410000Y-46035000D01*
X98007071Y-43495000D02*
X97552929Y-43495000D01*
X98007071Y-50355000D02*
X97552929Y-50355000D01*
X95070000Y-46925000D02*
X92410000Y-46925000D01*
X98007071Y-35875000D02*
X97552929Y-35875000D01*
X95070000Y-36765000D02*
X92410000Y-36765000D01*
X95070000Y-52005000D02*
X92410000Y-52005000D01*
X98007071Y-48575000D02*
X97552929Y-48575000D01*
X86410000Y-35875000D02*
X86410000Y-35115000D01*
X95467071Y-51115000D02*
X95070000Y-51115000D01*
X95467071Y-40195000D02*
X95070000Y-40195000D01*
X95467071Y-37655000D02*
X95070000Y-37655000D01*
X86410000Y-35115000D02*
X92410000Y-35115000D01*
X97940000Y-53655000D02*
X97552929Y-53655000D01*
X86410000Y-51115000D02*
X86410000Y-50355000D01*
X92410000Y-53475000D02*
X86410000Y-53475000D01*
X95467071Y-50355000D02*
X95070000Y-50355000D01*
X95467071Y-46035000D02*
X95070000Y-46035000D01*
X86410000Y-43495000D02*
X86410000Y-42735000D01*
X92410000Y-54605000D02*
X95070000Y-54605000D01*
X95467071Y-40955000D02*
X95070000Y-40955000D01*
X95070000Y-54605000D02*
X95070000Y-34165000D01*
X95070000Y-41845000D02*
X92410000Y-41845000D01*
X86410000Y-40195000D02*
X92410000Y-40195000D01*
X92410000Y-53355000D02*
X86410000Y-53355000D01*
X92410000Y-53655000D02*
X86410000Y-53655000D01*
X95467071Y-42735000D02*
X95070000Y-42735000D01*
X95070000Y-49465000D02*
X92410000Y-49465000D01*
X92410000Y-38415000D02*
X86410000Y-38415000D01*
X98007071Y-42735000D02*
X97552929Y-42735000D01*
X98007071Y-45275000D02*
X97552929Y-45275000D01*
X86410000Y-46035000D02*
X86410000Y-45275000D01*
X95467071Y-38415000D02*
X95070000Y-38415000D01*
X98007071Y-40195000D02*
X97552929Y-40195000D01*
X98007071Y-47815000D02*
X97552929Y-47815000D01*
X95467071Y-35115000D02*
X95070000Y-35115000D01*
X95467071Y-43495000D02*
X95070000Y-43495000D01*
X86410000Y-47815000D02*
X92410000Y-47815000D01*
X86410000Y-53655000D02*
X86410000Y-52895000D01*
X95467071Y-48575000D02*
X95070000Y-48575000D01*
X95467071Y-45275000D02*
X95070000Y-45275000D01*
X92410000Y-53595000D02*
X86410000Y-53595000D01*
X86410000Y-37655000D02*
X92410000Y-37655000D01*
X95070000Y-34165000D02*
X92410000Y-34165000D01*
X92410000Y-51115000D02*
X86410000Y-51115000D01*
X86410000Y-48575000D02*
X86410000Y-47815000D01*
X86410000Y-45275000D02*
X92410000Y-45275000D01*
X98007071Y-51115000D02*
X97552929Y-51115000D01*
X86410000Y-42735000D02*
X92410000Y-42735000D01*
X100320000Y-53275000D02*
X100320000Y-54545000D01*
X111000000Y-50830000D02*
X111000000Y-51085000D01*
X118720000Y-50830000D02*
X118720000Y-51085000D01*
X118720000Y-61350000D02*
X118720000Y-61095000D01*
X114860000Y-50830000D02*
X118720000Y-50830000D01*
X114860000Y-61350000D02*
X118720000Y-61350000D01*
X114860000Y-61350000D02*
X111000000Y-61350000D01*
X111000000Y-51085000D02*
X109185000Y-51085000D01*
X114860000Y-50830000D02*
X111000000Y-50830000D01*
X111000000Y-61350000D02*
X111000000Y-61095000D01*
X109548752Y-47685000D02*
X109026248Y-47685000D01*
X109548752Y-46215000D02*
X109026248Y-46215000D01*
X109571252Y-26285000D02*
X109048748Y-26285000D01*
X109571252Y-27755000D02*
X109048748Y-27755000D01*
X125395000Y-59102936D02*
X125395000Y-59557064D01*
X123925000Y-59102936D02*
X123925000Y-59557064D01*
X106035000Y-56822936D02*
X106035000Y-57277064D01*
X104565000Y-56822936D02*
X104565000Y-57277064D01*
X125735000Y-33027064D02*
X125735000Y-32572936D01*
X124265000Y-33027064D02*
X124265000Y-32572936D01*
X114860000Y-30830000D02*
X111000000Y-30830000D01*
X111000000Y-30830000D02*
X111000000Y-31085000D01*
X114860000Y-41350000D02*
X118720000Y-41350000D01*
X111000000Y-41350000D02*
X111000000Y-41095000D01*
X118720000Y-41350000D02*
X118720000Y-41095000D01*
X111000000Y-31085000D02*
X109185000Y-31085000D01*
X114860000Y-30830000D02*
X118720000Y-30830000D01*
X118720000Y-30830000D02*
X118720000Y-31085000D01*
X114860000Y-41350000D02*
X111000000Y-41350000D01*
X126465000Y-33027064D02*
X126465000Y-32572936D01*
X127935000Y-33027064D02*
X127935000Y-32572936D01*
X107535000Y-53177064D02*
X107535000Y-52722936D01*
X106065000Y-53177064D02*
X106065000Y-52722936D01*
X109571252Y-30055000D02*
X109048748Y-30055000D01*
X109571252Y-28585000D02*
X109048748Y-28585000D01*
X145440000Y-52875000D02*
X145440000Y-53635000D01*
X133842929Y-40175000D02*
X134297071Y-40175000D01*
X145440000Y-37635000D02*
X145440000Y-38395000D01*
X133842929Y-48555000D02*
X134297071Y-48555000D01*
X145440000Y-40175000D02*
X145440000Y-40935000D01*
X133910000Y-35855000D02*
X134297071Y-35855000D01*
X139440000Y-42715000D02*
X145440000Y-42715000D01*
X139440000Y-45255000D02*
X145440000Y-45255000D01*
X139440000Y-35095000D02*
X145440000Y-35095000D01*
X136382929Y-35855000D02*
X136780000Y-35855000D01*
X136382929Y-48555000D02*
X136780000Y-48555000D01*
X136780000Y-36745000D02*
X139440000Y-36745000D01*
X145440000Y-50335000D02*
X145440000Y-51095000D01*
X145440000Y-35095000D02*
X145440000Y-35855000D01*
X136382929Y-37635000D02*
X136780000Y-37635000D01*
X139440000Y-35635000D02*
X145440000Y-35635000D01*
X133842929Y-51095000D02*
X134297071Y-51095000D01*
X139440000Y-35155000D02*
X145440000Y-35155000D01*
X139440000Y-35275000D02*
X145440000Y-35275000D01*
X133842929Y-38395000D02*
X134297071Y-38395000D01*
X136780000Y-54585000D02*
X139440000Y-54585000D01*
X136382929Y-40935000D02*
X136780000Y-40935000D01*
X133842929Y-47795000D02*
X134297071Y-47795000D01*
X139440000Y-35515000D02*
X145440000Y-35515000D01*
X139440000Y-50335000D02*
X145440000Y-50335000D01*
X133842929Y-42715000D02*
X134297071Y-42715000D01*
X136780000Y-49445000D02*
X139440000Y-49445000D01*
X133842929Y-40935000D02*
X134297071Y-40935000D01*
X145440000Y-35855000D02*
X139440000Y-35855000D01*
X136382929Y-40175000D02*
X136780000Y-40175000D01*
X145440000Y-51095000D02*
X139440000Y-51095000D01*
X136780000Y-44365000D02*
X139440000Y-44365000D01*
X136382929Y-42715000D02*
X136780000Y-42715000D01*
X133842929Y-53635000D02*
X134297071Y-53635000D01*
X133842929Y-52875000D02*
X134297071Y-52875000D01*
X136780000Y-39285000D02*
X139440000Y-39285000D01*
X139440000Y-34145000D02*
X136780000Y-34145000D01*
X136382929Y-51095000D02*
X136780000Y-51095000D01*
X145440000Y-38395000D02*
X139440000Y-38395000D01*
X145440000Y-47795000D02*
X145440000Y-48555000D01*
X139440000Y-54585000D02*
X139440000Y-34145000D01*
X139440000Y-35755000D02*
X145440000Y-35755000D01*
X136382929Y-45255000D02*
X136780000Y-45255000D01*
X133842929Y-45255000D02*
X134297071Y-45255000D01*
X136780000Y-34145000D02*
X136780000Y-54585000D01*
X136382929Y-47795000D02*
X136780000Y-47795000D01*
X133842929Y-50335000D02*
X134297071Y-50335000D01*
X145440000Y-42715000D02*
X145440000Y-43475000D01*
X139440000Y-52875000D02*
X145440000Y-52875000D01*
X133842929Y-37635000D02*
X134297071Y-37635000D01*
X139440000Y-40175000D02*
X145440000Y-40175000D01*
X136382929Y-43475000D02*
X136780000Y-43475000D01*
X131530000Y-34205000D02*
X132800000Y-34205000D01*
X145440000Y-53635000D02*
X139440000Y-53635000D01*
X139440000Y-37635000D02*
X145440000Y-37635000D01*
X136382929Y-38395000D02*
X136780000Y-38395000D01*
X145440000Y-45255000D02*
X145440000Y-46015000D01*
X133910000Y-35095000D02*
X134297071Y-35095000D01*
X136382929Y-46015000D02*
X136780000Y-46015000D01*
X136382929Y-52875000D02*
X136780000Y-52875000D01*
X136382929Y-50335000D02*
X136780000Y-50335000D01*
X145440000Y-46015000D02*
X139440000Y-46015000D01*
X136780000Y-46905000D02*
X139440000Y-46905000D01*
X139440000Y-35395000D02*
X145440000Y-35395000D01*
X133842929Y-46015000D02*
X134297071Y-46015000D01*
X131530000Y-35475000D02*
X131530000Y-34205000D01*
X145440000Y-43475000D02*
X139440000Y-43475000D01*
X145440000Y-48555000D02*
X139440000Y-48555000D01*
X136382929Y-53635000D02*
X136780000Y-53635000D01*
X136780000Y-51985000D02*
X139440000Y-51985000D01*
X136382929Y-35095000D02*
X136780000Y-35095000D01*
X145440000Y-40935000D02*
X139440000Y-40935000D01*
X139440000Y-47795000D02*
X145440000Y-47795000D01*
X136780000Y-41825000D02*
X139440000Y-41825000D01*
X133842929Y-43475000D02*
X134297071Y-43475000D01*
X124335000Y-53427064D02*
X124335000Y-52972936D01*
X122865000Y-53427064D02*
X122865000Y-52972936D01*
X119898748Y-30055000D02*
X120421252Y-30055000D01*
X119898748Y-28585000D02*
X120421252Y-28585000D01*
X119863748Y-47635000D02*
X120386252Y-47635000D01*
X119863748Y-46165000D02*
X120386252Y-46165000D01*
X105545000Y-32842936D02*
X105545000Y-33297064D01*
X104075000Y-32842936D02*
X104075000Y-33297064D01*
X127265000Y-53427064D02*
X127265000Y-52972936D01*
X128735000Y-53427064D02*
X128735000Y-52972936D01*
X109561252Y-48515000D02*
X109038748Y-48515000D01*
X109561252Y-49985000D02*
X109038748Y-49985000D01*
X104565000Y-60872936D02*
X104565000Y-61327064D01*
X106035000Y-60872936D02*
X106035000Y-61327064D01*
X119876248Y-48515000D02*
X120398752Y-48515000D01*
X119876248Y-49985000D02*
X120398752Y-49985000D01*
%LPC*%
G36*
G01*
X126250000Y-54800000D02*
X125350000Y-54800000D01*
G75*
G02*
X125100000Y-54550000I0J250000D01*
G01*
X125100000Y-53850000D01*
G75*
G02*
X125350000Y-53600000I250000J0D01*
G01*
X126250000Y-53600000D01*
G75*
G02*
X126500000Y-53850000I0J-250000D01*
G01*
X126500000Y-54550000D01*
G75*
G02*
X126250000Y-54800000I-250000J0D01*
G01*
G37*
G36*
G01*
X126250000Y-52800000D02*
X125350000Y-52800000D01*
G75*
G02*
X125100000Y-52550000I0J250000D01*
G01*
X125100000Y-51850000D01*
G75*
G02*
X125350000Y-51600000I250000J0D01*
G01*
X126250000Y-51600000D01*
G75*
G02*
X126500000Y-51850000I0J-250000D01*
G01*
X126500000Y-52550000D01*
G75*
G02*
X126250000Y-52800000I-250000J0D01*
G01*
G37*
G36*
G01*
X123570000Y-37660000D02*
X124470000Y-37660000D01*
G75*
G02*
X124720000Y-37910000I0J-250000D01*
G01*
X124720000Y-38610000D01*
G75*
G02*
X124470000Y-38860000I-250000J0D01*
G01*
X123570000Y-38860000D01*
G75*
G02*
X123320000Y-38610000I0J250000D01*
G01*
X123320000Y-37910000D01*
G75*
G02*
X123570000Y-37660000I250000J0D01*
G01*
G37*
G36*
G01*
X123570000Y-39660000D02*
X124470000Y-39660000D01*
G75*
G02*
X124720000Y-39910000I0J-250000D01*
G01*
X124720000Y-40610000D01*
G75*
G02*
X124470000Y-40860000I-250000J0D01*
G01*
X123570000Y-40860000D01*
G75*
G02*
X123320000Y-40610000I0J250000D01*
G01*
X123320000Y-39910000D01*
G75*
G02*
X123570000Y-39660000I250000J0D01*
G01*
G37*
D12*
X136420000Y-25850000D03*
G36*
G01*
X103110000Y-39460000D02*
X104010000Y-39460000D01*
G75*
G02*
X104260000Y-39710000I0J-250000D01*
G01*
X104260000Y-40410000D01*
G75*
G02*
X104010000Y-40660000I-250000J0D01*
G01*
X103110000Y-40660000D01*
G75*
G02*
X102860000Y-40410000I0J250000D01*
G01*
X102860000Y-39710000D01*
G75*
G02*
X103110000Y-39460000I250000J0D01*
G01*
G37*
G36*
G01*
X103110000Y-41460000D02*
X104010000Y-41460000D01*
G75*
G02*
X104260000Y-41710000I0J-250000D01*
G01*
X104260000Y-42410000D01*
G75*
G02*
X104010000Y-42660000I-250000J0D01*
G01*
X103110000Y-42660000D01*
G75*
G02*
X102860000Y-42410000I0J250000D01*
G01*
X102860000Y-41710000D01*
G75*
G02*
X103110000Y-41460000I250000J0D01*
G01*
G37*
G36*
G01*
X105260000Y-38670000D02*
X104360000Y-38670000D01*
G75*
G02*
X104110000Y-38420000I0J250000D01*
G01*
X104110000Y-37720000D01*
G75*
G02*
X104360000Y-37470000I250000J0D01*
G01*
X105260000Y-37470000D01*
G75*
G02*
X105510000Y-37720000I0J-250000D01*
G01*
X105510000Y-38420000D01*
G75*
G02*
X105260000Y-38670000I-250000J0D01*
G01*
G37*
G36*
G01*
X105260000Y-36670000D02*
X104360000Y-36670000D01*
G75*
G02*
X104110000Y-36420000I0J250000D01*
G01*
X104110000Y-35720000D01*
G75*
G02*
X104360000Y-35470000I250000J0D01*
G01*
X105260000Y-35470000D01*
G75*
G02*
X105510000Y-35720000I0J-250000D01*
G01*
X105510000Y-36420000D01*
G75*
G02*
X105260000Y-36670000I-250000J0D01*
G01*
G37*
G36*
G01*
X123250000Y-34400000D02*
X122350000Y-34400000D01*
G75*
G02*
X122100000Y-34150000I0J250000D01*
G01*
X122100000Y-33450000D01*
G75*
G02*
X122350000Y-33200000I250000J0D01*
G01*
X123250000Y-33200000D01*
G75*
G02*
X123500000Y-33450000I0J-250000D01*
G01*
X123500000Y-34150000D01*
G75*
G02*
X123250000Y-34400000I-250000J0D01*
G01*
G37*
G36*
G01*
X123250000Y-32400000D02*
X122350000Y-32400000D01*
G75*
G02*
X122100000Y-32150000I0J250000D01*
G01*
X122100000Y-31450000D01*
G75*
G02*
X122350000Y-31200000I250000J0D01*
G01*
X123250000Y-31200000D01*
G75*
G02*
X123500000Y-31450000I0J-250000D01*
G01*
X123500000Y-32150000D01*
G75*
G02*
X123250000Y-32400000I-250000J0D01*
G01*
G37*
G36*
G01*
X118547500Y-27495000D02*
X118547500Y-26545000D01*
G75*
G02*
X118797500Y-26295000I250000J0D01*
G01*
X119472500Y-26295000D01*
G75*
G02*
X119722500Y-26545000I0J-250000D01*
G01*
X119722500Y-27495000D01*
G75*
G02*
X119472500Y-27745000I-250000J0D01*
G01*
X118797500Y-27745000D01*
G75*
G02*
X118547500Y-27495000I0J250000D01*
G01*
G37*
G36*
G01*
X120622500Y-27495000D02*
X120622500Y-26545000D01*
G75*
G02*
X120872500Y-26295000I250000J0D01*
G01*
X121547500Y-26295000D01*
G75*
G02*
X121797500Y-26545000I0J-250000D01*
G01*
X121797500Y-27495000D01*
G75*
G02*
X121547500Y-27745000I-250000J0D01*
G01*
X120872500Y-27745000D01*
G75*
G02*
X120622500Y-27495000I0J250000D01*
G01*
G37*
D13*
X99050000Y-53275000D03*
D14*
X96510000Y-53275000D03*
X99050000Y-50735000D03*
X96510000Y-50735000D03*
X99050000Y-48195000D03*
X96510000Y-48195000D03*
X99050000Y-45655000D03*
X96510000Y-45655000D03*
X99050000Y-43115000D03*
X96510000Y-43115000D03*
X99050000Y-40575000D03*
X96510000Y-40575000D03*
X99050000Y-38035000D03*
X96510000Y-38035000D03*
X99050000Y-35495000D03*
X96510000Y-35495000D03*
G36*
G01*
X109185000Y-51795000D02*
X109185000Y-51495000D01*
G75*
G02*
X109335000Y-51345000I150000J0D01*
G01*
X111085000Y-51345000D01*
G75*
G02*
X111235000Y-51495000I0J-150000D01*
G01*
X111235000Y-51795000D01*
G75*
G02*
X111085000Y-51945000I-150000J0D01*
G01*
X109335000Y-51945000D01*
G75*
G02*
X109185000Y-51795000I0J150000D01*
G01*
G37*
G36*
G01*
X109185000Y-53065000D02*
X109185000Y-52765000D01*
G75*
G02*
X109335000Y-52615000I150000J0D01*
G01*
X111085000Y-52615000D01*
G75*
G02*
X111235000Y-52765000I0J-150000D01*
G01*
X111235000Y-53065000D01*
G75*
G02*
X111085000Y-53215000I-150000J0D01*
G01*
X109335000Y-53215000D01*
G75*
G02*
X109185000Y-53065000I0J150000D01*
G01*
G37*
G36*
G01*
X109185000Y-54335000D02*
X109185000Y-54035000D01*
G75*
G02*
X109335000Y-53885000I150000J0D01*
G01*
X111085000Y-53885000D01*
G75*
G02*
X111235000Y-54035000I0J-150000D01*
G01*
X111235000Y-54335000D01*
G75*
G02*
X111085000Y-54485000I-150000J0D01*
G01*
X109335000Y-54485000D01*
G75*
G02*
X109185000Y-54335000I0J150000D01*
G01*
G37*
G36*
G01*
X109185000Y-55605000D02*
X109185000Y-55305000D01*
G75*
G02*
X109335000Y-55155000I150000J0D01*
G01*
X111085000Y-55155000D01*
G75*
G02*
X111235000Y-55305000I0J-150000D01*
G01*
X111235000Y-55605000D01*
G75*
G02*
X111085000Y-55755000I-150000J0D01*
G01*
X109335000Y-55755000D01*
G75*
G02*
X109185000Y-55605000I0J150000D01*
G01*
G37*
G36*
G01*
X109185000Y-56875000D02*
X109185000Y-56575000D01*
G75*
G02*
X109335000Y-56425000I150000J0D01*
G01*
X111085000Y-56425000D01*
G75*
G02*
X111235000Y-56575000I0J-150000D01*
G01*
X111235000Y-56875000D01*
G75*
G02*
X111085000Y-57025000I-150000J0D01*
G01*
X109335000Y-57025000D01*
G75*
G02*
X109185000Y-56875000I0J150000D01*
G01*
G37*
G36*
G01*
X109185000Y-58145000D02*
X109185000Y-57845000D01*
G75*
G02*
X109335000Y-57695000I150000J0D01*
G01*
X111085000Y-57695000D01*
G75*
G02*
X111235000Y-57845000I0J-150000D01*
G01*
X111235000Y-58145000D01*
G75*
G02*
X111085000Y-58295000I-150000J0D01*
G01*
X109335000Y-58295000D01*
G75*
G02*
X109185000Y-58145000I0J150000D01*
G01*
G37*
G36*
G01*
X109185000Y-59415000D02*
X109185000Y-59115000D01*
G75*
G02*
X109335000Y-58965000I150000J0D01*
G01*
X111085000Y-58965000D01*
G75*
G02*
X111235000Y-59115000I0J-150000D01*
G01*
X111235000Y-59415000D01*
G75*
G02*
X111085000Y-59565000I-150000J0D01*
G01*
X109335000Y-59565000D01*
G75*
G02*
X109185000Y-59415000I0J150000D01*
G01*
G37*
G36*
G01*
X109185000Y-60685000D02*
X109185000Y-60385000D01*
G75*
G02*
X109335000Y-60235000I150000J0D01*
G01*
X111085000Y-60235000D01*
G75*
G02*
X111235000Y-60385000I0J-150000D01*
G01*
X111235000Y-60685000D01*
G75*
G02*
X111085000Y-60835000I-150000J0D01*
G01*
X109335000Y-60835000D01*
G75*
G02*
X109185000Y-60685000I0J150000D01*
G01*
G37*
G36*
G01*
X118485000Y-60685000D02*
X118485000Y-60385000D01*
G75*
G02*
X118635000Y-60235000I150000J0D01*
G01*
X120385000Y-60235000D01*
G75*
G02*
X120535000Y-60385000I0J-150000D01*
G01*
X120535000Y-60685000D01*
G75*
G02*
X120385000Y-60835000I-150000J0D01*
G01*
X118635000Y-60835000D01*
G75*
G02*
X118485000Y-60685000I0J150000D01*
G01*
G37*
G36*
G01*
X118485000Y-59415000D02*
X118485000Y-59115000D01*
G75*
G02*
X118635000Y-58965000I150000J0D01*
G01*
X120385000Y-58965000D01*
G75*
G02*
X120535000Y-59115000I0J-150000D01*
G01*
X120535000Y-59415000D01*
G75*
G02*
X120385000Y-59565000I-150000J0D01*
G01*
X118635000Y-59565000D01*
G75*
G02*
X118485000Y-59415000I0J150000D01*
G01*
G37*
G36*
G01*
X118485000Y-58145000D02*
X118485000Y-57845000D01*
G75*
G02*
X118635000Y-57695000I150000J0D01*
G01*
X120385000Y-57695000D01*
G75*
G02*
X120535000Y-57845000I0J-150000D01*
G01*
X120535000Y-58145000D01*
G75*
G02*
X120385000Y-58295000I-150000J0D01*
G01*
X118635000Y-58295000D01*
G75*
G02*
X118485000Y-58145000I0J150000D01*
G01*
G37*
G36*
G01*
X118485000Y-56875000D02*
X118485000Y-56575000D01*
G75*
G02*
X118635000Y-56425000I150000J0D01*
G01*
X120385000Y-56425000D01*
G75*
G02*
X120535000Y-56575000I0J-150000D01*
G01*
X120535000Y-56875000D01*
G75*
G02*
X120385000Y-57025000I-150000J0D01*
G01*
X118635000Y-57025000D01*
G75*
G02*
X118485000Y-56875000I0J150000D01*
G01*
G37*
G36*
G01*
X118485000Y-55605000D02*
X118485000Y-55305000D01*
G75*
G02*
X118635000Y-55155000I150000J0D01*
G01*
X120385000Y-55155000D01*
G75*
G02*
X120535000Y-55305000I0J-150000D01*
G01*
X120535000Y-55605000D01*
G75*
G02*
X120385000Y-55755000I-150000J0D01*
G01*
X118635000Y-55755000D01*
G75*
G02*
X118485000Y-55605000I0J150000D01*
G01*
G37*
G36*
G01*
X118485000Y-54335000D02*
X118485000Y-54035000D01*
G75*
G02*
X118635000Y-53885000I150000J0D01*
G01*
X120385000Y-53885000D01*
G75*
G02*
X120535000Y-54035000I0J-150000D01*
G01*
X120535000Y-54335000D01*
G75*
G02*
X120385000Y-54485000I-150000J0D01*
G01*
X118635000Y-54485000D01*
G75*
G02*
X118485000Y-54335000I0J150000D01*
G01*
G37*
G36*
G01*
X118485000Y-53065000D02*
X118485000Y-52765000D01*
G75*
G02*
X118635000Y-52615000I150000J0D01*
G01*
X120385000Y-52615000D01*
G75*
G02*
X120535000Y-52765000I0J-150000D01*
G01*
X120535000Y-53065000D01*
G75*
G02*
X120385000Y-53215000I-150000J0D01*
G01*
X118635000Y-53215000D01*
G75*
G02*
X118485000Y-53065000I0J150000D01*
G01*
G37*
G36*
G01*
X118485000Y-51795000D02*
X118485000Y-51495000D01*
G75*
G02*
X118635000Y-51345000I150000J0D01*
G01*
X120385000Y-51345000D01*
G75*
G02*
X120535000Y-51495000I0J-150000D01*
G01*
X120535000Y-51795000D01*
G75*
G02*
X120385000Y-51945000I-150000J0D01*
G01*
X118635000Y-51945000D01*
G75*
G02*
X118485000Y-51795000I0J150000D01*
G01*
G37*
G36*
G01*
X110912500Y-46475000D02*
X110912500Y-47425000D01*
G75*
G02*
X110662500Y-47675000I-250000J0D01*
G01*
X109987500Y-47675000D01*
G75*
G02*
X109737500Y-47425000I0J250000D01*
G01*
X109737500Y-46475000D01*
G75*
G02*
X109987500Y-46225000I250000J0D01*
G01*
X110662500Y-46225000D01*
G75*
G02*
X110912500Y-46475000I0J-250000D01*
G01*
G37*
G36*
G01*
X108837500Y-46475000D02*
X108837500Y-47425000D01*
G75*
G02*
X108587500Y-47675000I-250000J0D01*
G01*
X107912500Y-47675000D01*
G75*
G02*
X107662500Y-47425000I0J250000D01*
G01*
X107662500Y-46475000D01*
G75*
G02*
X107912500Y-46225000I250000J0D01*
G01*
X108587500Y-46225000D01*
G75*
G02*
X108837500Y-46475000I0J-250000D01*
G01*
G37*
G36*
G01*
X110935000Y-26545000D02*
X110935000Y-27495000D01*
G75*
G02*
X110685000Y-27745000I-250000J0D01*
G01*
X110010000Y-27745000D01*
G75*
G02*
X109760000Y-27495000I0J250000D01*
G01*
X109760000Y-26545000D01*
G75*
G02*
X110010000Y-26295000I250000J0D01*
G01*
X110685000Y-26295000D01*
G75*
G02*
X110935000Y-26545000I0J-250000D01*
G01*
G37*
G36*
G01*
X108860000Y-26545000D02*
X108860000Y-27495000D01*
G75*
G02*
X108610000Y-27745000I-250000J0D01*
G01*
X107935000Y-27745000D01*
G75*
G02*
X107685000Y-27495000I0J250000D01*
G01*
X107685000Y-26545000D01*
G75*
G02*
X107935000Y-26295000I250000J0D01*
G01*
X108610000Y-26295000D01*
G75*
G02*
X108860000Y-26545000I0J-250000D01*
G01*
G37*
G36*
G01*
X124210000Y-57730000D02*
X125110000Y-57730000D01*
G75*
G02*
X125360000Y-57980000I0J-250000D01*
G01*
X125360000Y-58680000D01*
G75*
G02*
X125110000Y-58930000I-250000J0D01*
G01*
X124210000Y-58930000D01*
G75*
G02*
X123960000Y-58680000I0J250000D01*
G01*
X123960000Y-57980000D01*
G75*
G02*
X124210000Y-57730000I250000J0D01*
G01*
G37*
G36*
G01*
X124210000Y-59730000D02*
X125110000Y-59730000D01*
G75*
G02*
X125360000Y-59980000I0J-250000D01*
G01*
X125360000Y-60680000D01*
G75*
G02*
X125110000Y-60930000I-250000J0D01*
G01*
X124210000Y-60930000D01*
G75*
G02*
X123960000Y-60680000I0J250000D01*
G01*
X123960000Y-59980000D01*
G75*
G02*
X124210000Y-59730000I250000J0D01*
G01*
G37*
G36*
G01*
X104850000Y-55450000D02*
X105750000Y-55450000D01*
G75*
G02*
X106000000Y-55700000I0J-250000D01*
G01*
X106000000Y-56400000D01*
G75*
G02*
X105750000Y-56650000I-250000J0D01*
G01*
X104850000Y-56650000D01*
G75*
G02*
X104600000Y-56400000I0J250000D01*
G01*
X104600000Y-55700000D01*
G75*
G02*
X104850000Y-55450000I250000J0D01*
G01*
G37*
G36*
G01*
X104850000Y-57450000D02*
X105750000Y-57450000D01*
G75*
G02*
X106000000Y-57700000I0J-250000D01*
G01*
X106000000Y-58400000D01*
G75*
G02*
X105750000Y-58650000I-250000J0D01*
G01*
X104850000Y-58650000D01*
G75*
G02*
X104600000Y-58400000I0J250000D01*
G01*
X104600000Y-57700000D01*
G75*
G02*
X104850000Y-57450000I250000J0D01*
G01*
G37*
G36*
G01*
X125450000Y-34400000D02*
X124550000Y-34400000D01*
G75*
G02*
X124300000Y-34150000I0J250000D01*
G01*
X124300000Y-33450000D01*
G75*
G02*
X124550000Y-33200000I250000J0D01*
G01*
X125450000Y-33200000D01*
G75*
G02*
X125700000Y-33450000I0J-250000D01*
G01*
X125700000Y-34150000D01*
G75*
G02*
X125450000Y-34400000I-250000J0D01*
G01*
G37*
G36*
G01*
X125450000Y-32400000D02*
X124550000Y-32400000D01*
G75*
G02*
X124300000Y-32150000I0J250000D01*
G01*
X124300000Y-31450000D01*
G75*
G02*
X124550000Y-31200000I250000J0D01*
G01*
X125450000Y-31200000D01*
G75*
G02*
X125700000Y-31450000I0J-250000D01*
G01*
X125700000Y-32150000D01*
G75*
G02*
X125450000Y-32400000I-250000J0D01*
G01*
G37*
D12*
X136420000Y-61850000D03*
G36*
G01*
X109185000Y-31795000D02*
X109185000Y-31495000D01*
G75*
G02*
X109335000Y-31345000I150000J0D01*
G01*
X111085000Y-31345000D01*
G75*
G02*
X111235000Y-31495000I0J-150000D01*
G01*
X111235000Y-31795000D01*
G75*
G02*
X111085000Y-31945000I-150000J0D01*
G01*
X109335000Y-31945000D01*
G75*
G02*
X109185000Y-31795000I0J150000D01*
G01*
G37*
G36*
G01*
X109185000Y-33065000D02*
X109185000Y-32765000D01*
G75*
G02*
X109335000Y-32615000I150000J0D01*
G01*
X111085000Y-32615000D01*
G75*
G02*
X111235000Y-32765000I0J-150000D01*
G01*
X111235000Y-33065000D01*
G75*
G02*
X111085000Y-33215000I-150000J0D01*
G01*
X109335000Y-33215000D01*
G75*
G02*
X109185000Y-33065000I0J150000D01*
G01*
G37*
G36*
G01*
X109185000Y-34335000D02*
X109185000Y-34035000D01*
G75*
G02*
X109335000Y-33885000I150000J0D01*
G01*
X111085000Y-33885000D01*
G75*
G02*
X111235000Y-34035000I0J-150000D01*
G01*
X111235000Y-34335000D01*
G75*
G02*
X111085000Y-34485000I-150000J0D01*
G01*
X109335000Y-34485000D01*
G75*
G02*
X109185000Y-34335000I0J150000D01*
G01*
G37*
G36*
G01*
X109185000Y-35605000D02*
X109185000Y-35305000D01*
G75*
G02*
X109335000Y-35155000I150000J0D01*
G01*
X111085000Y-35155000D01*
G75*
G02*
X111235000Y-35305000I0J-150000D01*
G01*
X111235000Y-35605000D01*
G75*
G02*
X111085000Y-35755000I-150000J0D01*
G01*
X109335000Y-35755000D01*
G75*
G02*
X109185000Y-35605000I0J150000D01*
G01*
G37*
G36*
G01*
X109185000Y-36875000D02*
X109185000Y-36575000D01*
G75*
G02*
X109335000Y-36425000I150000J0D01*
G01*
X111085000Y-36425000D01*
G75*
G02*
X111235000Y-36575000I0J-150000D01*
G01*
X111235000Y-36875000D01*
G75*
G02*
X111085000Y-37025000I-150000J0D01*
G01*
X109335000Y-37025000D01*
G75*
G02*
X109185000Y-36875000I0J150000D01*
G01*
G37*
G36*
G01*
X109185000Y-38145000D02*
X109185000Y-37845000D01*
G75*
G02*
X109335000Y-37695000I150000J0D01*
G01*
X111085000Y-37695000D01*
G75*
G02*
X111235000Y-37845000I0J-150000D01*
G01*
X111235000Y-38145000D01*
G75*
G02*
X111085000Y-38295000I-150000J0D01*
G01*
X109335000Y-38295000D01*
G75*
G02*
X109185000Y-38145000I0J150000D01*
G01*
G37*
G36*
G01*
X109185000Y-39415000D02*
X109185000Y-39115000D01*
G75*
G02*
X109335000Y-38965000I150000J0D01*
G01*
X111085000Y-38965000D01*
G75*
G02*
X111235000Y-39115000I0J-150000D01*
G01*
X111235000Y-39415000D01*
G75*
G02*
X111085000Y-39565000I-150000J0D01*
G01*
X109335000Y-39565000D01*
G75*
G02*
X109185000Y-39415000I0J150000D01*
G01*
G37*
G36*
G01*
X109185000Y-40685000D02*
X109185000Y-40385000D01*
G75*
G02*
X109335000Y-40235000I150000J0D01*
G01*
X111085000Y-40235000D01*
G75*
G02*
X111235000Y-40385000I0J-150000D01*
G01*
X111235000Y-40685000D01*
G75*
G02*
X111085000Y-40835000I-150000J0D01*
G01*
X109335000Y-40835000D01*
G75*
G02*
X109185000Y-40685000I0J150000D01*
G01*
G37*
G36*
G01*
X118485000Y-40685000D02*
X118485000Y-40385000D01*
G75*
G02*
X118635000Y-40235000I150000J0D01*
G01*
X120385000Y-40235000D01*
G75*
G02*
X120535000Y-40385000I0J-150000D01*
G01*
X120535000Y-40685000D01*
G75*
G02*
X120385000Y-40835000I-150000J0D01*
G01*
X118635000Y-40835000D01*
G75*
G02*
X118485000Y-40685000I0J150000D01*
G01*
G37*
G36*
G01*
X118485000Y-39415000D02*
X118485000Y-39115000D01*
G75*
G02*
X118635000Y-38965000I150000J0D01*
G01*
X120385000Y-38965000D01*
G75*
G02*
X120535000Y-39115000I0J-150000D01*
G01*
X120535000Y-39415000D01*
G75*
G02*
X120385000Y-39565000I-150000J0D01*
G01*
X118635000Y-39565000D01*
G75*
G02*
X118485000Y-39415000I0J150000D01*
G01*
G37*
G36*
G01*
X118485000Y-38145000D02*
X118485000Y-37845000D01*
G75*
G02*
X118635000Y-37695000I150000J0D01*
G01*
X120385000Y-37695000D01*
G75*
G02*
X120535000Y-37845000I0J-150000D01*
G01*
X120535000Y-38145000D01*
G75*
G02*
X120385000Y-38295000I-150000J0D01*
G01*
X118635000Y-38295000D01*
G75*
G02*
X118485000Y-38145000I0J150000D01*
G01*
G37*
G36*
G01*
X118485000Y-36875000D02*
X118485000Y-36575000D01*
G75*
G02*
X118635000Y-36425000I150000J0D01*
G01*
X120385000Y-36425000D01*
G75*
G02*
X120535000Y-36575000I0J-150000D01*
G01*
X120535000Y-36875000D01*
G75*
G02*
X120385000Y-37025000I-150000J0D01*
G01*
X118635000Y-37025000D01*
G75*
G02*
X118485000Y-36875000I0J150000D01*
G01*
G37*
G36*
G01*
X118485000Y-35605000D02*
X118485000Y-35305000D01*
G75*
G02*
X118635000Y-35155000I150000J0D01*
G01*
X120385000Y-35155000D01*
G75*
G02*
X120535000Y-35305000I0J-150000D01*
G01*
X120535000Y-35605000D01*
G75*
G02*
X120385000Y-35755000I-150000J0D01*
G01*
X118635000Y-35755000D01*
G75*
G02*
X118485000Y-35605000I0J150000D01*
G01*
G37*
G36*
G01*
X118485000Y-34335000D02*
X118485000Y-34035000D01*
G75*
G02*
X118635000Y-33885000I150000J0D01*
G01*
X120385000Y-33885000D01*
G75*
G02*
X120535000Y-34035000I0J-150000D01*
G01*
X120535000Y-34335000D01*
G75*
G02*
X120385000Y-34485000I-150000J0D01*
G01*
X118635000Y-34485000D01*
G75*
G02*
X118485000Y-34335000I0J150000D01*
G01*
G37*
G36*
G01*
X118485000Y-33065000D02*
X118485000Y-32765000D01*
G75*
G02*
X118635000Y-32615000I150000J0D01*
G01*
X120385000Y-32615000D01*
G75*
G02*
X120535000Y-32765000I0J-150000D01*
G01*
X120535000Y-33065000D01*
G75*
G02*
X120385000Y-33215000I-150000J0D01*
G01*
X118635000Y-33215000D01*
G75*
G02*
X118485000Y-33065000I0J150000D01*
G01*
G37*
G36*
G01*
X118485000Y-31795000D02*
X118485000Y-31495000D01*
G75*
G02*
X118635000Y-31345000I150000J0D01*
G01*
X120385000Y-31345000D01*
G75*
G02*
X120535000Y-31495000I0J-150000D01*
G01*
X120535000Y-31795000D01*
G75*
G02*
X120385000Y-31945000I-150000J0D01*
G01*
X118635000Y-31945000D01*
G75*
G02*
X118485000Y-31795000I0J150000D01*
G01*
G37*
G36*
G01*
X127650000Y-34400000D02*
X126750000Y-34400000D01*
G75*
G02*
X126500000Y-34150000I0J250000D01*
G01*
X126500000Y-33450000D01*
G75*
G02*
X126750000Y-33200000I250000J0D01*
G01*
X127650000Y-33200000D01*
G75*
G02*
X127900000Y-33450000I0J-250000D01*
G01*
X127900000Y-34150000D01*
G75*
G02*
X127650000Y-34400000I-250000J0D01*
G01*
G37*
G36*
G01*
X127650000Y-32400000D02*
X126750000Y-32400000D01*
G75*
G02*
X126500000Y-32150000I0J250000D01*
G01*
X126500000Y-31450000D01*
G75*
G02*
X126750000Y-31200000I250000J0D01*
G01*
X127650000Y-31200000D01*
G75*
G02*
X127900000Y-31450000I0J-250000D01*
G01*
X127900000Y-32150000D01*
G75*
G02*
X127650000Y-32400000I-250000J0D01*
G01*
G37*
G36*
G01*
X107250000Y-54550000D02*
X106350000Y-54550000D01*
G75*
G02*
X106100000Y-54300000I0J250000D01*
G01*
X106100000Y-53600000D01*
G75*
G02*
X106350000Y-53350000I250000J0D01*
G01*
X107250000Y-53350000D01*
G75*
G02*
X107500000Y-53600000I0J-250000D01*
G01*
X107500000Y-54300000D01*
G75*
G02*
X107250000Y-54550000I-250000J0D01*
G01*
G37*
G36*
G01*
X107250000Y-52550000D02*
X106350000Y-52550000D01*
G75*
G02*
X106100000Y-52300000I0J250000D01*
G01*
X106100000Y-51600000D01*
G75*
G02*
X106350000Y-51350000I250000J0D01*
G01*
X107250000Y-51350000D01*
G75*
G02*
X107500000Y-51600000I0J-250000D01*
G01*
X107500000Y-52300000D01*
G75*
G02*
X107250000Y-52550000I-250000J0D01*
G01*
G37*
G36*
G01*
X110935000Y-28845000D02*
X110935000Y-29795000D01*
G75*
G02*
X110685000Y-30045000I-250000J0D01*
G01*
X110010000Y-30045000D01*
G75*
G02*
X109760000Y-29795000I0J250000D01*
G01*
X109760000Y-28845000D01*
G75*
G02*
X110010000Y-28595000I250000J0D01*
G01*
X110685000Y-28595000D01*
G75*
G02*
X110935000Y-28845000I0J-250000D01*
G01*
G37*
G36*
G01*
X108860000Y-28845000D02*
X108860000Y-29795000D01*
G75*
G02*
X108610000Y-30045000I-250000J0D01*
G01*
X107935000Y-30045000D01*
G75*
G02*
X107685000Y-29795000I0J250000D01*
G01*
X107685000Y-28845000D01*
G75*
G02*
X107935000Y-28595000I250000J0D01*
G01*
X108610000Y-28595000D01*
G75*
G02*
X108860000Y-28845000I0J-250000D01*
G01*
G37*
D13*
X132800000Y-35475000D03*
D14*
X135340000Y-35475000D03*
X132800000Y-38015000D03*
X135340000Y-38015000D03*
X132800000Y-40555000D03*
X135340000Y-40555000D03*
X132800000Y-43095000D03*
X135340000Y-43095000D03*
X132800000Y-45635000D03*
X135340000Y-45635000D03*
X132800000Y-48175000D03*
X135340000Y-48175000D03*
X132800000Y-50715000D03*
X135340000Y-50715000D03*
X132800000Y-53255000D03*
X135340000Y-53255000D03*
G36*
G01*
X124050000Y-54800000D02*
X123150000Y-54800000D01*
G75*
G02*
X122900000Y-54550000I0J250000D01*
G01*
X122900000Y-53850000D01*
G75*
G02*
X123150000Y-53600000I250000J0D01*
G01*
X124050000Y-53600000D01*
G75*
G02*
X124300000Y-53850000I0J-250000D01*
G01*
X124300000Y-54550000D01*
G75*
G02*
X124050000Y-54800000I-250000J0D01*
G01*
G37*
G36*
G01*
X124050000Y-52800000D02*
X123150000Y-52800000D01*
G75*
G02*
X122900000Y-52550000I0J250000D01*
G01*
X122900000Y-51850000D01*
G75*
G02*
X123150000Y-51600000I250000J0D01*
G01*
X124050000Y-51600000D01*
G75*
G02*
X124300000Y-51850000I0J-250000D01*
G01*
X124300000Y-52550000D01*
G75*
G02*
X124050000Y-52800000I-250000J0D01*
G01*
G37*
G36*
G01*
X118535000Y-29795000D02*
X118535000Y-28845000D01*
G75*
G02*
X118785000Y-28595000I250000J0D01*
G01*
X119460000Y-28595000D01*
G75*
G02*
X119710000Y-28845000I0J-250000D01*
G01*
X119710000Y-29795000D01*
G75*
G02*
X119460000Y-30045000I-250000J0D01*
G01*
X118785000Y-30045000D01*
G75*
G02*
X118535000Y-29795000I0J250000D01*
G01*
G37*
G36*
G01*
X120610000Y-29795000D02*
X120610000Y-28845000D01*
G75*
G02*
X120860000Y-28595000I250000J0D01*
G01*
X121535000Y-28595000D01*
G75*
G02*
X121785000Y-28845000I0J-250000D01*
G01*
X121785000Y-29795000D01*
G75*
G02*
X121535000Y-30045000I-250000J0D01*
G01*
X120860000Y-30045000D01*
G75*
G02*
X120610000Y-29795000I0J250000D01*
G01*
G37*
G36*
G01*
X118500000Y-47375000D02*
X118500000Y-46425000D01*
G75*
G02*
X118750000Y-46175000I250000J0D01*
G01*
X119425000Y-46175000D01*
G75*
G02*
X119675000Y-46425000I0J-250000D01*
G01*
X119675000Y-47375000D01*
G75*
G02*
X119425000Y-47625000I-250000J0D01*
G01*
X118750000Y-47625000D01*
G75*
G02*
X118500000Y-47375000I0J250000D01*
G01*
G37*
G36*
G01*
X120575000Y-47375000D02*
X120575000Y-46425000D01*
G75*
G02*
X120825000Y-46175000I250000J0D01*
G01*
X121500000Y-46175000D01*
G75*
G02*
X121750000Y-46425000I0J-250000D01*
G01*
X121750000Y-47375000D01*
G75*
G02*
X121500000Y-47625000I-250000J0D01*
G01*
X120825000Y-47625000D01*
G75*
G02*
X120575000Y-47375000I0J250000D01*
G01*
G37*
G36*
G01*
X104360000Y-31470000D02*
X105260000Y-31470000D01*
G75*
G02*
X105510000Y-31720000I0J-250000D01*
G01*
X105510000Y-32420000D01*
G75*
G02*
X105260000Y-32670000I-250000J0D01*
G01*
X104360000Y-32670000D01*
G75*
G02*
X104110000Y-32420000I0J250000D01*
G01*
X104110000Y-31720000D01*
G75*
G02*
X104360000Y-31470000I250000J0D01*
G01*
G37*
G36*
G01*
X104360000Y-33470000D02*
X105260000Y-33470000D01*
G75*
G02*
X105510000Y-33720000I0J-250000D01*
G01*
X105510000Y-34420000D01*
G75*
G02*
X105260000Y-34670000I-250000J0D01*
G01*
X104360000Y-34670000D01*
G75*
G02*
X104110000Y-34420000I0J250000D01*
G01*
X104110000Y-33720000D01*
G75*
G02*
X104360000Y-33470000I250000J0D01*
G01*
G37*
G36*
G01*
X128450000Y-54800000D02*
X127550000Y-54800000D01*
G75*
G02*
X127300000Y-54550000I0J250000D01*
G01*
X127300000Y-53850000D01*
G75*
G02*
X127550000Y-53600000I250000J0D01*
G01*
X128450000Y-53600000D01*
G75*
G02*
X128700000Y-53850000I0J-250000D01*
G01*
X128700000Y-54550000D01*
G75*
G02*
X128450000Y-54800000I-250000J0D01*
G01*
G37*
G36*
G01*
X128450000Y-52800000D02*
X127550000Y-52800000D01*
G75*
G02*
X127300000Y-52550000I0J250000D01*
G01*
X127300000Y-51850000D01*
G75*
G02*
X127550000Y-51600000I250000J0D01*
G01*
X128450000Y-51600000D01*
G75*
G02*
X128700000Y-51850000I0J-250000D01*
G01*
X128700000Y-52550000D01*
G75*
G02*
X128450000Y-52800000I-250000J0D01*
G01*
G37*
G36*
G01*
X110925000Y-48775000D02*
X110925000Y-49725000D01*
G75*
G02*
X110675000Y-49975000I-250000J0D01*
G01*
X110000000Y-49975000D01*
G75*
G02*
X109750000Y-49725000I0J250000D01*
G01*
X109750000Y-48775000D01*
G75*
G02*
X110000000Y-48525000I250000J0D01*
G01*
X110675000Y-48525000D01*
G75*
G02*
X110925000Y-48775000I0J-250000D01*
G01*
G37*
G36*
G01*
X108850000Y-48775000D02*
X108850000Y-49725000D01*
G75*
G02*
X108600000Y-49975000I-250000J0D01*
G01*
X107925000Y-49975000D01*
G75*
G02*
X107675000Y-49725000I0J250000D01*
G01*
X107675000Y-48775000D01*
G75*
G02*
X107925000Y-48525000I250000J0D01*
G01*
X108600000Y-48525000D01*
G75*
G02*
X108850000Y-48775000I0J-250000D01*
G01*
G37*
G36*
G01*
X104850000Y-59500000D02*
X105750000Y-59500000D01*
G75*
G02*
X106000000Y-59750000I0J-250000D01*
G01*
X106000000Y-60450000D01*
G75*
G02*
X105750000Y-60700000I-250000J0D01*
G01*
X104850000Y-60700000D01*
G75*
G02*
X104600000Y-60450000I0J250000D01*
G01*
X104600000Y-59750000D01*
G75*
G02*
X104850000Y-59500000I250000J0D01*
G01*
G37*
G36*
G01*
X104850000Y-61500000D02*
X105750000Y-61500000D01*
G75*
G02*
X106000000Y-61750000I0J-250000D01*
G01*
X106000000Y-62450000D01*
G75*
G02*
X105750000Y-62700000I-250000J0D01*
G01*
X104850000Y-62700000D01*
G75*
G02*
X104600000Y-62450000I0J250000D01*
G01*
X104600000Y-61750000D01*
G75*
G02*
X104850000Y-61500000I250000J0D01*
G01*
G37*
G36*
G01*
X118512500Y-49725000D02*
X118512500Y-48775000D01*
G75*
G02*
X118762500Y-48525000I250000J0D01*
G01*
X119437500Y-48525000D01*
G75*
G02*
X119687500Y-48775000I0J-250000D01*
G01*
X119687500Y-49725000D01*
G75*
G02*
X119437500Y-49975000I-250000J0D01*
G01*
X118762500Y-49975000D01*
G75*
G02*
X118512500Y-49725000I0J250000D01*
G01*
G37*
G36*
G01*
X120587500Y-49725000D02*
X120587500Y-48775000D01*
G75*
G02*
X120837500Y-48525000I250000J0D01*
G01*
X121512500Y-48525000D01*
G75*
G02*
X121762500Y-48775000I0J-250000D01*
G01*
X121762500Y-49725000D01*
G75*
G02*
X121512500Y-49975000I-250000J0D01*
G01*
X120837500Y-49975000D01*
G75*
G02*
X120587500Y-49725000I0J250000D01*
G01*
G37*
M02*
