G04 #@! TF.GenerationSoftware,KiCad,Pcbnew,(6.0.6)*
G04 #@! TF.CreationDate,2022-08-29T16:25:24+02:00*
G04 #@! TF.ProjectId,optic-transceiver-board-2t6r,6f707469-632d-4747-9261-6e7363656976,rev?*
G04 #@! TF.SameCoordinates,Original*
G04 #@! TF.FileFunction,Paste,Top*
G04 #@! TF.FilePolarity,Positive*
%FSLAX46Y46*%
G04 Gerber Fmt 4.6, Leading zero omitted, Abs format (unit mm)*
G04 Created by KiCad (PCBNEW (6.0.6)) date 2022-08-29 16:25:24*
%MOMM*%
%LPD*%
G01*
G04 APERTURE LIST*
G04 Aperture macros list*
%AMRoundRect*
0 Rectangle with rounded corners*
0 $1 Rounding radius*
0 $2 $3 $4 $5 $6 $7 $8 $9 X,Y pos of 4 corners*
0 Add a 4 corners polygon primitive as box body*
4,1,4,$2,$3,$4,$5,$6,$7,$8,$9,$2,$3,0*
0 Add four circle primitives for the rounded corners*
1,1,$1+$1,$2,$3*
1,1,$1+$1,$4,$5*
1,1,$1+$1,$6,$7*
1,1,$1+$1,$8,$9*
0 Add four rect primitives between the rounded corners*
20,1,$1+$1,$2,$3,$4,$5,0*
20,1,$1+$1,$4,$5,$6,$7,0*
20,1,$1+$1,$6,$7,$8,$9,0*
20,1,$1+$1,$8,$9,$2,$3,0*%
G04 Aperture macros list end*
%ADD10RoundRect,0.250000X0.337500X0.475000X-0.337500X0.475000X-0.337500X-0.475000X0.337500X-0.475000X0*%
%ADD11RoundRect,0.250000X0.475000X-0.337500X0.475000X0.337500X-0.475000X0.337500X-0.475000X-0.337500X0*%
%ADD12RoundRect,0.250000X-0.325000X-0.450000X0.325000X-0.450000X0.325000X0.450000X-0.325000X0.450000X0*%
%ADD13RoundRect,0.250000X-0.337500X-0.475000X0.337500X-0.475000X0.337500X0.475000X-0.337500X0.475000X0*%
%ADD14RoundRect,0.250000X0.450000X-0.350000X0.450000X0.350000X-0.450000X0.350000X-0.450000X-0.350000X0*%
%ADD15RoundRect,0.250000X-0.450000X0.350000X-0.450000X-0.350000X0.450000X-0.350000X0.450000X0.350000X0*%
%ADD16RoundRect,0.250000X-0.262500X-0.450000X0.262500X-0.450000X0.262500X0.450000X-0.262500X0.450000X0*%
%ADD17RoundRect,0.100000X-0.637500X-0.100000X0.637500X-0.100000X0.637500X0.100000X-0.637500X0.100000X0*%
G04 APERTURE END LIST*
D10*
X112064800Y-92913200D03*
X109989800Y-92913200D03*
D11*
X96875600Y-91436100D03*
X96875600Y-89361100D03*
D12*
X114951400Y-60350400D03*
X117001400Y-60350400D03*
D13*
X108944500Y-56946800D03*
X111019500Y-56946800D03*
D14*
X96240600Y-80333600D03*
X96240600Y-78333600D03*
X96266000Y-84159600D03*
X96266000Y-82159600D03*
D15*
X96291400Y-71923400D03*
X96291400Y-73923400D03*
D16*
X114960400Y-62433200D03*
X116785400Y-62433200D03*
D14*
X96266000Y-70046600D03*
X96266000Y-68046600D03*
D17*
X102547500Y-71598600D03*
X102547500Y-72248600D03*
X102547500Y-72898600D03*
X102547500Y-73548600D03*
X102547500Y-74198600D03*
X102547500Y-74848600D03*
X102547500Y-75498600D03*
X102547500Y-76148600D03*
X102547500Y-76798600D03*
X102547500Y-77448600D03*
X108272500Y-77448600D03*
X108272500Y-76798600D03*
X108272500Y-76148600D03*
X108272500Y-75498600D03*
X108272500Y-74848600D03*
X108272500Y-74198600D03*
X108272500Y-73548600D03*
X108272500Y-72898600D03*
X108272500Y-72248600D03*
X108272500Y-71598600D03*
D11*
X96977200Y-61874400D03*
X96977200Y-59799400D03*
D13*
X100816500Y-56896000D03*
X102891500Y-56896000D03*
X106281400Y-69951600D03*
X108356400Y-69951600D03*
D10*
X103755100Y-92964000D03*
X101680100Y-92964000D03*
M02*
