G04 #@! TF.GenerationSoftware,KiCad,Pcbnew,(6.0.6)*
G04 #@! TF.CreationDate,2022-08-29T16:25:24+02:00*
G04 #@! TF.ProjectId,optic-transceiver-board-2t6r,6f707469-632d-4747-9261-6e7363656976,rev?*
G04 #@! TF.SameCoordinates,Original*
G04 #@! TF.FileFunction,Paste,Bot*
G04 #@! TF.FilePolarity,Positive*
%FSLAX46Y46*%
G04 Gerber Fmt 4.6, Leading zero omitted, Abs format (unit mm)*
G04 Created by KiCad (PCBNEW (6.0.6)) date 2022-08-29 16:25:24*
%MOMM*%
%LPD*%
G01*
G04 APERTURE LIST*
G04 Aperture macros list*
%AMRoundRect*
0 Rectangle with rounded corners*
0 $1 Rounding radius*
0 $2 $3 $4 $5 $6 $7 $8 $9 X,Y pos of 4 corners*
0 Add a 4 corners polygon primitive as box body*
4,1,4,$2,$3,$4,$5,$6,$7,$8,$9,$2,$3,0*
0 Add four circle primitives for the rounded corners*
1,1,$1+$1,$2,$3*
1,1,$1+$1,$4,$5*
1,1,$1+$1,$6,$7*
1,1,$1+$1,$8,$9*
0 Add four rect primitives between the rounded corners*
20,1,$1+$1,$2,$3,$4,$5,0*
20,1,$1+$1,$4,$5,$6,$7,0*
20,1,$1+$1,$6,$7,$8,$9,0*
20,1,$1+$1,$8,$9,$2,$3,0*%
G04 Aperture macros list end*
%ADD10RoundRect,0.250000X0.350000X0.450000X-0.350000X0.450000X-0.350000X-0.450000X0.350000X-0.450000X0*%
%ADD11RoundRect,0.250000X0.450000X-0.350000X0.450000X0.350000X-0.450000X0.350000X-0.450000X-0.350000X0*%
%ADD12RoundRect,0.250000X0.475000X-0.337500X0.475000X0.337500X-0.475000X0.337500X-0.475000X-0.337500X0*%
%ADD13RoundRect,0.250000X-0.450000X0.350000X-0.450000X-0.350000X0.450000X-0.350000X0.450000X0.350000X0*%
%ADD14RoundRect,0.250000X-0.337500X-0.475000X0.337500X-0.475000X0.337500X0.475000X-0.337500X0.475000X0*%
%ADD15RoundRect,0.250000X-0.262500X-0.450000X0.262500X-0.450000X0.262500X0.450000X-0.262500X0.450000X0*%
%ADD16RoundRect,0.250000X0.450000X-0.262500X0.450000X0.262500X-0.450000X0.262500X-0.450000X-0.262500X0*%
%ADD17RoundRect,0.250000X-0.350000X-0.450000X0.350000X-0.450000X0.350000X0.450000X-0.350000X0.450000X0*%
%ADD18RoundRect,0.250000X-0.475000X0.337500X-0.475000X-0.337500X0.475000X-0.337500X0.475000X0.337500X0*%
G04 APERTURE END LIST*
D10*
X96961200Y-61852900D03*
X94961200Y-61852900D03*
X96961200Y-57738100D03*
X94961200Y-57738100D03*
X96859600Y-91465400D03*
X94859600Y-91465400D03*
X96850200Y-87350600D03*
X94850200Y-87350600D03*
D11*
X100838000Y-56930800D03*
X100838000Y-54930800D03*
D12*
X96240600Y-84222500D03*
X96240600Y-82147500D03*
D13*
X99618800Y-92980000D03*
X99618800Y-94980000D03*
D14*
X106281400Y-69951600D03*
X108356400Y-69951600D03*
D15*
X112983000Y-85953600D03*
X114808000Y-85953600D03*
D16*
X112420400Y-84023200D03*
X112420400Y-82198200D03*
D14*
X106302900Y-71983600D03*
X108377900Y-71983600D03*
D17*
X94859600Y-89408000D03*
X96859600Y-89408000D03*
D11*
X113030000Y-56946800D03*
X113030000Y-54946800D03*
D13*
X107899200Y-92913200D03*
X107899200Y-94913200D03*
X103682800Y-92964000D03*
X103682800Y-94964000D03*
X102870000Y-54930800D03*
X102870000Y-56930800D03*
D11*
X101650800Y-94998800D03*
X101650800Y-92998800D03*
D13*
X110998000Y-54930800D03*
X110998000Y-56930800D03*
D18*
X96266000Y-71860500D03*
X96266000Y-73935500D03*
D11*
X108966000Y-56930800D03*
X108966000Y-54930800D03*
X104952800Y-56930800D03*
X104952800Y-54930800D03*
D12*
X96240600Y-80387100D03*
X96240600Y-78312100D03*
D11*
X109982000Y-94929200D03*
X109982000Y-92929200D03*
D13*
X112014000Y-92929200D03*
X112014000Y-94929200D03*
D17*
X94961200Y-59770100D03*
X96961200Y-59770100D03*
D12*
X96266000Y-70100100D03*
X96266000Y-68025100D03*
M02*
