%FSLAX45Y45*%
G04 Gerber Fmt 4.5, Leading zero omitted, Abs format (unit mm)*
G04 Created by KiCad (PCBNEW (6.0.6)) date 2022-08-29 16:25:41*
%MOMM*%
%LPD*%
G01*
G04 APERTURE LIST*
%TA.AperFunction,Profile*%
%ADD10C,0.100000*%
%TD*%
%ADD11C,0.200000*%
%ADD12C,0.040000*%
%ADD13C,0.100000*%
G04 APERTURE END LIST*
D10*
X12145400Y-4300220D02*
X8270240Y-4300220D01*
X8270240Y-4300220D02*
X8270240Y-10666340D01*
X8270240Y-10666340D02*
X12145400Y-10666340D01*
X12145400Y-10666340D02*
X12145400Y-4300220D01*
D11*
D12*
X8819200Y-6309680D02*
X8859200Y-6349680D01*
X8859200Y-6309680D02*
X8819200Y-6349680D01*
X8819200Y-8367080D02*
X8859200Y-8407080D01*
X8859200Y-8367080D02*
X8819200Y-8407080D01*
X8824280Y-9332280D02*
X8864280Y-9372280D01*
X8864280Y-9332280D02*
X8824280Y-9372280D01*
X8834440Y-7371400D02*
X8874440Y-7411400D01*
X8874440Y-7371400D02*
X8834440Y-7411400D01*
X9017320Y-5293680D02*
X9057320Y-5333680D01*
X9057320Y-5293680D02*
X9017320Y-5333680D01*
X9251000Y-10048560D02*
X9291000Y-10088560D01*
X9291000Y-10048560D02*
X9251000Y-10088560D01*
X9372920Y-9621840D02*
X9412920Y-9661840D01*
X9412920Y-9621840D02*
X9372920Y-9661840D01*
X9393240Y-7879400D02*
X9433240Y-7919400D01*
X9433240Y-7879400D02*
X9393240Y-7919400D01*
X9418640Y-8108000D02*
X9458640Y-8148000D01*
X9458640Y-8108000D02*
X9418640Y-8148000D01*
X9606600Y-6782120D02*
X9646600Y-6822120D01*
X9646600Y-6782120D02*
X9606600Y-6822120D01*
X9606600Y-7371400D02*
X9646600Y-7411400D01*
X9646600Y-7371400D02*
X9606600Y-7411400D01*
X9606600Y-7813360D02*
X9646600Y-7853360D01*
X9646600Y-7813360D02*
X9606600Y-7853360D01*
X9606600Y-8194360D02*
X9646600Y-8234360D01*
X9646600Y-8194360D02*
X9606600Y-8234360D01*
X9672640Y-6309680D02*
X9712640Y-6349680D01*
X9712640Y-6309680D02*
X9672640Y-6349680D01*
X9672640Y-8920800D02*
X9712640Y-8960800D01*
X9712640Y-8920800D02*
X9672640Y-8960800D01*
X9682800Y-5959160D02*
X9722800Y-5999160D01*
X9722800Y-5959160D02*
X9682800Y-5999160D01*
X9713280Y-7523800D02*
X9753280Y-7563800D01*
X9753280Y-7523800D02*
X9713280Y-7563800D01*
X9759000Y-7691440D02*
X9799000Y-7731440D01*
X9799000Y-7691440D02*
X9759000Y-7731440D01*
X9784400Y-4872040D02*
X9824400Y-4912040D01*
X9824400Y-4872040D02*
X9784400Y-4912040D01*
X9845360Y-9113840D02*
X9885360Y-9153840D01*
X9885360Y-9113840D02*
X9845360Y-9153840D01*
X9855520Y-7188520D02*
X9895520Y-7228520D01*
X9895520Y-7188520D02*
X9855520Y-7228520D01*
X9915611Y-7496491D02*
X9955611Y-7536491D01*
X9955611Y-7496491D02*
X9915611Y-7536491D01*
X9926640Y-7391720D02*
X9966640Y-7431720D01*
X9966640Y-7391720D02*
X9926640Y-7431720D01*
X10018080Y-7320600D02*
X10058080Y-7360600D01*
X10058080Y-7320600D02*
X10018080Y-7360600D01*
X10068880Y-5837240D02*
X10108880Y-5877240D01*
X10108880Y-5837240D02*
X10068880Y-5877240D01*
X10114600Y-6370640D02*
X10154600Y-6410640D01*
X10154600Y-6370640D02*
X10114600Y-6410640D01*
X10119680Y-8245160D02*
X10159680Y-8285160D01*
X10159680Y-8245160D02*
X10119680Y-8285160D01*
X10150160Y-9276400D02*
X10190160Y-9316400D01*
X10190160Y-9276400D02*
X10150160Y-9316400D01*
X10226360Y-7833680D02*
X10266360Y-7873680D01*
X10266360Y-7833680D02*
X10226360Y-7873680D01*
X10272080Y-5669600D02*
X10312080Y-5709600D01*
X10312080Y-5669600D02*
X10272080Y-5709600D01*
X10348280Y-9138550D02*
X10388280Y-9178550D01*
X10388280Y-9138550D02*
X10348280Y-9178550D01*
X10378760Y-10068880D02*
X10418760Y-10108880D01*
X10418760Y-10068880D02*
X10378760Y-10108880D01*
X10490520Y-8793800D02*
X10530520Y-8833800D01*
X10530520Y-8793800D02*
X10490520Y-8833800D01*
X10536240Y-5882960D02*
X10576240Y-5922960D01*
X10576240Y-5882960D02*
X10536240Y-5922960D01*
X10576880Y-7594920D02*
X10616880Y-7634920D01*
X10616880Y-7594920D02*
X10576880Y-7634920D01*
X10576880Y-9169720D02*
X10616880Y-9209720D01*
X10616880Y-9169720D02*
X10576880Y-9209720D01*
X10607360Y-6975160D02*
X10647360Y-7015160D01*
X10647360Y-6975160D02*
X10607360Y-7015160D01*
X10642920Y-8326440D02*
X10682920Y-8366440D01*
X10682920Y-8326440D02*
X10642920Y-8366440D01*
X10698800Y-4872040D02*
X10738800Y-4912040D01*
X10738800Y-4872040D02*
X10698800Y-4912040D01*
X10759760Y-6629720D02*
X10799760Y-6669720D01*
X10799760Y-6629720D02*
X10759760Y-6669720D01*
X10815640Y-6975160D02*
X10855640Y-7015160D01*
X10855640Y-6975160D02*
X10815640Y-7015160D01*
X10876600Y-5862640D02*
X10916600Y-5902640D01*
X10916600Y-5862640D02*
X10876600Y-5902640D01*
X10978200Y-9271320D02*
X11018200Y-9311320D01*
X11018200Y-9271320D02*
X10978200Y-9311320D01*
X11049320Y-7584760D02*
X11089320Y-7624760D01*
X11089320Y-7584760D02*
X11049320Y-7624760D01*
X11079800Y-5669600D02*
X11119800Y-5709600D01*
X11119800Y-5669600D02*
X11079800Y-5709600D01*
X11079800Y-7425750D02*
X11119800Y-7465750D01*
X11119800Y-7425750D02*
X11079800Y-7465750D01*
X11171240Y-9103680D02*
X11211240Y-9143680D01*
X11211240Y-9103680D02*
X11171240Y-9143680D01*
X11206800Y-6015040D02*
X11246800Y-6055040D01*
X11246800Y-6015040D02*
X11206800Y-6055040D01*
X11222040Y-5009200D02*
X11262040Y-5049200D01*
X11262040Y-5009200D02*
X11222040Y-5049200D01*
X11277920Y-8737920D02*
X11317920Y-8777920D01*
X11317920Y-8737920D02*
X11277920Y-8777920D01*
X11303320Y-7376480D02*
X11343320Y-7416480D01*
X11343320Y-7376480D02*
X11303320Y-7416480D01*
X11369360Y-10079040D02*
X11409360Y-10119040D01*
X11409360Y-10079040D02*
X11369360Y-10119040D01*
X11445560Y-9261160D02*
X11485560Y-9301160D01*
X11485560Y-9261160D02*
X11445560Y-9301160D01*
X11836720Y-5608640D02*
X11876720Y-5648640D01*
X11876720Y-5608640D02*
X11836720Y-5648640D01*
X11902760Y-6573840D02*
X11942760Y-6613840D01*
X11942760Y-6573840D02*
X11902760Y-6613840D01*
X11907840Y-6827840D02*
X11947840Y-6867840D01*
X11947840Y-6827840D02*
X11907840Y-6867840D01*
X11912920Y-7579680D02*
X11952920Y-7619680D01*
X11952920Y-7579680D02*
X11912920Y-7619680D01*
X11912920Y-7848920D02*
X11952920Y-7888920D01*
X11952920Y-7848920D02*
X11912920Y-7888920D01*
X11912920Y-8097840D02*
X11952920Y-8137840D01*
X11952920Y-8097840D02*
X11912920Y-8137840D01*
X11912920Y-8356920D02*
X11952920Y-8396920D01*
X11952920Y-8356920D02*
X11912920Y-8396920D01*
D13*
X8525980Y-5595620D02*
G75*
G03*
X8525980Y-5595620I-50000J0D01*
G01*
X8525980Y-6357620D02*
G75*
G03*
X8525980Y-6357620I-50000J0D01*
G01*
X8525980Y-6611620D02*
G75*
G03*
X8525980Y-6611620I-50000J0D01*
G01*
X8525980Y-7373620D02*
G75*
G03*
X8525980Y-7373620I-50000J0D01*
G01*
X8525980Y-7627620D02*
G75*
G03*
X8525980Y-7627620I-50000J0D01*
G01*
X8525980Y-8389620D02*
G75*
G03*
X8525980Y-8389620I-50000J0D01*
G01*
X8525980Y-8643620D02*
G75*
G03*
X8525980Y-8643620I-50000J0D01*
G01*
X8525980Y-9405620D02*
G75*
G03*
X8525980Y-9405620I-50000J0D01*
G01*
X9287980Y-5595620D02*
G75*
G03*
X9287980Y-5595620I-50000J0D01*
G01*
X9287980Y-5849620D02*
G75*
G03*
X9287980Y-5849620I-50000J0D01*
G01*
X9287980Y-6103620D02*
G75*
G03*
X9287980Y-6103620I-50000J0D01*
G01*
X9287980Y-6357620D02*
G75*
G03*
X9287980Y-6357620I-50000J0D01*
G01*
X9287980Y-6611620D02*
G75*
G03*
X9287980Y-6611620I-50000J0D01*
G01*
X9287980Y-6865620D02*
G75*
G03*
X9287980Y-6865620I-50000J0D01*
G01*
X9287980Y-7119620D02*
G75*
G03*
X9287980Y-7119620I-50000J0D01*
G01*
X9287980Y-7373620D02*
G75*
G03*
X9287980Y-7373620I-50000J0D01*
G01*
X9287980Y-7627620D02*
G75*
G03*
X9287980Y-7627620I-50000J0D01*
G01*
X9287980Y-7881620D02*
G75*
G03*
X9287980Y-7881620I-50000J0D01*
G01*
X9287980Y-8135620D02*
G75*
G03*
X9287980Y-8135620I-50000J0D01*
G01*
X9287980Y-8389620D02*
G75*
G03*
X9287980Y-8389620I-50000J0D01*
G01*
X9287980Y-8643620D02*
G75*
G03*
X9287980Y-8643620I-50000J0D01*
G01*
X9287980Y-8897620D02*
G75*
G03*
X9287980Y-8897620I-50000J0D01*
G01*
X9287980Y-9151620D02*
G75*
G03*
X9287980Y-9151620I-50000J0D01*
G01*
X9287980Y-9405620D02*
G75*
G03*
X9287980Y-9405620I-50000J0D01*
G01*
X9718160Y-9700780D02*
G75*
G03*
X9718160Y-9700780I-50000J0D01*
G01*
X9718160Y-10462780D02*
G75*
G03*
X9718160Y-10462780I-50000J0D01*
G01*
X9780740Y-4505960D02*
G75*
G03*
X9780740Y-4505960I-50000J0D01*
G01*
X9780740Y-5267960D02*
G75*
G03*
X9780740Y-5267960I-50000J0D01*
G01*
X9972160Y-9700780D02*
G75*
G03*
X9972160Y-9700780I-50000J0D01*
G01*
X10034740Y-5267960D02*
G75*
G03*
X10034740Y-5267960I-50000J0D01*
G01*
X10226160Y-9700780D02*
G75*
G03*
X10226160Y-9700780I-50000J0D01*
G01*
X10288740Y-5267960D02*
G75*
G03*
X10288740Y-5267960I-50000J0D01*
G01*
X10480160Y-9700780D02*
G75*
G03*
X10480160Y-9700780I-50000J0D01*
G01*
X10480160Y-10462780D02*
G75*
G03*
X10480160Y-10462780I-50000J0D01*
G01*
X10542740Y-4505960D02*
G75*
G03*
X10542740Y-4505960I-50000J0D01*
G01*
X10542740Y-5267960D02*
G75*
G03*
X10542740Y-5267960I-50000J0D01*
G01*
X10734180Y-9700780D02*
G75*
G03*
X10734180Y-9700780I-50000J0D01*
G01*
X10734180Y-10462780D02*
G75*
G03*
X10734180Y-10462780I-50000J0D01*
G01*
X10796740Y-4505960D02*
G75*
G03*
X10796740Y-4505960I-50000J0D01*
G01*
X10796740Y-5267960D02*
G75*
G03*
X10796740Y-5267960I-50000J0D01*
G01*
X10988180Y-9700780D02*
G75*
G03*
X10988180Y-9700780I-50000J0D01*
G01*
X11050740Y-5267960D02*
G75*
G03*
X11050740Y-5267960I-50000J0D01*
G01*
X11242180Y-9700780D02*
G75*
G03*
X11242180Y-9700780I-50000J0D01*
G01*
X11304740Y-5267960D02*
G75*
G03*
X11304740Y-5267960I-50000J0D01*
G01*
X11496180Y-9700780D02*
G75*
G03*
X11496180Y-9700780I-50000J0D01*
G01*
X11496180Y-10462780D02*
G75*
G03*
X11496180Y-10462780I-50000J0D01*
G01*
X11530800Y-6595780D02*
G75*
G03*
X11530800Y-6595780I-50000J0D01*
G01*
X11530800Y-6849780D02*
G75*
G03*
X11530800Y-6849780I-50000J0D01*
G01*
X11530800Y-7103780D02*
G75*
G03*
X11530800Y-7103780I-50000J0D01*
G01*
X11530800Y-7357780D02*
G75*
G03*
X11530800Y-7357780I-50000J0D01*
G01*
X11530800Y-7611780D02*
G75*
G03*
X11530800Y-7611780I-50000J0D01*
G01*
X11530800Y-7865780D02*
G75*
G03*
X11530800Y-7865780I-50000J0D01*
G01*
X11530800Y-8119780D02*
G75*
G03*
X11530800Y-8119780I-50000J0D01*
G01*
X11530800Y-8373780D02*
G75*
G03*
X11530800Y-8373780I-50000J0D01*
G01*
X11558740Y-4505960D02*
G75*
G03*
X11558740Y-4505960I-50000J0D01*
G01*
X11558740Y-5267960D02*
G75*
G03*
X11558740Y-5267960I-50000J0D01*
G01*
X11784800Y-6595780D02*
G75*
G03*
X11784800Y-6595780I-50000J0D01*
G01*
X11784800Y-6849780D02*
G75*
G03*
X11784800Y-6849780I-50000J0D01*
G01*
X11784800Y-7103780D02*
G75*
G03*
X11784800Y-7103780I-50000J0D01*
G01*
X11784800Y-7357780D02*
G75*
G03*
X11784800Y-7357780I-50000J0D01*
G01*
X11784800Y-7611780D02*
G75*
G03*
X11784800Y-7611780I-50000J0D01*
G01*
X11784800Y-7865780D02*
G75*
G03*
X11784800Y-7865780I-50000J0D01*
G01*
X11784800Y-8119780D02*
G75*
G03*
X11784800Y-8119780I-50000J0D01*
G01*
X11784800Y-8373780D02*
G75*
G03*
X11784800Y-8373780I-50000J0D01*
G01*
D11*
X8522859Y-10981816D02*
X8522859Y-10781816D01*
X8570478Y-10781816D01*
X8599050Y-10791340D01*
X8618097Y-10810388D01*
X8627621Y-10829435D01*
X8637145Y-10867530D01*
X8637145Y-10896102D01*
X8627621Y-10934197D01*
X8618097Y-10953245D01*
X8599050Y-10972292D01*
X8570478Y-10981816D01*
X8522859Y-10981816D01*
X8722859Y-10981816D02*
X8722859Y-10848483D01*
X8722859Y-10886578D02*
X8732383Y-10867530D01*
X8741907Y-10858007D01*
X8760954Y-10848483D01*
X8780002Y-10848483D01*
X8846669Y-10981816D02*
X8846669Y-10848483D01*
X8846669Y-10781816D02*
X8837145Y-10791340D01*
X8846669Y-10800864D01*
X8856192Y-10791340D01*
X8846669Y-10781816D01*
X8846669Y-10800864D01*
X8970478Y-10981816D02*
X8951430Y-10972292D01*
X8941907Y-10953245D01*
X8941907Y-10781816D01*
X9075240Y-10981816D02*
X9056192Y-10972292D01*
X9046669Y-10953245D01*
X9046669Y-10781816D01*
X9303811Y-10981816D02*
X9303811Y-10781816D01*
X9370478Y-10924673D01*
X9437145Y-10781816D01*
X9437145Y-10981816D01*
X9618097Y-10981816D02*
X9618097Y-10877054D01*
X9608573Y-10858007D01*
X9589526Y-10848483D01*
X9551430Y-10848483D01*
X9532383Y-10858007D01*
X9618097Y-10972292D02*
X9599050Y-10981816D01*
X9551430Y-10981816D01*
X9532383Y-10972292D01*
X9522859Y-10953245D01*
X9522859Y-10934197D01*
X9532383Y-10915150D01*
X9551430Y-10905626D01*
X9599050Y-10905626D01*
X9618097Y-10896102D01*
X9713335Y-10848483D02*
X9713335Y-11048483D01*
X9713335Y-10858007D02*
X9732383Y-10848483D01*
X9770478Y-10848483D01*
X9789526Y-10858007D01*
X9799050Y-10867530D01*
X9808573Y-10886578D01*
X9808573Y-10943721D01*
X9799050Y-10962769D01*
X9789526Y-10972292D01*
X9770478Y-10981816D01*
X9732383Y-10981816D01*
X9713335Y-10972292D01*
X9894288Y-10962769D02*
X9903811Y-10972292D01*
X9894288Y-10981816D01*
X9884764Y-10972292D01*
X9894288Y-10962769D01*
X9894288Y-10981816D01*
X9894288Y-10858007D02*
X9903811Y-10867530D01*
X9894288Y-10877054D01*
X9884764Y-10867530D01*
X9894288Y-10858007D01*
X9894288Y-10877054D01*
D12*
X8225240Y-11291340D02*
X8265240Y-11331340D01*
X8265240Y-11291340D02*
X8225240Y-11331340D01*
D11*
X8560954Y-11201816D02*
X8580002Y-11201816D01*
X8599050Y-11211340D01*
X8608573Y-11220864D01*
X8618097Y-11239911D01*
X8627621Y-11278007D01*
X8627621Y-11325626D01*
X8618097Y-11363721D01*
X8608573Y-11382768D01*
X8599050Y-11392292D01*
X8580002Y-11401816D01*
X8560954Y-11401816D01*
X8541907Y-11392292D01*
X8532383Y-11382768D01*
X8522859Y-11363721D01*
X8513335Y-11325626D01*
X8513335Y-11278007D01*
X8522859Y-11239911D01*
X8532383Y-11220864D01*
X8541907Y-11211340D01*
X8560954Y-11201816D01*
X8713335Y-11382768D02*
X8722859Y-11392292D01*
X8713335Y-11401816D01*
X8703811Y-11392292D01*
X8713335Y-11382768D01*
X8713335Y-11401816D01*
X8894288Y-11268483D02*
X8894288Y-11401816D01*
X8846669Y-11192292D02*
X8799050Y-11335149D01*
X8922859Y-11335149D01*
X9037145Y-11201816D02*
X9056192Y-11201816D01*
X9075240Y-11211340D01*
X9084764Y-11220864D01*
X9094288Y-11239911D01*
X9103811Y-11278007D01*
X9103811Y-11325626D01*
X9094288Y-11363721D01*
X9084764Y-11382768D01*
X9075240Y-11392292D01*
X9056192Y-11401816D01*
X9037145Y-11401816D01*
X9018097Y-11392292D01*
X9008573Y-11382768D01*
X8999050Y-11363721D01*
X8989526Y-11325626D01*
X8989526Y-11278007D01*
X8999050Y-11239911D01*
X9008573Y-11220864D01*
X9018097Y-11211340D01*
X9037145Y-11201816D01*
X9227621Y-11201816D02*
X9246669Y-11201816D01*
X9265716Y-11211340D01*
X9275240Y-11220864D01*
X9284764Y-11239911D01*
X9294288Y-11278007D01*
X9294288Y-11325626D01*
X9284764Y-11363721D01*
X9275240Y-11382768D01*
X9265716Y-11392292D01*
X9246669Y-11401816D01*
X9227621Y-11401816D01*
X9208573Y-11392292D01*
X9199050Y-11382768D01*
X9189526Y-11363721D01*
X9180002Y-11325626D01*
X9180002Y-11278007D01*
X9189526Y-11239911D01*
X9199050Y-11220864D01*
X9208573Y-11211340D01*
X9227621Y-11201816D01*
X9380002Y-11401816D02*
X9380002Y-11268483D01*
X9380002Y-11287530D02*
X9389526Y-11278007D01*
X9408573Y-11268483D01*
X9437145Y-11268483D01*
X9456192Y-11278007D01*
X9465716Y-11297054D01*
X9465716Y-11401816D01*
X9465716Y-11297054D02*
X9475240Y-11278007D01*
X9494288Y-11268483D01*
X9522859Y-11268483D01*
X9541907Y-11278007D01*
X9551430Y-11297054D01*
X9551430Y-11401816D01*
X9646669Y-11401816D02*
X9646669Y-11268483D01*
X9646669Y-11287530D02*
X9656192Y-11278007D01*
X9675240Y-11268483D01*
X9703811Y-11268483D01*
X9722859Y-11278007D01*
X9732383Y-11297054D01*
X9732383Y-11401816D01*
X9732383Y-11297054D02*
X9741907Y-11278007D01*
X9760954Y-11268483D01*
X9789526Y-11268483D01*
X9808573Y-11278007D01*
X9818097Y-11297054D01*
X9818097Y-11401816D01*
X10208573Y-11192292D02*
X10037145Y-11449435D01*
X10465716Y-11201816D02*
X10484764Y-11201816D01*
X10503811Y-11211340D01*
X10513335Y-11220864D01*
X10522859Y-11239911D01*
X10532383Y-11278007D01*
X10532383Y-11325626D01*
X10522859Y-11363721D01*
X10513335Y-11382768D01*
X10503811Y-11392292D01*
X10484764Y-11401816D01*
X10465716Y-11401816D01*
X10446669Y-11392292D01*
X10437145Y-11382768D01*
X10427621Y-11363721D01*
X10418097Y-11325626D01*
X10418097Y-11278007D01*
X10427621Y-11239911D01*
X10437145Y-11220864D01*
X10446669Y-11211340D01*
X10465716Y-11201816D01*
X10618097Y-11382768D02*
X10627621Y-11392292D01*
X10618097Y-11401816D01*
X10608573Y-11392292D01*
X10618097Y-11382768D01*
X10618097Y-11401816D01*
X10751430Y-11201816D02*
X10770478Y-11201816D01*
X10789526Y-11211340D01*
X10799050Y-11220864D01*
X10808573Y-11239911D01*
X10818097Y-11278007D01*
X10818097Y-11325626D01*
X10808573Y-11363721D01*
X10799050Y-11382768D01*
X10789526Y-11392292D01*
X10770478Y-11401816D01*
X10751430Y-11401816D01*
X10732383Y-11392292D01*
X10722859Y-11382768D01*
X10713335Y-11363721D01*
X10703811Y-11325626D01*
X10703811Y-11278007D01*
X10713335Y-11239911D01*
X10722859Y-11220864D01*
X10732383Y-11211340D01*
X10751430Y-11201816D01*
X11008573Y-11401816D02*
X10894288Y-11401816D01*
X10951430Y-11401816D02*
X10951430Y-11201816D01*
X10932383Y-11230388D01*
X10913335Y-11249435D01*
X10894288Y-11258959D01*
X11189526Y-11201816D02*
X11094288Y-11201816D01*
X11084764Y-11297054D01*
X11094288Y-11287530D01*
X11113335Y-11278007D01*
X11160954Y-11278007D01*
X11180002Y-11287530D01*
X11189526Y-11297054D01*
X11199049Y-11316102D01*
X11199049Y-11363721D01*
X11189526Y-11382768D01*
X11180002Y-11392292D01*
X11160954Y-11401816D01*
X11113335Y-11401816D01*
X11094288Y-11392292D01*
X11084764Y-11382768D01*
X11265716Y-11201816D02*
X11399049Y-11201816D01*
X11313335Y-11401816D01*
X11465716Y-11201816D02*
X11465716Y-11239911D01*
X11541907Y-11201816D02*
X11541907Y-11239911D01*
X11837145Y-11478007D02*
X11827621Y-11468483D01*
X11808573Y-11439911D01*
X11799049Y-11420864D01*
X11789526Y-11392292D01*
X11780002Y-11344673D01*
X11780002Y-11306578D01*
X11789526Y-11258959D01*
X11799049Y-11230388D01*
X11808573Y-11211340D01*
X11827621Y-11182769D01*
X11837145Y-11173245D01*
X11999049Y-11201816D02*
X11960954Y-11201816D01*
X11941907Y-11211340D01*
X11932383Y-11220864D01*
X11913335Y-11249435D01*
X11903811Y-11287530D01*
X11903811Y-11363721D01*
X11913335Y-11382768D01*
X11922859Y-11392292D01*
X11941907Y-11401816D01*
X11980002Y-11401816D01*
X11999049Y-11392292D01*
X12008573Y-11382768D01*
X12018097Y-11363721D01*
X12018097Y-11316102D01*
X12008573Y-11297054D01*
X11999049Y-11287530D01*
X11980002Y-11278007D01*
X11941907Y-11278007D01*
X11922859Y-11287530D01*
X11913335Y-11297054D01*
X11903811Y-11316102D01*
X12141907Y-11201816D02*
X12160954Y-11201816D01*
X12180002Y-11211340D01*
X12189526Y-11220864D01*
X12199049Y-11239911D01*
X12208573Y-11278007D01*
X12208573Y-11325626D01*
X12199049Y-11363721D01*
X12189526Y-11382768D01*
X12180002Y-11392292D01*
X12160954Y-11401816D01*
X12141907Y-11401816D01*
X12122859Y-11392292D01*
X12113335Y-11382768D01*
X12103811Y-11363721D01*
X12094288Y-11325626D01*
X12094288Y-11278007D01*
X12103811Y-11239911D01*
X12113335Y-11220864D01*
X12122859Y-11211340D01*
X12141907Y-11201816D01*
X12446668Y-11401816D02*
X12446668Y-11201816D01*
X12532383Y-11401816D02*
X12532383Y-11297054D01*
X12522859Y-11278007D01*
X12503811Y-11268483D01*
X12475240Y-11268483D01*
X12456192Y-11278007D01*
X12446668Y-11287530D01*
X12656192Y-11401816D02*
X12637145Y-11392292D01*
X12627621Y-11382768D01*
X12618097Y-11363721D01*
X12618097Y-11306578D01*
X12627621Y-11287530D01*
X12637145Y-11278007D01*
X12656192Y-11268483D01*
X12684764Y-11268483D01*
X12703811Y-11278007D01*
X12713335Y-11287530D01*
X12722859Y-11306578D01*
X12722859Y-11363721D01*
X12713335Y-11382768D01*
X12703811Y-11392292D01*
X12684764Y-11401816D01*
X12656192Y-11401816D01*
X12837145Y-11401816D02*
X12818097Y-11392292D01*
X12808573Y-11373245D01*
X12808573Y-11201816D01*
X12989526Y-11392292D02*
X12970478Y-11401816D01*
X12932383Y-11401816D01*
X12913335Y-11392292D01*
X12903811Y-11373245D01*
X12903811Y-11297054D01*
X12913335Y-11278007D01*
X12932383Y-11268483D01*
X12970478Y-11268483D01*
X12989526Y-11278007D01*
X12999049Y-11297054D01*
X12999049Y-11316102D01*
X12903811Y-11335149D01*
X13075240Y-11392292D02*
X13094288Y-11401816D01*
X13132383Y-11401816D01*
X13151430Y-11392292D01*
X13160954Y-11373245D01*
X13160954Y-11363721D01*
X13151430Y-11344673D01*
X13132383Y-11335149D01*
X13103811Y-11335149D01*
X13084764Y-11325626D01*
X13075240Y-11306578D01*
X13075240Y-11297054D01*
X13084764Y-11278007D01*
X13103811Y-11268483D01*
X13132383Y-11268483D01*
X13151430Y-11278007D01*
X13227621Y-11478007D02*
X13237145Y-11468483D01*
X13256192Y-11439911D01*
X13265716Y-11420864D01*
X13275240Y-11392292D01*
X13284764Y-11344673D01*
X13284764Y-11306578D01*
X13275240Y-11258959D01*
X13265716Y-11230388D01*
X13256192Y-11211340D01*
X13237145Y-11182769D01*
X13227621Y-11173245D01*
D13*
X8265240Y-11575340D02*
G75*
G03*
X8265240Y-11575340I-50000J0D01*
G01*
D11*
X8627621Y-11665816D02*
X8513335Y-11665816D01*
X8570478Y-11665816D02*
X8570478Y-11465816D01*
X8551430Y-11494388D01*
X8532383Y-11513435D01*
X8513335Y-11522959D01*
X8713335Y-11646768D02*
X8722859Y-11656292D01*
X8713335Y-11665816D01*
X8703811Y-11656292D01*
X8713335Y-11646768D01*
X8713335Y-11665816D01*
X8846669Y-11465816D02*
X8865716Y-11465816D01*
X8884764Y-11475340D01*
X8894288Y-11484864D01*
X8903811Y-11503911D01*
X8913335Y-11542007D01*
X8913335Y-11589626D01*
X8903811Y-11627721D01*
X8894288Y-11646768D01*
X8884764Y-11656292D01*
X8865716Y-11665816D01*
X8846669Y-11665816D01*
X8827621Y-11656292D01*
X8818097Y-11646768D01*
X8808573Y-11627721D01*
X8799050Y-11589626D01*
X8799050Y-11542007D01*
X8808573Y-11503911D01*
X8818097Y-11484864D01*
X8827621Y-11475340D01*
X8846669Y-11465816D01*
X9037145Y-11465816D02*
X9056192Y-11465816D01*
X9075240Y-11475340D01*
X9084764Y-11484864D01*
X9094288Y-11503911D01*
X9103811Y-11542007D01*
X9103811Y-11589626D01*
X9094288Y-11627721D01*
X9084764Y-11646768D01*
X9075240Y-11656292D01*
X9056192Y-11665816D01*
X9037145Y-11665816D01*
X9018097Y-11656292D01*
X9008573Y-11646768D01*
X8999050Y-11627721D01*
X8989526Y-11589626D01*
X8989526Y-11542007D01*
X8999050Y-11503911D01*
X9008573Y-11484864D01*
X9018097Y-11475340D01*
X9037145Y-11465816D01*
X9227621Y-11465816D02*
X9246669Y-11465816D01*
X9265716Y-11475340D01*
X9275240Y-11484864D01*
X9284764Y-11503911D01*
X9294288Y-11542007D01*
X9294288Y-11589626D01*
X9284764Y-11627721D01*
X9275240Y-11646768D01*
X9265716Y-11656292D01*
X9246669Y-11665816D01*
X9227621Y-11665816D01*
X9208573Y-11656292D01*
X9199050Y-11646768D01*
X9189526Y-11627721D01*
X9180002Y-11589626D01*
X9180002Y-11542007D01*
X9189526Y-11503911D01*
X9199050Y-11484864D01*
X9208573Y-11475340D01*
X9227621Y-11465816D01*
X9380002Y-11665816D02*
X9380002Y-11532483D01*
X9380002Y-11551530D02*
X9389526Y-11542007D01*
X9408573Y-11532483D01*
X9437145Y-11532483D01*
X9456192Y-11542007D01*
X9465716Y-11561054D01*
X9465716Y-11665816D01*
X9465716Y-11561054D02*
X9475240Y-11542007D01*
X9494288Y-11532483D01*
X9522859Y-11532483D01*
X9541907Y-11542007D01*
X9551430Y-11561054D01*
X9551430Y-11665816D01*
X9646669Y-11665816D02*
X9646669Y-11532483D01*
X9646669Y-11551530D02*
X9656192Y-11542007D01*
X9675240Y-11532483D01*
X9703811Y-11532483D01*
X9722859Y-11542007D01*
X9732383Y-11561054D01*
X9732383Y-11665816D01*
X9732383Y-11561054D02*
X9741907Y-11542007D01*
X9760954Y-11532483D01*
X9789526Y-11532483D01*
X9808573Y-11542007D01*
X9818097Y-11561054D01*
X9818097Y-11665816D01*
X10208573Y-11456292D02*
X10037145Y-11713435D01*
X10465716Y-11465816D02*
X10484764Y-11465816D01*
X10503811Y-11475340D01*
X10513335Y-11484864D01*
X10522859Y-11503911D01*
X10532383Y-11542007D01*
X10532383Y-11589626D01*
X10522859Y-11627721D01*
X10513335Y-11646768D01*
X10503811Y-11656292D01*
X10484764Y-11665816D01*
X10465716Y-11665816D01*
X10446669Y-11656292D01*
X10437145Y-11646768D01*
X10427621Y-11627721D01*
X10418097Y-11589626D01*
X10418097Y-11542007D01*
X10427621Y-11503911D01*
X10437145Y-11484864D01*
X10446669Y-11475340D01*
X10465716Y-11465816D01*
X10618097Y-11646768D02*
X10627621Y-11656292D01*
X10618097Y-11665816D01*
X10608573Y-11656292D01*
X10618097Y-11646768D01*
X10618097Y-11665816D01*
X10751430Y-11465816D02*
X10770478Y-11465816D01*
X10789526Y-11475340D01*
X10799050Y-11484864D01*
X10808573Y-11503911D01*
X10818097Y-11542007D01*
X10818097Y-11589626D01*
X10808573Y-11627721D01*
X10799050Y-11646768D01*
X10789526Y-11656292D01*
X10770478Y-11665816D01*
X10751430Y-11665816D01*
X10732383Y-11656292D01*
X10722859Y-11646768D01*
X10713335Y-11627721D01*
X10703811Y-11589626D01*
X10703811Y-11542007D01*
X10713335Y-11503911D01*
X10722859Y-11484864D01*
X10732383Y-11475340D01*
X10751430Y-11465816D01*
X10884764Y-11465816D02*
X11008573Y-11465816D01*
X10941907Y-11542007D01*
X10970478Y-11542007D01*
X10989526Y-11551530D01*
X10999050Y-11561054D01*
X11008573Y-11580102D01*
X11008573Y-11627721D01*
X10999050Y-11646768D01*
X10989526Y-11656292D01*
X10970478Y-11665816D01*
X10913335Y-11665816D01*
X10894288Y-11656292D01*
X10884764Y-11646768D01*
X11103811Y-11665816D02*
X11141907Y-11665816D01*
X11160954Y-11656292D01*
X11170478Y-11646768D01*
X11189526Y-11618197D01*
X11199049Y-11580102D01*
X11199049Y-11503911D01*
X11189526Y-11484864D01*
X11180002Y-11475340D01*
X11160954Y-11465816D01*
X11122859Y-11465816D01*
X11103811Y-11475340D01*
X11094288Y-11484864D01*
X11084764Y-11503911D01*
X11084764Y-11551530D01*
X11094288Y-11570578D01*
X11103811Y-11580102D01*
X11122859Y-11589626D01*
X11160954Y-11589626D01*
X11180002Y-11580102D01*
X11189526Y-11570578D01*
X11199049Y-11551530D01*
X11370478Y-11532483D02*
X11370478Y-11665816D01*
X11322859Y-11456292D02*
X11275240Y-11599149D01*
X11399049Y-11599149D01*
X11465716Y-11465816D02*
X11465716Y-11503911D01*
X11541907Y-11465816D02*
X11541907Y-11503911D01*
X11837145Y-11742007D02*
X11827621Y-11732483D01*
X11808573Y-11703911D01*
X11799049Y-11684864D01*
X11789526Y-11656292D01*
X11780002Y-11608673D01*
X11780002Y-11570578D01*
X11789526Y-11522959D01*
X11799049Y-11494388D01*
X11808573Y-11475340D01*
X11827621Y-11446768D01*
X11837145Y-11437245D01*
X11999049Y-11465816D02*
X11960954Y-11465816D01*
X11941907Y-11475340D01*
X11932383Y-11484864D01*
X11913335Y-11513435D01*
X11903811Y-11551530D01*
X11903811Y-11627721D01*
X11913335Y-11646768D01*
X11922859Y-11656292D01*
X11941907Y-11665816D01*
X11980002Y-11665816D01*
X11999049Y-11656292D01*
X12008573Y-11646768D01*
X12018097Y-11627721D01*
X12018097Y-11580102D01*
X12008573Y-11561054D01*
X11999049Y-11551530D01*
X11980002Y-11542007D01*
X11941907Y-11542007D01*
X11922859Y-11551530D01*
X11913335Y-11561054D01*
X11903811Y-11580102D01*
X12189526Y-11532483D02*
X12189526Y-11665816D01*
X12141907Y-11456292D02*
X12094288Y-11599149D01*
X12218097Y-11599149D01*
X12446668Y-11665816D02*
X12446668Y-11465816D01*
X12532383Y-11665816D02*
X12532383Y-11561054D01*
X12522859Y-11542007D01*
X12503811Y-11532483D01*
X12475240Y-11532483D01*
X12456192Y-11542007D01*
X12446668Y-11551530D01*
X12656192Y-11665816D02*
X12637145Y-11656292D01*
X12627621Y-11646768D01*
X12618097Y-11627721D01*
X12618097Y-11570578D01*
X12627621Y-11551530D01*
X12637145Y-11542007D01*
X12656192Y-11532483D01*
X12684764Y-11532483D01*
X12703811Y-11542007D01*
X12713335Y-11551530D01*
X12722859Y-11570578D01*
X12722859Y-11627721D01*
X12713335Y-11646768D01*
X12703811Y-11656292D01*
X12684764Y-11665816D01*
X12656192Y-11665816D01*
X12837145Y-11665816D02*
X12818097Y-11656292D01*
X12808573Y-11637245D01*
X12808573Y-11465816D01*
X12989526Y-11656292D02*
X12970478Y-11665816D01*
X12932383Y-11665816D01*
X12913335Y-11656292D01*
X12903811Y-11637245D01*
X12903811Y-11561054D01*
X12913335Y-11542007D01*
X12932383Y-11532483D01*
X12970478Y-11532483D01*
X12989526Y-11542007D01*
X12999049Y-11561054D01*
X12999049Y-11580102D01*
X12903811Y-11599149D01*
X13075240Y-11656292D02*
X13094288Y-11665816D01*
X13132383Y-11665816D01*
X13151430Y-11656292D01*
X13160954Y-11637245D01*
X13160954Y-11627721D01*
X13151430Y-11608673D01*
X13132383Y-11599149D01*
X13103811Y-11599149D01*
X13084764Y-11589626D01*
X13075240Y-11570578D01*
X13075240Y-11561054D01*
X13084764Y-11542007D01*
X13103811Y-11532483D01*
X13132383Y-11532483D01*
X13151430Y-11542007D01*
X13227621Y-11742007D02*
X13237145Y-11732483D01*
X13256192Y-11703911D01*
X13265716Y-11684864D01*
X13275240Y-11656292D01*
X13284764Y-11608673D01*
X13284764Y-11570578D01*
X13275240Y-11522959D01*
X13265716Y-11494388D01*
X13256192Y-11475340D01*
X13237145Y-11446768D01*
X13227621Y-11437245D01*
M02*
