%FSLAX45Y45*%
G04 Gerber Fmt 4.5, Leading zero omitted, Abs format (unit mm)*
G04 Created by KiCad (PCBNEW (6.0.6)) date 2022-08-29 16:25:41*
%MOMM*%
%LPD*%
G01*
G04 APERTURE LIST*
%TA.AperFunction,Profile*%
%ADD10C,0.100000*%
%TD*%
%ADD11C,0.200000*%
%ADD12C,0.320000*%
G04 APERTURE END LIST*
D10*
X12145400Y-4300220D02*
X8270240Y-4300220D01*
X8270240Y-4300220D02*
X8270240Y-10666340D01*
X8270240Y-10666340D02*
X12145400Y-10666340D01*
X12145400Y-10666340D02*
X12145400Y-4300220D01*
D11*
D12*
X8511560Y-4544080D02*
X8831560Y-4864080D01*
X8831560Y-4544080D02*
X8511560Y-4864080D01*
X8511560Y-10106680D02*
X8831560Y-10426680D01*
X8831560Y-10106680D02*
X8511560Y-10426680D01*
D11*
X8522859Y-10981816D02*
X8522859Y-10781816D01*
X8570478Y-10781816D01*
X8599050Y-10791340D01*
X8618097Y-10810388D01*
X8627621Y-10829435D01*
X8637145Y-10867530D01*
X8637145Y-10896102D01*
X8627621Y-10934197D01*
X8618097Y-10953245D01*
X8599050Y-10972292D01*
X8570478Y-10981816D01*
X8522859Y-10981816D01*
X8722859Y-10981816D02*
X8722859Y-10848483D01*
X8722859Y-10886578D02*
X8732383Y-10867530D01*
X8741907Y-10858007D01*
X8760954Y-10848483D01*
X8780002Y-10848483D01*
X8846669Y-10981816D02*
X8846669Y-10848483D01*
X8846669Y-10781816D02*
X8837145Y-10791340D01*
X8846669Y-10800864D01*
X8856192Y-10791340D01*
X8846669Y-10781816D01*
X8846669Y-10800864D01*
X8970478Y-10981816D02*
X8951430Y-10972292D01*
X8941907Y-10953245D01*
X8941907Y-10781816D01*
X9075240Y-10981816D02*
X9056192Y-10972292D01*
X9046669Y-10953245D01*
X9046669Y-10781816D01*
X9303811Y-10981816D02*
X9303811Y-10781816D01*
X9370478Y-10924673D01*
X9437145Y-10781816D01*
X9437145Y-10981816D01*
X9618097Y-10981816D02*
X9618097Y-10877054D01*
X9608573Y-10858007D01*
X9589526Y-10848483D01*
X9551430Y-10848483D01*
X9532383Y-10858007D01*
X9618097Y-10972292D02*
X9599050Y-10981816D01*
X9551430Y-10981816D01*
X9532383Y-10972292D01*
X9522859Y-10953245D01*
X9522859Y-10934197D01*
X9532383Y-10915150D01*
X9551430Y-10905626D01*
X9599050Y-10905626D01*
X9618097Y-10896102D01*
X9713335Y-10848483D02*
X9713335Y-11048483D01*
X9713335Y-10858007D02*
X9732383Y-10848483D01*
X9770478Y-10848483D01*
X9789526Y-10858007D01*
X9799050Y-10867530D01*
X9808573Y-10886578D01*
X9808573Y-10943721D01*
X9799050Y-10962769D01*
X9789526Y-10972292D01*
X9770478Y-10981816D01*
X9732383Y-10981816D01*
X9713335Y-10972292D01*
X9894288Y-10962769D02*
X9903811Y-10972292D01*
X9894288Y-10981816D01*
X9884764Y-10972292D01*
X9894288Y-10962769D01*
X9894288Y-10981816D01*
X9894288Y-10858007D02*
X9903811Y-10867530D01*
X9894288Y-10877054D01*
X9884764Y-10867530D01*
X9894288Y-10858007D01*
X9894288Y-10877054D01*
X8065240Y-11211340D02*
X8265240Y-11411340D01*
X8265240Y-11211340D02*
X8065240Y-11411340D01*
X8503811Y-11201816D02*
X8627621Y-11201816D01*
X8560954Y-11278007D01*
X8589526Y-11278007D01*
X8608573Y-11287530D01*
X8618097Y-11297054D01*
X8627621Y-11316102D01*
X8627621Y-11363721D01*
X8618097Y-11382768D01*
X8608573Y-11392292D01*
X8589526Y-11401816D01*
X8532383Y-11401816D01*
X8513335Y-11392292D01*
X8503811Y-11382768D01*
X8713335Y-11382768D02*
X8722859Y-11392292D01*
X8713335Y-11401816D01*
X8703811Y-11392292D01*
X8713335Y-11382768D01*
X8713335Y-11401816D01*
X8799050Y-11220864D02*
X8808573Y-11211340D01*
X8827621Y-11201816D01*
X8875240Y-11201816D01*
X8894288Y-11211340D01*
X8903811Y-11220864D01*
X8913335Y-11239911D01*
X8913335Y-11258959D01*
X8903811Y-11287530D01*
X8789526Y-11401816D01*
X8913335Y-11401816D01*
X9037145Y-11201816D02*
X9056192Y-11201816D01*
X9075240Y-11211340D01*
X9084764Y-11220864D01*
X9094288Y-11239911D01*
X9103811Y-11278007D01*
X9103811Y-11325626D01*
X9094288Y-11363721D01*
X9084764Y-11382768D01*
X9075240Y-11392292D01*
X9056192Y-11401816D01*
X9037145Y-11401816D01*
X9018097Y-11392292D01*
X9008573Y-11382768D01*
X8999050Y-11363721D01*
X8989526Y-11325626D01*
X8989526Y-11278007D01*
X8999050Y-11239911D01*
X9008573Y-11220864D01*
X9018097Y-11211340D01*
X9037145Y-11201816D01*
X9227621Y-11201816D02*
X9246669Y-11201816D01*
X9265716Y-11211340D01*
X9275240Y-11220864D01*
X9284764Y-11239911D01*
X9294288Y-11278007D01*
X9294288Y-11325626D01*
X9284764Y-11363721D01*
X9275240Y-11382768D01*
X9265716Y-11392292D01*
X9246669Y-11401816D01*
X9227621Y-11401816D01*
X9208573Y-11392292D01*
X9199050Y-11382768D01*
X9189526Y-11363721D01*
X9180002Y-11325626D01*
X9180002Y-11278007D01*
X9189526Y-11239911D01*
X9199050Y-11220864D01*
X9208573Y-11211340D01*
X9227621Y-11201816D01*
X9380002Y-11401816D02*
X9380002Y-11268483D01*
X9380002Y-11287530D02*
X9389526Y-11278007D01*
X9408573Y-11268483D01*
X9437145Y-11268483D01*
X9456192Y-11278007D01*
X9465716Y-11297054D01*
X9465716Y-11401816D01*
X9465716Y-11297054D02*
X9475240Y-11278007D01*
X9494288Y-11268483D01*
X9522859Y-11268483D01*
X9541907Y-11278007D01*
X9551430Y-11297054D01*
X9551430Y-11401816D01*
X9646669Y-11401816D02*
X9646669Y-11268483D01*
X9646669Y-11287530D02*
X9656192Y-11278007D01*
X9675240Y-11268483D01*
X9703811Y-11268483D01*
X9722859Y-11278007D01*
X9732383Y-11297054D01*
X9732383Y-11401816D01*
X9732383Y-11297054D02*
X9741907Y-11278007D01*
X9760954Y-11268483D01*
X9789526Y-11268483D01*
X9808573Y-11278007D01*
X9818097Y-11297054D01*
X9818097Y-11401816D01*
X10208573Y-11192292D02*
X10037145Y-11449435D01*
X10465716Y-11201816D02*
X10484764Y-11201816D01*
X10503811Y-11211340D01*
X10513335Y-11220864D01*
X10522859Y-11239911D01*
X10532383Y-11278007D01*
X10532383Y-11325626D01*
X10522859Y-11363721D01*
X10513335Y-11382768D01*
X10503811Y-11392292D01*
X10484764Y-11401816D01*
X10465716Y-11401816D01*
X10446669Y-11392292D01*
X10437145Y-11382768D01*
X10427621Y-11363721D01*
X10418097Y-11325626D01*
X10418097Y-11278007D01*
X10427621Y-11239911D01*
X10437145Y-11220864D01*
X10446669Y-11211340D01*
X10465716Y-11201816D01*
X10618097Y-11382768D02*
X10627621Y-11392292D01*
X10618097Y-11401816D01*
X10608573Y-11392292D01*
X10618097Y-11382768D01*
X10618097Y-11401816D01*
X10818097Y-11401816D02*
X10703811Y-11401816D01*
X10760954Y-11401816D02*
X10760954Y-11201816D01*
X10741907Y-11230388D01*
X10722859Y-11249435D01*
X10703811Y-11258959D01*
X10894288Y-11220864D02*
X10903811Y-11211340D01*
X10922859Y-11201816D01*
X10970478Y-11201816D01*
X10989526Y-11211340D01*
X10999050Y-11220864D01*
X11008573Y-11239911D01*
X11008573Y-11258959D01*
X10999050Y-11287530D01*
X10884764Y-11401816D01*
X11008573Y-11401816D01*
X11180002Y-11201816D02*
X11141907Y-11201816D01*
X11122859Y-11211340D01*
X11113335Y-11220864D01*
X11094288Y-11249435D01*
X11084764Y-11287530D01*
X11084764Y-11363721D01*
X11094288Y-11382768D01*
X11103811Y-11392292D01*
X11122859Y-11401816D01*
X11160954Y-11401816D01*
X11180002Y-11392292D01*
X11189526Y-11382768D01*
X11199049Y-11363721D01*
X11199049Y-11316102D01*
X11189526Y-11297054D01*
X11180002Y-11287530D01*
X11160954Y-11278007D01*
X11122859Y-11278007D01*
X11103811Y-11287530D01*
X11094288Y-11297054D01*
X11084764Y-11316102D01*
X11322859Y-11201816D02*
X11341907Y-11201816D01*
X11360954Y-11211340D01*
X11370478Y-11220864D01*
X11380002Y-11239911D01*
X11389526Y-11278007D01*
X11389526Y-11325626D01*
X11380002Y-11363721D01*
X11370478Y-11382768D01*
X11360954Y-11392292D01*
X11341907Y-11401816D01*
X11322859Y-11401816D01*
X11303811Y-11392292D01*
X11294288Y-11382768D01*
X11284764Y-11363721D01*
X11275240Y-11325626D01*
X11275240Y-11278007D01*
X11284764Y-11239911D01*
X11294288Y-11220864D01*
X11303811Y-11211340D01*
X11322859Y-11201816D01*
X11465716Y-11201816D02*
X11465716Y-11239911D01*
X11541907Y-11201816D02*
X11541907Y-11239911D01*
X11837145Y-11478007D02*
X11827621Y-11468483D01*
X11808573Y-11439911D01*
X11799049Y-11420864D01*
X11789526Y-11392292D01*
X11780002Y-11344673D01*
X11780002Y-11306578D01*
X11789526Y-11258959D01*
X11799049Y-11230388D01*
X11808573Y-11211340D01*
X11827621Y-11182769D01*
X11837145Y-11173245D01*
X11903811Y-11220864D02*
X11913335Y-11211340D01*
X11932383Y-11201816D01*
X11980002Y-11201816D01*
X11999049Y-11211340D01*
X12008573Y-11220864D01*
X12018097Y-11239911D01*
X12018097Y-11258959D01*
X12008573Y-11287530D01*
X11894288Y-11401816D01*
X12018097Y-11401816D01*
X12256192Y-11401816D02*
X12256192Y-11201816D01*
X12341907Y-11401816D02*
X12341907Y-11297054D01*
X12332383Y-11278007D01*
X12313335Y-11268483D01*
X12284764Y-11268483D01*
X12265716Y-11278007D01*
X12256192Y-11287530D01*
X12465716Y-11401816D02*
X12446668Y-11392292D01*
X12437145Y-11382768D01*
X12427621Y-11363721D01*
X12427621Y-11306578D01*
X12437145Y-11287530D01*
X12446668Y-11278007D01*
X12465716Y-11268483D01*
X12494288Y-11268483D01*
X12513335Y-11278007D01*
X12522859Y-11287530D01*
X12532383Y-11306578D01*
X12532383Y-11363721D01*
X12522859Y-11382768D01*
X12513335Y-11392292D01*
X12494288Y-11401816D01*
X12465716Y-11401816D01*
X12646668Y-11401816D02*
X12627621Y-11392292D01*
X12618097Y-11373245D01*
X12618097Y-11201816D01*
X12799049Y-11392292D02*
X12780002Y-11401816D01*
X12741907Y-11401816D01*
X12722859Y-11392292D01*
X12713335Y-11373245D01*
X12713335Y-11297054D01*
X12722859Y-11278007D01*
X12741907Y-11268483D01*
X12780002Y-11268483D01*
X12799049Y-11278007D01*
X12808573Y-11297054D01*
X12808573Y-11316102D01*
X12713335Y-11335149D01*
X12884764Y-11392292D02*
X12903811Y-11401816D01*
X12941907Y-11401816D01*
X12960954Y-11392292D01*
X12970478Y-11373245D01*
X12970478Y-11363721D01*
X12960954Y-11344673D01*
X12941907Y-11335149D01*
X12913335Y-11335149D01*
X12894288Y-11325626D01*
X12884764Y-11306578D01*
X12884764Y-11297054D01*
X12894288Y-11278007D01*
X12913335Y-11268483D01*
X12941907Y-11268483D01*
X12960954Y-11278007D01*
X13037145Y-11478007D02*
X13046668Y-11468483D01*
X13065716Y-11439911D01*
X13075240Y-11420864D01*
X13084764Y-11392292D01*
X13094288Y-11344673D01*
X13094288Y-11306578D01*
X13084764Y-11258959D01*
X13075240Y-11230388D01*
X13065716Y-11211340D01*
X13046668Y-11182769D01*
X13037145Y-11173245D01*
X13399049Y-11478007D02*
X13389526Y-11468483D01*
X13370478Y-11439911D01*
X13360954Y-11420864D01*
X13351430Y-11392292D01*
X13341907Y-11344673D01*
X13341907Y-11306578D01*
X13351430Y-11258959D01*
X13360954Y-11230388D01*
X13370478Y-11211340D01*
X13389526Y-11182769D01*
X13399049Y-11173245D01*
X13475240Y-11268483D02*
X13475240Y-11401816D01*
X13475240Y-11287530D02*
X13484764Y-11278007D01*
X13503811Y-11268483D01*
X13532383Y-11268483D01*
X13551430Y-11278007D01*
X13560954Y-11297054D01*
X13560954Y-11401816D01*
X13684764Y-11401816D02*
X13665716Y-11392292D01*
X13656192Y-11382768D01*
X13646668Y-11363721D01*
X13646668Y-11306578D01*
X13656192Y-11287530D01*
X13665716Y-11278007D01*
X13684764Y-11268483D01*
X13713335Y-11268483D01*
X13732383Y-11278007D01*
X13741907Y-11287530D01*
X13751430Y-11306578D01*
X13751430Y-11363721D01*
X13741907Y-11382768D01*
X13732383Y-11392292D01*
X13713335Y-11401816D01*
X13684764Y-11401816D01*
X13808573Y-11268483D02*
X13884764Y-11268483D01*
X13837145Y-11201816D02*
X13837145Y-11373245D01*
X13846668Y-11392292D01*
X13865716Y-11401816D01*
X13884764Y-11401816D01*
X14103811Y-11268483D02*
X14103811Y-11468483D01*
X14103811Y-11278007D02*
X14122859Y-11268483D01*
X14160954Y-11268483D01*
X14180002Y-11278007D01*
X14189526Y-11287530D01*
X14199049Y-11306578D01*
X14199049Y-11363721D01*
X14189526Y-11382768D01*
X14180002Y-11392292D01*
X14160954Y-11401816D01*
X14122859Y-11401816D01*
X14103811Y-11392292D01*
X14313335Y-11401816D02*
X14294288Y-11392292D01*
X14284764Y-11373245D01*
X14284764Y-11201816D01*
X14475240Y-11401816D02*
X14475240Y-11297054D01*
X14465716Y-11278007D01*
X14446668Y-11268483D01*
X14408573Y-11268483D01*
X14389526Y-11278007D01*
X14475240Y-11392292D02*
X14456192Y-11401816D01*
X14408573Y-11401816D01*
X14389526Y-11392292D01*
X14380002Y-11373245D01*
X14380002Y-11354197D01*
X14389526Y-11335149D01*
X14408573Y-11325626D01*
X14456192Y-11325626D01*
X14475240Y-11316102D01*
X14541907Y-11268483D02*
X14618097Y-11268483D01*
X14570478Y-11201816D02*
X14570478Y-11373245D01*
X14580002Y-11392292D01*
X14599049Y-11401816D01*
X14618097Y-11401816D01*
X14760954Y-11392292D02*
X14741907Y-11401816D01*
X14703811Y-11401816D01*
X14684764Y-11392292D01*
X14675240Y-11373245D01*
X14675240Y-11297054D01*
X14684764Y-11278007D01*
X14703811Y-11268483D01*
X14741907Y-11268483D01*
X14760954Y-11278007D01*
X14770478Y-11297054D01*
X14770478Y-11316102D01*
X14675240Y-11335149D01*
X14941907Y-11401816D02*
X14941907Y-11201816D01*
X14941907Y-11392292D02*
X14922859Y-11401816D01*
X14884764Y-11401816D01*
X14865716Y-11392292D01*
X14856192Y-11382768D01*
X14846668Y-11363721D01*
X14846668Y-11306578D01*
X14856192Y-11287530D01*
X14865716Y-11278007D01*
X14884764Y-11268483D01*
X14922859Y-11268483D01*
X14941907Y-11278007D01*
X15018097Y-11478007D02*
X15027621Y-11468483D01*
X15046668Y-11439911D01*
X15056192Y-11420864D01*
X15065716Y-11392292D01*
X15075240Y-11344673D01*
X15075240Y-11306578D01*
X15065716Y-11258959D01*
X15056192Y-11230388D01*
X15046668Y-11211340D01*
X15027621Y-11182769D01*
X15018097Y-11173245D01*
M02*
