M48
; DRILL file {KiCad (6.0.6)} date Mon Aug 29 16:25:40 2022
; FORMAT={-:-/ absolute / metric / decimal}
; #@! TF.CreationDate,2022-08-29T16:25:40+02:00
; #@! TF.GenerationSoftware,Kicad,Pcbnew,(6.0.6)
; #@! TF.FileFunction,Plated,1,2,PTH
FMAT,2
METRIC
; #@! TA.AperFunction,Plated,PTH,ViaDrill
T1C0.400
; #@! TA.AperFunction,Plated,PTH,ComponentDrill
T2C1.000
%
G90
G05
T1
X88.392Y-63.297
X88.392Y-83.871
X88.443Y-93.523
X88.544Y-73.914
X90.373Y-53.137
X92.71Y-100.686
X93.929Y-96.418
X94.132Y-78.994
X94.386Y-81.28
X96.266Y-68.021
X96.266Y-73.914
X96.266Y-78.334
X96.266Y-82.144
X96.926Y-63.297
X96.926Y-89.408
X97.028Y-59.792
X97.333Y-75.438
X97.79Y-77.114
X98.044Y-48.92
X98.654Y-91.338
X98.755Y-72.085
X99.356Y-75.165
X99.466Y-74.117
X100.381Y-73.406
X100.889Y-58.572
X101.346Y-63.906
X101.397Y-82.652
X101.702Y-92.964
X102.464Y-78.537
X102.921Y-56.896
X103.683Y-91.585
X103.988Y-100.889
X105.105Y-88.138
X105.562Y-59.03
X105.969Y-76.149
X105.969Y-91.897
X106.274Y-69.952
X106.629Y-83.464
X107.188Y-48.92
X107.798Y-66.497
X108.356Y-69.952
X108.966Y-58.826
X109.982Y-92.913
X110.693Y-76.048
X110.998Y-56.896
X110.998Y-74.457
X111.912Y-91.237
X112.268Y-60.35
X112.42Y-50.292
X112.979Y-87.579
X113.233Y-73.965
X113.894Y-100.99
X114.656Y-92.812
X118.567Y-56.286
X119.228Y-65.938
X119.278Y-68.478
X119.329Y-75.997
X119.329Y-78.689
X119.329Y-81.178
X119.329Y-83.769
T2
X84.76Y-55.956
X84.76Y-63.576
X84.76Y-66.116
X84.76Y-73.736
X84.76Y-76.276
X84.76Y-83.896
X84.76Y-86.436
X84.76Y-94.056
X92.38Y-55.956
X92.38Y-58.496
X92.38Y-61.036
X92.38Y-63.576
X92.38Y-66.116
X92.38Y-68.656
X92.38Y-71.196
X92.38Y-73.736
X92.38Y-76.276
X92.38Y-78.816
X92.38Y-81.356
X92.38Y-83.896
X92.38Y-86.436
X92.38Y-88.976
X92.38Y-91.516
X92.38Y-94.056
X96.682Y-97.008
X96.682Y-104.628
X97.307Y-45.06
X97.307Y-52.68
X99.222Y-97.008
X99.847Y-52.68
X101.762Y-97.008
X102.387Y-52.68
X104.302Y-97.008
X104.302Y-104.628
X104.927Y-45.06
X104.927Y-52.68
X106.842Y-97.008
X106.842Y-104.628
X107.467Y-45.06
X107.467Y-52.68
X109.382Y-97.008
X110.007Y-52.68
X111.922Y-97.008
X112.547Y-52.68
X114.462Y-97.008
X114.462Y-104.628
X114.808Y-65.958
X114.808Y-68.498
X114.808Y-71.038
X114.808Y-73.578
X114.808Y-76.118
X114.808Y-78.658
X114.808Y-81.198
X114.808Y-83.738
X115.087Y-45.06
X115.087Y-52.68
X117.348Y-65.958
X117.348Y-68.498
X117.348Y-71.038
X117.348Y-73.578
X117.348Y-76.118
X117.348Y-78.658
X117.348Y-81.198
X117.348Y-83.738
T0
M30
