M48
; DRILL file {KiCad (6.0.6)} date Thu May  2 18:48:46 2024
; FORMAT={-:-/ absolute / metric / decimal}
; #@! TF.CreationDate,2024-05-02T18:48:46+02:00
; #@! TF.GenerationSoftware,Kicad,Pcbnew,(6.0.6)
; #@! TF.FileFunction,Plated,1,2,PTH
FMAT,2
METRIC
; #@! TA.AperFunction,Plated,PTH,ViaDrill
T1C0.400
; #@! TA.AperFunction,Plated,PTH,ComponentDrill
T2C1.000
%
G90
G05
T1
X82.017Y-67.666
X84.455Y-40.437
X86.004Y-48.768
X88.646Y-66.472
X89.687Y-36.805
X89.805Y-34.35
X90.272Y-51.613
X92.964Y-67.183
X93.142Y-47.854
X94.971Y-36.576
X94.971Y-63.5
X94.996Y-55.905
X95.021Y-44.221
X104.292Y-44.221
X104.292Y-55.88
X104.318Y-63.5
X104.343Y-36.576
X104.959Y-33.68
X106.197Y-67.081
X107.442Y-45.872
X108.839Y-69.52
X108.941Y-64.287
X109.169Y-35.357
X110.353Y-50.2
X110.846Y-47.828
X110.871Y-41.935
X112.547Y-59.055
X112.878Y-52.121
X113.208Y-42.139
X113.614Y-65.811
X115.748Y-37.897
X120.421Y-65.989
T2
X79.81Y-43.795
X79.81Y-46.335
X79.81Y-48.875
X79.81Y-51.415
X79.81Y-53.955
X79.81Y-56.495
X79.81Y-59.035
X79.81Y-61.575
X82.35Y-43.795
X82.35Y-46.335
X82.35Y-48.875
X82.35Y-51.415
X82.35Y-53.955
X82.35Y-56.495
X82.35Y-59.035
X82.35Y-61.575
X116.2Y-43.825
X116.2Y-46.365
X116.2Y-48.905
X116.2Y-51.445
X116.2Y-53.985
X116.2Y-56.525
X116.2Y-59.065
X116.2Y-61.605
X118.74Y-43.825
X118.74Y-46.365
X118.74Y-48.905
X118.74Y-51.445
X118.74Y-53.985
X118.74Y-56.525
X118.74Y-59.065
X118.74Y-61.605
T0
M30
