G04 #@! TF.GenerationSoftware,KiCad,Pcbnew,(6.0.6)*
G04 #@! TF.CreationDate,2024-05-02T18:48:27+02:00*
G04 #@! TF.ProjectId,digital-isolator-6t2r,64696769-7461-46c2-9d69-736f6c61746f,rev?*
G04 #@! TF.SameCoordinates,Original*
G04 #@! TF.FileFunction,Legend,Top*
G04 #@! TF.FilePolarity,Positive*
%FSLAX46Y46*%
G04 Gerber Fmt 4.6, Leading zero omitted, Abs format (unit mm)*
G04 Created by KiCad (PCBNEW (6.0.6)) date 2024-05-02 18:48:27*
%MOMM*%
%LPD*%
G01*
G04 APERTURE LIST*
G04 Aperture macros list*
%AMRoundRect*
0 Rectangle with rounded corners*
0 $1 Rounding radius*
0 $2 $3 $4 $5 $6 $7 $8 $9 X,Y pos of 4 corners*
0 Add a 4 corners polygon primitive as box body*
4,1,4,$2,$3,$4,$5,$6,$7,$8,$9,$2,$3,0*
0 Add four circle primitives for the rounded corners*
1,1,$1+$1,$2,$3*
1,1,$1+$1,$4,$5*
1,1,$1+$1,$6,$7*
1,1,$1+$1,$8,$9*
0 Add four rect primitives between the rounded corners*
20,1,$1+$1,$2,$3,$4,$5,0*
20,1,$1+$1,$4,$5,$6,$7,0*
20,1,$1+$1,$6,$7,$8,$9,0*
20,1,$1+$1,$8,$9,$2,$3,0*%
G04 Aperture macros list end*
%ADD10C,0.150000*%
%ADD11C,0.120000*%
%ADD12C,3.200000*%
%ADD13RoundRect,0.150000X0.875000X0.150000X-0.875000X0.150000X-0.875000X-0.150000X0.875000X-0.150000X0*%
%ADD14RoundRect,0.250000X0.337500X0.475000X-0.337500X0.475000X-0.337500X-0.475000X0.337500X-0.475000X0*%
%ADD15RoundRect,0.250000X-0.350000X-0.450000X0.350000X-0.450000X0.350000X0.450000X-0.350000X0.450000X0*%
%ADD16RoundRect,0.250000X0.450000X-0.350000X0.450000X0.350000X-0.450000X0.350000X-0.450000X-0.350000X0*%
%ADD17RoundRect,0.250000X-0.337500X-0.475000X0.337500X-0.475000X0.337500X0.475000X-0.337500X0.475000X0*%
%ADD18R,1.700000X1.700000*%
%ADD19O,1.700000X1.700000*%
%ADD20RoundRect,0.250000X-0.450000X0.350000X-0.450000X-0.350000X0.450000X-0.350000X0.450000X0.350000X0*%
%ADD21RoundRect,0.250000X0.350000X0.450000X-0.350000X0.450000X-0.350000X-0.450000X0.350000X-0.450000X0*%
G04 APERTURE END LIST*
D10*
X114950833Y-64514285D02*
X114884166Y-64480951D01*
X114784166Y-64480951D01*
X114684166Y-64514285D01*
X114617500Y-64580951D01*
X114584166Y-64647618D01*
X114550833Y-64780951D01*
X114550833Y-64880951D01*
X114584166Y-65014285D01*
X114617500Y-65080951D01*
X114684166Y-65147618D01*
X114784166Y-65180951D01*
X114850833Y-65180951D01*
X114950833Y-65147618D01*
X114984166Y-65114285D01*
X114984166Y-64880951D01*
X114850833Y-64880951D01*
X115284166Y-65180951D02*
X115284166Y-64480951D01*
X115684166Y-65180951D01*
X115684166Y-64480951D01*
X116017500Y-65180951D02*
X116017500Y-64480951D01*
X116184166Y-64480951D01*
X116284166Y-64514285D01*
X116350833Y-64580951D01*
X116384166Y-64647618D01*
X116417500Y-64780951D01*
X116417500Y-64880951D01*
X116384166Y-65014285D01*
X116350833Y-65080951D01*
X116284166Y-65147618D01*
X116184166Y-65180951D01*
X116017500Y-65180951D01*
X116684166Y-64980951D02*
X117017500Y-64980951D01*
X116617500Y-65180951D02*
X116850833Y-64480951D01*
X117084166Y-65180951D01*
X114950833Y-68247140D02*
X114884166Y-68213806D01*
X114784166Y-68213806D01*
X114684166Y-68247140D01*
X114617500Y-68313806D01*
X114584166Y-68380473D01*
X114550833Y-68513806D01*
X114550833Y-68613806D01*
X114584166Y-68747140D01*
X114617500Y-68813806D01*
X114684166Y-68880473D01*
X114784166Y-68913806D01*
X114850833Y-68913806D01*
X114950833Y-68880473D01*
X114984166Y-68847140D01*
X114984166Y-68613806D01*
X114850833Y-68613806D01*
X115284166Y-68913806D02*
X115284166Y-68213806D01*
X115684166Y-68913806D01*
X115684166Y-68213806D01*
X116017500Y-68913806D02*
X116017500Y-68213806D01*
X116184166Y-68213806D01*
X116284166Y-68247140D01*
X116350833Y-68313806D01*
X116384166Y-68380473D01*
X116417500Y-68513806D01*
X116417500Y-68613806D01*
X116384166Y-68747140D01*
X116350833Y-68813806D01*
X116284166Y-68880473D01*
X116184166Y-68913806D01*
X116017500Y-68913806D01*
X116684166Y-68713806D02*
X117017500Y-68713806D01*
X116617500Y-68913806D02*
X116850833Y-68213806D01*
X117084166Y-68913806D01*
X79030833Y-63661430D02*
X78964166Y-63628096D01*
X78864166Y-63628096D01*
X78764166Y-63661430D01*
X78697500Y-63728096D01*
X78664166Y-63794763D01*
X78630833Y-63928096D01*
X78630833Y-64028096D01*
X78664166Y-64161430D01*
X78697500Y-64228096D01*
X78764166Y-64294763D01*
X78864166Y-64328096D01*
X78930833Y-64328096D01*
X79030833Y-64294763D01*
X79064166Y-64261430D01*
X79064166Y-64028096D01*
X78930833Y-64028096D01*
X79364166Y-64328096D02*
X79364166Y-63628096D01*
X79764166Y-64328096D01*
X79764166Y-63628096D01*
X80097500Y-64328096D02*
X80097500Y-63628096D01*
X80264166Y-63628096D01*
X80364166Y-63661430D01*
X80430833Y-63728096D01*
X80464166Y-63794763D01*
X80497500Y-63928096D01*
X80497500Y-64028096D01*
X80464166Y-64161430D01*
X80430833Y-64228096D01*
X80364166Y-64294763D01*
X80264166Y-64328096D01*
X80097500Y-64328096D01*
X81030833Y-63961430D02*
X81130833Y-63994763D01*
X81164166Y-64028096D01*
X81197500Y-64094763D01*
X81197500Y-64194763D01*
X81164166Y-64261430D01*
X81130833Y-64294763D01*
X81064166Y-64328096D01*
X80797500Y-64328096D01*
X80797500Y-63628096D01*
X81030833Y-63628096D01*
X81097500Y-63661430D01*
X81130833Y-63694763D01*
X81164166Y-63761430D01*
X81164166Y-63828096D01*
X81130833Y-63894763D01*
X81097500Y-63928096D01*
X81030833Y-63961430D01*
X80797500Y-63961430D01*
X110890832Y-66425236D02*
X110657499Y-66091903D01*
X110490832Y-66425236D02*
X110490832Y-65725236D01*
X110757499Y-65725236D01*
X110824166Y-65758570D01*
X110857499Y-65791903D01*
X110890832Y-65858570D01*
X110890832Y-65958570D01*
X110857499Y-66025236D01*
X110824166Y-66058570D01*
X110757499Y-66091903D01*
X110490832Y-66091903D01*
X111124166Y-65725236D02*
X111590832Y-66425236D01*
X111590832Y-65725236D02*
X111124166Y-66425236D01*
X111790832Y-65725236D02*
X112224166Y-65725236D01*
X111990832Y-65991903D01*
X112090832Y-65991903D01*
X112157499Y-66025236D01*
X112190832Y-66058570D01*
X112224166Y-66125236D01*
X112224166Y-66291903D01*
X112190832Y-66358570D01*
X112157499Y-66391903D01*
X112090832Y-66425236D01*
X111890832Y-66425236D01*
X111824166Y-66391903D01*
X111790832Y-66358570D01*
X112490832Y-66225236D02*
X112824166Y-66225236D01*
X112424166Y-66425236D02*
X112657499Y-65725236D01*
X112890832Y-66425236D01*
X114950833Y-71979995D02*
X114884166Y-71946661D01*
X114784166Y-71946661D01*
X114684166Y-71979995D01*
X114617500Y-72046661D01*
X114584166Y-72113328D01*
X114550833Y-72246661D01*
X114550833Y-72346661D01*
X114584166Y-72479995D01*
X114617500Y-72546661D01*
X114684166Y-72613328D01*
X114784166Y-72646661D01*
X114850833Y-72646661D01*
X114950833Y-72613328D01*
X114984166Y-72579995D01*
X114984166Y-72346661D01*
X114850833Y-72346661D01*
X115284166Y-72646661D02*
X115284166Y-71946661D01*
X115684166Y-72646661D01*
X115684166Y-71946661D01*
X116017500Y-72646661D02*
X116017500Y-71946661D01*
X116184166Y-71946661D01*
X116284166Y-71979995D01*
X116350833Y-72046661D01*
X116384166Y-72113328D01*
X116417500Y-72246661D01*
X116417500Y-72346661D01*
X116384166Y-72479995D01*
X116350833Y-72546661D01*
X116284166Y-72613328D01*
X116184166Y-72646661D01*
X116017500Y-72646661D01*
X116684166Y-72446661D02*
X117017500Y-72446661D01*
X116617500Y-72646661D02*
X116850833Y-71946661D01*
X117084166Y-72646661D01*
X82724166Y-63628096D02*
X83124166Y-63628096D01*
X82924166Y-64328096D02*
X82924166Y-63628096D01*
X83290833Y-63628096D02*
X83757500Y-64328096D01*
X83757500Y-63628096D02*
X83290833Y-64328096D01*
X84390833Y-64328096D02*
X83990833Y-64328096D01*
X84190833Y-64328096D02*
X84190833Y-63628096D01*
X84124166Y-63728096D01*
X84057500Y-63794763D01*
X83990833Y-63828096D01*
X84924166Y-63961430D02*
X85024166Y-63994763D01*
X85057500Y-64028096D01*
X85090833Y-64094763D01*
X85090833Y-64194763D01*
X85057500Y-64261430D01*
X85024166Y-64294763D01*
X84957500Y-64328096D01*
X84690833Y-64328096D01*
X84690833Y-63628096D01*
X84924166Y-63628096D01*
X84990833Y-63661430D01*
X85024166Y-63694763D01*
X85057500Y-63761430D01*
X85057500Y-63828096D01*
X85024166Y-63894763D01*
X84990833Y-63928096D01*
X84924166Y-63961430D01*
X84690833Y-63961430D01*
X114484166Y-66969521D02*
X114884166Y-66969521D01*
X114684166Y-67669521D02*
X114684166Y-66969521D01*
X115050833Y-66969521D02*
X115517500Y-67669521D01*
X115517500Y-66969521D02*
X115050833Y-67669521D01*
X115750833Y-67036188D02*
X115784166Y-67002855D01*
X115850833Y-66969521D01*
X116017500Y-66969521D01*
X116084166Y-67002855D01*
X116117500Y-67036188D01*
X116150833Y-67102855D01*
X116150833Y-67169521D01*
X116117500Y-67269521D01*
X115717500Y-67669521D01*
X116150833Y-67669521D01*
X116417500Y-67469521D02*
X116750833Y-67469521D01*
X116350833Y-67669521D02*
X116584166Y-66969521D01*
X116817500Y-67669521D01*
X114950833Y-63270000D02*
X114884166Y-63236666D01*
X114784166Y-63236666D01*
X114684166Y-63270000D01*
X114617500Y-63336666D01*
X114584166Y-63403333D01*
X114550833Y-63536666D01*
X114550833Y-63636666D01*
X114584166Y-63770000D01*
X114617500Y-63836666D01*
X114684166Y-63903333D01*
X114784166Y-63936666D01*
X114850833Y-63936666D01*
X114950833Y-63903333D01*
X114984166Y-63870000D01*
X114984166Y-63636666D01*
X114850833Y-63636666D01*
X115284166Y-63936666D02*
X115284166Y-63236666D01*
X115684166Y-63936666D01*
X115684166Y-63236666D01*
X116017500Y-63936666D02*
X116017500Y-63236666D01*
X116184166Y-63236666D01*
X116284166Y-63270000D01*
X116350833Y-63336666D01*
X116384166Y-63403333D01*
X116417500Y-63536666D01*
X116417500Y-63636666D01*
X116384166Y-63770000D01*
X116350833Y-63836666D01*
X116284166Y-63903333D01*
X116184166Y-63936666D01*
X116017500Y-63936666D01*
X116684166Y-63736666D02*
X117017500Y-63736666D01*
X116617500Y-63936666D02*
X116850833Y-63236666D01*
X117084166Y-63936666D01*
X79164166Y-66816666D02*
X78930833Y-66483333D01*
X78764166Y-66816666D02*
X78764166Y-66116666D01*
X79030833Y-66116666D01*
X79097500Y-66150000D01*
X79130833Y-66183333D01*
X79164166Y-66250000D01*
X79164166Y-66350000D01*
X79130833Y-66416666D01*
X79097500Y-66450000D01*
X79030833Y-66483333D01*
X78764166Y-66483333D01*
X79397500Y-66116666D02*
X79864166Y-66816666D01*
X79864166Y-66116666D02*
X79397500Y-66816666D01*
X80497500Y-66816666D02*
X80097500Y-66816666D01*
X80297500Y-66816666D02*
X80297500Y-66116666D01*
X80230833Y-66216666D01*
X80164166Y-66283333D01*
X80097500Y-66316666D01*
X81030833Y-66450000D02*
X81130833Y-66483333D01*
X81164166Y-66516666D01*
X81197500Y-66583333D01*
X81197500Y-66683333D01*
X81164166Y-66750000D01*
X81130833Y-66783333D01*
X81064166Y-66816666D01*
X80797500Y-66816666D01*
X80797500Y-66116666D01*
X81030833Y-66116666D01*
X81097500Y-66150000D01*
X81130833Y-66183333D01*
X81164166Y-66250000D01*
X81164166Y-66316666D01*
X81130833Y-66383333D01*
X81097500Y-66416666D01*
X81030833Y-66450000D01*
X80797500Y-66450000D01*
X79030833Y-69882855D02*
X78964166Y-69849521D01*
X78864166Y-69849521D01*
X78764166Y-69882855D01*
X78697500Y-69949521D01*
X78664166Y-70016188D01*
X78630833Y-70149521D01*
X78630833Y-70249521D01*
X78664166Y-70382855D01*
X78697500Y-70449521D01*
X78764166Y-70516188D01*
X78864166Y-70549521D01*
X78930833Y-70549521D01*
X79030833Y-70516188D01*
X79064166Y-70482855D01*
X79064166Y-70249521D01*
X78930833Y-70249521D01*
X79364166Y-70549521D02*
X79364166Y-69849521D01*
X79764166Y-70549521D01*
X79764166Y-69849521D01*
X80097500Y-70549521D02*
X80097500Y-69849521D01*
X80264166Y-69849521D01*
X80364166Y-69882855D01*
X80430833Y-69949521D01*
X80464166Y-70016188D01*
X80497500Y-70149521D01*
X80497500Y-70249521D01*
X80464166Y-70382855D01*
X80430833Y-70449521D01*
X80364166Y-70516188D01*
X80264166Y-70549521D01*
X80097500Y-70549521D01*
X81030833Y-70182855D02*
X81130833Y-70216188D01*
X81164166Y-70249521D01*
X81197500Y-70316188D01*
X81197500Y-70416188D01*
X81164166Y-70482855D01*
X81130833Y-70516188D01*
X81064166Y-70549521D01*
X80797500Y-70549521D01*
X80797500Y-69849521D01*
X81030833Y-69849521D01*
X81097500Y-69882855D01*
X81130833Y-69916188D01*
X81164166Y-69982855D01*
X81164166Y-70049521D01*
X81130833Y-70116188D01*
X81097500Y-70149521D01*
X81030833Y-70182855D01*
X80797500Y-70182855D01*
X79030833Y-71127140D02*
X78964166Y-71093806D01*
X78864166Y-71093806D01*
X78764166Y-71127140D01*
X78697500Y-71193806D01*
X78664166Y-71260473D01*
X78630833Y-71393806D01*
X78630833Y-71493806D01*
X78664166Y-71627140D01*
X78697500Y-71693806D01*
X78764166Y-71760473D01*
X78864166Y-71793806D01*
X78930833Y-71793806D01*
X79030833Y-71760473D01*
X79064166Y-71727140D01*
X79064166Y-71493806D01*
X78930833Y-71493806D01*
X79364166Y-71793806D02*
X79364166Y-71093806D01*
X79764166Y-71793806D01*
X79764166Y-71093806D01*
X80097500Y-71793806D02*
X80097500Y-71093806D01*
X80264166Y-71093806D01*
X80364166Y-71127140D01*
X80430833Y-71193806D01*
X80464166Y-71260473D01*
X80497500Y-71393806D01*
X80497500Y-71493806D01*
X80464166Y-71627140D01*
X80430833Y-71693806D01*
X80364166Y-71760473D01*
X80264166Y-71793806D01*
X80097500Y-71793806D01*
X81030833Y-71427140D02*
X81130833Y-71460473D01*
X81164166Y-71493806D01*
X81197500Y-71560473D01*
X81197500Y-71660473D01*
X81164166Y-71727140D01*
X81130833Y-71760473D01*
X81064166Y-71793806D01*
X80797500Y-71793806D01*
X80797500Y-71093806D01*
X81030833Y-71093806D01*
X81097500Y-71127140D01*
X81130833Y-71160473D01*
X81164166Y-71227140D01*
X81164166Y-71293806D01*
X81130833Y-71360473D01*
X81097500Y-71393806D01*
X81030833Y-71427140D01*
X80797500Y-71427140D01*
X79164166Y-68060951D02*
X78930833Y-67727618D01*
X78764166Y-68060951D02*
X78764166Y-67360951D01*
X79030833Y-67360951D01*
X79097500Y-67394285D01*
X79130833Y-67427618D01*
X79164166Y-67494285D01*
X79164166Y-67594285D01*
X79130833Y-67660951D01*
X79097500Y-67694285D01*
X79030833Y-67727618D01*
X78764166Y-67727618D01*
X79397500Y-67360951D02*
X79864166Y-68060951D01*
X79864166Y-67360951D02*
X79397500Y-68060951D01*
X80097500Y-67427618D02*
X80130833Y-67394285D01*
X80197500Y-67360951D01*
X80364166Y-67360951D01*
X80430833Y-67394285D01*
X80464166Y-67427618D01*
X80497500Y-67494285D01*
X80497500Y-67560951D01*
X80464166Y-67660951D01*
X80064166Y-68060951D01*
X80497500Y-68060951D01*
X81030833Y-67694285D02*
X81130833Y-67727618D01*
X81164166Y-67760951D01*
X81197500Y-67827618D01*
X81197500Y-67927618D01*
X81164166Y-67994285D01*
X81130833Y-68027618D01*
X81064166Y-68060951D01*
X80797500Y-68060951D01*
X80797500Y-67360951D01*
X81030833Y-67360951D01*
X81097500Y-67394285D01*
X81130833Y-67427618D01*
X81164166Y-67494285D01*
X81164166Y-67560951D01*
X81130833Y-67627618D01*
X81097500Y-67660951D01*
X81030833Y-67694285D01*
X80797500Y-67694285D01*
X111690832Y-72646661D02*
X111690832Y-71946661D01*
X112090832Y-72646661D01*
X112090832Y-71946661D01*
X112824166Y-72579995D02*
X112790832Y-72613328D01*
X112690832Y-72646661D01*
X112624166Y-72646661D01*
X112524166Y-72613328D01*
X112457499Y-72546661D01*
X112424166Y-72479995D01*
X112390832Y-72346661D01*
X112390832Y-72246661D01*
X112424166Y-72113328D01*
X112457499Y-72046661D01*
X112524166Y-71979995D01*
X112624166Y-71946661D01*
X112690832Y-71946661D01*
X112790832Y-71979995D01*
X112824166Y-72013328D01*
X82724166Y-66116666D02*
X83124166Y-66116666D01*
X82924166Y-66816666D02*
X82924166Y-66116666D01*
X83290833Y-66116666D02*
X83757500Y-66816666D01*
X83757500Y-66116666D02*
X83290833Y-66816666D01*
X83957500Y-66116666D02*
X84390833Y-66116666D01*
X84157500Y-66383333D01*
X84257500Y-66383333D01*
X84324166Y-66416666D01*
X84357500Y-66450000D01*
X84390833Y-66516666D01*
X84390833Y-66683333D01*
X84357500Y-66750000D01*
X84324166Y-66783333D01*
X84257500Y-66816666D01*
X84057500Y-66816666D01*
X83990833Y-66783333D01*
X83957500Y-66750000D01*
X84924166Y-66450000D02*
X85024166Y-66483333D01*
X85057500Y-66516666D01*
X85090833Y-66583333D01*
X85090833Y-66683333D01*
X85057500Y-66750000D01*
X85024166Y-66783333D01*
X84957500Y-66816666D01*
X84690833Y-66816666D01*
X84690833Y-66116666D01*
X84924166Y-66116666D01*
X84990833Y-66150000D01*
X85024166Y-66183333D01*
X85057500Y-66250000D01*
X85057500Y-66316666D01*
X85024166Y-66383333D01*
X84990833Y-66416666D01*
X84924166Y-66450000D01*
X84690833Y-66450000D01*
X82724166Y-64872381D02*
X83124166Y-64872381D01*
X82924166Y-65572381D02*
X82924166Y-64872381D01*
X83290833Y-64872381D02*
X83757500Y-65572381D01*
X83757500Y-64872381D02*
X83290833Y-65572381D01*
X83990833Y-64939048D02*
X84024166Y-64905715D01*
X84090833Y-64872381D01*
X84257500Y-64872381D01*
X84324166Y-64905715D01*
X84357500Y-64939048D01*
X84390833Y-65005715D01*
X84390833Y-65072381D01*
X84357500Y-65172381D01*
X83957500Y-65572381D01*
X84390833Y-65572381D01*
X84924166Y-65205715D02*
X85024166Y-65239048D01*
X85057500Y-65272381D01*
X85090833Y-65339048D01*
X85090833Y-65439048D01*
X85057500Y-65505715D01*
X85024166Y-65539048D01*
X84957500Y-65572381D01*
X84690833Y-65572381D01*
X84690833Y-64872381D01*
X84924166Y-64872381D01*
X84990833Y-64905715D01*
X85024166Y-64939048D01*
X85057500Y-65005715D01*
X85057500Y-65072381D01*
X85024166Y-65139048D01*
X84990833Y-65172381D01*
X84924166Y-65205715D01*
X84690833Y-65205715D01*
X110890832Y-67669521D02*
X110657499Y-67336188D01*
X110490832Y-67669521D02*
X110490832Y-66969521D01*
X110757499Y-66969521D01*
X110824166Y-67002855D01*
X110857499Y-67036188D01*
X110890832Y-67102855D01*
X110890832Y-67202855D01*
X110857499Y-67269521D01*
X110824166Y-67302855D01*
X110757499Y-67336188D01*
X110490832Y-67336188D01*
X111124166Y-66969521D02*
X111590832Y-67669521D01*
X111590832Y-66969521D02*
X111124166Y-67669521D01*
X112157499Y-67202855D02*
X112157499Y-67669521D01*
X111990832Y-66936188D02*
X111824166Y-67436188D01*
X112257499Y-67436188D01*
X112490832Y-67469521D02*
X112824166Y-67469521D01*
X112424166Y-67669521D02*
X112657499Y-66969521D01*
X112890832Y-67669521D01*
X114484166Y-65725236D02*
X114884166Y-65725236D01*
X114684166Y-66425236D02*
X114684166Y-65725236D01*
X115050833Y-65725236D02*
X115517500Y-66425236D01*
X115517500Y-65725236D02*
X115050833Y-66425236D01*
X116150833Y-66425236D02*
X115750833Y-66425236D01*
X115950833Y-66425236D02*
X115950833Y-65725236D01*
X115884166Y-65825236D01*
X115817500Y-65891903D01*
X115750833Y-65925236D01*
X116417500Y-66225236D02*
X116750833Y-66225236D01*
X116350833Y-66425236D02*
X116584166Y-65725236D01*
X116817500Y-66425236D01*
X82724166Y-69849521D02*
X83124166Y-69849521D01*
X82924166Y-70549521D02*
X82924166Y-69849521D01*
X83290833Y-69849521D02*
X83757500Y-70549521D01*
X83757500Y-69849521D02*
X83290833Y-70549521D01*
X84324166Y-69849521D02*
X84190833Y-69849521D01*
X84124166Y-69882855D01*
X84090833Y-69916188D01*
X84024166Y-70016188D01*
X83990833Y-70149521D01*
X83990833Y-70416188D01*
X84024166Y-70482855D01*
X84057500Y-70516188D01*
X84124166Y-70549521D01*
X84257500Y-70549521D01*
X84324166Y-70516188D01*
X84357500Y-70482855D01*
X84390833Y-70416188D01*
X84390833Y-70249521D01*
X84357500Y-70182855D01*
X84324166Y-70149521D01*
X84257500Y-70116188D01*
X84124166Y-70116188D01*
X84057500Y-70149521D01*
X84024166Y-70182855D01*
X83990833Y-70249521D01*
X84924166Y-70182855D02*
X85024166Y-70216188D01*
X85057500Y-70249521D01*
X85090833Y-70316188D01*
X85090833Y-70416188D01*
X85057500Y-70482855D01*
X85024166Y-70516188D01*
X84957500Y-70549521D01*
X84690833Y-70549521D01*
X84690833Y-69849521D01*
X84924166Y-69849521D01*
X84990833Y-69882855D01*
X85024166Y-69916188D01*
X85057500Y-69982855D01*
X85057500Y-70049521D01*
X85024166Y-70116188D01*
X84990833Y-70149521D01*
X84924166Y-70182855D01*
X84690833Y-70182855D01*
X77204166Y-33299666D02*
X77204166Y-32599666D01*
X77370833Y-32599666D01*
X77470833Y-32633000D01*
X77537500Y-32699666D01*
X77570833Y-32766333D01*
X77604166Y-32899666D01*
X77604166Y-32999666D01*
X77570833Y-33133000D01*
X77537500Y-33199666D01*
X77470833Y-33266333D01*
X77370833Y-33299666D01*
X77204166Y-33299666D01*
X77904166Y-33299666D02*
X77904166Y-32833000D01*
X77904166Y-32599666D02*
X77870833Y-32633000D01*
X77904166Y-32666333D01*
X77937500Y-32633000D01*
X77904166Y-32599666D01*
X77904166Y-32666333D01*
X78537500Y-32833000D02*
X78537500Y-33399666D01*
X78504166Y-33466333D01*
X78470833Y-33499666D01*
X78404166Y-33533000D01*
X78304166Y-33533000D01*
X78237500Y-33499666D01*
X78537500Y-33266333D02*
X78470833Y-33299666D01*
X78337500Y-33299666D01*
X78270833Y-33266333D01*
X78237500Y-33233000D01*
X78204166Y-33166333D01*
X78204166Y-32966333D01*
X78237500Y-32899666D01*
X78270833Y-32866333D01*
X78337500Y-32833000D01*
X78470833Y-32833000D01*
X78537500Y-32866333D01*
X78870833Y-33299666D02*
X78870833Y-32833000D01*
X78870833Y-32599666D02*
X78837500Y-32633000D01*
X78870833Y-32666333D01*
X78904166Y-32633000D01*
X78870833Y-32599666D01*
X78870833Y-32666333D01*
X79104166Y-32833000D02*
X79370833Y-32833000D01*
X79204166Y-32599666D02*
X79204166Y-33199666D01*
X79237500Y-33266333D01*
X79304166Y-33299666D01*
X79370833Y-33299666D01*
X79904166Y-33299666D02*
X79904166Y-32933000D01*
X79870833Y-32866333D01*
X79804166Y-32833000D01*
X79670833Y-32833000D01*
X79604166Y-32866333D01*
X79904166Y-33266333D02*
X79837500Y-33299666D01*
X79670833Y-33299666D01*
X79604166Y-33266333D01*
X79570833Y-33199666D01*
X79570833Y-33133000D01*
X79604166Y-33066333D01*
X79670833Y-33033000D01*
X79837500Y-33033000D01*
X79904166Y-32999666D01*
X80337500Y-33299666D02*
X80270833Y-33266333D01*
X80237500Y-33199666D01*
X80237500Y-32599666D01*
X81137500Y-33299666D02*
X81137500Y-32833000D01*
X81137500Y-32599666D02*
X81104166Y-32633000D01*
X81137500Y-32666333D01*
X81170833Y-32633000D01*
X81137500Y-32599666D01*
X81137500Y-32666333D01*
X81437500Y-33266333D02*
X81504166Y-33299666D01*
X81637500Y-33299666D01*
X81704166Y-33266333D01*
X81737500Y-33199666D01*
X81737500Y-33166333D01*
X81704166Y-33099666D01*
X81637500Y-33066333D01*
X81537500Y-33066333D01*
X81470833Y-33033000D01*
X81437500Y-32966333D01*
X81437500Y-32933000D01*
X81470833Y-32866333D01*
X81537500Y-32833000D01*
X81637500Y-32833000D01*
X81704166Y-32866333D01*
X82137500Y-33299666D02*
X82070833Y-33266333D01*
X82037500Y-33233000D01*
X82004166Y-33166333D01*
X82004166Y-32966333D01*
X82037500Y-32899666D01*
X82070833Y-32866333D01*
X82137500Y-32833000D01*
X82237500Y-32833000D01*
X82304166Y-32866333D01*
X82337500Y-32899666D01*
X82370833Y-32966333D01*
X82370833Y-33166333D01*
X82337500Y-33233000D01*
X82304166Y-33266333D01*
X82237500Y-33299666D01*
X82137500Y-33299666D01*
X82770833Y-33299666D02*
X82704166Y-33266333D01*
X82670833Y-33199666D01*
X82670833Y-32599666D01*
X83337500Y-33299666D02*
X83337500Y-32933000D01*
X83304166Y-32866333D01*
X83237500Y-32833000D01*
X83104166Y-32833000D01*
X83037500Y-32866333D01*
X83337500Y-33266333D02*
X83270833Y-33299666D01*
X83104166Y-33299666D01*
X83037500Y-33266333D01*
X83004166Y-33199666D01*
X83004166Y-33133000D01*
X83037500Y-33066333D01*
X83104166Y-33033000D01*
X83270833Y-33033000D01*
X83337500Y-32999666D01*
X83570833Y-32833000D02*
X83837500Y-32833000D01*
X83670833Y-32599666D02*
X83670833Y-33199666D01*
X83704166Y-33266333D01*
X83770833Y-33299666D01*
X83837500Y-33299666D01*
X84170833Y-33299666D02*
X84104166Y-33266333D01*
X84070833Y-33233000D01*
X84037500Y-33166333D01*
X84037500Y-32966333D01*
X84070833Y-32899666D01*
X84104166Y-32866333D01*
X84170833Y-32833000D01*
X84270833Y-32833000D01*
X84337500Y-32866333D01*
X84370833Y-32899666D01*
X84404166Y-32966333D01*
X84404166Y-33166333D01*
X84370833Y-33233000D01*
X84337500Y-33266333D01*
X84270833Y-33299666D01*
X84170833Y-33299666D01*
X84704166Y-33299666D02*
X84704166Y-32833000D01*
X84704166Y-32966333D02*
X84737500Y-32899666D01*
X84770833Y-32866333D01*
X84837500Y-32833000D01*
X84904166Y-32833000D01*
X85670833Y-33299666D02*
X85670833Y-32599666D01*
X85670833Y-32866333D02*
X85737500Y-32833000D01*
X85870833Y-32833000D01*
X85937500Y-32866333D01*
X85970833Y-32899666D01*
X86004166Y-32966333D01*
X86004166Y-33166333D01*
X85970833Y-33233000D01*
X85937500Y-33266333D01*
X85870833Y-33299666D01*
X85737500Y-33299666D01*
X85670833Y-33266333D01*
X86404166Y-33299666D02*
X86337500Y-33266333D01*
X86304166Y-33233000D01*
X86270833Y-33166333D01*
X86270833Y-32966333D01*
X86304166Y-32899666D01*
X86337500Y-32866333D01*
X86404166Y-32833000D01*
X86504166Y-32833000D01*
X86570833Y-32866333D01*
X86604166Y-32899666D01*
X86637500Y-32966333D01*
X86637500Y-33166333D01*
X86604166Y-33233000D01*
X86570833Y-33266333D01*
X86504166Y-33299666D01*
X86404166Y-33299666D01*
X87237500Y-33299666D02*
X87237500Y-32933000D01*
X87204166Y-32866333D01*
X87137500Y-32833000D01*
X87004166Y-32833000D01*
X86937500Y-32866333D01*
X87237500Y-33266333D02*
X87170833Y-33299666D01*
X87004166Y-33299666D01*
X86937500Y-33266333D01*
X86904166Y-33199666D01*
X86904166Y-33133000D01*
X86937500Y-33066333D01*
X87004166Y-33033000D01*
X87170833Y-33033000D01*
X87237500Y-32999666D01*
X87570833Y-33299666D02*
X87570833Y-32833000D01*
X87570833Y-32966333D02*
X87604166Y-32899666D01*
X87637500Y-32866333D01*
X87704166Y-32833000D01*
X87770833Y-32833000D01*
X88304166Y-33299666D02*
X88304166Y-32599666D01*
X88304166Y-33266333D02*
X88237500Y-33299666D01*
X88104166Y-33299666D01*
X88037500Y-33266333D01*
X88004166Y-33233000D01*
X87970833Y-33166333D01*
X87970833Y-32966333D01*
X88004166Y-32899666D01*
X88037500Y-32866333D01*
X88104166Y-32833000D01*
X88237500Y-32833000D01*
X88304166Y-32866333D01*
X77504166Y-33726666D02*
X77370833Y-33726666D01*
X77304166Y-33760000D01*
X77270833Y-33793333D01*
X77204166Y-33893333D01*
X77170833Y-34026666D01*
X77170833Y-34293333D01*
X77204166Y-34360000D01*
X77237500Y-34393333D01*
X77304166Y-34426666D01*
X77437500Y-34426666D01*
X77504166Y-34393333D01*
X77537500Y-34360000D01*
X77570833Y-34293333D01*
X77570833Y-34126666D01*
X77537500Y-34060000D01*
X77504166Y-34026666D01*
X77437500Y-33993333D01*
X77304166Y-33993333D01*
X77237500Y-34026666D01*
X77204166Y-34060000D01*
X77170833Y-34126666D01*
X78304166Y-33726666D02*
X78704166Y-33726666D01*
X78504166Y-34426666D02*
X78504166Y-33726666D01*
X78870833Y-33726666D02*
X79337500Y-34426666D01*
X79337500Y-33726666D02*
X78870833Y-34426666D01*
X80637500Y-33693333D02*
X80037500Y-34593333D01*
X81370833Y-33793333D02*
X81404166Y-33760000D01*
X81470833Y-33726666D01*
X81637500Y-33726666D01*
X81704166Y-33760000D01*
X81737500Y-33793333D01*
X81770833Y-33860000D01*
X81770833Y-33926666D01*
X81737500Y-34026666D01*
X81337500Y-34426666D01*
X81770833Y-34426666D01*
X83004166Y-34426666D02*
X82770833Y-34093333D01*
X82604166Y-34426666D02*
X82604166Y-33726666D01*
X82870833Y-33726666D01*
X82937500Y-33760000D01*
X82970833Y-33793333D01*
X83004166Y-33860000D01*
X83004166Y-33960000D01*
X82970833Y-34026666D01*
X82937500Y-34060000D01*
X82870833Y-34093333D01*
X82604166Y-34093333D01*
X83237500Y-33726666D02*
X83704166Y-34426666D01*
X83704166Y-33726666D02*
X83237500Y-34426666D01*
X77137500Y-35087000D02*
X77304166Y-35553666D01*
X77470833Y-35087000D01*
X77870833Y-34853666D02*
X77937500Y-34853666D01*
X78004166Y-34887000D01*
X78037500Y-34920333D01*
X78070833Y-34987000D01*
X78104166Y-35120333D01*
X78104166Y-35287000D01*
X78070833Y-35420333D01*
X78037500Y-35487000D01*
X78004166Y-35520333D01*
X77937500Y-35553666D01*
X77870833Y-35553666D01*
X77804166Y-35520333D01*
X77770833Y-35487000D01*
X77737500Y-35420333D01*
X77704166Y-35287000D01*
X77704166Y-35120333D01*
X77737500Y-34987000D01*
X77770833Y-34920333D01*
X77804166Y-34887000D01*
X77870833Y-34853666D01*
X78404166Y-35487000D02*
X78437500Y-35520333D01*
X78404166Y-35553666D01*
X78370833Y-35520333D01*
X78404166Y-35487000D01*
X78404166Y-35553666D01*
X79104166Y-35553666D02*
X78704166Y-35553666D01*
X78904166Y-35553666D02*
X78904166Y-34853666D01*
X78837500Y-34953666D01*
X78770833Y-35020333D01*
X78704166Y-35053666D01*
X82724166Y-68605236D02*
X83124166Y-68605236D01*
X82924166Y-69305236D02*
X82924166Y-68605236D01*
X83290833Y-68605236D02*
X83757500Y-69305236D01*
X83757500Y-68605236D02*
X83290833Y-69305236D01*
X84357500Y-68605236D02*
X84024166Y-68605236D01*
X83990833Y-68938570D01*
X84024166Y-68905236D01*
X84090833Y-68871903D01*
X84257500Y-68871903D01*
X84324166Y-68905236D01*
X84357500Y-68938570D01*
X84390833Y-69005236D01*
X84390833Y-69171903D01*
X84357500Y-69238570D01*
X84324166Y-69271903D01*
X84257500Y-69305236D01*
X84090833Y-69305236D01*
X84024166Y-69271903D01*
X83990833Y-69238570D01*
X84924166Y-68938570D02*
X85024166Y-68971903D01*
X85057500Y-69005236D01*
X85090833Y-69071903D01*
X85090833Y-69171903D01*
X85057500Y-69238570D01*
X85024166Y-69271903D01*
X84957500Y-69305236D01*
X84690833Y-69305236D01*
X84690833Y-68605236D01*
X84924166Y-68605236D01*
X84990833Y-68638570D01*
X85024166Y-68671903D01*
X85057500Y-68738570D01*
X85057500Y-68805236D01*
X85024166Y-68871903D01*
X84990833Y-68905236D01*
X84924166Y-68938570D01*
X84690833Y-68938570D01*
X110424165Y-70702376D02*
X110657499Y-71402376D01*
X110890832Y-70702376D01*
X111124165Y-71402376D02*
X111124165Y-70702376D01*
X111290832Y-70702376D01*
X111390832Y-70735710D01*
X111457499Y-70802376D01*
X111490832Y-70869043D01*
X111524165Y-71002376D01*
X111524165Y-71102376D01*
X111490832Y-71235710D01*
X111457499Y-71302376D01*
X111390832Y-71369043D01*
X111290832Y-71402376D01*
X111124165Y-71402376D01*
X111824165Y-71402376D02*
X111824165Y-70702376D01*
X111990832Y-70702376D01*
X112090832Y-70735710D01*
X112157499Y-70802376D01*
X112190832Y-70869043D01*
X112224165Y-71002376D01*
X112224165Y-71102376D01*
X112190832Y-71235710D01*
X112157499Y-71302376D01*
X112090832Y-71369043D01*
X111990832Y-71402376D01*
X111824165Y-71402376D01*
X112490832Y-71202376D02*
X112824165Y-71202376D01*
X112424165Y-71402376D02*
X112657499Y-70702376D01*
X112890832Y-71402376D01*
X114950833Y-69491425D02*
X114884166Y-69458091D01*
X114784166Y-69458091D01*
X114684166Y-69491425D01*
X114617500Y-69558091D01*
X114584166Y-69624758D01*
X114550833Y-69758091D01*
X114550833Y-69858091D01*
X114584166Y-69991425D01*
X114617500Y-70058091D01*
X114684166Y-70124758D01*
X114784166Y-70158091D01*
X114850833Y-70158091D01*
X114950833Y-70124758D01*
X114984166Y-70091425D01*
X114984166Y-69858091D01*
X114850833Y-69858091D01*
X115284166Y-70158091D02*
X115284166Y-69458091D01*
X115684166Y-70158091D01*
X115684166Y-69458091D01*
X116017500Y-70158091D02*
X116017500Y-69458091D01*
X116184166Y-69458091D01*
X116284166Y-69491425D01*
X116350833Y-69558091D01*
X116384166Y-69624758D01*
X116417500Y-69758091D01*
X116417500Y-69858091D01*
X116384166Y-69991425D01*
X116350833Y-70058091D01*
X116284166Y-70124758D01*
X116184166Y-70158091D01*
X116017500Y-70158091D01*
X116684166Y-69958091D02*
X117017500Y-69958091D01*
X116617500Y-70158091D02*
X116850833Y-69458091D01*
X117084166Y-70158091D01*
X110890832Y-65180951D02*
X110657499Y-64847618D01*
X110490832Y-65180951D02*
X110490832Y-64480951D01*
X110757499Y-64480951D01*
X110824166Y-64514285D01*
X110857499Y-64547618D01*
X110890832Y-64614285D01*
X110890832Y-64714285D01*
X110857499Y-64780951D01*
X110824166Y-64814285D01*
X110757499Y-64847618D01*
X110490832Y-64847618D01*
X111124166Y-64480951D02*
X111590832Y-65180951D01*
X111590832Y-64480951D02*
X111124166Y-65180951D01*
X111824166Y-64547618D02*
X111857499Y-64514285D01*
X111924166Y-64480951D01*
X112090832Y-64480951D01*
X112157499Y-64514285D01*
X112190832Y-64547618D01*
X112224166Y-64614285D01*
X112224166Y-64680951D01*
X112190832Y-64780951D01*
X111790832Y-65180951D01*
X112224166Y-65180951D01*
X112490832Y-64980951D02*
X112824166Y-64980951D01*
X112424166Y-65180951D02*
X112657499Y-64480951D01*
X112890832Y-65180951D01*
X110890832Y-70158091D02*
X110657499Y-69824758D01*
X110490832Y-70158091D02*
X110490832Y-69458091D01*
X110757499Y-69458091D01*
X110824166Y-69491425D01*
X110857499Y-69524758D01*
X110890832Y-69591425D01*
X110890832Y-69691425D01*
X110857499Y-69758091D01*
X110824166Y-69791425D01*
X110757499Y-69824758D01*
X110490832Y-69824758D01*
X111124166Y-69458091D02*
X111590832Y-70158091D01*
X111590832Y-69458091D02*
X111124166Y-70158091D01*
X112157499Y-69458091D02*
X112024166Y-69458091D01*
X111957499Y-69491425D01*
X111924166Y-69524758D01*
X111857499Y-69624758D01*
X111824166Y-69758091D01*
X111824166Y-70024758D01*
X111857499Y-70091425D01*
X111890832Y-70124758D01*
X111957499Y-70158091D01*
X112090832Y-70158091D01*
X112157499Y-70124758D01*
X112190832Y-70091425D01*
X112224166Y-70024758D01*
X112224166Y-69858091D01*
X112190832Y-69791425D01*
X112157499Y-69758091D01*
X112090832Y-69724758D01*
X111957499Y-69724758D01*
X111890832Y-69758091D01*
X111857499Y-69791425D01*
X111824166Y-69858091D01*
X112490832Y-69958091D02*
X112824166Y-69958091D01*
X112424166Y-70158091D02*
X112657499Y-69458091D01*
X112890832Y-70158091D01*
X82824166Y-73038091D02*
X82824166Y-72338091D01*
X83224166Y-73038091D01*
X83224166Y-72338091D01*
X83957500Y-72971425D02*
X83924166Y-73004758D01*
X83824166Y-73038091D01*
X83757500Y-73038091D01*
X83657500Y-73004758D01*
X83590833Y-72938091D01*
X83557500Y-72871425D01*
X83524166Y-72738091D01*
X83524166Y-72638091D01*
X83557500Y-72504758D01*
X83590833Y-72438091D01*
X83657500Y-72371425D01*
X83757500Y-72338091D01*
X83824166Y-72338091D01*
X83924166Y-72371425D01*
X83957500Y-72404758D01*
X114950833Y-70735710D02*
X114884166Y-70702376D01*
X114784166Y-70702376D01*
X114684166Y-70735710D01*
X114617500Y-70802376D01*
X114584166Y-70869043D01*
X114550833Y-71002376D01*
X114550833Y-71102376D01*
X114584166Y-71235710D01*
X114617500Y-71302376D01*
X114684166Y-71369043D01*
X114784166Y-71402376D01*
X114850833Y-71402376D01*
X114950833Y-71369043D01*
X114984166Y-71335710D01*
X114984166Y-71102376D01*
X114850833Y-71102376D01*
X115284166Y-71402376D02*
X115284166Y-70702376D01*
X115684166Y-71402376D01*
X115684166Y-70702376D01*
X116017500Y-71402376D02*
X116017500Y-70702376D01*
X116184166Y-70702376D01*
X116284166Y-70735710D01*
X116350833Y-70802376D01*
X116384166Y-70869043D01*
X116417500Y-71002376D01*
X116417500Y-71102376D01*
X116384166Y-71235710D01*
X116350833Y-71302376D01*
X116284166Y-71369043D01*
X116184166Y-71402376D01*
X116017500Y-71402376D01*
X116684166Y-71202376D02*
X117017500Y-71202376D01*
X116617500Y-71402376D02*
X116850833Y-70702376D01*
X117084166Y-71402376D01*
X82724166Y-67360951D02*
X83124166Y-67360951D01*
X82924166Y-68060951D02*
X82924166Y-67360951D01*
X83290833Y-67360951D02*
X83757500Y-68060951D01*
X83757500Y-67360951D02*
X83290833Y-68060951D01*
X84324166Y-67594285D02*
X84324166Y-68060951D01*
X84157500Y-67327618D02*
X83990833Y-67827618D01*
X84424166Y-67827618D01*
X84924166Y-67694285D02*
X85024166Y-67727618D01*
X85057500Y-67760951D01*
X85090833Y-67827618D01*
X85090833Y-67927618D01*
X85057500Y-67994285D01*
X85024166Y-68027618D01*
X84957500Y-68060951D01*
X84690833Y-68060951D01*
X84690833Y-67360951D01*
X84924166Y-67360951D01*
X84990833Y-67394285D01*
X85024166Y-67427618D01*
X85057500Y-67494285D01*
X85057500Y-67560951D01*
X85024166Y-67627618D01*
X84990833Y-67660951D01*
X84924166Y-67694285D01*
X84690833Y-67694285D01*
X79030833Y-68638570D02*
X78964166Y-68605236D01*
X78864166Y-68605236D01*
X78764166Y-68638570D01*
X78697500Y-68705236D01*
X78664166Y-68771903D01*
X78630833Y-68905236D01*
X78630833Y-69005236D01*
X78664166Y-69138570D01*
X78697500Y-69205236D01*
X78764166Y-69271903D01*
X78864166Y-69305236D01*
X78930833Y-69305236D01*
X79030833Y-69271903D01*
X79064166Y-69238570D01*
X79064166Y-69005236D01*
X78930833Y-69005236D01*
X79364166Y-69305236D02*
X79364166Y-68605236D01*
X79764166Y-69305236D01*
X79764166Y-68605236D01*
X80097500Y-69305236D02*
X80097500Y-68605236D01*
X80264166Y-68605236D01*
X80364166Y-68638570D01*
X80430833Y-68705236D01*
X80464166Y-68771903D01*
X80497500Y-68905236D01*
X80497500Y-69005236D01*
X80464166Y-69138570D01*
X80430833Y-69205236D01*
X80364166Y-69271903D01*
X80264166Y-69305236D01*
X80097500Y-69305236D01*
X81030833Y-68938570D02*
X81130833Y-68971903D01*
X81164166Y-69005236D01*
X81197500Y-69071903D01*
X81197500Y-69171903D01*
X81164166Y-69238570D01*
X81130833Y-69271903D01*
X81064166Y-69305236D01*
X80797500Y-69305236D01*
X80797500Y-68605236D01*
X81030833Y-68605236D01*
X81097500Y-68638570D01*
X81130833Y-68671903D01*
X81164166Y-68738570D01*
X81164166Y-68805236D01*
X81130833Y-68871903D01*
X81097500Y-68905236D01*
X81030833Y-68938570D01*
X80797500Y-68938570D01*
X82724166Y-71093806D02*
X82957500Y-71793806D01*
X83190833Y-71093806D01*
X83424166Y-71793806D02*
X83424166Y-71093806D01*
X83590833Y-71093806D01*
X83690833Y-71127140D01*
X83757500Y-71193806D01*
X83790833Y-71260473D01*
X83824166Y-71393806D01*
X83824166Y-71493806D01*
X83790833Y-71627140D01*
X83757500Y-71693806D01*
X83690833Y-71760473D01*
X83590833Y-71793806D01*
X83424166Y-71793806D01*
X84124166Y-71793806D02*
X84124166Y-71093806D01*
X84290833Y-71093806D01*
X84390833Y-71127140D01*
X84457500Y-71193806D01*
X84490833Y-71260473D01*
X84524166Y-71393806D01*
X84524166Y-71493806D01*
X84490833Y-71627140D01*
X84457500Y-71693806D01*
X84390833Y-71760473D01*
X84290833Y-71793806D01*
X84124166Y-71793806D01*
X85057500Y-71427140D02*
X85157500Y-71460473D01*
X85190833Y-71493806D01*
X85224166Y-71560473D01*
X85224166Y-71660473D01*
X85190833Y-71727140D01*
X85157500Y-71760473D01*
X85090833Y-71793806D01*
X84824166Y-71793806D01*
X84824166Y-71093806D01*
X85057500Y-71093806D01*
X85124166Y-71127140D01*
X85157500Y-71160473D01*
X85190833Y-71227140D01*
X85190833Y-71293806D01*
X85157500Y-71360473D01*
X85124166Y-71393806D01*
X85057500Y-71427140D01*
X84824166Y-71427140D01*
X79030833Y-64905715D02*
X78964166Y-64872381D01*
X78864166Y-64872381D01*
X78764166Y-64905715D01*
X78697500Y-64972381D01*
X78664166Y-65039048D01*
X78630833Y-65172381D01*
X78630833Y-65272381D01*
X78664166Y-65405715D01*
X78697500Y-65472381D01*
X78764166Y-65539048D01*
X78864166Y-65572381D01*
X78930833Y-65572381D01*
X79030833Y-65539048D01*
X79064166Y-65505715D01*
X79064166Y-65272381D01*
X78930833Y-65272381D01*
X79364166Y-65572381D02*
X79364166Y-64872381D01*
X79764166Y-65572381D01*
X79764166Y-64872381D01*
X80097500Y-65572381D02*
X80097500Y-64872381D01*
X80264166Y-64872381D01*
X80364166Y-64905715D01*
X80430833Y-64972381D01*
X80464166Y-65039048D01*
X80497500Y-65172381D01*
X80497500Y-65272381D01*
X80464166Y-65405715D01*
X80430833Y-65472381D01*
X80364166Y-65539048D01*
X80264166Y-65572381D01*
X80097500Y-65572381D01*
X81030833Y-65205715D02*
X81130833Y-65239048D01*
X81164166Y-65272381D01*
X81197500Y-65339048D01*
X81197500Y-65439048D01*
X81164166Y-65505715D01*
X81130833Y-65539048D01*
X81064166Y-65572381D01*
X80797500Y-65572381D01*
X80797500Y-64872381D01*
X81030833Y-64872381D01*
X81097500Y-64905715D01*
X81130833Y-64939048D01*
X81164166Y-65005715D01*
X81164166Y-65072381D01*
X81130833Y-65139048D01*
X81097500Y-65172381D01*
X81030833Y-65205715D01*
X80797500Y-65205715D01*
X79030833Y-72371425D02*
X78964166Y-72338091D01*
X78864166Y-72338091D01*
X78764166Y-72371425D01*
X78697500Y-72438091D01*
X78664166Y-72504758D01*
X78630833Y-72638091D01*
X78630833Y-72738091D01*
X78664166Y-72871425D01*
X78697500Y-72938091D01*
X78764166Y-73004758D01*
X78864166Y-73038091D01*
X78930833Y-73038091D01*
X79030833Y-73004758D01*
X79064166Y-72971425D01*
X79064166Y-72738091D01*
X78930833Y-72738091D01*
X79364166Y-73038091D02*
X79364166Y-72338091D01*
X79764166Y-73038091D01*
X79764166Y-72338091D01*
X80097500Y-73038091D02*
X80097500Y-72338091D01*
X80264166Y-72338091D01*
X80364166Y-72371425D01*
X80430833Y-72438091D01*
X80464166Y-72504758D01*
X80497500Y-72638091D01*
X80497500Y-72738091D01*
X80464166Y-72871425D01*
X80430833Y-72938091D01*
X80364166Y-73004758D01*
X80264166Y-73038091D01*
X80097500Y-73038091D01*
X81030833Y-72671425D02*
X81130833Y-72704758D01*
X81164166Y-72738091D01*
X81197500Y-72804758D01*
X81197500Y-72904758D01*
X81164166Y-72971425D01*
X81130833Y-73004758D01*
X81064166Y-73038091D01*
X80797500Y-73038091D01*
X80797500Y-72338091D01*
X81030833Y-72338091D01*
X81097500Y-72371425D01*
X81130833Y-72404758D01*
X81164166Y-72471425D01*
X81164166Y-72538091D01*
X81130833Y-72604758D01*
X81097500Y-72638091D01*
X81030833Y-72671425D01*
X80797500Y-72671425D01*
X110890832Y-63936666D02*
X110657499Y-63603333D01*
X110490832Y-63936666D02*
X110490832Y-63236666D01*
X110757499Y-63236666D01*
X110824166Y-63270000D01*
X110857499Y-63303333D01*
X110890832Y-63370000D01*
X110890832Y-63470000D01*
X110857499Y-63536666D01*
X110824166Y-63570000D01*
X110757499Y-63603333D01*
X110490832Y-63603333D01*
X111124166Y-63236666D02*
X111590832Y-63936666D01*
X111590832Y-63236666D02*
X111124166Y-63936666D01*
X112224166Y-63936666D02*
X111824166Y-63936666D01*
X112024166Y-63936666D02*
X112024166Y-63236666D01*
X111957499Y-63336666D01*
X111890832Y-63403333D01*
X111824166Y-63436666D01*
X112490832Y-63736666D02*
X112824166Y-63736666D01*
X112424166Y-63936666D02*
X112657499Y-63236666D01*
X112890832Y-63936666D01*
X110890832Y-68913806D02*
X110657499Y-68580473D01*
X110490832Y-68913806D02*
X110490832Y-68213806D01*
X110757499Y-68213806D01*
X110824166Y-68247140D01*
X110857499Y-68280473D01*
X110890832Y-68347140D01*
X110890832Y-68447140D01*
X110857499Y-68513806D01*
X110824166Y-68547140D01*
X110757499Y-68580473D01*
X110490832Y-68580473D01*
X111124166Y-68213806D02*
X111590832Y-68913806D01*
X111590832Y-68213806D02*
X111124166Y-68913806D01*
X112190832Y-68213806D02*
X111857499Y-68213806D01*
X111824166Y-68547140D01*
X111857499Y-68513806D01*
X111924166Y-68480473D01*
X112090832Y-68480473D01*
X112157499Y-68513806D01*
X112190832Y-68547140D01*
X112224166Y-68613806D01*
X112224166Y-68780473D01*
X112190832Y-68847140D01*
X112157499Y-68880473D01*
X112090832Y-68913806D01*
X111924166Y-68913806D01*
X111857499Y-68880473D01*
X111824166Y-68847140D01*
X112490832Y-68713806D02*
X112824166Y-68713806D01*
X112424166Y-68913806D02*
X112657499Y-68213806D01*
X112890832Y-68913806D01*
X99154166Y-46766666D02*
X99154166Y-47333333D01*
X99187500Y-47400000D01*
X99220833Y-47433333D01*
X99287500Y-47466666D01*
X99420833Y-47466666D01*
X99487500Y-47433333D01*
X99520833Y-47400000D01*
X99554166Y-47333333D01*
X99554166Y-46766666D01*
X99854166Y-46833333D02*
X99887500Y-46800000D01*
X99954166Y-46766666D01*
X100120833Y-46766666D01*
X100187500Y-46800000D01*
X100220833Y-46833333D01*
X100254166Y-46900000D01*
X100254166Y-46966666D01*
X100220833Y-47066666D01*
X99820833Y-47466666D01*
X100254166Y-47466666D01*
X91323333Y-50491200D02*
X91290000Y-50524533D01*
X91190000Y-50557866D01*
X91123333Y-50557866D01*
X91023333Y-50524533D01*
X90956666Y-50457866D01*
X90923333Y-50391200D01*
X90890000Y-50257866D01*
X90890000Y-50157866D01*
X90923333Y-50024533D01*
X90956666Y-49957866D01*
X91023333Y-49891200D01*
X91123333Y-49857866D01*
X91190000Y-49857866D01*
X91290000Y-49891200D01*
X91323333Y-49924533D01*
X91556666Y-49857866D02*
X92023333Y-49857866D01*
X91723333Y-50557866D01*
X110802000Y-36740266D02*
X110568666Y-36406933D01*
X110402000Y-36740266D02*
X110402000Y-36040266D01*
X110668666Y-36040266D01*
X110735333Y-36073600D01*
X110768666Y-36106933D01*
X110802000Y-36173600D01*
X110802000Y-36273600D01*
X110768666Y-36340266D01*
X110735333Y-36373600D01*
X110668666Y-36406933D01*
X110402000Y-36406933D01*
X111468666Y-36740266D02*
X111068666Y-36740266D01*
X111268666Y-36740266D02*
X111268666Y-36040266D01*
X111202000Y-36140266D01*
X111135333Y-36206933D01*
X111068666Y-36240266D01*
X111902000Y-36040266D02*
X111968666Y-36040266D01*
X112035333Y-36073600D01*
X112068666Y-36106933D01*
X112102000Y-36173600D01*
X112135333Y-36306933D01*
X112135333Y-36473600D01*
X112102000Y-36606933D01*
X112068666Y-36673600D01*
X112035333Y-36706933D01*
X111968666Y-36740266D01*
X111902000Y-36740266D01*
X111835333Y-36706933D01*
X111802000Y-36673600D01*
X111768666Y-36606933D01*
X111735333Y-36473600D01*
X111735333Y-36306933D01*
X111768666Y-36173600D01*
X111802000Y-36106933D01*
X111835333Y-36073600D01*
X111902000Y-36040266D01*
X86203333Y-61476666D02*
X85970000Y-61143333D01*
X85803333Y-61476666D02*
X85803333Y-60776666D01*
X86070000Y-60776666D01*
X86136666Y-60810000D01*
X86170000Y-60843333D01*
X86203333Y-60910000D01*
X86203333Y-61010000D01*
X86170000Y-61076666D01*
X86136666Y-61110000D01*
X86070000Y-61143333D01*
X85803333Y-61143333D01*
X86870000Y-61476666D02*
X86470000Y-61476666D01*
X86670000Y-61476666D02*
X86670000Y-60776666D01*
X86603333Y-60876666D01*
X86536666Y-60943333D01*
X86470000Y-60976666D01*
X107683333Y-50370000D02*
X107650000Y-50403333D01*
X107550000Y-50436666D01*
X107483333Y-50436666D01*
X107383333Y-50403333D01*
X107316666Y-50336666D01*
X107283333Y-50270000D01*
X107250000Y-50136666D01*
X107250000Y-50036666D01*
X107283333Y-49903333D01*
X107316666Y-49836666D01*
X107383333Y-49770000D01*
X107483333Y-49736666D01*
X107550000Y-49736666D01*
X107650000Y-49770000D01*
X107683333Y-49803333D01*
X108316666Y-49736666D02*
X107983333Y-49736666D01*
X107950000Y-50070000D01*
X107983333Y-50036666D01*
X108050000Y-50003333D01*
X108216666Y-50003333D01*
X108283333Y-50036666D01*
X108316666Y-50070000D01*
X108350000Y-50136666D01*
X108350000Y-50303333D01*
X108316666Y-50370000D01*
X108283333Y-50403333D01*
X108216666Y-50436666D01*
X108050000Y-50436666D01*
X107983333Y-50403333D01*
X107950000Y-50370000D01*
X121621666Y-41171666D02*
X121621666Y-41671666D01*
X121588333Y-41771666D01*
X121521666Y-41838333D01*
X121421666Y-41871666D01*
X121355000Y-41871666D01*
X121921666Y-41238333D02*
X121955000Y-41205000D01*
X122021666Y-41171666D01*
X122188333Y-41171666D01*
X122255000Y-41205000D01*
X122288333Y-41238333D01*
X122321666Y-41305000D01*
X122321666Y-41371666D01*
X122288333Y-41471666D01*
X121888333Y-41871666D01*
X122321666Y-41871666D01*
X88221400Y-41718666D02*
X87988066Y-41385333D01*
X87821400Y-41718666D02*
X87821400Y-41018666D01*
X88088066Y-41018666D01*
X88154733Y-41052000D01*
X88188066Y-41085333D01*
X88221400Y-41152000D01*
X88221400Y-41252000D01*
X88188066Y-41318666D01*
X88154733Y-41352000D01*
X88088066Y-41385333D01*
X87821400Y-41385333D01*
X88888066Y-41718666D02*
X88488066Y-41718666D01*
X88688066Y-41718666D02*
X88688066Y-41018666D01*
X88621400Y-41118666D01*
X88554733Y-41185333D01*
X88488066Y-41218666D01*
X89554733Y-41718666D02*
X89154733Y-41718666D01*
X89354733Y-41718666D02*
X89354733Y-41018666D01*
X89288066Y-41118666D01*
X89221400Y-41185333D01*
X89154733Y-41218666D01*
X112710133Y-50938866D02*
X112476800Y-50605533D01*
X112310133Y-50938866D02*
X112310133Y-50238866D01*
X112576800Y-50238866D01*
X112643466Y-50272200D01*
X112676800Y-50305533D01*
X112710133Y-50372200D01*
X112710133Y-50472200D01*
X112676800Y-50538866D01*
X112643466Y-50572200D01*
X112576800Y-50605533D01*
X112310133Y-50605533D01*
X112943466Y-50238866D02*
X113410133Y-50238866D01*
X113110133Y-50938866D01*
X91323333Y-48154400D02*
X91290000Y-48187733D01*
X91190000Y-48221066D01*
X91123333Y-48221066D01*
X91023333Y-48187733D01*
X90956666Y-48121066D01*
X90923333Y-48054400D01*
X90890000Y-47921066D01*
X90890000Y-47821066D01*
X90923333Y-47687733D01*
X90956666Y-47621066D01*
X91023333Y-47554400D01*
X91123333Y-47521066D01*
X91190000Y-47521066D01*
X91290000Y-47554400D01*
X91323333Y-47587733D01*
X91723333Y-47821066D02*
X91656666Y-47787733D01*
X91623333Y-47754400D01*
X91590000Y-47687733D01*
X91590000Y-47654400D01*
X91623333Y-47587733D01*
X91656666Y-47554400D01*
X91723333Y-47521066D01*
X91856666Y-47521066D01*
X91923333Y-47554400D01*
X91956666Y-47587733D01*
X91990000Y-47654400D01*
X91990000Y-47687733D01*
X91956666Y-47754400D01*
X91923333Y-47787733D01*
X91856666Y-47821066D01*
X91723333Y-47821066D01*
X91656666Y-47854400D01*
X91623333Y-47887733D01*
X91590000Y-47954400D01*
X91590000Y-48087733D01*
X91623333Y-48154400D01*
X91656666Y-48187733D01*
X91723333Y-48221066D01*
X91856666Y-48221066D01*
X91923333Y-48187733D01*
X91956666Y-48154400D01*
X91990000Y-48087733D01*
X91990000Y-47954400D01*
X91956666Y-47887733D01*
X91923333Y-47854400D01*
X91856666Y-47821066D01*
X88363333Y-61536666D02*
X88130000Y-61203333D01*
X87963333Y-61536666D02*
X87963333Y-60836666D01*
X88230000Y-60836666D01*
X88296666Y-60870000D01*
X88330000Y-60903333D01*
X88363333Y-60970000D01*
X88363333Y-61070000D01*
X88330000Y-61136666D01*
X88296666Y-61170000D01*
X88230000Y-61203333D01*
X87963333Y-61203333D01*
X88596666Y-60836666D02*
X89030000Y-60836666D01*
X88796666Y-61103333D01*
X88896666Y-61103333D01*
X88963333Y-61136666D01*
X88996666Y-61170000D01*
X89030000Y-61236666D01*
X89030000Y-61403333D01*
X88996666Y-61470000D01*
X88963333Y-61503333D01*
X88896666Y-61536666D01*
X88696666Y-61536666D01*
X88630000Y-61503333D01*
X88596666Y-61470000D01*
X107663333Y-67430000D02*
X107630000Y-67463333D01*
X107530000Y-67496666D01*
X107463333Y-67496666D01*
X107363333Y-67463333D01*
X107296666Y-67396666D01*
X107263333Y-67330000D01*
X107230000Y-67196666D01*
X107230000Y-67096666D01*
X107263333Y-66963333D01*
X107296666Y-66896666D01*
X107363333Y-66830000D01*
X107463333Y-66796666D01*
X107530000Y-66796666D01*
X107630000Y-66830000D01*
X107663333Y-66863333D01*
X107930000Y-66863333D02*
X107963333Y-66830000D01*
X108030000Y-66796666D01*
X108196666Y-66796666D01*
X108263333Y-66830000D01*
X108296666Y-66863333D01*
X108330000Y-66930000D01*
X108330000Y-66996666D01*
X108296666Y-67096666D01*
X107896666Y-67496666D01*
X108330000Y-67496666D01*
X112707000Y-38975466D02*
X112473666Y-38642133D01*
X112307000Y-38975466D02*
X112307000Y-38275466D01*
X112573666Y-38275466D01*
X112640333Y-38308800D01*
X112673666Y-38342133D01*
X112707000Y-38408800D01*
X112707000Y-38508800D01*
X112673666Y-38575466D01*
X112640333Y-38608800D01*
X112573666Y-38642133D01*
X112307000Y-38642133D01*
X113373666Y-38975466D02*
X112973666Y-38975466D01*
X113173666Y-38975466D02*
X113173666Y-38275466D01*
X113107000Y-38375466D01*
X113040333Y-38442133D01*
X112973666Y-38475466D01*
X114007000Y-38275466D02*
X113673666Y-38275466D01*
X113640333Y-38608800D01*
X113673666Y-38575466D01*
X113740333Y-38542133D01*
X113907000Y-38542133D01*
X113973666Y-38575466D01*
X114007000Y-38608800D01*
X114040333Y-38675466D01*
X114040333Y-38842133D01*
X114007000Y-38908800D01*
X113973666Y-38942133D01*
X113907000Y-38975466D01*
X113740333Y-38975466D01*
X113673666Y-38942133D01*
X113640333Y-38908800D01*
X76666666Y-40966666D02*
X76666666Y-41466666D01*
X76633333Y-41566666D01*
X76566666Y-41633333D01*
X76466666Y-41666666D01*
X76400000Y-41666666D01*
X77366666Y-41666666D02*
X76966666Y-41666666D01*
X77166666Y-41666666D02*
X77166666Y-40966666D01*
X77100000Y-41066666D01*
X77033333Y-41133333D01*
X76966666Y-41166666D01*
X110370200Y-49541866D02*
X110136866Y-49208533D01*
X109970200Y-49541866D02*
X109970200Y-48841866D01*
X110236866Y-48841866D01*
X110303533Y-48875200D01*
X110336866Y-48908533D01*
X110370200Y-48975200D01*
X110370200Y-49075200D01*
X110336866Y-49141866D01*
X110303533Y-49175200D01*
X110236866Y-49208533D01*
X109970200Y-49208533D01*
X111036866Y-49541866D02*
X110636866Y-49541866D01*
X110836866Y-49541866D02*
X110836866Y-48841866D01*
X110770200Y-48941866D01*
X110703533Y-49008533D01*
X110636866Y-49041866D01*
X111270200Y-48841866D02*
X111703533Y-48841866D01*
X111470200Y-49108533D01*
X111570200Y-49108533D01*
X111636866Y-49141866D01*
X111670200Y-49175200D01*
X111703533Y-49241866D01*
X111703533Y-49408533D01*
X111670200Y-49475200D01*
X111636866Y-49508533D01*
X111570200Y-49541866D01*
X111370200Y-49541866D01*
X111303533Y-49508533D01*
X111270200Y-49475200D01*
X99116666Y-66066666D02*
X99116666Y-66633333D01*
X99150000Y-66700000D01*
X99183333Y-66733333D01*
X99250000Y-66766666D01*
X99383333Y-66766666D01*
X99450000Y-66733333D01*
X99483333Y-66700000D01*
X99516666Y-66633333D01*
X99516666Y-66066666D01*
X100216666Y-66766666D02*
X99816666Y-66766666D01*
X100016666Y-66766666D02*
X100016666Y-66066666D01*
X99950000Y-66166666D01*
X99883333Y-66233333D01*
X99816666Y-66266666D01*
X91145533Y-69719000D02*
X91112200Y-69752333D01*
X91012200Y-69785666D01*
X90945533Y-69785666D01*
X90845533Y-69752333D01*
X90778866Y-69685666D01*
X90745533Y-69619000D01*
X90712200Y-69485666D01*
X90712200Y-69385666D01*
X90745533Y-69252333D01*
X90778866Y-69185666D01*
X90845533Y-69119000D01*
X90945533Y-69085666D01*
X91012200Y-69085666D01*
X91112200Y-69119000D01*
X91145533Y-69152333D01*
X91378866Y-69085666D02*
X91812200Y-69085666D01*
X91578866Y-69352333D01*
X91678866Y-69352333D01*
X91745533Y-69385666D01*
X91778866Y-69419000D01*
X91812200Y-69485666D01*
X91812200Y-69652333D01*
X91778866Y-69719000D01*
X91745533Y-69752333D01*
X91678866Y-69785666D01*
X91478866Y-69785666D01*
X91412200Y-69752333D01*
X91378866Y-69719000D01*
X107655533Y-69846000D02*
X107622200Y-69879333D01*
X107522200Y-69912666D01*
X107455533Y-69912666D01*
X107355533Y-69879333D01*
X107288866Y-69812666D01*
X107255533Y-69746000D01*
X107222200Y-69612666D01*
X107222200Y-69512666D01*
X107255533Y-69379333D01*
X107288866Y-69312666D01*
X107355533Y-69246000D01*
X107455533Y-69212666D01*
X107522200Y-69212666D01*
X107622200Y-69246000D01*
X107655533Y-69279333D01*
X108322200Y-69912666D02*
X107922200Y-69912666D01*
X108122200Y-69912666D02*
X108122200Y-69212666D01*
X108055533Y-69312666D01*
X107988866Y-69379333D01*
X107922200Y-69412666D01*
X108533733Y-52754466D02*
X108300400Y-52421133D01*
X108133733Y-52754466D02*
X108133733Y-52054466D01*
X108400400Y-52054466D01*
X108467066Y-52087800D01*
X108500400Y-52121133D01*
X108533733Y-52187800D01*
X108533733Y-52287800D01*
X108500400Y-52354466D01*
X108467066Y-52387800D01*
X108400400Y-52421133D01*
X108133733Y-52421133D01*
X108800400Y-52121133D02*
X108833733Y-52087800D01*
X108900400Y-52054466D01*
X109067066Y-52054466D01*
X109133733Y-52087800D01*
X109167066Y-52121133D01*
X109200400Y-52187800D01*
X109200400Y-52254466D01*
X109167066Y-52354466D01*
X108767066Y-52754466D01*
X109200400Y-52754466D01*
X90393333Y-61546666D02*
X90160000Y-61213333D01*
X89993333Y-61546666D02*
X89993333Y-60846666D01*
X90260000Y-60846666D01*
X90326666Y-60880000D01*
X90360000Y-60913333D01*
X90393333Y-60980000D01*
X90393333Y-61080000D01*
X90360000Y-61146666D01*
X90326666Y-61180000D01*
X90260000Y-61213333D01*
X89993333Y-61213333D01*
X90993333Y-61080000D02*
X90993333Y-61546666D01*
X90826666Y-60813333D02*
X90660000Y-61313333D01*
X91093333Y-61313333D01*
X85960800Y-41744066D02*
X85727466Y-41410733D01*
X85560800Y-41744066D02*
X85560800Y-41044066D01*
X85827466Y-41044066D01*
X85894133Y-41077400D01*
X85927466Y-41110733D01*
X85960800Y-41177400D01*
X85960800Y-41277400D01*
X85927466Y-41344066D01*
X85894133Y-41377400D01*
X85827466Y-41410733D01*
X85560800Y-41410733D01*
X86627466Y-41744066D02*
X86227466Y-41744066D01*
X86427466Y-41744066D02*
X86427466Y-41044066D01*
X86360800Y-41144066D01*
X86294133Y-41210733D01*
X86227466Y-41244066D01*
X86894133Y-41110733D02*
X86927466Y-41077400D01*
X86994133Y-41044066D01*
X87160800Y-41044066D01*
X87227466Y-41077400D01*
X87260800Y-41110733D01*
X87294133Y-41177400D01*
X87294133Y-41244066D01*
X87260800Y-41344066D01*
X86860800Y-41744066D01*
X87294133Y-41744066D01*
X108929333Y-61153466D02*
X108696000Y-60820133D01*
X108529333Y-61153466D02*
X108529333Y-60453466D01*
X108796000Y-60453466D01*
X108862666Y-60486800D01*
X108896000Y-60520133D01*
X108929333Y-60586800D01*
X108929333Y-60686800D01*
X108896000Y-60753466D01*
X108862666Y-60786800D01*
X108796000Y-60820133D01*
X108529333Y-60820133D01*
X109562666Y-60453466D02*
X109229333Y-60453466D01*
X109196000Y-60786800D01*
X109229333Y-60753466D01*
X109296000Y-60720133D01*
X109462666Y-60720133D01*
X109529333Y-60753466D01*
X109562666Y-60786800D01*
X109596000Y-60853466D01*
X109596000Y-61020133D01*
X109562666Y-61086800D01*
X109529333Y-61120133D01*
X109462666Y-61153466D01*
X109296000Y-61153466D01*
X109229333Y-61120133D01*
X109196000Y-61086800D01*
X107653333Y-48080000D02*
X107620000Y-48113333D01*
X107520000Y-48146666D01*
X107453333Y-48146666D01*
X107353333Y-48113333D01*
X107286666Y-48046666D01*
X107253333Y-47980000D01*
X107220000Y-47846666D01*
X107220000Y-47746666D01*
X107253333Y-47613333D01*
X107286666Y-47546666D01*
X107353333Y-47480000D01*
X107453333Y-47446666D01*
X107520000Y-47446666D01*
X107620000Y-47480000D01*
X107653333Y-47513333D01*
X108253333Y-47446666D02*
X108120000Y-47446666D01*
X108053333Y-47480000D01*
X108020000Y-47513333D01*
X107953333Y-47613333D01*
X107920000Y-47746666D01*
X107920000Y-48013333D01*
X107953333Y-48080000D01*
X107986666Y-48113333D01*
X108053333Y-48146666D01*
X108186666Y-48146666D01*
X108253333Y-48113333D01*
X108286666Y-48080000D01*
X108320000Y-48013333D01*
X108320000Y-47846666D01*
X108286666Y-47780000D01*
X108253333Y-47746666D01*
X108186666Y-47713333D01*
X108053333Y-47713333D01*
X107986666Y-47746666D01*
X107953333Y-47780000D01*
X107920000Y-47846666D01*
X90840733Y-41718666D02*
X90607400Y-41385333D01*
X90440733Y-41718666D02*
X90440733Y-41018666D01*
X90707400Y-41018666D01*
X90774066Y-41052000D01*
X90807400Y-41085333D01*
X90840733Y-41152000D01*
X90840733Y-41252000D01*
X90807400Y-41318666D01*
X90774066Y-41352000D01*
X90707400Y-41385333D01*
X90440733Y-41385333D01*
X91174066Y-41718666D02*
X91307400Y-41718666D01*
X91374066Y-41685333D01*
X91407400Y-41652000D01*
X91474066Y-41552000D01*
X91507400Y-41418666D01*
X91507400Y-41152000D01*
X91474066Y-41085333D01*
X91440733Y-41052000D01*
X91374066Y-41018666D01*
X91240733Y-41018666D01*
X91174066Y-41052000D01*
X91140733Y-41085333D01*
X91107400Y-41152000D01*
X91107400Y-41318666D01*
X91140733Y-41385333D01*
X91174066Y-41418666D01*
X91240733Y-41452000D01*
X91374066Y-41452000D01*
X91440733Y-41418666D01*
X91474066Y-41385333D01*
X91507400Y-41318666D01*
X86900600Y-36765666D02*
X86667266Y-36432333D01*
X86500600Y-36765666D02*
X86500600Y-36065666D01*
X86767266Y-36065666D01*
X86833933Y-36099000D01*
X86867266Y-36132333D01*
X86900600Y-36199000D01*
X86900600Y-36299000D01*
X86867266Y-36365666D01*
X86833933Y-36399000D01*
X86767266Y-36432333D01*
X86500600Y-36432333D01*
X87567266Y-36765666D02*
X87167266Y-36765666D01*
X87367266Y-36765666D02*
X87367266Y-36065666D01*
X87300600Y-36165666D01*
X87233933Y-36232333D01*
X87167266Y-36265666D01*
X88167266Y-36065666D02*
X88033933Y-36065666D01*
X87967266Y-36099000D01*
X87933933Y-36132333D01*
X87867266Y-36232333D01*
X87833933Y-36365666D01*
X87833933Y-36632333D01*
X87867266Y-36699000D01*
X87900600Y-36732333D01*
X87967266Y-36765666D01*
X88100600Y-36765666D01*
X88167266Y-36732333D01*
X88200600Y-36699000D01*
X88233933Y-36632333D01*
X88233933Y-36465666D01*
X88200600Y-36399000D01*
X88167266Y-36365666D01*
X88100600Y-36332333D01*
X87967266Y-36332333D01*
X87900600Y-36365666D01*
X87867266Y-36399000D01*
X87833933Y-36465666D01*
X90916933Y-67407600D02*
X90883600Y-67440933D01*
X90783600Y-67474266D01*
X90716933Y-67474266D01*
X90616933Y-67440933D01*
X90550266Y-67374266D01*
X90516933Y-67307600D01*
X90483600Y-67174266D01*
X90483600Y-67074266D01*
X90516933Y-66940933D01*
X90550266Y-66874266D01*
X90616933Y-66807600D01*
X90716933Y-66774266D01*
X90783600Y-66774266D01*
X90883600Y-66807600D01*
X90916933Y-66840933D01*
X91516933Y-67007600D02*
X91516933Y-67474266D01*
X91350266Y-66740933D02*
X91183600Y-67240933D01*
X91616933Y-67240933D01*
X108566800Y-34022466D02*
X108333466Y-33689133D01*
X108166800Y-34022466D02*
X108166800Y-33322466D01*
X108433466Y-33322466D01*
X108500133Y-33355800D01*
X108533466Y-33389133D01*
X108566800Y-33455800D01*
X108566800Y-33555800D01*
X108533466Y-33622466D01*
X108500133Y-33655800D01*
X108433466Y-33689133D01*
X108166800Y-33689133D01*
X109233466Y-34022466D02*
X108833466Y-34022466D01*
X109033466Y-34022466D02*
X109033466Y-33322466D01*
X108966800Y-33422466D01*
X108900133Y-33489133D01*
X108833466Y-33522466D01*
X109566800Y-34022466D02*
X109700133Y-34022466D01*
X109766800Y-33989133D01*
X109800133Y-33955800D01*
X109866800Y-33855800D01*
X109900133Y-33722466D01*
X109900133Y-33455800D01*
X109866800Y-33389133D01*
X109833466Y-33355800D01*
X109766800Y-33322466D01*
X109633466Y-33322466D01*
X109566800Y-33355800D01*
X109533466Y-33389133D01*
X109500133Y-33455800D01*
X109500133Y-33622466D01*
X109533466Y-33689133D01*
X109566800Y-33722466D01*
X109633466Y-33755800D01*
X109766800Y-33755800D01*
X109833466Y-33722466D01*
X109866800Y-33689133D01*
X109900133Y-33622466D01*
X110779733Y-58558866D02*
X110546400Y-58225533D01*
X110379733Y-58558866D02*
X110379733Y-57858866D01*
X110646400Y-57858866D01*
X110713066Y-57892200D01*
X110746400Y-57925533D01*
X110779733Y-57992200D01*
X110779733Y-58092200D01*
X110746400Y-58158866D01*
X110713066Y-58192200D01*
X110646400Y-58225533D01*
X110379733Y-58225533D01*
X111379733Y-57858866D02*
X111246400Y-57858866D01*
X111179733Y-57892200D01*
X111146400Y-57925533D01*
X111079733Y-58025533D01*
X111046400Y-58158866D01*
X111046400Y-58425533D01*
X111079733Y-58492200D01*
X111113066Y-58525533D01*
X111179733Y-58558866D01*
X111313066Y-58558866D01*
X111379733Y-58525533D01*
X111413066Y-58492200D01*
X111446400Y-58425533D01*
X111446400Y-58258866D01*
X111413066Y-58192200D01*
X111379733Y-58158866D01*
X111313066Y-58125533D01*
X111179733Y-58125533D01*
X111113066Y-58158866D01*
X111079733Y-58192200D01*
X111046400Y-58258866D01*
X105925200Y-52285066D02*
X105691866Y-51951733D01*
X105525200Y-52285066D02*
X105525200Y-51585066D01*
X105791866Y-51585066D01*
X105858533Y-51618400D01*
X105891866Y-51651733D01*
X105925200Y-51718400D01*
X105925200Y-51818400D01*
X105891866Y-51885066D01*
X105858533Y-51918400D01*
X105791866Y-51951733D01*
X105525200Y-51951733D01*
X106591866Y-52285066D02*
X106191866Y-52285066D01*
X106391866Y-52285066D02*
X106391866Y-51585066D01*
X106325200Y-51685066D01*
X106258533Y-51751733D01*
X106191866Y-51785066D01*
X106825200Y-51585066D02*
X107291866Y-51585066D01*
X106991866Y-52285066D01*
X88326133Y-51751666D02*
X88092800Y-51418333D01*
X87926133Y-51751666D02*
X87926133Y-51051666D01*
X88192800Y-51051666D01*
X88259466Y-51085000D01*
X88292800Y-51118333D01*
X88326133Y-51185000D01*
X88326133Y-51285000D01*
X88292800Y-51351666D01*
X88259466Y-51385000D01*
X88192800Y-51418333D01*
X87926133Y-51418333D01*
X88726133Y-51351666D02*
X88659466Y-51318333D01*
X88626133Y-51285000D01*
X88592800Y-51218333D01*
X88592800Y-51185000D01*
X88626133Y-51118333D01*
X88659466Y-51085000D01*
X88726133Y-51051666D01*
X88859466Y-51051666D01*
X88926133Y-51085000D01*
X88959466Y-51118333D01*
X88992800Y-51185000D01*
X88992800Y-51218333D01*
X88959466Y-51285000D01*
X88926133Y-51318333D01*
X88859466Y-51351666D01*
X88726133Y-51351666D01*
X88659466Y-51385000D01*
X88626133Y-51418333D01*
X88592800Y-51485000D01*
X88592800Y-51618333D01*
X88626133Y-51685000D01*
X88659466Y-51718333D01*
X88726133Y-51751666D01*
X88859466Y-51751666D01*
X88926133Y-51718333D01*
X88959466Y-51685000D01*
X88992800Y-51618333D01*
X88992800Y-51485000D01*
X88959466Y-51418333D01*
X88926133Y-51385000D01*
X88859466Y-51351666D01*
X92082200Y-55739466D02*
X91848866Y-55406133D01*
X91682200Y-55739466D02*
X91682200Y-55039466D01*
X91948866Y-55039466D01*
X92015533Y-55072800D01*
X92048866Y-55106133D01*
X92082200Y-55172800D01*
X92082200Y-55272800D01*
X92048866Y-55339466D01*
X92015533Y-55372800D01*
X91948866Y-55406133D01*
X91682200Y-55406133D01*
X92748866Y-55739466D02*
X92348866Y-55739466D01*
X92548866Y-55739466D02*
X92548866Y-55039466D01*
X92482200Y-55139466D01*
X92415533Y-55206133D01*
X92348866Y-55239466D01*
X93148866Y-55339466D02*
X93082200Y-55306133D01*
X93048866Y-55272800D01*
X93015533Y-55206133D01*
X93015533Y-55172800D01*
X93048866Y-55106133D01*
X93082200Y-55072800D01*
X93148866Y-55039466D01*
X93282200Y-55039466D01*
X93348866Y-55072800D01*
X93382200Y-55106133D01*
X93415533Y-55172800D01*
X93415533Y-55206133D01*
X93382200Y-55272800D01*
X93348866Y-55306133D01*
X93282200Y-55339466D01*
X93148866Y-55339466D01*
X93082200Y-55372800D01*
X93048866Y-55406133D01*
X93015533Y-55472800D01*
X93015533Y-55606133D01*
X93048866Y-55672800D01*
X93082200Y-55706133D01*
X93148866Y-55739466D01*
X93282200Y-55739466D01*
X93348866Y-55706133D01*
X93382200Y-55672800D01*
X93415533Y-55606133D01*
X93415533Y-55472800D01*
X93382200Y-55406133D01*
X93348866Y-55372800D01*
X93282200Y-55339466D01*
X93428400Y-34657466D02*
X93195066Y-34324133D01*
X93028400Y-34657466D02*
X93028400Y-33957466D01*
X93295066Y-33957466D01*
X93361733Y-33990800D01*
X93395066Y-34024133D01*
X93428400Y-34090800D01*
X93428400Y-34190800D01*
X93395066Y-34257466D01*
X93361733Y-34290800D01*
X93295066Y-34324133D01*
X93028400Y-34324133D01*
X93695066Y-34024133D02*
X93728400Y-33990800D01*
X93795066Y-33957466D01*
X93961733Y-33957466D01*
X94028400Y-33990800D01*
X94061733Y-34024133D01*
X94095066Y-34090800D01*
X94095066Y-34157466D01*
X94061733Y-34257466D01*
X93661733Y-34657466D01*
X94095066Y-34657466D01*
X94528400Y-33957466D02*
X94595066Y-33957466D01*
X94661733Y-33990800D01*
X94695066Y-34024133D01*
X94728400Y-34090800D01*
X94761733Y-34224133D01*
X94761733Y-34390800D01*
X94728400Y-34524133D01*
X94695066Y-34590800D01*
X94661733Y-34624133D01*
X94595066Y-34657466D01*
X94528400Y-34657466D01*
X94461733Y-34624133D01*
X94428400Y-34590800D01*
X94395066Y-34524133D01*
X94361733Y-34390800D01*
X94361733Y-34224133D01*
X94395066Y-34090800D01*
X94428400Y-34024133D01*
X94461733Y-33990800D01*
X94528400Y-33957466D01*
X109989200Y-40677266D02*
X109755866Y-40343933D01*
X109589200Y-40677266D02*
X109589200Y-39977266D01*
X109855866Y-39977266D01*
X109922533Y-40010600D01*
X109955866Y-40043933D01*
X109989200Y-40110600D01*
X109989200Y-40210600D01*
X109955866Y-40277266D01*
X109922533Y-40310600D01*
X109855866Y-40343933D01*
X109589200Y-40343933D01*
X110655866Y-40677266D02*
X110255866Y-40677266D01*
X110455866Y-40677266D02*
X110455866Y-39977266D01*
X110389200Y-40077266D01*
X110322533Y-40143933D01*
X110255866Y-40177266D01*
X111255866Y-40210600D02*
X111255866Y-40677266D01*
X111089200Y-39943933D02*
X110922533Y-40443933D01*
X111355866Y-40443933D01*
D11*
X103547500Y-46055000D02*
X105362500Y-46055000D01*
X99687500Y-35790000D02*
X95827500Y-35790000D01*
X99687500Y-46310000D02*
X95827500Y-46310000D01*
X95827500Y-35790000D02*
X95827500Y-36045000D01*
X103547500Y-46310000D02*
X103547500Y-46055000D01*
X99687500Y-35790000D02*
X103547500Y-35790000D01*
X99687500Y-46310000D02*
X103547500Y-46310000D01*
X103547500Y-35790000D02*
X103547500Y-36045000D01*
X95827500Y-46310000D02*
X95827500Y-46055000D01*
X94398752Y-50935000D02*
X93876248Y-50935000D01*
X94398752Y-49465000D02*
X93876248Y-49465000D01*
X108967536Y-38758800D02*
X109421664Y-38758800D01*
X108967536Y-37288800D02*
X109421664Y-37288800D01*
X87035000Y-58927064D02*
X87035000Y-58472936D01*
X85565000Y-58927064D02*
X85565000Y-58472936D01*
X104876248Y-49415000D02*
X105398752Y-49415000D01*
X104876248Y-50885000D02*
X105398752Y-50885000D01*
X120180000Y-47635000D02*
X122840000Y-47635000D01*
X117242929Y-61225000D02*
X117697071Y-61225000D01*
X119782929Y-45985000D02*
X120180000Y-45985000D01*
X122840000Y-43745000D02*
X128840000Y-43745000D01*
X119782929Y-51065000D02*
X120180000Y-51065000D01*
X122840000Y-43445000D02*
X128840000Y-43445000D01*
X119782929Y-48525000D02*
X120180000Y-48525000D01*
X119782929Y-49285000D02*
X120180000Y-49285000D01*
X122840000Y-43505000D02*
X128840000Y-43505000D01*
X128840000Y-43445000D02*
X128840000Y-44205000D01*
X120180000Y-62935000D02*
X122840000Y-62935000D01*
X119782929Y-46745000D02*
X120180000Y-46745000D01*
X120180000Y-60335000D02*
X122840000Y-60335000D01*
X120180000Y-55255000D02*
X122840000Y-55255000D01*
X122840000Y-51065000D02*
X128840000Y-51065000D01*
X128840000Y-59445000D02*
X122840000Y-59445000D01*
X119782929Y-56905000D02*
X120180000Y-56905000D01*
X117242929Y-45985000D02*
X117697071Y-45985000D01*
X120180000Y-45095000D02*
X122840000Y-45095000D01*
X128840000Y-53605000D02*
X128840000Y-54365000D01*
X119782929Y-54365000D02*
X120180000Y-54365000D01*
X117242929Y-61985000D02*
X117697071Y-61985000D01*
X128840000Y-44205000D02*
X122840000Y-44205000D01*
X119782929Y-44205000D02*
X120180000Y-44205000D01*
X119782929Y-59445000D02*
X120180000Y-59445000D01*
X117242929Y-59445000D02*
X117697071Y-59445000D01*
X117242929Y-56145000D02*
X117697071Y-56145000D01*
X122840000Y-45985000D02*
X128840000Y-45985000D01*
X119782929Y-51825000D02*
X120180000Y-51825000D01*
X120180000Y-50175000D02*
X122840000Y-50175000D01*
X119782929Y-43445000D02*
X120180000Y-43445000D01*
X117242929Y-51065000D02*
X117697071Y-51065000D01*
X119782929Y-61225000D02*
X120180000Y-61225000D01*
X117242929Y-46745000D02*
X117697071Y-46745000D01*
X128840000Y-56905000D02*
X122840000Y-56905000D01*
X120180000Y-42495000D02*
X120180000Y-62935000D01*
X122840000Y-53605000D02*
X128840000Y-53605000D01*
X122840000Y-43985000D02*
X128840000Y-43985000D01*
X119782929Y-53605000D02*
X120180000Y-53605000D01*
X117242929Y-49285000D02*
X117697071Y-49285000D01*
X119782929Y-58685000D02*
X120180000Y-58685000D01*
X122840000Y-43865000D02*
X128840000Y-43865000D01*
X122840000Y-56145000D02*
X128840000Y-56145000D01*
X128840000Y-46745000D02*
X122840000Y-46745000D01*
X117310000Y-44205000D02*
X117697071Y-44205000D01*
X120180000Y-57795000D02*
X122840000Y-57795000D01*
X119782929Y-61985000D02*
X120180000Y-61985000D01*
X117242929Y-54365000D02*
X117697071Y-54365000D01*
X122840000Y-44105000D02*
X128840000Y-44105000D01*
X122840000Y-48525000D02*
X128840000Y-48525000D01*
X117242929Y-48525000D02*
X117697071Y-48525000D01*
X114930000Y-43825000D02*
X114930000Y-42555000D01*
X122840000Y-43625000D02*
X128840000Y-43625000D01*
X128840000Y-48525000D02*
X128840000Y-49285000D01*
X122840000Y-62935000D02*
X122840000Y-42495000D01*
X128840000Y-51825000D02*
X122840000Y-51825000D01*
X128840000Y-51065000D02*
X128840000Y-51825000D01*
X120180000Y-52715000D02*
X122840000Y-52715000D01*
X122840000Y-42495000D02*
X120180000Y-42495000D01*
X114930000Y-42555000D02*
X116200000Y-42555000D01*
X117242929Y-56905000D02*
X117697071Y-56905000D01*
X128840000Y-45985000D02*
X128840000Y-46745000D01*
X117242929Y-51825000D02*
X117697071Y-51825000D01*
X122840000Y-58685000D02*
X128840000Y-58685000D01*
X128840000Y-56145000D02*
X128840000Y-56905000D01*
X128840000Y-49285000D02*
X122840000Y-49285000D01*
X117242929Y-58685000D02*
X117697071Y-58685000D01*
X122840000Y-61225000D02*
X128840000Y-61225000D01*
X119782929Y-56145000D02*
X120180000Y-56145000D01*
X128840000Y-58685000D02*
X128840000Y-59445000D01*
X128840000Y-61225000D02*
X128840000Y-61985000D01*
X117242929Y-53605000D02*
X117697071Y-53605000D01*
X117310000Y-43445000D02*
X117697071Y-43445000D01*
X128840000Y-61985000D02*
X122840000Y-61985000D01*
X128840000Y-54365000D02*
X122840000Y-54365000D01*
X88015000Y-43572936D02*
X88015000Y-44027064D01*
X89485000Y-43572936D02*
X89485000Y-44027064D01*
X112117200Y-53389264D02*
X112117200Y-52935136D01*
X113587200Y-53389264D02*
X113587200Y-52935136D01*
X94398752Y-48585000D02*
X93876248Y-48585000D01*
X94398752Y-47115000D02*
X93876248Y-47115000D01*
X87715000Y-58927064D02*
X87715000Y-58472936D01*
X89185000Y-58927064D02*
X89185000Y-58472936D01*
X104888748Y-67885000D02*
X105411252Y-67885000D01*
X104888748Y-66415000D02*
X105411252Y-66415000D01*
X112422000Y-40920936D02*
X112422000Y-41375064D01*
X113892000Y-40920936D02*
X113892000Y-41375064D01*
X69710000Y-45955000D02*
X75710000Y-45955000D01*
X78370000Y-60305000D02*
X75710000Y-60305000D01*
X83620000Y-61575000D02*
X83620000Y-62845000D01*
X69710000Y-49255000D02*
X69710000Y-48495000D01*
X83620000Y-62845000D02*
X82350000Y-62845000D01*
X78767071Y-54335000D02*
X78370000Y-54335000D01*
X69710000Y-61195000D02*
X75710000Y-61195000D01*
X78767071Y-61195000D02*
X78370000Y-61195000D01*
X78767071Y-58655000D02*
X78370000Y-58655000D01*
X81307071Y-51035000D02*
X80852929Y-51035000D01*
X78767071Y-61955000D02*
X78370000Y-61955000D01*
X78370000Y-55225000D02*
X75710000Y-55225000D01*
X69710000Y-48495000D02*
X75710000Y-48495000D01*
X81307071Y-49255000D02*
X80852929Y-49255000D01*
X78767071Y-45955000D02*
X78370000Y-45955000D01*
X69710000Y-58655000D02*
X75710000Y-58655000D01*
X69710000Y-56115000D02*
X75710000Y-56115000D01*
X69710000Y-51035000D02*
X75710000Y-51035000D01*
X75710000Y-54335000D02*
X69710000Y-54335000D01*
X81307071Y-56115000D02*
X80852929Y-56115000D01*
X69710000Y-61955000D02*
X69710000Y-61195000D01*
X78767071Y-48495000D02*
X78370000Y-48495000D01*
X75710000Y-44175000D02*
X69710000Y-44175000D01*
X69710000Y-56875000D02*
X69710000Y-56115000D01*
X75710000Y-61295000D02*
X69710000Y-61295000D01*
X78767071Y-56115000D02*
X78370000Y-56115000D01*
X81307071Y-43415000D02*
X80852929Y-43415000D01*
X75710000Y-59415000D02*
X69710000Y-59415000D01*
X81307071Y-51795000D02*
X80852929Y-51795000D01*
X78370000Y-42465000D02*
X75710000Y-42465000D01*
X69710000Y-53575000D02*
X75710000Y-53575000D01*
X75710000Y-61895000D02*
X69710000Y-61895000D01*
X78767071Y-53575000D02*
X78370000Y-53575000D01*
X78767071Y-44175000D02*
X78370000Y-44175000D01*
X78370000Y-57765000D02*
X75710000Y-57765000D01*
X78767071Y-49255000D02*
X78370000Y-49255000D01*
X69710000Y-51795000D02*
X69710000Y-51035000D01*
X75710000Y-51795000D02*
X69710000Y-51795000D01*
X75710000Y-42465000D02*
X75710000Y-62905000D01*
X75710000Y-56875000D02*
X69710000Y-56875000D01*
X78767071Y-51795000D02*
X78370000Y-51795000D01*
X78370000Y-45065000D02*
X75710000Y-45065000D01*
X81307071Y-56875000D02*
X80852929Y-56875000D01*
X78767071Y-43415000D02*
X78370000Y-43415000D01*
X81307071Y-46715000D02*
X80852929Y-46715000D01*
X75710000Y-46715000D02*
X69710000Y-46715000D01*
X69710000Y-43415000D02*
X75710000Y-43415000D01*
X81307071Y-53575000D02*
X80852929Y-53575000D01*
X78767071Y-56875000D02*
X78370000Y-56875000D01*
X75710000Y-61775000D02*
X69710000Y-61775000D01*
X81307071Y-45955000D02*
X80852929Y-45955000D01*
X81307071Y-59415000D02*
X80852929Y-59415000D01*
X78767071Y-51035000D02*
X78370000Y-51035000D01*
X78370000Y-52685000D02*
X75710000Y-52685000D01*
X75710000Y-61415000D02*
X69710000Y-61415000D01*
X75710000Y-62905000D02*
X78370000Y-62905000D01*
X75710000Y-61955000D02*
X69710000Y-61955000D01*
X69710000Y-44175000D02*
X69710000Y-43415000D01*
X78370000Y-47605000D02*
X75710000Y-47605000D01*
X75710000Y-61655000D02*
X69710000Y-61655000D01*
X81240000Y-61955000D02*
X80852929Y-61955000D01*
X81307071Y-54335000D02*
X80852929Y-54335000D01*
X78370000Y-50145000D02*
X75710000Y-50145000D01*
X69710000Y-59415000D02*
X69710000Y-58655000D01*
X81307071Y-58655000D02*
X80852929Y-58655000D01*
X78370000Y-62905000D02*
X78370000Y-42465000D01*
X75710000Y-61535000D02*
X69710000Y-61535000D01*
X78767071Y-46715000D02*
X78370000Y-46715000D01*
X81307071Y-44175000D02*
X80852929Y-44175000D01*
X81307071Y-48495000D02*
X80852929Y-48495000D01*
X75710000Y-49255000D02*
X69710000Y-49255000D01*
X69710000Y-46715000D02*
X69710000Y-45955000D01*
X69710000Y-54335000D02*
X69710000Y-53575000D01*
X78767071Y-59415000D02*
X78370000Y-59415000D01*
X81240000Y-61195000D02*
X80852929Y-61195000D01*
X110059800Y-46585136D02*
X110059800Y-47039264D01*
X111529800Y-46585136D02*
X111529800Y-47039264D01*
X99650000Y-65610000D02*
X103510000Y-65610000D01*
X99650000Y-65610000D02*
X95790000Y-65610000D01*
X99650000Y-55090000D02*
X95790000Y-55090000D01*
X95790000Y-55090000D02*
X95790000Y-55345000D01*
X95790000Y-65610000D02*
X95790000Y-65355000D01*
X99650000Y-55090000D02*
X103510000Y-55090000D01*
X103510000Y-65610000D02*
X103510000Y-65355000D01*
X103510000Y-55090000D02*
X103510000Y-55345000D01*
X103510000Y-65355000D02*
X105325000Y-65355000D01*
X94261252Y-70235000D02*
X93738748Y-70235000D01*
X94261252Y-68765000D02*
X93738748Y-68765000D01*
X104901248Y-68765000D02*
X105423752Y-68765000D01*
X104901248Y-70235000D02*
X105423752Y-70235000D01*
X109345400Y-55014864D02*
X109345400Y-54560736D01*
X107875400Y-55014864D02*
X107875400Y-54560736D01*
X91285000Y-58927064D02*
X91285000Y-58472936D01*
X89815000Y-58927064D02*
X89815000Y-58472936D01*
X87385000Y-43572936D02*
X87385000Y-44027064D01*
X85915000Y-43572936D02*
X85915000Y-44027064D01*
X109701000Y-63069736D02*
X109701000Y-63523864D01*
X108231000Y-63069736D02*
X108231000Y-63523864D01*
X104888748Y-47065000D02*
X105411252Y-47065000D01*
X104888748Y-48535000D02*
X105411252Y-48535000D01*
X90215000Y-43572936D02*
X90215000Y-44027064D01*
X91685000Y-43572936D02*
X91685000Y-44027064D01*
X88985000Y-38017064D02*
X88985000Y-37562936D01*
X90455000Y-38017064D02*
X90455000Y-37562936D01*
X94261252Y-67885000D02*
X93738748Y-67885000D01*
X94261252Y-66415000D02*
X93738748Y-66415000D01*
X106186464Y-32945400D02*
X105732336Y-32945400D01*
X106186464Y-34415400D02*
X105732336Y-34415400D01*
X111837800Y-57888136D02*
X111837800Y-58342264D01*
X113307800Y-57888136D02*
X113307800Y-58342264D01*
X105713264Y-54227400D02*
X105259136Y-54227400D01*
X105713264Y-52757400D02*
X105259136Y-52757400D01*
X90930400Y-52855864D02*
X90930400Y-52401736D01*
X89460400Y-52855864D02*
X89460400Y-52401736D01*
X94308664Y-53011400D02*
X93854536Y-53011400D01*
X94308664Y-54481400D02*
X93854536Y-54481400D01*
X90602936Y-35085000D02*
X91057064Y-35085000D01*
X90602936Y-33615000D02*
X91057064Y-33615000D01*
X111555200Y-43153064D02*
X111555200Y-42698936D01*
X110085200Y-43153064D02*
X110085200Y-42698936D01*
%LPC*%
D12*
X119760000Y-70700000D03*
D13*
X104337500Y-45495000D03*
X104337500Y-44225000D03*
X104337500Y-42955000D03*
X104337500Y-41685000D03*
X104337500Y-40415000D03*
X104337500Y-39145000D03*
X104337500Y-37875000D03*
X104337500Y-36605000D03*
X95037500Y-36605000D03*
X95037500Y-37875000D03*
X95037500Y-39145000D03*
X95037500Y-40415000D03*
X95037500Y-41685000D03*
X95037500Y-42955000D03*
X95037500Y-44225000D03*
X95037500Y-45495000D03*
D14*
X95175000Y-50200000D03*
X93100000Y-50200000D03*
D15*
X108194600Y-38023800D03*
X110194600Y-38023800D03*
D16*
X86300000Y-59700000D03*
X86300000Y-57700000D03*
D17*
X104100000Y-50150000D03*
X106175000Y-50150000D03*
D18*
X116200000Y-43825000D03*
D19*
X118740000Y-43825000D03*
X116200000Y-46365000D03*
X118740000Y-46365000D03*
X116200000Y-48905000D03*
X118740000Y-48905000D03*
X116200000Y-51445000D03*
X118740000Y-51445000D03*
X116200000Y-53985000D03*
X118740000Y-53985000D03*
X116200000Y-56525000D03*
X118740000Y-56525000D03*
X116200000Y-59065000D03*
X118740000Y-59065000D03*
X116200000Y-61605000D03*
X118740000Y-61605000D03*
D20*
X88750000Y-42800000D03*
X88750000Y-44800000D03*
D16*
X112852200Y-52162200D03*
X112852200Y-54162200D03*
D14*
X95175000Y-47850000D03*
X93100000Y-47850000D03*
D16*
X88450000Y-59700000D03*
X88450000Y-57700000D03*
D17*
X104112500Y-67150000D03*
X106187500Y-67150000D03*
D20*
X113157000Y-42148000D03*
X113157000Y-40148000D03*
D18*
X82350000Y-61575000D03*
D19*
X79810000Y-61575000D03*
X82350000Y-59035000D03*
X79810000Y-59035000D03*
X82350000Y-56495000D03*
X79810000Y-56495000D03*
X82350000Y-53955000D03*
X79810000Y-53955000D03*
X82350000Y-51415000D03*
X79810000Y-51415000D03*
X82350000Y-48875000D03*
X79810000Y-48875000D03*
X82350000Y-46335000D03*
X79810000Y-46335000D03*
X82350000Y-43795000D03*
X79810000Y-43795000D03*
D20*
X110794800Y-45812200D03*
X110794800Y-47812200D03*
D13*
X104300000Y-64795000D03*
X104300000Y-63525000D03*
X104300000Y-62255000D03*
X104300000Y-60985000D03*
X104300000Y-59715000D03*
X104300000Y-58445000D03*
X104300000Y-57175000D03*
X104300000Y-55905000D03*
X95000000Y-55905000D03*
X95000000Y-57175000D03*
X95000000Y-58445000D03*
X95000000Y-59715000D03*
X95000000Y-60985000D03*
X95000000Y-62255000D03*
X95000000Y-63525000D03*
X95000000Y-64795000D03*
D14*
X95037500Y-69500000D03*
X92962500Y-69500000D03*
D17*
X104125000Y-69500000D03*
X106200000Y-69500000D03*
D16*
X108610400Y-55787800D03*
X108610400Y-53787800D03*
X90550000Y-59700000D03*
X90550000Y-57700000D03*
D20*
X86650000Y-42800000D03*
X86650000Y-44800000D03*
X108966000Y-62296800D03*
X108966000Y-64296800D03*
D17*
X104112500Y-47800000D03*
X106187500Y-47800000D03*
D20*
X90950000Y-42800000D03*
X90950000Y-44800000D03*
D12*
X119760000Y-34700000D03*
D16*
X89720000Y-38790000D03*
X89720000Y-36790000D03*
D14*
X95037500Y-67150000D03*
X92962500Y-67150000D03*
D21*
X106959400Y-33680400D03*
X104959400Y-33680400D03*
D20*
X112572800Y-57115200D03*
X112572800Y-59115200D03*
D21*
X106486200Y-53492400D03*
X104486200Y-53492400D03*
D16*
X90195400Y-53628800D03*
X90195400Y-51628800D03*
D21*
X95081600Y-53746400D03*
X93081600Y-53746400D03*
D15*
X89830000Y-34350000D03*
X91830000Y-34350000D03*
D16*
X110820200Y-43926000D03*
X110820200Y-41926000D03*
M02*
