G04 #@! TF.GenerationSoftware,KiCad,Pcbnew,(6.0.6)*
G04 #@! TF.CreationDate,2023-08-29T14:40:31+02:00*
G04 #@! TF.ProjectId,digital-isolator-6t2r,64696769-7461-46c2-9d69-736f6c61746f,rev?*
G04 #@! TF.SameCoordinates,Original*
G04 #@! TF.FileFunction,Legend,Top*
G04 #@! TF.FilePolarity,Positive*
%FSLAX46Y46*%
G04 Gerber Fmt 4.6, Leading zero omitted, Abs format (unit mm)*
G04 Created by KiCad (PCBNEW (6.0.6)) date 2023-08-29 14:40:31*
%MOMM*%
%LPD*%
G01*
G04 APERTURE LIST*
%ADD10C,0.150000*%
%ADD11C,0.120000*%
%ADD12C,3.200000*%
%ADD13R,1.700000X1.700000*%
%ADD14O,1.700000X1.700000*%
G04 APERTURE END LIST*
D10*
X114950833Y-64514285D02*
X114884166Y-64480951D01*
X114784166Y-64480951D01*
X114684166Y-64514285D01*
X114617500Y-64580951D01*
X114584166Y-64647618D01*
X114550833Y-64780951D01*
X114550833Y-64880951D01*
X114584166Y-65014285D01*
X114617500Y-65080951D01*
X114684166Y-65147618D01*
X114784166Y-65180951D01*
X114850833Y-65180951D01*
X114950833Y-65147618D01*
X114984166Y-65114285D01*
X114984166Y-64880951D01*
X114850833Y-64880951D01*
X115284166Y-65180951D02*
X115284166Y-64480951D01*
X115684166Y-65180951D01*
X115684166Y-64480951D01*
X116017500Y-65180951D02*
X116017500Y-64480951D01*
X116184166Y-64480951D01*
X116284166Y-64514285D01*
X116350833Y-64580951D01*
X116384166Y-64647618D01*
X116417500Y-64780951D01*
X116417500Y-64880951D01*
X116384166Y-65014285D01*
X116350833Y-65080951D01*
X116284166Y-65147618D01*
X116184166Y-65180951D01*
X116017500Y-65180951D01*
X116550833Y-65247618D02*
X117084166Y-65247618D01*
X117217500Y-64980951D02*
X117550833Y-64980951D01*
X117150833Y-65180951D02*
X117384166Y-64480951D01*
X117617500Y-65180951D01*
X114950833Y-68247140D02*
X114884166Y-68213806D01*
X114784166Y-68213806D01*
X114684166Y-68247140D01*
X114617500Y-68313806D01*
X114584166Y-68380473D01*
X114550833Y-68513806D01*
X114550833Y-68613806D01*
X114584166Y-68747140D01*
X114617500Y-68813806D01*
X114684166Y-68880473D01*
X114784166Y-68913806D01*
X114850833Y-68913806D01*
X114950833Y-68880473D01*
X114984166Y-68847140D01*
X114984166Y-68613806D01*
X114850833Y-68613806D01*
X115284166Y-68913806D02*
X115284166Y-68213806D01*
X115684166Y-68913806D01*
X115684166Y-68213806D01*
X116017500Y-68913806D02*
X116017500Y-68213806D01*
X116184166Y-68213806D01*
X116284166Y-68247140D01*
X116350833Y-68313806D01*
X116384166Y-68380473D01*
X116417500Y-68513806D01*
X116417500Y-68613806D01*
X116384166Y-68747140D01*
X116350833Y-68813806D01*
X116284166Y-68880473D01*
X116184166Y-68913806D01*
X116017500Y-68913806D01*
X116550833Y-68980473D02*
X117084166Y-68980473D01*
X117217500Y-68713806D02*
X117550833Y-68713806D01*
X117150833Y-68913806D02*
X117384166Y-68213806D01*
X117617500Y-68913806D01*
X79030833Y-63661430D02*
X78964166Y-63628096D01*
X78864166Y-63628096D01*
X78764166Y-63661430D01*
X78697500Y-63728096D01*
X78664166Y-63794763D01*
X78630833Y-63928096D01*
X78630833Y-64028096D01*
X78664166Y-64161430D01*
X78697500Y-64228096D01*
X78764166Y-64294763D01*
X78864166Y-64328096D01*
X78930833Y-64328096D01*
X79030833Y-64294763D01*
X79064166Y-64261430D01*
X79064166Y-64028096D01*
X78930833Y-64028096D01*
X79364166Y-64328096D02*
X79364166Y-63628096D01*
X79764166Y-64328096D01*
X79764166Y-63628096D01*
X80097500Y-64328096D02*
X80097500Y-63628096D01*
X80264166Y-63628096D01*
X80364166Y-63661430D01*
X80430833Y-63728096D01*
X80464166Y-63794763D01*
X80497500Y-63928096D01*
X80497500Y-64028096D01*
X80464166Y-64161430D01*
X80430833Y-64228096D01*
X80364166Y-64294763D01*
X80264166Y-64328096D01*
X80097500Y-64328096D01*
X80630833Y-64394763D02*
X81164166Y-64394763D01*
X81564166Y-63961430D02*
X81664166Y-63994763D01*
X81697500Y-64028096D01*
X81730833Y-64094763D01*
X81730833Y-64194763D01*
X81697500Y-64261430D01*
X81664166Y-64294763D01*
X81597500Y-64328096D01*
X81330833Y-64328096D01*
X81330833Y-63628096D01*
X81564166Y-63628096D01*
X81630833Y-63661430D01*
X81664166Y-63694763D01*
X81697500Y-63761430D01*
X81697500Y-63828096D01*
X81664166Y-63894763D01*
X81630833Y-63928096D01*
X81564166Y-63961430D01*
X81330833Y-63961430D01*
X110890832Y-66425236D02*
X110657499Y-66091903D01*
X110490832Y-66425236D02*
X110490832Y-65725236D01*
X110757499Y-65725236D01*
X110824166Y-65758570D01*
X110857499Y-65791903D01*
X110890832Y-65858570D01*
X110890832Y-65958570D01*
X110857499Y-66025236D01*
X110824166Y-66058570D01*
X110757499Y-66091903D01*
X110490832Y-66091903D01*
X111124166Y-65725236D02*
X111590832Y-66425236D01*
X111590832Y-65725236D02*
X111124166Y-66425236D01*
X111790832Y-65725236D02*
X112224166Y-65725236D01*
X111990832Y-65991903D01*
X112090832Y-65991903D01*
X112157499Y-66025236D01*
X112190832Y-66058570D01*
X112224166Y-66125236D01*
X112224166Y-66291903D01*
X112190832Y-66358570D01*
X112157499Y-66391903D01*
X112090832Y-66425236D01*
X111890832Y-66425236D01*
X111824166Y-66391903D01*
X111790832Y-66358570D01*
X112357499Y-66491903D02*
X112890832Y-66491903D01*
X113024166Y-66225236D02*
X113357499Y-66225236D01*
X112957499Y-66425236D02*
X113190832Y-65725236D01*
X113424166Y-66425236D01*
X114950833Y-71979995D02*
X114884166Y-71946661D01*
X114784166Y-71946661D01*
X114684166Y-71979995D01*
X114617500Y-72046661D01*
X114584166Y-72113328D01*
X114550833Y-72246661D01*
X114550833Y-72346661D01*
X114584166Y-72479995D01*
X114617500Y-72546661D01*
X114684166Y-72613328D01*
X114784166Y-72646661D01*
X114850833Y-72646661D01*
X114950833Y-72613328D01*
X114984166Y-72579995D01*
X114984166Y-72346661D01*
X114850833Y-72346661D01*
X115284166Y-72646661D02*
X115284166Y-71946661D01*
X115684166Y-72646661D01*
X115684166Y-71946661D01*
X116017500Y-72646661D02*
X116017500Y-71946661D01*
X116184166Y-71946661D01*
X116284166Y-71979995D01*
X116350833Y-72046661D01*
X116384166Y-72113328D01*
X116417500Y-72246661D01*
X116417500Y-72346661D01*
X116384166Y-72479995D01*
X116350833Y-72546661D01*
X116284166Y-72613328D01*
X116184166Y-72646661D01*
X116017500Y-72646661D01*
X116550833Y-72713328D02*
X117084166Y-72713328D01*
X117217500Y-72446661D02*
X117550833Y-72446661D01*
X117150833Y-72646661D02*
X117384166Y-71946661D01*
X117617500Y-72646661D01*
X82724166Y-63628096D02*
X83124166Y-63628096D01*
X82924166Y-64328096D02*
X82924166Y-63628096D01*
X83290833Y-63628096D02*
X83757500Y-64328096D01*
X83757500Y-63628096D02*
X83290833Y-64328096D01*
X84390833Y-64328096D02*
X83990833Y-64328096D01*
X84190833Y-64328096D02*
X84190833Y-63628096D01*
X84124166Y-63728096D01*
X84057500Y-63794763D01*
X83990833Y-63828096D01*
X84524166Y-64394763D02*
X85057500Y-64394763D01*
X85457500Y-63961430D02*
X85557500Y-63994763D01*
X85590833Y-64028096D01*
X85624166Y-64094763D01*
X85624166Y-64194763D01*
X85590833Y-64261430D01*
X85557500Y-64294763D01*
X85490833Y-64328096D01*
X85224166Y-64328096D01*
X85224166Y-63628096D01*
X85457500Y-63628096D01*
X85524166Y-63661430D01*
X85557500Y-63694763D01*
X85590833Y-63761430D01*
X85590833Y-63828096D01*
X85557500Y-63894763D01*
X85524166Y-63928096D01*
X85457500Y-63961430D01*
X85224166Y-63961430D01*
X114484166Y-66969521D02*
X114884166Y-66969521D01*
X114684166Y-67669521D02*
X114684166Y-66969521D01*
X115050833Y-66969521D02*
X115517500Y-67669521D01*
X115517500Y-66969521D02*
X115050833Y-67669521D01*
X115750833Y-67036188D02*
X115784166Y-67002855D01*
X115850833Y-66969521D01*
X116017500Y-66969521D01*
X116084166Y-67002855D01*
X116117500Y-67036188D01*
X116150833Y-67102855D01*
X116150833Y-67169521D01*
X116117500Y-67269521D01*
X115717500Y-67669521D01*
X116150833Y-67669521D01*
X116284166Y-67736188D02*
X116817500Y-67736188D01*
X116950833Y-67469521D02*
X117284166Y-67469521D01*
X116884166Y-67669521D02*
X117117500Y-66969521D01*
X117350833Y-67669521D01*
X114950833Y-63270000D02*
X114884166Y-63236666D01*
X114784166Y-63236666D01*
X114684166Y-63270000D01*
X114617500Y-63336666D01*
X114584166Y-63403333D01*
X114550833Y-63536666D01*
X114550833Y-63636666D01*
X114584166Y-63770000D01*
X114617500Y-63836666D01*
X114684166Y-63903333D01*
X114784166Y-63936666D01*
X114850833Y-63936666D01*
X114950833Y-63903333D01*
X114984166Y-63870000D01*
X114984166Y-63636666D01*
X114850833Y-63636666D01*
X115284166Y-63936666D02*
X115284166Y-63236666D01*
X115684166Y-63936666D01*
X115684166Y-63236666D01*
X116017500Y-63936666D02*
X116017500Y-63236666D01*
X116184166Y-63236666D01*
X116284166Y-63270000D01*
X116350833Y-63336666D01*
X116384166Y-63403333D01*
X116417500Y-63536666D01*
X116417500Y-63636666D01*
X116384166Y-63770000D01*
X116350833Y-63836666D01*
X116284166Y-63903333D01*
X116184166Y-63936666D01*
X116017500Y-63936666D01*
X116550833Y-64003333D02*
X117084166Y-64003333D01*
X117217500Y-63736666D02*
X117550833Y-63736666D01*
X117150833Y-63936666D02*
X117384166Y-63236666D01*
X117617500Y-63936666D01*
X79164166Y-66816666D02*
X78930833Y-66483333D01*
X78764166Y-66816666D02*
X78764166Y-66116666D01*
X79030833Y-66116666D01*
X79097500Y-66150000D01*
X79130833Y-66183333D01*
X79164166Y-66250000D01*
X79164166Y-66350000D01*
X79130833Y-66416666D01*
X79097500Y-66450000D01*
X79030833Y-66483333D01*
X78764166Y-66483333D01*
X79397500Y-66116666D02*
X79864166Y-66816666D01*
X79864166Y-66116666D02*
X79397500Y-66816666D01*
X80497500Y-66816666D02*
X80097500Y-66816666D01*
X80297500Y-66816666D02*
X80297500Y-66116666D01*
X80230833Y-66216666D01*
X80164166Y-66283333D01*
X80097500Y-66316666D01*
X80630833Y-66883333D02*
X81164166Y-66883333D01*
X81564166Y-66450000D02*
X81664166Y-66483333D01*
X81697500Y-66516666D01*
X81730833Y-66583333D01*
X81730833Y-66683333D01*
X81697500Y-66750000D01*
X81664166Y-66783333D01*
X81597500Y-66816666D01*
X81330833Y-66816666D01*
X81330833Y-66116666D01*
X81564166Y-66116666D01*
X81630833Y-66150000D01*
X81664166Y-66183333D01*
X81697500Y-66250000D01*
X81697500Y-66316666D01*
X81664166Y-66383333D01*
X81630833Y-66416666D01*
X81564166Y-66450000D01*
X81330833Y-66450000D01*
X79030833Y-69882855D02*
X78964166Y-69849521D01*
X78864166Y-69849521D01*
X78764166Y-69882855D01*
X78697500Y-69949521D01*
X78664166Y-70016188D01*
X78630833Y-70149521D01*
X78630833Y-70249521D01*
X78664166Y-70382855D01*
X78697500Y-70449521D01*
X78764166Y-70516188D01*
X78864166Y-70549521D01*
X78930833Y-70549521D01*
X79030833Y-70516188D01*
X79064166Y-70482855D01*
X79064166Y-70249521D01*
X78930833Y-70249521D01*
X79364166Y-70549521D02*
X79364166Y-69849521D01*
X79764166Y-70549521D01*
X79764166Y-69849521D01*
X80097500Y-70549521D02*
X80097500Y-69849521D01*
X80264166Y-69849521D01*
X80364166Y-69882855D01*
X80430833Y-69949521D01*
X80464166Y-70016188D01*
X80497500Y-70149521D01*
X80497500Y-70249521D01*
X80464166Y-70382855D01*
X80430833Y-70449521D01*
X80364166Y-70516188D01*
X80264166Y-70549521D01*
X80097500Y-70549521D01*
X80630833Y-70616188D02*
X81164166Y-70616188D01*
X81564166Y-70182855D02*
X81664166Y-70216188D01*
X81697500Y-70249521D01*
X81730833Y-70316188D01*
X81730833Y-70416188D01*
X81697500Y-70482855D01*
X81664166Y-70516188D01*
X81597500Y-70549521D01*
X81330833Y-70549521D01*
X81330833Y-69849521D01*
X81564166Y-69849521D01*
X81630833Y-69882855D01*
X81664166Y-69916188D01*
X81697500Y-69982855D01*
X81697500Y-70049521D01*
X81664166Y-70116188D01*
X81630833Y-70149521D01*
X81564166Y-70182855D01*
X81330833Y-70182855D01*
X79030833Y-71127140D02*
X78964166Y-71093806D01*
X78864166Y-71093806D01*
X78764166Y-71127140D01*
X78697500Y-71193806D01*
X78664166Y-71260473D01*
X78630833Y-71393806D01*
X78630833Y-71493806D01*
X78664166Y-71627140D01*
X78697500Y-71693806D01*
X78764166Y-71760473D01*
X78864166Y-71793806D01*
X78930833Y-71793806D01*
X79030833Y-71760473D01*
X79064166Y-71727140D01*
X79064166Y-71493806D01*
X78930833Y-71493806D01*
X79364166Y-71793806D02*
X79364166Y-71093806D01*
X79764166Y-71793806D01*
X79764166Y-71093806D01*
X80097500Y-71793806D02*
X80097500Y-71093806D01*
X80264166Y-71093806D01*
X80364166Y-71127140D01*
X80430833Y-71193806D01*
X80464166Y-71260473D01*
X80497500Y-71393806D01*
X80497500Y-71493806D01*
X80464166Y-71627140D01*
X80430833Y-71693806D01*
X80364166Y-71760473D01*
X80264166Y-71793806D01*
X80097500Y-71793806D01*
X80630833Y-71860473D02*
X81164166Y-71860473D01*
X81564166Y-71427140D02*
X81664166Y-71460473D01*
X81697500Y-71493806D01*
X81730833Y-71560473D01*
X81730833Y-71660473D01*
X81697500Y-71727140D01*
X81664166Y-71760473D01*
X81597500Y-71793806D01*
X81330833Y-71793806D01*
X81330833Y-71093806D01*
X81564166Y-71093806D01*
X81630833Y-71127140D01*
X81664166Y-71160473D01*
X81697500Y-71227140D01*
X81697500Y-71293806D01*
X81664166Y-71360473D01*
X81630833Y-71393806D01*
X81564166Y-71427140D01*
X81330833Y-71427140D01*
X79164166Y-68060951D02*
X78930833Y-67727618D01*
X78764166Y-68060951D02*
X78764166Y-67360951D01*
X79030833Y-67360951D01*
X79097500Y-67394285D01*
X79130833Y-67427618D01*
X79164166Y-67494285D01*
X79164166Y-67594285D01*
X79130833Y-67660951D01*
X79097500Y-67694285D01*
X79030833Y-67727618D01*
X78764166Y-67727618D01*
X79397500Y-67360951D02*
X79864166Y-68060951D01*
X79864166Y-67360951D02*
X79397500Y-68060951D01*
X80097500Y-67427618D02*
X80130833Y-67394285D01*
X80197500Y-67360951D01*
X80364166Y-67360951D01*
X80430833Y-67394285D01*
X80464166Y-67427618D01*
X80497500Y-67494285D01*
X80497500Y-67560951D01*
X80464166Y-67660951D01*
X80064166Y-68060951D01*
X80497500Y-68060951D01*
X80630833Y-68127618D02*
X81164166Y-68127618D01*
X81564166Y-67694285D02*
X81664166Y-67727618D01*
X81697500Y-67760951D01*
X81730833Y-67827618D01*
X81730833Y-67927618D01*
X81697500Y-67994285D01*
X81664166Y-68027618D01*
X81597500Y-68060951D01*
X81330833Y-68060951D01*
X81330833Y-67360951D01*
X81564166Y-67360951D01*
X81630833Y-67394285D01*
X81664166Y-67427618D01*
X81697500Y-67494285D01*
X81697500Y-67560951D01*
X81664166Y-67627618D01*
X81630833Y-67660951D01*
X81564166Y-67694285D01*
X81330833Y-67694285D01*
X112224166Y-72646661D02*
X112224166Y-71946661D01*
X112624166Y-72646661D01*
X112624166Y-71946661D01*
X113357500Y-72579995D02*
X113324166Y-72613328D01*
X113224166Y-72646661D01*
X113157500Y-72646661D01*
X113057500Y-72613328D01*
X112990833Y-72546661D01*
X112957500Y-72479995D01*
X112924166Y-72346661D01*
X112924166Y-72246661D01*
X112957500Y-72113328D01*
X112990833Y-72046661D01*
X113057500Y-71979995D01*
X113157500Y-71946661D01*
X113224166Y-71946661D01*
X113324166Y-71979995D01*
X113357500Y-72013328D01*
X82724166Y-66116666D02*
X83124166Y-66116666D01*
X82924166Y-66816666D02*
X82924166Y-66116666D01*
X83290833Y-66116666D02*
X83757500Y-66816666D01*
X83757500Y-66116666D02*
X83290833Y-66816666D01*
X83957500Y-66116666D02*
X84390833Y-66116666D01*
X84157500Y-66383333D01*
X84257500Y-66383333D01*
X84324166Y-66416666D01*
X84357500Y-66450000D01*
X84390833Y-66516666D01*
X84390833Y-66683333D01*
X84357500Y-66750000D01*
X84324166Y-66783333D01*
X84257500Y-66816666D01*
X84057500Y-66816666D01*
X83990833Y-66783333D01*
X83957500Y-66750000D01*
X84524166Y-66883333D02*
X85057500Y-66883333D01*
X85457500Y-66450000D02*
X85557500Y-66483333D01*
X85590833Y-66516666D01*
X85624166Y-66583333D01*
X85624166Y-66683333D01*
X85590833Y-66750000D01*
X85557500Y-66783333D01*
X85490833Y-66816666D01*
X85224166Y-66816666D01*
X85224166Y-66116666D01*
X85457500Y-66116666D01*
X85524166Y-66150000D01*
X85557500Y-66183333D01*
X85590833Y-66250000D01*
X85590833Y-66316666D01*
X85557500Y-66383333D01*
X85524166Y-66416666D01*
X85457500Y-66450000D01*
X85224166Y-66450000D01*
X82724166Y-64872381D02*
X83124166Y-64872381D01*
X82924166Y-65572381D02*
X82924166Y-64872381D01*
X83290833Y-64872381D02*
X83757500Y-65572381D01*
X83757500Y-64872381D02*
X83290833Y-65572381D01*
X83990833Y-64939048D02*
X84024166Y-64905715D01*
X84090833Y-64872381D01*
X84257500Y-64872381D01*
X84324166Y-64905715D01*
X84357500Y-64939048D01*
X84390833Y-65005715D01*
X84390833Y-65072381D01*
X84357500Y-65172381D01*
X83957500Y-65572381D01*
X84390833Y-65572381D01*
X84524166Y-65639048D02*
X85057500Y-65639048D01*
X85457500Y-65205715D02*
X85557500Y-65239048D01*
X85590833Y-65272381D01*
X85624166Y-65339048D01*
X85624166Y-65439048D01*
X85590833Y-65505715D01*
X85557500Y-65539048D01*
X85490833Y-65572381D01*
X85224166Y-65572381D01*
X85224166Y-64872381D01*
X85457500Y-64872381D01*
X85524166Y-64905715D01*
X85557500Y-64939048D01*
X85590833Y-65005715D01*
X85590833Y-65072381D01*
X85557500Y-65139048D01*
X85524166Y-65172381D01*
X85457500Y-65205715D01*
X85224166Y-65205715D01*
X110890832Y-67669521D02*
X110657499Y-67336188D01*
X110490832Y-67669521D02*
X110490832Y-66969521D01*
X110757499Y-66969521D01*
X110824166Y-67002855D01*
X110857499Y-67036188D01*
X110890832Y-67102855D01*
X110890832Y-67202855D01*
X110857499Y-67269521D01*
X110824166Y-67302855D01*
X110757499Y-67336188D01*
X110490832Y-67336188D01*
X111124166Y-66969521D02*
X111590832Y-67669521D01*
X111590832Y-66969521D02*
X111124166Y-67669521D01*
X112157499Y-67202855D02*
X112157499Y-67669521D01*
X111990832Y-66936188D02*
X111824166Y-67436188D01*
X112257499Y-67436188D01*
X112357499Y-67736188D02*
X112890832Y-67736188D01*
X113024166Y-67469521D02*
X113357499Y-67469521D01*
X112957499Y-67669521D02*
X113190832Y-66969521D01*
X113424166Y-67669521D01*
X114484166Y-65725236D02*
X114884166Y-65725236D01*
X114684166Y-66425236D02*
X114684166Y-65725236D01*
X115050833Y-65725236D02*
X115517500Y-66425236D01*
X115517500Y-65725236D02*
X115050833Y-66425236D01*
X116150833Y-66425236D02*
X115750833Y-66425236D01*
X115950833Y-66425236D02*
X115950833Y-65725236D01*
X115884166Y-65825236D01*
X115817500Y-65891903D01*
X115750833Y-65925236D01*
X116284166Y-66491903D02*
X116817500Y-66491903D01*
X116950833Y-66225236D02*
X117284166Y-66225236D01*
X116884166Y-66425236D02*
X117117500Y-65725236D01*
X117350833Y-66425236D01*
X82724166Y-69849521D02*
X83124166Y-69849521D01*
X82924166Y-70549521D02*
X82924166Y-69849521D01*
X83290833Y-69849521D02*
X83757500Y-70549521D01*
X83757500Y-69849521D02*
X83290833Y-70549521D01*
X84324166Y-69849521D02*
X84190833Y-69849521D01*
X84124166Y-69882855D01*
X84090833Y-69916188D01*
X84024166Y-70016188D01*
X83990833Y-70149521D01*
X83990833Y-70416188D01*
X84024166Y-70482855D01*
X84057500Y-70516188D01*
X84124166Y-70549521D01*
X84257500Y-70549521D01*
X84324166Y-70516188D01*
X84357500Y-70482855D01*
X84390833Y-70416188D01*
X84390833Y-70249521D01*
X84357500Y-70182855D01*
X84324166Y-70149521D01*
X84257500Y-70116188D01*
X84124166Y-70116188D01*
X84057500Y-70149521D01*
X84024166Y-70182855D01*
X83990833Y-70249521D01*
X84524166Y-70616188D02*
X85057500Y-70616188D01*
X85457500Y-70182855D02*
X85557500Y-70216188D01*
X85590833Y-70249521D01*
X85624166Y-70316188D01*
X85624166Y-70416188D01*
X85590833Y-70482855D01*
X85557500Y-70516188D01*
X85490833Y-70549521D01*
X85224166Y-70549521D01*
X85224166Y-69849521D01*
X85457500Y-69849521D01*
X85524166Y-69882855D01*
X85557500Y-69916188D01*
X85590833Y-69982855D01*
X85590833Y-70049521D01*
X85557500Y-70116188D01*
X85524166Y-70149521D01*
X85457500Y-70182855D01*
X85224166Y-70182855D01*
X77204166Y-33299666D02*
X77204166Y-32599666D01*
X77370833Y-32599666D01*
X77470833Y-32633000D01*
X77537500Y-32699666D01*
X77570833Y-32766333D01*
X77604166Y-32899666D01*
X77604166Y-32999666D01*
X77570833Y-33133000D01*
X77537500Y-33199666D01*
X77470833Y-33266333D01*
X77370833Y-33299666D01*
X77204166Y-33299666D01*
X77904166Y-33299666D02*
X77904166Y-32833000D01*
X77904166Y-32599666D02*
X77870833Y-32633000D01*
X77904166Y-32666333D01*
X77937500Y-32633000D01*
X77904166Y-32599666D01*
X77904166Y-32666333D01*
X78537500Y-32833000D02*
X78537500Y-33399666D01*
X78504166Y-33466333D01*
X78470833Y-33499666D01*
X78404166Y-33533000D01*
X78304166Y-33533000D01*
X78237500Y-33499666D01*
X78537500Y-33266333D02*
X78470833Y-33299666D01*
X78337500Y-33299666D01*
X78270833Y-33266333D01*
X78237500Y-33233000D01*
X78204166Y-33166333D01*
X78204166Y-32966333D01*
X78237500Y-32899666D01*
X78270833Y-32866333D01*
X78337500Y-32833000D01*
X78470833Y-32833000D01*
X78537500Y-32866333D01*
X78870833Y-33299666D02*
X78870833Y-32833000D01*
X78870833Y-32599666D02*
X78837500Y-32633000D01*
X78870833Y-32666333D01*
X78904166Y-32633000D01*
X78870833Y-32599666D01*
X78870833Y-32666333D01*
X79104166Y-32833000D02*
X79370833Y-32833000D01*
X79204166Y-32599666D02*
X79204166Y-33199666D01*
X79237500Y-33266333D01*
X79304166Y-33299666D01*
X79370833Y-33299666D01*
X79904166Y-33299666D02*
X79904166Y-32933000D01*
X79870833Y-32866333D01*
X79804166Y-32833000D01*
X79670833Y-32833000D01*
X79604166Y-32866333D01*
X79904166Y-33266333D02*
X79837500Y-33299666D01*
X79670833Y-33299666D01*
X79604166Y-33266333D01*
X79570833Y-33199666D01*
X79570833Y-33133000D01*
X79604166Y-33066333D01*
X79670833Y-33033000D01*
X79837500Y-33033000D01*
X79904166Y-32999666D01*
X80337500Y-33299666D02*
X80270833Y-33266333D01*
X80237500Y-33199666D01*
X80237500Y-32599666D01*
X81137500Y-33299666D02*
X81137500Y-32833000D01*
X81137500Y-32599666D02*
X81104166Y-32633000D01*
X81137500Y-32666333D01*
X81170833Y-32633000D01*
X81137500Y-32599666D01*
X81137500Y-32666333D01*
X81437500Y-33266333D02*
X81504166Y-33299666D01*
X81637500Y-33299666D01*
X81704166Y-33266333D01*
X81737500Y-33199666D01*
X81737500Y-33166333D01*
X81704166Y-33099666D01*
X81637500Y-33066333D01*
X81537500Y-33066333D01*
X81470833Y-33033000D01*
X81437500Y-32966333D01*
X81437500Y-32933000D01*
X81470833Y-32866333D01*
X81537500Y-32833000D01*
X81637500Y-32833000D01*
X81704166Y-32866333D01*
X82137500Y-33299666D02*
X82070833Y-33266333D01*
X82037500Y-33233000D01*
X82004166Y-33166333D01*
X82004166Y-32966333D01*
X82037500Y-32899666D01*
X82070833Y-32866333D01*
X82137500Y-32833000D01*
X82237500Y-32833000D01*
X82304166Y-32866333D01*
X82337500Y-32899666D01*
X82370833Y-32966333D01*
X82370833Y-33166333D01*
X82337500Y-33233000D01*
X82304166Y-33266333D01*
X82237500Y-33299666D01*
X82137500Y-33299666D01*
X82770833Y-33299666D02*
X82704166Y-33266333D01*
X82670833Y-33199666D01*
X82670833Y-32599666D01*
X83337500Y-33299666D02*
X83337500Y-32933000D01*
X83304166Y-32866333D01*
X83237500Y-32833000D01*
X83104166Y-32833000D01*
X83037500Y-32866333D01*
X83337500Y-33266333D02*
X83270833Y-33299666D01*
X83104166Y-33299666D01*
X83037500Y-33266333D01*
X83004166Y-33199666D01*
X83004166Y-33133000D01*
X83037500Y-33066333D01*
X83104166Y-33033000D01*
X83270833Y-33033000D01*
X83337500Y-32999666D01*
X83570833Y-32833000D02*
X83837500Y-32833000D01*
X83670833Y-32599666D02*
X83670833Y-33199666D01*
X83704166Y-33266333D01*
X83770833Y-33299666D01*
X83837500Y-33299666D01*
X84170833Y-33299666D02*
X84104166Y-33266333D01*
X84070833Y-33233000D01*
X84037500Y-33166333D01*
X84037500Y-32966333D01*
X84070833Y-32899666D01*
X84104166Y-32866333D01*
X84170833Y-32833000D01*
X84270833Y-32833000D01*
X84337500Y-32866333D01*
X84370833Y-32899666D01*
X84404166Y-32966333D01*
X84404166Y-33166333D01*
X84370833Y-33233000D01*
X84337500Y-33266333D01*
X84270833Y-33299666D01*
X84170833Y-33299666D01*
X84704166Y-33299666D02*
X84704166Y-32833000D01*
X84704166Y-32966333D02*
X84737500Y-32899666D01*
X84770833Y-32866333D01*
X84837500Y-32833000D01*
X84904166Y-32833000D01*
X85670833Y-33299666D02*
X85670833Y-32599666D01*
X85670833Y-32866333D02*
X85737500Y-32833000D01*
X85870833Y-32833000D01*
X85937500Y-32866333D01*
X85970833Y-32899666D01*
X86004166Y-32966333D01*
X86004166Y-33166333D01*
X85970833Y-33233000D01*
X85937500Y-33266333D01*
X85870833Y-33299666D01*
X85737500Y-33299666D01*
X85670833Y-33266333D01*
X86404166Y-33299666D02*
X86337500Y-33266333D01*
X86304166Y-33233000D01*
X86270833Y-33166333D01*
X86270833Y-32966333D01*
X86304166Y-32899666D01*
X86337500Y-32866333D01*
X86404166Y-32833000D01*
X86504166Y-32833000D01*
X86570833Y-32866333D01*
X86604166Y-32899666D01*
X86637500Y-32966333D01*
X86637500Y-33166333D01*
X86604166Y-33233000D01*
X86570833Y-33266333D01*
X86504166Y-33299666D01*
X86404166Y-33299666D01*
X87237500Y-33299666D02*
X87237500Y-32933000D01*
X87204166Y-32866333D01*
X87137500Y-32833000D01*
X87004166Y-32833000D01*
X86937500Y-32866333D01*
X87237500Y-33266333D02*
X87170833Y-33299666D01*
X87004166Y-33299666D01*
X86937500Y-33266333D01*
X86904166Y-33199666D01*
X86904166Y-33133000D01*
X86937500Y-33066333D01*
X87004166Y-33033000D01*
X87170833Y-33033000D01*
X87237500Y-32999666D01*
X87570833Y-33299666D02*
X87570833Y-32833000D01*
X87570833Y-32966333D02*
X87604166Y-32899666D01*
X87637500Y-32866333D01*
X87704166Y-32833000D01*
X87770833Y-32833000D01*
X88304166Y-33299666D02*
X88304166Y-32599666D01*
X88304166Y-33266333D02*
X88237500Y-33299666D01*
X88104166Y-33299666D01*
X88037500Y-33266333D01*
X88004166Y-33233000D01*
X87970833Y-33166333D01*
X87970833Y-32966333D01*
X88004166Y-32899666D01*
X88037500Y-32866333D01*
X88104166Y-32833000D01*
X88237500Y-32833000D01*
X88304166Y-32866333D01*
X77504166Y-33726666D02*
X77370833Y-33726666D01*
X77304166Y-33760000D01*
X77270833Y-33793333D01*
X77204166Y-33893333D01*
X77170833Y-34026666D01*
X77170833Y-34293333D01*
X77204166Y-34360000D01*
X77237500Y-34393333D01*
X77304166Y-34426666D01*
X77437500Y-34426666D01*
X77504166Y-34393333D01*
X77537500Y-34360000D01*
X77570833Y-34293333D01*
X77570833Y-34126666D01*
X77537500Y-34060000D01*
X77504166Y-34026666D01*
X77437500Y-33993333D01*
X77304166Y-33993333D01*
X77237500Y-34026666D01*
X77204166Y-34060000D01*
X77170833Y-34126666D01*
X78304166Y-33726666D02*
X78704166Y-33726666D01*
X78504166Y-34426666D02*
X78504166Y-33726666D01*
X78870833Y-33726666D02*
X79337500Y-34426666D01*
X79337500Y-33726666D02*
X78870833Y-34426666D01*
X80637500Y-33693333D02*
X80037500Y-34593333D01*
X81370833Y-33793333D02*
X81404166Y-33760000D01*
X81470833Y-33726666D01*
X81637500Y-33726666D01*
X81704166Y-33760000D01*
X81737500Y-33793333D01*
X81770833Y-33860000D01*
X81770833Y-33926666D01*
X81737500Y-34026666D01*
X81337500Y-34426666D01*
X81770833Y-34426666D01*
X83004166Y-34426666D02*
X82770833Y-34093333D01*
X82604166Y-34426666D02*
X82604166Y-33726666D01*
X82870833Y-33726666D01*
X82937500Y-33760000D01*
X82970833Y-33793333D01*
X83004166Y-33860000D01*
X83004166Y-33960000D01*
X82970833Y-34026666D01*
X82937500Y-34060000D01*
X82870833Y-34093333D01*
X82604166Y-34093333D01*
X83237500Y-33726666D02*
X83704166Y-34426666D01*
X83704166Y-33726666D02*
X83237500Y-34426666D01*
X77137500Y-35087000D02*
X77304166Y-35553666D01*
X77470833Y-35087000D01*
X77870833Y-34853666D02*
X77937500Y-34853666D01*
X78004166Y-34887000D01*
X78037500Y-34920333D01*
X78070833Y-34987000D01*
X78104166Y-35120333D01*
X78104166Y-35287000D01*
X78070833Y-35420333D01*
X78037500Y-35487000D01*
X78004166Y-35520333D01*
X77937500Y-35553666D01*
X77870833Y-35553666D01*
X77804166Y-35520333D01*
X77770833Y-35487000D01*
X77737500Y-35420333D01*
X77704166Y-35287000D01*
X77704166Y-35120333D01*
X77737500Y-34987000D01*
X77770833Y-34920333D01*
X77804166Y-34887000D01*
X77870833Y-34853666D01*
X78404166Y-35487000D02*
X78437500Y-35520333D01*
X78404166Y-35553666D01*
X78370833Y-35520333D01*
X78404166Y-35487000D01*
X78404166Y-35553666D01*
X79104166Y-35553666D02*
X78704166Y-35553666D01*
X78904166Y-35553666D02*
X78904166Y-34853666D01*
X78837500Y-34953666D01*
X78770833Y-35020333D01*
X78704166Y-35053666D01*
X82724166Y-68605236D02*
X83124166Y-68605236D01*
X82924166Y-69305236D02*
X82924166Y-68605236D01*
X83290833Y-68605236D02*
X83757500Y-69305236D01*
X83757500Y-68605236D02*
X83290833Y-69305236D01*
X84357500Y-68605236D02*
X84024166Y-68605236D01*
X83990833Y-68938570D01*
X84024166Y-68905236D01*
X84090833Y-68871903D01*
X84257500Y-68871903D01*
X84324166Y-68905236D01*
X84357500Y-68938570D01*
X84390833Y-69005236D01*
X84390833Y-69171903D01*
X84357500Y-69238570D01*
X84324166Y-69271903D01*
X84257500Y-69305236D01*
X84090833Y-69305236D01*
X84024166Y-69271903D01*
X83990833Y-69238570D01*
X84524166Y-69371903D02*
X85057500Y-69371903D01*
X85457500Y-68938570D02*
X85557500Y-68971903D01*
X85590833Y-69005236D01*
X85624166Y-69071903D01*
X85624166Y-69171903D01*
X85590833Y-69238570D01*
X85557500Y-69271903D01*
X85490833Y-69305236D01*
X85224166Y-69305236D01*
X85224166Y-68605236D01*
X85457500Y-68605236D01*
X85524166Y-68638570D01*
X85557500Y-68671903D01*
X85590833Y-68738570D01*
X85590833Y-68805236D01*
X85557500Y-68871903D01*
X85524166Y-68905236D01*
X85457500Y-68938570D01*
X85224166Y-68938570D01*
X110424166Y-70702376D02*
X110657500Y-71402376D01*
X110890833Y-70702376D01*
X111124166Y-71402376D02*
X111124166Y-70702376D01*
X111290833Y-70702376D01*
X111390833Y-70735710D01*
X111457500Y-70802376D01*
X111490833Y-70869043D01*
X111524166Y-71002376D01*
X111524166Y-71102376D01*
X111490833Y-71235710D01*
X111457500Y-71302376D01*
X111390833Y-71369043D01*
X111290833Y-71402376D01*
X111124166Y-71402376D01*
X111824166Y-71402376D02*
X111824166Y-70702376D01*
X111990833Y-70702376D01*
X112090833Y-70735710D01*
X112157500Y-70802376D01*
X112190833Y-70869043D01*
X112224166Y-71002376D01*
X112224166Y-71102376D01*
X112190833Y-71235710D01*
X112157500Y-71302376D01*
X112090833Y-71369043D01*
X111990833Y-71402376D01*
X111824166Y-71402376D01*
X112357500Y-71469043D02*
X112890833Y-71469043D01*
X113024166Y-71202376D02*
X113357500Y-71202376D01*
X112957500Y-71402376D02*
X113190833Y-70702376D01*
X113424166Y-71402376D01*
X114950833Y-69491425D02*
X114884166Y-69458091D01*
X114784166Y-69458091D01*
X114684166Y-69491425D01*
X114617500Y-69558091D01*
X114584166Y-69624758D01*
X114550833Y-69758091D01*
X114550833Y-69858091D01*
X114584166Y-69991425D01*
X114617500Y-70058091D01*
X114684166Y-70124758D01*
X114784166Y-70158091D01*
X114850833Y-70158091D01*
X114950833Y-70124758D01*
X114984166Y-70091425D01*
X114984166Y-69858091D01*
X114850833Y-69858091D01*
X115284166Y-70158091D02*
X115284166Y-69458091D01*
X115684166Y-70158091D01*
X115684166Y-69458091D01*
X116017500Y-70158091D02*
X116017500Y-69458091D01*
X116184166Y-69458091D01*
X116284166Y-69491425D01*
X116350833Y-69558091D01*
X116384166Y-69624758D01*
X116417500Y-69758091D01*
X116417500Y-69858091D01*
X116384166Y-69991425D01*
X116350833Y-70058091D01*
X116284166Y-70124758D01*
X116184166Y-70158091D01*
X116017500Y-70158091D01*
X116550833Y-70224758D02*
X117084166Y-70224758D01*
X117217500Y-69958091D02*
X117550833Y-69958091D01*
X117150833Y-70158091D02*
X117384166Y-69458091D01*
X117617500Y-70158091D01*
X110890832Y-65180951D02*
X110657499Y-64847618D01*
X110490832Y-65180951D02*
X110490832Y-64480951D01*
X110757499Y-64480951D01*
X110824166Y-64514285D01*
X110857499Y-64547618D01*
X110890832Y-64614285D01*
X110890832Y-64714285D01*
X110857499Y-64780951D01*
X110824166Y-64814285D01*
X110757499Y-64847618D01*
X110490832Y-64847618D01*
X111124166Y-64480951D02*
X111590832Y-65180951D01*
X111590832Y-64480951D02*
X111124166Y-65180951D01*
X111824166Y-64547618D02*
X111857499Y-64514285D01*
X111924166Y-64480951D01*
X112090832Y-64480951D01*
X112157499Y-64514285D01*
X112190832Y-64547618D01*
X112224166Y-64614285D01*
X112224166Y-64680951D01*
X112190832Y-64780951D01*
X111790832Y-65180951D01*
X112224166Y-65180951D01*
X112357499Y-65247618D02*
X112890832Y-65247618D01*
X113024166Y-64980951D02*
X113357499Y-64980951D01*
X112957499Y-65180951D02*
X113190832Y-64480951D01*
X113424166Y-65180951D01*
X110890832Y-70158091D02*
X110657499Y-69824758D01*
X110490832Y-70158091D02*
X110490832Y-69458091D01*
X110757499Y-69458091D01*
X110824166Y-69491425D01*
X110857499Y-69524758D01*
X110890832Y-69591425D01*
X110890832Y-69691425D01*
X110857499Y-69758091D01*
X110824166Y-69791425D01*
X110757499Y-69824758D01*
X110490832Y-69824758D01*
X111124166Y-69458091D02*
X111590832Y-70158091D01*
X111590832Y-69458091D02*
X111124166Y-70158091D01*
X112157499Y-69458091D02*
X112024166Y-69458091D01*
X111957499Y-69491425D01*
X111924166Y-69524758D01*
X111857499Y-69624758D01*
X111824166Y-69758091D01*
X111824166Y-70024758D01*
X111857499Y-70091425D01*
X111890832Y-70124758D01*
X111957499Y-70158091D01*
X112090832Y-70158091D01*
X112157499Y-70124758D01*
X112190832Y-70091425D01*
X112224166Y-70024758D01*
X112224166Y-69858091D01*
X112190832Y-69791425D01*
X112157499Y-69758091D01*
X112090832Y-69724758D01*
X111957499Y-69724758D01*
X111890832Y-69758091D01*
X111857499Y-69791425D01*
X111824166Y-69858091D01*
X112357499Y-70224758D02*
X112890832Y-70224758D01*
X113024166Y-69958091D02*
X113357499Y-69958091D01*
X112957499Y-70158091D02*
X113190832Y-69458091D01*
X113424166Y-70158091D01*
X82824166Y-73038091D02*
X82824166Y-72338091D01*
X83224166Y-73038091D01*
X83224166Y-72338091D01*
X83957500Y-72971425D02*
X83924166Y-73004758D01*
X83824166Y-73038091D01*
X83757500Y-73038091D01*
X83657500Y-73004758D01*
X83590833Y-72938091D01*
X83557500Y-72871425D01*
X83524166Y-72738091D01*
X83524166Y-72638091D01*
X83557500Y-72504758D01*
X83590833Y-72438091D01*
X83657500Y-72371425D01*
X83757500Y-72338091D01*
X83824166Y-72338091D01*
X83924166Y-72371425D01*
X83957500Y-72404758D01*
X114950833Y-70735710D02*
X114884166Y-70702376D01*
X114784166Y-70702376D01*
X114684166Y-70735710D01*
X114617500Y-70802376D01*
X114584166Y-70869043D01*
X114550833Y-71002376D01*
X114550833Y-71102376D01*
X114584166Y-71235710D01*
X114617500Y-71302376D01*
X114684166Y-71369043D01*
X114784166Y-71402376D01*
X114850833Y-71402376D01*
X114950833Y-71369043D01*
X114984166Y-71335710D01*
X114984166Y-71102376D01*
X114850833Y-71102376D01*
X115284166Y-71402376D02*
X115284166Y-70702376D01*
X115684166Y-71402376D01*
X115684166Y-70702376D01*
X116017500Y-71402376D02*
X116017500Y-70702376D01*
X116184166Y-70702376D01*
X116284166Y-70735710D01*
X116350833Y-70802376D01*
X116384166Y-70869043D01*
X116417500Y-71002376D01*
X116417500Y-71102376D01*
X116384166Y-71235710D01*
X116350833Y-71302376D01*
X116284166Y-71369043D01*
X116184166Y-71402376D01*
X116017500Y-71402376D01*
X116550833Y-71469043D02*
X117084166Y-71469043D01*
X117217500Y-71202376D02*
X117550833Y-71202376D01*
X117150833Y-71402376D02*
X117384166Y-70702376D01*
X117617500Y-71402376D01*
X82724166Y-67360951D02*
X83124166Y-67360951D01*
X82924166Y-68060951D02*
X82924166Y-67360951D01*
X83290833Y-67360951D02*
X83757500Y-68060951D01*
X83757500Y-67360951D02*
X83290833Y-68060951D01*
X84324166Y-67594285D02*
X84324166Y-68060951D01*
X84157500Y-67327618D02*
X83990833Y-67827618D01*
X84424166Y-67827618D01*
X84524166Y-68127618D02*
X85057500Y-68127618D01*
X85457500Y-67694285D02*
X85557500Y-67727618D01*
X85590833Y-67760951D01*
X85624166Y-67827618D01*
X85624166Y-67927618D01*
X85590833Y-67994285D01*
X85557500Y-68027618D01*
X85490833Y-68060951D01*
X85224166Y-68060951D01*
X85224166Y-67360951D01*
X85457500Y-67360951D01*
X85524166Y-67394285D01*
X85557500Y-67427618D01*
X85590833Y-67494285D01*
X85590833Y-67560951D01*
X85557500Y-67627618D01*
X85524166Y-67660951D01*
X85457500Y-67694285D01*
X85224166Y-67694285D01*
X79030833Y-68638570D02*
X78964166Y-68605236D01*
X78864166Y-68605236D01*
X78764166Y-68638570D01*
X78697500Y-68705236D01*
X78664166Y-68771903D01*
X78630833Y-68905236D01*
X78630833Y-69005236D01*
X78664166Y-69138570D01*
X78697500Y-69205236D01*
X78764166Y-69271903D01*
X78864166Y-69305236D01*
X78930833Y-69305236D01*
X79030833Y-69271903D01*
X79064166Y-69238570D01*
X79064166Y-69005236D01*
X78930833Y-69005236D01*
X79364166Y-69305236D02*
X79364166Y-68605236D01*
X79764166Y-69305236D01*
X79764166Y-68605236D01*
X80097500Y-69305236D02*
X80097500Y-68605236D01*
X80264166Y-68605236D01*
X80364166Y-68638570D01*
X80430833Y-68705236D01*
X80464166Y-68771903D01*
X80497500Y-68905236D01*
X80497500Y-69005236D01*
X80464166Y-69138570D01*
X80430833Y-69205236D01*
X80364166Y-69271903D01*
X80264166Y-69305236D01*
X80097500Y-69305236D01*
X80630833Y-69371903D02*
X81164166Y-69371903D01*
X81564166Y-68938570D02*
X81664166Y-68971903D01*
X81697500Y-69005236D01*
X81730833Y-69071903D01*
X81730833Y-69171903D01*
X81697500Y-69238570D01*
X81664166Y-69271903D01*
X81597500Y-69305236D01*
X81330833Y-69305236D01*
X81330833Y-68605236D01*
X81564166Y-68605236D01*
X81630833Y-68638570D01*
X81664166Y-68671903D01*
X81697500Y-68738570D01*
X81697500Y-68805236D01*
X81664166Y-68871903D01*
X81630833Y-68905236D01*
X81564166Y-68938570D01*
X81330833Y-68938570D01*
X82724166Y-71093806D02*
X82957500Y-71793806D01*
X83190833Y-71093806D01*
X83424166Y-71793806D02*
X83424166Y-71093806D01*
X83590833Y-71093806D01*
X83690833Y-71127140D01*
X83757500Y-71193806D01*
X83790833Y-71260473D01*
X83824166Y-71393806D01*
X83824166Y-71493806D01*
X83790833Y-71627140D01*
X83757500Y-71693806D01*
X83690833Y-71760473D01*
X83590833Y-71793806D01*
X83424166Y-71793806D01*
X84124166Y-71793806D02*
X84124166Y-71093806D01*
X84290833Y-71093806D01*
X84390833Y-71127140D01*
X84457500Y-71193806D01*
X84490833Y-71260473D01*
X84524166Y-71393806D01*
X84524166Y-71493806D01*
X84490833Y-71627140D01*
X84457500Y-71693806D01*
X84390833Y-71760473D01*
X84290833Y-71793806D01*
X84124166Y-71793806D01*
X84657500Y-71860473D02*
X85190833Y-71860473D01*
X85590833Y-71427140D02*
X85690833Y-71460473D01*
X85724166Y-71493806D01*
X85757500Y-71560473D01*
X85757500Y-71660473D01*
X85724166Y-71727140D01*
X85690833Y-71760473D01*
X85624166Y-71793806D01*
X85357500Y-71793806D01*
X85357500Y-71093806D01*
X85590833Y-71093806D01*
X85657500Y-71127140D01*
X85690833Y-71160473D01*
X85724166Y-71227140D01*
X85724166Y-71293806D01*
X85690833Y-71360473D01*
X85657500Y-71393806D01*
X85590833Y-71427140D01*
X85357500Y-71427140D01*
X79030833Y-64905715D02*
X78964166Y-64872381D01*
X78864166Y-64872381D01*
X78764166Y-64905715D01*
X78697500Y-64972381D01*
X78664166Y-65039048D01*
X78630833Y-65172381D01*
X78630833Y-65272381D01*
X78664166Y-65405715D01*
X78697500Y-65472381D01*
X78764166Y-65539048D01*
X78864166Y-65572381D01*
X78930833Y-65572381D01*
X79030833Y-65539048D01*
X79064166Y-65505715D01*
X79064166Y-65272381D01*
X78930833Y-65272381D01*
X79364166Y-65572381D02*
X79364166Y-64872381D01*
X79764166Y-65572381D01*
X79764166Y-64872381D01*
X80097500Y-65572381D02*
X80097500Y-64872381D01*
X80264166Y-64872381D01*
X80364166Y-64905715D01*
X80430833Y-64972381D01*
X80464166Y-65039048D01*
X80497500Y-65172381D01*
X80497500Y-65272381D01*
X80464166Y-65405715D01*
X80430833Y-65472381D01*
X80364166Y-65539048D01*
X80264166Y-65572381D01*
X80097500Y-65572381D01*
X80630833Y-65639048D02*
X81164166Y-65639048D01*
X81564166Y-65205715D02*
X81664166Y-65239048D01*
X81697500Y-65272381D01*
X81730833Y-65339048D01*
X81730833Y-65439048D01*
X81697500Y-65505715D01*
X81664166Y-65539048D01*
X81597500Y-65572381D01*
X81330833Y-65572381D01*
X81330833Y-64872381D01*
X81564166Y-64872381D01*
X81630833Y-64905715D01*
X81664166Y-64939048D01*
X81697500Y-65005715D01*
X81697500Y-65072381D01*
X81664166Y-65139048D01*
X81630833Y-65172381D01*
X81564166Y-65205715D01*
X81330833Y-65205715D01*
X79030833Y-72371425D02*
X78964166Y-72338091D01*
X78864166Y-72338091D01*
X78764166Y-72371425D01*
X78697500Y-72438091D01*
X78664166Y-72504758D01*
X78630833Y-72638091D01*
X78630833Y-72738091D01*
X78664166Y-72871425D01*
X78697500Y-72938091D01*
X78764166Y-73004758D01*
X78864166Y-73038091D01*
X78930833Y-73038091D01*
X79030833Y-73004758D01*
X79064166Y-72971425D01*
X79064166Y-72738091D01*
X78930833Y-72738091D01*
X79364166Y-73038091D02*
X79364166Y-72338091D01*
X79764166Y-73038091D01*
X79764166Y-72338091D01*
X80097500Y-73038091D02*
X80097500Y-72338091D01*
X80264166Y-72338091D01*
X80364166Y-72371425D01*
X80430833Y-72438091D01*
X80464166Y-72504758D01*
X80497500Y-72638091D01*
X80497500Y-72738091D01*
X80464166Y-72871425D01*
X80430833Y-72938091D01*
X80364166Y-73004758D01*
X80264166Y-73038091D01*
X80097500Y-73038091D01*
X80630833Y-73104758D02*
X81164166Y-73104758D01*
X81564166Y-72671425D02*
X81664166Y-72704758D01*
X81697500Y-72738091D01*
X81730833Y-72804758D01*
X81730833Y-72904758D01*
X81697500Y-72971425D01*
X81664166Y-73004758D01*
X81597500Y-73038091D01*
X81330833Y-73038091D01*
X81330833Y-72338091D01*
X81564166Y-72338091D01*
X81630833Y-72371425D01*
X81664166Y-72404758D01*
X81697500Y-72471425D01*
X81697500Y-72538091D01*
X81664166Y-72604758D01*
X81630833Y-72638091D01*
X81564166Y-72671425D01*
X81330833Y-72671425D01*
X110890832Y-63936666D02*
X110657499Y-63603333D01*
X110490832Y-63936666D02*
X110490832Y-63236666D01*
X110757499Y-63236666D01*
X110824166Y-63270000D01*
X110857499Y-63303333D01*
X110890832Y-63370000D01*
X110890832Y-63470000D01*
X110857499Y-63536666D01*
X110824166Y-63570000D01*
X110757499Y-63603333D01*
X110490832Y-63603333D01*
X111124166Y-63236666D02*
X111590832Y-63936666D01*
X111590832Y-63236666D02*
X111124166Y-63936666D01*
X112224166Y-63936666D02*
X111824166Y-63936666D01*
X112024166Y-63936666D02*
X112024166Y-63236666D01*
X111957499Y-63336666D01*
X111890832Y-63403333D01*
X111824166Y-63436666D01*
X112357499Y-64003333D02*
X112890832Y-64003333D01*
X113024166Y-63736666D02*
X113357499Y-63736666D01*
X112957499Y-63936666D02*
X113190832Y-63236666D01*
X113424166Y-63936666D01*
X110890832Y-68913806D02*
X110657499Y-68580473D01*
X110490832Y-68913806D02*
X110490832Y-68213806D01*
X110757499Y-68213806D01*
X110824166Y-68247140D01*
X110857499Y-68280473D01*
X110890832Y-68347140D01*
X110890832Y-68447140D01*
X110857499Y-68513806D01*
X110824166Y-68547140D01*
X110757499Y-68580473D01*
X110490832Y-68580473D01*
X111124166Y-68213806D02*
X111590832Y-68913806D01*
X111590832Y-68213806D02*
X111124166Y-68913806D01*
X112190832Y-68213806D02*
X111857499Y-68213806D01*
X111824166Y-68547140D01*
X111857499Y-68513806D01*
X111924166Y-68480473D01*
X112090832Y-68480473D01*
X112157499Y-68513806D01*
X112190832Y-68547140D01*
X112224166Y-68613806D01*
X112224166Y-68780473D01*
X112190832Y-68847140D01*
X112157499Y-68880473D01*
X112090832Y-68913806D01*
X111924166Y-68913806D01*
X111857499Y-68880473D01*
X111824166Y-68847140D01*
X112357499Y-68980473D02*
X112890832Y-68980473D01*
X113024166Y-68713806D02*
X113357499Y-68713806D01*
X112957499Y-68913806D02*
X113190832Y-68213806D01*
X113424166Y-68913806D01*
X99154166Y-46766666D02*
X99154166Y-47333333D01*
X99187500Y-47400000D01*
X99220833Y-47433333D01*
X99287500Y-47466666D01*
X99420833Y-47466666D01*
X99487500Y-47433333D01*
X99520833Y-47400000D01*
X99554166Y-47333333D01*
X99554166Y-46766666D01*
X99854166Y-46833333D02*
X99887500Y-46800000D01*
X99954166Y-46766666D01*
X100120833Y-46766666D01*
X100187500Y-46800000D01*
X100220833Y-46833333D01*
X100254166Y-46900000D01*
X100254166Y-46966666D01*
X100220833Y-47066666D01*
X99820833Y-47466666D01*
X100254166Y-47466666D01*
X91133333Y-50470000D02*
X91100000Y-50503333D01*
X91000000Y-50536666D01*
X90933333Y-50536666D01*
X90833333Y-50503333D01*
X90766666Y-50436666D01*
X90733333Y-50370000D01*
X90700000Y-50236666D01*
X90700000Y-50136666D01*
X90733333Y-50003333D01*
X90766666Y-49936666D01*
X90833333Y-49870000D01*
X90933333Y-49836666D01*
X91000000Y-49836666D01*
X91100000Y-49870000D01*
X91133333Y-49903333D01*
X91366666Y-49836666D02*
X91833333Y-49836666D01*
X91533333Y-50536666D01*
X111000000Y-35756666D02*
X110766666Y-35423333D01*
X110600000Y-35756666D02*
X110600000Y-35056666D01*
X110866666Y-35056666D01*
X110933333Y-35090000D01*
X110966666Y-35123333D01*
X111000000Y-35190000D01*
X111000000Y-35290000D01*
X110966666Y-35356666D01*
X110933333Y-35390000D01*
X110866666Y-35423333D01*
X110600000Y-35423333D01*
X111666666Y-35756666D02*
X111266666Y-35756666D01*
X111466666Y-35756666D02*
X111466666Y-35056666D01*
X111400000Y-35156666D01*
X111333333Y-35223333D01*
X111266666Y-35256666D01*
X112100000Y-35056666D02*
X112166666Y-35056666D01*
X112233333Y-35090000D01*
X112266666Y-35123333D01*
X112300000Y-35190000D01*
X112333333Y-35323333D01*
X112333333Y-35490000D01*
X112300000Y-35623333D01*
X112266666Y-35690000D01*
X112233333Y-35723333D01*
X112166666Y-35756666D01*
X112100000Y-35756666D01*
X112033333Y-35723333D01*
X112000000Y-35690000D01*
X111966666Y-35623333D01*
X111933333Y-35490000D01*
X111933333Y-35323333D01*
X111966666Y-35190000D01*
X112000000Y-35123333D01*
X112033333Y-35090000D01*
X112100000Y-35056666D01*
X86203333Y-61476666D02*
X85970000Y-61143333D01*
X85803333Y-61476666D02*
X85803333Y-60776666D01*
X86070000Y-60776666D01*
X86136666Y-60810000D01*
X86170000Y-60843333D01*
X86203333Y-60910000D01*
X86203333Y-61010000D01*
X86170000Y-61076666D01*
X86136666Y-61110000D01*
X86070000Y-61143333D01*
X85803333Y-61143333D01*
X86870000Y-61476666D02*
X86470000Y-61476666D01*
X86670000Y-61476666D02*
X86670000Y-60776666D01*
X86603333Y-60876666D01*
X86536666Y-60943333D01*
X86470000Y-60976666D01*
X107683333Y-50370000D02*
X107650000Y-50403333D01*
X107550000Y-50436666D01*
X107483333Y-50436666D01*
X107383333Y-50403333D01*
X107316666Y-50336666D01*
X107283333Y-50270000D01*
X107250000Y-50136666D01*
X107250000Y-50036666D01*
X107283333Y-49903333D01*
X107316666Y-49836666D01*
X107383333Y-49770000D01*
X107483333Y-49736666D01*
X107550000Y-49736666D01*
X107650000Y-49770000D01*
X107683333Y-49803333D01*
X108316666Y-49736666D02*
X107983333Y-49736666D01*
X107950000Y-50070000D01*
X107983333Y-50036666D01*
X108050000Y-50003333D01*
X108216666Y-50003333D01*
X108283333Y-50036666D01*
X108316666Y-50070000D01*
X108350000Y-50136666D01*
X108350000Y-50303333D01*
X108316666Y-50370000D01*
X108283333Y-50403333D01*
X108216666Y-50436666D01*
X108050000Y-50436666D01*
X107983333Y-50403333D01*
X107950000Y-50370000D01*
X121621666Y-41171666D02*
X121621666Y-41671666D01*
X121588333Y-41771666D01*
X121521666Y-41838333D01*
X121421666Y-41871666D01*
X121355000Y-41871666D01*
X121921666Y-41238333D02*
X121955000Y-41205000D01*
X122021666Y-41171666D01*
X122188333Y-41171666D01*
X122255000Y-41205000D01*
X122288333Y-41238333D01*
X122321666Y-41305000D01*
X122321666Y-41371666D01*
X122288333Y-41471666D01*
X121888333Y-41871666D01*
X122321666Y-41871666D01*
X88370000Y-46566666D02*
X88136666Y-46233333D01*
X87970000Y-46566666D02*
X87970000Y-45866666D01*
X88236666Y-45866666D01*
X88303333Y-45900000D01*
X88336666Y-45933333D01*
X88370000Y-46000000D01*
X88370000Y-46100000D01*
X88336666Y-46166666D01*
X88303333Y-46200000D01*
X88236666Y-46233333D01*
X87970000Y-46233333D01*
X89036666Y-46566666D02*
X88636666Y-46566666D01*
X88836666Y-46566666D02*
X88836666Y-45866666D01*
X88770000Y-45966666D01*
X88703333Y-46033333D01*
X88636666Y-46066666D01*
X89703333Y-46566666D02*
X89303333Y-46566666D01*
X89503333Y-46566666D02*
X89503333Y-45866666D01*
X89436666Y-45966666D01*
X89370000Y-46033333D01*
X89303333Y-46066666D01*
X111183333Y-58176666D02*
X110950000Y-57843333D01*
X110783333Y-58176666D02*
X110783333Y-57476666D01*
X111050000Y-57476666D01*
X111116666Y-57510000D01*
X111150000Y-57543333D01*
X111183333Y-57610000D01*
X111183333Y-57710000D01*
X111150000Y-57776666D01*
X111116666Y-57810000D01*
X111050000Y-57843333D01*
X110783333Y-57843333D01*
X111416666Y-57476666D02*
X111883333Y-57476666D01*
X111583333Y-58176666D01*
X91183333Y-48140000D02*
X91150000Y-48173333D01*
X91050000Y-48206666D01*
X90983333Y-48206666D01*
X90883333Y-48173333D01*
X90816666Y-48106666D01*
X90783333Y-48040000D01*
X90750000Y-47906666D01*
X90750000Y-47806666D01*
X90783333Y-47673333D01*
X90816666Y-47606666D01*
X90883333Y-47540000D01*
X90983333Y-47506666D01*
X91050000Y-47506666D01*
X91150000Y-47540000D01*
X91183333Y-47573333D01*
X91583333Y-47806666D02*
X91516666Y-47773333D01*
X91483333Y-47740000D01*
X91450000Y-47673333D01*
X91450000Y-47640000D01*
X91483333Y-47573333D01*
X91516666Y-47540000D01*
X91583333Y-47506666D01*
X91716666Y-47506666D01*
X91783333Y-47540000D01*
X91816666Y-47573333D01*
X91850000Y-47640000D01*
X91850000Y-47673333D01*
X91816666Y-47740000D01*
X91783333Y-47773333D01*
X91716666Y-47806666D01*
X91583333Y-47806666D01*
X91516666Y-47840000D01*
X91483333Y-47873333D01*
X91450000Y-47940000D01*
X91450000Y-48073333D01*
X91483333Y-48140000D01*
X91516666Y-48173333D01*
X91583333Y-48206666D01*
X91716666Y-48206666D01*
X91783333Y-48173333D01*
X91816666Y-48140000D01*
X91850000Y-48073333D01*
X91850000Y-47940000D01*
X91816666Y-47873333D01*
X91783333Y-47840000D01*
X91716666Y-47806666D01*
X88363333Y-61536666D02*
X88130000Y-61203333D01*
X87963333Y-61536666D02*
X87963333Y-60836666D01*
X88230000Y-60836666D01*
X88296666Y-60870000D01*
X88330000Y-60903333D01*
X88363333Y-60970000D01*
X88363333Y-61070000D01*
X88330000Y-61136666D01*
X88296666Y-61170000D01*
X88230000Y-61203333D01*
X87963333Y-61203333D01*
X88596666Y-60836666D02*
X89030000Y-60836666D01*
X88796666Y-61103333D01*
X88896666Y-61103333D01*
X88963333Y-61136666D01*
X88996666Y-61170000D01*
X89030000Y-61236666D01*
X89030000Y-61403333D01*
X88996666Y-61470000D01*
X88963333Y-61503333D01*
X88896666Y-61536666D01*
X88696666Y-61536666D01*
X88630000Y-61503333D01*
X88596666Y-61470000D01*
X107663333Y-67430000D02*
X107630000Y-67463333D01*
X107530000Y-67496666D01*
X107463333Y-67496666D01*
X107363333Y-67463333D01*
X107296666Y-67396666D01*
X107263333Y-67330000D01*
X107230000Y-67196666D01*
X107230000Y-67096666D01*
X107263333Y-66963333D01*
X107296666Y-66896666D01*
X107363333Y-66830000D01*
X107463333Y-66796666D01*
X107530000Y-66796666D01*
X107630000Y-66830000D01*
X107663333Y-66863333D01*
X107930000Y-66863333D02*
X107963333Y-66830000D01*
X108030000Y-66796666D01*
X108196666Y-66796666D01*
X108263333Y-66830000D01*
X108296666Y-66863333D01*
X108330000Y-66930000D01*
X108330000Y-66996666D01*
X108296666Y-67096666D01*
X107896666Y-67496666D01*
X108330000Y-67496666D01*
X110980000Y-39766666D02*
X110746666Y-39433333D01*
X110580000Y-39766666D02*
X110580000Y-39066666D01*
X110846666Y-39066666D01*
X110913333Y-39100000D01*
X110946666Y-39133333D01*
X110980000Y-39200000D01*
X110980000Y-39300000D01*
X110946666Y-39366666D01*
X110913333Y-39400000D01*
X110846666Y-39433333D01*
X110580000Y-39433333D01*
X111646666Y-39766666D02*
X111246666Y-39766666D01*
X111446666Y-39766666D02*
X111446666Y-39066666D01*
X111380000Y-39166666D01*
X111313333Y-39233333D01*
X111246666Y-39266666D01*
X112280000Y-39066666D02*
X111946666Y-39066666D01*
X111913333Y-39400000D01*
X111946666Y-39366666D01*
X112013333Y-39333333D01*
X112180000Y-39333333D01*
X112246666Y-39366666D01*
X112280000Y-39400000D01*
X112313333Y-39466666D01*
X112313333Y-39633333D01*
X112280000Y-39700000D01*
X112246666Y-39733333D01*
X112180000Y-39766666D01*
X112013333Y-39766666D01*
X111946666Y-39733333D01*
X111913333Y-39700000D01*
X76666666Y-40966666D02*
X76666666Y-41466666D01*
X76633333Y-41566666D01*
X76566666Y-41633333D01*
X76466666Y-41666666D01*
X76400000Y-41666666D01*
X77366666Y-41666666D02*
X76966666Y-41666666D01*
X77166666Y-41666666D02*
X77166666Y-40966666D01*
X77100000Y-41066666D01*
X77033333Y-41133333D01*
X76966666Y-41166666D01*
X108720000Y-42676666D02*
X108486666Y-42343333D01*
X108320000Y-42676666D02*
X108320000Y-41976666D01*
X108586666Y-41976666D01*
X108653333Y-42010000D01*
X108686666Y-42043333D01*
X108720000Y-42110000D01*
X108720000Y-42210000D01*
X108686666Y-42276666D01*
X108653333Y-42310000D01*
X108586666Y-42343333D01*
X108320000Y-42343333D01*
X109386666Y-42676666D02*
X108986666Y-42676666D01*
X109186666Y-42676666D02*
X109186666Y-41976666D01*
X109120000Y-42076666D01*
X109053333Y-42143333D01*
X108986666Y-42176666D01*
X109620000Y-41976666D02*
X110053333Y-41976666D01*
X109820000Y-42243333D01*
X109920000Y-42243333D01*
X109986666Y-42276666D01*
X110020000Y-42310000D01*
X110053333Y-42376666D01*
X110053333Y-42543333D01*
X110020000Y-42610000D01*
X109986666Y-42643333D01*
X109920000Y-42676666D01*
X109720000Y-42676666D01*
X109653333Y-42643333D01*
X109620000Y-42610000D01*
X99116666Y-66066666D02*
X99116666Y-66633333D01*
X99150000Y-66700000D01*
X99183333Y-66733333D01*
X99250000Y-66766666D01*
X99383333Y-66766666D01*
X99450000Y-66733333D01*
X99483333Y-66700000D01*
X99516666Y-66633333D01*
X99516666Y-66066666D01*
X100216666Y-66766666D02*
X99816666Y-66766666D01*
X100016666Y-66766666D02*
X100016666Y-66066666D01*
X99950000Y-66166666D01*
X99883333Y-66233333D01*
X99816666Y-66266666D01*
X93863333Y-71340000D02*
X93830000Y-71373333D01*
X93730000Y-71406666D01*
X93663333Y-71406666D01*
X93563333Y-71373333D01*
X93496666Y-71306666D01*
X93463333Y-71240000D01*
X93430000Y-71106666D01*
X93430000Y-71006666D01*
X93463333Y-70873333D01*
X93496666Y-70806666D01*
X93563333Y-70740000D01*
X93663333Y-70706666D01*
X93730000Y-70706666D01*
X93830000Y-70740000D01*
X93863333Y-70773333D01*
X94096666Y-70706666D02*
X94530000Y-70706666D01*
X94296666Y-70973333D01*
X94396666Y-70973333D01*
X94463333Y-71006666D01*
X94496666Y-71040000D01*
X94530000Y-71106666D01*
X94530000Y-71273333D01*
X94496666Y-71340000D01*
X94463333Y-71373333D01*
X94396666Y-71406666D01*
X94196666Y-71406666D01*
X94130000Y-71373333D01*
X94096666Y-71340000D01*
X105043333Y-71390000D02*
X105010000Y-71423333D01*
X104910000Y-71456666D01*
X104843333Y-71456666D01*
X104743333Y-71423333D01*
X104676666Y-71356666D01*
X104643333Y-71290000D01*
X104610000Y-71156666D01*
X104610000Y-71056666D01*
X104643333Y-70923333D01*
X104676666Y-70856666D01*
X104743333Y-70790000D01*
X104843333Y-70756666D01*
X104910000Y-70756666D01*
X105010000Y-70790000D01*
X105043333Y-70823333D01*
X105710000Y-71456666D02*
X105310000Y-71456666D01*
X105510000Y-71456666D02*
X105510000Y-70756666D01*
X105443333Y-70856666D01*
X105376666Y-70923333D01*
X105310000Y-70956666D01*
X108993333Y-53386666D02*
X108760000Y-53053333D01*
X108593333Y-53386666D02*
X108593333Y-52686666D01*
X108860000Y-52686666D01*
X108926666Y-52720000D01*
X108960000Y-52753333D01*
X108993333Y-52820000D01*
X108993333Y-52920000D01*
X108960000Y-52986666D01*
X108926666Y-53020000D01*
X108860000Y-53053333D01*
X108593333Y-53053333D01*
X109260000Y-52753333D02*
X109293333Y-52720000D01*
X109360000Y-52686666D01*
X109526666Y-52686666D01*
X109593333Y-52720000D01*
X109626666Y-52753333D01*
X109660000Y-52820000D01*
X109660000Y-52886666D01*
X109626666Y-52986666D01*
X109226666Y-53386666D01*
X109660000Y-53386666D01*
X90393333Y-61546666D02*
X90160000Y-61213333D01*
X89993333Y-61546666D02*
X89993333Y-60846666D01*
X90260000Y-60846666D01*
X90326666Y-60880000D01*
X90360000Y-60913333D01*
X90393333Y-60980000D01*
X90393333Y-61080000D01*
X90360000Y-61146666D01*
X90326666Y-61180000D01*
X90260000Y-61213333D01*
X89993333Y-61213333D01*
X90993333Y-61080000D02*
X90993333Y-61546666D01*
X90826666Y-60813333D02*
X90660000Y-61313333D01*
X91093333Y-61313333D01*
X86160000Y-46516666D02*
X85926666Y-46183333D01*
X85760000Y-46516666D02*
X85760000Y-45816666D01*
X86026666Y-45816666D01*
X86093333Y-45850000D01*
X86126666Y-45883333D01*
X86160000Y-45950000D01*
X86160000Y-46050000D01*
X86126666Y-46116666D01*
X86093333Y-46150000D01*
X86026666Y-46183333D01*
X85760000Y-46183333D01*
X86826666Y-46516666D02*
X86426666Y-46516666D01*
X86626666Y-46516666D02*
X86626666Y-45816666D01*
X86560000Y-45916666D01*
X86493333Y-45983333D01*
X86426666Y-46016666D01*
X87093333Y-45883333D02*
X87126666Y-45850000D01*
X87193333Y-45816666D01*
X87360000Y-45816666D01*
X87426666Y-45850000D01*
X87460000Y-45883333D01*
X87493333Y-45950000D01*
X87493333Y-46016666D01*
X87460000Y-46116666D01*
X87060000Y-46516666D01*
X87493333Y-46516666D01*
X109213333Y-62056666D02*
X108980000Y-61723333D01*
X108813333Y-62056666D02*
X108813333Y-61356666D01*
X109080000Y-61356666D01*
X109146666Y-61390000D01*
X109180000Y-61423333D01*
X109213333Y-61490000D01*
X109213333Y-61590000D01*
X109180000Y-61656666D01*
X109146666Y-61690000D01*
X109080000Y-61723333D01*
X108813333Y-61723333D01*
X109846666Y-61356666D02*
X109513333Y-61356666D01*
X109480000Y-61690000D01*
X109513333Y-61656666D01*
X109580000Y-61623333D01*
X109746666Y-61623333D01*
X109813333Y-61656666D01*
X109846666Y-61690000D01*
X109880000Y-61756666D01*
X109880000Y-61923333D01*
X109846666Y-61990000D01*
X109813333Y-62023333D01*
X109746666Y-62056666D01*
X109580000Y-62056666D01*
X109513333Y-62023333D01*
X109480000Y-61990000D01*
X107653333Y-48080000D02*
X107620000Y-48113333D01*
X107520000Y-48146666D01*
X107453333Y-48146666D01*
X107353333Y-48113333D01*
X107286666Y-48046666D01*
X107253333Y-47980000D01*
X107220000Y-47846666D01*
X107220000Y-47746666D01*
X107253333Y-47613333D01*
X107286666Y-47546666D01*
X107353333Y-47480000D01*
X107453333Y-47446666D01*
X107520000Y-47446666D01*
X107620000Y-47480000D01*
X107653333Y-47513333D01*
X108253333Y-47446666D02*
X108120000Y-47446666D01*
X108053333Y-47480000D01*
X108020000Y-47513333D01*
X107953333Y-47613333D01*
X107920000Y-47746666D01*
X107920000Y-48013333D01*
X107953333Y-48080000D01*
X107986666Y-48113333D01*
X108053333Y-48146666D01*
X108186666Y-48146666D01*
X108253333Y-48113333D01*
X108286666Y-48080000D01*
X108320000Y-48013333D01*
X108320000Y-47846666D01*
X108286666Y-47780000D01*
X108253333Y-47746666D01*
X108186666Y-47713333D01*
X108053333Y-47713333D01*
X107986666Y-47746666D01*
X107953333Y-47780000D01*
X107920000Y-47846666D01*
X90853333Y-46596666D02*
X90620000Y-46263333D01*
X90453333Y-46596666D02*
X90453333Y-45896666D01*
X90720000Y-45896666D01*
X90786666Y-45930000D01*
X90820000Y-45963333D01*
X90853333Y-46030000D01*
X90853333Y-46130000D01*
X90820000Y-46196666D01*
X90786666Y-46230000D01*
X90720000Y-46263333D01*
X90453333Y-46263333D01*
X91186666Y-46596666D02*
X91320000Y-46596666D01*
X91386666Y-46563333D01*
X91420000Y-46530000D01*
X91486666Y-46430000D01*
X91520000Y-46296666D01*
X91520000Y-46030000D01*
X91486666Y-45963333D01*
X91453333Y-45930000D01*
X91386666Y-45896666D01*
X91253333Y-45896666D01*
X91186666Y-45930000D01*
X91153333Y-45963333D01*
X91120000Y-46030000D01*
X91120000Y-46196666D01*
X91153333Y-46263333D01*
X91186666Y-46296666D01*
X91253333Y-46330000D01*
X91386666Y-46330000D01*
X91453333Y-46296666D01*
X91486666Y-46263333D01*
X91520000Y-46196666D01*
X88410000Y-35476666D02*
X88176666Y-35143333D01*
X88010000Y-35476666D02*
X88010000Y-34776666D01*
X88276666Y-34776666D01*
X88343333Y-34810000D01*
X88376666Y-34843333D01*
X88410000Y-34910000D01*
X88410000Y-35010000D01*
X88376666Y-35076666D01*
X88343333Y-35110000D01*
X88276666Y-35143333D01*
X88010000Y-35143333D01*
X89076666Y-35476666D02*
X88676666Y-35476666D01*
X88876666Y-35476666D02*
X88876666Y-34776666D01*
X88810000Y-34876666D01*
X88743333Y-34943333D01*
X88676666Y-34976666D01*
X89676666Y-34776666D02*
X89543333Y-34776666D01*
X89476666Y-34810000D01*
X89443333Y-34843333D01*
X89376666Y-34943333D01*
X89343333Y-35076666D01*
X89343333Y-35343333D01*
X89376666Y-35410000D01*
X89410000Y-35443333D01*
X89476666Y-35476666D01*
X89610000Y-35476666D01*
X89676666Y-35443333D01*
X89710000Y-35410000D01*
X89743333Y-35343333D01*
X89743333Y-35176666D01*
X89710000Y-35110000D01*
X89676666Y-35076666D01*
X89610000Y-35043333D01*
X89476666Y-35043333D01*
X89410000Y-35076666D01*
X89376666Y-35110000D01*
X89343333Y-35176666D01*
X92723333Y-65580000D02*
X92690000Y-65613333D01*
X92590000Y-65646666D01*
X92523333Y-65646666D01*
X92423333Y-65613333D01*
X92356666Y-65546666D01*
X92323333Y-65480000D01*
X92290000Y-65346666D01*
X92290000Y-65246666D01*
X92323333Y-65113333D01*
X92356666Y-65046666D01*
X92423333Y-64980000D01*
X92523333Y-64946666D01*
X92590000Y-64946666D01*
X92690000Y-64980000D01*
X92723333Y-65013333D01*
X93323333Y-65180000D02*
X93323333Y-65646666D01*
X93156666Y-64913333D02*
X92990000Y-65413333D01*
X93423333Y-65413333D01*
D11*
X103547500Y-46055000D02*
X105362500Y-46055000D01*
X99687500Y-35790000D02*
X95827500Y-35790000D01*
X99687500Y-46310000D02*
X95827500Y-46310000D01*
X95827500Y-35790000D02*
X95827500Y-36045000D01*
X103547500Y-46310000D02*
X103547500Y-46055000D01*
X99687500Y-35790000D02*
X103547500Y-35790000D01*
X99687500Y-46310000D02*
X103547500Y-46310000D01*
X103547500Y-35790000D02*
X103547500Y-36045000D01*
X95827500Y-46310000D02*
X95827500Y-46055000D01*
X94398752Y-50935000D02*
X93876248Y-50935000D01*
X94398752Y-49465000D02*
X93876248Y-49465000D01*
X110085000Y-35727064D02*
X110085000Y-35272936D01*
X108615000Y-35727064D02*
X108615000Y-35272936D01*
X87035000Y-58927064D02*
X87035000Y-58472936D01*
X85565000Y-58927064D02*
X85565000Y-58472936D01*
X104876248Y-49415000D02*
X105398752Y-49415000D01*
X104876248Y-50885000D02*
X105398752Y-50885000D01*
X120180000Y-47635000D02*
X122840000Y-47635000D01*
X117242929Y-61225000D02*
X117697071Y-61225000D01*
X119782929Y-45985000D02*
X120180000Y-45985000D01*
X122840000Y-43745000D02*
X128840000Y-43745000D01*
X119782929Y-51065000D02*
X120180000Y-51065000D01*
X122840000Y-43445000D02*
X128840000Y-43445000D01*
X119782929Y-48525000D02*
X120180000Y-48525000D01*
X119782929Y-49285000D02*
X120180000Y-49285000D01*
X122840000Y-43505000D02*
X128840000Y-43505000D01*
X128840000Y-43445000D02*
X128840000Y-44205000D01*
X120180000Y-62935000D02*
X122840000Y-62935000D01*
X119782929Y-46745000D02*
X120180000Y-46745000D01*
X120180000Y-60335000D02*
X122840000Y-60335000D01*
X120180000Y-55255000D02*
X122840000Y-55255000D01*
X122840000Y-51065000D02*
X128840000Y-51065000D01*
X128840000Y-59445000D02*
X122840000Y-59445000D01*
X119782929Y-56905000D02*
X120180000Y-56905000D01*
X117242929Y-45985000D02*
X117697071Y-45985000D01*
X120180000Y-45095000D02*
X122840000Y-45095000D01*
X128840000Y-53605000D02*
X128840000Y-54365000D01*
X119782929Y-54365000D02*
X120180000Y-54365000D01*
X117242929Y-61985000D02*
X117697071Y-61985000D01*
X128840000Y-44205000D02*
X122840000Y-44205000D01*
X119782929Y-44205000D02*
X120180000Y-44205000D01*
X119782929Y-59445000D02*
X120180000Y-59445000D01*
X117242929Y-59445000D02*
X117697071Y-59445000D01*
X117242929Y-56145000D02*
X117697071Y-56145000D01*
X122840000Y-45985000D02*
X128840000Y-45985000D01*
X119782929Y-51825000D02*
X120180000Y-51825000D01*
X120180000Y-50175000D02*
X122840000Y-50175000D01*
X119782929Y-43445000D02*
X120180000Y-43445000D01*
X117242929Y-51065000D02*
X117697071Y-51065000D01*
X119782929Y-61225000D02*
X120180000Y-61225000D01*
X117242929Y-46745000D02*
X117697071Y-46745000D01*
X128840000Y-56905000D02*
X122840000Y-56905000D01*
X120180000Y-42495000D02*
X120180000Y-62935000D01*
X122840000Y-53605000D02*
X128840000Y-53605000D01*
X122840000Y-43985000D02*
X128840000Y-43985000D01*
X119782929Y-53605000D02*
X120180000Y-53605000D01*
X117242929Y-49285000D02*
X117697071Y-49285000D01*
X119782929Y-58685000D02*
X120180000Y-58685000D01*
X122840000Y-43865000D02*
X128840000Y-43865000D01*
X122840000Y-56145000D02*
X128840000Y-56145000D01*
X128840000Y-46745000D02*
X122840000Y-46745000D01*
X117310000Y-44205000D02*
X117697071Y-44205000D01*
X120180000Y-57795000D02*
X122840000Y-57795000D01*
X119782929Y-61985000D02*
X120180000Y-61985000D01*
X117242929Y-54365000D02*
X117697071Y-54365000D01*
X122840000Y-44105000D02*
X128840000Y-44105000D01*
X122840000Y-48525000D02*
X128840000Y-48525000D01*
X117242929Y-48525000D02*
X117697071Y-48525000D01*
X114930000Y-43825000D02*
X114930000Y-42555000D01*
X122840000Y-43625000D02*
X128840000Y-43625000D01*
X128840000Y-48525000D02*
X128840000Y-49285000D01*
X122840000Y-62935000D02*
X122840000Y-42495000D01*
X128840000Y-51825000D02*
X122840000Y-51825000D01*
X128840000Y-51065000D02*
X128840000Y-51825000D01*
X120180000Y-52715000D02*
X122840000Y-52715000D01*
X122840000Y-42495000D02*
X120180000Y-42495000D01*
X114930000Y-42555000D02*
X116200000Y-42555000D01*
X117242929Y-56905000D02*
X117697071Y-56905000D01*
X128840000Y-45985000D02*
X128840000Y-46745000D01*
X117242929Y-51825000D02*
X117697071Y-51825000D01*
X122840000Y-58685000D02*
X128840000Y-58685000D01*
X128840000Y-56145000D02*
X128840000Y-56905000D01*
X128840000Y-49285000D02*
X122840000Y-49285000D01*
X117242929Y-58685000D02*
X117697071Y-58685000D01*
X122840000Y-61225000D02*
X128840000Y-61225000D01*
X119782929Y-56145000D02*
X120180000Y-56145000D01*
X128840000Y-58685000D02*
X128840000Y-59445000D01*
X128840000Y-61225000D02*
X128840000Y-61985000D01*
X117242929Y-53605000D02*
X117697071Y-53605000D01*
X117310000Y-43445000D02*
X117697071Y-43445000D01*
X128840000Y-61985000D02*
X122840000Y-61985000D01*
X128840000Y-54365000D02*
X122840000Y-54365000D01*
X88015000Y-43572936D02*
X88015000Y-44027064D01*
X89485000Y-43572936D02*
X89485000Y-44027064D01*
X112105000Y-55647064D02*
X112105000Y-55192936D01*
X110635000Y-55647064D02*
X110635000Y-55192936D01*
X94398752Y-48585000D02*
X93876248Y-48585000D01*
X94398752Y-47115000D02*
X93876248Y-47115000D01*
X87715000Y-58927064D02*
X87715000Y-58472936D01*
X89185000Y-58927064D02*
X89185000Y-58472936D01*
X104888748Y-67885000D02*
X105411252Y-67885000D01*
X104888748Y-66415000D02*
X105411252Y-66415000D01*
X108615000Y-39677064D02*
X108615000Y-39222936D01*
X110085000Y-39677064D02*
X110085000Y-39222936D01*
X69710000Y-45955000D02*
X75710000Y-45955000D01*
X78370000Y-60305000D02*
X75710000Y-60305000D01*
X83620000Y-61575000D02*
X83620000Y-62845000D01*
X69710000Y-49255000D02*
X69710000Y-48495000D01*
X83620000Y-62845000D02*
X82350000Y-62845000D01*
X78767071Y-54335000D02*
X78370000Y-54335000D01*
X69710000Y-61195000D02*
X75710000Y-61195000D01*
X78767071Y-61195000D02*
X78370000Y-61195000D01*
X78767071Y-58655000D02*
X78370000Y-58655000D01*
X81307071Y-51035000D02*
X80852929Y-51035000D01*
X78767071Y-61955000D02*
X78370000Y-61955000D01*
X78370000Y-55225000D02*
X75710000Y-55225000D01*
X69710000Y-48495000D02*
X75710000Y-48495000D01*
X81307071Y-49255000D02*
X80852929Y-49255000D01*
X78767071Y-45955000D02*
X78370000Y-45955000D01*
X69710000Y-58655000D02*
X75710000Y-58655000D01*
X69710000Y-56115000D02*
X75710000Y-56115000D01*
X69710000Y-51035000D02*
X75710000Y-51035000D01*
X75710000Y-54335000D02*
X69710000Y-54335000D01*
X81307071Y-56115000D02*
X80852929Y-56115000D01*
X69710000Y-61955000D02*
X69710000Y-61195000D01*
X78767071Y-48495000D02*
X78370000Y-48495000D01*
X75710000Y-44175000D02*
X69710000Y-44175000D01*
X69710000Y-56875000D02*
X69710000Y-56115000D01*
X75710000Y-61295000D02*
X69710000Y-61295000D01*
X78767071Y-56115000D02*
X78370000Y-56115000D01*
X81307071Y-43415000D02*
X80852929Y-43415000D01*
X75710000Y-59415000D02*
X69710000Y-59415000D01*
X81307071Y-51795000D02*
X80852929Y-51795000D01*
X78370000Y-42465000D02*
X75710000Y-42465000D01*
X69710000Y-53575000D02*
X75710000Y-53575000D01*
X75710000Y-61895000D02*
X69710000Y-61895000D01*
X78767071Y-53575000D02*
X78370000Y-53575000D01*
X78767071Y-44175000D02*
X78370000Y-44175000D01*
X78370000Y-57765000D02*
X75710000Y-57765000D01*
X78767071Y-49255000D02*
X78370000Y-49255000D01*
X69710000Y-51795000D02*
X69710000Y-51035000D01*
X75710000Y-51795000D02*
X69710000Y-51795000D01*
X75710000Y-42465000D02*
X75710000Y-62905000D01*
X75710000Y-56875000D02*
X69710000Y-56875000D01*
X78767071Y-51795000D02*
X78370000Y-51795000D01*
X78370000Y-45065000D02*
X75710000Y-45065000D01*
X81307071Y-56875000D02*
X80852929Y-56875000D01*
X78767071Y-43415000D02*
X78370000Y-43415000D01*
X81307071Y-46715000D02*
X80852929Y-46715000D01*
X75710000Y-46715000D02*
X69710000Y-46715000D01*
X69710000Y-43415000D02*
X75710000Y-43415000D01*
X81307071Y-53575000D02*
X80852929Y-53575000D01*
X78767071Y-56875000D02*
X78370000Y-56875000D01*
X75710000Y-61775000D02*
X69710000Y-61775000D01*
X81307071Y-45955000D02*
X80852929Y-45955000D01*
X81307071Y-59415000D02*
X80852929Y-59415000D01*
X78767071Y-51035000D02*
X78370000Y-51035000D01*
X78370000Y-52685000D02*
X75710000Y-52685000D01*
X75710000Y-61415000D02*
X69710000Y-61415000D01*
X75710000Y-62905000D02*
X78370000Y-62905000D01*
X75710000Y-61955000D02*
X69710000Y-61955000D01*
X69710000Y-44175000D02*
X69710000Y-43415000D01*
X78370000Y-47605000D02*
X75710000Y-47605000D01*
X75710000Y-61655000D02*
X69710000Y-61655000D01*
X81240000Y-61955000D02*
X80852929Y-61955000D01*
X81307071Y-54335000D02*
X80852929Y-54335000D01*
X78370000Y-50145000D02*
X75710000Y-50145000D01*
X69710000Y-59415000D02*
X69710000Y-58655000D01*
X81307071Y-58655000D02*
X80852929Y-58655000D01*
X78370000Y-62905000D02*
X78370000Y-42465000D01*
X75710000Y-61535000D02*
X69710000Y-61535000D01*
X78767071Y-46715000D02*
X78370000Y-46715000D01*
X81307071Y-44175000D02*
X80852929Y-44175000D01*
X81307071Y-48495000D02*
X80852929Y-48495000D01*
X75710000Y-49255000D02*
X69710000Y-49255000D01*
X69710000Y-46715000D02*
X69710000Y-45955000D01*
X69710000Y-54335000D02*
X69710000Y-53575000D01*
X78767071Y-59415000D02*
X78370000Y-59415000D01*
X81240000Y-61195000D02*
X80852929Y-61195000D01*
X108415000Y-44572936D02*
X108415000Y-45027064D01*
X109885000Y-44572936D02*
X109885000Y-45027064D01*
X99650000Y-65610000D02*
X103510000Y-65610000D01*
X99650000Y-65610000D02*
X95790000Y-65610000D01*
X99650000Y-55090000D02*
X95790000Y-55090000D01*
X95790000Y-55090000D02*
X95790000Y-55345000D01*
X95790000Y-65610000D02*
X95790000Y-65355000D01*
X99650000Y-55090000D02*
X103510000Y-55090000D01*
X103510000Y-65610000D02*
X103510000Y-65355000D01*
X103510000Y-55090000D02*
X103510000Y-55345000D01*
X103510000Y-65355000D02*
X105325000Y-65355000D01*
X94261252Y-70235000D02*
X93738748Y-70235000D01*
X94261252Y-68765000D02*
X93738748Y-68765000D01*
X104901248Y-68765000D02*
X105423752Y-68765000D01*
X104901248Y-70235000D02*
X105423752Y-70235000D01*
X109805000Y-55647064D02*
X109805000Y-55192936D01*
X108335000Y-55647064D02*
X108335000Y-55192936D01*
X91285000Y-58927064D02*
X91285000Y-58472936D01*
X89815000Y-58927064D02*
X89815000Y-58472936D01*
X87385000Y-43572936D02*
X87385000Y-44027064D01*
X85915000Y-43572936D02*
X85915000Y-44027064D01*
X109985000Y-63972936D02*
X109985000Y-64427064D01*
X108515000Y-63972936D02*
X108515000Y-64427064D01*
X104888748Y-47065000D02*
X105411252Y-47065000D01*
X104888748Y-48535000D02*
X105411252Y-48535000D01*
X90215000Y-43572936D02*
X90215000Y-44027064D01*
X91685000Y-43572936D02*
X91685000Y-44027064D01*
X88985000Y-38017064D02*
X88985000Y-37562936D01*
X90455000Y-38017064D02*
X90455000Y-37562936D01*
X94261252Y-67885000D02*
X93738748Y-67885000D01*
X94261252Y-66415000D02*
X93738748Y-66415000D01*
%LPC*%
D12*
X119760000Y-70700000D03*
G36*
G01*
X105362500Y-45345000D02*
X105362500Y-45645000D01*
G75*
G02*
X105212500Y-45795000I-150000J0D01*
G01*
X103462500Y-45795000D01*
G75*
G02*
X103312500Y-45645000I0J150000D01*
G01*
X103312500Y-45345000D01*
G75*
G02*
X103462500Y-45195000I150000J0D01*
G01*
X105212500Y-45195000D01*
G75*
G02*
X105362500Y-45345000I0J-150000D01*
G01*
G37*
G36*
G01*
X105362500Y-44075000D02*
X105362500Y-44375000D01*
G75*
G02*
X105212500Y-44525000I-150000J0D01*
G01*
X103462500Y-44525000D01*
G75*
G02*
X103312500Y-44375000I0J150000D01*
G01*
X103312500Y-44075000D01*
G75*
G02*
X103462500Y-43925000I150000J0D01*
G01*
X105212500Y-43925000D01*
G75*
G02*
X105362500Y-44075000I0J-150000D01*
G01*
G37*
G36*
G01*
X105362500Y-42805000D02*
X105362500Y-43105000D01*
G75*
G02*
X105212500Y-43255000I-150000J0D01*
G01*
X103462500Y-43255000D01*
G75*
G02*
X103312500Y-43105000I0J150000D01*
G01*
X103312500Y-42805000D01*
G75*
G02*
X103462500Y-42655000I150000J0D01*
G01*
X105212500Y-42655000D01*
G75*
G02*
X105362500Y-42805000I0J-150000D01*
G01*
G37*
G36*
G01*
X105362500Y-41535000D02*
X105362500Y-41835000D01*
G75*
G02*
X105212500Y-41985000I-150000J0D01*
G01*
X103462500Y-41985000D01*
G75*
G02*
X103312500Y-41835000I0J150000D01*
G01*
X103312500Y-41535000D01*
G75*
G02*
X103462500Y-41385000I150000J0D01*
G01*
X105212500Y-41385000D01*
G75*
G02*
X105362500Y-41535000I0J-150000D01*
G01*
G37*
G36*
G01*
X105362500Y-40265000D02*
X105362500Y-40565000D01*
G75*
G02*
X105212500Y-40715000I-150000J0D01*
G01*
X103462500Y-40715000D01*
G75*
G02*
X103312500Y-40565000I0J150000D01*
G01*
X103312500Y-40265000D01*
G75*
G02*
X103462500Y-40115000I150000J0D01*
G01*
X105212500Y-40115000D01*
G75*
G02*
X105362500Y-40265000I0J-150000D01*
G01*
G37*
G36*
G01*
X105362500Y-38995000D02*
X105362500Y-39295000D01*
G75*
G02*
X105212500Y-39445000I-150000J0D01*
G01*
X103462500Y-39445000D01*
G75*
G02*
X103312500Y-39295000I0J150000D01*
G01*
X103312500Y-38995000D01*
G75*
G02*
X103462500Y-38845000I150000J0D01*
G01*
X105212500Y-38845000D01*
G75*
G02*
X105362500Y-38995000I0J-150000D01*
G01*
G37*
G36*
G01*
X105362500Y-37725000D02*
X105362500Y-38025000D01*
G75*
G02*
X105212500Y-38175000I-150000J0D01*
G01*
X103462500Y-38175000D01*
G75*
G02*
X103312500Y-38025000I0J150000D01*
G01*
X103312500Y-37725000D01*
G75*
G02*
X103462500Y-37575000I150000J0D01*
G01*
X105212500Y-37575000D01*
G75*
G02*
X105362500Y-37725000I0J-150000D01*
G01*
G37*
G36*
G01*
X105362500Y-36455000D02*
X105362500Y-36755000D01*
G75*
G02*
X105212500Y-36905000I-150000J0D01*
G01*
X103462500Y-36905000D01*
G75*
G02*
X103312500Y-36755000I0J150000D01*
G01*
X103312500Y-36455000D01*
G75*
G02*
X103462500Y-36305000I150000J0D01*
G01*
X105212500Y-36305000D01*
G75*
G02*
X105362500Y-36455000I0J-150000D01*
G01*
G37*
G36*
G01*
X96062500Y-36455000D02*
X96062500Y-36755000D01*
G75*
G02*
X95912500Y-36905000I-150000J0D01*
G01*
X94162500Y-36905000D01*
G75*
G02*
X94012500Y-36755000I0J150000D01*
G01*
X94012500Y-36455000D01*
G75*
G02*
X94162500Y-36305000I150000J0D01*
G01*
X95912500Y-36305000D01*
G75*
G02*
X96062500Y-36455000I0J-150000D01*
G01*
G37*
G36*
G01*
X96062500Y-37725000D02*
X96062500Y-38025000D01*
G75*
G02*
X95912500Y-38175000I-150000J0D01*
G01*
X94162500Y-38175000D01*
G75*
G02*
X94012500Y-38025000I0J150000D01*
G01*
X94012500Y-37725000D01*
G75*
G02*
X94162500Y-37575000I150000J0D01*
G01*
X95912500Y-37575000D01*
G75*
G02*
X96062500Y-37725000I0J-150000D01*
G01*
G37*
G36*
G01*
X96062500Y-38995000D02*
X96062500Y-39295000D01*
G75*
G02*
X95912500Y-39445000I-150000J0D01*
G01*
X94162500Y-39445000D01*
G75*
G02*
X94012500Y-39295000I0J150000D01*
G01*
X94012500Y-38995000D01*
G75*
G02*
X94162500Y-38845000I150000J0D01*
G01*
X95912500Y-38845000D01*
G75*
G02*
X96062500Y-38995000I0J-150000D01*
G01*
G37*
G36*
G01*
X96062500Y-40265000D02*
X96062500Y-40565000D01*
G75*
G02*
X95912500Y-40715000I-150000J0D01*
G01*
X94162500Y-40715000D01*
G75*
G02*
X94012500Y-40565000I0J150000D01*
G01*
X94012500Y-40265000D01*
G75*
G02*
X94162500Y-40115000I150000J0D01*
G01*
X95912500Y-40115000D01*
G75*
G02*
X96062500Y-40265000I0J-150000D01*
G01*
G37*
G36*
G01*
X96062500Y-41535000D02*
X96062500Y-41835000D01*
G75*
G02*
X95912500Y-41985000I-150000J0D01*
G01*
X94162500Y-41985000D01*
G75*
G02*
X94012500Y-41835000I0J150000D01*
G01*
X94012500Y-41535000D01*
G75*
G02*
X94162500Y-41385000I150000J0D01*
G01*
X95912500Y-41385000D01*
G75*
G02*
X96062500Y-41535000I0J-150000D01*
G01*
G37*
G36*
G01*
X96062500Y-42805000D02*
X96062500Y-43105000D01*
G75*
G02*
X95912500Y-43255000I-150000J0D01*
G01*
X94162500Y-43255000D01*
G75*
G02*
X94012500Y-43105000I0J150000D01*
G01*
X94012500Y-42805000D01*
G75*
G02*
X94162500Y-42655000I150000J0D01*
G01*
X95912500Y-42655000D01*
G75*
G02*
X96062500Y-42805000I0J-150000D01*
G01*
G37*
G36*
G01*
X96062500Y-44075000D02*
X96062500Y-44375000D01*
G75*
G02*
X95912500Y-44525000I-150000J0D01*
G01*
X94162500Y-44525000D01*
G75*
G02*
X94012500Y-44375000I0J150000D01*
G01*
X94012500Y-44075000D01*
G75*
G02*
X94162500Y-43925000I150000J0D01*
G01*
X95912500Y-43925000D01*
G75*
G02*
X96062500Y-44075000I0J-150000D01*
G01*
G37*
G36*
G01*
X96062500Y-45345000D02*
X96062500Y-45645000D01*
G75*
G02*
X95912500Y-45795000I-150000J0D01*
G01*
X94162500Y-45795000D01*
G75*
G02*
X94012500Y-45645000I0J150000D01*
G01*
X94012500Y-45345000D01*
G75*
G02*
X94162500Y-45195000I150000J0D01*
G01*
X95912500Y-45195000D01*
G75*
G02*
X96062500Y-45345000I0J-150000D01*
G01*
G37*
G36*
G01*
X95762500Y-49725000D02*
X95762500Y-50675000D01*
G75*
G02*
X95512500Y-50925000I-250000J0D01*
G01*
X94837500Y-50925000D01*
G75*
G02*
X94587500Y-50675000I0J250000D01*
G01*
X94587500Y-49725000D01*
G75*
G02*
X94837500Y-49475000I250000J0D01*
G01*
X95512500Y-49475000D01*
G75*
G02*
X95762500Y-49725000I0J-250000D01*
G01*
G37*
G36*
G01*
X93687500Y-49725000D02*
X93687500Y-50675000D01*
G75*
G02*
X93437500Y-50925000I-250000J0D01*
G01*
X92762500Y-50925000D01*
G75*
G02*
X92512500Y-50675000I0J250000D01*
G01*
X92512500Y-49725000D01*
G75*
G02*
X92762500Y-49475000I250000J0D01*
G01*
X93437500Y-49475000D01*
G75*
G02*
X93687500Y-49725000I0J-250000D01*
G01*
G37*
G36*
G01*
X109800000Y-37100000D02*
X108900000Y-37100000D01*
G75*
G02*
X108650000Y-36850000I0J250000D01*
G01*
X108650000Y-36150000D01*
G75*
G02*
X108900000Y-35900000I250000J0D01*
G01*
X109800000Y-35900000D01*
G75*
G02*
X110050000Y-36150000I0J-250000D01*
G01*
X110050000Y-36850000D01*
G75*
G02*
X109800000Y-37100000I-250000J0D01*
G01*
G37*
G36*
G01*
X109800000Y-35100000D02*
X108900000Y-35100000D01*
G75*
G02*
X108650000Y-34850000I0J250000D01*
G01*
X108650000Y-34150000D01*
G75*
G02*
X108900000Y-33900000I250000J0D01*
G01*
X109800000Y-33900000D01*
G75*
G02*
X110050000Y-34150000I0J-250000D01*
G01*
X110050000Y-34850000D01*
G75*
G02*
X109800000Y-35100000I-250000J0D01*
G01*
G37*
G36*
G01*
X86750000Y-60300000D02*
X85850000Y-60300000D01*
G75*
G02*
X85600000Y-60050000I0J250000D01*
G01*
X85600000Y-59350000D01*
G75*
G02*
X85850000Y-59100000I250000J0D01*
G01*
X86750000Y-59100000D01*
G75*
G02*
X87000000Y-59350000I0J-250000D01*
G01*
X87000000Y-60050000D01*
G75*
G02*
X86750000Y-60300000I-250000J0D01*
G01*
G37*
G36*
G01*
X86750000Y-58300000D02*
X85850000Y-58300000D01*
G75*
G02*
X85600000Y-58050000I0J250000D01*
G01*
X85600000Y-57350000D01*
G75*
G02*
X85850000Y-57100000I250000J0D01*
G01*
X86750000Y-57100000D01*
G75*
G02*
X87000000Y-57350000I0J-250000D01*
G01*
X87000000Y-58050000D01*
G75*
G02*
X86750000Y-58300000I-250000J0D01*
G01*
G37*
G36*
G01*
X103512500Y-50625000D02*
X103512500Y-49675000D01*
G75*
G02*
X103762500Y-49425000I250000J0D01*
G01*
X104437500Y-49425000D01*
G75*
G02*
X104687500Y-49675000I0J-250000D01*
G01*
X104687500Y-50625000D01*
G75*
G02*
X104437500Y-50875000I-250000J0D01*
G01*
X103762500Y-50875000D01*
G75*
G02*
X103512500Y-50625000I0J250000D01*
G01*
G37*
G36*
G01*
X105587500Y-50625000D02*
X105587500Y-49675000D01*
G75*
G02*
X105837500Y-49425000I250000J0D01*
G01*
X106512500Y-49425000D01*
G75*
G02*
X106762500Y-49675000I0J-250000D01*
G01*
X106762500Y-50625000D01*
G75*
G02*
X106512500Y-50875000I-250000J0D01*
G01*
X105837500Y-50875000D01*
G75*
G02*
X105587500Y-50625000I0J250000D01*
G01*
G37*
D13*
X116200000Y-43825000D03*
D14*
X118740000Y-43825000D03*
X116200000Y-46365000D03*
X118740000Y-46365000D03*
X116200000Y-48905000D03*
X118740000Y-48905000D03*
X116200000Y-51445000D03*
X118740000Y-51445000D03*
X116200000Y-53985000D03*
X118740000Y-53985000D03*
X116200000Y-56525000D03*
X118740000Y-56525000D03*
X116200000Y-59065000D03*
X118740000Y-59065000D03*
X116200000Y-61605000D03*
X118740000Y-61605000D03*
G36*
G01*
X88300000Y-42200000D02*
X89200000Y-42200000D01*
G75*
G02*
X89450000Y-42450000I0J-250000D01*
G01*
X89450000Y-43150000D01*
G75*
G02*
X89200000Y-43400000I-250000J0D01*
G01*
X88300000Y-43400000D01*
G75*
G02*
X88050000Y-43150000I0J250000D01*
G01*
X88050000Y-42450000D01*
G75*
G02*
X88300000Y-42200000I250000J0D01*
G01*
G37*
G36*
G01*
X88300000Y-44200000D02*
X89200000Y-44200000D01*
G75*
G02*
X89450000Y-44450000I0J-250000D01*
G01*
X89450000Y-45150000D01*
G75*
G02*
X89200000Y-45400000I-250000J0D01*
G01*
X88300000Y-45400000D01*
G75*
G02*
X88050000Y-45150000I0J250000D01*
G01*
X88050000Y-44450000D01*
G75*
G02*
X88300000Y-44200000I250000J0D01*
G01*
G37*
G36*
G01*
X111820000Y-57020000D02*
X110920000Y-57020000D01*
G75*
G02*
X110670000Y-56770000I0J250000D01*
G01*
X110670000Y-56070000D01*
G75*
G02*
X110920000Y-55820000I250000J0D01*
G01*
X111820000Y-55820000D01*
G75*
G02*
X112070000Y-56070000I0J-250000D01*
G01*
X112070000Y-56770000D01*
G75*
G02*
X111820000Y-57020000I-250000J0D01*
G01*
G37*
G36*
G01*
X111820000Y-55020000D02*
X110920000Y-55020000D01*
G75*
G02*
X110670000Y-54770000I0J250000D01*
G01*
X110670000Y-54070000D01*
G75*
G02*
X110920000Y-53820000I250000J0D01*
G01*
X111820000Y-53820000D01*
G75*
G02*
X112070000Y-54070000I0J-250000D01*
G01*
X112070000Y-54770000D01*
G75*
G02*
X111820000Y-55020000I-250000J0D01*
G01*
G37*
G36*
G01*
X95762500Y-47375000D02*
X95762500Y-48325000D01*
G75*
G02*
X95512500Y-48575000I-250000J0D01*
G01*
X94837500Y-48575000D01*
G75*
G02*
X94587500Y-48325000I0J250000D01*
G01*
X94587500Y-47375000D01*
G75*
G02*
X94837500Y-47125000I250000J0D01*
G01*
X95512500Y-47125000D01*
G75*
G02*
X95762500Y-47375000I0J-250000D01*
G01*
G37*
G36*
G01*
X93687500Y-47375000D02*
X93687500Y-48325000D01*
G75*
G02*
X93437500Y-48575000I-250000J0D01*
G01*
X92762500Y-48575000D01*
G75*
G02*
X92512500Y-48325000I0J250000D01*
G01*
X92512500Y-47375000D01*
G75*
G02*
X92762500Y-47125000I250000J0D01*
G01*
X93437500Y-47125000D01*
G75*
G02*
X93687500Y-47375000I0J-250000D01*
G01*
G37*
G36*
G01*
X88900000Y-60300000D02*
X88000000Y-60300000D01*
G75*
G02*
X87750000Y-60050000I0J250000D01*
G01*
X87750000Y-59350000D01*
G75*
G02*
X88000000Y-59100000I250000J0D01*
G01*
X88900000Y-59100000D01*
G75*
G02*
X89150000Y-59350000I0J-250000D01*
G01*
X89150000Y-60050000D01*
G75*
G02*
X88900000Y-60300000I-250000J0D01*
G01*
G37*
G36*
G01*
X88900000Y-58300000D02*
X88000000Y-58300000D01*
G75*
G02*
X87750000Y-58050000I0J250000D01*
G01*
X87750000Y-57350000D01*
G75*
G02*
X88000000Y-57100000I250000J0D01*
G01*
X88900000Y-57100000D01*
G75*
G02*
X89150000Y-57350000I0J-250000D01*
G01*
X89150000Y-58050000D01*
G75*
G02*
X88900000Y-58300000I-250000J0D01*
G01*
G37*
G36*
G01*
X103525000Y-67625000D02*
X103525000Y-66675000D01*
G75*
G02*
X103775000Y-66425000I250000J0D01*
G01*
X104450000Y-66425000D01*
G75*
G02*
X104700000Y-66675000I0J-250000D01*
G01*
X104700000Y-67625000D01*
G75*
G02*
X104450000Y-67875000I-250000J0D01*
G01*
X103775000Y-67875000D01*
G75*
G02*
X103525000Y-67625000I0J250000D01*
G01*
G37*
G36*
G01*
X105600000Y-67625000D02*
X105600000Y-66675000D01*
G75*
G02*
X105850000Y-66425000I250000J0D01*
G01*
X106525000Y-66425000D01*
G75*
G02*
X106775000Y-66675000I0J-250000D01*
G01*
X106775000Y-67625000D01*
G75*
G02*
X106525000Y-67875000I-250000J0D01*
G01*
X105850000Y-67875000D01*
G75*
G02*
X105600000Y-67625000I0J250000D01*
G01*
G37*
G36*
G01*
X109800000Y-41050000D02*
X108900000Y-41050000D01*
G75*
G02*
X108650000Y-40800000I0J250000D01*
G01*
X108650000Y-40100000D01*
G75*
G02*
X108900000Y-39850000I250000J0D01*
G01*
X109800000Y-39850000D01*
G75*
G02*
X110050000Y-40100000I0J-250000D01*
G01*
X110050000Y-40800000D01*
G75*
G02*
X109800000Y-41050000I-250000J0D01*
G01*
G37*
G36*
G01*
X109800000Y-39050000D02*
X108900000Y-39050000D01*
G75*
G02*
X108650000Y-38800000I0J250000D01*
G01*
X108650000Y-38100000D01*
G75*
G02*
X108900000Y-37850000I250000J0D01*
G01*
X109800000Y-37850000D01*
G75*
G02*
X110050000Y-38100000I0J-250000D01*
G01*
X110050000Y-38800000D01*
G75*
G02*
X109800000Y-39050000I-250000J0D01*
G01*
G37*
D13*
X82350000Y-61575000D03*
D14*
X79810000Y-61575000D03*
X82350000Y-59035000D03*
X79810000Y-59035000D03*
X82350000Y-56495000D03*
X79810000Y-56495000D03*
X82350000Y-53955000D03*
X79810000Y-53955000D03*
X82350000Y-51415000D03*
X79810000Y-51415000D03*
X82350000Y-48875000D03*
X79810000Y-48875000D03*
X82350000Y-46335000D03*
X79810000Y-46335000D03*
X82350000Y-43795000D03*
X79810000Y-43795000D03*
G36*
G01*
X108700000Y-43200000D02*
X109600000Y-43200000D01*
G75*
G02*
X109850000Y-43450000I0J-250000D01*
G01*
X109850000Y-44150000D01*
G75*
G02*
X109600000Y-44400000I-250000J0D01*
G01*
X108700000Y-44400000D01*
G75*
G02*
X108450000Y-44150000I0J250000D01*
G01*
X108450000Y-43450000D01*
G75*
G02*
X108700000Y-43200000I250000J0D01*
G01*
G37*
G36*
G01*
X108700000Y-45200000D02*
X109600000Y-45200000D01*
G75*
G02*
X109850000Y-45450000I0J-250000D01*
G01*
X109850000Y-46150000D01*
G75*
G02*
X109600000Y-46400000I-250000J0D01*
G01*
X108700000Y-46400000D01*
G75*
G02*
X108450000Y-46150000I0J250000D01*
G01*
X108450000Y-45450000D01*
G75*
G02*
X108700000Y-45200000I250000J0D01*
G01*
G37*
G36*
G01*
X105325000Y-64645000D02*
X105325000Y-64945000D01*
G75*
G02*
X105175000Y-65095000I-150000J0D01*
G01*
X103425000Y-65095000D01*
G75*
G02*
X103275000Y-64945000I0J150000D01*
G01*
X103275000Y-64645000D01*
G75*
G02*
X103425000Y-64495000I150000J0D01*
G01*
X105175000Y-64495000D01*
G75*
G02*
X105325000Y-64645000I0J-150000D01*
G01*
G37*
G36*
G01*
X105325000Y-63375000D02*
X105325000Y-63675000D01*
G75*
G02*
X105175000Y-63825000I-150000J0D01*
G01*
X103425000Y-63825000D01*
G75*
G02*
X103275000Y-63675000I0J150000D01*
G01*
X103275000Y-63375000D01*
G75*
G02*
X103425000Y-63225000I150000J0D01*
G01*
X105175000Y-63225000D01*
G75*
G02*
X105325000Y-63375000I0J-150000D01*
G01*
G37*
G36*
G01*
X105325000Y-62105000D02*
X105325000Y-62405000D01*
G75*
G02*
X105175000Y-62555000I-150000J0D01*
G01*
X103425000Y-62555000D01*
G75*
G02*
X103275000Y-62405000I0J150000D01*
G01*
X103275000Y-62105000D01*
G75*
G02*
X103425000Y-61955000I150000J0D01*
G01*
X105175000Y-61955000D01*
G75*
G02*
X105325000Y-62105000I0J-150000D01*
G01*
G37*
G36*
G01*
X105325000Y-60835000D02*
X105325000Y-61135000D01*
G75*
G02*
X105175000Y-61285000I-150000J0D01*
G01*
X103425000Y-61285000D01*
G75*
G02*
X103275000Y-61135000I0J150000D01*
G01*
X103275000Y-60835000D01*
G75*
G02*
X103425000Y-60685000I150000J0D01*
G01*
X105175000Y-60685000D01*
G75*
G02*
X105325000Y-60835000I0J-150000D01*
G01*
G37*
G36*
G01*
X105325000Y-59565000D02*
X105325000Y-59865000D01*
G75*
G02*
X105175000Y-60015000I-150000J0D01*
G01*
X103425000Y-60015000D01*
G75*
G02*
X103275000Y-59865000I0J150000D01*
G01*
X103275000Y-59565000D01*
G75*
G02*
X103425000Y-59415000I150000J0D01*
G01*
X105175000Y-59415000D01*
G75*
G02*
X105325000Y-59565000I0J-150000D01*
G01*
G37*
G36*
G01*
X105325000Y-58295000D02*
X105325000Y-58595000D01*
G75*
G02*
X105175000Y-58745000I-150000J0D01*
G01*
X103425000Y-58745000D01*
G75*
G02*
X103275000Y-58595000I0J150000D01*
G01*
X103275000Y-58295000D01*
G75*
G02*
X103425000Y-58145000I150000J0D01*
G01*
X105175000Y-58145000D01*
G75*
G02*
X105325000Y-58295000I0J-150000D01*
G01*
G37*
G36*
G01*
X105325000Y-57025000D02*
X105325000Y-57325000D01*
G75*
G02*
X105175000Y-57475000I-150000J0D01*
G01*
X103425000Y-57475000D01*
G75*
G02*
X103275000Y-57325000I0J150000D01*
G01*
X103275000Y-57025000D01*
G75*
G02*
X103425000Y-56875000I150000J0D01*
G01*
X105175000Y-56875000D01*
G75*
G02*
X105325000Y-57025000I0J-150000D01*
G01*
G37*
G36*
G01*
X105325000Y-55755000D02*
X105325000Y-56055000D01*
G75*
G02*
X105175000Y-56205000I-150000J0D01*
G01*
X103425000Y-56205000D01*
G75*
G02*
X103275000Y-56055000I0J150000D01*
G01*
X103275000Y-55755000D01*
G75*
G02*
X103425000Y-55605000I150000J0D01*
G01*
X105175000Y-55605000D01*
G75*
G02*
X105325000Y-55755000I0J-150000D01*
G01*
G37*
G36*
G01*
X96025000Y-55755000D02*
X96025000Y-56055000D01*
G75*
G02*
X95875000Y-56205000I-150000J0D01*
G01*
X94125000Y-56205000D01*
G75*
G02*
X93975000Y-56055000I0J150000D01*
G01*
X93975000Y-55755000D01*
G75*
G02*
X94125000Y-55605000I150000J0D01*
G01*
X95875000Y-55605000D01*
G75*
G02*
X96025000Y-55755000I0J-150000D01*
G01*
G37*
G36*
G01*
X96025000Y-57025000D02*
X96025000Y-57325000D01*
G75*
G02*
X95875000Y-57475000I-150000J0D01*
G01*
X94125000Y-57475000D01*
G75*
G02*
X93975000Y-57325000I0J150000D01*
G01*
X93975000Y-57025000D01*
G75*
G02*
X94125000Y-56875000I150000J0D01*
G01*
X95875000Y-56875000D01*
G75*
G02*
X96025000Y-57025000I0J-150000D01*
G01*
G37*
G36*
G01*
X96025000Y-58295000D02*
X96025000Y-58595000D01*
G75*
G02*
X95875000Y-58745000I-150000J0D01*
G01*
X94125000Y-58745000D01*
G75*
G02*
X93975000Y-58595000I0J150000D01*
G01*
X93975000Y-58295000D01*
G75*
G02*
X94125000Y-58145000I150000J0D01*
G01*
X95875000Y-58145000D01*
G75*
G02*
X96025000Y-58295000I0J-150000D01*
G01*
G37*
G36*
G01*
X96025000Y-59565000D02*
X96025000Y-59865000D01*
G75*
G02*
X95875000Y-60015000I-150000J0D01*
G01*
X94125000Y-60015000D01*
G75*
G02*
X93975000Y-59865000I0J150000D01*
G01*
X93975000Y-59565000D01*
G75*
G02*
X94125000Y-59415000I150000J0D01*
G01*
X95875000Y-59415000D01*
G75*
G02*
X96025000Y-59565000I0J-150000D01*
G01*
G37*
G36*
G01*
X96025000Y-60835000D02*
X96025000Y-61135000D01*
G75*
G02*
X95875000Y-61285000I-150000J0D01*
G01*
X94125000Y-61285000D01*
G75*
G02*
X93975000Y-61135000I0J150000D01*
G01*
X93975000Y-60835000D01*
G75*
G02*
X94125000Y-60685000I150000J0D01*
G01*
X95875000Y-60685000D01*
G75*
G02*
X96025000Y-60835000I0J-150000D01*
G01*
G37*
G36*
G01*
X96025000Y-62105000D02*
X96025000Y-62405000D01*
G75*
G02*
X95875000Y-62555000I-150000J0D01*
G01*
X94125000Y-62555000D01*
G75*
G02*
X93975000Y-62405000I0J150000D01*
G01*
X93975000Y-62105000D01*
G75*
G02*
X94125000Y-61955000I150000J0D01*
G01*
X95875000Y-61955000D01*
G75*
G02*
X96025000Y-62105000I0J-150000D01*
G01*
G37*
G36*
G01*
X96025000Y-63375000D02*
X96025000Y-63675000D01*
G75*
G02*
X95875000Y-63825000I-150000J0D01*
G01*
X94125000Y-63825000D01*
G75*
G02*
X93975000Y-63675000I0J150000D01*
G01*
X93975000Y-63375000D01*
G75*
G02*
X94125000Y-63225000I150000J0D01*
G01*
X95875000Y-63225000D01*
G75*
G02*
X96025000Y-63375000I0J-150000D01*
G01*
G37*
G36*
G01*
X96025000Y-64645000D02*
X96025000Y-64945000D01*
G75*
G02*
X95875000Y-65095000I-150000J0D01*
G01*
X94125000Y-65095000D01*
G75*
G02*
X93975000Y-64945000I0J150000D01*
G01*
X93975000Y-64645000D01*
G75*
G02*
X94125000Y-64495000I150000J0D01*
G01*
X95875000Y-64495000D01*
G75*
G02*
X96025000Y-64645000I0J-150000D01*
G01*
G37*
G36*
G01*
X95625000Y-69025000D02*
X95625000Y-69975000D01*
G75*
G02*
X95375000Y-70225000I-250000J0D01*
G01*
X94700000Y-70225000D01*
G75*
G02*
X94450000Y-69975000I0J250000D01*
G01*
X94450000Y-69025000D01*
G75*
G02*
X94700000Y-68775000I250000J0D01*
G01*
X95375000Y-68775000D01*
G75*
G02*
X95625000Y-69025000I0J-250000D01*
G01*
G37*
G36*
G01*
X93550000Y-69025000D02*
X93550000Y-69975000D01*
G75*
G02*
X93300000Y-70225000I-250000J0D01*
G01*
X92625000Y-70225000D01*
G75*
G02*
X92375000Y-69975000I0J250000D01*
G01*
X92375000Y-69025000D01*
G75*
G02*
X92625000Y-68775000I250000J0D01*
G01*
X93300000Y-68775000D01*
G75*
G02*
X93550000Y-69025000I0J-250000D01*
G01*
G37*
G36*
G01*
X103537500Y-69975000D02*
X103537500Y-69025000D01*
G75*
G02*
X103787500Y-68775000I250000J0D01*
G01*
X104462500Y-68775000D01*
G75*
G02*
X104712500Y-69025000I0J-250000D01*
G01*
X104712500Y-69975000D01*
G75*
G02*
X104462500Y-70225000I-250000J0D01*
G01*
X103787500Y-70225000D01*
G75*
G02*
X103537500Y-69975000I0J250000D01*
G01*
G37*
G36*
G01*
X105612500Y-69975000D02*
X105612500Y-69025000D01*
G75*
G02*
X105862500Y-68775000I250000J0D01*
G01*
X106537500Y-68775000D01*
G75*
G02*
X106787500Y-69025000I0J-250000D01*
G01*
X106787500Y-69975000D01*
G75*
G02*
X106537500Y-70225000I-250000J0D01*
G01*
X105862500Y-70225000D01*
G75*
G02*
X105612500Y-69975000I0J250000D01*
G01*
G37*
G36*
G01*
X109520000Y-57020000D02*
X108620000Y-57020000D01*
G75*
G02*
X108370000Y-56770000I0J250000D01*
G01*
X108370000Y-56070000D01*
G75*
G02*
X108620000Y-55820000I250000J0D01*
G01*
X109520000Y-55820000D01*
G75*
G02*
X109770000Y-56070000I0J-250000D01*
G01*
X109770000Y-56770000D01*
G75*
G02*
X109520000Y-57020000I-250000J0D01*
G01*
G37*
G36*
G01*
X109520000Y-55020000D02*
X108620000Y-55020000D01*
G75*
G02*
X108370000Y-54770000I0J250000D01*
G01*
X108370000Y-54070000D01*
G75*
G02*
X108620000Y-53820000I250000J0D01*
G01*
X109520000Y-53820000D01*
G75*
G02*
X109770000Y-54070000I0J-250000D01*
G01*
X109770000Y-54770000D01*
G75*
G02*
X109520000Y-55020000I-250000J0D01*
G01*
G37*
G36*
G01*
X91000000Y-60300000D02*
X90100000Y-60300000D01*
G75*
G02*
X89850000Y-60050000I0J250000D01*
G01*
X89850000Y-59350000D01*
G75*
G02*
X90100000Y-59100000I250000J0D01*
G01*
X91000000Y-59100000D01*
G75*
G02*
X91250000Y-59350000I0J-250000D01*
G01*
X91250000Y-60050000D01*
G75*
G02*
X91000000Y-60300000I-250000J0D01*
G01*
G37*
G36*
G01*
X91000000Y-58300000D02*
X90100000Y-58300000D01*
G75*
G02*
X89850000Y-58050000I0J250000D01*
G01*
X89850000Y-57350000D01*
G75*
G02*
X90100000Y-57100000I250000J0D01*
G01*
X91000000Y-57100000D01*
G75*
G02*
X91250000Y-57350000I0J-250000D01*
G01*
X91250000Y-58050000D01*
G75*
G02*
X91000000Y-58300000I-250000J0D01*
G01*
G37*
G36*
G01*
X86200000Y-42200000D02*
X87100000Y-42200000D01*
G75*
G02*
X87350000Y-42450000I0J-250000D01*
G01*
X87350000Y-43150000D01*
G75*
G02*
X87100000Y-43400000I-250000J0D01*
G01*
X86200000Y-43400000D01*
G75*
G02*
X85950000Y-43150000I0J250000D01*
G01*
X85950000Y-42450000D01*
G75*
G02*
X86200000Y-42200000I250000J0D01*
G01*
G37*
G36*
G01*
X86200000Y-44200000D02*
X87100000Y-44200000D01*
G75*
G02*
X87350000Y-44450000I0J-250000D01*
G01*
X87350000Y-45150000D01*
G75*
G02*
X87100000Y-45400000I-250000J0D01*
G01*
X86200000Y-45400000D01*
G75*
G02*
X85950000Y-45150000I0J250000D01*
G01*
X85950000Y-44450000D01*
G75*
G02*
X86200000Y-44200000I250000J0D01*
G01*
G37*
G36*
G01*
X108800000Y-62600000D02*
X109700000Y-62600000D01*
G75*
G02*
X109950000Y-62850000I0J-250000D01*
G01*
X109950000Y-63550000D01*
G75*
G02*
X109700000Y-63800000I-250000J0D01*
G01*
X108800000Y-63800000D01*
G75*
G02*
X108550000Y-63550000I0J250000D01*
G01*
X108550000Y-62850000D01*
G75*
G02*
X108800000Y-62600000I250000J0D01*
G01*
G37*
G36*
G01*
X108800000Y-64600000D02*
X109700000Y-64600000D01*
G75*
G02*
X109950000Y-64850000I0J-250000D01*
G01*
X109950000Y-65550000D01*
G75*
G02*
X109700000Y-65800000I-250000J0D01*
G01*
X108800000Y-65800000D01*
G75*
G02*
X108550000Y-65550000I0J250000D01*
G01*
X108550000Y-64850000D01*
G75*
G02*
X108800000Y-64600000I250000J0D01*
G01*
G37*
G36*
G01*
X103525000Y-48275000D02*
X103525000Y-47325000D01*
G75*
G02*
X103775000Y-47075000I250000J0D01*
G01*
X104450000Y-47075000D01*
G75*
G02*
X104700000Y-47325000I0J-250000D01*
G01*
X104700000Y-48275000D01*
G75*
G02*
X104450000Y-48525000I-250000J0D01*
G01*
X103775000Y-48525000D01*
G75*
G02*
X103525000Y-48275000I0J250000D01*
G01*
G37*
G36*
G01*
X105600000Y-48275000D02*
X105600000Y-47325000D01*
G75*
G02*
X105850000Y-47075000I250000J0D01*
G01*
X106525000Y-47075000D01*
G75*
G02*
X106775000Y-47325000I0J-250000D01*
G01*
X106775000Y-48275000D01*
G75*
G02*
X106525000Y-48525000I-250000J0D01*
G01*
X105850000Y-48525000D01*
G75*
G02*
X105600000Y-48275000I0J250000D01*
G01*
G37*
G36*
G01*
X90500000Y-42200000D02*
X91400000Y-42200000D01*
G75*
G02*
X91650000Y-42450000I0J-250000D01*
G01*
X91650000Y-43150000D01*
G75*
G02*
X91400000Y-43400000I-250000J0D01*
G01*
X90500000Y-43400000D01*
G75*
G02*
X90250000Y-43150000I0J250000D01*
G01*
X90250000Y-42450000D01*
G75*
G02*
X90500000Y-42200000I250000J0D01*
G01*
G37*
G36*
G01*
X90500000Y-44200000D02*
X91400000Y-44200000D01*
G75*
G02*
X91650000Y-44450000I0J-250000D01*
G01*
X91650000Y-45150000D01*
G75*
G02*
X91400000Y-45400000I-250000J0D01*
G01*
X90500000Y-45400000D01*
G75*
G02*
X90250000Y-45150000I0J250000D01*
G01*
X90250000Y-44450000D01*
G75*
G02*
X90500000Y-44200000I250000J0D01*
G01*
G37*
D12*
X119760000Y-34700000D03*
G36*
G01*
X90170000Y-39390000D02*
X89270000Y-39390000D01*
G75*
G02*
X89020000Y-39140000I0J250000D01*
G01*
X89020000Y-38440000D01*
G75*
G02*
X89270000Y-38190000I250000J0D01*
G01*
X90170000Y-38190000D01*
G75*
G02*
X90420000Y-38440000I0J-250000D01*
G01*
X90420000Y-39140000D01*
G75*
G02*
X90170000Y-39390000I-250000J0D01*
G01*
G37*
G36*
G01*
X90170000Y-37390000D02*
X89270000Y-37390000D01*
G75*
G02*
X89020000Y-37140000I0J250000D01*
G01*
X89020000Y-36440000D01*
G75*
G02*
X89270000Y-36190000I250000J0D01*
G01*
X90170000Y-36190000D01*
G75*
G02*
X90420000Y-36440000I0J-250000D01*
G01*
X90420000Y-37140000D01*
G75*
G02*
X90170000Y-37390000I-250000J0D01*
G01*
G37*
G36*
G01*
X95625000Y-66675000D02*
X95625000Y-67625000D01*
G75*
G02*
X95375000Y-67875000I-250000J0D01*
G01*
X94700000Y-67875000D01*
G75*
G02*
X94450000Y-67625000I0J250000D01*
G01*
X94450000Y-66675000D01*
G75*
G02*
X94700000Y-66425000I250000J0D01*
G01*
X95375000Y-66425000D01*
G75*
G02*
X95625000Y-66675000I0J-250000D01*
G01*
G37*
G36*
G01*
X93550000Y-66675000D02*
X93550000Y-67625000D01*
G75*
G02*
X93300000Y-67875000I-250000J0D01*
G01*
X92625000Y-67875000D01*
G75*
G02*
X92375000Y-67625000I0J250000D01*
G01*
X92375000Y-66675000D01*
G75*
G02*
X92625000Y-66425000I250000J0D01*
G01*
X93300000Y-66425000D01*
G75*
G02*
X93550000Y-66675000I0J-250000D01*
G01*
G37*
M02*
