G04 #@! TF.GenerationSoftware,KiCad,Pcbnew,(6.0.6)*
G04 #@! TF.CreationDate,2024-05-02T18:48:27+02:00*
G04 #@! TF.ProjectId,digital-isolator-6t2r,64696769-7461-46c2-9d69-736f6c61746f,rev?*
G04 #@! TF.SameCoordinates,Original*
G04 #@! TF.FileFunction,Paste,Top*
G04 #@! TF.FilePolarity,Positive*
%FSLAX46Y46*%
G04 Gerber Fmt 4.6, Leading zero omitted, Abs format (unit mm)*
G04 Created by KiCad (PCBNEW (6.0.6)) date 2024-05-02 18:48:27*
%MOMM*%
%LPD*%
G01*
G04 APERTURE LIST*
G04 Aperture macros list*
%AMRoundRect*
0 Rectangle with rounded corners*
0 $1 Rounding radius*
0 $2 $3 $4 $5 $6 $7 $8 $9 X,Y pos of 4 corners*
0 Add a 4 corners polygon primitive as box body*
4,1,4,$2,$3,$4,$5,$6,$7,$8,$9,$2,$3,0*
0 Add four circle primitives for the rounded corners*
1,1,$1+$1,$2,$3*
1,1,$1+$1,$4,$5*
1,1,$1+$1,$6,$7*
1,1,$1+$1,$8,$9*
0 Add four rect primitives between the rounded corners*
20,1,$1+$1,$2,$3,$4,$5,0*
20,1,$1+$1,$4,$5,$6,$7,0*
20,1,$1+$1,$6,$7,$8,$9,0*
20,1,$1+$1,$8,$9,$2,$3,0*%
G04 Aperture macros list end*
%ADD10RoundRect,0.150000X0.875000X0.150000X-0.875000X0.150000X-0.875000X-0.150000X0.875000X-0.150000X0*%
%ADD11RoundRect,0.250000X0.337500X0.475000X-0.337500X0.475000X-0.337500X-0.475000X0.337500X-0.475000X0*%
%ADD12RoundRect,0.250000X-0.350000X-0.450000X0.350000X-0.450000X0.350000X0.450000X-0.350000X0.450000X0*%
%ADD13RoundRect,0.250000X0.450000X-0.350000X0.450000X0.350000X-0.450000X0.350000X-0.450000X-0.350000X0*%
%ADD14RoundRect,0.250000X-0.337500X-0.475000X0.337500X-0.475000X0.337500X0.475000X-0.337500X0.475000X0*%
%ADD15RoundRect,0.250000X-0.450000X0.350000X-0.450000X-0.350000X0.450000X-0.350000X0.450000X0.350000X0*%
%ADD16RoundRect,0.250000X0.350000X0.450000X-0.350000X0.450000X-0.350000X-0.450000X0.350000X-0.450000X0*%
G04 APERTURE END LIST*
D10*
X104337500Y-45495000D03*
X104337500Y-44225000D03*
X104337500Y-42955000D03*
X104337500Y-41685000D03*
X104337500Y-40415000D03*
X104337500Y-39145000D03*
X104337500Y-37875000D03*
X104337500Y-36605000D03*
X95037500Y-36605000D03*
X95037500Y-37875000D03*
X95037500Y-39145000D03*
X95037500Y-40415000D03*
X95037500Y-41685000D03*
X95037500Y-42955000D03*
X95037500Y-44225000D03*
X95037500Y-45495000D03*
D11*
X95175000Y-50200000D03*
X93100000Y-50200000D03*
D12*
X108194600Y-38023800D03*
X110194600Y-38023800D03*
D13*
X86300000Y-59700000D03*
X86300000Y-57700000D03*
D14*
X104100000Y-50150000D03*
X106175000Y-50150000D03*
D15*
X88750000Y-42800000D03*
X88750000Y-44800000D03*
D13*
X112852200Y-52162200D03*
X112852200Y-54162200D03*
D11*
X95175000Y-47850000D03*
X93100000Y-47850000D03*
D13*
X88450000Y-59700000D03*
X88450000Y-57700000D03*
D14*
X104112500Y-67150000D03*
X106187500Y-67150000D03*
D15*
X113157000Y-42148000D03*
X113157000Y-40148000D03*
X110794800Y-45812200D03*
X110794800Y-47812200D03*
D10*
X104300000Y-64795000D03*
X104300000Y-63525000D03*
X104300000Y-62255000D03*
X104300000Y-60985000D03*
X104300000Y-59715000D03*
X104300000Y-58445000D03*
X104300000Y-57175000D03*
X104300000Y-55905000D03*
X95000000Y-55905000D03*
X95000000Y-57175000D03*
X95000000Y-58445000D03*
X95000000Y-59715000D03*
X95000000Y-60985000D03*
X95000000Y-62255000D03*
X95000000Y-63525000D03*
X95000000Y-64795000D03*
D11*
X95037500Y-69500000D03*
X92962500Y-69500000D03*
D14*
X104125000Y-69500000D03*
X106200000Y-69500000D03*
D13*
X108610400Y-55787800D03*
X108610400Y-53787800D03*
X90550000Y-59700000D03*
X90550000Y-57700000D03*
D15*
X86650000Y-42800000D03*
X86650000Y-44800000D03*
X108966000Y-62296800D03*
X108966000Y-64296800D03*
D14*
X104112500Y-47800000D03*
X106187500Y-47800000D03*
D15*
X90950000Y-42800000D03*
X90950000Y-44800000D03*
D13*
X89720000Y-38790000D03*
X89720000Y-36790000D03*
D11*
X95037500Y-67150000D03*
X92962500Y-67150000D03*
D16*
X106959400Y-33680400D03*
X104959400Y-33680400D03*
D15*
X112572800Y-57115200D03*
X112572800Y-59115200D03*
D16*
X106486200Y-53492400D03*
X104486200Y-53492400D03*
D13*
X90195400Y-53628800D03*
X90195400Y-51628800D03*
D16*
X95081600Y-53746400D03*
X93081600Y-53746400D03*
D12*
X89830000Y-34350000D03*
X91830000Y-34350000D03*
D13*
X110820200Y-43926000D03*
X110820200Y-41926000D03*
M02*
