G04 #@! TF.GenerationSoftware,KiCad,Pcbnew,(6.0.6)*
G04 #@! TF.CreationDate,2023-08-29T14:40:31+02:00*
G04 #@! TF.ProjectId,digital-isolator-6t2r,64696769-7461-46c2-9d69-736f6c61746f,rev?*
G04 #@! TF.SameCoordinates,Original*
G04 #@! TF.FileFunction,Copper,L1,Top*
G04 #@! TF.FilePolarity,Positive*
%FSLAX46Y46*%
G04 Gerber Fmt 4.6, Leading zero omitted, Abs format (unit mm)*
G04 Created by KiCad (PCBNEW (6.0.6)) date 2023-08-29 14:40:31*
%MOMM*%
%LPD*%
G01*
G04 APERTURE LIST*
G04 #@! TA.AperFunction,NonConductor*
%ADD10C,0.200000*%
G04 #@! TD*
G04 #@! TA.AperFunction,ComponentPad*
%ADD11R,1.700000X1.700000*%
G04 #@! TD*
G04 #@! TA.AperFunction,ComponentPad*
%ADD12O,1.700000X1.700000*%
G04 #@! TD*
G04 #@! TA.AperFunction,ViaPad*
%ADD13C,1.400000*%
G04 #@! TD*
G04 #@! TA.AperFunction,Conductor*
%ADD14C,0.300000*%
G04 #@! TD*
G04 #@! TA.AperFunction,Conductor*
%ADD15C,0.250000*%
G04 #@! TD*
G04 APERTURE END LIST*
D10*
X75710000Y-73710000D02*
X75710000Y-31700000D01*
X122810000Y-31700000D02*
X122810000Y-73710000D01*
X122810000Y-73710000D02*
X75710000Y-73710000D01*
X75710000Y-31700000D02*
X122810000Y-31700000D01*
G04 #@! TA.AperFunction,SMDPad,CuDef*
G36*
G01*
X105362500Y-45345000D02*
X105362500Y-45645000D01*
G75*
G02*
X105212500Y-45795000I-150000J0D01*
G01*
X103462500Y-45795000D01*
G75*
G02*
X103312500Y-45645000I0J150000D01*
G01*
X103312500Y-45345000D01*
G75*
G02*
X103462500Y-45195000I150000J0D01*
G01*
X105212500Y-45195000D01*
G75*
G02*
X105362500Y-45345000I0J-150000D01*
G01*
G37*
G04 #@! TD.AperFunction*
G04 #@! TA.AperFunction,SMDPad,CuDef*
G36*
G01*
X105362500Y-44075000D02*
X105362500Y-44375000D01*
G75*
G02*
X105212500Y-44525000I-150000J0D01*
G01*
X103462500Y-44525000D01*
G75*
G02*
X103312500Y-44375000I0J150000D01*
G01*
X103312500Y-44075000D01*
G75*
G02*
X103462500Y-43925000I150000J0D01*
G01*
X105212500Y-43925000D01*
G75*
G02*
X105362500Y-44075000I0J-150000D01*
G01*
G37*
G04 #@! TD.AperFunction*
G04 #@! TA.AperFunction,SMDPad,CuDef*
G36*
G01*
X105362500Y-42805000D02*
X105362500Y-43105000D01*
G75*
G02*
X105212500Y-43255000I-150000J0D01*
G01*
X103462500Y-43255000D01*
G75*
G02*
X103312500Y-43105000I0J150000D01*
G01*
X103312500Y-42805000D01*
G75*
G02*
X103462500Y-42655000I150000J0D01*
G01*
X105212500Y-42655000D01*
G75*
G02*
X105362500Y-42805000I0J-150000D01*
G01*
G37*
G04 #@! TD.AperFunction*
G04 #@! TA.AperFunction,SMDPad,CuDef*
G36*
G01*
X105362500Y-41535000D02*
X105362500Y-41835000D01*
G75*
G02*
X105212500Y-41985000I-150000J0D01*
G01*
X103462500Y-41985000D01*
G75*
G02*
X103312500Y-41835000I0J150000D01*
G01*
X103312500Y-41535000D01*
G75*
G02*
X103462500Y-41385000I150000J0D01*
G01*
X105212500Y-41385000D01*
G75*
G02*
X105362500Y-41535000I0J-150000D01*
G01*
G37*
G04 #@! TD.AperFunction*
G04 #@! TA.AperFunction,SMDPad,CuDef*
G36*
G01*
X105362500Y-40265000D02*
X105362500Y-40565000D01*
G75*
G02*
X105212500Y-40715000I-150000J0D01*
G01*
X103462500Y-40715000D01*
G75*
G02*
X103312500Y-40565000I0J150000D01*
G01*
X103312500Y-40265000D01*
G75*
G02*
X103462500Y-40115000I150000J0D01*
G01*
X105212500Y-40115000D01*
G75*
G02*
X105362500Y-40265000I0J-150000D01*
G01*
G37*
G04 #@! TD.AperFunction*
G04 #@! TA.AperFunction,SMDPad,CuDef*
G36*
G01*
X105362500Y-38995000D02*
X105362500Y-39295000D01*
G75*
G02*
X105212500Y-39445000I-150000J0D01*
G01*
X103462500Y-39445000D01*
G75*
G02*
X103312500Y-39295000I0J150000D01*
G01*
X103312500Y-38995000D01*
G75*
G02*
X103462500Y-38845000I150000J0D01*
G01*
X105212500Y-38845000D01*
G75*
G02*
X105362500Y-38995000I0J-150000D01*
G01*
G37*
G04 #@! TD.AperFunction*
G04 #@! TA.AperFunction,SMDPad,CuDef*
G36*
G01*
X105362500Y-37725000D02*
X105362500Y-38025000D01*
G75*
G02*
X105212500Y-38175000I-150000J0D01*
G01*
X103462500Y-38175000D01*
G75*
G02*
X103312500Y-38025000I0J150000D01*
G01*
X103312500Y-37725000D01*
G75*
G02*
X103462500Y-37575000I150000J0D01*
G01*
X105212500Y-37575000D01*
G75*
G02*
X105362500Y-37725000I0J-150000D01*
G01*
G37*
G04 #@! TD.AperFunction*
G04 #@! TA.AperFunction,SMDPad,CuDef*
G36*
G01*
X105362500Y-36455000D02*
X105362500Y-36755000D01*
G75*
G02*
X105212500Y-36905000I-150000J0D01*
G01*
X103462500Y-36905000D01*
G75*
G02*
X103312500Y-36755000I0J150000D01*
G01*
X103312500Y-36455000D01*
G75*
G02*
X103462500Y-36305000I150000J0D01*
G01*
X105212500Y-36305000D01*
G75*
G02*
X105362500Y-36455000I0J-150000D01*
G01*
G37*
G04 #@! TD.AperFunction*
G04 #@! TA.AperFunction,SMDPad,CuDef*
G36*
G01*
X96062500Y-36455000D02*
X96062500Y-36755000D01*
G75*
G02*
X95912500Y-36905000I-150000J0D01*
G01*
X94162500Y-36905000D01*
G75*
G02*
X94012500Y-36755000I0J150000D01*
G01*
X94012500Y-36455000D01*
G75*
G02*
X94162500Y-36305000I150000J0D01*
G01*
X95912500Y-36305000D01*
G75*
G02*
X96062500Y-36455000I0J-150000D01*
G01*
G37*
G04 #@! TD.AperFunction*
G04 #@! TA.AperFunction,SMDPad,CuDef*
G36*
G01*
X96062500Y-37725000D02*
X96062500Y-38025000D01*
G75*
G02*
X95912500Y-38175000I-150000J0D01*
G01*
X94162500Y-38175000D01*
G75*
G02*
X94012500Y-38025000I0J150000D01*
G01*
X94012500Y-37725000D01*
G75*
G02*
X94162500Y-37575000I150000J0D01*
G01*
X95912500Y-37575000D01*
G75*
G02*
X96062500Y-37725000I0J-150000D01*
G01*
G37*
G04 #@! TD.AperFunction*
G04 #@! TA.AperFunction,SMDPad,CuDef*
G36*
G01*
X96062500Y-38995000D02*
X96062500Y-39295000D01*
G75*
G02*
X95912500Y-39445000I-150000J0D01*
G01*
X94162500Y-39445000D01*
G75*
G02*
X94012500Y-39295000I0J150000D01*
G01*
X94012500Y-38995000D01*
G75*
G02*
X94162500Y-38845000I150000J0D01*
G01*
X95912500Y-38845000D01*
G75*
G02*
X96062500Y-38995000I0J-150000D01*
G01*
G37*
G04 #@! TD.AperFunction*
G04 #@! TA.AperFunction,SMDPad,CuDef*
G36*
G01*
X96062500Y-40265000D02*
X96062500Y-40565000D01*
G75*
G02*
X95912500Y-40715000I-150000J0D01*
G01*
X94162500Y-40715000D01*
G75*
G02*
X94012500Y-40565000I0J150000D01*
G01*
X94012500Y-40265000D01*
G75*
G02*
X94162500Y-40115000I150000J0D01*
G01*
X95912500Y-40115000D01*
G75*
G02*
X96062500Y-40265000I0J-150000D01*
G01*
G37*
G04 #@! TD.AperFunction*
G04 #@! TA.AperFunction,SMDPad,CuDef*
G36*
G01*
X96062500Y-41535000D02*
X96062500Y-41835000D01*
G75*
G02*
X95912500Y-41985000I-150000J0D01*
G01*
X94162500Y-41985000D01*
G75*
G02*
X94012500Y-41835000I0J150000D01*
G01*
X94012500Y-41535000D01*
G75*
G02*
X94162500Y-41385000I150000J0D01*
G01*
X95912500Y-41385000D01*
G75*
G02*
X96062500Y-41535000I0J-150000D01*
G01*
G37*
G04 #@! TD.AperFunction*
G04 #@! TA.AperFunction,SMDPad,CuDef*
G36*
G01*
X96062500Y-42805000D02*
X96062500Y-43105000D01*
G75*
G02*
X95912500Y-43255000I-150000J0D01*
G01*
X94162500Y-43255000D01*
G75*
G02*
X94012500Y-43105000I0J150000D01*
G01*
X94012500Y-42805000D01*
G75*
G02*
X94162500Y-42655000I150000J0D01*
G01*
X95912500Y-42655000D01*
G75*
G02*
X96062500Y-42805000I0J-150000D01*
G01*
G37*
G04 #@! TD.AperFunction*
G04 #@! TA.AperFunction,SMDPad,CuDef*
G36*
G01*
X96062500Y-44075000D02*
X96062500Y-44375000D01*
G75*
G02*
X95912500Y-44525000I-150000J0D01*
G01*
X94162500Y-44525000D01*
G75*
G02*
X94012500Y-44375000I0J150000D01*
G01*
X94012500Y-44075000D01*
G75*
G02*
X94162500Y-43925000I150000J0D01*
G01*
X95912500Y-43925000D01*
G75*
G02*
X96062500Y-44075000I0J-150000D01*
G01*
G37*
G04 #@! TD.AperFunction*
G04 #@! TA.AperFunction,SMDPad,CuDef*
G36*
G01*
X96062500Y-45345000D02*
X96062500Y-45645000D01*
G75*
G02*
X95912500Y-45795000I-150000J0D01*
G01*
X94162500Y-45795000D01*
G75*
G02*
X94012500Y-45645000I0J150000D01*
G01*
X94012500Y-45345000D01*
G75*
G02*
X94162500Y-45195000I150000J0D01*
G01*
X95912500Y-45195000D01*
G75*
G02*
X96062500Y-45345000I0J-150000D01*
G01*
G37*
G04 #@! TD.AperFunction*
G04 #@! TA.AperFunction,SMDPad,CuDef*
G36*
G01*
X95762500Y-49725000D02*
X95762500Y-50675000D01*
G75*
G02*
X95512500Y-50925000I-250000J0D01*
G01*
X94837500Y-50925000D01*
G75*
G02*
X94587500Y-50675000I0J250000D01*
G01*
X94587500Y-49725000D01*
G75*
G02*
X94837500Y-49475000I250000J0D01*
G01*
X95512500Y-49475000D01*
G75*
G02*
X95762500Y-49725000I0J-250000D01*
G01*
G37*
G04 #@! TD.AperFunction*
G04 #@! TA.AperFunction,SMDPad,CuDef*
G36*
G01*
X93687500Y-49725000D02*
X93687500Y-50675000D01*
G75*
G02*
X93437500Y-50925000I-250000J0D01*
G01*
X92762500Y-50925000D01*
G75*
G02*
X92512500Y-50675000I0J250000D01*
G01*
X92512500Y-49725000D01*
G75*
G02*
X92762500Y-49475000I250000J0D01*
G01*
X93437500Y-49475000D01*
G75*
G02*
X93687500Y-49725000I0J-250000D01*
G01*
G37*
G04 #@! TD.AperFunction*
G04 #@! TA.AperFunction,SMDPad,CuDef*
G36*
G01*
X109800000Y-37100000D02*
X108900000Y-37100000D01*
G75*
G02*
X108650000Y-36850000I0J250000D01*
G01*
X108650000Y-36150000D01*
G75*
G02*
X108900000Y-35900000I250000J0D01*
G01*
X109800000Y-35900000D01*
G75*
G02*
X110050000Y-36150000I0J-250000D01*
G01*
X110050000Y-36850000D01*
G75*
G02*
X109800000Y-37100000I-250000J0D01*
G01*
G37*
G04 #@! TD.AperFunction*
G04 #@! TA.AperFunction,SMDPad,CuDef*
G36*
G01*
X109800000Y-35100000D02*
X108900000Y-35100000D01*
G75*
G02*
X108650000Y-34850000I0J250000D01*
G01*
X108650000Y-34150000D01*
G75*
G02*
X108900000Y-33900000I250000J0D01*
G01*
X109800000Y-33900000D01*
G75*
G02*
X110050000Y-34150000I0J-250000D01*
G01*
X110050000Y-34850000D01*
G75*
G02*
X109800000Y-35100000I-250000J0D01*
G01*
G37*
G04 #@! TD.AperFunction*
G04 #@! TA.AperFunction,SMDPad,CuDef*
G36*
G01*
X86750000Y-60300000D02*
X85850000Y-60300000D01*
G75*
G02*
X85600000Y-60050000I0J250000D01*
G01*
X85600000Y-59350000D01*
G75*
G02*
X85850000Y-59100000I250000J0D01*
G01*
X86750000Y-59100000D01*
G75*
G02*
X87000000Y-59350000I0J-250000D01*
G01*
X87000000Y-60050000D01*
G75*
G02*
X86750000Y-60300000I-250000J0D01*
G01*
G37*
G04 #@! TD.AperFunction*
G04 #@! TA.AperFunction,SMDPad,CuDef*
G36*
G01*
X86750000Y-58300000D02*
X85850000Y-58300000D01*
G75*
G02*
X85600000Y-58050000I0J250000D01*
G01*
X85600000Y-57350000D01*
G75*
G02*
X85850000Y-57100000I250000J0D01*
G01*
X86750000Y-57100000D01*
G75*
G02*
X87000000Y-57350000I0J-250000D01*
G01*
X87000000Y-58050000D01*
G75*
G02*
X86750000Y-58300000I-250000J0D01*
G01*
G37*
G04 #@! TD.AperFunction*
G04 #@! TA.AperFunction,SMDPad,CuDef*
G36*
G01*
X103512500Y-50625000D02*
X103512500Y-49675000D01*
G75*
G02*
X103762500Y-49425000I250000J0D01*
G01*
X104437500Y-49425000D01*
G75*
G02*
X104687500Y-49675000I0J-250000D01*
G01*
X104687500Y-50625000D01*
G75*
G02*
X104437500Y-50875000I-250000J0D01*
G01*
X103762500Y-50875000D01*
G75*
G02*
X103512500Y-50625000I0J250000D01*
G01*
G37*
G04 #@! TD.AperFunction*
G04 #@! TA.AperFunction,SMDPad,CuDef*
G36*
G01*
X105587500Y-50625000D02*
X105587500Y-49675000D01*
G75*
G02*
X105837500Y-49425000I250000J0D01*
G01*
X106512500Y-49425000D01*
G75*
G02*
X106762500Y-49675000I0J-250000D01*
G01*
X106762500Y-50625000D01*
G75*
G02*
X106512500Y-50875000I-250000J0D01*
G01*
X105837500Y-50875000D01*
G75*
G02*
X105587500Y-50625000I0J250000D01*
G01*
G37*
G04 #@! TD.AperFunction*
D11*
X116200000Y-43825000D03*
D12*
X118740000Y-43825000D03*
X116200000Y-46365000D03*
X118740000Y-46365000D03*
X116200000Y-48905000D03*
X118740000Y-48905000D03*
X116200000Y-51445000D03*
X118740000Y-51445000D03*
X116200000Y-53985000D03*
X118740000Y-53985000D03*
X116200000Y-56525000D03*
X118740000Y-56525000D03*
X116200000Y-59065000D03*
X118740000Y-59065000D03*
X116200000Y-61605000D03*
X118740000Y-61605000D03*
G04 #@! TA.AperFunction,SMDPad,CuDef*
G36*
G01*
X88300000Y-42200000D02*
X89200000Y-42200000D01*
G75*
G02*
X89450000Y-42450000I0J-250000D01*
G01*
X89450000Y-43150000D01*
G75*
G02*
X89200000Y-43400000I-250000J0D01*
G01*
X88300000Y-43400000D01*
G75*
G02*
X88050000Y-43150000I0J250000D01*
G01*
X88050000Y-42450000D01*
G75*
G02*
X88300000Y-42200000I250000J0D01*
G01*
G37*
G04 #@! TD.AperFunction*
G04 #@! TA.AperFunction,SMDPad,CuDef*
G36*
G01*
X88300000Y-44200000D02*
X89200000Y-44200000D01*
G75*
G02*
X89450000Y-44450000I0J-250000D01*
G01*
X89450000Y-45150000D01*
G75*
G02*
X89200000Y-45400000I-250000J0D01*
G01*
X88300000Y-45400000D01*
G75*
G02*
X88050000Y-45150000I0J250000D01*
G01*
X88050000Y-44450000D01*
G75*
G02*
X88300000Y-44200000I250000J0D01*
G01*
G37*
G04 #@! TD.AperFunction*
G04 #@! TA.AperFunction,SMDPad,CuDef*
G36*
G01*
X111820000Y-57020000D02*
X110920000Y-57020000D01*
G75*
G02*
X110670000Y-56770000I0J250000D01*
G01*
X110670000Y-56070000D01*
G75*
G02*
X110920000Y-55820000I250000J0D01*
G01*
X111820000Y-55820000D01*
G75*
G02*
X112070000Y-56070000I0J-250000D01*
G01*
X112070000Y-56770000D01*
G75*
G02*
X111820000Y-57020000I-250000J0D01*
G01*
G37*
G04 #@! TD.AperFunction*
G04 #@! TA.AperFunction,SMDPad,CuDef*
G36*
G01*
X111820000Y-55020000D02*
X110920000Y-55020000D01*
G75*
G02*
X110670000Y-54770000I0J250000D01*
G01*
X110670000Y-54070000D01*
G75*
G02*
X110920000Y-53820000I250000J0D01*
G01*
X111820000Y-53820000D01*
G75*
G02*
X112070000Y-54070000I0J-250000D01*
G01*
X112070000Y-54770000D01*
G75*
G02*
X111820000Y-55020000I-250000J0D01*
G01*
G37*
G04 #@! TD.AperFunction*
G04 #@! TA.AperFunction,SMDPad,CuDef*
G36*
G01*
X95762500Y-47375000D02*
X95762500Y-48325000D01*
G75*
G02*
X95512500Y-48575000I-250000J0D01*
G01*
X94837500Y-48575000D01*
G75*
G02*
X94587500Y-48325000I0J250000D01*
G01*
X94587500Y-47375000D01*
G75*
G02*
X94837500Y-47125000I250000J0D01*
G01*
X95512500Y-47125000D01*
G75*
G02*
X95762500Y-47375000I0J-250000D01*
G01*
G37*
G04 #@! TD.AperFunction*
G04 #@! TA.AperFunction,SMDPad,CuDef*
G36*
G01*
X93687500Y-47375000D02*
X93687500Y-48325000D01*
G75*
G02*
X93437500Y-48575000I-250000J0D01*
G01*
X92762500Y-48575000D01*
G75*
G02*
X92512500Y-48325000I0J250000D01*
G01*
X92512500Y-47375000D01*
G75*
G02*
X92762500Y-47125000I250000J0D01*
G01*
X93437500Y-47125000D01*
G75*
G02*
X93687500Y-47375000I0J-250000D01*
G01*
G37*
G04 #@! TD.AperFunction*
G04 #@! TA.AperFunction,SMDPad,CuDef*
G36*
G01*
X88900000Y-60300000D02*
X88000000Y-60300000D01*
G75*
G02*
X87750000Y-60050000I0J250000D01*
G01*
X87750000Y-59350000D01*
G75*
G02*
X88000000Y-59100000I250000J0D01*
G01*
X88900000Y-59100000D01*
G75*
G02*
X89150000Y-59350000I0J-250000D01*
G01*
X89150000Y-60050000D01*
G75*
G02*
X88900000Y-60300000I-250000J0D01*
G01*
G37*
G04 #@! TD.AperFunction*
G04 #@! TA.AperFunction,SMDPad,CuDef*
G36*
G01*
X88900000Y-58300000D02*
X88000000Y-58300000D01*
G75*
G02*
X87750000Y-58050000I0J250000D01*
G01*
X87750000Y-57350000D01*
G75*
G02*
X88000000Y-57100000I250000J0D01*
G01*
X88900000Y-57100000D01*
G75*
G02*
X89150000Y-57350000I0J-250000D01*
G01*
X89150000Y-58050000D01*
G75*
G02*
X88900000Y-58300000I-250000J0D01*
G01*
G37*
G04 #@! TD.AperFunction*
G04 #@! TA.AperFunction,SMDPad,CuDef*
G36*
G01*
X103525000Y-67625000D02*
X103525000Y-66675000D01*
G75*
G02*
X103775000Y-66425000I250000J0D01*
G01*
X104450000Y-66425000D01*
G75*
G02*
X104700000Y-66675000I0J-250000D01*
G01*
X104700000Y-67625000D01*
G75*
G02*
X104450000Y-67875000I-250000J0D01*
G01*
X103775000Y-67875000D01*
G75*
G02*
X103525000Y-67625000I0J250000D01*
G01*
G37*
G04 #@! TD.AperFunction*
G04 #@! TA.AperFunction,SMDPad,CuDef*
G36*
G01*
X105600000Y-67625000D02*
X105600000Y-66675000D01*
G75*
G02*
X105850000Y-66425000I250000J0D01*
G01*
X106525000Y-66425000D01*
G75*
G02*
X106775000Y-66675000I0J-250000D01*
G01*
X106775000Y-67625000D01*
G75*
G02*
X106525000Y-67875000I-250000J0D01*
G01*
X105850000Y-67875000D01*
G75*
G02*
X105600000Y-67625000I0J250000D01*
G01*
G37*
G04 #@! TD.AperFunction*
G04 #@! TA.AperFunction,SMDPad,CuDef*
G36*
G01*
X109800000Y-41050000D02*
X108900000Y-41050000D01*
G75*
G02*
X108650000Y-40800000I0J250000D01*
G01*
X108650000Y-40100000D01*
G75*
G02*
X108900000Y-39850000I250000J0D01*
G01*
X109800000Y-39850000D01*
G75*
G02*
X110050000Y-40100000I0J-250000D01*
G01*
X110050000Y-40800000D01*
G75*
G02*
X109800000Y-41050000I-250000J0D01*
G01*
G37*
G04 #@! TD.AperFunction*
G04 #@! TA.AperFunction,SMDPad,CuDef*
G36*
G01*
X109800000Y-39050000D02*
X108900000Y-39050000D01*
G75*
G02*
X108650000Y-38800000I0J250000D01*
G01*
X108650000Y-38100000D01*
G75*
G02*
X108900000Y-37850000I250000J0D01*
G01*
X109800000Y-37850000D01*
G75*
G02*
X110050000Y-38100000I0J-250000D01*
G01*
X110050000Y-38800000D01*
G75*
G02*
X109800000Y-39050000I-250000J0D01*
G01*
G37*
G04 #@! TD.AperFunction*
D11*
X82350000Y-61575000D03*
D12*
X79810000Y-61575000D03*
X82350000Y-59035000D03*
X79810000Y-59035000D03*
X82350000Y-56495000D03*
X79810000Y-56495000D03*
X82350000Y-53955000D03*
X79810000Y-53955000D03*
X82350000Y-51415000D03*
X79810000Y-51415000D03*
X82350000Y-48875000D03*
X79810000Y-48875000D03*
X82350000Y-46335000D03*
X79810000Y-46335000D03*
X82350000Y-43795000D03*
X79810000Y-43795000D03*
G04 #@! TA.AperFunction,SMDPad,CuDef*
G36*
G01*
X108700000Y-43200000D02*
X109600000Y-43200000D01*
G75*
G02*
X109850000Y-43450000I0J-250000D01*
G01*
X109850000Y-44150000D01*
G75*
G02*
X109600000Y-44400000I-250000J0D01*
G01*
X108700000Y-44400000D01*
G75*
G02*
X108450000Y-44150000I0J250000D01*
G01*
X108450000Y-43450000D01*
G75*
G02*
X108700000Y-43200000I250000J0D01*
G01*
G37*
G04 #@! TD.AperFunction*
G04 #@! TA.AperFunction,SMDPad,CuDef*
G36*
G01*
X108700000Y-45200000D02*
X109600000Y-45200000D01*
G75*
G02*
X109850000Y-45450000I0J-250000D01*
G01*
X109850000Y-46150000D01*
G75*
G02*
X109600000Y-46400000I-250000J0D01*
G01*
X108700000Y-46400000D01*
G75*
G02*
X108450000Y-46150000I0J250000D01*
G01*
X108450000Y-45450000D01*
G75*
G02*
X108700000Y-45200000I250000J0D01*
G01*
G37*
G04 #@! TD.AperFunction*
G04 #@! TA.AperFunction,SMDPad,CuDef*
G36*
G01*
X105325000Y-64645000D02*
X105325000Y-64945000D01*
G75*
G02*
X105175000Y-65095000I-150000J0D01*
G01*
X103425000Y-65095000D01*
G75*
G02*
X103275000Y-64945000I0J150000D01*
G01*
X103275000Y-64645000D01*
G75*
G02*
X103425000Y-64495000I150000J0D01*
G01*
X105175000Y-64495000D01*
G75*
G02*
X105325000Y-64645000I0J-150000D01*
G01*
G37*
G04 #@! TD.AperFunction*
G04 #@! TA.AperFunction,SMDPad,CuDef*
G36*
G01*
X105325000Y-63375000D02*
X105325000Y-63675000D01*
G75*
G02*
X105175000Y-63825000I-150000J0D01*
G01*
X103425000Y-63825000D01*
G75*
G02*
X103275000Y-63675000I0J150000D01*
G01*
X103275000Y-63375000D01*
G75*
G02*
X103425000Y-63225000I150000J0D01*
G01*
X105175000Y-63225000D01*
G75*
G02*
X105325000Y-63375000I0J-150000D01*
G01*
G37*
G04 #@! TD.AperFunction*
G04 #@! TA.AperFunction,SMDPad,CuDef*
G36*
G01*
X105325000Y-62105000D02*
X105325000Y-62405000D01*
G75*
G02*
X105175000Y-62555000I-150000J0D01*
G01*
X103425000Y-62555000D01*
G75*
G02*
X103275000Y-62405000I0J150000D01*
G01*
X103275000Y-62105000D01*
G75*
G02*
X103425000Y-61955000I150000J0D01*
G01*
X105175000Y-61955000D01*
G75*
G02*
X105325000Y-62105000I0J-150000D01*
G01*
G37*
G04 #@! TD.AperFunction*
G04 #@! TA.AperFunction,SMDPad,CuDef*
G36*
G01*
X105325000Y-60835000D02*
X105325000Y-61135000D01*
G75*
G02*
X105175000Y-61285000I-150000J0D01*
G01*
X103425000Y-61285000D01*
G75*
G02*
X103275000Y-61135000I0J150000D01*
G01*
X103275000Y-60835000D01*
G75*
G02*
X103425000Y-60685000I150000J0D01*
G01*
X105175000Y-60685000D01*
G75*
G02*
X105325000Y-60835000I0J-150000D01*
G01*
G37*
G04 #@! TD.AperFunction*
G04 #@! TA.AperFunction,SMDPad,CuDef*
G36*
G01*
X105325000Y-59565000D02*
X105325000Y-59865000D01*
G75*
G02*
X105175000Y-60015000I-150000J0D01*
G01*
X103425000Y-60015000D01*
G75*
G02*
X103275000Y-59865000I0J150000D01*
G01*
X103275000Y-59565000D01*
G75*
G02*
X103425000Y-59415000I150000J0D01*
G01*
X105175000Y-59415000D01*
G75*
G02*
X105325000Y-59565000I0J-150000D01*
G01*
G37*
G04 #@! TD.AperFunction*
G04 #@! TA.AperFunction,SMDPad,CuDef*
G36*
G01*
X105325000Y-58295000D02*
X105325000Y-58595000D01*
G75*
G02*
X105175000Y-58745000I-150000J0D01*
G01*
X103425000Y-58745000D01*
G75*
G02*
X103275000Y-58595000I0J150000D01*
G01*
X103275000Y-58295000D01*
G75*
G02*
X103425000Y-58145000I150000J0D01*
G01*
X105175000Y-58145000D01*
G75*
G02*
X105325000Y-58295000I0J-150000D01*
G01*
G37*
G04 #@! TD.AperFunction*
G04 #@! TA.AperFunction,SMDPad,CuDef*
G36*
G01*
X105325000Y-57025000D02*
X105325000Y-57325000D01*
G75*
G02*
X105175000Y-57475000I-150000J0D01*
G01*
X103425000Y-57475000D01*
G75*
G02*
X103275000Y-57325000I0J150000D01*
G01*
X103275000Y-57025000D01*
G75*
G02*
X103425000Y-56875000I150000J0D01*
G01*
X105175000Y-56875000D01*
G75*
G02*
X105325000Y-57025000I0J-150000D01*
G01*
G37*
G04 #@! TD.AperFunction*
G04 #@! TA.AperFunction,SMDPad,CuDef*
G36*
G01*
X105325000Y-55755000D02*
X105325000Y-56055000D01*
G75*
G02*
X105175000Y-56205000I-150000J0D01*
G01*
X103425000Y-56205000D01*
G75*
G02*
X103275000Y-56055000I0J150000D01*
G01*
X103275000Y-55755000D01*
G75*
G02*
X103425000Y-55605000I150000J0D01*
G01*
X105175000Y-55605000D01*
G75*
G02*
X105325000Y-55755000I0J-150000D01*
G01*
G37*
G04 #@! TD.AperFunction*
G04 #@! TA.AperFunction,SMDPad,CuDef*
G36*
G01*
X96025000Y-55755000D02*
X96025000Y-56055000D01*
G75*
G02*
X95875000Y-56205000I-150000J0D01*
G01*
X94125000Y-56205000D01*
G75*
G02*
X93975000Y-56055000I0J150000D01*
G01*
X93975000Y-55755000D01*
G75*
G02*
X94125000Y-55605000I150000J0D01*
G01*
X95875000Y-55605000D01*
G75*
G02*
X96025000Y-55755000I0J-150000D01*
G01*
G37*
G04 #@! TD.AperFunction*
G04 #@! TA.AperFunction,SMDPad,CuDef*
G36*
G01*
X96025000Y-57025000D02*
X96025000Y-57325000D01*
G75*
G02*
X95875000Y-57475000I-150000J0D01*
G01*
X94125000Y-57475000D01*
G75*
G02*
X93975000Y-57325000I0J150000D01*
G01*
X93975000Y-57025000D01*
G75*
G02*
X94125000Y-56875000I150000J0D01*
G01*
X95875000Y-56875000D01*
G75*
G02*
X96025000Y-57025000I0J-150000D01*
G01*
G37*
G04 #@! TD.AperFunction*
G04 #@! TA.AperFunction,SMDPad,CuDef*
G36*
G01*
X96025000Y-58295000D02*
X96025000Y-58595000D01*
G75*
G02*
X95875000Y-58745000I-150000J0D01*
G01*
X94125000Y-58745000D01*
G75*
G02*
X93975000Y-58595000I0J150000D01*
G01*
X93975000Y-58295000D01*
G75*
G02*
X94125000Y-58145000I150000J0D01*
G01*
X95875000Y-58145000D01*
G75*
G02*
X96025000Y-58295000I0J-150000D01*
G01*
G37*
G04 #@! TD.AperFunction*
G04 #@! TA.AperFunction,SMDPad,CuDef*
G36*
G01*
X96025000Y-59565000D02*
X96025000Y-59865000D01*
G75*
G02*
X95875000Y-60015000I-150000J0D01*
G01*
X94125000Y-60015000D01*
G75*
G02*
X93975000Y-59865000I0J150000D01*
G01*
X93975000Y-59565000D01*
G75*
G02*
X94125000Y-59415000I150000J0D01*
G01*
X95875000Y-59415000D01*
G75*
G02*
X96025000Y-59565000I0J-150000D01*
G01*
G37*
G04 #@! TD.AperFunction*
G04 #@! TA.AperFunction,SMDPad,CuDef*
G36*
G01*
X96025000Y-60835000D02*
X96025000Y-61135000D01*
G75*
G02*
X95875000Y-61285000I-150000J0D01*
G01*
X94125000Y-61285000D01*
G75*
G02*
X93975000Y-61135000I0J150000D01*
G01*
X93975000Y-60835000D01*
G75*
G02*
X94125000Y-60685000I150000J0D01*
G01*
X95875000Y-60685000D01*
G75*
G02*
X96025000Y-60835000I0J-150000D01*
G01*
G37*
G04 #@! TD.AperFunction*
G04 #@! TA.AperFunction,SMDPad,CuDef*
G36*
G01*
X96025000Y-62105000D02*
X96025000Y-62405000D01*
G75*
G02*
X95875000Y-62555000I-150000J0D01*
G01*
X94125000Y-62555000D01*
G75*
G02*
X93975000Y-62405000I0J150000D01*
G01*
X93975000Y-62105000D01*
G75*
G02*
X94125000Y-61955000I150000J0D01*
G01*
X95875000Y-61955000D01*
G75*
G02*
X96025000Y-62105000I0J-150000D01*
G01*
G37*
G04 #@! TD.AperFunction*
G04 #@! TA.AperFunction,SMDPad,CuDef*
G36*
G01*
X96025000Y-63375000D02*
X96025000Y-63675000D01*
G75*
G02*
X95875000Y-63825000I-150000J0D01*
G01*
X94125000Y-63825000D01*
G75*
G02*
X93975000Y-63675000I0J150000D01*
G01*
X93975000Y-63375000D01*
G75*
G02*
X94125000Y-63225000I150000J0D01*
G01*
X95875000Y-63225000D01*
G75*
G02*
X96025000Y-63375000I0J-150000D01*
G01*
G37*
G04 #@! TD.AperFunction*
G04 #@! TA.AperFunction,SMDPad,CuDef*
G36*
G01*
X96025000Y-64645000D02*
X96025000Y-64945000D01*
G75*
G02*
X95875000Y-65095000I-150000J0D01*
G01*
X94125000Y-65095000D01*
G75*
G02*
X93975000Y-64945000I0J150000D01*
G01*
X93975000Y-64645000D01*
G75*
G02*
X94125000Y-64495000I150000J0D01*
G01*
X95875000Y-64495000D01*
G75*
G02*
X96025000Y-64645000I0J-150000D01*
G01*
G37*
G04 #@! TD.AperFunction*
G04 #@! TA.AperFunction,SMDPad,CuDef*
G36*
G01*
X95625000Y-69025000D02*
X95625000Y-69975000D01*
G75*
G02*
X95375000Y-70225000I-250000J0D01*
G01*
X94700000Y-70225000D01*
G75*
G02*
X94450000Y-69975000I0J250000D01*
G01*
X94450000Y-69025000D01*
G75*
G02*
X94700000Y-68775000I250000J0D01*
G01*
X95375000Y-68775000D01*
G75*
G02*
X95625000Y-69025000I0J-250000D01*
G01*
G37*
G04 #@! TD.AperFunction*
G04 #@! TA.AperFunction,SMDPad,CuDef*
G36*
G01*
X93550000Y-69025000D02*
X93550000Y-69975000D01*
G75*
G02*
X93300000Y-70225000I-250000J0D01*
G01*
X92625000Y-70225000D01*
G75*
G02*
X92375000Y-69975000I0J250000D01*
G01*
X92375000Y-69025000D01*
G75*
G02*
X92625000Y-68775000I250000J0D01*
G01*
X93300000Y-68775000D01*
G75*
G02*
X93550000Y-69025000I0J-250000D01*
G01*
G37*
G04 #@! TD.AperFunction*
G04 #@! TA.AperFunction,SMDPad,CuDef*
G36*
G01*
X103537500Y-69975000D02*
X103537500Y-69025000D01*
G75*
G02*
X103787500Y-68775000I250000J0D01*
G01*
X104462500Y-68775000D01*
G75*
G02*
X104712500Y-69025000I0J-250000D01*
G01*
X104712500Y-69975000D01*
G75*
G02*
X104462500Y-70225000I-250000J0D01*
G01*
X103787500Y-70225000D01*
G75*
G02*
X103537500Y-69975000I0J250000D01*
G01*
G37*
G04 #@! TD.AperFunction*
G04 #@! TA.AperFunction,SMDPad,CuDef*
G36*
G01*
X105612500Y-69975000D02*
X105612500Y-69025000D01*
G75*
G02*
X105862500Y-68775000I250000J0D01*
G01*
X106537500Y-68775000D01*
G75*
G02*
X106787500Y-69025000I0J-250000D01*
G01*
X106787500Y-69975000D01*
G75*
G02*
X106537500Y-70225000I-250000J0D01*
G01*
X105862500Y-70225000D01*
G75*
G02*
X105612500Y-69975000I0J250000D01*
G01*
G37*
G04 #@! TD.AperFunction*
G04 #@! TA.AperFunction,SMDPad,CuDef*
G36*
G01*
X109520000Y-57020000D02*
X108620000Y-57020000D01*
G75*
G02*
X108370000Y-56770000I0J250000D01*
G01*
X108370000Y-56070000D01*
G75*
G02*
X108620000Y-55820000I250000J0D01*
G01*
X109520000Y-55820000D01*
G75*
G02*
X109770000Y-56070000I0J-250000D01*
G01*
X109770000Y-56770000D01*
G75*
G02*
X109520000Y-57020000I-250000J0D01*
G01*
G37*
G04 #@! TD.AperFunction*
G04 #@! TA.AperFunction,SMDPad,CuDef*
G36*
G01*
X109520000Y-55020000D02*
X108620000Y-55020000D01*
G75*
G02*
X108370000Y-54770000I0J250000D01*
G01*
X108370000Y-54070000D01*
G75*
G02*
X108620000Y-53820000I250000J0D01*
G01*
X109520000Y-53820000D01*
G75*
G02*
X109770000Y-54070000I0J-250000D01*
G01*
X109770000Y-54770000D01*
G75*
G02*
X109520000Y-55020000I-250000J0D01*
G01*
G37*
G04 #@! TD.AperFunction*
G04 #@! TA.AperFunction,SMDPad,CuDef*
G36*
G01*
X91000000Y-60300000D02*
X90100000Y-60300000D01*
G75*
G02*
X89850000Y-60050000I0J250000D01*
G01*
X89850000Y-59350000D01*
G75*
G02*
X90100000Y-59100000I250000J0D01*
G01*
X91000000Y-59100000D01*
G75*
G02*
X91250000Y-59350000I0J-250000D01*
G01*
X91250000Y-60050000D01*
G75*
G02*
X91000000Y-60300000I-250000J0D01*
G01*
G37*
G04 #@! TD.AperFunction*
G04 #@! TA.AperFunction,SMDPad,CuDef*
G36*
G01*
X91000000Y-58300000D02*
X90100000Y-58300000D01*
G75*
G02*
X89850000Y-58050000I0J250000D01*
G01*
X89850000Y-57350000D01*
G75*
G02*
X90100000Y-57100000I250000J0D01*
G01*
X91000000Y-57100000D01*
G75*
G02*
X91250000Y-57350000I0J-250000D01*
G01*
X91250000Y-58050000D01*
G75*
G02*
X91000000Y-58300000I-250000J0D01*
G01*
G37*
G04 #@! TD.AperFunction*
G04 #@! TA.AperFunction,SMDPad,CuDef*
G36*
G01*
X86200000Y-42200000D02*
X87100000Y-42200000D01*
G75*
G02*
X87350000Y-42450000I0J-250000D01*
G01*
X87350000Y-43150000D01*
G75*
G02*
X87100000Y-43400000I-250000J0D01*
G01*
X86200000Y-43400000D01*
G75*
G02*
X85950000Y-43150000I0J250000D01*
G01*
X85950000Y-42450000D01*
G75*
G02*
X86200000Y-42200000I250000J0D01*
G01*
G37*
G04 #@! TD.AperFunction*
G04 #@! TA.AperFunction,SMDPad,CuDef*
G36*
G01*
X86200000Y-44200000D02*
X87100000Y-44200000D01*
G75*
G02*
X87350000Y-44450000I0J-250000D01*
G01*
X87350000Y-45150000D01*
G75*
G02*
X87100000Y-45400000I-250000J0D01*
G01*
X86200000Y-45400000D01*
G75*
G02*
X85950000Y-45150000I0J250000D01*
G01*
X85950000Y-44450000D01*
G75*
G02*
X86200000Y-44200000I250000J0D01*
G01*
G37*
G04 #@! TD.AperFunction*
G04 #@! TA.AperFunction,SMDPad,CuDef*
G36*
G01*
X108800000Y-62600000D02*
X109700000Y-62600000D01*
G75*
G02*
X109950000Y-62850000I0J-250000D01*
G01*
X109950000Y-63550000D01*
G75*
G02*
X109700000Y-63800000I-250000J0D01*
G01*
X108800000Y-63800000D01*
G75*
G02*
X108550000Y-63550000I0J250000D01*
G01*
X108550000Y-62850000D01*
G75*
G02*
X108800000Y-62600000I250000J0D01*
G01*
G37*
G04 #@! TD.AperFunction*
G04 #@! TA.AperFunction,SMDPad,CuDef*
G36*
G01*
X108800000Y-64600000D02*
X109700000Y-64600000D01*
G75*
G02*
X109950000Y-64850000I0J-250000D01*
G01*
X109950000Y-65550000D01*
G75*
G02*
X109700000Y-65800000I-250000J0D01*
G01*
X108800000Y-65800000D01*
G75*
G02*
X108550000Y-65550000I0J250000D01*
G01*
X108550000Y-64850000D01*
G75*
G02*
X108800000Y-64600000I250000J0D01*
G01*
G37*
G04 #@! TD.AperFunction*
G04 #@! TA.AperFunction,SMDPad,CuDef*
G36*
G01*
X103525000Y-48275000D02*
X103525000Y-47325000D01*
G75*
G02*
X103775000Y-47075000I250000J0D01*
G01*
X104450000Y-47075000D01*
G75*
G02*
X104700000Y-47325000I0J-250000D01*
G01*
X104700000Y-48275000D01*
G75*
G02*
X104450000Y-48525000I-250000J0D01*
G01*
X103775000Y-48525000D01*
G75*
G02*
X103525000Y-48275000I0J250000D01*
G01*
G37*
G04 #@! TD.AperFunction*
G04 #@! TA.AperFunction,SMDPad,CuDef*
G36*
G01*
X105600000Y-48275000D02*
X105600000Y-47325000D01*
G75*
G02*
X105850000Y-47075000I250000J0D01*
G01*
X106525000Y-47075000D01*
G75*
G02*
X106775000Y-47325000I0J-250000D01*
G01*
X106775000Y-48275000D01*
G75*
G02*
X106525000Y-48525000I-250000J0D01*
G01*
X105850000Y-48525000D01*
G75*
G02*
X105600000Y-48275000I0J250000D01*
G01*
G37*
G04 #@! TD.AperFunction*
G04 #@! TA.AperFunction,SMDPad,CuDef*
G36*
G01*
X90500000Y-42200000D02*
X91400000Y-42200000D01*
G75*
G02*
X91650000Y-42450000I0J-250000D01*
G01*
X91650000Y-43150000D01*
G75*
G02*
X91400000Y-43400000I-250000J0D01*
G01*
X90500000Y-43400000D01*
G75*
G02*
X90250000Y-43150000I0J250000D01*
G01*
X90250000Y-42450000D01*
G75*
G02*
X90500000Y-42200000I250000J0D01*
G01*
G37*
G04 #@! TD.AperFunction*
G04 #@! TA.AperFunction,SMDPad,CuDef*
G36*
G01*
X90500000Y-44200000D02*
X91400000Y-44200000D01*
G75*
G02*
X91650000Y-44450000I0J-250000D01*
G01*
X91650000Y-45150000D01*
G75*
G02*
X91400000Y-45400000I-250000J0D01*
G01*
X90500000Y-45400000D01*
G75*
G02*
X90250000Y-45150000I0J250000D01*
G01*
X90250000Y-44450000D01*
G75*
G02*
X90500000Y-44200000I250000J0D01*
G01*
G37*
G04 #@! TD.AperFunction*
G04 #@! TA.AperFunction,SMDPad,CuDef*
G36*
G01*
X90170000Y-39390000D02*
X89270000Y-39390000D01*
G75*
G02*
X89020000Y-39140000I0J250000D01*
G01*
X89020000Y-38440000D01*
G75*
G02*
X89270000Y-38190000I250000J0D01*
G01*
X90170000Y-38190000D01*
G75*
G02*
X90420000Y-38440000I0J-250000D01*
G01*
X90420000Y-39140000D01*
G75*
G02*
X90170000Y-39390000I-250000J0D01*
G01*
G37*
G04 #@! TD.AperFunction*
G04 #@! TA.AperFunction,SMDPad,CuDef*
G36*
G01*
X90170000Y-37390000D02*
X89270000Y-37390000D01*
G75*
G02*
X89020000Y-37140000I0J250000D01*
G01*
X89020000Y-36440000D01*
G75*
G02*
X89270000Y-36190000I250000J0D01*
G01*
X90170000Y-36190000D01*
G75*
G02*
X90420000Y-36440000I0J-250000D01*
G01*
X90420000Y-37140000D01*
G75*
G02*
X90170000Y-37390000I-250000J0D01*
G01*
G37*
G04 #@! TD.AperFunction*
G04 #@! TA.AperFunction,SMDPad,CuDef*
G36*
G01*
X95625000Y-66675000D02*
X95625000Y-67625000D01*
G75*
G02*
X95375000Y-67875000I-250000J0D01*
G01*
X94700000Y-67875000D01*
G75*
G02*
X94450000Y-67625000I0J250000D01*
G01*
X94450000Y-66675000D01*
G75*
G02*
X94700000Y-66425000I250000J0D01*
G01*
X95375000Y-66425000D01*
G75*
G02*
X95625000Y-66675000I0J-250000D01*
G01*
G37*
G04 #@! TD.AperFunction*
G04 #@! TA.AperFunction,SMDPad,CuDef*
G36*
G01*
X93550000Y-66675000D02*
X93550000Y-67625000D01*
G75*
G02*
X93300000Y-67875000I-250000J0D01*
G01*
X92625000Y-67875000D01*
G75*
G02*
X92375000Y-67625000I0J250000D01*
G01*
X92375000Y-66675000D01*
G75*
G02*
X92625000Y-66425000I250000J0D01*
G01*
X93300000Y-66425000D01*
G75*
G02*
X93550000Y-66675000I0J-250000D01*
G01*
G37*
G04 #@! TD.AperFunction*
D13*
X110100000Y-50750000D03*
X109350000Y-38450000D03*
X109200000Y-67650000D03*
X104500000Y-34390000D03*
X104510000Y-53590000D03*
X109150000Y-47900000D03*
X111400000Y-54430000D03*
X88850000Y-49100000D03*
X84600000Y-40550000D03*
X90750000Y-64150000D03*
X95000000Y-34390000D03*
X94600000Y-53900000D03*
X90800000Y-67100000D03*
X93100000Y-47800000D03*
X88750000Y-52350000D03*
X107450000Y-61050000D03*
X107050000Y-41700000D03*
X107020000Y-53640000D03*
X91740000Y-54010000D03*
X112970000Y-33730000D03*
X91830000Y-34350000D03*
D14*
X104100000Y-51150000D02*
X104100000Y-50150000D01*
X105050000Y-71550000D02*
X104125000Y-70625000D01*
X104125000Y-69500000D02*
X104125000Y-67162500D01*
X104112500Y-67150000D02*
X104112500Y-64982500D01*
X104100000Y-47812500D02*
X104112500Y-47800000D01*
X112470000Y-71550000D02*
X105050000Y-71550000D01*
X104125000Y-70625000D02*
X104125000Y-69500000D01*
X104112500Y-45720000D02*
X104337500Y-45495000D01*
X104112500Y-47800000D02*
X104112500Y-45720000D01*
X110100000Y-50750000D02*
X108850000Y-50750000D01*
X104125000Y-67162500D02*
X104112500Y-67150000D01*
X116200000Y-59065000D02*
X117465000Y-57800000D01*
X104112500Y-64982500D02*
X104300000Y-64795000D01*
X120350000Y-58500000D02*
X120350000Y-63670000D01*
X117465000Y-57800000D02*
X119650000Y-57800000D01*
X120350000Y-63670000D02*
X112470000Y-71550000D01*
X108850000Y-50750000D02*
X107700000Y-51900000D01*
X119650000Y-57800000D02*
X120350000Y-58500000D01*
X104850000Y-51900000D02*
X104100000Y-51150000D01*
X107700000Y-51900000D02*
X104850000Y-51900000D01*
X104100000Y-50150000D02*
X104100000Y-47812500D01*
X104300000Y-63525000D02*
X105575000Y-63525000D01*
X105575000Y-63525000D02*
X106600000Y-64550000D01*
X84500000Y-59800000D02*
X84500000Y-68550000D01*
X95175000Y-47850000D02*
X95175000Y-45632500D01*
X87650000Y-71700000D02*
X94150000Y-71700000D01*
X91600000Y-51850000D02*
X94550000Y-51850000D01*
X88850000Y-49100000D02*
X91600000Y-51850000D01*
X95037500Y-67150000D02*
X95037500Y-64832500D01*
X95175000Y-50200000D02*
X95175000Y-47850000D01*
X94150000Y-71700000D02*
X95037500Y-70812500D01*
X95037500Y-64832500D02*
X95000000Y-64795000D01*
X95175000Y-45632500D02*
X95037500Y-45495000D01*
X83735000Y-59035000D02*
X84500000Y-59800000D01*
X94550000Y-51850000D02*
X95175000Y-51225000D01*
X95175000Y-51225000D02*
X95175000Y-50200000D01*
X95037500Y-69500000D02*
X95037500Y-67150000D01*
X84500000Y-68550000D02*
X87650000Y-71700000D01*
X82350000Y-59035000D02*
X83735000Y-59035000D01*
X95037500Y-70812500D02*
X95037500Y-69500000D01*
X86650000Y-44800000D02*
X83355000Y-44800000D01*
X83355000Y-44800000D02*
X82350000Y-43795000D01*
X82350000Y-46335000D02*
X88065000Y-46335000D01*
X88065000Y-46335000D02*
X88750000Y-45650000D01*
X88750000Y-45650000D02*
X88750000Y-44800000D01*
X82925000Y-48875000D02*
X84600000Y-47200000D01*
X84600000Y-47200000D02*
X89750000Y-47200000D01*
X90950000Y-46000000D02*
X90950000Y-44800000D01*
X89750000Y-47200000D02*
X90950000Y-46000000D01*
X82350000Y-48875000D02*
X82925000Y-48875000D01*
X89710000Y-38800000D02*
X82700000Y-38800000D01*
X82700000Y-38800000D02*
X81100000Y-40400000D01*
X90075000Y-39145000D02*
X89720000Y-38790000D01*
X95037500Y-39145000D02*
X90075000Y-39145000D01*
X89720000Y-38790000D02*
X89710000Y-38800000D01*
X81100000Y-47585000D02*
X79810000Y-48875000D01*
X81100000Y-40400000D02*
X81100000Y-47585000D01*
X82350000Y-51415000D02*
X83135000Y-52200000D01*
X85640000Y-52200000D02*
X90550000Y-57110000D01*
X90550000Y-57110000D02*
X90550000Y-57700000D01*
X83135000Y-52200000D02*
X85640000Y-52200000D01*
X88750000Y-53530000D02*
X93665000Y-58445000D01*
X84150000Y-50750000D02*
X83550000Y-50150000D01*
X88750000Y-52350000D02*
X88750000Y-53530000D01*
X83550000Y-50150000D02*
X81075000Y-50150000D01*
X81075000Y-50150000D02*
X79810000Y-51415000D01*
X88750000Y-52350000D02*
X87150000Y-50750000D01*
X87150000Y-50750000D02*
X84150000Y-50750000D01*
X93665000Y-58445000D02*
X95000000Y-58445000D01*
X88450000Y-56860000D02*
X88450000Y-57700000D01*
X83345000Y-54950000D02*
X86540000Y-54950000D01*
X86540000Y-54950000D02*
X88450000Y-56860000D01*
X82350000Y-53955000D02*
X83345000Y-54950000D01*
X83555000Y-57700000D02*
X86300000Y-57700000D01*
X82350000Y-56495000D02*
X83555000Y-57700000D01*
X109525000Y-63200000D02*
X116200000Y-56525000D01*
X109200000Y-63250000D02*
X109250000Y-63200000D01*
X104300000Y-62255000D02*
X105555000Y-62255000D01*
X106550000Y-63250000D02*
X109200000Y-63250000D01*
X109250000Y-63200000D02*
X109525000Y-63200000D01*
X105555000Y-62255000D02*
X106550000Y-63250000D01*
X109135000Y-61050000D02*
X107450000Y-61050000D01*
X107450000Y-61050000D02*
X104365000Y-61050000D01*
X116200000Y-53985000D02*
X109135000Y-61050000D01*
X104365000Y-61050000D02*
X104300000Y-60985000D01*
X104415000Y-59600000D02*
X108190000Y-59600000D01*
X111370000Y-56420000D02*
X111370000Y-56380000D01*
X108190000Y-59600000D02*
X111370000Y-56420000D01*
X104300000Y-59715000D02*
X104415000Y-59600000D01*
X116200000Y-51550000D02*
X116200000Y-51445000D01*
X111370000Y-56380000D02*
X116200000Y-51550000D01*
X109070000Y-53610000D02*
X109920000Y-52760000D01*
X115198971Y-50200000D02*
X117495000Y-50200000D01*
X112638971Y-52760000D02*
X115198971Y-50200000D01*
X117495000Y-50200000D02*
X118740000Y-51445000D01*
X109920000Y-52760000D02*
X112638971Y-52760000D01*
X109070000Y-54420000D02*
X109070000Y-53610000D01*
X108450000Y-43100000D02*
X109150000Y-43800000D01*
X110500000Y-43800000D02*
X115605000Y-48905000D01*
X115605000Y-48905000D02*
X116200000Y-48905000D01*
X109150000Y-43800000D02*
X110500000Y-43800000D01*
X104337500Y-42955000D02*
X104482500Y-43100000D01*
X104482500Y-43100000D02*
X108450000Y-43100000D01*
X117501077Y-41651077D02*
X110350000Y-34500000D01*
X118740000Y-48905000D02*
X117501077Y-47666077D01*
X117501077Y-47666077D02*
X117501077Y-41651077D01*
X110350000Y-34500000D02*
X109350000Y-34500000D01*
X107050000Y-41700000D02*
X104352500Y-41700000D01*
X107300000Y-41950000D02*
X111785000Y-41950000D01*
X111785000Y-41950000D02*
X116200000Y-46365000D01*
X104352500Y-41700000D02*
X104337500Y-41685000D01*
X107050000Y-41700000D02*
X107300000Y-41950000D01*
X112825000Y-40450000D02*
X116200000Y-43825000D01*
X109200000Y-40300000D02*
X109350000Y-40450000D01*
X109350000Y-40450000D02*
X112825000Y-40450000D01*
X104337500Y-40415000D02*
X104452500Y-40300000D01*
X104452500Y-40300000D02*
X109200000Y-40300000D01*
X86450000Y-60540000D02*
X88165000Y-62255000D01*
X86300000Y-59700000D02*
X86450000Y-59850000D01*
X88165000Y-62255000D02*
X95000000Y-62255000D01*
X86450000Y-59850000D02*
X86450000Y-60540000D01*
D15*
X104300000Y-58445000D02*
X105805000Y-58445000D01*
X105805000Y-58445000D02*
X107830000Y-56420000D01*
X107830000Y-56420000D02*
X109070000Y-56420000D01*
D14*
X88450000Y-60510000D02*
X88450000Y-59700000D01*
X94885000Y-61100000D02*
X89040000Y-61100000D01*
X95000000Y-60985000D02*
X94885000Y-61100000D01*
X89040000Y-61100000D02*
X88450000Y-60510000D01*
X94985000Y-59700000D02*
X90550000Y-59700000D01*
X95000000Y-59715000D02*
X94985000Y-59700000D01*
X95037500Y-42955000D02*
X91105000Y-42955000D01*
X91105000Y-42955000D02*
X90950000Y-42800000D01*
X108450000Y-36500000D02*
X109350000Y-36500000D01*
X104337500Y-39145000D02*
X105805000Y-39145000D01*
X105805000Y-39145000D02*
X108450000Y-36500000D01*
X88750000Y-42050000D02*
X89115000Y-41685000D01*
X89115000Y-41685000D02*
X95037500Y-41685000D01*
X88750000Y-42800000D02*
X88750000Y-42050000D01*
X88735000Y-40415000D02*
X95037500Y-40415000D01*
X86650000Y-42800000D02*
X86650000Y-42500000D01*
X86650000Y-42500000D02*
X88735000Y-40415000D01*
X104300000Y-57175000D02*
X105335000Y-57175000D01*
X105335000Y-57175000D02*
X107020000Y-55490000D01*
X107020000Y-55490000D02*
X107020000Y-53640000D01*
X95000000Y-57175000D02*
X93745000Y-57175000D01*
X91740000Y-55170000D02*
X91740000Y-54010000D01*
X93745000Y-57175000D02*
X91740000Y-55170000D01*
X112200000Y-32960000D02*
X112970000Y-33730000D01*
X105585000Y-37875000D02*
X106930000Y-36530000D01*
X107790000Y-32960000D02*
X112200000Y-32960000D01*
X104337500Y-37875000D02*
X105585000Y-37875000D01*
X106930000Y-36530000D02*
X106930000Y-33820000D01*
X106930000Y-33820000D02*
X107790000Y-32960000D01*
X91830000Y-36740000D02*
X91830000Y-34350000D01*
X95037500Y-37875000D02*
X92965000Y-37875000D01*
X92965000Y-37875000D02*
X91830000Y-36740000D01*
G04 #@! TA.AperFunction,Conductor*
G36*
X95896288Y-32319454D02*
G01*
X95977070Y-32373430D01*
X96031046Y-32454212D01*
X96050000Y-32549500D01*
X96050000Y-35556000D01*
X96031046Y-35651288D01*
X95977070Y-35732070D01*
X95896288Y-35786046D01*
X95801000Y-35805000D01*
X95312027Y-35805000D01*
X95291569Y-35809069D01*
X95287500Y-35829527D01*
X95287500Y-36606000D01*
X95268546Y-36701288D01*
X95214570Y-36782070D01*
X95133788Y-36836046D01*
X95038500Y-36855000D01*
X93539731Y-36855000D01*
X93519273Y-36859069D01*
X93518092Y-36865010D01*
X93518385Y-36866616D01*
X93516858Y-36963759D01*
X93478273Y-37052923D01*
X93408503Y-37120534D01*
X93318170Y-37156299D01*
X93221027Y-37154772D01*
X93131863Y-37116187D01*
X93097366Y-37087420D01*
X92553430Y-36543484D01*
X92499454Y-36462702D01*
X92480500Y-36367414D01*
X92480500Y-36342515D01*
X93518544Y-36342515D01*
X93519580Y-36351263D01*
X93532831Y-36355000D01*
X94762973Y-36355000D01*
X94783431Y-36350931D01*
X94787500Y-36330473D01*
X94787500Y-35829527D01*
X94783431Y-35809069D01*
X94762973Y-35805000D01*
X94101755Y-35805000D01*
X94091970Y-35805385D01*
X94072699Y-35806901D01*
X94047787Y-35811451D01*
X93917344Y-35849348D01*
X93888820Y-35861691D01*
X93774427Y-35929343D01*
X93749869Y-35948392D01*
X93655892Y-36042369D01*
X93636843Y-36066927D01*
X93569191Y-36181320D01*
X93556848Y-36209844D01*
X93518951Y-36340286D01*
X93518544Y-36342515D01*
X92480500Y-36342515D01*
X92480500Y-35487308D01*
X92499454Y-35392020D01*
X92553430Y-35311238D01*
X92570279Y-35295867D01*
X92673736Y-35209822D01*
X92682518Y-35202518D01*
X92823602Y-35032884D01*
X92931410Y-34840379D01*
X92965013Y-34741388D01*
X92998661Y-34642265D01*
X92998662Y-34642260D01*
X93002331Y-34631452D01*
X93033991Y-34413098D01*
X93035643Y-34350000D01*
X93015454Y-34130289D01*
X92955565Y-33917936D01*
X92857980Y-33720053D01*
X92725967Y-33543267D01*
X92563949Y-33393499D01*
X92524766Y-33368776D01*
X92387007Y-33281857D01*
X92387006Y-33281857D01*
X92377350Y-33275764D01*
X92366750Y-33271535D01*
X92366746Y-33271533D01*
X92183025Y-33198236D01*
X92183020Y-33198234D01*
X92172421Y-33194006D01*
X92119624Y-33183504D01*
X91967216Y-33153188D01*
X91967214Y-33153188D01*
X91956024Y-33150962D01*
X91836275Y-33149394D01*
X91746812Y-33148223D01*
X91746809Y-33148223D01*
X91735406Y-33148074D01*
X91641747Y-33164167D01*
X91529210Y-33183504D01*
X91529206Y-33183505D01*
X91517957Y-33185438D01*
X91438603Y-33214713D01*
X91321666Y-33257853D01*
X91321664Y-33257854D01*
X91310957Y-33261804D01*
X91121341Y-33374614D01*
X91112756Y-33382143D01*
X90964038Y-33512564D01*
X90964034Y-33512568D01*
X90955457Y-33520090D01*
X90818863Y-33693360D01*
X90716131Y-33888620D01*
X90650703Y-34099333D01*
X90624770Y-34318440D01*
X90639200Y-34538604D01*
X90642009Y-34549665D01*
X90642010Y-34549670D01*
X90665527Y-34642265D01*
X90693511Y-34752452D01*
X90785883Y-34952821D01*
X90913222Y-35133002D01*
X91071264Y-35286961D01*
X91080750Y-35293300D01*
X91087203Y-35298525D01*
X91149327Y-35373222D01*
X91178136Y-35466007D01*
X91179500Y-35492032D01*
X91179500Y-35787570D01*
X91160546Y-35882858D01*
X91106570Y-35963640D01*
X91025788Y-36017616D01*
X90930500Y-36036570D01*
X90835212Y-36017616D01*
X90754584Y-35963793D01*
X90648239Y-35857633D01*
X90625683Y-35839819D01*
X90501433Y-35763230D01*
X90475394Y-35751088D01*
X90336034Y-35704865D01*
X90309598Y-35699197D01*
X90226154Y-35690647D01*
X90213485Y-35690000D01*
X89994527Y-35690000D01*
X89974069Y-35694069D01*
X89970000Y-35714527D01*
X89970000Y-36791000D01*
X89951046Y-36886288D01*
X89897070Y-36967070D01*
X89816288Y-37021046D01*
X89721000Y-37040000D01*
X88544528Y-37040000D01*
X88524070Y-37044069D01*
X88520001Y-37064527D01*
X88520001Y-37183391D01*
X88520666Y-37196240D01*
X88529445Y-37280868D01*
X88535163Y-37307339D01*
X88581622Y-37446594D01*
X88593811Y-37472615D01*
X88670618Y-37596734D01*
X88697451Y-37630589D01*
X88695295Y-37632298D01*
X88736771Y-37694252D01*
X88755810Y-37789523D01*
X88736941Y-37884828D01*
X88694377Y-37948655D01*
X88696203Y-37950097D01*
X88687235Y-37961452D01*
X88677016Y-37971689D01*
X88640359Y-38031158D01*
X88574226Y-38102327D01*
X88485889Y-38142771D01*
X88428394Y-38149500D01*
X82776493Y-38149500D01*
X82770564Y-38149220D01*
X82761704Y-38147240D01*
X82724948Y-38148395D01*
X82693697Y-38149377D01*
X82685876Y-38149500D01*
X82659075Y-38149500D01*
X82651329Y-38150478D01*
X82647945Y-38150691D01*
X82640146Y-38151059D01*
X82623423Y-38151585D01*
X82597431Y-38152402D01*
X82582383Y-38156774D01*
X82575354Y-38157887D01*
X82559379Y-38161195D01*
X82552484Y-38162965D01*
X82536942Y-38164929D01*
X82499989Y-38179560D01*
X82477788Y-38187161D01*
X82454649Y-38193883D01*
X82454645Y-38193885D01*
X82439602Y-38198255D01*
X82426120Y-38206228D01*
X82419581Y-38209058D01*
X82404944Y-38216229D01*
X82398691Y-38219666D01*
X82384129Y-38225432D01*
X82351958Y-38248805D01*
X82332366Y-38261674D01*
X82311618Y-38273944D01*
X82311613Y-38273948D01*
X82298135Y-38281919D01*
X82287064Y-38292990D01*
X82281442Y-38297351D01*
X82269052Y-38307933D01*
X82263843Y-38312825D01*
X82251163Y-38322037D01*
X82241176Y-38334109D01*
X82241173Y-38334112D01*
X82225827Y-38352663D01*
X82210039Y-38370015D01*
X80694109Y-39885945D01*
X80689726Y-39889933D01*
X80682060Y-39894798D01*
X80671335Y-39906219D01*
X80635507Y-39944372D01*
X80630064Y-39949990D01*
X80611089Y-39968965D01*
X80606291Y-39975150D01*
X80604067Y-39977673D01*
X80598805Y-39983456D01*
X80569552Y-40014607D01*
X80562006Y-40028334D01*
X80557820Y-40034095D01*
X80548868Y-40047723D01*
X80545241Y-40053857D01*
X80535638Y-40066236D01*
X80529417Y-40080613D01*
X80519853Y-40102714D01*
X80509532Y-40123781D01*
X80497920Y-40144904D01*
X80490373Y-40158632D01*
X80486479Y-40173800D01*
X80483854Y-40180429D01*
X80478576Y-40195847D01*
X80476584Y-40202702D01*
X80470365Y-40217074D01*
X80467915Y-40232539D01*
X80467914Y-40232544D01*
X80464146Y-40256337D01*
X80459389Y-40279306D01*
X80449500Y-40317823D01*
X80449500Y-40333487D01*
X80448607Y-40340557D01*
X80447328Y-40356805D01*
X80447104Y-40363931D01*
X80444653Y-40379405D01*
X80446127Y-40394998D01*
X80446127Y-40395000D01*
X80448395Y-40418989D01*
X80449500Y-40442423D01*
X80449500Y-42244228D01*
X80430546Y-42339516D01*
X80376570Y-42420298D01*
X80295788Y-42474274D01*
X80200500Y-42493228D01*
X80136053Y-42484743D01*
X80083690Y-42470712D01*
X80062877Y-42469348D01*
X80060989Y-42473175D01*
X80060000Y-42480689D01*
X80060000Y-46336000D01*
X80041046Y-46431288D01*
X79987070Y-46512070D01*
X79906288Y-46566046D01*
X79811000Y-46585000D01*
X78503891Y-46585000D01*
X78483433Y-46589069D01*
X78482600Y-46593257D01*
X78483590Y-46600771D01*
X78533754Y-46787985D01*
X78541166Y-46808348D01*
X78631805Y-47002725D01*
X78642635Y-47021482D01*
X78765653Y-47197170D01*
X78779576Y-47213764D01*
X78931239Y-47365427D01*
X78947826Y-47379345D01*
X78978362Y-47400727D01*
X79045546Y-47470909D01*
X79080758Y-47561459D01*
X79078637Y-47658591D01*
X79039508Y-47747517D01*
X78978363Y-47808662D01*
X78938599Y-47836505D01*
X78771505Y-48003599D01*
X78635965Y-48197171D01*
X78631369Y-48207027D01*
X78550132Y-48381240D01*
X78536097Y-48411337D01*
X78474937Y-48639592D01*
X78454341Y-48875000D01*
X78455289Y-48885835D01*
X78473782Y-49097201D01*
X78474937Y-49110408D01*
X78536097Y-49338663D01*
X78540691Y-49348516D01*
X78540693Y-49348520D01*
X78612474Y-49502452D01*
X78635965Y-49552829D01*
X78771505Y-49746401D01*
X78938599Y-49913495D01*
X78947501Y-49919728D01*
X78947503Y-49919730D01*
X78977923Y-49941030D01*
X79045108Y-50011211D01*
X79080321Y-50101760D01*
X79078202Y-50198892D01*
X79039074Y-50287819D01*
X78977926Y-50348968D01*
X78938599Y-50376505D01*
X78771505Y-50543599D01*
X78635965Y-50737171D01*
X78631369Y-50747027D01*
X78555810Y-50909063D01*
X78536097Y-50951337D01*
X78474937Y-51179592D01*
X78473989Y-51190425D01*
X78473989Y-51190426D01*
X78469747Y-51238911D01*
X78454341Y-51415000D01*
X78474937Y-51650408D01*
X78536097Y-51878663D01*
X78635965Y-52092829D01*
X78771505Y-52286401D01*
X78938599Y-52453495D01*
X78947501Y-52459728D01*
X78947503Y-52459730D01*
X78978362Y-52481338D01*
X79045545Y-52551520D01*
X79080757Y-52642069D01*
X79078637Y-52739201D01*
X79039508Y-52828128D01*
X78978361Y-52889274D01*
X78947833Y-52910650D01*
X78931236Y-52924576D01*
X78779576Y-53076236D01*
X78765653Y-53092830D01*
X78642635Y-53268518D01*
X78631805Y-53287275D01*
X78541166Y-53481652D01*
X78533754Y-53502015D01*
X78485712Y-53681309D01*
X78484348Y-53702123D01*
X78488175Y-53704011D01*
X78495689Y-53705000D01*
X79811000Y-53705000D01*
X79906288Y-53723954D01*
X79987070Y-53777930D01*
X80041046Y-53858712D01*
X80060000Y-53954000D01*
X80060000Y-62881109D01*
X80064069Y-62901567D01*
X80068257Y-62902400D01*
X80075771Y-62901410D01*
X80262986Y-62851246D01*
X80283343Y-62843837D01*
X80477732Y-62753192D01*
X80496478Y-62742369D01*
X80672172Y-62619346D01*
X80686648Y-62607199D01*
X80771826Y-62560468D01*
X80868404Y-62549890D01*
X80961678Y-62577076D01*
X81037448Y-62637887D01*
X81054732Y-62663178D01*
X81056474Y-62667824D01*
X81142454Y-62782546D01*
X81257176Y-62868526D01*
X81273787Y-62874753D01*
X81376804Y-62913372D01*
X81376805Y-62913372D01*
X81391420Y-62918851D01*
X81452623Y-62925500D01*
X82349400Y-62925500D01*
X83247376Y-62925499D01*
X83308580Y-62918851D01*
X83442824Y-62868526D01*
X83457019Y-62857887D01*
X83472580Y-62849368D01*
X83473727Y-62851464D01*
X83538777Y-62820294D01*
X83635790Y-62815036D01*
X83727430Y-62847304D01*
X83799746Y-62912184D01*
X83841729Y-62999800D01*
X83849500Y-63061523D01*
X83849500Y-68473508D01*
X83849220Y-68479436D01*
X83847240Y-68488296D01*
X83847732Y-68503952D01*
X83849377Y-68556289D01*
X83849500Y-68564111D01*
X83849500Y-68590925D01*
X83850480Y-68598685D01*
X83850693Y-68602072D01*
X83851061Y-68609875D01*
X83852403Y-68652569D01*
X83856774Y-68667614D01*
X83857892Y-68674672D01*
X83861193Y-68690611D01*
X83862966Y-68697515D01*
X83864929Y-68713058D01*
X83870697Y-68727626D01*
X83879563Y-68750017D01*
X83887164Y-68772218D01*
X83898256Y-68810398D01*
X83906232Y-68823885D01*
X83909066Y-68830434D01*
X83916231Y-68845060D01*
X83919666Y-68851309D01*
X83925432Y-68865871D01*
X83934637Y-68878541D01*
X83934639Y-68878544D01*
X83948802Y-68898037D01*
X83961677Y-68917638D01*
X83981919Y-68951865D01*
X83992997Y-68962943D01*
X83997361Y-68968569D01*
X84007933Y-68980948D01*
X84012825Y-68986157D01*
X84022037Y-68998837D01*
X84034109Y-69008824D01*
X84034112Y-69008827D01*
X84052663Y-69024173D01*
X84070015Y-69039961D01*
X87135945Y-72105891D01*
X87139933Y-72110274D01*
X87144798Y-72117940D01*
X87156219Y-72128665D01*
X87194372Y-72164493D01*
X87199990Y-72169936D01*
X87218966Y-72188912D01*
X87225148Y-72193707D01*
X87227645Y-72195908D01*
X87233440Y-72201180D01*
X87251438Y-72218081D01*
X87264607Y-72230448D01*
X87278334Y-72237995D01*
X87284092Y-72242178D01*
X87297724Y-72251133D01*
X87303855Y-72254759D01*
X87316237Y-72264363D01*
X87330621Y-72270587D01*
X87330622Y-72270588D01*
X87352727Y-72280154D01*
X87373791Y-72290473D01*
X87408632Y-72309627D01*
X87423806Y-72313523D01*
X87430428Y-72316145D01*
X87445850Y-72321425D01*
X87452695Y-72323414D01*
X87467074Y-72329636D01*
X87482547Y-72332087D01*
X87482551Y-72332088D01*
X87506337Y-72335855D01*
X87529309Y-72340612D01*
X87552647Y-72346604D01*
X87552650Y-72346604D01*
X87567823Y-72350500D01*
X87583490Y-72350500D01*
X87590560Y-72351393D01*
X87606815Y-72352672D01*
X87613929Y-72352896D01*
X87629405Y-72355347D01*
X87644999Y-72353873D01*
X87645001Y-72353873D01*
X87668991Y-72351605D01*
X87692424Y-72350500D01*
X94073508Y-72350500D01*
X94079436Y-72350780D01*
X94088296Y-72352760D01*
X94103952Y-72352268D01*
X94156289Y-72350623D01*
X94164111Y-72350500D01*
X94190925Y-72350500D01*
X94198685Y-72349520D01*
X94202072Y-72349307D01*
X94209875Y-72348939D01*
X94252569Y-72347597D01*
X94267614Y-72343226D01*
X94274672Y-72342108D01*
X94290611Y-72338807D01*
X94297515Y-72337034D01*
X94313058Y-72335071D01*
X94350025Y-72320434D01*
X94372218Y-72312836D01*
X94395350Y-72306116D01*
X94395353Y-72306115D01*
X94410398Y-72301744D01*
X94423885Y-72293768D01*
X94430434Y-72290934D01*
X94445060Y-72283769D01*
X94451309Y-72280334D01*
X94465871Y-72274568D01*
X94478541Y-72265363D01*
X94478544Y-72265361D01*
X94498037Y-72251198D01*
X94517638Y-72238323D01*
X94551865Y-72218081D01*
X94562943Y-72207003D01*
X94568569Y-72202639D01*
X94580948Y-72192067D01*
X94586157Y-72187175D01*
X94598837Y-72177963D01*
X94608824Y-72165891D01*
X94608827Y-72165888D01*
X94624173Y-72147337D01*
X94639961Y-72129985D01*
X95443391Y-71326555D01*
X95447774Y-71322567D01*
X95455440Y-71317702D01*
X95501994Y-71268127D01*
X95507436Y-71262510D01*
X95526412Y-71243534D01*
X95531207Y-71237352D01*
X95533408Y-71234855D01*
X95538680Y-71229060D01*
X95557226Y-71209311D01*
X95557227Y-71209309D01*
X95567948Y-71197893D01*
X95575495Y-71184166D01*
X95579678Y-71178408D01*
X95594881Y-71155264D01*
X95601862Y-71146264D01*
X95604434Y-71148259D01*
X95651493Y-71095718D01*
X95739073Y-71053662D01*
X95836081Y-71048322D01*
X95927749Y-71080512D01*
X96000120Y-71145331D01*
X96042176Y-71232911D01*
X96050000Y-71294838D01*
X96050000Y-72860500D01*
X96031046Y-72955788D01*
X95977070Y-73036570D01*
X95896288Y-73090546D01*
X95801000Y-73109500D01*
X76559500Y-73109500D01*
X76464212Y-73090546D01*
X76383430Y-73036570D01*
X76329454Y-72955788D01*
X76310500Y-72860500D01*
X76310500Y-61833257D01*
X78482600Y-61833257D01*
X78483590Y-61840771D01*
X78533754Y-62027985D01*
X78541166Y-62048348D01*
X78631805Y-62242725D01*
X78642635Y-62261482D01*
X78765653Y-62437170D01*
X78779576Y-62453764D01*
X78931239Y-62605427D01*
X78947823Y-62619343D01*
X79123522Y-62742369D01*
X79142268Y-62753192D01*
X79336657Y-62843837D01*
X79357014Y-62851246D01*
X79536309Y-62899288D01*
X79557123Y-62900652D01*
X79559011Y-62896825D01*
X79560000Y-62889311D01*
X79560000Y-61849527D01*
X79555931Y-61829069D01*
X79535473Y-61825000D01*
X78503891Y-61825000D01*
X78483433Y-61829069D01*
X78482600Y-61833257D01*
X76310500Y-61833257D01*
X76310500Y-59293257D01*
X78482600Y-59293257D01*
X78483590Y-59300771D01*
X78533754Y-59487985D01*
X78541166Y-59508348D01*
X78631805Y-59702725D01*
X78642635Y-59721482D01*
X78765653Y-59897170D01*
X78779576Y-59913764D01*
X78931239Y-60065427D01*
X78947825Y-60079344D01*
X78978796Y-60101030D01*
X79045980Y-60171211D01*
X79081194Y-60261760D01*
X79079075Y-60358892D01*
X79039947Y-60447819D01*
X78978798Y-60508968D01*
X78947833Y-60530650D01*
X78931236Y-60544576D01*
X78779576Y-60696236D01*
X78765653Y-60712830D01*
X78642635Y-60888518D01*
X78631805Y-60907275D01*
X78541166Y-61101652D01*
X78533754Y-61122015D01*
X78485712Y-61301309D01*
X78484348Y-61322123D01*
X78488175Y-61324011D01*
X78495689Y-61325000D01*
X79535473Y-61325000D01*
X79555931Y-61320931D01*
X79560000Y-61300473D01*
X79560000Y-59309527D01*
X79555931Y-59289069D01*
X79535473Y-59285000D01*
X78503891Y-59285000D01*
X78483433Y-59289069D01*
X78482600Y-59293257D01*
X76310500Y-59293257D01*
X76310500Y-56753257D01*
X78482600Y-56753257D01*
X78483590Y-56760771D01*
X78533754Y-56947985D01*
X78541166Y-56968348D01*
X78631805Y-57162725D01*
X78642635Y-57181482D01*
X78765653Y-57357170D01*
X78779576Y-57373764D01*
X78931239Y-57525427D01*
X78947825Y-57539344D01*
X78978796Y-57561030D01*
X79045980Y-57631211D01*
X79081194Y-57721760D01*
X79079075Y-57818892D01*
X79039947Y-57907819D01*
X78978798Y-57968968D01*
X78947833Y-57990650D01*
X78931236Y-58004576D01*
X78779576Y-58156236D01*
X78765653Y-58172830D01*
X78642635Y-58348518D01*
X78631805Y-58367275D01*
X78541166Y-58561652D01*
X78533754Y-58582015D01*
X78485712Y-58761309D01*
X78484348Y-58782123D01*
X78488175Y-58784011D01*
X78495689Y-58785000D01*
X79535473Y-58785000D01*
X79555931Y-58780931D01*
X79560000Y-58760473D01*
X79560000Y-56769527D01*
X79555931Y-56749069D01*
X79535473Y-56745000D01*
X78503891Y-56745000D01*
X78483433Y-56749069D01*
X78482600Y-56753257D01*
X76310500Y-56753257D01*
X76310500Y-54213257D01*
X78482600Y-54213257D01*
X78483590Y-54220771D01*
X78533754Y-54407985D01*
X78541166Y-54428348D01*
X78631805Y-54622725D01*
X78642635Y-54641482D01*
X78765653Y-54817170D01*
X78779576Y-54833764D01*
X78931239Y-54985427D01*
X78947825Y-54999344D01*
X78978796Y-55021030D01*
X79045980Y-55091211D01*
X79081194Y-55181760D01*
X79079075Y-55278892D01*
X79039947Y-55367819D01*
X78978798Y-55428968D01*
X78947833Y-55450650D01*
X78931236Y-55464576D01*
X78779576Y-55616236D01*
X78765653Y-55632830D01*
X78642635Y-55808518D01*
X78631805Y-55827275D01*
X78541166Y-56021652D01*
X78533754Y-56042015D01*
X78485712Y-56221309D01*
X78484348Y-56242123D01*
X78488175Y-56244011D01*
X78495689Y-56245000D01*
X79535473Y-56245000D01*
X79555931Y-56240931D01*
X79560000Y-56220473D01*
X79560000Y-54229527D01*
X79555931Y-54209069D01*
X79535473Y-54205000D01*
X78503891Y-54205000D01*
X78483433Y-54209069D01*
X78482600Y-54213257D01*
X76310500Y-54213257D01*
X76310500Y-44053257D01*
X78482600Y-44053257D01*
X78483590Y-44060771D01*
X78533754Y-44247985D01*
X78541166Y-44268348D01*
X78631805Y-44462725D01*
X78642635Y-44481482D01*
X78765653Y-44657170D01*
X78779576Y-44673764D01*
X78931239Y-44825427D01*
X78947825Y-44839344D01*
X78978796Y-44861030D01*
X79045980Y-44931211D01*
X79081194Y-45021760D01*
X79079075Y-45118892D01*
X79039947Y-45207819D01*
X78978798Y-45268968D01*
X78947833Y-45290650D01*
X78931236Y-45304576D01*
X78779576Y-45456236D01*
X78765653Y-45472830D01*
X78642635Y-45648518D01*
X78631805Y-45667275D01*
X78541166Y-45861652D01*
X78533754Y-45882015D01*
X78485712Y-46061309D01*
X78484348Y-46082123D01*
X78488175Y-46084011D01*
X78495689Y-46085000D01*
X79535473Y-46085000D01*
X79555931Y-46080931D01*
X79560000Y-46060473D01*
X79560000Y-44069527D01*
X79555931Y-44049069D01*
X79535473Y-44045000D01*
X78503891Y-44045000D01*
X78483433Y-44049069D01*
X78482600Y-44053257D01*
X76310500Y-44053257D01*
X76310500Y-43542123D01*
X78484348Y-43542123D01*
X78488175Y-43544011D01*
X78495689Y-43545000D01*
X79535473Y-43545000D01*
X79555931Y-43540931D01*
X79560000Y-43520473D01*
X79560000Y-42488891D01*
X79555931Y-42468433D01*
X79551743Y-42467600D01*
X79544229Y-42468590D01*
X79357015Y-42518754D01*
X79336652Y-42526166D01*
X79142275Y-42616805D01*
X79123518Y-42627635D01*
X78947830Y-42750653D01*
X78931236Y-42764576D01*
X78779576Y-42916236D01*
X78765653Y-42932830D01*
X78642635Y-43108518D01*
X78631805Y-43127275D01*
X78541166Y-43321652D01*
X78533754Y-43342015D01*
X78485712Y-43521309D01*
X78484348Y-43542123D01*
X76310500Y-43542123D01*
X76310500Y-36515473D01*
X88520000Y-36515473D01*
X88524069Y-36535931D01*
X88544527Y-36540000D01*
X89445473Y-36540000D01*
X89465931Y-36535931D01*
X89470000Y-36515473D01*
X89470000Y-35714528D01*
X89465931Y-35694070D01*
X89445473Y-35690001D01*
X89226609Y-35690001D01*
X89213760Y-35690666D01*
X89129132Y-35699445D01*
X89102661Y-35705163D01*
X88963406Y-35751622D01*
X88937385Y-35763811D01*
X88813266Y-35840618D01*
X88790750Y-35858464D01*
X88687634Y-35961761D01*
X88669819Y-35984317D01*
X88593230Y-36108567D01*
X88581088Y-36134606D01*
X88534865Y-36273966D01*
X88529197Y-36300402D01*
X88520647Y-36383846D01*
X88520000Y-36396515D01*
X88520000Y-36515473D01*
X76310500Y-36515473D01*
X76310500Y-32549500D01*
X76329454Y-32454212D01*
X76383430Y-32373430D01*
X76464212Y-32319454D01*
X76559500Y-32300500D01*
X95801000Y-32300500D01*
X95896288Y-32319454D01*
G37*
G04 #@! TD.AperFunction*
G04 #@! TA.AperFunction,Conductor*
G36*
X85494788Y-60716420D02*
G01*
X85504994Y-60721639D01*
X85505241Y-60721109D01*
X85518345Y-60727219D01*
X85530666Y-60734814D01*
X85612069Y-60761815D01*
X85683864Y-60785629D01*
X85683868Y-60785630D01*
X85696772Y-60789910D01*
X85726439Y-60792950D01*
X85819294Y-60821515D01*
X85894154Y-60883443D01*
X85915376Y-60913892D01*
X85931919Y-60941865D01*
X85942998Y-60952944D01*
X85947361Y-60958569D01*
X85957933Y-60970948D01*
X85962825Y-60976157D01*
X85972037Y-60988837D01*
X85984109Y-60998824D01*
X85984112Y-60998827D01*
X86002663Y-61014173D01*
X86020015Y-61029961D01*
X87650945Y-62660891D01*
X87654933Y-62665274D01*
X87659798Y-62672940D01*
X87671219Y-62683665D01*
X87709372Y-62719493D01*
X87714990Y-62724936D01*
X87733965Y-62743911D01*
X87740150Y-62748709D01*
X87742673Y-62750933D01*
X87748456Y-62756195D01*
X87779607Y-62785448D01*
X87793334Y-62792994D01*
X87799095Y-62797180D01*
X87812714Y-62806126D01*
X87818853Y-62809757D01*
X87831236Y-62819362D01*
X87867726Y-62835153D01*
X87888780Y-62845468D01*
X87909900Y-62857079D01*
X87909908Y-62857082D01*
X87923632Y-62864627D01*
X87938800Y-62868522D01*
X87945426Y-62871145D01*
X87960841Y-62876422D01*
X87967694Y-62878413D01*
X87982073Y-62884635D01*
X87997550Y-62887086D01*
X87997553Y-62887087D01*
X88021334Y-62890854D01*
X88044306Y-62895611D01*
X88067643Y-62901603D01*
X88067648Y-62901604D01*
X88082823Y-62905500D01*
X88098494Y-62905500D01*
X88105563Y-62906393D01*
X88121794Y-62907671D01*
X88128933Y-62907895D01*
X88144405Y-62910346D01*
X88159999Y-62908872D01*
X88160001Y-62908872D01*
X88183980Y-62906605D01*
X88207413Y-62905500D01*
X93252889Y-62905500D01*
X93348177Y-62924454D01*
X93428959Y-62978430D01*
X93482935Y-63059212D01*
X93501889Y-63154500D01*
X93492002Y-63223968D01*
X93481452Y-63260283D01*
X93481044Y-63262515D01*
X93482080Y-63271263D01*
X93495331Y-63275000D01*
X95001000Y-63275000D01*
X95096288Y-63293954D01*
X95177070Y-63347930D01*
X95231046Y-63428712D01*
X95250000Y-63524000D01*
X95250000Y-63526000D01*
X95231046Y-63621288D01*
X95177070Y-63702070D01*
X95096288Y-63756046D01*
X95001000Y-63775000D01*
X93502231Y-63775000D01*
X93481773Y-63779069D01*
X93480592Y-63785009D01*
X93481451Y-63789714D01*
X93519348Y-63920156D01*
X93531690Y-63948676D01*
X93581415Y-64032757D01*
X93613606Y-64124424D01*
X93608267Y-64221432D01*
X93581415Y-64286260D01*
X93523256Y-64384602D01*
X93477402Y-64542431D01*
X93474500Y-64579306D01*
X93474500Y-65010694D01*
X93477402Y-65047569D01*
X93523256Y-65205398D01*
X93606919Y-65346865D01*
X93723135Y-65463081D01*
X93864602Y-65546744D01*
X93925371Y-65564399D01*
X94010211Y-65589048D01*
X94010214Y-65589048D01*
X94022431Y-65592598D01*
X94035116Y-65593596D01*
X94035120Y-65593597D01*
X94048746Y-65594669D01*
X94059306Y-65595500D01*
X94138000Y-65595500D01*
X94233288Y-65614454D01*
X94314070Y-65668430D01*
X94368046Y-65749212D01*
X94387000Y-65844500D01*
X94387000Y-65847351D01*
X94368046Y-65942639D01*
X94314070Y-66023421D01*
X94269026Y-66059089D01*
X94242956Y-66075221D01*
X94242951Y-66075225D01*
X94230655Y-66082834D01*
X94220438Y-66093069D01*
X94175859Y-66137726D01*
X94095124Y-66191774D01*
X93999853Y-66210811D01*
X93904548Y-66191940D01*
X93823719Y-66138034D01*
X93778239Y-66092633D01*
X93755683Y-66074819D01*
X93631433Y-65998230D01*
X93605394Y-65986088D01*
X93466034Y-65939865D01*
X93439598Y-65934197D01*
X93356154Y-65925647D01*
X93343485Y-65925000D01*
X93237027Y-65925000D01*
X93216569Y-65929069D01*
X93212500Y-65949527D01*
X93212500Y-69501000D01*
X93193546Y-69596288D01*
X93139570Y-69677070D01*
X93058788Y-69731046D01*
X92963500Y-69750000D01*
X91899528Y-69750000D01*
X91879070Y-69754069D01*
X91875001Y-69774527D01*
X91875001Y-70018391D01*
X91875666Y-70031240D01*
X91884445Y-70115868D01*
X91890163Y-70142339D01*
X91936622Y-70281594D01*
X91948811Y-70307615D01*
X92025618Y-70431734D01*
X92043464Y-70454250D01*
X92146761Y-70557366D01*
X92169317Y-70575181D01*
X92190980Y-70588534D01*
X92262150Y-70654670D01*
X92302594Y-70743007D01*
X92306154Y-70840096D01*
X92272288Y-70931158D01*
X92206152Y-71002328D01*
X92117815Y-71042772D01*
X92060322Y-71049500D01*
X88022586Y-71049500D01*
X87927298Y-71030546D01*
X87846516Y-70976570D01*
X86095419Y-69225473D01*
X91875000Y-69225473D01*
X91879069Y-69245931D01*
X91899527Y-69250000D01*
X92687973Y-69250000D01*
X92708431Y-69245931D01*
X92712500Y-69225473D01*
X92712500Y-67424527D01*
X92708431Y-67404069D01*
X92687973Y-67400000D01*
X91899528Y-67400000D01*
X91879070Y-67404069D01*
X91875001Y-67424527D01*
X91875001Y-67668391D01*
X91875666Y-67681240D01*
X91884445Y-67765868D01*
X91890163Y-67792339D01*
X91936622Y-67931594D01*
X91948811Y-67957615D01*
X92025618Y-68081734D01*
X92043463Y-68104249D01*
X92088079Y-68148787D01*
X92142126Y-68229521D01*
X92161164Y-68324793D01*
X92142293Y-68420098D01*
X92088388Y-68500927D01*
X92042630Y-68546765D01*
X92024819Y-68569317D01*
X91948230Y-68693567D01*
X91936088Y-68719606D01*
X91889865Y-68858966D01*
X91884197Y-68885402D01*
X91875647Y-68968846D01*
X91875000Y-68981515D01*
X91875000Y-69225473D01*
X86095419Y-69225473D01*
X85223430Y-68353484D01*
X85169454Y-68272702D01*
X85150500Y-68177414D01*
X85150500Y-66875473D01*
X91875000Y-66875473D01*
X91879069Y-66895931D01*
X91899527Y-66900000D01*
X92687973Y-66900000D01*
X92708431Y-66895931D01*
X92712500Y-66875473D01*
X92712500Y-65949528D01*
X92708431Y-65929070D01*
X92687973Y-65925001D01*
X92581609Y-65925001D01*
X92568760Y-65925666D01*
X92484132Y-65934445D01*
X92457661Y-65940163D01*
X92318406Y-65986622D01*
X92292385Y-65998811D01*
X92168266Y-66075618D01*
X92145750Y-66093464D01*
X92042634Y-66196761D01*
X92024819Y-66219317D01*
X91948230Y-66343567D01*
X91936088Y-66369606D01*
X91889865Y-66508966D01*
X91884197Y-66535402D01*
X91875647Y-66618846D01*
X91875000Y-66631515D01*
X91875000Y-66875473D01*
X85150500Y-66875473D01*
X85150500Y-60946466D01*
X85169454Y-60851178D01*
X85223430Y-60770396D01*
X85304212Y-60716420D01*
X85399500Y-60697466D01*
X85494788Y-60716420D01*
G37*
G04 #@! TD.AperFunction*
G04 #@! TA.AperFunction,Conductor*
G36*
X95889014Y-51639458D02*
G01*
X95971451Y-51690870D01*
X96027939Y-51769916D01*
X96050000Y-51872384D01*
X96050000Y-54856000D01*
X96031046Y-54951288D01*
X95977070Y-55032070D01*
X95896288Y-55086046D01*
X95801000Y-55105000D01*
X95274527Y-55105000D01*
X95254069Y-55109069D01*
X95250000Y-55129527D01*
X95250000Y-55906000D01*
X95231046Y-56001288D01*
X95177070Y-56082070D01*
X95096288Y-56136046D01*
X95001000Y-56155000D01*
X94999000Y-56155000D01*
X94903712Y-56136046D01*
X94822930Y-56082070D01*
X94768954Y-56001288D01*
X94750000Y-55906000D01*
X94750000Y-55129527D01*
X94745931Y-55109069D01*
X94725473Y-55105000D01*
X94064255Y-55105000D01*
X94054470Y-55105385D01*
X94035199Y-55106901D01*
X94010287Y-55111451D01*
X93879844Y-55149348D01*
X93851320Y-55161691D01*
X93736927Y-55229343D01*
X93712369Y-55248392D01*
X93618392Y-55342369D01*
X93599343Y-55366927D01*
X93531691Y-55481320D01*
X93513126Y-55524222D01*
X93511786Y-55523642D01*
X93475063Y-55594336D01*
X93400692Y-55656851D01*
X93308059Y-55686146D01*
X93211266Y-55677763D01*
X93125050Y-55632977D01*
X93104666Y-55614720D01*
X92644153Y-55154207D01*
X92590177Y-55073425D01*
X92571223Y-54978137D01*
X92590177Y-54882849D01*
X92628782Y-54818916D01*
X92726299Y-54701665D01*
X92726300Y-54701664D01*
X92733602Y-54692884D01*
X92841410Y-54500379D01*
X92871257Y-54412452D01*
X92908661Y-54302265D01*
X92908662Y-54302260D01*
X92912331Y-54291452D01*
X92921739Y-54226570D01*
X92942938Y-54080360D01*
X92943991Y-54073098D01*
X92945643Y-54010000D01*
X92925454Y-53790289D01*
X92865565Y-53577936D01*
X92767980Y-53380053D01*
X92752470Y-53359282D01*
X92642795Y-53212411D01*
X92635967Y-53203267D01*
X92473949Y-53053499D01*
X92434766Y-53028776D01*
X92325898Y-52960086D01*
X92255424Y-52893209D01*
X92215908Y-52804454D01*
X92213364Y-52707332D01*
X92248182Y-52616630D01*
X92315059Y-52546156D01*
X92403814Y-52506640D01*
X92458768Y-52500500D01*
X94473508Y-52500500D01*
X94479436Y-52500780D01*
X94488296Y-52502760D01*
X94503952Y-52502268D01*
X94556289Y-52500623D01*
X94564111Y-52500500D01*
X94590925Y-52500500D01*
X94598685Y-52499520D01*
X94602072Y-52499307D01*
X94609875Y-52498939D01*
X94652569Y-52497597D01*
X94667614Y-52493226D01*
X94674672Y-52492108D01*
X94690611Y-52488807D01*
X94697515Y-52487034D01*
X94713058Y-52485071D01*
X94750025Y-52470434D01*
X94772218Y-52462836D01*
X94795350Y-52456116D01*
X94795353Y-52456115D01*
X94810398Y-52451744D01*
X94823885Y-52443768D01*
X94830434Y-52440934D01*
X94845060Y-52433769D01*
X94851309Y-52430334D01*
X94865871Y-52424568D01*
X94878541Y-52415363D01*
X94878544Y-52415361D01*
X94898037Y-52401198D01*
X94917638Y-52388323D01*
X94951865Y-52368081D01*
X94962943Y-52357003D01*
X94968569Y-52352639D01*
X94980948Y-52342067D01*
X94986157Y-52337175D01*
X94998837Y-52327963D01*
X95008824Y-52315891D01*
X95008827Y-52315888D01*
X95024173Y-52297337D01*
X95039961Y-52279985D01*
X95580891Y-51739055D01*
X95585274Y-51735067D01*
X95592940Y-51730202D01*
X95619487Y-51701932D01*
X95698532Y-51645445D01*
X95793177Y-51623507D01*
X95889014Y-51639458D01*
G37*
G04 #@! TD.AperFunction*
G04 #@! TA.AperFunction,Conductor*
G36*
X93385677Y-43624454D02*
G01*
X93466459Y-43678430D01*
X93520435Y-43759212D01*
X93539389Y-43854500D01*
X93529502Y-43923968D01*
X93518952Y-43960283D01*
X93518544Y-43962515D01*
X93519580Y-43971263D01*
X93532831Y-43975000D01*
X95038500Y-43975000D01*
X95133788Y-43993954D01*
X95214570Y-44047930D01*
X95268546Y-44128712D01*
X95287500Y-44224000D01*
X95287500Y-44226000D01*
X95268546Y-44321288D01*
X95214570Y-44402070D01*
X95133788Y-44456046D01*
X95038500Y-44475000D01*
X93539731Y-44475000D01*
X93519273Y-44479069D01*
X93518092Y-44485009D01*
X93518951Y-44489714D01*
X93556848Y-44620156D01*
X93569190Y-44648676D01*
X93618915Y-44732757D01*
X93651106Y-44824424D01*
X93645767Y-44921432D01*
X93618915Y-44986260D01*
X93572349Y-45065000D01*
X93560756Y-45084602D01*
X93556386Y-45099644D01*
X93525433Y-45206185D01*
X93514902Y-45242431D01*
X93512000Y-45279306D01*
X93512000Y-45710694D01*
X93514902Y-45747569D01*
X93560756Y-45905398D01*
X93568728Y-45918879D01*
X93568729Y-45918880D01*
X93635529Y-46031832D01*
X93644419Y-46046865D01*
X93760635Y-46163081D01*
X93774117Y-46171054D01*
X93774118Y-46171055D01*
X93799857Y-46186277D01*
X93872226Y-46251098D01*
X93888714Y-46285434D01*
X93900541Y-46280019D01*
X93997631Y-46276458D01*
X94027504Y-46283177D01*
X94047711Y-46289048D01*
X94047714Y-46289048D01*
X94059931Y-46292598D01*
X94072616Y-46293596D01*
X94072620Y-46293597D01*
X94086246Y-46294669D01*
X94096806Y-46295500D01*
X94275500Y-46295500D01*
X94370788Y-46314454D01*
X94451570Y-46368430D01*
X94505546Y-46449212D01*
X94524500Y-46544500D01*
X94524500Y-46547351D01*
X94505546Y-46642639D01*
X94451570Y-46723421D01*
X94406526Y-46759089D01*
X94380456Y-46775221D01*
X94380451Y-46775225D01*
X94368155Y-46782834D01*
X94342686Y-46808348D01*
X94313359Y-46837726D01*
X94232624Y-46891774D01*
X94137353Y-46910811D01*
X94042048Y-46891940D01*
X93961219Y-46838034D01*
X93915739Y-46792633D01*
X93893183Y-46774819D01*
X93827377Y-46734256D01*
X93756207Y-46668121D01*
X93742503Y-46638189D01*
X93735026Y-46641779D01*
X93638018Y-46647117D01*
X93616939Y-46642162D01*
X93616821Y-46642713D01*
X93577098Y-46634197D01*
X93493654Y-46625647D01*
X93480985Y-46625000D01*
X93374527Y-46625000D01*
X93354069Y-46629069D01*
X93350000Y-46649527D01*
X93350000Y-50201000D01*
X93331046Y-50296288D01*
X93277070Y-50377070D01*
X93196288Y-50431046D01*
X93101000Y-50450000D01*
X92037028Y-50450000D01*
X92016570Y-50454069D01*
X92012501Y-50474527D01*
X92012501Y-50718399D01*
X92013073Y-50729463D01*
X91999064Y-50825602D01*
X91949331Y-50909063D01*
X91871444Y-50967138D01*
X91777261Y-50990987D01*
X91681122Y-50976978D01*
X91597661Y-50927245D01*
X91588335Y-50918389D01*
X90595419Y-49925473D01*
X92012500Y-49925473D01*
X92016569Y-49945931D01*
X92037027Y-49950000D01*
X92825473Y-49950000D01*
X92845931Y-49945931D01*
X92850000Y-49925473D01*
X92850000Y-48124527D01*
X92845931Y-48104069D01*
X92825473Y-48100000D01*
X92037028Y-48100000D01*
X92016570Y-48104069D01*
X92012501Y-48124527D01*
X92012501Y-48368391D01*
X92013166Y-48381240D01*
X92021945Y-48465868D01*
X92027663Y-48492339D01*
X92074122Y-48631594D01*
X92086311Y-48657615D01*
X92163118Y-48781734D01*
X92180963Y-48804249D01*
X92225579Y-48848787D01*
X92279626Y-48929521D01*
X92298664Y-49024793D01*
X92279793Y-49120098D01*
X92225888Y-49200927D01*
X92180130Y-49246765D01*
X92162319Y-49269317D01*
X92085730Y-49393567D01*
X92073588Y-49419606D01*
X92027365Y-49558966D01*
X92021697Y-49585402D01*
X92013147Y-49668846D01*
X92012500Y-49681515D01*
X92012500Y-49925473D01*
X90595419Y-49925473D01*
X90114277Y-49444331D01*
X90060301Y-49363549D01*
X90041347Y-49268261D01*
X90043924Y-49232532D01*
X90052938Y-49170363D01*
X90052939Y-49170357D01*
X90053991Y-49163098D01*
X90055643Y-49100000D01*
X90035454Y-48880289D01*
X89975565Y-48667936D01*
X89877980Y-48470053D01*
X89841978Y-48421840D01*
X89752795Y-48302411D01*
X89745967Y-48293267D01*
X89725100Y-48273978D01*
X89667994Y-48195380D01*
X89645313Y-48100909D01*
X89660511Y-48004950D01*
X89711274Y-47922112D01*
X89789873Y-47865005D01*
X89846642Y-47847783D01*
X89852569Y-47847597D01*
X89867610Y-47843227D01*
X89874661Y-47842110D01*
X89890611Y-47838807D01*
X89897515Y-47837034D01*
X89913058Y-47835071D01*
X89950025Y-47820434D01*
X89972218Y-47812836D01*
X89995350Y-47806116D01*
X89995353Y-47806115D01*
X90010398Y-47801744D01*
X90023885Y-47793768D01*
X90030434Y-47790934D01*
X90045060Y-47783769D01*
X90051309Y-47780334D01*
X90065871Y-47774568D01*
X90078541Y-47765363D01*
X90078544Y-47765361D01*
X90098037Y-47751198D01*
X90117638Y-47738323D01*
X90151865Y-47718081D01*
X90162943Y-47707003D01*
X90168569Y-47702639D01*
X90180948Y-47692067D01*
X90186157Y-47687175D01*
X90198837Y-47677963D01*
X90208824Y-47665891D01*
X90208827Y-47665888D01*
X90224173Y-47647337D01*
X90239961Y-47629985D01*
X90294473Y-47575473D01*
X92012500Y-47575473D01*
X92016569Y-47595931D01*
X92037027Y-47600000D01*
X92825473Y-47600000D01*
X92845931Y-47595931D01*
X92850000Y-47575473D01*
X92850000Y-46649528D01*
X92845931Y-46629070D01*
X92825473Y-46625001D01*
X92719109Y-46625001D01*
X92706260Y-46625666D01*
X92621632Y-46634445D01*
X92595161Y-46640163D01*
X92455906Y-46686622D01*
X92429885Y-46698811D01*
X92305766Y-46775618D01*
X92283250Y-46793464D01*
X92180134Y-46896761D01*
X92162319Y-46919317D01*
X92085730Y-47043567D01*
X92073588Y-47069606D01*
X92027365Y-47208966D01*
X92021697Y-47235402D01*
X92013147Y-47318846D01*
X92012500Y-47331515D01*
X92012500Y-47575473D01*
X90294473Y-47575473D01*
X91355891Y-46514055D01*
X91360274Y-46510067D01*
X91367940Y-46505202D01*
X91414494Y-46455627D01*
X91419936Y-46450010D01*
X91438911Y-46431035D01*
X91443709Y-46424850D01*
X91445933Y-46422327D01*
X91451201Y-46416538D01*
X91469724Y-46396813D01*
X91480448Y-46385393D01*
X91487994Y-46371666D01*
X91492180Y-46365905D01*
X91501126Y-46352286D01*
X91504757Y-46346147D01*
X91514362Y-46333764D01*
X91530153Y-46297274D01*
X91540468Y-46276220D01*
X91552079Y-46255100D01*
X91552082Y-46255092D01*
X91559627Y-46241368D01*
X91563522Y-46226200D01*
X91566145Y-46219574D01*
X91571422Y-46204159D01*
X91573413Y-46197306D01*
X91579635Y-46182927D01*
X91582087Y-46167447D01*
X91585854Y-46143666D01*
X91590611Y-46120694D01*
X91596603Y-46097357D01*
X91596604Y-46097352D01*
X91600500Y-46082177D01*
X91600500Y-46066506D01*
X91601393Y-46059437D01*
X91602671Y-46043206D01*
X91602832Y-46038077D01*
X91603199Y-46036493D01*
X91603566Y-46031832D01*
X91605346Y-46020594D01*
X91606830Y-46020829D01*
X91624770Y-45943431D01*
X91681258Y-45864385D01*
X91720680Y-45834163D01*
X91869345Y-45742166D01*
X91992984Y-45618311D01*
X92049978Y-45525850D01*
X92077220Y-45481654D01*
X92077220Y-45481653D01*
X92084814Y-45469334D01*
X92139910Y-45303228D01*
X92147391Y-45230211D01*
X92149853Y-45206185D01*
X92149853Y-45206177D01*
X92150500Y-45199866D01*
X92150500Y-44400134D01*
X92139641Y-44295481D01*
X92116461Y-44226000D01*
X92088833Y-44143190D01*
X92084256Y-44129471D01*
X92050023Y-44074150D01*
X91995181Y-43985527D01*
X91961157Y-43894525D01*
X91964548Y-43797429D01*
X92004837Y-43709022D01*
X92075892Y-43642762D01*
X92166894Y-43608738D01*
X92206919Y-43605500D01*
X93290389Y-43605500D01*
X93385677Y-43624454D01*
G37*
G04 #@! TD.AperFunction*
G04 #@! TA.AperFunction,Conductor*
G36*
X88279877Y-39469454D02*
G01*
X88360659Y-39523430D01*
X88414635Y-39604212D01*
X88433589Y-39699500D01*
X88414635Y-39794788D01*
X88360659Y-39875570D01*
X88343180Y-39890978D01*
X88333135Y-39896919D01*
X88322061Y-39907993D01*
X88316444Y-39912350D01*
X88304052Y-39922933D01*
X88298843Y-39927825D01*
X88286163Y-39937037D01*
X88276176Y-39949109D01*
X88276173Y-39949112D01*
X88260827Y-39967663D01*
X88245039Y-39985015D01*
X86603484Y-41626570D01*
X86522702Y-41680546D01*
X86427414Y-41699500D01*
X86150134Y-41699500D01*
X86143738Y-41700164D01*
X86143731Y-41700164D01*
X86059029Y-41708953D01*
X86059027Y-41708953D01*
X86045481Y-41710359D01*
X86032568Y-41714667D01*
X86032564Y-41714668D01*
X85893190Y-41761167D01*
X85879471Y-41765744D01*
X85867174Y-41773354D01*
X85867171Y-41773355D01*
X85783419Y-41825183D01*
X85730655Y-41857834D01*
X85607016Y-41981689D01*
X85515186Y-42130666D01*
X85510630Y-42144403D01*
X85479961Y-42236865D01*
X85460090Y-42296772D01*
X85449500Y-42400134D01*
X85449500Y-43199866D01*
X85460359Y-43304519D01*
X85464667Y-43317432D01*
X85464668Y-43317436D01*
X85511167Y-43456810D01*
X85515744Y-43470529D01*
X85523354Y-43482826D01*
X85523355Y-43482829D01*
X85570858Y-43559592D01*
X85607834Y-43619345D01*
X85618070Y-43629563D01*
X85627057Y-43640902D01*
X85624910Y-43642604D01*
X85666419Y-43704608D01*
X85685457Y-43799879D01*
X85666587Y-43895184D01*
X85624299Y-43958593D01*
X85626203Y-43960097D01*
X85617235Y-43971452D01*
X85607016Y-43981689D01*
X85576523Y-44031158D01*
X85510390Y-44102327D01*
X85422053Y-44142771D01*
X85364558Y-44149500D01*
X83946379Y-44149500D01*
X83851091Y-44130546D01*
X83770309Y-44076570D01*
X83716333Y-43995788D01*
X83697379Y-43900500D01*
X83698326Y-43878810D01*
X83705659Y-43795000D01*
X83685063Y-43559592D01*
X83623903Y-43331337D01*
X83611398Y-43304519D01*
X83528631Y-43127027D01*
X83524035Y-43117171D01*
X83388495Y-42923599D01*
X83221401Y-42756505D01*
X83212503Y-42750275D01*
X83212500Y-42750272D01*
X83036729Y-42627196D01*
X83036728Y-42627195D01*
X83027830Y-42620965D01*
X83017985Y-42616374D01*
X83017983Y-42616373D01*
X82824533Y-42526166D01*
X82813663Y-42521097D01*
X82803165Y-42518284D01*
X82803162Y-42518283D01*
X82659770Y-42479862D01*
X82585408Y-42459937D01*
X82574575Y-42458989D01*
X82574574Y-42458989D01*
X82360835Y-42440289D01*
X82350000Y-42439341D01*
X82339165Y-42440289D01*
X82125426Y-42458989D01*
X82125425Y-42458989D01*
X82114592Y-42459937D01*
X82104086Y-42462752D01*
X82063947Y-42473507D01*
X81967000Y-42479862D01*
X81875001Y-42448633D01*
X81801956Y-42384574D01*
X81758985Y-42297439D01*
X81750500Y-42232992D01*
X81750500Y-40772586D01*
X81769454Y-40677298D01*
X81823430Y-40596516D01*
X82896516Y-39523430D01*
X82977298Y-39469454D01*
X83072586Y-39450500D01*
X88184589Y-39450500D01*
X88279877Y-39469454D01*
G37*
G04 #@! TD.AperFunction*
G04 #@! TA.AperFunction,Conductor*
G36*
X118899086Y-32319454D02*
G01*
X118979868Y-32373430D01*
X119033844Y-32454212D01*
X119052798Y-32549500D01*
X119033844Y-32644788D01*
X118979868Y-32725570D01*
X118918002Y-32770766D01*
X118898988Y-32780580D01*
X118669342Y-32899109D01*
X118435024Y-33063791D01*
X118225224Y-33258749D01*
X118193150Y-33297936D01*
X118049194Y-33473814D01*
X118049189Y-33473821D01*
X118043823Y-33480377D01*
X117894180Y-33724573D01*
X117779062Y-33986818D01*
X117776742Y-33994961D01*
X117776741Y-33994965D01*
X117754987Y-34071335D01*
X117700600Y-34262261D01*
X117660246Y-34545804D01*
X117660202Y-34554274D01*
X117658947Y-34794048D01*
X117658747Y-34832200D01*
X117696129Y-35116149D01*
X117771702Y-35392398D01*
X117884068Y-35655835D01*
X117888422Y-35663110D01*
X117888423Y-35663112D01*
X117961997Y-35786046D01*
X118031146Y-35901585D01*
X118210215Y-36125100D01*
X118417962Y-36322245D01*
X118650543Y-36489371D01*
X118903653Y-36623386D01*
X119172610Y-36721810D01*
X119180883Y-36723614D01*
X119180887Y-36723615D01*
X119444147Y-36781015D01*
X119444151Y-36781016D01*
X119452436Y-36782822D01*
X119460887Y-36783487D01*
X119460893Y-36783488D01*
X119560698Y-36791343D01*
X119677053Y-36800500D01*
X119831992Y-36800500D01*
X119956517Y-36792011D01*
X120037278Y-36786505D01*
X120037283Y-36786504D01*
X120045737Y-36785928D01*
X120054031Y-36784210D01*
X120054034Y-36784210D01*
X120317890Y-36729568D01*
X120326186Y-36727850D01*
X120596158Y-36632248D01*
X120603679Y-36628366D01*
X120603684Y-36628364D01*
X120715411Y-36570697D01*
X120850658Y-36500891D01*
X121084976Y-36336209D01*
X121099642Y-36322581D01*
X121288558Y-36147029D01*
X121294776Y-36141251D01*
X121359874Y-36061717D01*
X121470806Y-35926186D01*
X121470811Y-35926179D01*
X121476177Y-35919623D01*
X121591109Y-35732070D01*
X121621394Y-35682650D01*
X121621395Y-35682647D01*
X121625820Y-35675427D01*
X121732500Y-35432404D01*
X121788157Y-35352770D01*
X121870051Y-35300498D01*
X121965715Y-35283544D01*
X122060585Y-35304489D01*
X122140219Y-35360146D01*
X122192491Y-35442040D01*
X122209500Y-35532489D01*
X122209500Y-69870446D01*
X122190546Y-69965734D01*
X122136570Y-70046516D01*
X122055788Y-70100492D01*
X121960500Y-70119446D01*
X121865212Y-70100492D01*
X121784430Y-70046516D01*
X121731465Y-69968138D01*
X121689796Y-69870446D01*
X121635932Y-69744165D01*
X121628081Y-69731046D01*
X121493211Y-69505695D01*
X121488854Y-69498415D01*
X121309785Y-69274900D01*
X121102038Y-69077755D01*
X120869457Y-68910629D01*
X120616347Y-68776614D01*
X120347390Y-68678190D01*
X120339117Y-68676386D01*
X120339113Y-68676385D01*
X120075853Y-68618985D01*
X120075849Y-68618984D01*
X120067564Y-68617178D01*
X120059113Y-68616513D01*
X120059107Y-68616512D01*
X119959302Y-68608657D01*
X119842947Y-68599500D01*
X119688008Y-68599500D01*
X119563483Y-68607989D01*
X119482722Y-68613495D01*
X119482717Y-68613496D01*
X119474263Y-68614072D01*
X119465969Y-68615790D01*
X119465966Y-68615790D01*
X119217041Y-68667340D01*
X119193814Y-68672150D01*
X118923842Y-68767752D01*
X118916321Y-68771634D01*
X118916316Y-68771636D01*
X118804589Y-68829303D01*
X118669342Y-68899109D01*
X118435024Y-69063791D01*
X118225224Y-69258749D01*
X118219850Y-69265315D01*
X118049194Y-69473814D01*
X118049189Y-69473821D01*
X118043823Y-69480377D01*
X117894180Y-69724573D01*
X117779062Y-69986818D01*
X117776742Y-69994961D01*
X117776741Y-69994965D01*
X117747494Y-70097640D01*
X117700600Y-70262261D01*
X117660246Y-70545804D01*
X117658747Y-70832200D01*
X117696129Y-71116149D01*
X117771702Y-71392398D01*
X117884068Y-71655835D01*
X117888422Y-71663110D01*
X117888423Y-71663112D01*
X117900116Y-71682650D01*
X118031146Y-71901585D01*
X118210215Y-72125100D01*
X118417962Y-72322245D01*
X118650543Y-72489371D01*
X118903653Y-72623386D01*
X118912557Y-72626644D01*
X118912616Y-72626666D01*
X118913106Y-72626964D01*
X118919358Y-72629748D01*
X118918999Y-72630555D01*
X118995586Y-72677214D01*
X119052897Y-72755664D01*
X119075824Y-72850076D01*
X119060876Y-72946074D01*
X119010328Y-73029044D01*
X118931878Y-73086355D01*
X118837466Y-73109282D01*
X118827042Y-73109500D01*
X103549000Y-73109500D01*
X103453712Y-73090546D01*
X103372930Y-73036570D01*
X103318954Y-72955788D01*
X103300000Y-72860500D01*
X103300000Y-71321086D01*
X103318954Y-71225798D01*
X103372930Y-71145016D01*
X103453712Y-71091040D01*
X103549000Y-71072086D01*
X103644288Y-71091040D01*
X103725070Y-71145016D01*
X104535945Y-71955891D01*
X104539933Y-71960274D01*
X104544798Y-71967940D01*
X104556219Y-71978665D01*
X104594372Y-72014493D01*
X104599990Y-72019936D01*
X104618966Y-72038912D01*
X104625148Y-72043707D01*
X104627645Y-72045908D01*
X104633440Y-72051180D01*
X104651438Y-72068081D01*
X104664607Y-72080448D01*
X104678334Y-72087995D01*
X104684092Y-72092178D01*
X104697724Y-72101133D01*
X104703855Y-72104759D01*
X104716237Y-72114363D01*
X104730621Y-72120587D01*
X104730622Y-72120588D01*
X104752727Y-72130154D01*
X104773791Y-72140473D01*
X104808632Y-72159627D01*
X104823806Y-72163523D01*
X104830428Y-72166145D01*
X104845850Y-72171425D01*
X104852695Y-72173414D01*
X104867074Y-72179636D01*
X104882547Y-72182087D01*
X104882551Y-72182088D01*
X104906337Y-72185855D01*
X104929309Y-72190612D01*
X104952647Y-72196604D01*
X104952650Y-72196604D01*
X104967823Y-72200500D01*
X104983490Y-72200500D01*
X104990560Y-72201393D01*
X105006815Y-72202672D01*
X105013929Y-72202896D01*
X105029405Y-72205347D01*
X105044999Y-72203873D01*
X105045001Y-72203873D01*
X105068991Y-72201605D01*
X105092424Y-72200500D01*
X112393508Y-72200500D01*
X112399436Y-72200780D01*
X112408296Y-72202760D01*
X112423952Y-72202268D01*
X112476289Y-72200623D01*
X112484111Y-72200500D01*
X112510925Y-72200500D01*
X112518685Y-72199520D01*
X112522072Y-72199307D01*
X112529875Y-72198939D01*
X112572569Y-72197597D01*
X112587614Y-72193226D01*
X112594672Y-72192108D01*
X112610611Y-72188807D01*
X112617515Y-72187034D01*
X112633058Y-72185071D01*
X112670025Y-72170434D01*
X112692218Y-72162836D01*
X112715350Y-72156116D01*
X112715353Y-72156115D01*
X112730398Y-72151744D01*
X112743885Y-72143768D01*
X112750434Y-72140934D01*
X112765060Y-72133769D01*
X112771309Y-72130334D01*
X112785871Y-72124568D01*
X112798541Y-72115363D01*
X112798544Y-72115361D01*
X112818037Y-72101198D01*
X112837638Y-72088323D01*
X112871865Y-72068081D01*
X112882943Y-72057003D01*
X112888569Y-72052639D01*
X112900948Y-72042067D01*
X112906157Y-72037175D01*
X112918837Y-72027963D01*
X112928824Y-72015891D01*
X112928827Y-72015888D01*
X112944173Y-71997337D01*
X112959961Y-71979985D01*
X120755891Y-64184055D01*
X120760274Y-64180067D01*
X120767940Y-64175202D01*
X120814494Y-64125627D01*
X120819936Y-64120010D01*
X120838911Y-64101035D01*
X120843701Y-64094860D01*
X120845944Y-64092316D01*
X120851179Y-64086562D01*
X120880448Y-64055393D01*
X120887996Y-64041664D01*
X120892179Y-64035906D01*
X120901133Y-64022276D01*
X120904757Y-64016148D01*
X120914363Y-64003764D01*
X120930154Y-63967273D01*
X120940470Y-63946214D01*
X120959627Y-63911368D01*
X120963523Y-63896196D01*
X120966142Y-63889580D01*
X120971425Y-63874150D01*
X120973414Y-63867305D01*
X120979636Y-63852926D01*
X120982087Y-63837453D01*
X120982088Y-63837449D01*
X120985855Y-63813663D01*
X120990612Y-63790691D01*
X120996604Y-63767353D01*
X120996604Y-63767350D01*
X121000500Y-63752177D01*
X121000500Y-63736509D01*
X121001395Y-63729423D01*
X121002672Y-63713185D01*
X121002896Y-63706071D01*
X121005347Y-63690595D01*
X121003206Y-63667940D01*
X121001605Y-63651011D01*
X121000500Y-63627577D01*
X121000500Y-58576491D01*
X121000780Y-58570563D01*
X121002760Y-58561703D01*
X121000623Y-58493709D01*
X121000500Y-58485888D01*
X121000500Y-58459075D01*
X120999519Y-58451310D01*
X120999308Y-58447951D01*
X120998940Y-58440144D01*
X120998089Y-58413085D01*
X120997597Y-58397430D01*
X120993227Y-58382389D01*
X120992111Y-58375342D01*
X120988808Y-58359393D01*
X120987034Y-58352485D01*
X120985071Y-58336942D01*
X120970436Y-58299977D01*
X120962842Y-58277797D01*
X120956115Y-58254644D01*
X120956114Y-58254641D01*
X120951744Y-58239601D01*
X120943771Y-58226119D01*
X120940941Y-58219580D01*
X120933775Y-58204951D01*
X120930334Y-58198691D01*
X120924568Y-58184129D01*
X120915361Y-58171457D01*
X120915358Y-58171451D01*
X120901197Y-58151960D01*
X120888319Y-58132356D01*
X120876051Y-58111612D01*
X120868081Y-58098135D01*
X120857007Y-58087061D01*
X120852653Y-58081448D01*
X120842067Y-58069052D01*
X120837175Y-58063843D01*
X120827963Y-58051163D01*
X120815891Y-58041176D01*
X120815888Y-58041173D01*
X120797337Y-58025827D01*
X120779985Y-58010039D01*
X120164055Y-57394109D01*
X120160067Y-57389726D01*
X120155202Y-57382060D01*
X120105627Y-57335506D01*
X120100010Y-57330064D01*
X120081035Y-57311089D01*
X120074850Y-57306291D01*
X120072327Y-57304067D01*
X120066569Y-57298828D01*
X120060360Y-57292998D01*
X120003876Y-57213953D01*
X119981940Y-57119307D01*
X119997893Y-57023470D01*
X120005144Y-57006261D01*
X120008837Y-56998340D01*
X120016246Y-56977985D01*
X120064288Y-56798691D01*
X120065652Y-56777877D01*
X120061825Y-56775989D01*
X120054311Y-56775000D01*
X119014527Y-56775000D01*
X118994069Y-56779069D01*
X118990000Y-56799527D01*
X118990000Y-56900500D01*
X118971046Y-56995788D01*
X118917070Y-57076570D01*
X118836288Y-57130546D01*
X118741000Y-57149500D01*
X118739000Y-57149500D01*
X118643712Y-57130546D01*
X118562930Y-57076570D01*
X118508954Y-56995788D01*
X118490000Y-56900500D01*
X118490000Y-56250473D01*
X118990000Y-56250473D01*
X118994069Y-56270931D01*
X119014527Y-56275000D01*
X120046109Y-56275000D01*
X120066567Y-56270931D01*
X120067400Y-56266743D01*
X120066410Y-56259229D01*
X120016246Y-56072015D01*
X120008834Y-56051652D01*
X119918195Y-55857275D01*
X119907365Y-55838518D01*
X119784347Y-55662830D01*
X119770424Y-55646236D01*
X119618761Y-55494573D01*
X119602169Y-55480651D01*
X119571203Y-55458968D01*
X119504019Y-55388787D01*
X119468807Y-55298237D01*
X119470926Y-55201106D01*
X119510056Y-55112179D01*
X119571203Y-55051032D01*
X119602169Y-55029349D01*
X119618761Y-55015427D01*
X119770424Y-54863764D01*
X119784347Y-54847170D01*
X119907365Y-54671482D01*
X119918195Y-54652725D01*
X120008834Y-54458348D01*
X120016246Y-54437985D01*
X120064288Y-54258691D01*
X120065652Y-54237877D01*
X120061825Y-54235989D01*
X120054311Y-54235000D01*
X119014527Y-54235000D01*
X118994069Y-54239069D01*
X118990000Y-54259527D01*
X118990000Y-56250473D01*
X118490000Y-56250473D01*
X118490000Y-53984000D01*
X118508954Y-53888712D01*
X118562930Y-53807930D01*
X118643712Y-53753954D01*
X118739000Y-53735000D01*
X120046109Y-53735000D01*
X120066567Y-53730931D01*
X120067400Y-53726743D01*
X120066410Y-53719229D01*
X120016246Y-53532015D01*
X120008834Y-53511652D01*
X119918195Y-53317275D01*
X119907365Y-53298518D01*
X119784347Y-53122830D01*
X119770424Y-53106236D01*
X119618761Y-52954573D01*
X119602175Y-52940656D01*
X119571641Y-52919276D01*
X119504457Y-52849095D01*
X119469243Y-52758546D01*
X119471362Y-52661415D01*
X119510490Y-52572487D01*
X119571638Y-52511338D01*
X119602497Y-52489730D01*
X119602499Y-52489728D01*
X119611401Y-52483495D01*
X119778495Y-52316401D01*
X119889230Y-52158255D01*
X119907797Y-52131738D01*
X119907798Y-52131737D01*
X119914035Y-52122829D01*
X119919652Y-52110784D01*
X120009307Y-51918520D01*
X120009309Y-51918516D01*
X120013903Y-51908663D01*
X120075063Y-51680408D01*
X120095659Y-51445000D01*
X120084516Y-51317633D01*
X120076011Y-51220426D01*
X120076011Y-51220425D01*
X120075063Y-51209592D01*
X120013903Y-50981337D01*
X119997206Y-50945529D01*
X119918631Y-50777027D01*
X119914035Y-50767171D01*
X119907140Y-50757323D01*
X119880118Y-50718732D01*
X119778495Y-50573599D01*
X119611401Y-50406505D01*
X119602111Y-50400000D01*
X119572075Y-50378968D01*
X119504892Y-50308786D01*
X119469680Y-50218237D01*
X119471800Y-50121105D01*
X119510929Y-50032178D01*
X119572075Y-49971032D01*
X119602497Y-49949730D01*
X119602499Y-49949728D01*
X119611401Y-49943495D01*
X119778495Y-49776401D01*
X119914035Y-49582829D01*
X119918631Y-49572973D01*
X120009307Y-49378520D01*
X120009309Y-49378516D01*
X120013903Y-49368663D01*
X120075063Y-49140408D01*
X120095659Y-48905000D01*
X120075063Y-48669592D01*
X120013903Y-48441337D01*
X120008393Y-48429519D01*
X119918631Y-48237027D01*
X119914035Y-48227171D01*
X119778495Y-48033599D01*
X119611401Y-47866505D01*
X119602497Y-47860270D01*
X119571638Y-47838662D01*
X119504455Y-47768480D01*
X119469243Y-47677931D01*
X119471363Y-47580799D01*
X119510492Y-47491872D01*
X119571641Y-47430724D01*
X119602175Y-47409344D01*
X119618761Y-47395427D01*
X119770424Y-47243764D01*
X119784347Y-47227170D01*
X119907365Y-47051482D01*
X119918195Y-47032725D01*
X120008834Y-46838348D01*
X120016246Y-46817985D01*
X120064288Y-46638691D01*
X120065652Y-46617877D01*
X120061825Y-46615989D01*
X120054311Y-46615000D01*
X118739000Y-46615000D01*
X118643712Y-46596046D01*
X118562930Y-46542070D01*
X118508954Y-46461288D01*
X118490000Y-46366000D01*
X118490000Y-46090473D01*
X118990000Y-46090473D01*
X118994069Y-46110931D01*
X119014527Y-46115000D01*
X120046109Y-46115000D01*
X120066567Y-46110931D01*
X120067400Y-46106743D01*
X120066410Y-46099229D01*
X120016246Y-45912015D01*
X120008834Y-45891652D01*
X119918195Y-45697275D01*
X119907365Y-45678518D01*
X119784347Y-45502830D01*
X119770424Y-45486236D01*
X119618761Y-45334573D01*
X119602169Y-45320651D01*
X119571203Y-45298968D01*
X119504019Y-45228787D01*
X119468807Y-45138237D01*
X119470926Y-45041106D01*
X119510056Y-44952179D01*
X119571203Y-44891032D01*
X119602169Y-44869349D01*
X119618761Y-44855427D01*
X119770424Y-44703764D01*
X119784347Y-44687170D01*
X119907365Y-44511482D01*
X119918195Y-44492725D01*
X120008834Y-44298348D01*
X120016246Y-44277985D01*
X120064288Y-44098691D01*
X120065652Y-44077877D01*
X120061825Y-44075989D01*
X120054311Y-44075000D01*
X119014527Y-44075000D01*
X118994069Y-44079069D01*
X118990000Y-44099527D01*
X118990000Y-46090473D01*
X118490000Y-46090473D01*
X118490000Y-43550473D01*
X118990000Y-43550473D01*
X118994069Y-43570931D01*
X119014527Y-43575000D01*
X120046109Y-43575000D01*
X120066567Y-43570931D01*
X120067400Y-43566743D01*
X120066410Y-43559229D01*
X120016246Y-43372015D01*
X120008834Y-43351652D01*
X119918195Y-43157275D01*
X119907365Y-43138518D01*
X119784347Y-42962830D01*
X119770424Y-42946236D01*
X119618761Y-42794573D01*
X119602177Y-42780657D01*
X119426478Y-42657631D01*
X119407732Y-42646808D01*
X119213343Y-42556163D01*
X119192986Y-42548754D01*
X119013691Y-42500712D01*
X118992877Y-42499348D01*
X118990989Y-42503175D01*
X118990000Y-42510689D01*
X118990000Y-43550473D01*
X118490000Y-43550473D01*
X118490000Y-42518891D01*
X118485931Y-42498433D01*
X118481743Y-42497600D01*
X118474232Y-42498589D01*
X118465027Y-42501056D01*
X118368080Y-42507412D01*
X118276080Y-42476184D01*
X118203034Y-42412127D01*
X118160063Y-42324992D01*
X118151577Y-42260542D01*
X118151577Y-41727568D01*
X118151857Y-41721640D01*
X118153837Y-41712780D01*
X118151700Y-41644786D01*
X118151577Y-41636965D01*
X118151577Y-41610152D01*
X118150596Y-41602387D01*
X118150385Y-41599029D01*
X118150017Y-41591222D01*
X118149166Y-41564169D01*
X118148674Y-41548508D01*
X118144303Y-41533463D01*
X118143185Y-41526405D01*
X118139884Y-41510466D01*
X118138111Y-41503562D01*
X118136148Y-41488019D01*
X118121511Y-41451052D01*
X118113913Y-41428859D01*
X118107193Y-41405727D01*
X118107192Y-41405724D01*
X118102821Y-41390679D01*
X118094845Y-41377192D01*
X118092011Y-41370643D01*
X118084846Y-41356017D01*
X118081411Y-41349768D01*
X118075645Y-41335206D01*
X118064863Y-41320365D01*
X118052275Y-41303040D01*
X118039400Y-41283439D01*
X118019158Y-41249212D01*
X118008080Y-41238134D01*
X118003716Y-41232508D01*
X117993144Y-41220129D01*
X117988252Y-41214920D01*
X117979040Y-41202240D01*
X117966968Y-41192253D01*
X117966965Y-41192250D01*
X117948414Y-41176904D01*
X117931062Y-41161116D01*
X110864055Y-34094109D01*
X110860067Y-34089726D01*
X110855202Y-34082060D01*
X110811491Y-34041013D01*
X110755004Y-33961968D01*
X110733066Y-33867322D01*
X110749017Y-33771486D01*
X110800429Y-33689049D01*
X110879475Y-33632561D01*
X110981943Y-33610500D01*
X111525792Y-33610500D01*
X111621080Y-33629454D01*
X111701862Y-33683430D01*
X111755838Y-33764212D01*
X111774259Y-33843215D01*
X111777350Y-33890373D01*
X111779200Y-33918604D01*
X111782009Y-33929665D01*
X111782010Y-33929670D01*
X111805527Y-34022265D01*
X111833511Y-34132452D01*
X111925883Y-34332821D01*
X112053222Y-34513002D01*
X112061394Y-34520963D01*
X112061395Y-34520964D01*
X112203082Y-34658991D01*
X112203086Y-34658994D01*
X112211264Y-34666961D01*
X112394717Y-34789540D01*
X112405207Y-34794047D01*
X112405209Y-34794048D01*
X112500714Y-34835080D01*
X112597436Y-34876635D01*
X112812632Y-34925329D01*
X112922865Y-34929660D01*
X113021687Y-34933543D01*
X113021691Y-34933543D01*
X113033098Y-34933991D01*
X113176662Y-34913175D01*
X113240149Y-34903970D01*
X113240150Y-34903970D01*
X113251452Y-34902331D01*
X113262260Y-34898662D01*
X113262265Y-34898661D01*
X113402543Y-34851043D01*
X113460379Y-34831410D01*
X113652884Y-34723602D01*
X113822518Y-34582518D01*
X113963602Y-34412884D01*
X114071410Y-34220379D01*
X114112228Y-34100134D01*
X114138661Y-34022265D01*
X114138662Y-34022260D01*
X114142331Y-34011452D01*
X114173991Y-33793098D01*
X114175643Y-33730000D01*
X114155454Y-33510289D01*
X114095565Y-33297936D01*
X113997980Y-33100053D01*
X113975214Y-33069565D01*
X113872795Y-32932411D01*
X113865967Y-32923267D01*
X113703949Y-32773499D01*
X113694291Y-32767405D01*
X113694288Y-32767403D01*
X113682690Y-32760085D01*
X113612216Y-32693208D01*
X113572700Y-32604452D01*
X113570158Y-32507330D01*
X113604976Y-32416629D01*
X113671853Y-32346155D01*
X113760609Y-32306639D01*
X113815561Y-32300500D01*
X118803798Y-32300500D01*
X118899086Y-32319454D01*
G37*
G04 #@! TD.AperFunction*
G04 #@! TA.AperFunction,Conductor*
G36*
X118836288Y-58469454D02*
G01*
X118917070Y-58523430D01*
X118971046Y-58604212D01*
X118990000Y-58699500D01*
X118990000Y-62911109D01*
X118994069Y-62931567D01*
X118998257Y-62932400D01*
X119005771Y-62931410D01*
X119192986Y-62881246D01*
X119213353Y-62873833D01*
X119345268Y-62812320D01*
X119439638Y-62789227D01*
X119535663Y-62804006D01*
X119618722Y-62854408D01*
X119676170Y-62932758D01*
X119699263Y-63027128D01*
X119699500Y-63037990D01*
X119699500Y-63297414D01*
X119680546Y-63392702D01*
X119626570Y-63473484D01*
X112273484Y-70826570D01*
X112192702Y-70880546D01*
X112097414Y-70899500D01*
X107274782Y-70899500D01*
X107179494Y-70880546D01*
X107098712Y-70826570D01*
X107044736Y-70745788D01*
X107025782Y-70650500D01*
X107044736Y-70555212D01*
X107098559Y-70474584D01*
X107119867Y-70453239D01*
X107137681Y-70430683D01*
X107214270Y-70306433D01*
X107226412Y-70280394D01*
X107272635Y-70141034D01*
X107278303Y-70114598D01*
X107286853Y-70031154D01*
X107287500Y-70018485D01*
X107287500Y-69774527D01*
X107283431Y-69754069D01*
X107262973Y-69750000D01*
X106199000Y-69750000D01*
X106103712Y-69731046D01*
X106022930Y-69677070D01*
X105968954Y-69596288D01*
X105950000Y-69501000D01*
X105950000Y-68439526D01*
X105942284Y-68400735D01*
X105937500Y-68352158D01*
X105937500Y-68210474D01*
X106437500Y-68210474D01*
X106445216Y-68249265D01*
X106450000Y-68297842D01*
X106450000Y-69225473D01*
X106454069Y-69245931D01*
X106474527Y-69250000D01*
X107262972Y-69250000D01*
X107283430Y-69245931D01*
X107287499Y-69225473D01*
X107287499Y-68981609D01*
X107286834Y-68968760D01*
X107278055Y-68884132D01*
X107272337Y-68857661D01*
X107225878Y-68718406D01*
X107213689Y-68692385D01*
X107136882Y-68568266D01*
X107119037Y-68545751D01*
X107068160Y-68494963D01*
X107014113Y-68414229D01*
X106995075Y-68318957D01*
X107013946Y-68223652D01*
X107067852Y-68142823D01*
X107107366Y-68103239D01*
X107125181Y-68080683D01*
X107201770Y-67956433D01*
X107213912Y-67930394D01*
X107260135Y-67791034D01*
X107265803Y-67764598D01*
X107274353Y-67681154D01*
X107275000Y-67668485D01*
X107275000Y-67424527D01*
X107270931Y-67404069D01*
X107250473Y-67400000D01*
X106462027Y-67400000D01*
X106441569Y-67404069D01*
X106437500Y-67424527D01*
X106437500Y-68210474D01*
X105937500Y-68210474D01*
X105937500Y-66875473D01*
X106437500Y-66875473D01*
X106441569Y-66895931D01*
X106462027Y-66900000D01*
X107250472Y-66900000D01*
X107270930Y-66895931D01*
X107274999Y-66875473D01*
X107274999Y-66631609D01*
X107274334Y-66618760D01*
X107265555Y-66534132D01*
X107259837Y-66507661D01*
X107213378Y-66368406D01*
X107201189Y-66342385D01*
X107124382Y-66218266D01*
X107106536Y-66195750D01*
X107003239Y-66092634D01*
X106980683Y-66074819D01*
X106856433Y-65998230D01*
X106830394Y-65986088D01*
X106691034Y-65939865D01*
X106664598Y-65934197D01*
X106581154Y-65925647D01*
X106568485Y-65925000D01*
X106462027Y-65925000D01*
X106441569Y-65929069D01*
X106437500Y-65949527D01*
X106437500Y-66875473D01*
X105937500Y-66875473D01*
X105937500Y-65949528D01*
X105933431Y-65929070D01*
X105912973Y-65925001D01*
X105806609Y-65925001D01*
X105793763Y-65925665D01*
X105714394Y-65933900D01*
X105617659Y-65924880D01*
X105544005Y-65886003D01*
X105543900Y-65892654D01*
X105505303Y-65981813D01*
X105431511Y-66051952D01*
X105393263Y-66075620D01*
X105370750Y-66093464D01*
X105326565Y-66137726D01*
X105245831Y-66191773D01*
X105150559Y-66210810D01*
X105055255Y-66191939D01*
X104974426Y-66138033D01*
X104928550Y-66092237D01*
X104928549Y-66092236D01*
X104918311Y-66082016D01*
X104881342Y-66059228D01*
X104810173Y-65993095D01*
X104769729Y-65904759D01*
X104763000Y-65847263D01*
X104763000Y-65844500D01*
X104781954Y-65749212D01*
X104835930Y-65668430D01*
X104916712Y-65614454D01*
X105012000Y-65595500D01*
X105240694Y-65595500D01*
X105277569Y-65592598D01*
X105277806Y-65595607D01*
X105352926Y-65596798D01*
X105442085Y-65635395D01*
X105447629Y-65641118D01*
X105450047Y-65615190D01*
X105461553Y-65593391D01*
X108050001Y-65593391D01*
X108050666Y-65606240D01*
X108059445Y-65690868D01*
X108065163Y-65717339D01*
X108111622Y-65856594D01*
X108123811Y-65882615D01*
X108200618Y-66006734D01*
X108218464Y-66029250D01*
X108321761Y-66132366D01*
X108344317Y-66150181D01*
X108468567Y-66226770D01*
X108494606Y-66238912D01*
X108633966Y-66285135D01*
X108660402Y-66290803D01*
X108743846Y-66299353D01*
X108756515Y-66300000D01*
X108975473Y-66300000D01*
X108995931Y-66295931D01*
X109000000Y-66275473D01*
X109000000Y-66275472D01*
X109500000Y-66275472D01*
X109504069Y-66295930D01*
X109524527Y-66299999D01*
X109743391Y-66299999D01*
X109756240Y-66299334D01*
X109840868Y-66290555D01*
X109867339Y-66284837D01*
X110006594Y-66238378D01*
X110032615Y-66226189D01*
X110156734Y-66149382D01*
X110179250Y-66131536D01*
X110282366Y-66028239D01*
X110300181Y-66005683D01*
X110376770Y-65881433D01*
X110388912Y-65855394D01*
X110435135Y-65716034D01*
X110440803Y-65689598D01*
X110449353Y-65606154D01*
X110450000Y-65593485D01*
X110450000Y-65474527D01*
X110445931Y-65454069D01*
X110425473Y-65450000D01*
X109524527Y-65450000D01*
X109504069Y-65454069D01*
X109500000Y-65474527D01*
X109500000Y-66275472D01*
X109000000Y-66275472D01*
X109000000Y-65474527D01*
X108995931Y-65454069D01*
X108975473Y-65450000D01*
X108074528Y-65450000D01*
X108054070Y-65454069D01*
X108050001Y-65474527D01*
X108050001Y-65593391D01*
X105461553Y-65593391D01*
X105495399Y-65529269D01*
X105551320Y-65481064D01*
X105551004Y-65480656D01*
X105558878Y-65474549D01*
X105561941Y-65471908D01*
X105563377Y-65471059D01*
X105563384Y-65471054D01*
X105576865Y-65463081D01*
X105693081Y-65346865D01*
X105776744Y-65205398D01*
X105822598Y-65047569D01*
X105825500Y-65010694D01*
X105825500Y-64579306D01*
X105822598Y-64542431D01*
X105815322Y-64517385D01*
X105781114Y-64399644D01*
X105776744Y-64384602D01*
X105760836Y-64357702D01*
X105718585Y-64286260D01*
X105686394Y-64194593D01*
X105691733Y-64097585D01*
X105718585Y-64032757D01*
X105768310Y-63948676D01*
X105780652Y-63920156D01*
X105782825Y-63912677D01*
X105827611Y-63826460D01*
X105901982Y-63763945D01*
X105994615Y-63734650D01*
X106091407Y-63743033D01*
X106161147Y-63777199D01*
X106164607Y-63780448D01*
X106178338Y-63787996D01*
X106184100Y-63792183D01*
X106197714Y-63801126D01*
X106203853Y-63804757D01*
X106216236Y-63814362D01*
X106252726Y-63830153D01*
X106273780Y-63840468D01*
X106294900Y-63852079D01*
X106294908Y-63852082D01*
X106308632Y-63859627D01*
X106323800Y-63863522D01*
X106330426Y-63866145D01*
X106345856Y-63871427D01*
X106352700Y-63873416D01*
X106367073Y-63879635D01*
X106382538Y-63882085D01*
X106382543Y-63882086D01*
X106406335Y-63885854D01*
X106429303Y-63890610D01*
X106467823Y-63900500D01*
X106483489Y-63900500D01*
X106490558Y-63901393D01*
X106506793Y-63902671D01*
X106513932Y-63902895D01*
X106529404Y-63905346D01*
X106544998Y-63903872D01*
X106545000Y-63903872D01*
X106568980Y-63901605D01*
X106592413Y-63900500D01*
X107995556Y-63900500D01*
X108090844Y-63919454D01*
X108171626Y-63973430D01*
X108190029Y-63996662D01*
X108191235Y-63995706D01*
X108200224Y-64007047D01*
X108207834Y-64019345D01*
X108218070Y-64029563D01*
X108227057Y-64040902D01*
X108224986Y-64042544D01*
X108266769Y-64104952D01*
X108285811Y-64200223D01*
X108266945Y-64295528D01*
X108224684Y-64358900D01*
X108226597Y-64360411D01*
X108199819Y-64394317D01*
X108123230Y-64518567D01*
X108111088Y-64544606D01*
X108064865Y-64683966D01*
X108059197Y-64710402D01*
X108050647Y-64793846D01*
X108050000Y-64806515D01*
X108050000Y-64925473D01*
X108054069Y-64945931D01*
X108074527Y-64950000D01*
X110425472Y-64950000D01*
X110445930Y-64945931D01*
X110449999Y-64925473D01*
X110449999Y-64806609D01*
X110449334Y-64793760D01*
X110440555Y-64709132D01*
X110434837Y-64682661D01*
X110388378Y-64543406D01*
X110376189Y-64517385D01*
X110299382Y-64393266D01*
X110272549Y-64359411D01*
X110274705Y-64357702D01*
X110233229Y-64295748D01*
X110214190Y-64200477D01*
X110233059Y-64105172D01*
X110275623Y-64041345D01*
X110273797Y-64039903D01*
X110282764Y-64028549D01*
X110292984Y-64018311D01*
X110305873Y-63997402D01*
X110377220Y-63881654D01*
X110377220Y-63881653D01*
X110384814Y-63869334D01*
X110426707Y-63743033D01*
X110435629Y-63716136D01*
X110435630Y-63716132D01*
X110439910Y-63703228D01*
X110442802Y-63675000D01*
X110449853Y-63606185D01*
X110449853Y-63606177D01*
X110450500Y-63599866D01*
X110450500Y-63297586D01*
X110469454Y-63202298D01*
X110523430Y-63121516D01*
X114450002Y-59194944D01*
X114530784Y-59140968D01*
X114626072Y-59122014D01*
X114721360Y-59140968D01*
X114802142Y-59194944D01*
X114856118Y-59275726D01*
X114866587Y-59306566D01*
X114926097Y-59528663D01*
X115025965Y-59742829D01*
X115161505Y-59936401D01*
X115328599Y-60103495D01*
X115337501Y-60109728D01*
X115337503Y-60109730D01*
X115367923Y-60131030D01*
X115435108Y-60201211D01*
X115470321Y-60291760D01*
X115468202Y-60388892D01*
X115429074Y-60477819D01*
X115367926Y-60538968D01*
X115328599Y-60566505D01*
X115161505Y-60733599D01*
X115025965Y-60927171D01*
X114926097Y-61141337D01*
X114864937Y-61369592D01*
X114844341Y-61605000D01*
X114864937Y-61840408D01*
X114926097Y-62068663D01*
X114930691Y-62078516D01*
X114930693Y-62078520D01*
X115021369Y-62272973D01*
X115025965Y-62282829D01*
X115161505Y-62476401D01*
X115328599Y-62643495D01*
X115337497Y-62649725D01*
X115337500Y-62649728D01*
X115512650Y-62772369D01*
X115522170Y-62779035D01*
X115532015Y-62783626D01*
X115532017Y-62783627D01*
X115575720Y-62804006D01*
X115736337Y-62878903D01*
X115746835Y-62881716D01*
X115746838Y-62881717D01*
X115850465Y-62909483D01*
X115964592Y-62940063D01*
X115975425Y-62941011D01*
X115975426Y-62941011D01*
X116189165Y-62959711D01*
X116200000Y-62960659D01*
X116210835Y-62959711D01*
X116424574Y-62941011D01*
X116424575Y-62941011D01*
X116435408Y-62940063D01*
X116549535Y-62909483D01*
X116653162Y-62881717D01*
X116653165Y-62881716D01*
X116663663Y-62878903D01*
X116824280Y-62804006D01*
X116867983Y-62783627D01*
X116867985Y-62783626D01*
X116877830Y-62779035D01*
X116887350Y-62772369D01*
X117062500Y-62649728D01*
X117062503Y-62649725D01*
X117071401Y-62643495D01*
X117238495Y-62476401D01*
X117266338Y-62436637D01*
X117336520Y-62369454D01*
X117427069Y-62334242D01*
X117524201Y-62336362D01*
X117613128Y-62375491D01*
X117674276Y-62436640D01*
X117695655Y-62467173D01*
X117709576Y-62483764D01*
X117861239Y-62635427D01*
X117877823Y-62649343D01*
X118053522Y-62772369D01*
X118072268Y-62783192D01*
X118266657Y-62873837D01*
X118287014Y-62881246D01*
X118466309Y-62929288D01*
X118487123Y-62930652D01*
X118489011Y-62926825D01*
X118490000Y-62919311D01*
X118490000Y-58699500D01*
X118508954Y-58604212D01*
X118562930Y-58523430D01*
X118643712Y-58469454D01*
X118739000Y-58450500D01*
X118741000Y-58450500D01*
X118836288Y-58469454D01*
G37*
G04 #@! TD.AperFunction*
G04 #@! TA.AperFunction,Conductor*
G36*
X103644288Y-51641040D02*
G01*
X103725070Y-51695016D01*
X104335945Y-52305891D01*
X104339933Y-52310274D01*
X104344798Y-52317940D01*
X104356219Y-52328665D01*
X104394372Y-52364493D01*
X104399990Y-52369936D01*
X104418965Y-52388911D01*
X104425150Y-52393709D01*
X104427673Y-52395933D01*
X104433456Y-52401195D01*
X104464607Y-52430448D01*
X104478334Y-52437994D01*
X104484095Y-52442180D01*
X104497714Y-52451126D01*
X104503853Y-52454757D01*
X104516236Y-52464362D01*
X104552726Y-52480153D01*
X104573780Y-52490468D01*
X104594900Y-52502079D01*
X104594908Y-52502082D01*
X104608632Y-52509627D01*
X104623800Y-52513522D01*
X104630426Y-52516145D01*
X104645841Y-52521422D01*
X104652694Y-52523413D01*
X104667073Y-52529635D01*
X104682550Y-52532086D01*
X104682553Y-52532087D01*
X104706334Y-52535854D01*
X104729306Y-52540611D01*
X104752643Y-52546603D01*
X104752648Y-52546604D01*
X104767823Y-52550500D01*
X104783494Y-52550500D01*
X104790563Y-52551393D01*
X104806794Y-52552671D01*
X104813933Y-52552895D01*
X104829405Y-52555346D01*
X104844999Y-52553872D01*
X104845001Y-52553872D01*
X104868980Y-52551605D01*
X104892413Y-52550500D01*
X105836737Y-52550500D01*
X105932025Y-52569454D01*
X106012807Y-52623430D01*
X106066783Y-52704212D01*
X106085737Y-52799500D01*
X106066783Y-52894788D01*
X106032282Y-52953653D01*
X106008863Y-52983360D01*
X105906131Y-53178620D01*
X105902747Y-53189519D01*
X105902746Y-53189521D01*
X105883422Y-53251756D01*
X105840703Y-53389333D01*
X105839361Y-53400672D01*
X105826226Y-53511652D01*
X105814770Y-53608440D01*
X105815517Y-53619834D01*
X105828002Y-53810322D01*
X105829200Y-53828604D01*
X105832009Y-53839665D01*
X105832010Y-53839670D01*
X105851264Y-53915481D01*
X105883511Y-54042452D01*
X105975883Y-54242821D01*
X106103222Y-54423002D01*
X106111394Y-54430963D01*
X106111395Y-54430964D01*
X106139505Y-54458348D01*
X106261264Y-54576961D01*
X106270750Y-54583300D01*
X106277203Y-54588525D01*
X106339327Y-54663222D01*
X106368136Y-54756007D01*
X106369500Y-54782032D01*
X106369500Y-55117414D01*
X106350546Y-55212702D01*
X106296570Y-55293484D01*
X106121806Y-55468248D01*
X106041024Y-55522224D01*
X105945736Y-55541178D01*
X105850448Y-55522224D01*
X105769666Y-55468248D01*
X105731412Y-55418930D01*
X105700659Y-55366930D01*
X105681608Y-55342369D01*
X105587631Y-55248392D01*
X105563073Y-55229343D01*
X105448680Y-55161691D01*
X105420156Y-55149348D01*
X105289713Y-55111451D01*
X105264801Y-55106901D01*
X105245530Y-55105385D01*
X105235745Y-55105000D01*
X104574527Y-55105000D01*
X104554069Y-55109069D01*
X104550000Y-55129527D01*
X104550000Y-55906000D01*
X104531046Y-56001288D01*
X104477070Y-56082070D01*
X104396288Y-56136046D01*
X104301000Y-56155000D01*
X104299000Y-56155000D01*
X104203712Y-56136046D01*
X104122930Y-56082070D01*
X104068954Y-56001288D01*
X104050000Y-55906000D01*
X104050000Y-55129527D01*
X104045931Y-55109069D01*
X104025473Y-55105000D01*
X103549000Y-55105000D01*
X103453712Y-55086046D01*
X103372930Y-55032070D01*
X103318954Y-54951288D01*
X103300000Y-54856000D01*
X103300000Y-51871086D01*
X103318954Y-51775798D01*
X103372930Y-51695016D01*
X103453712Y-51641040D01*
X103549000Y-51622086D01*
X103644288Y-51641040D01*
G37*
G04 #@! TD.AperFunction*
G04 #@! TA.AperFunction,Conductor*
G36*
X107795788Y-43769454D02*
G01*
X107876570Y-43823430D01*
X107930546Y-43904212D01*
X107949500Y-43999500D01*
X107949500Y-44199866D01*
X107950164Y-44206262D01*
X107950164Y-44206269D01*
X107957606Y-44277985D01*
X107960359Y-44304519D01*
X107964667Y-44317432D01*
X107964668Y-44317436D01*
X107992904Y-44402070D01*
X108015744Y-44470529D01*
X108023354Y-44482826D01*
X108023355Y-44482829D01*
X108027616Y-44489714D01*
X108107834Y-44619345D01*
X108118070Y-44629563D01*
X108127057Y-44640902D01*
X108124986Y-44642544D01*
X108166769Y-44704952D01*
X108185811Y-44800223D01*
X108166945Y-44895528D01*
X108124684Y-44958900D01*
X108126597Y-44960411D01*
X108099819Y-44994317D01*
X108023230Y-45118567D01*
X108011088Y-45144606D01*
X107964865Y-45283966D01*
X107959197Y-45310402D01*
X107950647Y-45393846D01*
X107950000Y-45406515D01*
X107950000Y-45525473D01*
X107954069Y-45545931D01*
X107974527Y-45550000D01*
X110325472Y-45550000D01*
X110345930Y-45545931D01*
X110349999Y-45525473D01*
X110349999Y-45406609D01*
X110349334Y-45393760D01*
X110340555Y-45309132D01*
X110334838Y-45282664D01*
X110304430Y-45191521D01*
X110292253Y-45095132D01*
X110317889Y-45001421D01*
X110377435Y-44924653D01*
X110461827Y-44876516D01*
X110558216Y-44864339D01*
X110651927Y-44889975D01*
X110716701Y-44936647D01*
X114798705Y-49018651D01*
X114852681Y-49099433D01*
X114864646Y-49140486D01*
X114864937Y-49140408D01*
X114926097Y-49368663D01*
X114927681Y-49372060D01*
X114941975Y-49464945D01*
X114918879Y-49559315D01*
X114861428Y-49637663D01*
X114819965Y-49668400D01*
X114797106Y-49681919D01*
X114786034Y-49692991D01*
X114780413Y-49697351D01*
X114768023Y-49707933D01*
X114762814Y-49712825D01*
X114750134Y-49722037D01*
X114740147Y-49734109D01*
X114740144Y-49734112D01*
X114724798Y-49752663D01*
X114709010Y-49770015D01*
X112442455Y-52036570D01*
X112361673Y-52090546D01*
X112266385Y-52109500D01*
X111031733Y-52109500D01*
X110936445Y-52090546D01*
X110855663Y-52036570D01*
X110801687Y-51955788D01*
X110782733Y-51860500D01*
X110801687Y-51765212D01*
X110855663Y-51684430D01*
X110872512Y-51669059D01*
X110943736Y-51609822D01*
X110952518Y-51602518D01*
X111093602Y-51432884D01*
X111201410Y-51240379D01*
X111251333Y-51093311D01*
X111268661Y-51042265D01*
X111268662Y-51042260D01*
X111272331Y-51031452D01*
X111278075Y-50991840D01*
X111302938Y-50820360D01*
X111303991Y-50813098D01*
X111305643Y-50750000D01*
X111285454Y-50530289D01*
X111225565Y-50317936D01*
X111127980Y-50120053D01*
X111113797Y-50101059D01*
X111002795Y-49952411D01*
X110995967Y-49943267D01*
X110833949Y-49793499D01*
X110806851Y-49776401D01*
X110657007Y-49681857D01*
X110657006Y-49681857D01*
X110647350Y-49675764D01*
X110636750Y-49671535D01*
X110636746Y-49671533D01*
X110453025Y-49598236D01*
X110453020Y-49598234D01*
X110442421Y-49594006D01*
X110389624Y-49583504D01*
X110237216Y-49553188D01*
X110237214Y-49553188D01*
X110226024Y-49550962D01*
X110106275Y-49549394D01*
X110016812Y-49548223D01*
X110016809Y-49548223D01*
X110005406Y-49548074D01*
X109911747Y-49564167D01*
X109799210Y-49583504D01*
X109799206Y-49583505D01*
X109787957Y-49585438D01*
X109753215Y-49598255D01*
X109591666Y-49657853D01*
X109591664Y-49657854D01*
X109580957Y-49661804D01*
X109391341Y-49774614D01*
X109382756Y-49782143D01*
X109234038Y-49912564D01*
X109234034Y-49912568D01*
X109225457Y-49920090D01*
X109158792Y-50004655D01*
X109084917Y-50067751D01*
X108992517Y-50097774D01*
X108963249Y-50099500D01*
X108926493Y-50099500D01*
X108920564Y-50099220D01*
X108911704Y-50097240D01*
X108874948Y-50098395D01*
X108843697Y-50099377D01*
X108835876Y-50099500D01*
X108809075Y-50099500D01*
X108801329Y-50100478D01*
X108797945Y-50100691D01*
X108790146Y-50101059D01*
X108773423Y-50101585D01*
X108747431Y-50102402D01*
X108732383Y-50106774D01*
X108725354Y-50107887D01*
X108709379Y-50111195D01*
X108702484Y-50112965D01*
X108686942Y-50114929D01*
X108649989Y-50129560D01*
X108627788Y-50137161D01*
X108604649Y-50143883D01*
X108604645Y-50143885D01*
X108589602Y-50148255D01*
X108576120Y-50156228D01*
X108569581Y-50159058D01*
X108554944Y-50166229D01*
X108548691Y-50169666D01*
X108534129Y-50175432D01*
X108501958Y-50198805D01*
X108482366Y-50211674D01*
X108461618Y-50223944D01*
X108461613Y-50223948D01*
X108448135Y-50231919D01*
X108437064Y-50242990D01*
X108431442Y-50247351D01*
X108419052Y-50257933D01*
X108413843Y-50262825D01*
X108401163Y-50272037D01*
X108391176Y-50284109D01*
X108391173Y-50284112D01*
X108375827Y-50302663D01*
X108360039Y-50320015D01*
X107668925Y-51011129D01*
X107588143Y-51065105D01*
X107492855Y-51084059D01*
X107397567Y-51065105D01*
X107316785Y-51011129D01*
X107262809Y-50930347D01*
X107243855Y-50835059D01*
X107249388Y-50782861D01*
X107253303Y-50764602D01*
X107261853Y-50681154D01*
X107262500Y-50668485D01*
X107262500Y-50424527D01*
X107258431Y-50404069D01*
X107237973Y-50400000D01*
X106174000Y-50400000D01*
X106078712Y-50381046D01*
X105997930Y-50327070D01*
X105943954Y-50246288D01*
X105925000Y-50151000D01*
X105925000Y-49875473D01*
X106425000Y-49875473D01*
X106429069Y-49895931D01*
X106449527Y-49900000D01*
X107237972Y-49900000D01*
X107258430Y-49895931D01*
X107262499Y-49875473D01*
X107262499Y-49631609D01*
X107261834Y-49618760D01*
X107253055Y-49534132D01*
X107247337Y-49507661D01*
X107200878Y-49368406D01*
X107188689Y-49342385D01*
X107111882Y-49218266D01*
X107094037Y-49195751D01*
X107055682Y-49157463D01*
X107001635Y-49076729D01*
X106982597Y-48981457D01*
X107001468Y-48886152D01*
X107055373Y-48805324D01*
X107107366Y-48753240D01*
X107125181Y-48730683D01*
X107201770Y-48606433D01*
X107213912Y-48580394D01*
X107260135Y-48441034D01*
X107265803Y-48414598D01*
X107274353Y-48331154D01*
X107275000Y-48318485D01*
X107275000Y-48074527D01*
X107270931Y-48054069D01*
X107250473Y-48050000D01*
X106462027Y-48050000D01*
X106441569Y-48054069D01*
X106437500Y-48074527D01*
X106437500Y-49002158D01*
X106432716Y-49050735D01*
X106425000Y-49089526D01*
X106425000Y-49875473D01*
X105925000Y-49875473D01*
X105925000Y-48947842D01*
X105929784Y-48899265D01*
X105937500Y-48860474D01*
X105937500Y-47525473D01*
X106437500Y-47525473D01*
X106441569Y-47545931D01*
X106462027Y-47550000D01*
X107250472Y-47550000D01*
X107270930Y-47545931D01*
X107274999Y-47525473D01*
X107274999Y-47281609D01*
X107274334Y-47268760D01*
X107265555Y-47184132D01*
X107259837Y-47157661D01*
X107213378Y-47018406D01*
X107201189Y-46992385D01*
X107124382Y-46868266D01*
X107106536Y-46845750D01*
X107003239Y-46742634D01*
X106980683Y-46724819D01*
X106856433Y-46648230D01*
X106830394Y-46636088D01*
X106691034Y-46589865D01*
X106664598Y-46584197D01*
X106581154Y-46575647D01*
X106568485Y-46575000D01*
X106462027Y-46575000D01*
X106441569Y-46579069D01*
X106437500Y-46599527D01*
X106437500Y-47525473D01*
X105937500Y-47525473D01*
X105937500Y-46599528D01*
X105933431Y-46579070D01*
X105912973Y-46575001D01*
X105803585Y-46575001D01*
X105708297Y-46556047D01*
X105627515Y-46502071D01*
X105573539Y-46421289D01*
X105554585Y-46326001D01*
X105573539Y-46230713D01*
X105598476Y-46193391D01*
X107950001Y-46193391D01*
X107950666Y-46206240D01*
X107959445Y-46290868D01*
X107965163Y-46317339D01*
X108011622Y-46456594D01*
X108023811Y-46482615D01*
X108100618Y-46606734D01*
X108118464Y-46629250D01*
X108221761Y-46732366D01*
X108244317Y-46750181D01*
X108368567Y-46826770D01*
X108394606Y-46838912D01*
X108533966Y-46885135D01*
X108560402Y-46890803D01*
X108643846Y-46899353D01*
X108656515Y-46900000D01*
X108875473Y-46900000D01*
X108895931Y-46895931D01*
X108900000Y-46875473D01*
X108900000Y-46875472D01*
X109400000Y-46875472D01*
X109404069Y-46895930D01*
X109424527Y-46899999D01*
X109643391Y-46899999D01*
X109656240Y-46899334D01*
X109740868Y-46890555D01*
X109767339Y-46884837D01*
X109906594Y-46838378D01*
X109932615Y-46826189D01*
X110056734Y-46749382D01*
X110079250Y-46731536D01*
X110182366Y-46628239D01*
X110200181Y-46605683D01*
X110276770Y-46481433D01*
X110288912Y-46455394D01*
X110335135Y-46316034D01*
X110340803Y-46289598D01*
X110349353Y-46206154D01*
X110350000Y-46193485D01*
X110350000Y-46074527D01*
X110345931Y-46054069D01*
X110325473Y-46050000D01*
X109424527Y-46050000D01*
X109404069Y-46054069D01*
X109400000Y-46074527D01*
X109400000Y-46875472D01*
X108900000Y-46875472D01*
X108900000Y-46074527D01*
X108895931Y-46054069D01*
X108875473Y-46050000D01*
X107974528Y-46050000D01*
X107954070Y-46054069D01*
X107950001Y-46074527D01*
X107950001Y-46193391D01*
X105598476Y-46193391D01*
X105627515Y-46149931D01*
X105730581Y-46046865D01*
X105765477Y-45987860D01*
X105806271Y-45918880D01*
X105806272Y-45918879D01*
X105814244Y-45905398D01*
X105860098Y-45747569D01*
X105863000Y-45710694D01*
X105863000Y-45279306D01*
X105860098Y-45242431D01*
X105814244Y-45084602D01*
X105756085Y-44986260D01*
X105723894Y-44894593D01*
X105729233Y-44797585D01*
X105756085Y-44732757D01*
X105805810Y-44648676D01*
X105818152Y-44620156D01*
X105856049Y-44489714D01*
X105856456Y-44487485D01*
X105855420Y-44478737D01*
X105842169Y-44475000D01*
X104336500Y-44475000D01*
X104241212Y-44456046D01*
X104160430Y-44402070D01*
X104106454Y-44321288D01*
X104087500Y-44226000D01*
X104087500Y-44224000D01*
X104106454Y-44128712D01*
X104160430Y-44047930D01*
X104241212Y-43993954D01*
X104336500Y-43975000D01*
X105835269Y-43975000D01*
X105855728Y-43970930D01*
X105859708Y-43950921D01*
X105896888Y-43861162D01*
X105965587Y-43792463D01*
X106055347Y-43755284D01*
X106103923Y-43750500D01*
X107700500Y-43750500D01*
X107795788Y-43769454D01*
G37*
G04 #@! TD.AperFunction*
G04 #@! TA.AperFunction,Conductor*
G36*
X110894788Y-35991540D02*
G01*
X110975570Y-36045516D01*
X116777647Y-41847593D01*
X116831623Y-41928375D01*
X116850577Y-42023663D01*
X116850577Y-42225500D01*
X116831623Y-42320788D01*
X116777647Y-42401570D01*
X116696865Y-42455546D01*
X116601577Y-42474500D01*
X116086104Y-42474501D01*
X115872587Y-42474501D01*
X115777299Y-42455547D01*
X115696517Y-42401571D01*
X113339055Y-40044109D01*
X113335067Y-40039726D01*
X113330202Y-40032060D01*
X113280627Y-39985506D01*
X113275010Y-39980064D01*
X113256035Y-39961089D01*
X113249850Y-39956291D01*
X113247327Y-39954067D01*
X113241538Y-39948799D01*
X113221813Y-39930276D01*
X113210393Y-39919552D01*
X113196666Y-39912006D01*
X113190905Y-39907820D01*
X113177277Y-39898868D01*
X113171143Y-39895241D01*
X113158764Y-39885638D01*
X113122281Y-39869851D01*
X113101219Y-39859532D01*
X113080096Y-39847920D01*
X113080095Y-39847920D01*
X113066368Y-39840373D01*
X113051200Y-39836479D01*
X113044571Y-39833854D01*
X113029153Y-39828576D01*
X113022298Y-39826584D01*
X113007926Y-39820365D01*
X112992461Y-39817915D01*
X112992456Y-39817914D01*
X112968663Y-39814146D01*
X112945692Y-39809389D01*
X112922348Y-39803395D01*
X112922346Y-39803395D01*
X112907177Y-39799500D01*
X112891513Y-39799500D01*
X112884443Y-39798607D01*
X112868195Y-39797328D01*
X112861069Y-39797104D01*
X112845595Y-39794653D01*
X112830002Y-39796127D01*
X112830000Y-39796127D01*
X112806011Y-39798395D01*
X112782577Y-39799500D01*
X110635385Y-39799500D01*
X110540097Y-39780546D01*
X110459315Y-39726570D01*
X110423648Y-39681529D01*
X110399776Y-39642952D01*
X110399774Y-39642950D01*
X110392166Y-39630655D01*
X110381931Y-39620438D01*
X110372943Y-39609098D01*
X110375014Y-39607456D01*
X110333231Y-39545048D01*
X110314189Y-39449777D01*
X110333055Y-39354472D01*
X110375316Y-39291100D01*
X110373403Y-39289589D01*
X110400181Y-39255683D01*
X110476770Y-39131433D01*
X110488912Y-39105394D01*
X110535135Y-38966034D01*
X110540803Y-38939598D01*
X110549353Y-38856154D01*
X110550000Y-38843485D01*
X110550000Y-38724527D01*
X110545931Y-38704069D01*
X110525473Y-38700000D01*
X108174528Y-38700000D01*
X108154070Y-38704069D01*
X108150001Y-38724527D01*
X108150001Y-38843391D01*
X108150666Y-38856240D01*
X108159445Y-38940868D01*
X108165163Y-38967339D01*
X108211622Y-39106594D01*
X108223811Y-39132615D01*
X108308228Y-39269032D01*
X108304913Y-39271083D01*
X108336269Y-39332128D01*
X108344208Y-39428958D01*
X108314488Y-39521456D01*
X108251633Y-39595539D01*
X108165212Y-39639929D01*
X108096840Y-39649500D01*
X106821586Y-39649500D01*
X106726298Y-39630546D01*
X106645516Y-39576570D01*
X106591540Y-39495788D01*
X106572586Y-39400500D01*
X106591540Y-39305212D01*
X106645516Y-39224430D01*
X107746625Y-38123321D01*
X107827407Y-38069345D01*
X107922695Y-38050391D01*
X108017983Y-38069345D01*
X108098765Y-38123321D01*
X108129731Y-38161055D01*
X108152875Y-38195693D01*
X108174527Y-38200000D01*
X110525472Y-38200000D01*
X110545930Y-38195931D01*
X110549999Y-38175473D01*
X110549999Y-38056609D01*
X110549334Y-38043760D01*
X110540555Y-37959132D01*
X110534837Y-37932661D01*
X110488378Y-37793406D01*
X110476189Y-37767385D01*
X110399386Y-37643272D01*
X110388927Y-37630076D01*
X110344593Y-37543626D01*
X110336717Y-37446790D01*
X110366498Y-37354312D01*
X110385523Y-37325785D01*
X110392984Y-37318311D01*
X110438899Y-37243823D01*
X110477220Y-37181654D01*
X110477220Y-37181653D01*
X110484814Y-37169334D01*
X110539910Y-37003228D01*
X110550500Y-36899866D01*
X110550500Y-36221586D01*
X110569454Y-36126298D01*
X110623430Y-36045516D01*
X110704212Y-35991540D01*
X110799500Y-35972586D01*
X110894788Y-35991540D01*
G37*
G04 #@! TD.AperFunction*
G04 #@! TA.AperFunction,Conductor*
G36*
X107023702Y-32319454D02*
G01*
X107104484Y-32373430D01*
X107158460Y-32454212D01*
X107177414Y-32549500D01*
X107158460Y-32644788D01*
X107104484Y-32725570D01*
X106524109Y-33305945D01*
X106519726Y-33309933D01*
X106512060Y-33314798D01*
X106501335Y-33326219D01*
X106465507Y-33364372D01*
X106460064Y-33369990D01*
X106441089Y-33388965D01*
X106436291Y-33395150D01*
X106434067Y-33397673D01*
X106428805Y-33403456D01*
X106399552Y-33434607D01*
X106392006Y-33448334D01*
X106387820Y-33454095D01*
X106378868Y-33467723D01*
X106375241Y-33473857D01*
X106365638Y-33486236D01*
X106350311Y-33521656D01*
X106349853Y-33522714D01*
X106339532Y-33543781D01*
X106327920Y-33564904D01*
X106320373Y-33578632D01*
X106316479Y-33593800D01*
X106313854Y-33600429D01*
X106308576Y-33615847D01*
X106306584Y-33622702D01*
X106300365Y-33637074D01*
X106297915Y-33652539D01*
X106297914Y-33652544D01*
X106294146Y-33676337D01*
X106289389Y-33699308D01*
X106284757Y-33717350D01*
X106279500Y-33737823D01*
X106279500Y-33753487D01*
X106278607Y-33760557D01*
X106277328Y-33776805D01*
X106277104Y-33783931D01*
X106274653Y-33799405D01*
X106276127Y-33814998D01*
X106276127Y-33815000D01*
X106278395Y-33838989D01*
X106279500Y-33862423D01*
X106279500Y-36073581D01*
X106260546Y-36168869D01*
X106206570Y-36249651D01*
X106125788Y-36303627D01*
X106030500Y-36322581D01*
X105935212Y-36303627D01*
X105854430Y-36249651D01*
X105816188Y-36193379D01*
X105813782Y-36194802D01*
X105738157Y-36066927D01*
X105719108Y-36042369D01*
X105625131Y-35948392D01*
X105600573Y-35929343D01*
X105486180Y-35861691D01*
X105457656Y-35849348D01*
X105327213Y-35811451D01*
X105302301Y-35806901D01*
X105283030Y-35805385D01*
X105273245Y-35805000D01*
X104612027Y-35805000D01*
X104591569Y-35809069D01*
X104587500Y-35829527D01*
X104587500Y-36606000D01*
X104568546Y-36701288D01*
X104514570Y-36782070D01*
X104433788Y-36836046D01*
X104338500Y-36855000D01*
X104336500Y-36855000D01*
X104241212Y-36836046D01*
X104160430Y-36782070D01*
X104106454Y-36701288D01*
X104087500Y-36606000D01*
X104087500Y-35829527D01*
X104083431Y-35809069D01*
X104062973Y-35805000D01*
X103549000Y-35805000D01*
X103453712Y-35786046D01*
X103372930Y-35732070D01*
X103318954Y-35651288D01*
X103300000Y-35556000D01*
X103300000Y-32549500D01*
X103318954Y-32454212D01*
X103372930Y-32373430D01*
X103453712Y-32319454D01*
X103549000Y-32300500D01*
X106928414Y-32300500D01*
X107023702Y-32319454D01*
G37*
G04 #@! TD.AperFunction*
M02*
