M48
; DRILL file {KiCad (6.0.6)} date Tue Aug 29 14:40:33 2023
; FORMAT={-:-/ absolute / metric / decimal}
; #@! TF.CreationDate,2023-08-29T14:40:33+02:00
; #@! TF.GenerationSoftware,Kicad,Pcbnew,(6.0.6)
; #@! TF.FileFunction,Plated,1,2,PTH
FMAT,2
METRIC
; #@! TA.AperFunction,Plated,PTH,ViaDrill
T1C0.800
; #@! TA.AperFunction,Plated,PTH,ComponentDrill
T2C1.000
%
G90
G05
T1
X84.6Y-40.55
X88.75Y-52.35
X88.85Y-49.1
X90.75Y-64.15
X90.8Y-67.1
X91.74Y-54.01
X91.83Y-34.35
X93.1Y-47.8
X94.6Y-53.9
X95.0Y-34.39
X104.5Y-34.39
X104.51Y-53.59
X107.02Y-53.64
X107.05Y-41.7
X107.45Y-61.05
X109.15Y-47.9
X109.2Y-67.65
X109.35Y-38.45
X110.1Y-50.75
X111.4Y-54.43
X112.97Y-33.73
T2
X79.81Y-43.795
X79.81Y-46.335
X79.81Y-48.875
X79.81Y-51.415
X79.81Y-53.955
X79.81Y-56.495
X79.81Y-59.035
X79.81Y-61.575
X82.35Y-43.795
X82.35Y-46.335
X82.35Y-48.875
X82.35Y-51.415
X82.35Y-53.955
X82.35Y-56.495
X82.35Y-59.035
X82.35Y-61.575
X116.2Y-43.825
X116.2Y-46.365
X116.2Y-48.905
X116.2Y-51.445
X116.2Y-53.985
X116.2Y-56.525
X116.2Y-59.065
X116.2Y-61.605
X118.74Y-43.825
X118.74Y-46.365
X118.74Y-48.905
X118.74Y-51.445
X118.74Y-53.985
X118.74Y-56.525
X118.74Y-59.065
X118.74Y-61.605
T0
M30
