G04 #@! TF.GenerationSoftware,KiCad,Pcbnew,(6.0.6)*
G04 #@! TF.CreationDate,2023-08-29T14:40:31+02:00*
G04 #@! TF.ProjectId,digital-isolator-6t2r,64696769-7461-46c2-9d69-736f6c61746f,rev?*
G04 #@! TF.SameCoordinates,Original*
G04 #@! TF.FileFunction,Legend,Bot*
G04 #@! TF.FilePolarity,Positive*
%FSLAX46Y46*%
G04 Gerber Fmt 4.6, Leading zero omitted, Abs format (unit mm)*
G04 Created by KiCad (PCBNEW (6.0.6)) date 2023-08-29 14:40:31*
%MOMM*%
%LPD*%
G01*
G04 APERTURE LIST*
%ADD10C,0.150000*%
%ADD11C,0.120000*%
%ADD12C,3.200000*%
%ADD13R,1.700000X1.700000*%
%ADD14O,1.700000X1.700000*%
G04 APERTURE END LIST*
D10*
X114450000Y-35716666D02*
X114683333Y-35383333D01*
X114850000Y-35716666D02*
X114850000Y-35016666D01*
X114583333Y-35016666D01*
X114516666Y-35050000D01*
X114483333Y-35083333D01*
X114450000Y-35150000D01*
X114450000Y-35250000D01*
X114483333Y-35316666D01*
X114516666Y-35350000D01*
X114583333Y-35383333D01*
X114850000Y-35383333D01*
X113783333Y-35716666D02*
X114183333Y-35716666D01*
X113983333Y-35716666D02*
X113983333Y-35016666D01*
X114050000Y-35116666D01*
X114116666Y-35183333D01*
X114183333Y-35216666D01*
X113450000Y-35716666D02*
X113316666Y-35716666D01*
X113250000Y-35683333D01*
X113216666Y-35650000D01*
X113150000Y-35550000D01*
X113116666Y-35416666D01*
X113116666Y-35150000D01*
X113150000Y-35083333D01*
X113183333Y-35050000D01*
X113250000Y-35016666D01*
X113383333Y-35016666D01*
X113450000Y-35050000D01*
X113483333Y-35083333D01*
X113516666Y-35150000D01*
X113516666Y-35316666D01*
X113483333Y-35383333D01*
X113450000Y-35416666D01*
X113383333Y-35450000D01*
X113250000Y-35450000D01*
X113183333Y-35416666D01*
X113150000Y-35383333D01*
X113116666Y-35316666D01*
X107586666Y-62986666D02*
X107820000Y-62653333D01*
X107986666Y-62986666D02*
X107986666Y-62286666D01*
X107720000Y-62286666D01*
X107653333Y-62320000D01*
X107620000Y-62353333D01*
X107586666Y-62420000D01*
X107586666Y-62520000D01*
X107620000Y-62586666D01*
X107653333Y-62620000D01*
X107720000Y-62653333D01*
X107986666Y-62653333D01*
X106986666Y-62286666D02*
X107120000Y-62286666D01*
X107186666Y-62320000D01*
X107220000Y-62353333D01*
X107286666Y-62453333D01*
X107320000Y-62586666D01*
X107320000Y-62853333D01*
X107286666Y-62920000D01*
X107253333Y-62953333D01*
X107186666Y-62986666D01*
X107053333Y-62986666D01*
X106986666Y-62953333D01*
X106953333Y-62920000D01*
X106920000Y-62853333D01*
X106920000Y-62686666D01*
X106953333Y-62620000D01*
X106986666Y-62586666D01*
X107053333Y-62553333D01*
X107186666Y-62553333D01*
X107253333Y-62586666D01*
X107286666Y-62620000D01*
X107320000Y-62686666D01*
X108460000Y-55616666D02*
X108693333Y-55283333D01*
X108860000Y-55616666D02*
X108860000Y-54916666D01*
X108593333Y-54916666D01*
X108526666Y-54950000D01*
X108493333Y-54983333D01*
X108460000Y-55050000D01*
X108460000Y-55150000D01*
X108493333Y-55216666D01*
X108526666Y-55250000D01*
X108593333Y-55283333D01*
X108860000Y-55283333D01*
X107793333Y-55616666D02*
X108193333Y-55616666D01*
X107993333Y-55616666D02*
X107993333Y-54916666D01*
X108060000Y-55016666D01*
X108126666Y-55083333D01*
X108193333Y-55116666D01*
X107560000Y-54916666D02*
X107093333Y-54916666D01*
X107393333Y-55616666D01*
X87866666Y-50966666D02*
X88100000Y-50633333D01*
X88266666Y-50966666D02*
X88266666Y-50266666D01*
X88000000Y-50266666D01*
X87933333Y-50300000D01*
X87900000Y-50333333D01*
X87866666Y-50400000D01*
X87866666Y-50500000D01*
X87900000Y-50566666D01*
X87933333Y-50600000D01*
X88000000Y-50633333D01*
X88266666Y-50633333D01*
X87466666Y-50566666D02*
X87533333Y-50533333D01*
X87566666Y-50500000D01*
X87600000Y-50433333D01*
X87600000Y-50400000D01*
X87566666Y-50333333D01*
X87533333Y-50300000D01*
X87466666Y-50266666D01*
X87333333Y-50266666D01*
X87266666Y-50300000D01*
X87233333Y-50333333D01*
X87200000Y-50400000D01*
X87200000Y-50433333D01*
X87233333Y-50500000D01*
X87266666Y-50533333D01*
X87333333Y-50566666D01*
X87466666Y-50566666D01*
X87533333Y-50600000D01*
X87566666Y-50633333D01*
X87600000Y-50700000D01*
X87600000Y-50833333D01*
X87566666Y-50900000D01*
X87533333Y-50933333D01*
X87466666Y-50966666D01*
X87333333Y-50966666D01*
X87266666Y-50933333D01*
X87233333Y-50900000D01*
X87200000Y-50833333D01*
X87200000Y-50700000D01*
X87233333Y-50633333D01*
X87266666Y-50600000D01*
X87333333Y-50566666D01*
X90376666Y-52540000D02*
X90043333Y-52306666D01*
X90376666Y-52140000D02*
X89676666Y-52140000D01*
X89676666Y-52406666D01*
X89710000Y-52473333D01*
X89743333Y-52506666D01*
X89810000Y-52540000D01*
X89910000Y-52540000D01*
X89976666Y-52506666D01*
X90010000Y-52473333D01*
X90043333Y-52406666D01*
X90043333Y-52140000D01*
X90376666Y-53206666D02*
X90376666Y-52806666D01*
X90376666Y-53006666D02*
X89676666Y-53006666D01*
X89776666Y-52940000D01*
X89843333Y-52873333D01*
X89876666Y-52806666D01*
X89976666Y-53606666D02*
X89943333Y-53540000D01*
X89910000Y-53506666D01*
X89843333Y-53473333D01*
X89810000Y-53473333D01*
X89743333Y-53506666D01*
X89710000Y-53540000D01*
X89676666Y-53606666D01*
X89676666Y-53740000D01*
X89710000Y-53806666D01*
X89743333Y-53840000D01*
X89810000Y-53873333D01*
X89843333Y-53873333D01*
X89910000Y-53840000D01*
X89943333Y-53806666D01*
X89976666Y-53740000D01*
X89976666Y-53606666D01*
X90010000Y-53540000D01*
X90043333Y-53506666D01*
X90110000Y-53473333D01*
X90243333Y-53473333D01*
X90310000Y-53506666D01*
X90343333Y-53540000D01*
X90376666Y-53606666D01*
X90376666Y-53740000D01*
X90343333Y-53806666D01*
X90310000Y-53840000D01*
X90243333Y-53873333D01*
X90110000Y-53873333D01*
X90043333Y-53840000D01*
X90010000Y-53806666D01*
X89976666Y-53740000D01*
X91280000Y-36316666D02*
X91513333Y-35983333D01*
X91680000Y-36316666D02*
X91680000Y-35616666D01*
X91413333Y-35616666D01*
X91346666Y-35650000D01*
X91313333Y-35683333D01*
X91280000Y-35750000D01*
X91280000Y-35850000D01*
X91313333Y-35916666D01*
X91346666Y-35950000D01*
X91413333Y-35983333D01*
X91680000Y-35983333D01*
X91013333Y-35683333D02*
X90980000Y-35650000D01*
X90913333Y-35616666D01*
X90746666Y-35616666D01*
X90680000Y-35650000D01*
X90646666Y-35683333D01*
X90613333Y-35750000D01*
X90613333Y-35816666D01*
X90646666Y-35916666D01*
X91046666Y-36316666D01*
X90613333Y-36316666D01*
X90180000Y-35616666D02*
X90113333Y-35616666D01*
X90046666Y-35650000D01*
X90013333Y-35683333D01*
X89980000Y-35750000D01*
X89946666Y-35883333D01*
X89946666Y-36050000D01*
X89980000Y-36183333D01*
X90013333Y-36250000D01*
X90046666Y-36283333D01*
X90113333Y-36316666D01*
X90180000Y-36316666D01*
X90246666Y-36283333D01*
X90280000Y-36250000D01*
X90313333Y-36183333D01*
X90346666Y-36050000D01*
X90346666Y-35883333D01*
X90313333Y-35750000D01*
X90280000Y-35683333D01*
X90246666Y-35650000D01*
X90180000Y-35616666D01*
X107570000Y-38266666D02*
X107803333Y-37933333D01*
X107970000Y-38266666D02*
X107970000Y-37566666D01*
X107703333Y-37566666D01*
X107636666Y-37600000D01*
X107603333Y-37633333D01*
X107570000Y-37700000D01*
X107570000Y-37800000D01*
X107603333Y-37866666D01*
X107636666Y-37900000D01*
X107703333Y-37933333D01*
X107970000Y-37933333D01*
X106903333Y-38266666D02*
X107303333Y-38266666D01*
X107103333Y-38266666D02*
X107103333Y-37566666D01*
X107170000Y-37666666D01*
X107236666Y-37733333D01*
X107303333Y-37766666D01*
X106303333Y-37800000D02*
X106303333Y-38266666D01*
X106470000Y-37533333D02*
X106636666Y-38033333D01*
X106203333Y-38033333D01*
D11*
X113772936Y-33015000D02*
X114227064Y-33015000D01*
X113772936Y-34485000D02*
X114227064Y-34485000D01*
X106715000Y-60277064D02*
X106715000Y-59822936D01*
X108185000Y-60277064D02*
X108185000Y-59822936D01*
X107782936Y-54385000D02*
X108237064Y-54385000D01*
X107782936Y-52915000D02*
X108237064Y-52915000D01*
X87977064Y-53035000D02*
X87522936Y-53035000D01*
X87977064Y-51565000D02*
X87522936Y-51565000D01*
X92445000Y-52762936D02*
X92445000Y-53217064D01*
X90975000Y-52762936D02*
X90975000Y-53217064D01*
X90602936Y-33615000D02*
X91057064Y-33615000D01*
X90602936Y-35085000D02*
X91057064Y-35085000D01*
X106315000Y-40927064D02*
X106315000Y-40472936D01*
X107785000Y-40927064D02*
X107785000Y-40472936D01*
%LPC*%
D12*
X119760000Y-70700000D03*
D13*
X116200000Y-43825000D03*
D14*
X118740000Y-43825000D03*
X116200000Y-46365000D03*
X118740000Y-46365000D03*
X116200000Y-48905000D03*
X118740000Y-48905000D03*
X116200000Y-51445000D03*
X118740000Y-51445000D03*
X116200000Y-53985000D03*
X118740000Y-53985000D03*
X116200000Y-56525000D03*
X118740000Y-56525000D03*
X116200000Y-59065000D03*
X118740000Y-59065000D03*
X116200000Y-61605000D03*
X118740000Y-61605000D03*
D13*
X82350000Y-61575000D03*
D14*
X79810000Y-61575000D03*
X82350000Y-59035000D03*
X79810000Y-59035000D03*
X82350000Y-56495000D03*
X79810000Y-56495000D03*
X82350000Y-53955000D03*
X79810000Y-53955000D03*
X82350000Y-51415000D03*
X79810000Y-51415000D03*
X82350000Y-48875000D03*
X79810000Y-48875000D03*
X82350000Y-46335000D03*
X79810000Y-46335000D03*
X82350000Y-43795000D03*
X79810000Y-43795000D03*
D12*
X119760000Y-34700000D03*
G36*
G01*
X112400000Y-34200000D02*
X112400000Y-33300000D01*
G75*
G02*
X112650000Y-33050000I250000J0D01*
G01*
X113350000Y-33050000D01*
G75*
G02*
X113600000Y-33300000I0J-250000D01*
G01*
X113600000Y-34200000D01*
G75*
G02*
X113350000Y-34450000I-250000J0D01*
G01*
X112650000Y-34450000D01*
G75*
G02*
X112400000Y-34200000I0J250000D01*
G01*
G37*
G36*
G01*
X114400000Y-34200000D02*
X114400000Y-33300000D01*
G75*
G02*
X114650000Y-33050000I250000J0D01*
G01*
X115350000Y-33050000D01*
G75*
G02*
X115600000Y-33300000I0J-250000D01*
G01*
X115600000Y-34200000D01*
G75*
G02*
X115350000Y-34450000I-250000J0D01*
G01*
X114650000Y-34450000D01*
G75*
G02*
X114400000Y-34200000I0J250000D01*
G01*
G37*
G36*
G01*
X107900000Y-61650000D02*
X107000000Y-61650000D01*
G75*
G02*
X106750000Y-61400000I0J250000D01*
G01*
X106750000Y-60700000D01*
G75*
G02*
X107000000Y-60450000I250000J0D01*
G01*
X107900000Y-60450000D01*
G75*
G02*
X108150000Y-60700000I0J-250000D01*
G01*
X108150000Y-61400000D01*
G75*
G02*
X107900000Y-61650000I-250000J0D01*
G01*
G37*
G36*
G01*
X107900000Y-59650000D02*
X107000000Y-59650000D01*
G75*
G02*
X106750000Y-59400000I0J250000D01*
G01*
X106750000Y-58700000D01*
G75*
G02*
X107000000Y-58450000I250000J0D01*
G01*
X107900000Y-58450000D01*
G75*
G02*
X108150000Y-58700000I0J-250000D01*
G01*
X108150000Y-59400000D01*
G75*
G02*
X107900000Y-59650000I-250000J0D01*
G01*
G37*
G36*
G01*
X106410000Y-54100000D02*
X106410000Y-53200000D01*
G75*
G02*
X106660000Y-52950000I250000J0D01*
G01*
X107360000Y-52950000D01*
G75*
G02*
X107610000Y-53200000I0J-250000D01*
G01*
X107610000Y-54100000D01*
G75*
G02*
X107360000Y-54350000I-250000J0D01*
G01*
X106660000Y-54350000D01*
G75*
G02*
X106410000Y-54100000I0J250000D01*
G01*
G37*
G36*
G01*
X108410000Y-54100000D02*
X108410000Y-53200000D01*
G75*
G02*
X108660000Y-52950000I250000J0D01*
G01*
X109360000Y-52950000D01*
G75*
G02*
X109610000Y-53200000I0J-250000D01*
G01*
X109610000Y-54100000D01*
G75*
G02*
X109360000Y-54350000I-250000J0D01*
G01*
X108660000Y-54350000D01*
G75*
G02*
X108410000Y-54100000I0J250000D01*
G01*
G37*
G36*
G01*
X89350000Y-51850000D02*
X89350000Y-52750000D01*
G75*
G02*
X89100000Y-53000000I-250000J0D01*
G01*
X88400000Y-53000000D01*
G75*
G02*
X88150000Y-52750000I0J250000D01*
G01*
X88150000Y-51850000D01*
G75*
G02*
X88400000Y-51600000I250000J0D01*
G01*
X89100000Y-51600000D01*
G75*
G02*
X89350000Y-51850000I0J-250000D01*
G01*
G37*
G36*
G01*
X87350000Y-51850000D02*
X87350000Y-52750000D01*
G75*
G02*
X87100000Y-53000000I-250000J0D01*
G01*
X86400000Y-53000000D01*
G75*
G02*
X86150000Y-52750000I0J250000D01*
G01*
X86150000Y-51850000D01*
G75*
G02*
X86400000Y-51600000I250000J0D01*
G01*
X87100000Y-51600000D01*
G75*
G02*
X87350000Y-51850000I0J-250000D01*
G01*
G37*
G36*
G01*
X91260000Y-51390000D02*
X92160000Y-51390000D01*
G75*
G02*
X92410000Y-51640000I0J-250000D01*
G01*
X92410000Y-52340000D01*
G75*
G02*
X92160000Y-52590000I-250000J0D01*
G01*
X91260000Y-52590000D01*
G75*
G02*
X91010000Y-52340000I0J250000D01*
G01*
X91010000Y-51640000D01*
G75*
G02*
X91260000Y-51390000I250000J0D01*
G01*
G37*
G36*
G01*
X91260000Y-53390000D02*
X92160000Y-53390000D01*
G75*
G02*
X92410000Y-53640000I0J-250000D01*
G01*
X92410000Y-54340000D01*
G75*
G02*
X92160000Y-54590000I-250000J0D01*
G01*
X91260000Y-54590000D01*
G75*
G02*
X91010000Y-54340000I0J250000D01*
G01*
X91010000Y-53640000D01*
G75*
G02*
X91260000Y-53390000I250000J0D01*
G01*
G37*
G36*
G01*
X89230000Y-34800000D02*
X89230000Y-33900000D01*
G75*
G02*
X89480000Y-33650000I250000J0D01*
G01*
X90180000Y-33650000D01*
G75*
G02*
X90430000Y-33900000I0J-250000D01*
G01*
X90430000Y-34800000D01*
G75*
G02*
X90180000Y-35050000I-250000J0D01*
G01*
X89480000Y-35050000D01*
G75*
G02*
X89230000Y-34800000I0J250000D01*
G01*
G37*
G36*
G01*
X91230000Y-34800000D02*
X91230000Y-33900000D01*
G75*
G02*
X91480000Y-33650000I250000J0D01*
G01*
X92180000Y-33650000D01*
G75*
G02*
X92430000Y-33900000I0J-250000D01*
G01*
X92430000Y-34800000D01*
G75*
G02*
X92180000Y-35050000I-250000J0D01*
G01*
X91480000Y-35050000D01*
G75*
G02*
X91230000Y-34800000I0J250000D01*
G01*
G37*
G36*
G01*
X107500000Y-42300000D02*
X106600000Y-42300000D01*
G75*
G02*
X106350000Y-42050000I0J250000D01*
G01*
X106350000Y-41350000D01*
G75*
G02*
X106600000Y-41100000I250000J0D01*
G01*
X107500000Y-41100000D01*
G75*
G02*
X107750000Y-41350000I0J-250000D01*
G01*
X107750000Y-42050000D01*
G75*
G02*
X107500000Y-42300000I-250000J0D01*
G01*
G37*
G36*
G01*
X107500000Y-40300000D02*
X106600000Y-40300000D01*
G75*
G02*
X106350000Y-40050000I0J250000D01*
G01*
X106350000Y-39350000D01*
G75*
G02*
X106600000Y-39100000I250000J0D01*
G01*
X107500000Y-39100000D01*
G75*
G02*
X107750000Y-39350000I0J-250000D01*
G01*
X107750000Y-40050000D01*
G75*
G02*
X107500000Y-40300000I-250000J0D01*
G01*
G37*
M02*
