%FSLAX45Y45*%
G04 Gerber Fmt 4.5, Leading zero omitted, Abs format (unit mm)*
G04 Created by KiCad (PCBNEW (6.0.6)) date 2023-11-23 12:31:40*
%MOMM*%
%LPD*%
G01*
G04 APERTURE LIST*
%TA.AperFunction,Profile*%
%ADD10C,0.100000*%
%TD*%
%ADD11C,0.200000*%
%ADD12C,0.080000*%
%ADD13C,0.100000*%
%ADD14C,0.130000*%
G04 APERTURE END LIST*
D10*
X7250000Y-4107000D02*
X11750000Y-4107000D01*
X11750000Y-4107000D02*
X11750000Y-7107000D01*
X11750000Y-7107000D02*
X7250000Y-7107000D01*
X7250000Y-7107000D02*
X7250000Y-4107000D01*
D11*
D12*
X8338000Y-5123000D02*
X8418000Y-5203000D01*
X8418000Y-5123000D02*
X8338000Y-5203000D01*
X8338000Y-5283000D02*
X8418000Y-5363000D01*
X8418000Y-5283000D02*
X8338000Y-5363000D01*
X8339000Y-5443000D02*
X8419000Y-5523000D01*
X8419000Y-5443000D02*
X8339000Y-5523000D01*
X8339000Y-5715000D02*
X8419000Y-5795000D01*
X8419000Y-5715000D02*
X8339000Y-5795000D01*
X8339000Y-5875000D02*
X8419000Y-5955000D01*
X8419000Y-5875000D02*
X8339000Y-5955000D01*
X8339000Y-6035000D02*
X8419000Y-6115000D01*
X8419000Y-6035000D02*
X8339000Y-6115000D01*
X9176250Y-5180000D02*
X9256250Y-5260000D01*
X9256250Y-5180000D02*
X9176250Y-5260000D01*
X9212500Y-6017500D02*
X9292500Y-6097500D01*
X9292500Y-6017500D02*
X9212500Y-6097500D01*
X9385000Y-5177500D02*
X9465000Y-5257500D01*
X9465000Y-5177500D02*
X9385000Y-5257500D01*
X9670000Y-5620000D02*
X9750000Y-5700000D01*
X9750000Y-5620000D02*
X9670000Y-5700000D01*
X9670000Y-6010000D02*
X9750000Y-6090000D01*
X9750000Y-6010000D02*
X9670000Y-6090000D01*
X9985000Y-5042500D02*
X10065000Y-5122500D01*
X10065000Y-5042500D02*
X9985000Y-5122500D01*
X10025000Y-6050000D02*
X10105000Y-6130000D01*
X10105000Y-6050000D02*
X10025000Y-6130000D01*
X10190000Y-5250000D02*
X10270000Y-5330000D01*
X10270000Y-5250000D02*
X10190000Y-5330000D01*
X10516250Y-5040000D02*
X10596250Y-5120000D01*
X10596250Y-5040000D02*
X10516250Y-5120000D01*
X10717500Y-5250000D02*
X10797500Y-5330000D01*
X10797500Y-5250000D02*
X10717500Y-5330000D01*
X11000000Y-5480000D02*
X11080000Y-5560000D01*
X11080000Y-5480000D02*
X11000000Y-5560000D01*
X11121000Y-4235000D02*
X11201000Y-4315000D01*
X11201000Y-4235000D02*
X11121000Y-4315000D01*
X11162000Y-4815000D02*
X11242000Y-4895000D01*
X11242000Y-4815000D02*
X11162000Y-4895000D01*
D13*
X11554000Y-4728000D02*
G75*
G03*
X11554000Y-4728000I-50000J0D01*
G01*
X11554000Y-4982000D02*
G75*
G03*
X11554000Y-4982000I-50000J0D01*
G01*
X11554000Y-5236000D02*
G75*
G03*
X11554000Y-5236000I-50000J0D01*
G01*
X11554000Y-5490000D02*
G75*
G03*
X11554000Y-5490000I-50000J0D01*
G01*
X11554000Y-5744000D02*
G75*
G03*
X11554000Y-5744000I-50000J0D01*
G01*
X11554000Y-5998000D02*
G75*
G03*
X11554000Y-5998000I-50000J0D01*
G01*
X11554000Y-6252000D02*
G75*
G03*
X11554000Y-6252000I-50000J0D01*
G01*
X11554000Y-6506000D02*
G75*
G03*
X11554000Y-6506000I-50000J0D01*
G01*
D14*
X7720000Y-4611000D02*
X7720000Y-4741000D01*
X7655000Y-4676000D02*
X7785000Y-4676000D01*
X7720000Y-5119000D02*
X7720000Y-5249000D01*
X7655000Y-5184000D02*
X7785000Y-5184000D01*
X7720000Y-5975000D02*
X7720000Y-6105000D01*
X7655000Y-6040000D02*
X7785000Y-6040000D01*
X7720000Y-6483000D02*
X7720000Y-6613000D01*
X7655000Y-6548000D02*
X7785000Y-6548000D01*
D11*
X7502619Y-7422476D02*
X7502619Y-7222476D01*
X7550238Y-7222476D01*
X7578809Y-7232000D01*
X7597857Y-7251048D01*
X7607381Y-7270095D01*
X7616905Y-7308190D01*
X7616905Y-7336762D01*
X7607381Y-7374857D01*
X7597857Y-7393905D01*
X7578809Y-7412952D01*
X7550238Y-7422476D01*
X7502619Y-7422476D01*
X7702619Y-7422476D02*
X7702619Y-7289143D01*
X7702619Y-7327238D02*
X7712143Y-7308190D01*
X7721667Y-7298667D01*
X7740714Y-7289143D01*
X7759762Y-7289143D01*
X7826428Y-7422476D02*
X7826428Y-7289143D01*
X7826428Y-7222476D02*
X7816905Y-7232000D01*
X7826428Y-7241524D01*
X7835952Y-7232000D01*
X7826428Y-7222476D01*
X7826428Y-7241524D01*
X7950238Y-7422476D02*
X7931190Y-7412952D01*
X7921667Y-7393905D01*
X7921667Y-7222476D01*
X8055000Y-7422476D02*
X8035952Y-7412952D01*
X8026428Y-7393905D01*
X8026428Y-7222476D01*
X8283571Y-7422476D02*
X8283571Y-7222476D01*
X8350238Y-7365333D01*
X8416905Y-7222476D01*
X8416905Y-7422476D01*
X8597857Y-7422476D02*
X8597857Y-7317714D01*
X8588333Y-7298667D01*
X8569286Y-7289143D01*
X8531190Y-7289143D01*
X8512143Y-7298667D01*
X8597857Y-7412952D02*
X8578810Y-7422476D01*
X8531190Y-7422476D01*
X8512143Y-7412952D01*
X8502619Y-7393905D01*
X8502619Y-7374857D01*
X8512143Y-7355809D01*
X8531190Y-7346286D01*
X8578810Y-7346286D01*
X8597857Y-7336762D01*
X8693095Y-7289143D02*
X8693095Y-7489143D01*
X8693095Y-7298667D02*
X8712143Y-7289143D01*
X8750238Y-7289143D01*
X8769286Y-7298667D01*
X8778810Y-7308190D01*
X8788333Y-7327238D01*
X8788333Y-7384381D01*
X8778810Y-7403428D01*
X8769286Y-7412952D01*
X8750238Y-7422476D01*
X8712143Y-7422476D01*
X8693095Y-7412952D01*
X8874048Y-7403428D02*
X8883571Y-7412952D01*
X8874048Y-7422476D01*
X8864524Y-7412952D01*
X8874048Y-7403428D01*
X8874048Y-7422476D01*
X8874048Y-7298667D02*
X8883571Y-7308190D01*
X8874048Y-7317714D01*
X8864524Y-7308190D01*
X8874048Y-7298667D01*
X8874048Y-7317714D01*
D12*
X7165000Y-7712000D02*
X7245000Y-7792000D01*
X7245000Y-7712000D02*
X7165000Y-7792000D01*
D11*
X7540714Y-7642476D02*
X7559762Y-7642476D01*
X7578809Y-7652000D01*
X7588333Y-7661524D01*
X7597857Y-7680571D01*
X7607381Y-7718667D01*
X7607381Y-7766286D01*
X7597857Y-7804381D01*
X7588333Y-7823428D01*
X7578809Y-7832952D01*
X7559762Y-7842476D01*
X7540714Y-7842476D01*
X7521667Y-7832952D01*
X7512143Y-7823428D01*
X7502619Y-7804381D01*
X7493095Y-7766286D01*
X7493095Y-7718667D01*
X7502619Y-7680571D01*
X7512143Y-7661524D01*
X7521667Y-7652000D01*
X7540714Y-7642476D01*
X7693095Y-7823428D02*
X7702619Y-7832952D01*
X7693095Y-7842476D01*
X7683571Y-7832952D01*
X7693095Y-7823428D01*
X7693095Y-7842476D01*
X7816905Y-7728190D02*
X7797857Y-7718667D01*
X7788333Y-7709143D01*
X7778809Y-7690095D01*
X7778809Y-7680571D01*
X7788333Y-7661524D01*
X7797857Y-7652000D01*
X7816905Y-7642476D01*
X7855000Y-7642476D01*
X7874048Y-7652000D01*
X7883571Y-7661524D01*
X7893095Y-7680571D01*
X7893095Y-7690095D01*
X7883571Y-7709143D01*
X7874048Y-7718667D01*
X7855000Y-7728190D01*
X7816905Y-7728190D01*
X7797857Y-7737714D01*
X7788333Y-7747238D01*
X7778809Y-7766286D01*
X7778809Y-7804381D01*
X7788333Y-7823428D01*
X7797857Y-7832952D01*
X7816905Y-7842476D01*
X7855000Y-7842476D01*
X7874048Y-7832952D01*
X7883571Y-7823428D01*
X7893095Y-7804381D01*
X7893095Y-7766286D01*
X7883571Y-7747238D01*
X7874048Y-7737714D01*
X7855000Y-7728190D01*
X8016905Y-7642476D02*
X8035952Y-7642476D01*
X8055000Y-7652000D01*
X8064524Y-7661524D01*
X8074048Y-7680571D01*
X8083571Y-7718667D01*
X8083571Y-7766286D01*
X8074048Y-7804381D01*
X8064524Y-7823428D01*
X8055000Y-7832952D01*
X8035952Y-7842476D01*
X8016905Y-7842476D01*
X7997857Y-7832952D01*
X7988333Y-7823428D01*
X7978809Y-7804381D01*
X7969286Y-7766286D01*
X7969286Y-7718667D01*
X7978809Y-7680571D01*
X7988333Y-7661524D01*
X7997857Y-7652000D01*
X8016905Y-7642476D01*
X8207381Y-7642476D02*
X8226428Y-7642476D01*
X8245476Y-7652000D01*
X8255000Y-7661524D01*
X8264524Y-7680571D01*
X8274048Y-7718667D01*
X8274048Y-7766286D01*
X8264524Y-7804381D01*
X8255000Y-7823428D01*
X8245476Y-7832952D01*
X8226428Y-7842476D01*
X8207381Y-7842476D01*
X8188333Y-7832952D01*
X8178809Y-7823428D01*
X8169286Y-7804381D01*
X8159762Y-7766286D01*
X8159762Y-7718667D01*
X8169286Y-7680571D01*
X8178809Y-7661524D01*
X8188333Y-7652000D01*
X8207381Y-7642476D01*
X8359762Y-7842476D02*
X8359762Y-7709143D01*
X8359762Y-7728190D02*
X8369286Y-7718667D01*
X8388333Y-7709143D01*
X8416905Y-7709143D01*
X8435952Y-7718667D01*
X8445476Y-7737714D01*
X8445476Y-7842476D01*
X8445476Y-7737714D02*
X8455000Y-7718667D01*
X8474048Y-7709143D01*
X8502619Y-7709143D01*
X8521667Y-7718667D01*
X8531190Y-7737714D01*
X8531190Y-7842476D01*
X8626429Y-7842476D02*
X8626429Y-7709143D01*
X8626429Y-7728190D02*
X8635952Y-7718667D01*
X8655000Y-7709143D01*
X8683571Y-7709143D01*
X8702619Y-7718667D01*
X8712143Y-7737714D01*
X8712143Y-7842476D01*
X8712143Y-7737714D02*
X8721667Y-7718667D01*
X8740714Y-7709143D01*
X8769286Y-7709143D01*
X8788333Y-7718667D01*
X8797857Y-7737714D01*
X8797857Y-7842476D01*
X9188333Y-7632952D02*
X9016905Y-7890095D01*
X9445476Y-7642476D02*
X9464524Y-7642476D01*
X9483571Y-7652000D01*
X9493095Y-7661524D01*
X9502619Y-7680571D01*
X9512143Y-7718667D01*
X9512143Y-7766286D01*
X9502619Y-7804381D01*
X9493095Y-7823428D01*
X9483571Y-7832952D01*
X9464524Y-7842476D01*
X9445476Y-7842476D01*
X9426429Y-7832952D01*
X9416905Y-7823428D01*
X9407381Y-7804381D01*
X9397857Y-7766286D01*
X9397857Y-7718667D01*
X9407381Y-7680571D01*
X9416905Y-7661524D01*
X9426429Y-7652000D01*
X9445476Y-7642476D01*
X9597857Y-7823428D02*
X9607381Y-7832952D01*
X9597857Y-7842476D01*
X9588333Y-7832952D01*
X9597857Y-7823428D01*
X9597857Y-7842476D01*
X9731190Y-7642476D02*
X9750238Y-7642476D01*
X9769286Y-7652000D01*
X9778810Y-7661524D01*
X9788333Y-7680571D01*
X9797857Y-7718667D01*
X9797857Y-7766286D01*
X9788333Y-7804381D01*
X9778810Y-7823428D01*
X9769286Y-7832952D01*
X9750238Y-7842476D01*
X9731190Y-7842476D01*
X9712143Y-7832952D01*
X9702619Y-7823428D01*
X9693095Y-7804381D01*
X9683571Y-7766286D01*
X9683571Y-7718667D01*
X9693095Y-7680571D01*
X9702619Y-7661524D01*
X9712143Y-7652000D01*
X9731190Y-7642476D01*
X9864524Y-7642476D02*
X9988333Y-7642476D01*
X9921667Y-7718667D01*
X9950238Y-7718667D01*
X9969286Y-7728190D01*
X9978810Y-7737714D01*
X9988333Y-7756762D01*
X9988333Y-7804381D01*
X9978810Y-7823428D01*
X9969286Y-7832952D01*
X9950238Y-7842476D01*
X9893095Y-7842476D01*
X9874048Y-7832952D01*
X9864524Y-7823428D01*
X10178810Y-7842476D02*
X10064524Y-7842476D01*
X10121667Y-7842476D02*
X10121667Y-7642476D01*
X10102619Y-7671048D01*
X10083571Y-7690095D01*
X10064524Y-7699619D01*
X10359762Y-7642476D02*
X10264524Y-7642476D01*
X10255000Y-7737714D01*
X10264524Y-7728190D01*
X10283571Y-7718667D01*
X10331190Y-7718667D01*
X10350238Y-7728190D01*
X10359762Y-7737714D01*
X10369286Y-7756762D01*
X10369286Y-7804381D01*
X10359762Y-7823428D01*
X10350238Y-7832952D01*
X10331190Y-7842476D01*
X10283571Y-7842476D01*
X10264524Y-7832952D01*
X10255000Y-7823428D01*
X10445476Y-7642476D02*
X10445476Y-7680571D01*
X10521667Y-7642476D02*
X10521667Y-7680571D01*
X10816905Y-7918667D02*
X10807381Y-7909143D01*
X10788333Y-7880571D01*
X10778810Y-7861524D01*
X10769286Y-7832952D01*
X10759762Y-7785333D01*
X10759762Y-7747238D01*
X10769286Y-7699619D01*
X10778810Y-7671048D01*
X10788333Y-7652000D01*
X10807381Y-7623428D01*
X10816905Y-7613905D01*
X10997857Y-7842476D02*
X10883571Y-7842476D01*
X10940714Y-7842476D02*
X10940714Y-7642476D01*
X10921667Y-7671048D01*
X10902619Y-7690095D01*
X10883571Y-7699619D01*
X11093095Y-7842476D02*
X11131190Y-7842476D01*
X11150238Y-7832952D01*
X11159762Y-7823428D01*
X11178810Y-7794857D01*
X11188333Y-7756762D01*
X11188333Y-7680571D01*
X11178810Y-7661524D01*
X11169286Y-7652000D01*
X11150238Y-7642476D01*
X11112143Y-7642476D01*
X11093095Y-7652000D01*
X11083571Y-7661524D01*
X11074048Y-7680571D01*
X11074048Y-7728190D01*
X11083571Y-7747238D01*
X11093095Y-7756762D01*
X11112143Y-7766286D01*
X11150238Y-7766286D01*
X11169286Y-7756762D01*
X11178810Y-7747238D01*
X11188333Y-7728190D01*
X11426428Y-7842476D02*
X11426428Y-7642476D01*
X11512143Y-7842476D02*
X11512143Y-7737714D01*
X11502619Y-7718667D01*
X11483571Y-7709143D01*
X11455000Y-7709143D01*
X11435952Y-7718667D01*
X11426428Y-7728190D01*
X11635952Y-7842476D02*
X11616905Y-7832952D01*
X11607381Y-7823428D01*
X11597857Y-7804381D01*
X11597857Y-7747238D01*
X11607381Y-7728190D01*
X11616905Y-7718667D01*
X11635952Y-7709143D01*
X11664524Y-7709143D01*
X11683571Y-7718667D01*
X11693095Y-7728190D01*
X11702619Y-7747238D01*
X11702619Y-7804381D01*
X11693095Y-7823428D01*
X11683571Y-7832952D01*
X11664524Y-7842476D01*
X11635952Y-7842476D01*
X11816905Y-7842476D02*
X11797857Y-7832952D01*
X11788333Y-7813905D01*
X11788333Y-7642476D01*
X11969286Y-7832952D02*
X11950238Y-7842476D01*
X11912143Y-7842476D01*
X11893095Y-7832952D01*
X11883571Y-7813905D01*
X11883571Y-7737714D01*
X11893095Y-7718667D01*
X11912143Y-7709143D01*
X11950238Y-7709143D01*
X11969286Y-7718667D01*
X11978809Y-7737714D01*
X11978809Y-7756762D01*
X11883571Y-7775809D01*
X12055000Y-7832952D02*
X12074048Y-7842476D01*
X12112143Y-7842476D01*
X12131190Y-7832952D01*
X12140714Y-7813905D01*
X12140714Y-7804381D01*
X12131190Y-7785333D01*
X12112143Y-7775809D01*
X12083571Y-7775809D01*
X12064524Y-7766286D01*
X12055000Y-7747238D01*
X12055000Y-7737714D01*
X12064524Y-7718667D01*
X12083571Y-7709143D01*
X12112143Y-7709143D01*
X12131190Y-7718667D01*
X12207381Y-7918667D02*
X12216905Y-7909143D01*
X12235952Y-7880571D01*
X12245476Y-7861524D01*
X12255000Y-7832952D01*
X12264524Y-7785333D01*
X12264524Y-7747238D01*
X12255000Y-7699619D01*
X12245476Y-7671048D01*
X12235952Y-7652000D01*
X12216905Y-7623428D01*
X12207381Y-7613905D01*
D13*
X7245000Y-8016000D02*
G75*
G03*
X7245000Y-8016000I-50000J0D01*
G01*
D11*
X7607381Y-8106476D02*
X7493095Y-8106476D01*
X7550238Y-8106476D02*
X7550238Y-7906476D01*
X7531190Y-7935048D01*
X7512143Y-7954095D01*
X7493095Y-7963619D01*
X7693095Y-8087428D02*
X7702619Y-8096952D01*
X7693095Y-8106476D01*
X7683571Y-8096952D01*
X7693095Y-8087428D01*
X7693095Y-8106476D01*
X7826428Y-7906476D02*
X7845476Y-7906476D01*
X7864524Y-7916000D01*
X7874048Y-7925524D01*
X7883571Y-7944571D01*
X7893095Y-7982667D01*
X7893095Y-8030286D01*
X7883571Y-8068381D01*
X7874048Y-8087428D01*
X7864524Y-8096952D01*
X7845476Y-8106476D01*
X7826428Y-8106476D01*
X7807381Y-8096952D01*
X7797857Y-8087428D01*
X7788333Y-8068381D01*
X7778809Y-8030286D01*
X7778809Y-7982667D01*
X7788333Y-7944571D01*
X7797857Y-7925524D01*
X7807381Y-7916000D01*
X7826428Y-7906476D01*
X8016905Y-7906476D02*
X8035952Y-7906476D01*
X8055000Y-7916000D01*
X8064524Y-7925524D01*
X8074048Y-7944571D01*
X8083571Y-7982667D01*
X8083571Y-8030286D01*
X8074048Y-8068381D01*
X8064524Y-8087428D01*
X8055000Y-8096952D01*
X8035952Y-8106476D01*
X8016905Y-8106476D01*
X7997857Y-8096952D01*
X7988333Y-8087428D01*
X7978809Y-8068381D01*
X7969286Y-8030286D01*
X7969286Y-7982667D01*
X7978809Y-7944571D01*
X7988333Y-7925524D01*
X7997857Y-7916000D01*
X8016905Y-7906476D01*
X8207381Y-7906476D02*
X8226428Y-7906476D01*
X8245476Y-7916000D01*
X8255000Y-7925524D01*
X8264524Y-7944571D01*
X8274048Y-7982667D01*
X8274048Y-8030286D01*
X8264524Y-8068381D01*
X8255000Y-8087428D01*
X8245476Y-8096952D01*
X8226428Y-8106476D01*
X8207381Y-8106476D01*
X8188333Y-8096952D01*
X8178809Y-8087428D01*
X8169286Y-8068381D01*
X8159762Y-8030286D01*
X8159762Y-7982667D01*
X8169286Y-7944571D01*
X8178809Y-7925524D01*
X8188333Y-7916000D01*
X8207381Y-7906476D01*
X8359762Y-8106476D02*
X8359762Y-7973143D01*
X8359762Y-7992190D02*
X8369286Y-7982667D01*
X8388333Y-7973143D01*
X8416905Y-7973143D01*
X8435952Y-7982667D01*
X8445476Y-8001714D01*
X8445476Y-8106476D01*
X8445476Y-8001714D02*
X8455000Y-7982667D01*
X8474048Y-7973143D01*
X8502619Y-7973143D01*
X8521667Y-7982667D01*
X8531190Y-8001714D01*
X8531190Y-8106476D01*
X8626429Y-8106476D02*
X8626429Y-7973143D01*
X8626429Y-7992190D02*
X8635952Y-7982667D01*
X8655000Y-7973143D01*
X8683571Y-7973143D01*
X8702619Y-7982667D01*
X8712143Y-8001714D01*
X8712143Y-8106476D01*
X8712143Y-8001714D02*
X8721667Y-7982667D01*
X8740714Y-7973143D01*
X8769286Y-7973143D01*
X8788333Y-7982667D01*
X8797857Y-8001714D01*
X8797857Y-8106476D01*
X9188333Y-7896952D02*
X9016905Y-8154095D01*
X9445476Y-7906476D02*
X9464524Y-7906476D01*
X9483571Y-7916000D01*
X9493095Y-7925524D01*
X9502619Y-7944571D01*
X9512143Y-7982667D01*
X9512143Y-8030286D01*
X9502619Y-8068381D01*
X9493095Y-8087428D01*
X9483571Y-8096952D01*
X9464524Y-8106476D01*
X9445476Y-8106476D01*
X9426429Y-8096952D01*
X9416905Y-8087428D01*
X9407381Y-8068381D01*
X9397857Y-8030286D01*
X9397857Y-7982667D01*
X9407381Y-7944571D01*
X9416905Y-7925524D01*
X9426429Y-7916000D01*
X9445476Y-7906476D01*
X9597857Y-8087428D02*
X9607381Y-8096952D01*
X9597857Y-8106476D01*
X9588333Y-8096952D01*
X9597857Y-8087428D01*
X9597857Y-8106476D01*
X9731190Y-7906476D02*
X9750238Y-7906476D01*
X9769286Y-7916000D01*
X9778810Y-7925524D01*
X9788333Y-7944571D01*
X9797857Y-7982667D01*
X9797857Y-8030286D01*
X9788333Y-8068381D01*
X9778810Y-8087428D01*
X9769286Y-8096952D01*
X9750238Y-8106476D01*
X9731190Y-8106476D01*
X9712143Y-8096952D01*
X9702619Y-8087428D01*
X9693095Y-8068381D01*
X9683571Y-8030286D01*
X9683571Y-7982667D01*
X9693095Y-7944571D01*
X9702619Y-7925524D01*
X9712143Y-7916000D01*
X9731190Y-7906476D01*
X9864524Y-7906476D02*
X9988333Y-7906476D01*
X9921667Y-7982667D01*
X9950238Y-7982667D01*
X9969286Y-7992190D01*
X9978810Y-8001714D01*
X9988333Y-8020762D01*
X9988333Y-8068381D01*
X9978810Y-8087428D01*
X9969286Y-8096952D01*
X9950238Y-8106476D01*
X9893095Y-8106476D01*
X9874048Y-8096952D01*
X9864524Y-8087428D01*
X10083571Y-8106476D02*
X10121667Y-8106476D01*
X10140714Y-8096952D01*
X10150238Y-8087428D01*
X10169286Y-8058857D01*
X10178810Y-8020762D01*
X10178810Y-7944571D01*
X10169286Y-7925524D01*
X10159762Y-7916000D01*
X10140714Y-7906476D01*
X10102619Y-7906476D01*
X10083571Y-7916000D01*
X10074048Y-7925524D01*
X10064524Y-7944571D01*
X10064524Y-7992190D01*
X10074048Y-8011238D01*
X10083571Y-8020762D01*
X10102619Y-8030286D01*
X10140714Y-8030286D01*
X10159762Y-8020762D01*
X10169286Y-8011238D01*
X10178810Y-7992190D01*
X10350238Y-7973143D02*
X10350238Y-8106476D01*
X10302619Y-7896952D02*
X10255000Y-8039809D01*
X10378810Y-8039809D01*
X10445476Y-7906476D02*
X10445476Y-7944571D01*
X10521667Y-7906476D02*
X10521667Y-7944571D01*
X10816905Y-8182667D02*
X10807381Y-8173143D01*
X10788333Y-8144571D01*
X10778810Y-8125524D01*
X10769286Y-8096952D01*
X10759762Y-8049333D01*
X10759762Y-8011238D01*
X10769286Y-7963619D01*
X10778810Y-7935048D01*
X10788333Y-7916000D01*
X10807381Y-7887428D01*
X10816905Y-7877905D01*
X10921667Y-7992190D02*
X10902619Y-7982667D01*
X10893095Y-7973143D01*
X10883571Y-7954095D01*
X10883571Y-7944571D01*
X10893095Y-7925524D01*
X10902619Y-7916000D01*
X10921667Y-7906476D01*
X10959762Y-7906476D01*
X10978810Y-7916000D01*
X10988333Y-7925524D01*
X10997857Y-7944571D01*
X10997857Y-7954095D01*
X10988333Y-7973143D01*
X10978810Y-7982667D01*
X10959762Y-7992190D01*
X10921667Y-7992190D01*
X10902619Y-8001714D01*
X10893095Y-8011238D01*
X10883571Y-8030286D01*
X10883571Y-8068381D01*
X10893095Y-8087428D01*
X10902619Y-8096952D01*
X10921667Y-8106476D01*
X10959762Y-8106476D01*
X10978810Y-8096952D01*
X10988333Y-8087428D01*
X10997857Y-8068381D01*
X10997857Y-8030286D01*
X10988333Y-8011238D01*
X10978810Y-8001714D01*
X10959762Y-7992190D01*
X11235952Y-8106476D02*
X11235952Y-7906476D01*
X11321667Y-8106476D02*
X11321667Y-8001714D01*
X11312143Y-7982667D01*
X11293095Y-7973143D01*
X11264524Y-7973143D01*
X11245476Y-7982667D01*
X11235952Y-7992190D01*
X11445476Y-8106476D02*
X11426428Y-8096952D01*
X11416905Y-8087428D01*
X11407381Y-8068381D01*
X11407381Y-8011238D01*
X11416905Y-7992190D01*
X11426428Y-7982667D01*
X11445476Y-7973143D01*
X11474048Y-7973143D01*
X11493095Y-7982667D01*
X11502619Y-7992190D01*
X11512143Y-8011238D01*
X11512143Y-8068381D01*
X11502619Y-8087428D01*
X11493095Y-8096952D01*
X11474048Y-8106476D01*
X11445476Y-8106476D01*
X11626428Y-8106476D02*
X11607381Y-8096952D01*
X11597857Y-8077905D01*
X11597857Y-7906476D01*
X11778809Y-8096952D02*
X11759762Y-8106476D01*
X11721667Y-8106476D01*
X11702619Y-8096952D01*
X11693095Y-8077905D01*
X11693095Y-8001714D01*
X11702619Y-7982667D01*
X11721667Y-7973143D01*
X11759762Y-7973143D01*
X11778809Y-7982667D01*
X11788333Y-8001714D01*
X11788333Y-8020762D01*
X11693095Y-8039809D01*
X11864524Y-8096952D02*
X11883571Y-8106476D01*
X11921667Y-8106476D01*
X11940714Y-8096952D01*
X11950238Y-8077905D01*
X11950238Y-8068381D01*
X11940714Y-8049333D01*
X11921667Y-8039809D01*
X11893095Y-8039809D01*
X11874048Y-8030286D01*
X11864524Y-8011238D01*
X11864524Y-8001714D01*
X11874048Y-7982667D01*
X11893095Y-7973143D01*
X11921667Y-7973143D01*
X11940714Y-7982667D01*
X12016905Y-8182667D02*
X12026428Y-8173143D01*
X12045476Y-8144571D01*
X12055000Y-8125524D01*
X12064524Y-8096952D01*
X12074048Y-8049333D01*
X12074048Y-8011238D01*
X12064524Y-7963619D01*
X12055000Y-7935048D01*
X12045476Y-7916000D01*
X12026428Y-7887428D01*
X12016905Y-7877905D01*
D14*
X7180000Y-8215000D02*
X7180000Y-8345000D01*
X7115000Y-8280000D02*
X7245000Y-8280000D01*
D11*
X7607381Y-8370476D02*
X7493095Y-8370476D01*
X7550238Y-8370476D02*
X7550238Y-8170476D01*
X7531190Y-8199048D01*
X7512143Y-8218095D01*
X7493095Y-8227619D01*
X7693095Y-8351428D02*
X7702619Y-8360952D01*
X7693095Y-8370476D01*
X7683571Y-8360952D01*
X7693095Y-8351428D01*
X7693095Y-8370476D01*
X7769286Y-8170476D02*
X7893095Y-8170476D01*
X7826428Y-8246667D01*
X7855000Y-8246667D01*
X7874048Y-8256190D01*
X7883571Y-8265714D01*
X7893095Y-8284762D01*
X7893095Y-8332381D01*
X7883571Y-8351428D01*
X7874048Y-8360952D01*
X7855000Y-8370476D01*
X7797857Y-8370476D01*
X7778809Y-8360952D01*
X7769286Y-8351428D01*
X8016905Y-8170476D02*
X8035952Y-8170476D01*
X8055000Y-8180000D01*
X8064524Y-8189524D01*
X8074048Y-8208571D01*
X8083571Y-8246667D01*
X8083571Y-8294286D01*
X8074048Y-8332381D01*
X8064524Y-8351428D01*
X8055000Y-8360952D01*
X8035952Y-8370476D01*
X8016905Y-8370476D01*
X7997857Y-8360952D01*
X7988333Y-8351428D01*
X7978809Y-8332381D01*
X7969286Y-8294286D01*
X7969286Y-8246667D01*
X7978809Y-8208571D01*
X7988333Y-8189524D01*
X7997857Y-8180000D01*
X8016905Y-8170476D01*
X8207381Y-8170476D02*
X8226428Y-8170476D01*
X8245476Y-8180000D01*
X8255000Y-8189524D01*
X8264524Y-8208571D01*
X8274048Y-8246667D01*
X8274048Y-8294286D01*
X8264524Y-8332381D01*
X8255000Y-8351428D01*
X8245476Y-8360952D01*
X8226428Y-8370476D01*
X8207381Y-8370476D01*
X8188333Y-8360952D01*
X8178809Y-8351428D01*
X8169286Y-8332381D01*
X8159762Y-8294286D01*
X8159762Y-8246667D01*
X8169286Y-8208571D01*
X8178809Y-8189524D01*
X8188333Y-8180000D01*
X8207381Y-8170476D01*
X8359762Y-8370476D02*
X8359762Y-8237143D01*
X8359762Y-8256190D02*
X8369286Y-8246667D01*
X8388333Y-8237143D01*
X8416905Y-8237143D01*
X8435952Y-8246667D01*
X8445476Y-8265714D01*
X8445476Y-8370476D01*
X8445476Y-8265714D02*
X8455000Y-8246667D01*
X8474048Y-8237143D01*
X8502619Y-8237143D01*
X8521667Y-8246667D01*
X8531190Y-8265714D01*
X8531190Y-8370476D01*
X8626429Y-8370476D02*
X8626429Y-8237143D01*
X8626429Y-8256190D02*
X8635952Y-8246667D01*
X8655000Y-8237143D01*
X8683571Y-8237143D01*
X8702619Y-8246667D01*
X8712143Y-8265714D01*
X8712143Y-8370476D01*
X8712143Y-8265714D02*
X8721667Y-8246667D01*
X8740714Y-8237143D01*
X8769286Y-8237143D01*
X8788333Y-8246667D01*
X8797857Y-8265714D01*
X8797857Y-8370476D01*
X9188333Y-8160952D02*
X9016905Y-8418095D01*
X9445476Y-8170476D02*
X9464524Y-8170476D01*
X9483571Y-8180000D01*
X9493095Y-8189524D01*
X9502619Y-8208571D01*
X9512143Y-8246667D01*
X9512143Y-8294286D01*
X9502619Y-8332381D01*
X9493095Y-8351428D01*
X9483571Y-8360952D01*
X9464524Y-8370476D01*
X9445476Y-8370476D01*
X9426429Y-8360952D01*
X9416905Y-8351428D01*
X9407381Y-8332381D01*
X9397857Y-8294286D01*
X9397857Y-8246667D01*
X9407381Y-8208571D01*
X9416905Y-8189524D01*
X9426429Y-8180000D01*
X9445476Y-8170476D01*
X9597857Y-8351428D02*
X9607381Y-8360952D01*
X9597857Y-8370476D01*
X9588333Y-8360952D01*
X9597857Y-8351428D01*
X9597857Y-8370476D01*
X9731190Y-8170476D02*
X9750238Y-8170476D01*
X9769286Y-8180000D01*
X9778810Y-8189524D01*
X9788333Y-8208571D01*
X9797857Y-8246667D01*
X9797857Y-8294286D01*
X9788333Y-8332381D01*
X9778810Y-8351428D01*
X9769286Y-8360952D01*
X9750238Y-8370476D01*
X9731190Y-8370476D01*
X9712143Y-8360952D01*
X9702619Y-8351428D01*
X9693095Y-8332381D01*
X9683571Y-8294286D01*
X9683571Y-8246667D01*
X9693095Y-8208571D01*
X9702619Y-8189524D01*
X9712143Y-8180000D01*
X9731190Y-8170476D01*
X9978810Y-8170476D02*
X9883571Y-8170476D01*
X9874048Y-8265714D01*
X9883571Y-8256190D01*
X9902619Y-8246667D01*
X9950238Y-8246667D01*
X9969286Y-8256190D01*
X9978810Y-8265714D01*
X9988333Y-8284762D01*
X9988333Y-8332381D01*
X9978810Y-8351428D01*
X9969286Y-8360952D01*
X9950238Y-8370476D01*
X9902619Y-8370476D01*
X9883571Y-8360952D01*
X9874048Y-8351428D01*
X10178810Y-8370476D02*
X10064524Y-8370476D01*
X10121667Y-8370476D02*
X10121667Y-8170476D01*
X10102619Y-8199048D01*
X10083571Y-8218095D01*
X10064524Y-8227619D01*
X10255000Y-8189524D02*
X10264524Y-8180000D01*
X10283571Y-8170476D01*
X10331190Y-8170476D01*
X10350238Y-8180000D01*
X10359762Y-8189524D01*
X10369286Y-8208571D01*
X10369286Y-8227619D01*
X10359762Y-8256190D01*
X10245476Y-8370476D01*
X10369286Y-8370476D01*
X10445476Y-8170476D02*
X10445476Y-8208571D01*
X10521667Y-8170476D02*
X10521667Y-8208571D01*
X10816905Y-8446667D02*
X10807381Y-8437143D01*
X10788333Y-8408571D01*
X10778810Y-8389524D01*
X10769286Y-8360952D01*
X10759762Y-8313333D01*
X10759762Y-8275238D01*
X10769286Y-8227619D01*
X10778810Y-8199048D01*
X10788333Y-8180000D01*
X10807381Y-8151428D01*
X10816905Y-8141905D01*
X10978810Y-8237143D02*
X10978810Y-8370476D01*
X10931190Y-8160952D02*
X10883571Y-8303809D01*
X11007381Y-8303809D01*
X11235952Y-8370476D02*
X11235952Y-8170476D01*
X11321667Y-8370476D02*
X11321667Y-8265714D01*
X11312143Y-8246667D01*
X11293095Y-8237143D01*
X11264524Y-8237143D01*
X11245476Y-8246667D01*
X11235952Y-8256190D01*
X11445476Y-8370476D02*
X11426428Y-8360952D01*
X11416905Y-8351428D01*
X11407381Y-8332381D01*
X11407381Y-8275238D01*
X11416905Y-8256190D01*
X11426428Y-8246667D01*
X11445476Y-8237143D01*
X11474048Y-8237143D01*
X11493095Y-8246667D01*
X11502619Y-8256190D01*
X11512143Y-8275238D01*
X11512143Y-8332381D01*
X11502619Y-8351428D01*
X11493095Y-8360952D01*
X11474048Y-8370476D01*
X11445476Y-8370476D01*
X11626428Y-8370476D02*
X11607381Y-8360952D01*
X11597857Y-8341905D01*
X11597857Y-8170476D01*
X11778809Y-8360952D02*
X11759762Y-8370476D01*
X11721667Y-8370476D01*
X11702619Y-8360952D01*
X11693095Y-8341905D01*
X11693095Y-8265714D01*
X11702619Y-8246667D01*
X11721667Y-8237143D01*
X11759762Y-8237143D01*
X11778809Y-8246667D01*
X11788333Y-8265714D01*
X11788333Y-8284762D01*
X11693095Y-8303809D01*
X11864524Y-8360952D02*
X11883571Y-8370476D01*
X11921667Y-8370476D01*
X11940714Y-8360952D01*
X11950238Y-8341905D01*
X11950238Y-8332381D01*
X11940714Y-8313333D01*
X11921667Y-8303809D01*
X11893095Y-8303809D01*
X11874048Y-8294286D01*
X11864524Y-8275238D01*
X11864524Y-8265714D01*
X11874048Y-8246667D01*
X11893095Y-8237143D01*
X11921667Y-8237143D01*
X11940714Y-8246667D01*
X12016905Y-8446667D02*
X12026428Y-8437143D01*
X12045476Y-8408571D01*
X12055000Y-8389524D01*
X12064524Y-8360952D01*
X12074048Y-8313333D01*
X12074048Y-8275238D01*
X12064524Y-8227619D01*
X12055000Y-8199048D01*
X12045476Y-8180000D01*
X12026428Y-8151428D01*
X12016905Y-8141905D01*
M02*
