G04 #@! TF.GenerationSoftware,KiCad,Pcbnew,(6.0.6)*
G04 #@! TF.CreationDate,2023-11-23T12:30:35+01:00*
G04 #@! TF.ProjectId,current-sensor-acs712,63757272-656e-4742-9d73-656e736f722d,rev?*
G04 #@! TF.SameCoordinates,Original*
G04 #@! TF.FileFunction,Copper,L2,Bot*
G04 #@! TF.FilePolarity,Positive*
%FSLAX46Y46*%
G04 Gerber Fmt 4.6, Leading zero omitted, Abs format (unit mm)*
G04 Created by KiCad (PCBNEW (6.0.6)) date 2023-11-23 12:30:35*
%MOMM*%
%LPD*%
G01*
G04 APERTURE LIST*
G04 #@! TA.AperFunction,NonConductor*
%ADD10C,0.200000*%
G04 #@! TD*
G04 #@! TA.AperFunction,ComponentPad*
%ADD11R,2.600000X2.600000*%
G04 #@! TD*
G04 #@! TA.AperFunction,ComponentPad*
%ADD12C,2.600000*%
G04 #@! TD*
G04 #@! TA.AperFunction,ComponentPad*
%ADD13R,1.700000X1.700000*%
G04 #@! TD*
G04 #@! TA.AperFunction,ComponentPad*
%ADD14O,1.700000X1.700000*%
G04 #@! TD*
G04 #@! TA.AperFunction,ViaPad*
%ADD15C,1.400000*%
G04 #@! TD*
G04 #@! TA.AperFunction,Conductor*
%ADD16C,0.500000*%
G04 #@! TD*
G04 #@! TA.AperFunction,Conductor*
%ADD17C,0.300000*%
G04 #@! TD*
G04 APERTURE END LIST*
D10*
X72510000Y-41080000D02*
X117510000Y-41080000D01*
X72510000Y-71080000D02*
X72510000Y-41080000D01*
X117510000Y-71080000D02*
X72510000Y-71080000D01*
X117510000Y-41080000D02*
X117510000Y-71080000D01*
D11*
X77200000Y-60400000D03*
D12*
X77200000Y-65480000D03*
D13*
X115040000Y-47280000D03*
D14*
X115040000Y-49820000D03*
X115040000Y-52360000D03*
X115040000Y-54900000D03*
X115040000Y-57440000D03*
X115040000Y-59980000D03*
X115040000Y-62520000D03*
X115040000Y-65060000D03*
D11*
X77200000Y-46760000D03*
D12*
X77200000Y-51840000D03*
G04 #@! TA.AperFunction,SMDPad,CuDef*
G36*
G01*
X112470000Y-49150000D02*
X111570000Y-49150000D01*
G75*
G02*
X111320000Y-48900000I0J250000D01*
G01*
X111320000Y-48200000D01*
G75*
G02*
X111570000Y-47950000I250000J0D01*
G01*
X112470000Y-47950000D01*
G75*
G02*
X112720000Y-48200000I0J-250000D01*
G01*
X112720000Y-48900000D01*
G75*
G02*
X112470000Y-49150000I-250000J0D01*
G01*
G37*
G04 #@! TD.AperFunction*
G04 #@! TA.AperFunction,SMDPad,CuDef*
G36*
G01*
X112470000Y-47150000D02*
X111570000Y-47150000D01*
G75*
G02*
X111320000Y-46900000I0J250000D01*
G01*
X111320000Y-46200000D01*
G75*
G02*
X111570000Y-45950000I250000J0D01*
G01*
X112470000Y-45950000D01*
G75*
G02*
X112720000Y-46200000I0J-250000D01*
G01*
X112720000Y-46900000D01*
G75*
G02*
X112470000Y-47150000I-250000J0D01*
G01*
G37*
G04 #@! TD.AperFunction*
D15*
X92162500Y-52200000D03*
X97100000Y-60500000D03*
X111610000Y-42750000D03*
X107575000Y-52900000D03*
X100650000Y-60900000D03*
X94250000Y-52175000D03*
X100250000Y-50825000D03*
X92525000Y-60575000D03*
X97100000Y-56600000D03*
X112020000Y-48550000D03*
X105562500Y-50800000D03*
X83790000Y-54830000D03*
X83780000Y-51630000D03*
X83780000Y-53230000D03*
X83790000Y-57550000D03*
X83790000Y-59150000D03*
X83790000Y-60750000D03*
X110400000Y-55200000D03*
X102300000Y-52900000D03*
D16*
X114250000Y-46700000D02*
X114850000Y-47300000D01*
D17*
X91100000Y-62000000D02*
X91100000Y-53262500D01*
D16*
X92162500Y-52200000D02*
X92162500Y-47507500D01*
D17*
X97100000Y-62325000D02*
X95700000Y-63725000D01*
D16*
X112510000Y-46700000D02*
X114250000Y-46700000D01*
D17*
X97100000Y-60500000D02*
X97100000Y-62325000D01*
D16*
X92162500Y-47507500D02*
X96920000Y-42750000D01*
D17*
X91100000Y-53262500D02*
X92162500Y-52200000D01*
X92825000Y-63725000D02*
X91100000Y-62000000D01*
D16*
X114850000Y-44980000D02*
X114850000Y-47650000D01*
X112020000Y-46210000D02*
X112510000Y-46700000D01*
D17*
X95700000Y-63725000D02*
X92825000Y-63725000D01*
D16*
X112620000Y-42750000D02*
X114850000Y-44980000D01*
X96920000Y-42750000D02*
X111610000Y-42750000D01*
X111610000Y-42750000D02*
X112620000Y-42750000D01*
X115160000Y-49800000D02*
X112100000Y-49800000D01*
X105562500Y-50537500D02*
X105562500Y-50800000D01*
X112100000Y-49800000D02*
X106300000Y-49800000D01*
X112020000Y-48550000D02*
X112020000Y-49720000D01*
X112020000Y-49720000D02*
X112100000Y-49800000D01*
X106300000Y-49800000D02*
X105562500Y-50537500D01*
D17*
X102300000Y-52900000D02*
X104900000Y-55500000D01*
X110100000Y-55500000D02*
X110400000Y-55200000D01*
X104900000Y-55500000D02*
X110100000Y-55500000D01*
G04 #@! TA.AperFunction,Conductor*
G36*
X87938819Y-56539258D02*
G01*
X88020898Y-56594102D01*
X88075742Y-56676181D01*
X88095000Y-56773000D01*
X88095000Y-60105204D01*
X88075742Y-60202023D01*
X88020898Y-60284102D01*
X80269102Y-68035898D01*
X80187023Y-68090742D01*
X80090204Y-68110000D01*
X74848000Y-68110000D01*
X74751181Y-68090742D01*
X74669102Y-68035898D01*
X74614258Y-67953819D01*
X74595000Y-67857000D01*
X74595000Y-67066398D01*
X76337869Y-67066398D01*
X76338859Y-67067880D01*
X76348908Y-67075282D01*
X76468737Y-67138326D01*
X76485896Y-67145787D01*
X76721889Y-67228199D01*
X76739960Y-67233041D01*
X76985526Y-67279663D01*
X77004141Y-67281784D01*
X77253892Y-67291597D01*
X77272611Y-67290944D01*
X77521079Y-67263731D01*
X77539475Y-67260322D01*
X77781209Y-67196679D01*
X77798899Y-67190587D01*
X78028553Y-67091921D01*
X78045171Y-67083270D01*
X78048491Y-67081215D01*
X78063990Y-67066762D01*
X78061777Y-67060842D01*
X78059326Y-67057747D01*
X77217618Y-66216038D01*
X77200000Y-66204266D01*
X77182381Y-66216039D01*
X76349642Y-67048779D01*
X76337869Y-67066398D01*
X74595000Y-67066398D01*
X74595000Y-65441909D01*
X75388001Y-65441909D01*
X75399994Y-65691590D01*
X75402274Y-65710155D01*
X75451040Y-65955318D01*
X75456043Y-65973357D01*
X75540507Y-66208610D01*
X75548121Y-66225711D01*
X75601948Y-66325888D01*
X75615426Y-66342238D01*
X75617678Y-66341550D01*
X75626839Y-66334740D01*
X76463962Y-65497618D01*
X76475734Y-65480000D01*
X77924266Y-65480000D01*
X77936039Y-65497619D01*
X78771896Y-66333475D01*
X78789515Y-66345248D01*
X78794193Y-66342122D01*
X78797217Y-66336552D01*
X78899871Y-66108668D01*
X78906277Y-66091069D01*
X78974125Y-65850500D01*
X78977856Y-65832157D01*
X79009783Y-65581197D01*
X79010751Y-65568532D01*
X79012904Y-65486350D01*
X79012599Y-65473665D01*
X78993851Y-65221380D01*
X78991081Y-65202847D01*
X78935919Y-64959066D01*
X78930445Y-64941162D01*
X78839855Y-64708209D01*
X78831788Y-64691297D01*
X78798814Y-64633604D01*
X78784913Y-64617612D01*
X78781065Y-64618899D01*
X78774529Y-64623892D01*
X77936038Y-65462382D01*
X77924266Y-65480000D01*
X76475734Y-65480000D01*
X76463961Y-65462381D01*
X75630078Y-64628499D01*
X75612459Y-64616726D01*
X75607673Y-64619924D01*
X75604576Y-64623871D01*
X75589415Y-64648855D01*
X75580912Y-64665541D01*
X75484254Y-64896044D01*
X75478312Y-64913804D01*
X75416785Y-65156068D01*
X75413534Y-65174504D01*
X75388491Y-65423203D01*
X75388001Y-65441909D01*
X74595000Y-65441909D01*
X74595000Y-63892244D01*
X76334960Y-63892244D01*
X76344840Y-63906419D01*
X77182382Y-64743962D01*
X77200000Y-64755734D01*
X77217619Y-64743961D01*
X78051397Y-63910182D01*
X78063170Y-63892563D01*
X78063129Y-63892502D01*
X78050408Y-63883387D01*
X77887611Y-63803105D01*
X77870245Y-63796088D01*
X77632200Y-63719889D01*
X77613981Y-63715515D01*
X77367280Y-63675337D01*
X77348635Y-63673706D01*
X77098703Y-63670435D01*
X77080014Y-63671578D01*
X76832342Y-63705284D01*
X76814035Y-63709175D01*
X76574059Y-63779122D01*
X76556528Y-63785677D01*
X76351620Y-63880139D01*
X76334960Y-63892244D01*
X74595000Y-63892244D01*
X74595000Y-61741245D01*
X75392001Y-61741245D01*
X75392740Y-61754888D01*
X75397035Y-61794436D01*
X75404318Y-61825064D01*
X75443501Y-61929585D01*
X75460637Y-61960885D01*
X75526285Y-62048479D01*
X75551521Y-62073715D01*
X75639115Y-62139363D01*
X75670415Y-62156499D01*
X75774936Y-62195682D01*
X75805566Y-62202966D01*
X75845095Y-62207260D01*
X75858764Y-62208000D01*
X76667082Y-62208000D01*
X76687866Y-62203866D01*
X76692000Y-62183082D01*
X76692000Y-62183081D01*
X77708000Y-62183081D01*
X77712134Y-62203865D01*
X77732918Y-62207999D01*
X78541245Y-62207999D01*
X78554888Y-62207260D01*
X78594436Y-62202965D01*
X78625064Y-62195682D01*
X78729585Y-62156499D01*
X78760885Y-62139363D01*
X78848479Y-62073715D01*
X78873715Y-62048479D01*
X78939363Y-61960885D01*
X78956499Y-61929585D01*
X78995682Y-61825064D01*
X79002966Y-61794434D01*
X79007260Y-61754905D01*
X79008000Y-61741236D01*
X79008000Y-60932918D01*
X79003866Y-60912134D01*
X78983082Y-60908000D01*
X77732918Y-60908000D01*
X77712134Y-60912134D01*
X77708000Y-60932918D01*
X77708000Y-62183081D01*
X76692000Y-62183081D01*
X76692000Y-60932918D01*
X76687866Y-60912134D01*
X76667082Y-60908000D01*
X75416919Y-60908000D01*
X75396135Y-60912134D01*
X75392001Y-60932918D01*
X75392001Y-61741245D01*
X74595000Y-61741245D01*
X74595000Y-59867082D01*
X75392000Y-59867082D01*
X75396134Y-59887866D01*
X75416918Y-59892000D01*
X76667082Y-59892000D01*
X76687866Y-59887866D01*
X76692000Y-59867082D01*
X77708000Y-59867082D01*
X77712134Y-59887866D01*
X77732918Y-59892000D01*
X78983081Y-59892000D01*
X79003865Y-59887866D01*
X79007999Y-59867082D01*
X79007999Y-59058755D01*
X79007260Y-59045112D01*
X79002965Y-59005564D01*
X78995682Y-58974936D01*
X78956499Y-58870415D01*
X78939363Y-58839115D01*
X78873715Y-58751521D01*
X78848479Y-58726285D01*
X78760885Y-58660637D01*
X78729585Y-58643501D01*
X78625064Y-58604318D01*
X78594434Y-58597034D01*
X78554905Y-58592740D01*
X78541236Y-58592000D01*
X77732918Y-58592000D01*
X77712134Y-58596134D01*
X77708000Y-58616918D01*
X77708000Y-59867082D01*
X76692000Y-59867082D01*
X76692000Y-58616919D01*
X76687866Y-58596135D01*
X76667082Y-58592001D01*
X75858755Y-58592001D01*
X75845112Y-58592740D01*
X75805564Y-58597035D01*
X75774936Y-58604318D01*
X75670415Y-58643501D01*
X75639115Y-58660637D01*
X75551521Y-58726285D01*
X75526285Y-58751521D01*
X75460637Y-58839115D01*
X75443501Y-58870415D01*
X75404318Y-58974936D01*
X75397034Y-59005566D01*
X75392740Y-59045095D01*
X75392000Y-59058764D01*
X75392000Y-59867082D01*
X74595000Y-59867082D01*
X74595000Y-56773000D01*
X74614258Y-56676181D01*
X74669102Y-56594102D01*
X74751181Y-56539258D01*
X74848000Y-56520000D01*
X87842000Y-56520000D01*
X87938819Y-56539258D01*
G37*
G04 #@! TD.AperFunction*
G04 #@! TA.AperFunction,Conductor*
G36*
X80192023Y-44319258D02*
G01*
X80274102Y-44374102D01*
X88025898Y-52125898D01*
X88080742Y-52207977D01*
X88100000Y-52304796D01*
X88100000Y-55607000D01*
X88080742Y-55703819D01*
X88025898Y-55785898D01*
X87943819Y-55840742D01*
X87847000Y-55860000D01*
X74853000Y-55860000D01*
X74756181Y-55840742D01*
X74674102Y-55785898D01*
X74619258Y-55703819D01*
X74600000Y-55607000D01*
X74600000Y-53426398D01*
X76337869Y-53426398D01*
X76338859Y-53427880D01*
X76348908Y-53435282D01*
X76468737Y-53498326D01*
X76485896Y-53505787D01*
X76721889Y-53588199D01*
X76739960Y-53593041D01*
X76985526Y-53639663D01*
X77004141Y-53641784D01*
X77253892Y-53651597D01*
X77272611Y-53650944D01*
X77521079Y-53623731D01*
X77539475Y-53620322D01*
X77781209Y-53556679D01*
X77798899Y-53550587D01*
X78028553Y-53451921D01*
X78045171Y-53443270D01*
X78048491Y-53441215D01*
X78063990Y-53426762D01*
X78061777Y-53420842D01*
X78059326Y-53417747D01*
X77217618Y-52576038D01*
X77200000Y-52564266D01*
X77182381Y-52576039D01*
X76349642Y-53408779D01*
X76337869Y-53426398D01*
X74600000Y-53426398D01*
X74600000Y-51801909D01*
X75388001Y-51801909D01*
X75399994Y-52051590D01*
X75402274Y-52070155D01*
X75451040Y-52315318D01*
X75456043Y-52333357D01*
X75540507Y-52568610D01*
X75548121Y-52585711D01*
X75601948Y-52685888D01*
X75615426Y-52702238D01*
X75617678Y-52701550D01*
X75626839Y-52694740D01*
X76463962Y-51857618D01*
X76475734Y-51840000D01*
X77924266Y-51840000D01*
X77936039Y-51857619D01*
X78771896Y-52693475D01*
X78789515Y-52705248D01*
X78794193Y-52702122D01*
X78797217Y-52696552D01*
X78899871Y-52468668D01*
X78906277Y-52451069D01*
X78974125Y-52210500D01*
X78977856Y-52192157D01*
X79009783Y-51941197D01*
X79010751Y-51928532D01*
X79012904Y-51846350D01*
X79012599Y-51833665D01*
X78993851Y-51581380D01*
X78991081Y-51562847D01*
X78935919Y-51319066D01*
X78930445Y-51301162D01*
X78839855Y-51068209D01*
X78831788Y-51051297D01*
X78798814Y-50993604D01*
X78784913Y-50977612D01*
X78781065Y-50978899D01*
X78774529Y-50983892D01*
X77936038Y-51822382D01*
X77924266Y-51840000D01*
X76475734Y-51840000D01*
X76463961Y-51822381D01*
X75630078Y-50988499D01*
X75612459Y-50976726D01*
X75607673Y-50979924D01*
X75604576Y-50983871D01*
X75589415Y-51008855D01*
X75580912Y-51025541D01*
X75484254Y-51256044D01*
X75478312Y-51273804D01*
X75416785Y-51516068D01*
X75413534Y-51534504D01*
X75388491Y-51783203D01*
X75388001Y-51801909D01*
X74600000Y-51801909D01*
X74600000Y-50252244D01*
X76334960Y-50252244D01*
X76344840Y-50266419D01*
X77182382Y-51103962D01*
X77200000Y-51115734D01*
X77217619Y-51103961D01*
X78051397Y-50270182D01*
X78063170Y-50252563D01*
X78063129Y-50252502D01*
X78050408Y-50243387D01*
X77887611Y-50163105D01*
X77870245Y-50156088D01*
X77632200Y-50079889D01*
X77613981Y-50075515D01*
X77367280Y-50035337D01*
X77348635Y-50033706D01*
X77098703Y-50030435D01*
X77080014Y-50031578D01*
X76832342Y-50065284D01*
X76814035Y-50069175D01*
X76574059Y-50139122D01*
X76556528Y-50145677D01*
X76351620Y-50240139D01*
X76334960Y-50252244D01*
X74600000Y-50252244D01*
X74600000Y-48101245D01*
X75392001Y-48101245D01*
X75392740Y-48114888D01*
X75397035Y-48154436D01*
X75404318Y-48185064D01*
X75443501Y-48289585D01*
X75460637Y-48320885D01*
X75526285Y-48408479D01*
X75551521Y-48433715D01*
X75639115Y-48499363D01*
X75670415Y-48516499D01*
X75774936Y-48555682D01*
X75805566Y-48562966D01*
X75845095Y-48567260D01*
X75858764Y-48568000D01*
X76667082Y-48568000D01*
X76687866Y-48563866D01*
X76692000Y-48543082D01*
X76692000Y-48543081D01*
X77708000Y-48543081D01*
X77712134Y-48563865D01*
X77732918Y-48567999D01*
X78541245Y-48567999D01*
X78554888Y-48567260D01*
X78594436Y-48562965D01*
X78625064Y-48555682D01*
X78729585Y-48516499D01*
X78760885Y-48499363D01*
X78848479Y-48433715D01*
X78873715Y-48408479D01*
X78939363Y-48320885D01*
X78956499Y-48289585D01*
X78995682Y-48185064D01*
X79002966Y-48154434D01*
X79007260Y-48114905D01*
X79008000Y-48101236D01*
X79008000Y-47292918D01*
X79003866Y-47272134D01*
X78983082Y-47268000D01*
X77732918Y-47268000D01*
X77712134Y-47272134D01*
X77708000Y-47292918D01*
X77708000Y-48543081D01*
X76692000Y-48543081D01*
X76692000Y-47292918D01*
X76687866Y-47272134D01*
X76667082Y-47268000D01*
X75416919Y-47268000D01*
X75396135Y-47272134D01*
X75392001Y-47292918D01*
X75392001Y-48101245D01*
X74600000Y-48101245D01*
X74600000Y-46227082D01*
X75392000Y-46227082D01*
X75396134Y-46247866D01*
X75416918Y-46252000D01*
X76667082Y-46252000D01*
X76687866Y-46247866D01*
X76692000Y-46227082D01*
X77708000Y-46227082D01*
X77712134Y-46247866D01*
X77732918Y-46252000D01*
X78983081Y-46252000D01*
X79003865Y-46247866D01*
X79007999Y-46227082D01*
X79007999Y-45418755D01*
X79007260Y-45405112D01*
X79002965Y-45365564D01*
X78995682Y-45334936D01*
X78956499Y-45230415D01*
X78939363Y-45199115D01*
X78873715Y-45111521D01*
X78848479Y-45086285D01*
X78760885Y-45020637D01*
X78729585Y-45003501D01*
X78625064Y-44964318D01*
X78594434Y-44957034D01*
X78554905Y-44952740D01*
X78541236Y-44952000D01*
X77732918Y-44952000D01*
X77712134Y-44956134D01*
X77708000Y-44976918D01*
X77708000Y-46227082D01*
X76692000Y-46227082D01*
X76692000Y-44976919D01*
X76687866Y-44956135D01*
X76667082Y-44952001D01*
X75858755Y-44952001D01*
X75845112Y-44952740D01*
X75805564Y-44957035D01*
X75774936Y-44964318D01*
X75670415Y-45003501D01*
X75639115Y-45020637D01*
X75551521Y-45086285D01*
X75526285Y-45111521D01*
X75460637Y-45199115D01*
X75443501Y-45230415D01*
X75404318Y-45334936D01*
X75397034Y-45365566D01*
X75392740Y-45405095D01*
X75392000Y-45418764D01*
X75392000Y-46227082D01*
X74600000Y-46227082D01*
X74600000Y-44553000D01*
X74619258Y-44456181D01*
X74674102Y-44374102D01*
X74756181Y-44319258D01*
X74853000Y-44300000D01*
X80095204Y-44300000D01*
X80192023Y-44319258D01*
G37*
G04 #@! TD.AperFunction*
G04 #@! TA.AperFunction,Conductor*
G36*
X116843319Y-41599758D02*
G01*
X116925398Y-41654602D01*
X116980242Y-41736681D01*
X116999500Y-41833500D01*
X116999500Y-70316500D01*
X116980242Y-70413319D01*
X116925398Y-70495398D01*
X116843319Y-70550242D01*
X116746500Y-70569500D01*
X91353000Y-70569500D01*
X91256181Y-70550242D01*
X91174102Y-70495398D01*
X91119258Y-70413319D01*
X91100000Y-70316500D01*
X91100000Y-65324943D01*
X113707890Y-65324943D01*
X113708196Y-65327694D01*
X113737418Y-65457359D01*
X113743608Y-65477110D01*
X113819808Y-65664772D01*
X113829138Y-65683241D01*
X113934965Y-65855936D01*
X113947190Y-65872639D01*
X114079802Y-66025730D01*
X114094594Y-66040215D01*
X114250424Y-66169588D01*
X114267378Y-66181459D01*
X114442258Y-66283651D01*
X114460912Y-66292588D01*
X114650135Y-66364845D01*
X114670003Y-66370617D01*
X114761580Y-66389249D01*
X114782774Y-66389341D01*
X114785982Y-66381690D01*
X114786000Y-66381512D01*
X114786000Y-66371714D01*
X115294000Y-66371714D01*
X115298134Y-66392498D01*
X115309157Y-66394690D01*
X115313015Y-66394196D01*
X115333255Y-66389894D01*
X115527253Y-66331691D01*
X115546525Y-66324139D01*
X115728413Y-66235033D01*
X115746190Y-66224436D01*
X115911079Y-66106822D01*
X115926896Y-66093456D01*
X116070361Y-65950490D01*
X116083769Y-65934735D01*
X116201963Y-65770250D01*
X116212622Y-65752511D01*
X116302363Y-65570935D01*
X116309982Y-65551692D01*
X116368861Y-65357901D01*
X116373079Y-65338392D01*
X116371713Y-65317559D01*
X116361228Y-65314000D01*
X115318918Y-65314000D01*
X115298134Y-65318134D01*
X115294000Y-65338918D01*
X115294000Y-66371714D01*
X114786000Y-66371714D01*
X114786000Y-65338918D01*
X114781866Y-65318134D01*
X114761082Y-65314000D01*
X113730028Y-65314000D01*
X113709244Y-65318134D01*
X113707890Y-65324943D01*
X91100000Y-65324943D01*
X91100000Y-64792092D01*
X113704969Y-64792092D01*
X113705889Y-64802329D01*
X113717633Y-64806000D01*
X114761082Y-64806000D01*
X114781866Y-64801866D01*
X114786000Y-64781082D01*
X115294000Y-64781082D01*
X115298134Y-64801866D01*
X115318918Y-64806000D01*
X116351541Y-64806000D01*
X116372325Y-64801866D01*
X116373370Y-64796611D01*
X116372662Y-64790882D01*
X116332485Y-64630936D01*
X116325813Y-64611338D01*
X116245053Y-64425601D01*
X116235272Y-64407359D01*
X116125259Y-64237304D01*
X116112624Y-64220898D01*
X115976322Y-64071105D01*
X115961177Y-64056981D01*
X115875734Y-63989502D01*
X115811689Y-63914382D01*
X115781266Y-63820471D01*
X115789097Y-63722066D01*
X115833989Y-63634149D01*
X115885621Y-63584981D01*
X115911080Y-63566822D01*
X115926896Y-63553456D01*
X116070361Y-63410490D01*
X116083769Y-63394735D01*
X116201963Y-63230250D01*
X116212622Y-63212511D01*
X116302363Y-63030935D01*
X116309982Y-63011692D01*
X116368861Y-62817901D01*
X116373079Y-62798392D01*
X116371713Y-62777559D01*
X116361228Y-62774000D01*
X115318918Y-62774000D01*
X115298134Y-62778134D01*
X115294000Y-62798918D01*
X115294000Y-64781082D01*
X114786000Y-64781082D01*
X114786000Y-62798918D01*
X114781866Y-62778134D01*
X114761082Y-62774000D01*
X113730028Y-62774000D01*
X113709244Y-62778134D01*
X113707890Y-62784943D01*
X113708196Y-62787694D01*
X113737418Y-62917359D01*
X113743608Y-62937110D01*
X113819808Y-63124772D01*
X113829138Y-63143241D01*
X113934965Y-63315936D01*
X113947190Y-63332639D01*
X114079802Y-63485730D01*
X114094587Y-63500208D01*
X114209495Y-63595606D01*
X114271686Y-63672269D01*
X114299805Y-63766895D01*
X114289573Y-63865078D01*
X114242546Y-63951873D01*
X114199793Y-63992585D01*
X114143608Y-64034770D01*
X114128122Y-64048519D01*
X113988192Y-64194948D01*
X113975168Y-64211031D01*
X113861030Y-64378351D01*
X113850807Y-64396347D01*
X113765532Y-64580057D01*
X113758383Y-64599487D01*
X113704969Y-64792092D01*
X91100000Y-64792092D01*
X91100000Y-63389321D01*
X91119258Y-63292502D01*
X91174102Y-63210423D01*
X91256181Y-63155579D01*
X91353000Y-63136321D01*
X91449819Y-63155579D01*
X91531898Y-63210423D01*
X92423255Y-64101780D01*
X92430589Y-64109428D01*
X92446333Y-64126549D01*
X92470799Y-64153156D01*
X92485458Y-64162245D01*
X92502695Y-64172933D01*
X92522336Y-64186432D01*
X92552216Y-64209112D01*
X92568261Y-64215465D01*
X92576109Y-64219887D01*
X92584325Y-64223545D01*
X92598986Y-64232635D01*
X92615546Y-64237446D01*
X92615550Y-64237448D01*
X92635022Y-64243105D01*
X92657572Y-64250825D01*
X92676415Y-64258286D01*
X92676420Y-64258287D01*
X92692453Y-64264635D01*
X92709608Y-64266438D01*
X92720448Y-64269100D01*
X92731090Y-64271015D01*
X92743825Y-64274715D01*
X92754515Y-64275500D01*
X92782566Y-64275500D01*
X92809011Y-64276886D01*
X92842454Y-64280401D01*
X92859458Y-64277525D01*
X92874007Y-64277068D01*
X92892675Y-64275500D01*
X95682338Y-64275500D01*
X95692931Y-64275722D01*
X95699544Y-64275999D01*
X95735061Y-64277488D01*
X95735063Y-64277488D01*
X95752294Y-64278210D01*
X95779546Y-64271818D01*
X95788828Y-64269641D01*
X95812260Y-64265298D01*
X95832342Y-64262547D01*
X95849432Y-64260206D01*
X95865265Y-64253354D01*
X95873944Y-64250931D01*
X95882346Y-64247706D01*
X95899136Y-64243768D01*
X95914247Y-64235461D01*
X95914249Y-64235460D01*
X95932020Y-64225690D01*
X95953426Y-64215204D01*
X95972024Y-64207156D01*
X95972026Y-64207155D01*
X95987855Y-64200305D01*
X96001259Y-64189451D01*
X96010802Y-64183672D01*
X96019691Y-64177493D01*
X96031308Y-64171107D01*
X96039422Y-64164103D01*
X96059256Y-64144269D01*
X96078927Y-64126557D01*
X96105070Y-64105386D01*
X96115058Y-64091331D01*
X96125020Y-64080723D01*
X96137117Y-64066408D01*
X97476767Y-62726757D01*
X97484415Y-62719423D01*
X97515459Y-62690877D01*
X97515461Y-62690875D01*
X97528156Y-62679201D01*
X97547931Y-62647307D01*
X97561422Y-62627676D01*
X97584112Y-62597783D01*
X97590462Y-62581744D01*
X97594887Y-62573891D01*
X97598546Y-62565673D01*
X97607635Y-62551014D01*
X97618106Y-62514974D01*
X97625823Y-62492435D01*
X97633287Y-62473583D01*
X97633287Y-62473581D01*
X97639636Y-62457547D01*
X97641439Y-62440399D01*
X97644097Y-62429576D01*
X97646017Y-62418903D01*
X97649715Y-62406175D01*
X97650500Y-62395485D01*
X97650500Y-62367435D01*
X97651886Y-62340990D01*
X97652051Y-62339422D01*
X97655401Y-62307546D01*
X97652525Y-62290542D01*
X97652068Y-62275993D01*
X97650500Y-62257325D01*
X97650500Y-62252092D01*
X113704969Y-62252092D01*
X113705889Y-62262329D01*
X113717633Y-62266000D01*
X114761082Y-62266000D01*
X114781866Y-62261866D01*
X114786000Y-62241082D01*
X115294000Y-62241082D01*
X115298134Y-62261866D01*
X115318918Y-62266000D01*
X116351541Y-62266000D01*
X116372325Y-62261866D01*
X116373370Y-62256611D01*
X116372662Y-62250882D01*
X116332485Y-62090936D01*
X116325813Y-62071338D01*
X116245053Y-61885601D01*
X116235272Y-61867359D01*
X116125259Y-61697304D01*
X116112624Y-61680898D01*
X115976322Y-61531105D01*
X115961177Y-61516981D01*
X115875734Y-61449502D01*
X115811689Y-61374382D01*
X115781266Y-61280471D01*
X115789097Y-61182066D01*
X115833989Y-61094149D01*
X115885621Y-61044981D01*
X115911080Y-61026822D01*
X115926896Y-61013456D01*
X116070361Y-60870490D01*
X116083769Y-60854735D01*
X116201963Y-60690250D01*
X116212622Y-60672511D01*
X116302363Y-60490935D01*
X116309982Y-60471692D01*
X116368861Y-60277901D01*
X116373079Y-60258392D01*
X116371713Y-60237559D01*
X116361228Y-60234000D01*
X115318918Y-60234000D01*
X115298134Y-60238134D01*
X115294000Y-60258918D01*
X115294000Y-62241082D01*
X114786000Y-62241082D01*
X114786000Y-60258918D01*
X114781866Y-60238134D01*
X114761082Y-60234000D01*
X113730028Y-60234000D01*
X113709244Y-60238134D01*
X113707890Y-60244943D01*
X113708196Y-60247694D01*
X113737418Y-60377359D01*
X113743608Y-60397110D01*
X113819808Y-60584772D01*
X113829138Y-60603241D01*
X113934965Y-60775936D01*
X113947190Y-60792639D01*
X114079802Y-60945730D01*
X114094587Y-60960208D01*
X114209495Y-61055606D01*
X114271686Y-61132269D01*
X114299805Y-61226895D01*
X114289573Y-61325078D01*
X114242546Y-61411873D01*
X114199793Y-61452585D01*
X114143608Y-61494770D01*
X114128122Y-61508519D01*
X113988192Y-61654948D01*
X113975168Y-61671031D01*
X113861030Y-61838351D01*
X113850807Y-61856347D01*
X113765532Y-62040057D01*
X113758383Y-62059487D01*
X113704969Y-62252092D01*
X97650500Y-62252092D01*
X97650500Y-61592280D01*
X97669758Y-61495461D01*
X97724602Y-61413382D01*
X97741721Y-61397764D01*
X97872587Y-61288923D01*
X97872593Y-61288917D01*
X97881505Y-61281505D01*
X98010837Y-61126001D01*
X98109664Y-60949531D01*
X98174678Y-60758007D01*
X98187074Y-60672511D01*
X98202631Y-60565218D01*
X98202632Y-60565210D01*
X98203700Y-60557842D01*
X98205215Y-60500000D01*
X98186708Y-60298591D01*
X98169658Y-60238134D01*
X98134957Y-60115095D01*
X98131807Y-60103926D01*
X98042351Y-59922527D01*
X98031739Y-59908315D01*
X97928278Y-59769765D01*
X97921335Y-59760467D01*
X97912814Y-59752590D01*
X97869004Y-59712092D01*
X113704969Y-59712092D01*
X113705889Y-59722329D01*
X113717633Y-59726000D01*
X114761082Y-59726000D01*
X114781866Y-59721866D01*
X114786000Y-59701082D01*
X115294000Y-59701082D01*
X115298134Y-59721866D01*
X115318918Y-59726000D01*
X116351541Y-59726000D01*
X116372325Y-59721866D01*
X116373370Y-59716611D01*
X116372662Y-59710882D01*
X116332485Y-59550936D01*
X116325813Y-59531338D01*
X116245053Y-59345601D01*
X116235272Y-59327359D01*
X116125259Y-59157304D01*
X116112624Y-59140898D01*
X115976322Y-58991105D01*
X115961177Y-58976981D01*
X115875734Y-58909502D01*
X115811689Y-58834382D01*
X115781266Y-58740471D01*
X115789097Y-58642066D01*
X115833989Y-58554149D01*
X115885621Y-58504981D01*
X115911080Y-58486822D01*
X115926896Y-58473456D01*
X116070361Y-58330490D01*
X116083769Y-58314735D01*
X116201963Y-58150250D01*
X116212622Y-58132511D01*
X116302363Y-57950935D01*
X116309982Y-57931692D01*
X116368861Y-57737901D01*
X116373079Y-57718392D01*
X116371713Y-57697559D01*
X116361228Y-57694000D01*
X115318918Y-57694000D01*
X115298134Y-57698134D01*
X115294000Y-57718918D01*
X115294000Y-59701082D01*
X114786000Y-59701082D01*
X114786000Y-57718918D01*
X114781866Y-57698134D01*
X114761082Y-57694000D01*
X113730028Y-57694000D01*
X113709244Y-57698134D01*
X113707890Y-57704943D01*
X113708196Y-57707694D01*
X113737418Y-57837359D01*
X113743608Y-57857110D01*
X113819808Y-58044772D01*
X113829138Y-58063241D01*
X113934965Y-58235936D01*
X113947190Y-58252639D01*
X114079802Y-58405730D01*
X114094587Y-58420208D01*
X114209495Y-58515606D01*
X114271686Y-58592269D01*
X114299805Y-58686895D01*
X114289573Y-58785078D01*
X114242546Y-58871873D01*
X114199793Y-58912585D01*
X114143608Y-58954770D01*
X114128122Y-58968519D01*
X113988192Y-59114948D01*
X113975168Y-59131031D01*
X113861030Y-59298351D01*
X113850807Y-59316347D01*
X113765532Y-59500057D01*
X113758383Y-59519487D01*
X113704969Y-59712092D01*
X97869004Y-59712092D01*
X97781334Y-59631051D01*
X97781330Y-59631048D01*
X97772812Y-59623174D01*
X97763002Y-59616984D01*
X97762999Y-59616982D01*
X97627261Y-59531338D01*
X97601757Y-59515246D01*
X97590984Y-59510948D01*
X97590980Y-59510946D01*
X97424669Y-59444595D01*
X97424667Y-59444594D01*
X97413898Y-59440298D01*
X97215526Y-59400839D01*
X97203932Y-59400687D01*
X97203930Y-59400687D01*
X97114406Y-59399515D01*
X97013286Y-59398192D01*
X97001864Y-59400155D01*
X97001859Y-59400155D01*
X96839581Y-59428040D01*
X96813949Y-59432444D01*
X96624193Y-59502449D01*
X96614223Y-59508381D01*
X96614222Y-59508381D01*
X96460340Y-59599931D01*
X96450371Y-59605862D01*
X96441651Y-59613510D01*
X96441650Y-59613510D01*
X96313380Y-59726000D01*
X96298305Y-59739220D01*
X96173089Y-59898057D01*
X96078914Y-60077053D01*
X96018937Y-60270213D01*
X96017574Y-60281730D01*
X96003918Y-60397110D01*
X95995164Y-60471069D01*
X96008392Y-60672894D01*
X96058178Y-60868928D01*
X96063032Y-60879457D01*
X96063033Y-60879460D01*
X96138000Y-61042075D01*
X96138003Y-61042080D01*
X96142856Y-61052607D01*
X96259588Y-61217780D01*
X96404466Y-61358913D01*
X96414101Y-61365351D01*
X96414106Y-61365355D01*
X96437061Y-61380693D01*
X96506863Y-61450496D01*
X96544639Y-61541698D01*
X96549500Y-61591054D01*
X96549500Y-61992179D01*
X96530242Y-62088998D01*
X96475398Y-62171077D01*
X95546078Y-63100398D01*
X95463999Y-63155241D01*
X95367180Y-63174500D01*
X93157820Y-63174500D01*
X93061001Y-63155242D01*
X92978922Y-63100398D01*
X91724602Y-61846078D01*
X91669758Y-61763999D01*
X91650500Y-61667180D01*
X91650500Y-53595321D01*
X91669758Y-53498502D01*
X91724602Y-53416423D01*
X91778527Y-53362498D01*
X91860606Y-53307654D01*
X91957425Y-53288396D01*
X91995299Y-53292626D01*
X91995423Y-53291686D01*
X92006929Y-53293201D01*
X92018240Y-53295760D01*
X92132871Y-53300264D01*
X92208755Y-53303245D01*
X92208757Y-53303245D01*
X92220342Y-53303700D01*
X92376870Y-53281005D01*
X92409031Y-53276342D01*
X92409032Y-53276342D01*
X92420507Y-53274678D01*
X92612031Y-53209664D01*
X92788501Y-53110837D01*
X92820606Y-53084136D01*
X92904755Y-53014149D01*
X92944005Y-52981505D01*
X93035855Y-52871069D01*
X101195164Y-52871069D01*
X101208392Y-53072894D01*
X101258178Y-53268928D01*
X101263032Y-53279457D01*
X101263033Y-53279460D01*
X101338000Y-53442075D01*
X101338003Y-53442080D01*
X101342856Y-53452607D01*
X101459588Y-53617780D01*
X101604466Y-53758913D01*
X101614107Y-53765355D01*
X101614112Y-53765359D01*
X101711378Y-53830350D01*
X101772637Y-53871282D01*
X101958470Y-53951122D01*
X101969779Y-53953681D01*
X102144430Y-53993201D01*
X102144432Y-53993201D01*
X102155740Y-53995760D01*
X102270371Y-54000264D01*
X102346255Y-54003245D01*
X102346257Y-54003245D01*
X102357842Y-54003700D01*
X102465807Y-53988046D01*
X102564385Y-53993213D01*
X102653484Y-54035711D01*
X102680999Y-54059524D01*
X103551716Y-54930240D01*
X104498243Y-55876767D01*
X104505577Y-55884415D01*
X104516235Y-55896005D01*
X104545799Y-55928156D01*
X104560456Y-55937243D01*
X104560460Y-55937247D01*
X104577693Y-55947932D01*
X104597337Y-55961432D01*
X104627216Y-55984112D01*
X104643256Y-55990463D01*
X104651104Y-55994885D01*
X104659326Y-55998546D01*
X104673986Y-56007635D01*
X104690546Y-56012446D01*
X104690550Y-56012448D01*
X104710022Y-56018105D01*
X104732572Y-56025825D01*
X104751415Y-56033286D01*
X104751420Y-56033287D01*
X104767453Y-56039635D01*
X104784608Y-56041438D01*
X104795448Y-56044100D01*
X104806090Y-56046015D01*
X104818825Y-56049715D01*
X104829515Y-56050500D01*
X104857566Y-56050500D01*
X104884011Y-56051886D01*
X104917454Y-56055401D01*
X104934458Y-56052525D01*
X104949007Y-56052068D01*
X104967675Y-56050500D01*
X109615128Y-56050500D01*
X109711947Y-56069758D01*
X109755687Y-56093138D01*
X109844021Y-56152161D01*
X109872637Y-56171282D01*
X110058470Y-56251122D01*
X110069779Y-56253681D01*
X110244430Y-56293201D01*
X110244432Y-56293201D01*
X110255740Y-56295760D01*
X110370371Y-56300264D01*
X110446255Y-56303245D01*
X110446257Y-56303245D01*
X110457842Y-56303700D01*
X110597366Y-56283470D01*
X110646531Y-56276342D01*
X110646532Y-56276342D01*
X110658007Y-56274678D01*
X110849531Y-56209664D01*
X111026001Y-56110837D01*
X111088433Y-56058913D01*
X111172593Y-55988917D01*
X111181505Y-55981505D01*
X111262254Y-55884415D01*
X111303426Y-55834912D01*
X111303427Y-55834910D01*
X111310837Y-55826001D01*
X111409664Y-55649531D01*
X111474678Y-55458007D01*
X111503700Y-55257842D01*
X111505215Y-55200000D01*
X111486708Y-54998591D01*
X111431807Y-54803926D01*
X111342351Y-54622527D01*
X111331739Y-54608315D01*
X111228278Y-54469765D01*
X111221335Y-54460467D01*
X111212814Y-54452590D01*
X111081334Y-54331051D01*
X111081330Y-54331048D01*
X111072812Y-54323174D01*
X111063002Y-54316984D01*
X111062999Y-54316982D01*
X110977945Y-54263317D01*
X110901757Y-54215246D01*
X110890984Y-54210948D01*
X110890980Y-54210946D01*
X110724669Y-54144595D01*
X110724667Y-54144594D01*
X110713898Y-54140298D01*
X110515526Y-54100839D01*
X110503932Y-54100687D01*
X110503930Y-54100687D01*
X110414406Y-54099515D01*
X110313286Y-54098192D01*
X110301864Y-54100155D01*
X110301859Y-54100155D01*
X110139581Y-54128040D01*
X110113949Y-54132444D01*
X109924193Y-54202449D01*
X109914223Y-54208381D01*
X109914222Y-54208381D01*
X109789861Y-54282368D01*
X109750371Y-54305862D01*
X109598305Y-54439220D01*
X109473089Y-54598057D01*
X109378914Y-54777053D01*
X109375473Y-54788134D01*
X109373327Y-54793316D01*
X109318485Y-54875395D01*
X109236406Y-54930240D01*
X109139584Y-54949500D01*
X105232821Y-54949500D01*
X105136002Y-54930242D01*
X105053923Y-54875398D01*
X103459530Y-53281005D01*
X103404686Y-53198926D01*
X103385428Y-53102107D01*
X103388045Y-53065813D01*
X103403700Y-52957842D01*
X103405215Y-52900000D01*
X103386708Y-52698591D01*
X103352692Y-52577977D01*
X103334957Y-52515095D01*
X103331807Y-52503926D01*
X103242351Y-52322527D01*
X103231739Y-52308315D01*
X103128278Y-52169765D01*
X103121335Y-52160467D01*
X103112814Y-52152590D01*
X102981334Y-52031051D01*
X102981330Y-52031048D01*
X102972812Y-52023174D01*
X102963002Y-52016984D01*
X102962999Y-52016982D01*
X102826202Y-51930670D01*
X102801757Y-51915246D01*
X102790984Y-51910948D01*
X102790980Y-51910946D01*
X102624669Y-51844595D01*
X102624667Y-51844594D01*
X102613898Y-51840298D01*
X102415526Y-51800839D01*
X102403932Y-51800687D01*
X102403930Y-51800687D01*
X102314406Y-51799516D01*
X102213286Y-51798192D01*
X102201864Y-51800155D01*
X102201859Y-51800155D01*
X102039581Y-51828040D01*
X102013949Y-51832444D01*
X101824193Y-51902449D01*
X101814223Y-51908381D01*
X101814222Y-51908381D01*
X101758826Y-51941338D01*
X101650371Y-52005862D01*
X101498305Y-52139220D01*
X101373089Y-52298057D01*
X101367692Y-52308315D01*
X101294973Y-52446531D01*
X101278914Y-52477053D01*
X101275475Y-52488129D01*
X101275474Y-52488131D01*
X101244264Y-52588646D01*
X101218937Y-52670213D01*
X101195164Y-52871069D01*
X93035855Y-52871069D01*
X93041328Y-52864488D01*
X93065926Y-52834912D01*
X93065927Y-52834910D01*
X93073337Y-52826001D01*
X93172164Y-52649531D01*
X93237178Y-52458007D01*
X93255313Y-52332931D01*
X93265131Y-52265218D01*
X93265132Y-52265210D01*
X93266200Y-52257842D01*
X93267715Y-52200000D01*
X93249208Y-51998591D01*
X93194307Y-51803926D01*
X93144746Y-51703426D01*
X93109982Y-51632931D01*
X93109980Y-51632928D01*
X93104851Y-51622527D01*
X93086579Y-51598057D01*
X92990778Y-51469765D01*
X92983835Y-51460467D01*
X92894263Y-51377668D01*
X92836240Y-51297807D01*
X92813195Y-51201819D01*
X92813000Y-51191885D01*
X92813000Y-47881742D01*
X92832258Y-47784923D01*
X92887102Y-47702844D01*
X97115344Y-43474602D01*
X97197423Y-43419758D01*
X97294242Y-43400500D01*
X110597662Y-43400500D01*
X110694481Y-43419758D01*
X110774202Y-43472275D01*
X110914466Y-43608913D01*
X110924107Y-43615355D01*
X110924112Y-43615359D01*
X110958316Y-43638213D01*
X111082637Y-43721282D01*
X111268470Y-43801122D01*
X111279779Y-43803681D01*
X111454430Y-43843201D01*
X111454432Y-43843201D01*
X111465740Y-43845760D01*
X111580371Y-43850264D01*
X111656255Y-43853245D01*
X111656257Y-43853245D01*
X111667842Y-43853700D01*
X111807366Y-43833470D01*
X111856531Y-43826342D01*
X111856532Y-43826342D01*
X111868007Y-43824678D01*
X112059531Y-43759664D01*
X112236001Y-43660837D01*
X112263204Y-43638213D01*
X112349956Y-43591108D01*
X112448130Y-43580788D01*
X112542781Y-43608823D01*
X112603883Y-43653829D01*
X114125398Y-45175344D01*
X114180242Y-45257423D01*
X114199500Y-45354242D01*
X114199500Y-45796500D01*
X114180242Y-45893319D01*
X114125398Y-45975398D01*
X114043319Y-46030242D01*
X113946500Y-46049500D01*
X113281046Y-46049500D01*
X113184227Y-46030242D01*
X113102148Y-45975398D01*
X113063278Y-45925287D01*
X113032545Y-45873319D01*
X112988081Y-45798135D01*
X112871865Y-45681919D01*
X112730398Y-45598256D01*
X112702844Y-45590251D01*
X112584982Y-45556008D01*
X112584979Y-45556007D01*
X112572569Y-45552402D01*
X112554231Y-45550959D01*
X112540653Y-45549890D01*
X112540646Y-45549890D01*
X112535694Y-45549500D01*
X111504306Y-45549500D01*
X111499354Y-45549890D01*
X111499347Y-45549890D01*
X111485769Y-45550959D01*
X111467431Y-45552402D01*
X111455021Y-45556007D01*
X111455018Y-45556008D01*
X111337156Y-45590251D01*
X111309602Y-45598256D01*
X111168135Y-45681919D01*
X111051919Y-45798135D01*
X111043818Y-45811833D01*
X110995628Y-45893319D01*
X110968256Y-45939602D01*
X110963815Y-45954888D01*
X110942138Y-46029501D01*
X110922402Y-46097431D01*
X110919500Y-46134306D01*
X110919500Y-46965694D01*
X110922402Y-47002569D01*
X110926007Y-47014979D01*
X110926008Y-47014982D01*
X110946334Y-47084943D01*
X110968256Y-47160398D01*
X111051919Y-47301865D01*
X111121156Y-47371102D01*
X111176000Y-47453181D01*
X111195258Y-47550000D01*
X111176000Y-47646819D01*
X111121156Y-47728898D01*
X111051919Y-47798135D01*
X110968256Y-47939602D01*
X110922402Y-48097431D01*
X110919500Y-48134306D01*
X110919500Y-48469516D01*
X110917746Y-48499253D01*
X110916527Y-48509549D01*
X110916527Y-48509554D01*
X110915164Y-48521069D01*
X110915923Y-48532644D01*
X110918958Y-48578957D01*
X110919500Y-48595503D01*
X110919500Y-48896500D01*
X110900242Y-48993319D01*
X110845398Y-49075398D01*
X110763319Y-49130242D01*
X110666500Y-49149500D01*
X106376344Y-49149500D01*
X106370604Y-49149229D01*
X106361704Y-49147240D01*
X106293761Y-49149375D01*
X106285815Y-49149500D01*
X106259075Y-49149500D01*
X106251190Y-49150496D01*
X106248277Y-49150679D01*
X106240345Y-49151053D01*
X106215443Y-49151836D01*
X106197431Y-49152402D01*
X106182149Y-49156842D01*
X106174191Y-49158102D01*
X106160547Y-49160928D01*
X106152735Y-49162934D01*
X106136942Y-49164929D01*
X106122142Y-49170789D01*
X106122141Y-49170789D01*
X106100163Y-49179491D01*
X106077612Y-49187212D01*
X106039602Y-49198255D01*
X106025904Y-49206356D01*
X106018493Y-49209563D01*
X106006020Y-49215674D01*
X105998930Y-49219572D01*
X105984129Y-49225432D01*
X105952114Y-49248692D01*
X105932216Y-49261763D01*
X105898135Y-49281919D01*
X105886882Y-49293172D01*
X105880499Y-49298123D01*
X105869935Y-49307146D01*
X105864042Y-49312680D01*
X105851163Y-49322037D01*
X105841015Y-49334304D01*
X105825942Y-49352524D01*
X105809900Y-49370154D01*
X105539959Y-49640095D01*
X105457880Y-49694939D01*
X105403906Y-49710543D01*
X105320176Y-49724930D01*
X105276449Y-49732444D01*
X105086693Y-49802449D01*
X105076723Y-49808381D01*
X105076722Y-49808381D01*
X105057192Y-49820000D01*
X104912871Y-49905862D01*
X104760805Y-50039220D01*
X104635589Y-50198057D01*
X104541414Y-50377053D01*
X104537975Y-50388129D01*
X104537974Y-50388131D01*
X104484876Y-50559137D01*
X104481437Y-50570213D01*
X104457664Y-50771069D01*
X104470892Y-50972894D01*
X104520678Y-51168928D01*
X104525532Y-51179457D01*
X104525533Y-51179460D01*
X104600500Y-51342075D01*
X104600503Y-51342080D01*
X104605356Y-51352607D01*
X104722088Y-51517780D01*
X104787504Y-51581505D01*
X104840295Y-51632931D01*
X104866966Y-51658913D01*
X104876607Y-51665355D01*
X104876612Y-51665359D01*
X104933584Y-51703426D01*
X105035137Y-51771282D01*
X105220970Y-51851122D01*
X105232279Y-51853681D01*
X105406930Y-51893201D01*
X105406932Y-51893201D01*
X105418240Y-51895760D01*
X105532871Y-51900264D01*
X105608755Y-51903245D01*
X105608757Y-51903245D01*
X105620342Y-51903700D01*
X105759866Y-51883470D01*
X105809031Y-51876342D01*
X105809032Y-51876342D01*
X105820507Y-51874678D01*
X106012031Y-51809664D01*
X106040859Y-51793520D01*
X106178385Y-51716502D01*
X106188501Y-51710837D01*
X106250933Y-51658913D01*
X106335093Y-51588917D01*
X106344005Y-51581505D01*
X106473337Y-51426001D01*
X106572164Y-51249531D01*
X106637178Y-51058007D01*
X106649519Y-50972894D01*
X106665131Y-50865218D01*
X106665132Y-50865210D01*
X106666200Y-50857842D01*
X106667715Y-50800000D01*
X106665307Y-50773788D01*
X106660975Y-50726650D01*
X106671294Y-50628475D01*
X106718397Y-50541722D01*
X106795113Y-50479598D01*
X106889764Y-50451561D01*
X106912914Y-50450500D01*
X112028890Y-50450500D01*
X112055618Y-50452604D01*
X112063688Y-50452857D01*
X112079405Y-50455347D01*
X112095251Y-50453849D01*
X112095252Y-50453849D01*
X112118800Y-50451623D01*
X112142610Y-50450500D01*
X113823198Y-50450500D01*
X113920017Y-50469758D01*
X114002096Y-50524602D01*
X114030443Y-50558385D01*
X114046790Y-50581730D01*
X114078402Y-50626877D01*
X114233123Y-50781598D01*
X114242167Y-50787931D01*
X114242171Y-50787934D01*
X114377590Y-50882755D01*
X114445853Y-50954063D01*
X114481631Y-51046067D01*
X114479478Y-51144759D01*
X114439720Y-51235115D01*
X114377592Y-51297244D01*
X114233123Y-51398402D01*
X114078402Y-51553123D01*
X113952898Y-51732362D01*
X113860425Y-51930670D01*
X113803793Y-52142023D01*
X113802831Y-52153022D01*
X113802830Y-52153026D01*
X113793660Y-52257842D01*
X113784723Y-52360000D01*
X113785686Y-52371007D01*
X113798292Y-52515095D01*
X113803793Y-52577977D01*
X113860425Y-52789330D01*
X113952898Y-52987638D01*
X114078402Y-53166877D01*
X114233123Y-53321598D01*
X114242167Y-53327931D01*
X114242171Y-53327934D01*
X114377590Y-53422755D01*
X114445853Y-53494063D01*
X114481631Y-53586067D01*
X114479478Y-53684759D01*
X114439720Y-53775115D01*
X114377592Y-53837244D01*
X114233123Y-53938402D01*
X114078402Y-54093123D01*
X113952898Y-54272362D01*
X113860425Y-54470670D01*
X113803793Y-54682023D01*
X113802831Y-54693022D01*
X113802830Y-54693026D01*
X113793128Y-54803926D01*
X113784723Y-54900000D01*
X113803793Y-55117977D01*
X113860425Y-55329330D01*
X113952898Y-55527638D01*
X114078402Y-55706877D01*
X114233123Y-55861598D01*
X114242169Y-55867932D01*
X114282261Y-55896005D01*
X114350523Y-55967314D01*
X114386301Y-56059318D01*
X114384146Y-56158010D01*
X114344388Y-56248366D01*
X114289050Y-56305569D01*
X114143608Y-56414770D01*
X114128122Y-56428519D01*
X113988192Y-56574948D01*
X113975168Y-56591031D01*
X113861030Y-56758351D01*
X113850807Y-56776347D01*
X113765532Y-56960057D01*
X113758383Y-56979487D01*
X113704969Y-57172092D01*
X113705889Y-57182329D01*
X113717633Y-57186000D01*
X116351541Y-57186000D01*
X116372325Y-57181866D01*
X116373370Y-57176611D01*
X116372662Y-57170882D01*
X116332485Y-57010936D01*
X116325813Y-56991338D01*
X116245053Y-56805601D01*
X116235272Y-56787359D01*
X116125259Y-56617304D01*
X116112624Y-56600898D01*
X115976322Y-56451105D01*
X115961177Y-56436981D01*
X115794081Y-56305017D01*
X115795136Y-56303681D01*
X115734407Y-56243264D01*
X115696395Y-56152161D01*
X115696141Y-56053445D01*
X115733682Y-55962147D01*
X115799288Y-55894921D01*
X115846877Y-55861598D01*
X116001598Y-55706877D01*
X116127102Y-55527638D01*
X116219575Y-55329330D01*
X116276207Y-55117977D01*
X116295277Y-54900000D01*
X116286872Y-54803926D01*
X116277170Y-54693026D01*
X116277169Y-54693022D01*
X116276207Y-54682023D01*
X116219575Y-54470670D01*
X116127102Y-54272362D01*
X116001598Y-54093123D01*
X115846877Y-53938402D01*
X115837830Y-53932067D01*
X115837829Y-53932066D01*
X115702410Y-53837245D01*
X115634147Y-53765937D01*
X115598369Y-53673933D01*
X115600522Y-53575241D01*
X115640280Y-53484885D01*
X115702410Y-53422755D01*
X115837829Y-53327934D01*
X115837833Y-53327931D01*
X115846877Y-53321598D01*
X116001598Y-53166877D01*
X116127102Y-52987638D01*
X116219575Y-52789330D01*
X116276207Y-52577977D01*
X116281709Y-52515095D01*
X116294314Y-52371007D01*
X116295277Y-52360000D01*
X116286340Y-52257842D01*
X116277170Y-52153026D01*
X116277169Y-52153022D01*
X116276207Y-52142023D01*
X116219575Y-51930670D01*
X116127102Y-51732362D01*
X116001598Y-51553123D01*
X115846877Y-51398402D01*
X115837830Y-51392067D01*
X115837829Y-51392066D01*
X115702410Y-51297245D01*
X115634147Y-51225937D01*
X115598369Y-51133933D01*
X115600522Y-51035241D01*
X115640280Y-50944885D01*
X115702410Y-50882755D01*
X115837829Y-50787934D01*
X115837833Y-50787931D01*
X115846877Y-50781598D01*
X116001598Y-50626877D01*
X116127102Y-50447638D01*
X116160017Y-50377053D01*
X116214909Y-50259336D01*
X116219575Y-50249330D01*
X116276207Y-50037977D01*
X116295277Y-49820000D01*
X116292773Y-49791375D01*
X116277170Y-49613026D01*
X116277169Y-49613022D01*
X116276207Y-49602023D01*
X116219575Y-49390670D01*
X116127102Y-49192362D01*
X116001598Y-49013123D01*
X115918945Y-48930470D01*
X115864101Y-48848391D01*
X115844843Y-48751572D01*
X115864101Y-48654753D01*
X115918945Y-48572674D01*
X116000872Y-48517932D01*
X116015304Y-48515646D01*
X116128342Y-48458050D01*
X116218050Y-48368342D01*
X116275646Y-48255304D01*
X116290500Y-48161519D01*
X116290499Y-46398482D01*
X116275646Y-46304696D01*
X116266606Y-46286954D01*
X116266605Y-46286951D01*
X116227091Y-46209402D01*
X116218050Y-46191658D01*
X116128342Y-46101950D01*
X116015304Y-46044354D01*
X115995637Y-46041239D01*
X115931338Y-46031055D01*
X115931336Y-46031055D01*
X115921519Y-46029500D01*
X115753500Y-46029500D01*
X115656681Y-46010242D01*
X115574602Y-45955398D01*
X115519758Y-45873319D01*
X115500500Y-45776500D01*
X115500500Y-45056341D01*
X115500771Y-45050603D01*
X115502760Y-45041703D01*
X115500625Y-44973773D01*
X115500500Y-44965825D01*
X115500500Y-44939075D01*
X115499504Y-44931189D01*
X115499319Y-44928248D01*
X115498945Y-44920315D01*
X115498097Y-44893340D01*
X115497597Y-44877430D01*
X115493155Y-44862142D01*
X115491891Y-44854160D01*
X115489077Y-44840567D01*
X115487066Y-44832735D01*
X115485071Y-44816942D01*
X115470503Y-44780146D01*
X115462787Y-44757609D01*
X115456185Y-44734885D01*
X115456184Y-44734882D01*
X115451744Y-44719601D01*
X115443642Y-44705901D01*
X115440442Y-44698507D01*
X115434315Y-44685998D01*
X115430425Y-44678922D01*
X115424568Y-44664129D01*
X115401308Y-44632114D01*
X115388223Y-44612193D01*
X115376186Y-44591840D01*
X115368081Y-44578135D01*
X115356825Y-44566879D01*
X115351871Y-44560492D01*
X115342854Y-44549935D01*
X115337320Y-44544042D01*
X115327963Y-44531163D01*
X115297476Y-44505942D01*
X115279846Y-44489900D01*
X113133954Y-42344008D01*
X113130088Y-42339760D01*
X113125202Y-42332060D01*
X113112524Y-42320154D01*
X113075661Y-42285538D01*
X113069953Y-42280007D01*
X113051035Y-42261089D01*
X113044752Y-42256215D01*
X113042557Y-42254280D01*
X113036683Y-42248935D01*
X113016995Y-42230447D01*
X113005393Y-42219552D01*
X112991448Y-42211886D01*
X112984909Y-42207135D01*
X112973288Y-42199502D01*
X112966340Y-42195393D01*
X112953764Y-42185638D01*
X112917434Y-42169917D01*
X112896062Y-42159446D01*
X112861368Y-42140373D01*
X112845950Y-42136414D01*
X112838445Y-42133443D01*
X112825298Y-42128942D01*
X112817533Y-42126686D01*
X112802926Y-42120365D01*
X112763851Y-42114176D01*
X112740519Y-42109344D01*
X112702177Y-42099500D01*
X112686261Y-42099500D01*
X112678249Y-42098488D01*
X112664382Y-42097396D01*
X112656312Y-42097142D01*
X112640595Y-42094653D01*
X112624752Y-42096151D01*
X112611489Y-42095734D01*
X112515323Y-42073444D01*
X112433995Y-42014029D01*
X112431335Y-42010467D01*
X112422953Y-42002719D01*
X112372522Y-41917955D01*
X112358357Y-41820261D01*
X112382655Y-41724582D01*
X112441719Y-41645486D01*
X112526555Y-41595012D01*
X112611010Y-41580500D01*
X116746500Y-41580500D01*
X116843319Y-41599758D01*
G37*
G04 #@! TD.AperFunction*
M02*
