G04 #@! TF.GenerationSoftware,KiCad,Pcbnew,(6.0.6)*
G04 #@! TF.CreationDate,2023-11-23T12:30:35+01:00*
G04 #@! TF.ProjectId,current-sensor-acs712,63757272-656e-4742-9d73-656e736f722d,rev?*
G04 #@! TF.SameCoordinates,Original*
G04 #@! TF.FileFunction,Copper,L1,Top*
G04 #@! TF.FilePolarity,Positive*
%FSLAX46Y46*%
G04 Gerber Fmt 4.6, Leading zero omitted, Abs format (unit mm)*
G04 Created by KiCad (PCBNEW (6.0.6)) date 2023-11-23 12:30:35*
%MOMM*%
%LPD*%
G01*
G04 APERTURE LIST*
G04 #@! TA.AperFunction,NonConductor*
%ADD10C,0.200000*%
G04 #@! TD*
G04 #@! TA.AperFunction,ComponentPad*
%ADD11R,2.600000X2.600000*%
G04 #@! TD*
G04 #@! TA.AperFunction,ComponentPad*
%ADD12C,2.600000*%
G04 #@! TD*
G04 #@! TA.AperFunction,ComponentPad*
%ADD13R,1.700000X1.700000*%
G04 #@! TD*
G04 #@! TA.AperFunction,ComponentPad*
%ADD14O,1.700000X1.700000*%
G04 #@! TD*
G04 #@! TA.AperFunction,ViaPad*
%ADD15C,1.400000*%
G04 #@! TD*
G04 #@! TA.AperFunction,Conductor*
%ADD16C,0.500000*%
G04 #@! TD*
G04 #@! TA.AperFunction,Conductor*
%ADD17C,0.300000*%
G04 #@! TD*
G04 #@! TA.AperFunction,Conductor*
%ADD18C,1.000000*%
G04 #@! TD*
G04 APERTURE END LIST*
D10*
X72510000Y-71080000D02*
X72510000Y-41080000D01*
X117510000Y-71080000D02*
X72510000Y-71080000D01*
X117510000Y-41080000D02*
X117510000Y-71080000D01*
X72510000Y-41080000D02*
X117510000Y-41080000D01*
G04 #@! TA.AperFunction,SMDPad,CuDef*
G36*
G01*
X108650000Y-61800000D02*
X107750000Y-61800000D01*
G75*
G02*
X107500000Y-61550000I0J250000D01*
G01*
X107500000Y-60850000D01*
G75*
G02*
X107750000Y-60600000I250000J0D01*
G01*
X108650000Y-60600000D01*
G75*
G02*
X108900000Y-60850000I0J-250000D01*
G01*
X108900000Y-61550000D01*
G75*
G02*
X108650000Y-61800000I-250000J0D01*
G01*
G37*
G04 #@! TD.AperFunction*
G04 #@! TA.AperFunction,SMDPad,CuDef*
G36*
G01*
X108650000Y-59800000D02*
X107750000Y-59800000D01*
G75*
G02*
X107500000Y-59550000I0J250000D01*
G01*
X107500000Y-58850000D01*
G75*
G02*
X107750000Y-58600000I250000J0D01*
G01*
X108650000Y-58600000D01*
G75*
G02*
X108900000Y-58850000I0J-250000D01*
G01*
X108900000Y-59550000D01*
G75*
G02*
X108650000Y-59800000I-250000J0D01*
G01*
G37*
G04 #@! TD.AperFunction*
G04 #@! TA.AperFunction,SMDPad,CuDef*
G36*
G01*
X95350000Y-57200000D02*
X94450000Y-57200000D01*
G75*
G02*
X94200000Y-56950000I0J250000D01*
G01*
X94200000Y-56250000D01*
G75*
G02*
X94450000Y-56000000I250000J0D01*
G01*
X95350000Y-56000000D01*
G75*
G02*
X95600000Y-56250000I0J-250000D01*
G01*
X95600000Y-56950000D01*
G75*
G02*
X95350000Y-57200000I-250000J0D01*
G01*
G37*
G04 #@! TD.AperFunction*
G04 #@! TA.AperFunction,SMDPad,CuDef*
G36*
G01*
X95350000Y-55200000D02*
X94450000Y-55200000D01*
G75*
G02*
X94200000Y-54950000I0J250000D01*
G01*
X94200000Y-54250000D01*
G75*
G02*
X94450000Y-54000000I250000J0D01*
G01*
X95350000Y-54000000D01*
G75*
G02*
X95600000Y-54250000I0J-250000D01*
G01*
X95600000Y-54950000D01*
G75*
G02*
X95350000Y-55200000I-250000J0D01*
G01*
G37*
G04 #@! TD.AperFunction*
G04 #@! TA.AperFunction,SMDPad,CuDef*
G36*
G01*
X106625000Y-60325000D02*
X106625000Y-61275000D01*
G75*
G02*
X106375000Y-61525000I-250000J0D01*
G01*
X105700000Y-61525000D01*
G75*
G02*
X105450000Y-61275000I0J250000D01*
G01*
X105450000Y-60325000D01*
G75*
G02*
X105700000Y-60075000I250000J0D01*
G01*
X106375000Y-60075000D01*
G75*
G02*
X106625000Y-60325000I0J-250000D01*
G01*
G37*
G04 #@! TD.AperFunction*
G04 #@! TA.AperFunction,SMDPad,CuDef*
G36*
G01*
X104550000Y-60325000D02*
X104550000Y-61275000D01*
G75*
G02*
X104300000Y-61525000I-250000J0D01*
G01*
X103625000Y-61525000D01*
G75*
G02*
X103375000Y-61275000I0J250000D01*
G01*
X103375000Y-60325000D01*
G75*
G02*
X103625000Y-60075000I250000J0D01*
G01*
X104300000Y-60075000D01*
G75*
G02*
X104550000Y-60325000I0J-250000D01*
G01*
G37*
G04 #@! TD.AperFunction*
D11*
X77200000Y-60400000D03*
D12*
X77200000Y-65480000D03*
G04 #@! TA.AperFunction,SMDPad,CuDef*
G36*
G01*
X86150000Y-54445000D02*
X86150000Y-54145000D01*
G75*
G02*
X86300000Y-53995000I150000J0D01*
G01*
X87950000Y-53995000D01*
G75*
G02*
X88100000Y-54145000I0J-150000D01*
G01*
X88100000Y-54445000D01*
G75*
G02*
X87950000Y-54595000I-150000J0D01*
G01*
X86300000Y-54595000D01*
G75*
G02*
X86150000Y-54445000I0J150000D01*
G01*
G37*
G04 #@! TD.AperFunction*
G04 #@! TA.AperFunction,SMDPad,CuDef*
G36*
G01*
X86150000Y-55715000D02*
X86150000Y-55415000D01*
G75*
G02*
X86300000Y-55265000I150000J0D01*
G01*
X87950000Y-55265000D01*
G75*
G02*
X88100000Y-55415000I0J-150000D01*
G01*
X88100000Y-55715000D01*
G75*
G02*
X87950000Y-55865000I-150000J0D01*
G01*
X86300000Y-55865000D01*
G75*
G02*
X86150000Y-55715000I0J150000D01*
G01*
G37*
G04 #@! TD.AperFunction*
G04 #@! TA.AperFunction,SMDPad,CuDef*
G36*
G01*
X86150000Y-56985000D02*
X86150000Y-56685000D01*
G75*
G02*
X86300000Y-56535000I150000J0D01*
G01*
X87950000Y-56535000D01*
G75*
G02*
X88100000Y-56685000I0J-150000D01*
G01*
X88100000Y-56985000D01*
G75*
G02*
X87950000Y-57135000I-150000J0D01*
G01*
X86300000Y-57135000D01*
G75*
G02*
X86150000Y-56985000I0J150000D01*
G01*
G37*
G04 #@! TD.AperFunction*
G04 #@! TA.AperFunction,SMDPad,CuDef*
G36*
G01*
X86150000Y-58255000D02*
X86150000Y-57955000D01*
G75*
G02*
X86300000Y-57805000I150000J0D01*
G01*
X87950000Y-57805000D01*
G75*
G02*
X88100000Y-57955000I0J-150000D01*
G01*
X88100000Y-58255000D01*
G75*
G02*
X87950000Y-58405000I-150000J0D01*
G01*
X86300000Y-58405000D01*
G75*
G02*
X86150000Y-58255000I0J150000D01*
G01*
G37*
G04 #@! TD.AperFunction*
G04 #@! TA.AperFunction,SMDPad,CuDef*
G36*
G01*
X91100000Y-58255000D02*
X91100000Y-57955000D01*
G75*
G02*
X91250000Y-57805000I150000J0D01*
G01*
X92900000Y-57805000D01*
G75*
G02*
X93050000Y-57955000I0J-150000D01*
G01*
X93050000Y-58255000D01*
G75*
G02*
X92900000Y-58405000I-150000J0D01*
G01*
X91250000Y-58405000D01*
G75*
G02*
X91100000Y-58255000I0J150000D01*
G01*
G37*
G04 #@! TD.AperFunction*
G04 #@! TA.AperFunction,SMDPad,CuDef*
G36*
G01*
X91100000Y-56985000D02*
X91100000Y-56685000D01*
G75*
G02*
X91250000Y-56535000I150000J0D01*
G01*
X92900000Y-56535000D01*
G75*
G02*
X93050000Y-56685000I0J-150000D01*
G01*
X93050000Y-56985000D01*
G75*
G02*
X92900000Y-57135000I-150000J0D01*
G01*
X91250000Y-57135000D01*
G75*
G02*
X91100000Y-56985000I0J150000D01*
G01*
G37*
G04 #@! TD.AperFunction*
G04 #@! TA.AperFunction,SMDPad,CuDef*
G36*
G01*
X91100000Y-55715000D02*
X91100000Y-55415000D01*
G75*
G02*
X91250000Y-55265000I150000J0D01*
G01*
X92900000Y-55265000D01*
G75*
G02*
X93050000Y-55415000I0J-150000D01*
G01*
X93050000Y-55715000D01*
G75*
G02*
X92900000Y-55865000I-150000J0D01*
G01*
X91250000Y-55865000D01*
G75*
G02*
X91100000Y-55715000I0J150000D01*
G01*
G37*
G04 #@! TD.AperFunction*
G04 #@! TA.AperFunction,SMDPad,CuDef*
G36*
G01*
X91100000Y-54445000D02*
X91100000Y-54145000D01*
G75*
G02*
X91250000Y-53995000I150000J0D01*
G01*
X92900000Y-53995000D01*
G75*
G02*
X93050000Y-54145000I0J-150000D01*
G01*
X93050000Y-54445000D01*
G75*
G02*
X92900000Y-54595000I-150000J0D01*
G01*
X91250000Y-54595000D01*
G75*
G02*
X91100000Y-54445000I0J150000D01*
G01*
G37*
G04 #@! TD.AperFunction*
G04 #@! TA.AperFunction,SMDPad,CuDef*
G36*
G01*
X109960000Y-45360000D02*
X109060000Y-45360000D01*
G75*
G02*
X108810000Y-45110000I0J250000D01*
G01*
X108810000Y-44410000D01*
G75*
G02*
X109060000Y-44160000I250000J0D01*
G01*
X109960000Y-44160000D01*
G75*
G02*
X110210000Y-44410000I0J-250000D01*
G01*
X110210000Y-45110000D01*
G75*
G02*
X109960000Y-45360000I-250000J0D01*
G01*
G37*
G04 #@! TD.AperFunction*
G04 #@! TA.AperFunction,SMDPad,CuDef*
G36*
G01*
X109960000Y-43360000D02*
X109060000Y-43360000D01*
G75*
G02*
X108810000Y-43110000I0J250000D01*
G01*
X108810000Y-42410000D01*
G75*
G02*
X109060000Y-42160000I250000J0D01*
G01*
X109960000Y-42160000D01*
G75*
G02*
X110210000Y-42410000I0J-250000D01*
G01*
X110210000Y-43110000D01*
G75*
G02*
X109960000Y-43360000I-250000J0D01*
G01*
G37*
G04 #@! TD.AperFunction*
G04 #@! TA.AperFunction,SMDPad,CuDef*
G36*
G01*
X104975000Y-51275000D02*
X104975000Y-50325000D01*
G75*
G02*
X105225000Y-50075000I250000J0D01*
G01*
X105900000Y-50075000D01*
G75*
G02*
X106150000Y-50325000I0J-250000D01*
G01*
X106150000Y-51275000D01*
G75*
G02*
X105900000Y-51525000I-250000J0D01*
G01*
X105225000Y-51525000D01*
G75*
G02*
X104975000Y-51275000I0J250000D01*
G01*
G37*
G04 #@! TD.AperFunction*
G04 #@! TA.AperFunction,SMDPad,CuDef*
G36*
G01*
X107050000Y-51275000D02*
X107050000Y-50325000D01*
G75*
G02*
X107300000Y-50075000I250000J0D01*
G01*
X107975000Y-50075000D01*
G75*
G02*
X108225000Y-50325000I0J-250000D01*
G01*
X108225000Y-51275000D01*
G75*
G02*
X107975000Y-51525000I-250000J0D01*
G01*
X107300000Y-51525000D01*
G75*
G02*
X107050000Y-51275000I0J250000D01*
G01*
G37*
G04 #@! TD.AperFunction*
G04 #@! TA.AperFunction,SMDPad,CuDef*
G36*
G01*
X96650000Y-57937500D02*
X97550000Y-57937500D01*
G75*
G02*
X97800000Y-58187500I0J-250000D01*
G01*
X97800000Y-58887500D01*
G75*
G02*
X97550000Y-59137500I-250000J0D01*
G01*
X96650000Y-59137500D01*
G75*
G02*
X96400000Y-58887500I0J250000D01*
G01*
X96400000Y-58187500D01*
G75*
G02*
X96650000Y-57937500I250000J0D01*
G01*
G37*
G04 #@! TD.AperFunction*
G04 #@! TA.AperFunction,SMDPad,CuDef*
G36*
G01*
X96650000Y-59937500D02*
X97550000Y-59937500D01*
G75*
G02*
X97800000Y-60187500I0J-250000D01*
G01*
X97800000Y-60887500D01*
G75*
G02*
X97550000Y-61137500I-250000J0D01*
G01*
X96650000Y-61137500D01*
G75*
G02*
X96400000Y-60887500I0J250000D01*
G01*
X96400000Y-60187500D01*
G75*
G02*
X96650000Y-59937500I250000J0D01*
G01*
G37*
G04 #@! TD.AperFunction*
G04 #@! TA.AperFunction,SMDPad,CuDef*
G36*
G01*
X96650000Y-54000000D02*
X97550000Y-54000000D01*
G75*
G02*
X97800000Y-54250000I0J-250000D01*
G01*
X97800000Y-54950000D01*
G75*
G02*
X97550000Y-55200000I-250000J0D01*
G01*
X96650000Y-55200000D01*
G75*
G02*
X96400000Y-54950000I0J250000D01*
G01*
X96400000Y-54250000D01*
G75*
G02*
X96650000Y-54000000I250000J0D01*
G01*
G37*
G04 #@! TD.AperFunction*
G04 #@! TA.AperFunction,SMDPad,CuDef*
G36*
G01*
X96650000Y-56000000D02*
X97550000Y-56000000D01*
G75*
G02*
X97800000Y-56250000I0J-250000D01*
G01*
X97800000Y-56950000D01*
G75*
G02*
X97550000Y-57200000I-250000J0D01*
G01*
X96650000Y-57200000D01*
G75*
G02*
X96400000Y-56950000I0J250000D01*
G01*
X96400000Y-56250000D01*
G75*
G02*
X96650000Y-56000000I250000J0D01*
G01*
G37*
G04 #@! TD.AperFunction*
G04 #@! TA.AperFunction,SMDPad,CuDef*
G36*
G01*
X108675000Y-57862500D02*
X107725000Y-57862500D01*
G75*
G02*
X107475000Y-57612500I0J250000D01*
G01*
X107475000Y-56937500D01*
G75*
G02*
X107725000Y-56687500I250000J0D01*
G01*
X108675000Y-56687500D01*
G75*
G02*
X108925000Y-56937500I0J-250000D01*
G01*
X108925000Y-57612500D01*
G75*
G02*
X108675000Y-57862500I-250000J0D01*
G01*
G37*
G04 #@! TD.AperFunction*
G04 #@! TA.AperFunction,SMDPad,CuDef*
G36*
G01*
X108675000Y-55787500D02*
X107725000Y-55787500D01*
G75*
G02*
X107475000Y-55537500I0J250000D01*
G01*
X107475000Y-54862500D01*
G75*
G02*
X107725000Y-54612500I250000J0D01*
G01*
X108675000Y-54612500D01*
G75*
G02*
X108925000Y-54862500I0J-250000D01*
G01*
X108925000Y-55537500D01*
G75*
G02*
X108675000Y-55787500I-250000J0D01*
G01*
G37*
G04 #@! TD.AperFunction*
G04 #@! TA.AperFunction,SMDPad,CuDef*
G36*
G01*
X105280000Y-45430000D02*
X104380000Y-45430000D01*
G75*
G02*
X104130000Y-45180000I0J250000D01*
G01*
X104130000Y-44480000D01*
G75*
G02*
X104380000Y-44230000I250000J0D01*
G01*
X105280000Y-44230000D01*
G75*
G02*
X105530000Y-44480000I0J-250000D01*
G01*
X105530000Y-45180000D01*
G75*
G02*
X105280000Y-45430000I-250000J0D01*
G01*
G37*
G04 #@! TD.AperFunction*
G04 #@! TA.AperFunction,SMDPad,CuDef*
G36*
G01*
X105280000Y-43430000D02*
X104380000Y-43430000D01*
G75*
G02*
X104130000Y-43180000I0J250000D01*
G01*
X104130000Y-42480000D01*
G75*
G02*
X104380000Y-42230000I250000J0D01*
G01*
X105280000Y-42230000D01*
G75*
G02*
X105530000Y-42480000I0J-250000D01*
G01*
X105530000Y-43180000D01*
G75*
G02*
X105280000Y-43430000I-250000J0D01*
G01*
G37*
G04 #@! TD.AperFunction*
D13*
X115040000Y-47280000D03*
D14*
X115040000Y-49820000D03*
X115040000Y-52360000D03*
X115040000Y-54900000D03*
X115040000Y-57440000D03*
X115040000Y-59980000D03*
X115040000Y-62520000D03*
X115040000Y-65060000D03*
D11*
X77200000Y-46760000D03*
D12*
X77200000Y-51840000D03*
G04 #@! TA.AperFunction,SMDPad,CuDef*
G36*
G01*
X110850000Y-57800000D02*
X109950000Y-57800000D01*
G75*
G02*
X109700000Y-57550000I0J250000D01*
G01*
X109700000Y-56850000D01*
G75*
G02*
X109950000Y-56600000I250000J0D01*
G01*
X110850000Y-56600000D01*
G75*
G02*
X111100000Y-56850000I0J-250000D01*
G01*
X111100000Y-57550000D01*
G75*
G02*
X110850000Y-57800000I-250000J0D01*
G01*
G37*
G04 #@! TD.AperFunction*
G04 #@! TA.AperFunction,SMDPad,CuDef*
G36*
G01*
X110850000Y-55800000D02*
X109950000Y-55800000D01*
G75*
G02*
X109700000Y-55550000I0J250000D01*
G01*
X109700000Y-54850000D01*
G75*
G02*
X109950000Y-54600000I250000J0D01*
G01*
X110850000Y-54600000D01*
G75*
G02*
X111100000Y-54850000I0J-250000D01*
G01*
X111100000Y-55550000D01*
G75*
G02*
X110850000Y-55800000I-250000J0D01*
G01*
G37*
G04 #@! TD.AperFunction*
G04 #@! TA.AperFunction,SMDPad,CuDef*
G36*
G01*
X102925000Y-50325000D02*
X102925000Y-51275000D01*
G75*
G02*
X102675000Y-51525000I-250000J0D01*
G01*
X102000000Y-51525000D01*
G75*
G02*
X101750000Y-51275000I0J250000D01*
G01*
X101750000Y-50325000D01*
G75*
G02*
X102000000Y-50075000I250000J0D01*
G01*
X102675000Y-50075000D01*
G75*
G02*
X102925000Y-50325000I0J-250000D01*
G01*
G37*
G04 #@! TD.AperFunction*
G04 #@! TA.AperFunction,SMDPad,CuDef*
G36*
G01*
X100850000Y-50325000D02*
X100850000Y-51275000D01*
G75*
G02*
X100600000Y-51525000I-250000J0D01*
G01*
X99925000Y-51525000D01*
G75*
G02*
X99675000Y-51275000I0J250000D01*
G01*
X99675000Y-50325000D01*
G75*
G02*
X99925000Y-50075000I250000J0D01*
G01*
X100600000Y-50075000D01*
G75*
G02*
X100850000Y-50325000I0J-250000D01*
G01*
G37*
G04 #@! TD.AperFunction*
G04 #@! TA.AperFunction,SMDPad,CuDef*
G36*
G01*
X112200000Y-52450000D02*
X112200000Y-53350000D01*
G75*
G02*
X111950000Y-53600000I-250000J0D01*
G01*
X111250000Y-53600000D01*
G75*
G02*
X111000000Y-53350000I0J250000D01*
G01*
X111000000Y-52450000D01*
G75*
G02*
X111250000Y-52200000I250000J0D01*
G01*
X111950000Y-52200000D01*
G75*
G02*
X112200000Y-52450000I0J-250000D01*
G01*
G37*
G04 #@! TD.AperFunction*
G04 #@! TA.AperFunction,SMDPad,CuDef*
G36*
G01*
X110200000Y-52450000D02*
X110200000Y-53350000D01*
G75*
G02*
X109950000Y-53600000I-250000J0D01*
G01*
X109250000Y-53600000D01*
G75*
G02*
X109000000Y-53350000I0J250000D01*
G01*
X109000000Y-52450000D01*
G75*
G02*
X109250000Y-52200000I250000J0D01*
G01*
X109950000Y-52200000D01*
G75*
G02*
X110200000Y-52450000I0J-250000D01*
G01*
G37*
G04 #@! TD.AperFunction*
G04 #@! TA.AperFunction,SMDPad,CuDef*
G36*
G01*
X101510000Y-46090000D02*
X102410000Y-46090000D01*
G75*
G02*
X102660000Y-46340000I0J-250000D01*
G01*
X102660000Y-47040000D01*
G75*
G02*
X102410000Y-47290000I-250000J0D01*
G01*
X101510000Y-47290000D01*
G75*
G02*
X101260000Y-47040000I0J250000D01*
G01*
X101260000Y-46340000D01*
G75*
G02*
X101510000Y-46090000I250000J0D01*
G01*
G37*
G04 #@! TD.AperFunction*
G04 #@! TA.AperFunction,SMDPad,CuDef*
G36*
G01*
X101510000Y-48090000D02*
X102410000Y-48090000D01*
G75*
G02*
X102660000Y-48340000I0J-250000D01*
G01*
X102660000Y-49040000D01*
G75*
G02*
X102410000Y-49290000I-250000J0D01*
G01*
X101510000Y-49290000D01*
G75*
G02*
X101260000Y-49040000I0J250000D01*
G01*
X101260000Y-48340000D01*
G75*
G02*
X101510000Y-48090000I250000J0D01*
G01*
G37*
G04 #@! TD.AperFunction*
G04 #@! TA.AperFunction,SMDPad,CuDef*
G36*
G01*
X91575000Y-52675000D02*
X91575000Y-51725000D01*
G75*
G02*
X91825000Y-51475000I250000J0D01*
G01*
X92500000Y-51475000D01*
G75*
G02*
X92750000Y-51725000I0J-250000D01*
G01*
X92750000Y-52675000D01*
G75*
G02*
X92500000Y-52925000I-250000J0D01*
G01*
X91825000Y-52925000D01*
G75*
G02*
X91575000Y-52675000I0J250000D01*
G01*
G37*
G04 #@! TD.AperFunction*
G04 #@! TA.AperFunction,SMDPad,CuDef*
G36*
G01*
X93650000Y-52675000D02*
X93650000Y-51725000D01*
G75*
G02*
X93900000Y-51475000I250000J0D01*
G01*
X94575000Y-51475000D01*
G75*
G02*
X94825000Y-51725000I0J-250000D01*
G01*
X94825000Y-52675000D01*
G75*
G02*
X94575000Y-52925000I-250000J0D01*
G01*
X93900000Y-52925000D01*
G75*
G02*
X93650000Y-52675000I0J250000D01*
G01*
G37*
G04 #@! TD.AperFunction*
G04 #@! TA.AperFunction,SMDPad,CuDef*
G36*
G01*
X107380000Y-45410000D02*
X106480000Y-45410000D01*
G75*
G02*
X106230000Y-45160000I0J250000D01*
G01*
X106230000Y-44510000D01*
G75*
G02*
X106480000Y-44260000I250000J0D01*
G01*
X107380000Y-44260000D01*
G75*
G02*
X107630000Y-44510000I0J-250000D01*
G01*
X107630000Y-45160000D01*
G75*
G02*
X107380000Y-45410000I-250000J0D01*
G01*
G37*
G04 #@! TD.AperFunction*
G04 #@! TA.AperFunction,SMDPad,CuDef*
G36*
G01*
X107380000Y-43360000D02*
X106480000Y-43360000D01*
G75*
G02*
X106230000Y-43110000I0J250000D01*
G01*
X106230000Y-42460000D01*
G75*
G02*
X106480000Y-42210000I250000J0D01*
G01*
X107380000Y-42210000D01*
G75*
G02*
X107630000Y-42460000I0J-250000D01*
G01*
X107630000Y-43110000D01*
G75*
G02*
X107380000Y-43360000I-250000J0D01*
G01*
G37*
G04 #@! TD.AperFunction*
G04 #@! TA.AperFunction,SMDPad,CuDef*
G36*
G01*
X94425000Y-57912500D02*
X95375000Y-57912500D01*
G75*
G02*
X95625000Y-58162500I0J-250000D01*
G01*
X95625000Y-58837500D01*
G75*
G02*
X95375000Y-59087500I-250000J0D01*
G01*
X94425000Y-59087500D01*
G75*
G02*
X94175000Y-58837500I0J250000D01*
G01*
X94175000Y-58162500D01*
G75*
G02*
X94425000Y-57912500I250000J0D01*
G01*
G37*
G04 #@! TD.AperFunction*
G04 #@! TA.AperFunction,SMDPad,CuDef*
G36*
G01*
X94425000Y-59987500D02*
X95375000Y-59987500D01*
G75*
G02*
X95625000Y-60237500I0J-250000D01*
G01*
X95625000Y-60912500D01*
G75*
G02*
X95375000Y-61162500I-250000J0D01*
G01*
X94425000Y-61162500D01*
G75*
G02*
X94175000Y-60912500I0J250000D01*
G01*
X94175000Y-60237500D01*
G75*
G02*
X94425000Y-59987500I250000J0D01*
G01*
G37*
G04 #@! TD.AperFunction*
G04 #@! TA.AperFunction,SMDPad,CuDef*
G36*
G01*
X99750000Y-55045000D02*
X99750000Y-54745000D01*
G75*
G02*
X99900000Y-54595000I150000J0D01*
G01*
X101550000Y-54595000D01*
G75*
G02*
X101700000Y-54745000I0J-150000D01*
G01*
X101700000Y-55045000D01*
G75*
G02*
X101550000Y-55195000I-150000J0D01*
G01*
X99900000Y-55195000D01*
G75*
G02*
X99750000Y-55045000I0J150000D01*
G01*
G37*
G04 #@! TD.AperFunction*
G04 #@! TA.AperFunction,SMDPad,CuDef*
G36*
G01*
X99750000Y-56315000D02*
X99750000Y-56015000D01*
G75*
G02*
X99900000Y-55865000I150000J0D01*
G01*
X101550000Y-55865000D01*
G75*
G02*
X101700000Y-56015000I0J-150000D01*
G01*
X101700000Y-56315000D01*
G75*
G02*
X101550000Y-56465000I-150000J0D01*
G01*
X99900000Y-56465000D01*
G75*
G02*
X99750000Y-56315000I0J150000D01*
G01*
G37*
G04 #@! TD.AperFunction*
G04 #@! TA.AperFunction,SMDPad,CuDef*
G36*
G01*
X99750000Y-57585000D02*
X99750000Y-57285000D01*
G75*
G02*
X99900000Y-57135000I150000J0D01*
G01*
X101550000Y-57135000D01*
G75*
G02*
X101700000Y-57285000I0J-150000D01*
G01*
X101700000Y-57585000D01*
G75*
G02*
X101550000Y-57735000I-150000J0D01*
G01*
X99900000Y-57735000D01*
G75*
G02*
X99750000Y-57585000I0J150000D01*
G01*
G37*
G04 #@! TD.AperFunction*
G04 #@! TA.AperFunction,SMDPad,CuDef*
G36*
G01*
X99750000Y-58855000D02*
X99750000Y-58555000D01*
G75*
G02*
X99900000Y-58405000I150000J0D01*
G01*
X101550000Y-58405000D01*
G75*
G02*
X101700000Y-58555000I0J-150000D01*
G01*
X101700000Y-58855000D01*
G75*
G02*
X101550000Y-59005000I-150000J0D01*
G01*
X99900000Y-59005000D01*
G75*
G02*
X99750000Y-58855000I0J150000D01*
G01*
G37*
G04 #@! TD.AperFunction*
G04 #@! TA.AperFunction,SMDPad,CuDef*
G36*
G01*
X104700000Y-58855000D02*
X104700000Y-58555000D01*
G75*
G02*
X104850000Y-58405000I150000J0D01*
G01*
X106500000Y-58405000D01*
G75*
G02*
X106650000Y-58555000I0J-150000D01*
G01*
X106650000Y-58855000D01*
G75*
G02*
X106500000Y-59005000I-150000J0D01*
G01*
X104850000Y-59005000D01*
G75*
G02*
X104700000Y-58855000I0J150000D01*
G01*
G37*
G04 #@! TD.AperFunction*
G04 #@! TA.AperFunction,SMDPad,CuDef*
G36*
G01*
X104700000Y-57585000D02*
X104700000Y-57285000D01*
G75*
G02*
X104850000Y-57135000I150000J0D01*
G01*
X106500000Y-57135000D01*
G75*
G02*
X106650000Y-57285000I0J-150000D01*
G01*
X106650000Y-57585000D01*
G75*
G02*
X106500000Y-57735000I-150000J0D01*
G01*
X104850000Y-57735000D01*
G75*
G02*
X104700000Y-57585000I0J150000D01*
G01*
G37*
G04 #@! TD.AperFunction*
G04 #@! TA.AperFunction,SMDPad,CuDef*
G36*
G01*
X104700000Y-56315000D02*
X104700000Y-56015000D01*
G75*
G02*
X104850000Y-55865000I150000J0D01*
G01*
X106500000Y-55865000D01*
G75*
G02*
X106650000Y-56015000I0J-150000D01*
G01*
X106650000Y-56315000D01*
G75*
G02*
X106500000Y-56465000I-150000J0D01*
G01*
X104850000Y-56465000D01*
G75*
G02*
X104700000Y-56315000I0J150000D01*
G01*
G37*
G04 #@! TD.AperFunction*
G04 #@! TA.AperFunction,SMDPad,CuDef*
G36*
G01*
X104700000Y-55045000D02*
X104700000Y-54745000D01*
G75*
G02*
X104850000Y-54595000I150000J0D01*
G01*
X106500000Y-54595000D01*
G75*
G02*
X106650000Y-54745000I0J-150000D01*
G01*
X106650000Y-55045000D01*
G75*
G02*
X106500000Y-55195000I-150000J0D01*
G01*
X104850000Y-55195000D01*
G75*
G02*
X104700000Y-55045000I0J150000D01*
G01*
G37*
G04 #@! TD.AperFunction*
G04 #@! TA.AperFunction,SMDPad,CuDef*
G36*
G01*
X104975000Y-53375000D02*
X104975000Y-52425000D01*
G75*
G02*
X105225000Y-52175000I250000J0D01*
G01*
X105900000Y-52175000D01*
G75*
G02*
X106150000Y-52425000I0J-250000D01*
G01*
X106150000Y-53375000D01*
G75*
G02*
X105900000Y-53625000I-250000J0D01*
G01*
X105225000Y-53625000D01*
G75*
G02*
X104975000Y-53375000I0J250000D01*
G01*
G37*
G04 #@! TD.AperFunction*
G04 #@! TA.AperFunction,SMDPad,CuDef*
G36*
G01*
X107050000Y-53375000D02*
X107050000Y-52425000D01*
G75*
G02*
X107300000Y-52175000I250000J0D01*
G01*
X107975000Y-52175000D01*
G75*
G02*
X108225000Y-52425000I0J-250000D01*
G01*
X108225000Y-53375000D01*
G75*
G02*
X107975000Y-53625000I-250000J0D01*
G01*
X107300000Y-53625000D01*
G75*
G02*
X107050000Y-53375000I0J250000D01*
G01*
G37*
G04 #@! TD.AperFunction*
G04 #@! TA.AperFunction,SMDPad,CuDef*
G36*
G01*
X99700000Y-53350000D02*
X99700000Y-52450000D01*
G75*
G02*
X99950000Y-52200000I250000J0D01*
G01*
X100650000Y-52200000D01*
G75*
G02*
X100900000Y-52450000I0J-250000D01*
G01*
X100900000Y-53350000D01*
G75*
G02*
X100650000Y-53600000I-250000J0D01*
G01*
X99950000Y-53600000D01*
G75*
G02*
X99700000Y-53350000I0J250000D01*
G01*
G37*
G04 #@! TD.AperFunction*
G04 #@! TA.AperFunction,SMDPad,CuDef*
G36*
G01*
X101700000Y-53350000D02*
X101700000Y-52450000D01*
G75*
G02*
X101950000Y-52200000I250000J0D01*
G01*
X102650000Y-52200000D01*
G75*
G02*
X102900000Y-52450000I0J-250000D01*
G01*
X102900000Y-53350000D01*
G75*
G02*
X102650000Y-53600000I-250000J0D01*
G01*
X101950000Y-53600000D01*
G75*
G02*
X101700000Y-53350000I0J250000D01*
G01*
G37*
G04 #@! TD.AperFunction*
G04 #@! TA.AperFunction,SMDPad,CuDef*
G36*
G01*
X99410000Y-46090000D02*
X100310000Y-46090000D01*
G75*
G02*
X100560000Y-46340000I0J-250000D01*
G01*
X100560000Y-47040000D01*
G75*
G02*
X100310000Y-47290000I-250000J0D01*
G01*
X99410000Y-47290000D01*
G75*
G02*
X99160000Y-47040000I0J250000D01*
G01*
X99160000Y-46340000D01*
G75*
G02*
X99410000Y-46090000I250000J0D01*
G01*
G37*
G04 #@! TD.AperFunction*
G04 #@! TA.AperFunction,SMDPad,CuDef*
G36*
G01*
X99410000Y-48090000D02*
X100310000Y-48090000D01*
G75*
G02*
X100560000Y-48340000I0J-250000D01*
G01*
X100560000Y-49040000D01*
G75*
G02*
X100310000Y-49290000I-250000J0D01*
G01*
X99410000Y-49290000D01*
G75*
G02*
X99160000Y-49040000I0J250000D01*
G01*
X99160000Y-48340000D01*
G75*
G02*
X99410000Y-48090000I250000J0D01*
G01*
G37*
G04 #@! TD.AperFunction*
G04 #@! TA.AperFunction,SMDPad,CuDef*
G36*
G01*
X91575000Y-50475000D02*
X91575000Y-49525000D01*
G75*
G02*
X91825000Y-49275000I250000J0D01*
G01*
X92500000Y-49275000D01*
G75*
G02*
X92750000Y-49525000I0J-250000D01*
G01*
X92750000Y-50475000D01*
G75*
G02*
X92500000Y-50725000I-250000J0D01*
G01*
X91825000Y-50725000D01*
G75*
G02*
X91575000Y-50475000I0J250000D01*
G01*
G37*
G04 #@! TD.AperFunction*
G04 #@! TA.AperFunction,SMDPad,CuDef*
G36*
G01*
X93650000Y-50475000D02*
X93650000Y-49525000D01*
G75*
G02*
X93900000Y-49275000I250000J0D01*
G01*
X94575000Y-49275000D01*
G75*
G02*
X94825000Y-49525000I0J-250000D01*
G01*
X94825000Y-50475000D01*
G75*
G02*
X94575000Y-50725000I-250000J0D01*
G01*
X93900000Y-50725000D01*
G75*
G02*
X93650000Y-50475000I0J250000D01*
G01*
G37*
G04 #@! TD.AperFunction*
G04 #@! TA.AperFunction,SMDPad,CuDef*
G36*
G01*
X112070000Y-45340000D02*
X111170000Y-45340000D01*
G75*
G02*
X110920000Y-45090000I0J250000D01*
G01*
X110920000Y-44440000D01*
G75*
G02*
X111170000Y-44190000I250000J0D01*
G01*
X112070000Y-44190000D01*
G75*
G02*
X112320000Y-44440000I0J-250000D01*
G01*
X112320000Y-45090000D01*
G75*
G02*
X112070000Y-45340000I-250000J0D01*
G01*
G37*
G04 #@! TD.AperFunction*
G04 #@! TA.AperFunction,SMDPad,CuDef*
G36*
G01*
X112070000Y-43290000D02*
X111170000Y-43290000D01*
G75*
G02*
X110920000Y-43040000I0J250000D01*
G01*
X110920000Y-42390000D01*
G75*
G02*
X111170000Y-42140000I250000J0D01*
G01*
X112070000Y-42140000D01*
G75*
G02*
X112320000Y-42390000I0J-250000D01*
G01*
X112320000Y-43040000D01*
G75*
G02*
X112070000Y-43290000I-250000J0D01*
G01*
G37*
G04 #@! TD.AperFunction*
D15*
X92162500Y-52200000D03*
X97100000Y-60500000D03*
X111610000Y-42750000D03*
X107575000Y-52900000D03*
X100650000Y-60900000D03*
X94250000Y-52175000D03*
X100250000Y-50825000D03*
X92525000Y-60575000D03*
X97100000Y-56600000D03*
X112020000Y-48550000D03*
X105562500Y-50800000D03*
X83790000Y-54830000D03*
X83780000Y-51630000D03*
X83780000Y-53230000D03*
X83790000Y-57550000D03*
X83790000Y-59150000D03*
X83790000Y-60750000D03*
X110400000Y-55200000D03*
X102300000Y-52900000D03*
D16*
X92075000Y-52287500D02*
X92162500Y-52200000D01*
X92075000Y-54295000D02*
X92075000Y-52287500D01*
X92162500Y-52200000D02*
X92162500Y-50000000D01*
D17*
X105900000Y-41760000D02*
X104830000Y-42830000D01*
X108510000Y-41760000D02*
X105900000Y-41760000D01*
X109510000Y-42760000D02*
X108510000Y-41760000D01*
X92835000Y-56835000D02*
X94500000Y-58500000D01*
X94500000Y-58500000D02*
X94900000Y-58500000D01*
X94900000Y-58500000D02*
X97062500Y-58500000D01*
X97062500Y-58500000D02*
X97100000Y-58537500D01*
X92075000Y-56835000D02*
X92835000Y-56835000D01*
X111220000Y-46150000D02*
X112110000Y-47040000D01*
X108710000Y-46150000D02*
X111220000Y-46150000D01*
X106930000Y-42785000D02*
X107535000Y-42785000D01*
X108260000Y-45700000D02*
X108710000Y-46150000D01*
D16*
X105562500Y-52900000D02*
X105562500Y-54782500D01*
X105562500Y-54782500D02*
X105675000Y-54895000D01*
X105562500Y-50800000D02*
X105562500Y-52900000D01*
D17*
X107535000Y-42785000D02*
X108260000Y-43510000D01*
X112110000Y-48460000D02*
X112020000Y-48550000D01*
X112110000Y-47040000D02*
X112110000Y-48460000D01*
X108260000Y-43510000D02*
X108260000Y-45700000D01*
X108000000Y-61000000D02*
X108200000Y-61200000D01*
X106037500Y-59067500D02*
X105675000Y-58705000D01*
X106237500Y-61000000D02*
X108000000Y-61000000D01*
X106037500Y-60800000D02*
X106037500Y-59067500D01*
X106037500Y-60800000D02*
X106237500Y-61000000D01*
X110325000Y-57275000D02*
X110400000Y-57200000D01*
X108200000Y-59200000D02*
X108200000Y-57275000D01*
X108200000Y-57275000D02*
X110325000Y-57275000D01*
X108200000Y-55200000D02*
X108200000Y-54300000D01*
X105675000Y-57435000D02*
X105675000Y-56165000D01*
X105675000Y-56165000D02*
X107035000Y-56165000D01*
X107035000Y-56165000D02*
X108000000Y-55200000D01*
X108000000Y-55200000D02*
X108200000Y-55200000D01*
X108200000Y-54300000D02*
X109600000Y-52900000D01*
X102400000Y-48700000D02*
X102400000Y-50737500D01*
X102400000Y-50737500D02*
X102337500Y-50800000D01*
X100300000Y-52837500D02*
X102337500Y-50800000D01*
X100300000Y-52900000D02*
X100300000Y-52837500D01*
X106930000Y-44835000D02*
X104835000Y-44835000D01*
X104835000Y-44835000D02*
X104830000Y-44830000D01*
X109515000Y-44765000D02*
X109510000Y-44760000D01*
X111620000Y-44765000D02*
X109515000Y-44765000D01*
D18*
X87125000Y-54295000D02*
X87125000Y-53135000D01*
X87125000Y-54295000D02*
X87125000Y-55230000D01*
X87125000Y-58105000D02*
X87125000Y-57145000D01*
X87125000Y-58105000D02*
X87130000Y-58110000D01*
X87125000Y-57145000D02*
X87130000Y-57140000D01*
X87130000Y-58110000D02*
X87130000Y-59450000D01*
D17*
X114850000Y-52380000D02*
X115200000Y-52380000D01*
X113890000Y-51420000D02*
X114850000Y-52380000D01*
X104430000Y-48240000D02*
X108340000Y-48240000D01*
X101960000Y-46690000D02*
X102880000Y-46690000D01*
X102880000Y-46690000D02*
X104430000Y-48240000D01*
X101950000Y-46700000D02*
X101960000Y-46690000D01*
X111520000Y-51420000D02*
X113890000Y-51420000D01*
X100300000Y-46700000D02*
X101950000Y-46700000D01*
X108340000Y-48240000D02*
X111520000Y-51420000D01*
X111600000Y-53000000D02*
X113520000Y-54920000D01*
X111600000Y-52900000D02*
X111600000Y-53000000D01*
X113520000Y-54920000D02*
X115200000Y-54920000D01*
X92075000Y-55565000D02*
X93665000Y-55565000D01*
X93665000Y-55565000D02*
X94700000Y-56600000D01*
X94700000Y-56600000D02*
X94900000Y-56600000D01*
X98600000Y-56900000D02*
X99135000Y-57435000D01*
X98600000Y-55100000D02*
X98600000Y-56900000D01*
X97100000Y-54600000D02*
X98100000Y-54600000D01*
X97100000Y-50600000D02*
X97100000Y-54600000D01*
X94900000Y-54600000D02*
X97100000Y-54600000D01*
X100300000Y-48700000D02*
X99000000Y-48700000D01*
X99135000Y-57435000D02*
X100725000Y-57435000D01*
X99000000Y-48700000D02*
X97100000Y-50600000D01*
X98100000Y-54600000D02*
X98600000Y-55100000D01*
X102300000Y-53320000D02*
X100725000Y-54895000D01*
X102300000Y-52900000D02*
X102300000Y-53320000D01*
X100725000Y-56165000D02*
X100725000Y-54895000D01*
G04 #@! TA.AperFunction,Conductor*
G36*
X85623225Y-56528946D02*
G01*
X85623434Y-56527478D01*
X85676286Y-56535000D01*
X87172000Y-56535000D01*
X87268819Y-56554258D01*
X87350898Y-56609102D01*
X87405742Y-56691181D01*
X87425000Y-56788000D01*
X87425000Y-58888081D01*
X87429134Y-58908865D01*
X87449918Y-58912999D01*
X87842000Y-58912999D01*
X87938819Y-58932257D01*
X88020898Y-58987101D01*
X88075742Y-59069180D01*
X88095000Y-59165999D01*
X88095000Y-60105204D01*
X88075742Y-60202023D01*
X88020898Y-60284102D01*
X80269102Y-68035898D01*
X80187023Y-68090742D01*
X80090204Y-68110000D01*
X74848000Y-68110000D01*
X74751181Y-68090742D01*
X74669102Y-68035898D01*
X74614258Y-67953819D01*
X74595000Y-67857000D01*
X74595000Y-67066398D01*
X76337869Y-67066398D01*
X76338859Y-67067880D01*
X76348908Y-67075282D01*
X76468737Y-67138326D01*
X76485896Y-67145787D01*
X76721889Y-67228199D01*
X76739960Y-67233041D01*
X76985526Y-67279663D01*
X77004141Y-67281784D01*
X77253892Y-67291597D01*
X77272611Y-67290944D01*
X77521079Y-67263731D01*
X77539475Y-67260322D01*
X77781209Y-67196679D01*
X77798899Y-67190587D01*
X78028553Y-67091921D01*
X78045171Y-67083270D01*
X78048491Y-67081215D01*
X78063990Y-67066762D01*
X78061777Y-67060842D01*
X78059326Y-67057747D01*
X77217618Y-66216038D01*
X77200000Y-66204266D01*
X77182381Y-66216039D01*
X76349642Y-67048779D01*
X76337869Y-67066398D01*
X74595000Y-67066398D01*
X74595000Y-65441909D01*
X75388001Y-65441909D01*
X75399994Y-65691590D01*
X75402274Y-65710155D01*
X75451040Y-65955318D01*
X75456043Y-65973357D01*
X75540507Y-66208610D01*
X75548121Y-66225711D01*
X75601948Y-66325888D01*
X75615426Y-66342238D01*
X75617678Y-66341550D01*
X75626839Y-66334740D01*
X76463962Y-65497618D01*
X76475734Y-65480000D01*
X77924266Y-65480000D01*
X77936039Y-65497619D01*
X78771896Y-66333475D01*
X78789515Y-66345248D01*
X78794193Y-66342122D01*
X78797217Y-66336552D01*
X78899871Y-66108668D01*
X78906277Y-66091069D01*
X78974125Y-65850500D01*
X78977856Y-65832157D01*
X79009783Y-65581197D01*
X79010751Y-65568532D01*
X79012904Y-65486350D01*
X79012599Y-65473665D01*
X78993851Y-65221380D01*
X78991081Y-65202847D01*
X78935919Y-64959066D01*
X78930445Y-64941162D01*
X78839855Y-64708209D01*
X78831788Y-64691297D01*
X78798814Y-64633604D01*
X78784913Y-64617612D01*
X78781065Y-64618899D01*
X78774529Y-64623892D01*
X77936038Y-65462382D01*
X77924266Y-65480000D01*
X76475734Y-65480000D01*
X76463961Y-65462381D01*
X75630078Y-64628499D01*
X75612459Y-64616726D01*
X75607673Y-64619924D01*
X75604576Y-64623871D01*
X75589415Y-64648855D01*
X75580912Y-64665541D01*
X75484254Y-64896044D01*
X75478312Y-64913804D01*
X75416785Y-65156068D01*
X75413534Y-65174504D01*
X75388491Y-65423203D01*
X75388001Y-65441909D01*
X74595000Y-65441909D01*
X74595000Y-63892244D01*
X76334960Y-63892244D01*
X76344840Y-63906419D01*
X77182382Y-64743962D01*
X77200000Y-64755734D01*
X77217619Y-64743961D01*
X78051397Y-63910182D01*
X78063170Y-63892563D01*
X78063129Y-63892502D01*
X78050408Y-63883387D01*
X77887611Y-63803105D01*
X77870245Y-63796088D01*
X77632200Y-63719889D01*
X77613981Y-63715515D01*
X77367280Y-63675337D01*
X77348635Y-63673706D01*
X77098703Y-63670435D01*
X77080014Y-63671578D01*
X76832342Y-63705284D01*
X76814035Y-63709175D01*
X76574059Y-63779122D01*
X76556528Y-63785677D01*
X76351620Y-63880139D01*
X76334960Y-63892244D01*
X74595000Y-63892244D01*
X74595000Y-61741245D01*
X75392001Y-61741245D01*
X75392740Y-61754888D01*
X75397035Y-61794436D01*
X75404318Y-61825064D01*
X75443501Y-61929585D01*
X75460637Y-61960885D01*
X75526285Y-62048479D01*
X75551521Y-62073715D01*
X75639115Y-62139363D01*
X75670415Y-62156499D01*
X75774936Y-62195682D01*
X75805566Y-62202966D01*
X75845095Y-62207260D01*
X75858764Y-62208000D01*
X76667082Y-62208000D01*
X76687866Y-62203866D01*
X76692000Y-62183082D01*
X76692000Y-62183081D01*
X77708000Y-62183081D01*
X77712134Y-62203865D01*
X77732918Y-62207999D01*
X78541245Y-62207999D01*
X78554888Y-62207260D01*
X78594436Y-62202965D01*
X78625064Y-62195682D01*
X78729585Y-62156499D01*
X78760885Y-62139363D01*
X78848479Y-62073715D01*
X78873715Y-62048479D01*
X78939363Y-61960885D01*
X78956499Y-61929585D01*
X78995682Y-61825064D01*
X79002966Y-61794434D01*
X79007260Y-61754905D01*
X79008000Y-61741236D01*
X79008000Y-60932918D01*
X79003866Y-60912134D01*
X78983082Y-60908000D01*
X77732918Y-60908000D01*
X77712134Y-60912134D01*
X77708000Y-60932918D01*
X77708000Y-62183081D01*
X76692000Y-62183081D01*
X76692000Y-60932918D01*
X76687866Y-60912134D01*
X76667082Y-60908000D01*
X75416919Y-60908000D01*
X75396135Y-60912134D01*
X75392001Y-60932918D01*
X75392001Y-61741245D01*
X74595000Y-61741245D01*
X74595000Y-59867082D01*
X75392000Y-59867082D01*
X75396134Y-59887866D01*
X75416918Y-59892000D01*
X76667082Y-59892000D01*
X76687866Y-59887866D01*
X76692000Y-59867082D01*
X77708000Y-59867082D01*
X77712134Y-59887866D01*
X77732918Y-59892000D01*
X78983081Y-59892000D01*
X79003865Y-59887866D01*
X79007999Y-59867082D01*
X79007999Y-59058755D01*
X79007260Y-59045112D01*
X79002965Y-59005564D01*
X78995682Y-58974936D01*
X78956499Y-58870415D01*
X78939363Y-58839115D01*
X78873715Y-58751521D01*
X78848479Y-58726285D01*
X78760885Y-58660637D01*
X78729585Y-58643501D01*
X78625064Y-58604318D01*
X78594434Y-58597034D01*
X78554905Y-58592740D01*
X78541236Y-58592000D01*
X77732918Y-58592000D01*
X77712134Y-58596134D01*
X77708000Y-58616918D01*
X77708000Y-59867082D01*
X76692000Y-59867082D01*
X76692000Y-58616919D01*
X76687866Y-58596135D01*
X76667082Y-58592001D01*
X75858755Y-58592001D01*
X75845112Y-58592740D01*
X75805564Y-58597035D01*
X75774936Y-58604318D01*
X75670415Y-58643501D01*
X75639115Y-58660637D01*
X75551521Y-58726285D01*
X75526285Y-58751521D01*
X75460637Y-58839115D01*
X75443501Y-58870415D01*
X75404318Y-58974936D01*
X75397034Y-59005566D01*
X75392740Y-59045095D01*
X75392000Y-59058764D01*
X75392000Y-59867082D01*
X74595000Y-59867082D01*
X74595000Y-58412053D01*
X85661926Y-58412053D01*
X85663370Y-58422204D01*
X85686876Y-58503110D01*
X85699423Y-58532106D01*
X85767841Y-58647795D01*
X85787201Y-58672754D01*
X85882246Y-58767799D01*
X85907205Y-58787159D01*
X86022899Y-58855579D01*
X86051884Y-58868122D01*
X86183830Y-58906457D01*
X86209141Y-58911080D01*
X86228584Y-58912610D01*
X86238515Y-58913000D01*
X86800082Y-58913000D01*
X86820866Y-58908866D01*
X86825000Y-58888082D01*
X86825000Y-58429918D01*
X86820866Y-58409134D01*
X86800082Y-58405000D01*
X85683290Y-58405000D01*
X85662506Y-58409134D01*
X85661926Y-58412053D01*
X74595000Y-58412053D01*
X74595000Y-57142053D01*
X85661926Y-57142053D01*
X85663370Y-57152204D01*
X85686876Y-57233110D01*
X85699421Y-57262100D01*
X85746208Y-57341214D01*
X85778915Y-57434354D01*
X85773490Y-57532921D01*
X85746208Y-57598786D01*
X85699421Y-57677900D01*
X85686876Y-57706890D01*
X85665324Y-57781072D01*
X85663495Y-57802184D01*
X85666135Y-57803555D01*
X85676287Y-57805000D01*
X86800082Y-57805000D01*
X86820866Y-57800866D01*
X86825000Y-57780082D01*
X86825000Y-57159918D01*
X86820866Y-57139134D01*
X86800082Y-57135000D01*
X85683290Y-57135000D01*
X85662506Y-57139134D01*
X85661926Y-57142053D01*
X74595000Y-57142053D01*
X74595000Y-56773000D01*
X74614258Y-56676181D01*
X74669102Y-56594102D01*
X74751181Y-56539258D01*
X74848000Y-56520000D01*
X85578249Y-56520000D01*
X85623225Y-56528946D01*
G37*
G04 #@! TD.AperFunction*
G04 #@! TA.AperFunction,Conductor*
G36*
X80192023Y-44319258D02*
G01*
X80274102Y-44374102D01*
X88025898Y-52125898D01*
X88080742Y-52207977D01*
X88100000Y-52304796D01*
X88100000Y-53234000D01*
X88080742Y-53330819D01*
X88025898Y-53412898D01*
X87943819Y-53467742D01*
X87847000Y-53487000D01*
X87449918Y-53487000D01*
X87429134Y-53491134D01*
X87425000Y-53511918D01*
X87425000Y-55612000D01*
X87405742Y-55708819D01*
X87350898Y-55790898D01*
X87268819Y-55845742D01*
X87197137Y-55860000D01*
X74853000Y-55860000D01*
X74756181Y-55840742D01*
X74674102Y-55785898D01*
X74619258Y-55703819D01*
X74600000Y-55607000D01*
X74600000Y-54602053D01*
X85661926Y-54602053D01*
X85663370Y-54612204D01*
X85686876Y-54693110D01*
X85699421Y-54722100D01*
X85746208Y-54801214D01*
X85778915Y-54894354D01*
X85773490Y-54992921D01*
X85746208Y-55058786D01*
X85699421Y-55137900D01*
X85686876Y-55166890D01*
X85665324Y-55241072D01*
X85663495Y-55262184D01*
X85666135Y-55263555D01*
X85676287Y-55265000D01*
X86800082Y-55265000D01*
X86820866Y-55260866D01*
X86825000Y-55240082D01*
X86825000Y-54619918D01*
X86820866Y-54599134D01*
X86800082Y-54595000D01*
X85683290Y-54595000D01*
X85662506Y-54599134D01*
X85661926Y-54602053D01*
X74600000Y-54602053D01*
X74600000Y-53992184D01*
X85663495Y-53992184D01*
X85666135Y-53993555D01*
X85676287Y-53995000D01*
X86800082Y-53995000D01*
X86820866Y-53990866D01*
X86825000Y-53970082D01*
X86825000Y-53511919D01*
X86820866Y-53491135D01*
X86800082Y-53487001D01*
X86238502Y-53487001D01*
X86228604Y-53487390D01*
X86209138Y-53488921D01*
X86183831Y-53493543D01*
X86051884Y-53531878D01*
X86022899Y-53544421D01*
X85907205Y-53612841D01*
X85882246Y-53632201D01*
X85787201Y-53727246D01*
X85767841Y-53752205D01*
X85699423Y-53867894D01*
X85686876Y-53896890D01*
X85665324Y-53971072D01*
X85663495Y-53992184D01*
X74600000Y-53992184D01*
X74600000Y-53426398D01*
X76337869Y-53426398D01*
X76338859Y-53427880D01*
X76348908Y-53435282D01*
X76468737Y-53498326D01*
X76485896Y-53505787D01*
X76721889Y-53588199D01*
X76739960Y-53593041D01*
X76985526Y-53639663D01*
X77004141Y-53641784D01*
X77253892Y-53651597D01*
X77272611Y-53650944D01*
X77521079Y-53623731D01*
X77539475Y-53620322D01*
X77781209Y-53556679D01*
X77798899Y-53550587D01*
X78028553Y-53451921D01*
X78045171Y-53443270D01*
X78048491Y-53441215D01*
X78063990Y-53426762D01*
X78061777Y-53420842D01*
X78059326Y-53417747D01*
X77217618Y-52576038D01*
X77200000Y-52564266D01*
X77182381Y-52576039D01*
X76349642Y-53408779D01*
X76337869Y-53426398D01*
X74600000Y-53426398D01*
X74600000Y-51801909D01*
X75388001Y-51801909D01*
X75399994Y-52051590D01*
X75402274Y-52070155D01*
X75451040Y-52315318D01*
X75456043Y-52333357D01*
X75540507Y-52568610D01*
X75548121Y-52585711D01*
X75601948Y-52685888D01*
X75615426Y-52702238D01*
X75617678Y-52701550D01*
X75626839Y-52694740D01*
X76463962Y-51857618D01*
X76475734Y-51840000D01*
X77924266Y-51840000D01*
X77936039Y-51857619D01*
X78771896Y-52693475D01*
X78789515Y-52705248D01*
X78794193Y-52702122D01*
X78797217Y-52696552D01*
X78899871Y-52468668D01*
X78906277Y-52451069D01*
X78974125Y-52210500D01*
X78977856Y-52192157D01*
X79009783Y-51941197D01*
X79010751Y-51928532D01*
X79012904Y-51846350D01*
X79012599Y-51833665D01*
X78993851Y-51581380D01*
X78991081Y-51562847D01*
X78935919Y-51319066D01*
X78930445Y-51301162D01*
X78839855Y-51068209D01*
X78831788Y-51051297D01*
X78798814Y-50993604D01*
X78784913Y-50977612D01*
X78781065Y-50978899D01*
X78774529Y-50983892D01*
X77936038Y-51822382D01*
X77924266Y-51840000D01*
X76475734Y-51840000D01*
X76463961Y-51822381D01*
X75630078Y-50988499D01*
X75612459Y-50976726D01*
X75607673Y-50979924D01*
X75604576Y-50983871D01*
X75589415Y-51008855D01*
X75580912Y-51025541D01*
X75484254Y-51256044D01*
X75478312Y-51273804D01*
X75416785Y-51516068D01*
X75413534Y-51534504D01*
X75388491Y-51783203D01*
X75388001Y-51801909D01*
X74600000Y-51801909D01*
X74600000Y-50252244D01*
X76334960Y-50252244D01*
X76344840Y-50266419D01*
X77182382Y-51103962D01*
X77200000Y-51115734D01*
X77217619Y-51103961D01*
X78051397Y-50270182D01*
X78063170Y-50252563D01*
X78063129Y-50252502D01*
X78050408Y-50243387D01*
X77887611Y-50163105D01*
X77870245Y-50156088D01*
X77632200Y-50079889D01*
X77613981Y-50075515D01*
X77367280Y-50035337D01*
X77348635Y-50033706D01*
X77098703Y-50030435D01*
X77080014Y-50031578D01*
X76832342Y-50065284D01*
X76814035Y-50069175D01*
X76574059Y-50139122D01*
X76556528Y-50145677D01*
X76351620Y-50240139D01*
X76334960Y-50252244D01*
X74600000Y-50252244D01*
X74600000Y-48101245D01*
X75392001Y-48101245D01*
X75392740Y-48114888D01*
X75397035Y-48154436D01*
X75404318Y-48185064D01*
X75443501Y-48289585D01*
X75460637Y-48320885D01*
X75526285Y-48408479D01*
X75551521Y-48433715D01*
X75639115Y-48499363D01*
X75670415Y-48516499D01*
X75774936Y-48555682D01*
X75805566Y-48562966D01*
X75845095Y-48567260D01*
X75858764Y-48568000D01*
X76667082Y-48568000D01*
X76687866Y-48563866D01*
X76692000Y-48543082D01*
X76692000Y-48543081D01*
X77708000Y-48543081D01*
X77712134Y-48563865D01*
X77732918Y-48567999D01*
X78541245Y-48567999D01*
X78554888Y-48567260D01*
X78594436Y-48562965D01*
X78625064Y-48555682D01*
X78729585Y-48516499D01*
X78760885Y-48499363D01*
X78848479Y-48433715D01*
X78873715Y-48408479D01*
X78939363Y-48320885D01*
X78956499Y-48289585D01*
X78995682Y-48185064D01*
X79002966Y-48154434D01*
X79007260Y-48114905D01*
X79008000Y-48101236D01*
X79008000Y-47292918D01*
X79003866Y-47272134D01*
X78983082Y-47268000D01*
X77732918Y-47268000D01*
X77712134Y-47272134D01*
X77708000Y-47292918D01*
X77708000Y-48543081D01*
X76692000Y-48543081D01*
X76692000Y-47292918D01*
X76687866Y-47272134D01*
X76667082Y-47268000D01*
X75416919Y-47268000D01*
X75396135Y-47272134D01*
X75392001Y-47292918D01*
X75392001Y-48101245D01*
X74600000Y-48101245D01*
X74600000Y-46227082D01*
X75392000Y-46227082D01*
X75396134Y-46247866D01*
X75416918Y-46252000D01*
X76667082Y-46252000D01*
X76687866Y-46247866D01*
X76692000Y-46227082D01*
X77708000Y-46227082D01*
X77712134Y-46247866D01*
X77732918Y-46252000D01*
X78983081Y-46252000D01*
X79003865Y-46247866D01*
X79007999Y-46227082D01*
X79007999Y-45418755D01*
X79007260Y-45405112D01*
X79002965Y-45365564D01*
X78995682Y-45334936D01*
X78956499Y-45230415D01*
X78939363Y-45199115D01*
X78873715Y-45111521D01*
X78848479Y-45086285D01*
X78760885Y-45020637D01*
X78729585Y-45003501D01*
X78625064Y-44964318D01*
X78594434Y-44957034D01*
X78554905Y-44952740D01*
X78541236Y-44952000D01*
X77732918Y-44952000D01*
X77712134Y-44956134D01*
X77708000Y-44976918D01*
X77708000Y-46227082D01*
X76692000Y-46227082D01*
X76692000Y-44976919D01*
X76687866Y-44956135D01*
X76667082Y-44952001D01*
X75858755Y-44952001D01*
X75845112Y-44952740D01*
X75805564Y-44957035D01*
X75774936Y-44964318D01*
X75670415Y-45003501D01*
X75639115Y-45020637D01*
X75551521Y-45086285D01*
X75526285Y-45111521D01*
X75460637Y-45199115D01*
X75443501Y-45230415D01*
X75404318Y-45334936D01*
X75397034Y-45365566D01*
X75392740Y-45405095D01*
X75392000Y-45418764D01*
X75392000Y-46227082D01*
X74600000Y-46227082D01*
X74600000Y-44553000D01*
X74619258Y-44456181D01*
X74674102Y-44374102D01*
X74756181Y-44319258D01*
X74853000Y-44300000D01*
X80095204Y-44300000D01*
X80192023Y-44319258D01*
G37*
G04 #@! TD.AperFunction*
G04 #@! TA.AperFunction,Conductor*
G36*
X103694722Y-41599758D02*
G01*
X103776801Y-41654602D01*
X103831645Y-41736681D01*
X103850903Y-41833500D01*
X103831645Y-41930319D01*
X103796453Y-41990302D01*
X103773377Y-42019522D01*
X103696054Y-42144964D01*
X103683716Y-42171423D01*
X103637047Y-42312124D01*
X103631287Y-42338991D01*
X103622659Y-42423207D01*
X103622000Y-42436096D01*
X103622000Y-42551082D01*
X103626134Y-42571866D01*
X103646918Y-42576000D01*
X104831000Y-42576000D01*
X104927819Y-42595258D01*
X105009898Y-42650102D01*
X105064742Y-42732181D01*
X105084000Y-42829000D01*
X105084000Y-42831000D01*
X105064742Y-42927819D01*
X105009898Y-43009898D01*
X104927819Y-43064742D01*
X104831000Y-43084000D01*
X103646919Y-43084000D01*
X103626135Y-43088134D01*
X103622001Y-43108918D01*
X103622001Y-43223821D01*
X103622676Y-43236869D01*
X103631539Y-43322291D01*
X103637350Y-43349198D01*
X103684253Y-43489786D01*
X103696641Y-43516232D01*
X103774184Y-43641538D01*
X103792318Y-43664418D01*
X103855836Y-43727826D01*
X103910751Y-43809858D01*
X103930093Y-43906660D01*
X103910918Y-44003495D01*
X103877003Y-44061944D01*
X103873175Y-44066879D01*
X103861919Y-44078135D01*
X103778256Y-44219602D01*
X103773815Y-44234888D01*
X103747630Y-44325018D01*
X103732402Y-44377431D01*
X103729500Y-44414306D01*
X103729500Y-45245694D01*
X103732402Y-45282569D01*
X103736007Y-45294979D01*
X103736008Y-45294982D01*
X103757919Y-45370398D01*
X103778256Y-45440398D01*
X103861919Y-45581865D01*
X103978135Y-45698081D01*
X103991833Y-45706182D01*
X104069805Y-45752294D01*
X104119602Y-45781744D01*
X104134888Y-45786185D01*
X104265018Y-45823992D01*
X104265021Y-45823993D01*
X104277431Y-45827598D01*
X104295769Y-45829041D01*
X104309347Y-45830110D01*
X104309354Y-45830110D01*
X104314306Y-45830500D01*
X105345694Y-45830500D01*
X105350646Y-45830110D01*
X105350653Y-45830110D01*
X105364231Y-45829041D01*
X105382569Y-45827598D01*
X105394979Y-45823993D01*
X105394982Y-45823992D01*
X105525112Y-45786185D01*
X105540398Y-45781744D01*
X105590196Y-45752294D01*
X105668167Y-45706182D01*
X105681865Y-45698081D01*
X105711102Y-45668844D01*
X105793181Y-45614000D01*
X105890000Y-45594742D01*
X105986819Y-45614000D01*
X106053269Y-45658401D01*
X106054302Y-45657070D01*
X106066882Y-45666828D01*
X106078135Y-45678081D01*
X106091833Y-45686182D01*
X106193586Y-45746358D01*
X106219602Y-45761744D01*
X106234888Y-45766185D01*
X106365018Y-45803992D01*
X106365021Y-45803993D01*
X106377431Y-45807598D01*
X106395769Y-45809041D01*
X106409347Y-45810110D01*
X106409354Y-45810110D01*
X106414306Y-45810500D01*
X107445694Y-45810500D01*
X107450646Y-45810110D01*
X107450653Y-45810110D01*
X107461856Y-45809228D01*
X107482569Y-45807598D01*
X107492984Y-45804572D01*
X107590602Y-45806107D01*
X107681198Y-45845313D01*
X107749895Y-45916204D01*
X107759072Y-45931587D01*
X107759327Y-45932051D01*
X107769796Y-45953426D01*
X107784695Y-45987855D01*
X107795549Y-46001259D01*
X107801328Y-46010802D01*
X107807507Y-46019691D01*
X107813893Y-46031308D01*
X107820897Y-46039422D01*
X107840731Y-46059256D01*
X107858443Y-46078927D01*
X107879614Y-46105070D01*
X107893669Y-46115059D01*
X107904276Y-46125019D01*
X107918587Y-46137112D01*
X108170138Y-46388662D01*
X108308232Y-46526756D01*
X108315566Y-46534403D01*
X108355799Y-46578156D01*
X108370454Y-46587243D01*
X108370456Y-46587244D01*
X108387693Y-46597931D01*
X108407324Y-46611422D01*
X108437217Y-46634112D01*
X108453256Y-46640462D01*
X108461109Y-46644887D01*
X108469327Y-46648546D01*
X108483986Y-46657635D01*
X108520026Y-46668106D01*
X108542565Y-46675823D01*
X108561417Y-46683287D01*
X108561419Y-46683287D01*
X108577453Y-46689636D01*
X108594601Y-46691439D01*
X108605424Y-46694097D01*
X108616097Y-46696017D01*
X108628825Y-46699715D01*
X108639515Y-46700500D01*
X108667565Y-46700500D01*
X108694009Y-46701886D01*
X108727454Y-46705401D01*
X108744458Y-46702525D01*
X108759007Y-46702068D01*
X108777675Y-46700500D01*
X110887179Y-46700500D01*
X110983998Y-46719758D01*
X111066077Y-46774602D01*
X111485398Y-47193922D01*
X111540241Y-47276001D01*
X111559500Y-47372820D01*
X111559500Y-47399472D01*
X111540242Y-47496291D01*
X111485398Y-47578370D01*
X111435857Y-47616902D01*
X111370371Y-47655862D01*
X111361651Y-47663510D01*
X111361650Y-47663510D01*
X111268600Y-47745113D01*
X111218305Y-47789220D01*
X111093089Y-47948057D01*
X111087692Y-47958315D01*
X111008441Y-48108946D01*
X110998914Y-48127053D01*
X110995475Y-48138129D01*
X110995474Y-48138131D01*
X110953191Y-48274306D01*
X110938937Y-48320213D01*
X110915164Y-48521069D01*
X110922744Y-48636714D01*
X110926513Y-48694218D01*
X110928392Y-48722894D01*
X110978178Y-48918928D01*
X110983032Y-48929457D01*
X110983033Y-48929460D01*
X111058000Y-49092075D01*
X111058003Y-49092080D01*
X111062856Y-49102607D01*
X111179588Y-49267780D01*
X111324466Y-49408913D01*
X111334107Y-49415355D01*
X111334112Y-49415359D01*
X111391084Y-49453426D01*
X111492637Y-49521282D01*
X111678470Y-49601122D01*
X111689779Y-49603681D01*
X111864430Y-49643201D01*
X111864432Y-49643201D01*
X111875740Y-49645760D01*
X111990371Y-49650264D01*
X112066255Y-49653245D01*
X112066257Y-49653245D01*
X112077842Y-49653700D01*
X112217366Y-49633470D01*
X112266531Y-49626342D01*
X112266532Y-49626342D01*
X112278007Y-49624678D01*
X112469531Y-49559664D01*
X112646001Y-49460837D01*
X112708433Y-49408913D01*
X112792593Y-49338917D01*
X112801505Y-49331505D01*
X112930837Y-49176001D01*
X113029664Y-48999531D01*
X113094678Y-48808007D01*
X113100528Y-48767659D01*
X113122631Y-48615218D01*
X113122632Y-48615210D01*
X113123700Y-48607842D01*
X113124621Y-48572674D01*
X113125020Y-48557458D01*
X113125020Y-48557452D01*
X113125215Y-48550000D01*
X113106708Y-48348591D01*
X113085403Y-48273047D01*
X113054957Y-48165095D01*
X113051807Y-48153926D01*
X112962351Y-47972527D01*
X112951739Y-47958315D01*
X112875026Y-47855585D01*
X112841335Y-47810467D01*
X112741763Y-47718424D01*
X112683740Y-47638563D01*
X112660695Y-47542574D01*
X112660500Y-47532641D01*
X112660500Y-47057662D01*
X112660722Y-47047067D01*
X112662488Y-47004939D01*
X112662488Y-47004937D01*
X112663210Y-46987706D01*
X112654641Y-46951172D01*
X112650298Y-46927740D01*
X112647547Y-46907658D01*
X112645206Y-46890568D01*
X112638354Y-46874735D01*
X112635931Y-46866056D01*
X112632706Y-46857654D01*
X112628768Y-46840864D01*
X112610689Y-46807979D01*
X112600204Y-46786574D01*
X112592156Y-46767976D01*
X112592155Y-46767974D01*
X112585305Y-46752145D01*
X112574451Y-46738741D01*
X112568672Y-46729198D01*
X112562493Y-46720309D01*
X112556107Y-46708692D01*
X112549103Y-46700578D01*
X112529269Y-46680744D01*
X112511557Y-46661073D01*
X112490386Y-46634930D01*
X112476331Y-46624942D01*
X112465723Y-46614980D01*
X112451408Y-46602883D01*
X112016666Y-46168141D01*
X111961822Y-46086062D01*
X111942564Y-45989243D01*
X111961822Y-45892424D01*
X112016666Y-45810345D01*
X112098745Y-45755501D01*
X112150112Y-45740359D01*
X112159674Y-45738613D01*
X112172569Y-45737598D01*
X112330398Y-45691744D01*
X112471865Y-45608081D01*
X112588081Y-45491865D01*
X112624111Y-45430942D01*
X112663642Y-45364098D01*
X112663642Y-45364097D01*
X112671744Y-45350398D01*
X112717598Y-45192569D01*
X112720500Y-45155694D01*
X112720500Y-44374306D01*
X112717598Y-44337431D01*
X112671744Y-44179602D01*
X112588081Y-44038135D01*
X112471865Y-43921919D01*
X112474182Y-43919602D01*
X112427110Y-43865361D01*
X112395864Y-43771720D01*
X112402832Y-43673251D01*
X112446952Y-43584943D01*
X112472840Y-43559056D01*
X112471865Y-43558081D01*
X112588081Y-43441865D01*
X112671744Y-43300398D01*
X112697261Y-43212569D01*
X112713992Y-43154982D01*
X112713993Y-43154979D01*
X112717598Y-43142569D01*
X112720500Y-43105694D01*
X112720500Y-42324306D01*
X112717598Y-42287431D01*
X112671744Y-42129602D01*
X112588081Y-41988135D01*
X112583272Y-41983326D01*
X112541766Y-41900261D01*
X112534794Y-41801792D01*
X112566035Y-41708150D01*
X112630732Y-41633592D01*
X112719038Y-41589467D01*
X112785799Y-41580500D01*
X116746500Y-41580500D01*
X116843319Y-41599758D01*
X116925398Y-41654602D01*
X116980242Y-41736681D01*
X116999500Y-41833500D01*
X116999500Y-70316500D01*
X116980242Y-70413319D01*
X116925398Y-70495398D01*
X116843319Y-70550242D01*
X116746500Y-70569500D01*
X91353000Y-70569500D01*
X91256181Y-70550242D01*
X91174102Y-70495398D01*
X91119258Y-70413319D01*
X91100000Y-70316500D01*
X91100000Y-65324943D01*
X113707890Y-65324943D01*
X113708196Y-65327694D01*
X113737418Y-65457359D01*
X113743608Y-65477110D01*
X113819808Y-65664772D01*
X113829138Y-65683241D01*
X113934965Y-65855936D01*
X113947190Y-65872639D01*
X114079802Y-66025730D01*
X114094594Y-66040215D01*
X114250424Y-66169588D01*
X114267378Y-66181459D01*
X114442258Y-66283651D01*
X114460912Y-66292588D01*
X114650135Y-66364845D01*
X114670003Y-66370617D01*
X114761580Y-66389249D01*
X114782774Y-66389341D01*
X114785982Y-66381690D01*
X114786000Y-66381512D01*
X114786000Y-66371714D01*
X115294000Y-66371714D01*
X115298134Y-66392498D01*
X115309157Y-66394690D01*
X115313015Y-66394196D01*
X115333255Y-66389894D01*
X115527253Y-66331691D01*
X115546525Y-66324139D01*
X115728413Y-66235033D01*
X115746190Y-66224436D01*
X115911079Y-66106822D01*
X115926896Y-66093456D01*
X116070361Y-65950490D01*
X116083769Y-65934735D01*
X116201963Y-65770250D01*
X116212622Y-65752511D01*
X116302363Y-65570935D01*
X116309982Y-65551692D01*
X116368861Y-65357901D01*
X116373079Y-65338392D01*
X116371713Y-65317559D01*
X116361228Y-65314000D01*
X115318918Y-65314000D01*
X115298134Y-65318134D01*
X115294000Y-65338918D01*
X115294000Y-66371714D01*
X114786000Y-66371714D01*
X114786000Y-65338918D01*
X114781866Y-65318134D01*
X114761082Y-65314000D01*
X113730028Y-65314000D01*
X113709244Y-65318134D01*
X113707890Y-65324943D01*
X91100000Y-65324943D01*
X91100000Y-64792092D01*
X113704969Y-64792092D01*
X113705889Y-64802329D01*
X113717633Y-64806000D01*
X114761082Y-64806000D01*
X114781866Y-64801866D01*
X114786000Y-64781082D01*
X115294000Y-64781082D01*
X115298134Y-64801866D01*
X115318918Y-64806000D01*
X116351541Y-64806000D01*
X116372325Y-64801866D01*
X116373370Y-64796611D01*
X116372662Y-64790882D01*
X116332485Y-64630936D01*
X116325813Y-64611338D01*
X116245053Y-64425601D01*
X116235272Y-64407359D01*
X116125259Y-64237304D01*
X116112624Y-64220898D01*
X115976322Y-64071105D01*
X115961177Y-64056981D01*
X115875734Y-63989502D01*
X115811689Y-63914382D01*
X115781266Y-63820471D01*
X115789097Y-63722066D01*
X115833989Y-63634149D01*
X115885621Y-63584981D01*
X115911080Y-63566822D01*
X115926896Y-63553456D01*
X116070361Y-63410490D01*
X116083769Y-63394735D01*
X116201963Y-63230250D01*
X116212622Y-63212511D01*
X116302363Y-63030935D01*
X116309982Y-63011692D01*
X116368861Y-62817901D01*
X116373079Y-62798392D01*
X116371713Y-62777559D01*
X116361228Y-62774000D01*
X115318918Y-62774000D01*
X115298134Y-62778134D01*
X115294000Y-62798918D01*
X115294000Y-64781082D01*
X114786000Y-64781082D01*
X114786000Y-62798918D01*
X114781866Y-62778134D01*
X114761082Y-62774000D01*
X113730028Y-62774000D01*
X113709244Y-62778134D01*
X113707890Y-62784943D01*
X113708196Y-62787694D01*
X113737418Y-62917359D01*
X113743608Y-62937110D01*
X113819808Y-63124772D01*
X113829138Y-63143241D01*
X113934965Y-63315936D01*
X113947190Y-63332639D01*
X114079802Y-63485730D01*
X114094587Y-63500208D01*
X114209495Y-63595606D01*
X114271686Y-63672269D01*
X114299805Y-63766895D01*
X114289573Y-63865078D01*
X114242546Y-63951873D01*
X114199793Y-63992585D01*
X114143608Y-64034770D01*
X114128122Y-64048519D01*
X113988192Y-64194948D01*
X113975168Y-64211031D01*
X113861030Y-64378351D01*
X113850807Y-64396347D01*
X113765532Y-64580057D01*
X113758383Y-64599487D01*
X113704969Y-64792092D01*
X91100000Y-64792092D01*
X91100000Y-62252092D01*
X113704969Y-62252092D01*
X113705889Y-62262329D01*
X113717633Y-62266000D01*
X114761082Y-62266000D01*
X114781866Y-62261866D01*
X114786000Y-62241082D01*
X115294000Y-62241082D01*
X115298134Y-62261866D01*
X115318918Y-62266000D01*
X116351541Y-62266000D01*
X116372325Y-62261866D01*
X116373370Y-62256611D01*
X116372662Y-62250882D01*
X116332485Y-62090936D01*
X116325813Y-62071337D01*
X116245053Y-61885601D01*
X116235272Y-61867359D01*
X116125259Y-61697304D01*
X116112624Y-61680898D01*
X115976322Y-61531105D01*
X115961177Y-61516981D01*
X115875734Y-61449502D01*
X115811689Y-61374382D01*
X115781266Y-61280471D01*
X115789097Y-61182066D01*
X115833989Y-61094149D01*
X115885621Y-61044981D01*
X115911080Y-61026822D01*
X115926896Y-61013456D01*
X116070361Y-60870490D01*
X116083769Y-60854735D01*
X116201963Y-60690250D01*
X116212622Y-60672511D01*
X116302363Y-60490935D01*
X116309982Y-60471692D01*
X116368861Y-60277901D01*
X116373079Y-60258392D01*
X116371713Y-60237559D01*
X116361228Y-60234000D01*
X115318918Y-60234000D01*
X115298134Y-60238134D01*
X115294000Y-60258918D01*
X115294000Y-62241082D01*
X114786000Y-62241082D01*
X114786000Y-60258918D01*
X114781866Y-60238134D01*
X114761082Y-60234000D01*
X113730028Y-60234000D01*
X113709244Y-60238134D01*
X113707890Y-60244943D01*
X113708196Y-60247694D01*
X113737418Y-60377359D01*
X113743608Y-60397110D01*
X113819808Y-60584772D01*
X113829138Y-60603241D01*
X113934965Y-60775936D01*
X113947190Y-60792639D01*
X114079802Y-60945730D01*
X114094587Y-60960208D01*
X114209495Y-61055606D01*
X114271686Y-61132269D01*
X114299805Y-61226895D01*
X114289573Y-61325078D01*
X114242546Y-61411873D01*
X114199793Y-61452585D01*
X114143608Y-61494770D01*
X114128122Y-61508519D01*
X113988192Y-61654948D01*
X113975168Y-61671031D01*
X113861030Y-61838351D01*
X113850807Y-61856347D01*
X113765532Y-62040057D01*
X113758383Y-62059487D01*
X113704969Y-62252092D01*
X91100000Y-62252092D01*
X91100000Y-60956321D01*
X93667001Y-60956321D01*
X93667676Y-60969369D01*
X93676539Y-61054791D01*
X93682350Y-61081698D01*
X93729253Y-61222286D01*
X93741641Y-61248732D01*
X93819184Y-61374038D01*
X93837318Y-61396918D01*
X93941607Y-61501026D01*
X93964522Y-61519123D01*
X94089964Y-61596446D01*
X94116423Y-61608784D01*
X94257124Y-61655453D01*
X94283991Y-61661213D01*
X94368207Y-61669841D01*
X94381096Y-61670500D01*
X94621082Y-61670500D01*
X94641866Y-61666366D01*
X94646000Y-61645582D01*
X94646000Y-60853918D01*
X94641866Y-60833134D01*
X94621082Y-60829000D01*
X93691919Y-60829000D01*
X93671135Y-60833134D01*
X93667001Y-60853918D01*
X93667001Y-60956321D01*
X91100000Y-60956321D01*
X91100000Y-59166000D01*
X91119258Y-59069181D01*
X91174102Y-58987102D01*
X91256181Y-58932258D01*
X91353000Y-58913000D01*
X91796082Y-58913000D01*
X91816866Y-58908866D01*
X91821000Y-58888082D01*
X91821000Y-58104000D01*
X91840258Y-58007181D01*
X91895102Y-57925102D01*
X91977181Y-57870258D01*
X92074000Y-57851000D01*
X92076000Y-57851000D01*
X92172819Y-57870258D01*
X92254898Y-57925102D01*
X92309742Y-58007181D01*
X92329000Y-58104000D01*
X92329000Y-58888081D01*
X92333134Y-58908865D01*
X92353918Y-58912999D01*
X92961498Y-58912999D01*
X92971396Y-58912610D01*
X92990862Y-58911079D01*
X93016169Y-58906457D01*
X93148116Y-58868122D01*
X93177101Y-58855579D01*
X93292795Y-58787159D01*
X93317754Y-58767799D01*
X93343307Y-58742246D01*
X93425386Y-58687402D01*
X93522205Y-58668144D01*
X93619024Y-58687402D01*
X93701103Y-58742246D01*
X93755947Y-58824325D01*
X93773280Y-58903290D01*
X93774500Y-58903194D01*
X93777402Y-58940069D01*
X93781007Y-58952479D01*
X93781008Y-58952482D01*
X93809485Y-59050500D01*
X93823256Y-59097898D01*
X93831358Y-59111597D01*
X93831358Y-59111598D01*
X93863531Y-59166000D01*
X93906919Y-59239365D01*
X93950071Y-59282517D01*
X94004915Y-59364596D01*
X94024173Y-59461415D01*
X94004915Y-59558234D01*
X93950226Y-59640158D01*
X93836474Y-59754107D01*
X93818377Y-59777022D01*
X93741054Y-59902464D01*
X93728716Y-59928923D01*
X93682047Y-60069624D01*
X93676287Y-60096491D01*
X93667659Y-60180707D01*
X93667000Y-60193596D01*
X93667000Y-60296082D01*
X93671134Y-60316866D01*
X93691918Y-60321000D01*
X94901000Y-60321000D01*
X94997819Y-60340258D01*
X95079898Y-60395102D01*
X95134742Y-60477181D01*
X95154000Y-60574000D01*
X95154000Y-61645581D01*
X95158134Y-61666365D01*
X95178918Y-61670499D01*
X95418821Y-61670499D01*
X95431869Y-61669824D01*
X95517291Y-61660961D01*
X95544198Y-61655150D01*
X95684786Y-61608247D01*
X95711232Y-61595859D01*
X95836538Y-61518316D01*
X95859418Y-61500182D01*
X95925980Y-61433504D01*
X96008012Y-61378589D01*
X96104814Y-61359246D01*
X96201650Y-61378420D01*
X96247689Y-61405135D01*
X96248135Y-61405581D01*
X96261837Y-61413685D01*
X96261838Y-61413685D01*
X96322402Y-61449502D01*
X96389602Y-61489244D01*
X96417156Y-61497249D01*
X96535018Y-61531492D01*
X96535021Y-61531493D01*
X96547431Y-61535098D01*
X96565769Y-61536541D01*
X96579347Y-61537610D01*
X96579354Y-61537610D01*
X96584306Y-61538000D01*
X96681447Y-61538000D01*
X96755071Y-61549662D01*
X96758470Y-61551122D01*
X96769776Y-61553680D01*
X96769775Y-61553680D01*
X96944430Y-61593201D01*
X96944432Y-61593201D01*
X96955740Y-61595760D01*
X97070371Y-61600264D01*
X97146255Y-61603245D01*
X97146257Y-61603245D01*
X97157842Y-61603700D01*
X97297366Y-61583470D01*
X97346531Y-61576342D01*
X97346532Y-61576342D01*
X97358007Y-61574678D01*
X97376084Y-61568542D01*
X97426503Y-61551427D01*
X97507827Y-61538000D01*
X97615694Y-61538000D01*
X97620646Y-61537610D01*
X97620653Y-61537610D01*
X97634231Y-61536541D01*
X97652569Y-61535098D01*
X97664979Y-61531493D01*
X97664982Y-61531492D01*
X97782844Y-61497249D01*
X97810398Y-61489244D01*
X97951865Y-61405581D01*
X98038625Y-61318821D01*
X102867001Y-61318821D01*
X102867676Y-61331869D01*
X102876539Y-61417291D01*
X102882350Y-61444198D01*
X102929253Y-61584786D01*
X102941641Y-61611232D01*
X103019184Y-61736538D01*
X103037318Y-61759418D01*
X103141607Y-61863526D01*
X103164522Y-61881623D01*
X103289964Y-61958946D01*
X103316423Y-61971284D01*
X103457124Y-62017953D01*
X103483991Y-62023713D01*
X103568207Y-62032341D01*
X103581096Y-62033000D01*
X103683582Y-62033000D01*
X103704366Y-62028866D01*
X103708500Y-62008082D01*
X103708500Y-61078918D01*
X103704366Y-61058134D01*
X103683582Y-61054000D01*
X102891919Y-61054000D01*
X102871135Y-61058134D01*
X102867001Y-61078918D01*
X102867001Y-61318821D01*
X98038625Y-61318821D01*
X98068081Y-61289365D01*
X98151744Y-61147898D01*
X98178558Y-61055606D01*
X98193992Y-61002482D01*
X98193993Y-61002479D01*
X98197598Y-60990069D01*
X98200500Y-60953194D01*
X98200500Y-60598160D01*
X98202338Y-60572678D01*
X98201997Y-60572649D01*
X98202631Y-60565216D01*
X98203700Y-60557842D01*
X98204663Y-60521082D01*
X102867000Y-60521082D01*
X102871134Y-60541866D01*
X102891918Y-60546000D01*
X103683582Y-60546000D01*
X103704366Y-60541866D01*
X103708500Y-60521082D01*
X103708500Y-59591919D01*
X103704366Y-59571135D01*
X103683582Y-59567001D01*
X103581179Y-59567001D01*
X103568131Y-59567676D01*
X103482709Y-59576539D01*
X103455802Y-59582350D01*
X103315214Y-59629253D01*
X103288768Y-59641641D01*
X103163462Y-59719184D01*
X103140582Y-59737318D01*
X103036474Y-59841607D01*
X103018377Y-59864522D01*
X102941054Y-59989964D01*
X102928716Y-60016423D01*
X102882047Y-60157124D01*
X102876287Y-60183991D01*
X102867659Y-60268207D01*
X102867000Y-60281096D01*
X102867000Y-60521082D01*
X98204663Y-60521082D01*
X98205215Y-60500000D01*
X98201561Y-60460234D01*
X98200500Y-60437084D01*
X98200500Y-60121806D01*
X98197598Y-60084931D01*
X98177695Y-60016423D01*
X98156185Y-59942388D01*
X98151744Y-59927102D01*
X98114735Y-59864522D01*
X98076182Y-59799333D01*
X98068081Y-59785635D01*
X97998844Y-59716398D01*
X97944000Y-59634319D01*
X97924742Y-59537500D01*
X97944000Y-59440681D01*
X97998844Y-59358602D01*
X98068081Y-59289365D01*
X98151744Y-59147898D01*
X98162290Y-59111598D01*
X98193992Y-59002482D01*
X98193993Y-59002479D01*
X98197598Y-58990069D01*
X98199488Y-58966054D01*
X99248560Y-58966054D01*
X99250005Y-58976202D01*
X99286878Y-59103116D01*
X99299421Y-59132101D01*
X99367841Y-59247795D01*
X99387201Y-59272754D01*
X99482246Y-59367799D01*
X99507205Y-59387159D01*
X99622899Y-59455579D01*
X99651884Y-59468122D01*
X99783830Y-59506457D01*
X99809141Y-59511080D01*
X99828584Y-59512610D01*
X99838515Y-59513000D01*
X100446082Y-59513000D01*
X100466866Y-59508866D01*
X100471000Y-59488082D01*
X100471000Y-59488081D01*
X100979000Y-59488081D01*
X100983134Y-59508865D01*
X101003918Y-59512999D01*
X101611498Y-59512999D01*
X101621396Y-59512610D01*
X101640862Y-59511079D01*
X101666169Y-59506457D01*
X101798116Y-59468122D01*
X101827101Y-59455579D01*
X101942795Y-59387159D01*
X101967754Y-59367799D01*
X102062799Y-59272754D01*
X102082159Y-59247795D01*
X102150579Y-59132101D01*
X102163122Y-59103116D01*
X102198041Y-58982927D01*
X102199870Y-58961816D01*
X102197229Y-58960445D01*
X102187079Y-58959000D01*
X101003918Y-58959000D01*
X100983134Y-58963134D01*
X100979000Y-58983918D01*
X100979000Y-59488081D01*
X100471000Y-59488081D01*
X100471000Y-58983918D01*
X100466866Y-58963134D01*
X100446082Y-58959000D01*
X99269925Y-58959000D01*
X99249141Y-58963134D01*
X99248560Y-58966054D01*
X98199488Y-58966054D01*
X98199718Y-58963134D01*
X98200110Y-58958153D01*
X98200110Y-58958146D01*
X98200500Y-58953194D01*
X98200500Y-58121806D01*
X98197598Y-58084931D01*
X98193937Y-58072328D01*
X98156185Y-57942388D01*
X98151744Y-57927102D01*
X98143643Y-57913403D01*
X98143054Y-57912043D01*
X98122278Y-57815538D01*
X98140015Y-57718429D01*
X98193563Y-57635499D01*
X98274771Y-57579374D01*
X98371276Y-57558598D01*
X98468385Y-57576335D01*
X98554145Y-57632669D01*
X98733232Y-57811756D01*
X98740567Y-57819404D01*
X98768505Y-57849786D01*
X98780799Y-57863156D01*
X98795452Y-57872241D01*
X98795459Y-57872247D01*
X98812693Y-57882932D01*
X98832337Y-57896432D01*
X98862216Y-57919112D01*
X98878256Y-57925463D01*
X98886104Y-57929885D01*
X98894326Y-57933546D01*
X98908986Y-57942635D01*
X98925546Y-57947446D01*
X98925550Y-57947448D01*
X98945022Y-57953105D01*
X98967572Y-57960825D01*
X98986415Y-57968286D01*
X98986420Y-57968287D01*
X99002453Y-57974635D01*
X99019608Y-57976438D01*
X99030448Y-57979100D01*
X99041091Y-57981015D01*
X99053825Y-57984715D01*
X99064515Y-57985500D01*
X99066015Y-57985500D01*
X99080103Y-57988035D01*
X99079714Y-57990199D01*
X99157214Y-58011620D01*
X99235055Y-58072328D01*
X99283739Y-58158204D01*
X99295853Y-58256174D01*
X99286487Y-58308227D01*
X99251959Y-58427073D01*
X99250130Y-58448184D01*
X99252771Y-58449555D01*
X99262921Y-58451000D01*
X102180075Y-58451000D01*
X102200859Y-58446866D01*
X102201440Y-58443946D01*
X102199995Y-58433798D01*
X102163122Y-58306884D01*
X102150579Y-58277899D01*
X102082159Y-58162205D01*
X102056440Y-58129048D01*
X102012317Y-58040743D01*
X102005345Y-57942273D01*
X102032651Y-57859709D01*
X102034113Y-57857783D01*
X102089636Y-57717547D01*
X102097499Y-57652569D01*
X102099585Y-57635336D01*
X102099585Y-57635330D01*
X102100500Y-57627772D01*
X102100500Y-57242228D01*
X102089636Y-57152453D01*
X102034113Y-57012217D01*
X102023687Y-56998481D01*
X102023685Y-56998478D01*
X101989138Y-56952965D01*
X101945941Y-56864202D01*
X101940000Y-56765665D01*
X101972219Y-56672356D01*
X101989138Y-56647035D01*
X102023685Y-56601522D01*
X102023687Y-56601519D01*
X102034113Y-56587783D01*
X102089636Y-56447547D01*
X102096170Y-56393550D01*
X102099585Y-56365336D01*
X102099585Y-56365330D01*
X102100500Y-56357772D01*
X102100500Y-55972228D01*
X102089636Y-55882453D01*
X102034113Y-55742217D01*
X102023687Y-55728481D01*
X102023685Y-55728478D01*
X101989138Y-55682965D01*
X101945941Y-55594202D01*
X101940000Y-55495665D01*
X101972219Y-55402356D01*
X101989138Y-55377035D01*
X102023685Y-55331522D01*
X102023687Y-55331519D01*
X102034113Y-55317783D01*
X102089636Y-55177547D01*
X102100500Y-55087772D01*
X102100500Y-54702228D01*
X102099400Y-54693133D01*
X102091587Y-54628579D01*
X102089636Y-54612453D01*
X102064715Y-54549509D01*
X102046979Y-54452400D01*
X102067756Y-54355896D01*
X102121050Y-54277475D01*
X102323923Y-54074602D01*
X102406002Y-54019758D01*
X102502821Y-54000500D01*
X102715694Y-54000500D01*
X102720646Y-54000110D01*
X102720653Y-54000110D01*
X102734231Y-53999041D01*
X102752569Y-53997598D01*
X102764979Y-53993993D01*
X102764982Y-53993992D01*
X102895112Y-53956185D01*
X102910398Y-53951744D01*
X103051865Y-53868081D01*
X103168081Y-53751865D01*
X103184668Y-53723818D01*
X103243642Y-53624098D01*
X103243642Y-53624097D01*
X103251744Y-53610398D01*
X103280371Y-53511865D01*
X103293992Y-53464982D01*
X103293993Y-53464979D01*
X103297598Y-53452569D01*
X103300500Y-53415694D01*
X103300500Y-53410721D01*
X103300579Y-53408709D01*
X103313811Y-53337314D01*
X103370950Y-53168989D01*
X103374678Y-53158007D01*
X103376342Y-53146531D01*
X103402631Y-52965218D01*
X103402632Y-52965210D01*
X103403700Y-52957842D01*
X103405215Y-52900000D01*
X103386708Y-52698591D01*
X103352692Y-52577977D01*
X103334957Y-52515095D01*
X103331807Y-52503926D01*
X103326471Y-52493105D01*
X103326383Y-52492758D01*
X103322519Y-52482692D01*
X103323710Y-52482235D01*
X103300573Y-52391136D01*
X103300500Y-52389277D01*
X103300500Y-52384306D01*
X103297598Y-52347431D01*
X103286729Y-52310018D01*
X103256185Y-52204888D01*
X103251744Y-52189602D01*
X103184122Y-52075258D01*
X103176185Y-52061838D01*
X103176185Y-52061837D01*
X103168081Y-52048135D01*
X103156824Y-52036878D01*
X103152104Y-52030793D01*
X103107981Y-51942487D01*
X103101009Y-51844018D01*
X103132250Y-51750377D01*
X103173116Y-51696830D01*
X103193081Y-51676865D01*
X103247536Y-51584786D01*
X103268642Y-51549098D01*
X103268642Y-51549097D01*
X103276744Y-51535398D01*
X103311661Y-51415214D01*
X103318992Y-51389982D01*
X103318993Y-51389979D01*
X103322598Y-51377569D01*
X103325500Y-51340694D01*
X103325500Y-50259306D01*
X103325083Y-50254000D01*
X103323612Y-50235317D01*
X103322598Y-50222431D01*
X103317702Y-50205577D01*
X103281185Y-50079888D01*
X103276744Y-50064602D01*
X103193081Y-49923135D01*
X103076865Y-49806919D01*
X103063167Y-49798818D01*
X103050587Y-49789060D01*
X103052885Y-49786098D01*
X103001164Y-49739763D01*
X102958442Y-49650770D01*
X102950500Y-49587878D01*
X102950500Y-49473169D01*
X102969758Y-49376350D01*
X102985732Y-49344382D01*
X103003642Y-49314098D01*
X103003642Y-49314097D01*
X103011744Y-49300398D01*
X103019749Y-49272844D01*
X103053992Y-49154982D01*
X103053993Y-49154979D01*
X103057598Y-49142569D01*
X103060500Y-49105694D01*
X103060500Y-48274306D01*
X103060108Y-48269328D01*
X103060102Y-48269169D01*
X103075541Y-48171668D01*
X103127117Y-48087497D01*
X103206978Y-48029471D01*
X103302965Y-48006422D01*
X103400466Y-48021861D01*
X103484637Y-48073437D01*
X103491805Y-48080329D01*
X104028243Y-48616767D01*
X104035577Y-48624415D01*
X104046887Y-48636714D01*
X104075799Y-48668156D01*
X104090460Y-48677246D01*
X104107693Y-48687931D01*
X104127324Y-48701422D01*
X104157217Y-48724112D01*
X104173256Y-48730462D01*
X104181109Y-48734887D01*
X104189327Y-48738546D01*
X104203986Y-48747635D01*
X104240026Y-48758106D01*
X104262565Y-48765823D01*
X104281417Y-48773287D01*
X104281419Y-48773287D01*
X104297453Y-48779636D01*
X104314601Y-48781439D01*
X104325424Y-48784097D01*
X104336097Y-48786017D01*
X104348825Y-48789715D01*
X104359515Y-48790500D01*
X104387565Y-48790500D01*
X104414009Y-48791886D01*
X104447454Y-48795401D01*
X104464458Y-48792525D01*
X104479007Y-48792068D01*
X104497675Y-48790500D01*
X108007179Y-48790500D01*
X108103998Y-48809758D01*
X108186077Y-48864602D01*
X108525717Y-49204242D01*
X108580558Y-49286318D01*
X108599817Y-49383137D01*
X108580559Y-49479956D01*
X108525715Y-49562035D01*
X108443636Y-49616878D01*
X108346817Y-49636137D01*
X108267168Y-49623272D01*
X108142879Y-49582047D01*
X108116009Y-49576287D01*
X108031793Y-49567659D01*
X108018904Y-49567000D01*
X107916418Y-49567000D01*
X107895634Y-49571134D01*
X107891500Y-49591918D01*
X107891500Y-50521082D01*
X107895634Y-50541866D01*
X107916418Y-50546000D01*
X108708081Y-50546000D01*
X108728865Y-50541866D01*
X108732999Y-50521082D01*
X108732999Y-50281179D01*
X108732324Y-50268131D01*
X108723461Y-50182709D01*
X108717650Y-50155802D01*
X108676713Y-50033098D01*
X108664341Y-49935161D01*
X108690389Y-49839944D01*
X108750893Y-49761943D01*
X108836641Y-49713034D01*
X108934578Y-49700662D01*
X109029795Y-49726710D01*
X109095607Y-49774132D01*
X110874865Y-51553389D01*
X110929708Y-51635468D01*
X110948967Y-51732287D01*
X110929709Y-51829106D01*
X110874865Y-51911185D01*
X110857893Y-51926148D01*
X110848135Y-51931919D01*
X110778898Y-52001156D01*
X110696819Y-52056000D01*
X110600000Y-52075258D01*
X110503181Y-52056000D01*
X110421102Y-52001156D01*
X110351865Y-51931919D01*
X110246983Y-51869892D01*
X110224098Y-51856358D01*
X110224097Y-51856358D01*
X110210398Y-51848256D01*
X110144484Y-51829106D01*
X110064982Y-51806008D01*
X110064979Y-51806007D01*
X110052569Y-51802402D01*
X110034231Y-51800959D01*
X110020653Y-51799890D01*
X110020646Y-51799890D01*
X110015694Y-51799500D01*
X109184306Y-51799500D01*
X109179354Y-51799890D01*
X109179347Y-51799890D01*
X109165769Y-51800959D01*
X109147431Y-51802402D01*
X109135021Y-51806007D01*
X109135018Y-51806008D01*
X109002456Y-51844521D01*
X108904108Y-51853039D01*
X108809987Y-51823272D01*
X108734422Y-51759753D01*
X108688917Y-51672152D01*
X108680399Y-51573804D01*
X108691736Y-51521916D01*
X108717954Y-51442873D01*
X108723713Y-51416009D01*
X108732341Y-51331793D01*
X108733000Y-51318904D01*
X108733000Y-51078918D01*
X108728866Y-51058134D01*
X108708082Y-51054000D01*
X107916418Y-51054000D01*
X107895634Y-51058134D01*
X107891500Y-51078918D01*
X107891500Y-52901000D01*
X107872242Y-52997819D01*
X107817398Y-53079898D01*
X107735319Y-53134742D01*
X107638500Y-53154000D01*
X107636500Y-53154000D01*
X107539681Y-53134742D01*
X107457602Y-53079898D01*
X107402758Y-52997819D01*
X107383500Y-52901000D01*
X107383500Y-49591919D01*
X107379366Y-49571135D01*
X107358582Y-49567001D01*
X107256179Y-49567001D01*
X107243131Y-49567676D01*
X107157709Y-49576539D01*
X107130802Y-49582350D01*
X106990214Y-49629253D01*
X106963768Y-49641641D01*
X106838462Y-49719184D01*
X106815582Y-49737318D01*
X106703075Y-49850021D01*
X106621043Y-49904936D01*
X106524241Y-49924279D01*
X106427405Y-49905105D01*
X106345123Y-49850177D01*
X106301865Y-49806919D01*
X106271667Y-49789060D01*
X106174098Y-49731358D01*
X106174097Y-49731358D01*
X106160398Y-49723256D01*
X106082630Y-49700662D01*
X106014982Y-49681008D01*
X106014979Y-49681007D01*
X106002569Y-49677402D01*
X105984231Y-49675959D01*
X105970653Y-49674890D01*
X105970646Y-49674890D01*
X105965694Y-49674500D01*
X105159306Y-49674500D01*
X105154354Y-49674890D01*
X105154347Y-49674890D01*
X105140769Y-49675959D01*
X105122431Y-49677402D01*
X105110021Y-49681007D01*
X105110018Y-49681008D01*
X105042370Y-49700662D01*
X104964602Y-49723256D01*
X104950903Y-49731358D01*
X104950902Y-49731358D01*
X104853333Y-49789060D01*
X104823135Y-49806919D01*
X104706919Y-49923135D01*
X104623256Y-50064602D01*
X104618815Y-50079888D01*
X104582299Y-50205577D01*
X104577402Y-50222431D01*
X104576388Y-50235317D01*
X104574918Y-50254000D01*
X104574500Y-50259306D01*
X104574500Y-50261532D01*
X104551582Y-50356982D01*
X104547174Y-50365921D01*
X104546816Y-50366786D01*
X104541414Y-50377053D01*
X104537975Y-50388129D01*
X104537974Y-50388131D01*
X104490603Y-50540694D01*
X104481437Y-50570213D01*
X104480074Y-50581730D01*
X104469902Y-50667675D01*
X104457664Y-50771069D01*
X104459259Y-50795398D01*
X104468467Y-50935888D01*
X104470892Y-50972894D01*
X104520678Y-51168928D01*
X104525534Y-51179462D01*
X104525535Y-51179464D01*
X104551281Y-51235312D01*
X104574326Y-51331296D01*
X104574500Y-51335722D01*
X104574500Y-51340694D01*
X104577402Y-51377569D01*
X104581007Y-51389979D01*
X104581008Y-51389982D01*
X104588339Y-51415214D01*
X104623256Y-51535398D01*
X104631358Y-51549097D01*
X104631358Y-51549098D01*
X104698815Y-51663163D01*
X104698818Y-51663167D01*
X104706919Y-51676865D01*
X104718175Y-51688121D01*
X104723460Y-51694934D01*
X104767584Y-51783240D01*
X104774556Y-51881709D01*
X104743315Y-51975351D01*
X104723460Y-52005066D01*
X104718175Y-52011879D01*
X104706919Y-52023135D01*
X104698818Y-52036833D01*
X104698815Y-52036837D01*
X104664392Y-52095044D01*
X104623256Y-52164602D01*
X104618815Y-52179888D01*
X104584553Y-52297819D01*
X104577402Y-52322431D01*
X104576388Y-52335317D01*
X104575312Y-52348993D01*
X104574500Y-52359306D01*
X104574500Y-53440694D01*
X104574890Y-53445646D01*
X104574890Y-53445653D01*
X104575959Y-53459231D01*
X104577402Y-53477569D01*
X104581007Y-53489979D01*
X104581008Y-53489982D01*
X104607530Y-53581269D01*
X104623256Y-53635398D01*
X104706919Y-53776865D01*
X104744524Y-53814470D01*
X104799368Y-53896549D01*
X104818626Y-53993368D01*
X104799368Y-54090187D01*
X104744524Y-54172266D01*
X104658760Y-54228602D01*
X104595875Y-54253500D01*
X104577217Y-54260887D01*
X104563483Y-54271312D01*
X104563479Y-54271314D01*
X104516401Y-54307049D01*
X104457078Y-54352078D01*
X104446651Y-54365815D01*
X104376314Y-54458479D01*
X104376312Y-54458483D01*
X104365887Y-54472217D01*
X104310364Y-54612453D01*
X104308413Y-54628579D01*
X104300601Y-54693133D01*
X104299500Y-54702228D01*
X104299500Y-55087772D01*
X104310364Y-55177547D01*
X104365887Y-55317783D01*
X104376313Y-55331519D01*
X104376315Y-55331522D01*
X104410862Y-55377035D01*
X104454059Y-55465798D01*
X104460000Y-55564335D01*
X104427781Y-55657644D01*
X104410862Y-55682965D01*
X104376315Y-55728478D01*
X104376313Y-55728481D01*
X104365887Y-55742217D01*
X104310364Y-55882453D01*
X104299500Y-55972228D01*
X104299500Y-56357772D01*
X104300415Y-56365330D01*
X104300415Y-56365336D01*
X104303830Y-56393550D01*
X104310364Y-56447547D01*
X104365887Y-56587783D01*
X104376313Y-56601519D01*
X104376315Y-56601522D01*
X104410862Y-56647035D01*
X104454059Y-56735798D01*
X104460000Y-56834335D01*
X104427781Y-56927644D01*
X104410862Y-56952965D01*
X104376315Y-56998478D01*
X104376313Y-56998481D01*
X104365887Y-57012217D01*
X104310364Y-57152453D01*
X104299500Y-57242228D01*
X104299500Y-57627772D01*
X104300415Y-57635330D01*
X104300415Y-57635336D01*
X104302501Y-57652569D01*
X104310364Y-57717547D01*
X104365887Y-57857783D01*
X104376313Y-57871519D01*
X104376315Y-57871522D01*
X104410862Y-57917035D01*
X104454059Y-58005798D01*
X104460000Y-58104335D01*
X104427781Y-58197644D01*
X104410862Y-58222965D01*
X104376315Y-58268478D01*
X104376313Y-58268481D01*
X104365887Y-58282217D01*
X104310364Y-58422453D01*
X104299500Y-58512228D01*
X104299500Y-58897772D01*
X104300415Y-58905330D01*
X104300415Y-58905336D01*
X104301343Y-58913000D01*
X104310364Y-58987547D01*
X104365887Y-59127783D01*
X104376317Y-59141524D01*
X104394656Y-59165686D01*
X104437852Y-59254449D01*
X104443792Y-59352986D01*
X104411571Y-59446295D01*
X104346095Y-59520171D01*
X104257332Y-59563367D01*
X104242489Y-59566787D01*
X104220634Y-59571134D01*
X104216500Y-59591918D01*
X104216500Y-62008081D01*
X104220634Y-62028865D01*
X104241418Y-62032999D01*
X104343821Y-62032999D01*
X104356869Y-62032324D01*
X104442291Y-62023461D01*
X104469198Y-62017650D01*
X104609786Y-61970747D01*
X104636232Y-61958359D01*
X104761538Y-61880816D01*
X104784418Y-61862682D01*
X104896925Y-61749979D01*
X104978957Y-61695064D01*
X105075759Y-61675721D01*
X105172595Y-61694895D01*
X105254877Y-61749823D01*
X105298135Y-61793081D01*
X105311833Y-61801182D01*
X105388158Y-61846320D01*
X105439602Y-61876744D01*
X105467156Y-61884749D01*
X105585018Y-61918992D01*
X105585021Y-61918993D01*
X105597431Y-61922598D01*
X105615769Y-61924041D01*
X105629347Y-61925110D01*
X105629354Y-61925110D01*
X105634306Y-61925500D01*
X106440694Y-61925500D01*
X106445646Y-61925110D01*
X106445653Y-61925110D01*
X106459231Y-61924041D01*
X106477569Y-61922598D01*
X106489979Y-61918993D01*
X106489982Y-61918992D01*
X106607844Y-61884749D01*
X106635398Y-61876744D01*
X106686843Y-61846320D01*
X106763162Y-61801185D01*
X106763163Y-61801185D01*
X106776865Y-61793081D01*
X106788121Y-61781825D01*
X106796667Y-61775196D01*
X106884973Y-61731073D01*
X106983442Y-61724101D01*
X107077084Y-61755343D01*
X107151642Y-61820041D01*
X107169500Y-61846320D01*
X107214611Y-61922598D01*
X107231919Y-61951865D01*
X107348135Y-62068081D01*
X107489602Y-62151744D01*
X107504888Y-62156185D01*
X107635018Y-62193992D01*
X107635021Y-62193993D01*
X107647431Y-62197598D01*
X107665769Y-62199041D01*
X107679347Y-62200110D01*
X107679354Y-62200110D01*
X107684306Y-62200500D01*
X108715694Y-62200500D01*
X108720646Y-62200110D01*
X108720653Y-62200110D01*
X108734231Y-62199041D01*
X108752569Y-62197598D01*
X108764979Y-62193993D01*
X108764982Y-62193992D01*
X108895112Y-62156185D01*
X108910398Y-62151744D01*
X109051865Y-62068081D01*
X109168081Y-61951865D01*
X109217299Y-61868642D01*
X109243642Y-61824098D01*
X109243642Y-61824097D01*
X109251744Y-61810398D01*
X109289368Y-61680898D01*
X109293992Y-61664982D01*
X109293993Y-61664979D01*
X109297598Y-61652569D01*
X109300500Y-61615694D01*
X109300500Y-60784306D01*
X109297598Y-60747431D01*
X109251744Y-60589602D01*
X109220769Y-60537225D01*
X109176182Y-60461833D01*
X109168081Y-60448135D01*
X109098844Y-60378898D01*
X109044000Y-60296819D01*
X109024742Y-60200000D01*
X109044000Y-60103181D01*
X109098844Y-60021102D01*
X109168081Y-59951865D01*
X109251744Y-59810398D01*
X109276264Y-59726000D01*
X109280305Y-59712092D01*
X113704969Y-59712092D01*
X113705889Y-59722329D01*
X113717633Y-59726000D01*
X114761082Y-59726000D01*
X114781866Y-59721866D01*
X114786000Y-59701082D01*
X115294000Y-59701082D01*
X115298134Y-59721866D01*
X115318918Y-59726000D01*
X116351541Y-59726000D01*
X116372325Y-59721866D01*
X116373370Y-59716611D01*
X116372662Y-59710882D01*
X116332485Y-59550936D01*
X116325813Y-59531338D01*
X116245053Y-59345601D01*
X116235272Y-59327359D01*
X116125259Y-59157304D01*
X116112624Y-59140898D01*
X115976322Y-58991105D01*
X115961177Y-58976981D01*
X115875734Y-58909502D01*
X115811689Y-58834382D01*
X115781266Y-58740471D01*
X115789097Y-58642066D01*
X115833989Y-58554149D01*
X115885621Y-58504981D01*
X115911080Y-58486822D01*
X115926896Y-58473456D01*
X116070361Y-58330490D01*
X116083769Y-58314735D01*
X116201963Y-58150250D01*
X116212622Y-58132511D01*
X116302363Y-57950935D01*
X116309982Y-57931692D01*
X116368861Y-57737901D01*
X116373079Y-57718392D01*
X116371713Y-57697559D01*
X116361228Y-57694000D01*
X115318918Y-57694000D01*
X115298134Y-57698134D01*
X115294000Y-57718918D01*
X115294000Y-59701082D01*
X114786000Y-59701082D01*
X114786000Y-57718918D01*
X114781866Y-57698134D01*
X114761082Y-57694000D01*
X113730028Y-57694000D01*
X113709244Y-57698134D01*
X113707890Y-57704943D01*
X113708196Y-57707694D01*
X113737418Y-57837359D01*
X113743608Y-57857110D01*
X113819808Y-58044772D01*
X113829138Y-58063241D01*
X113934965Y-58235936D01*
X113947190Y-58252639D01*
X114079802Y-58405730D01*
X114094587Y-58420208D01*
X114209495Y-58515606D01*
X114271686Y-58592269D01*
X114299805Y-58686895D01*
X114289573Y-58785078D01*
X114242546Y-58871873D01*
X114199793Y-58912585D01*
X114143608Y-58954770D01*
X114128122Y-58968519D01*
X113988192Y-59114948D01*
X113975168Y-59131031D01*
X113861030Y-59298351D01*
X113850807Y-59316347D01*
X113765532Y-59500057D01*
X113758383Y-59519487D01*
X113704969Y-59712092D01*
X109280305Y-59712092D01*
X109293992Y-59664982D01*
X109293993Y-59664979D01*
X109297598Y-59652569D01*
X109300500Y-59615694D01*
X109300500Y-58784306D01*
X109297598Y-58747431D01*
X109280011Y-58686895D01*
X109256185Y-58604888D01*
X109251744Y-58589602D01*
X109201700Y-58504981D01*
X109176182Y-58461833D01*
X109168081Y-58448135D01*
X109142594Y-58422648D01*
X109087750Y-58340569D01*
X109068492Y-58243750D01*
X109087750Y-58146931D01*
X109142594Y-58064852D01*
X109164852Y-58042594D01*
X109246931Y-57987750D01*
X109343750Y-57968492D01*
X109440569Y-57987750D01*
X109522648Y-58042594D01*
X109548135Y-58068081D01*
X109561833Y-58076182D01*
X109657081Y-58132511D01*
X109689602Y-58151744D01*
X109704888Y-58156185D01*
X109835018Y-58193992D01*
X109835021Y-58193993D01*
X109847431Y-58197598D01*
X109865769Y-58199041D01*
X109879347Y-58200110D01*
X109879354Y-58200110D01*
X109884306Y-58200500D01*
X110915694Y-58200500D01*
X110920646Y-58200110D01*
X110920653Y-58200110D01*
X110934231Y-58199041D01*
X110952569Y-58197598D01*
X110964979Y-58193993D01*
X110964982Y-58193992D01*
X111095112Y-58156185D01*
X111110398Y-58151744D01*
X111142920Y-58132511D01*
X111238167Y-58076182D01*
X111251865Y-58068081D01*
X111368081Y-57951865D01*
X111451744Y-57810398D01*
X111478464Y-57718429D01*
X111493992Y-57664982D01*
X111493993Y-57664979D01*
X111497598Y-57652569D01*
X111499164Y-57632669D01*
X111500110Y-57620653D01*
X111500110Y-57620646D01*
X111500500Y-57615694D01*
X111500500Y-56784306D01*
X111497598Y-56747431D01*
X111489109Y-56718210D01*
X111456185Y-56604888D01*
X111451744Y-56589602D01*
X111368081Y-56448135D01*
X111298844Y-56378898D01*
X111244000Y-56296819D01*
X111224742Y-56200000D01*
X111244000Y-56103181D01*
X111298844Y-56021102D01*
X111368081Y-55951865D01*
X111426083Y-55853788D01*
X111443642Y-55824098D01*
X111443642Y-55824097D01*
X111451744Y-55810398D01*
X111471553Y-55742217D01*
X111493992Y-55664982D01*
X111493993Y-55664979D01*
X111497598Y-55652569D01*
X111500500Y-55615694D01*
X111500500Y-55298160D01*
X111502338Y-55272678D01*
X111501997Y-55272649D01*
X111502631Y-55265216D01*
X111503700Y-55257842D01*
X111505215Y-55200000D01*
X111501561Y-55160234D01*
X111500500Y-55137084D01*
X111500500Y-54784306D01*
X111497598Y-54747431D01*
X111492932Y-54731368D01*
X111456185Y-54604888D01*
X111451744Y-54589602D01*
X111368081Y-54448135D01*
X111352344Y-54432398D01*
X111297500Y-54350319D01*
X111278242Y-54253500D01*
X111297500Y-54156681D01*
X111352344Y-54074602D01*
X111434423Y-54019758D01*
X111531242Y-54000500D01*
X111717179Y-54000500D01*
X111813998Y-54019758D01*
X111896077Y-54074602D01*
X113118243Y-55296767D01*
X113125577Y-55304415D01*
X113148488Y-55329330D01*
X113165799Y-55348156D01*
X113180460Y-55357246D01*
X113197693Y-55367931D01*
X113217324Y-55381422D01*
X113247217Y-55404112D01*
X113263256Y-55410462D01*
X113271109Y-55414887D01*
X113279327Y-55418546D01*
X113293986Y-55427635D01*
X113330026Y-55438106D01*
X113352565Y-55445823D01*
X113371417Y-55453287D01*
X113371419Y-55453287D01*
X113387453Y-55459636D01*
X113404601Y-55461439D01*
X113415424Y-55464097D01*
X113426097Y-55466017D01*
X113438825Y-55469715D01*
X113449515Y-55470500D01*
X113477565Y-55470500D01*
X113504009Y-55471886D01*
X113537454Y-55475401D01*
X113554458Y-55472525D01*
X113569007Y-55472068D01*
X113587675Y-55470500D01*
X113781186Y-55470500D01*
X113878005Y-55489758D01*
X113960084Y-55544602D01*
X113988432Y-55578386D01*
X114078402Y-55706877D01*
X114233123Y-55861598D01*
X114242169Y-55867932D01*
X114282261Y-55896005D01*
X114350523Y-55967314D01*
X114386301Y-56059318D01*
X114384146Y-56158010D01*
X114344388Y-56248366D01*
X114289050Y-56305569D01*
X114143608Y-56414770D01*
X114128122Y-56428519D01*
X113988192Y-56574948D01*
X113975168Y-56591031D01*
X113861030Y-56758351D01*
X113850807Y-56776347D01*
X113765532Y-56960057D01*
X113758383Y-56979487D01*
X113704969Y-57172092D01*
X113705889Y-57182329D01*
X113717633Y-57186000D01*
X116351541Y-57186000D01*
X116372325Y-57181866D01*
X116373370Y-57176611D01*
X116372662Y-57170882D01*
X116332485Y-57010936D01*
X116325813Y-56991338D01*
X116245053Y-56805601D01*
X116235272Y-56787359D01*
X116125259Y-56617304D01*
X116112624Y-56600898D01*
X115976322Y-56451105D01*
X115961177Y-56436981D01*
X115794081Y-56305017D01*
X115795136Y-56303681D01*
X115734407Y-56243264D01*
X115696395Y-56152161D01*
X115696141Y-56053445D01*
X115733682Y-55962147D01*
X115799288Y-55894921D01*
X115846877Y-55861598D01*
X116001598Y-55706877D01*
X116127102Y-55527638D01*
X116219575Y-55329330D01*
X116276207Y-55117977D01*
X116279517Y-55080150D01*
X116294314Y-54911007D01*
X116295277Y-54900000D01*
X116286249Y-54796806D01*
X116277170Y-54693026D01*
X116277169Y-54693022D01*
X116276207Y-54682023D01*
X116219575Y-54470670D01*
X116127102Y-54272362D01*
X116001598Y-54093123D01*
X115846877Y-53938402D01*
X115837830Y-53932067D01*
X115837829Y-53932066D01*
X115702410Y-53837245D01*
X115634147Y-53765937D01*
X115598369Y-53673933D01*
X115600522Y-53575241D01*
X115640280Y-53484885D01*
X115702410Y-53422755D01*
X115837829Y-53327934D01*
X115837833Y-53327931D01*
X115846877Y-53321598D01*
X116001598Y-53166877D01*
X116127102Y-52987638D01*
X116219575Y-52789330D01*
X116276207Y-52577977D01*
X116281709Y-52515095D01*
X116294314Y-52371007D01*
X116295277Y-52360000D01*
X116278748Y-52171069D01*
X116277170Y-52153026D01*
X116277169Y-52153022D01*
X116276207Y-52142023D01*
X116219575Y-51930670D01*
X116127102Y-51732362D01*
X116001598Y-51553123D01*
X115846877Y-51398402D01*
X115837833Y-51392069D01*
X115837829Y-51392066D01*
X115702410Y-51297245D01*
X115634147Y-51225937D01*
X115598369Y-51133933D01*
X115600522Y-51035241D01*
X115640280Y-50944885D01*
X115702410Y-50882755D01*
X115837829Y-50787934D01*
X115837833Y-50787931D01*
X115846877Y-50781598D01*
X116001598Y-50626877D01*
X116127102Y-50447638D01*
X116160017Y-50377053D01*
X116173339Y-50348484D01*
X116219575Y-50249330D01*
X116276207Y-50037977D01*
X116287832Y-49905105D01*
X116294314Y-49831007D01*
X116295277Y-49820000D01*
X116288257Y-49739763D01*
X116277170Y-49613026D01*
X116277169Y-49613022D01*
X116276207Y-49602023D01*
X116219575Y-49390670D01*
X116127102Y-49192362D01*
X116001598Y-49013123D01*
X115918945Y-48930470D01*
X115864101Y-48848391D01*
X115844843Y-48751572D01*
X115864101Y-48654753D01*
X115918945Y-48572674D01*
X116000872Y-48517932D01*
X116015304Y-48515646D01*
X116128342Y-48458050D01*
X116218050Y-48368342D01*
X116275646Y-48255304D01*
X116290500Y-48161519D01*
X116290499Y-46398482D01*
X116275646Y-46304696D01*
X116266606Y-46286954D01*
X116266605Y-46286951D01*
X116227091Y-46209402D01*
X116218050Y-46191658D01*
X116128342Y-46101950D01*
X116015304Y-46044354D01*
X115986627Y-46039812D01*
X115931338Y-46031055D01*
X115931336Y-46031055D01*
X115921519Y-46029500D01*
X115911578Y-46029500D01*
X115039646Y-46029501D01*
X114158482Y-46029501D01*
X114148679Y-46031054D01*
X114148673Y-46031054D01*
X114084364Y-46041239D01*
X114084363Y-46041239D01*
X114064696Y-46044354D01*
X114046954Y-46053394D01*
X114046951Y-46053395D01*
X113995518Y-46079602D01*
X113951658Y-46101950D01*
X113861950Y-46191658D01*
X113804354Y-46304696D01*
X113789500Y-46398481D01*
X113789501Y-48161518D01*
X113791054Y-48171321D01*
X113791054Y-48171327D01*
X113796396Y-48205057D01*
X113804354Y-48255304D01*
X113813394Y-48273046D01*
X113813395Y-48273049D01*
X113831594Y-48308765D01*
X113861950Y-48368342D01*
X113951658Y-48458050D01*
X114064696Y-48515646D01*
X114070301Y-48516534D01*
X114146469Y-48559191D01*
X114207583Y-48636714D01*
X114234377Y-48731724D01*
X114222774Y-48829755D01*
X114174538Y-48915884D01*
X114161055Y-48930470D01*
X114078402Y-49013123D01*
X113952898Y-49192362D01*
X113860425Y-49390670D01*
X113803793Y-49602023D01*
X113802831Y-49613022D01*
X113802830Y-49613026D01*
X113791743Y-49739763D01*
X113784723Y-49820000D01*
X113785686Y-49831007D01*
X113792169Y-49905105D01*
X113803793Y-50037977D01*
X113860425Y-50249330D01*
X113906662Y-50348484D01*
X113919984Y-50377053D01*
X113952898Y-50447638D01*
X113966773Y-50467453D01*
X113969528Y-50471388D01*
X114009284Y-50561744D01*
X114011436Y-50660437D01*
X113975656Y-50752440D01*
X113907392Y-50823748D01*
X113817036Y-50863504D01*
X113762280Y-50869500D01*
X111852821Y-50869500D01*
X111756002Y-50850242D01*
X111673923Y-50795398D01*
X108741757Y-47863233D01*
X108734423Y-47855585D01*
X108705877Y-47824541D01*
X108705875Y-47824539D01*
X108694201Y-47811844D01*
X108662307Y-47792069D01*
X108642676Y-47778578D01*
X108612783Y-47755888D01*
X108596744Y-47749538D01*
X108588891Y-47745113D01*
X108580673Y-47741454D01*
X108566014Y-47732365D01*
X108529974Y-47721894D01*
X108507435Y-47714177D01*
X108488583Y-47706713D01*
X108488581Y-47706713D01*
X108472547Y-47700364D01*
X108455399Y-47698561D01*
X108444576Y-47695903D01*
X108433903Y-47693983D01*
X108421175Y-47690285D01*
X108410485Y-47689500D01*
X108382435Y-47689500D01*
X108355990Y-47688114D01*
X108322546Y-47684599D01*
X108305542Y-47687475D01*
X108290993Y-47687932D01*
X108272325Y-47689500D01*
X104762821Y-47689500D01*
X104666002Y-47670242D01*
X104583923Y-47615398D01*
X103281757Y-46313233D01*
X103274423Y-46305585D01*
X103245877Y-46274541D01*
X103245875Y-46274539D01*
X103234201Y-46261844D01*
X103202307Y-46242069D01*
X103182676Y-46228578D01*
X103152783Y-46205888D01*
X103136744Y-46199538D01*
X103121719Y-46191072D01*
X103121911Y-46190730D01*
X103109175Y-46184325D01*
X103106028Y-46182374D01*
X103107978Y-46179228D01*
X103052494Y-46140010D01*
X103012352Y-46079242D01*
X103011744Y-46079602D01*
X103004512Y-46067374D01*
X102928081Y-45938135D01*
X102811865Y-45821919D01*
X102798167Y-45813818D01*
X102684098Y-45746358D01*
X102684097Y-45746358D01*
X102670398Y-45738256D01*
X102560000Y-45706182D01*
X102524982Y-45696008D01*
X102524979Y-45696007D01*
X102512569Y-45692402D01*
X102494231Y-45690959D01*
X102480653Y-45689890D01*
X102480646Y-45689890D01*
X102475694Y-45689500D01*
X101444306Y-45689500D01*
X101439354Y-45689890D01*
X101439347Y-45689890D01*
X101425769Y-45690959D01*
X101407431Y-45692402D01*
X101395021Y-45696007D01*
X101395018Y-45696008D01*
X101360000Y-45706182D01*
X101249602Y-45738256D01*
X101235903Y-45746358D01*
X101235902Y-45746358D01*
X101121833Y-45813818D01*
X101108135Y-45821919D01*
X101088898Y-45841156D01*
X101006819Y-45896000D01*
X100910000Y-45915258D01*
X100813181Y-45896000D01*
X100731102Y-45841156D01*
X100711865Y-45821919D01*
X100698167Y-45813818D01*
X100584098Y-45746358D01*
X100584097Y-45746358D01*
X100570398Y-45738256D01*
X100460000Y-45706182D01*
X100424982Y-45696008D01*
X100424979Y-45696007D01*
X100412569Y-45692402D01*
X100394231Y-45690959D01*
X100380653Y-45689890D01*
X100380646Y-45689890D01*
X100375694Y-45689500D01*
X99344306Y-45689500D01*
X99339354Y-45689890D01*
X99339347Y-45689890D01*
X99325769Y-45690959D01*
X99307431Y-45692402D01*
X99295021Y-45696007D01*
X99295018Y-45696008D01*
X99260000Y-45706182D01*
X99149602Y-45738256D01*
X99135903Y-45746358D01*
X99135902Y-45746358D01*
X99021833Y-45813818D01*
X99008135Y-45821919D01*
X98891919Y-45938135D01*
X98883818Y-45951833D01*
X98820289Y-46059256D01*
X98808256Y-46079602D01*
X98803815Y-46094888D01*
X98775871Y-46191072D01*
X98762402Y-46237431D01*
X98759500Y-46274306D01*
X98759500Y-47105694D01*
X98762402Y-47142569D01*
X98766007Y-47154979D01*
X98766008Y-47154982D01*
X98798850Y-47268024D01*
X98808256Y-47300398D01*
X98891919Y-47441865D01*
X98961156Y-47511102D01*
X99016000Y-47593181D01*
X99035258Y-47690000D01*
X99016000Y-47786819D01*
X98961156Y-47868898D01*
X98891919Y-47938135D01*
X98808256Y-48079602D01*
X98803814Y-48094890D01*
X98797494Y-48109495D01*
X98796226Y-48108946D01*
X98758668Y-48181243D01*
X98710889Y-48223144D01*
X98712145Y-48224695D01*
X98709270Y-48227023D01*
X98697270Y-48235087D01*
X98692288Y-48239456D01*
X98689205Y-48241323D01*
X98680308Y-48247507D01*
X98668692Y-48253893D01*
X98660578Y-48260897D01*
X98640744Y-48280731D01*
X98621073Y-48298443D01*
X98594930Y-48319614D01*
X98584942Y-48333669D01*
X98574980Y-48344277D01*
X98562883Y-48358592D01*
X96723233Y-50198243D01*
X96715585Y-50205577D01*
X96684541Y-50234123D01*
X96684539Y-50234125D01*
X96671844Y-50245799D01*
X96662754Y-50260460D01*
X96652069Y-50277693D01*
X96638578Y-50297324D01*
X96615888Y-50327217D01*
X96609538Y-50343256D01*
X96605113Y-50351109D01*
X96601454Y-50359327D01*
X96592365Y-50373986D01*
X96581894Y-50410026D01*
X96574177Y-50432565D01*
X96560364Y-50467453D01*
X96558561Y-50484601D01*
X96555903Y-50495424D01*
X96553983Y-50506097D01*
X96550285Y-50518825D01*
X96549500Y-50529515D01*
X96549500Y-50557565D01*
X96548114Y-50584009D01*
X96544599Y-50617454D01*
X96547475Y-50634458D01*
X96547932Y-50649007D01*
X96549500Y-50667675D01*
X96549500Y-53415046D01*
X96530242Y-53511865D01*
X96475398Y-53593944D01*
X96399870Y-53645273D01*
X96389602Y-53648256D01*
X96248135Y-53731919D01*
X96178898Y-53801156D01*
X96096819Y-53856000D01*
X96000000Y-53875258D01*
X95903181Y-53856000D01*
X95821102Y-53801156D01*
X95751865Y-53731919D01*
X95732430Y-53720425D01*
X95624098Y-53656358D01*
X95624097Y-53656358D01*
X95610398Y-53648256D01*
X95566141Y-53635398D01*
X95464982Y-53606008D01*
X95464979Y-53606007D01*
X95452569Y-53602402D01*
X95434231Y-53600959D01*
X95420653Y-53599890D01*
X95420646Y-53599890D01*
X95415694Y-53599500D01*
X95333231Y-53599500D01*
X95236412Y-53580242D01*
X95154333Y-53525398D01*
X95099489Y-53443319D01*
X95080231Y-53346500D01*
X95099489Y-53249681D01*
X95154179Y-53167756D01*
X95163527Y-53158392D01*
X95181623Y-53135478D01*
X95258946Y-53010036D01*
X95271284Y-52983577D01*
X95317953Y-52842876D01*
X95323713Y-52816009D01*
X95332341Y-52731793D01*
X95333000Y-52718904D01*
X95333000Y-52478918D01*
X95328866Y-52458134D01*
X95308082Y-52454000D01*
X94236500Y-52454000D01*
X94139681Y-52434742D01*
X94057602Y-52379898D01*
X94002758Y-52297819D01*
X93983500Y-52201000D01*
X93983500Y-51921082D01*
X94491500Y-51921082D01*
X94495634Y-51941866D01*
X94516418Y-51946000D01*
X95308081Y-51946000D01*
X95328865Y-51941866D01*
X95332999Y-51921082D01*
X95332999Y-51681179D01*
X95332324Y-51668131D01*
X95323461Y-51582709D01*
X95317650Y-51555802D01*
X95270747Y-51415214D01*
X95258359Y-51388768D01*
X95180816Y-51263461D01*
X95175809Y-51257144D01*
X95130762Y-51169305D01*
X95122758Y-51070915D01*
X95153017Y-50976951D01*
X95175535Y-50943187D01*
X95181622Y-50935479D01*
X95258946Y-50810036D01*
X95271284Y-50783577D01*
X95317953Y-50642876D01*
X95323713Y-50616009D01*
X95332341Y-50531793D01*
X95333000Y-50518904D01*
X95333000Y-50278918D01*
X95328866Y-50258134D01*
X95308082Y-50254000D01*
X94516418Y-50254000D01*
X94495634Y-50258134D01*
X94491500Y-50278918D01*
X94491500Y-51921082D01*
X93983500Y-51921082D01*
X93983500Y-49721082D01*
X94491500Y-49721082D01*
X94495634Y-49741866D01*
X94516418Y-49746000D01*
X95308081Y-49746000D01*
X95328865Y-49741866D01*
X95332999Y-49721082D01*
X95332999Y-49481179D01*
X95332324Y-49468131D01*
X95323461Y-49382709D01*
X95317650Y-49355802D01*
X95270747Y-49215214D01*
X95258359Y-49188768D01*
X95180816Y-49063462D01*
X95162682Y-49040582D01*
X95058393Y-48936474D01*
X95035478Y-48918377D01*
X94910036Y-48841054D01*
X94883577Y-48828716D01*
X94742876Y-48782047D01*
X94716009Y-48776287D01*
X94631793Y-48767659D01*
X94618904Y-48767000D01*
X94516418Y-48767000D01*
X94495634Y-48771134D01*
X94491500Y-48791918D01*
X94491500Y-49721082D01*
X93983500Y-49721082D01*
X93983500Y-48791919D01*
X93979366Y-48771135D01*
X93958582Y-48767001D01*
X93856179Y-48767001D01*
X93843131Y-48767676D01*
X93757709Y-48776539D01*
X93730802Y-48782350D01*
X93590214Y-48829253D01*
X93563768Y-48841641D01*
X93438462Y-48919184D01*
X93415582Y-48937318D01*
X93303075Y-49050021D01*
X93221043Y-49104936D01*
X93124241Y-49124279D01*
X93027405Y-49105105D01*
X92945123Y-49050177D01*
X92901865Y-49006919D01*
X92760398Y-48923256D01*
X92706813Y-48907688D01*
X92614982Y-48881008D01*
X92614979Y-48881007D01*
X92602569Y-48877402D01*
X92584231Y-48875959D01*
X92570653Y-48874890D01*
X92570646Y-48874890D01*
X92565694Y-48874500D01*
X91759306Y-48874500D01*
X91754354Y-48874890D01*
X91754347Y-48874890D01*
X91740769Y-48875959D01*
X91722431Y-48877402D01*
X91710021Y-48881007D01*
X91710018Y-48881008D01*
X91618187Y-48907688D01*
X91564602Y-48923256D01*
X91550904Y-48931357D01*
X91550897Y-48931360D01*
X91481786Y-48972232D01*
X91388647Y-49004940D01*
X91290080Y-48999515D01*
X91201092Y-48956783D01*
X91135232Y-48883250D01*
X91102524Y-48790111D01*
X91100000Y-48754464D01*
X91100000Y-41833500D01*
X91119258Y-41736681D01*
X91174102Y-41654602D01*
X91256181Y-41599758D01*
X91353000Y-41580500D01*
X103597903Y-41580500D01*
X103694722Y-41599758D01*
G37*
G04 #@! TD.AperFunction*
G04 #@! TA.AperFunction,Conductor*
G36*
X99089981Y-49609416D02*
G01*
X99121942Y-49625386D01*
X99149602Y-49641744D01*
X99149603Y-49641744D01*
X99147740Y-49644894D01*
X99205228Y-49684629D01*
X99258773Y-49767561D01*
X99276506Y-49864671D01*
X99255726Y-49961175D01*
X99243875Y-49983915D01*
X99228716Y-50016423D01*
X99182047Y-50157124D01*
X99176287Y-50183991D01*
X99167659Y-50268207D01*
X99167000Y-50281096D01*
X99167000Y-50521082D01*
X99171134Y-50541866D01*
X99191918Y-50546000D01*
X100263500Y-50546000D01*
X100360319Y-50565258D01*
X100442398Y-50620102D01*
X100497242Y-50702181D01*
X100516500Y-50799000D01*
X100516500Y-50801000D01*
X100497242Y-50897819D01*
X100442398Y-50979898D01*
X100360319Y-51034742D01*
X100263500Y-51054000D01*
X99191919Y-51054000D01*
X99171135Y-51058134D01*
X99167001Y-51078918D01*
X99167001Y-51318821D01*
X99167676Y-51331869D01*
X99176539Y-51417291D01*
X99182350Y-51444198D01*
X99229253Y-51584786D01*
X99241641Y-51611232D01*
X99319184Y-51736538D01*
X99337322Y-51759423D01*
X99365152Y-51787205D01*
X99420067Y-51869236D01*
X99439409Y-51966038D01*
X99420234Y-52062874D01*
X99404177Y-52095044D01*
X99356358Y-52175901D01*
X99356358Y-52175902D01*
X99348256Y-52189602D01*
X99343815Y-52204888D01*
X99313272Y-52310018D01*
X99302402Y-52347431D01*
X99299500Y-52384306D01*
X99299500Y-53415694D01*
X99299890Y-53420646D01*
X99299890Y-53420653D01*
X99300959Y-53434231D01*
X99302402Y-53452569D01*
X99306007Y-53464979D01*
X99306008Y-53464982D01*
X99319629Y-53511865D01*
X99348256Y-53610398D01*
X99356358Y-53624097D01*
X99356358Y-53624098D01*
X99415332Y-53723818D01*
X99431919Y-53751865D01*
X99548135Y-53868081D01*
X99561833Y-53876182D01*
X99574413Y-53885940D01*
X99573382Y-53887270D01*
X99632921Y-53940600D01*
X99675650Y-54029589D01*
X99681072Y-54128156D01*
X99648362Y-54221295D01*
X99583561Y-54294024D01*
X99507078Y-54352078D01*
X99496651Y-54365815D01*
X99426314Y-54458479D01*
X99426312Y-54458483D01*
X99415887Y-54472217D01*
X99409538Y-54488253D01*
X99369692Y-54588893D01*
X99316144Y-54671824D01*
X99234937Y-54727950D01*
X99138433Y-54748727D01*
X99041323Y-54730992D01*
X98981667Y-54693133D01*
X98980389Y-54694932D01*
X98973750Y-54690214D01*
X98963747Y-54681761D01*
X98961270Y-54680189D01*
X98955722Y-54674979D01*
X98941408Y-54662883D01*
X98501768Y-54223244D01*
X98494433Y-54215596D01*
X98465872Y-54184536D01*
X98454201Y-54171844D01*
X98439546Y-54162757D01*
X98439544Y-54162756D01*
X98422307Y-54152069D01*
X98402676Y-54138578D01*
X98372783Y-54115888D01*
X98356744Y-54109538D01*
X98348891Y-54105113D01*
X98340673Y-54101454D01*
X98326014Y-54092365D01*
X98289974Y-54081894D01*
X98267444Y-54074181D01*
X98262228Y-54072116D01*
X98179296Y-54018571D01*
X98137589Y-53965667D01*
X98076182Y-53861833D01*
X98068081Y-53848135D01*
X97951865Y-53731919D01*
X97810398Y-53648256D01*
X97800213Y-53645297D01*
X97721815Y-53591113D01*
X97668267Y-53508183D01*
X97650500Y-53415046D01*
X97650500Y-50932821D01*
X97669758Y-50836002D01*
X97724602Y-50753923D01*
X98268507Y-50210018D01*
X98814264Y-49664260D01*
X98896343Y-49609417D01*
X98993162Y-49590158D01*
X99089981Y-49609416D01*
G37*
G04 #@! TD.AperFunction*
M02*
