%FSLAX45Y45*%
G04 Gerber Fmt 4.5, Leading zero omitted, Abs format (unit mm)*
G04 Created by KiCad (PCBNEW (6.0.6)) date 2023-11-23 12:31:40*
%MOMM*%
%LPD*%
G01*
G04 APERTURE LIST*
%TA.AperFunction,Profile*%
%ADD10C,0.100000*%
%TD*%
%ADD11C,0.200000*%
%ADD12C,0.320000*%
G04 APERTURE END LIST*
D10*
X7250000Y-4107000D02*
X11750000Y-4107000D01*
X11750000Y-4107000D02*
X11750000Y-7107000D01*
X11750000Y-7107000D02*
X7250000Y-7107000D01*
X7250000Y-7107000D02*
X7250000Y-4107000D01*
D11*
D12*
X8687000Y-6573000D02*
X9007000Y-6893000D01*
X9007000Y-6573000D02*
X8687000Y-6893000D01*
X8692000Y-4324000D02*
X9012000Y-4644000D01*
X9012000Y-4324000D02*
X8692000Y-4644000D01*
D11*
X7502619Y-7422476D02*
X7502619Y-7222476D01*
X7550238Y-7222476D01*
X7578809Y-7232000D01*
X7597857Y-7251048D01*
X7607381Y-7270095D01*
X7616905Y-7308190D01*
X7616905Y-7336762D01*
X7607381Y-7374857D01*
X7597857Y-7393905D01*
X7578809Y-7412952D01*
X7550238Y-7422476D01*
X7502619Y-7422476D01*
X7702619Y-7422476D02*
X7702619Y-7289143D01*
X7702619Y-7327238D02*
X7712143Y-7308190D01*
X7721667Y-7298667D01*
X7740714Y-7289143D01*
X7759762Y-7289143D01*
X7826428Y-7422476D02*
X7826428Y-7289143D01*
X7826428Y-7222476D02*
X7816905Y-7232000D01*
X7826428Y-7241524D01*
X7835952Y-7232000D01*
X7826428Y-7222476D01*
X7826428Y-7241524D01*
X7950238Y-7422476D02*
X7931190Y-7412952D01*
X7921667Y-7393905D01*
X7921667Y-7222476D01*
X8055000Y-7422476D02*
X8035952Y-7412952D01*
X8026428Y-7393905D01*
X8026428Y-7222476D01*
X8283571Y-7422476D02*
X8283571Y-7222476D01*
X8350238Y-7365333D01*
X8416905Y-7222476D01*
X8416905Y-7422476D01*
X8597857Y-7422476D02*
X8597857Y-7317714D01*
X8588333Y-7298667D01*
X8569286Y-7289143D01*
X8531190Y-7289143D01*
X8512143Y-7298667D01*
X8597857Y-7412952D02*
X8578810Y-7422476D01*
X8531190Y-7422476D01*
X8512143Y-7412952D01*
X8502619Y-7393905D01*
X8502619Y-7374857D01*
X8512143Y-7355809D01*
X8531190Y-7346286D01*
X8578810Y-7346286D01*
X8597857Y-7336762D01*
X8693095Y-7289143D02*
X8693095Y-7489143D01*
X8693095Y-7298667D02*
X8712143Y-7289143D01*
X8750238Y-7289143D01*
X8769286Y-7298667D01*
X8778810Y-7308190D01*
X8788333Y-7327238D01*
X8788333Y-7384381D01*
X8778810Y-7403428D01*
X8769286Y-7412952D01*
X8750238Y-7422476D01*
X8712143Y-7422476D01*
X8693095Y-7412952D01*
X8874048Y-7403428D02*
X8883571Y-7412952D01*
X8874048Y-7422476D01*
X8864524Y-7412952D01*
X8874048Y-7403428D01*
X8874048Y-7422476D01*
X8874048Y-7298667D02*
X8883571Y-7308190D01*
X8874048Y-7317714D01*
X8864524Y-7308190D01*
X8874048Y-7298667D01*
X8874048Y-7317714D01*
X7045000Y-7652000D02*
X7245000Y-7852000D01*
X7245000Y-7652000D02*
X7045000Y-7852000D01*
X7483571Y-7642476D02*
X7607381Y-7642476D01*
X7540714Y-7718667D01*
X7569286Y-7718667D01*
X7588333Y-7728190D01*
X7597857Y-7737714D01*
X7607381Y-7756762D01*
X7607381Y-7804381D01*
X7597857Y-7823428D01*
X7588333Y-7832952D01*
X7569286Y-7842476D01*
X7512143Y-7842476D01*
X7493095Y-7832952D01*
X7483571Y-7823428D01*
X7693095Y-7823428D02*
X7702619Y-7832952D01*
X7693095Y-7842476D01*
X7683571Y-7832952D01*
X7693095Y-7823428D01*
X7693095Y-7842476D01*
X7778809Y-7661524D02*
X7788333Y-7652000D01*
X7807381Y-7642476D01*
X7855000Y-7642476D01*
X7874048Y-7652000D01*
X7883571Y-7661524D01*
X7893095Y-7680571D01*
X7893095Y-7699619D01*
X7883571Y-7728190D01*
X7769286Y-7842476D01*
X7893095Y-7842476D01*
X8016905Y-7642476D02*
X8035952Y-7642476D01*
X8055000Y-7652000D01*
X8064524Y-7661524D01*
X8074048Y-7680571D01*
X8083571Y-7718667D01*
X8083571Y-7766286D01*
X8074048Y-7804381D01*
X8064524Y-7823428D01*
X8055000Y-7832952D01*
X8035952Y-7842476D01*
X8016905Y-7842476D01*
X7997857Y-7832952D01*
X7988333Y-7823428D01*
X7978809Y-7804381D01*
X7969286Y-7766286D01*
X7969286Y-7718667D01*
X7978809Y-7680571D01*
X7988333Y-7661524D01*
X7997857Y-7652000D01*
X8016905Y-7642476D01*
X8207381Y-7642476D02*
X8226428Y-7642476D01*
X8245476Y-7652000D01*
X8255000Y-7661524D01*
X8264524Y-7680571D01*
X8274048Y-7718667D01*
X8274048Y-7766286D01*
X8264524Y-7804381D01*
X8255000Y-7823428D01*
X8245476Y-7832952D01*
X8226428Y-7842476D01*
X8207381Y-7842476D01*
X8188333Y-7832952D01*
X8178809Y-7823428D01*
X8169286Y-7804381D01*
X8159762Y-7766286D01*
X8159762Y-7718667D01*
X8169286Y-7680571D01*
X8178809Y-7661524D01*
X8188333Y-7652000D01*
X8207381Y-7642476D01*
X8359762Y-7842476D02*
X8359762Y-7709143D01*
X8359762Y-7728190D02*
X8369286Y-7718667D01*
X8388333Y-7709143D01*
X8416905Y-7709143D01*
X8435952Y-7718667D01*
X8445476Y-7737714D01*
X8445476Y-7842476D01*
X8445476Y-7737714D02*
X8455000Y-7718667D01*
X8474048Y-7709143D01*
X8502619Y-7709143D01*
X8521667Y-7718667D01*
X8531190Y-7737714D01*
X8531190Y-7842476D01*
X8626429Y-7842476D02*
X8626429Y-7709143D01*
X8626429Y-7728190D02*
X8635952Y-7718667D01*
X8655000Y-7709143D01*
X8683571Y-7709143D01*
X8702619Y-7718667D01*
X8712143Y-7737714D01*
X8712143Y-7842476D01*
X8712143Y-7737714D02*
X8721667Y-7718667D01*
X8740714Y-7709143D01*
X8769286Y-7709143D01*
X8788333Y-7718667D01*
X8797857Y-7737714D01*
X8797857Y-7842476D01*
X9188333Y-7632952D02*
X9016905Y-7890095D01*
X9445476Y-7642476D02*
X9464524Y-7642476D01*
X9483571Y-7652000D01*
X9493095Y-7661524D01*
X9502619Y-7680571D01*
X9512143Y-7718667D01*
X9512143Y-7766286D01*
X9502619Y-7804381D01*
X9493095Y-7823428D01*
X9483571Y-7832952D01*
X9464524Y-7842476D01*
X9445476Y-7842476D01*
X9426429Y-7832952D01*
X9416905Y-7823428D01*
X9407381Y-7804381D01*
X9397857Y-7766286D01*
X9397857Y-7718667D01*
X9407381Y-7680571D01*
X9416905Y-7661524D01*
X9426429Y-7652000D01*
X9445476Y-7642476D01*
X9597857Y-7823428D02*
X9607381Y-7832952D01*
X9597857Y-7842476D01*
X9588333Y-7832952D01*
X9597857Y-7823428D01*
X9597857Y-7842476D01*
X9797857Y-7842476D02*
X9683571Y-7842476D01*
X9740714Y-7842476D02*
X9740714Y-7642476D01*
X9721667Y-7671048D01*
X9702619Y-7690095D01*
X9683571Y-7699619D01*
X9874048Y-7661524D02*
X9883571Y-7652000D01*
X9902619Y-7642476D01*
X9950238Y-7642476D01*
X9969286Y-7652000D01*
X9978810Y-7661524D01*
X9988333Y-7680571D01*
X9988333Y-7699619D01*
X9978810Y-7728190D01*
X9864524Y-7842476D01*
X9988333Y-7842476D01*
X10159762Y-7642476D02*
X10121667Y-7642476D01*
X10102619Y-7652000D01*
X10093095Y-7661524D01*
X10074048Y-7690095D01*
X10064524Y-7728190D01*
X10064524Y-7804381D01*
X10074048Y-7823428D01*
X10083571Y-7832952D01*
X10102619Y-7842476D01*
X10140714Y-7842476D01*
X10159762Y-7832952D01*
X10169286Y-7823428D01*
X10178810Y-7804381D01*
X10178810Y-7756762D01*
X10169286Y-7737714D01*
X10159762Y-7728190D01*
X10140714Y-7718667D01*
X10102619Y-7718667D01*
X10083571Y-7728190D01*
X10074048Y-7737714D01*
X10064524Y-7756762D01*
X10302619Y-7642476D02*
X10321667Y-7642476D01*
X10340714Y-7652000D01*
X10350238Y-7661524D01*
X10359762Y-7680571D01*
X10369286Y-7718667D01*
X10369286Y-7766286D01*
X10359762Y-7804381D01*
X10350238Y-7823428D01*
X10340714Y-7832952D01*
X10321667Y-7842476D01*
X10302619Y-7842476D01*
X10283571Y-7832952D01*
X10274048Y-7823428D01*
X10264524Y-7804381D01*
X10255000Y-7766286D01*
X10255000Y-7718667D01*
X10264524Y-7680571D01*
X10274048Y-7661524D01*
X10283571Y-7652000D01*
X10302619Y-7642476D01*
X10445476Y-7642476D02*
X10445476Y-7680571D01*
X10521667Y-7642476D02*
X10521667Y-7680571D01*
X10816905Y-7918667D02*
X10807381Y-7909143D01*
X10788333Y-7880571D01*
X10778810Y-7861524D01*
X10769286Y-7832952D01*
X10759762Y-7785333D01*
X10759762Y-7747238D01*
X10769286Y-7699619D01*
X10778810Y-7671048D01*
X10788333Y-7652000D01*
X10807381Y-7623428D01*
X10816905Y-7613905D01*
X10883571Y-7661524D02*
X10893095Y-7652000D01*
X10912143Y-7642476D01*
X10959762Y-7642476D01*
X10978810Y-7652000D01*
X10988333Y-7661524D01*
X10997857Y-7680571D01*
X10997857Y-7699619D01*
X10988333Y-7728190D01*
X10874048Y-7842476D01*
X10997857Y-7842476D01*
X11235952Y-7842476D02*
X11235952Y-7642476D01*
X11321667Y-7842476D02*
X11321667Y-7737714D01*
X11312143Y-7718667D01*
X11293095Y-7709143D01*
X11264524Y-7709143D01*
X11245476Y-7718667D01*
X11235952Y-7728190D01*
X11445476Y-7842476D02*
X11426428Y-7832952D01*
X11416905Y-7823428D01*
X11407381Y-7804381D01*
X11407381Y-7747238D01*
X11416905Y-7728190D01*
X11426428Y-7718667D01*
X11445476Y-7709143D01*
X11474048Y-7709143D01*
X11493095Y-7718667D01*
X11502619Y-7728190D01*
X11512143Y-7747238D01*
X11512143Y-7804381D01*
X11502619Y-7823428D01*
X11493095Y-7832952D01*
X11474048Y-7842476D01*
X11445476Y-7842476D01*
X11626428Y-7842476D02*
X11607381Y-7832952D01*
X11597857Y-7813905D01*
X11597857Y-7642476D01*
X11778809Y-7832952D02*
X11759762Y-7842476D01*
X11721667Y-7842476D01*
X11702619Y-7832952D01*
X11693095Y-7813905D01*
X11693095Y-7737714D01*
X11702619Y-7718667D01*
X11721667Y-7709143D01*
X11759762Y-7709143D01*
X11778809Y-7718667D01*
X11788333Y-7737714D01*
X11788333Y-7756762D01*
X11693095Y-7775809D01*
X11864524Y-7832952D02*
X11883571Y-7842476D01*
X11921667Y-7842476D01*
X11940714Y-7832952D01*
X11950238Y-7813905D01*
X11950238Y-7804381D01*
X11940714Y-7785333D01*
X11921667Y-7775809D01*
X11893095Y-7775809D01*
X11874048Y-7766286D01*
X11864524Y-7747238D01*
X11864524Y-7737714D01*
X11874048Y-7718667D01*
X11893095Y-7709143D01*
X11921667Y-7709143D01*
X11940714Y-7718667D01*
X12016905Y-7918667D02*
X12026428Y-7909143D01*
X12045476Y-7880571D01*
X12055000Y-7861524D01*
X12064524Y-7832952D01*
X12074048Y-7785333D01*
X12074048Y-7747238D01*
X12064524Y-7699619D01*
X12055000Y-7671048D01*
X12045476Y-7652000D01*
X12026428Y-7623428D01*
X12016905Y-7613905D01*
X12378809Y-7918667D02*
X12369286Y-7909143D01*
X12350238Y-7880571D01*
X12340714Y-7861524D01*
X12331190Y-7832952D01*
X12321667Y-7785333D01*
X12321667Y-7747238D01*
X12331190Y-7699619D01*
X12340714Y-7671048D01*
X12350238Y-7652000D01*
X12369286Y-7623428D01*
X12378809Y-7613905D01*
X12455000Y-7709143D02*
X12455000Y-7842476D01*
X12455000Y-7728190D02*
X12464524Y-7718667D01*
X12483571Y-7709143D01*
X12512143Y-7709143D01*
X12531190Y-7718667D01*
X12540714Y-7737714D01*
X12540714Y-7842476D01*
X12664524Y-7842476D02*
X12645476Y-7832952D01*
X12635952Y-7823428D01*
X12626428Y-7804381D01*
X12626428Y-7747238D01*
X12635952Y-7728190D01*
X12645476Y-7718667D01*
X12664524Y-7709143D01*
X12693095Y-7709143D01*
X12712143Y-7718667D01*
X12721667Y-7728190D01*
X12731190Y-7747238D01*
X12731190Y-7804381D01*
X12721667Y-7823428D01*
X12712143Y-7832952D01*
X12693095Y-7842476D01*
X12664524Y-7842476D01*
X12788333Y-7709143D02*
X12864524Y-7709143D01*
X12816905Y-7642476D02*
X12816905Y-7813905D01*
X12826428Y-7832952D01*
X12845476Y-7842476D01*
X12864524Y-7842476D01*
X13083571Y-7709143D02*
X13083571Y-7909143D01*
X13083571Y-7718667D02*
X13102619Y-7709143D01*
X13140714Y-7709143D01*
X13159762Y-7718667D01*
X13169286Y-7728190D01*
X13178809Y-7747238D01*
X13178809Y-7804381D01*
X13169286Y-7823428D01*
X13159762Y-7832952D01*
X13140714Y-7842476D01*
X13102619Y-7842476D01*
X13083571Y-7832952D01*
X13293095Y-7842476D02*
X13274048Y-7832952D01*
X13264524Y-7813905D01*
X13264524Y-7642476D01*
X13455000Y-7842476D02*
X13455000Y-7737714D01*
X13445476Y-7718667D01*
X13426428Y-7709143D01*
X13388333Y-7709143D01*
X13369286Y-7718667D01*
X13455000Y-7832952D02*
X13435952Y-7842476D01*
X13388333Y-7842476D01*
X13369286Y-7832952D01*
X13359762Y-7813905D01*
X13359762Y-7794857D01*
X13369286Y-7775809D01*
X13388333Y-7766286D01*
X13435952Y-7766286D01*
X13455000Y-7756762D01*
X13521667Y-7709143D02*
X13597857Y-7709143D01*
X13550238Y-7642476D02*
X13550238Y-7813905D01*
X13559762Y-7832952D01*
X13578809Y-7842476D01*
X13597857Y-7842476D01*
X13740714Y-7832952D02*
X13721667Y-7842476D01*
X13683571Y-7842476D01*
X13664524Y-7832952D01*
X13655000Y-7813905D01*
X13655000Y-7737714D01*
X13664524Y-7718667D01*
X13683571Y-7709143D01*
X13721667Y-7709143D01*
X13740714Y-7718667D01*
X13750238Y-7737714D01*
X13750238Y-7756762D01*
X13655000Y-7775809D01*
X13921667Y-7842476D02*
X13921667Y-7642476D01*
X13921667Y-7832952D02*
X13902619Y-7842476D01*
X13864524Y-7842476D01*
X13845476Y-7832952D01*
X13835952Y-7823428D01*
X13826428Y-7804381D01*
X13826428Y-7747238D01*
X13835952Y-7728190D01*
X13845476Y-7718667D01*
X13864524Y-7709143D01*
X13902619Y-7709143D01*
X13921667Y-7718667D01*
X13997857Y-7918667D02*
X14007381Y-7909143D01*
X14026428Y-7880571D01*
X14035952Y-7861524D01*
X14045476Y-7832952D01*
X14055000Y-7785333D01*
X14055000Y-7747238D01*
X14045476Y-7699619D01*
X14035952Y-7671048D01*
X14026428Y-7652000D01*
X14007381Y-7623428D01*
X13997857Y-7613905D01*
M02*
