G04 #@! TF.GenerationSoftware,KiCad,Pcbnew,(6.0.6)*
G04 #@! TF.CreationDate,2022-08-29T16:00:50+02:00*
G04 #@! TF.ProjectId,adc-board-six-channels,6164632d-626f-4617-9264-2d7369782d63,rev?*
G04 #@! TF.SameCoordinates,Original*
G04 #@! TF.FileFunction,Legend,Bot*
G04 #@! TF.FilePolarity,Positive*
%FSLAX46Y46*%
G04 Gerber Fmt 4.6, Leading zero omitted, Abs format (unit mm)*
G04 Created by KiCad (PCBNEW (6.0.6)) date 2022-08-29 16:00:50*
%MOMM*%
%LPD*%
G01*
G04 APERTURE LIST*
G04 Aperture macros list*
%AMRoundRect*
0 Rectangle with rounded corners*
0 $1 Rounding radius*
0 $2 $3 $4 $5 $6 $7 $8 $9 X,Y pos of 4 corners*
0 Add a 4 corners polygon primitive as box body*
4,1,4,$2,$3,$4,$5,$6,$7,$8,$9,$2,$3,0*
0 Add four circle primitives for the rounded corners*
1,1,$1+$1,$2,$3*
1,1,$1+$1,$4,$5*
1,1,$1+$1,$6,$7*
1,1,$1+$1,$8,$9*
0 Add four rect primitives between the rounded corners*
20,1,$1+$1,$2,$3,$4,$5,0*
20,1,$1+$1,$4,$5,$6,$7,0*
20,1,$1+$1,$6,$7,$8,$9,0*
20,1,$1+$1,$8,$9,$2,$3,0*%
G04 Aperture macros list end*
%ADD10C,0.150000*%
%ADD11C,0.120000*%
%ADD12R,1.700000X1.700000*%
%ADD13O,1.700000X1.700000*%
%ADD14C,3.200000*%
%ADD15RoundRect,0.250000X-0.350000X-0.450000X0.350000X-0.450000X0.350000X0.450000X-0.350000X0.450000X0*%
%ADD16RoundRect,0.250000X0.337500X0.475000X-0.337500X0.475000X-0.337500X-0.475000X0.337500X-0.475000X0*%
%ADD17RoundRect,0.250000X0.350000X0.450000X-0.350000X0.450000X-0.350000X-0.450000X0.350000X-0.450000X0*%
%ADD18RoundRect,0.250000X-0.262500X-0.450000X0.262500X-0.450000X0.262500X0.450000X-0.262500X0.450000X0*%
G04 APERTURE END LIST*
D10*
X89049816Y-23598066D02*
X89283150Y-23264733D01*
X89449816Y-23598066D02*
X89449816Y-22898066D01*
X89183150Y-22898066D01*
X89116483Y-22931400D01*
X89083150Y-22964733D01*
X89049816Y-23031400D01*
X89049816Y-23131400D01*
X89083150Y-23198066D01*
X89116483Y-23231400D01*
X89183150Y-23264733D01*
X89449816Y-23264733D01*
X88449816Y-23131400D02*
X88449816Y-23598066D01*
X88616483Y-22864733D02*
X88783150Y-23364733D01*
X88349816Y-23364733D01*
X91109616Y-31233000D02*
X91142950Y-31266333D01*
X91242950Y-31299666D01*
X91309616Y-31299666D01*
X91409616Y-31266333D01*
X91476283Y-31199666D01*
X91509616Y-31133000D01*
X91542950Y-30999666D01*
X91542950Y-30899666D01*
X91509616Y-30766333D01*
X91476283Y-30699666D01*
X91409616Y-30633000D01*
X91309616Y-30599666D01*
X91242950Y-30599666D01*
X91142950Y-30633000D01*
X91109616Y-30666333D01*
X90709616Y-30899666D02*
X90776283Y-30866333D01*
X90809616Y-30833000D01*
X90842950Y-30766333D01*
X90842950Y-30733000D01*
X90809616Y-30666333D01*
X90776283Y-30633000D01*
X90709616Y-30599666D01*
X90576283Y-30599666D01*
X90509616Y-30633000D01*
X90476283Y-30666333D01*
X90442950Y-30733000D01*
X90442950Y-30766333D01*
X90476283Y-30833000D01*
X90509616Y-30866333D01*
X90576283Y-30899666D01*
X90709616Y-30899666D01*
X90776283Y-30933000D01*
X90809616Y-30966333D01*
X90842950Y-31033000D01*
X90842950Y-31166333D01*
X90809616Y-31233000D01*
X90776283Y-31266333D01*
X90709616Y-31299666D01*
X90576283Y-31299666D01*
X90509616Y-31266333D01*
X90476283Y-31233000D01*
X90442950Y-31166333D01*
X90442950Y-31033000D01*
X90476283Y-30966333D01*
X90509616Y-30933000D01*
X90576283Y-30899666D01*
X91109616Y-24756000D02*
X91142950Y-24789333D01*
X91242950Y-24822666D01*
X91309616Y-24822666D01*
X91409616Y-24789333D01*
X91476283Y-24722666D01*
X91509616Y-24656000D01*
X91542950Y-24522666D01*
X91542950Y-24422666D01*
X91509616Y-24289333D01*
X91476283Y-24222666D01*
X91409616Y-24156000D01*
X91309616Y-24122666D01*
X91242950Y-24122666D01*
X91142950Y-24156000D01*
X91109616Y-24189333D01*
X90476283Y-24122666D02*
X90809616Y-24122666D01*
X90842950Y-24456000D01*
X90809616Y-24422666D01*
X90742950Y-24389333D01*
X90576283Y-24389333D01*
X90509616Y-24422666D01*
X90476283Y-24456000D01*
X90442950Y-24522666D01*
X90442950Y-24689333D01*
X90476283Y-24756000D01*
X90509616Y-24789333D01*
X90576283Y-24822666D01*
X90742950Y-24822666D01*
X90809616Y-24789333D01*
X90842950Y-24756000D01*
X89417950Y-43408666D02*
X89651283Y-43075333D01*
X89817950Y-43408666D02*
X89817950Y-42708666D01*
X89551283Y-42708666D01*
X89484616Y-42742000D01*
X89451283Y-42775333D01*
X89417950Y-42842000D01*
X89417950Y-42942000D01*
X89451283Y-43008666D01*
X89484616Y-43042000D01*
X89551283Y-43075333D01*
X89817950Y-43075333D01*
X88751283Y-43408666D02*
X89151283Y-43408666D01*
X88951283Y-43408666D02*
X88951283Y-42708666D01*
X89017950Y-42808666D01*
X89084616Y-42875333D01*
X89151283Y-42908666D01*
X88317950Y-42708666D02*
X88251283Y-42708666D01*
X88184616Y-42742000D01*
X88151283Y-42775333D01*
X88117950Y-42842000D01*
X88084616Y-42975333D01*
X88084616Y-43142000D01*
X88117950Y-43275333D01*
X88151283Y-43342000D01*
X88184616Y-43375333D01*
X88251283Y-43408666D01*
X88317950Y-43408666D01*
X88384616Y-43375333D01*
X88417950Y-43342000D01*
X88451283Y-43275333D01*
X88484616Y-43142000D01*
X88484616Y-42975333D01*
X88451283Y-42842000D01*
X88417950Y-42775333D01*
X88384616Y-42742000D01*
X88317950Y-42708666D01*
X99752616Y-34520666D02*
X99985950Y-34187333D01*
X100152616Y-34520666D02*
X100152616Y-33820666D01*
X99885950Y-33820666D01*
X99819283Y-33854000D01*
X99785950Y-33887333D01*
X99752616Y-33954000D01*
X99752616Y-34054000D01*
X99785950Y-34120666D01*
X99819283Y-34154000D01*
X99885950Y-34187333D01*
X100152616Y-34187333D01*
X99485950Y-33887333D02*
X99452616Y-33854000D01*
X99385950Y-33820666D01*
X99219283Y-33820666D01*
X99152616Y-33854000D01*
X99119283Y-33887333D01*
X99085950Y-33954000D01*
X99085950Y-34020666D01*
X99119283Y-34120666D01*
X99519283Y-34520666D01*
X99085950Y-34520666D01*
X91449950Y-51188000D02*
X91483283Y-51221333D01*
X91583283Y-51254666D01*
X91649950Y-51254666D01*
X91749950Y-51221333D01*
X91816616Y-51154666D01*
X91849950Y-51088000D01*
X91883283Y-50954666D01*
X91883283Y-50854666D01*
X91849950Y-50721333D01*
X91816616Y-50654666D01*
X91749950Y-50588000D01*
X91649950Y-50554666D01*
X91583283Y-50554666D01*
X91483283Y-50588000D01*
X91449950Y-50621333D01*
X90783283Y-51254666D02*
X91183283Y-51254666D01*
X90983283Y-51254666D02*
X90983283Y-50554666D01*
X91049950Y-50654666D01*
X91116616Y-50721333D01*
X91183283Y-50754666D01*
X90549950Y-50554666D02*
X90083283Y-50554666D01*
X90383283Y-51254666D01*
X91351616Y-18070400D02*
X91384950Y-18103733D01*
X91484950Y-18137066D01*
X91551616Y-18137066D01*
X91651616Y-18103733D01*
X91718283Y-18037066D01*
X91751616Y-17970400D01*
X91784950Y-17837066D01*
X91784950Y-17737066D01*
X91751616Y-17603733D01*
X91718283Y-17537066D01*
X91651616Y-17470400D01*
X91551616Y-17437066D01*
X91484950Y-17437066D01*
X91384950Y-17470400D01*
X91351616Y-17503733D01*
X91084950Y-17503733D02*
X91051616Y-17470400D01*
X90984950Y-17437066D01*
X90818283Y-17437066D01*
X90751616Y-17470400D01*
X90718283Y-17503733D01*
X90684950Y-17570400D01*
X90684950Y-17637066D01*
X90718283Y-17737066D01*
X91118283Y-18137066D01*
X90684950Y-18137066D01*
X91442950Y-44366500D02*
X91476283Y-44399833D01*
X91576283Y-44433166D01*
X91642950Y-44433166D01*
X91742950Y-44399833D01*
X91809616Y-44333166D01*
X91842950Y-44266500D01*
X91876283Y-44133166D01*
X91876283Y-44033166D01*
X91842950Y-43899833D01*
X91809616Y-43833166D01*
X91742950Y-43766500D01*
X91642950Y-43733166D01*
X91576283Y-43733166D01*
X91476283Y-43766500D01*
X91442950Y-43799833D01*
X90776283Y-44433166D02*
X91176283Y-44433166D01*
X90976283Y-44433166D02*
X90976283Y-43733166D01*
X91042950Y-43833166D01*
X91109616Y-43899833D01*
X91176283Y-43933166D01*
X90176283Y-43966500D02*
X90176283Y-44433166D01*
X90342950Y-43699833D02*
X90509616Y-44199833D01*
X90076283Y-44199833D01*
X82540950Y-20169066D02*
X82774283Y-19835733D01*
X82940950Y-20169066D02*
X82940950Y-19469066D01*
X82674283Y-19469066D01*
X82607616Y-19502400D01*
X82574283Y-19535733D01*
X82540950Y-19602400D01*
X82540950Y-19702400D01*
X82574283Y-19769066D01*
X82607616Y-19802400D01*
X82674283Y-19835733D01*
X82940950Y-19835733D01*
X81874283Y-20169066D02*
X82274283Y-20169066D01*
X82074283Y-20169066D02*
X82074283Y-19469066D01*
X82140950Y-19569066D01*
X82207616Y-19635733D01*
X82274283Y-19669066D01*
X81640950Y-19469066D02*
X81174283Y-19469066D01*
X81474283Y-20169066D01*
X89417950Y-56616666D02*
X89651283Y-56283333D01*
X89817950Y-56616666D02*
X89817950Y-55916666D01*
X89551283Y-55916666D01*
X89484616Y-55950000D01*
X89451283Y-55983333D01*
X89417950Y-56050000D01*
X89417950Y-56150000D01*
X89451283Y-56216666D01*
X89484616Y-56250000D01*
X89551283Y-56283333D01*
X89817950Y-56283333D01*
X88751283Y-56616666D02*
X89151283Y-56616666D01*
X88951283Y-56616666D02*
X88951283Y-55916666D01*
X89017950Y-56016666D01*
X89084616Y-56083333D01*
X89151283Y-56116666D01*
X88151283Y-56150000D02*
X88151283Y-56616666D01*
X88317950Y-55883333D02*
X88484616Y-56383333D01*
X88051283Y-56383333D01*
X99990616Y-29567066D02*
X100223950Y-29233733D01*
X100390616Y-29567066D02*
X100390616Y-28867066D01*
X100123950Y-28867066D01*
X100057283Y-28900400D01*
X100023950Y-28933733D01*
X99990616Y-29000400D01*
X99990616Y-29100400D01*
X100023950Y-29167066D01*
X100057283Y-29200400D01*
X100123950Y-29233733D01*
X100390616Y-29233733D01*
X99323950Y-29567066D02*
X99723950Y-29567066D01*
X99523950Y-29567066D02*
X99523950Y-28867066D01*
X99590616Y-28967066D01*
X99657283Y-29033733D01*
X99723950Y-29067066D01*
X91442950Y-38009400D02*
X91476283Y-38042733D01*
X91576283Y-38076066D01*
X91642950Y-38076066D01*
X91742950Y-38042733D01*
X91809616Y-37976066D01*
X91842950Y-37909400D01*
X91876283Y-37776066D01*
X91876283Y-37676066D01*
X91842950Y-37542733D01*
X91809616Y-37476066D01*
X91742950Y-37409400D01*
X91642950Y-37376066D01*
X91576283Y-37376066D01*
X91476283Y-37409400D01*
X91442950Y-37442733D01*
X90776283Y-38076066D02*
X91176283Y-38076066D01*
X90976283Y-38076066D02*
X90976283Y-37376066D01*
X91042950Y-37476066D01*
X91109616Y-37542733D01*
X91176283Y-37576066D01*
X90109616Y-38076066D02*
X90509616Y-38076066D01*
X90309616Y-38076066D02*
X90309616Y-37376066D01*
X90376283Y-37476066D01*
X90442950Y-37542733D01*
X90509616Y-37576066D01*
X89084616Y-30200666D02*
X89317950Y-29867333D01*
X89484616Y-30200666D02*
X89484616Y-29500666D01*
X89217950Y-29500666D01*
X89151283Y-29534000D01*
X89117950Y-29567333D01*
X89084616Y-29634000D01*
X89084616Y-29734000D01*
X89117950Y-29800666D01*
X89151283Y-29834000D01*
X89217950Y-29867333D01*
X89484616Y-29867333D01*
X88484616Y-29500666D02*
X88617950Y-29500666D01*
X88684616Y-29534000D01*
X88717950Y-29567333D01*
X88784616Y-29667333D01*
X88817950Y-29800666D01*
X88817950Y-30067333D01*
X88784616Y-30134000D01*
X88751283Y-30167333D01*
X88684616Y-30200666D01*
X88551283Y-30200666D01*
X88484616Y-30167333D01*
X88451283Y-30134000D01*
X88417950Y-30067333D01*
X88417950Y-29900666D01*
X88451283Y-29834000D01*
X88484616Y-29800666D01*
X88551283Y-29767333D01*
X88684616Y-29767333D01*
X88751283Y-29800666D01*
X88784616Y-29834000D01*
X88817950Y-29900666D01*
X89417950Y-49809466D02*
X89651283Y-49476133D01*
X89817950Y-49809466D02*
X89817950Y-49109466D01*
X89551283Y-49109466D01*
X89484616Y-49142800D01*
X89451283Y-49176133D01*
X89417950Y-49242800D01*
X89417950Y-49342800D01*
X89451283Y-49409466D01*
X89484616Y-49442800D01*
X89551283Y-49476133D01*
X89817950Y-49476133D01*
X88751283Y-49809466D02*
X89151283Y-49809466D01*
X88951283Y-49809466D02*
X88951283Y-49109466D01*
X89017950Y-49209466D01*
X89084616Y-49276133D01*
X89151283Y-49309466D01*
X88484616Y-49176133D02*
X88451283Y-49142800D01*
X88384616Y-49109466D01*
X88217950Y-49109466D01*
X88151283Y-49142800D01*
X88117950Y-49176133D01*
X88084616Y-49242800D01*
X88084616Y-49309466D01*
X88117950Y-49409466D01*
X88517950Y-49809466D01*
X88084616Y-49809466D01*
X89065616Y-36703066D02*
X89298950Y-36369733D01*
X89465616Y-36703066D02*
X89465616Y-36003066D01*
X89198950Y-36003066D01*
X89132283Y-36036400D01*
X89098950Y-36069733D01*
X89065616Y-36136400D01*
X89065616Y-36236400D01*
X89098950Y-36303066D01*
X89132283Y-36336400D01*
X89198950Y-36369733D01*
X89465616Y-36369733D01*
X88665616Y-36303066D02*
X88732283Y-36269733D01*
X88765616Y-36236400D01*
X88798950Y-36169733D01*
X88798950Y-36136400D01*
X88765616Y-36069733D01*
X88732283Y-36036400D01*
X88665616Y-36003066D01*
X88532283Y-36003066D01*
X88465616Y-36036400D01*
X88432283Y-36069733D01*
X88398950Y-36136400D01*
X88398950Y-36169733D01*
X88432283Y-36236400D01*
X88465616Y-36269733D01*
X88532283Y-36303066D01*
X88665616Y-36303066D01*
X88732283Y-36336400D01*
X88765616Y-36369733D01*
X88798950Y-36436400D01*
X88798950Y-36569733D01*
X88765616Y-36636400D01*
X88732283Y-36669733D01*
X88665616Y-36703066D01*
X88532283Y-36703066D01*
X88465616Y-36669733D01*
X88432283Y-36636400D01*
X88398950Y-36569733D01*
X88398950Y-36436400D01*
X88432283Y-36369733D01*
X88465616Y-36336400D01*
X88532283Y-36303066D01*
D11*
X88740886Y-22365000D02*
X89195014Y-22365000D01*
X88740886Y-20895000D02*
X89195014Y-20895000D01*
X91254202Y-33398000D02*
X90731698Y-33398000D01*
X91254202Y-31928000D02*
X90731698Y-31928000D01*
X91254202Y-26921000D02*
X90731698Y-26921000D01*
X91254202Y-25451000D02*
X90731698Y-25451000D01*
X88740886Y-42177000D02*
X89195014Y-42177000D01*
X88740886Y-40707000D02*
X89195014Y-40707000D01*
X99863014Y-36589000D02*
X99408886Y-36589000D01*
X99863014Y-35119000D02*
X99408886Y-35119000D01*
X91261202Y-51883000D02*
X90738698Y-51883000D01*
X91261202Y-53353000D02*
X90738698Y-53353000D01*
X91254202Y-20317000D02*
X90731698Y-20317000D01*
X91254202Y-18847000D02*
X90731698Y-18847000D01*
X91254202Y-45061500D02*
X90731698Y-45061500D01*
X91254202Y-46531500D02*
X90731698Y-46531500D01*
X81887386Y-17339400D02*
X82341514Y-17339400D01*
X81887386Y-18809400D02*
X82341514Y-18809400D01*
X88740886Y-53915000D02*
X89195014Y-53915000D01*
X88740886Y-55385000D02*
X89195014Y-55385000D01*
X99646886Y-31763000D02*
X100101014Y-31763000D01*
X99646886Y-30293000D02*
X100101014Y-30293000D01*
X91254202Y-40076000D02*
X90731698Y-40076000D01*
X91254202Y-38606000D02*
X90731698Y-38606000D01*
X88740886Y-27499000D02*
X89195014Y-27499000D01*
X88740886Y-28969000D02*
X89195014Y-28969000D01*
X88740886Y-47107800D02*
X89195014Y-47107800D01*
X88740886Y-48577800D02*
X89195014Y-48577800D01*
X88721886Y-34001400D02*
X89176014Y-34001400D01*
X88721886Y-35471400D02*
X89176014Y-35471400D01*
%LPC*%
D12*
X81906450Y-46355000D03*
D13*
X79366450Y-46355000D03*
X81906450Y-43815000D03*
X79366450Y-43815000D03*
X81906450Y-41275000D03*
X79366450Y-41275000D03*
X81906450Y-38735000D03*
X79366450Y-38735000D03*
X81906450Y-36195000D03*
X79366450Y-36195000D03*
X81906450Y-33655000D03*
X79366450Y-33655000D03*
X81906450Y-31115000D03*
X79366450Y-31115000D03*
X81906450Y-28575000D03*
X79366450Y-28575000D03*
D12*
X103655950Y-28605000D03*
D13*
X106195950Y-28605000D03*
X103655950Y-31145000D03*
X106195950Y-31145000D03*
X103655950Y-33685000D03*
X106195950Y-33685000D03*
X103655950Y-36225000D03*
X106195950Y-36225000D03*
X103655950Y-38765000D03*
X106195950Y-38765000D03*
X103655950Y-41305000D03*
X106195950Y-41305000D03*
X103655950Y-43845000D03*
X106195950Y-43845000D03*
X103655950Y-46385000D03*
X106195950Y-46385000D03*
D14*
X107086400Y-55702200D03*
X107137200Y-19278600D03*
D15*
X87967950Y-21630000D03*
X89967950Y-21630000D03*
D16*
X92030450Y-32663000D03*
X89955450Y-32663000D03*
X92030450Y-26186000D03*
X89955450Y-26186000D03*
D15*
X87967950Y-41442000D03*
X89967950Y-41442000D03*
D17*
X100635950Y-35854000D03*
X98635950Y-35854000D03*
D16*
X92037450Y-52618000D03*
X89962450Y-52618000D03*
X92030450Y-19582000D03*
X89955450Y-19582000D03*
X92030450Y-45796500D03*
X89955450Y-45796500D03*
D18*
X81201950Y-18074400D03*
X83026950Y-18074400D03*
D15*
X87967950Y-54650000D03*
X89967950Y-54650000D03*
X98873950Y-31028000D03*
X100873950Y-31028000D03*
D16*
X92030450Y-39341000D03*
X89955450Y-39341000D03*
D15*
X87967950Y-28234000D03*
X89967950Y-28234000D03*
X87967950Y-47842800D03*
X89967950Y-47842800D03*
X87948950Y-34736400D03*
X89948950Y-34736400D03*
M02*
