G04 #@! TF.GenerationSoftware,KiCad,Pcbnew,(6.0.6)*
G04 #@! TF.CreationDate,2022-08-29T16:00:50+02:00*
G04 #@! TF.ProjectId,adc-board-six-channels,6164632d-626f-4617-9264-2d7369782d63,rev?*
G04 #@! TF.SameCoordinates,Original*
G04 #@! TF.FileFunction,Paste,Top*
G04 #@! TF.FilePolarity,Positive*
%FSLAX46Y46*%
G04 Gerber Fmt 4.6, Leading zero omitted, Abs format (unit mm)*
G04 Created by KiCad (PCBNEW (6.0.6)) date 2022-08-29 16:00:50*
%MOMM*%
%LPD*%
G01*
G04 APERTURE LIST*
G04 Aperture macros list*
%AMRoundRect*
0 Rectangle with rounded corners*
0 $1 Rounding radius*
0 $2 $3 $4 $5 $6 $7 $8 $9 X,Y pos of 4 corners*
0 Add a 4 corners polygon primitive as box body*
4,1,4,$2,$3,$4,$5,$6,$7,$8,$9,$2,$3,0*
0 Add four circle primitives for the rounded corners*
1,1,$1+$1,$2,$3*
1,1,$1+$1,$4,$5*
1,1,$1+$1,$6,$7*
1,1,$1+$1,$8,$9*
0 Add four rect primitives between the rounded corners*
20,1,$1+$1,$2,$3,$4,$5,0*
20,1,$1+$1,$4,$5,$6,$7,0*
20,1,$1+$1,$6,$7,$8,$9,0*
20,1,$1+$1,$8,$9,$2,$3,0*%
G04 Aperture macros list end*
%ADD10RoundRect,0.250000X0.475000X-0.337500X0.475000X0.337500X-0.475000X0.337500X-0.475000X-0.337500X0*%
%ADD11RoundRect,0.250000X0.337500X0.475000X-0.337500X0.475000X-0.337500X-0.475000X0.337500X-0.475000X0*%
%ADD12RoundRect,0.250000X-0.325000X-0.450000X0.325000X-0.450000X0.325000X0.450000X-0.325000X0.450000X0*%
%ADD13RoundRect,0.250000X-0.350000X-0.450000X0.350000X-0.450000X0.350000X0.450000X-0.350000X0.450000X0*%
%ADD14RoundRect,0.150000X-0.512500X-0.150000X0.512500X-0.150000X0.512500X0.150000X-0.512500X0.150000X0*%
%ADD15RoundRect,0.250000X0.262500X0.450000X-0.262500X0.450000X-0.262500X-0.450000X0.262500X-0.450000X0*%
G04 APERTURE END LIST*
D10*
X89976950Y-47940900D03*
X89976950Y-45865900D03*
D11*
X92030450Y-30758000D03*
X89955450Y-30758000D03*
D12*
X81089450Y-18074400D03*
X83139450Y-18074400D03*
D11*
X92037450Y-37362000D03*
X89962450Y-37362000D03*
D13*
X96222950Y-53507000D03*
X98222950Y-53507000D03*
X96215950Y-46685500D03*
X98215950Y-46685500D03*
D14*
X92014450Y-19648000D03*
X92014450Y-20598000D03*
X92014450Y-21548000D03*
X94289450Y-21548000D03*
X94289450Y-20598000D03*
X94289450Y-19648000D03*
X92014450Y-52615000D03*
X92014450Y-53565000D03*
X92014450Y-54515000D03*
X94289450Y-54515000D03*
X94289450Y-53565000D03*
X94289450Y-52615000D03*
X92050450Y-39338000D03*
X92050450Y-40288000D03*
X92050450Y-41238000D03*
X94325450Y-41238000D03*
X94325450Y-40288000D03*
X94325450Y-39338000D03*
D10*
X89976950Y-21635500D03*
X89976950Y-19560500D03*
D11*
X92030450Y-17677000D03*
X89955450Y-17677000D03*
D10*
X89976950Y-41394500D03*
X89976950Y-39319500D03*
D11*
X92030450Y-43982400D03*
X89955450Y-43982400D03*
D13*
X96215950Y-20598000D03*
X98215950Y-20598000D03*
X96215950Y-27202000D03*
X98215950Y-27202000D03*
D15*
X79906500Y-56692800D03*
X78081500Y-56692800D03*
D14*
X92014450Y-32698000D03*
X92014450Y-33648000D03*
X92014450Y-34598000D03*
X94289450Y-34598000D03*
X94289450Y-33648000D03*
X94289450Y-32698000D03*
X92014450Y-45815500D03*
X92014450Y-46765500D03*
X92014450Y-47715500D03*
X94289450Y-47715500D03*
X94289450Y-46765500D03*
X94289450Y-45815500D03*
D11*
X92030450Y-24281000D03*
X89955450Y-24281000D03*
X92037450Y-50697000D03*
X89962450Y-50697000D03*
D13*
X96215950Y-33679000D03*
X98215950Y-33679000D03*
D10*
X89983950Y-54671500D03*
X89983950Y-52596500D03*
D13*
X96199950Y-40230000D03*
X98199950Y-40230000D03*
D14*
X92014450Y-26252000D03*
X92014450Y-27202000D03*
X92014450Y-28152000D03*
X94289450Y-28152000D03*
X94289450Y-27202000D03*
X94289450Y-26252000D03*
D10*
X89976950Y-34716500D03*
X89976950Y-32641500D03*
D15*
X82700500Y-51943000D03*
X80875500Y-51943000D03*
D10*
X89976950Y-28239500D03*
X89976950Y-26164500D03*
M02*
