G04 #@! TF.GenerationSoftware,KiCad,Pcbnew,(6.0.6)*
G04 #@! TF.CreationDate,2022-08-29T16:00:50+02:00*
G04 #@! TF.ProjectId,adc-board-six-channels,6164632d-626f-4617-9264-2d7369782d63,rev?*
G04 #@! TF.SameCoordinates,Original*
G04 #@! TF.FileFunction,Soldermask,Bot*
G04 #@! TF.FilePolarity,Negative*
%FSLAX46Y46*%
G04 Gerber Fmt 4.6, Leading zero omitted, Abs format (unit mm)*
G04 Created by KiCad (PCBNEW (6.0.6)) date 2022-08-29 16:00:50*
%MOMM*%
%LPD*%
G01*
G04 APERTURE LIST*
G04 Aperture macros list*
%AMRoundRect*
0 Rectangle with rounded corners*
0 $1 Rounding radius*
0 $2 $3 $4 $5 $6 $7 $8 $9 X,Y pos of 4 corners*
0 Add a 4 corners polygon primitive as box body*
4,1,4,$2,$3,$4,$5,$6,$7,$8,$9,$2,$3,0*
0 Add four circle primitives for the rounded corners*
1,1,$1+$1,$2,$3*
1,1,$1+$1,$4,$5*
1,1,$1+$1,$6,$7*
1,1,$1+$1,$8,$9*
0 Add four rect primitives between the rounded corners*
20,1,$1+$1,$2,$3,$4,$5,0*
20,1,$1+$1,$4,$5,$6,$7,0*
20,1,$1+$1,$6,$7,$8,$9,0*
20,1,$1+$1,$8,$9,$2,$3,0*%
G04 Aperture macros list end*
%ADD10R,1.700000X1.700000*%
%ADD11O,1.700000X1.700000*%
%ADD12C,3.200000*%
%ADD13RoundRect,0.250000X-0.350000X-0.450000X0.350000X-0.450000X0.350000X0.450000X-0.350000X0.450000X0*%
%ADD14RoundRect,0.250000X0.337500X0.475000X-0.337500X0.475000X-0.337500X-0.475000X0.337500X-0.475000X0*%
%ADD15RoundRect,0.250000X0.350000X0.450000X-0.350000X0.450000X-0.350000X-0.450000X0.350000X-0.450000X0*%
%ADD16RoundRect,0.250000X-0.262500X-0.450000X0.262500X-0.450000X0.262500X0.450000X-0.262500X0.450000X0*%
G04 APERTURE END LIST*
D10*
X81906450Y-46355000D03*
D11*
X79366450Y-46355000D03*
X81906450Y-43815000D03*
X79366450Y-43815000D03*
X81906450Y-41275000D03*
X79366450Y-41275000D03*
X81906450Y-38735000D03*
X79366450Y-38735000D03*
X81906450Y-36195000D03*
X79366450Y-36195000D03*
X81906450Y-33655000D03*
X79366450Y-33655000D03*
X81906450Y-31115000D03*
X79366450Y-31115000D03*
X81906450Y-28575000D03*
X79366450Y-28575000D03*
D10*
X103655950Y-28605000D03*
D11*
X106195950Y-28605000D03*
X103655950Y-31145000D03*
X106195950Y-31145000D03*
X103655950Y-33685000D03*
X106195950Y-33685000D03*
X103655950Y-36225000D03*
X106195950Y-36225000D03*
X103655950Y-38765000D03*
X106195950Y-38765000D03*
X103655950Y-41305000D03*
X106195950Y-41305000D03*
X103655950Y-43845000D03*
X106195950Y-43845000D03*
X103655950Y-46385000D03*
X106195950Y-46385000D03*
D12*
X107086400Y-55702200D03*
X107137200Y-19278600D03*
D13*
X87967950Y-21630000D03*
X89967950Y-21630000D03*
D14*
X92030450Y-32663000D03*
X89955450Y-32663000D03*
X92030450Y-26186000D03*
X89955450Y-26186000D03*
D13*
X87967950Y-41442000D03*
X89967950Y-41442000D03*
D15*
X100635950Y-35854000D03*
X98635950Y-35854000D03*
D14*
X92037450Y-52618000D03*
X89962450Y-52618000D03*
X92030450Y-19582000D03*
X89955450Y-19582000D03*
X92030450Y-45796500D03*
X89955450Y-45796500D03*
D16*
X81201950Y-18074400D03*
X83026950Y-18074400D03*
D13*
X87967950Y-54650000D03*
X89967950Y-54650000D03*
X98873950Y-31028000D03*
X100873950Y-31028000D03*
D14*
X92030450Y-39341000D03*
X89955450Y-39341000D03*
D13*
X87967950Y-28234000D03*
X89967950Y-28234000D03*
X87967950Y-47842800D03*
X89967950Y-47842800D03*
X87948950Y-34736400D03*
X89948950Y-34736400D03*
M02*
