G04 #@! TF.GenerationSoftware,KiCad,Pcbnew,(6.0.6)*
G04 #@! TF.CreationDate,2022-08-29T16:00:50+02:00*
G04 #@! TF.ProjectId,adc-board-six-channels,6164632d-626f-4617-9264-2d7369782d63,rev?*
G04 #@! TF.SameCoordinates,Original*
G04 #@! TF.FileFunction,Copper,L2,Bot*
G04 #@! TF.FilePolarity,Positive*
%FSLAX46Y46*%
G04 Gerber Fmt 4.6, Leading zero omitted, Abs format (unit mm)*
G04 Created by KiCad (PCBNEW (6.0.6)) date 2022-08-29 16:00:50*
%MOMM*%
%LPD*%
G01*
G04 APERTURE LIST*
G04 Aperture macros list*
%AMRoundRect*
0 Rectangle with rounded corners*
0 $1 Rounding radius*
0 $2 $3 $4 $5 $6 $7 $8 $9 X,Y pos of 4 corners*
0 Add a 4 corners polygon primitive as box body*
4,1,4,$2,$3,$4,$5,$6,$7,$8,$9,$2,$3,0*
0 Add four circle primitives for the rounded corners*
1,1,$1+$1,$2,$3*
1,1,$1+$1,$4,$5*
1,1,$1+$1,$6,$7*
1,1,$1+$1,$8,$9*
0 Add four rect primitives between the rounded corners*
20,1,$1+$1,$2,$3,$4,$5,0*
20,1,$1+$1,$4,$5,$6,$7,0*
20,1,$1+$1,$6,$7,$8,$9,0*
20,1,$1+$1,$8,$9,$2,$3,0*%
G04 Aperture macros list end*
G04 #@! TA.AperFunction,ComponentPad*
%ADD10R,1.700000X1.700000*%
G04 #@! TD*
G04 #@! TA.AperFunction,ComponentPad*
%ADD11O,1.700000X1.700000*%
G04 #@! TD*
G04 #@! TA.AperFunction,SMDPad,CuDef*
%ADD12RoundRect,0.250000X-0.350000X-0.450000X0.350000X-0.450000X0.350000X0.450000X-0.350000X0.450000X0*%
G04 #@! TD*
G04 #@! TA.AperFunction,SMDPad,CuDef*
%ADD13RoundRect,0.250000X0.337500X0.475000X-0.337500X0.475000X-0.337500X-0.475000X0.337500X-0.475000X0*%
G04 #@! TD*
G04 #@! TA.AperFunction,SMDPad,CuDef*
%ADD14RoundRect,0.250000X0.350000X0.450000X-0.350000X0.450000X-0.350000X-0.450000X0.350000X-0.450000X0*%
G04 #@! TD*
G04 #@! TA.AperFunction,SMDPad,CuDef*
%ADD15RoundRect,0.250000X-0.262500X-0.450000X0.262500X-0.450000X0.262500X0.450000X-0.262500X0.450000X0*%
G04 #@! TD*
G04 #@! TA.AperFunction,ViaPad*
%ADD16C,0.800000*%
G04 #@! TD*
G04 #@! TA.AperFunction,Conductor*
%ADD17C,0.350000*%
G04 #@! TD*
G04 #@! TA.AperFunction,Conductor*
%ADD18C,0.254000*%
G04 #@! TD*
G04 APERTURE END LIST*
D10*
X81906450Y-46355000D03*
D11*
X79366450Y-46355000D03*
X81906450Y-43815000D03*
X79366450Y-43815000D03*
X81906450Y-41275000D03*
X79366450Y-41275000D03*
X81906450Y-38735000D03*
X79366450Y-38735000D03*
X81906450Y-36195000D03*
X79366450Y-36195000D03*
X81906450Y-33655000D03*
X79366450Y-33655000D03*
X81906450Y-31115000D03*
X79366450Y-31115000D03*
X81906450Y-28575000D03*
X79366450Y-28575000D03*
D10*
X103655950Y-28605000D03*
D11*
X106195950Y-28605000D03*
X103655950Y-31145000D03*
X106195950Y-31145000D03*
X103655950Y-33685000D03*
X106195950Y-33685000D03*
X103655950Y-36225000D03*
X106195950Y-36225000D03*
X103655950Y-38765000D03*
X106195950Y-38765000D03*
X103655950Y-41305000D03*
X106195950Y-41305000D03*
X103655950Y-43845000D03*
X106195950Y-43845000D03*
X103655950Y-46385000D03*
X106195950Y-46385000D03*
D12*
X87967950Y-21630000D03*
X89967950Y-21630000D03*
D13*
X92030450Y-32663000D03*
X89955450Y-32663000D03*
X92030450Y-26186000D03*
X89955450Y-26186000D03*
D12*
X87967950Y-41442000D03*
X89967950Y-41442000D03*
D14*
X100635950Y-35854000D03*
X98635950Y-35854000D03*
D13*
X92037450Y-52618000D03*
X89962450Y-52618000D03*
X92030450Y-19582000D03*
X89955450Y-19582000D03*
X92030450Y-45796500D03*
X89955450Y-45796500D03*
D15*
X81201950Y-18074400D03*
X83026950Y-18074400D03*
D12*
X87967950Y-54650000D03*
X89967950Y-54650000D03*
X98873950Y-31028000D03*
X100873950Y-31028000D03*
D13*
X92030450Y-39341000D03*
X89955450Y-39341000D03*
D12*
X87967950Y-28234000D03*
X89967950Y-28234000D03*
X87967950Y-47842800D03*
X89967950Y-47842800D03*
X87948950Y-34736400D03*
X89948950Y-34736400D03*
D16*
X82700500Y-51943000D03*
X92015950Y-52602000D03*
X92015950Y-19635000D03*
X92015950Y-39267000D03*
X92015950Y-26112000D03*
X87630000Y-45339000D03*
X92015950Y-45744000D03*
X79959200Y-56692800D03*
X86995000Y-49530000D03*
X92015950Y-32589000D03*
X95453200Y-50495200D03*
X89964950Y-45887400D03*
X89983950Y-39267000D03*
X89983950Y-32589000D03*
X89983950Y-52602000D03*
X89983950Y-26112000D03*
X95326200Y-37007800D03*
X95326200Y-24003000D03*
X94488000Y-29641800D03*
X95300800Y-43307000D03*
X89983950Y-19508000D03*
X89964950Y-21630400D03*
X89964950Y-28234400D03*
X89964950Y-34711400D03*
X89964950Y-41442400D03*
X89964950Y-47919400D03*
X89983950Y-54671500D03*
X81127600Y-18084800D03*
X87932950Y-54650400D03*
X87944075Y-47818925D03*
X85648800Y-39319200D03*
X85648800Y-28219400D03*
X85138950Y-21630400D03*
X98619950Y-35854000D03*
X95952950Y-31028000D03*
D17*
X80721200Y-56692800D02*
X82700500Y-54713500D01*
X86938950Y-46030050D02*
X87630000Y-45339000D01*
X84582000Y-51943000D02*
X86995000Y-49530000D01*
X82700500Y-51943000D02*
X84582000Y-51943000D01*
X86995000Y-49530000D02*
X86938950Y-49473950D01*
X82700500Y-54713500D02*
X82700500Y-51943000D01*
X79959200Y-56692800D02*
X80721200Y-56692800D01*
X86938950Y-49473950D02*
X86938950Y-46030050D01*
D18*
X87944075Y-47818925D02*
X87967950Y-47842800D01*
X87771600Y-41442000D02*
X87967950Y-41442000D01*
X85648800Y-39319200D02*
X87771600Y-41442000D01*
X87948950Y-34736400D02*
X86867550Y-33655000D01*
X86867550Y-33655000D02*
X81906450Y-33655000D01*
X85648800Y-28219400D02*
X85663400Y-28234000D01*
X85663400Y-28234000D02*
X87967950Y-28234000D01*
X87932950Y-21630400D02*
X85138950Y-21630400D01*
X102299950Y-32454000D02*
X100873950Y-31028000D01*
X106195950Y-33685000D02*
X104964950Y-32454000D01*
X104964950Y-32454000D02*
X102299950Y-32454000D01*
X106195950Y-36225000D02*
X104964950Y-34994000D01*
X104964950Y-34994000D02*
X101495950Y-34994000D01*
X101495950Y-34994000D02*
X100635950Y-35854000D01*
X98873950Y-31028000D02*
X95952950Y-31028000D01*
G04 #@! TA.AperFunction,Conductor*
G36*
X109702071Y-15750102D02*
G01*
X109748564Y-15803758D01*
X109759950Y-15856100D01*
X109759950Y-59103100D01*
X109739948Y-59171221D01*
X109686292Y-59217714D01*
X109633950Y-59229100D01*
X75886950Y-59229100D01*
X75818829Y-59209098D01*
X75772336Y-59155442D01*
X75760950Y-59103100D01*
X75760950Y-56685896D01*
X79299929Y-56685896D01*
X79317313Y-56843353D01*
X79319923Y-56850484D01*
X79319923Y-56850486D01*
X79362047Y-56965595D01*
X79371753Y-56992119D01*
X79375989Y-56998422D01*
X79375989Y-56998423D01*
X79455168Y-57116253D01*
X79460108Y-57123605D01*
X79465727Y-57128718D01*
X79465728Y-57128719D01*
X79491851Y-57152489D01*
X79577276Y-57230219D01*
X79716493Y-57305808D01*
X79869722Y-57346007D01*
X79953677Y-57347326D01*
X80020519Y-57348376D01*
X80020522Y-57348376D01*
X80028116Y-57348495D01*
X80182532Y-57313129D01*
X80252942Y-57277717D01*
X80317272Y-57245363D01*
X80317275Y-57245361D01*
X80324055Y-57241951D01*
X80428802Y-57152489D01*
X80493591Y-57123458D01*
X80510632Y-57122300D01*
X80688231Y-57122300D01*
X80703041Y-57123173D01*
X80734843Y-57126937D01*
X80744107Y-57125245D01*
X80744108Y-57125245D01*
X80789783Y-57116903D01*
X80793689Y-57116253D01*
X80839605Y-57109350D01*
X80848917Y-57107950D01*
X80855124Y-57104969D01*
X80861894Y-57103733D01*
X80870250Y-57099393D01*
X80870257Y-57099390D01*
X80911473Y-57077979D01*
X80914950Y-57076241D01*
X80965341Y-57052043D01*
X80970396Y-57047371D01*
X80976505Y-57044197D01*
X80981321Y-57040083D01*
X81016745Y-57004659D01*
X81020312Y-57001229D01*
X81053261Y-56970772D01*
X81053262Y-56970771D01*
X81060181Y-56964375D01*
X81063740Y-56958249D01*
X81068764Y-56952640D01*
X82277019Y-55744386D01*
X105227418Y-55744386D01*
X105252979Y-56012300D01*
X105254064Y-56016734D01*
X105254065Y-56016740D01*
X105304518Y-56222923D01*
X105316947Y-56273718D01*
X105417983Y-56523163D01*
X105553969Y-56755410D01*
X105556822Y-56758977D01*
X105711698Y-56952640D01*
X105722058Y-56965595D01*
X105918727Y-57149313D01*
X106139857Y-57302716D01*
X106380816Y-57422591D01*
X106385150Y-57424012D01*
X106385153Y-57424013D01*
X106632223Y-57505007D01*
X106632229Y-57505008D01*
X106636556Y-57506427D01*
X106641047Y-57507207D01*
X106641048Y-57507207D01*
X106897938Y-57551811D01*
X106897946Y-57551812D01*
X106901719Y-57552467D01*
X106905556Y-57552658D01*
X106985177Y-57556622D01*
X106985185Y-57556622D01*
X106986748Y-57556700D01*
X107154774Y-57556700D01*
X107157042Y-57556535D01*
X107157054Y-57556535D01*
X107287857Y-57547044D01*
X107354825Y-57542185D01*
X107359280Y-57541201D01*
X107359283Y-57541201D01*
X107613170Y-57485147D01*
X107613172Y-57485146D01*
X107617626Y-57484163D01*
X107869300Y-57388813D01*
X107942101Y-57348376D01*
X108100579Y-57260349D01*
X108100580Y-57260348D01*
X108104572Y-57258131D01*
X108260581Y-57139069D01*
X108314891Y-57097621D01*
X108314895Y-57097617D01*
X108318516Y-57094854D01*
X108360367Y-57052043D01*
X108446067Y-56964375D01*
X108506649Y-56902403D01*
X108613642Y-56755410D01*
X108662342Y-56688504D01*
X108662347Y-56688497D01*
X108665030Y-56684810D01*
X108790341Y-56446633D01*
X108879957Y-56192862D01*
X108910507Y-56037862D01*
X108931120Y-55933283D01*
X108931121Y-55933277D01*
X108932001Y-55928811D01*
X108941182Y-55744386D01*
X108945155Y-55664583D01*
X108945155Y-55664577D01*
X108945382Y-55660014D01*
X108919821Y-55392100D01*
X108909996Y-55351946D01*
X108856939Y-55135120D01*
X108855853Y-55130682D01*
X108754817Y-54881237D01*
X108658006Y-54715896D01*
X108621141Y-54652935D01*
X108621140Y-54652934D01*
X108618831Y-54648990D01*
X108498672Y-54498738D01*
X108453594Y-54442371D01*
X108453593Y-54442369D01*
X108450742Y-54438805D01*
X108254073Y-54255087D01*
X108032943Y-54101684D01*
X107791984Y-53981809D01*
X107787650Y-53980388D01*
X107787647Y-53980387D01*
X107540577Y-53899393D01*
X107540571Y-53899392D01*
X107536244Y-53897973D01*
X107531752Y-53897193D01*
X107274862Y-53852589D01*
X107274854Y-53852588D01*
X107271081Y-53851933D01*
X107261118Y-53851437D01*
X107187623Y-53847778D01*
X107187615Y-53847778D01*
X107186052Y-53847700D01*
X107018026Y-53847700D01*
X107015758Y-53847865D01*
X107015746Y-53847865D01*
X106884943Y-53857356D01*
X106817975Y-53862215D01*
X106813520Y-53863199D01*
X106813517Y-53863199D01*
X106559630Y-53919253D01*
X106559628Y-53919254D01*
X106555174Y-53920237D01*
X106303500Y-54015587D01*
X106299514Y-54017801D01*
X106299512Y-54017802D01*
X106154403Y-54098403D01*
X106068228Y-54146269D01*
X106064596Y-54149041D01*
X105857909Y-54306779D01*
X105857905Y-54306783D01*
X105854284Y-54309546D01*
X105666151Y-54501997D01*
X105663466Y-54505686D01*
X105510458Y-54715896D01*
X105510453Y-54715903D01*
X105507770Y-54719590D01*
X105382459Y-54957767D01*
X105380938Y-54962075D01*
X105296354Y-55201597D01*
X105292843Y-55211538D01*
X105268241Y-55336360D01*
X105257255Y-55392100D01*
X105240799Y-55475589D01*
X105240572Y-55480142D01*
X105240572Y-55480145D01*
X105231391Y-55664583D01*
X105227418Y-55744386D01*
X82277019Y-55744386D01*
X82873649Y-55147756D01*
X87113450Y-55147756D01*
X87120152Y-55209448D01*
X87170879Y-55344764D01*
X87176259Y-55351943D01*
X87176261Y-55351946D01*
X87242237Y-55439977D01*
X87257546Y-55460404D01*
X87264726Y-55465785D01*
X87366004Y-55541689D01*
X87366007Y-55541691D01*
X87373186Y-55547071D01*
X87462904Y-55580704D01*
X87501107Y-55595026D01*
X87501109Y-55595026D01*
X87508502Y-55597798D01*
X87516352Y-55598651D01*
X87516353Y-55598651D01*
X87566797Y-55604131D01*
X87570194Y-55604500D01*
X88365706Y-55604500D01*
X88369103Y-55604131D01*
X88419547Y-55598651D01*
X88419548Y-55598651D01*
X88427398Y-55597798D01*
X88434791Y-55595026D01*
X88434793Y-55595026D01*
X88472996Y-55580704D01*
X88562714Y-55547071D01*
X88569893Y-55541691D01*
X88569896Y-55541689D01*
X88671174Y-55465785D01*
X88678354Y-55460404D01*
X88693663Y-55439977D01*
X88759639Y-55351946D01*
X88759641Y-55351943D01*
X88765021Y-55344764D01*
X88815748Y-55209448D01*
X88822450Y-55147756D01*
X89113450Y-55147756D01*
X89120152Y-55209448D01*
X89170879Y-55344764D01*
X89176259Y-55351943D01*
X89176261Y-55351946D01*
X89242237Y-55439977D01*
X89257546Y-55460404D01*
X89264726Y-55465785D01*
X89366004Y-55541689D01*
X89366007Y-55541691D01*
X89373186Y-55547071D01*
X89462904Y-55580704D01*
X89501107Y-55595026D01*
X89501109Y-55595026D01*
X89508502Y-55597798D01*
X89516352Y-55598651D01*
X89516353Y-55598651D01*
X89566797Y-55604131D01*
X89570194Y-55604500D01*
X90365706Y-55604500D01*
X90369103Y-55604131D01*
X90419547Y-55598651D01*
X90419548Y-55598651D01*
X90427398Y-55597798D01*
X90434791Y-55595026D01*
X90434793Y-55595026D01*
X90472996Y-55580704D01*
X90562714Y-55547071D01*
X90569893Y-55541691D01*
X90569896Y-55541689D01*
X90671174Y-55465785D01*
X90678354Y-55460404D01*
X90693663Y-55439977D01*
X90759639Y-55351946D01*
X90759641Y-55351943D01*
X90765021Y-55344764D01*
X90815748Y-55209448D01*
X90822450Y-55147756D01*
X90822450Y-54152244D01*
X90815748Y-54090552D01*
X90765021Y-53955236D01*
X90759641Y-53948057D01*
X90759639Y-53948054D01*
X90683735Y-53846776D01*
X90678354Y-53839596D01*
X90562714Y-53752929D01*
X90556992Y-53750784D01*
X90507865Y-53701549D01*
X90492850Y-53632158D01*
X90517734Y-53565665D01*
X90545776Y-53541367D01*
X90544472Y-53539628D01*
X90652817Y-53458428D01*
X90665378Y-53445867D01*
X90741196Y-53344704D01*
X90749728Y-53329118D01*
X90794483Y-53209735D01*
X90798108Y-53194490D01*
X90803581Y-53144108D01*
X90803763Y-53140756D01*
X91195450Y-53140756D01*
X91202152Y-53202448D01*
X91252879Y-53337764D01*
X91258259Y-53344943D01*
X91258261Y-53344946D01*
X91324237Y-53432977D01*
X91339546Y-53453404D01*
X91346726Y-53458785D01*
X91448004Y-53534689D01*
X91448007Y-53534691D01*
X91455186Y-53540071D01*
X91523459Y-53565665D01*
X91583107Y-53588026D01*
X91583109Y-53588026D01*
X91590502Y-53590798D01*
X91598352Y-53591651D01*
X91598353Y-53591651D01*
X91648797Y-53597131D01*
X91652194Y-53597500D01*
X92422706Y-53597500D01*
X92426103Y-53597131D01*
X92476547Y-53591651D01*
X92476548Y-53591651D01*
X92484398Y-53590798D01*
X92491791Y-53588026D01*
X92491793Y-53588026D01*
X92551441Y-53565665D01*
X92619714Y-53540071D01*
X92626893Y-53534691D01*
X92626896Y-53534689D01*
X92728174Y-53458785D01*
X92735354Y-53453404D01*
X92750663Y-53432977D01*
X92816639Y-53344946D01*
X92816641Y-53344943D01*
X92822021Y-53337764D01*
X92872748Y-53202448D01*
X92879450Y-53140756D01*
X92879450Y-52095244D01*
X92872748Y-52033552D01*
X92822021Y-51898236D01*
X92816641Y-51891057D01*
X92816639Y-51891054D01*
X92740735Y-51789776D01*
X92735354Y-51782596D01*
X92714927Y-51767287D01*
X92626896Y-51701311D01*
X92626893Y-51701309D01*
X92619714Y-51695929D01*
X92493116Y-51648470D01*
X92491793Y-51647974D01*
X92491791Y-51647974D01*
X92484398Y-51645202D01*
X92476548Y-51644349D01*
X92476547Y-51644349D01*
X92426103Y-51638869D01*
X92426102Y-51638869D01*
X92422706Y-51638500D01*
X91652194Y-51638500D01*
X91648798Y-51638869D01*
X91648797Y-51638869D01*
X91598353Y-51644349D01*
X91598352Y-51644349D01*
X91590502Y-51645202D01*
X91583109Y-51647974D01*
X91583107Y-51647974D01*
X91581784Y-51648470D01*
X91455186Y-51695929D01*
X91448007Y-51701309D01*
X91448004Y-51701311D01*
X91359973Y-51767287D01*
X91339546Y-51782596D01*
X91334165Y-51789776D01*
X91258261Y-51891054D01*
X91258259Y-51891057D01*
X91252879Y-51898236D01*
X91202152Y-52033552D01*
X91195450Y-52095244D01*
X91195450Y-53140756D01*
X90803763Y-53140756D01*
X90803950Y-53137294D01*
X90803950Y-52890115D01*
X90799475Y-52874876D01*
X90798085Y-52873671D01*
X90790402Y-52872000D01*
X89139066Y-52872000D01*
X89123827Y-52876475D01*
X89122622Y-52877865D01*
X89120951Y-52885548D01*
X89120951Y-53137292D01*
X89121320Y-53144110D01*
X89126791Y-53194482D01*
X89130420Y-53209741D01*
X89175172Y-53329118D01*
X89183704Y-53344704D01*
X89259522Y-53445867D01*
X89272083Y-53458428D01*
X89380428Y-53539628D01*
X89379484Y-53540887D01*
X89422534Y-53584031D01*
X89437550Y-53653421D01*
X89412667Y-53719914D01*
X89375620Y-53752017D01*
X89373186Y-53752929D01*
X89257546Y-53839596D01*
X89252165Y-53846776D01*
X89176261Y-53948054D01*
X89176259Y-53948057D01*
X89170879Y-53955236D01*
X89120152Y-54090552D01*
X89113450Y-54152244D01*
X89113450Y-55147756D01*
X88822450Y-55147756D01*
X88822450Y-54152244D01*
X88815748Y-54090552D01*
X88765021Y-53955236D01*
X88759641Y-53948057D01*
X88759639Y-53948054D01*
X88683735Y-53846776D01*
X88678354Y-53839596D01*
X88657927Y-53824287D01*
X88569896Y-53758311D01*
X88569893Y-53758309D01*
X88562714Y-53752929D01*
X88472996Y-53719296D01*
X88434793Y-53704974D01*
X88434791Y-53704974D01*
X88427398Y-53702202D01*
X88419548Y-53701349D01*
X88419547Y-53701349D01*
X88369103Y-53695869D01*
X88369102Y-53695869D01*
X88365706Y-53695500D01*
X87570194Y-53695500D01*
X87566798Y-53695869D01*
X87566797Y-53695869D01*
X87516353Y-53701349D01*
X87516352Y-53701349D01*
X87508502Y-53702202D01*
X87501109Y-53704974D01*
X87501107Y-53704974D01*
X87462904Y-53719296D01*
X87373186Y-53752929D01*
X87366007Y-53758309D01*
X87366004Y-53758311D01*
X87277973Y-53824287D01*
X87257546Y-53839596D01*
X87252165Y-53846776D01*
X87176261Y-53948054D01*
X87176259Y-53948057D01*
X87170879Y-53955236D01*
X87120152Y-54090552D01*
X87113450Y-54152244D01*
X87113450Y-55147756D01*
X82873649Y-55147756D01*
X82980891Y-55040514D01*
X82991980Y-55030659D01*
X83009731Y-55016665D01*
X83017128Y-55010834D01*
X83048871Y-54964905D01*
X83051166Y-54961693D01*
X83078768Y-54924324D01*
X83078769Y-54924323D01*
X83084365Y-54916746D01*
X83086647Y-54910249D01*
X83090559Y-54904588D01*
X83107395Y-54851352D01*
X83108646Y-54847603D01*
X83124036Y-54803780D01*
X83124038Y-54803772D01*
X83127157Y-54794889D01*
X83127427Y-54788010D01*
X83129503Y-54781447D01*
X83130000Y-54775133D01*
X83130000Y-54725015D01*
X83130097Y-54720068D01*
X83131858Y-54675246D01*
X83132228Y-54665837D01*
X83130413Y-54658994D01*
X83130000Y-54651481D01*
X83130000Y-52498500D01*
X83150002Y-52430379D01*
X83203658Y-52383886D01*
X83256000Y-52372500D01*
X84549031Y-52372500D01*
X84563841Y-52373373D01*
X84595643Y-52377137D01*
X84604907Y-52375445D01*
X84604908Y-52375445D01*
X84650583Y-52367103D01*
X84654489Y-52366453D01*
X84700405Y-52359550D01*
X84709717Y-52358150D01*
X84715924Y-52355169D01*
X84722694Y-52353933D01*
X84731050Y-52349593D01*
X84731057Y-52349590D01*
X84738189Y-52345885D01*
X89120950Y-52345885D01*
X89125425Y-52361124D01*
X89126815Y-52362329D01*
X89134498Y-52364000D01*
X89690335Y-52364000D01*
X89705574Y-52359525D01*
X89706779Y-52358135D01*
X89708450Y-52350452D01*
X89708450Y-52345885D01*
X90216450Y-52345885D01*
X90220925Y-52361124D01*
X90222315Y-52362329D01*
X90229998Y-52364000D01*
X90785834Y-52364000D01*
X90801073Y-52359525D01*
X90802278Y-52358135D01*
X90803949Y-52350452D01*
X90803949Y-52098708D01*
X90803580Y-52091890D01*
X90798109Y-52041518D01*
X90794480Y-52026259D01*
X90749728Y-51906882D01*
X90741196Y-51891296D01*
X90665378Y-51790133D01*
X90652817Y-51777572D01*
X90551654Y-51701754D01*
X90536068Y-51693222D01*
X90416685Y-51648467D01*
X90401440Y-51644842D01*
X90351058Y-51639369D01*
X90344244Y-51639000D01*
X90234565Y-51639000D01*
X90219326Y-51643475D01*
X90218121Y-51644865D01*
X90216450Y-51652548D01*
X90216450Y-52345885D01*
X89708450Y-52345885D01*
X89708450Y-51657116D01*
X89703975Y-51641877D01*
X89702585Y-51640672D01*
X89694902Y-51639001D01*
X89580658Y-51639001D01*
X89573840Y-51639370D01*
X89523468Y-51644841D01*
X89508209Y-51648470D01*
X89388832Y-51693222D01*
X89373246Y-51701754D01*
X89272083Y-51777572D01*
X89259522Y-51790133D01*
X89183704Y-51891296D01*
X89175172Y-51906882D01*
X89130417Y-52026265D01*
X89126792Y-52041510D01*
X89121319Y-52091892D01*
X89120950Y-52098706D01*
X89120950Y-52345885D01*
X84738189Y-52345885D01*
X84772273Y-52328179D01*
X84775750Y-52326441D01*
X84826141Y-52302243D01*
X84831196Y-52297571D01*
X84837305Y-52294397D01*
X84842121Y-52290283D01*
X84877545Y-52254859D01*
X84881112Y-52251429D01*
X84914061Y-52220972D01*
X84914062Y-52220971D01*
X84920981Y-52214575D01*
X84924540Y-52208449D01*
X84929564Y-52202840D01*
X86910795Y-50221609D01*
X86973107Y-50187583D01*
X87001869Y-50184720D01*
X87019435Y-50184996D01*
X87056319Y-50185576D01*
X87056322Y-50185576D01*
X87063916Y-50185695D01*
X87218332Y-50150329D01*
X87288742Y-50114917D01*
X87353072Y-50082563D01*
X87353075Y-50082561D01*
X87359855Y-50079151D01*
X87365626Y-50074222D01*
X87365629Y-50074220D01*
X87474536Y-49981204D01*
X87474536Y-49981203D01*
X87480314Y-49976269D01*
X87572755Y-49847624D01*
X87631842Y-49700641D01*
X87643614Y-49617925D01*
X87653581Y-49547891D01*
X87653581Y-49547888D01*
X87654162Y-49543807D01*
X87654307Y-49530000D01*
X87635276Y-49372733D01*
X87579280Y-49224546D01*
X87489553Y-49093992D01*
X87483882Y-49088940D01*
X87483880Y-49088937D01*
X87410632Y-49023676D01*
X87373076Y-48963426D01*
X87368450Y-48929599D01*
X87368450Y-48915755D01*
X87388452Y-48847634D01*
X87442108Y-48801141D01*
X87508392Y-48791611D01*
X87508502Y-48790598D01*
X87570194Y-48797300D01*
X88365706Y-48797300D01*
X88369103Y-48796931D01*
X88419547Y-48791451D01*
X88419548Y-48791451D01*
X88427398Y-48790598D01*
X88434791Y-48787826D01*
X88434793Y-48787826D01*
X88472996Y-48773504D01*
X88562714Y-48739871D01*
X88569893Y-48734491D01*
X88569896Y-48734489D01*
X88671174Y-48658585D01*
X88678354Y-48653204D01*
X88693663Y-48632777D01*
X88759639Y-48544746D01*
X88759641Y-48544743D01*
X88765021Y-48537564D01*
X88815748Y-48402248D01*
X88822450Y-48340556D01*
X89113450Y-48340556D01*
X89120152Y-48402248D01*
X89170879Y-48537564D01*
X89176259Y-48544743D01*
X89176261Y-48544746D01*
X89242237Y-48632777D01*
X89257546Y-48653204D01*
X89264726Y-48658585D01*
X89366004Y-48734489D01*
X89366007Y-48734491D01*
X89373186Y-48739871D01*
X89462904Y-48773504D01*
X89501107Y-48787826D01*
X89501109Y-48787826D01*
X89508502Y-48790598D01*
X89516352Y-48791451D01*
X89516353Y-48791451D01*
X89566797Y-48796931D01*
X89570194Y-48797300D01*
X90365706Y-48797300D01*
X90369103Y-48796931D01*
X90419547Y-48791451D01*
X90419548Y-48791451D01*
X90427398Y-48790598D01*
X90434791Y-48787826D01*
X90434793Y-48787826D01*
X90472996Y-48773504D01*
X90562714Y-48739871D01*
X90569893Y-48734491D01*
X90569896Y-48734489D01*
X90671174Y-48658585D01*
X90678354Y-48653204D01*
X90693663Y-48632777D01*
X90759639Y-48544746D01*
X90759641Y-48544743D01*
X90765021Y-48537564D01*
X90815748Y-48402248D01*
X90822450Y-48340556D01*
X90822450Y-47345044D01*
X90815748Y-47283352D01*
X90811325Y-47271552D01*
X90773009Y-47169345D01*
X90765021Y-47148036D01*
X90759641Y-47140857D01*
X90759639Y-47140854D01*
X90683735Y-47039576D01*
X90678354Y-47032396D01*
X90618356Y-46987430D01*
X90569896Y-46951111D01*
X90569893Y-46951109D01*
X90562714Y-46945729D01*
X90554312Y-46942579D01*
X90546435Y-46938267D01*
X90547420Y-46936468D01*
X90500031Y-46900867D01*
X90475333Y-46834304D01*
X90490542Y-46764956D01*
X90540521Y-46715007D01*
X90544659Y-46712741D01*
X90645817Y-46636928D01*
X90658378Y-46624367D01*
X90734196Y-46523204D01*
X90742728Y-46507618D01*
X90787483Y-46388235D01*
X90791108Y-46372990D01*
X90796581Y-46322608D01*
X90796763Y-46319256D01*
X91188450Y-46319256D01*
X91195152Y-46380948D01*
X91197924Y-46388341D01*
X91197924Y-46388343D01*
X91212246Y-46426546D01*
X91245879Y-46516264D01*
X91251259Y-46523443D01*
X91251261Y-46523446D01*
X91273227Y-46552755D01*
X91332546Y-46631904D01*
X91339726Y-46637285D01*
X91441004Y-46713189D01*
X91441007Y-46713191D01*
X91448186Y-46718571D01*
X91531154Y-46749674D01*
X91576107Y-46766526D01*
X91576109Y-46766526D01*
X91583502Y-46769298D01*
X91591352Y-46770151D01*
X91591353Y-46770151D01*
X91641797Y-46775631D01*
X91645194Y-46776000D01*
X92415706Y-46776000D01*
X92419103Y-46775631D01*
X92469547Y-46770151D01*
X92469548Y-46770151D01*
X92477398Y-46769298D01*
X92484791Y-46766526D01*
X92484793Y-46766526D01*
X92529746Y-46749674D01*
X92612714Y-46718571D01*
X92619893Y-46713191D01*
X92619896Y-46713189D01*
X92721174Y-46637285D01*
X92728354Y-46631904D01*
X92787673Y-46552755D01*
X92809639Y-46523446D01*
X92809641Y-46523443D01*
X92815021Y-46516264D01*
X92848654Y-46426546D01*
X92862976Y-46388343D01*
X92862976Y-46388341D01*
X92865748Y-46380948D01*
X92868462Y-46355964D01*
X102547098Y-46355964D01*
X102560374Y-46558522D01*
X102561795Y-46564118D01*
X102561796Y-46564123D01*
X102601822Y-46721721D01*
X102610342Y-46755269D01*
X102612759Y-46760512D01*
X102683555Y-46914081D01*
X102695327Y-46939616D01*
X102812483Y-47105389D01*
X102957888Y-47247035D01*
X103126670Y-47359812D01*
X103131973Y-47362090D01*
X103131976Y-47362092D01*
X103256709Y-47415681D01*
X103313178Y-47439942D01*
X103378090Y-47454630D01*
X103505529Y-47483467D01*
X103505534Y-47483468D01*
X103511166Y-47484742D01*
X103516937Y-47484969D01*
X103516939Y-47484969D01*
X103576706Y-47487317D01*
X103714003Y-47492712D01*
X103814449Y-47478148D01*
X103909181Y-47464413D01*
X103909186Y-47464412D01*
X103914895Y-47463584D01*
X103920359Y-47461729D01*
X103920364Y-47461728D01*
X104101643Y-47400192D01*
X104101648Y-47400190D01*
X104107115Y-47398334D01*
X104112969Y-47395056D01*
X104182420Y-47356161D01*
X104284226Y-47299147D01*
X104292666Y-47292128D01*
X104435863Y-47173031D01*
X104440295Y-47169345D01*
X104522635Y-47070343D01*
X104566403Y-47017718D01*
X104566405Y-47017715D01*
X104570097Y-47013276D01*
X104640087Y-46888300D01*
X104666460Y-46841208D01*
X104666461Y-46841206D01*
X104669284Y-46836165D01*
X104671140Y-46830698D01*
X104671142Y-46830693D01*
X104731813Y-46651962D01*
X105124621Y-46651962D01*
X105149393Y-46749502D01*
X105153234Y-46760348D01*
X105233344Y-46934120D01*
X105239095Y-46944081D01*
X105349529Y-47100343D01*
X105357007Y-47109098D01*
X105494064Y-47242612D01*
X105503008Y-47249855D01*
X105662106Y-47356161D01*
X105672216Y-47361651D01*
X105848027Y-47437185D01*
X105858970Y-47440740D01*
X105924282Y-47455519D01*
X105938355Y-47454630D01*
X105941778Y-47445681D01*
X106449950Y-47445681D01*
X106453916Y-47459187D01*
X106462622Y-47460433D01*
X106641447Y-47399730D01*
X106651944Y-47395056D01*
X106818908Y-47301552D01*
X106828380Y-47295042D01*
X106975503Y-47172682D01*
X106983632Y-47164553D01*
X107105992Y-47017430D01*
X107112502Y-47007958D01*
X107206006Y-46840994D01*
X107210680Y-46830497D01*
X107271393Y-46651644D01*
X107270160Y-46642993D01*
X107256592Y-46639000D01*
X106468065Y-46639000D01*
X106452826Y-46643475D01*
X106451622Y-46644864D01*
X106449950Y-46652548D01*
X106449950Y-47445681D01*
X105941778Y-47445681D01*
X105941950Y-47445232D01*
X105941950Y-46657115D01*
X105937475Y-46641876D01*
X105936085Y-46640671D01*
X105928402Y-46639000D01*
X105139444Y-46639000D01*
X105125913Y-46642973D01*
X105124621Y-46651962D01*
X104731813Y-46651962D01*
X104732678Y-46649414D01*
X104732679Y-46649409D01*
X104734534Y-46643945D01*
X104735362Y-46638236D01*
X104735363Y-46638231D01*
X104754265Y-46507860D01*
X104763662Y-46443053D01*
X104765182Y-46385000D01*
X104746608Y-46182859D01*
X104743277Y-46171049D01*
X104731079Y-46127799D01*
X105123893Y-46127799D01*
X105130625Y-46131000D01*
X105923835Y-46131000D01*
X105939074Y-46126525D01*
X105940279Y-46125135D01*
X105941950Y-46117452D01*
X105941950Y-46112885D01*
X106449950Y-46112885D01*
X106454425Y-46128124D01*
X106455815Y-46129329D01*
X106463498Y-46131000D01*
X107253348Y-46131000D01*
X107266879Y-46127027D01*
X107268048Y-46118892D01*
X107232608Y-45993231D01*
X107228483Y-45982484D01*
X107143853Y-45810871D01*
X107137843Y-45801063D01*
X107023350Y-45647739D01*
X107015660Y-45639199D01*
X106875142Y-45509304D01*
X106866017Y-45502303D01*
X106704186Y-45400195D01*
X106693939Y-45394974D01*
X106516210Y-45324068D01*
X106505182Y-45320801D01*
X106467719Y-45313350D01*
X106454844Y-45314502D01*
X106449950Y-45329658D01*
X106449950Y-46112885D01*
X105941950Y-46112885D01*
X105941950Y-45326500D01*
X105938144Y-45313538D01*
X105923229Y-45311602D01*
X105914682Y-45313071D01*
X105903570Y-45316048D01*
X105724045Y-45382279D01*
X105713667Y-45387229D01*
X105549223Y-45485063D01*
X105539911Y-45491829D01*
X105396047Y-45617994D01*
X105388130Y-45626337D01*
X105269668Y-45776605D01*
X105263400Y-45786256D01*
X105174308Y-45955592D01*
X105169903Y-45966227D01*
X105124112Y-46113698D01*
X105123893Y-46127799D01*
X104731079Y-46127799D01*
X104693075Y-45993046D01*
X104693074Y-45993044D01*
X104691507Y-45987487D01*
X104683331Y-45970906D01*
X104604281Y-45810609D01*
X104601726Y-45805428D01*
X104480270Y-45642779D01*
X104366948Y-45538025D01*
X104335453Y-45508911D01*
X104331208Y-45504987D01*
X104326325Y-45501906D01*
X104326321Y-45501903D01*
X104173846Y-45405699D01*
X104159531Y-45396667D01*
X103970989Y-45321446D01*
X103965329Y-45320320D01*
X103965325Y-45320319D01*
X103777563Y-45282971D01*
X103777560Y-45282971D01*
X103771896Y-45281844D01*
X103766121Y-45281768D01*
X103766117Y-45281768D01*
X103664743Y-45280441D01*
X103568921Y-45279187D01*
X103563224Y-45280166D01*
X103563223Y-45280166D01*
X103380278Y-45311602D01*
X103368860Y-45313564D01*
X103178413Y-45383824D01*
X103003960Y-45487612D01*
X102999620Y-45491418D01*
X102999616Y-45491421D01*
X102889497Y-45587994D01*
X102851342Y-45621455D01*
X102725670Y-45780869D01*
X102722981Y-45785980D01*
X102722979Y-45785983D01*
X102694784Y-45839573D01*
X102631153Y-45960515D01*
X102570957Y-46154378D01*
X102547098Y-46355964D01*
X92868462Y-46355964D01*
X92872450Y-46319256D01*
X92872450Y-45273744D01*
X92865748Y-45212052D01*
X92815021Y-45076736D01*
X92809641Y-45069557D01*
X92809639Y-45069554D01*
X92733735Y-44968276D01*
X92728354Y-44961096D01*
X92677138Y-44922712D01*
X92619896Y-44879811D01*
X92619893Y-44879809D01*
X92612714Y-44874429D01*
X92496994Y-44831048D01*
X92484793Y-44826474D01*
X92484791Y-44826474D01*
X92477398Y-44823702D01*
X92469548Y-44822849D01*
X92469547Y-44822849D01*
X92419103Y-44817369D01*
X92419102Y-44817369D01*
X92415706Y-44817000D01*
X91645194Y-44817000D01*
X91641798Y-44817369D01*
X91641797Y-44817369D01*
X91591353Y-44822849D01*
X91591352Y-44822849D01*
X91583502Y-44823702D01*
X91576109Y-44826474D01*
X91576107Y-44826474D01*
X91563906Y-44831048D01*
X91448186Y-44874429D01*
X91441007Y-44879809D01*
X91441004Y-44879811D01*
X91383762Y-44922712D01*
X91332546Y-44961096D01*
X91327165Y-44968276D01*
X91251261Y-45069554D01*
X91251259Y-45069557D01*
X91245879Y-45076736D01*
X91195152Y-45212052D01*
X91188450Y-45273744D01*
X91188450Y-46319256D01*
X90796763Y-46319256D01*
X90796950Y-46315794D01*
X90796950Y-46068615D01*
X90792475Y-46053376D01*
X90791085Y-46052171D01*
X90783402Y-46050500D01*
X89132066Y-46050500D01*
X89116827Y-46054975D01*
X89115622Y-46056365D01*
X89113951Y-46064048D01*
X89113951Y-46315792D01*
X89114320Y-46322610D01*
X89119791Y-46372982D01*
X89123420Y-46388241D01*
X89168172Y-46507618D01*
X89176704Y-46523204D01*
X89252522Y-46624367D01*
X89265083Y-46636928D01*
X89366246Y-46712745D01*
X89381948Y-46721342D01*
X89432094Y-46771599D01*
X89447109Y-46840990D01*
X89422224Y-46907483D01*
X89381950Y-46942381D01*
X89381587Y-46942579D01*
X89373186Y-46945729D01*
X89366007Y-46951109D01*
X89366004Y-46951111D01*
X89317544Y-46987430D01*
X89257546Y-47032396D01*
X89252165Y-47039576D01*
X89176261Y-47140854D01*
X89176259Y-47140857D01*
X89170879Y-47148036D01*
X89162891Y-47169345D01*
X89124576Y-47271552D01*
X89120152Y-47283352D01*
X89113450Y-47345044D01*
X89113450Y-48340556D01*
X88822450Y-48340556D01*
X88822450Y-47345044D01*
X88815748Y-47283352D01*
X88811325Y-47271552D01*
X88773009Y-47169345D01*
X88765021Y-47148036D01*
X88759641Y-47140857D01*
X88759639Y-47140854D01*
X88683735Y-47039576D01*
X88678354Y-47032396D01*
X88618356Y-46987430D01*
X88569896Y-46951111D01*
X88569893Y-46951109D01*
X88562714Y-46945729D01*
X88472996Y-46912096D01*
X88434793Y-46897774D01*
X88434791Y-46897774D01*
X88427398Y-46895002D01*
X88419548Y-46894149D01*
X88419547Y-46894149D01*
X88369103Y-46888669D01*
X88369102Y-46888669D01*
X88365706Y-46888300D01*
X87570194Y-46888300D01*
X87508502Y-46895002D01*
X87508133Y-46891602D01*
X87452805Y-46888764D01*
X87395124Y-46847371D01*
X87368978Y-46781364D01*
X87368450Y-46769845D01*
X87368450Y-46260144D01*
X87388452Y-46192023D01*
X87405355Y-46171049D01*
X87545795Y-46030609D01*
X87608107Y-45996583D01*
X87636869Y-45993720D01*
X87654435Y-45993996D01*
X87691319Y-45994576D01*
X87691322Y-45994576D01*
X87698916Y-45994695D01*
X87853332Y-45959329D01*
X87923742Y-45923917D01*
X87988072Y-45891563D01*
X87988075Y-45891561D01*
X87994855Y-45888151D01*
X88000626Y-45883222D01*
X88000629Y-45883220D01*
X88109536Y-45790204D01*
X88109536Y-45790203D01*
X88115314Y-45785269D01*
X88207755Y-45656624D01*
X88260915Y-45524385D01*
X89113950Y-45524385D01*
X89118425Y-45539624D01*
X89119815Y-45540829D01*
X89127498Y-45542500D01*
X89683335Y-45542500D01*
X89698574Y-45538025D01*
X89699779Y-45536635D01*
X89701450Y-45528952D01*
X89701450Y-45524385D01*
X90209450Y-45524385D01*
X90213925Y-45539624D01*
X90215315Y-45540829D01*
X90222998Y-45542500D01*
X90778834Y-45542500D01*
X90794073Y-45538025D01*
X90795278Y-45536635D01*
X90796949Y-45528952D01*
X90796949Y-45277208D01*
X90796580Y-45270390D01*
X90791109Y-45220018D01*
X90787480Y-45204759D01*
X90742728Y-45085382D01*
X90734196Y-45069796D01*
X90658378Y-44968633D01*
X90645817Y-44956072D01*
X90544654Y-44880254D01*
X90529068Y-44871722D01*
X90409685Y-44826967D01*
X90394440Y-44823342D01*
X90344058Y-44817869D01*
X90337244Y-44817500D01*
X90227565Y-44817500D01*
X90212326Y-44821975D01*
X90211121Y-44823365D01*
X90209450Y-44831048D01*
X90209450Y-45524385D01*
X89701450Y-45524385D01*
X89701450Y-44835616D01*
X89696975Y-44820377D01*
X89695585Y-44819172D01*
X89687902Y-44817501D01*
X89573658Y-44817501D01*
X89566840Y-44817870D01*
X89516468Y-44823341D01*
X89501209Y-44826970D01*
X89381832Y-44871722D01*
X89366246Y-44880254D01*
X89265083Y-44956072D01*
X89252522Y-44968633D01*
X89176704Y-45069796D01*
X89168172Y-45085382D01*
X89123417Y-45204765D01*
X89119792Y-45220010D01*
X89114319Y-45270392D01*
X89113950Y-45277206D01*
X89113950Y-45524385D01*
X88260915Y-45524385D01*
X88266842Y-45509641D01*
X88279902Y-45417872D01*
X88288581Y-45356891D01*
X88288581Y-45356888D01*
X88289162Y-45352807D01*
X88289307Y-45339000D01*
X88286343Y-45314502D01*
X88282712Y-45284502D01*
X88270276Y-45181733D01*
X88214280Y-45033546D01*
X88161034Y-44956072D01*
X88128855Y-44909251D01*
X88128854Y-44909249D01*
X88124553Y-44902992D01*
X88111911Y-44891728D01*
X88075996Y-44859730D01*
X88006275Y-44797611D01*
X87998889Y-44793700D01*
X87881512Y-44731552D01*
X87866274Y-44723484D01*
X87712633Y-44684892D01*
X87705034Y-44684852D01*
X87705033Y-44684852D01*
X87639181Y-44684507D01*
X87554221Y-44684062D01*
X87546841Y-44685834D01*
X87546839Y-44685834D01*
X87407563Y-44719271D01*
X87407560Y-44719272D01*
X87400184Y-44721043D01*
X87259414Y-44793700D01*
X87140039Y-44897838D01*
X87048950Y-45027444D01*
X86991406Y-45175037D01*
X86970729Y-45332096D01*
X86971524Y-45339294D01*
X86950855Y-45407056D01*
X86934670Y-45426925D01*
X86658560Y-45703035D01*
X86647471Y-45712890D01*
X86622322Y-45732716D01*
X86592178Y-45776332D01*
X86590586Y-45778635D01*
X86588291Y-45781847D01*
X86555085Y-45826804D01*
X86552803Y-45833301D01*
X86548891Y-45838962D01*
X86546053Y-45847936D01*
X86546052Y-45847938D01*
X86532058Y-45892190D01*
X86530804Y-45895947D01*
X86515414Y-45939770D01*
X86515412Y-45939778D01*
X86512293Y-45948661D01*
X86512023Y-45955540D01*
X86509947Y-45962103D01*
X86509450Y-45968417D01*
X86509450Y-46018535D01*
X86509353Y-46023481D01*
X86507222Y-46077713D01*
X86509037Y-46084556D01*
X86509450Y-46092069D01*
X86509450Y-49042713D01*
X86486537Y-49115163D01*
X86413950Y-49218444D01*
X86356406Y-49366037D01*
X86335729Y-49523096D01*
X86336524Y-49530294D01*
X86315855Y-49598056D01*
X86299670Y-49617925D01*
X84441000Y-51476595D01*
X84378688Y-51510621D01*
X84351905Y-51513500D01*
X83250347Y-51513500D01*
X83182226Y-51493498D01*
X83166529Y-51481577D01*
X83082451Y-51406667D01*
X83082445Y-51406663D01*
X83076775Y-51401611D01*
X83069389Y-51397700D01*
X82943488Y-51331039D01*
X82943489Y-51331039D01*
X82936774Y-51327484D01*
X82783133Y-51288892D01*
X82775534Y-51288852D01*
X82775533Y-51288852D01*
X82709681Y-51288507D01*
X82624721Y-51288062D01*
X82617341Y-51289834D01*
X82617339Y-51289834D01*
X82478063Y-51323271D01*
X82478060Y-51323272D01*
X82470684Y-51325043D01*
X82329914Y-51397700D01*
X82210539Y-51501838D01*
X82119450Y-51631444D01*
X82061906Y-51779037D01*
X82060914Y-51786570D01*
X82060914Y-51786571D01*
X82047159Y-51891054D01*
X82041229Y-51936096D01*
X82042063Y-51943646D01*
X82051989Y-52033552D01*
X82058613Y-52093553D01*
X82061223Y-52100684D01*
X82061223Y-52100686D01*
X82102380Y-52213152D01*
X82113053Y-52242319D01*
X82117289Y-52248622D01*
X82117289Y-52248623D01*
X82196468Y-52366453D01*
X82201408Y-52373805D01*
X82229799Y-52399638D01*
X82266722Y-52460277D01*
X82271000Y-52492832D01*
X82271000Y-54483405D01*
X82250998Y-54551526D01*
X82234095Y-54572500D01*
X80588654Y-56217941D01*
X80526342Y-56251967D01*
X80455527Y-56246902D01*
X80415741Y-56222923D01*
X80341151Y-56156467D01*
X80341145Y-56156463D01*
X80335475Y-56151411D01*
X80328089Y-56147500D01*
X80202188Y-56080839D01*
X80202189Y-56080839D01*
X80195474Y-56077284D01*
X80041833Y-56038692D01*
X80034234Y-56038652D01*
X80034233Y-56038652D01*
X79968381Y-56038307D01*
X79883421Y-56037862D01*
X79876041Y-56039634D01*
X79876039Y-56039634D01*
X79736763Y-56073071D01*
X79736760Y-56073072D01*
X79729384Y-56074843D01*
X79588614Y-56147500D01*
X79469239Y-56251638D01*
X79378150Y-56381244D01*
X79320606Y-56528837D01*
X79299929Y-56685896D01*
X75760950Y-56685896D01*
X75760950Y-46621962D01*
X78295121Y-46621962D01*
X78319893Y-46719502D01*
X78323734Y-46730348D01*
X78403844Y-46904120D01*
X78409595Y-46914081D01*
X78520029Y-47070343D01*
X78527507Y-47079098D01*
X78664564Y-47212612D01*
X78673508Y-47219855D01*
X78832606Y-47326161D01*
X78842716Y-47331651D01*
X79018527Y-47407185D01*
X79029470Y-47410740D01*
X79094782Y-47425519D01*
X79108855Y-47424630D01*
X79112278Y-47415681D01*
X79620450Y-47415681D01*
X79624416Y-47429187D01*
X79633122Y-47430433D01*
X79811947Y-47369730D01*
X79822444Y-47365056D01*
X79989408Y-47271552D01*
X79998880Y-47265042D01*
X80146003Y-47142682D01*
X80154132Y-47134553D01*
X80276492Y-46987430D01*
X80283002Y-46977958D01*
X80376506Y-46810994D01*
X80381180Y-46800497D01*
X80441893Y-46621644D01*
X80440660Y-46612993D01*
X80427092Y-46609000D01*
X79638565Y-46609000D01*
X79623326Y-46613475D01*
X79622121Y-46614865D01*
X79620450Y-46622548D01*
X79620450Y-47415681D01*
X79112278Y-47415681D01*
X79112450Y-47415232D01*
X79112450Y-46627115D01*
X79107975Y-46611876D01*
X79106585Y-46610671D01*
X79098902Y-46609000D01*
X78309944Y-46609000D01*
X78296413Y-46612973D01*
X78295121Y-46621962D01*
X75760950Y-46621962D01*
X75760950Y-46097799D01*
X78294393Y-46097799D01*
X78301125Y-46101000D01*
X79094335Y-46101000D01*
X79109574Y-46096525D01*
X79110779Y-46095135D01*
X79112450Y-46087452D01*
X79112450Y-46082885D01*
X79620450Y-46082885D01*
X79624925Y-46098124D01*
X79626315Y-46099329D01*
X79633998Y-46101000D01*
X80423848Y-46101000D01*
X80437379Y-46097027D01*
X80438548Y-46088892D01*
X80403108Y-45963231D01*
X80398983Y-45952484D01*
X80314352Y-45780869D01*
X80308343Y-45771063D01*
X80193850Y-45617739D01*
X80186160Y-45609199D01*
X80046322Y-45479933D01*
X80801950Y-45479933D01*
X80801951Y-47230066D01*
X80804524Y-47243002D01*
X80814111Y-47291203D01*
X80816716Y-47304301D01*
X80823611Y-47314620D01*
X80823612Y-47314622D01*
X80855331Y-47362092D01*
X80872966Y-47388484D01*
X80957149Y-47444734D01*
X81031383Y-47459500D01*
X81906308Y-47459500D01*
X82781516Y-47459499D01*
X82817268Y-47452388D01*
X82843576Y-47447156D01*
X82843578Y-47447155D01*
X82855751Y-47444734D01*
X82866071Y-47437839D01*
X82866072Y-47437838D01*
X82929618Y-47395377D01*
X82939934Y-47388484D01*
X82996184Y-47304301D01*
X83010950Y-47230067D01*
X83010949Y-45479934D01*
X82996184Y-45405699D01*
X82981568Y-45383824D01*
X82946827Y-45331832D01*
X82939934Y-45321516D01*
X82855751Y-45265266D01*
X82781517Y-45250500D01*
X81906592Y-45250500D01*
X81031384Y-45250501D01*
X80995632Y-45257612D01*
X80969324Y-45262844D01*
X80969322Y-45262845D01*
X80957149Y-45265266D01*
X80946829Y-45272161D01*
X80946828Y-45272162D01*
X80905678Y-45299658D01*
X80872966Y-45321516D01*
X80816716Y-45405699D01*
X80801950Y-45479933D01*
X80046322Y-45479933D01*
X80045642Y-45479304D01*
X80036517Y-45472303D01*
X79874686Y-45370195D01*
X79864439Y-45364974D01*
X79686710Y-45294068D01*
X79675682Y-45290801D01*
X79638219Y-45283350D01*
X79625344Y-45284502D01*
X79620450Y-45299658D01*
X79620450Y-46082885D01*
X79112450Y-46082885D01*
X79112450Y-45296500D01*
X79108644Y-45283538D01*
X79093729Y-45281602D01*
X79085182Y-45283071D01*
X79074070Y-45286048D01*
X78894545Y-45352279D01*
X78884167Y-45357229D01*
X78719723Y-45455063D01*
X78710411Y-45461829D01*
X78566547Y-45587994D01*
X78558630Y-45596337D01*
X78440168Y-45746605D01*
X78433900Y-45756256D01*
X78344808Y-45925592D01*
X78340403Y-45936227D01*
X78294612Y-46083698D01*
X78294393Y-46097799D01*
X75760950Y-46097799D01*
X75760950Y-44081962D01*
X78295121Y-44081962D01*
X78319893Y-44179502D01*
X78323734Y-44190348D01*
X78403844Y-44364120D01*
X78409595Y-44374081D01*
X78520029Y-44530343D01*
X78527507Y-44539098D01*
X78664564Y-44672612D01*
X78673508Y-44679855D01*
X78832606Y-44786161D01*
X78842716Y-44791651D01*
X79018527Y-44867185D01*
X79029470Y-44870740D01*
X79094782Y-44885519D01*
X79108855Y-44884630D01*
X79112278Y-44875681D01*
X79620450Y-44875681D01*
X79624416Y-44889187D01*
X79633122Y-44890433D01*
X79811947Y-44829730D01*
X79822444Y-44825056D01*
X79989408Y-44731552D01*
X79998880Y-44725042D01*
X80146003Y-44602682D01*
X80154132Y-44594553D01*
X80276492Y-44447430D01*
X80283002Y-44437958D01*
X80376506Y-44270994D01*
X80381180Y-44260497D01*
X80441893Y-44081644D01*
X80440660Y-44072993D01*
X80427092Y-44069000D01*
X79638565Y-44069000D01*
X79623326Y-44073475D01*
X79622121Y-44074865D01*
X79620450Y-44082548D01*
X79620450Y-44875681D01*
X79112278Y-44875681D01*
X79112450Y-44875232D01*
X79112450Y-44087115D01*
X79107975Y-44071876D01*
X79106585Y-44070671D01*
X79098902Y-44069000D01*
X78309944Y-44069000D01*
X78296413Y-44072973D01*
X78295121Y-44081962D01*
X75760950Y-44081962D01*
X75760950Y-43785964D01*
X80797598Y-43785964D01*
X80810874Y-43988522D01*
X80812295Y-43994118D01*
X80812296Y-43994123D01*
X80840188Y-44103945D01*
X80860842Y-44185269D01*
X80863259Y-44190512D01*
X80943293Y-44364120D01*
X80945827Y-44369616D01*
X81062983Y-44535389D01*
X81208388Y-44677035D01*
X81213192Y-44680245D01*
X81247250Y-44703002D01*
X81377170Y-44789812D01*
X81382473Y-44792090D01*
X81382476Y-44792092D01*
X81539909Y-44859730D01*
X81563678Y-44869942D01*
X81607293Y-44879811D01*
X81756029Y-44913467D01*
X81756034Y-44913468D01*
X81761666Y-44914742D01*
X81767437Y-44914969D01*
X81767439Y-44914969D01*
X81827206Y-44917317D01*
X81964503Y-44922712D01*
X82081964Y-44905681D01*
X82159681Y-44894413D01*
X82159686Y-44894412D01*
X82165395Y-44893584D01*
X82170859Y-44891729D01*
X82170864Y-44891728D01*
X82352143Y-44830192D01*
X82352148Y-44830190D01*
X82357615Y-44828334D01*
X82363469Y-44825056D01*
X82476113Y-44761972D01*
X82534726Y-44729147D01*
X82543760Y-44721634D01*
X82686363Y-44603031D01*
X82690795Y-44599345D01*
X82791952Y-44477718D01*
X82816903Y-44447718D01*
X82816905Y-44447715D01*
X82820597Y-44443276D01*
X82906048Y-44290693D01*
X82916960Y-44271208D01*
X82916961Y-44271206D01*
X82919784Y-44266165D01*
X82921640Y-44260698D01*
X82921642Y-44260693D01*
X82983178Y-44079414D01*
X82983179Y-44079409D01*
X82985034Y-44073945D01*
X82985862Y-44068236D01*
X82985863Y-44068231D01*
X83013629Y-43876727D01*
X83014162Y-43873053D01*
X83015657Y-43815964D01*
X102547098Y-43815964D01*
X102560374Y-44018522D01*
X102561795Y-44024118D01*
X102561796Y-44024123D01*
X102601258Y-44179502D01*
X102610342Y-44215269D01*
X102612759Y-44220512D01*
X102649862Y-44300994D01*
X102695327Y-44399616D01*
X102812483Y-44565389D01*
X102816625Y-44569424D01*
X102847340Y-44599345D01*
X102957888Y-44707035D01*
X103126670Y-44819812D01*
X103131973Y-44822090D01*
X103131976Y-44822092D01*
X103298379Y-44893584D01*
X103313178Y-44899942D01*
X103372950Y-44913467D01*
X103505529Y-44943467D01*
X103505534Y-44943468D01*
X103511166Y-44944742D01*
X103516937Y-44944969D01*
X103516939Y-44944969D01*
X103576706Y-44947317D01*
X103714003Y-44952712D01*
X103814449Y-44938148D01*
X103909181Y-44924413D01*
X103909186Y-44924412D01*
X103914895Y-44923584D01*
X103920359Y-44921729D01*
X103920364Y-44921728D01*
X104101643Y-44860192D01*
X104101648Y-44860190D01*
X104107115Y-44858334D01*
X104112969Y-44855056D01*
X104179370Y-44817869D01*
X104284226Y-44759147D01*
X104316901Y-44731972D01*
X104435863Y-44633031D01*
X104440295Y-44629345D01*
X104518438Y-44535389D01*
X104566403Y-44477718D01*
X104566405Y-44477715D01*
X104570097Y-44473276D01*
X104669284Y-44296165D01*
X104671140Y-44290698D01*
X104671142Y-44290693D01*
X104731813Y-44111962D01*
X105124621Y-44111962D01*
X105149393Y-44209502D01*
X105153234Y-44220348D01*
X105233344Y-44394120D01*
X105239095Y-44404081D01*
X105349529Y-44560343D01*
X105357007Y-44569098D01*
X105494064Y-44702612D01*
X105503008Y-44709855D01*
X105662106Y-44816161D01*
X105672216Y-44821651D01*
X105848027Y-44897185D01*
X105858970Y-44900740D01*
X105924282Y-44915519D01*
X105938355Y-44914630D01*
X105941778Y-44905681D01*
X106449950Y-44905681D01*
X106453916Y-44919187D01*
X106462622Y-44920433D01*
X106641447Y-44859730D01*
X106651944Y-44855056D01*
X106818908Y-44761552D01*
X106828380Y-44755042D01*
X106975503Y-44632682D01*
X106983632Y-44624553D01*
X107105992Y-44477430D01*
X107112502Y-44467958D01*
X107206006Y-44300994D01*
X107210680Y-44290497D01*
X107271393Y-44111644D01*
X107270160Y-44102993D01*
X107256592Y-44099000D01*
X106468065Y-44099000D01*
X106452826Y-44103475D01*
X106451622Y-44104864D01*
X106449950Y-44112548D01*
X106449950Y-44905681D01*
X105941778Y-44905681D01*
X105941950Y-44905232D01*
X105941950Y-44117115D01*
X105937475Y-44101876D01*
X105936085Y-44100671D01*
X105928402Y-44099000D01*
X105139444Y-44099000D01*
X105125913Y-44102973D01*
X105124621Y-44111962D01*
X104731813Y-44111962D01*
X104732678Y-44109414D01*
X104732679Y-44109409D01*
X104734534Y-44103945D01*
X104735362Y-44098236D01*
X104735363Y-44098231D01*
X104763129Y-43906727D01*
X104763662Y-43903053D01*
X104765182Y-43845000D01*
X104746608Y-43642859D01*
X104745040Y-43637299D01*
X104731079Y-43587799D01*
X105123893Y-43587799D01*
X105130625Y-43591000D01*
X105923835Y-43591000D01*
X105939074Y-43586525D01*
X105940279Y-43585135D01*
X105941950Y-43577452D01*
X105941950Y-43572885D01*
X106449950Y-43572885D01*
X106454425Y-43588124D01*
X106455815Y-43589329D01*
X106463498Y-43591000D01*
X107253348Y-43591000D01*
X107266879Y-43587027D01*
X107268048Y-43578892D01*
X107232608Y-43453231D01*
X107228483Y-43442484D01*
X107143853Y-43270871D01*
X107137843Y-43261063D01*
X107023350Y-43107739D01*
X107015660Y-43099199D01*
X106875142Y-42969304D01*
X106866017Y-42962303D01*
X106704186Y-42860195D01*
X106693939Y-42854974D01*
X106516210Y-42784068D01*
X106505182Y-42780801D01*
X106467719Y-42773350D01*
X106454844Y-42774502D01*
X106449950Y-42789658D01*
X106449950Y-43572885D01*
X105941950Y-43572885D01*
X105941950Y-42786500D01*
X105938144Y-42773538D01*
X105923229Y-42771602D01*
X105914682Y-42773071D01*
X105903570Y-42776048D01*
X105724045Y-42842279D01*
X105713667Y-42847229D01*
X105549223Y-42945063D01*
X105539911Y-42951829D01*
X105396047Y-43077994D01*
X105388130Y-43086337D01*
X105269668Y-43236605D01*
X105263400Y-43246256D01*
X105174308Y-43415592D01*
X105169903Y-43426227D01*
X105124112Y-43573698D01*
X105123893Y-43587799D01*
X104731079Y-43587799D01*
X104693075Y-43453046D01*
X104693074Y-43453044D01*
X104691507Y-43447487D01*
X104680928Y-43426033D01*
X104604281Y-43270609D01*
X104601726Y-43265428D01*
X104480270Y-43102779D01*
X104331208Y-42964987D01*
X104326325Y-42961906D01*
X104326321Y-42961903D01*
X104180678Y-42870010D01*
X104159531Y-42856667D01*
X103970989Y-42781446D01*
X103965329Y-42780320D01*
X103965325Y-42780319D01*
X103777563Y-42742971D01*
X103777560Y-42742971D01*
X103771896Y-42741844D01*
X103766121Y-42741768D01*
X103766117Y-42741768D01*
X103664743Y-42740441D01*
X103568921Y-42739187D01*
X103563224Y-42740166D01*
X103563223Y-42740166D01*
X103380278Y-42771602D01*
X103368860Y-42773564D01*
X103178413Y-42843824D01*
X103003960Y-42947612D01*
X102999620Y-42951418D01*
X102999616Y-42951421D01*
X102979673Y-42968911D01*
X102851342Y-43081455D01*
X102725670Y-43240869D01*
X102722981Y-43245980D01*
X102722979Y-43245983D01*
X102710023Y-43270609D01*
X102631153Y-43420515D01*
X102570957Y-43614378D01*
X102547098Y-43815964D01*
X83015657Y-43815964D01*
X83015682Y-43815000D01*
X82997108Y-43612859D01*
X82990943Y-43591000D01*
X82943575Y-43423046D01*
X82943574Y-43423044D01*
X82942007Y-43417487D01*
X82931428Y-43396033D01*
X82854781Y-43240609D01*
X82852226Y-43235428D01*
X82730770Y-43072779D01*
X82581708Y-42934987D01*
X82576825Y-42931906D01*
X82576821Y-42931903D01*
X82431178Y-42840010D01*
X82410031Y-42826667D01*
X82221489Y-42751446D01*
X82215829Y-42750320D01*
X82215825Y-42750319D01*
X82028063Y-42712971D01*
X82028060Y-42712971D01*
X82022396Y-42711844D01*
X82016621Y-42711768D01*
X82016617Y-42711768D01*
X81915243Y-42710441D01*
X81819421Y-42709187D01*
X81813724Y-42710166D01*
X81813723Y-42710166D01*
X81625057Y-42742585D01*
X81619360Y-42743564D01*
X81428913Y-42813824D01*
X81254460Y-42917612D01*
X81250120Y-42921418D01*
X81250116Y-42921421D01*
X81106183Y-43047648D01*
X81101842Y-43051455D01*
X80976170Y-43210869D01*
X80973481Y-43215980D01*
X80973479Y-43215983D01*
X80957552Y-43246256D01*
X80881653Y-43390515D01*
X80821457Y-43584378D01*
X80797598Y-43785964D01*
X75760950Y-43785964D01*
X75760950Y-43557799D01*
X78294393Y-43557799D01*
X78301125Y-43561000D01*
X79094335Y-43561000D01*
X79109574Y-43556525D01*
X79110779Y-43555135D01*
X79112450Y-43547452D01*
X79112450Y-43542885D01*
X79620450Y-43542885D01*
X79624925Y-43558124D01*
X79626315Y-43559329D01*
X79633998Y-43561000D01*
X80423848Y-43561000D01*
X80437379Y-43557027D01*
X80438548Y-43548892D01*
X80403108Y-43423231D01*
X80398983Y-43412484D01*
X80314352Y-43240869D01*
X80308343Y-43231063D01*
X80193850Y-43077739D01*
X80186160Y-43069199D01*
X80045642Y-42939304D01*
X80036517Y-42932303D01*
X79874686Y-42830195D01*
X79864439Y-42824974D01*
X79686710Y-42754068D01*
X79675682Y-42750801D01*
X79638219Y-42743350D01*
X79625344Y-42744502D01*
X79620450Y-42759658D01*
X79620450Y-43542885D01*
X79112450Y-43542885D01*
X79112450Y-42756500D01*
X79108644Y-42743538D01*
X79093729Y-42741602D01*
X79085182Y-42743071D01*
X79074070Y-42746048D01*
X78894545Y-42812279D01*
X78884167Y-42817229D01*
X78719723Y-42915063D01*
X78710411Y-42921829D01*
X78566547Y-43047994D01*
X78558630Y-43056337D01*
X78440168Y-43206605D01*
X78433900Y-43216256D01*
X78344808Y-43385592D01*
X78340403Y-43396227D01*
X78294612Y-43543698D01*
X78294393Y-43557799D01*
X75760950Y-43557799D01*
X75760950Y-41541962D01*
X78295121Y-41541962D01*
X78319893Y-41639502D01*
X78323734Y-41650348D01*
X78403844Y-41824120D01*
X78409595Y-41834081D01*
X78520029Y-41990343D01*
X78527507Y-41999098D01*
X78664564Y-42132612D01*
X78673508Y-42139855D01*
X78832606Y-42246161D01*
X78842716Y-42251651D01*
X79018527Y-42327185D01*
X79029470Y-42330740D01*
X79094782Y-42345519D01*
X79108855Y-42344630D01*
X79112278Y-42335681D01*
X79620450Y-42335681D01*
X79624416Y-42349187D01*
X79633122Y-42350433D01*
X79811947Y-42289730D01*
X79822444Y-42285056D01*
X79989408Y-42191552D01*
X79998880Y-42185042D01*
X80146003Y-42062682D01*
X80154132Y-42054553D01*
X80276492Y-41907430D01*
X80283002Y-41897958D01*
X80376506Y-41730994D01*
X80381180Y-41720497D01*
X80441893Y-41541644D01*
X80440660Y-41532993D01*
X80427092Y-41529000D01*
X79638565Y-41529000D01*
X79623326Y-41533475D01*
X79622121Y-41534865D01*
X79620450Y-41542548D01*
X79620450Y-42335681D01*
X79112278Y-42335681D01*
X79112450Y-42335232D01*
X79112450Y-41547115D01*
X79107975Y-41531876D01*
X79106585Y-41530671D01*
X79098902Y-41529000D01*
X78309944Y-41529000D01*
X78296413Y-41532973D01*
X78295121Y-41541962D01*
X75760950Y-41541962D01*
X75760950Y-41245964D01*
X80797598Y-41245964D01*
X80810874Y-41448522D01*
X80812295Y-41454118D01*
X80812296Y-41454123D01*
X80840188Y-41563945D01*
X80860842Y-41645269D01*
X80863259Y-41650512D01*
X80943293Y-41824120D01*
X80945827Y-41829616D01*
X81062983Y-41995389D01*
X81208388Y-42137035D01*
X81213192Y-42140245D01*
X81247250Y-42163002D01*
X81377170Y-42249812D01*
X81382473Y-42252090D01*
X81382476Y-42252092D01*
X81539909Y-42319730D01*
X81563678Y-42329942D01*
X81617944Y-42342221D01*
X81756029Y-42373467D01*
X81756034Y-42373468D01*
X81761666Y-42374742D01*
X81767437Y-42374969D01*
X81767439Y-42374969D01*
X81827206Y-42377317D01*
X81964503Y-42382712D01*
X82081964Y-42365681D01*
X82159681Y-42354413D01*
X82159686Y-42354412D01*
X82165395Y-42353584D01*
X82170859Y-42351729D01*
X82170864Y-42351728D01*
X82352143Y-42290192D01*
X82352148Y-42290190D01*
X82357615Y-42288334D01*
X82363469Y-42285056D01*
X82476113Y-42221972D01*
X82534726Y-42189147D01*
X82597384Y-42137035D01*
X82686363Y-42063031D01*
X82690795Y-42059345D01*
X82748184Y-41990343D01*
X82816903Y-41907718D01*
X82816905Y-41907715D01*
X82820597Y-41903276D01*
X82906048Y-41750693D01*
X82916960Y-41731208D01*
X82916961Y-41731206D01*
X82919784Y-41726165D01*
X82921640Y-41720698D01*
X82921642Y-41720693D01*
X82983178Y-41539414D01*
X82983179Y-41539409D01*
X82985034Y-41533945D01*
X82985862Y-41528236D01*
X82985863Y-41528231D01*
X83013629Y-41336727D01*
X83014162Y-41333053D01*
X83015682Y-41275000D01*
X82997108Y-41072859D01*
X82990943Y-41051000D01*
X82943575Y-40883046D01*
X82943574Y-40883044D01*
X82942007Y-40877487D01*
X82931428Y-40856033D01*
X82854781Y-40700609D01*
X82852226Y-40695428D01*
X82730770Y-40532779D01*
X82581708Y-40394987D01*
X82576825Y-40391906D01*
X82576821Y-40391903D01*
X82431178Y-40300010D01*
X82410031Y-40286667D01*
X82221489Y-40211446D01*
X82215829Y-40210320D01*
X82215825Y-40210319D01*
X82028063Y-40172971D01*
X82028060Y-40172971D01*
X82022396Y-40171844D01*
X82016621Y-40171768D01*
X82016617Y-40171768D01*
X81915243Y-40170441D01*
X81819421Y-40169187D01*
X81813724Y-40170166D01*
X81813723Y-40170166D01*
X81625057Y-40202585D01*
X81619360Y-40203564D01*
X81428913Y-40273824D01*
X81254460Y-40377612D01*
X81250120Y-40381418D01*
X81250116Y-40381421D01*
X81122488Y-40493349D01*
X81101842Y-40511455D01*
X80976170Y-40670869D01*
X80973481Y-40675980D01*
X80973479Y-40675983D01*
X80925578Y-40767027D01*
X80881653Y-40850515D01*
X80821457Y-41044378D01*
X80797598Y-41245964D01*
X75760950Y-41245964D01*
X75760950Y-41017799D01*
X78294393Y-41017799D01*
X78301125Y-41021000D01*
X79094335Y-41021000D01*
X79109574Y-41016525D01*
X79110779Y-41015135D01*
X79112450Y-41007452D01*
X79112450Y-41002885D01*
X79620450Y-41002885D01*
X79624925Y-41018124D01*
X79626315Y-41019329D01*
X79633998Y-41021000D01*
X80423848Y-41021000D01*
X80437379Y-41017027D01*
X80438548Y-41008892D01*
X80403108Y-40883231D01*
X80398983Y-40872484D01*
X80314352Y-40700869D01*
X80308343Y-40691063D01*
X80193850Y-40537739D01*
X80186160Y-40529199D01*
X80045642Y-40399304D01*
X80036517Y-40392303D01*
X79874686Y-40290195D01*
X79864439Y-40284974D01*
X79686710Y-40214068D01*
X79675682Y-40210801D01*
X79638219Y-40203350D01*
X79625344Y-40204502D01*
X79620450Y-40219658D01*
X79620450Y-41002885D01*
X79112450Y-41002885D01*
X79112450Y-40216500D01*
X79108644Y-40203538D01*
X79093729Y-40201602D01*
X79085182Y-40203071D01*
X79074070Y-40206048D01*
X78894545Y-40272279D01*
X78884167Y-40277229D01*
X78719723Y-40375063D01*
X78710411Y-40381829D01*
X78566547Y-40507994D01*
X78558630Y-40516337D01*
X78440168Y-40666605D01*
X78433900Y-40676256D01*
X78344808Y-40845592D01*
X78340403Y-40856227D01*
X78294612Y-41003698D01*
X78294393Y-41017799D01*
X75760950Y-41017799D01*
X75760950Y-39001962D01*
X78295121Y-39001962D01*
X78319893Y-39099502D01*
X78323734Y-39110348D01*
X78403844Y-39284120D01*
X78409595Y-39294081D01*
X78520029Y-39450343D01*
X78527507Y-39459098D01*
X78664564Y-39592612D01*
X78673508Y-39599855D01*
X78832606Y-39706161D01*
X78842716Y-39711651D01*
X79018527Y-39787185D01*
X79029470Y-39790740D01*
X79094782Y-39805519D01*
X79108855Y-39804630D01*
X79112278Y-39795681D01*
X79620450Y-39795681D01*
X79624416Y-39809187D01*
X79633122Y-39810433D01*
X79811947Y-39749730D01*
X79822444Y-39745056D01*
X79989408Y-39651552D01*
X79998880Y-39645042D01*
X80146003Y-39522682D01*
X80154132Y-39514553D01*
X80276492Y-39367430D01*
X80283002Y-39357958D01*
X80376506Y-39190994D01*
X80381180Y-39180497D01*
X80441893Y-39001644D01*
X80440660Y-38992993D01*
X80427092Y-38989000D01*
X79638565Y-38989000D01*
X79623326Y-38993475D01*
X79622121Y-38994865D01*
X79620450Y-39002548D01*
X79620450Y-39795681D01*
X79112278Y-39795681D01*
X79112450Y-39795232D01*
X79112450Y-39007115D01*
X79107975Y-38991876D01*
X79106585Y-38990671D01*
X79098902Y-38989000D01*
X78309944Y-38989000D01*
X78296413Y-38992973D01*
X78295121Y-39001962D01*
X75760950Y-39001962D01*
X75760950Y-38705964D01*
X80797598Y-38705964D01*
X80810874Y-38908522D01*
X80812295Y-38914118D01*
X80812296Y-38914123D01*
X80852761Y-39073452D01*
X80860842Y-39105269D01*
X80863259Y-39110512D01*
X80943293Y-39284120D01*
X80945827Y-39289616D01*
X80949160Y-39294332D01*
X81041969Y-39425654D01*
X81062983Y-39455389D01*
X81208388Y-39597035D01*
X81213192Y-39600245D01*
X81253286Y-39627035D01*
X81377170Y-39709812D01*
X81382473Y-39712090D01*
X81382476Y-39712092D01*
X81539909Y-39779730D01*
X81563678Y-39789942D01*
X81628590Y-39804630D01*
X81756029Y-39833467D01*
X81756034Y-39833468D01*
X81761666Y-39834742D01*
X81767437Y-39834969D01*
X81767439Y-39834969D01*
X81827206Y-39837317D01*
X81964503Y-39842712D01*
X82081964Y-39825681D01*
X82159681Y-39814413D01*
X82159686Y-39814412D01*
X82165395Y-39813584D01*
X82170859Y-39811729D01*
X82170864Y-39811728D01*
X82352143Y-39750192D01*
X82352148Y-39750190D01*
X82357615Y-39748334D01*
X82363469Y-39745056D01*
X82476113Y-39681972D01*
X82534726Y-39649147D01*
X82563973Y-39624823D01*
X82686363Y-39523031D01*
X82690795Y-39519345D01*
X82731692Y-39470172D01*
X82816903Y-39367718D01*
X82816905Y-39367715D01*
X82820597Y-39363276D01*
X82849147Y-39312296D01*
X84989529Y-39312296D01*
X84995163Y-39363322D01*
X85005773Y-39459424D01*
X85006913Y-39469753D01*
X85009523Y-39476884D01*
X85009523Y-39476886D01*
X85054893Y-39600865D01*
X85061353Y-39618519D01*
X85065589Y-39624822D01*
X85065589Y-39624823D01*
X85144391Y-39742092D01*
X85149708Y-39750005D01*
X85155327Y-39755118D01*
X85155328Y-39755119D01*
X85253462Y-39844413D01*
X85266876Y-39856619D01*
X85406093Y-39932208D01*
X85559322Y-39972407D01*
X85639679Y-39973669D01*
X85714699Y-39974848D01*
X85782497Y-39995917D01*
X85801815Y-40011737D01*
X87076545Y-41286467D01*
X87110571Y-41348779D01*
X87113450Y-41375562D01*
X87113450Y-41939756D01*
X87120152Y-42001448D01*
X87122924Y-42008841D01*
X87122924Y-42008843D01*
X87137246Y-42047046D01*
X87170879Y-42136764D01*
X87176259Y-42143943D01*
X87176261Y-42143946D01*
X87211940Y-42191552D01*
X87257546Y-42252404D01*
X87264726Y-42257785D01*
X87366004Y-42333689D01*
X87366007Y-42333691D01*
X87373186Y-42339071D01*
X87444169Y-42365681D01*
X87501107Y-42387026D01*
X87501109Y-42387026D01*
X87508502Y-42389798D01*
X87516352Y-42390651D01*
X87516353Y-42390651D01*
X87566797Y-42396131D01*
X87570194Y-42396500D01*
X88365706Y-42396500D01*
X88369103Y-42396131D01*
X88419547Y-42390651D01*
X88419548Y-42390651D01*
X88427398Y-42389798D01*
X88434791Y-42387026D01*
X88434793Y-42387026D01*
X88491731Y-42365681D01*
X88562714Y-42339071D01*
X88569893Y-42333691D01*
X88569896Y-42333689D01*
X88671174Y-42257785D01*
X88678354Y-42252404D01*
X88723960Y-42191552D01*
X88759639Y-42143946D01*
X88759641Y-42143943D01*
X88765021Y-42136764D01*
X88798654Y-42047046D01*
X88812976Y-42008843D01*
X88812976Y-42008841D01*
X88815748Y-42001448D01*
X88822450Y-41939756D01*
X89113450Y-41939756D01*
X89120152Y-42001448D01*
X89122924Y-42008841D01*
X89122924Y-42008843D01*
X89137246Y-42047046D01*
X89170879Y-42136764D01*
X89176259Y-42143943D01*
X89176261Y-42143946D01*
X89211940Y-42191552D01*
X89257546Y-42252404D01*
X89264726Y-42257785D01*
X89366004Y-42333689D01*
X89366007Y-42333691D01*
X89373186Y-42339071D01*
X89444169Y-42365681D01*
X89501107Y-42387026D01*
X89501109Y-42387026D01*
X89508502Y-42389798D01*
X89516352Y-42390651D01*
X89516353Y-42390651D01*
X89566797Y-42396131D01*
X89570194Y-42396500D01*
X90365706Y-42396500D01*
X90369103Y-42396131D01*
X90419547Y-42390651D01*
X90419548Y-42390651D01*
X90427398Y-42389798D01*
X90434791Y-42387026D01*
X90434793Y-42387026D01*
X90491731Y-42365681D01*
X90562714Y-42339071D01*
X90569893Y-42333691D01*
X90569896Y-42333689D01*
X90671174Y-42257785D01*
X90678354Y-42252404D01*
X90723960Y-42191552D01*
X90759639Y-42143946D01*
X90759641Y-42143943D01*
X90765021Y-42136764D01*
X90798654Y-42047046D01*
X90812976Y-42008843D01*
X90812976Y-42008841D01*
X90815748Y-42001448D01*
X90822450Y-41939756D01*
X90822450Y-41275964D01*
X102547098Y-41275964D01*
X102560374Y-41478522D01*
X102561795Y-41484118D01*
X102561796Y-41484123D01*
X102601258Y-41639502D01*
X102610342Y-41675269D01*
X102612759Y-41680512D01*
X102649862Y-41760994D01*
X102695327Y-41859616D01*
X102698660Y-41864332D01*
X102800790Y-42008843D01*
X102812483Y-42025389D01*
X102816625Y-42029424D01*
X102847340Y-42059345D01*
X102957888Y-42167035D01*
X103126670Y-42279812D01*
X103131973Y-42282090D01*
X103131976Y-42282092D01*
X103256709Y-42335681D01*
X103313178Y-42359942D01*
X103372950Y-42373467D01*
X103505529Y-42403467D01*
X103505534Y-42403468D01*
X103511166Y-42404742D01*
X103516937Y-42404969D01*
X103516939Y-42404969D01*
X103576706Y-42407317D01*
X103714003Y-42412712D01*
X103828360Y-42396131D01*
X103909181Y-42384413D01*
X103909186Y-42384412D01*
X103914895Y-42383584D01*
X103920359Y-42381729D01*
X103920364Y-42381728D01*
X104101643Y-42320192D01*
X104101648Y-42320190D01*
X104107115Y-42318334D01*
X104112969Y-42315056D01*
X104224841Y-42252404D01*
X104284226Y-42219147D01*
X104316901Y-42191972D01*
X104435863Y-42093031D01*
X104440295Y-42089345D01*
X104519928Y-41993597D01*
X104566403Y-41937718D01*
X104566405Y-41937715D01*
X104570097Y-41933276D01*
X104669284Y-41756165D01*
X104671140Y-41750698D01*
X104671142Y-41750693D01*
X104731813Y-41571962D01*
X105124621Y-41571962D01*
X105149393Y-41669502D01*
X105153234Y-41680348D01*
X105233344Y-41854120D01*
X105239095Y-41864081D01*
X105349529Y-42020343D01*
X105357007Y-42029098D01*
X105494064Y-42162612D01*
X105503008Y-42169855D01*
X105662106Y-42276161D01*
X105672216Y-42281651D01*
X105848027Y-42357185D01*
X105858970Y-42360740D01*
X105924282Y-42375519D01*
X105938355Y-42374630D01*
X105941778Y-42365681D01*
X106449950Y-42365681D01*
X106453916Y-42379187D01*
X106462622Y-42380433D01*
X106641447Y-42319730D01*
X106651944Y-42315056D01*
X106818908Y-42221552D01*
X106828380Y-42215042D01*
X106975503Y-42092682D01*
X106983632Y-42084553D01*
X107105992Y-41937430D01*
X107112502Y-41927958D01*
X107206006Y-41760994D01*
X107210680Y-41750497D01*
X107271393Y-41571644D01*
X107270160Y-41562993D01*
X107256592Y-41559000D01*
X106468065Y-41559000D01*
X106452826Y-41563475D01*
X106451622Y-41564864D01*
X106449950Y-41572548D01*
X106449950Y-42365681D01*
X105941778Y-42365681D01*
X105941950Y-42365232D01*
X105941950Y-41577115D01*
X105937475Y-41561876D01*
X105936085Y-41560671D01*
X105928402Y-41559000D01*
X105139444Y-41559000D01*
X105125913Y-41562973D01*
X105124621Y-41571962D01*
X104731813Y-41571962D01*
X104732678Y-41569414D01*
X104732679Y-41569409D01*
X104734534Y-41563945D01*
X104735362Y-41558236D01*
X104735363Y-41558231D01*
X104763129Y-41366727D01*
X104763662Y-41363053D01*
X104765182Y-41305000D01*
X104746608Y-41102859D01*
X104745040Y-41097299D01*
X104731079Y-41047799D01*
X105123893Y-41047799D01*
X105130625Y-41051000D01*
X105923835Y-41051000D01*
X105939074Y-41046525D01*
X105940279Y-41045135D01*
X105941950Y-41037452D01*
X105941950Y-41032885D01*
X106449950Y-41032885D01*
X106454425Y-41048124D01*
X106455815Y-41049329D01*
X106463498Y-41051000D01*
X107253348Y-41051000D01*
X107266879Y-41047027D01*
X107268048Y-41038892D01*
X107232608Y-40913231D01*
X107228483Y-40902484D01*
X107143853Y-40730871D01*
X107137843Y-40721063D01*
X107023350Y-40567739D01*
X107015660Y-40559199D01*
X106875142Y-40429304D01*
X106866017Y-40422303D01*
X106704186Y-40320195D01*
X106693939Y-40314974D01*
X106516210Y-40244068D01*
X106505182Y-40240801D01*
X106467719Y-40233350D01*
X106454844Y-40234502D01*
X106449950Y-40249658D01*
X106449950Y-41032885D01*
X105941950Y-41032885D01*
X105941950Y-40246500D01*
X105938144Y-40233538D01*
X105923229Y-40231602D01*
X105914682Y-40233071D01*
X105903570Y-40236048D01*
X105724045Y-40302279D01*
X105713667Y-40307229D01*
X105549223Y-40405063D01*
X105539911Y-40411829D01*
X105396047Y-40537994D01*
X105388130Y-40546337D01*
X105269668Y-40696605D01*
X105263400Y-40706256D01*
X105174308Y-40875592D01*
X105169903Y-40886227D01*
X105124112Y-41033698D01*
X105123893Y-41047799D01*
X104731079Y-41047799D01*
X104693075Y-40913046D01*
X104693074Y-40913044D01*
X104691507Y-40907487D01*
X104683083Y-40890403D01*
X104604281Y-40730609D01*
X104601726Y-40725428D01*
X104480270Y-40562779D01*
X104331208Y-40424987D01*
X104326325Y-40421906D01*
X104326321Y-40421903D01*
X104165606Y-40320500D01*
X104159531Y-40316667D01*
X103970989Y-40241446D01*
X103965329Y-40240320D01*
X103965325Y-40240319D01*
X103777563Y-40202971D01*
X103777560Y-40202971D01*
X103771896Y-40201844D01*
X103766121Y-40201768D01*
X103766117Y-40201768D01*
X103664743Y-40200441D01*
X103568921Y-40199187D01*
X103563224Y-40200166D01*
X103563223Y-40200166D01*
X103380278Y-40231602D01*
X103368860Y-40233564D01*
X103178413Y-40303824D01*
X103003960Y-40407612D01*
X102999620Y-40411418D01*
X102999616Y-40411421D01*
X102902061Y-40496975D01*
X102851342Y-40541455D01*
X102725670Y-40700869D01*
X102722981Y-40705980D01*
X102722979Y-40705983D01*
X102701275Y-40747236D01*
X102631153Y-40880515D01*
X102570957Y-41074378D01*
X102547098Y-41275964D01*
X90822450Y-41275964D01*
X90822450Y-40944244D01*
X90815748Y-40882552D01*
X90811908Y-40872307D01*
X90768171Y-40755640D01*
X90765021Y-40747236D01*
X90759641Y-40740057D01*
X90759639Y-40740054D01*
X90683735Y-40638776D01*
X90678354Y-40631596D01*
X90657927Y-40616287D01*
X90569896Y-40550311D01*
X90569893Y-40550309D01*
X90562714Y-40544929D01*
X90488290Y-40517029D01*
X90431525Y-40474388D01*
X90406825Y-40407826D01*
X90422032Y-40338478D01*
X90472318Y-40288359D01*
X90488291Y-40281065D01*
X90529067Y-40265779D01*
X90544654Y-40257246D01*
X90645817Y-40181428D01*
X90658378Y-40168867D01*
X90734196Y-40067704D01*
X90742728Y-40052118D01*
X90787483Y-39932735D01*
X90791108Y-39917490D01*
X90796581Y-39867108D01*
X90796763Y-39863756D01*
X91188450Y-39863756D01*
X91195152Y-39925448D01*
X91245879Y-40060764D01*
X91251259Y-40067943D01*
X91251261Y-40067946D01*
X91317237Y-40155977D01*
X91332546Y-40176404D01*
X91339726Y-40181785D01*
X91441004Y-40257689D01*
X91441007Y-40257691D01*
X91448186Y-40263071D01*
X91515643Y-40288359D01*
X91576107Y-40311026D01*
X91576109Y-40311026D01*
X91583502Y-40313798D01*
X91591352Y-40314651D01*
X91591353Y-40314651D01*
X91641797Y-40320131D01*
X91645194Y-40320500D01*
X92415706Y-40320500D01*
X92419103Y-40320131D01*
X92469547Y-40314651D01*
X92469548Y-40314651D01*
X92477398Y-40313798D01*
X92484791Y-40311026D01*
X92484793Y-40311026D01*
X92545257Y-40288359D01*
X92612714Y-40263071D01*
X92619893Y-40257691D01*
X92619896Y-40257689D01*
X92721174Y-40181785D01*
X92728354Y-40176404D01*
X92743663Y-40155977D01*
X92809639Y-40067946D01*
X92809641Y-40067943D01*
X92815021Y-40060764D01*
X92865748Y-39925448D01*
X92872450Y-39863756D01*
X92872450Y-38818244D01*
X92872081Y-38814847D01*
X92866601Y-38764403D01*
X92866601Y-38764402D01*
X92865748Y-38756552D01*
X92858030Y-38735964D01*
X102547098Y-38735964D01*
X102560374Y-38938522D01*
X102561795Y-38944118D01*
X102561796Y-38944123D01*
X102597353Y-39084124D01*
X102610342Y-39135269D01*
X102612759Y-39140512D01*
X102649862Y-39220994D01*
X102695327Y-39319616D01*
X102722424Y-39357958D01*
X102806474Y-39476886D01*
X102812483Y-39485389D01*
X102816625Y-39489424D01*
X102847340Y-39519345D01*
X102957888Y-39627035D01*
X103126670Y-39739812D01*
X103131973Y-39742090D01*
X103131976Y-39742092D01*
X103256709Y-39795681D01*
X103313178Y-39819942D01*
X103372950Y-39833467D01*
X103505529Y-39863467D01*
X103505534Y-39863468D01*
X103511166Y-39864742D01*
X103516937Y-39864969D01*
X103516939Y-39864969D01*
X103572526Y-39867153D01*
X103714003Y-39872712D01*
X103814449Y-39858148D01*
X103909181Y-39844413D01*
X103909186Y-39844412D01*
X103914895Y-39843584D01*
X103920359Y-39841729D01*
X103920364Y-39841728D01*
X104101643Y-39780192D01*
X104101648Y-39780190D01*
X104107115Y-39778334D01*
X104112969Y-39775056D01*
X104182420Y-39736161D01*
X104284226Y-39679147D01*
X104316901Y-39651972D01*
X104435863Y-39553031D01*
X104440295Y-39549345D01*
X104506143Y-39470172D01*
X104566403Y-39397718D01*
X104566405Y-39397715D01*
X104570097Y-39393276D01*
X104669284Y-39216165D01*
X104671140Y-39210698D01*
X104671142Y-39210693D01*
X104731813Y-39031962D01*
X105124621Y-39031962D01*
X105149393Y-39129502D01*
X105153234Y-39140348D01*
X105233344Y-39314120D01*
X105239095Y-39324081D01*
X105349529Y-39480343D01*
X105357007Y-39489098D01*
X105494064Y-39622612D01*
X105503008Y-39629855D01*
X105662106Y-39736161D01*
X105672216Y-39741651D01*
X105848027Y-39817185D01*
X105858970Y-39820740D01*
X105924282Y-39835519D01*
X105938355Y-39834630D01*
X105941778Y-39825681D01*
X106449950Y-39825681D01*
X106453916Y-39839187D01*
X106462622Y-39840433D01*
X106641447Y-39779730D01*
X106651944Y-39775056D01*
X106818908Y-39681552D01*
X106828380Y-39675042D01*
X106975503Y-39552682D01*
X106983632Y-39544553D01*
X107105992Y-39397430D01*
X107112502Y-39387958D01*
X107206006Y-39220994D01*
X107210680Y-39210497D01*
X107271393Y-39031644D01*
X107270160Y-39022993D01*
X107256592Y-39019000D01*
X106468065Y-39019000D01*
X106452826Y-39023475D01*
X106451622Y-39024864D01*
X106449950Y-39032548D01*
X106449950Y-39825681D01*
X105941778Y-39825681D01*
X105941950Y-39825232D01*
X105941950Y-39037115D01*
X105937475Y-39021876D01*
X105936085Y-39020671D01*
X105928402Y-39019000D01*
X105139444Y-39019000D01*
X105125913Y-39022973D01*
X105124621Y-39031962D01*
X104731813Y-39031962D01*
X104732678Y-39029414D01*
X104732679Y-39029409D01*
X104734534Y-39023945D01*
X104735362Y-39018236D01*
X104735363Y-39018231D01*
X104754035Y-38889451D01*
X104763662Y-38823053D01*
X104765182Y-38765000D01*
X104753747Y-38640551D01*
X104747137Y-38568613D01*
X104747136Y-38568610D01*
X104746608Y-38562859D01*
X104745040Y-38557299D01*
X104731079Y-38507799D01*
X105123893Y-38507799D01*
X105130625Y-38511000D01*
X105923835Y-38511000D01*
X105939074Y-38506525D01*
X105940279Y-38505135D01*
X105941950Y-38497452D01*
X105941950Y-38492885D01*
X106449950Y-38492885D01*
X106454425Y-38508124D01*
X106455815Y-38509329D01*
X106463498Y-38511000D01*
X107253348Y-38511000D01*
X107266879Y-38507027D01*
X107268048Y-38498892D01*
X107232608Y-38373231D01*
X107228483Y-38362484D01*
X107143853Y-38190871D01*
X107137843Y-38181063D01*
X107023350Y-38027739D01*
X107015660Y-38019199D01*
X106875142Y-37889304D01*
X106866017Y-37882303D01*
X106704186Y-37780195D01*
X106693939Y-37774974D01*
X106516210Y-37704068D01*
X106505182Y-37700801D01*
X106467719Y-37693350D01*
X106454844Y-37694502D01*
X106449950Y-37709658D01*
X106449950Y-38492885D01*
X105941950Y-38492885D01*
X105941950Y-37706500D01*
X105938144Y-37693538D01*
X105923229Y-37691602D01*
X105914682Y-37693071D01*
X105903570Y-37696048D01*
X105724045Y-37762279D01*
X105713667Y-37767229D01*
X105549223Y-37865063D01*
X105539911Y-37871829D01*
X105396047Y-37997994D01*
X105388130Y-38006337D01*
X105269668Y-38156605D01*
X105263400Y-38166256D01*
X105174308Y-38335592D01*
X105169903Y-38346227D01*
X105124112Y-38493698D01*
X105123893Y-38507799D01*
X104731079Y-38507799D01*
X104693075Y-38373046D01*
X104693074Y-38373044D01*
X104691507Y-38367487D01*
X104688802Y-38362000D01*
X104604281Y-38190609D01*
X104601726Y-38185428D01*
X104480270Y-38022779D01*
X104331208Y-37884987D01*
X104326325Y-37881906D01*
X104326321Y-37881903D01*
X104180678Y-37790010D01*
X104159531Y-37776667D01*
X103970989Y-37701446D01*
X103965329Y-37700320D01*
X103965325Y-37700319D01*
X103777563Y-37662971D01*
X103777560Y-37662971D01*
X103771896Y-37661844D01*
X103766121Y-37661768D01*
X103766117Y-37661768D01*
X103664743Y-37660441D01*
X103568921Y-37659187D01*
X103563224Y-37660166D01*
X103563223Y-37660166D01*
X103380278Y-37691602D01*
X103368860Y-37693564D01*
X103178413Y-37763824D01*
X103003960Y-37867612D01*
X102999620Y-37871418D01*
X102999616Y-37871421D01*
X102979673Y-37888911D01*
X102851342Y-38001455D01*
X102725670Y-38160869D01*
X102722981Y-38165980D01*
X102722979Y-38165983D01*
X102710023Y-38190609D01*
X102631153Y-38340515D01*
X102570957Y-38534378D01*
X102547098Y-38735964D01*
X92858030Y-38735964D01*
X92856284Y-38731305D01*
X92844350Y-38699471D01*
X92815021Y-38621236D01*
X92809641Y-38614057D01*
X92809639Y-38614054D01*
X92733735Y-38512776D01*
X92728354Y-38505596D01*
X92707927Y-38490287D01*
X92619896Y-38424311D01*
X92619893Y-38424309D01*
X92612714Y-38418929D01*
X92496994Y-38375548D01*
X92484793Y-38370974D01*
X92484791Y-38370974D01*
X92477398Y-38368202D01*
X92469548Y-38367349D01*
X92469547Y-38367349D01*
X92419103Y-38361869D01*
X92419102Y-38361869D01*
X92415706Y-38361500D01*
X91645194Y-38361500D01*
X91641798Y-38361869D01*
X91641797Y-38361869D01*
X91591353Y-38367349D01*
X91591352Y-38367349D01*
X91583502Y-38368202D01*
X91576109Y-38370974D01*
X91576107Y-38370974D01*
X91563906Y-38375548D01*
X91448186Y-38418929D01*
X91441007Y-38424309D01*
X91441004Y-38424311D01*
X91352973Y-38490287D01*
X91332546Y-38505596D01*
X91327165Y-38512776D01*
X91251261Y-38614054D01*
X91251259Y-38614057D01*
X91245879Y-38621236D01*
X91216550Y-38699471D01*
X91204617Y-38731305D01*
X91195152Y-38756552D01*
X91194299Y-38764402D01*
X91194299Y-38764403D01*
X91188819Y-38814847D01*
X91188450Y-38818244D01*
X91188450Y-39863756D01*
X90796763Y-39863756D01*
X90796950Y-39860294D01*
X90796950Y-39613115D01*
X90792475Y-39597876D01*
X90791085Y-39596671D01*
X90783402Y-39595000D01*
X89132066Y-39595000D01*
X89116827Y-39599475D01*
X89115622Y-39600865D01*
X89113951Y-39608548D01*
X89113951Y-39860292D01*
X89114320Y-39867110D01*
X89119791Y-39917482D01*
X89123420Y-39932741D01*
X89168172Y-40052118D01*
X89176704Y-40067704D01*
X89252522Y-40168867D01*
X89265083Y-40181428D01*
X89366246Y-40257246D01*
X89381831Y-40265778D01*
X89435110Y-40285751D01*
X89491875Y-40328392D01*
X89516575Y-40394953D01*
X89501368Y-40464302D01*
X89451083Y-40514421D01*
X89435109Y-40521715D01*
X89373186Y-40544929D01*
X89366007Y-40550309D01*
X89366004Y-40550311D01*
X89277973Y-40616287D01*
X89257546Y-40631596D01*
X89252165Y-40638776D01*
X89176261Y-40740054D01*
X89176259Y-40740057D01*
X89170879Y-40747236D01*
X89167729Y-40755640D01*
X89123993Y-40872307D01*
X89120152Y-40882552D01*
X89113450Y-40944244D01*
X89113450Y-41939756D01*
X88822450Y-41939756D01*
X88822450Y-40944244D01*
X88815748Y-40882552D01*
X88811908Y-40872307D01*
X88768171Y-40755640D01*
X88765021Y-40747236D01*
X88759641Y-40740057D01*
X88759639Y-40740054D01*
X88683735Y-40638776D01*
X88678354Y-40631596D01*
X88657927Y-40616287D01*
X88569896Y-40550311D01*
X88569893Y-40550309D01*
X88562714Y-40544929D01*
X88457032Y-40505311D01*
X88434793Y-40496974D01*
X88434791Y-40496974D01*
X88427398Y-40494202D01*
X88419548Y-40493349D01*
X88419547Y-40493349D01*
X88369103Y-40487869D01*
X88369102Y-40487869D01*
X88365706Y-40487500D01*
X87570194Y-40487500D01*
X87508502Y-40494202D01*
X87501105Y-40496975D01*
X87478867Y-40505311D01*
X87408060Y-40510492D01*
X87345546Y-40476423D01*
X86339295Y-39470172D01*
X86305269Y-39407860D01*
X86303647Y-39363326D01*
X86307962Y-39333007D01*
X86308107Y-39319200D01*
X86289076Y-39161933D01*
X86253916Y-39068885D01*
X89113950Y-39068885D01*
X89118425Y-39084124D01*
X89119815Y-39085329D01*
X89127498Y-39087000D01*
X89683335Y-39087000D01*
X89698574Y-39082525D01*
X89699779Y-39081135D01*
X89701450Y-39073452D01*
X89701450Y-39068885D01*
X90209450Y-39068885D01*
X90213925Y-39084124D01*
X90215315Y-39085329D01*
X90222998Y-39087000D01*
X90778834Y-39087000D01*
X90794073Y-39082525D01*
X90795278Y-39081135D01*
X90796949Y-39073452D01*
X90796949Y-38821708D01*
X90796580Y-38814890D01*
X90791109Y-38764518D01*
X90787480Y-38749259D01*
X90742728Y-38629882D01*
X90734196Y-38614296D01*
X90658378Y-38513133D01*
X90645817Y-38500572D01*
X90544654Y-38424754D01*
X90529068Y-38416222D01*
X90409685Y-38371467D01*
X90394440Y-38367842D01*
X90344058Y-38362369D01*
X90337244Y-38362000D01*
X90227565Y-38362000D01*
X90212326Y-38366475D01*
X90211121Y-38367865D01*
X90209450Y-38375548D01*
X90209450Y-39068885D01*
X89701450Y-39068885D01*
X89701450Y-38380116D01*
X89696975Y-38364877D01*
X89695585Y-38363672D01*
X89687902Y-38362001D01*
X89573658Y-38362001D01*
X89566840Y-38362370D01*
X89516468Y-38367841D01*
X89501209Y-38371470D01*
X89381832Y-38416222D01*
X89366246Y-38424754D01*
X89265083Y-38500572D01*
X89252522Y-38513133D01*
X89176704Y-38614296D01*
X89168172Y-38629882D01*
X89123417Y-38749265D01*
X89119792Y-38764510D01*
X89114319Y-38814892D01*
X89113950Y-38821706D01*
X89113950Y-39068885D01*
X86253916Y-39068885D01*
X86233080Y-39013746D01*
X86223230Y-38999414D01*
X86147655Y-38889451D01*
X86147654Y-38889449D01*
X86143353Y-38883192D01*
X86025075Y-38777811D01*
X86017689Y-38773900D01*
X85937241Y-38731305D01*
X85885074Y-38703684D01*
X85731433Y-38665092D01*
X85723834Y-38665052D01*
X85723833Y-38665052D01*
X85657981Y-38664707D01*
X85573021Y-38664262D01*
X85565641Y-38666034D01*
X85565639Y-38666034D01*
X85426363Y-38699471D01*
X85426360Y-38699472D01*
X85418984Y-38701243D01*
X85278214Y-38773900D01*
X85158839Y-38878038D01*
X85067750Y-39007644D01*
X85056260Y-39037115D01*
X85020173Y-39129674D01*
X85010206Y-39155237D01*
X85009214Y-39162770D01*
X85009214Y-39162771D01*
X84992515Y-39289616D01*
X84989529Y-39312296D01*
X82849147Y-39312296D01*
X82906048Y-39210693D01*
X82916960Y-39191208D01*
X82916961Y-39191206D01*
X82919784Y-39186165D01*
X82921640Y-39180698D01*
X82921642Y-39180693D01*
X82983178Y-38999414D01*
X82983179Y-38999409D01*
X82985034Y-38993945D01*
X82985862Y-38988236D01*
X82985863Y-38988231D01*
X83010007Y-38821708D01*
X83014162Y-38793053D01*
X83015682Y-38735000D01*
X82997108Y-38532859D01*
X82990943Y-38511000D01*
X82943575Y-38343046D01*
X82943574Y-38343044D01*
X82942007Y-38337487D01*
X82931428Y-38316033D01*
X82854781Y-38160609D01*
X82852226Y-38155428D01*
X82730770Y-37992779D01*
X82581708Y-37854987D01*
X82576825Y-37851906D01*
X82576821Y-37851903D01*
X82431178Y-37760010D01*
X82410031Y-37746667D01*
X82221489Y-37671446D01*
X82215829Y-37670320D01*
X82215825Y-37670319D01*
X82028063Y-37632971D01*
X82028060Y-37632971D01*
X82022396Y-37631844D01*
X82016621Y-37631768D01*
X82016617Y-37631768D01*
X81915243Y-37630441D01*
X81819421Y-37629187D01*
X81813724Y-37630166D01*
X81813723Y-37630166D01*
X81625057Y-37662585D01*
X81619360Y-37663564D01*
X81428913Y-37733824D01*
X81254460Y-37837612D01*
X81250120Y-37841418D01*
X81250116Y-37841421D01*
X81106183Y-37967648D01*
X81101842Y-37971455D01*
X80976170Y-38130869D01*
X80973481Y-38135980D01*
X80973479Y-38135983D01*
X80957552Y-38166256D01*
X80881653Y-38310515D01*
X80821457Y-38504378D01*
X80797598Y-38705964D01*
X75760950Y-38705964D01*
X75760950Y-38477799D01*
X78294393Y-38477799D01*
X78301125Y-38481000D01*
X79094335Y-38481000D01*
X79109574Y-38476525D01*
X79110779Y-38475135D01*
X79112450Y-38467452D01*
X79112450Y-38462885D01*
X79620450Y-38462885D01*
X79624925Y-38478124D01*
X79626315Y-38479329D01*
X79633998Y-38481000D01*
X80423848Y-38481000D01*
X80437379Y-38477027D01*
X80438548Y-38468892D01*
X80403108Y-38343231D01*
X80398983Y-38332484D01*
X80314352Y-38160869D01*
X80308343Y-38151063D01*
X80193850Y-37997739D01*
X80186160Y-37989199D01*
X80045642Y-37859304D01*
X80036517Y-37852303D01*
X79874686Y-37750195D01*
X79864439Y-37744974D01*
X79686710Y-37674068D01*
X79675682Y-37670801D01*
X79638219Y-37663350D01*
X79625344Y-37664502D01*
X79620450Y-37679658D01*
X79620450Y-38462885D01*
X79112450Y-38462885D01*
X79112450Y-37676500D01*
X79108644Y-37663538D01*
X79093729Y-37661602D01*
X79085182Y-37663071D01*
X79074070Y-37666048D01*
X78894545Y-37732279D01*
X78884167Y-37737229D01*
X78719723Y-37835063D01*
X78710411Y-37841829D01*
X78566547Y-37967994D01*
X78558630Y-37976337D01*
X78440168Y-38126605D01*
X78433900Y-38136256D01*
X78344808Y-38305592D01*
X78340403Y-38316227D01*
X78294612Y-38463698D01*
X78294393Y-38477799D01*
X75760950Y-38477799D01*
X75760950Y-36461962D01*
X78295121Y-36461962D01*
X78319893Y-36559502D01*
X78323734Y-36570348D01*
X78403844Y-36744120D01*
X78409595Y-36754081D01*
X78520029Y-36910343D01*
X78527507Y-36919098D01*
X78664564Y-37052612D01*
X78673508Y-37059855D01*
X78832606Y-37166161D01*
X78842716Y-37171651D01*
X79018527Y-37247185D01*
X79029470Y-37250740D01*
X79094782Y-37265519D01*
X79108855Y-37264630D01*
X79112278Y-37255681D01*
X79620450Y-37255681D01*
X79624416Y-37269187D01*
X79633122Y-37270433D01*
X79811947Y-37209730D01*
X79822444Y-37205056D01*
X79989408Y-37111552D01*
X79998880Y-37105042D01*
X80146003Y-36982682D01*
X80154132Y-36974553D01*
X80276492Y-36827430D01*
X80283002Y-36817958D01*
X80376506Y-36650994D01*
X80381180Y-36640497D01*
X80441893Y-36461644D01*
X80440660Y-36452993D01*
X80427092Y-36449000D01*
X79638565Y-36449000D01*
X79623326Y-36453475D01*
X79622121Y-36454865D01*
X79620450Y-36462548D01*
X79620450Y-37255681D01*
X79112278Y-37255681D01*
X79112450Y-37255232D01*
X79112450Y-36467115D01*
X79107975Y-36451876D01*
X79106585Y-36450671D01*
X79098902Y-36449000D01*
X78309944Y-36449000D01*
X78296413Y-36452973D01*
X78295121Y-36461962D01*
X75760950Y-36461962D01*
X75760950Y-36165964D01*
X80797598Y-36165964D01*
X80810874Y-36368522D01*
X80812295Y-36374118D01*
X80812296Y-36374123D01*
X80838737Y-36478231D01*
X80860842Y-36565269D01*
X80863259Y-36570512D01*
X80943293Y-36744120D01*
X80945827Y-36749616D01*
X81062983Y-36915389D01*
X81208388Y-37057035D01*
X81377170Y-37169812D01*
X81382473Y-37172090D01*
X81382476Y-37172092D01*
X81540984Y-37240192D01*
X81563678Y-37249942D01*
X81628590Y-37264630D01*
X81756029Y-37293467D01*
X81756034Y-37293468D01*
X81761666Y-37294742D01*
X81767437Y-37294969D01*
X81767439Y-37294969D01*
X81827206Y-37297317D01*
X81964503Y-37302712D01*
X82064949Y-37288148D01*
X82159681Y-37274413D01*
X82159686Y-37274412D01*
X82165395Y-37273584D01*
X82170859Y-37271729D01*
X82170864Y-37271728D01*
X82352143Y-37210192D01*
X82352148Y-37210190D01*
X82357615Y-37208334D01*
X82363469Y-37205056D01*
X82487753Y-37135453D01*
X82534726Y-37109147D01*
X82597384Y-37057035D01*
X82686363Y-36983031D01*
X82690795Y-36979345D01*
X82820597Y-36823276D01*
X82919784Y-36646165D01*
X82921640Y-36640698D01*
X82921642Y-36640693D01*
X82983178Y-36459414D01*
X82983179Y-36459409D01*
X82985034Y-36453945D01*
X82985862Y-36448236D01*
X82985863Y-36448231D01*
X82999851Y-36351756D01*
X97781450Y-36351756D01*
X97788152Y-36413448D01*
X97838879Y-36548764D01*
X97844259Y-36555943D01*
X97844261Y-36555946D01*
X97855055Y-36570348D01*
X97925546Y-36664404D01*
X97941239Y-36676165D01*
X98034004Y-36745689D01*
X98034007Y-36745691D01*
X98041186Y-36751071D01*
X98103340Y-36774371D01*
X98169107Y-36799026D01*
X98169109Y-36799026D01*
X98176502Y-36801798D01*
X98184352Y-36802651D01*
X98184353Y-36802651D01*
X98234797Y-36808131D01*
X98238194Y-36808500D01*
X99033706Y-36808500D01*
X99037103Y-36808131D01*
X99087547Y-36802651D01*
X99087548Y-36802651D01*
X99095398Y-36801798D01*
X99102791Y-36799026D01*
X99102793Y-36799026D01*
X99168560Y-36774371D01*
X99230714Y-36751071D01*
X99237893Y-36745691D01*
X99237896Y-36745689D01*
X99330661Y-36676165D01*
X99346354Y-36664404D01*
X99416845Y-36570348D01*
X99427639Y-36555946D01*
X99427641Y-36555943D01*
X99433021Y-36548764D01*
X99483748Y-36413448D01*
X99490450Y-36351756D01*
X99781450Y-36351756D01*
X99788152Y-36413448D01*
X99838879Y-36548764D01*
X99844259Y-36555943D01*
X99844261Y-36555946D01*
X99855055Y-36570348D01*
X99925546Y-36664404D01*
X99941239Y-36676165D01*
X100034004Y-36745689D01*
X100034007Y-36745691D01*
X100041186Y-36751071D01*
X100103340Y-36774371D01*
X100169107Y-36799026D01*
X100169109Y-36799026D01*
X100176502Y-36801798D01*
X100184352Y-36802651D01*
X100184353Y-36802651D01*
X100234797Y-36808131D01*
X100238194Y-36808500D01*
X101033706Y-36808500D01*
X101037103Y-36808131D01*
X101087547Y-36802651D01*
X101087548Y-36802651D01*
X101095398Y-36801798D01*
X101102791Y-36799026D01*
X101102793Y-36799026D01*
X101168560Y-36774371D01*
X101230714Y-36751071D01*
X101237893Y-36745691D01*
X101237896Y-36745689D01*
X101330661Y-36676165D01*
X101346354Y-36664404D01*
X101416845Y-36570348D01*
X101427639Y-36555946D01*
X101427641Y-36555943D01*
X101433021Y-36548764D01*
X101483748Y-36413448D01*
X101490450Y-36351756D01*
X101490450Y-35591212D01*
X101510452Y-35523091D01*
X101527355Y-35502117D01*
X101617067Y-35412405D01*
X101679379Y-35378379D01*
X101706162Y-35375500D01*
X102659328Y-35375500D01*
X102727449Y-35395502D01*
X102773942Y-35449158D01*
X102784046Y-35519432D01*
X102758278Y-35579506D01*
X102725670Y-35620869D01*
X102722981Y-35625980D01*
X102722979Y-35625983D01*
X102710023Y-35650609D01*
X102631153Y-35800515D01*
X102570957Y-35994378D01*
X102547098Y-36195964D01*
X102560374Y-36398522D01*
X102561795Y-36404118D01*
X102561796Y-36404123D01*
X102582069Y-36483945D01*
X102610342Y-36595269D01*
X102612759Y-36600512D01*
X102649960Y-36681208D01*
X102695327Y-36779616D01*
X102812483Y-36945389D01*
X102816625Y-36949424D01*
X102847340Y-36979345D01*
X102957888Y-37087035D01*
X103126670Y-37199812D01*
X103131973Y-37202090D01*
X103131976Y-37202092D01*
X103256709Y-37255681D01*
X103313178Y-37279942D01*
X103372950Y-37293467D01*
X103505529Y-37323467D01*
X103505534Y-37323468D01*
X103511166Y-37324742D01*
X103516937Y-37324969D01*
X103516939Y-37324969D01*
X103576706Y-37327317D01*
X103714003Y-37332712D01*
X103814449Y-37318148D01*
X103909181Y-37304413D01*
X103909186Y-37304412D01*
X103914895Y-37303584D01*
X103920359Y-37301729D01*
X103920364Y-37301728D01*
X104101643Y-37240192D01*
X104101648Y-37240190D01*
X104107115Y-37238334D01*
X104284226Y-37139147D01*
X104316901Y-37111972D01*
X104435863Y-37013031D01*
X104440295Y-37009345D01*
X104518438Y-36915389D01*
X104566403Y-36857718D01*
X104566405Y-36857715D01*
X104570097Y-36853276D01*
X104669284Y-36676165D01*
X104671140Y-36670698D01*
X104671142Y-36670693D01*
X104732678Y-36489414D01*
X104732679Y-36489409D01*
X104734534Y-36483945D01*
X104735362Y-36478236D01*
X104735363Y-36478231D01*
X104763129Y-36286727D01*
X104763662Y-36283053D01*
X104765182Y-36225000D01*
X104746608Y-36022859D01*
X104745040Y-36017299D01*
X104693075Y-35833046D01*
X104693074Y-35833044D01*
X104691507Y-35827487D01*
X104680928Y-35806033D01*
X104604281Y-35650609D01*
X104601726Y-35645428D01*
X104595150Y-35636621D01*
X104565007Y-35596256D01*
X104550545Y-35576888D01*
X104525813Y-35510340D01*
X104540987Y-35440984D01*
X104591249Y-35390841D01*
X104651503Y-35375500D01*
X104754738Y-35375500D01*
X104822859Y-35395502D01*
X104843833Y-35412405D01*
X105131757Y-35700329D01*
X105165783Y-35762641D01*
X105162995Y-35826788D01*
X105110957Y-35994378D01*
X105087098Y-36195964D01*
X105100374Y-36398522D01*
X105101795Y-36404118D01*
X105101796Y-36404123D01*
X105122069Y-36483945D01*
X105150342Y-36595269D01*
X105152759Y-36600512D01*
X105189960Y-36681208D01*
X105235327Y-36779616D01*
X105352483Y-36945389D01*
X105356625Y-36949424D01*
X105387340Y-36979345D01*
X105497888Y-37087035D01*
X105666670Y-37199812D01*
X105671973Y-37202090D01*
X105671976Y-37202092D01*
X105796709Y-37255681D01*
X105853178Y-37279942D01*
X105912950Y-37293467D01*
X106045529Y-37323467D01*
X106045534Y-37323468D01*
X106051166Y-37324742D01*
X106056937Y-37324969D01*
X106056939Y-37324969D01*
X106116706Y-37327317D01*
X106254003Y-37332712D01*
X106354449Y-37318148D01*
X106449181Y-37304413D01*
X106449186Y-37304412D01*
X106454895Y-37303584D01*
X106460359Y-37301729D01*
X106460364Y-37301728D01*
X106641643Y-37240192D01*
X106641648Y-37240190D01*
X106647115Y-37238334D01*
X106824226Y-37139147D01*
X106856901Y-37111972D01*
X106975863Y-37013031D01*
X106980295Y-37009345D01*
X107058438Y-36915389D01*
X107106403Y-36857718D01*
X107106405Y-36857715D01*
X107110097Y-36853276D01*
X107209284Y-36676165D01*
X107211140Y-36670698D01*
X107211142Y-36670693D01*
X107272678Y-36489414D01*
X107272679Y-36489409D01*
X107274534Y-36483945D01*
X107275362Y-36478236D01*
X107275363Y-36478231D01*
X107303129Y-36286727D01*
X107303662Y-36283053D01*
X107305182Y-36225000D01*
X107286608Y-36022859D01*
X107285040Y-36017299D01*
X107233075Y-35833046D01*
X107233074Y-35833044D01*
X107231507Y-35827487D01*
X107220928Y-35806033D01*
X107144281Y-35650609D01*
X107141726Y-35645428D01*
X107135150Y-35636621D01*
X107023727Y-35487409D01*
X107020270Y-35482779D01*
X106871208Y-35344987D01*
X106866325Y-35341906D01*
X106866321Y-35341903D01*
X106704414Y-35239748D01*
X106699531Y-35236667D01*
X106510989Y-35161446D01*
X106505329Y-35160320D01*
X106505325Y-35160319D01*
X106317563Y-35122971D01*
X106317560Y-35122971D01*
X106311896Y-35121844D01*
X106306121Y-35121768D01*
X106306117Y-35121768D01*
X106204743Y-35120441D01*
X106108921Y-35119187D01*
X106103224Y-35120166D01*
X106103223Y-35120166D01*
X105914557Y-35152585D01*
X105908860Y-35153564D01*
X105805688Y-35191626D01*
X105734856Y-35196438D01*
X105672983Y-35162510D01*
X105272990Y-34762518D01*
X105257649Y-34743522D01*
X105256672Y-34742448D01*
X105251021Y-34733696D01*
X105224478Y-34712771D01*
X105220003Y-34708794D01*
X105219942Y-34708865D01*
X105215985Y-34705512D01*
X105212302Y-34701829D01*
X105204196Y-34696036D01*
X105196514Y-34690547D01*
X105191765Y-34686982D01*
X105159457Y-34661512D01*
X105159456Y-34661511D01*
X105151280Y-34655066D01*
X105142593Y-34652015D01*
X105135107Y-34646666D01*
X105125131Y-34643683D01*
X105125130Y-34643682D01*
X105093748Y-34634297D01*
X105085736Y-34631901D01*
X105080107Y-34630072D01*
X105031448Y-34612984D01*
X105025859Y-34612500D01*
X105023148Y-34612500D01*
X105020481Y-34612385D01*
X105020418Y-34612366D01*
X105020425Y-34612192D01*
X105019679Y-34612145D01*
X105013426Y-34610275D01*
X104967696Y-34612072D01*
X104959272Y-34612403D01*
X104954325Y-34612500D01*
X104589911Y-34612500D01*
X104521790Y-34592498D01*
X104475297Y-34538842D01*
X104465193Y-34468568D01*
X104493037Y-34405930D01*
X104566403Y-34317718D01*
X104566405Y-34317715D01*
X104570097Y-34313276D01*
X104669284Y-34136165D01*
X104671140Y-34130698D01*
X104671142Y-34130693D01*
X104732678Y-33949414D01*
X104732679Y-33949409D01*
X104734534Y-33943945D01*
X104735362Y-33938236D01*
X104735363Y-33938231D01*
X104759908Y-33768942D01*
X104763662Y-33743053D01*
X104765182Y-33685000D01*
X104748498Y-33503428D01*
X104747137Y-33488613D01*
X104747136Y-33488610D01*
X104746608Y-33482859D01*
X104745040Y-33477299D01*
X104693075Y-33293046D01*
X104693074Y-33293044D01*
X104691507Y-33287487D01*
X104686144Y-33276610D01*
X104604281Y-33110609D01*
X104601726Y-33105428D01*
X104550545Y-33036888D01*
X104525813Y-32970340D01*
X104540987Y-32900984D01*
X104591249Y-32850841D01*
X104651503Y-32835500D01*
X104754738Y-32835500D01*
X104822859Y-32855502D01*
X104843833Y-32872405D01*
X105131757Y-33160329D01*
X105165783Y-33222641D01*
X105162995Y-33286788D01*
X105154387Y-33314512D01*
X105110957Y-33454378D01*
X105087098Y-33655964D01*
X105100374Y-33858522D01*
X105101795Y-33864118D01*
X105101796Y-33864123D01*
X105122069Y-33943945D01*
X105150342Y-34055269D01*
X105152759Y-34060512D01*
X105189960Y-34141208D01*
X105235327Y-34239616D01*
X105352483Y-34405389D01*
X105356625Y-34409424D01*
X105458727Y-34508886D01*
X105497888Y-34547035D01*
X105666670Y-34659812D01*
X105671973Y-34662090D01*
X105671976Y-34662092D01*
X105796709Y-34715681D01*
X105853178Y-34739942D01*
X105912950Y-34753467D01*
X106045529Y-34783467D01*
X106045534Y-34783468D01*
X106051166Y-34784742D01*
X106056937Y-34784969D01*
X106056939Y-34784969D01*
X106116706Y-34787317D01*
X106254003Y-34792712D01*
X106354449Y-34778148D01*
X106449181Y-34764413D01*
X106449186Y-34764412D01*
X106454895Y-34763584D01*
X106460359Y-34761729D01*
X106460364Y-34761728D01*
X106641643Y-34700192D01*
X106641648Y-34700190D01*
X106647115Y-34698334D01*
X106667386Y-34686982D01*
X106724067Y-34655239D01*
X106824226Y-34599147D01*
X106856901Y-34571972D01*
X106951646Y-34493172D01*
X106980295Y-34469345D01*
X107033487Y-34405389D01*
X107106403Y-34317718D01*
X107106405Y-34317715D01*
X107110097Y-34313276D01*
X107209284Y-34136165D01*
X107211140Y-34130698D01*
X107211142Y-34130693D01*
X107272678Y-33949414D01*
X107272679Y-33949409D01*
X107274534Y-33943945D01*
X107275362Y-33938236D01*
X107275363Y-33938231D01*
X107299908Y-33768942D01*
X107303662Y-33743053D01*
X107305182Y-33685000D01*
X107288498Y-33503428D01*
X107287137Y-33488613D01*
X107287136Y-33488610D01*
X107286608Y-33482859D01*
X107285040Y-33477299D01*
X107233075Y-33293046D01*
X107233074Y-33293044D01*
X107231507Y-33287487D01*
X107226144Y-33276610D01*
X107144281Y-33110609D01*
X107141726Y-33105428D01*
X107020270Y-32942779D01*
X106871208Y-32804987D01*
X106866325Y-32801906D01*
X106866321Y-32801903D01*
X106704414Y-32699748D01*
X106699531Y-32696667D01*
X106510989Y-32621446D01*
X106505329Y-32620320D01*
X106505325Y-32620319D01*
X106317563Y-32582971D01*
X106317560Y-32582971D01*
X106311896Y-32581844D01*
X106306121Y-32581768D01*
X106306117Y-32581768D01*
X106204743Y-32580441D01*
X106108921Y-32579187D01*
X106103224Y-32580166D01*
X106103223Y-32580166D01*
X105914557Y-32612585D01*
X105908860Y-32613564D01*
X105805688Y-32651626D01*
X105734856Y-32656438D01*
X105672983Y-32622510D01*
X105272990Y-32222518D01*
X105257649Y-32203522D01*
X105256672Y-32202448D01*
X105251021Y-32193696D01*
X105224478Y-32172771D01*
X105220003Y-32168794D01*
X105219942Y-32168865D01*
X105215985Y-32165512D01*
X105212302Y-32161829D01*
X105196511Y-32150545D01*
X105191765Y-32146982D01*
X105187610Y-32143706D01*
X105169881Y-32129730D01*
X105159457Y-32121512D01*
X105159456Y-32121511D01*
X105151280Y-32115066D01*
X105142593Y-32112015D01*
X105135107Y-32106666D01*
X105125131Y-32103683D01*
X105125130Y-32103682D01*
X105093748Y-32094297D01*
X105085736Y-32091901D01*
X105080107Y-32090072D01*
X105031448Y-32072984D01*
X105025859Y-32072500D01*
X105023148Y-32072500D01*
X105020481Y-32072385D01*
X105020418Y-32072366D01*
X105020425Y-32072192D01*
X105019679Y-32072145D01*
X105013426Y-32070275D01*
X104964642Y-32072192D01*
X104959272Y-32072403D01*
X104954325Y-32072500D01*
X104589911Y-32072500D01*
X104521790Y-32052498D01*
X104475297Y-31998842D01*
X104465193Y-31928568D01*
X104493037Y-31865930D01*
X104566403Y-31777718D01*
X104566405Y-31777715D01*
X104570097Y-31773276D01*
X104631227Y-31664120D01*
X104666460Y-31601208D01*
X104666461Y-31601206D01*
X104669284Y-31596165D01*
X104671140Y-31590698D01*
X104671142Y-31590693D01*
X104731813Y-31411962D01*
X105124621Y-31411962D01*
X105149393Y-31509502D01*
X105153234Y-31520348D01*
X105233344Y-31694120D01*
X105239095Y-31704081D01*
X105349529Y-31860343D01*
X105357007Y-31869098D01*
X105494064Y-32002612D01*
X105503008Y-32009855D01*
X105662106Y-32116161D01*
X105672216Y-32121651D01*
X105848027Y-32197185D01*
X105858970Y-32200740D01*
X105924282Y-32215519D01*
X105938355Y-32214630D01*
X105941778Y-32205681D01*
X106449950Y-32205681D01*
X106453916Y-32219187D01*
X106462622Y-32220433D01*
X106641447Y-32159730D01*
X106651944Y-32155056D01*
X106818908Y-32061552D01*
X106828380Y-32055042D01*
X106975503Y-31932682D01*
X106983632Y-31924553D01*
X107105992Y-31777430D01*
X107112502Y-31767958D01*
X107206006Y-31600994D01*
X107210680Y-31590497D01*
X107271393Y-31411644D01*
X107270160Y-31402993D01*
X107256592Y-31399000D01*
X106468065Y-31399000D01*
X106452826Y-31403475D01*
X106451622Y-31404864D01*
X106449950Y-31412548D01*
X106449950Y-32205681D01*
X105941778Y-32205681D01*
X105941950Y-32205232D01*
X105941950Y-31417115D01*
X105937475Y-31401876D01*
X105936085Y-31400671D01*
X105928402Y-31399000D01*
X105139444Y-31399000D01*
X105125913Y-31402973D01*
X105124621Y-31411962D01*
X104731813Y-31411962D01*
X104732678Y-31409414D01*
X104732679Y-31409409D01*
X104734534Y-31403945D01*
X104735362Y-31398236D01*
X104735363Y-31398231D01*
X104763129Y-31206727D01*
X104763662Y-31203053D01*
X104765182Y-31145000D01*
X104746608Y-30942859D01*
X104745040Y-30937299D01*
X104731079Y-30887799D01*
X105123893Y-30887799D01*
X105130625Y-30891000D01*
X105923835Y-30891000D01*
X105939074Y-30886525D01*
X105940279Y-30885135D01*
X105941950Y-30877452D01*
X105941950Y-30872885D01*
X106449950Y-30872885D01*
X106454425Y-30888124D01*
X106455815Y-30889329D01*
X106463498Y-30891000D01*
X107253348Y-30891000D01*
X107266879Y-30887027D01*
X107268048Y-30878892D01*
X107232608Y-30753231D01*
X107228483Y-30742484D01*
X107143853Y-30570871D01*
X107137843Y-30561063D01*
X107023350Y-30407739D01*
X107015660Y-30399199D01*
X106875142Y-30269304D01*
X106866017Y-30262303D01*
X106704186Y-30160195D01*
X106693939Y-30154974D01*
X106516210Y-30084068D01*
X106505182Y-30080801D01*
X106467719Y-30073350D01*
X106454844Y-30074502D01*
X106449950Y-30089658D01*
X106449950Y-30872885D01*
X105941950Y-30872885D01*
X105941950Y-30086500D01*
X105938144Y-30073538D01*
X105923229Y-30071602D01*
X105914682Y-30073071D01*
X105903570Y-30076048D01*
X105724045Y-30142279D01*
X105713667Y-30147229D01*
X105549223Y-30245063D01*
X105539911Y-30251829D01*
X105396047Y-30377994D01*
X105388130Y-30386337D01*
X105269668Y-30536605D01*
X105263400Y-30546256D01*
X105174308Y-30715592D01*
X105169903Y-30726227D01*
X105124112Y-30873698D01*
X105123893Y-30887799D01*
X104731079Y-30887799D01*
X104693075Y-30753046D01*
X104693074Y-30753044D01*
X104691507Y-30747487D01*
X104680928Y-30726033D01*
X104604281Y-30570609D01*
X104601726Y-30565428D01*
X104480270Y-30402779D01*
X104331208Y-30264987D01*
X104326325Y-30261906D01*
X104326321Y-30261903D01*
X104180678Y-30170010D01*
X104159531Y-30156667D01*
X103970989Y-30081446D01*
X103965329Y-30080320D01*
X103965325Y-30080319D01*
X103777563Y-30042971D01*
X103777560Y-30042971D01*
X103771896Y-30041844D01*
X103766121Y-30041768D01*
X103766117Y-30041768D01*
X103664743Y-30040441D01*
X103568921Y-30039187D01*
X103563224Y-30040166D01*
X103563223Y-30040166D01*
X103380278Y-30071602D01*
X103368860Y-30073564D01*
X103178413Y-30143824D01*
X103003960Y-30247612D01*
X102999620Y-30251418D01*
X102999616Y-30251421D01*
X102859966Y-30373892D01*
X102851342Y-30381455D01*
X102725670Y-30540869D01*
X102722981Y-30545980D01*
X102722979Y-30545983D01*
X102680618Y-30626498D01*
X102631153Y-30720515D01*
X102570957Y-30914378D01*
X102547098Y-31115964D01*
X102560374Y-31318522D01*
X102561795Y-31324118D01*
X102561796Y-31324123D01*
X102598363Y-31468103D01*
X102610342Y-31515269D01*
X102612759Y-31520512D01*
X102688899Y-31685672D01*
X102695327Y-31699616D01*
X102812483Y-31865389D01*
X102813197Y-31866085D01*
X102841595Y-31929456D01*
X102830991Y-31999656D01*
X102784118Y-32052980D01*
X102716753Y-32072500D01*
X102510163Y-32072500D01*
X102442042Y-32052498D01*
X102421068Y-32035595D01*
X101765355Y-31379882D01*
X101731329Y-31317570D01*
X101728450Y-31290787D01*
X101728450Y-30530244D01*
X101721748Y-30468552D01*
X101671021Y-30333236D01*
X101665641Y-30326057D01*
X101665639Y-30326054D01*
X101589735Y-30224776D01*
X101584354Y-30217596D01*
X101507764Y-30160195D01*
X101475896Y-30136311D01*
X101475893Y-30136309D01*
X101468714Y-30130929D01*
X101378996Y-30097296D01*
X101340793Y-30082974D01*
X101340791Y-30082974D01*
X101333398Y-30080202D01*
X101325548Y-30079349D01*
X101325547Y-30079349D01*
X101275103Y-30073869D01*
X101275102Y-30073869D01*
X101271706Y-30073500D01*
X100476194Y-30073500D01*
X100472798Y-30073869D01*
X100472797Y-30073869D01*
X100422353Y-30079349D01*
X100422352Y-30079349D01*
X100414502Y-30080202D01*
X100407109Y-30082974D01*
X100407107Y-30082974D01*
X100368904Y-30097296D01*
X100279186Y-30130929D01*
X100272007Y-30136309D01*
X100272004Y-30136311D01*
X100240136Y-30160195D01*
X100163546Y-30217596D01*
X100158165Y-30224776D01*
X100082261Y-30326054D01*
X100082259Y-30326057D01*
X100076879Y-30333236D01*
X100026152Y-30468552D01*
X100019450Y-30530244D01*
X100019450Y-31525756D01*
X100026152Y-31587448D01*
X100076879Y-31722764D01*
X100082259Y-31729943D01*
X100082261Y-31729946D01*
X100148237Y-31817977D01*
X100163546Y-31838404D01*
X100170726Y-31843785D01*
X100272004Y-31919689D01*
X100272007Y-31919691D01*
X100279186Y-31925071D01*
X100368904Y-31958704D01*
X100407107Y-31973026D01*
X100407109Y-31973026D01*
X100414502Y-31975798D01*
X100422352Y-31976651D01*
X100422353Y-31976651D01*
X100472797Y-31982131D01*
X100476194Y-31982500D01*
X101236738Y-31982500D01*
X101304859Y-32002502D01*
X101325833Y-32019405D01*
X101991904Y-32685476D01*
X102007268Y-32704499D01*
X102008232Y-32705558D01*
X102013879Y-32714304D01*
X102022058Y-32720752D01*
X102022060Y-32720754D01*
X102040427Y-32735234D01*
X102044900Y-32739209D01*
X102044961Y-32739137D01*
X102048918Y-32742490D01*
X102052599Y-32746171D01*
X102056831Y-32749195D01*
X102068389Y-32757455D01*
X102073135Y-32761018D01*
X102113620Y-32792934D01*
X102122305Y-32795984D01*
X102129793Y-32801335D01*
X102179200Y-32816110D01*
X102184787Y-32817926D01*
X102233452Y-32835016D01*
X102239041Y-32835500D01*
X102241752Y-32835500D01*
X102244421Y-32835615D01*
X102244482Y-32835634D01*
X102244475Y-32835808D01*
X102245222Y-32835855D01*
X102251475Y-32837725D01*
X102305639Y-32835597D01*
X102310585Y-32835500D01*
X102659328Y-32835500D01*
X102727449Y-32855502D01*
X102773942Y-32909158D01*
X102784046Y-32979432D01*
X102758278Y-33039506D01*
X102725670Y-33080869D01*
X102722981Y-33085980D01*
X102722979Y-33085983D01*
X102710023Y-33110609D01*
X102631153Y-33260515D01*
X102570957Y-33454378D01*
X102547098Y-33655964D01*
X102560374Y-33858522D01*
X102561795Y-33864118D01*
X102561796Y-33864123D01*
X102582069Y-33943945D01*
X102610342Y-34055269D01*
X102612759Y-34060512D01*
X102649960Y-34141208D01*
X102695327Y-34239616D01*
X102812483Y-34405389D01*
X102813197Y-34406085D01*
X102841595Y-34469456D01*
X102830991Y-34539656D01*
X102784118Y-34592980D01*
X102716753Y-34612500D01*
X101550090Y-34612500D01*
X101525774Y-34609913D01*
X101524351Y-34609846D01*
X101514170Y-34607654D01*
X101481624Y-34611506D01*
X101480602Y-34611627D01*
X101474628Y-34611979D01*
X101474636Y-34612072D01*
X101469458Y-34612500D01*
X101464258Y-34612500D01*
X101459129Y-34613354D01*
X101459126Y-34613354D01*
X101445115Y-34615686D01*
X101439236Y-34616523D01*
X101398383Y-34621358D01*
X101398382Y-34621358D01*
X101388043Y-34622582D01*
X101379744Y-34626567D01*
X101370667Y-34628078D01*
X101325299Y-34652558D01*
X101320036Y-34655239D01*
X101292765Y-34668334D01*
X101273552Y-34677560D01*
X101269258Y-34681169D01*
X101267332Y-34683095D01*
X101265374Y-34684891D01*
X101265317Y-34684921D01*
X101265199Y-34684792D01*
X101264634Y-34685290D01*
X101258893Y-34688388D01*
X101251824Y-34696035D01*
X101251823Y-34696036D01*
X101222096Y-34728195D01*
X101218666Y-34731761D01*
X101087832Y-34862595D01*
X101025520Y-34896621D01*
X100998737Y-34899500D01*
X100238194Y-34899500D01*
X100234798Y-34899869D01*
X100234797Y-34899869D01*
X100184353Y-34905349D01*
X100184352Y-34905349D01*
X100176502Y-34906202D01*
X100169109Y-34908974D01*
X100169107Y-34908974D01*
X100130904Y-34923296D01*
X100041186Y-34956929D01*
X100034007Y-34962309D01*
X100034004Y-34962311D01*
X99945973Y-35028287D01*
X99925546Y-35043596D01*
X99920165Y-35050776D01*
X99844261Y-35152054D01*
X99844259Y-35152057D01*
X99838879Y-35159236D01*
X99788152Y-35294552D01*
X99781450Y-35356244D01*
X99781450Y-36351756D01*
X99490450Y-36351756D01*
X99490450Y-35356244D01*
X99483748Y-35294552D01*
X99433021Y-35159236D01*
X99427641Y-35152057D01*
X99427639Y-35152054D01*
X99351735Y-35050776D01*
X99346354Y-35043596D01*
X99325927Y-35028287D01*
X99237896Y-34962311D01*
X99237893Y-34962309D01*
X99230714Y-34956929D01*
X99140996Y-34923296D01*
X99102793Y-34908974D01*
X99102791Y-34908974D01*
X99095398Y-34906202D01*
X99087548Y-34905349D01*
X99087547Y-34905349D01*
X99037103Y-34899869D01*
X99037102Y-34899869D01*
X99033706Y-34899500D01*
X98238194Y-34899500D01*
X98234798Y-34899869D01*
X98234797Y-34899869D01*
X98184353Y-34905349D01*
X98184352Y-34905349D01*
X98176502Y-34906202D01*
X98169109Y-34908974D01*
X98169107Y-34908974D01*
X98130904Y-34923296D01*
X98041186Y-34956929D01*
X98034007Y-34962309D01*
X98034004Y-34962311D01*
X97945973Y-35028287D01*
X97925546Y-35043596D01*
X97920165Y-35050776D01*
X97844261Y-35152054D01*
X97844259Y-35152057D01*
X97838879Y-35159236D01*
X97788152Y-35294552D01*
X97781450Y-35356244D01*
X97781450Y-36351756D01*
X82999851Y-36351756D01*
X83013629Y-36256727D01*
X83014162Y-36253053D01*
X83015682Y-36195000D01*
X82997108Y-35992859D01*
X82995540Y-35987299D01*
X82943575Y-35803046D01*
X82943574Y-35803044D01*
X82942007Y-35797487D01*
X82931428Y-35776033D01*
X82854781Y-35620609D01*
X82852226Y-35615428D01*
X82730770Y-35452779D01*
X82581708Y-35314987D01*
X82576825Y-35311906D01*
X82576821Y-35311903D01*
X82430438Y-35219543D01*
X82410031Y-35206667D01*
X82221489Y-35131446D01*
X82215829Y-35130320D01*
X82215825Y-35130319D01*
X82028063Y-35092971D01*
X82028060Y-35092971D01*
X82022396Y-35091844D01*
X82016621Y-35091768D01*
X82016617Y-35091768D01*
X81915243Y-35090441D01*
X81819421Y-35089187D01*
X81813724Y-35090166D01*
X81813723Y-35090166D01*
X81625057Y-35122585D01*
X81619360Y-35123564D01*
X81428913Y-35193824D01*
X81254460Y-35297612D01*
X81250120Y-35301418D01*
X81250116Y-35301421D01*
X81187603Y-35356244D01*
X81101842Y-35431455D01*
X81098267Y-35435990D01*
X81098266Y-35435991D01*
X81094330Y-35440984D01*
X80976170Y-35590869D01*
X80973481Y-35595980D01*
X80973479Y-35595983D01*
X80949899Y-35640801D01*
X80881653Y-35770515D01*
X80821457Y-35964378D01*
X80797598Y-36165964D01*
X75760950Y-36165964D01*
X75760950Y-35937799D01*
X78294393Y-35937799D01*
X78301125Y-35941000D01*
X79094335Y-35941000D01*
X79109574Y-35936525D01*
X79110779Y-35935135D01*
X79112450Y-35927452D01*
X79112450Y-35922885D01*
X79620450Y-35922885D01*
X79624925Y-35938124D01*
X79626315Y-35939329D01*
X79633998Y-35941000D01*
X80423848Y-35941000D01*
X80437379Y-35937027D01*
X80438548Y-35928892D01*
X80403108Y-35803231D01*
X80398983Y-35792484D01*
X80314352Y-35620869D01*
X80308343Y-35611063D01*
X80193850Y-35457739D01*
X80186160Y-35449199D01*
X80045642Y-35319304D01*
X80036517Y-35312303D01*
X79874686Y-35210195D01*
X79864439Y-35204974D01*
X79686710Y-35134068D01*
X79675682Y-35130801D01*
X79638219Y-35123350D01*
X79625344Y-35124502D01*
X79620450Y-35139658D01*
X79620450Y-35922885D01*
X79112450Y-35922885D01*
X79112450Y-35136500D01*
X79108644Y-35123538D01*
X79093729Y-35121602D01*
X79085182Y-35123071D01*
X79074070Y-35126048D01*
X78894545Y-35192279D01*
X78884167Y-35197229D01*
X78719723Y-35295063D01*
X78710411Y-35301829D01*
X78566547Y-35427994D01*
X78558630Y-35436337D01*
X78440168Y-35586605D01*
X78433900Y-35596256D01*
X78344808Y-35765592D01*
X78340403Y-35776227D01*
X78294612Y-35923698D01*
X78294393Y-35937799D01*
X75760950Y-35937799D01*
X75760950Y-33921962D01*
X78295121Y-33921962D01*
X78319893Y-34019502D01*
X78323734Y-34030348D01*
X78403844Y-34204120D01*
X78409595Y-34214081D01*
X78520029Y-34370343D01*
X78527507Y-34379098D01*
X78664564Y-34512612D01*
X78673508Y-34519855D01*
X78832606Y-34626161D01*
X78842716Y-34631651D01*
X79018527Y-34707185D01*
X79029470Y-34710740D01*
X79094782Y-34725519D01*
X79108855Y-34724630D01*
X79112278Y-34715681D01*
X79620450Y-34715681D01*
X79624416Y-34729187D01*
X79633122Y-34730433D01*
X79811947Y-34669730D01*
X79822444Y-34665056D01*
X79989408Y-34571552D01*
X79998880Y-34565042D01*
X80146003Y-34442682D01*
X80154132Y-34434553D01*
X80276492Y-34287430D01*
X80283002Y-34277958D01*
X80376506Y-34110994D01*
X80381180Y-34100497D01*
X80441893Y-33921644D01*
X80440660Y-33912993D01*
X80427092Y-33909000D01*
X79638565Y-33909000D01*
X79623326Y-33913475D01*
X79622121Y-33914865D01*
X79620450Y-33922548D01*
X79620450Y-34715681D01*
X79112278Y-34715681D01*
X79112450Y-34715232D01*
X79112450Y-33927115D01*
X79107975Y-33911876D01*
X79106585Y-33910671D01*
X79098902Y-33909000D01*
X78309944Y-33909000D01*
X78296413Y-33912973D01*
X78295121Y-33921962D01*
X75760950Y-33921962D01*
X75760950Y-33625964D01*
X80797598Y-33625964D01*
X80810874Y-33828522D01*
X80812295Y-33834118D01*
X80812296Y-33834123D01*
X80837453Y-33933176D01*
X80860842Y-34025269D01*
X80863259Y-34030512D01*
X80927360Y-34169557D01*
X80945827Y-34209616D01*
X81062983Y-34375389D01*
X81208388Y-34517035D01*
X81377170Y-34629812D01*
X81382473Y-34632090D01*
X81382476Y-34632092D01*
X81540984Y-34700192D01*
X81563678Y-34709942D01*
X81628590Y-34724630D01*
X81756029Y-34753467D01*
X81756034Y-34753468D01*
X81761666Y-34754742D01*
X81767437Y-34754969D01*
X81767439Y-34754969D01*
X81827206Y-34757317D01*
X81964503Y-34762712D01*
X82064949Y-34748148D01*
X82159681Y-34734413D01*
X82159686Y-34734412D01*
X82165395Y-34733584D01*
X82170859Y-34731729D01*
X82170864Y-34731728D01*
X82352143Y-34670192D01*
X82352148Y-34670190D01*
X82357615Y-34668334D01*
X82363469Y-34665056D01*
X82432920Y-34626161D01*
X82534726Y-34569147D01*
X82597384Y-34517035D01*
X82662146Y-34463172D01*
X82690795Y-34439345D01*
X82820597Y-34283276D01*
X82919784Y-34106165D01*
X82920786Y-34106726D01*
X82962920Y-34057155D01*
X83032047Y-34036500D01*
X86657338Y-34036500D01*
X86725459Y-34056502D01*
X86746433Y-34073405D01*
X87057545Y-34384517D01*
X87091571Y-34446829D01*
X87094450Y-34473612D01*
X87094450Y-35234156D01*
X87101152Y-35295848D01*
X87103924Y-35303241D01*
X87103924Y-35303243D01*
X87108327Y-35314987D01*
X87151879Y-35431164D01*
X87157259Y-35438343D01*
X87157261Y-35438346D01*
X87187621Y-35478855D01*
X87238546Y-35546804D01*
X87245726Y-35552185D01*
X87347004Y-35628089D01*
X87347007Y-35628091D01*
X87354186Y-35633471D01*
X87443904Y-35667104D01*
X87482107Y-35681426D01*
X87482109Y-35681426D01*
X87489502Y-35684198D01*
X87497352Y-35685051D01*
X87497353Y-35685051D01*
X87547797Y-35690531D01*
X87551194Y-35690900D01*
X88346706Y-35690900D01*
X88350103Y-35690531D01*
X88400547Y-35685051D01*
X88400548Y-35685051D01*
X88408398Y-35684198D01*
X88415791Y-35681426D01*
X88415793Y-35681426D01*
X88453996Y-35667104D01*
X88543714Y-35633471D01*
X88550893Y-35628091D01*
X88550896Y-35628089D01*
X88652174Y-35552185D01*
X88659354Y-35546804D01*
X88710279Y-35478855D01*
X88740639Y-35438346D01*
X88740641Y-35438343D01*
X88746021Y-35431164D01*
X88789573Y-35314987D01*
X88793976Y-35303243D01*
X88793976Y-35303241D01*
X88796748Y-35295848D01*
X88803450Y-35234156D01*
X89094450Y-35234156D01*
X89101152Y-35295848D01*
X89103924Y-35303241D01*
X89103924Y-35303243D01*
X89108327Y-35314987D01*
X89151879Y-35431164D01*
X89157259Y-35438343D01*
X89157261Y-35438346D01*
X89187621Y-35478855D01*
X89238546Y-35546804D01*
X89245726Y-35552185D01*
X89347004Y-35628089D01*
X89347007Y-35628091D01*
X89354186Y-35633471D01*
X89443904Y-35667104D01*
X89482107Y-35681426D01*
X89482109Y-35681426D01*
X89489502Y-35684198D01*
X89497352Y-35685051D01*
X89497353Y-35685051D01*
X89547797Y-35690531D01*
X89551194Y-35690900D01*
X90346706Y-35690900D01*
X90350103Y-35690531D01*
X90400547Y-35685051D01*
X90400548Y-35685051D01*
X90408398Y-35684198D01*
X90415791Y-35681426D01*
X90415793Y-35681426D01*
X90453996Y-35667104D01*
X90543714Y-35633471D01*
X90550893Y-35628091D01*
X90550896Y-35628089D01*
X90652174Y-35552185D01*
X90659354Y-35546804D01*
X90710279Y-35478855D01*
X90740639Y-35438346D01*
X90740641Y-35438343D01*
X90746021Y-35431164D01*
X90789573Y-35314987D01*
X90793976Y-35303243D01*
X90793976Y-35303241D01*
X90796748Y-35295848D01*
X90803450Y-35234156D01*
X90803450Y-34238644D01*
X90799727Y-34204371D01*
X90797601Y-34184803D01*
X90797601Y-34184802D01*
X90796748Y-34176952D01*
X90746021Y-34041636D01*
X90740641Y-34034457D01*
X90740639Y-34034454D01*
X90664735Y-33933176D01*
X90659354Y-33925996D01*
X90576797Y-33864123D01*
X90550896Y-33844711D01*
X90550893Y-33844709D01*
X90543714Y-33839329D01*
X90515602Y-33828790D01*
X90458839Y-33786152D01*
X90434137Y-33719591D01*
X90449343Y-33650242D01*
X90499628Y-33600122D01*
X90515600Y-33592828D01*
X90529066Y-33587780D01*
X90544654Y-33579246D01*
X90645817Y-33503428D01*
X90658378Y-33490867D01*
X90734196Y-33389704D01*
X90742728Y-33374118D01*
X90787483Y-33254735D01*
X90791108Y-33239490D01*
X90796581Y-33189108D01*
X90796763Y-33185756D01*
X91188450Y-33185756D01*
X91195152Y-33247448D01*
X91197924Y-33254841D01*
X91197924Y-33254843D01*
X91204546Y-33272506D01*
X91245879Y-33382764D01*
X91251259Y-33389943D01*
X91251261Y-33389946D01*
X91281366Y-33430115D01*
X91332546Y-33498404D01*
X91339726Y-33503785D01*
X91441004Y-33579689D01*
X91441007Y-33579691D01*
X91448186Y-33585071D01*
X91537904Y-33618704D01*
X91576107Y-33633026D01*
X91576109Y-33633026D01*
X91583502Y-33635798D01*
X91591352Y-33636651D01*
X91591353Y-33636651D01*
X91641797Y-33642131D01*
X91645194Y-33642500D01*
X92415706Y-33642500D01*
X92419103Y-33642131D01*
X92469547Y-33636651D01*
X92469548Y-33636651D01*
X92477398Y-33635798D01*
X92484791Y-33633026D01*
X92484793Y-33633026D01*
X92522996Y-33618704D01*
X92612714Y-33585071D01*
X92619893Y-33579691D01*
X92619896Y-33579689D01*
X92721174Y-33503785D01*
X92728354Y-33498404D01*
X92779534Y-33430115D01*
X92809639Y-33389946D01*
X92809641Y-33389943D01*
X92815021Y-33382764D01*
X92856354Y-33272506D01*
X92862976Y-33254843D01*
X92862976Y-33254841D01*
X92865748Y-33247448D01*
X92872450Y-33185756D01*
X92872450Y-32140244D01*
X92869715Y-32115066D01*
X92866601Y-32086403D01*
X92866601Y-32086402D01*
X92865748Y-32078552D01*
X92862799Y-32070684D01*
X92837280Y-32002612D01*
X92815021Y-31943236D01*
X92809641Y-31936057D01*
X92809639Y-31936054D01*
X92740487Y-31843785D01*
X92728354Y-31827596D01*
X92661802Y-31777718D01*
X92619896Y-31746311D01*
X92619893Y-31746309D01*
X92612714Y-31740929D01*
X92488519Y-31694371D01*
X92484793Y-31692974D01*
X92484791Y-31692974D01*
X92477398Y-31690202D01*
X92469548Y-31689349D01*
X92469547Y-31689349D01*
X92419103Y-31683869D01*
X92419102Y-31683869D01*
X92415706Y-31683500D01*
X91645194Y-31683500D01*
X91641798Y-31683869D01*
X91641797Y-31683869D01*
X91591353Y-31689349D01*
X91591352Y-31689349D01*
X91583502Y-31690202D01*
X91576109Y-31692974D01*
X91576107Y-31692974D01*
X91572381Y-31694371D01*
X91448186Y-31740929D01*
X91441007Y-31746309D01*
X91441004Y-31746311D01*
X91399098Y-31777718D01*
X91332546Y-31827596D01*
X91320413Y-31843785D01*
X91251261Y-31936054D01*
X91251259Y-31936057D01*
X91245879Y-31943236D01*
X91223620Y-32002612D01*
X91198102Y-32070684D01*
X91195152Y-32078552D01*
X91194299Y-32086402D01*
X91194299Y-32086403D01*
X91191185Y-32115066D01*
X91188450Y-32140244D01*
X91188450Y-33185756D01*
X90796763Y-33185756D01*
X90796950Y-33182294D01*
X90796950Y-32935115D01*
X90792475Y-32919876D01*
X90791085Y-32918671D01*
X90783402Y-32917000D01*
X89132066Y-32917000D01*
X89116827Y-32921475D01*
X89115622Y-32922865D01*
X89113951Y-32930548D01*
X89113951Y-33182292D01*
X89114320Y-33189110D01*
X89119791Y-33239482D01*
X89123420Y-33254741D01*
X89168172Y-33374118D01*
X89176704Y-33389704D01*
X89252522Y-33490867D01*
X89265083Y-33503428D01*
X89366246Y-33579246D01*
X89381830Y-33587777D01*
X89388799Y-33590390D01*
X89445563Y-33633032D01*
X89470263Y-33699593D01*
X89455055Y-33768942D01*
X89404769Y-33819060D01*
X89388808Y-33826350D01*
X89354186Y-33839329D01*
X89347007Y-33844709D01*
X89347004Y-33844711D01*
X89321103Y-33864123D01*
X89238546Y-33925996D01*
X89233165Y-33933176D01*
X89157261Y-34034454D01*
X89157259Y-34034457D01*
X89151879Y-34041636D01*
X89101152Y-34176952D01*
X89100299Y-34184802D01*
X89100299Y-34184803D01*
X89098173Y-34204371D01*
X89094450Y-34238644D01*
X89094450Y-35234156D01*
X88803450Y-35234156D01*
X88803450Y-34238644D01*
X88799727Y-34204371D01*
X88797601Y-34184803D01*
X88797601Y-34184802D01*
X88796748Y-34176952D01*
X88746021Y-34041636D01*
X88740641Y-34034457D01*
X88740639Y-34034454D01*
X88664735Y-33933176D01*
X88659354Y-33925996D01*
X88576797Y-33864123D01*
X88550896Y-33844711D01*
X88550893Y-33844709D01*
X88543714Y-33839329D01*
X88453996Y-33805696D01*
X88415793Y-33791374D01*
X88415791Y-33791374D01*
X88408398Y-33788602D01*
X88400548Y-33787749D01*
X88400547Y-33787749D01*
X88350103Y-33782269D01*
X88350102Y-33782269D01*
X88346706Y-33781900D01*
X87586163Y-33781900D01*
X87518042Y-33761898D01*
X87497068Y-33744995D01*
X87175594Y-33423521D01*
X87160235Y-33404505D01*
X87159269Y-33403444D01*
X87153621Y-33394696D01*
X87127078Y-33373771D01*
X87122603Y-33369794D01*
X87122542Y-33369865D01*
X87118585Y-33366512D01*
X87114902Y-33362829D01*
X87099111Y-33351545D01*
X87094365Y-33347982D01*
X87062057Y-33322512D01*
X87062056Y-33322511D01*
X87053880Y-33316066D01*
X87045193Y-33313015D01*
X87037707Y-33307666D01*
X87027731Y-33304683D01*
X87027730Y-33304682D01*
X86988339Y-33292902D01*
X86982707Y-33291072D01*
X86934048Y-33273984D01*
X86928459Y-33273500D01*
X86925748Y-33273500D01*
X86923081Y-33273385D01*
X86923018Y-33273366D01*
X86923025Y-33273192D01*
X86922279Y-33273145D01*
X86916026Y-33271275D01*
X86867242Y-33273192D01*
X86861872Y-33273403D01*
X86856925Y-33273500D01*
X83028256Y-33273500D01*
X82960135Y-33253498D01*
X82915250Y-33203228D01*
X82854781Y-33080609D01*
X82852226Y-33075428D01*
X82730770Y-32912779D01*
X82581708Y-32774987D01*
X82576825Y-32771906D01*
X82576821Y-32771903D01*
X82430438Y-32679543D01*
X82410031Y-32666667D01*
X82221489Y-32591446D01*
X82215829Y-32590320D01*
X82215825Y-32590319D01*
X82028063Y-32552971D01*
X82028060Y-32552971D01*
X82022396Y-32551844D01*
X82016621Y-32551768D01*
X82016617Y-32551768D01*
X81915243Y-32550441D01*
X81819421Y-32549187D01*
X81813724Y-32550166D01*
X81813723Y-32550166D01*
X81625057Y-32582585D01*
X81619360Y-32583564D01*
X81428913Y-32653824D01*
X81254460Y-32757612D01*
X81250120Y-32761418D01*
X81250116Y-32761421D01*
X81163575Y-32837316D01*
X81101842Y-32891455D01*
X80976170Y-33050869D01*
X80973481Y-33055980D01*
X80973479Y-33055983D01*
X80949899Y-33100801D01*
X80881653Y-33230515D01*
X80821457Y-33424378D01*
X80797598Y-33625964D01*
X75760950Y-33625964D01*
X75760950Y-33397799D01*
X78294393Y-33397799D01*
X78301125Y-33401000D01*
X79094335Y-33401000D01*
X79109574Y-33396525D01*
X79110779Y-33395135D01*
X79112450Y-33387452D01*
X79112450Y-33382885D01*
X79620450Y-33382885D01*
X79624925Y-33398124D01*
X79626315Y-33399329D01*
X79633998Y-33401000D01*
X80423848Y-33401000D01*
X80437379Y-33397027D01*
X80438548Y-33388892D01*
X80403108Y-33263231D01*
X80398983Y-33252484D01*
X80314352Y-33080869D01*
X80308343Y-33071063D01*
X80193850Y-32917739D01*
X80186160Y-32909199D01*
X80045642Y-32779304D01*
X80036517Y-32772303D01*
X79874686Y-32670195D01*
X79864439Y-32664974D01*
X79686710Y-32594068D01*
X79675682Y-32590801D01*
X79638219Y-32583350D01*
X79625344Y-32584502D01*
X79620450Y-32599658D01*
X79620450Y-33382885D01*
X79112450Y-33382885D01*
X79112450Y-32596500D01*
X79108644Y-32583538D01*
X79093729Y-32581602D01*
X79085182Y-32583071D01*
X79074070Y-32586048D01*
X78894545Y-32652279D01*
X78884167Y-32657229D01*
X78719723Y-32755063D01*
X78710411Y-32761829D01*
X78566547Y-32887994D01*
X78558630Y-32896337D01*
X78440168Y-33046605D01*
X78433900Y-33056256D01*
X78344808Y-33225592D01*
X78340403Y-33236227D01*
X78294612Y-33383698D01*
X78294393Y-33397799D01*
X75760950Y-33397799D01*
X75760950Y-32390885D01*
X89113950Y-32390885D01*
X89118425Y-32406124D01*
X89119815Y-32407329D01*
X89127498Y-32409000D01*
X89683335Y-32409000D01*
X89698574Y-32404525D01*
X89699779Y-32403135D01*
X89701450Y-32395452D01*
X89701450Y-32390885D01*
X90209450Y-32390885D01*
X90213925Y-32406124D01*
X90215315Y-32407329D01*
X90222998Y-32409000D01*
X90778834Y-32409000D01*
X90794073Y-32404525D01*
X90795278Y-32403135D01*
X90796949Y-32395452D01*
X90796949Y-32143708D01*
X90796580Y-32136890D01*
X90791109Y-32086518D01*
X90787480Y-32071259D01*
X90742728Y-31951882D01*
X90734196Y-31936296D01*
X90658378Y-31835133D01*
X90645817Y-31822572D01*
X90544654Y-31746754D01*
X90529068Y-31738222D01*
X90409685Y-31693467D01*
X90394440Y-31689842D01*
X90344058Y-31684369D01*
X90337244Y-31684000D01*
X90227565Y-31684000D01*
X90212326Y-31688475D01*
X90211121Y-31689865D01*
X90209450Y-31697548D01*
X90209450Y-32390885D01*
X89701450Y-32390885D01*
X89701450Y-31702116D01*
X89696975Y-31686877D01*
X89695585Y-31685672D01*
X89687902Y-31684001D01*
X89573658Y-31684001D01*
X89566840Y-31684370D01*
X89516468Y-31689841D01*
X89501209Y-31693470D01*
X89381832Y-31738222D01*
X89366246Y-31746754D01*
X89265083Y-31822572D01*
X89252522Y-31835133D01*
X89176704Y-31936296D01*
X89168172Y-31951882D01*
X89123417Y-32071265D01*
X89119792Y-32086510D01*
X89114319Y-32136892D01*
X89113950Y-32143706D01*
X89113950Y-32390885D01*
X75760950Y-32390885D01*
X75760950Y-31381962D01*
X78295121Y-31381962D01*
X78319893Y-31479502D01*
X78323734Y-31490348D01*
X78403844Y-31664120D01*
X78409595Y-31674081D01*
X78520029Y-31830343D01*
X78527507Y-31839098D01*
X78664564Y-31972612D01*
X78673508Y-31979855D01*
X78832606Y-32086161D01*
X78842716Y-32091651D01*
X79018527Y-32167185D01*
X79029470Y-32170740D01*
X79094782Y-32185519D01*
X79108855Y-32184630D01*
X79112278Y-32175681D01*
X79620450Y-32175681D01*
X79624416Y-32189187D01*
X79633122Y-32190433D01*
X79811947Y-32129730D01*
X79822444Y-32125056D01*
X79989408Y-32031552D01*
X79998880Y-32025042D01*
X80146003Y-31902682D01*
X80154132Y-31894553D01*
X80276492Y-31747430D01*
X80283002Y-31737958D01*
X80376506Y-31570994D01*
X80381180Y-31560497D01*
X80441893Y-31381644D01*
X80440660Y-31372993D01*
X80427092Y-31369000D01*
X79638565Y-31369000D01*
X79623326Y-31373475D01*
X79622121Y-31374865D01*
X79620450Y-31382548D01*
X79620450Y-32175681D01*
X79112278Y-32175681D01*
X79112450Y-32175232D01*
X79112450Y-31387115D01*
X79107975Y-31371876D01*
X79106585Y-31370671D01*
X79098902Y-31369000D01*
X78309944Y-31369000D01*
X78296413Y-31372973D01*
X78295121Y-31381962D01*
X75760950Y-31381962D01*
X75760950Y-31085964D01*
X80797598Y-31085964D01*
X80810874Y-31288522D01*
X80812295Y-31294118D01*
X80812296Y-31294123D01*
X80840188Y-31403945D01*
X80860842Y-31485269D01*
X80863259Y-31490512D01*
X80930968Y-31637385D01*
X80945827Y-31669616D01*
X80960376Y-31690202D01*
X81053673Y-31822215D01*
X81062983Y-31835389D01*
X81208388Y-31977035D01*
X81213192Y-31980245D01*
X81253286Y-32007035D01*
X81377170Y-32089812D01*
X81382473Y-32092090D01*
X81382476Y-32092092D01*
X81539909Y-32159730D01*
X81563678Y-32169942D01*
X81628590Y-32184630D01*
X81756029Y-32213467D01*
X81756034Y-32213468D01*
X81761666Y-32214742D01*
X81767437Y-32214969D01*
X81767439Y-32214969D01*
X81827206Y-32217317D01*
X81964503Y-32222712D01*
X82081964Y-32205681D01*
X82159681Y-32194413D01*
X82159686Y-32194412D01*
X82165395Y-32193584D01*
X82170859Y-32191729D01*
X82170864Y-32191728D01*
X82352143Y-32130192D01*
X82352148Y-32130190D01*
X82357615Y-32128334D01*
X82363469Y-32125056D01*
X82457864Y-32072192D01*
X82534726Y-32029147D01*
X82546440Y-32019405D01*
X82686363Y-31903031D01*
X82690795Y-31899345D01*
X82740902Y-31839098D01*
X82816903Y-31747718D01*
X82816905Y-31747715D01*
X82820597Y-31743276D01*
X82906048Y-31590693D01*
X82916960Y-31571208D01*
X82916961Y-31571206D01*
X82919784Y-31566165D01*
X82921640Y-31560698D01*
X82921642Y-31560693D01*
X82983178Y-31379414D01*
X82983179Y-31379409D01*
X82985034Y-31373945D01*
X82985862Y-31368236D01*
X82985863Y-31368231D01*
X83012330Y-31185686D01*
X83014162Y-31173053D01*
X83015682Y-31115000D01*
X83007054Y-31021096D01*
X95293679Y-31021096D01*
X95294513Y-31028646D01*
X95307768Y-31148704D01*
X95311063Y-31178553D01*
X95313673Y-31185684D01*
X95313673Y-31185686D01*
X95362284Y-31318522D01*
X95365503Y-31327319D01*
X95369739Y-31333622D01*
X95369739Y-31333623D01*
X95422775Y-31412548D01*
X95453858Y-31458805D01*
X95459477Y-31463918D01*
X95459478Y-31463919D01*
X95531164Y-31529148D01*
X95571026Y-31565419D01*
X95710243Y-31641008D01*
X95863472Y-31681207D01*
X95947427Y-31682526D01*
X96014269Y-31683576D01*
X96014272Y-31683576D01*
X96021866Y-31683695D01*
X96176282Y-31648329D01*
X96280000Y-31596165D01*
X96311022Y-31580563D01*
X96311025Y-31580561D01*
X96317805Y-31577151D01*
X96323576Y-31572222D01*
X96323579Y-31572220D01*
X96432492Y-31479199D01*
X96432493Y-31479198D01*
X96438264Y-31474269D01*
X96442695Y-31468103D01*
X96447100Y-31461973D01*
X96503095Y-31418326D01*
X96549422Y-31409500D01*
X97893978Y-31409500D01*
X97962099Y-31429502D01*
X98008592Y-31483158D01*
X98019081Y-31525796D01*
X98019450Y-31525756D01*
X98026152Y-31587448D01*
X98076879Y-31722764D01*
X98082259Y-31729943D01*
X98082261Y-31729946D01*
X98148237Y-31817977D01*
X98163546Y-31838404D01*
X98170726Y-31843785D01*
X98272004Y-31919689D01*
X98272007Y-31919691D01*
X98279186Y-31925071D01*
X98368904Y-31958704D01*
X98407107Y-31973026D01*
X98407109Y-31973026D01*
X98414502Y-31975798D01*
X98422352Y-31976651D01*
X98422353Y-31976651D01*
X98472797Y-31982131D01*
X98476194Y-31982500D01*
X99271706Y-31982500D01*
X99275103Y-31982131D01*
X99325547Y-31976651D01*
X99325548Y-31976651D01*
X99333398Y-31975798D01*
X99340791Y-31973026D01*
X99340793Y-31973026D01*
X99378996Y-31958704D01*
X99468714Y-31925071D01*
X99475893Y-31919691D01*
X99475896Y-31919689D01*
X99577174Y-31843785D01*
X99584354Y-31838404D01*
X99599663Y-31817977D01*
X99665639Y-31729946D01*
X99665641Y-31729943D01*
X99671021Y-31722764D01*
X99721748Y-31587448D01*
X99728450Y-31525756D01*
X99728450Y-30530244D01*
X99721748Y-30468552D01*
X99671021Y-30333236D01*
X99665641Y-30326057D01*
X99665639Y-30326054D01*
X99589735Y-30224776D01*
X99584354Y-30217596D01*
X99507764Y-30160195D01*
X99475896Y-30136311D01*
X99475893Y-30136309D01*
X99468714Y-30130929D01*
X99378996Y-30097296D01*
X99340793Y-30082974D01*
X99340791Y-30082974D01*
X99333398Y-30080202D01*
X99325548Y-30079349D01*
X99325547Y-30079349D01*
X99275103Y-30073869D01*
X99275102Y-30073869D01*
X99271706Y-30073500D01*
X98476194Y-30073500D01*
X98472798Y-30073869D01*
X98472797Y-30073869D01*
X98422353Y-30079349D01*
X98422352Y-30079349D01*
X98414502Y-30080202D01*
X98407109Y-30082974D01*
X98407107Y-30082974D01*
X98368904Y-30097296D01*
X98279186Y-30130929D01*
X98272007Y-30136309D01*
X98272004Y-30136311D01*
X98240136Y-30160195D01*
X98163546Y-30217596D01*
X98158165Y-30224776D01*
X98082261Y-30326054D01*
X98082259Y-30326057D01*
X98076879Y-30333236D01*
X98026152Y-30468552D01*
X98019450Y-30530244D01*
X98018781Y-30530171D01*
X97996142Y-30594246D01*
X97940054Y-30637773D01*
X97893978Y-30646500D01*
X96551233Y-30646500D01*
X96483112Y-30626498D01*
X96456718Y-30603824D01*
X96451804Y-30598250D01*
X96447503Y-30591992D01*
X96329225Y-30486611D01*
X96321839Y-30482700D01*
X96195938Y-30416039D01*
X96195939Y-30416039D01*
X96189224Y-30412484D01*
X96035583Y-30373892D01*
X96027984Y-30373852D01*
X96027983Y-30373852D01*
X95962131Y-30373507D01*
X95877171Y-30373062D01*
X95869791Y-30374834D01*
X95869789Y-30374834D01*
X95730513Y-30408271D01*
X95730510Y-30408272D01*
X95723134Y-30410043D01*
X95582364Y-30482700D01*
X95462989Y-30586838D01*
X95371900Y-30716444D01*
X95343128Y-30790240D01*
X95317285Y-30856525D01*
X95314356Y-30864037D01*
X95313364Y-30871570D01*
X95313364Y-30871571D01*
X95307729Y-30914378D01*
X95293679Y-31021096D01*
X83007054Y-31021096D01*
X82997108Y-30912859D01*
X82990943Y-30891000D01*
X82943575Y-30723046D01*
X82943574Y-30723044D01*
X82942007Y-30717487D01*
X82938428Y-30710228D01*
X82854781Y-30540609D01*
X82852226Y-30535428D01*
X82848301Y-30530171D01*
X82760419Y-30412484D01*
X82730770Y-30372779D01*
X82581708Y-30234987D01*
X82576825Y-30231906D01*
X82576821Y-30231903D01*
X82416786Y-30130929D01*
X82410031Y-30126667D01*
X82221489Y-30051446D01*
X82215829Y-30050320D01*
X82215825Y-30050319D01*
X82028063Y-30012971D01*
X82028060Y-30012971D01*
X82022396Y-30011844D01*
X82016621Y-30011768D01*
X82016617Y-30011768D01*
X81915243Y-30010441D01*
X81819421Y-30009187D01*
X81813724Y-30010166D01*
X81813723Y-30010166D01*
X81625057Y-30042585D01*
X81619360Y-30043564D01*
X81428913Y-30113824D01*
X81254460Y-30217612D01*
X81250120Y-30221418D01*
X81250116Y-30221421D01*
X81130806Y-30326054D01*
X81101842Y-30351455D01*
X80976170Y-30510869D01*
X80973481Y-30515980D01*
X80973479Y-30515983D01*
X80957552Y-30546256D01*
X80881653Y-30690515D01*
X80821457Y-30884378D01*
X80797598Y-31085964D01*
X75760950Y-31085964D01*
X75760950Y-30857799D01*
X78294393Y-30857799D01*
X78301125Y-30861000D01*
X79094335Y-30861000D01*
X79109574Y-30856525D01*
X79110779Y-30855135D01*
X79112450Y-30847452D01*
X79112450Y-30842885D01*
X79620450Y-30842885D01*
X79624925Y-30858124D01*
X79626315Y-30859329D01*
X79633998Y-30861000D01*
X80423848Y-30861000D01*
X80437379Y-30857027D01*
X80438548Y-30848892D01*
X80403108Y-30723231D01*
X80398983Y-30712484D01*
X80314352Y-30540869D01*
X80308343Y-30531063D01*
X80193850Y-30377739D01*
X80186160Y-30369199D01*
X80045642Y-30239304D01*
X80036517Y-30232303D01*
X79874686Y-30130195D01*
X79864439Y-30124974D01*
X79686710Y-30054068D01*
X79675682Y-30050801D01*
X79638219Y-30043350D01*
X79625344Y-30044502D01*
X79620450Y-30059658D01*
X79620450Y-30842885D01*
X79112450Y-30842885D01*
X79112450Y-30056500D01*
X79108644Y-30043538D01*
X79093729Y-30041602D01*
X79085182Y-30043071D01*
X79074070Y-30046048D01*
X78894545Y-30112279D01*
X78884167Y-30117229D01*
X78719723Y-30215063D01*
X78710411Y-30221829D01*
X78566547Y-30347994D01*
X78558630Y-30356337D01*
X78440168Y-30506605D01*
X78433900Y-30516256D01*
X78344808Y-30685592D01*
X78340403Y-30696227D01*
X78294612Y-30843698D01*
X78294393Y-30857799D01*
X75760950Y-30857799D01*
X75760950Y-28841962D01*
X78295121Y-28841962D01*
X78319893Y-28939502D01*
X78323734Y-28950348D01*
X78403844Y-29124120D01*
X78409595Y-29134081D01*
X78520029Y-29290343D01*
X78527507Y-29299098D01*
X78664564Y-29432612D01*
X78673508Y-29439855D01*
X78832606Y-29546161D01*
X78842716Y-29551651D01*
X79018527Y-29627185D01*
X79029470Y-29630740D01*
X79094782Y-29645519D01*
X79108855Y-29644630D01*
X79112278Y-29635681D01*
X79620450Y-29635681D01*
X79624416Y-29649187D01*
X79633122Y-29650433D01*
X79811947Y-29589730D01*
X79822444Y-29585056D01*
X79989408Y-29491552D01*
X79998880Y-29485042D01*
X80146003Y-29362682D01*
X80154132Y-29354553D01*
X80276492Y-29207430D01*
X80283002Y-29197958D01*
X80376506Y-29030994D01*
X80381180Y-29020497D01*
X80441893Y-28841644D01*
X80440660Y-28832993D01*
X80427092Y-28829000D01*
X79638565Y-28829000D01*
X79623326Y-28833475D01*
X79622121Y-28834865D01*
X79620450Y-28842548D01*
X79620450Y-29635681D01*
X79112278Y-29635681D01*
X79112450Y-29635232D01*
X79112450Y-28847115D01*
X79107975Y-28831876D01*
X79106585Y-28830671D01*
X79098902Y-28829000D01*
X78309944Y-28829000D01*
X78296413Y-28832973D01*
X78295121Y-28841962D01*
X75760950Y-28841962D01*
X75760950Y-28545964D01*
X80797598Y-28545964D01*
X80810874Y-28748522D01*
X80812295Y-28754118D01*
X80812296Y-28754123D01*
X80843020Y-28875095D01*
X80860842Y-28945269D01*
X80863259Y-28950512D01*
X80900362Y-29030994D01*
X80945827Y-29129616D01*
X81062983Y-29295389D01*
X81208388Y-29437035D01*
X81213192Y-29440245D01*
X81257506Y-29469855D01*
X81377170Y-29549812D01*
X81382473Y-29552090D01*
X81382476Y-29552092D01*
X81471157Y-29590192D01*
X81563678Y-29629942D01*
X81628590Y-29644630D01*
X81756029Y-29673467D01*
X81756034Y-29673468D01*
X81761666Y-29674742D01*
X81767437Y-29674969D01*
X81767439Y-29674969D01*
X81827206Y-29677317D01*
X81964503Y-29682712D01*
X82081964Y-29665681D01*
X82159681Y-29654413D01*
X82159686Y-29654412D01*
X82165395Y-29653584D01*
X82170859Y-29651729D01*
X82170864Y-29651728D01*
X82352143Y-29590192D01*
X82352148Y-29590190D01*
X82357615Y-29588334D01*
X82363469Y-29585056D01*
X82440125Y-29542126D01*
X82534726Y-29489147D01*
X82545644Y-29480067D01*
X82686363Y-29363031D01*
X82690795Y-29359345D01*
X82748184Y-29290343D01*
X82816903Y-29207718D01*
X82816905Y-29207715D01*
X82820597Y-29203276D01*
X82900279Y-29060994D01*
X82916960Y-29031208D01*
X82916961Y-29031206D01*
X82919784Y-29026165D01*
X82921640Y-29020698D01*
X82921642Y-29020693D01*
X82983178Y-28839414D01*
X82983179Y-28839409D01*
X82985034Y-28833945D01*
X82985862Y-28828236D01*
X82985863Y-28828231D01*
X83006027Y-28689158D01*
X83014162Y-28633053D01*
X83015682Y-28575000D01*
X82997108Y-28372859D01*
X82990943Y-28351000D01*
X82951881Y-28212496D01*
X84989529Y-28212496D01*
X84990363Y-28220046D01*
X85004723Y-28350115D01*
X85006913Y-28369953D01*
X85061353Y-28518719D01*
X85149708Y-28650205D01*
X85266876Y-28756819D01*
X85406093Y-28832408D01*
X85559322Y-28872607D01*
X85643277Y-28873926D01*
X85710119Y-28874976D01*
X85710122Y-28874976D01*
X85717716Y-28875095D01*
X85872132Y-28839729D01*
X85949449Y-28800843D01*
X86006872Y-28771963D01*
X86006875Y-28771961D01*
X86013655Y-28768551D01*
X86019426Y-28763622D01*
X86019429Y-28763620D01*
X86128337Y-28670603D01*
X86134114Y-28665669D01*
X86138549Y-28659498D01*
X86141567Y-28656215D01*
X86202400Y-28619610D01*
X86234317Y-28615500D01*
X86987978Y-28615500D01*
X87056099Y-28635502D01*
X87102592Y-28689158D01*
X87113081Y-28731796D01*
X87113450Y-28731756D01*
X87120152Y-28793448D01*
X87170879Y-28928764D01*
X87176259Y-28935943D01*
X87176261Y-28935946D01*
X87187055Y-28950348D01*
X87257546Y-29044404D01*
X87264726Y-29049785D01*
X87366004Y-29125689D01*
X87366007Y-29125691D01*
X87373186Y-29131071D01*
X87434670Y-29154120D01*
X87501107Y-29179026D01*
X87501109Y-29179026D01*
X87508502Y-29181798D01*
X87516352Y-29182651D01*
X87516353Y-29182651D01*
X87566797Y-29188131D01*
X87570194Y-29188500D01*
X88365706Y-29188500D01*
X88369103Y-29188131D01*
X88419547Y-29182651D01*
X88419548Y-29182651D01*
X88427398Y-29181798D01*
X88434791Y-29179026D01*
X88434793Y-29179026D01*
X88501230Y-29154120D01*
X88562714Y-29131071D01*
X88569893Y-29125691D01*
X88569896Y-29125689D01*
X88671174Y-29049785D01*
X88678354Y-29044404D01*
X88748845Y-28950348D01*
X88759639Y-28935946D01*
X88759641Y-28935943D01*
X88765021Y-28928764D01*
X88815748Y-28793448D01*
X88822450Y-28731756D01*
X89113450Y-28731756D01*
X89120152Y-28793448D01*
X89170879Y-28928764D01*
X89176259Y-28935943D01*
X89176261Y-28935946D01*
X89187055Y-28950348D01*
X89257546Y-29044404D01*
X89264726Y-29049785D01*
X89366004Y-29125689D01*
X89366007Y-29125691D01*
X89373186Y-29131071D01*
X89434670Y-29154120D01*
X89501107Y-29179026D01*
X89501109Y-29179026D01*
X89508502Y-29181798D01*
X89516352Y-29182651D01*
X89516353Y-29182651D01*
X89566797Y-29188131D01*
X89570194Y-29188500D01*
X90365706Y-29188500D01*
X90369103Y-29188131D01*
X90419547Y-29182651D01*
X90419548Y-29182651D01*
X90427398Y-29181798D01*
X90434791Y-29179026D01*
X90434793Y-29179026D01*
X90501230Y-29154120D01*
X90562714Y-29131071D01*
X90569893Y-29125691D01*
X90569896Y-29125689D01*
X90671174Y-29049785D01*
X90678354Y-29044404D01*
X90748845Y-28950348D01*
X90759639Y-28935946D01*
X90759641Y-28935943D01*
X90765021Y-28928764D01*
X90815748Y-28793448D01*
X90822450Y-28731756D01*
X90822450Y-27736244D01*
X90821764Y-27729933D01*
X102551450Y-27729933D01*
X102551451Y-29480066D01*
X102566216Y-29554301D01*
X102573111Y-29564620D01*
X102573112Y-29564622D01*
X102584491Y-29581651D01*
X102622466Y-29638484D01*
X102706649Y-29694734D01*
X102780883Y-29709500D01*
X103655808Y-29709500D01*
X104531016Y-29709499D01*
X104566768Y-29702388D01*
X104593076Y-29697156D01*
X104593078Y-29697155D01*
X104605251Y-29694734D01*
X104615571Y-29687839D01*
X104615572Y-29687838D01*
X104675965Y-29647484D01*
X104689434Y-29638484D01*
X104745684Y-29554301D01*
X104760450Y-29480067D01*
X104760449Y-28871962D01*
X105124621Y-28871962D01*
X105149393Y-28969502D01*
X105153234Y-28980348D01*
X105233344Y-29154120D01*
X105239095Y-29164081D01*
X105349529Y-29320343D01*
X105357007Y-29329098D01*
X105494064Y-29462612D01*
X105503008Y-29469855D01*
X105662106Y-29576161D01*
X105672216Y-29581651D01*
X105848027Y-29657185D01*
X105858970Y-29660740D01*
X105924282Y-29675519D01*
X105938355Y-29674630D01*
X105941778Y-29665681D01*
X106449950Y-29665681D01*
X106453916Y-29679187D01*
X106462622Y-29680433D01*
X106641447Y-29619730D01*
X106651944Y-29615056D01*
X106818908Y-29521552D01*
X106828380Y-29515042D01*
X106975503Y-29392682D01*
X106983632Y-29384553D01*
X107105992Y-29237430D01*
X107112502Y-29227958D01*
X107206006Y-29060994D01*
X107210680Y-29050497D01*
X107271393Y-28871644D01*
X107270160Y-28862993D01*
X107256592Y-28859000D01*
X106468065Y-28859000D01*
X106452826Y-28863475D01*
X106451622Y-28864864D01*
X106449950Y-28872548D01*
X106449950Y-29665681D01*
X105941778Y-29665681D01*
X105941950Y-29665232D01*
X105941950Y-28877115D01*
X105937475Y-28861876D01*
X105936085Y-28860671D01*
X105928402Y-28859000D01*
X105139444Y-28859000D01*
X105125913Y-28862973D01*
X105124621Y-28871962D01*
X104760449Y-28871962D01*
X104760449Y-28347799D01*
X105123893Y-28347799D01*
X105130625Y-28351000D01*
X105923835Y-28351000D01*
X105939074Y-28346525D01*
X105940279Y-28345135D01*
X105941950Y-28337452D01*
X105941950Y-28332885D01*
X106449950Y-28332885D01*
X106454425Y-28348124D01*
X106455815Y-28349329D01*
X106463498Y-28351000D01*
X107253348Y-28351000D01*
X107266879Y-28347027D01*
X107268048Y-28338892D01*
X107232608Y-28213231D01*
X107228483Y-28202484D01*
X107143853Y-28030871D01*
X107137843Y-28021063D01*
X107023350Y-27867739D01*
X107015660Y-27859199D01*
X106875142Y-27729304D01*
X106866017Y-27722303D01*
X106704186Y-27620195D01*
X106693939Y-27614974D01*
X106516210Y-27544068D01*
X106505182Y-27540801D01*
X106467719Y-27533350D01*
X106454844Y-27534502D01*
X106449950Y-27549658D01*
X106449950Y-28332885D01*
X105941950Y-28332885D01*
X105941950Y-27546500D01*
X105938144Y-27533538D01*
X105923229Y-27531602D01*
X105914682Y-27533071D01*
X105903570Y-27536048D01*
X105724045Y-27602279D01*
X105713667Y-27607229D01*
X105549223Y-27705063D01*
X105539911Y-27711829D01*
X105396047Y-27837994D01*
X105388130Y-27846337D01*
X105269668Y-27996605D01*
X105263400Y-28006256D01*
X105174308Y-28175592D01*
X105169903Y-28186227D01*
X105124112Y-28333698D01*
X105123893Y-28347799D01*
X104760449Y-28347799D01*
X104760449Y-27729934D01*
X104751127Y-27683064D01*
X104748106Y-27667874D01*
X104748105Y-27667872D01*
X104745684Y-27655699D01*
X104709990Y-27602279D01*
X104696327Y-27581832D01*
X104689434Y-27571516D01*
X104605251Y-27515266D01*
X104531017Y-27500500D01*
X103656092Y-27500500D01*
X102780884Y-27500501D01*
X102745132Y-27507612D01*
X102718824Y-27512844D01*
X102718822Y-27512845D01*
X102706649Y-27515266D01*
X102696329Y-27522161D01*
X102696328Y-27522162D01*
X102655178Y-27549658D01*
X102622466Y-27571516D01*
X102566216Y-27655699D01*
X102551450Y-27729933D01*
X90821764Y-27729933D01*
X90821105Y-27723863D01*
X90816601Y-27682403D01*
X90816601Y-27682402D01*
X90815748Y-27674552D01*
X90808681Y-27655699D01*
X90795371Y-27620195D01*
X90765021Y-27539236D01*
X90759641Y-27532057D01*
X90759639Y-27532054D01*
X90683735Y-27430776D01*
X90678354Y-27423596D01*
X90657927Y-27408287D01*
X90569896Y-27342311D01*
X90569893Y-27342309D01*
X90562714Y-27336929D01*
X90554312Y-27333779D01*
X90546435Y-27329467D01*
X90547151Y-27328159D01*
X90498188Y-27291375D01*
X90473490Y-27224813D01*
X90488699Y-27155465D01*
X90538678Y-27105517D01*
X90544654Y-27102245D01*
X90645817Y-27026428D01*
X90658378Y-27013867D01*
X90734196Y-26912704D01*
X90742728Y-26897118D01*
X90787483Y-26777735D01*
X90791108Y-26762490D01*
X90796581Y-26712108D01*
X90796763Y-26708756D01*
X91188450Y-26708756D01*
X91195152Y-26770448D01*
X91245879Y-26905764D01*
X91251259Y-26912943D01*
X91251261Y-26912946D01*
X91317237Y-27000977D01*
X91332546Y-27021404D01*
X91339726Y-27026785D01*
X91441004Y-27102689D01*
X91441007Y-27102691D01*
X91448186Y-27108071D01*
X91537904Y-27141704D01*
X91576107Y-27156026D01*
X91576109Y-27156026D01*
X91583502Y-27158798D01*
X91591352Y-27159651D01*
X91591353Y-27159651D01*
X91641797Y-27165131D01*
X91645194Y-27165500D01*
X92415706Y-27165500D01*
X92419103Y-27165131D01*
X92469547Y-27159651D01*
X92469548Y-27159651D01*
X92477398Y-27158798D01*
X92484791Y-27156026D01*
X92484793Y-27156026D01*
X92522996Y-27141704D01*
X92612714Y-27108071D01*
X92619893Y-27102691D01*
X92619896Y-27102689D01*
X92721174Y-27026785D01*
X92728354Y-27021404D01*
X92743663Y-27000977D01*
X92809639Y-26912946D01*
X92809641Y-26912943D01*
X92815021Y-26905764D01*
X92865748Y-26770448D01*
X92872450Y-26708756D01*
X92872450Y-25663244D01*
X92865748Y-25601552D01*
X92815021Y-25466236D01*
X92809641Y-25459057D01*
X92809639Y-25459054D01*
X92733735Y-25357776D01*
X92728354Y-25350596D01*
X92707927Y-25335287D01*
X92619896Y-25269311D01*
X92619893Y-25269309D01*
X92612714Y-25263929D01*
X92486116Y-25216470D01*
X92484793Y-25215974D01*
X92484791Y-25215974D01*
X92477398Y-25213202D01*
X92469548Y-25212349D01*
X92469547Y-25212349D01*
X92419103Y-25206869D01*
X92419102Y-25206869D01*
X92415706Y-25206500D01*
X91645194Y-25206500D01*
X91641798Y-25206869D01*
X91641797Y-25206869D01*
X91591353Y-25212349D01*
X91591352Y-25212349D01*
X91583502Y-25213202D01*
X91576109Y-25215974D01*
X91576107Y-25215974D01*
X91574784Y-25216470D01*
X91448186Y-25263929D01*
X91441007Y-25269309D01*
X91441004Y-25269311D01*
X91352973Y-25335287D01*
X91332546Y-25350596D01*
X91327165Y-25357776D01*
X91251261Y-25459054D01*
X91251259Y-25459057D01*
X91245879Y-25466236D01*
X91195152Y-25601552D01*
X91188450Y-25663244D01*
X91188450Y-26708756D01*
X90796763Y-26708756D01*
X90796950Y-26705294D01*
X90796950Y-26458115D01*
X90792475Y-26442876D01*
X90791085Y-26441671D01*
X90783402Y-26440000D01*
X89132066Y-26440000D01*
X89116827Y-26444475D01*
X89115622Y-26445865D01*
X89113951Y-26453548D01*
X89113951Y-26705292D01*
X89114320Y-26712110D01*
X89119791Y-26762482D01*
X89123420Y-26777741D01*
X89168172Y-26897118D01*
X89176704Y-26912704D01*
X89252522Y-27013867D01*
X89265083Y-27026428D01*
X89366244Y-27102244D01*
X89383500Y-27111691D01*
X89433647Y-27161949D01*
X89448662Y-27231339D01*
X89423778Y-27297832D01*
X89383502Y-27332732D01*
X89381592Y-27333778D01*
X89373186Y-27336929D01*
X89257546Y-27423596D01*
X89252165Y-27430776D01*
X89176261Y-27532054D01*
X89176259Y-27532057D01*
X89170879Y-27539236D01*
X89140529Y-27620195D01*
X89127220Y-27655699D01*
X89120152Y-27674552D01*
X89119299Y-27682402D01*
X89119299Y-27682403D01*
X89114795Y-27723863D01*
X89113450Y-27736244D01*
X89113450Y-28731756D01*
X88822450Y-28731756D01*
X88822450Y-27736244D01*
X88821105Y-27723863D01*
X88816601Y-27682403D01*
X88816601Y-27682402D01*
X88815748Y-27674552D01*
X88808681Y-27655699D01*
X88795371Y-27620195D01*
X88765021Y-27539236D01*
X88759641Y-27532057D01*
X88759639Y-27532054D01*
X88683735Y-27430776D01*
X88678354Y-27423596D01*
X88657927Y-27408287D01*
X88569896Y-27342311D01*
X88569893Y-27342309D01*
X88562714Y-27336929D01*
X88472996Y-27303296D01*
X88434793Y-27288974D01*
X88434791Y-27288974D01*
X88427398Y-27286202D01*
X88419548Y-27285349D01*
X88419547Y-27285349D01*
X88369103Y-27279869D01*
X88369102Y-27279869D01*
X88365706Y-27279500D01*
X87570194Y-27279500D01*
X87566798Y-27279869D01*
X87566797Y-27279869D01*
X87516353Y-27285349D01*
X87516352Y-27285349D01*
X87508502Y-27286202D01*
X87501109Y-27288974D01*
X87501107Y-27288974D01*
X87462904Y-27303296D01*
X87373186Y-27336929D01*
X87366007Y-27342309D01*
X87366004Y-27342311D01*
X87277973Y-27408287D01*
X87257546Y-27423596D01*
X87252165Y-27430776D01*
X87176261Y-27532054D01*
X87176259Y-27532057D01*
X87170879Y-27539236D01*
X87140529Y-27620195D01*
X87127220Y-27655699D01*
X87120152Y-27674552D01*
X87113450Y-27736244D01*
X87112781Y-27736171D01*
X87090142Y-27800246D01*
X87034054Y-27843773D01*
X86987978Y-27852500D01*
X86257141Y-27852500D01*
X86189020Y-27832498D01*
X86153300Y-27797865D01*
X86147656Y-27789652D01*
X86147653Y-27789649D01*
X86143353Y-27783392D01*
X86025075Y-27678011D01*
X86017689Y-27674100D01*
X85891788Y-27607439D01*
X85891789Y-27607439D01*
X85885074Y-27603884D01*
X85731433Y-27565292D01*
X85723834Y-27565252D01*
X85723833Y-27565252D01*
X85657981Y-27564907D01*
X85573021Y-27564462D01*
X85565641Y-27566234D01*
X85565639Y-27566234D01*
X85426363Y-27599671D01*
X85426360Y-27599672D01*
X85418984Y-27601443D01*
X85278214Y-27674100D01*
X85158839Y-27778238D01*
X85067750Y-27907844D01*
X85064990Y-27914924D01*
X85031583Y-28000609D01*
X85010206Y-28055437D01*
X85009214Y-28062970D01*
X85009214Y-28062971D01*
X84993382Y-28183231D01*
X84989529Y-28212496D01*
X82951881Y-28212496D01*
X82943575Y-28183046D01*
X82943574Y-28183044D01*
X82942007Y-28177487D01*
X82931428Y-28156033D01*
X82854781Y-28000609D01*
X82852226Y-27995428D01*
X82730770Y-27832779D01*
X82581708Y-27694987D01*
X82576825Y-27691906D01*
X82576821Y-27691903D01*
X82430641Y-27599671D01*
X82410031Y-27586667D01*
X82221489Y-27511446D01*
X82215829Y-27510320D01*
X82215825Y-27510319D01*
X82028063Y-27472971D01*
X82028060Y-27472971D01*
X82022396Y-27471844D01*
X82016621Y-27471768D01*
X82016617Y-27471768D01*
X81915243Y-27470441D01*
X81819421Y-27469187D01*
X81813724Y-27470166D01*
X81813723Y-27470166D01*
X81637191Y-27500500D01*
X81619360Y-27503564D01*
X81428913Y-27573824D01*
X81254460Y-27677612D01*
X81250120Y-27681418D01*
X81250116Y-27681421D01*
X81132633Y-27784452D01*
X81101842Y-27811455D01*
X81098267Y-27815990D01*
X81098266Y-27815991D01*
X81074343Y-27846337D01*
X80976170Y-27970869D01*
X80973481Y-27975980D01*
X80973479Y-27975983D01*
X80960523Y-28000609D01*
X80881653Y-28150515D01*
X80821457Y-28344378D01*
X80797598Y-28545964D01*
X75760950Y-28545964D01*
X75760950Y-28317799D01*
X78294393Y-28317799D01*
X78301125Y-28321000D01*
X79094335Y-28321000D01*
X79109574Y-28316525D01*
X79110779Y-28315135D01*
X79112450Y-28307452D01*
X79112450Y-28302885D01*
X79620450Y-28302885D01*
X79624925Y-28318124D01*
X79626315Y-28319329D01*
X79633998Y-28321000D01*
X80423848Y-28321000D01*
X80437379Y-28317027D01*
X80438548Y-28308892D01*
X80403108Y-28183231D01*
X80398983Y-28172484D01*
X80314353Y-28000871D01*
X80308343Y-27991063D01*
X80193850Y-27837739D01*
X80186160Y-27829199D01*
X80045642Y-27699304D01*
X80036517Y-27692303D01*
X79874686Y-27590195D01*
X79864439Y-27584974D01*
X79686710Y-27514068D01*
X79675682Y-27510801D01*
X79638219Y-27503350D01*
X79625344Y-27504502D01*
X79620450Y-27519658D01*
X79620450Y-28302885D01*
X79112450Y-28302885D01*
X79112450Y-27516500D01*
X79108644Y-27503538D01*
X79093729Y-27501602D01*
X79085182Y-27503071D01*
X79074070Y-27506048D01*
X78894545Y-27572279D01*
X78884167Y-27577229D01*
X78719723Y-27675063D01*
X78710411Y-27681829D01*
X78566547Y-27807994D01*
X78558630Y-27816337D01*
X78440168Y-27966605D01*
X78433900Y-27976256D01*
X78344808Y-28145592D01*
X78340403Y-28156227D01*
X78294612Y-28303698D01*
X78294393Y-28317799D01*
X75760950Y-28317799D01*
X75760950Y-25913885D01*
X89113950Y-25913885D01*
X89118425Y-25929124D01*
X89119815Y-25930329D01*
X89127498Y-25932000D01*
X89683335Y-25932000D01*
X89698574Y-25927525D01*
X89699779Y-25926135D01*
X89701450Y-25918452D01*
X89701450Y-25913885D01*
X90209450Y-25913885D01*
X90213925Y-25929124D01*
X90215315Y-25930329D01*
X90222998Y-25932000D01*
X90778834Y-25932000D01*
X90794073Y-25927525D01*
X90795278Y-25926135D01*
X90796949Y-25918452D01*
X90796949Y-25666708D01*
X90796580Y-25659890D01*
X90791109Y-25609518D01*
X90787480Y-25594259D01*
X90742728Y-25474882D01*
X90734196Y-25459296D01*
X90658378Y-25358133D01*
X90645817Y-25345572D01*
X90544654Y-25269754D01*
X90529068Y-25261222D01*
X90409685Y-25216467D01*
X90394440Y-25212842D01*
X90344058Y-25207369D01*
X90337244Y-25207000D01*
X90227565Y-25207000D01*
X90212326Y-25211475D01*
X90211121Y-25212865D01*
X90209450Y-25220548D01*
X90209450Y-25913885D01*
X89701450Y-25913885D01*
X89701450Y-25225116D01*
X89696975Y-25209877D01*
X89695585Y-25208672D01*
X89687902Y-25207001D01*
X89573658Y-25207001D01*
X89566840Y-25207370D01*
X89516468Y-25212841D01*
X89501209Y-25216470D01*
X89381832Y-25261222D01*
X89366246Y-25269754D01*
X89265083Y-25345572D01*
X89252522Y-25358133D01*
X89176704Y-25459296D01*
X89168172Y-25474882D01*
X89123417Y-25594265D01*
X89119792Y-25609510D01*
X89114319Y-25659892D01*
X89113950Y-25666706D01*
X89113950Y-25913885D01*
X75760950Y-25913885D01*
X75760950Y-21623496D01*
X84479679Y-21623496D01*
X84497063Y-21780953D01*
X84551503Y-21929719D01*
X84639858Y-22061205D01*
X84645477Y-22066318D01*
X84645478Y-22066319D01*
X84716641Y-22131072D01*
X84757026Y-22167819D01*
X84896243Y-22243408D01*
X85049472Y-22283607D01*
X85133427Y-22284926D01*
X85200269Y-22285976D01*
X85200272Y-22285976D01*
X85207866Y-22286095D01*
X85362282Y-22250729D01*
X85432692Y-22215317D01*
X85497022Y-22182963D01*
X85497025Y-22182961D01*
X85503805Y-22179551D01*
X85509576Y-22174622D01*
X85509579Y-22174620D01*
X85618492Y-22081599D01*
X85618493Y-22081598D01*
X85624264Y-22076669D01*
X85628695Y-22070503D01*
X85633100Y-22064373D01*
X85689095Y-22020726D01*
X85735422Y-22011900D01*
X86987999Y-22011900D01*
X87056120Y-22031902D01*
X87102613Y-22085558D01*
X87113010Y-22127804D01*
X87113450Y-22127756D01*
X87120152Y-22189448D01*
X87170879Y-22324764D01*
X87176259Y-22331943D01*
X87176261Y-22331946D01*
X87242237Y-22419977D01*
X87257546Y-22440404D01*
X87264726Y-22445785D01*
X87366004Y-22521689D01*
X87366007Y-22521691D01*
X87373186Y-22527071D01*
X87462904Y-22560704D01*
X87501107Y-22575026D01*
X87501109Y-22575026D01*
X87508502Y-22577798D01*
X87516352Y-22578651D01*
X87516353Y-22578651D01*
X87566797Y-22584131D01*
X87570194Y-22584500D01*
X88365706Y-22584500D01*
X88369103Y-22584131D01*
X88419547Y-22578651D01*
X88419548Y-22578651D01*
X88427398Y-22577798D01*
X88434791Y-22575026D01*
X88434793Y-22575026D01*
X88472996Y-22560704D01*
X88562714Y-22527071D01*
X88569893Y-22521691D01*
X88569896Y-22521689D01*
X88671174Y-22445785D01*
X88678354Y-22440404D01*
X88693663Y-22419977D01*
X88759639Y-22331946D01*
X88759641Y-22331943D01*
X88765021Y-22324764D01*
X88815748Y-22189448D01*
X88822450Y-22127756D01*
X89113450Y-22127756D01*
X89120152Y-22189448D01*
X89170879Y-22324764D01*
X89176259Y-22331943D01*
X89176261Y-22331946D01*
X89242237Y-22419977D01*
X89257546Y-22440404D01*
X89264726Y-22445785D01*
X89366004Y-22521689D01*
X89366007Y-22521691D01*
X89373186Y-22527071D01*
X89462904Y-22560704D01*
X89501107Y-22575026D01*
X89501109Y-22575026D01*
X89508502Y-22577798D01*
X89516352Y-22578651D01*
X89516353Y-22578651D01*
X89566797Y-22584131D01*
X89570194Y-22584500D01*
X90365706Y-22584500D01*
X90369103Y-22584131D01*
X90419547Y-22578651D01*
X90419548Y-22578651D01*
X90427398Y-22577798D01*
X90434791Y-22575026D01*
X90434793Y-22575026D01*
X90472996Y-22560704D01*
X90562714Y-22527071D01*
X90569893Y-22521691D01*
X90569896Y-22521689D01*
X90671174Y-22445785D01*
X90678354Y-22440404D01*
X90693663Y-22419977D01*
X90759639Y-22331946D01*
X90759641Y-22331943D01*
X90765021Y-22324764D01*
X90815748Y-22189448D01*
X90822450Y-22127756D01*
X90822450Y-21132244D01*
X90818302Y-21094064D01*
X90816601Y-21078403D01*
X90816601Y-21078402D01*
X90815748Y-21070552D01*
X90812004Y-21060563D01*
X90776865Y-20966830D01*
X90765021Y-20935236D01*
X90759641Y-20928057D01*
X90759639Y-20928054D01*
X90683735Y-20826776D01*
X90678354Y-20819596D01*
X90657927Y-20804287D01*
X90569896Y-20738311D01*
X90569893Y-20738309D01*
X90562714Y-20732929D01*
X90554312Y-20729779D01*
X90546435Y-20725467D01*
X90547151Y-20724159D01*
X90498188Y-20687375D01*
X90473490Y-20620813D01*
X90488699Y-20551465D01*
X90538678Y-20501517D01*
X90544654Y-20498245D01*
X90645817Y-20422428D01*
X90658378Y-20409867D01*
X90734196Y-20308704D01*
X90742728Y-20293118D01*
X90787483Y-20173735D01*
X90791108Y-20158490D01*
X90796581Y-20108108D01*
X90796763Y-20104756D01*
X91188450Y-20104756D01*
X91195152Y-20166448D01*
X91245879Y-20301764D01*
X91251259Y-20308943D01*
X91251261Y-20308946D01*
X91268397Y-20331810D01*
X91332546Y-20417404D01*
X91339726Y-20422785D01*
X91441004Y-20498689D01*
X91441007Y-20498691D01*
X91448186Y-20504071D01*
X91537904Y-20537704D01*
X91576107Y-20552026D01*
X91576109Y-20552026D01*
X91583502Y-20554798D01*
X91591352Y-20555651D01*
X91591353Y-20555651D01*
X91641797Y-20561131D01*
X91645194Y-20561500D01*
X92415706Y-20561500D01*
X92419103Y-20561131D01*
X92469547Y-20555651D01*
X92469548Y-20555651D01*
X92477398Y-20554798D01*
X92484791Y-20552026D01*
X92484793Y-20552026D01*
X92522996Y-20537704D01*
X92612714Y-20504071D01*
X92619893Y-20498691D01*
X92619896Y-20498689D01*
X92721174Y-20422785D01*
X92728354Y-20417404D01*
X92792503Y-20331810D01*
X92809639Y-20308946D01*
X92809641Y-20308943D01*
X92815021Y-20301764D01*
X92865748Y-20166448D01*
X92872450Y-20104756D01*
X92872450Y-19320786D01*
X105278218Y-19320786D01*
X105303779Y-19588700D01*
X105304864Y-19593134D01*
X105304865Y-19593140D01*
X105366661Y-19845680D01*
X105367747Y-19850118D01*
X105468783Y-20099563D01*
X105604769Y-20331810D01*
X105715814Y-20470665D01*
X105745049Y-20507221D01*
X105772858Y-20541995D01*
X105969527Y-20725713D01*
X106190657Y-20879116D01*
X106431616Y-20998991D01*
X106435950Y-21000412D01*
X106435953Y-21000413D01*
X106683023Y-21081407D01*
X106683029Y-21081408D01*
X106687356Y-21082827D01*
X106691847Y-21083607D01*
X106691848Y-21083607D01*
X106948738Y-21128211D01*
X106948746Y-21128212D01*
X106952519Y-21128867D01*
X106956356Y-21129058D01*
X107035977Y-21133022D01*
X107035985Y-21133022D01*
X107037548Y-21133100D01*
X107205574Y-21133100D01*
X107207842Y-21132935D01*
X107207854Y-21132935D01*
X107338657Y-21123444D01*
X107405625Y-21118585D01*
X107410080Y-21117601D01*
X107410083Y-21117601D01*
X107663970Y-21061547D01*
X107663972Y-21061546D01*
X107668426Y-21060563D01*
X107920100Y-20965213D01*
X108155372Y-20834531D01*
X108281448Y-20738313D01*
X108365691Y-20674021D01*
X108365695Y-20674017D01*
X108369316Y-20671254D01*
X108557449Y-20478803D01*
X108664442Y-20331810D01*
X108713142Y-20264904D01*
X108713147Y-20264897D01*
X108715830Y-20261210D01*
X108841141Y-20023033D01*
X108930757Y-19769262D01*
X108955888Y-19641756D01*
X108981920Y-19509683D01*
X108981921Y-19509677D01*
X108982801Y-19505211D01*
X108991982Y-19320786D01*
X108995955Y-19240983D01*
X108995955Y-19240977D01*
X108996182Y-19236414D01*
X108970621Y-18968500D01*
X108951371Y-18889828D01*
X108907739Y-18711520D01*
X108906653Y-18707082D01*
X108805617Y-18457637D01*
X108669631Y-18225390D01*
X108501542Y-18015205D01*
X108304873Y-17831487D01*
X108083743Y-17678084D01*
X107842784Y-17558209D01*
X107838450Y-17556788D01*
X107838447Y-17556787D01*
X107591377Y-17475793D01*
X107591371Y-17475792D01*
X107587044Y-17474373D01*
X107582552Y-17473593D01*
X107325662Y-17428989D01*
X107325654Y-17428988D01*
X107321881Y-17428333D01*
X107311918Y-17427837D01*
X107238423Y-17424178D01*
X107238415Y-17424178D01*
X107236852Y-17424100D01*
X107068826Y-17424100D01*
X107066558Y-17424265D01*
X107066546Y-17424265D01*
X106935743Y-17433756D01*
X106868775Y-17438615D01*
X106864320Y-17439599D01*
X106864317Y-17439599D01*
X106610430Y-17495653D01*
X106610428Y-17495654D01*
X106605974Y-17496637D01*
X106354300Y-17591987D01*
X106119028Y-17722669D01*
X106115396Y-17725441D01*
X105908709Y-17883179D01*
X105908705Y-17883183D01*
X105905084Y-17885946D01*
X105716951Y-18078397D01*
X105714266Y-18082086D01*
X105561258Y-18292296D01*
X105561253Y-18292303D01*
X105558570Y-18295990D01*
X105433259Y-18534167D01*
X105389960Y-18656779D01*
X105347737Y-18776346D01*
X105343643Y-18787938D01*
X105325966Y-18877624D01*
X105296150Y-19028900D01*
X105291599Y-19051989D01*
X105291372Y-19056542D01*
X105291372Y-19056545D01*
X105278761Y-19309885D01*
X105278218Y-19320786D01*
X92872450Y-19320786D01*
X92872450Y-19059244D01*
X92869154Y-19028900D01*
X92866601Y-19005403D01*
X92866601Y-19005402D01*
X92865748Y-18997552D01*
X92856564Y-18973052D01*
X92825498Y-18890185D01*
X92815021Y-18862236D01*
X92809641Y-18855057D01*
X92809639Y-18855054D01*
X92733735Y-18753776D01*
X92728354Y-18746596D01*
X92681552Y-18711520D01*
X92619896Y-18665311D01*
X92619893Y-18665309D01*
X92612714Y-18659929D01*
X92486116Y-18612470D01*
X92484793Y-18611974D01*
X92484791Y-18611974D01*
X92477398Y-18609202D01*
X92469548Y-18608349D01*
X92469547Y-18608349D01*
X92419103Y-18602869D01*
X92419102Y-18602869D01*
X92415706Y-18602500D01*
X91645194Y-18602500D01*
X91641798Y-18602869D01*
X91641797Y-18602869D01*
X91591353Y-18608349D01*
X91591352Y-18608349D01*
X91583502Y-18609202D01*
X91576109Y-18611974D01*
X91576107Y-18611974D01*
X91574784Y-18612470D01*
X91448186Y-18659929D01*
X91441007Y-18665309D01*
X91441004Y-18665311D01*
X91379348Y-18711520D01*
X91332546Y-18746596D01*
X91327165Y-18753776D01*
X91251261Y-18855054D01*
X91251259Y-18855057D01*
X91245879Y-18862236D01*
X91235402Y-18890185D01*
X91204337Y-18973052D01*
X91195152Y-18997552D01*
X91194299Y-19005402D01*
X91194299Y-19005403D01*
X91191746Y-19028900D01*
X91188450Y-19059244D01*
X91188450Y-20104756D01*
X90796763Y-20104756D01*
X90796950Y-20101294D01*
X90796950Y-19854115D01*
X90792475Y-19838876D01*
X90791085Y-19837671D01*
X90783402Y-19836000D01*
X89132066Y-19836000D01*
X89116827Y-19840475D01*
X89115622Y-19841865D01*
X89113951Y-19849548D01*
X89113951Y-20101292D01*
X89114320Y-20108110D01*
X89119791Y-20158482D01*
X89123420Y-20173741D01*
X89168172Y-20293118D01*
X89176704Y-20308704D01*
X89252522Y-20409867D01*
X89265083Y-20422428D01*
X89366244Y-20498244D01*
X89383500Y-20507691D01*
X89433647Y-20557949D01*
X89448662Y-20627339D01*
X89423778Y-20693832D01*
X89383502Y-20728732D01*
X89381592Y-20729778D01*
X89373186Y-20732929D01*
X89257546Y-20819596D01*
X89252165Y-20826776D01*
X89176261Y-20928054D01*
X89176259Y-20928057D01*
X89170879Y-20935236D01*
X89159035Y-20966830D01*
X89123897Y-21060563D01*
X89120152Y-21070552D01*
X89119299Y-21078402D01*
X89119299Y-21078403D01*
X89117598Y-21094064D01*
X89113450Y-21132244D01*
X89113450Y-22127756D01*
X88822450Y-22127756D01*
X88822450Y-21132244D01*
X88818302Y-21094064D01*
X88816601Y-21078403D01*
X88816601Y-21078402D01*
X88815748Y-21070552D01*
X88812004Y-21060563D01*
X88776865Y-20966830D01*
X88765021Y-20935236D01*
X88759641Y-20928057D01*
X88759639Y-20928054D01*
X88683735Y-20826776D01*
X88678354Y-20819596D01*
X88657927Y-20804287D01*
X88569896Y-20738311D01*
X88569893Y-20738309D01*
X88562714Y-20732929D01*
X88472996Y-20699296D01*
X88434793Y-20684974D01*
X88434791Y-20684974D01*
X88427398Y-20682202D01*
X88419548Y-20681349D01*
X88419547Y-20681349D01*
X88369103Y-20675869D01*
X88369102Y-20675869D01*
X88365706Y-20675500D01*
X87570194Y-20675500D01*
X87566798Y-20675869D01*
X87566797Y-20675869D01*
X87516353Y-20681349D01*
X87516352Y-20681349D01*
X87508502Y-20682202D01*
X87501109Y-20684974D01*
X87501107Y-20684974D01*
X87462904Y-20699296D01*
X87373186Y-20732929D01*
X87366007Y-20738309D01*
X87366004Y-20738311D01*
X87277973Y-20804287D01*
X87257546Y-20819596D01*
X87252165Y-20826776D01*
X87176261Y-20928054D01*
X87176259Y-20928057D01*
X87170879Y-20935236D01*
X87159035Y-20966830D01*
X87123897Y-21060563D01*
X87120152Y-21070552D01*
X87119299Y-21078402D01*
X87119299Y-21078403D01*
X87118030Y-21090089D01*
X87113450Y-21132244D01*
X87112900Y-21132184D01*
X87090114Y-21196655D01*
X87034022Y-21240177D01*
X86987956Y-21248900D01*
X85737233Y-21248900D01*
X85669112Y-21228898D01*
X85642718Y-21206224D01*
X85637804Y-21200650D01*
X85633503Y-21194392D01*
X85515225Y-21089011D01*
X85507839Y-21085100D01*
X85381938Y-21018439D01*
X85381939Y-21018439D01*
X85375224Y-21014884D01*
X85221583Y-20976292D01*
X85213984Y-20976252D01*
X85213983Y-20976252D01*
X85148131Y-20975907D01*
X85063171Y-20975462D01*
X85055791Y-20977234D01*
X85055789Y-20977234D01*
X84916513Y-21010671D01*
X84916510Y-21010672D01*
X84909134Y-21012443D01*
X84768364Y-21085100D01*
X84648989Y-21189238D01*
X84557900Y-21318844D01*
X84500356Y-21466437D01*
X84479679Y-21623496D01*
X75760950Y-21623496D01*
X75760950Y-19309885D01*
X89113950Y-19309885D01*
X89118425Y-19325124D01*
X89119815Y-19326329D01*
X89127498Y-19328000D01*
X89683335Y-19328000D01*
X89698574Y-19323525D01*
X89699779Y-19322135D01*
X89701450Y-19314452D01*
X89701450Y-19309885D01*
X90209450Y-19309885D01*
X90213925Y-19325124D01*
X90215315Y-19326329D01*
X90222998Y-19328000D01*
X90778834Y-19328000D01*
X90794073Y-19323525D01*
X90795278Y-19322135D01*
X90796949Y-19314452D01*
X90796949Y-19062708D01*
X90796580Y-19055890D01*
X90791109Y-19005518D01*
X90787480Y-18990259D01*
X90742728Y-18870882D01*
X90734196Y-18855296D01*
X90658378Y-18754133D01*
X90645817Y-18741572D01*
X90544654Y-18665754D01*
X90529068Y-18657222D01*
X90409685Y-18612467D01*
X90394440Y-18608842D01*
X90344058Y-18603369D01*
X90337244Y-18603000D01*
X90227565Y-18603000D01*
X90212326Y-18607475D01*
X90211121Y-18608865D01*
X90209450Y-18616548D01*
X90209450Y-19309885D01*
X89701450Y-19309885D01*
X89701450Y-18621116D01*
X89696975Y-18605877D01*
X89695585Y-18604672D01*
X89687902Y-18603001D01*
X89573658Y-18603001D01*
X89566840Y-18603370D01*
X89516468Y-18608841D01*
X89501209Y-18612470D01*
X89381832Y-18657222D01*
X89366246Y-18665754D01*
X89265083Y-18741572D01*
X89252522Y-18754133D01*
X89176704Y-18855296D01*
X89168172Y-18870882D01*
X89123417Y-18990265D01*
X89119792Y-19005510D01*
X89114319Y-19055892D01*
X89113950Y-19062706D01*
X89113950Y-19309885D01*
X75760950Y-19309885D01*
X75760950Y-18572156D01*
X80434950Y-18572156D01*
X80435319Y-18575552D01*
X80435319Y-18575553D01*
X80439330Y-18612470D01*
X80441652Y-18633848D01*
X80492379Y-18769164D01*
X80497759Y-18776343D01*
X80497761Y-18776346D01*
X80506449Y-18787938D01*
X80579046Y-18884804D01*
X80586226Y-18890185D01*
X80687504Y-18966089D01*
X80687507Y-18966091D01*
X80694686Y-18971471D01*
X80744532Y-18990157D01*
X80822607Y-19019426D01*
X80822609Y-19019426D01*
X80830002Y-19022198D01*
X80837852Y-19023051D01*
X80837853Y-19023051D01*
X80887082Y-19028399D01*
X80891694Y-19028900D01*
X81512206Y-19028900D01*
X81516818Y-19028399D01*
X81566047Y-19023051D01*
X81566048Y-19023051D01*
X81573898Y-19022198D01*
X81581291Y-19019426D01*
X81581293Y-19019426D01*
X81659368Y-18990157D01*
X81709214Y-18971471D01*
X81716393Y-18966091D01*
X81716396Y-18966089D01*
X81817674Y-18890185D01*
X81824854Y-18884804D01*
X81897451Y-18787938D01*
X81906139Y-18776346D01*
X81906141Y-18776343D01*
X81911521Y-18769164D01*
X81962248Y-18633848D01*
X81964571Y-18612470D01*
X81968581Y-18575553D01*
X81968581Y-18575552D01*
X81968950Y-18572156D01*
X81968950Y-18568692D01*
X82260451Y-18568692D01*
X82260820Y-18575510D01*
X82266291Y-18625882D01*
X82269920Y-18641141D01*
X82314672Y-18760518D01*
X82323204Y-18776104D01*
X82399022Y-18877267D01*
X82411583Y-18889828D01*
X82512746Y-18965646D01*
X82528332Y-18974178D01*
X82647715Y-19018933D01*
X82662960Y-19022558D01*
X82713342Y-19028031D01*
X82720156Y-19028400D01*
X82754835Y-19028400D01*
X82770074Y-19023925D01*
X82771279Y-19022535D01*
X82772950Y-19014852D01*
X82772950Y-19010284D01*
X83280950Y-19010284D01*
X83285425Y-19025523D01*
X83286815Y-19026728D01*
X83294498Y-19028399D01*
X83333742Y-19028399D01*
X83340560Y-19028030D01*
X83390932Y-19022559D01*
X83406191Y-19018930D01*
X83525568Y-18974178D01*
X83541154Y-18965646D01*
X83642317Y-18889828D01*
X83654878Y-18877267D01*
X83730696Y-18776104D01*
X83739228Y-18760518D01*
X83783983Y-18641135D01*
X83787608Y-18625890D01*
X83793081Y-18575508D01*
X83793450Y-18568694D01*
X83793450Y-18346515D01*
X83788975Y-18331276D01*
X83787585Y-18330071D01*
X83779902Y-18328400D01*
X83299065Y-18328400D01*
X83283826Y-18332875D01*
X83282621Y-18334265D01*
X83280950Y-18341948D01*
X83280950Y-19010284D01*
X82772950Y-19010284D01*
X82772950Y-18346515D01*
X82768475Y-18331276D01*
X82767085Y-18330071D01*
X82759402Y-18328400D01*
X82278566Y-18328400D01*
X82263327Y-18332875D01*
X82262122Y-18334265D01*
X82260451Y-18341948D01*
X82260451Y-18568692D01*
X81968950Y-18568692D01*
X81968950Y-17802285D01*
X82260450Y-17802285D01*
X82264925Y-17817524D01*
X82266315Y-17818729D01*
X82273998Y-17820400D01*
X82754835Y-17820400D01*
X82770074Y-17815925D01*
X82771279Y-17814535D01*
X82772950Y-17806852D01*
X82772950Y-17802285D01*
X83280950Y-17802285D01*
X83285425Y-17817524D01*
X83286815Y-17818729D01*
X83294498Y-17820400D01*
X83775334Y-17820400D01*
X83790573Y-17815925D01*
X83791778Y-17814535D01*
X83793449Y-17806852D01*
X83793449Y-17580108D01*
X83793080Y-17573290D01*
X83787609Y-17522918D01*
X83783980Y-17507659D01*
X83739228Y-17388282D01*
X83730696Y-17372696D01*
X83654878Y-17271533D01*
X83642317Y-17258972D01*
X83541154Y-17183154D01*
X83525568Y-17174622D01*
X83406185Y-17129867D01*
X83390940Y-17126242D01*
X83340558Y-17120769D01*
X83333744Y-17120400D01*
X83299065Y-17120400D01*
X83283826Y-17124875D01*
X83282621Y-17126265D01*
X83280950Y-17133948D01*
X83280950Y-17802285D01*
X82772950Y-17802285D01*
X82772950Y-17138516D01*
X82768475Y-17123277D01*
X82767085Y-17122072D01*
X82759402Y-17120401D01*
X82720158Y-17120401D01*
X82713340Y-17120770D01*
X82662968Y-17126241D01*
X82647709Y-17129870D01*
X82528332Y-17174622D01*
X82512746Y-17183154D01*
X82411583Y-17258972D01*
X82399022Y-17271533D01*
X82323204Y-17372696D01*
X82314672Y-17388282D01*
X82269917Y-17507665D01*
X82266292Y-17522910D01*
X82260819Y-17573292D01*
X82260450Y-17580106D01*
X82260450Y-17802285D01*
X81968950Y-17802285D01*
X81968950Y-17576644D01*
X81962248Y-17514952D01*
X81911521Y-17379636D01*
X81906141Y-17372457D01*
X81906139Y-17372454D01*
X81830235Y-17271176D01*
X81824854Y-17263996D01*
X81804427Y-17248687D01*
X81716396Y-17182711D01*
X81716393Y-17182709D01*
X81709214Y-17177329D01*
X81582616Y-17129870D01*
X81581293Y-17129374D01*
X81581291Y-17129374D01*
X81573898Y-17126602D01*
X81566048Y-17125749D01*
X81566047Y-17125749D01*
X81515603Y-17120269D01*
X81515602Y-17120269D01*
X81512206Y-17119900D01*
X80891694Y-17119900D01*
X80888298Y-17120269D01*
X80888297Y-17120269D01*
X80837853Y-17125749D01*
X80837852Y-17125749D01*
X80830002Y-17126602D01*
X80822609Y-17129374D01*
X80822607Y-17129374D01*
X80821284Y-17129870D01*
X80694686Y-17177329D01*
X80687507Y-17182709D01*
X80687504Y-17182711D01*
X80599473Y-17248687D01*
X80579046Y-17263996D01*
X80573665Y-17271176D01*
X80497761Y-17372454D01*
X80497759Y-17372457D01*
X80492379Y-17379636D01*
X80441652Y-17514952D01*
X80434950Y-17576644D01*
X80434950Y-18572156D01*
X75760950Y-18572156D01*
X75760950Y-15856100D01*
X75780952Y-15787979D01*
X75834608Y-15741486D01*
X75886950Y-15730100D01*
X109633950Y-15730100D01*
X109702071Y-15750102D01*
G37*
G04 #@! TD.AperFunction*
M02*
