M48
; DRILL file {KiCad (6.0.6)} date Mon Aug 29 16:01:01 2022
; FORMAT={-:-/ absolute / metric / decimal}
; #@! TF.CreationDate,2022-08-29T16:01:01+02:00
; #@! TF.GenerationSoftware,Kicad,Pcbnew,(6.0.6)
; #@! TF.FileFunction,Plated,1,2,PTH
FMAT,2
METRIC
; #@! TA.AperFunction,Plated,PTH,ViaDrill
T1C0.400
; #@! TA.AperFunction,Plated,PTH,ComponentDrill
T2C1.000
%
G90
G05
T1
X79.959Y-56.693
X81.128Y-18.085
X82.7Y-51.943
X85.139Y-21.63
X85.649Y-28.219
X85.649Y-39.319
X86.995Y-49.53
X87.63Y-45.339
X87.933Y-54.65
X87.944Y-47.819
X89.965Y-21.63
X89.965Y-28.234
X89.965Y-34.711
X89.965Y-41.442
X89.965Y-45.887
X89.965Y-47.919
X89.984Y-19.508
X89.984Y-26.112
X89.984Y-32.589
X89.984Y-39.267
X89.984Y-52.602
X89.984Y-54.671
X92.016Y-19.635
X92.016Y-26.112
X92.016Y-32.589
X92.016Y-39.267
X92.016Y-45.744
X92.016Y-52.602
X94.488Y-29.642
X95.301Y-43.307
X95.326Y-24.003
X95.326Y-37.008
X95.453Y-50.495
X95.953Y-31.028
X98.62Y-35.854
T2
X79.366Y-28.575
X79.366Y-31.115
X79.366Y-33.655
X79.366Y-36.195
X79.366Y-38.735
X79.366Y-41.275
X79.366Y-43.815
X79.366Y-46.355
X81.906Y-28.575
X81.906Y-31.115
X81.906Y-33.655
X81.906Y-36.195
X81.906Y-38.735
X81.906Y-41.275
X81.906Y-43.815
X81.906Y-46.355
X103.656Y-28.605
X103.656Y-31.145
X103.656Y-33.685
X103.656Y-36.225
X103.656Y-38.765
X103.656Y-41.305
X103.656Y-43.845
X103.656Y-46.385
X106.196Y-28.605
X106.196Y-31.145
X106.196Y-33.685
X106.196Y-36.225
X106.196Y-38.765
X106.196Y-41.305
X106.196Y-43.845
X106.196Y-46.385
T0
M30
