%FSLAX45Y45*%
G04 Gerber Fmt 4.5, Leading zero omitted, Abs format (unit mm)*
G04 Created by KiCad (PCBNEW (6.0.6)) date 2023-08-29 14:34:49*
%MOMM*%
%LPD*%
G01*
G04 APERTURE LIST*
%TA.AperFunction,Profile*%
%ADD10C,0.100000*%
%TD*%
%ADD11C,0.200000*%
%ADD12C,0.270000*%
%ADD13C,0.320000*%
G04 APERTURE END LIST*
D10*
X1300000Y-15380000D02*
X23800000Y-15380000D01*
X23800000Y-2380000D02*
X23800000Y-15380000D01*
X23800000Y-2380000D02*
X1300000Y-2380000D01*
X1300000Y-2380000D02*
X1300000Y-15380000D01*
D11*
D12*
X4365000Y-6710000D02*
X4635000Y-6980000D01*
X4635000Y-6710000D02*
X4365000Y-6980000D01*
D13*
X2160000Y-3080000D02*
G75*
G03*
X2160000Y-3080000I-160000J0D01*
G01*
X2160000Y-14480000D02*
G75*
G03*
X2160000Y-14480000I-160000J0D01*
G01*
X8060000Y-9180000D02*
G75*
G03*
X8060000Y-9180000I-160000J0D01*
G01*
X14057500Y-9180000D02*
G75*
G03*
X14057500Y-9180000I-160000J0D01*
G01*
X23260000Y-3280000D02*
G75*
G03*
X23260000Y-3280000I-160000J0D01*
G01*
X23260000Y-14480000D02*
G75*
G03*
X23260000Y-14480000I-160000J0D01*
G01*
D11*
X1552619Y-15695476D02*
X1552619Y-15495476D01*
X1600238Y-15495476D01*
X1628809Y-15505000D01*
X1647857Y-15524048D01*
X1657381Y-15543095D01*
X1666905Y-15581190D01*
X1666905Y-15609762D01*
X1657381Y-15647857D01*
X1647857Y-15666905D01*
X1628809Y-15685952D01*
X1600238Y-15695476D01*
X1552619Y-15695476D01*
X1752619Y-15695476D02*
X1752619Y-15562143D01*
X1752619Y-15600238D02*
X1762143Y-15581190D01*
X1771667Y-15571667D01*
X1790714Y-15562143D01*
X1809762Y-15562143D01*
X1876428Y-15695476D02*
X1876428Y-15562143D01*
X1876428Y-15495476D02*
X1866905Y-15505000D01*
X1876428Y-15514524D01*
X1885952Y-15505000D01*
X1876428Y-15495476D01*
X1876428Y-15514524D01*
X2000238Y-15695476D02*
X1981190Y-15685952D01*
X1971667Y-15666905D01*
X1971667Y-15495476D01*
X2105000Y-15695476D02*
X2085952Y-15685952D01*
X2076428Y-15666905D01*
X2076428Y-15495476D01*
X2333571Y-15695476D02*
X2333571Y-15495476D01*
X2400238Y-15638333D01*
X2466905Y-15495476D01*
X2466905Y-15695476D01*
X2647857Y-15695476D02*
X2647857Y-15590714D01*
X2638333Y-15571667D01*
X2619286Y-15562143D01*
X2581190Y-15562143D01*
X2562143Y-15571667D01*
X2647857Y-15685952D02*
X2628810Y-15695476D01*
X2581190Y-15695476D01*
X2562143Y-15685952D01*
X2552619Y-15666905D01*
X2552619Y-15647857D01*
X2562143Y-15628809D01*
X2581190Y-15619286D01*
X2628810Y-15619286D01*
X2647857Y-15609762D01*
X2743095Y-15562143D02*
X2743095Y-15762143D01*
X2743095Y-15571667D02*
X2762143Y-15562143D01*
X2800238Y-15562143D01*
X2819286Y-15571667D01*
X2828809Y-15581190D01*
X2838333Y-15600238D01*
X2838333Y-15657381D01*
X2828809Y-15676428D01*
X2819286Y-15685952D01*
X2800238Y-15695476D01*
X2762143Y-15695476D01*
X2743095Y-15685952D01*
X2924048Y-15676428D02*
X2933571Y-15685952D01*
X2924048Y-15695476D01*
X2914524Y-15685952D01*
X2924048Y-15676428D01*
X2924048Y-15695476D01*
X2924048Y-15571667D02*
X2933571Y-15581190D01*
X2924048Y-15590714D01*
X2914524Y-15581190D01*
X2924048Y-15571667D01*
X2924048Y-15590714D01*
X1095000Y-15925000D02*
X1295000Y-16125000D01*
X1295000Y-15925000D02*
X1095000Y-16125000D01*
X1543095Y-15934524D02*
X1552619Y-15925000D01*
X1571667Y-15915476D01*
X1619286Y-15915476D01*
X1638333Y-15925000D01*
X1647857Y-15934524D01*
X1657381Y-15953571D01*
X1657381Y-15972619D01*
X1647857Y-16001190D01*
X1533571Y-16115476D01*
X1657381Y-16115476D01*
X1743095Y-16096428D02*
X1752619Y-16105952D01*
X1743095Y-16115476D01*
X1733571Y-16105952D01*
X1743095Y-16096428D01*
X1743095Y-16115476D01*
X1819286Y-15915476D02*
X1952619Y-15915476D01*
X1866905Y-16115476D01*
X2066905Y-15915476D02*
X2085952Y-15915476D01*
X2105000Y-15925000D01*
X2114524Y-15934524D01*
X2124048Y-15953571D01*
X2133571Y-15991667D01*
X2133571Y-16039286D01*
X2124048Y-16077381D01*
X2114524Y-16096428D01*
X2105000Y-16105952D01*
X2085952Y-16115476D01*
X2066905Y-16115476D01*
X2047857Y-16105952D01*
X2038333Y-16096428D01*
X2028809Y-16077381D01*
X2019286Y-16039286D01*
X2019286Y-15991667D01*
X2028809Y-15953571D01*
X2038333Y-15934524D01*
X2047857Y-15925000D01*
X2066905Y-15915476D01*
X2257381Y-15915476D02*
X2276429Y-15915476D01*
X2295476Y-15925000D01*
X2305000Y-15934524D01*
X2314524Y-15953571D01*
X2324048Y-15991667D01*
X2324048Y-16039286D01*
X2314524Y-16077381D01*
X2305000Y-16096428D01*
X2295476Y-16105952D01*
X2276429Y-16115476D01*
X2257381Y-16115476D01*
X2238333Y-16105952D01*
X2228810Y-16096428D01*
X2219286Y-16077381D01*
X2209762Y-16039286D01*
X2209762Y-15991667D01*
X2219286Y-15953571D01*
X2228810Y-15934524D01*
X2238333Y-15925000D01*
X2257381Y-15915476D01*
X2409762Y-16115476D02*
X2409762Y-15982143D01*
X2409762Y-16001190D02*
X2419286Y-15991667D01*
X2438333Y-15982143D01*
X2466905Y-15982143D01*
X2485952Y-15991667D01*
X2495476Y-16010714D01*
X2495476Y-16115476D01*
X2495476Y-16010714D02*
X2505000Y-15991667D01*
X2524048Y-15982143D01*
X2552619Y-15982143D01*
X2571667Y-15991667D01*
X2581190Y-16010714D01*
X2581190Y-16115476D01*
X2676429Y-16115476D02*
X2676429Y-15982143D01*
X2676429Y-16001190D02*
X2685952Y-15991667D01*
X2705000Y-15982143D01*
X2733571Y-15982143D01*
X2752619Y-15991667D01*
X2762143Y-16010714D01*
X2762143Y-16115476D01*
X2762143Y-16010714D02*
X2771667Y-15991667D01*
X2790714Y-15982143D01*
X2819286Y-15982143D01*
X2838333Y-15991667D01*
X2847857Y-16010714D01*
X2847857Y-16115476D01*
X3238333Y-15905952D02*
X3066905Y-16163095D01*
X3495476Y-15915476D02*
X3514524Y-15915476D01*
X3533571Y-15925000D01*
X3543095Y-15934524D01*
X3552619Y-15953571D01*
X3562143Y-15991667D01*
X3562143Y-16039286D01*
X3552619Y-16077381D01*
X3543095Y-16096428D01*
X3533571Y-16105952D01*
X3514524Y-16115476D01*
X3495476Y-16115476D01*
X3476428Y-16105952D01*
X3466905Y-16096428D01*
X3457381Y-16077381D01*
X3447857Y-16039286D01*
X3447857Y-15991667D01*
X3457381Y-15953571D01*
X3466905Y-15934524D01*
X3476428Y-15925000D01*
X3495476Y-15915476D01*
X3647857Y-16096428D02*
X3657381Y-16105952D01*
X3647857Y-16115476D01*
X3638333Y-16105952D01*
X3647857Y-16096428D01*
X3647857Y-16115476D01*
X3847857Y-16115476D02*
X3733571Y-16115476D01*
X3790714Y-16115476D02*
X3790714Y-15915476D01*
X3771667Y-15944048D01*
X3752619Y-15963095D01*
X3733571Y-15972619D01*
X3971667Y-15915476D02*
X3990714Y-15915476D01*
X4009762Y-15925000D01*
X4019286Y-15934524D01*
X4028809Y-15953571D01*
X4038333Y-15991667D01*
X4038333Y-16039286D01*
X4028809Y-16077381D01*
X4019286Y-16096428D01*
X4009762Y-16105952D01*
X3990714Y-16115476D01*
X3971667Y-16115476D01*
X3952619Y-16105952D01*
X3943095Y-16096428D01*
X3933571Y-16077381D01*
X3924048Y-16039286D01*
X3924048Y-15991667D01*
X3933571Y-15953571D01*
X3943095Y-15934524D01*
X3952619Y-15925000D01*
X3971667Y-15915476D01*
X4209762Y-15915476D02*
X4171667Y-15915476D01*
X4152619Y-15925000D01*
X4143095Y-15934524D01*
X4124048Y-15963095D01*
X4114524Y-16001190D01*
X4114524Y-16077381D01*
X4124048Y-16096428D01*
X4133571Y-16105952D01*
X4152619Y-16115476D01*
X4190714Y-16115476D01*
X4209762Y-16105952D01*
X4219286Y-16096428D01*
X4228810Y-16077381D01*
X4228810Y-16029762D01*
X4219286Y-16010714D01*
X4209762Y-16001190D01*
X4190714Y-15991667D01*
X4152619Y-15991667D01*
X4133571Y-16001190D01*
X4124048Y-16010714D01*
X4114524Y-16029762D01*
X4295476Y-15915476D02*
X4419286Y-15915476D01*
X4352619Y-15991667D01*
X4381190Y-15991667D01*
X4400238Y-16001190D01*
X4409762Y-16010714D01*
X4419286Y-16029762D01*
X4419286Y-16077381D01*
X4409762Y-16096428D01*
X4400238Y-16105952D01*
X4381190Y-16115476D01*
X4324048Y-16115476D01*
X4305000Y-16105952D01*
X4295476Y-16096428D01*
X4495476Y-15915476D02*
X4495476Y-15953571D01*
X4571667Y-15915476D02*
X4571667Y-15953571D01*
X4866905Y-16191667D02*
X4857381Y-16182143D01*
X4838333Y-16153571D01*
X4828810Y-16134524D01*
X4819286Y-16105952D01*
X4809762Y-16058333D01*
X4809762Y-16020238D01*
X4819286Y-15972619D01*
X4828810Y-15944048D01*
X4838333Y-15925000D01*
X4857381Y-15896428D01*
X4866905Y-15886905D01*
X5047857Y-16115476D02*
X4933571Y-16115476D01*
X4990714Y-16115476D02*
X4990714Y-15915476D01*
X4971667Y-15944048D01*
X4952619Y-15963095D01*
X4933571Y-15972619D01*
X5285952Y-16115476D02*
X5285952Y-15915476D01*
X5371667Y-16115476D02*
X5371667Y-16010714D01*
X5362143Y-15991667D01*
X5343095Y-15982143D01*
X5314524Y-15982143D01*
X5295476Y-15991667D01*
X5285952Y-16001190D01*
X5495476Y-16115476D02*
X5476429Y-16105952D01*
X5466905Y-16096428D01*
X5457381Y-16077381D01*
X5457381Y-16020238D01*
X5466905Y-16001190D01*
X5476429Y-15991667D01*
X5495476Y-15982143D01*
X5524048Y-15982143D01*
X5543095Y-15991667D01*
X5552619Y-16001190D01*
X5562143Y-16020238D01*
X5562143Y-16077381D01*
X5552619Y-16096428D01*
X5543095Y-16105952D01*
X5524048Y-16115476D01*
X5495476Y-16115476D01*
X5676428Y-16115476D02*
X5657381Y-16105952D01*
X5647857Y-16086905D01*
X5647857Y-15915476D01*
X5828809Y-16105952D02*
X5809762Y-16115476D01*
X5771667Y-16115476D01*
X5752619Y-16105952D01*
X5743095Y-16086905D01*
X5743095Y-16010714D01*
X5752619Y-15991667D01*
X5771667Y-15982143D01*
X5809762Y-15982143D01*
X5828809Y-15991667D01*
X5838333Y-16010714D01*
X5838333Y-16029762D01*
X5743095Y-16048809D01*
X5905000Y-16191667D02*
X5914524Y-16182143D01*
X5933571Y-16153571D01*
X5943095Y-16134524D01*
X5952619Y-16105952D01*
X5962143Y-16058333D01*
X5962143Y-16020238D01*
X5952619Y-15972619D01*
X5943095Y-15944048D01*
X5933571Y-15925000D01*
X5914524Y-15896428D01*
X5905000Y-15886905D01*
X6266905Y-16191667D02*
X6257381Y-16182143D01*
X6238333Y-16153571D01*
X6228809Y-16134524D01*
X6219286Y-16105952D01*
X6209762Y-16058333D01*
X6209762Y-16020238D01*
X6219286Y-15972619D01*
X6228809Y-15944048D01*
X6238333Y-15925000D01*
X6257381Y-15896428D01*
X6266905Y-15886905D01*
X6343095Y-15982143D02*
X6343095Y-16115476D01*
X6343095Y-16001190D02*
X6352619Y-15991667D01*
X6371667Y-15982143D01*
X6400238Y-15982143D01*
X6419286Y-15991667D01*
X6428809Y-16010714D01*
X6428809Y-16115476D01*
X6552619Y-16115476D02*
X6533571Y-16105952D01*
X6524048Y-16096428D01*
X6514524Y-16077381D01*
X6514524Y-16020238D01*
X6524048Y-16001190D01*
X6533571Y-15991667D01*
X6552619Y-15982143D01*
X6581190Y-15982143D01*
X6600238Y-15991667D01*
X6609762Y-16001190D01*
X6619286Y-16020238D01*
X6619286Y-16077381D01*
X6609762Y-16096428D01*
X6600238Y-16105952D01*
X6581190Y-16115476D01*
X6552619Y-16115476D01*
X6676428Y-15982143D02*
X6752619Y-15982143D01*
X6705000Y-15915476D02*
X6705000Y-16086905D01*
X6714524Y-16105952D01*
X6733571Y-16115476D01*
X6752619Y-16115476D01*
X6971667Y-15982143D02*
X6971667Y-16182143D01*
X6971667Y-15991667D02*
X6990714Y-15982143D01*
X7028809Y-15982143D01*
X7047857Y-15991667D01*
X7057381Y-16001190D01*
X7066905Y-16020238D01*
X7066905Y-16077381D01*
X7057381Y-16096428D01*
X7047857Y-16105952D01*
X7028809Y-16115476D01*
X6990714Y-16115476D01*
X6971667Y-16105952D01*
X7181190Y-16115476D02*
X7162143Y-16105952D01*
X7152619Y-16086905D01*
X7152619Y-15915476D01*
X7343095Y-16115476D02*
X7343095Y-16010714D01*
X7333571Y-15991667D01*
X7314524Y-15982143D01*
X7276428Y-15982143D01*
X7257381Y-15991667D01*
X7343095Y-16105952D02*
X7324048Y-16115476D01*
X7276428Y-16115476D01*
X7257381Y-16105952D01*
X7247857Y-16086905D01*
X7247857Y-16067857D01*
X7257381Y-16048809D01*
X7276428Y-16039286D01*
X7324048Y-16039286D01*
X7343095Y-16029762D01*
X7409762Y-15982143D02*
X7485952Y-15982143D01*
X7438333Y-15915476D02*
X7438333Y-16086905D01*
X7447857Y-16105952D01*
X7466905Y-16115476D01*
X7485952Y-16115476D01*
X7628809Y-16105952D02*
X7609762Y-16115476D01*
X7571667Y-16115476D01*
X7552619Y-16105952D01*
X7543095Y-16086905D01*
X7543095Y-16010714D01*
X7552619Y-15991667D01*
X7571667Y-15982143D01*
X7609762Y-15982143D01*
X7628809Y-15991667D01*
X7638333Y-16010714D01*
X7638333Y-16029762D01*
X7543095Y-16048809D01*
X7809762Y-16115476D02*
X7809762Y-15915476D01*
X7809762Y-16105952D02*
X7790714Y-16115476D01*
X7752619Y-16115476D01*
X7733571Y-16105952D01*
X7724048Y-16096428D01*
X7714524Y-16077381D01*
X7714524Y-16020238D01*
X7724048Y-16001190D01*
X7733571Y-15991667D01*
X7752619Y-15982143D01*
X7790714Y-15982143D01*
X7809762Y-15991667D01*
X7885952Y-16191667D02*
X7895476Y-16182143D01*
X7914524Y-16153571D01*
X7924048Y-16134524D01*
X7933571Y-16105952D01*
X7943095Y-16058333D01*
X7943095Y-16020238D01*
X7933571Y-15972619D01*
X7924048Y-15944048D01*
X7914524Y-15925000D01*
X7895476Y-15896428D01*
X7885952Y-15886905D01*
X1295000Y-16345000D02*
G75*
G03*
X1295000Y-16345000I-100000J0D01*
G01*
X1533571Y-16235476D02*
X1657381Y-16235476D01*
X1590714Y-16311667D01*
X1619286Y-16311667D01*
X1638333Y-16321190D01*
X1647857Y-16330714D01*
X1657381Y-16349762D01*
X1657381Y-16397381D01*
X1647857Y-16416428D01*
X1638333Y-16425952D01*
X1619286Y-16435476D01*
X1562143Y-16435476D01*
X1543095Y-16425952D01*
X1533571Y-16416428D01*
X1743095Y-16416428D02*
X1752619Y-16425952D01*
X1743095Y-16435476D01*
X1733571Y-16425952D01*
X1743095Y-16416428D01*
X1743095Y-16435476D01*
X1828809Y-16254524D02*
X1838333Y-16245000D01*
X1857381Y-16235476D01*
X1905000Y-16235476D01*
X1924048Y-16245000D01*
X1933571Y-16254524D01*
X1943095Y-16273571D01*
X1943095Y-16292619D01*
X1933571Y-16321190D01*
X1819286Y-16435476D01*
X1943095Y-16435476D01*
X2066905Y-16235476D02*
X2085952Y-16235476D01*
X2105000Y-16245000D01*
X2114524Y-16254524D01*
X2124048Y-16273571D01*
X2133571Y-16311667D01*
X2133571Y-16359286D01*
X2124048Y-16397381D01*
X2114524Y-16416428D01*
X2105000Y-16425952D01*
X2085952Y-16435476D01*
X2066905Y-16435476D01*
X2047857Y-16425952D01*
X2038333Y-16416428D01*
X2028809Y-16397381D01*
X2019286Y-16359286D01*
X2019286Y-16311667D01*
X2028809Y-16273571D01*
X2038333Y-16254524D01*
X2047857Y-16245000D01*
X2066905Y-16235476D01*
X2257381Y-16235476D02*
X2276429Y-16235476D01*
X2295476Y-16245000D01*
X2305000Y-16254524D01*
X2314524Y-16273571D01*
X2324048Y-16311667D01*
X2324048Y-16359286D01*
X2314524Y-16397381D01*
X2305000Y-16416428D01*
X2295476Y-16425952D01*
X2276429Y-16435476D01*
X2257381Y-16435476D01*
X2238333Y-16425952D01*
X2228810Y-16416428D01*
X2219286Y-16397381D01*
X2209762Y-16359286D01*
X2209762Y-16311667D01*
X2219286Y-16273571D01*
X2228810Y-16254524D01*
X2238333Y-16245000D01*
X2257381Y-16235476D01*
X2409762Y-16435476D02*
X2409762Y-16302143D01*
X2409762Y-16321190D02*
X2419286Y-16311667D01*
X2438333Y-16302143D01*
X2466905Y-16302143D01*
X2485952Y-16311667D01*
X2495476Y-16330714D01*
X2495476Y-16435476D01*
X2495476Y-16330714D02*
X2505000Y-16311667D01*
X2524048Y-16302143D01*
X2552619Y-16302143D01*
X2571667Y-16311667D01*
X2581190Y-16330714D01*
X2581190Y-16435476D01*
X2676429Y-16435476D02*
X2676429Y-16302143D01*
X2676429Y-16321190D02*
X2685952Y-16311667D01*
X2705000Y-16302143D01*
X2733571Y-16302143D01*
X2752619Y-16311667D01*
X2762143Y-16330714D01*
X2762143Y-16435476D01*
X2762143Y-16330714D02*
X2771667Y-16311667D01*
X2790714Y-16302143D01*
X2819286Y-16302143D01*
X2838333Y-16311667D01*
X2847857Y-16330714D01*
X2847857Y-16435476D01*
X3238333Y-16225952D02*
X3066905Y-16483095D01*
X3495476Y-16235476D02*
X3514524Y-16235476D01*
X3533571Y-16245000D01*
X3543095Y-16254524D01*
X3552619Y-16273571D01*
X3562143Y-16311667D01*
X3562143Y-16359286D01*
X3552619Y-16397381D01*
X3543095Y-16416428D01*
X3533571Y-16425952D01*
X3514524Y-16435476D01*
X3495476Y-16435476D01*
X3476428Y-16425952D01*
X3466905Y-16416428D01*
X3457381Y-16397381D01*
X3447857Y-16359286D01*
X3447857Y-16311667D01*
X3457381Y-16273571D01*
X3466905Y-16254524D01*
X3476428Y-16245000D01*
X3495476Y-16235476D01*
X3647857Y-16416428D02*
X3657381Y-16425952D01*
X3647857Y-16435476D01*
X3638333Y-16425952D01*
X3647857Y-16416428D01*
X3647857Y-16435476D01*
X3847857Y-16435476D02*
X3733571Y-16435476D01*
X3790714Y-16435476D02*
X3790714Y-16235476D01*
X3771667Y-16264048D01*
X3752619Y-16283095D01*
X3733571Y-16292619D01*
X3924048Y-16254524D02*
X3933571Y-16245000D01*
X3952619Y-16235476D01*
X4000238Y-16235476D01*
X4019286Y-16245000D01*
X4028809Y-16254524D01*
X4038333Y-16273571D01*
X4038333Y-16292619D01*
X4028809Y-16321190D01*
X3914524Y-16435476D01*
X4038333Y-16435476D01*
X4209762Y-16235476D02*
X4171667Y-16235476D01*
X4152619Y-16245000D01*
X4143095Y-16254524D01*
X4124048Y-16283095D01*
X4114524Y-16321190D01*
X4114524Y-16397381D01*
X4124048Y-16416428D01*
X4133571Y-16425952D01*
X4152619Y-16435476D01*
X4190714Y-16435476D01*
X4209762Y-16425952D01*
X4219286Y-16416428D01*
X4228810Y-16397381D01*
X4228810Y-16349762D01*
X4219286Y-16330714D01*
X4209762Y-16321190D01*
X4190714Y-16311667D01*
X4152619Y-16311667D01*
X4133571Y-16321190D01*
X4124048Y-16330714D01*
X4114524Y-16349762D01*
X4352619Y-16235476D02*
X4371667Y-16235476D01*
X4390714Y-16245000D01*
X4400238Y-16254524D01*
X4409762Y-16273571D01*
X4419286Y-16311667D01*
X4419286Y-16359286D01*
X4409762Y-16397381D01*
X4400238Y-16416428D01*
X4390714Y-16425952D01*
X4371667Y-16435476D01*
X4352619Y-16435476D01*
X4333571Y-16425952D01*
X4324048Y-16416428D01*
X4314524Y-16397381D01*
X4305000Y-16359286D01*
X4305000Y-16311667D01*
X4314524Y-16273571D01*
X4324048Y-16254524D01*
X4333571Y-16245000D01*
X4352619Y-16235476D01*
X4495476Y-16235476D02*
X4495476Y-16273571D01*
X4571667Y-16235476D02*
X4571667Y-16273571D01*
X4866905Y-16511667D02*
X4857381Y-16502143D01*
X4838333Y-16473571D01*
X4828810Y-16454524D01*
X4819286Y-16425952D01*
X4809762Y-16378333D01*
X4809762Y-16340238D01*
X4819286Y-16292619D01*
X4828810Y-16264048D01*
X4838333Y-16245000D01*
X4857381Y-16216428D01*
X4866905Y-16206905D01*
X5028810Y-16235476D02*
X4990714Y-16235476D01*
X4971667Y-16245000D01*
X4962143Y-16254524D01*
X4943095Y-16283095D01*
X4933571Y-16321190D01*
X4933571Y-16397381D01*
X4943095Y-16416428D01*
X4952619Y-16425952D01*
X4971667Y-16435476D01*
X5009762Y-16435476D01*
X5028810Y-16425952D01*
X5038333Y-16416428D01*
X5047857Y-16397381D01*
X5047857Y-16349762D01*
X5038333Y-16330714D01*
X5028810Y-16321190D01*
X5009762Y-16311667D01*
X4971667Y-16311667D01*
X4952619Y-16321190D01*
X4943095Y-16330714D01*
X4933571Y-16349762D01*
X5285952Y-16435476D02*
X5285952Y-16235476D01*
X5371667Y-16435476D02*
X5371667Y-16330714D01*
X5362143Y-16311667D01*
X5343095Y-16302143D01*
X5314524Y-16302143D01*
X5295476Y-16311667D01*
X5285952Y-16321190D01*
X5495476Y-16435476D02*
X5476429Y-16425952D01*
X5466905Y-16416428D01*
X5457381Y-16397381D01*
X5457381Y-16340238D01*
X5466905Y-16321190D01*
X5476429Y-16311667D01*
X5495476Y-16302143D01*
X5524048Y-16302143D01*
X5543095Y-16311667D01*
X5552619Y-16321190D01*
X5562143Y-16340238D01*
X5562143Y-16397381D01*
X5552619Y-16416428D01*
X5543095Y-16425952D01*
X5524048Y-16435476D01*
X5495476Y-16435476D01*
X5676428Y-16435476D02*
X5657381Y-16425952D01*
X5647857Y-16406905D01*
X5647857Y-16235476D01*
X5828809Y-16425952D02*
X5809762Y-16435476D01*
X5771667Y-16435476D01*
X5752619Y-16425952D01*
X5743095Y-16406905D01*
X5743095Y-16330714D01*
X5752619Y-16311667D01*
X5771667Y-16302143D01*
X5809762Y-16302143D01*
X5828809Y-16311667D01*
X5838333Y-16330714D01*
X5838333Y-16349762D01*
X5743095Y-16368809D01*
X5914524Y-16425952D02*
X5933571Y-16435476D01*
X5971667Y-16435476D01*
X5990714Y-16425952D01*
X6000238Y-16406905D01*
X6000238Y-16397381D01*
X5990714Y-16378333D01*
X5971667Y-16368809D01*
X5943095Y-16368809D01*
X5924048Y-16359286D01*
X5914524Y-16340238D01*
X5914524Y-16330714D01*
X5924048Y-16311667D01*
X5943095Y-16302143D01*
X5971667Y-16302143D01*
X5990714Y-16311667D01*
X6066905Y-16511667D02*
X6076428Y-16502143D01*
X6095476Y-16473571D01*
X6105000Y-16454524D01*
X6114524Y-16425952D01*
X6124048Y-16378333D01*
X6124048Y-16340238D01*
X6114524Y-16292619D01*
X6105000Y-16264048D01*
X6095476Y-16245000D01*
X6076428Y-16216428D01*
X6066905Y-16206905D01*
X6428809Y-16511667D02*
X6419286Y-16502143D01*
X6400238Y-16473571D01*
X6390714Y-16454524D01*
X6381190Y-16425952D01*
X6371667Y-16378333D01*
X6371667Y-16340238D01*
X6381190Y-16292619D01*
X6390714Y-16264048D01*
X6400238Y-16245000D01*
X6419286Y-16216428D01*
X6428809Y-16206905D01*
X6505000Y-16302143D02*
X6505000Y-16435476D01*
X6505000Y-16321190D02*
X6514524Y-16311667D01*
X6533571Y-16302143D01*
X6562143Y-16302143D01*
X6581190Y-16311667D01*
X6590714Y-16330714D01*
X6590714Y-16435476D01*
X6714524Y-16435476D02*
X6695476Y-16425952D01*
X6685952Y-16416428D01*
X6676428Y-16397381D01*
X6676428Y-16340238D01*
X6685952Y-16321190D01*
X6695476Y-16311667D01*
X6714524Y-16302143D01*
X6743095Y-16302143D01*
X6762143Y-16311667D01*
X6771667Y-16321190D01*
X6781190Y-16340238D01*
X6781190Y-16397381D01*
X6771667Y-16416428D01*
X6762143Y-16425952D01*
X6743095Y-16435476D01*
X6714524Y-16435476D01*
X6838333Y-16302143D02*
X6914524Y-16302143D01*
X6866905Y-16235476D02*
X6866905Y-16406905D01*
X6876428Y-16425952D01*
X6895476Y-16435476D01*
X6914524Y-16435476D01*
X7133571Y-16302143D02*
X7133571Y-16502143D01*
X7133571Y-16311667D02*
X7152619Y-16302143D01*
X7190714Y-16302143D01*
X7209762Y-16311667D01*
X7219286Y-16321190D01*
X7228809Y-16340238D01*
X7228809Y-16397381D01*
X7219286Y-16416428D01*
X7209762Y-16425952D01*
X7190714Y-16435476D01*
X7152619Y-16435476D01*
X7133571Y-16425952D01*
X7343095Y-16435476D02*
X7324048Y-16425952D01*
X7314524Y-16406905D01*
X7314524Y-16235476D01*
X7505000Y-16435476D02*
X7505000Y-16330714D01*
X7495476Y-16311667D01*
X7476428Y-16302143D01*
X7438333Y-16302143D01*
X7419286Y-16311667D01*
X7505000Y-16425952D02*
X7485952Y-16435476D01*
X7438333Y-16435476D01*
X7419286Y-16425952D01*
X7409762Y-16406905D01*
X7409762Y-16387857D01*
X7419286Y-16368809D01*
X7438333Y-16359286D01*
X7485952Y-16359286D01*
X7505000Y-16349762D01*
X7571667Y-16302143D02*
X7647857Y-16302143D01*
X7600238Y-16235476D02*
X7600238Y-16406905D01*
X7609762Y-16425952D01*
X7628809Y-16435476D01*
X7647857Y-16435476D01*
X7790714Y-16425952D02*
X7771667Y-16435476D01*
X7733571Y-16435476D01*
X7714524Y-16425952D01*
X7705000Y-16406905D01*
X7705000Y-16330714D01*
X7714524Y-16311667D01*
X7733571Y-16302143D01*
X7771667Y-16302143D01*
X7790714Y-16311667D01*
X7800238Y-16330714D01*
X7800238Y-16349762D01*
X7705000Y-16368809D01*
X7971667Y-16435476D02*
X7971667Y-16235476D01*
X7971667Y-16425952D02*
X7952619Y-16435476D01*
X7914524Y-16435476D01*
X7895476Y-16425952D01*
X7885952Y-16416428D01*
X7876428Y-16397381D01*
X7876428Y-16340238D01*
X7885952Y-16321190D01*
X7895476Y-16311667D01*
X7914524Y-16302143D01*
X7952619Y-16302143D01*
X7971667Y-16311667D01*
X8047857Y-16511667D02*
X8057381Y-16502143D01*
X8076428Y-16473571D01*
X8085952Y-16454524D01*
X8095476Y-16425952D01*
X8105000Y-16378333D01*
X8105000Y-16340238D01*
X8095476Y-16292619D01*
X8085952Y-16264048D01*
X8076428Y-16245000D01*
X8057381Y-16216428D01*
X8047857Y-16206905D01*
M02*
