M48
; DRILL file {KiCad (6.0.6)} date Tue Aug 29 14:34:48 2023
; FORMAT={-:-/ absolute / metric / decimal}
; #@! TF.CreationDate,2023-08-29T14:34:48+02:00
; #@! TF.GenerationSoftware,Kicad,Pcbnew,(6.0.6)
; #@! TF.FileFunction,Plated,1,2,PTH
FMAT,2
METRIC
; #@! TA.AperFunction,Plated,PTH,ViaDrill
T1C0.800
; #@! TA.AperFunction,Plated,PTH,ComponentDrill
T2C1.000
; #@! TA.AperFunction,Plated,PTH,ComponentDrill
T3C1.100
; #@! TA.AperFunction,Plated,PTH,ComponentDrill
T4C1.200
; #@! TA.AperFunction,Plated,PTH,ComponentDrill
T5C1.300
; #@! TA.AperFunction,Plated,PTH,ComponentDrill
T6C1.500
; #@! TA.AperFunction,Plated,PTH,ComponentDrill
T7C6.400
%
G90
G05
T1
X29.65Y-49.25
X34.35Y-50.85
X37.25Y-105.0
X41.1Y-33.35
X41.95Y-59.45
X42.65Y-47.95
X43.2Y-36.4
X43.7Y-51.55
X46.95Y-59.75
X48.95Y-38.7
X49.35Y-45.95
X49.6Y-55.85
X50.15Y-49.15
X50.9Y-33.6
X54.4Y-54.85
X59.45Y-41.55
X61.8Y-39.2
X62.7Y-46.85
X64.0Y-41.2
X64.907Y-43.739
X64.95Y-30.15
X65.5Y-35.0
X73.9Y-32.4
X78.85Y-29.65
X78.9Y-43.9
X79.05Y-42.0
X79.6Y-35.1
X85.2Y-54.45
X87.9Y-56.4
X87.95Y-50.25
X90.5Y-35.0
X90.75Y-54.45
X93.1Y-58.3
X93.25Y-50.237
X93.4Y-39.0
X94.8Y-33.6
X95.5Y-48.1
X96.7Y-39.0
X100.8Y-47.2
X103.3Y-39.05
X103.6Y-35.45
X103.75Y-49.7
X104.5Y-68.1
X104.5Y-69.9
X105.575Y-57.85
X106.7Y-40.1
X106.85Y-31.55
X108.75Y-56.3
X108.825Y-52.45
X109.5Y-31.45
X109.7Y-27.5
X109.7Y-41.2
X111.4Y-35.2
X113.0Y-28.6
X113.5Y-48.4
X114.05Y-35.2
X116.2Y-28.5
X117.75Y-35.4
X119.55Y-53.35
X120.0Y-41.05
X120.0Y-44.4
X121.2Y-35.2
X122.4Y-26.95
X126.0Y-48.497
X126.05Y-54.65
X126.05Y-60.35
X126.3Y-32.9
X127.5Y-68.1
X127.5Y-69.9
X127.6Y-36.4
X127.75Y-41.85
X129.55Y-55.35
X132.05Y-41.85
X133.75Y-53.65
X137.8Y-59.05
X138.2Y-56.3
X139.2Y-41.4
X140.35Y-36.05
X140.56Y-54.35
X142.3Y-58.75
X142.7Y-40.4
X143.9Y-34.4
X144.0Y-51.7
X145.55Y-46.35
X147.5Y-40.4
X152.05Y-36.05
X152.55Y-43.85
X158.55Y-26.85
X159.1Y-34.4
X159.55Y-43.85
X161.65Y-35.55
X162.1Y-33.0
X163.9Y-37.85
X168.65Y-43.85
X174.55Y-32.85
X175.05Y-43.85
X179.125Y-39.025
X180.55Y-43.85
X183.65Y-32.825
X185.3Y-47.5
X185.85Y-43.85
X186.55Y-34.75
X188.4Y-54.637
X188.4Y-56.7
X192.55Y-29.85
X194.7Y-56.725
X199.3Y-61.825
X200.1Y-25.75
X200.45Y-37.0
X200.7Y-85.15
X200.75Y-83.3
X206.45Y-43.85
X211.7Y-47.5
X214.65Y-91.05
X214.65Y-93.55
X217.15Y-91.05
X217.15Y-93.55
X220.5Y-47.5
X223.05Y-49.85
X225.25Y-40.625
X227.5Y-47.3
X228.6Y-57.05
X232.032Y-41.825
X235.275Y-49.275
T2
X40.57Y-27.94
X40.57Y-30.48
X43.11Y-27.94
X43.11Y-30.48
X45.65Y-27.94
X45.65Y-30.48
X48.19Y-27.94
X48.19Y-30.48
X50.73Y-27.94
X50.73Y-30.48
X53.27Y-27.94
X53.27Y-30.48
X55.81Y-27.94
X55.81Y-30.48
X58.35Y-27.94
X58.35Y-30.48
X86.07Y-27.94
X86.07Y-30.48
X88.61Y-27.94
X88.61Y-30.48
X91.15Y-27.94
X91.15Y-30.48
X93.69Y-27.94
X93.69Y-30.48
X96.23Y-27.94
X96.23Y-30.48
X98.77Y-27.94
X98.77Y-30.48
X101.31Y-27.94
X101.31Y-30.48
X103.85Y-27.94
X103.85Y-30.48
X131.57Y-27.94
X131.57Y-30.48
X134.11Y-27.94
X134.11Y-30.48
X136.65Y-27.94
X136.65Y-30.48
X139.19Y-27.94
X139.19Y-30.48
X141.73Y-27.94
X141.73Y-30.48
X144.27Y-27.94
X144.27Y-30.48
X146.81Y-27.94
X146.81Y-30.48
X149.35Y-27.94
X149.35Y-30.48
X165.89Y-27.94
X168.43Y-27.94
X170.97Y-27.94
X173.51Y-27.94
X178.63Y-27.94
X181.17Y-27.94
X183.71Y-27.94
X186.25Y-27.94
X196.35Y-88.7
X206.35Y-88.7
X208.31Y-27.94
X210.85Y-27.94
X213.39Y-27.94
X215.93Y-27.94
X221.06Y-27.94
X223.6Y-27.94
X226.14Y-27.94
X228.68Y-27.94
T3
X42.25Y-104.95
X42.25Y-107.49
X42.25Y-110.03
X73.25Y-63.745
X75.79Y-63.745
X78.33Y-63.745
X200.77Y-71.15
X203.31Y-71.15
X205.85Y-71.15
T4
X96.456Y-80.174
X96.478Y-99.7
X103.956Y-80.174
X103.978Y-99.7
X116.25Y-80.2
X116.25Y-99.75
X123.75Y-80.2
X123.75Y-99.75
X153.95Y-111.004
X153.95Y-148.504
X159.0Y-111.004
X159.0Y-148.504
X163.592Y-116.258
X163.592Y-143.758
X169.2Y-111.004
X169.2Y-148.504
X174.25Y-111.004
X174.25Y-148.504
X190.35Y-111.0
X190.35Y-148.5
X195.4Y-111.0
X195.4Y-148.5
X200.5Y-116.254
X200.5Y-143.754
X205.6Y-111.0
X205.6Y-148.5
X210.65Y-111.0
X210.65Y-148.5
T5
X33.75Y-68.45
X56.25Y-68.45
T6
X43.75Y-98.55
X43.75Y-116.35
X66.89Y-62.3
X84.69Y-62.3
X194.65Y-69.7
X212.45Y-69.7
T7
X22.5Y-68.45
X22.5Y-86.7
X22.5Y-104.95
X22.5Y-123.2
X226.5Y-86.7
X226.5Y-104.95
T0
M30
