M48
; DRILL file {KiCad (6.0.6)} date Mon Aug 29 10:44:52 2022
; FORMAT={-:-/ absolute / metric / decimal}
; #@! TF.CreationDate,2022-08-29T10:44:52+02:00
; #@! TF.GenerationSoftware,Kicad,Pcbnew,(6.0.6)
; #@! TF.FileFunction,Plated,1,2,PTH
FMAT,2
METRIC
; #@! TA.AperFunction,Plated,PTH,ViaDrill
T1C0.400
; #@! TA.AperFunction,Plated,PTH,ComponentDrill
T2C0.800
; #@! TA.AperFunction,Plated,PTH,ComponentDrill
T3C1.000
; #@! TA.AperFunction,Plated,PTH,ComponentDrill
T4C1.300
%
G90
G05
T1
X59.106Y-97.892
X59.309Y-96.317
X68.301Y-97.917
X70.764Y-96.317
T2
X48.539Y-79.35
X48.539Y-82.423
X48.539Y-85.496
X48.539Y-88.621
X48.549Y-119.431
X48.549Y-122.504
X48.549Y-125.578
X48.558Y-128.651
X48.6Y-61.366
X48.6Y-64.44
X48.6Y-67.539
X48.607Y-70.612
X48.717Y-102.54
X48.717Y-105.639
X48.717Y-108.687
X48.717Y-111.76
X48.793Y-42.189
X48.793Y-45.263
X48.793Y-48.362
X48.793Y-51.435
X48.946Y-26.111
X48.946Y-29.185
X48.946Y-32.258
X48.946Y-35.331
X58.699Y-79.35
X58.699Y-82.423
X58.699Y-85.496
X58.699Y-88.621
X58.709Y-119.431
X58.709Y-122.504
X58.709Y-125.578
X58.718Y-128.651
X58.76Y-61.366
X58.76Y-64.44
X58.76Y-67.539
X58.767Y-70.612
X58.877Y-102.54
X58.877Y-105.639
X58.877Y-108.687
X58.877Y-111.76
X58.953Y-42.189
X58.953Y-45.263
X58.953Y-48.362
X58.953Y-51.435
X59.106Y-26.111
X59.106Y-29.185
X59.106Y-32.258
X59.106Y-35.331
T3
X68.34Y-66.167
X68.34Y-68.707
X68.34Y-71.247
X68.34Y-73.787
X68.34Y-76.327
X68.34Y-78.867
X68.34Y-81.407
X68.34Y-83.947
X68.34Y-86.487
X68.34Y-89.027
X70.88Y-66.167
X70.88Y-68.707
X70.88Y-71.247
X70.88Y-73.787
X70.88Y-76.327
X70.88Y-78.867
X70.88Y-81.407
X70.88Y-83.947
X70.88Y-86.487
X70.88Y-89.027
T4
X41.605Y-16.672
X41.605Y-21.752
X41.605Y-26.832
X41.605Y-31.912
X41.605Y-59.318
X41.605Y-64.398
X41.605Y-69.478
X41.605Y-74.558
X41.605Y-80.645
X41.605Y-85.725
X41.605Y-90.805
X41.605Y-95.885
X41.605Y-101.981
X41.605Y-107.061
X41.605Y-112.141
X41.605Y-117.221
X41.605Y-123.292
X41.605Y-128.372
X41.605Y-133.452
X41.605Y-138.532
X41.605Y-37.982
X41.605Y-43.062
X41.605Y-48.142
X41.605Y-53.222
X50.47Y-136.474
X50.521Y-18.72
X55.55Y-136.474
X55.601Y-18.72
X60.63Y-136.474
X60.681Y-18.72
X65.71Y-136.474
X65.761Y-18.72
T0
M30
