G04 #@! TF.GenerationSoftware,KiCad,Pcbnew,(6.0.6)*
G04 #@! TF.CreationDate,2022-08-29T10:44:39+02:00*
G04 #@! TF.ProjectId,lem-adapter-board,6c656d2d-6164-4617-9074-65722d626f61,rev?*
G04 #@! TF.SameCoordinates,Original*
G04 #@! TF.FileFunction,Soldermask,Top*
G04 #@! TF.FilePolarity,Negative*
%FSLAX46Y46*%
G04 Gerber Fmt 4.6, Leading zero omitted, Abs format (unit mm)*
G04 Created by KiCad (PCBNEW (6.0.6)) date 2022-08-29 10:44:39*
%MOMM*%
%LPD*%
G01*
G04 APERTURE LIST*
G04 Aperture macros list*
%AMRoundRect*
0 Rectangle with rounded corners*
0 $1 Rounding radius*
0 $2 $3 $4 $5 $6 $7 $8 $9 X,Y pos of 4 corners*
0 Add a 4 corners polygon primitive as box body*
4,1,4,$2,$3,$4,$5,$6,$7,$8,$9,$2,$3,0*
0 Add four circle primitives for the rounded corners*
1,1,$1+$1,$2,$3*
1,1,$1+$1,$4,$5*
1,1,$1+$1,$6,$7*
1,1,$1+$1,$8,$9*
0 Add four rect primitives between the rounded corners*
20,1,$1+$1,$2,$3,$4,$5,0*
20,1,$1+$1,$4,$5,$6,$7,0*
20,1,$1+$1,$6,$7,$8,$9,0*
20,1,$1+$1,$8,$9,$2,$3,0*%
G04 Aperture macros list end*
%ADD10C,1.600000*%
%ADD11O,1.600000X1.600000*%
%ADD12R,2.600000X2.600000*%
%ADD13C,2.600000*%
%ADD14RoundRect,0.250000X-0.400000X-1.075000X0.400000X-1.075000X0.400000X1.075000X-0.400000X1.075000X0*%
%ADD15RoundRect,0.250000X-0.350000X-0.450000X0.350000X-0.450000X0.350000X0.450000X-0.350000X0.450000X0*%
%ADD16RoundRect,0.250000X0.350000X0.450000X-0.350000X0.450000X-0.350000X-0.450000X0.350000X-0.450000X0*%
%ADD17C,3.200000*%
%ADD18RoundRect,0.250000X1.075000X-0.400000X1.075000X0.400000X-1.075000X0.400000X-1.075000X-0.400000X0*%
%ADD19R,1.700000X1.700000*%
%ADD20O,1.700000X1.700000*%
%ADD21RoundRect,0.250000X-0.262500X-0.450000X0.262500X-0.450000X0.262500X0.450000X-0.262500X0.450000X0*%
%ADD22RoundRect,0.250000X0.375000X0.625000X-0.375000X0.625000X-0.375000X-0.625000X0.375000X-0.625000X0*%
%ADD23RoundRect,0.250000X0.625000X-0.375000X0.625000X0.375000X-0.625000X0.375000X-0.625000X-0.375000X0*%
%ADD24RoundRect,0.250000X-0.325000X-0.450000X0.325000X-0.450000X0.325000X0.450000X-0.325000X0.450000X0*%
G04 APERTURE END LIST*
D10*
X48599600Y-67538600D03*
D11*
X58759600Y-67538600D03*
D10*
X48793400Y-48361600D03*
D11*
X58953400Y-48361600D03*
D10*
X58708800Y-119430800D03*
D11*
X48548800Y-119430800D03*
D12*
X65760600Y-18719600D03*
D13*
X60680600Y-18719600D03*
X55600600Y-18719600D03*
X50520600Y-18719600D03*
D14*
X69925600Y-18719800D03*
X73025600Y-18719800D03*
D10*
X48945800Y-35331400D03*
D11*
X59105800Y-35331400D03*
D15*
X53914800Y-35255200D03*
X55914800Y-35255200D03*
D10*
X48717200Y-111760000D03*
D11*
X58877200Y-111760000D03*
D16*
X54619400Y-105638600D03*
X52619400Y-105638600D03*
D10*
X58699400Y-79349600D03*
D11*
X48539400Y-79349600D03*
D10*
X58877200Y-102539800D03*
D11*
X48717200Y-102539800D03*
D17*
X53568600Y-55727600D03*
D10*
X48539400Y-88620600D03*
D11*
X58699400Y-88620600D03*
D18*
X69215000Y-128956400D03*
X69215000Y-125856400D03*
D19*
X68340200Y-66167000D03*
D20*
X70880200Y-66167000D03*
X68340200Y-68707000D03*
X70880200Y-68707000D03*
X68340200Y-71247000D03*
X70880200Y-71247000D03*
X68340200Y-73787000D03*
X70880200Y-73787000D03*
X68340200Y-76327000D03*
X70880200Y-76327000D03*
X68340200Y-78867000D03*
X70880200Y-78867000D03*
X68340200Y-81407000D03*
X70880200Y-81407000D03*
X68340200Y-83947000D03*
X70880200Y-83947000D03*
X68340200Y-86487000D03*
X70880200Y-86487000D03*
X68340200Y-89027000D03*
X70880200Y-89027000D03*
D16*
X55635400Y-29159200D03*
X53635400Y-29159200D03*
D15*
X52619400Y-125577600D03*
X54619400Y-125577600D03*
D10*
X48539400Y-85496400D03*
D11*
X58699400Y-85496400D03*
D15*
X52654200Y-128651000D03*
X54654200Y-128651000D03*
D16*
X54628800Y-82473800D03*
X52628800Y-82473800D03*
D21*
X68658100Y-102311200D03*
X70483100Y-102311200D03*
D10*
X48558200Y-128651000D03*
D11*
X58718200Y-128651000D03*
D10*
X58699400Y-82423000D03*
D11*
X48539400Y-82423000D03*
D10*
X48793400Y-51435000D03*
D11*
X58953400Y-51435000D03*
D22*
X65865200Y-122910600D03*
X63065200Y-122910600D03*
D16*
X54695600Y-61366400D03*
X52695600Y-61366400D03*
D18*
X65862200Y-128981800D03*
X65862200Y-125881800D03*
D16*
X55000400Y-42164000D03*
X53000400Y-42164000D03*
D12*
X41605200Y-16671800D03*
D13*
X41605200Y-21751800D03*
X41605200Y-26831800D03*
X41605200Y-31911800D03*
D16*
X55076600Y-45262800D03*
X53076600Y-45262800D03*
D15*
X52619400Y-108635800D03*
X54619400Y-108635800D03*
D12*
X41605200Y-80645000D03*
D13*
X41605200Y-85725000D03*
X41605200Y-90805000D03*
X41605200Y-95885000D03*
D16*
X54644800Y-122529600D03*
X52644800Y-122529600D03*
X54730400Y-64439800D03*
X52730400Y-64439800D03*
D12*
X41605200Y-123291600D03*
D13*
X41605200Y-128371600D03*
X41605200Y-133451600D03*
X41605200Y-138531600D03*
D15*
X53127400Y-51409600D03*
X55127400Y-51409600D03*
X52670200Y-88569800D03*
X54670200Y-88569800D03*
D12*
X50469800Y-136474200D03*
D13*
X55549800Y-136474200D03*
X60629800Y-136474200D03*
X65709800Y-136474200D03*
D10*
X58759600Y-61366400D03*
D11*
X48599600Y-61366400D03*
D12*
X41605200Y-101981000D03*
D13*
X41605200Y-107061000D03*
X41605200Y-112141000D03*
X41605200Y-117221000D03*
D10*
X59105800Y-26111200D03*
D11*
X48945800Y-26111200D03*
D15*
X52730400Y-70612000D03*
X54730400Y-70612000D03*
X52644800Y-85496400D03*
X54644800Y-85496400D03*
D10*
X48717200Y-108686600D03*
D11*
X58877200Y-108686600D03*
D15*
X52568600Y-111785400D03*
X54568600Y-111785400D03*
D16*
X55635400Y-26136600D03*
X53635400Y-26136600D03*
X54737000Y-102514400D03*
X52737000Y-102514400D03*
D15*
X53889400Y-32207200D03*
X55889400Y-32207200D03*
D16*
X54635400Y-79349600D03*
X52635400Y-79349600D03*
D10*
X58708800Y-122504200D03*
D11*
X48548800Y-122504200D03*
D10*
X58877200Y-105638600D03*
D11*
X48717200Y-105638600D03*
D10*
X58953400Y-42189400D03*
D11*
X48793400Y-42189400D03*
D15*
X53076600Y-48361600D03*
X55076600Y-48361600D03*
D22*
X73031000Y-15798800D03*
X70231000Y-15798800D03*
D15*
X52679600Y-67538600D03*
X54679600Y-67538600D03*
D10*
X58953400Y-45262800D03*
D11*
X48793400Y-45262800D03*
D23*
X69240400Y-118062200D03*
X69240400Y-115262200D03*
D12*
X41605400Y-37982400D03*
D13*
X41605400Y-43062400D03*
X41605400Y-48142400D03*
X41605400Y-53222400D03*
D10*
X59105800Y-29184600D03*
D11*
X48945800Y-29184600D03*
D10*
X48945800Y-32258000D03*
D11*
X59105800Y-32258000D03*
D10*
X48607000Y-70612000D03*
D11*
X58767000Y-70612000D03*
D17*
X53568600Y-93091000D03*
D16*
X54628800Y-119456200D03*
X52628800Y-119456200D03*
D10*
X48548800Y-125577600D03*
D11*
X58708800Y-125577600D03*
D24*
X68562000Y-100126800D03*
X70612000Y-100126800D03*
D12*
X41605200Y-59318400D03*
D13*
X41605200Y-64398400D03*
X41605200Y-69478400D03*
X41605200Y-74558400D03*
D10*
X58759600Y-64439800D03*
D11*
X48599600Y-64439800D03*
M02*
