G04 #@! TF.GenerationSoftware,KiCad,Pcbnew,(6.0.6)*
G04 #@! TF.CreationDate,2022-08-29T10:44:39+02:00*
G04 #@! TF.ProjectId,lem-adapter-board,6c656d2d-6164-4617-9074-65722d626f61,rev?*
G04 #@! TF.SameCoordinates,Original*
G04 #@! TF.FileFunction,Legend,Top*
G04 #@! TF.FilePolarity,Positive*
%FSLAX46Y46*%
G04 Gerber Fmt 4.6, Leading zero omitted, Abs format (unit mm)*
G04 Created by KiCad (PCBNEW (6.0.6)) date 2022-08-29 10:44:39*
%MOMM*%
%LPD*%
G01*
G04 APERTURE LIST*
G04 Aperture macros list*
%AMRoundRect*
0 Rectangle with rounded corners*
0 $1 Rounding radius*
0 $2 $3 $4 $5 $6 $7 $8 $9 X,Y pos of 4 corners*
0 Add a 4 corners polygon primitive as box body*
4,1,4,$2,$3,$4,$5,$6,$7,$8,$9,$2,$3,0*
0 Add four circle primitives for the rounded corners*
1,1,$1+$1,$2,$3*
1,1,$1+$1,$4,$5*
1,1,$1+$1,$6,$7*
1,1,$1+$1,$8,$9*
0 Add four rect primitives between the rounded corners*
20,1,$1+$1,$2,$3,$4,$5,0*
20,1,$1+$1,$4,$5,$6,$7,0*
20,1,$1+$1,$6,$7,$8,$9,0*
20,1,$1+$1,$8,$9,$2,$3,0*%
G04 Aperture macros list end*
%ADD10C,0.150000*%
%ADD11C,0.120000*%
%ADD12C,1.600000*%
%ADD13O,1.600000X1.600000*%
%ADD14R,2.600000X2.600000*%
%ADD15C,2.600000*%
%ADD16RoundRect,0.250000X-0.400000X-1.075000X0.400000X-1.075000X0.400000X1.075000X-0.400000X1.075000X0*%
%ADD17RoundRect,0.250000X-0.350000X-0.450000X0.350000X-0.450000X0.350000X0.450000X-0.350000X0.450000X0*%
%ADD18RoundRect,0.250000X0.350000X0.450000X-0.350000X0.450000X-0.350000X-0.450000X0.350000X-0.450000X0*%
%ADD19C,3.200000*%
%ADD20RoundRect,0.250000X1.075000X-0.400000X1.075000X0.400000X-1.075000X0.400000X-1.075000X-0.400000X0*%
%ADD21R,1.700000X1.700000*%
%ADD22O,1.700000X1.700000*%
%ADD23RoundRect,0.250000X-0.262500X-0.450000X0.262500X-0.450000X0.262500X0.450000X-0.262500X0.450000X0*%
%ADD24RoundRect,0.250000X0.375000X0.625000X-0.375000X0.625000X-0.375000X-0.625000X0.375000X-0.625000X0*%
%ADD25RoundRect,0.250000X0.625000X-0.375000X0.625000X0.375000X-0.625000X0.375000X-0.625000X-0.375000X0*%
%ADD26RoundRect,0.250000X-0.325000X-0.450000X0.325000X-0.450000X0.325000X0.450000X-0.325000X0.450000X0*%
G04 APERTURE END LIST*
D10*
X36418000Y-16510066D02*
X36451333Y-16443400D01*
X36451333Y-16343400D01*
X36418000Y-16243400D01*
X36351333Y-16176733D01*
X36284666Y-16143400D01*
X36151333Y-16110066D01*
X36051333Y-16110066D01*
X35918000Y-16143400D01*
X35851333Y-16176733D01*
X35784666Y-16243400D01*
X35751333Y-16343400D01*
X35751333Y-16410066D01*
X35784666Y-16510066D01*
X35818000Y-16543400D01*
X36051333Y-16543400D01*
X36051333Y-16410066D01*
X35751333Y-16843400D02*
X36451333Y-16843400D01*
X35751333Y-17243400D01*
X36451333Y-17243400D01*
X35751333Y-17576733D02*
X36451333Y-17576733D01*
X36451333Y-17743400D01*
X36418000Y-17843400D01*
X36351333Y-17910066D01*
X36284666Y-17943400D01*
X36151333Y-17976733D01*
X36051333Y-17976733D01*
X35918000Y-17943400D01*
X35851333Y-17910066D01*
X35784666Y-17843400D01*
X35751333Y-17743400D01*
X35751333Y-17576733D01*
X64917666Y-76788133D02*
X65017666Y-76821466D01*
X65184333Y-76821466D01*
X65251000Y-76788133D01*
X65284333Y-76754800D01*
X65317666Y-76688133D01*
X65317666Y-76621466D01*
X65284333Y-76554800D01*
X65251000Y-76521466D01*
X65184333Y-76488133D01*
X65051000Y-76454800D01*
X64984333Y-76421466D01*
X64951000Y-76388133D01*
X64917666Y-76321466D01*
X64917666Y-76254800D01*
X64951000Y-76188133D01*
X64984333Y-76154800D01*
X65051000Y-76121466D01*
X65217666Y-76121466D01*
X65317666Y-76154800D01*
X65951000Y-76121466D02*
X65617666Y-76121466D01*
X65584333Y-76454800D01*
X65617666Y-76421466D01*
X65684333Y-76388133D01*
X65851000Y-76388133D01*
X65917666Y-76421466D01*
X65951000Y-76454800D01*
X65984333Y-76521466D01*
X65984333Y-76688133D01*
X65951000Y-76754800D01*
X65917666Y-76788133D01*
X65851000Y-76821466D01*
X65684333Y-76821466D01*
X65617666Y-76788133D01*
X65584333Y-76754800D01*
X36018000Y-46890133D02*
X36018000Y-47423466D01*
X36451333Y-47656800D02*
X35751333Y-47890133D01*
X36451333Y-48123466D01*
X35784666Y-48656800D02*
X35751333Y-48590133D01*
X35751333Y-48456800D01*
X35784666Y-48390133D01*
X35818000Y-48356800D01*
X35884666Y-48323466D01*
X36084666Y-48323466D01*
X36151333Y-48356800D01*
X36184666Y-48390133D01*
X36218000Y-48456800D01*
X36218000Y-48590133D01*
X36184666Y-48656800D01*
X35784666Y-49256800D02*
X35751333Y-49190133D01*
X35751333Y-49056800D01*
X35784666Y-48990133D01*
X35818000Y-48956800D01*
X35884666Y-48923466D01*
X36084666Y-48923466D01*
X36151333Y-48956800D01*
X36184666Y-48990133D01*
X36218000Y-49056800D01*
X36218000Y-49190133D01*
X36184666Y-49256800D01*
X36018000Y-68022933D02*
X36018000Y-68556266D01*
X36451333Y-68789600D02*
X35751333Y-69022933D01*
X36451333Y-69256266D01*
X35784666Y-69789600D02*
X35751333Y-69722933D01*
X35751333Y-69589600D01*
X35784666Y-69522933D01*
X35818000Y-69489600D01*
X35884666Y-69456266D01*
X36084666Y-69456266D01*
X36151333Y-69489600D01*
X36184666Y-69522933D01*
X36218000Y-69589600D01*
X36218000Y-69722933D01*
X36184666Y-69789600D01*
X35784666Y-70389600D02*
X35751333Y-70322933D01*
X35751333Y-70189600D01*
X35784666Y-70122933D01*
X35818000Y-70089600D01*
X35884666Y-70056266D01*
X36084666Y-70056266D01*
X36151333Y-70089600D01*
X36184666Y-70122933D01*
X36218000Y-70189600D01*
X36218000Y-70322933D01*
X36184666Y-70389600D01*
X49504666Y-141534400D02*
X49438000Y-141501066D01*
X49338000Y-141501066D01*
X49238000Y-141534400D01*
X49171333Y-141601066D01*
X49138000Y-141667733D01*
X49104666Y-141801066D01*
X49104666Y-141901066D01*
X49138000Y-142034400D01*
X49171333Y-142101066D01*
X49238000Y-142167733D01*
X49338000Y-142201066D01*
X49404666Y-142201066D01*
X49504666Y-142167733D01*
X49538000Y-142134400D01*
X49538000Y-141901066D01*
X49404666Y-141901066D01*
X49838000Y-142201066D02*
X49838000Y-141501066D01*
X50238000Y-142201066D01*
X50238000Y-141501066D01*
X50571333Y-142201066D02*
X50571333Y-141501066D01*
X50738000Y-141501066D01*
X50838000Y-141534400D01*
X50904666Y-141601066D01*
X50938000Y-141667733D01*
X50971333Y-141801066D01*
X50971333Y-141901066D01*
X50938000Y-142034400D01*
X50904666Y-142101066D01*
X50838000Y-142167733D01*
X50738000Y-142201066D01*
X50571333Y-142201066D01*
X64151000Y-84225600D02*
X64684333Y-84225600D01*
X64417666Y-84492266D02*
X64417666Y-83958933D01*
X65351000Y-83792266D02*
X65017666Y-83792266D01*
X64984333Y-84125600D01*
X65017666Y-84092266D01*
X65084333Y-84058933D01*
X65251000Y-84058933D01*
X65317666Y-84092266D01*
X65351000Y-84125600D01*
X65384333Y-84192266D01*
X65384333Y-84358933D01*
X65351000Y-84425600D01*
X65317666Y-84458933D01*
X65251000Y-84492266D01*
X65084333Y-84492266D01*
X65017666Y-84458933D01*
X64984333Y-84425600D01*
X65584333Y-83792266D02*
X65817666Y-84492266D01*
X66051000Y-83792266D01*
X36418000Y-122707466D02*
X36451333Y-122640800D01*
X36451333Y-122540800D01*
X36418000Y-122440800D01*
X36351333Y-122374133D01*
X36284666Y-122340800D01*
X36151333Y-122307466D01*
X36051333Y-122307466D01*
X35918000Y-122340800D01*
X35851333Y-122374133D01*
X35784666Y-122440800D01*
X35751333Y-122540800D01*
X35751333Y-122607466D01*
X35784666Y-122707466D01*
X35818000Y-122740800D01*
X36051333Y-122740800D01*
X36051333Y-122607466D01*
X35751333Y-123040800D02*
X36451333Y-123040800D01*
X35751333Y-123440800D01*
X36451333Y-123440800D01*
X35751333Y-123774133D02*
X36451333Y-123774133D01*
X36451333Y-123940800D01*
X36418000Y-124040800D01*
X36351333Y-124107466D01*
X36284666Y-124140800D01*
X36151333Y-124174133D01*
X36051333Y-124174133D01*
X35918000Y-124140800D01*
X35851333Y-124107466D01*
X35784666Y-124040800D01*
X35751333Y-123940800D01*
X35751333Y-123774133D01*
X51966666Y-13259600D02*
X51433333Y-13259600D01*
X51200000Y-13692933D02*
X50966666Y-12992933D01*
X50733333Y-13692933D01*
X50200000Y-13026266D02*
X50266666Y-12992933D01*
X50400000Y-12992933D01*
X50466666Y-13026266D01*
X50500000Y-13059600D01*
X50533333Y-13126266D01*
X50533333Y-13326266D01*
X50500000Y-13392933D01*
X50466666Y-13426266D01*
X50400000Y-13459600D01*
X50266666Y-13459600D01*
X50200000Y-13426266D01*
X49600000Y-13026266D02*
X49666666Y-12992933D01*
X49800000Y-12992933D01*
X49866666Y-13026266D01*
X49900000Y-13059600D01*
X49933333Y-13126266D01*
X49933333Y-13326266D01*
X49900000Y-13392933D01*
X49866666Y-13426266D01*
X49800000Y-13459600D01*
X49666666Y-13459600D01*
X49600000Y-13426266D01*
X35784666Y-21132866D02*
X35751333Y-21232866D01*
X35751333Y-21399533D01*
X35784666Y-21466200D01*
X35818000Y-21499533D01*
X35884666Y-21532866D01*
X35951333Y-21532866D01*
X36018000Y-21499533D01*
X36051333Y-21466200D01*
X36084666Y-21399533D01*
X36118000Y-21266200D01*
X36151333Y-21199533D01*
X36184666Y-21166200D01*
X36251333Y-21132866D01*
X36318000Y-21132866D01*
X36384666Y-21166200D01*
X36418000Y-21199533D01*
X36451333Y-21266200D01*
X36451333Y-21432866D01*
X36418000Y-21532866D01*
X35751333Y-22199533D02*
X35751333Y-21799533D01*
X35751333Y-21999533D02*
X36451333Y-21999533D01*
X36351333Y-21932866D01*
X36284666Y-21866200D01*
X36251333Y-21799533D01*
X35784666Y-106324466D02*
X35751333Y-106424466D01*
X35751333Y-106591133D01*
X35784666Y-106657800D01*
X35818000Y-106691133D01*
X35884666Y-106724466D01*
X35951333Y-106724466D01*
X36018000Y-106691133D01*
X36051333Y-106657800D01*
X36084666Y-106591133D01*
X36118000Y-106457800D01*
X36151333Y-106391133D01*
X36184666Y-106357800D01*
X36251333Y-106324466D01*
X36318000Y-106324466D01*
X36384666Y-106357800D01*
X36418000Y-106391133D01*
X36451333Y-106457800D01*
X36451333Y-106624466D01*
X36418000Y-106724466D01*
X36451333Y-107357800D02*
X36451333Y-107024466D01*
X36118000Y-106991133D01*
X36151333Y-107024466D01*
X36184666Y-107091133D01*
X36184666Y-107257800D01*
X36151333Y-107324466D01*
X36118000Y-107357800D01*
X36051333Y-107391133D01*
X35884666Y-107391133D01*
X35818000Y-107357800D01*
X35784666Y-107324466D01*
X35751333Y-107257800D01*
X35751333Y-107091133D01*
X35784666Y-107024466D01*
X35818000Y-106991133D01*
X36018000Y-94362733D02*
X36018000Y-94896066D01*
X35751333Y-94629400D02*
X36284666Y-94629400D01*
X36451333Y-95129400D02*
X35751333Y-95362733D01*
X36451333Y-95596066D01*
X35784666Y-96129400D02*
X35751333Y-96062733D01*
X35751333Y-95929400D01*
X35784666Y-95862733D01*
X35818000Y-95829400D01*
X35884666Y-95796066D01*
X36084666Y-95796066D01*
X36151333Y-95829400D01*
X36184666Y-95862733D01*
X36218000Y-95929400D01*
X36218000Y-96062733D01*
X36184666Y-96129400D01*
X35784666Y-96729400D02*
X35751333Y-96662733D01*
X35751333Y-96529400D01*
X35784666Y-96462733D01*
X35818000Y-96429400D01*
X35884666Y-96396066D01*
X36084666Y-96396066D01*
X36151333Y-96429400D01*
X36184666Y-96462733D01*
X36218000Y-96529400D01*
X36218000Y-96662733D01*
X36184666Y-96729400D01*
X35784666Y-85242466D02*
X35751333Y-85342466D01*
X35751333Y-85509133D01*
X35784666Y-85575800D01*
X35818000Y-85609133D01*
X35884666Y-85642466D01*
X35951333Y-85642466D01*
X36018000Y-85609133D01*
X36051333Y-85575800D01*
X36084666Y-85509133D01*
X36118000Y-85375800D01*
X36151333Y-85309133D01*
X36184666Y-85275800D01*
X36251333Y-85242466D01*
X36318000Y-85242466D01*
X36384666Y-85275800D01*
X36418000Y-85309133D01*
X36451333Y-85375800D01*
X36451333Y-85542466D01*
X36418000Y-85642466D01*
X36218000Y-86242466D02*
X35751333Y-86242466D01*
X36484666Y-86075800D02*
X35984666Y-85909133D01*
X35984666Y-86342466D01*
X36018000Y-72950533D02*
X36018000Y-73483866D01*
X35751333Y-73217200D02*
X36284666Y-73217200D01*
X36451333Y-73717200D02*
X35751333Y-73950533D01*
X36451333Y-74183866D01*
X35784666Y-74717200D02*
X35751333Y-74650533D01*
X35751333Y-74517200D01*
X35784666Y-74450533D01*
X35818000Y-74417200D01*
X35884666Y-74383866D01*
X36084666Y-74383866D01*
X36151333Y-74417200D01*
X36184666Y-74450533D01*
X36218000Y-74517200D01*
X36218000Y-74650533D01*
X36184666Y-74717200D01*
X35784666Y-75317200D02*
X35751333Y-75250533D01*
X35751333Y-75117200D01*
X35784666Y-75050533D01*
X35818000Y-75017200D01*
X35884666Y-74983866D01*
X36084666Y-74983866D01*
X36151333Y-75017200D01*
X36184666Y-75050533D01*
X36218000Y-75117200D01*
X36218000Y-75250533D01*
X36184666Y-75317200D01*
X36018000Y-51563733D02*
X36018000Y-52097066D01*
X35751333Y-51830400D02*
X36284666Y-51830400D01*
X36451333Y-52330400D02*
X35751333Y-52563733D01*
X36451333Y-52797066D01*
X35784666Y-53330400D02*
X35751333Y-53263733D01*
X35751333Y-53130400D01*
X35784666Y-53063733D01*
X35818000Y-53030400D01*
X35884666Y-52997066D01*
X36084666Y-52997066D01*
X36151333Y-53030400D01*
X36184666Y-53063733D01*
X36218000Y-53130400D01*
X36218000Y-53263733D01*
X36184666Y-53330400D01*
X35784666Y-53930400D02*
X35751333Y-53863733D01*
X35751333Y-53730400D01*
X35784666Y-53663733D01*
X35818000Y-53630400D01*
X35884666Y-53597066D01*
X36084666Y-53597066D01*
X36151333Y-53630400D01*
X36184666Y-53663733D01*
X36218000Y-53730400D01*
X36218000Y-53863733D01*
X36184666Y-53930400D01*
X36018000Y-24944533D02*
X36018000Y-25477866D01*
X36451333Y-25711200D02*
X35751333Y-25944533D01*
X36451333Y-26177866D01*
X35784666Y-26711200D02*
X35751333Y-26644533D01*
X35751333Y-26511200D01*
X35784666Y-26444533D01*
X35818000Y-26411200D01*
X35884666Y-26377866D01*
X36084666Y-26377866D01*
X36151333Y-26411200D01*
X36184666Y-26444533D01*
X36218000Y-26511200D01*
X36218000Y-26644533D01*
X36184666Y-26711200D01*
X35784666Y-27311200D02*
X35751333Y-27244533D01*
X35751333Y-27111200D01*
X35784666Y-27044533D01*
X35818000Y-27011200D01*
X35884666Y-26977866D01*
X36084666Y-26977866D01*
X36151333Y-27011200D01*
X36184666Y-27044533D01*
X36218000Y-27111200D01*
X36218000Y-27244533D01*
X36184666Y-27311200D01*
X36018000Y-110745733D02*
X36018000Y-111279066D01*
X36451333Y-111512400D02*
X35751333Y-111745733D01*
X36451333Y-111979066D01*
X35784666Y-112512400D02*
X35751333Y-112445733D01*
X35751333Y-112312400D01*
X35784666Y-112245733D01*
X35818000Y-112212400D01*
X35884666Y-112179066D01*
X36084666Y-112179066D01*
X36151333Y-112212400D01*
X36184666Y-112245733D01*
X36218000Y-112312400D01*
X36218000Y-112445733D01*
X36184666Y-112512400D01*
X35784666Y-113112400D02*
X35751333Y-113045733D01*
X35751333Y-112912400D01*
X35784666Y-112845733D01*
X35818000Y-112812400D01*
X35884666Y-112779066D01*
X36084666Y-112779066D01*
X36151333Y-112812400D01*
X36184666Y-112845733D01*
X36218000Y-112912400D01*
X36218000Y-113045733D01*
X36184666Y-113112400D01*
X35784666Y-63779466D02*
X35751333Y-63879466D01*
X35751333Y-64046133D01*
X35784666Y-64112800D01*
X35818000Y-64146133D01*
X35884666Y-64179466D01*
X35951333Y-64179466D01*
X36018000Y-64146133D01*
X36051333Y-64112800D01*
X36084666Y-64046133D01*
X36118000Y-63912800D01*
X36151333Y-63846133D01*
X36184666Y-63812800D01*
X36251333Y-63779466D01*
X36318000Y-63779466D01*
X36384666Y-63812800D01*
X36418000Y-63846133D01*
X36451333Y-63912800D01*
X36451333Y-64079466D01*
X36418000Y-64179466D01*
X36451333Y-64412800D02*
X36451333Y-64846133D01*
X36184666Y-64612800D01*
X36184666Y-64712800D01*
X36151333Y-64779466D01*
X36118000Y-64812800D01*
X36051333Y-64846133D01*
X35884666Y-64846133D01*
X35818000Y-64812800D01*
X35784666Y-64779466D01*
X35751333Y-64712800D01*
X35751333Y-64512800D01*
X35784666Y-64446133D01*
X35818000Y-64412800D01*
X36018000Y-115647933D02*
X36018000Y-116181266D01*
X35751333Y-115914600D02*
X36284666Y-115914600D01*
X36451333Y-116414600D02*
X35751333Y-116647933D01*
X36451333Y-116881266D01*
X35784666Y-117414600D02*
X35751333Y-117347933D01*
X35751333Y-117214600D01*
X35784666Y-117147933D01*
X35818000Y-117114600D01*
X35884666Y-117081266D01*
X36084666Y-117081266D01*
X36151333Y-117114600D01*
X36184666Y-117147933D01*
X36218000Y-117214600D01*
X36218000Y-117347933D01*
X36184666Y-117414600D01*
X35784666Y-118014600D02*
X35751333Y-117947933D01*
X35751333Y-117814600D01*
X35784666Y-117747933D01*
X35818000Y-117714600D01*
X35884666Y-117681266D01*
X36084666Y-117681266D01*
X36151333Y-117714600D01*
X36184666Y-117747933D01*
X36218000Y-117814600D01*
X36218000Y-117947933D01*
X36184666Y-118014600D01*
X69546933Y-91617000D02*
X70080266Y-91617000D01*
X70313600Y-91183666D02*
X70546933Y-91883666D01*
X70780266Y-91183666D01*
X71313600Y-91850333D02*
X71246933Y-91883666D01*
X71113600Y-91883666D01*
X71046933Y-91850333D01*
X71013600Y-91817000D01*
X70980266Y-91750333D01*
X70980266Y-91550333D01*
X71013600Y-91483666D01*
X71046933Y-91450333D01*
X71113600Y-91417000D01*
X71246933Y-91417000D01*
X71313600Y-91450333D01*
X71913600Y-91850333D02*
X71846933Y-91883666D01*
X71713600Y-91883666D01*
X71646933Y-91850333D01*
X71613600Y-91817000D01*
X71580266Y-91750333D01*
X71580266Y-91550333D01*
X71613600Y-91483666D01*
X71646933Y-91450333D01*
X71713600Y-91417000D01*
X71846933Y-91417000D01*
X71913600Y-91450333D01*
X64917666Y-66602733D02*
X65017666Y-66636066D01*
X65184333Y-66636066D01*
X65251000Y-66602733D01*
X65284333Y-66569400D01*
X65317666Y-66502733D01*
X65317666Y-66436066D01*
X65284333Y-66369400D01*
X65251000Y-66336066D01*
X65184333Y-66302733D01*
X65051000Y-66269400D01*
X64984333Y-66236066D01*
X64951000Y-66202733D01*
X64917666Y-66136066D01*
X64917666Y-66069400D01*
X64951000Y-66002733D01*
X64984333Y-65969400D01*
X65051000Y-65936066D01*
X65217666Y-65936066D01*
X65317666Y-65969400D01*
X65984333Y-66636066D02*
X65584333Y-66636066D01*
X65784333Y-66636066D02*
X65784333Y-65936066D01*
X65717666Y-66036066D01*
X65651000Y-66102733D01*
X65584333Y-66136066D01*
X36418000Y-58775666D02*
X36451333Y-58709000D01*
X36451333Y-58609000D01*
X36418000Y-58509000D01*
X36351333Y-58442333D01*
X36284666Y-58409000D01*
X36151333Y-58375666D01*
X36051333Y-58375666D01*
X35918000Y-58409000D01*
X35851333Y-58442333D01*
X35784666Y-58509000D01*
X35751333Y-58609000D01*
X35751333Y-58675666D01*
X35784666Y-58775666D01*
X35818000Y-58809000D01*
X36051333Y-58809000D01*
X36051333Y-58675666D01*
X35751333Y-59109000D02*
X36451333Y-59109000D01*
X35751333Y-59509000D01*
X36451333Y-59509000D01*
X35751333Y-59842333D02*
X36451333Y-59842333D01*
X36451333Y-60009000D01*
X36418000Y-60109000D01*
X36351333Y-60175666D01*
X36284666Y-60209000D01*
X36151333Y-60242333D01*
X36051333Y-60242333D01*
X35918000Y-60209000D01*
X35851333Y-60175666D01*
X35784666Y-60109000D01*
X35751333Y-60009000D01*
X35751333Y-59842333D01*
X36418000Y-37338066D02*
X36451333Y-37271400D01*
X36451333Y-37171400D01*
X36418000Y-37071400D01*
X36351333Y-37004733D01*
X36284666Y-36971400D01*
X36151333Y-36938066D01*
X36051333Y-36938066D01*
X35918000Y-36971400D01*
X35851333Y-37004733D01*
X35784666Y-37071400D01*
X35751333Y-37171400D01*
X35751333Y-37238066D01*
X35784666Y-37338066D01*
X35818000Y-37371400D01*
X36051333Y-37371400D01*
X36051333Y-37238066D01*
X35751333Y-37671400D02*
X36451333Y-37671400D01*
X35751333Y-38071400D01*
X36451333Y-38071400D01*
X35751333Y-38404733D02*
X36451333Y-38404733D01*
X36451333Y-38571400D01*
X36418000Y-38671400D01*
X36351333Y-38738066D01*
X36284666Y-38771400D01*
X36151333Y-38804733D01*
X36051333Y-38804733D01*
X35918000Y-38771400D01*
X35851333Y-38738066D01*
X35784666Y-38671400D01*
X35751333Y-38571400D01*
X35751333Y-38404733D01*
X59918666Y-141534400D02*
X59852000Y-141501066D01*
X59752000Y-141501066D01*
X59652000Y-141534400D01*
X59585333Y-141601066D01*
X59552000Y-141667733D01*
X59518666Y-141801066D01*
X59518666Y-141901066D01*
X59552000Y-142034400D01*
X59585333Y-142101066D01*
X59652000Y-142167733D01*
X59752000Y-142201066D01*
X59818666Y-142201066D01*
X59918666Y-142167733D01*
X59952000Y-142134400D01*
X59952000Y-141901066D01*
X59818666Y-141901066D01*
X60252000Y-142201066D02*
X60252000Y-141501066D01*
X60652000Y-142201066D01*
X60652000Y-141501066D01*
X60985333Y-142201066D02*
X60985333Y-141501066D01*
X61152000Y-141501066D01*
X61252000Y-141534400D01*
X61318666Y-141601066D01*
X61352000Y-141667733D01*
X61385333Y-141801066D01*
X61385333Y-141901066D01*
X61352000Y-142034400D01*
X61318666Y-142101066D01*
X61252000Y-142167733D01*
X61152000Y-142201066D01*
X60985333Y-142201066D01*
X64917666Y-71631933D02*
X65017666Y-71665266D01*
X65184333Y-71665266D01*
X65251000Y-71631933D01*
X65284333Y-71598600D01*
X65317666Y-71531933D01*
X65317666Y-71465266D01*
X65284333Y-71398600D01*
X65251000Y-71365266D01*
X65184333Y-71331933D01*
X65051000Y-71298600D01*
X64984333Y-71265266D01*
X64951000Y-71231933D01*
X64917666Y-71165266D01*
X64917666Y-71098600D01*
X64951000Y-71031933D01*
X64984333Y-70998600D01*
X65051000Y-70965266D01*
X65217666Y-70965266D01*
X65317666Y-70998600D01*
X65551000Y-70965266D02*
X65984333Y-70965266D01*
X65751000Y-71231933D01*
X65851000Y-71231933D01*
X65917666Y-71265266D01*
X65951000Y-71298600D01*
X65984333Y-71365266D01*
X65984333Y-71531933D01*
X65951000Y-71598600D01*
X65917666Y-71631933D01*
X65851000Y-71665266D01*
X65651000Y-71665266D01*
X65584333Y-71631933D01*
X65551000Y-71598600D01*
X64917666Y-74070333D02*
X65017666Y-74103666D01*
X65184333Y-74103666D01*
X65251000Y-74070333D01*
X65284333Y-74037000D01*
X65317666Y-73970333D01*
X65317666Y-73903666D01*
X65284333Y-73837000D01*
X65251000Y-73803666D01*
X65184333Y-73770333D01*
X65051000Y-73737000D01*
X64984333Y-73703666D01*
X64951000Y-73670333D01*
X64917666Y-73603666D01*
X64917666Y-73537000D01*
X64951000Y-73470333D01*
X64984333Y-73437000D01*
X65051000Y-73403666D01*
X65217666Y-73403666D01*
X65317666Y-73437000D01*
X65917666Y-73637000D02*
X65917666Y-74103666D01*
X65751000Y-73370333D02*
X65584333Y-73870333D01*
X66017666Y-73870333D01*
X35784666Y-127889066D02*
X35751333Y-127989066D01*
X35751333Y-128155733D01*
X35784666Y-128222400D01*
X35818000Y-128255733D01*
X35884666Y-128289066D01*
X35951333Y-128289066D01*
X36018000Y-128255733D01*
X36051333Y-128222400D01*
X36084666Y-128155733D01*
X36118000Y-128022400D01*
X36151333Y-127955733D01*
X36184666Y-127922400D01*
X36251333Y-127889066D01*
X36318000Y-127889066D01*
X36384666Y-127922400D01*
X36418000Y-127955733D01*
X36451333Y-128022400D01*
X36451333Y-128189066D01*
X36418000Y-128289066D01*
X36451333Y-128889066D02*
X36451333Y-128755733D01*
X36418000Y-128689066D01*
X36384666Y-128655733D01*
X36284666Y-128589066D01*
X36151333Y-128555733D01*
X35884666Y-128555733D01*
X35818000Y-128589066D01*
X35784666Y-128622400D01*
X35751333Y-128689066D01*
X35751333Y-128822400D01*
X35784666Y-128889066D01*
X35818000Y-128922400D01*
X35884666Y-128955733D01*
X36051333Y-128955733D01*
X36118000Y-128922400D01*
X36151333Y-128889066D01*
X36184666Y-128822400D01*
X36184666Y-128689066D01*
X36151333Y-128622400D01*
X36118000Y-128589066D01*
X36051333Y-128555733D01*
X36018000Y-89435133D02*
X36018000Y-89968466D01*
X36451333Y-90201800D02*
X35751333Y-90435133D01*
X36451333Y-90668466D01*
X35784666Y-91201800D02*
X35751333Y-91135133D01*
X35751333Y-91001800D01*
X35784666Y-90935133D01*
X35818000Y-90901800D01*
X35884666Y-90868466D01*
X36084666Y-90868466D01*
X36151333Y-90901800D01*
X36184666Y-90935133D01*
X36218000Y-91001800D01*
X36218000Y-91135133D01*
X36184666Y-91201800D01*
X35784666Y-91801800D02*
X35751333Y-91735133D01*
X35751333Y-91601800D01*
X35784666Y-91535133D01*
X35818000Y-91501800D01*
X35884666Y-91468466D01*
X36084666Y-91468466D01*
X36151333Y-91501800D01*
X36184666Y-91535133D01*
X36218000Y-91601800D01*
X36218000Y-91735133D01*
X36184666Y-91801800D01*
X54113266Y-141934400D02*
X54646600Y-141934400D01*
X54379933Y-142201066D02*
X54379933Y-141667733D01*
X54913266Y-141501066D02*
X55346600Y-141501066D01*
X55113266Y-141767733D01*
X55213266Y-141767733D01*
X55279933Y-141801066D01*
X55313266Y-141834400D01*
X55346600Y-141901066D01*
X55346600Y-142067733D01*
X55313266Y-142134400D01*
X55279933Y-142167733D01*
X55213266Y-142201066D01*
X55013266Y-142201066D01*
X54946600Y-142167733D01*
X54913266Y-142134400D01*
X55546600Y-141501066D02*
X55779933Y-142201066D01*
X56013266Y-141501066D01*
X56179933Y-141501066D02*
X56613266Y-141501066D01*
X56379933Y-141767733D01*
X56479933Y-141767733D01*
X56546600Y-141801066D01*
X56579933Y-141834400D01*
X56613266Y-141901066D01*
X56613266Y-142067733D01*
X56579933Y-142134400D01*
X56546600Y-142167733D01*
X56479933Y-142201066D01*
X56279933Y-142201066D01*
X56213266Y-142167733D01*
X56179933Y-142134400D01*
X36418000Y-101396866D02*
X36451333Y-101330200D01*
X36451333Y-101230200D01*
X36418000Y-101130200D01*
X36351333Y-101063533D01*
X36284666Y-101030200D01*
X36151333Y-100996866D01*
X36051333Y-100996866D01*
X35918000Y-101030200D01*
X35851333Y-101063533D01*
X35784666Y-101130200D01*
X35751333Y-101230200D01*
X35751333Y-101296866D01*
X35784666Y-101396866D01*
X35818000Y-101430200D01*
X36051333Y-101430200D01*
X36051333Y-101296866D01*
X35751333Y-101730200D02*
X36451333Y-101730200D01*
X35751333Y-102130200D01*
X36451333Y-102130200D01*
X35751333Y-102463533D02*
X36451333Y-102463533D01*
X36451333Y-102630200D01*
X36418000Y-102730200D01*
X36351333Y-102796866D01*
X36284666Y-102830200D01*
X36151333Y-102863533D01*
X36051333Y-102863533D01*
X35918000Y-102830200D01*
X35851333Y-102796866D01*
X35784666Y-102730200D01*
X35751333Y-102630200D01*
X35751333Y-102463533D01*
X64917666Y-79251933D02*
X65017666Y-79285266D01*
X65184333Y-79285266D01*
X65251000Y-79251933D01*
X65284333Y-79218600D01*
X65317666Y-79151933D01*
X65317666Y-79085266D01*
X65284333Y-79018600D01*
X65251000Y-78985266D01*
X65184333Y-78951933D01*
X65051000Y-78918600D01*
X64984333Y-78885266D01*
X64951000Y-78851933D01*
X64917666Y-78785266D01*
X64917666Y-78718600D01*
X64951000Y-78651933D01*
X64984333Y-78618600D01*
X65051000Y-78585266D01*
X65217666Y-78585266D01*
X65317666Y-78618600D01*
X65917666Y-78585266D02*
X65784333Y-78585266D01*
X65717666Y-78618600D01*
X65684333Y-78651933D01*
X65617666Y-78751933D01*
X65584333Y-78885266D01*
X65584333Y-79151933D01*
X65617666Y-79218600D01*
X65651000Y-79251933D01*
X65717666Y-79285266D01*
X65851000Y-79285266D01*
X65917666Y-79251933D01*
X65951000Y-79218600D01*
X65984333Y-79151933D01*
X65984333Y-78985266D01*
X65951000Y-78918600D01*
X65917666Y-78885266D01*
X65851000Y-78851933D01*
X65717666Y-78851933D01*
X65651000Y-78885266D01*
X65617666Y-78918600D01*
X65584333Y-78985266D01*
X36018000Y-136679133D02*
X36018000Y-137212466D01*
X35751333Y-136945800D02*
X36284666Y-136945800D01*
X36451333Y-137445800D02*
X35751333Y-137679133D01*
X36451333Y-137912466D01*
X35784666Y-138445800D02*
X35751333Y-138379133D01*
X35751333Y-138245800D01*
X35784666Y-138179133D01*
X35818000Y-138145800D01*
X35884666Y-138112466D01*
X36084666Y-138112466D01*
X36151333Y-138145800D01*
X36184666Y-138179133D01*
X36218000Y-138245800D01*
X36218000Y-138379133D01*
X36184666Y-138445800D01*
X35784666Y-139045800D02*
X35751333Y-138979133D01*
X35751333Y-138845800D01*
X35784666Y-138779133D01*
X35818000Y-138745800D01*
X35884666Y-138712466D01*
X36084666Y-138712466D01*
X36151333Y-138745800D01*
X36184666Y-138779133D01*
X36218000Y-138845800D01*
X36218000Y-138979133D01*
X36184666Y-139045800D01*
X63617666Y-89127800D02*
X64150999Y-89127800D01*
X63884333Y-89394466D02*
X63884333Y-88861133D01*
X64384333Y-88694466D02*
X64617666Y-89394466D01*
X64850999Y-88694466D01*
X65384333Y-89361133D02*
X65317666Y-89394466D01*
X65184333Y-89394466D01*
X65117666Y-89361133D01*
X65084333Y-89327800D01*
X65050999Y-89261133D01*
X65050999Y-89061133D01*
X65084333Y-88994466D01*
X65117666Y-88961133D01*
X65184333Y-88927800D01*
X65317666Y-88927800D01*
X65384333Y-88961133D01*
X65984333Y-89361133D02*
X65917666Y-89394466D01*
X65784333Y-89394466D01*
X65717666Y-89361133D01*
X65684333Y-89327800D01*
X65650999Y-89261133D01*
X65650999Y-89061133D01*
X65684333Y-88994466D01*
X65717666Y-88961133D01*
X65784333Y-88927800D01*
X65917666Y-88927800D01*
X65984333Y-88961133D01*
X64917666Y-68990333D02*
X65017666Y-69023666D01*
X65184333Y-69023666D01*
X65251000Y-68990333D01*
X65284333Y-68957000D01*
X65317666Y-68890333D01*
X65317666Y-68823666D01*
X65284333Y-68757000D01*
X65251000Y-68723666D01*
X65184333Y-68690333D01*
X65051000Y-68657000D01*
X64984333Y-68623666D01*
X64951000Y-68590333D01*
X64917666Y-68523666D01*
X64917666Y-68457000D01*
X64951000Y-68390333D01*
X64984333Y-68357000D01*
X65051000Y-68323666D01*
X65217666Y-68323666D01*
X65317666Y-68357000D01*
X65584333Y-68390333D02*
X65617666Y-68357000D01*
X65684333Y-68323666D01*
X65851000Y-68323666D01*
X65917666Y-68357000D01*
X65951000Y-68390333D01*
X65984333Y-68457000D01*
X65984333Y-68523666D01*
X65951000Y-68623666D01*
X65551000Y-69023666D01*
X65984333Y-69023666D01*
X63484333Y-81634800D02*
X64017667Y-81634800D01*
X63751000Y-81901466D02*
X63751000Y-81368133D01*
X64284333Y-81201466D02*
X64717667Y-81201466D01*
X64484333Y-81468133D01*
X64584333Y-81468133D01*
X64651000Y-81501466D01*
X64684333Y-81534800D01*
X64717667Y-81601466D01*
X64717667Y-81768133D01*
X64684333Y-81834800D01*
X64651000Y-81868133D01*
X64584333Y-81901466D01*
X64384333Y-81901466D01*
X64317667Y-81868133D01*
X64284333Y-81834800D01*
X64917667Y-81201466D02*
X65151000Y-81901466D01*
X65384333Y-81201466D01*
X65551000Y-81201466D02*
X65984333Y-81201466D01*
X65751000Y-81468133D01*
X65851000Y-81468133D01*
X65917667Y-81501466D01*
X65951000Y-81534800D01*
X65984333Y-81601466D01*
X65984333Y-81768133D01*
X65951000Y-81834800D01*
X65917667Y-81868133D01*
X65851000Y-81901466D01*
X65651000Y-81901466D01*
X65584333Y-81868133D01*
X65551000Y-81834800D01*
X36418000Y-80035466D02*
X36451333Y-79968800D01*
X36451333Y-79868800D01*
X36418000Y-79768800D01*
X36351333Y-79702133D01*
X36284666Y-79668800D01*
X36151333Y-79635466D01*
X36051333Y-79635466D01*
X35918000Y-79668800D01*
X35851333Y-79702133D01*
X35784666Y-79768800D01*
X35751333Y-79868800D01*
X35751333Y-79935466D01*
X35784666Y-80035466D01*
X35818000Y-80068800D01*
X36051333Y-80068800D01*
X36051333Y-79935466D01*
X35751333Y-80368800D02*
X36451333Y-80368800D01*
X35751333Y-80768800D01*
X36451333Y-80768800D01*
X35751333Y-81102133D02*
X36451333Y-81102133D01*
X36451333Y-81268800D01*
X36418000Y-81368800D01*
X36351333Y-81435466D01*
X36284666Y-81468800D01*
X36151333Y-81502133D01*
X36051333Y-81502133D01*
X35918000Y-81468800D01*
X35851333Y-81435466D01*
X35784666Y-81368800D01*
X35751333Y-81268800D01*
X35751333Y-81102133D01*
X36018000Y-131878533D02*
X36018000Y-132411866D01*
X36451333Y-132645200D02*
X35751333Y-132878533D01*
X36451333Y-133111866D01*
X35784666Y-133645200D02*
X35751333Y-133578533D01*
X35751333Y-133445200D01*
X35784666Y-133378533D01*
X35818000Y-133345200D01*
X35884666Y-133311866D01*
X36084666Y-133311866D01*
X36151333Y-133345200D01*
X36184666Y-133378533D01*
X36218000Y-133445200D01*
X36218000Y-133578533D01*
X36184666Y-133645200D01*
X35784666Y-134245200D02*
X35751333Y-134178533D01*
X35751333Y-134045200D01*
X35784666Y-133978533D01*
X35818000Y-133945200D01*
X35884666Y-133911866D01*
X36084666Y-133911866D01*
X36151333Y-133945200D01*
X36184666Y-133978533D01*
X36218000Y-134045200D01*
X36218000Y-134178533D01*
X36184666Y-134245200D01*
X36018000Y-30278533D02*
X36018000Y-30811866D01*
X35751333Y-30545200D02*
X36284666Y-30545200D01*
X36451333Y-31045200D02*
X35751333Y-31278533D01*
X36451333Y-31511866D01*
X35784666Y-32045200D02*
X35751333Y-31978533D01*
X35751333Y-31845200D01*
X35784666Y-31778533D01*
X35818000Y-31745200D01*
X35884666Y-31711866D01*
X36084666Y-31711866D01*
X36151333Y-31745200D01*
X36184666Y-31778533D01*
X36218000Y-31845200D01*
X36218000Y-31978533D01*
X36184666Y-32045200D01*
X35784666Y-32645200D02*
X35751333Y-32578533D01*
X35751333Y-32445200D01*
X35784666Y-32378533D01*
X35818000Y-32345200D01*
X35884666Y-32311866D01*
X36084666Y-32311866D01*
X36151333Y-32345200D01*
X36184666Y-32378533D01*
X36218000Y-32445200D01*
X36218000Y-32578533D01*
X36184666Y-32645200D01*
X35784666Y-42316466D02*
X35751333Y-42416466D01*
X35751333Y-42583133D01*
X35784666Y-42649800D01*
X35818000Y-42683133D01*
X35884666Y-42716466D01*
X35951333Y-42716466D01*
X36018000Y-42683133D01*
X36051333Y-42649800D01*
X36084666Y-42583133D01*
X36118000Y-42449800D01*
X36151333Y-42383133D01*
X36184666Y-42349800D01*
X36251333Y-42316466D01*
X36318000Y-42316466D01*
X36384666Y-42349800D01*
X36418000Y-42383133D01*
X36451333Y-42449800D01*
X36451333Y-42616466D01*
X36418000Y-42716466D01*
X36384666Y-42983133D02*
X36418000Y-43016466D01*
X36451333Y-43083133D01*
X36451333Y-43249800D01*
X36418000Y-43316466D01*
X36384666Y-43349800D01*
X36318000Y-43383133D01*
X36251333Y-43383133D01*
X36151333Y-43349800D01*
X35751333Y-42949800D01*
X35751333Y-43383133D01*
X64657400Y-141934400D02*
X65190733Y-141934400D01*
X64924066Y-142201066D02*
X64924066Y-141667733D01*
X65857400Y-141501066D02*
X65524066Y-141501066D01*
X65490733Y-141834400D01*
X65524066Y-141801066D01*
X65590733Y-141767733D01*
X65757400Y-141767733D01*
X65824066Y-141801066D01*
X65857400Y-141834400D01*
X65890733Y-141901066D01*
X65890733Y-142067733D01*
X65857400Y-142134400D01*
X65824066Y-142167733D01*
X65757400Y-142201066D01*
X65590733Y-142201066D01*
X65524066Y-142167733D01*
X65490733Y-142134400D01*
X66090733Y-141501066D02*
X66324066Y-142201066D01*
X66557400Y-141501066D01*
X64517666Y-86391000D02*
X64451000Y-86357666D01*
X64351000Y-86357666D01*
X64251000Y-86391000D01*
X64184333Y-86457666D01*
X64151000Y-86524333D01*
X64117666Y-86657666D01*
X64117666Y-86757666D01*
X64151000Y-86891000D01*
X64184333Y-86957666D01*
X64251000Y-87024333D01*
X64351000Y-87057666D01*
X64417666Y-87057666D01*
X64517666Y-87024333D01*
X64551000Y-86991000D01*
X64551000Y-86757666D01*
X64417666Y-86757666D01*
X64851000Y-87057666D02*
X64851000Y-86357666D01*
X65251000Y-87057666D01*
X65251000Y-86357666D01*
X65584333Y-87057666D02*
X65584333Y-86357666D01*
X65751000Y-86357666D01*
X65851000Y-86391000D01*
X65917666Y-86457666D01*
X65951000Y-86524333D01*
X65984333Y-86657666D01*
X65984333Y-86757666D01*
X65951000Y-86891000D01*
X65917666Y-86957666D01*
X65851000Y-87024333D01*
X65751000Y-87057666D01*
X65584333Y-87057666D01*
X64808700Y-26219966D02*
X64475366Y-26219966D01*
X64475366Y-25519966D01*
X65042033Y-25853300D02*
X65275366Y-25853300D01*
X65375366Y-26219966D02*
X65042033Y-26219966D01*
X65042033Y-25519966D01*
X65375366Y-25519966D01*
X65675366Y-26219966D02*
X65675366Y-25519966D01*
X65908700Y-26019966D01*
X66142033Y-25519966D01*
X66142033Y-26219966D01*
X67308700Y-26219966D02*
X67308700Y-25853300D01*
X67275366Y-25786633D01*
X67208700Y-25753300D01*
X67075366Y-25753300D01*
X67008700Y-25786633D01*
X67308700Y-26186633D02*
X67242033Y-26219966D01*
X67075366Y-26219966D01*
X67008700Y-26186633D01*
X66975366Y-26119966D01*
X66975366Y-26053300D01*
X67008700Y-25986633D01*
X67075366Y-25953300D01*
X67242033Y-25953300D01*
X67308700Y-25919966D01*
X67942033Y-26219966D02*
X67942033Y-25519966D01*
X67942033Y-26186633D02*
X67875366Y-26219966D01*
X67742033Y-26219966D01*
X67675366Y-26186633D01*
X67642033Y-26153300D01*
X67608700Y-26086633D01*
X67608700Y-25886633D01*
X67642033Y-25819966D01*
X67675366Y-25786633D01*
X67742033Y-25753300D01*
X67875366Y-25753300D01*
X67942033Y-25786633D01*
X68575366Y-26219966D02*
X68575366Y-25853300D01*
X68542033Y-25786633D01*
X68475366Y-25753300D01*
X68342033Y-25753300D01*
X68275366Y-25786633D01*
X68575366Y-26186633D02*
X68508700Y-26219966D01*
X68342033Y-26219966D01*
X68275366Y-26186633D01*
X68242033Y-26119966D01*
X68242033Y-26053300D01*
X68275366Y-25986633D01*
X68342033Y-25953300D01*
X68508700Y-25953300D01*
X68575366Y-25919966D01*
X68908700Y-25753300D02*
X68908700Y-26453300D01*
X68908700Y-25786633D02*
X68975366Y-25753300D01*
X69108700Y-25753300D01*
X69175366Y-25786633D01*
X69208700Y-25819966D01*
X69242033Y-25886633D01*
X69242033Y-26086633D01*
X69208700Y-26153300D01*
X69175366Y-26186633D01*
X69108700Y-26219966D01*
X68975366Y-26219966D01*
X68908700Y-26186633D01*
X69442033Y-25753300D02*
X69708700Y-25753300D01*
X69542033Y-25519966D02*
X69542033Y-26119966D01*
X69575366Y-26186633D01*
X69642033Y-26219966D01*
X69708700Y-26219966D01*
X69942033Y-26153300D02*
X69975366Y-26186633D01*
X69942033Y-26219966D01*
X69908700Y-26186633D01*
X69942033Y-26153300D01*
X69942033Y-26219966D01*
X70808700Y-26219966D02*
X70808700Y-25519966D01*
X70808700Y-25786633D02*
X70875366Y-25753300D01*
X71008700Y-25753300D01*
X71075366Y-25786633D01*
X71108700Y-25819966D01*
X71142033Y-25886633D01*
X71142033Y-26086633D01*
X71108700Y-26153300D01*
X71075366Y-26186633D01*
X71008700Y-26219966D01*
X70875366Y-26219966D01*
X70808700Y-26186633D01*
X71542033Y-26219966D02*
X71475366Y-26186633D01*
X71442033Y-26153300D01*
X71408700Y-26086633D01*
X71408700Y-25886633D01*
X71442033Y-25819966D01*
X71475366Y-25786633D01*
X71542033Y-25753300D01*
X71642033Y-25753300D01*
X71708700Y-25786633D01*
X71742033Y-25819966D01*
X71775366Y-25886633D01*
X71775366Y-26086633D01*
X71742033Y-26153300D01*
X71708700Y-26186633D01*
X71642033Y-26219966D01*
X71542033Y-26219966D01*
X72375366Y-26219966D02*
X72375366Y-25853300D01*
X72342033Y-25786633D01*
X72275366Y-25753300D01*
X72142033Y-25753300D01*
X72075366Y-25786633D01*
X72375366Y-26186633D02*
X72308700Y-26219966D01*
X72142033Y-26219966D01*
X72075366Y-26186633D01*
X72042033Y-26119966D01*
X72042033Y-26053300D01*
X72075366Y-25986633D01*
X72142033Y-25953300D01*
X72308700Y-25953300D01*
X72375366Y-25919966D01*
X72708700Y-26219966D02*
X72708700Y-25753300D01*
X72708700Y-25886633D02*
X72742033Y-25819966D01*
X72775366Y-25786633D01*
X72842033Y-25753300D01*
X72908700Y-25753300D01*
X73442033Y-26219966D02*
X73442033Y-25519966D01*
X73442033Y-26186633D02*
X73375366Y-26219966D01*
X73242033Y-26219966D01*
X73175366Y-26186633D01*
X73142033Y-26153300D01*
X73108700Y-26086633D01*
X73108700Y-25886633D01*
X73142033Y-25819966D01*
X73175366Y-25786633D01*
X73242033Y-25753300D01*
X73375366Y-25753300D01*
X73442033Y-25786633D01*
X64408700Y-26880300D02*
X64575366Y-27346966D01*
X64742033Y-26880300D01*
X65375366Y-27346966D02*
X64975366Y-27346966D01*
X65175366Y-27346966D02*
X65175366Y-26646966D01*
X65108700Y-26746966D01*
X65042033Y-26813633D01*
X64975366Y-26846966D01*
X65675366Y-27280300D02*
X65708700Y-27313633D01*
X65675366Y-27346966D01*
X65642033Y-27313633D01*
X65675366Y-27280300D01*
X65675366Y-27346966D01*
X66142033Y-26646966D02*
X66208700Y-26646966D01*
X66275366Y-26680300D01*
X66308700Y-26713633D01*
X66342033Y-26780300D01*
X66375366Y-26913633D01*
X66375366Y-27080300D01*
X66342033Y-27213633D01*
X66308700Y-27280300D01*
X66275366Y-27313633D01*
X66208700Y-27346966D01*
X66142033Y-27346966D01*
X66075366Y-27313633D01*
X66042033Y-27280300D01*
X66008700Y-27213633D01*
X65975366Y-27080300D01*
X65975366Y-26913633D01*
X66008700Y-26780300D01*
X66042033Y-26713633D01*
X66075366Y-26680300D01*
X66142033Y-26646966D01*
X67208700Y-27080300D02*
X67742033Y-27080300D01*
X68742033Y-26646966D02*
X68808700Y-26646966D01*
X68875366Y-26680300D01*
X68908700Y-26713633D01*
X68942033Y-26780300D01*
X68975366Y-26913633D01*
X68975366Y-27080300D01*
X68942033Y-27213633D01*
X68908700Y-27280300D01*
X68875366Y-27313633D01*
X68808700Y-27346966D01*
X68742033Y-27346966D01*
X68675366Y-27313633D01*
X68642033Y-27280300D01*
X68608700Y-27213633D01*
X68575366Y-27080300D01*
X68575366Y-26913633D01*
X68608700Y-26780300D01*
X68642033Y-26713633D01*
X68675366Y-26680300D01*
X68742033Y-26646966D01*
X69375366Y-26946966D02*
X69308700Y-26913633D01*
X69275366Y-26880300D01*
X69242033Y-26813633D01*
X69242033Y-26780300D01*
X69275366Y-26713633D01*
X69308700Y-26680300D01*
X69375366Y-26646966D01*
X69508700Y-26646966D01*
X69575366Y-26680300D01*
X69608700Y-26713633D01*
X69642033Y-26780300D01*
X69642033Y-26813633D01*
X69608700Y-26880300D01*
X69575366Y-26913633D01*
X69508700Y-26946966D01*
X69375366Y-26946966D01*
X69308700Y-26980300D01*
X69275366Y-27013633D01*
X69242033Y-27080300D01*
X69242033Y-27213633D01*
X69275366Y-27280300D01*
X69308700Y-27313633D01*
X69375366Y-27346966D01*
X69508700Y-27346966D01*
X69575366Y-27313633D01*
X69608700Y-27280300D01*
X69642033Y-27213633D01*
X69642033Y-27080300D01*
X69608700Y-27013633D01*
X69575366Y-26980300D01*
X69508700Y-26946966D01*
X69942033Y-27280300D02*
X69975366Y-27313633D01*
X69942033Y-27346966D01*
X69908700Y-27313633D01*
X69942033Y-27280300D01*
X69942033Y-27346966D01*
X70242033Y-26713633D02*
X70275366Y-26680300D01*
X70342033Y-26646966D01*
X70508700Y-26646966D01*
X70575366Y-26680300D01*
X70608700Y-26713633D01*
X70642033Y-26780300D01*
X70642033Y-26846966D01*
X70608700Y-26946966D01*
X70208700Y-27346966D01*
X70642033Y-27346966D01*
X71075366Y-26646966D02*
X71142033Y-26646966D01*
X71208700Y-26680300D01*
X71242033Y-26713633D01*
X71275366Y-26780300D01*
X71308700Y-26913633D01*
X71308700Y-27080300D01*
X71275366Y-27213633D01*
X71242033Y-27280300D01*
X71208700Y-27313633D01*
X71142033Y-27346966D01*
X71075366Y-27346966D01*
X71008700Y-27313633D01*
X70975366Y-27280300D01*
X70942033Y-27213633D01*
X70908700Y-27080300D01*
X70908700Y-26913633D01*
X70942033Y-26780300D01*
X70975366Y-26713633D01*
X71008700Y-26680300D01*
X71075366Y-26646966D01*
X71575366Y-26713633D02*
X71608700Y-26680300D01*
X71675366Y-26646966D01*
X71842033Y-26646966D01*
X71908700Y-26680300D01*
X71942033Y-26713633D01*
X71975366Y-26780300D01*
X71975366Y-26846966D01*
X71942033Y-26946966D01*
X71542033Y-27346966D01*
X71975366Y-27346966D01*
X72242033Y-26713633D02*
X72275366Y-26680300D01*
X72342033Y-26646966D01*
X72508700Y-26646966D01*
X72575366Y-26680300D01*
X72608700Y-26713633D01*
X72642033Y-26780300D01*
X72642033Y-26846966D01*
X72608700Y-26946966D01*
X72208700Y-27346966D01*
X72642033Y-27346966D01*
X56260933Y-13659600D02*
X56327600Y-13692933D01*
X56427600Y-13692933D01*
X56527600Y-13659600D01*
X56594266Y-13592933D01*
X56627600Y-13526266D01*
X56660933Y-13392933D01*
X56660933Y-13292933D01*
X56627600Y-13159600D01*
X56594266Y-13092933D01*
X56527600Y-13026266D01*
X56427600Y-12992933D01*
X56360933Y-12992933D01*
X56260933Y-13026266D01*
X56227600Y-13059600D01*
X56227600Y-13292933D01*
X56360933Y-13292933D01*
X55927600Y-12992933D02*
X55927600Y-13692933D01*
X55527600Y-12992933D01*
X55527600Y-13692933D01*
X55194266Y-12992933D02*
X55194266Y-13692933D01*
X55027600Y-13692933D01*
X54927600Y-13659600D01*
X54860933Y-13592933D01*
X54827600Y-13526266D01*
X54794266Y-13392933D01*
X54794266Y-13292933D01*
X54827600Y-13159600D01*
X54860933Y-13092933D01*
X54927600Y-13026266D01*
X55027600Y-12992933D01*
X55194266Y-12992933D01*
X67130466Y-13259600D02*
X66597133Y-13259600D01*
X66863800Y-12992933D02*
X66863800Y-13526266D01*
X66363800Y-13692933D02*
X66130466Y-12992933D01*
X65897133Y-13692933D01*
X65363800Y-13026266D02*
X65430466Y-12992933D01*
X65563800Y-12992933D01*
X65630466Y-13026266D01*
X65663800Y-13059600D01*
X65697133Y-13126266D01*
X65697133Y-13326266D01*
X65663800Y-13392933D01*
X65630466Y-13426266D01*
X65563800Y-13459600D01*
X65430466Y-13459600D01*
X65363800Y-13426266D01*
X64763800Y-13026266D02*
X64830466Y-12992933D01*
X64963800Y-12992933D01*
X65030466Y-13026266D01*
X65063800Y-13059600D01*
X65097133Y-13126266D01*
X65097133Y-13326266D01*
X65063800Y-13392933D01*
X65030466Y-13426266D01*
X64963800Y-13459600D01*
X64830466Y-13459600D01*
X64763800Y-13426266D01*
X61315533Y-13659600D02*
X61382200Y-13692933D01*
X61482200Y-13692933D01*
X61582200Y-13659600D01*
X61648866Y-13592933D01*
X61682200Y-13526266D01*
X61715533Y-13392933D01*
X61715533Y-13292933D01*
X61682200Y-13159600D01*
X61648866Y-13092933D01*
X61582200Y-13026266D01*
X61482200Y-12992933D01*
X61415533Y-12992933D01*
X61315533Y-13026266D01*
X61282200Y-13059600D01*
X61282200Y-13292933D01*
X61415533Y-13292933D01*
X60982200Y-12992933D02*
X60982200Y-13692933D01*
X60582200Y-12992933D01*
X60582200Y-13692933D01*
X60248866Y-12992933D02*
X60248866Y-13692933D01*
X60082200Y-13692933D01*
X59982200Y-13659600D01*
X59915533Y-13592933D01*
X59882200Y-13526266D01*
X59848866Y-13392933D01*
X59848866Y-13292933D01*
X59882200Y-13159600D01*
X59915533Y-13092933D01*
X59982200Y-13026266D01*
X60082200Y-12992933D01*
X60248866Y-12992933D01*
X60443200Y-68312466D02*
X60209866Y-67979133D01*
X60043200Y-68312466D02*
X60043200Y-67612466D01*
X60309866Y-67612466D01*
X60376533Y-67645800D01*
X60409866Y-67679133D01*
X60443200Y-67745800D01*
X60443200Y-67845800D01*
X60409866Y-67912466D01*
X60376533Y-67945800D01*
X60309866Y-67979133D01*
X60043200Y-67979133D01*
X60709866Y-67679133D02*
X60743200Y-67645800D01*
X60809866Y-67612466D01*
X60976533Y-67612466D01*
X61043200Y-67645800D01*
X61076533Y-67679133D01*
X61109866Y-67745800D01*
X61109866Y-67812466D01*
X61076533Y-67912466D01*
X60676533Y-68312466D01*
X61109866Y-68312466D01*
X61343200Y-67612466D02*
X61809866Y-67612466D01*
X61509866Y-68312466D01*
X60662400Y-49160866D02*
X60429066Y-48827533D01*
X60262400Y-49160866D02*
X60262400Y-48460866D01*
X60529066Y-48460866D01*
X60595733Y-48494200D01*
X60629066Y-48527533D01*
X60662400Y-48594200D01*
X60662400Y-48694200D01*
X60629066Y-48760866D01*
X60595733Y-48794200D01*
X60529066Y-48827533D01*
X60262400Y-48827533D01*
X60929066Y-48527533D02*
X60962400Y-48494200D01*
X61029066Y-48460866D01*
X61195733Y-48460866D01*
X61262400Y-48494200D01*
X61295733Y-48527533D01*
X61329066Y-48594200D01*
X61329066Y-48660866D01*
X61295733Y-48760866D01*
X60895733Y-49160866D01*
X61329066Y-49160866D01*
X61762400Y-48460866D02*
X61829066Y-48460866D01*
X61895733Y-48494200D01*
X61929066Y-48527533D01*
X61962400Y-48594200D01*
X61995733Y-48727533D01*
X61995733Y-48894200D01*
X61962400Y-49027533D01*
X61929066Y-49094200D01*
X61895733Y-49127533D01*
X61829066Y-49160866D01*
X61762400Y-49160866D01*
X61695733Y-49127533D01*
X61662400Y-49094200D01*
X61629066Y-49027533D01*
X61595733Y-48894200D01*
X61595733Y-48727533D01*
X61629066Y-48594200D01*
X61662400Y-48527533D01*
X61695733Y-48494200D01*
X61762400Y-48460866D01*
X60290800Y-120255466D02*
X60057466Y-119922133D01*
X59890800Y-120255466D02*
X59890800Y-119555466D01*
X60157466Y-119555466D01*
X60224133Y-119588800D01*
X60257466Y-119622133D01*
X60290800Y-119688800D01*
X60290800Y-119788800D01*
X60257466Y-119855466D01*
X60224133Y-119888800D01*
X60157466Y-119922133D01*
X59890800Y-119922133D01*
X60890800Y-119788800D02*
X60890800Y-120255466D01*
X60724133Y-119522133D02*
X60557466Y-120022133D01*
X60990800Y-120022133D01*
X61557466Y-119788800D02*
X61557466Y-120255466D01*
X61390800Y-119522133D02*
X61224133Y-120022133D01*
X61657466Y-120022133D01*
X68905466Y-23111666D02*
X68905466Y-23611666D01*
X68872133Y-23711666D01*
X68805466Y-23778333D01*
X68705466Y-23811666D01*
X68638800Y-23811666D01*
X69338800Y-23411666D02*
X69272133Y-23378333D01*
X69238800Y-23345000D01*
X69205466Y-23278333D01*
X69205466Y-23245000D01*
X69238800Y-23178333D01*
X69272133Y-23145000D01*
X69338800Y-23111666D01*
X69472133Y-23111666D01*
X69538800Y-23145000D01*
X69572133Y-23178333D01*
X69605466Y-23245000D01*
X69605466Y-23278333D01*
X69572133Y-23345000D01*
X69538800Y-23378333D01*
X69472133Y-23411666D01*
X69338800Y-23411666D01*
X69272133Y-23445000D01*
X69238800Y-23478333D01*
X69205466Y-23545000D01*
X69205466Y-23678333D01*
X69238800Y-23745000D01*
X69272133Y-23778333D01*
X69338800Y-23811666D01*
X69472133Y-23811666D01*
X69538800Y-23778333D01*
X69572133Y-23745000D01*
X69605466Y-23678333D01*
X69605466Y-23545000D01*
X69572133Y-23478333D01*
X69538800Y-23445000D01*
X69472133Y-23411666D01*
X73147266Y-14072400D02*
X72913933Y-14072400D01*
X72913933Y-14439066D02*
X72913933Y-13739066D01*
X73247266Y-13739066D01*
X73880600Y-14439066D02*
X73480600Y-14439066D01*
X73680600Y-14439066D02*
X73680600Y-13739066D01*
X73613933Y-13839066D01*
X73547266Y-13905733D01*
X73480600Y-13939066D01*
X61145000Y-36079866D02*
X60911666Y-35746533D01*
X60745000Y-36079866D02*
X60745000Y-35379866D01*
X61011666Y-35379866D01*
X61078333Y-35413200D01*
X61111666Y-35446533D01*
X61145000Y-35513200D01*
X61145000Y-35613200D01*
X61111666Y-35679866D01*
X61078333Y-35713200D01*
X61011666Y-35746533D01*
X60745000Y-35746533D01*
X61811666Y-36079866D02*
X61411666Y-36079866D01*
X61611666Y-36079866D02*
X61611666Y-35379866D01*
X61545000Y-35479866D01*
X61478333Y-35546533D01*
X61411666Y-35579866D01*
X62411666Y-35613200D02*
X62411666Y-36079866D01*
X62245000Y-35346533D02*
X62078333Y-35846533D01*
X62511666Y-35846533D01*
X61145000Y-35038466D02*
X60911666Y-34705133D01*
X60745000Y-35038466D02*
X60745000Y-34338466D01*
X61011666Y-34338466D01*
X61078333Y-34371800D01*
X61111666Y-34405133D01*
X61145000Y-34471800D01*
X61145000Y-34571800D01*
X61111666Y-34638466D01*
X61078333Y-34671800D01*
X61011666Y-34705133D01*
X60745000Y-34705133D01*
X61811666Y-35038466D02*
X61411666Y-35038466D01*
X61611666Y-35038466D02*
X61611666Y-34338466D01*
X61545000Y-34438466D01*
X61478333Y-34505133D01*
X61411666Y-34538466D01*
X62078333Y-34405133D02*
X62111666Y-34371800D01*
X62178333Y-34338466D01*
X62345000Y-34338466D01*
X62411666Y-34371800D01*
X62445000Y-34405133D01*
X62478333Y-34471800D01*
X62478333Y-34538466D01*
X62445000Y-34638466D01*
X62045000Y-35038466D01*
X62478333Y-35038466D01*
X60560800Y-112914866D02*
X60327466Y-112581533D01*
X60160800Y-112914866D02*
X60160800Y-112214866D01*
X60427466Y-112214866D01*
X60494133Y-112248200D01*
X60527466Y-112281533D01*
X60560800Y-112348200D01*
X60560800Y-112448200D01*
X60527466Y-112514866D01*
X60494133Y-112548200D01*
X60427466Y-112581533D01*
X60160800Y-112581533D01*
X61160800Y-112448200D02*
X61160800Y-112914866D01*
X60994133Y-112181533D02*
X60827466Y-112681533D01*
X61260800Y-112681533D01*
X61894133Y-112914866D02*
X61494133Y-112914866D01*
X61694133Y-112914866D02*
X61694133Y-112214866D01*
X61627466Y-112314866D01*
X61560800Y-112381533D01*
X61494133Y-112414866D01*
X60535400Y-105218666D02*
X60302066Y-104885333D01*
X60135400Y-105218666D02*
X60135400Y-104518666D01*
X60402066Y-104518666D01*
X60468733Y-104552000D01*
X60502066Y-104585333D01*
X60535400Y-104652000D01*
X60535400Y-104752000D01*
X60502066Y-104818666D01*
X60468733Y-104852000D01*
X60402066Y-104885333D01*
X60135400Y-104885333D01*
X60768733Y-104518666D02*
X61202066Y-104518666D01*
X60968733Y-104785333D01*
X61068733Y-104785333D01*
X61135400Y-104818666D01*
X61168733Y-104852000D01*
X61202066Y-104918666D01*
X61202066Y-105085333D01*
X61168733Y-105152000D01*
X61135400Y-105185333D01*
X61068733Y-105218666D01*
X60868733Y-105218666D01*
X60802066Y-105185333D01*
X60768733Y-105152000D01*
X61802066Y-104518666D02*
X61668733Y-104518666D01*
X61602066Y-104552000D01*
X61568733Y-104585333D01*
X61502066Y-104685333D01*
X61468733Y-104818666D01*
X61468733Y-105085333D01*
X61502066Y-105152000D01*
X61535400Y-105185333D01*
X61602066Y-105218666D01*
X61735400Y-105218666D01*
X61802066Y-105185333D01*
X61835400Y-105152000D01*
X61868733Y-105085333D01*
X61868733Y-104918666D01*
X61835400Y-104852000D01*
X61802066Y-104818666D01*
X61735400Y-104785333D01*
X61602066Y-104785333D01*
X61535400Y-104818666D01*
X61502066Y-104852000D01*
X61468733Y-104918666D01*
X60433800Y-80453666D02*
X60200466Y-80120333D01*
X60033800Y-80453666D02*
X60033800Y-79753666D01*
X60300466Y-79753666D01*
X60367133Y-79787000D01*
X60400466Y-79820333D01*
X60433800Y-79887000D01*
X60433800Y-79987000D01*
X60400466Y-80053666D01*
X60367133Y-80087000D01*
X60300466Y-80120333D01*
X60033800Y-80120333D01*
X60667133Y-79753666D02*
X61100466Y-79753666D01*
X60867133Y-80020333D01*
X60967133Y-80020333D01*
X61033800Y-80053666D01*
X61067133Y-80087000D01*
X61100466Y-80153666D01*
X61100466Y-80320333D01*
X61067133Y-80387000D01*
X61033800Y-80420333D01*
X60967133Y-80453666D01*
X60767133Y-80453666D01*
X60700466Y-80420333D01*
X60667133Y-80387000D01*
X61533800Y-79753666D02*
X61600466Y-79753666D01*
X61667133Y-79787000D01*
X61700466Y-79820333D01*
X61733800Y-79887000D01*
X61767133Y-80020333D01*
X61767133Y-80187000D01*
X61733800Y-80320333D01*
X61700466Y-80387000D01*
X61667133Y-80420333D01*
X61600466Y-80453666D01*
X61533800Y-80453666D01*
X61467133Y-80420333D01*
X61433800Y-80387000D01*
X61400466Y-80320333D01*
X61367133Y-80187000D01*
X61367133Y-80020333D01*
X61400466Y-79887000D01*
X61433800Y-79820333D01*
X61467133Y-79787000D01*
X61533800Y-79753666D01*
X60535400Y-103466066D02*
X60302066Y-103132733D01*
X60135400Y-103466066D02*
X60135400Y-102766066D01*
X60402066Y-102766066D01*
X60468733Y-102799400D01*
X60502066Y-102832733D01*
X60535400Y-102899400D01*
X60535400Y-102999400D01*
X60502066Y-103066066D01*
X60468733Y-103099400D01*
X60402066Y-103132733D01*
X60135400Y-103132733D01*
X60768733Y-102766066D02*
X61202066Y-102766066D01*
X60968733Y-103032733D01*
X61068733Y-103032733D01*
X61135400Y-103066066D01*
X61168733Y-103099400D01*
X61202066Y-103166066D01*
X61202066Y-103332733D01*
X61168733Y-103399400D01*
X61135400Y-103432733D01*
X61068733Y-103466066D01*
X60868733Y-103466066D01*
X60802066Y-103432733D01*
X60768733Y-103399400D01*
X61435400Y-102766066D02*
X61902066Y-102766066D01*
X61602066Y-103466066D01*
X60332200Y-89750066D02*
X60098866Y-89416733D01*
X59932200Y-89750066D02*
X59932200Y-89050066D01*
X60198866Y-89050066D01*
X60265533Y-89083400D01*
X60298866Y-89116733D01*
X60332200Y-89183400D01*
X60332200Y-89283400D01*
X60298866Y-89350066D01*
X60265533Y-89383400D01*
X60198866Y-89416733D01*
X59932200Y-89416733D01*
X60565533Y-89050066D02*
X60998866Y-89050066D01*
X60765533Y-89316733D01*
X60865533Y-89316733D01*
X60932200Y-89350066D01*
X60965533Y-89383400D01*
X60998866Y-89450066D01*
X60998866Y-89616733D01*
X60965533Y-89683400D01*
X60932200Y-89716733D01*
X60865533Y-89750066D01*
X60665533Y-89750066D01*
X60598866Y-89716733D01*
X60565533Y-89683400D01*
X61632200Y-89050066D02*
X61298866Y-89050066D01*
X61265533Y-89383400D01*
X61298866Y-89350066D01*
X61365533Y-89316733D01*
X61532200Y-89316733D01*
X61598866Y-89350066D01*
X61632200Y-89383400D01*
X61665533Y-89450066D01*
X61665533Y-89616733D01*
X61632200Y-89683400D01*
X61598866Y-89716733D01*
X61532200Y-89750066D01*
X61365533Y-89750066D01*
X61298866Y-89716733D01*
X61265533Y-89683400D01*
X71369266Y-127356400D02*
X71135933Y-127356400D01*
X71135933Y-127723066D02*
X71135933Y-127023066D01*
X71469266Y-127023066D01*
X71669266Y-127023066D02*
X72102600Y-127023066D01*
X71869266Y-127289733D01*
X71969266Y-127289733D01*
X72035933Y-127323066D01*
X72069266Y-127356400D01*
X72102600Y-127423066D01*
X72102600Y-127589733D01*
X72069266Y-127656400D01*
X72035933Y-127689733D01*
X71969266Y-127723066D01*
X71769266Y-127723066D01*
X71702600Y-127689733D01*
X71669266Y-127656400D01*
X72436066Y-63599266D02*
X72436066Y-64099266D01*
X72402733Y-64199266D01*
X72336066Y-64265933D01*
X72236066Y-64299266D01*
X72169400Y-64299266D01*
X72802733Y-64299266D02*
X72936066Y-64299266D01*
X73002733Y-64265933D01*
X73036066Y-64232600D01*
X73102733Y-64132600D01*
X73136066Y-63999266D01*
X73136066Y-63732600D01*
X73102733Y-63665933D01*
X73069400Y-63632600D01*
X73002733Y-63599266D01*
X72869400Y-63599266D01*
X72802733Y-63632600D01*
X72769400Y-63665933D01*
X72736066Y-63732600D01*
X72736066Y-63899266D01*
X72769400Y-63965933D01*
X72802733Y-63999266D01*
X72869400Y-64032600D01*
X73002733Y-64032600D01*
X73069400Y-63999266D01*
X73102733Y-63965933D01*
X73136066Y-63899266D01*
X61224333Y-29018666D02*
X60991000Y-28685333D01*
X60824333Y-29018666D02*
X60824333Y-28318666D01*
X61091000Y-28318666D01*
X61157666Y-28352000D01*
X61191000Y-28385333D01*
X61224333Y-28452000D01*
X61224333Y-28552000D01*
X61191000Y-28618666D01*
X61157666Y-28652000D01*
X61091000Y-28685333D01*
X60824333Y-28685333D01*
X61624333Y-28618666D02*
X61557666Y-28585333D01*
X61524333Y-28552000D01*
X61491000Y-28485333D01*
X61491000Y-28452000D01*
X61524333Y-28385333D01*
X61557666Y-28352000D01*
X61624333Y-28318666D01*
X61757666Y-28318666D01*
X61824333Y-28352000D01*
X61857666Y-28385333D01*
X61891000Y-28452000D01*
X61891000Y-28485333D01*
X61857666Y-28552000D01*
X61824333Y-28585333D01*
X61757666Y-28618666D01*
X61624333Y-28618666D01*
X61557666Y-28652000D01*
X61524333Y-28685333D01*
X61491000Y-28752000D01*
X61491000Y-28885333D01*
X61524333Y-28952000D01*
X61557666Y-28985333D01*
X61624333Y-29018666D01*
X61757666Y-29018666D01*
X61824333Y-28985333D01*
X61857666Y-28952000D01*
X61891000Y-28885333D01*
X61891000Y-28752000D01*
X61857666Y-28685333D01*
X61824333Y-28652000D01*
X61757666Y-28618666D01*
X60468600Y-125030666D02*
X60235266Y-124697333D01*
X60068600Y-125030666D02*
X60068600Y-124330666D01*
X60335266Y-124330666D01*
X60401933Y-124364000D01*
X60435266Y-124397333D01*
X60468600Y-124464000D01*
X60468600Y-124564000D01*
X60435266Y-124630666D01*
X60401933Y-124664000D01*
X60335266Y-124697333D01*
X60068600Y-124697333D01*
X61068600Y-124564000D02*
X61068600Y-125030666D01*
X60901933Y-124297333D02*
X60735266Y-124797333D01*
X61168600Y-124797333D01*
X61735266Y-124330666D02*
X61601933Y-124330666D01*
X61535266Y-124364000D01*
X61501933Y-124397333D01*
X61435266Y-124497333D01*
X61401933Y-124630666D01*
X61401933Y-124897333D01*
X61435266Y-124964000D01*
X61468600Y-124997333D01*
X61535266Y-125030666D01*
X61668600Y-125030666D01*
X61735266Y-124997333D01*
X61768600Y-124964000D01*
X61801933Y-124897333D01*
X61801933Y-124730666D01*
X61768600Y-124664000D01*
X61735266Y-124630666D01*
X61668600Y-124597333D01*
X61535266Y-124597333D01*
X61468600Y-124630666D01*
X61435266Y-124664000D01*
X61401933Y-124730666D01*
X60408400Y-86498866D02*
X60175066Y-86165533D01*
X60008400Y-86498866D02*
X60008400Y-85798866D01*
X60275066Y-85798866D01*
X60341733Y-85832200D01*
X60375066Y-85865533D01*
X60408400Y-85932200D01*
X60408400Y-86032200D01*
X60375066Y-86098866D01*
X60341733Y-86132200D01*
X60275066Y-86165533D01*
X60008400Y-86165533D01*
X60641733Y-85798866D02*
X61075066Y-85798866D01*
X60841733Y-86065533D01*
X60941733Y-86065533D01*
X61008400Y-86098866D01*
X61041733Y-86132200D01*
X61075066Y-86198866D01*
X61075066Y-86365533D01*
X61041733Y-86432200D01*
X61008400Y-86465533D01*
X60941733Y-86498866D01*
X60741733Y-86498866D01*
X60675066Y-86465533D01*
X60641733Y-86432200D01*
X61675066Y-86032200D02*
X61675066Y-86498866D01*
X61508400Y-85765533D02*
X61341733Y-86265533D01*
X61775066Y-86265533D01*
X60401800Y-128231066D02*
X60168466Y-127897733D01*
X60001800Y-128231066D02*
X60001800Y-127531066D01*
X60268466Y-127531066D01*
X60335133Y-127564400D01*
X60368466Y-127597733D01*
X60401800Y-127664400D01*
X60401800Y-127764400D01*
X60368466Y-127831066D01*
X60335133Y-127864400D01*
X60268466Y-127897733D01*
X60001800Y-127897733D01*
X61001800Y-127764400D02*
X61001800Y-128231066D01*
X60835133Y-127497733D02*
X60668466Y-127997733D01*
X61101800Y-127997733D01*
X61301800Y-127531066D02*
X61768466Y-127531066D01*
X61468466Y-128231066D01*
X60408400Y-81926866D02*
X60175066Y-81593533D01*
X60008400Y-81926866D02*
X60008400Y-81226866D01*
X60275066Y-81226866D01*
X60341733Y-81260200D01*
X60375066Y-81293533D01*
X60408400Y-81360200D01*
X60408400Y-81460200D01*
X60375066Y-81526866D01*
X60341733Y-81560200D01*
X60275066Y-81593533D01*
X60008400Y-81593533D01*
X60675066Y-81293533D02*
X60708400Y-81260200D01*
X60775066Y-81226866D01*
X60941733Y-81226866D01*
X61008400Y-81260200D01*
X61041733Y-81293533D01*
X61075066Y-81360200D01*
X61075066Y-81426866D01*
X61041733Y-81526866D01*
X60641733Y-81926866D01*
X61075066Y-81926866D01*
X61408400Y-81926866D02*
X61541733Y-81926866D01*
X61608400Y-81893533D01*
X61641733Y-81860200D01*
X61708400Y-81760200D01*
X61741733Y-81626866D01*
X61741733Y-81360200D01*
X61708400Y-81293533D01*
X61675066Y-81260200D01*
X61608400Y-81226866D01*
X61475066Y-81226866D01*
X61408400Y-81260200D01*
X61375066Y-81293533D01*
X61341733Y-81360200D01*
X61341733Y-81526866D01*
X61375066Y-81593533D01*
X61408400Y-81626866D01*
X61475066Y-81660200D01*
X61608400Y-81660200D01*
X61675066Y-81626866D01*
X61708400Y-81593533D01*
X61741733Y-81526866D01*
X66685333Y-102754866D02*
X66452000Y-102421533D01*
X66285333Y-102754866D02*
X66285333Y-102054866D01*
X66552000Y-102054866D01*
X66618666Y-102088200D01*
X66652000Y-102121533D01*
X66685333Y-102188200D01*
X66685333Y-102288200D01*
X66652000Y-102354866D01*
X66618666Y-102388200D01*
X66552000Y-102421533D01*
X66285333Y-102421533D01*
X66918666Y-102054866D02*
X67385333Y-102054866D01*
X67085333Y-102754866D01*
X60401800Y-129501066D02*
X60168466Y-129167733D01*
X60001800Y-129501066D02*
X60001800Y-128801066D01*
X60268466Y-128801066D01*
X60335133Y-128834400D01*
X60368466Y-128867733D01*
X60401800Y-128934400D01*
X60401800Y-129034400D01*
X60368466Y-129101066D01*
X60335133Y-129134400D01*
X60268466Y-129167733D01*
X60001800Y-129167733D01*
X61001800Y-129034400D02*
X61001800Y-129501066D01*
X60835133Y-128767733D02*
X60668466Y-129267733D01*
X61101800Y-129267733D01*
X61401800Y-129501066D02*
X61535133Y-129501066D01*
X61601800Y-129467733D01*
X61635133Y-129434400D01*
X61701800Y-129334400D01*
X61735133Y-129201066D01*
X61735133Y-128934400D01*
X61701800Y-128867733D01*
X61668466Y-128834400D01*
X61601800Y-128801066D01*
X61468466Y-128801066D01*
X61401800Y-128834400D01*
X61368466Y-128867733D01*
X61335133Y-128934400D01*
X61335133Y-129101066D01*
X61368466Y-129167733D01*
X61401800Y-129201066D01*
X61468466Y-129234400D01*
X61601800Y-129234400D01*
X61668466Y-129201066D01*
X61701800Y-129167733D01*
X61735133Y-129101066D01*
X60383000Y-83450866D02*
X60149666Y-83117533D01*
X59983000Y-83450866D02*
X59983000Y-82750866D01*
X60249666Y-82750866D01*
X60316333Y-82784200D01*
X60349666Y-82817533D01*
X60383000Y-82884200D01*
X60383000Y-82984200D01*
X60349666Y-83050866D01*
X60316333Y-83084200D01*
X60249666Y-83117533D01*
X59983000Y-83117533D01*
X60616333Y-82750866D02*
X61049666Y-82750866D01*
X60816333Y-83017533D01*
X60916333Y-83017533D01*
X60983000Y-83050866D01*
X61016333Y-83084200D01*
X61049666Y-83150866D01*
X61049666Y-83317533D01*
X61016333Y-83384200D01*
X60983000Y-83417533D01*
X60916333Y-83450866D01*
X60716333Y-83450866D01*
X60649666Y-83417533D01*
X60616333Y-83384200D01*
X61716333Y-83450866D02*
X61316333Y-83450866D01*
X61516333Y-83450866D02*
X61516333Y-82750866D01*
X61449666Y-82850866D01*
X61383000Y-82917533D01*
X61316333Y-82950866D01*
X60662400Y-52335866D02*
X60429066Y-52002533D01*
X60262400Y-52335866D02*
X60262400Y-51635866D01*
X60529066Y-51635866D01*
X60595733Y-51669200D01*
X60629066Y-51702533D01*
X60662400Y-51769200D01*
X60662400Y-51869200D01*
X60629066Y-51935866D01*
X60595733Y-51969200D01*
X60529066Y-52002533D01*
X60262400Y-52002533D01*
X60929066Y-51702533D02*
X60962400Y-51669200D01*
X61029066Y-51635866D01*
X61195733Y-51635866D01*
X61262400Y-51669200D01*
X61295733Y-51702533D01*
X61329066Y-51769200D01*
X61329066Y-51835866D01*
X61295733Y-51935866D01*
X60895733Y-52335866D01*
X61329066Y-52335866D01*
X61995733Y-52335866D02*
X61595733Y-52335866D01*
X61795733Y-52335866D02*
X61795733Y-51635866D01*
X61729066Y-51735866D01*
X61662400Y-51802533D01*
X61595733Y-51835866D01*
X63973933Y-121474666D02*
X63973933Y-120774666D01*
X64140600Y-120774666D01*
X64240600Y-120808000D01*
X64307266Y-120874666D01*
X64340600Y-120941333D01*
X64373933Y-121074666D01*
X64373933Y-121174666D01*
X64340600Y-121308000D01*
X64307266Y-121374666D01*
X64240600Y-121441333D01*
X64140600Y-121474666D01*
X63973933Y-121474666D01*
X65007266Y-120774666D02*
X64673933Y-120774666D01*
X64640600Y-121108000D01*
X64673933Y-121074666D01*
X64740600Y-121041333D01*
X64907266Y-121041333D01*
X64973933Y-121074666D01*
X65007266Y-121108000D01*
X65040600Y-121174666D01*
X65040600Y-121341333D01*
X65007266Y-121408000D01*
X64973933Y-121441333D01*
X64907266Y-121474666D01*
X64740600Y-121474666D01*
X64673933Y-121441333D01*
X64640600Y-121408000D01*
X60497133Y-61276666D02*
X60263800Y-60943333D01*
X60097133Y-61276666D02*
X60097133Y-60576666D01*
X60363800Y-60576666D01*
X60430466Y-60610000D01*
X60463800Y-60643333D01*
X60497133Y-60710000D01*
X60497133Y-60810000D01*
X60463800Y-60876666D01*
X60430466Y-60910000D01*
X60363800Y-60943333D01*
X60097133Y-60943333D01*
X60730466Y-60576666D02*
X61163800Y-60576666D01*
X60930466Y-60843333D01*
X61030466Y-60843333D01*
X61097133Y-60876666D01*
X61130466Y-60910000D01*
X61163800Y-60976666D01*
X61163800Y-61143333D01*
X61130466Y-61210000D01*
X61097133Y-61243333D01*
X61030466Y-61276666D01*
X60830466Y-61276666D01*
X60763800Y-61243333D01*
X60730466Y-61210000D01*
X63317466Y-127534200D02*
X63084133Y-127534200D01*
X63084133Y-127900866D02*
X63084133Y-127200866D01*
X63417466Y-127200866D01*
X63984133Y-127434200D02*
X63984133Y-127900866D01*
X63817466Y-127167533D02*
X63650800Y-127667533D01*
X64084133Y-127667533D01*
X60649533Y-42099666D02*
X60416200Y-41766333D01*
X60249533Y-42099666D02*
X60249533Y-41399666D01*
X60516200Y-41399666D01*
X60582866Y-41433000D01*
X60616200Y-41466333D01*
X60649533Y-41533000D01*
X60649533Y-41633000D01*
X60616200Y-41699666D01*
X60582866Y-41733000D01*
X60516200Y-41766333D01*
X60249533Y-41766333D01*
X60916200Y-41466333D02*
X60949533Y-41433000D01*
X61016200Y-41399666D01*
X61182866Y-41399666D01*
X61249533Y-41433000D01*
X61282866Y-41466333D01*
X61316200Y-41533000D01*
X61316200Y-41599666D01*
X61282866Y-41699666D01*
X60882866Y-42099666D01*
X61316200Y-42099666D01*
X47340866Y-30249066D02*
X47340866Y-30749066D01*
X47307533Y-30849066D01*
X47240866Y-30915733D01*
X47140866Y-30949066D01*
X47074200Y-30949066D01*
X48040866Y-30949066D02*
X47640866Y-30949066D01*
X47840866Y-30949066D02*
X47840866Y-30249066D01*
X47774200Y-30349066D01*
X47707533Y-30415733D01*
X47640866Y-30449066D01*
X60611600Y-44842866D02*
X60378266Y-44509533D01*
X60211600Y-44842866D02*
X60211600Y-44142866D01*
X60478266Y-44142866D01*
X60544933Y-44176200D01*
X60578266Y-44209533D01*
X60611600Y-44276200D01*
X60611600Y-44376200D01*
X60578266Y-44442866D01*
X60544933Y-44476200D01*
X60478266Y-44509533D01*
X60211600Y-44509533D01*
X61278266Y-44842866D02*
X60878266Y-44842866D01*
X61078266Y-44842866D02*
X61078266Y-44142866D01*
X61011600Y-44242866D01*
X60944933Y-44309533D01*
X60878266Y-44342866D01*
X61911600Y-44142866D02*
X61578266Y-44142866D01*
X61544933Y-44476200D01*
X61578266Y-44442866D01*
X61644933Y-44409533D01*
X61811600Y-44409533D01*
X61878266Y-44442866D01*
X61911600Y-44476200D01*
X61944933Y-44542866D01*
X61944933Y-44709533D01*
X61911600Y-44776200D01*
X61878266Y-44809533D01*
X61811600Y-44842866D01*
X61644933Y-44842866D01*
X61578266Y-44809533D01*
X61544933Y-44776200D01*
X60510000Y-108393666D02*
X60276666Y-108060333D01*
X60110000Y-108393666D02*
X60110000Y-107693666D01*
X60376666Y-107693666D01*
X60443333Y-107727000D01*
X60476666Y-107760333D01*
X60510000Y-107827000D01*
X60510000Y-107927000D01*
X60476666Y-107993666D01*
X60443333Y-108027000D01*
X60376666Y-108060333D01*
X60110000Y-108060333D01*
X60743333Y-107693666D02*
X61176666Y-107693666D01*
X60943333Y-107960333D01*
X61043333Y-107960333D01*
X61110000Y-107993666D01*
X61143333Y-108027000D01*
X61176666Y-108093666D01*
X61176666Y-108260333D01*
X61143333Y-108327000D01*
X61110000Y-108360333D01*
X61043333Y-108393666D01*
X60843333Y-108393666D01*
X60776666Y-108360333D01*
X60743333Y-108327000D01*
X61510000Y-108393666D02*
X61643333Y-108393666D01*
X61710000Y-108360333D01*
X61743333Y-108327000D01*
X61810000Y-108227000D01*
X61843333Y-108093666D01*
X61843333Y-107827000D01*
X61810000Y-107760333D01*
X61776666Y-107727000D01*
X61710000Y-107693666D01*
X61576666Y-107693666D01*
X61510000Y-107727000D01*
X61476666Y-107760333D01*
X61443333Y-107827000D01*
X61443333Y-107993666D01*
X61476666Y-108060333D01*
X61510000Y-108093666D01*
X61576666Y-108127000D01*
X61710000Y-108127000D01*
X61776666Y-108093666D01*
X61810000Y-108060333D01*
X61843333Y-107993666D01*
X47442466Y-90116866D02*
X47442466Y-90616866D01*
X47409133Y-90716866D01*
X47342466Y-90783533D01*
X47242466Y-90816866D01*
X47175800Y-90816866D01*
X48075800Y-90350200D02*
X48075800Y-90816866D01*
X47909133Y-90083533D02*
X47742466Y-90583533D01*
X48175800Y-90583533D01*
X60316200Y-122160466D02*
X60082866Y-121827133D01*
X59916200Y-122160466D02*
X59916200Y-121460466D01*
X60182866Y-121460466D01*
X60249533Y-121493800D01*
X60282866Y-121527133D01*
X60316200Y-121593800D01*
X60316200Y-121693800D01*
X60282866Y-121760466D01*
X60249533Y-121793800D01*
X60182866Y-121827133D01*
X59916200Y-121827133D01*
X60916200Y-121693800D02*
X60916200Y-122160466D01*
X60749533Y-121427133D02*
X60582866Y-121927133D01*
X61016200Y-121927133D01*
X61216200Y-121460466D02*
X61649533Y-121460466D01*
X61416200Y-121727133D01*
X61516200Y-121727133D01*
X61582866Y-121760466D01*
X61616200Y-121793800D01*
X61649533Y-121860466D01*
X61649533Y-122027133D01*
X61616200Y-122093800D01*
X61582866Y-122127133D01*
X61516200Y-122160466D01*
X61316200Y-122160466D01*
X61249533Y-122127133D01*
X61216200Y-122093800D01*
X60443200Y-64070666D02*
X60209866Y-63737333D01*
X60043200Y-64070666D02*
X60043200Y-63370666D01*
X60309866Y-63370666D01*
X60376533Y-63404000D01*
X60409866Y-63437333D01*
X60443200Y-63504000D01*
X60443200Y-63604000D01*
X60409866Y-63670666D01*
X60376533Y-63704000D01*
X60309866Y-63737333D01*
X60043200Y-63737333D01*
X60709866Y-63437333D02*
X60743200Y-63404000D01*
X60809866Y-63370666D01*
X60976533Y-63370666D01*
X61043200Y-63404000D01*
X61076533Y-63437333D01*
X61109866Y-63504000D01*
X61109866Y-63570666D01*
X61076533Y-63670666D01*
X60676533Y-64070666D01*
X61109866Y-64070666D01*
X61376533Y-63437333D02*
X61409866Y-63404000D01*
X61476533Y-63370666D01*
X61643200Y-63370666D01*
X61709866Y-63404000D01*
X61743200Y-63437333D01*
X61776533Y-63504000D01*
X61776533Y-63570666D01*
X61743200Y-63670666D01*
X61343200Y-64070666D01*
X61776533Y-64070666D01*
X47467866Y-120698466D02*
X47467866Y-121198466D01*
X47434533Y-121298466D01*
X47367866Y-121365133D01*
X47267866Y-121398466D01*
X47201200Y-121398466D01*
X48101200Y-120698466D02*
X47967866Y-120698466D01*
X47901200Y-120731800D01*
X47867866Y-120765133D01*
X47801200Y-120865133D01*
X47767866Y-120998466D01*
X47767866Y-121265133D01*
X47801200Y-121331800D01*
X47834533Y-121365133D01*
X47901200Y-121398466D01*
X48034533Y-121398466D01*
X48101200Y-121365133D01*
X48134533Y-121331800D01*
X48167866Y-121265133D01*
X48167866Y-121098466D01*
X48134533Y-121031800D01*
X48101200Y-120998466D01*
X48034533Y-120965133D01*
X47901200Y-120965133D01*
X47834533Y-120998466D01*
X47801200Y-121031800D01*
X47767866Y-121098466D01*
X60637000Y-51065866D02*
X60403666Y-50732533D01*
X60237000Y-51065866D02*
X60237000Y-50365866D01*
X60503666Y-50365866D01*
X60570333Y-50399200D01*
X60603666Y-50432533D01*
X60637000Y-50499200D01*
X60637000Y-50599200D01*
X60603666Y-50665866D01*
X60570333Y-50699200D01*
X60503666Y-50732533D01*
X60237000Y-50732533D01*
X61303666Y-51065866D02*
X60903666Y-51065866D01*
X61103666Y-51065866D02*
X61103666Y-50365866D01*
X61037000Y-50465866D01*
X60970333Y-50532533D01*
X60903666Y-50565866D01*
X61637000Y-51065866D02*
X61770333Y-51065866D01*
X61837000Y-51032533D01*
X61870333Y-50999200D01*
X61937000Y-50899200D01*
X61970333Y-50765866D01*
X61970333Y-50499200D01*
X61937000Y-50432533D01*
X61903666Y-50399200D01*
X61837000Y-50365866D01*
X61703666Y-50365866D01*
X61637000Y-50399200D01*
X61603666Y-50432533D01*
X61570333Y-50499200D01*
X61570333Y-50665866D01*
X61603666Y-50732533D01*
X61637000Y-50765866D01*
X61703666Y-50799200D01*
X61837000Y-50799200D01*
X61903666Y-50765866D01*
X61937000Y-50732533D01*
X61970333Y-50665866D01*
X60332200Y-88454666D02*
X60098866Y-88121333D01*
X59932200Y-88454666D02*
X59932200Y-87754666D01*
X60198866Y-87754666D01*
X60265533Y-87788000D01*
X60298866Y-87821333D01*
X60332200Y-87888000D01*
X60332200Y-87988000D01*
X60298866Y-88054666D01*
X60265533Y-88088000D01*
X60198866Y-88121333D01*
X59932200Y-88121333D01*
X60565533Y-87754666D02*
X60998866Y-87754666D01*
X60765533Y-88021333D01*
X60865533Y-88021333D01*
X60932200Y-88054666D01*
X60965533Y-88088000D01*
X60998866Y-88154666D01*
X60998866Y-88321333D01*
X60965533Y-88388000D01*
X60932200Y-88421333D01*
X60865533Y-88454666D01*
X60665533Y-88454666D01*
X60598866Y-88421333D01*
X60565533Y-88388000D01*
X61265533Y-87821333D02*
X61298866Y-87788000D01*
X61365533Y-87754666D01*
X61532200Y-87754666D01*
X61598866Y-87788000D01*
X61632200Y-87821333D01*
X61665533Y-87888000D01*
X61665533Y-87954666D01*
X61632200Y-88054666D01*
X61232200Y-88454666D01*
X61665533Y-88454666D01*
X69083266Y-137691066D02*
X69083266Y-138191066D01*
X69049933Y-138291066D01*
X68983266Y-138357733D01*
X68883266Y-138391066D01*
X68816600Y-138391066D01*
X69349933Y-137691066D02*
X69816600Y-137691066D01*
X69516600Y-138391066D01*
X60468600Y-62394266D02*
X60235266Y-62060933D01*
X60068600Y-62394266D02*
X60068600Y-61694266D01*
X60335266Y-61694266D01*
X60401933Y-61727600D01*
X60435266Y-61760933D01*
X60468600Y-61827600D01*
X60468600Y-61927600D01*
X60435266Y-61994266D01*
X60401933Y-62027600D01*
X60335266Y-62060933D01*
X60068600Y-62060933D01*
X60735266Y-61760933D02*
X60768600Y-61727600D01*
X60835266Y-61694266D01*
X61001933Y-61694266D01*
X61068600Y-61727600D01*
X61101933Y-61760933D01*
X61135266Y-61827600D01*
X61135266Y-61894266D01*
X61101933Y-61994266D01*
X60701933Y-62394266D01*
X61135266Y-62394266D01*
X61368600Y-61694266D02*
X61801933Y-61694266D01*
X61568600Y-61960933D01*
X61668600Y-61960933D01*
X61735266Y-61994266D01*
X61768600Y-62027600D01*
X61801933Y-62094266D01*
X61801933Y-62260933D01*
X61768600Y-62327600D01*
X61735266Y-62360933D01*
X61668600Y-62394266D01*
X61468600Y-62394266D01*
X61401933Y-62360933D01*
X61368600Y-62327600D01*
X47620266Y-99870466D02*
X47620266Y-100370466D01*
X47586933Y-100470466D01*
X47520266Y-100537133D01*
X47420266Y-100570466D01*
X47353600Y-100570466D01*
X48286933Y-99870466D02*
X47953600Y-99870466D01*
X47920266Y-100203800D01*
X47953600Y-100170466D01*
X48020266Y-100137133D01*
X48186933Y-100137133D01*
X48253600Y-100170466D01*
X48286933Y-100203800D01*
X48320266Y-100270466D01*
X48320266Y-100437133D01*
X48286933Y-100503800D01*
X48253600Y-100537133D01*
X48186933Y-100570466D01*
X48020266Y-100570466D01*
X47953600Y-100537133D01*
X47920266Y-100503800D01*
X61173533Y-27291466D02*
X60940200Y-26958133D01*
X60773533Y-27291466D02*
X60773533Y-26591466D01*
X61040200Y-26591466D01*
X61106866Y-26624800D01*
X61140200Y-26658133D01*
X61173533Y-26724800D01*
X61173533Y-26824800D01*
X61140200Y-26891466D01*
X61106866Y-26924800D01*
X61040200Y-26958133D01*
X60773533Y-26958133D01*
X61506866Y-27291466D02*
X61640200Y-27291466D01*
X61706866Y-27258133D01*
X61740200Y-27224800D01*
X61806866Y-27124800D01*
X61840200Y-26991466D01*
X61840200Y-26724800D01*
X61806866Y-26658133D01*
X61773533Y-26624800D01*
X61706866Y-26591466D01*
X61573533Y-26591466D01*
X61506866Y-26624800D01*
X61473533Y-26658133D01*
X61440200Y-26724800D01*
X61440200Y-26891466D01*
X61473533Y-26958133D01*
X61506866Y-26991466D01*
X61573533Y-27024800D01*
X61706866Y-27024800D01*
X61773533Y-26991466D01*
X61806866Y-26958133D01*
X61840200Y-26891466D01*
X60468600Y-70244666D02*
X60235266Y-69911333D01*
X60068600Y-70244666D02*
X60068600Y-69544666D01*
X60335266Y-69544666D01*
X60401933Y-69578000D01*
X60435266Y-69611333D01*
X60468600Y-69678000D01*
X60468600Y-69778000D01*
X60435266Y-69844666D01*
X60401933Y-69878000D01*
X60335266Y-69911333D01*
X60068600Y-69911333D01*
X60735266Y-69611333D02*
X60768600Y-69578000D01*
X60835266Y-69544666D01*
X61001933Y-69544666D01*
X61068600Y-69578000D01*
X61101933Y-69611333D01*
X61135266Y-69678000D01*
X61135266Y-69744666D01*
X61101933Y-69844666D01*
X60701933Y-70244666D01*
X61135266Y-70244666D01*
X61735266Y-69544666D02*
X61601933Y-69544666D01*
X61535266Y-69578000D01*
X61501933Y-69611333D01*
X61435266Y-69711333D01*
X61401933Y-69844666D01*
X61401933Y-70111333D01*
X61435266Y-70178000D01*
X61468600Y-70211333D01*
X61535266Y-70244666D01*
X61668600Y-70244666D01*
X61735266Y-70211333D01*
X61768600Y-70178000D01*
X61801933Y-70111333D01*
X61801933Y-69944666D01*
X61768600Y-69878000D01*
X61735266Y-69844666D01*
X61668600Y-69811333D01*
X61535266Y-69811333D01*
X61468600Y-69844666D01*
X61435266Y-69878000D01*
X61401933Y-69944666D01*
X60383000Y-85025666D02*
X60149666Y-84692333D01*
X59983000Y-85025666D02*
X59983000Y-84325666D01*
X60249666Y-84325666D01*
X60316333Y-84359000D01*
X60349666Y-84392333D01*
X60383000Y-84459000D01*
X60383000Y-84559000D01*
X60349666Y-84625666D01*
X60316333Y-84659000D01*
X60249666Y-84692333D01*
X59983000Y-84692333D01*
X60616333Y-84325666D02*
X61049666Y-84325666D01*
X60816333Y-84592333D01*
X60916333Y-84592333D01*
X60983000Y-84625666D01*
X61016333Y-84659000D01*
X61049666Y-84725666D01*
X61049666Y-84892333D01*
X61016333Y-84959000D01*
X60983000Y-84992333D01*
X60916333Y-85025666D01*
X60716333Y-85025666D01*
X60649666Y-84992333D01*
X60616333Y-84959000D01*
X61283000Y-84325666D02*
X61716333Y-84325666D01*
X61483000Y-84592333D01*
X61583000Y-84592333D01*
X61649666Y-84625666D01*
X61683000Y-84659000D01*
X61716333Y-84725666D01*
X61716333Y-84892333D01*
X61683000Y-84959000D01*
X61649666Y-84992333D01*
X61583000Y-85025666D01*
X61383000Y-85025666D01*
X61316333Y-84992333D01*
X61283000Y-84959000D01*
X60510000Y-109511266D02*
X60276666Y-109177933D01*
X60110000Y-109511266D02*
X60110000Y-108811266D01*
X60376666Y-108811266D01*
X60443333Y-108844600D01*
X60476666Y-108877933D01*
X60510000Y-108944600D01*
X60510000Y-109044600D01*
X60476666Y-109111266D01*
X60443333Y-109144600D01*
X60376666Y-109177933D01*
X60110000Y-109177933D01*
X61110000Y-109044600D02*
X61110000Y-109511266D01*
X60943333Y-108777933D02*
X60776666Y-109277933D01*
X61210000Y-109277933D01*
X61443333Y-108877933D02*
X61476666Y-108844600D01*
X61543333Y-108811266D01*
X61710000Y-108811266D01*
X61776666Y-108844600D01*
X61810000Y-108877933D01*
X61843333Y-108944600D01*
X61843333Y-109011266D01*
X61810000Y-109111266D01*
X61410000Y-109511266D01*
X61843333Y-109511266D01*
X60484600Y-111543266D02*
X60251266Y-111209933D01*
X60084600Y-111543266D02*
X60084600Y-110843266D01*
X60351266Y-110843266D01*
X60417933Y-110876600D01*
X60451266Y-110909933D01*
X60484600Y-110976600D01*
X60484600Y-111076600D01*
X60451266Y-111143266D01*
X60417933Y-111176600D01*
X60351266Y-111209933D01*
X60084600Y-111209933D01*
X61084600Y-111076600D02*
X61084600Y-111543266D01*
X60917933Y-110809933D02*
X60751266Y-111309933D01*
X61184600Y-111309933D01*
X61584600Y-110843266D02*
X61651266Y-110843266D01*
X61717933Y-110876600D01*
X61751266Y-110909933D01*
X61784600Y-110976600D01*
X61817933Y-111109933D01*
X61817933Y-111276600D01*
X61784600Y-111409933D01*
X61751266Y-111476600D01*
X61717933Y-111509933D01*
X61651266Y-111543266D01*
X61584600Y-111543266D01*
X61517933Y-111509933D01*
X61484600Y-111476600D01*
X61451266Y-111409933D01*
X61417933Y-111276600D01*
X61417933Y-111109933D01*
X61451266Y-110976600D01*
X61484600Y-110909933D01*
X61517933Y-110876600D01*
X61584600Y-110843266D01*
X61148133Y-26046866D02*
X60914800Y-25713533D01*
X60748133Y-26046866D02*
X60748133Y-25346866D01*
X61014800Y-25346866D01*
X61081466Y-25380200D01*
X61114800Y-25413533D01*
X61148133Y-25480200D01*
X61148133Y-25580200D01*
X61114800Y-25646866D01*
X61081466Y-25680200D01*
X61014800Y-25713533D01*
X60748133Y-25713533D01*
X61814800Y-26046866D02*
X61414800Y-26046866D01*
X61614800Y-26046866D02*
X61614800Y-25346866D01*
X61548133Y-25446866D01*
X61481466Y-25513533D01*
X61414800Y-25546866D01*
X60538533Y-102196066D02*
X60305200Y-101862733D01*
X60138533Y-102196066D02*
X60138533Y-101496066D01*
X60405200Y-101496066D01*
X60471866Y-101529400D01*
X60505200Y-101562733D01*
X60538533Y-101629400D01*
X60538533Y-101729400D01*
X60505200Y-101796066D01*
X60471866Y-101829400D01*
X60405200Y-101862733D01*
X60138533Y-101862733D01*
X61171866Y-101496066D02*
X60838533Y-101496066D01*
X60805200Y-101829400D01*
X60838533Y-101796066D01*
X60905200Y-101762733D01*
X61071866Y-101762733D01*
X61138533Y-101796066D01*
X61171866Y-101829400D01*
X61205200Y-101896066D01*
X61205200Y-102062733D01*
X61171866Y-102129400D01*
X61138533Y-102162733D01*
X61071866Y-102196066D01*
X60905200Y-102196066D01*
X60838533Y-102162733D01*
X60805200Y-102129400D01*
X61170400Y-32168266D02*
X60937066Y-31834933D01*
X60770400Y-32168266D02*
X60770400Y-31468266D01*
X61037066Y-31468266D01*
X61103733Y-31501600D01*
X61137066Y-31534933D01*
X61170400Y-31601600D01*
X61170400Y-31701600D01*
X61137066Y-31768266D01*
X61103733Y-31801600D01*
X61037066Y-31834933D01*
X60770400Y-31834933D01*
X61837066Y-32168266D02*
X61437066Y-32168266D01*
X61637066Y-32168266D02*
X61637066Y-31468266D01*
X61570400Y-31568266D01*
X61503733Y-31634933D01*
X61437066Y-31668266D01*
X62503733Y-32168266D02*
X62103733Y-32168266D01*
X62303733Y-32168266D02*
X62303733Y-31468266D01*
X62237066Y-31568266D01*
X62170400Y-31634933D01*
X62103733Y-31668266D01*
X60436933Y-79056666D02*
X60203600Y-78723333D01*
X60036933Y-79056666D02*
X60036933Y-78356666D01*
X60303600Y-78356666D01*
X60370266Y-78390000D01*
X60403600Y-78423333D01*
X60436933Y-78490000D01*
X60436933Y-78590000D01*
X60403600Y-78656666D01*
X60370266Y-78690000D01*
X60303600Y-78723333D01*
X60036933Y-78723333D01*
X61036933Y-78590000D02*
X61036933Y-79056666D01*
X60870266Y-78323333D02*
X60703600Y-78823333D01*
X61136933Y-78823333D01*
X60367000Y-123608266D02*
X60133666Y-123274933D01*
X59967000Y-123608266D02*
X59967000Y-122908266D01*
X60233666Y-122908266D01*
X60300333Y-122941600D01*
X60333666Y-122974933D01*
X60367000Y-123041600D01*
X60367000Y-123141600D01*
X60333666Y-123208266D01*
X60300333Y-123241600D01*
X60233666Y-123274933D01*
X59967000Y-123274933D01*
X60967000Y-123141600D02*
X60967000Y-123608266D01*
X60800333Y-122874933D02*
X60633666Y-123374933D01*
X61067000Y-123374933D01*
X61667000Y-122908266D02*
X61333666Y-122908266D01*
X61300333Y-123241600D01*
X61333666Y-123208266D01*
X61400333Y-123174933D01*
X61567000Y-123174933D01*
X61633666Y-123208266D01*
X61667000Y-123241600D01*
X61700333Y-123308266D01*
X61700333Y-123474933D01*
X61667000Y-123541600D01*
X61633666Y-123574933D01*
X61567000Y-123608266D01*
X61400333Y-123608266D01*
X61333666Y-123574933D01*
X61300333Y-123541600D01*
X60560800Y-106564866D02*
X60327466Y-106231533D01*
X60160800Y-106564866D02*
X60160800Y-105864866D01*
X60427466Y-105864866D01*
X60494133Y-105898200D01*
X60527466Y-105931533D01*
X60560800Y-105998200D01*
X60560800Y-106098200D01*
X60527466Y-106164866D01*
X60494133Y-106198200D01*
X60427466Y-106231533D01*
X60160800Y-106231533D01*
X60794133Y-105864866D02*
X61227466Y-105864866D01*
X60994133Y-106131533D01*
X61094133Y-106131533D01*
X61160800Y-106164866D01*
X61194133Y-106198200D01*
X61227466Y-106264866D01*
X61227466Y-106431533D01*
X61194133Y-106498200D01*
X61160800Y-106531533D01*
X61094133Y-106564866D01*
X60894133Y-106564866D01*
X60827466Y-106531533D01*
X60794133Y-106498200D01*
X61627466Y-106164866D02*
X61560800Y-106131533D01*
X61527466Y-106098200D01*
X61494133Y-106031533D01*
X61494133Y-105998200D01*
X61527466Y-105931533D01*
X61560800Y-105898200D01*
X61627466Y-105864866D01*
X61760800Y-105864866D01*
X61827466Y-105898200D01*
X61860800Y-105931533D01*
X61894133Y-105998200D01*
X61894133Y-106031533D01*
X61860800Y-106098200D01*
X61827466Y-106131533D01*
X61760800Y-106164866D01*
X61627466Y-106164866D01*
X61560800Y-106198200D01*
X61527466Y-106231533D01*
X61494133Y-106298200D01*
X61494133Y-106431533D01*
X61527466Y-106498200D01*
X61560800Y-106531533D01*
X61627466Y-106564866D01*
X61760800Y-106564866D01*
X61827466Y-106531533D01*
X61860800Y-106498200D01*
X61894133Y-106431533D01*
X61894133Y-106298200D01*
X61860800Y-106231533D01*
X61827466Y-106198200D01*
X61760800Y-106164866D01*
X60646400Y-43166466D02*
X60413066Y-42833133D01*
X60246400Y-43166466D02*
X60246400Y-42466466D01*
X60513066Y-42466466D01*
X60579733Y-42499800D01*
X60613066Y-42533133D01*
X60646400Y-42599800D01*
X60646400Y-42699800D01*
X60613066Y-42766466D01*
X60579733Y-42799800D01*
X60513066Y-42833133D01*
X60246400Y-42833133D01*
X61313066Y-43166466D02*
X60913066Y-43166466D01*
X61113066Y-43166466D02*
X61113066Y-42466466D01*
X61046400Y-42566466D01*
X60979733Y-42633133D01*
X60913066Y-42666466D01*
X61913066Y-42466466D02*
X61779733Y-42466466D01*
X61713066Y-42499800D01*
X61679733Y-42533133D01*
X61613066Y-42633133D01*
X61579733Y-42766466D01*
X61579733Y-43033133D01*
X61613066Y-43099800D01*
X61646400Y-43133133D01*
X61713066Y-43166466D01*
X61846400Y-43166466D01*
X61913066Y-43133133D01*
X61946400Y-43099800D01*
X61979733Y-43033133D01*
X61979733Y-42866466D01*
X61946400Y-42799800D01*
X61913066Y-42766466D01*
X61846400Y-42733133D01*
X61713066Y-42733133D01*
X61646400Y-42766466D01*
X61613066Y-42799800D01*
X61579733Y-42866466D01*
X60662400Y-47916266D02*
X60429066Y-47582933D01*
X60262400Y-47916266D02*
X60262400Y-47216266D01*
X60529066Y-47216266D01*
X60595733Y-47249600D01*
X60629066Y-47282933D01*
X60662400Y-47349600D01*
X60662400Y-47449600D01*
X60629066Y-47516266D01*
X60595733Y-47549600D01*
X60529066Y-47582933D01*
X60262400Y-47582933D01*
X61329066Y-47916266D02*
X60929066Y-47916266D01*
X61129066Y-47916266D02*
X61129066Y-47216266D01*
X61062400Y-47316266D01*
X60995733Y-47382933D01*
X60929066Y-47416266D01*
X61729066Y-47516266D02*
X61662400Y-47482933D01*
X61629066Y-47449600D01*
X61595733Y-47382933D01*
X61595733Y-47349600D01*
X61629066Y-47282933D01*
X61662400Y-47249600D01*
X61729066Y-47216266D01*
X61862400Y-47216266D01*
X61929066Y-47249600D01*
X61962400Y-47282933D01*
X61995733Y-47349600D01*
X61995733Y-47382933D01*
X61962400Y-47449600D01*
X61929066Y-47482933D01*
X61862400Y-47516266D01*
X61729066Y-47516266D01*
X61662400Y-47549600D01*
X61629066Y-47582933D01*
X61595733Y-47649600D01*
X61595733Y-47782933D01*
X61629066Y-47849600D01*
X61662400Y-47882933D01*
X61729066Y-47916266D01*
X61862400Y-47916266D01*
X61929066Y-47882933D01*
X61962400Y-47849600D01*
X61995733Y-47782933D01*
X61995733Y-47649600D01*
X61962400Y-47582933D01*
X61929066Y-47549600D01*
X61862400Y-47516266D01*
X72635333Y-21271666D02*
X72635333Y-20571666D01*
X72802000Y-20571666D01*
X72902000Y-20605000D01*
X72968666Y-20671666D01*
X73002000Y-20738333D01*
X73035333Y-20871666D01*
X73035333Y-20971666D01*
X73002000Y-21105000D01*
X72968666Y-21171666D01*
X72902000Y-21238333D01*
X72802000Y-21271666D01*
X72635333Y-21271666D01*
X73302000Y-20638333D02*
X73335333Y-20605000D01*
X73402000Y-20571666D01*
X73568666Y-20571666D01*
X73635333Y-20605000D01*
X73668666Y-20638333D01*
X73702000Y-20705000D01*
X73702000Y-20771666D01*
X73668666Y-20871666D01*
X73268666Y-21271666D01*
X73702000Y-21271666D01*
X60443200Y-67169466D02*
X60209866Y-66836133D01*
X60043200Y-67169466D02*
X60043200Y-66469466D01*
X60309866Y-66469466D01*
X60376533Y-66502800D01*
X60409866Y-66536133D01*
X60443200Y-66602800D01*
X60443200Y-66702800D01*
X60409866Y-66769466D01*
X60376533Y-66802800D01*
X60309866Y-66836133D01*
X60043200Y-66836133D01*
X60709866Y-66536133D02*
X60743200Y-66502800D01*
X60809866Y-66469466D01*
X60976533Y-66469466D01*
X61043200Y-66502800D01*
X61076533Y-66536133D01*
X61109866Y-66602800D01*
X61109866Y-66669466D01*
X61076533Y-66769466D01*
X60676533Y-67169466D01*
X61109866Y-67169466D01*
X61743200Y-66469466D02*
X61409866Y-66469466D01*
X61376533Y-66802800D01*
X61409866Y-66769466D01*
X61476533Y-66736133D01*
X61643200Y-66736133D01*
X61709866Y-66769466D01*
X61743200Y-66802800D01*
X61776533Y-66869466D01*
X61776533Y-67036133D01*
X61743200Y-67102800D01*
X61709866Y-67136133D01*
X61643200Y-67169466D01*
X61476533Y-67169466D01*
X61409866Y-67136133D01*
X61376533Y-67102800D01*
X60646400Y-46138266D02*
X60413066Y-45804933D01*
X60246400Y-46138266D02*
X60246400Y-45438266D01*
X60513066Y-45438266D01*
X60579733Y-45471600D01*
X60613066Y-45504933D01*
X60646400Y-45571600D01*
X60646400Y-45671600D01*
X60613066Y-45738266D01*
X60579733Y-45771600D01*
X60513066Y-45804933D01*
X60246400Y-45804933D01*
X61313066Y-46138266D02*
X60913066Y-46138266D01*
X61113066Y-46138266D02*
X61113066Y-45438266D01*
X61046400Y-45538266D01*
X60979733Y-45604933D01*
X60913066Y-45638266D01*
X61546400Y-45438266D02*
X62013066Y-45438266D01*
X61713066Y-46138266D01*
X70781133Y-116953466D02*
X70781133Y-116253466D01*
X70947800Y-116253466D01*
X71047800Y-116286800D01*
X71114466Y-116353466D01*
X71147800Y-116420133D01*
X71181133Y-116553466D01*
X71181133Y-116653466D01*
X71147800Y-116786800D01*
X71114466Y-116853466D01*
X71047800Y-116920133D01*
X70947800Y-116953466D01*
X70781133Y-116953466D01*
X71781133Y-116486800D02*
X71781133Y-116953466D01*
X71614466Y-116220133D02*
X71447800Y-116720133D01*
X71881133Y-116720133D01*
X47315466Y-36903866D02*
X47315466Y-37403866D01*
X47282133Y-37503866D01*
X47215466Y-37570533D01*
X47115466Y-37603866D01*
X47048800Y-37603866D01*
X47615466Y-36970533D02*
X47648800Y-36937200D01*
X47715466Y-36903866D01*
X47882133Y-36903866D01*
X47948800Y-36937200D01*
X47982133Y-36970533D01*
X48015466Y-37037200D01*
X48015466Y-37103866D01*
X47982133Y-37203866D01*
X47582133Y-37603866D01*
X48015466Y-37603866D01*
X61221200Y-30110866D02*
X60987866Y-29777533D01*
X60821200Y-30110866D02*
X60821200Y-29410866D01*
X61087866Y-29410866D01*
X61154533Y-29444200D01*
X61187866Y-29477533D01*
X61221200Y-29544200D01*
X61221200Y-29644200D01*
X61187866Y-29710866D01*
X61154533Y-29744200D01*
X61087866Y-29777533D01*
X60821200Y-29777533D01*
X61887866Y-30110866D02*
X61487866Y-30110866D01*
X61687866Y-30110866D02*
X61687866Y-29410866D01*
X61621200Y-29510866D01*
X61554533Y-29577533D01*
X61487866Y-29610866D01*
X62321200Y-29410866D02*
X62387866Y-29410866D01*
X62454533Y-29444200D01*
X62487866Y-29477533D01*
X62521200Y-29544200D01*
X62554533Y-29677533D01*
X62554533Y-29844200D01*
X62521200Y-29977533D01*
X62487866Y-30044200D01*
X62454533Y-30077533D01*
X62387866Y-30110866D01*
X62321200Y-30110866D01*
X62254533Y-30077533D01*
X62221200Y-30044200D01*
X62187866Y-29977533D01*
X62154533Y-29844200D01*
X62154533Y-29677533D01*
X62187866Y-29544200D01*
X62221200Y-29477533D01*
X62254533Y-29444200D01*
X62321200Y-29410866D01*
X61195800Y-33387466D02*
X60962466Y-33054133D01*
X60795800Y-33387466D02*
X60795800Y-32687466D01*
X61062466Y-32687466D01*
X61129133Y-32720800D01*
X61162466Y-32754133D01*
X61195800Y-32820800D01*
X61195800Y-32920800D01*
X61162466Y-32987466D01*
X61129133Y-33020800D01*
X61062466Y-33054133D01*
X60795800Y-33054133D01*
X61862466Y-33387466D02*
X61462466Y-33387466D01*
X61662466Y-33387466D02*
X61662466Y-32687466D01*
X61595800Y-32787466D01*
X61529133Y-32854133D01*
X61462466Y-32887466D01*
X62095800Y-32687466D02*
X62529133Y-32687466D01*
X62295800Y-32954133D01*
X62395800Y-32954133D01*
X62462466Y-32987466D01*
X62495800Y-33020800D01*
X62529133Y-33087466D01*
X62529133Y-33254133D01*
X62495800Y-33320800D01*
X62462466Y-33354133D01*
X62395800Y-33387466D01*
X62195800Y-33387466D01*
X62129133Y-33354133D01*
X62095800Y-33320800D01*
X60468600Y-71667066D02*
X60235266Y-71333733D01*
X60068600Y-71667066D02*
X60068600Y-70967066D01*
X60335266Y-70967066D01*
X60401933Y-71000400D01*
X60435266Y-71033733D01*
X60468600Y-71100400D01*
X60468600Y-71200400D01*
X60435266Y-71267066D01*
X60401933Y-71300400D01*
X60335266Y-71333733D01*
X60068600Y-71333733D01*
X60735266Y-71033733D02*
X60768600Y-71000400D01*
X60835266Y-70967066D01*
X61001933Y-70967066D01*
X61068600Y-71000400D01*
X61101933Y-71033733D01*
X61135266Y-71100400D01*
X61135266Y-71167066D01*
X61101933Y-71267066D01*
X60701933Y-71667066D01*
X61135266Y-71667066D01*
X61535266Y-71267066D02*
X61468600Y-71233733D01*
X61435266Y-71200400D01*
X61401933Y-71133733D01*
X61401933Y-71100400D01*
X61435266Y-71033733D01*
X61468600Y-71000400D01*
X61535266Y-70967066D01*
X61668600Y-70967066D01*
X61735266Y-71000400D01*
X61768600Y-71033733D01*
X61801933Y-71100400D01*
X61801933Y-71133733D01*
X61768600Y-71200400D01*
X61735266Y-71233733D01*
X61668600Y-71267066D01*
X61535266Y-71267066D01*
X61468600Y-71300400D01*
X61435266Y-71333733D01*
X61401933Y-71400400D01*
X61401933Y-71533733D01*
X61435266Y-71600400D01*
X61468600Y-71633733D01*
X61535266Y-71667066D01*
X61668600Y-71667066D01*
X61735266Y-71633733D01*
X61768600Y-71600400D01*
X61801933Y-71533733D01*
X61801933Y-71400400D01*
X61768600Y-71333733D01*
X61735266Y-71300400D01*
X61668600Y-71267066D01*
X60344733Y-119163266D02*
X60111400Y-118829933D01*
X59944733Y-119163266D02*
X59944733Y-118463266D01*
X60211400Y-118463266D01*
X60278066Y-118496600D01*
X60311400Y-118529933D01*
X60344733Y-118596600D01*
X60344733Y-118696600D01*
X60311400Y-118763266D01*
X60278066Y-118796600D01*
X60211400Y-118829933D01*
X59944733Y-118829933D01*
X60944733Y-118463266D02*
X60811400Y-118463266D01*
X60744733Y-118496600D01*
X60711400Y-118529933D01*
X60644733Y-118629933D01*
X60611400Y-118763266D01*
X60611400Y-119029933D01*
X60644733Y-119096600D01*
X60678066Y-119129933D01*
X60744733Y-119163266D01*
X60878066Y-119163266D01*
X60944733Y-119129933D01*
X60978066Y-119096600D01*
X61011400Y-119029933D01*
X61011400Y-118863266D01*
X60978066Y-118796600D01*
X60944733Y-118763266D01*
X60878066Y-118729933D01*
X60744733Y-118729933D01*
X60678066Y-118763266D01*
X60644733Y-118796600D01*
X60611400Y-118863266D01*
X60443200Y-126275266D02*
X60209866Y-125941933D01*
X60043200Y-126275266D02*
X60043200Y-125575266D01*
X60309866Y-125575266D01*
X60376533Y-125608600D01*
X60409866Y-125641933D01*
X60443200Y-125708600D01*
X60443200Y-125808600D01*
X60409866Y-125875266D01*
X60376533Y-125908600D01*
X60309866Y-125941933D01*
X60043200Y-125941933D01*
X61043200Y-125808600D02*
X61043200Y-126275266D01*
X60876533Y-125541933D02*
X60709866Y-126041933D01*
X61143200Y-126041933D01*
X61509866Y-125875266D02*
X61443200Y-125841933D01*
X61409866Y-125808600D01*
X61376533Y-125741933D01*
X61376533Y-125708600D01*
X61409866Y-125641933D01*
X61443200Y-125608600D01*
X61509866Y-125575266D01*
X61643200Y-125575266D01*
X61709866Y-125608600D01*
X61743200Y-125641933D01*
X61776533Y-125708600D01*
X61776533Y-125741933D01*
X61743200Y-125808600D01*
X61709866Y-125841933D01*
X61643200Y-125875266D01*
X61509866Y-125875266D01*
X61443200Y-125908600D01*
X61409866Y-125941933D01*
X61376533Y-126008600D01*
X61376533Y-126141933D01*
X61409866Y-126208600D01*
X61443200Y-126241933D01*
X61509866Y-126275266D01*
X61643200Y-126275266D01*
X61709866Y-126241933D01*
X61743200Y-126208600D01*
X61776533Y-126141933D01*
X61776533Y-126008600D01*
X61743200Y-125941933D01*
X61709866Y-125908600D01*
X61643200Y-125875266D01*
X66073133Y-100418066D02*
X66073133Y-99718066D01*
X66239800Y-99718066D01*
X66339800Y-99751400D01*
X66406466Y-99818066D01*
X66439800Y-99884733D01*
X66473133Y-100018066D01*
X66473133Y-100118066D01*
X66439800Y-100251400D01*
X66406466Y-100318066D01*
X66339800Y-100384733D01*
X66239800Y-100418066D01*
X66073133Y-100418066D01*
X67139800Y-100418066D02*
X66739800Y-100418066D01*
X66939800Y-100418066D02*
X66939800Y-99718066D01*
X66873133Y-99818066D01*
X66806466Y-99884733D01*
X66739800Y-99918066D01*
X47518666Y-56995266D02*
X47518666Y-57495266D01*
X47485333Y-57595266D01*
X47418666Y-57661933D01*
X47318666Y-57695266D01*
X47252000Y-57695266D01*
X47785333Y-56995266D02*
X48218666Y-56995266D01*
X47985333Y-57261933D01*
X48085333Y-57261933D01*
X48152000Y-57295266D01*
X48185333Y-57328600D01*
X48218666Y-57395266D01*
X48218666Y-57561933D01*
X48185333Y-57628600D01*
X48152000Y-57661933D01*
X48085333Y-57695266D01*
X47885333Y-57695266D01*
X47818666Y-57661933D01*
X47785333Y-57628600D01*
X60443200Y-65416866D02*
X60209866Y-65083533D01*
X60043200Y-65416866D02*
X60043200Y-64716866D01*
X60309866Y-64716866D01*
X60376533Y-64750200D01*
X60409866Y-64783533D01*
X60443200Y-64850200D01*
X60443200Y-64950200D01*
X60409866Y-65016866D01*
X60376533Y-65050200D01*
X60309866Y-65083533D01*
X60043200Y-65083533D01*
X60709866Y-64783533D02*
X60743200Y-64750200D01*
X60809866Y-64716866D01*
X60976533Y-64716866D01*
X61043200Y-64750200D01*
X61076533Y-64783533D01*
X61109866Y-64850200D01*
X61109866Y-64916866D01*
X61076533Y-65016866D01*
X60676533Y-65416866D01*
X61109866Y-65416866D01*
X61709866Y-64950200D02*
X61709866Y-65416866D01*
X61543200Y-64683533D02*
X61376533Y-65183533D01*
X61809866Y-65183533D01*
D11*
X56949600Y-68908600D02*
X56949600Y-66168600D01*
X49639600Y-67538600D02*
X50409600Y-67538600D01*
X50409600Y-68908600D02*
X56949600Y-68908600D01*
X56949600Y-66168600D02*
X50409600Y-66168600D01*
X57719600Y-67538600D02*
X56949600Y-67538600D01*
X50409600Y-66168600D02*
X50409600Y-68908600D01*
X57913400Y-48361600D02*
X57143400Y-48361600D01*
X50603400Y-46991600D02*
X50603400Y-49731600D01*
X57143400Y-49731600D02*
X57143400Y-46991600D01*
X57143400Y-46991600D02*
X50603400Y-46991600D01*
X50603400Y-49731600D02*
X57143400Y-49731600D01*
X49833400Y-48361600D02*
X50603400Y-48361600D01*
X56898800Y-120800800D02*
X56898800Y-118060800D01*
X49588800Y-119430800D02*
X50358800Y-119430800D01*
X50358800Y-120800800D02*
X56898800Y-120800800D01*
X50358800Y-118060800D02*
X50358800Y-120800800D01*
X56898800Y-118060800D02*
X50358800Y-118060800D01*
X57668800Y-119430800D02*
X56898800Y-119430800D01*
X51554600Y-17480600D02*
X51589600Y-17445600D01*
X68360600Y-14619600D02*
X47920600Y-14619600D01*
X68360600Y-23980600D02*
X68360600Y-14059600D01*
X56634600Y-17480600D02*
X56669600Y-17445600D01*
X47920600Y-23980600D02*
X47920600Y-14059600D01*
X51747600Y-17696600D02*
X51794600Y-17650600D01*
X54325600Y-19788600D02*
X54372600Y-19742600D01*
X68600600Y-14559600D02*
X68600600Y-13819600D01*
X68360600Y-14059600D02*
X47920600Y-14059600D01*
X59610600Y-19994600D02*
X59645600Y-19958600D01*
X61907600Y-17696600D02*
X61954600Y-17650600D01*
X61714600Y-17480600D02*
X61749600Y-17445600D01*
X54530600Y-19994600D02*
X54565600Y-19958600D01*
X68360600Y-23980600D02*
X47920600Y-23980600D01*
X68360600Y-21020600D02*
X47920600Y-21020600D01*
X49245600Y-19788600D02*
X49292600Y-19742600D01*
X56827600Y-17696600D02*
X56874600Y-17650600D01*
X59405600Y-19788600D02*
X59452600Y-19742600D01*
X68360600Y-16119600D02*
X47920600Y-16119600D01*
X49450600Y-19994600D02*
X49485600Y-19958600D01*
X68600600Y-13819600D02*
X68100600Y-13819600D01*
X67295600Y-19403600D02*
G75*
G03*
X67296027Y-18036558I-1534993J684001D01*
G01*
X65076600Y-20254600D02*
G75*
G03*
X66443642Y-20255027I684001J1534993D01*
G01*
X65760600Y-17039600D02*
G75*
G03*
X65077282Y-17184844I0J-1680000D01*
G01*
X66444600Y-17184600D02*
G75*
G03*
X65731795Y-17039347I-683999J-1535001D01*
G01*
X64225599Y-18035600D02*
G75*
G03*
X64225173Y-19402642I1535001J-684000D01*
G01*
X52200600Y-18719600D02*
G75*
G03*
X52200600Y-18719600I-1680000J0D01*
G01*
X62360600Y-18719600D02*
G75*
G03*
X62360600Y-18719600I-1680000J0D01*
G01*
X57280600Y-18719600D02*
G75*
G03*
X57280600Y-18719600I-1680000J0D01*
G01*
X70751863Y-20074800D02*
X72199337Y-20074800D01*
X70751863Y-17364800D02*
X72199337Y-17364800D01*
X50755800Y-33961400D02*
X50755800Y-36701400D01*
X57295800Y-33961400D02*
X50755800Y-33961400D01*
X57295800Y-36701400D02*
X57295800Y-33961400D01*
X50755800Y-36701400D02*
X57295800Y-36701400D01*
X49985800Y-35331400D02*
X50755800Y-35331400D01*
X58065800Y-35331400D02*
X57295800Y-35331400D01*
X54687736Y-35990200D02*
X55141864Y-35990200D01*
X54687736Y-34520200D02*
X55141864Y-34520200D01*
X57067200Y-110390000D02*
X50527200Y-110390000D01*
X50527200Y-110390000D02*
X50527200Y-113130000D01*
X57067200Y-113130000D02*
X57067200Y-110390000D01*
X57837200Y-111760000D02*
X57067200Y-111760000D01*
X50527200Y-113130000D02*
X57067200Y-113130000D01*
X49757200Y-111760000D02*
X50527200Y-111760000D01*
X53846464Y-104903600D02*
X53392336Y-104903600D01*
X53846464Y-106373600D02*
X53392336Y-106373600D01*
X57659400Y-79349600D02*
X56889400Y-79349600D01*
X56889400Y-80719600D02*
X56889400Y-77979600D01*
X50349400Y-80719600D02*
X56889400Y-80719600D01*
X50349400Y-77979600D02*
X50349400Y-80719600D01*
X49579400Y-79349600D02*
X50349400Y-79349600D01*
X56889400Y-77979600D02*
X50349400Y-77979600D01*
X57067200Y-101169800D02*
X50527200Y-101169800D01*
X50527200Y-101169800D02*
X50527200Y-103909800D01*
X57837200Y-102539800D02*
X57067200Y-102539800D01*
X50527200Y-103909800D02*
X57067200Y-103909800D01*
X49757200Y-102539800D02*
X50527200Y-102539800D01*
X57067200Y-103909800D02*
X57067200Y-101169800D01*
X50349400Y-87250600D02*
X50349400Y-89990600D01*
X57659400Y-88620600D02*
X56889400Y-88620600D01*
X56889400Y-87250600D02*
X50349400Y-87250600D01*
X50349400Y-89990600D02*
X56889400Y-89990600D01*
X56889400Y-89990600D02*
X56889400Y-87250600D01*
X49579400Y-88620600D02*
X50349400Y-88620600D01*
X70570000Y-128130137D02*
X70570000Y-126682663D01*
X67860000Y-128130137D02*
X67860000Y-126682663D01*
X72320200Y-77597000D02*
X74980200Y-77597000D01*
X72320200Y-75057000D02*
X74980200Y-75057000D01*
X74980200Y-88647000D02*
X80980200Y-88647000D01*
X71923129Y-81027000D02*
X72320200Y-81027000D01*
X69383129Y-78487000D02*
X69837271Y-78487000D01*
X69450200Y-65787000D02*
X69837271Y-65787000D01*
X80980200Y-83567000D02*
X80980200Y-84327000D01*
X69383129Y-79247000D02*
X69837271Y-79247000D01*
X80980200Y-86867000D02*
X74980200Y-86867000D01*
X69383129Y-88647000D02*
X69837271Y-88647000D01*
X69383129Y-70867000D02*
X69837271Y-70867000D01*
X71923129Y-83567000D02*
X72320200Y-83567000D01*
X71923129Y-86107000D02*
X72320200Y-86107000D01*
X80980200Y-73407000D02*
X80980200Y-74167000D01*
X69383129Y-81787000D02*
X69837271Y-81787000D01*
X69383129Y-86867000D02*
X69837271Y-86867000D01*
X71923129Y-76707000D02*
X72320200Y-76707000D01*
X74980200Y-90357000D02*
X74980200Y-64837000D01*
X71923129Y-79247000D02*
X72320200Y-79247000D01*
X72320200Y-87757000D02*
X74980200Y-87757000D01*
X80980200Y-88647000D02*
X80980200Y-89407000D01*
X71923129Y-84327000D02*
X72320200Y-84327000D01*
X80980200Y-69087000D02*
X74980200Y-69087000D01*
X80980200Y-74167000D02*
X74980200Y-74167000D01*
X72320200Y-85217000D02*
X74980200Y-85217000D01*
X80980200Y-70867000D02*
X80980200Y-71627000D01*
X71923129Y-86867000D02*
X72320200Y-86867000D01*
X69383129Y-74167000D02*
X69837271Y-74167000D01*
X67070200Y-66167000D02*
X67070200Y-64897000D01*
X74980200Y-65847000D02*
X80980200Y-65847000D01*
X74980200Y-68327000D02*
X80980200Y-68327000D01*
X69383129Y-86107000D02*
X69837271Y-86107000D01*
X71923129Y-89407000D02*
X72320200Y-89407000D01*
X80980200Y-79247000D02*
X74980200Y-79247000D01*
X69383129Y-76707000D02*
X69837271Y-76707000D01*
X71923129Y-70867000D02*
X72320200Y-70867000D01*
X72320200Y-72517000D02*
X74980200Y-72517000D01*
X69383129Y-83567000D02*
X69837271Y-83567000D01*
X74980200Y-65967000D02*
X80980200Y-65967000D01*
X71923129Y-71627000D02*
X72320200Y-71627000D01*
X74980200Y-83567000D02*
X80980200Y-83567000D01*
X69383129Y-89407000D02*
X69837271Y-89407000D01*
X72320200Y-90357000D02*
X74980200Y-90357000D01*
X80980200Y-86107000D02*
X80980200Y-86867000D01*
X74980200Y-81027000D02*
X80980200Y-81027000D01*
X74980200Y-66327000D02*
X80980200Y-66327000D01*
X71923129Y-66547000D02*
X72320200Y-66547000D01*
X69383129Y-71627000D02*
X69837271Y-71627000D01*
X72320200Y-67437000D02*
X74980200Y-67437000D01*
X80980200Y-65787000D02*
X80980200Y-66547000D01*
X69450200Y-66547000D02*
X69837271Y-66547000D01*
X72320200Y-80137000D02*
X74980200Y-80137000D01*
X69383129Y-73407000D02*
X69837271Y-73407000D01*
X69383129Y-69087000D02*
X69837271Y-69087000D01*
X74980200Y-66447000D02*
X80980200Y-66447000D01*
X80980200Y-84327000D02*
X74980200Y-84327000D01*
X80980200Y-81027000D02*
X80980200Y-81787000D01*
X72320200Y-64837000D02*
X72320200Y-90357000D01*
X80980200Y-75947000D02*
X80980200Y-76707000D01*
X72320200Y-69977000D02*
X74980200Y-69977000D01*
X67070200Y-64897000D02*
X68340200Y-64897000D01*
X80980200Y-68327000D02*
X80980200Y-69087000D01*
X74980200Y-64837000D02*
X72320200Y-64837000D01*
X71923129Y-68327000D02*
X72320200Y-68327000D01*
X69383129Y-84327000D02*
X69837271Y-84327000D01*
X80980200Y-81787000D02*
X74980200Y-81787000D01*
X69383129Y-68327000D02*
X69837271Y-68327000D01*
X74980200Y-73407000D02*
X80980200Y-73407000D01*
X71923129Y-74167000D02*
X72320200Y-74167000D01*
X80980200Y-71627000D02*
X74980200Y-71627000D01*
X71923129Y-69087000D02*
X72320200Y-69087000D01*
X74980200Y-66207000D02*
X80980200Y-66207000D01*
X71923129Y-88647000D02*
X72320200Y-88647000D01*
X74980200Y-78487000D02*
X80980200Y-78487000D01*
X74980200Y-70867000D02*
X80980200Y-70867000D01*
X74980200Y-86107000D02*
X80980200Y-86107000D01*
X71923129Y-81787000D02*
X72320200Y-81787000D01*
X80980200Y-89407000D02*
X74980200Y-89407000D01*
X74980200Y-75947000D02*
X80980200Y-75947000D01*
X72320200Y-82677000D02*
X74980200Y-82677000D01*
X69383129Y-81027000D02*
X69837271Y-81027000D01*
X69383129Y-75947000D02*
X69837271Y-75947000D01*
X71923129Y-75947000D02*
X72320200Y-75947000D01*
X80980200Y-78487000D02*
X80980200Y-79247000D01*
X80980200Y-66547000D02*
X74980200Y-66547000D01*
X71923129Y-65787000D02*
X72320200Y-65787000D01*
X71923129Y-73407000D02*
X72320200Y-73407000D01*
X80980200Y-76707000D02*
X74980200Y-76707000D01*
X74980200Y-65787000D02*
X80980200Y-65787000D01*
X71923129Y-78487000D02*
X72320200Y-78487000D01*
X74980200Y-66087000D02*
X80980200Y-66087000D01*
X54862464Y-28424200D02*
X54408336Y-28424200D01*
X54862464Y-29894200D02*
X54408336Y-29894200D01*
X53392336Y-124842600D02*
X53846464Y-124842600D01*
X53392336Y-126312600D02*
X53846464Y-126312600D01*
X49579400Y-85496400D02*
X50349400Y-85496400D01*
X56889400Y-86866400D02*
X56889400Y-84126400D01*
X56889400Y-84126400D02*
X50349400Y-84126400D01*
X57659400Y-85496400D02*
X56889400Y-85496400D01*
X50349400Y-84126400D02*
X50349400Y-86866400D01*
X50349400Y-86866400D02*
X56889400Y-86866400D01*
X53427136Y-127916000D02*
X53881264Y-127916000D01*
X53427136Y-129386000D02*
X53881264Y-129386000D01*
X53855864Y-81738800D02*
X53401736Y-81738800D01*
X53855864Y-83208800D02*
X53401736Y-83208800D01*
X69343536Y-103046200D02*
X69797664Y-103046200D01*
X69343536Y-101576200D02*
X69797664Y-101576200D01*
X49598200Y-128651000D02*
X50368200Y-128651000D01*
X56908200Y-127281000D02*
X50368200Y-127281000D01*
X50368200Y-127281000D02*
X50368200Y-130021000D01*
X56908200Y-130021000D02*
X56908200Y-127281000D01*
X57678200Y-128651000D02*
X56908200Y-128651000D01*
X50368200Y-130021000D02*
X56908200Y-130021000D01*
X49579400Y-82423000D02*
X50349400Y-82423000D01*
X56889400Y-81053000D02*
X50349400Y-81053000D01*
X50349400Y-81053000D02*
X50349400Y-83793000D01*
X50349400Y-83793000D02*
X56889400Y-83793000D01*
X56889400Y-83793000D02*
X56889400Y-81053000D01*
X57659400Y-82423000D02*
X56889400Y-82423000D01*
X57913400Y-51435000D02*
X57143400Y-51435000D01*
X57143400Y-52805000D02*
X57143400Y-50065000D01*
X49833400Y-51435000D02*
X50603400Y-51435000D01*
X50603400Y-52805000D02*
X57143400Y-52805000D01*
X50603400Y-50065000D02*
X50603400Y-52805000D01*
X57143400Y-50065000D02*
X50603400Y-50065000D01*
X62865200Y-124045600D02*
X66750200Y-124045600D01*
X66750200Y-121775600D02*
X62865200Y-121775600D01*
X66750200Y-124045600D02*
X66750200Y-121775600D01*
X53922664Y-62101400D02*
X53468536Y-62101400D01*
X53922664Y-60631400D02*
X53468536Y-60631400D01*
X64507200Y-128155537D02*
X64507200Y-126708063D01*
X67217200Y-128155537D02*
X67217200Y-126708063D01*
X54227464Y-42899000D02*
X53773336Y-42899000D01*
X54227464Y-41429000D02*
X53773336Y-41429000D01*
X42880200Y-27901800D02*
X42844200Y-27866800D01*
X39005200Y-14071800D02*
X39005200Y-34511800D01*
X46866200Y-14071800D02*
X46866200Y-34511800D01*
X43906200Y-14071800D02*
X43906200Y-34511800D01*
X42674200Y-33186800D02*
X42628200Y-33139800D01*
X46866200Y-34511800D02*
X36945200Y-34511800D01*
X40366200Y-30877800D02*
X40331200Y-30842800D01*
X42880200Y-32981800D02*
X42844200Y-32946800D01*
X40366200Y-20717800D02*
X40331200Y-20682800D01*
X36945200Y-14071800D02*
X36945200Y-34511800D01*
X42674200Y-23026800D02*
X42628200Y-22979800D01*
X42674200Y-28106800D02*
X42628200Y-28059800D01*
X40582200Y-25604800D02*
X40536200Y-25557800D01*
X40582200Y-30684800D02*
X40536200Y-30637800D01*
X46866200Y-14071800D02*
X36945200Y-14071800D01*
X42880200Y-22821800D02*
X42844200Y-22786800D01*
X40366200Y-25797800D02*
X40331200Y-25762800D01*
X36705200Y-13831800D02*
X36705200Y-14331800D01*
X40582200Y-20524800D02*
X40536200Y-20477800D01*
X37505200Y-14071800D02*
X37505200Y-34511800D01*
X37445200Y-13831800D02*
X36705200Y-13831800D01*
X39925200Y-16671800D02*
G75*
G03*
X40070444Y-17355118I1680000J0D01*
G01*
X40070200Y-15987800D02*
G75*
G03*
X39924947Y-16700605I1535001J-683999D01*
G01*
X40921200Y-18206801D02*
G75*
G03*
X42288242Y-18207227I684000J1535001D01*
G01*
X43140200Y-17355800D02*
G75*
G03*
X43140627Y-15988758I-1534993J684001D01*
G01*
X42289200Y-15136800D02*
G75*
G03*
X40922158Y-15136373I-684001J-1534993D01*
G01*
X43285200Y-26831800D02*
G75*
G03*
X43285200Y-26831800I-1680000J0D01*
G01*
X43285200Y-21751800D02*
G75*
G03*
X43285200Y-21751800I-1680000J0D01*
G01*
X43285200Y-31911800D02*
G75*
G03*
X43285200Y-31911800I-1680000J0D01*
G01*
X54303664Y-44527800D02*
X53849536Y-44527800D01*
X54303664Y-45997800D02*
X53849536Y-45997800D01*
X53392336Y-107900800D02*
X53846464Y-107900800D01*
X53392336Y-109370800D02*
X53846464Y-109370800D01*
X46866200Y-78045000D02*
X46866200Y-98485000D01*
X42674200Y-92080000D02*
X42628200Y-92033000D01*
X36705200Y-77805000D02*
X36705200Y-78305000D01*
X40366200Y-94851000D02*
X40331200Y-94816000D01*
X40366200Y-89771000D02*
X40331200Y-89736000D01*
X40582200Y-94658000D02*
X40536200Y-94611000D01*
X36945200Y-78045000D02*
X36945200Y-98485000D01*
X42880200Y-96955000D02*
X42844200Y-96920000D01*
X40582200Y-89578000D02*
X40536200Y-89531000D01*
X46866200Y-98485000D02*
X36945200Y-98485000D01*
X43906200Y-78045000D02*
X43906200Y-98485000D01*
X40366200Y-84691000D02*
X40331200Y-84656000D01*
X40582200Y-84498000D02*
X40536200Y-84451000D01*
X39005200Y-78045000D02*
X39005200Y-98485000D01*
X46866200Y-78045000D02*
X36945200Y-78045000D01*
X37505200Y-78045000D02*
X37505200Y-98485000D01*
X42880200Y-91875000D02*
X42844200Y-91840000D01*
X37445200Y-77805000D02*
X36705200Y-77805000D01*
X42880200Y-86795000D02*
X42844200Y-86760000D01*
X42674200Y-97160000D02*
X42628200Y-97113000D01*
X42674200Y-87000000D02*
X42628200Y-86953000D01*
X40921200Y-82180001D02*
G75*
G03*
X42288242Y-82180427I684000J1535001D01*
G01*
X43140200Y-81329000D02*
G75*
G03*
X43140627Y-79961958I-1534993J684001D01*
G01*
X42289200Y-79110000D02*
G75*
G03*
X40922158Y-79109573I-684001J-1534993D01*
G01*
X40070200Y-79961000D02*
G75*
G03*
X39924947Y-80673805I1535001J-683999D01*
G01*
X39925200Y-80645000D02*
G75*
G03*
X40070444Y-81328318I1680000J0D01*
G01*
X43285200Y-85725000D02*
G75*
G03*
X43285200Y-85725000I-1680000J0D01*
G01*
X43285200Y-95885000D02*
G75*
G03*
X43285200Y-95885000I-1680000J0D01*
G01*
X43285200Y-90805000D02*
G75*
G03*
X43285200Y-90805000I-1680000J0D01*
G01*
X53871864Y-121794600D02*
X53417736Y-121794600D01*
X53871864Y-123264600D02*
X53417736Y-123264600D01*
X53957464Y-65174800D02*
X53503336Y-65174800D01*
X53957464Y-63704800D02*
X53503336Y-63704800D01*
X42880200Y-129441600D02*
X42844200Y-129406600D01*
X39005200Y-120691600D02*
X39005200Y-141131600D01*
X40582200Y-132224600D02*
X40536200Y-132177600D01*
X46866200Y-120691600D02*
X36945200Y-120691600D01*
X37505200Y-120691600D02*
X37505200Y-141131600D01*
X37445200Y-120451600D02*
X36705200Y-120451600D01*
X40366200Y-137497600D02*
X40331200Y-137462600D01*
X40582200Y-127144600D02*
X40536200Y-127097600D01*
X42674200Y-139806600D02*
X42628200Y-139759600D01*
X40366200Y-127337600D02*
X40331200Y-127302600D01*
X36945200Y-120691600D02*
X36945200Y-141131600D01*
X42674200Y-134726600D02*
X42628200Y-134679600D01*
X36705200Y-120451600D02*
X36705200Y-120951600D01*
X46866200Y-120691600D02*
X46866200Y-141131600D01*
X40582200Y-137304600D02*
X40536200Y-137257600D01*
X42674200Y-129646600D02*
X42628200Y-129599600D01*
X42880200Y-134521600D02*
X42844200Y-134486600D01*
X43906200Y-120691600D02*
X43906200Y-141131600D01*
X42880200Y-139601600D02*
X42844200Y-139566600D01*
X40366200Y-132417600D02*
X40331200Y-132382600D01*
X46866200Y-141131600D02*
X36945200Y-141131600D01*
X40070200Y-122607600D02*
G75*
G03*
X39924947Y-123320405I1535001J-683999D01*
G01*
X42289200Y-121756600D02*
G75*
G03*
X40922158Y-121756173I-684001J-1534993D01*
G01*
X43140200Y-123975600D02*
G75*
G03*
X43140627Y-122608558I-1534993J684001D01*
G01*
X40921200Y-124826601D02*
G75*
G03*
X42288242Y-124827027I684000J1535001D01*
G01*
X39925200Y-123291600D02*
G75*
G03*
X40070444Y-123974918I1680000J0D01*
G01*
X43285200Y-128371600D02*
G75*
G03*
X43285200Y-128371600I-1680000J0D01*
G01*
X43285200Y-138531600D02*
G75*
G03*
X43285200Y-138531600I-1680000J0D01*
G01*
X43285200Y-133451600D02*
G75*
G03*
X43285200Y-133451600I-1680000J0D01*
G01*
X53900336Y-52144600D02*
X54354464Y-52144600D01*
X53900336Y-50674600D02*
X54354464Y-50674600D01*
X53443136Y-87834800D02*
X53897264Y-87834800D01*
X53443136Y-89304800D02*
X53897264Y-89304800D01*
X64482800Y-137497200D02*
X64435800Y-137543200D01*
X61699800Y-135199200D02*
X61664800Y-135235200D01*
X68309800Y-131213200D02*
X68309800Y-141134200D01*
X47869800Y-139074200D02*
X68309800Y-139074200D01*
X64675800Y-137713200D02*
X64640800Y-137748200D01*
X54515800Y-137713200D02*
X54480800Y-137748200D01*
X47629800Y-141374200D02*
X48129800Y-141374200D01*
X66779800Y-135199200D02*
X66744800Y-135235200D01*
X47869800Y-131213200D02*
X68309800Y-131213200D01*
X59595800Y-137713200D02*
X59560800Y-137748200D01*
X47869800Y-131213200D02*
X47869800Y-141134200D01*
X47869800Y-141134200D02*
X68309800Y-141134200D01*
X56619800Y-135199200D02*
X56584800Y-135235200D01*
X47869800Y-134173200D02*
X68309800Y-134173200D01*
X47869800Y-140574200D02*
X68309800Y-140574200D01*
X54322800Y-137497200D02*
X54275800Y-137543200D01*
X66984800Y-135405200D02*
X66937800Y-135451200D01*
X47629800Y-140634200D02*
X47629800Y-141374200D01*
X61904800Y-135405200D02*
X61857800Y-135451200D01*
X56824800Y-135405200D02*
X56777800Y-135451200D01*
X59402800Y-137497200D02*
X59355800Y-137543200D01*
X51153800Y-134939200D02*
G75*
G03*
X49786758Y-134938773I-684001J-1534993D01*
G01*
X50469800Y-138154200D02*
G75*
G03*
X51153118Y-138008956I0J1680000D01*
G01*
X48934800Y-135790200D02*
G75*
G03*
X48934373Y-137157242I1534993J-684001D01*
G01*
X52004801Y-137158200D02*
G75*
G03*
X52005227Y-135791158I-1535001J684000D01*
G01*
X49785800Y-138009200D02*
G75*
G03*
X50498605Y-138154453I683999J1535001D01*
G01*
X62309800Y-136474200D02*
G75*
G03*
X62309800Y-136474200I-1680000J0D01*
G01*
X67389800Y-136474200D02*
G75*
G03*
X67389800Y-136474200I-1680000J0D01*
G01*
X57229800Y-136474200D02*
G75*
G03*
X57229800Y-136474200I-1680000J0D01*
G01*
X49639600Y-61366400D02*
X50409600Y-61366400D01*
X57719600Y-61366400D02*
X56949600Y-61366400D01*
X50409600Y-62736400D02*
X56949600Y-62736400D01*
X50409600Y-59996400D02*
X50409600Y-62736400D01*
X56949600Y-62736400D02*
X56949600Y-59996400D01*
X56949600Y-59996400D02*
X50409600Y-59996400D01*
X40582200Y-110914000D02*
X40536200Y-110867000D01*
X37505200Y-99381000D02*
X37505200Y-119821000D01*
X46866200Y-99381000D02*
X46866200Y-119821000D01*
X36705200Y-99141000D02*
X36705200Y-99641000D01*
X40366200Y-116187000D02*
X40331200Y-116152000D01*
X40366200Y-106027000D02*
X40331200Y-105992000D01*
X36945200Y-99381000D02*
X36945200Y-119821000D01*
X42674200Y-108336000D02*
X42628200Y-108289000D01*
X42674200Y-118496000D02*
X42628200Y-118449000D01*
X40366200Y-111107000D02*
X40331200Y-111072000D01*
X40582200Y-115994000D02*
X40536200Y-115947000D01*
X46866200Y-99381000D02*
X36945200Y-99381000D01*
X42880200Y-118291000D02*
X42844200Y-118256000D01*
X40582200Y-105834000D02*
X40536200Y-105787000D01*
X37445200Y-99141000D02*
X36705200Y-99141000D01*
X46866200Y-119821000D02*
X36945200Y-119821000D01*
X39005200Y-99381000D02*
X39005200Y-119821000D01*
X42880200Y-113211000D02*
X42844200Y-113176000D01*
X42674200Y-113416000D02*
X42628200Y-113369000D01*
X43906200Y-99381000D02*
X43906200Y-119821000D01*
X42880200Y-108131000D02*
X42844200Y-108096000D01*
X39925200Y-101981000D02*
G75*
G03*
X40070444Y-102664318I1680000J0D01*
G01*
X43140200Y-102665000D02*
G75*
G03*
X43140627Y-101297958I-1534993J684001D01*
G01*
X40070200Y-101297000D02*
G75*
G03*
X39924947Y-102009805I1535001J-683999D01*
G01*
X40921200Y-103516001D02*
G75*
G03*
X42288242Y-103516427I684000J1535001D01*
G01*
X42289200Y-100446000D02*
G75*
G03*
X40922158Y-100445573I-684001J-1534993D01*
G01*
X43285200Y-112141000D02*
G75*
G03*
X43285200Y-112141000I-1680000J0D01*
G01*
X43285200Y-117221000D02*
G75*
G03*
X43285200Y-117221000I-1680000J0D01*
G01*
X43285200Y-107061000D02*
G75*
G03*
X43285200Y-107061000I-1680000J0D01*
G01*
X58065800Y-26111200D02*
X57295800Y-26111200D01*
X50755800Y-27481200D02*
X57295800Y-27481200D01*
X50755800Y-24741200D02*
X50755800Y-27481200D01*
X57295800Y-27481200D02*
X57295800Y-24741200D01*
X57295800Y-24741200D02*
X50755800Y-24741200D01*
X49985800Y-26111200D02*
X50755800Y-26111200D01*
X53503336Y-71347000D02*
X53957464Y-71347000D01*
X53503336Y-69877000D02*
X53957464Y-69877000D01*
X53417736Y-84761400D02*
X53871864Y-84761400D01*
X53417736Y-86231400D02*
X53871864Y-86231400D01*
X57067200Y-107316600D02*
X50527200Y-107316600D01*
X50527200Y-110056600D02*
X57067200Y-110056600D01*
X57837200Y-108686600D02*
X57067200Y-108686600D01*
X49757200Y-108686600D02*
X50527200Y-108686600D01*
X57067200Y-110056600D02*
X57067200Y-107316600D01*
X50527200Y-107316600D02*
X50527200Y-110056600D01*
X53341536Y-111050400D02*
X53795664Y-111050400D01*
X53341536Y-112520400D02*
X53795664Y-112520400D01*
X54862464Y-25401600D02*
X54408336Y-25401600D01*
X54862464Y-26871600D02*
X54408336Y-26871600D01*
X53964064Y-103249400D02*
X53509936Y-103249400D01*
X53964064Y-101779400D02*
X53509936Y-101779400D01*
X54662336Y-32942200D02*
X55116464Y-32942200D01*
X54662336Y-31472200D02*
X55116464Y-31472200D01*
X53862464Y-80084600D02*
X53408336Y-80084600D01*
X53862464Y-78614600D02*
X53408336Y-78614600D01*
X49588800Y-122504200D02*
X50358800Y-122504200D01*
X50358800Y-123874200D02*
X56898800Y-123874200D01*
X57668800Y-122504200D02*
X56898800Y-122504200D01*
X50358800Y-121134200D02*
X50358800Y-123874200D01*
X56898800Y-121134200D02*
X50358800Y-121134200D01*
X56898800Y-123874200D02*
X56898800Y-121134200D01*
X50527200Y-104268600D02*
X50527200Y-107008600D01*
X57067200Y-104268600D02*
X50527200Y-104268600D01*
X50527200Y-107008600D02*
X57067200Y-107008600D01*
X57067200Y-107008600D02*
X57067200Y-104268600D01*
X49757200Y-105638600D02*
X50527200Y-105638600D01*
X57837200Y-105638600D02*
X57067200Y-105638600D01*
X49833400Y-42189400D02*
X50603400Y-42189400D01*
X50603400Y-43559400D02*
X57143400Y-43559400D01*
X57143400Y-40819400D02*
X50603400Y-40819400D01*
X57913400Y-42189400D02*
X57143400Y-42189400D01*
X57143400Y-43559400D02*
X57143400Y-40819400D01*
X50603400Y-40819400D02*
X50603400Y-43559400D01*
X53849536Y-47626600D02*
X54303664Y-47626600D01*
X53849536Y-49096600D02*
X54303664Y-49096600D01*
X70031000Y-16933800D02*
X73916000Y-16933800D01*
X73916000Y-16933800D02*
X73916000Y-14663800D01*
X73916000Y-14663800D02*
X70031000Y-14663800D01*
X53452536Y-66803600D02*
X53906664Y-66803600D01*
X53452536Y-68273600D02*
X53906664Y-68273600D01*
X50603400Y-43892800D02*
X50603400Y-46632800D01*
X49833400Y-45262800D02*
X50603400Y-45262800D01*
X57913400Y-45262800D02*
X57143400Y-45262800D01*
X57143400Y-46632800D02*
X57143400Y-43892800D01*
X50603400Y-46632800D02*
X57143400Y-46632800D01*
X57143400Y-43892800D02*
X50603400Y-43892800D01*
X70375400Y-118947200D02*
X70375400Y-115062200D01*
X68105400Y-118947200D02*
X70375400Y-118947200D01*
X68105400Y-115062200D02*
X68105400Y-118947200D01*
X36945400Y-35382400D02*
X36945400Y-55822400D01*
X46866400Y-55822400D02*
X36945400Y-55822400D01*
X46866400Y-35382400D02*
X46866400Y-55822400D01*
X42674400Y-49417400D02*
X42628400Y-49370400D01*
X36705400Y-35142400D02*
X36705400Y-35642400D01*
X46866400Y-35382400D02*
X36945400Y-35382400D01*
X40366400Y-42028400D02*
X40331400Y-41993400D01*
X40366400Y-52188400D02*
X40331400Y-52153400D01*
X40366400Y-47108400D02*
X40331400Y-47073400D01*
X37505400Y-35382400D02*
X37505400Y-55822400D01*
X40582400Y-41835400D02*
X40536400Y-41788400D01*
X40582400Y-51995400D02*
X40536400Y-51948400D01*
X42674400Y-44337400D02*
X42628400Y-44290400D01*
X40582400Y-46915400D02*
X40536400Y-46868400D01*
X37445400Y-35142400D02*
X36705400Y-35142400D01*
X42674400Y-54497400D02*
X42628400Y-54450400D01*
X42880400Y-49212400D02*
X42844400Y-49177400D01*
X42880400Y-54292400D02*
X42844400Y-54257400D01*
X43906400Y-35382400D02*
X43906400Y-55822400D01*
X42880400Y-44132400D02*
X42844400Y-44097400D01*
X39005400Y-35382400D02*
X39005400Y-55822400D01*
X43140400Y-38666400D02*
G75*
G03*
X43140827Y-37299358I-1534993J684001D01*
G01*
X42289400Y-36447400D02*
G75*
G03*
X40922358Y-36446973I-684001J-1534993D01*
G01*
X39925400Y-37982400D02*
G75*
G03*
X40070644Y-38665718I1680000J0D01*
G01*
X40921400Y-39517401D02*
G75*
G03*
X42288442Y-39517827I684000J1535001D01*
G01*
X40070400Y-37298400D02*
G75*
G03*
X39925147Y-38011205I1535001J-683999D01*
G01*
X43285400Y-53222400D02*
G75*
G03*
X43285400Y-53222400I-1680000J0D01*
G01*
X43285400Y-48142400D02*
G75*
G03*
X43285400Y-48142400I-1680000J0D01*
G01*
X43285400Y-43062400D02*
G75*
G03*
X43285400Y-43062400I-1680000J0D01*
G01*
X58065800Y-29184600D02*
X57295800Y-29184600D01*
X57295800Y-30554600D02*
X57295800Y-27814600D01*
X50755800Y-27814600D02*
X50755800Y-30554600D01*
X49985800Y-29184600D02*
X50755800Y-29184600D01*
X50755800Y-30554600D02*
X57295800Y-30554600D01*
X57295800Y-27814600D02*
X50755800Y-27814600D01*
X49985800Y-32258000D02*
X50755800Y-32258000D01*
X57295800Y-30888000D02*
X50755800Y-30888000D01*
X50755800Y-30888000D02*
X50755800Y-33628000D01*
X50755800Y-33628000D02*
X57295800Y-33628000D01*
X57295800Y-33628000D02*
X57295800Y-30888000D01*
X58065800Y-32258000D02*
X57295800Y-32258000D01*
X56957000Y-69242000D02*
X50417000Y-69242000D01*
X50417000Y-71982000D02*
X56957000Y-71982000D01*
X57727000Y-70612000D02*
X56957000Y-70612000D01*
X50417000Y-69242000D02*
X50417000Y-71982000D01*
X49647000Y-70612000D02*
X50417000Y-70612000D01*
X56957000Y-71982000D02*
X56957000Y-69242000D01*
X53855864Y-120191200D02*
X53401736Y-120191200D01*
X53855864Y-118721200D02*
X53401736Y-118721200D01*
X56898800Y-124207600D02*
X50358800Y-124207600D01*
X49588800Y-125577600D02*
X50358800Y-125577600D01*
X50358800Y-124207600D02*
X50358800Y-126947600D01*
X50358800Y-126947600D02*
X56898800Y-126947600D01*
X57668800Y-125577600D02*
X56898800Y-125577600D01*
X56898800Y-126947600D02*
X56898800Y-124207600D01*
X70587000Y-99166800D02*
X67727000Y-99166800D01*
X67727000Y-99166800D02*
X67727000Y-101086800D01*
X67727000Y-101086800D02*
X70587000Y-101086800D01*
X37445200Y-56478400D02*
X36705200Y-56478400D01*
X42880200Y-70548400D02*
X42844200Y-70513400D01*
X46866200Y-77158400D02*
X36945200Y-77158400D01*
X42880200Y-75628400D02*
X42844200Y-75593400D01*
X42674200Y-65673400D02*
X42628200Y-65626400D01*
X40366200Y-73524400D02*
X40331200Y-73489400D01*
X42674200Y-75833400D02*
X42628200Y-75786400D01*
X36705200Y-56478400D02*
X36705200Y-56978400D01*
X36945200Y-56718400D02*
X36945200Y-77158400D01*
X42880200Y-65468400D02*
X42844200Y-65433400D01*
X40366200Y-63364400D02*
X40331200Y-63329400D01*
X43906200Y-56718400D02*
X43906200Y-77158400D01*
X40582200Y-73331400D02*
X40536200Y-73284400D01*
X39005200Y-56718400D02*
X39005200Y-77158400D01*
X37505200Y-56718400D02*
X37505200Y-77158400D01*
X46866200Y-56718400D02*
X46866200Y-77158400D01*
X42674200Y-70753400D02*
X42628200Y-70706400D01*
X40366200Y-68444400D02*
X40331200Y-68409400D01*
X46866200Y-56718400D02*
X36945200Y-56718400D01*
X40582200Y-68251400D02*
X40536200Y-68204400D01*
X40582200Y-63171400D02*
X40536200Y-63124400D01*
X40070200Y-58634400D02*
G75*
G03*
X39924947Y-59347205I1535001J-683999D01*
G01*
X43140200Y-60002400D02*
G75*
G03*
X43140627Y-58635358I-1534993J684001D01*
G01*
X42289200Y-57783400D02*
G75*
G03*
X40922158Y-57782973I-684001J-1534993D01*
G01*
X40921200Y-60853401D02*
G75*
G03*
X42288242Y-60853827I684000J1535001D01*
G01*
X39925200Y-59318400D02*
G75*
G03*
X40070444Y-60001718I1680000J0D01*
G01*
X43285200Y-69478400D02*
G75*
G03*
X43285200Y-69478400I-1680000J0D01*
G01*
X43285200Y-64398400D02*
G75*
G03*
X43285200Y-64398400I-1680000J0D01*
G01*
X43285200Y-74558400D02*
G75*
G03*
X43285200Y-74558400I-1680000J0D01*
G01*
X50409600Y-63069800D02*
X50409600Y-65809800D01*
X50409600Y-65809800D02*
X56949600Y-65809800D01*
X56949600Y-65809800D02*
X56949600Y-63069800D01*
X57719600Y-64439800D02*
X56949600Y-64439800D01*
X49639600Y-64439800D02*
X50409600Y-64439800D01*
X56949600Y-63069800D02*
X50409600Y-63069800D01*
%LPC*%
D12*
X48599600Y-67538600D03*
D13*
X58759600Y-67538600D03*
D12*
X48793400Y-48361600D03*
D13*
X58953400Y-48361600D03*
D12*
X58708800Y-119430800D03*
D13*
X48548800Y-119430800D03*
D14*
X65760600Y-18719600D03*
D15*
X60680600Y-18719600D03*
X55600600Y-18719600D03*
X50520600Y-18719600D03*
D16*
X69925600Y-18719800D03*
X73025600Y-18719800D03*
D12*
X48945800Y-35331400D03*
D13*
X59105800Y-35331400D03*
D17*
X53914800Y-35255200D03*
X55914800Y-35255200D03*
D12*
X48717200Y-111760000D03*
D13*
X58877200Y-111760000D03*
D18*
X54619400Y-105638600D03*
X52619400Y-105638600D03*
D12*
X58699400Y-79349600D03*
D13*
X48539400Y-79349600D03*
D12*
X58877200Y-102539800D03*
D13*
X48717200Y-102539800D03*
D19*
X53568600Y-55727600D03*
D12*
X48539400Y-88620600D03*
D13*
X58699400Y-88620600D03*
D20*
X69215000Y-128956400D03*
X69215000Y-125856400D03*
D21*
X68340200Y-66167000D03*
D22*
X70880200Y-66167000D03*
X68340200Y-68707000D03*
X70880200Y-68707000D03*
X68340200Y-71247000D03*
X70880200Y-71247000D03*
X68340200Y-73787000D03*
X70880200Y-73787000D03*
X68340200Y-76327000D03*
X70880200Y-76327000D03*
X68340200Y-78867000D03*
X70880200Y-78867000D03*
X68340200Y-81407000D03*
X70880200Y-81407000D03*
X68340200Y-83947000D03*
X70880200Y-83947000D03*
X68340200Y-86487000D03*
X70880200Y-86487000D03*
X68340200Y-89027000D03*
X70880200Y-89027000D03*
D18*
X55635400Y-29159200D03*
X53635400Y-29159200D03*
D17*
X52619400Y-125577600D03*
X54619400Y-125577600D03*
D12*
X48539400Y-85496400D03*
D13*
X58699400Y-85496400D03*
D17*
X52654200Y-128651000D03*
X54654200Y-128651000D03*
D18*
X54628800Y-82473800D03*
X52628800Y-82473800D03*
D23*
X68658100Y-102311200D03*
X70483100Y-102311200D03*
D12*
X48558200Y-128651000D03*
D13*
X58718200Y-128651000D03*
D12*
X58699400Y-82423000D03*
D13*
X48539400Y-82423000D03*
D12*
X48793400Y-51435000D03*
D13*
X58953400Y-51435000D03*
D24*
X65865200Y-122910600D03*
X63065200Y-122910600D03*
D18*
X54695600Y-61366400D03*
X52695600Y-61366400D03*
D20*
X65862200Y-128981800D03*
X65862200Y-125881800D03*
D18*
X55000400Y-42164000D03*
X53000400Y-42164000D03*
D14*
X41605200Y-16671800D03*
D15*
X41605200Y-21751800D03*
X41605200Y-26831800D03*
X41605200Y-31911800D03*
D18*
X55076600Y-45262800D03*
X53076600Y-45262800D03*
D17*
X52619400Y-108635800D03*
X54619400Y-108635800D03*
D14*
X41605200Y-80645000D03*
D15*
X41605200Y-85725000D03*
X41605200Y-90805000D03*
X41605200Y-95885000D03*
D18*
X54644800Y-122529600D03*
X52644800Y-122529600D03*
X54730400Y-64439800D03*
X52730400Y-64439800D03*
D14*
X41605200Y-123291600D03*
D15*
X41605200Y-128371600D03*
X41605200Y-133451600D03*
X41605200Y-138531600D03*
D17*
X53127400Y-51409600D03*
X55127400Y-51409600D03*
X52670200Y-88569800D03*
X54670200Y-88569800D03*
D14*
X50469800Y-136474200D03*
D15*
X55549800Y-136474200D03*
X60629800Y-136474200D03*
X65709800Y-136474200D03*
D12*
X58759600Y-61366400D03*
D13*
X48599600Y-61366400D03*
D14*
X41605200Y-101981000D03*
D15*
X41605200Y-107061000D03*
X41605200Y-112141000D03*
X41605200Y-117221000D03*
D12*
X59105800Y-26111200D03*
D13*
X48945800Y-26111200D03*
D17*
X52730400Y-70612000D03*
X54730400Y-70612000D03*
X52644800Y-85496400D03*
X54644800Y-85496400D03*
D12*
X48717200Y-108686600D03*
D13*
X58877200Y-108686600D03*
D17*
X52568600Y-111785400D03*
X54568600Y-111785400D03*
D18*
X55635400Y-26136600D03*
X53635400Y-26136600D03*
X54737000Y-102514400D03*
X52737000Y-102514400D03*
D17*
X53889400Y-32207200D03*
X55889400Y-32207200D03*
D18*
X54635400Y-79349600D03*
X52635400Y-79349600D03*
D12*
X58708800Y-122504200D03*
D13*
X48548800Y-122504200D03*
D12*
X58877200Y-105638600D03*
D13*
X48717200Y-105638600D03*
D12*
X58953400Y-42189400D03*
D13*
X48793400Y-42189400D03*
D17*
X53076600Y-48361600D03*
X55076600Y-48361600D03*
D24*
X73031000Y-15798800D03*
X70231000Y-15798800D03*
D17*
X52679600Y-67538600D03*
X54679600Y-67538600D03*
D12*
X58953400Y-45262800D03*
D13*
X48793400Y-45262800D03*
D25*
X69240400Y-118062200D03*
X69240400Y-115262200D03*
D14*
X41605400Y-37982400D03*
D15*
X41605400Y-43062400D03*
X41605400Y-48142400D03*
X41605400Y-53222400D03*
D12*
X59105800Y-29184600D03*
D13*
X48945800Y-29184600D03*
D12*
X48945800Y-32258000D03*
D13*
X59105800Y-32258000D03*
D12*
X48607000Y-70612000D03*
D13*
X58767000Y-70612000D03*
D19*
X53568600Y-93091000D03*
D18*
X54628800Y-119456200D03*
X52628800Y-119456200D03*
D12*
X48548800Y-125577600D03*
D13*
X58708800Y-125577600D03*
D26*
X68562000Y-100126800D03*
X70612000Y-100126800D03*
D14*
X41605200Y-59318400D03*
D15*
X41605200Y-64398400D03*
X41605200Y-69478400D03*
X41605200Y-74558400D03*
D12*
X58759600Y-64439800D03*
D13*
X48599600Y-64439800D03*
M02*
