%FSLAX45Y45*%
G04 Gerber Fmt 4.5, Leading zero omitted, Abs format (unit mm)*
G04 Created by KiCad (PCBNEW (6.0.6)) date 2022-08-29 15:29:25*
%MOMM*%
%LPD*%
G01*
G04 APERTURE LIST*
%TA.AperFunction,Profile*%
%ADD10C,0.100000*%
%TD*%
%ADD11C,0.200000*%
%ADD12C,0.040000*%
%ADD13C,0.100000*%
G04 APERTURE END LIST*
D10*
X3373120Y-1747520D02*
X8373120Y-1747520D01*
X8373120Y-1747520D02*
X8373120Y-6247520D01*
X8373120Y-6247520D02*
X3373120Y-6247520D01*
X3373120Y-6247520D02*
X3373120Y-1747520D01*
D11*
D12*
X4310700Y-5771200D02*
X4350700Y-5811200D01*
X4350700Y-5771200D02*
X4310700Y-5811200D01*
X4323400Y-4933000D02*
X4363400Y-4973000D01*
X4363400Y-4933000D02*
X4323400Y-4973000D01*
X4592640Y-2641920D02*
X4632640Y-2681920D01*
X4632640Y-2641920D02*
X4592640Y-2681920D01*
X4592640Y-3200720D02*
X4632640Y-3240720D01*
X4632640Y-3200720D02*
X4592640Y-3240720D01*
X4689160Y-4750120D02*
X4729160Y-4790120D01*
X4729160Y-4750120D02*
X4689160Y-4790120D01*
X4785680Y-5867720D02*
X4825680Y-5907720D01*
X4825680Y-5867720D02*
X4785680Y-5907720D01*
X4826320Y-4907600D02*
X4866320Y-4947600D01*
X4866320Y-4907600D02*
X4826320Y-4947600D01*
X4861880Y-4399600D02*
X4901880Y-4439600D01*
X4901880Y-4399600D02*
X4861880Y-4439600D01*
X4892360Y-2987360D02*
X4932360Y-3027360D01*
X4932360Y-2987360D02*
X4892360Y-3027360D01*
X4897440Y-5141280D02*
X4937440Y-5181280D01*
X4937440Y-5141280D02*
X4897440Y-5181280D01*
X4958400Y-3663000D02*
X4998400Y-3703000D01*
X4998400Y-3663000D02*
X4958400Y-3703000D01*
X4983800Y-2266000D02*
X5023800Y-2306000D01*
X5023800Y-2266000D02*
X4983800Y-2306000D01*
X5181920Y-4902520D02*
X5221920Y-4942520D01*
X5221920Y-4902520D02*
X5181920Y-4942520D01*
X5253040Y-3429320D02*
X5293040Y-3469320D01*
X5293040Y-3429320D02*
X5253040Y-3469320D01*
X5258120Y-2027240D02*
X5298120Y-2067240D01*
X5298120Y-2027240D02*
X5258120Y-2067240D01*
X5283520Y-5644200D02*
X5323520Y-5684200D01*
X5323520Y-5644200D02*
X5283520Y-5684200D01*
X5344480Y-4160840D02*
X5384480Y-4200840D01*
X5384480Y-4160840D02*
X5344480Y-4200840D01*
X5364800Y-4907600D02*
X5404800Y-4947600D01*
X5404800Y-4907600D02*
X5364800Y-4947600D01*
X5369880Y-2768920D02*
X5409880Y-2808920D01*
X5409880Y-2768920D02*
X5369880Y-2808920D01*
X5441000Y-3421700D02*
X5481000Y-3461700D01*
X5481000Y-3421700D02*
X5441000Y-3461700D01*
X5471480Y-5491800D02*
X5511480Y-5531800D01*
X5511480Y-5491800D02*
X5471480Y-5531800D01*
X5496880Y-5232720D02*
X5536880Y-5272720D01*
X5536880Y-5232720D02*
X5496880Y-5272720D01*
X5537520Y-4018600D02*
X5577520Y-4058600D01*
X5577520Y-4018600D02*
X5537520Y-4058600D01*
X5568000Y-2611440D02*
X5608000Y-2651440D01*
X5608000Y-2611440D02*
X5568000Y-2651440D01*
X5618800Y-2024700D02*
X5658800Y-2064700D01*
X5658800Y-2024700D02*
X5618800Y-2064700D01*
X5634040Y-2992440D02*
X5674040Y-3032440D01*
X5674040Y-2992440D02*
X5634040Y-3032440D01*
X5634040Y-3602040D02*
X5674040Y-3642040D01*
X5674040Y-3602040D02*
X5634040Y-3642040D01*
X5659440Y-4930460D02*
X5699440Y-4970460D01*
X5699440Y-4930460D02*
X5659440Y-4970460D01*
X5695000Y-4450400D02*
X5735000Y-4490400D01*
X5735000Y-4450400D02*
X5695000Y-4490400D01*
X5705160Y-4206560D02*
X5745160Y-4246560D01*
X5745160Y-4206560D02*
X5705160Y-4246560D01*
X5707700Y-4016060D02*
X5747700Y-4056060D01*
X5747700Y-4016060D02*
X5707700Y-4056060D01*
X5771200Y-5555300D02*
X5811200Y-5595300D01*
X5811200Y-5555300D02*
X5771200Y-5595300D01*
X5822000Y-5232720D02*
X5862000Y-5272720D01*
X5862000Y-5232720D02*
X5822000Y-5272720D01*
X5827080Y-3800160D02*
X5867080Y-3840160D01*
X5867080Y-3800160D02*
X5827080Y-3840160D01*
X5847400Y-2479360D02*
X5887400Y-2519360D01*
X5887400Y-2479360D02*
X5847400Y-2519360D01*
X5928680Y-4115120D02*
X5968680Y-4155120D01*
X5968680Y-4115120D02*
X5928680Y-4155120D01*
X5928680Y-4323400D02*
X5968680Y-4363400D01*
X5968680Y-4323400D02*
X5928680Y-4363400D01*
X5938840Y-4483420D02*
X5978840Y-4523420D01*
X5978840Y-4483420D02*
X5938840Y-4523420D01*
X5994720Y-4739960D02*
X6034720Y-4779960D01*
X6034720Y-4739960D02*
X5994720Y-4779960D01*
X6002340Y-2761300D02*
X6042340Y-2801300D01*
X6042340Y-2761300D02*
X6002340Y-2801300D01*
X6009960Y-2017080D02*
X6049960Y-2057080D01*
X6049960Y-2017080D02*
X6009960Y-2057080D01*
X6009960Y-3967800D02*
X6049960Y-4007800D01*
X6049960Y-3967800D02*
X6009960Y-4007800D01*
X6063300Y-2271080D02*
X6103300Y-2311080D01*
X6103300Y-2271080D02*
X6063300Y-2311080D01*
X6101400Y-5339400D02*
X6141400Y-5379400D01*
X6141400Y-5339400D02*
X6101400Y-5379400D01*
X6101400Y-5910900D02*
X6141400Y-5950900D01*
X6141400Y-5910900D02*
X6101400Y-5950900D01*
X6169980Y-4442780D02*
X6209980Y-4482780D01*
X6209980Y-4442780D02*
X6169980Y-4482780D01*
X6172520Y-2895920D02*
X6212520Y-2935920D01*
X6212520Y-2895920D02*
X6172520Y-2935920D01*
X6218240Y-2644460D02*
X6258240Y-2684460D01*
X6258240Y-2644460D02*
X6218240Y-2684460D01*
X6248720Y-3464880D02*
X6288720Y-3504880D01*
X6288720Y-3464880D02*
X6248720Y-3504880D01*
X6274120Y-2017080D02*
X6314120Y-2057080D01*
X6314120Y-2017080D02*
X6274120Y-2057080D01*
X6429500Y-5852380D02*
X6469500Y-5892380D01*
X6469500Y-5852380D02*
X6429500Y-5892380D01*
X6434580Y-4409660D02*
X6474580Y-4449660D01*
X6474580Y-4409660D02*
X6434580Y-4449660D01*
X6435010Y-4875140D02*
X6475010Y-4915140D01*
X6475010Y-4875140D02*
X6435010Y-4915140D01*
X6449820Y-3022820D02*
X6489820Y-3062820D01*
X6489820Y-3022820D02*
X6449820Y-3062820D01*
X6533200Y-5115880D02*
X6573200Y-5155880D01*
X6573200Y-5115880D02*
X6533200Y-5155880D01*
X6545900Y-3688400D02*
X6585900Y-3728400D01*
X6585900Y-3688400D02*
X6545900Y-3728400D01*
X6584000Y-2291400D02*
X6624000Y-2331400D01*
X6624000Y-2291400D02*
X6584000Y-2331400D01*
X6634800Y-3180400D02*
X6674800Y-3220400D01*
X6674800Y-3180400D02*
X6634800Y-3220400D01*
X6785100Y-4877020D02*
X6825100Y-4917020D01*
X6825100Y-4877020D02*
X6785100Y-4917020D01*
X6815580Y-3454620D02*
X6855580Y-3494620D01*
X6855580Y-3454620D02*
X6815580Y-3494620D01*
X6830820Y-2052540D02*
X6870820Y-2092540D01*
X6870820Y-2052540D02*
X6830820Y-2092540D01*
X6917180Y-5608540D02*
X6957180Y-5648540D01*
X6957180Y-5608540D02*
X6917180Y-5648540D01*
X6922260Y-4175980D02*
X6962260Y-4215980D01*
X6962260Y-4175980D02*
X6922260Y-4215980D01*
X6962900Y-2784060D02*
X7002900Y-2824060D01*
X7002900Y-2784060D02*
X6962900Y-2824060D01*
X7105140Y-5476460D02*
X7145140Y-5516460D01*
X7145140Y-5476460D02*
X7105140Y-5516460D01*
X7110220Y-4038820D02*
X7150220Y-4078820D01*
X7150220Y-4038820D02*
X7110220Y-4078820D01*
X7158760Y-2576390D02*
X7198760Y-2616390D01*
X7198760Y-2576390D02*
X7158760Y-2616390D01*
X7168200Y-2215200D02*
X7208200Y-2255200D01*
X7208200Y-2215200D02*
X7168200Y-2255200D01*
X7206300Y-3447100D02*
X7246300Y-3487100D01*
X7246300Y-3447100D02*
X7206300Y-3487100D01*
X7409500Y-5783900D02*
X7449500Y-5823900D01*
X7449500Y-5783900D02*
X7409500Y-5823900D01*
X7434900Y-5161600D02*
X7474900Y-5201600D01*
X7474900Y-5161600D02*
X7434900Y-5201600D01*
D13*
X3826000Y-3109500D02*
G75*
G03*
X3826000Y-3109500I-50000J0D01*
G01*
X3826000Y-3363500D02*
G75*
G03*
X3826000Y-3363500I-50000J0D01*
G01*
X3826000Y-3617500D02*
G75*
G03*
X3826000Y-3617500I-50000J0D01*
G01*
X3826000Y-3871500D02*
G75*
G03*
X3826000Y-3871500I-50000J0D01*
G01*
X3826000Y-4125500D02*
G75*
G03*
X3826000Y-4125500I-50000J0D01*
G01*
X3826000Y-4379500D02*
G75*
G03*
X3826000Y-4379500I-50000J0D01*
G01*
X3826000Y-4633500D02*
G75*
G03*
X3826000Y-4633500I-50000J0D01*
G01*
X3826000Y-4887500D02*
G75*
G03*
X3826000Y-4887500I-50000J0D01*
G01*
X4080000Y-3109500D02*
G75*
G03*
X4080000Y-3109500I-50000J0D01*
G01*
X4080000Y-3363500D02*
G75*
G03*
X4080000Y-3363500I-50000J0D01*
G01*
X4080000Y-3617500D02*
G75*
G03*
X4080000Y-3617500I-50000J0D01*
G01*
X4080000Y-3871500D02*
G75*
G03*
X4080000Y-3871500I-50000J0D01*
G01*
X4080000Y-4125500D02*
G75*
G03*
X4080000Y-4125500I-50000J0D01*
G01*
X4080000Y-4379500D02*
G75*
G03*
X4080000Y-4379500I-50000J0D01*
G01*
X4080000Y-4633500D02*
G75*
G03*
X4080000Y-4633500I-50000J0D01*
G01*
X4080000Y-4887500D02*
G75*
G03*
X4080000Y-4887500I-50000J0D01*
G01*
X7756360Y-3112500D02*
G75*
G03*
X7756360Y-3112500I-50000J0D01*
G01*
X7756360Y-3366500D02*
G75*
G03*
X7756360Y-3366500I-50000J0D01*
G01*
X7756360Y-3620500D02*
G75*
G03*
X7756360Y-3620500I-50000J0D01*
G01*
X7756360Y-3874500D02*
G75*
G03*
X7756360Y-3874500I-50000J0D01*
G01*
X7756360Y-4128500D02*
G75*
G03*
X7756360Y-4128500I-50000J0D01*
G01*
X7756360Y-4382500D02*
G75*
G03*
X7756360Y-4382500I-50000J0D01*
G01*
X7756360Y-4636500D02*
G75*
G03*
X7756360Y-4636500I-50000J0D01*
G01*
X7756360Y-4890500D02*
G75*
G03*
X7756360Y-4890500I-50000J0D01*
G01*
X8010360Y-3112500D02*
G75*
G03*
X8010360Y-3112500I-50000J0D01*
G01*
X8010360Y-3366500D02*
G75*
G03*
X8010360Y-3366500I-50000J0D01*
G01*
X8010360Y-3620500D02*
G75*
G03*
X8010360Y-3620500I-50000J0D01*
G01*
X8010360Y-3874500D02*
G75*
G03*
X8010360Y-3874500I-50000J0D01*
G01*
X8010360Y-4128500D02*
G75*
G03*
X8010360Y-4128500I-50000J0D01*
G01*
X8010360Y-4382500D02*
G75*
G03*
X8010360Y-4382500I-50000J0D01*
G01*
X8010360Y-4636500D02*
G75*
G03*
X8010360Y-4636500I-50000J0D01*
G01*
X8010360Y-4890500D02*
G75*
G03*
X8010360Y-4890500I-50000J0D01*
G01*
D11*
X3625739Y-6562996D02*
X3625739Y-6362996D01*
X3673358Y-6362996D01*
X3701929Y-6372520D01*
X3720977Y-6391568D01*
X3730501Y-6410615D01*
X3740025Y-6448710D01*
X3740025Y-6477282D01*
X3730501Y-6515377D01*
X3720977Y-6534425D01*
X3701929Y-6553472D01*
X3673358Y-6562996D01*
X3625739Y-6562996D01*
X3825739Y-6562996D02*
X3825739Y-6429663D01*
X3825739Y-6467758D02*
X3835263Y-6448710D01*
X3844787Y-6439187D01*
X3863834Y-6429663D01*
X3882882Y-6429663D01*
X3949548Y-6562996D02*
X3949548Y-6429663D01*
X3949548Y-6362996D02*
X3940025Y-6372520D01*
X3949548Y-6382044D01*
X3959072Y-6372520D01*
X3949548Y-6362996D01*
X3949548Y-6382044D01*
X4073358Y-6562996D02*
X4054310Y-6553472D01*
X4044787Y-6534425D01*
X4044787Y-6362996D01*
X4178120Y-6562996D02*
X4159072Y-6553472D01*
X4149548Y-6534425D01*
X4149548Y-6362996D01*
X4406691Y-6562996D02*
X4406691Y-6362996D01*
X4473358Y-6505853D01*
X4540025Y-6362996D01*
X4540025Y-6562996D01*
X4720977Y-6562996D02*
X4720977Y-6458234D01*
X4711453Y-6439187D01*
X4692406Y-6429663D01*
X4654310Y-6429663D01*
X4635263Y-6439187D01*
X4720977Y-6553472D02*
X4701930Y-6562996D01*
X4654310Y-6562996D01*
X4635263Y-6553472D01*
X4625739Y-6534425D01*
X4625739Y-6515377D01*
X4635263Y-6496329D01*
X4654310Y-6486806D01*
X4701930Y-6486806D01*
X4720977Y-6477282D01*
X4816215Y-6429663D02*
X4816215Y-6629663D01*
X4816215Y-6439187D02*
X4835263Y-6429663D01*
X4873358Y-6429663D01*
X4892406Y-6439187D01*
X4901930Y-6448710D01*
X4911453Y-6467758D01*
X4911453Y-6524901D01*
X4901930Y-6543948D01*
X4892406Y-6553472D01*
X4873358Y-6562996D01*
X4835263Y-6562996D01*
X4816215Y-6553472D01*
X4997168Y-6543948D02*
X5006691Y-6553472D01*
X4997168Y-6562996D01*
X4987644Y-6553472D01*
X4997168Y-6543948D01*
X4997168Y-6562996D01*
X4997168Y-6439187D02*
X5006691Y-6448710D01*
X4997168Y-6458234D01*
X4987644Y-6448710D01*
X4997168Y-6439187D01*
X4997168Y-6458234D01*
D12*
X3328120Y-6872520D02*
X3368120Y-6912520D01*
X3368120Y-6872520D02*
X3328120Y-6912520D01*
D11*
X3663834Y-6782996D02*
X3682882Y-6782996D01*
X3701929Y-6792520D01*
X3711453Y-6802044D01*
X3720977Y-6821091D01*
X3730501Y-6859187D01*
X3730501Y-6906806D01*
X3720977Y-6944901D01*
X3711453Y-6963948D01*
X3701929Y-6973472D01*
X3682882Y-6982996D01*
X3663834Y-6982996D01*
X3644787Y-6973472D01*
X3635263Y-6963948D01*
X3625739Y-6944901D01*
X3616215Y-6906806D01*
X3616215Y-6859187D01*
X3625739Y-6821091D01*
X3635263Y-6802044D01*
X3644787Y-6792520D01*
X3663834Y-6782996D01*
X3816215Y-6963948D02*
X3825739Y-6973472D01*
X3816215Y-6982996D01*
X3806691Y-6973472D01*
X3816215Y-6963948D01*
X3816215Y-6982996D01*
X3997168Y-6849663D02*
X3997168Y-6982996D01*
X3949548Y-6773472D02*
X3901929Y-6916329D01*
X4025739Y-6916329D01*
X4140025Y-6782996D02*
X4159072Y-6782996D01*
X4178120Y-6792520D01*
X4187644Y-6802044D01*
X4197168Y-6821091D01*
X4206691Y-6859187D01*
X4206691Y-6906806D01*
X4197168Y-6944901D01*
X4187644Y-6963948D01*
X4178120Y-6973472D01*
X4159072Y-6982996D01*
X4140025Y-6982996D01*
X4120977Y-6973472D01*
X4111453Y-6963948D01*
X4101929Y-6944901D01*
X4092406Y-6906806D01*
X4092406Y-6859187D01*
X4101929Y-6821091D01*
X4111453Y-6802044D01*
X4120977Y-6792520D01*
X4140025Y-6782996D01*
X4330501Y-6782996D02*
X4349549Y-6782996D01*
X4368596Y-6792520D01*
X4378120Y-6802044D01*
X4387644Y-6821091D01*
X4397168Y-6859187D01*
X4397168Y-6906806D01*
X4387644Y-6944901D01*
X4378120Y-6963948D01*
X4368596Y-6973472D01*
X4349549Y-6982996D01*
X4330501Y-6982996D01*
X4311453Y-6973472D01*
X4301930Y-6963948D01*
X4292406Y-6944901D01*
X4282882Y-6906806D01*
X4282882Y-6859187D01*
X4292406Y-6821091D01*
X4301930Y-6802044D01*
X4311453Y-6792520D01*
X4330501Y-6782996D01*
X4482882Y-6982996D02*
X4482882Y-6849663D01*
X4482882Y-6868710D02*
X4492406Y-6859187D01*
X4511453Y-6849663D01*
X4540025Y-6849663D01*
X4559072Y-6859187D01*
X4568596Y-6878234D01*
X4568596Y-6982996D01*
X4568596Y-6878234D02*
X4578120Y-6859187D01*
X4597168Y-6849663D01*
X4625739Y-6849663D01*
X4644787Y-6859187D01*
X4654310Y-6878234D01*
X4654310Y-6982996D01*
X4749549Y-6982996D02*
X4749549Y-6849663D01*
X4749549Y-6868710D02*
X4759072Y-6859187D01*
X4778120Y-6849663D01*
X4806691Y-6849663D01*
X4825739Y-6859187D01*
X4835263Y-6878234D01*
X4835263Y-6982996D01*
X4835263Y-6878234D02*
X4844787Y-6859187D01*
X4863834Y-6849663D01*
X4892406Y-6849663D01*
X4911453Y-6859187D01*
X4920977Y-6878234D01*
X4920977Y-6982996D01*
X5311453Y-6773472D02*
X5140025Y-7030615D01*
X5568596Y-6782996D02*
X5587644Y-6782996D01*
X5606691Y-6792520D01*
X5616215Y-6802044D01*
X5625739Y-6821091D01*
X5635263Y-6859187D01*
X5635263Y-6906806D01*
X5625739Y-6944901D01*
X5616215Y-6963948D01*
X5606691Y-6973472D01*
X5587644Y-6982996D01*
X5568596Y-6982996D01*
X5549549Y-6973472D01*
X5540025Y-6963948D01*
X5530501Y-6944901D01*
X5520977Y-6906806D01*
X5520977Y-6859187D01*
X5530501Y-6821091D01*
X5540025Y-6802044D01*
X5549549Y-6792520D01*
X5568596Y-6782996D01*
X5720977Y-6963948D02*
X5730501Y-6973472D01*
X5720977Y-6982996D01*
X5711453Y-6973472D01*
X5720977Y-6963948D01*
X5720977Y-6982996D01*
X5854310Y-6782996D02*
X5873358Y-6782996D01*
X5892406Y-6792520D01*
X5901929Y-6802044D01*
X5911453Y-6821091D01*
X5920977Y-6859187D01*
X5920977Y-6906806D01*
X5911453Y-6944901D01*
X5901929Y-6963948D01*
X5892406Y-6973472D01*
X5873358Y-6982996D01*
X5854310Y-6982996D01*
X5835263Y-6973472D01*
X5825739Y-6963948D01*
X5816215Y-6944901D01*
X5806691Y-6906806D01*
X5806691Y-6859187D01*
X5816215Y-6821091D01*
X5825739Y-6802044D01*
X5835263Y-6792520D01*
X5854310Y-6782996D01*
X6111453Y-6982996D02*
X5997168Y-6982996D01*
X6054310Y-6982996D02*
X6054310Y-6782996D01*
X6035263Y-6811568D01*
X6016215Y-6830615D01*
X5997168Y-6840139D01*
X6292406Y-6782996D02*
X6197168Y-6782996D01*
X6187644Y-6878234D01*
X6197168Y-6868710D01*
X6216215Y-6859187D01*
X6263834Y-6859187D01*
X6282882Y-6868710D01*
X6292406Y-6878234D01*
X6301929Y-6897282D01*
X6301929Y-6944901D01*
X6292406Y-6963948D01*
X6282882Y-6973472D01*
X6263834Y-6982996D01*
X6216215Y-6982996D01*
X6197168Y-6973472D01*
X6187644Y-6963948D01*
X6368596Y-6782996D02*
X6501929Y-6782996D01*
X6416215Y-6982996D01*
X6568596Y-6782996D02*
X6568596Y-6821091D01*
X6644787Y-6782996D02*
X6644787Y-6821091D01*
X6940025Y-7059187D02*
X6930501Y-7049663D01*
X6911453Y-7021091D01*
X6901929Y-7002044D01*
X6892406Y-6973472D01*
X6882882Y-6925853D01*
X6882882Y-6887758D01*
X6892406Y-6840139D01*
X6901929Y-6811568D01*
X6911453Y-6792520D01*
X6930501Y-6763948D01*
X6940025Y-6754425D01*
X6997168Y-6782996D02*
X7130501Y-6782996D01*
X7044787Y-6982996D01*
X7311453Y-6982996D02*
X7197168Y-6982996D01*
X7254310Y-6982996D02*
X7254310Y-6782996D01*
X7235263Y-6811568D01*
X7216215Y-6830615D01*
X7197168Y-6840139D01*
X7549548Y-6982996D02*
X7549548Y-6782996D01*
X7635263Y-6982996D02*
X7635263Y-6878234D01*
X7625739Y-6859187D01*
X7606691Y-6849663D01*
X7578120Y-6849663D01*
X7559072Y-6859187D01*
X7549548Y-6868710D01*
X7759072Y-6982996D02*
X7740025Y-6973472D01*
X7730501Y-6963948D01*
X7720977Y-6944901D01*
X7720977Y-6887758D01*
X7730501Y-6868710D01*
X7740025Y-6859187D01*
X7759072Y-6849663D01*
X7787644Y-6849663D01*
X7806691Y-6859187D01*
X7816215Y-6868710D01*
X7825739Y-6887758D01*
X7825739Y-6944901D01*
X7816215Y-6963948D01*
X7806691Y-6973472D01*
X7787644Y-6982996D01*
X7759072Y-6982996D01*
X7940025Y-6982996D02*
X7920977Y-6973472D01*
X7911453Y-6954425D01*
X7911453Y-6782996D01*
X8092406Y-6973472D02*
X8073358Y-6982996D01*
X8035263Y-6982996D01*
X8016215Y-6973472D01*
X8006691Y-6954425D01*
X8006691Y-6878234D01*
X8016215Y-6859187D01*
X8035263Y-6849663D01*
X8073358Y-6849663D01*
X8092406Y-6859187D01*
X8101929Y-6878234D01*
X8101929Y-6897282D01*
X8006691Y-6916329D01*
X8178120Y-6973472D02*
X8197168Y-6982996D01*
X8235263Y-6982996D01*
X8254310Y-6973472D01*
X8263834Y-6954425D01*
X8263834Y-6944901D01*
X8254310Y-6925853D01*
X8235263Y-6916329D01*
X8206691Y-6916329D01*
X8187644Y-6906806D01*
X8178120Y-6887758D01*
X8178120Y-6878234D01*
X8187644Y-6859187D01*
X8206691Y-6849663D01*
X8235263Y-6849663D01*
X8254310Y-6859187D01*
X8330501Y-7059187D02*
X8340025Y-7049663D01*
X8359072Y-7021091D01*
X8368596Y-7002044D01*
X8378120Y-6973472D01*
X8387644Y-6925853D01*
X8387644Y-6887758D01*
X8378120Y-6840139D01*
X8368596Y-6811568D01*
X8359072Y-6792520D01*
X8340025Y-6763948D01*
X8330501Y-6754425D01*
D13*
X3368120Y-7156520D02*
G75*
G03*
X3368120Y-7156520I-50000J0D01*
G01*
D11*
X3730501Y-7246996D02*
X3616215Y-7246996D01*
X3673358Y-7246996D02*
X3673358Y-7046996D01*
X3654310Y-7075568D01*
X3635263Y-7094615D01*
X3616215Y-7104139D01*
X3816215Y-7227948D02*
X3825739Y-7237472D01*
X3816215Y-7246996D01*
X3806691Y-7237472D01*
X3816215Y-7227948D01*
X3816215Y-7246996D01*
X3949548Y-7046996D02*
X3968596Y-7046996D01*
X3987644Y-7056520D01*
X3997168Y-7066044D01*
X4006691Y-7085091D01*
X4016215Y-7123187D01*
X4016215Y-7170806D01*
X4006691Y-7208901D01*
X3997168Y-7227948D01*
X3987644Y-7237472D01*
X3968596Y-7246996D01*
X3949548Y-7246996D01*
X3930501Y-7237472D01*
X3920977Y-7227948D01*
X3911453Y-7208901D01*
X3901929Y-7170806D01*
X3901929Y-7123187D01*
X3911453Y-7085091D01*
X3920977Y-7066044D01*
X3930501Y-7056520D01*
X3949548Y-7046996D01*
X4140025Y-7046996D02*
X4159072Y-7046996D01*
X4178120Y-7056520D01*
X4187644Y-7066044D01*
X4197168Y-7085091D01*
X4206691Y-7123187D01*
X4206691Y-7170806D01*
X4197168Y-7208901D01*
X4187644Y-7227948D01*
X4178120Y-7237472D01*
X4159072Y-7246996D01*
X4140025Y-7246996D01*
X4120977Y-7237472D01*
X4111453Y-7227948D01*
X4101929Y-7208901D01*
X4092406Y-7170806D01*
X4092406Y-7123187D01*
X4101929Y-7085091D01*
X4111453Y-7066044D01*
X4120977Y-7056520D01*
X4140025Y-7046996D01*
X4330501Y-7046996D02*
X4349549Y-7046996D01*
X4368596Y-7056520D01*
X4378120Y-7066044D01*
X4387644Y-7085091D01*
X4397168Y-7123187D01*
X4397168Y-7170806D01*
X4387644Y-7208901D01*
X4378120Y-7227948D01*
X4368596Y-7237472D01*
X4349549Y-7246996D01*
X4330501Y-7246996D01*
X4311453Y-7237472D01*
X4301930Y-7227948D01*
X4292406Y-7208901D01*
X4282882Y-7170806D01*
X4282882Y-7123187D01*
X4292406Y-7085091D01*
X4301930Y-7066044D01*
X4311453Y-7056520D01*
X4330501Y-7046996D01*
X4482882Y-7246996D02*
X4482882Y-7113663D01*
X4482882Y-7132710D02*
X4492406Y-7123187D01*
X4511453Y-7113663D01*
X4540025Y-7113663D01*
X4559072Y-7123187D01*
X4568596Y-7142234D01*
X4568596Y-7246996D01*
X4568596Y-7142234D02*
X4578120Y-7123187D01*
X4597168Y-7113663D01*
X4625739Y-7113663D01*
X4644787Y-7123187D01*
X4654310Y-7142234D01*
X4654310Y-7246996D01*
X4749549Y-7246996D02*
X4749549Y-7113663D01*
X4749549Y-7132710D02*
X4759072Y-7123187D01*
X4778120Y-7113663D01*
X4806691Y-7113663D01*
X4825739Y-7123187D01*
X4835263Y-7142234D01*
X4835263Y-7246996D01*
X4835263Y-7142234D02*
X4844787Y-7123187D01*
X4863834Y-7113663D01*
X4892406Y-7113663D01*
X4911453Y-7123187D01*
X4920977Y-7142234D01*
X4920977Y-7246996D01*
X5311453Y-7037472D02*
X5140025Y-7294615D01*
X5568596Y-7046996D02*
X5587644Y-7046996D01*
X5606691Y-7056520D01*
X5616215Y-7066044D01*
X5625739Y-7085091D01*
X5635263Y-7123187D01*
X5635263Y-7170806D01*
X5625739Y-7208901D01*
X5616215Y-7227948D01*
X5606691Y-7237472D01*
X5587644Y-7246996D01*
X5568596Y-7246996D01*
X5549549Y-7237472D01*
X5540025Y-7227948D01*
X5530501Y-7208901D01*
X5520977Y-7170806D01*
X5520977Y-7123187D01*
X5530501Y-7085091D01*
X5540025Y-7066044D01*
X5549549Y-7056520D01*
X5568596Y-7046996D01*
X5720977Y-7227948D02*
X5730501Y-7237472D01*
X5720977Y-7246996D01*
X5711453Y-7237472D01*
X5720977Y-7227948D01*
X5720977Y-7246996D01*
X5854310Y-7046996D02*
X5873358Y-7046996D01*
X5892406Y-7056520D01*
X5901929Y-7066044D01*
X5911453Y-7085091D01*
X5920977Y-7123187D01*
X5920977Y-7170806D01*
X5911453Y-7208901D01*
X5901929Y-7227948D01*
X5892406Y-7237472D01*
X5873358Y-7246996D01*
X5854310Y-7246996D01*
X5835263Y-7237472D01*
X5825739Y-7227948D01*
X5816215Y-7208901D01*
X5806691Y-7170806D01*
X5806691Y-7123187D01*
X5816215Y-7085091D01*
X5825739Y-7066044D01*
X5835263Y-7056520D01*
X5854310Y-7046996D01*
X5987644Y-7046996D02*
X6111453Y-7046996D01*
X6044787Y-7123187D01*
X6073358Y-7123187D01*
X6092406Y-7132710D01*
X6101929Y-7142234D01*
X6111453Y-7161282D01*
X6111453Y-7208901D01*
X6101929Y-7227948D01*
X6092406Y-7237472D01*
X6073358Y-7246996D01*
X6016215Y-7246996D01*
X5997168Y-7237472D01*
X5987644Y-7227948D01*
X6206691Y-7246996D02*
X6244787Y-7246996D01*
X6263834Y-7237472D01*
X6273358Y-7227948D01*
X6292406Y-7199377D01*
X6301929Y-7161282D01*
X6301929Y-7085091D01*
X6292406Y-7066044D01*
X6282882Y-7056520D01*
X6263834Y-7046996D01*
X6225739Y-7046996D01*
X6206691Y-7056520D01*
X6197168Y-7066044D01*
X6187644Y-7085091D01*
X6187644Y-7132710D01*
X6197168Y-7151758D01*
X6206691Y-7161282D01*
X6225739Y-7170806D01*
X6263834Y-7170806D01*
X6282882Y-7161282D01*
X6292406Y-7151758D01*
X6301929Y-7132710D01*
X6473358Y-7113663D02*
X6473358Y-7246996D01*
X6425739Y-7037472D02*
X6378120Y-7180329D01*
X6501929Y-7180329D01*
X6568596Y-7046996D02*
X6568596Y-7085091D01*
X6644787Y-7046996D02*
X6644787Y-7085091D01*
X6940025Y-7323187D02*
X6930501Y-7313663D01*
X6911453Y-7285091D01*
X6901929Y-7266044D01*
X6892406Y-7237472D01*
X6882882Y-7189853D01*
X6882882Y-7151758D01*
X6892406Y-7104139D01*
X6901929Y-7075568D01*
X6911453Y-7056520D01*
X6930501Y-7027948D01*
X6940025Y-7018425D01*
X6997168Y-7046996D02*
X7120977Y-7046996D01*
X7054310Y-7123187D01*
X7082882Y-7123187D01*
X7101929Y-7132710D01*
X7111453Y-7142234D01*
X7120977Y-7161282D01*
X7120977Y-7208901D01*
X7111453Y-7227948D01*
X7101929Y-7237472D01*
X7082882Y-7246996D01*
X7025739Y-7246996D01*
X7006691Y-7237472D01*
X6997168Y-7227948D01*
X7197168Y-7066044D02*
X7206691Y-7056520D01*
X7225739Y-7046996D01*
X7273358Y-7046996D01*
X7292406Y-7056520D01*
X7301929Y-7066044D01*
X7311453Y-7085091D01*
X7311453Y-7104139D01*
X7301929Y-7132710D01*
X7187644Y-7246996D01*
X7311453Y-7246996D01*
X7549548Y-7246996D02*
X7549548Y-7046996D01*
X7635263Y-7246996D02*
X7635263Y-7142234D01*
X7625739Y-7123187D01*
X7606691Y-7113663D01*
X7578120Y-7113663D01*
X7559072Y-7123187D01*
X7549548Y-7132710D01*
X7759072Y-7246996D02*
X7740025Y-7237472D01*
X7730501Y-7227948D01*
X7720977Y-7208901D01*
X7720977Y-7151758D01*
X7730501Y-7132710D01*
X7740025Y-7123187D01*
X7759072Y-7113663D01*
X7787644Y-7113663D01*
X7806691Y-7123187D01*
X7816215Y-7132710D01*
X7825739Y-7151758D01*
X7825739Y-7208901D01*
X7816215Y-7227948D01*
X7806691Y-7237472D01*
X7787644Y-7246996D01*
X7759072Y-7246996D01*
X7940025Y-7246996D02*
X7920977Y-7237472D01*
X7911453Y-7218425D01*
X7911453Y-7046996D01*
X8092406Y-7237472D02*
X8073358Y-7246996D01*
X8035263Y-7246996D01*
X8016215Y-7237472D01*
X8006691Y-7218425D01*
X8006691Y-7142234D01*
X8016215Y-7123187D01*
X8035263Y-7113663D01*
X8073358Y-7113663D01*
X8092406Y-7123187D01*
X8101929Y-7142234D01*
X8101929Y-7161282D01*
X8006691Y-7180329D01*
X8178120Y-7237472D02*
X8197168Y-7246996D01*
X8235263Y-7246996D01*
X8254310Y-7237472D01*
X8263834Y-7218425D01*
X8263834Y-7208901D01*
X8254310Y-7189853D01*
X8235263Y-7180329D01*
X8206691Y-7180329D01*
X8187644Y-7170806D01*
X8178120Y-7151758D01*
X8178120Y-7142234D01*
X8187644Y-7123187D01*
X8206691Y-7113663D01*
X8235263Y-7113663D01*
X8254310Y-7123187D01*
X8330501Y-7323187D02*
X8340025Y-7313663D01*
X8359072Y-7285091D01*
X8368596Y-7266044D01*
X8378120Y-7237472D01*
X8387644Y-7189853D01*
X8387644Y-7151758D01*
X8378120Y-7104139D01*
X8368596Y-7075568D01*
X8359072Y-7056520D01*
X8340025Y-7027948D01*
X8330501Y-7018425D01*
M02*
