G04 #@! TF.GenerationSoftware,KiCad,Pcbnew,(6.0.6)*
G04 #@! TF.CreationDate,2022-08-29T15:29:16+02:00*
G04 #@! TF.ProjectId,amplifier-board-six-channels,616d706c-6966-4696-9572-2d626f617264,rev?*
G04 #@! TF.SameCoordinates,Original*
G04 #@! TF.FileFunction,Legend,Top*
G04 #@! TF.FilePolarity,Positive*
%FSLAX46Y46*%
G04 Gerber Fmt 4.6, Leading zero omitted, Abs format (unit mm)*
G04 Created by KiCad (PCBNEW (6.0.6)) date 2022-08-29 15:29:16*
%MOMM*%
%LPD*%
G01*
G04 APERTURE LIST*
G04 Aperture macros list*
%AMRoundRect*
0 Rectangle with rounded corners*
0 $1 Rounding radius*
0 $2 $3 $4 $5 $6 $7 $8 $9 X,Y pos of 4 corners*
0 Add a 4 corners polygon primitive as box body*
4,1,4,$2,$3,$4,$5,$6,$7,$8,$9,$2,$3,0*
0 Add four circle primitives for the rounded corners*
1,1,$1+$1,$2,$3*
1,1,$1+$1,$4,$5*
1,1,$1+$1,$6,$7*
1,1,$1+$1,$8,$9*
0 Add four rect primitives between the rounded corners*
20,1,$1+$1,$2,$3,$4,$5,0*
20,1,$1+$1,$4,$5,$6,$7,0*
20,1,$1+$1,$6,$7,$8,$9,0*
20,1,$1+$1,$8,$9,$2,$3,0*%
G04 Aperture macros list end*
%ADD10C,0.175000*%
%ADD11C,0.150000*%
%ADD12C,0.120000*%
%ADD13RoundRect,0.250000X-0.262500X-0.450000X0.262500X-0.450000X0.262500X0.450000X-0.262500X0.450000X0*%
%ADD14C,3.200000*%
%ADD15RoundRect,0.150000X-0.150000X0.825000X-0.150000X-0.825000X0.150000X-0.825000X0.150000X0.825000X0*%
%ADD16RoundRect,0.250000X0.450000X-0.262500X0.450000X0.262500X-0.450000X0.262500X-0.450000X-0.262500X0*%
%ADD17RoundRect,0.250000X0.262500X0.450000X-0.262500X0.450000X-0.262500X-0.450000X0.262500X-0.450000X0*%
%ADD18RoundRect,0.250000X-0.450000X0.262500X-0.450000X-0.262500X0.450000X-0.262500X0.450000X0.262500X0*%
%ADD19R,0.800000X1.900000*%
%ADD20R,1.700000X1.700000*%
%ADD21O,1.700000X1.700000*%
%ADD22RoundRect,0.250000X-0.325000X-0.450000X0.325000X-0.450000X0.325000X0.450000X-0.325000X0.450000X0*%
G04 APERTURE END LIST*
D10*
X35408616Y-52081866D02*
X35408616Y-51381866D01*
X35741950Y-51615200D02*
X35741950Y-52081866D01*
X35741950Y-51681866D02*
X35775283Y-51648533D01*
X35841950Y-51615200D01*
X35941950Y-51615200D01*
X36008616Y-51648533D01*
X36041950Y-51715200D01*
X36041950Y-52081866D01*
X36375283Y-51615200D02*
X36375283Y-52315200D01*
X36375283Y-51648533D02*
X36441950Y-51615200D01*
X36575283Y-51615200D01*
X36641950Y-51648533D01*
X36675283Y-51681866D01*
X36708616Y-51748533D01*
X36708616Y-51948533D01*
X36675283Y-52015200D01*
X36641950Y-52048533D01*
X36575283Y-52081866D01*
X36441950Y-52081866D01*
X36375283Y-52048533D01*
X37308616Y-51615200D02*
X37308616Y-52081866D01*
X37008616Y-51615200D02*
X37008616Y-51981866D01*
X37041950Y-52048533D01*
X37108616Y-52081866D01*
X37208616Y-52081866D01*
X37275283Y-52048533D01*
X37308616Y-52015200D01*
X37541950Y-51615200D02*
X37808616Y-51615200D01*
X37641950Y-51381866D02*
X37641950Y-51981866D01*
X37675283Y-52048533D01*
X37741950Y-52081866D01*
X37808616Y-52081866D01*
X73932483Y-36554533D02*
X74032483Y-36587866D01*
X74199150Y-36587866D01*
X74265816Y-36554533D01*
X74299150Y-36521200D01*
X74332483Y-36454533D01*
X74332483Y-36387866D01*
X74299150Y-36321200D01*
X74265816Y-36287866D01*
X74199150Y-36254533D01*
X74065816Y-36221200D01*
X73999150Y-36187866D01*
X73965816Y-36154533D01*
X73932483Y-36087866D01*
X73932483Y-36021200D01*
X73965816Y-35954533D01*
X73999150Y-35921200D01*
X74065816Y-35887866D01*
X74232483Y-35887866D01*
X74332483Y-35921200D01*
X74565816Y-35887866D02*
X74999150Y-35887866D01*
X74765816Y-36154533D01*
X74865816Y-36154533D01*
X74932483Y-36187866D01*
X74965816Y-36221200D01*
X74999150Y-36287866D01*
X74999150Y-36454533D01*
X74965816Y-36521200D01*
X74932483Y-36554533D01*
X74865816Y-36587866D01*
X74665816Y-36587866D01*
X74599150Y-36554533D01*
X74565816Y-36521200D01*
X73932483Y-31423733D02*
X74032483Y-31457066D01*
X74199150Y-31457066D01*
X74265816Y-31423733D01*
X74299150Y-31390400D01*
X74332483Y-31323733D01*
X74332483Y-31257066D01*
X74299150Y-31190400D01*
X74265816Y-31157066D01*
X74199150Y-31123733D01*
X74065816Y-31090400D01*
X73999150Y-31057066D01*
X73965816Y-31023733D01*
X73932483Y-30957066D01*
X73932483Y-30890400D01*
X73965816Y-30823733D01*
X73999150Y-30790400D01*
X74065816Y-30757066D01*
X74232483Y-30757066D01*
X74332483Y-30790400D01*
X74999150Y-31457066D02*
X74599150Y-31457066D01*
X74799150Y-31457066D02*
X74799150Y-30757066D01*
X74732483Y-30857066D01*
X74665816Y-30923733D01*
X74599150Y-30957066D01*
X42244133Y-39173716D02*
X42277466Y-39073716D01*
X42277466Y-38907050D01*
X42244133Y-38840383D01*
X42210800Y-38807050D01*
X42144133Y-38773716D01*
X42077466Y-38773716D01*
X42010800Y-38807050D01*
X41977466Y-38840383D01*
X41944133Y-38907050D01*
X41910800Y-39040383D01*
X41877466Y-39107050D01*
X41844133Y-39140383D01*
X41777466Y-39173716D01*
X41710800Y-39173716D01*
X41644133Y-39140383D01*
X41610800Y-39107050D01*
X41577466Y-39040383D01*
X41577466Y-38873716D01*
X41610800Y-38773716D01*
X41810800Y-38173716D02*
X42277466Y-38173716D01*
X41544133Y-38340383D02*
X42044133Y-38507050D01*
X42044133Y-38073716D01*
X42244133Y-36659116D02*
X42277466Y-36559116D01*
X42277466Y-36392450D01*
X42244133Y-36325783D01*
X42210800Y-36292450D01*
X42144133Y-36259116D01*
X42077466Y-36259116D01*
X42010800Y-36292450D01*
X41977466Y-36325783D01*
X41944133Y-36392450D01*
X41910800Y-36525783D01*
X41877466Y-36592450D01*
X41844133Y-36625783D01*
X41777466Y-36659116D01*
X41710800Y-36659116D01*
X41644133Y-36625783D01*
X41610800Y-36592450D01*
X41577466Y-36525783D01*
X41577466Y-36359116D01*
X41610800Y-36259116D01*
X41577466Y-36025783D02*
X41577466Y-35592450D01*
X41844133Y-35825783D01*
X41844133Y-35725783D01*
X41877466Y-35659116D01*
X41910800Y-35625783D01*
X41977466Y-35592450D01*
X42144133Y-35592450D01*
X42210800Y-35625783D01*
X42244133Y-35659116D01*
X42277466Y-35725783D01*
X42277466Y-35925783D01*
X42244133Y-35992450D01*
X42210800Y-36025783D01*
X73932483Y-39119933D02*
X74032483Y-39153266D01*
X74199150Y-39153266D01*
X74265816Y-39119933D01*
X74299150Y-39086600D01*
X74332483Y-39019933D01*
X74332483Y-38953266D01*
X74299150Y-38886600D01*
X74265816Y-38853266D01*
X74199150Y-38819933D01*
X74065816Y-38786600D01*
X73999150Y-38753266D01*
X73965816Y-38719933D01*
X73932483Y-38653266D01*
X73932483Y-38586600D01*
X73965816Y-38519933D01*
X73999150Y-38486600D01*
X74065816Y-38453266D01*
X74232483Y-38453266D01*
X74332483Y-38486600D01*
X74932483Y-38686600D02*
X74932483Y-39153266D01*
X74765816Y-38419933D02*
X74599150Y-38919933D01*
X75032483Y-38919933D01*
X73932483Y-33938333D02*
X74032483Y-33971666D01*
X74199150Y-33971666D01*
X74265816Y-33938333D01*
X74299150Y-33905000D01*
X74332483Y-33838333D01*
X74332483Y-33771666D01*
X74299150Y-33705000D01*
X74265816Y-33671666D01*
X74199150Y-33638333D01*
X74065816Y-33605000D01*
X73999150Y-33571666D01*
X73965816Y-33538333D01*
X73932483Y-33471666D01*
X73932483Y-33405000D01*
X73965816Y-33338333D01*
X73999150Y-33305000D01*
X74065816Y-33271666D01*
X74232483Y-33271666D01*
X74332483Y-33305000D01*
X74599150Y-33338333D02*
X74632483Y-33305000D01*
X74699150Y-33271666D01*
X74865816Y-33271666D01*
X74932483Y-33305000D01*
X74965816Y-33338333D01*
X74999150Y-33405000D01*
X74999150Y-33471666D01*
X74965816Y-33571666D01*
X74565816Y-33971666D01*
X74999150Y-33971666D01*
X73932483Y-44174533D02*
X74032483Y-44207866D01*
X74199150Y-44207866D01*
X74265816Y-44174533D01*
X74299150Y-44141200D01*
X74332483Y-44074533D01*
X74332483Y-44007866D01*
X74299150Y-43941200D01*
X74265816Y-43907866D01*
X74199150Y-43874533D01*
X74065816Y-43841200D01*
X73999150Y-43807866D01*
X73965816Y-43774533D01*
X73932483Y-43707866D01*
X73932483Y-43641200D01*
X73965816Y-43574533D01*
X73999150Y-43541200D01*
X74065816Y-43507866D01*
X74232483Y-43507866D01*
X74332483Y-43541200D01*
X74932483Y-43507866D02*
X74799150Y-43507866D01*
X74732483Y-43541200D01*
X74699150Y-43574533D01*
X74632483Y-43674533D01*
X74599150Y-43807866D01*
X74599150Y-44074533D01*
X74632483Y-44141200D01*
X74665816Y-44174533D01*
X74732483Y-44207866D01*
X74865816Y-44207866D01*
X74932483Y-44174533D01*
X74965816Y-44141200D01*
X74999150Y-44074533D01*
X74999150Y-43907866D01*
X74965816Y-43841200D01*
X74932483Y-43807866D01*
X74865816Y-43774533D01*
X74732483Y-43774533D01*
X74665816Y-43807866D01*
X74632483Y-43841200D01*
X74599150Y-43907866D01*
X41577466Y-47081050D02*
X41577466Y-46647716D01*
X41844133Y-46881050D01*
X41844133Y-46781050D01*
X41877466Y-46714383D01*
X41910800Y-46681050D01*
X41977466Y-46647716D01*
X42144133Y-46647716D01*
X42210800Y-46681050D01*
X42244133Y-46714383D01*
X42277466Y-46781050D01*
X42277466Y-46981050D01*
X42244133Y-47047716D01*
X42210800Y-47081050D01*
X41577466Y-46447716D02*
X42277466Y-46214383D01*
X41577466Y-45981050D01*
X41577466Y-45814383D02*
X41577466Y-45381050D01*
X41844133Y-45614383D01*
X41844133Y-45514383D01*
X41877466Y-45447716D01*
X41910800Y-45414383D01*
X41977466Y-45381050D01*
X42144133Y-45381050D01*
X42210800Y-45414383D01*
X42244133Y-45447716D01*
X42277466Y-45514383D01*
X42277466Y-45714383D01*
X42244133Y-45781050D01*
X42210800Y-45814383D01*
X74299150Y-48079866D02*
X73965816Y-48079866D01*
X73932483Y-48413200D01*
X73965816Y-48379866D01*
X74032483Y-48346533D01*
X74199150Y-48346533D01*
X74265816Y-48379866D01*
X74299150Y-48413200D01*
X74332483Y-48479866D01*
X74332483Y-48646533D01*
X74299150Y-48713200D01*
X74265816Y-48746533D01*
X74199150Y-48779866D01*
X74032483Y-48779866D01*
X73965816Y-48746533D01*
X73932483Y-48713200D01*
X74532483Y-48079866D02*
X74765816Y-48779866D01*
X74999150Y-48079866D01*
X42244133Y-34119116D02*
X42277466Y-34019116D01*
X42277466Y-33852450D01*
X42244133Y-33785783D01*
X42210800Y-33752450D01*
X42144133Y-33719116D01*
X42077466Y-33719116D01*
X42010800Y-33752450D01*
X41977466Y-33785783D01*
X41944133Y-33852450D01*
X41910800Y-33985783D01*
X41877466Y-34052450D01*
X41844133Y-34085783D01*
X41777466Y-34119116D01*
X41710800Y-34119116D01*
X41644133Y-34085783D01*
X41610800Y-34052450D01*
X41577466Y-33985783D01*
X41577466Y-33819116D01*
X41610800Y-33719116D01*
X41644133Y-33452450D02*
X41610800Y-33419116D01*
X41577466Y-33352450D01*
X41577466Y-33185783D01*
X41610800Y-33119116D01*
X41644133Y-33085783D01*
X41710800Y-33052450D01*
X41777466Y-33052450D01*
X41877466Y-33085783D01*
X42277466Y-33485783D01*
X42277466Y-33052450D01*
X78544150Y-51331066D02*
X78677483Y-51331066D01*
X78744150Y-51364400D01*
X78810816Y-51431066D01*
X78844150Y-51564400D01*
X78844150Y-51797733D01*
X78810816Y-51931066D01*
X78744150Y-51997733D01*
X78677483Y-52031066D01*
X78544150Y-52031066D01*
X78477483Y-51997733D01*
X78410816Y-51931066D01*
X78377483Y-51797733D01*
X78377483Y-51564400D01*
X78410816Y-51431066D01*
X78477483Y-51364400D01*
X78544150Y-51331066D01*
X79444150Y-51564400D02*
X79444150Y-52031066D01*
X79144150Y-51564400D02*
X79144150Y-51931066D01*
X79177483Y-51997733D01*
X79244150Y-52031066D01*
X79344150Y-52031066D01*
X79410816Y-51997733D01*
X79444150Y-51964400D01*
X79677483Y-51564400D02*
X79944150Y-51564400D01*
X79777483Y-51331066D02*
X79777483Y-51931066D01*
X79810816Y-51997733D01*
X79877483Y-52031066D01*
X79944150Y-52031066D01*
X80177483Y-51564400D02*
X80177483Y-52264400D01*
X80177483Y-51597733D02*
X80244150Y-51564400D01*
X80377483Y-51564400D01*
X80444150Y-51597733D01*
X80477483Y-51631066D01*
X80510816Y-51697733D01*
X80510816Y-51897733D01*
X80477483Y-51964400D01*
X80444150Y-51997733D01*
X80377483Y-52031066D01*
X80244150Y-52031066D01*
X80177483Y-51997733D01*
X81110816Y-51564400D02*
X81110816Y-52031066D01*
X80810816Y-51564400D02*
X80810816Y-51931066D01*
X80844150Y-51997733D01*
X80910816Y-52031066D01*
X81010816Y-52031066D01*
X81077483Y-51997733D01*
X81110816Y-51964400D01*
X81344150Y-51564400D02*
X81610816Y-51564400D01*
X81444150Y-51331066D02*
X81444150Y-51931066D01*
X81477483Y-51997733D01*
X81544150Y-52031066D01*
X81610816Y-52031066D01*
X42244133Y-41764516D02*
X42277466Y-41664516D01*
X42277466Y-41497850D01*
X42244133Y-41431183D01*
X42210800Y-41397850D01*
X42144133Y-41364516D01*
X42077466Y-41364516D01*
X42010800Y-41397850D01*
X41977466Y-41431183D01*
X41944133Y-41497850D01*
X41910800Y-41631183D01*
X41877466Y-41697850D01*
X41844133Y-41731183D01*
X41777466Y-41764516D01*
X41710800Y-41764516D01*
X41644133Y-41731183D01*
X41610800Y-41697850D01*
X41577466Y-41631183D01*
X41577466Y-41464516D01*
X41610800Y-41364516D01*
X41577466Y-40731183D02*
X41577466Y-41064516D01*
X41910800Y-41097850D01*
X41877466Y-41064516D01*
X41844133Y-40997850D01*
X41844133Y-40831183D01*
X41877466Y-40764516D01*
X41910800Y-40731183D01*
X41977466Y-40697850D01*
X42144133Y-40697850D01*
X42210800Y-40731183D01*
X42244133Y-40764516D01*
X42277466Y-40831183D01*
X42277466Y-40997850D01*
X42244133Y-41064516D01*
X42210800Y-41097850D01*
X34664083Y-19349333D02*
X34764083Y-19382666D01*
X34930750Y-19382666D01*
X34997416Y-19349333D01*
X35030750Y-19316000D01*
X35064083Y-19249333D01*
X35064083Y-19182666D01*
X35030750Y-19116000D01*
X34997416Y-19082666D01*
X34930750Y-19049333D01*
X34797416Y-19016000D01*
X34730750Y-18982666D01*
X34697416Y-18949333D01*
X34664083Y-18882666D01*
X34664083Y-18816000D01*
X34697416Y-18749333D01*
X34730750Y-18716000D01*
X34797416Y-18682666D01*
X34964083Y-18682666D01*
X35064083Y-18716000D01*
X35364083Y-19382666D02*
X35364083Y-18916000D01*
X35364083Y-18682666D02*
X35330750Y-18716000D01*
X35364083Y-18749333D01*
X35397416Y-18716000D01*
X35364083Y-18682666D01*
X35364083Y-18749333D01*
X35630750Y-19382666D02*
X35997416Y-18916000D01*
X35630750Y-18916000D02*
X35997416Y-19382666D01*
X36264083Y-19116000D02*
X36797416Y-19116000D01*
X37430750Y-19349333D02*
X37364083Y-19382666D01*
X37230750Y-19382666D01*
X37164083Y-19349333D01*
X37130750Y-19316000D01*
X37097416Y-19249333D01*
X37097416Y-19049333D01*
X37130750Y-18982666D01*
X37164083Y-18949333D01*
X37230750Y-18916000D01*
X37364083Y-18916000D01*
X37430750Y-18949333D01*
X37730750Y-19382666D02*
X37730750Y-18682666D01*
X38030750Y-19382666D02*
X38030750Y-19016000D01*
X37997416Y-18949333D01*
X37930750Y-18916000D01*
X37830750Y-18916000D01*
X37764083Y-18949333D01*
X37730750Y-18982666D01*
X38664083Y-19382666D02*
X38664083Y-19016000D01*
X38630750Y-18949333D01*
X38564083Y-18916000D01*
X38430750Y-18916000D01*
X38364083Y-18949333D01*
X38664083Y-19349333D02*
X38597416Y-19382666D01*
X38430750Y-19382666D01*
X38364083Y-19349333D01*
X38330750Y-19282666D01*
X38330750Y-19216000D01*
X38364083Y-19149333D01*
X38430750Y-19116000D01*
X38597416Y-19116000D01*
X38664083Y-19082666D01*
X38997416Y-18916000D02*
X38997416Y-19382666D01*
X38997416Y-18982666D02*
X39030750Y-18949333D01*
X39097416Y-18916000D01*
X39197416Y-18916000D01*
X39264083Y-18949333D01*
X39297416Y-19016000D01*
X39297416Y-19382666D01*
X39630750Y-18916000D02*
X39630750Y-19382666D01*
X39630750Y-18982666D02*
X39664083Y-18949333D01*
X39730750Y-18916000D01*
X39830750Y-18916000D01*
X39897416Y-18949333D01*
X39930750Y-19016000D01*
X39930750Y-19382666D01*
X40530750Y-19349333D02*
X40464083Y-19382666D01*
X40330750Y-19382666D01*
X40264083Y-19349333D01*
X40230750Y-19282666D01*
X40230750Y-19016000D01*
X40264083Y-18949333D01*
X40330750Y-18916000D01*
X40464083Y-18916000D01*
X40530750Y-18949333D01*
X40564083Y-19016000D01*
X40564083Y-19082666D01*
X40230750Y-19149333D01*
X40964083Y-19382666D02*
X40897416Y-19349333D01*
X40864083Y-19282666D01*
X40864083Y-18682666D01*
X42064083Y-19382666D02*
X42064083Y-19016000D01*
X42030750Y-18949333D01*
X41964083Y-18916000D01*
X41830750Y-18916000D01*
X41764083Y-18949333D01*
X42064083Y-19349333D02*
X41997416Y-19382666D01*
X41830750Y-19382666D01*
X41764083Y-19349333D01*
X41730750Y-19282666D01*
X41730750Y-19216000D01*
X41764083Y-19149333D01*
X41830750Y-19116000D01*
X41997416Y-19116000D01*
X42064083Y-19082666D01*
X42397416Y-19382666D02*
X42397416Y-18916000D01*
X42397416Y-18982666D02*
X42430750Y-18949333D01*
X42497416Y-18916000D01*
X42597416Y-18916000D01*
X42664083Y-18949333D01*
X42697416Y-19016000D01*
X42697416Y-19382666D01*
X42697416Y-19016000D02*
X42730750Y-18949333D01*
X42797416Y-18916000D01*
X42897416Y-18916000D01*
X42964083Y-18949333D01*
X42997416Y-19016000D01*
X42997416Y-19382666D01*
X43330750Y-18916000D02*
X43330750Y-19616000D01*
X43330750Y-18949333D02*
X43397416Y-18916000D01*
X43530750Y-18916000D01*
X43597416Y-18949333D01*
X43630750Y-18982666D01*
X43664083Y-19049333D01*
X43664083Y-19249333D01*
X43630750Y-19316000D01*
X43597416Y-19349333D01*
X43530750Y-19382666D01*
X43397416Y-19382666D01*
X43330750Y-19349333D01*
X44064083Y-19382666D02*
X43997416Y-19349333D01*
X43964083Y-19282666D01*
X43964083Y-18682666D01*
X44330750Y-19382666D02*
X44330750Y-18916000D01*
X44330750Y-18682666D02*
X44297416Y-18716000D01*
X44330750Y-18749333D01*
X44364083Y-18716000D01*
X44330750Y-18682666D01*
X44330750Y-18749333D01*
X44564083Y-18916000D02*
X44830750Y-18916000D01*
X44664083Y-19382666D02*
X44664083Y-18782666D01*
X44697416Y-18716000D01*
X44764083Y-18682666D01*
X44830750Y-18682666D01*
X45064083Y-19382666D02*
X45064083Y-18916000D01*
X45064083Y-18682666D02*
X45030750Y-18716000D01*
X45064083Y-18749333D01*
X45097416Y-18716000D01*
X45064083Y-18682666D01*
X45064083Y-18749333D01*
X45664083Y-19349333D02*
X45597416Y-19382666D01*
X45464083Y-19382666D01*
X45397416Y-19349333D01*
X45364083Y-19282666D01*
X45364083Y-19016000D01*
X45397416Y-18949333D01*
X45464083Y-18916000D01*
X45597416Y-18916000D01*
X45664083Y-18949333D01*
X45697416Y-19016000D01*
X45697416Y-19082666D01*
X45364083Y-19149333D01*
X45997416Y-19382666D02*
X45997416Y-18916000D01*
X45997416Y-19049333D02*
X46030750Y-18982666D01*
X46064083Y-18949333D01*
X46130750Y-18916000D01*
X46197416Y-18916000D01*
X34697416Y-20509666D02*
X34697416Y-19809666D01*
X34697416Y-20076333D02*
X34764083Y-20043000D01*
X34897416Y-20043000D01*
X34964083Y-20076333D01*
X34997416Y-20109666D01*
X35030750Y-20176333D01*
X35030750Y-20376333D01*
X34997416Y-20443000D01*
X34964083Y-20476333D01*
X34897416Y-20509666D01*
X34764083Y-20509666D01*
X34697416Y-20476333D01*
X35430750Y-20509666D02*
X35364083Y-20476333D01*
X35330750Y-20443000D01*
X35297416Y-20376333D01*
X35297416Y-20176333D01*
X35330750Y-20109666D01*
X35364083Y-20076333D01*
X35430750Y-20043000D01*
X35530750Y-20043000D01*
X35597416Y-20076333D01*
X35630750Y-20109666D01*
X35664083Y-20176333D01*
X35664083Y-20376333D01*
X35630750Y-20443000D01*
X35597416Y-20476333D01*
X35530750Y-20509666D01*
X35430750Y-20509666D01*
X36264083Y-20509666D02*
X36264083Y-20143000D01*
X36230750Y-20076333D01*
X36164083Y-20043000D01*
X36030750Y-20043000D01*
X35964083Y-20076333D01*
X36264083Y-20476333D02*
X36197416Y-20509666D01*
X36030750Y-20509666D01*
X35964083Y-20476333D01*
X35930750Y-20409666D01*
X35930750Y-20343000D01*
X35964083Y-20276333D01*
X36030750Y-20243000D01*
X36197416Y-20243000D01*
X36264083Y-20209666D01*
X36597416Y-20509666D02*
X36597416Y-20043000D01*
X36597416Y-20176333D02*
X36630750Y-20109666D01*
X36664083Y-20076333D01*
X36730750Y-20043000D01*
X36797416Y-20043000D01*
X37330750Y-20509666D02*
X37330750Y-19809666D01*
X37330750Y-20476333D02*
X37264083Y-20509666D01*
X37130750Y-20509666D01*
X37064083Y-20476333D01*
X37030750Y-20443000D01*
X36997416Y-20376333D01*
X36997416Y-20176333D01*
X37030750Y-20109666D01*
X37064083Y-20076333D01*
X37130750Y-20043000D01*
X37264083Y-20043000D01*
X37330750Y-20076333D01*
X34630750Y-21170000D02*
X34797416Y-21636666D01*
X34964083Y-21170000D01*
X35597416Y-21636666D02*
X35197416Y-21636666D01*
X35397416Y-21636666D02*
X35397416Y-20936666D01*
X35330750Y-21036666D01*
X35264083Y-21103333D01*
X35197416Y-21136666D01*
X35897416Y-21570000D02*
X35930750Y-21603333D01*
X35897416Y-21636666D01*
X35864083Y-21603333D01*
X35897416Y-21570000D01*
X35897416Y-21636666D01*
X36364083Y-20936666D02*
X36430750Y-20936666D01*
X36497416Y-20970000D01*
X36530750Y-21003333D01*
X36564083Y-21070000D01*
X36597416Y-21203333D01*
X36597416Y-21370000D01*
X36564083Y-21503333D01*
X36530750Y-21570000D01*
X36497416Y-21603333D01*
X36430750Y-21636666D01*
X36364083Y-21636666D01*
X36297416Y-21603333D01*
X36264083Y-21570000D01*
X36230750Y-21503333D01*
X36197416Y-21370000D01*
X36197416Y-21203333D01*
X36230750Y-21070000D01*
X36264083Y-21003333D01*
X36297416Y-20970000D01*
X36364083Y-20936666D01*
X37430750Y-21370000D02*
X37964083Y-21370000D01*
X38964083Y-20936666D02*
X39030750Y-20936666D01*
X39097416Y-20970000D01*
X39130750Y-21003333D01*
X39164083Y-21070000D01*
X39197416Y-21203333D01*
X39197416Y-21370000D01*
X39164083Y-21503333D01*
X39130750Y-21570000D01*
X39097416Y-21603333D01*
X39030750Y-21636666D01*
X38964083Y-21636666D01*
X38897416Y-21603333D01*
X38864083Y-21570000D01*
X38830750Y-21503333D01*
X38797416Y-21370000D01*
X38797416Y-21203333D01*
X38830750Y-21070000D01*
X38864083Y-21003333D01*
X38897416Y-20970000D01*
X38964083Y-20936666D01*
X39597416Y-21236666D02*
X39530750Y-21203333D01*
X39497416Y-21170000D01*
X39464083Y-21103333D01*
X39464083Y-21070000D01*
X39497416Y-21003333D01*
X39530750Y-20970000D01*
X39597416Y-20936666D01*
X39730750Y-20936666D01*
X39797416Y-20970000D01*
X39830750Y-21003333D01*
X39864083Y-21070000D01*
X39864083Y-21103333D01*
X39830750Y-21170000D01*
X39797416Y-21203333D01*
X39730750Y-21236666D01*
X39597416Y-21236666D01*
X39530750Y-21270000D01*
X39497416Y-21303333D01*
X39464083Y-21370000D01*
X39464083Y-21503333D01*
X39497416Y-21570000D01*
X39530750Y-21603333D01*
X39597416Y-21636666D01*
X39730750Y-21636666D01*
X39797416Y-21603333D01*
X39830750Y-21570000D01*
X39864083Y-21503333D01*
X39864083Y-21370000D01*
X39830750Y-21303333D01*
X39797416Y-21270000D01*
X39730750Y-21236666D01*
X40164083Y-21570000D02*
X40197416Y-21603333D01*
X40164083Y-21636666D01*
X40130750Y-21603333D01*
X40164083Y-21570000D01*
X40164083Y-21636666D01*
X40464083Y-21003333D02*
X40497416Y-20970000D01*
X40564083Y-20936666D01*
X40730750Y-20936666D01*
X40797416Y-20970000D01*
X40830750Y-21003333D01*
X40864083Y-21070000D01*
X40864083Y-21136666D01*
X40830750Y-21236666D01*
X40430750Y-21636666D01*
X40864083Y-21636666D01*
X41297416Y-20936666D02*
X41364083Y-20936666D01*
X41430750Y-20970000D01*
X41464083Y-21003333D01*
X41497416Y-21070000D01*
X41530750Y-21203333D01*
X41530750Y-21370000D01*
X41497416Y-21503333D01*
X41464083Y-21570000D01*
X41430750Y-21603333D01*
X41364083Y-21636666D01*
X41297416Y-21636666D01*
X41230750Y-21603333D01*
X41197416Y-21570000D01*
X41164083Y-21503333D01*
X41130750Y-21370000D01*
X41130750Y-21203333D01*
X41164083Y-21070000D01*
X41197416Y-21003333D01*
X41230750Y-20970000D01*
X41297416Y-20936666D01*
X41797416Y-21003333D02*
X41830750Y-20970000D01*
X41897416Y-20936666D01*
X42064083Y-20936666D01*
X42130750Y-20970000D01*
X42164083Y-21003333D01*
X42197416Y-21070000D01*
X42197416Y-21136666D01*
X42164083Y-21236666D01*
X41764083Y-21636666D01*
X42197416Y-21636666D01*
X42464083Y-21003333D02*
X42497416Y-20970000D01*
X42564083Y-20936666D01*
X42730750Y-20936666D01*
X42797416Y-20970000D01*
X42830750Y-21003333D01*
X42864083Y-21070000D01*
X42864083Y-21136666D01*
X42830750Y-21236666D01*
X42430750Y-21636666D01*
X42864083Y-21636666D01*
X39907550Y-50924666D02*
X39574216Y-50924666D01*
X39540883Y-51258000D01*
X39574216Y-51224666D01*
X39640883Y-51191333D01*
X39807550Y-51191333D01*
X39874216Y-51224666D01*
X39907550Y-51258000D01*
X39940883Y-51324666D01*
X39940883Y-51491333D01*
X39907550Y-51558000D01*
X39874216Y-51591333D01*
X39807550Y-51624666D01*
X39640883Y-51624666D01*
X39574216Y-51591333D01*
X39540883Y-51558000D01*
X40140883Y-50924666D02*
X40374216Y-51624666D01*
X40607550Y-50924666D01*
X42244133Y-31528316D02*
X42277466Y-31428316D01*
X42277466Y-31261650D01*
X42244133Y-31194983D01*
X42210800Y-31161650D01*
X42144133Y-31128316D01*
X42077466Y-31128316D01*
X42010800Y-31161650D01*
X41977466Y-31194983D01*
X41944133Y-31261650D01*
X41910800Y-31394983D01*
X41877466Y-31461650D01*
X41844133Y-31494983D01*
X41777466Y-31528316D01*
X41710800Y-31528316D01*
X41644133Y-31494983D01*
X41610800Y-31461650D01*
X41577466Y-31394983D01*
X41577466Y-31228316D01*
X41610800Y-31128316D01*
X42277466Y-30461650D02*
X42277466Y-30861650D01*
X42277466Y-30661650D02*
X41577466Y-30661650D01*
X41677466Y-30728316D01*
X41744133Y-30794983D01*
X41777466Y-30861650D01*
X42244133Y-44304516D02*
X42277466Y-44204516D01*
X42277466Y-44037850D01*
X42244133Y-43971183D01*
X42210800Y-43937850D01*
X42144133Y-43904516D01*
X42077466Y-43904516D01*
X42010800Y-43937850D01*
X41977466Y-43971183D01*
X41944133Y-44037850D01*
X41910800Y-44171183D01*
X41877466Y-44237850D01*
X41844133Y-44271183D01*
X41777466Y-44304516D01*
X41710800Y-44304516D01*
X41644133Y-44271183D01*
X41610800Y-44237850D01*
X41577466Y-44171183D01*
X41577466Y-44004516D01*
X41610800Y-43904516D01*
X41577466Y-43304516D02*
X41577466Y-43437850D01*
X41610800Y-43504516D01*
X41644133Y-43537850D01*
X41744133Y-43604516D01*
X41877466Y-43637850D01*
X42144133Y-43637850D01*
X42210800Y-43604516D01*
X42244133Y-43571183D01*
X42277466Y-43504516D01*
X42277466Y-43371183D01*
X42244133Y-43304516D01*
X42210800Y-43271183D01*
X42144133Y-43237850D01*
X41977466Y-43237850D01*
X41910800Y-43271183D01*
X41877466Y-43304516D01*
X41844133Y-43371183D01*
X41844133Y-43504516D01*
X41877466Y-43571183D01*
X41910800Y-43604516D01*
X41977466Y-43637850D01*
X46357616Y-46378066D02*
X46590950Y-47078066D01*
X46824283Y-46378066D01*
X47357616Y-47044733D02*
X47290950Y-47078066D01*
X47157616Y-47078066D01*
X47090950Y-47044733D01*
X47057616Y-47011400D01*
X47024283Y-46944733D01*
X47024283Y-46744733D01*
X47057616Y-46678066D01*
X47090950Y-46644733D01*
X47157616Y-46611400D01*
X47290950Y-46611400D01*
X47357616Y-46644733D01*
X47957616Y-47044733D02*
X47890950Y-47078066D01*
X47757616Y-47078066D01*
X47690950Y-47044733D01*
X47657616Y-47011400D01*
X47624283Y-46944733D01*
X47624283Y-46744733D01*
X47657616Y-46678066D01*
X47690950Y-46644733D01*
X47757616Y-46611400D01*
X47890950Y-46611400D01*
X47957616Y-46644733D01*
X73932483Y-41634533D02*
X74032483Y-41667866D01*
X74199150Y-41667866D01*
X74265816Y-41634533D01*
X74299150Y-41601200D01*
X74332483Y-41534533D01*
X74332483Y-41467866D01*
X74299150Y-41401200D01*
X74265816Y-41367866D01*
X74199150Y-41334533D01*
X74065816Y-41301200D01*
X73999150Y-41267866D01*
X73965816Y-41234533D01*
X73932483Y-41167866D01*
X73932483Y-41101200D01*
X73965816Y-41034533D01*
X73999150Y-41001200D01*
X74065816Y-40967866D01*
X74232483Y-40967866D01*
X74332483Y-41001200D01*
X74965816Y-40967866D02*
X74632483Y-40967866D01*
X74599150Y-41301200D01*
X74632483Y-41267866D01*
X74699150Y-41234533D01*
X74865816Y-41234533D01*
X74932483Y-41267866D01*
X74965816Y-41301200D01*
X74999150Y-41367866D01*
X74999150Y-41534533D01*
X74965816Y-41601200D01*
X74932483Y-41634533D01*
X74865816Y-41667866D01*
X74699150Y-41667866D01*
X74632483Y-41634533D01*
X74599150Y-41601200D01*
X73899150Y-46022466D02*
X74332483Y-46022466D01*
X74099150Y-46289133D01*
X74199150Y-46289133D01*
X74265816Y-46322466D01*
X74299150Y-46355800D01*
X74332483Y-46422466D01*
X74332483Y-46589133D01*
X74299150Y-46655800D01*
X74265816Y-46689133D01*
X74199150Y-46722466D01*
X73999150Y-46722466D01*
X73932483Y-46689133D01*
X73899150Y-46655800D01*
X74532483Y-46022466D02*
X74765816Y-46722466D01*
X74999150Y-46022466D01*
X75165816Y-46022466D02*
X75599150Y-46022466D01*
X75365816Y-46289133D01*
X75465816Y-46289133D01*
X75532483Y-46322466D01*
X75565816Y-46355800D01*
X75599150Y-46422466D01*
X75599150Y-46589133D01*
X75565816Y-46655800D01*
X75532483Y-46689133D01*
X75465816Y-46722466D01*
X75265816Y-46722466D01*
X75199150Y-46689133D01*
X75165816Y-46655800D01*
D11*
X41612400Y-60057466D02*
X41379066Y-59724133D01*
X41212400Y-60057466D02*
X41212400Y-59357466D01*
X41479066Y-59357466D01*
X41545733Y-59390800D01*
X41579066Y-59424133D01*
X41612400Y-59490800D01*
X41612400Y-59590800D01*
X41579066Y-59657466D01*
X41545733Y-59690800D01*
X41479066Y-59724133D01*
X41212400Y-59724133D01*
X42245733Y-59357466D02*
X41912400Y-59357466D01*
X41879066Y-59690800D01*
X41912400Y-59657466D01*
X41979066Y-59624133D01*
X42145733Y-59624133D01*
X42212400Y-59657466D01*
X42245733Y-59690800D01*
X42279066Y-59757466D01*
X42279066Y-59924133D01*
X42245733Y-59990800D01*
X42212400Y-60024133D01*
X42145733Y-60057466D01*
X41979066Y-60057466D01*
X41912400Y-60024133D01*
X41879066Y-59990800D01*
X42512400Y-59357466D02*
X42979066Y-59357466D01*
X42679066Y-60057466D01*
X69095200Y-47763866D02*
X68861866Y-47430533D01*
X68695200Y-47763866D02*
X68695200Y-47063866D01*
X68961866Y-47063866D01*
X69028533Y-47097200D01*
X69061866Y-47130533D01*
X69095200Y-47197200D01*
X69095200Y-47297200D01*
X69061866Y-47363866D01*
X69028533Y-47397200D01*
X68961866Y-47430533D01*
X68695200Y-47430533D01*
X69695200Y-47297200D02*
X69695200Y-47763866D01*
X69528533Y-47030533D02*
X69361866Y-47530533D01*
X69795200Y-47530533D01*
X69995200Y-47063866D02*
X70461866Y-47063866D01*
X70161866Y-47763866D01*
X54178266Y-53363066D02*
X54178266Y-53929733D01*
X54211600Y-53996400D01*
X54244933Y-54029733D01*
X54311600Y-54063066D01*
X54444933Y-54063066D01*
X54511600Y-54029733D01*
X54544933Y-53996400D01*
X54578266Y-53929733D01*
X54578266Y-53363066D01*
X55244933Y-53363066D02*
X54911600Y-53363066D01*
X54878266Y-53696400D01*
X54911600Y-53663066D01*
X54978266Y-53629733D01*
X55144933Y-53629733D01*
X55211600Y-53663066D01*
X55244933Y-53696400D01*
X55278266Y-53763066D01*
X55278266Y-53929733D01*
X55244933Y-53996400D01*
X55211600Y-54029733D01*
X55144933Y-54063066D01*
X54978266Y-54063066D01*
X54911600Y-54029733D01*
X54878266Y-53996400D01*
X45325466Y-49065600D02*
X44992133Y-49298933D01*
X45325466Y-49465600D02*
X44625466Y-49465600D01*
X44625466Y-49198933D01*
X44658800Y-49132266D01*
X44692133Y-49098933D01*
X44758800Y-49065600D01*
X44858800Y-49065600D01*
X44925466Y-49098933D01*
X44958800Y-49132266D01*
X44992133Y-49198933D01*
X44992133Y-49465600D01*
X44625466Y-48432266D02*
X44625466Y-48765600D01*
X44958800Y-48798933D01*
X44925466Y-48765600D01*
X44892133Y-48698933D01*
X44892133Y-48532266D01*
X44925466Y-48465600D01*
X44958800Y-48432266D01*
X45025466Y-48398933D01*
X45192133Y-48398933D01*
X45258800Y-48432266D01*
X45292133Y-48465600D01*
X45325466Y-48532266D01*
X45325466Y-48698933D01*
X45292133Y-48765600D01*
X45258800Y-48798933D01*
X44625466Y-47798933D02*
X44625466Y-47932266D01*
X44658800Y-47998933D01*
X44692133Y-48032266D01*
X44792133Y-48098933D01*
X44925466Y-48132266D01*
X45192133Y-48132266D01*
X45258800Y-48098933D01*
X45292133Y-48065600D01*
X45325466Y-47998933D01*
X45325466Y-47865600D01*
X45292133Y-47798933D01*
X45258800Y-47765600D01*
X45192133Y-47732266D01*
X45025466Y-47732266D01*
X44958800Y-47765600D01*
X44925466Y-47798933D01*
X44892133Y-47865600D01*
X44892133Y-47998933D01*
X44925466Y-48065600D01*
X44958800Y-48098933D01*
X45025466Y-48132266D01*
X61170400Y-41718666D02*
X60937066Y-41385333D01*
X60770400Y-41718666D02*
X60770400Y-41018666D01*
X61037066Y-41018666D01*
X61103733Y-41052000D01*
X61137066Y-41085333D01*
X61170400Y-41152000D01*
X61170400Y-41252000D01*
X61137066Y-41318666D01*
X61103733Y-41352000D01*
X61037066Y-41385333D01*
X60770400Y-41385333D01*
X61403733Y-41018666D02*
X61837066Y-41018666D01*
X61603733Y-41285333D01*
X61703733Y-41285333D01*
X61770400Y-41318666D01*
X61803733Y-41352000D01*
X61837066Y-41418666D01*
X61837066Y-41585333D01*
X61803733Y-41652000D01*
X61770400Y-41685333D01*
X61703733Y-41718666D01*
X61503733Y-41718666D01*
X61437066Y-41685333D01*
X61403733Y-41652000D01*
X62503733Y-41718666D02*
X62103733Y-41718666D01*
X62303733Y-41718666D02*
X62303733Y-41018666D01*
X62237066Y-41118666D01*
X62170400Y-41185333D01*
X62103733Y-41218666D01*
X64959400Y-60718066D02*
X64726066Y-60384733D01*
X64559400Y-60718066D02*
X64559400Y-60018066D01*
X64826066Y-60018066D01*
X64892733Y-60051400D01*
X64926066Y-60084733D01*
X64959400Y-60151400D01*
X64959400Y-60251400D01*
X64926066Y-60318066D01*
X64892733Y-60351400D01*
X64826066Y-60384733D01*
X64559400Y-60384733D01*
X65592733Y-60018066D02*
X65259400Y-60018066D01*
X65226066Y-60351400D01*
X65259400Y-60318066D01*
X65326066Y-60284733D01*
X65492733Y-60284733D01*
X65559400Y-60318066D01*
X65592733Y-60351400D01*
X65626066Y-60418066D01*
X65626066Y-60584733D01*
X65592733Y-60651400D01*
X65559400Y-60684733D01*
X65492733Y-60718066D01*
X65326066Y-60718066D01*
X65259400Y-60684733D01*
X65226066Y-60651400D01*
X65859400Y-60018066D02*
X66292733Y-60018066D01*
X66059400Y-60284733D01*
X66159400Y-60284733D01*
X66226066Y-60318066D01*
X66259400Y-60351400D01*
X66292733Y-60418066D01*
X66292733Y-60584733D01*
X66259400Y-60651400D01*
X66226066Y-60684733D01*
X66159400Y-60718066D01*
X65959400Y-60718066D01*
X65892733Y-60684733D01*
X65859400Y-60651400D01*
X45948266Y-56548400D02*
X45614933Y-56781733D01*
X45948266Y-56948400D02*
X45248266Y-56948400D01*
X45248266Y-56681733D01*
X45281600Y-56615066D01*
X45314933Y-56581733D01*
X45381600Y-56548400D01*
X45481600Y-56548400D01*
X45548266Y-56581733D01*
X45581600Y-56615066D01*
X45614933Y-56681733D01*
X45614933Y-56948400D01*
X45481600Y-55948400D02*
X45948266Y-55948400D01*
X45214933Y-56115066D02*
X45714933Y-56281733D01*
X45714933Y-55848400D01*
X45248266Y-55448400D02*
X45248266Y-55381733D01*
X45281600Y-55315066D01*
X45314933Y-55281733D01*
X45381600Y-55248400D01*
X45514933Y-55215066D01*
X45681600Y-55215066D01*
X45814933Y-55248400D01*
X45881600Y-55281733D01*
X45914933Y-55315066D01*
X45948266Y-55381733D01*
X45948266Y-55448400D01*
X45914933Y-55515066D01*
X45881600Y-55548400D01*
X45814933Y-55581733D01*
X45681600Y-55615066D01*
X45514933Y-55615066D01*
X45381600Y-55581733D01*
X45314933Y-55548400D01*
X45281600Y-55515066D01*
X45248266Y-55448400D01*
X42831600Y-28510666D02*
X42598266Y-28177333D01*
X42431600Y-28510666D02*
X42431600Y-27810666D01*
X42698266Y-27810666D01*
X42764933Y-27844000D01*
X42798266Y-27877333D01*
X42831600Y-27944000D01*
X42831600Y-28044000D01*
X42798266Y-28110666D01*
X42764933Y-28144000D01*
X42698266Y-28177333D01*
X42431600Y-28177333D01*
X43498266Y-28510666D02*
X43098266Y-28510666D01*
X43298266Y-28510666D02*
X43298266Y-27810666D01*
X43231600Y-27910666D01*
X43164933Y-27977333D01*
X43098266Y-28010666D01*
X44131600Y-27810666D02*
X43798266Y-27810666D01*
X43764933Y-28144000D01*
X43798266Y-28110666D01*
X43864933Y-28077333D01*
X44031600Y-28077333D01*
X44098266Y-28110666D01*
X44131600Y-28144000D01*
X44164933Y-28210666D01*
X44164933Y-28377333D01*
X44131600Y-28444000D01*
X44098266Y-28477333D01*
X44031600Y-28510666D01*
X43864933Y-28510666D01*
X43798266Y-28477333D01*
X43764933Y-28444000D01*
X37424533Y-26478666D02*
X37191200Y-26145333D01*
X37024533Y-26478666D02*
X37024533Y-25778666D01*
X37291200Y-25778666D01*
X37357866Y-25812000D01*
X37391200Y-25845333D01*
X37424533Y-25912000D01*
X37424533Y-26012000D01*
X37391200Y-26078666D01*
X37357866Y-26112000D01*
X37291200Y-26145333D01*
X37024533Y-26145333D01*
X38024533Y-25778666D02*
X37891200Y-25778666D01*
X37824533Y-25812000D01*
X37791200Y-25845333D01*
X37724533Y-25945333D01*
X37691200Y-26078666D01*
X37691200Y-26345333D01*
X37724533Y-26412000D01*
X37757866Y-26445333D01*
X37824533Y-26478666D01*
X37957866Y-26478666D01*
X38024533Y-26445333D01*
X38057866Y-26412000D01*
X38091200Y-26345333D01*
X38091200Y-26178666D01*
X38057866Y-26112000D01*
X38024533Y-26078666D01*
X37957866Y-26045333D01*
X37824533Y-26045333D01*
X37757866Y-26078666D01*
X37724533Y-26112000D01*
X37691200Y-26178666D01*
X64472400Y-47713066D02*
X64239066Y-47379733D01*
X64072400Y-47713066D02*
X64072400Y-47013066D01*
X64339066Y-47013066D01*
X64405733Y-47046400D01*
X64439066Y-47079733D01*
X64472400Y-47146400D01*
X64472400Y-47246400D01*
X64439066Y-47313066D01*
X64405733Y-47346400D01*
X64339066Y-47379733D01*
X64072400Y-47379733D01*
X65072400Y-47246400D02*
X65072400Y-47713066D01*
X64905733Y-46979733D02*
X64739066Y-47479733D01*
X65172400Y-47479733D01*
X65739066Y-47013066D02*
X65605733Y-47013066D01*
X65539066Y-47046400D01*
X65505733Y-47079733D01*
X65439066Y-47179733D01*
X65405733Y-47313066D01*
X65405733Y-47579733D01*
X65439066Y-47646400D01*
X65472400Y-47679733D01*
X65539066Y-47713066D01*
X65672400Y-47713066D01*
X65739066Y-47679733D01*
X65772400Y-47646400D01*
X65805733Y-47579733D01*
X65805733Y-47413066D01*
X65772400Y-47346400D01*
X65739066Y-47313066D01*
X65672400Y-47279733D01*
X65539066Y-47279733D01*
X65472400Y-47313066D01*
X65439066Y-47346400D01*
X65405733Y-47413066D01*
X46844800Y-35724266D02*
X46611466Y-35390933D01*
X46444800Y-35724266D02*
X46444800Y-35024266D01*
X46711466Y-35024266D01*
X46778133Y-35057600D01*
X46811466Y-35090933D01*
X46844800Y-35157600D01*
X46844800Y-35257600D01*
X46811466Y-35324266D01*
X46778133Y-35357600D01*
X46711466Y-35390933D01*
X46444800Y-35390933D01*
X47111466Y-35090933D02*
X47144800Y-35057600D01*
X47211466Y-35024266D01*
X47378133Y-35024266D01*
X47444800Y-35057600D01*
X47478133Y-35090933D01*
X47511466Y-35157600D01*
X47511466Y-35224266D01*
X47478133Y-35324266D01*
X47078133Y-35724266D01*
X47511466Y-35724266D01*
X48178133Y-35724266D02*
X47778133Y-35724266D01*
X47978133Y-35724266D02*
X47978133Y-35024266D01*
X47911466Y-35124266D01*
X47844800Y-35190933D01*
X47778133Y-35224266D01*
X62186400Y-44614266D02*
X61953066Y-44280933D01*
X61786400Y-44614266D02*
X61786400Y-43914266D01*
X62053066Y-43914266D01*
X62119733Y-43947600D01*
X62153066Y-43980933D01*
X62186400Y-44047600D01*
X62186400Y-44147600D01*
X62153066Y-44214266D01*
X62119733Y-44247600D01*
X62053066Y-44280933D01*
X61786400Y-44280933D01*
X62419733Y-43914266D02*
X62853066Y-43914266D01*
X62619733Y-44180933D01*
X62719733Y-44180933D01*
X62786400Y-44214266D01*
X62819733Y-44247600D01*
X62853066Y-44314266D01*
X62853066Y-44480933D01*
X62819733Y-44547600D01*
X62786400Y-44580933D01*
X62719733Y-44614266D01*
X62519733Y-44614266D01*
X62453066Y-44580933D01*
X62419733Y-44547600D01*
X63486400Y-43914266D02*
X63153066Y-43914266D01*
X63119733Y-44247600D01*
X63153066Y-44214266D01*
X63219733Y-44180933D01*
X63386400Y-44180933D01*
X63453066Y-44214266D01*
X63486400Y-44247600D01*
X63519733Y-44314266D01*
X63519733Y-44480933D01*
X63486400Y-44547600D01*
X63453066Y-44580933D01*
X63386400Y-44614266D01*
X63219733Y-44614266D01*
X63153066Y-44580933D01*
X63119733Y-44547600D01*
X49631600Y-33165066D02*
X49398266Y-32831733D01*
X49231600Y-33165066D02*
X49231600Y-32465066D01*
X49498266Y-32465066D01*
X49564933Y-32498400D01*
X49598266Y-32531733D01*
X49631600Y-32598400D01*
X49631600Y-32698400D01*
X49598266Y-32765066D01*
X49564933Y-32798400D01*
X49498266Y-32831733D01*
X49231600Y-32831733D01*
X50298266Y-33165066D02*
X49898266Y-33165066D01*
X50098266Y-33165066D02*
X50098266Y-32465066D01*
X50031600Y-32565066D01*
X49964933Y-32631733D01*
X49898266Y-32665066D01*
X50631600Y-33165066D02*
X50764933Y-33165066D01*
X50831600Y-33131733D01*
X50864933Y-33098400D01*
X50931600Y-32998400D01*
X50964933Y-32865066D01*
X50964933Y-32598400D01*
X50931600Y-32531733D01*
X50898266Y-32498400D01*
X50831600Y-32465066D01*
X50698266Y-32465066D01*
X50631600Y-32498400D01*
X50598266Y-32531733D01*
X50564933Y-32598400D01*
X50564933Y-32765066D01*
X50598266Y-32831733D01*
X50631600Y-32865066D01*
X50698266Y-32898400D01*
X50831600Y-32898400D01*
X50898266Y-32865066D01*
X50931600Y-32831733D01*
X50964933Y-32765066D01*
X62338800Y-30745866D02*
X62105466Y-30412533D01*
X61938800Y-30745866D02*
X61938800Y-30045866D01*
X62205466Y-30045866D01*
X62272133Y-30079200D01*
X62305466Y-30112533D01*
X62338800Y-30179200D01*
X62338800Y-30279200D01*
X62305466Y-30345866D01*
X62272133Y-30379200D01*
X62205466Y-30412533D01*
X61938800Y-30412533D01*
X63005466Y-30745866D02*
X62605466Y-30745866D01*
X62805466Y-30745866D02*
X62805466Y-30045866D01*
X62738800Y-30145866D01*
X62672133Y-30212533D01*
X62605466Y-30245866D01*
X63238800Y-30045866D02*
X63705466Y-30045866D01*
X63405466Y-30745866D01*
X61526000Y-24141866D02*
X61292666Y-23808533D01*
X61126000Y-24141866D02*
X61126000Y-23441866D01*
X61392666Y-23441866D01*
X61459333Y-23475200D01*
X61492666Y-23508533D01*
X61526000Y-23575200D01*
X61526000Y-23675200D01*
X61492666Y-23741866D01*
X61459333Y-23775200D01*
X61392666Y-23808533D01*
X61126000Y-23808533D01*
X62192666Y-24141866D02*
X61792666Y-24141866D01*
X61992666Y-24141866D02*
X61992666Y-23441866D01*
X61926000Y-23541866D01*
X61859333Y-23608533D01*
X61792666Y-23641866D01*
X62459333Y-23508533D02*
X62492666Y-23475200D01*
X62559333Y-23441866D01*
X62726000Y-23441866D01*
X62792666Y-23475200D01*
X62826000Y-23508533D01*
X62859333Y-23575200D01*
X62859333Y-23641866D01*
X62826000Y-23741866D01*
X62426000Y-24141866D01*
X62859333Y-24141866D01*
X48519100Y-60865066D02*
X48285766Y-60531733D01*
X48119100Y-60865066D02*
X48119100Y-60165066D01*
X48385766Y-60165066D01*
X48452433Y-60198400D01*
X48485766Y-60231733D01*
X48519100Y-60298400D01*
X48519100Y-60398400D01*
X48485766Y-60465066D01*
X48452433Y-60498400D01*
X48385766Y-60531733D01*
X48119100Y-60531733D01*
X49119100Y-60398400D02*
X49119100Y-60865066D01*
X48952433Y-60131733D02*
X48785766Y-60631733D01*
X49219100Y-60631733D01*
X49785766Y-60398400D02*
X49785766Y-60865066D01*
X49619100Y-60131733D02*
X49452433Y-60631733D01*
X49885766Y-60631733D01*
X62445066Y-37991200D02*
X62111733Y-38224533D01*
X62445066Y-38391200D02*
X61745066Y-38391200D01*
X61745066Y-38124533D01*
X61778400Y-38057866D01*
X61811733Y-38024533D01*
X61878400Y-37991200D01*
X61978400Y-37991200D01*
X62045066Y-38024533D01*
X62078400Y-38057866D01*
X62111733Y-38124533D01*
X62111733Y-38391200D01*
X61745066Y-37757866D02*
X61745066Y-37324533D01*
X62011733Y-37557866D01*
X62011733Y-37457866D01*
X62045066Y-37391200D01*
X62078400Y-37357866D01*
X62145066Y-37324533D01*
X62311733Y-37324533D01*
X62378400Y-37357866D01*
X62411733Y-37391200D01*
X62445066Y-37457866D01*
X62445066Y-37657866D01*
X62411733Y-37724533D01*
X62378400Y-37757866D01*
X61745066Y-36891200D02*
X61745066Y-36824533D01*
X61778400Y-36757866D01*
X61811733Y-36724533D01*
X61878400Y-36691200D01*
X62011733Y-36657866D01*
X62178400Y-36657866D01*
X62311733Y-36691200D01*
X62378400Y-36724533D01*
X62411733Y-36757866D01*
X62445066Y-36824533D01*
X62445066Y-36891200D01*
X62411733Y-36957866D01*
X62378400Y-36991200D01*
X62311733Y-37024533D01*
X62178400Y-37057866D01*
X62011733Y-37057866D01*
X61878400Y-37024533D01*
X61811733Y-36991200D01*
X61778400Y-36957866D01*
X61745066Y-36891200D01*
X73006800Y-56247466D02*
X72773466Y-55914133D01*
X72606800Y-56247466D02*
X72606800Y-55547466D01*
X72873466Y-55547466D01*
X72940133Y-55580800D01*
X72973466Y-55614133D01*
X73006800Y-55680800D01*
X73006800Y-55780800D01*
X72973466Y-55847466D01*
X72940133Y-55880800D01*
X72873466Y-55914133D01*
X72606800Y-55914133D01*
X73640133Y-55547466D02*
X73306800Y-55547466D01*
X73273466Y-55880800D01*
X73306800Y-55847466D01*
X73373466Y-55814133D01*
X73540133Y-55814133D01*
X73606800Y-55847466D01*
X73640133Y-55880800D01*
X73673466Y-55947466D01*
X73673466Y-56114133D01*
X73640133Y-56180800D01*
X73606800Y-56214133D01*
X73540133Y-56247466D01*
X73373466Y-56247466D01*
X73306800Y-56214133D01*
X73273466Y-56180800D01*
X74106800Y-55547466D02*
X74173466Y-55547466D01*
X74240133Y-55580800D01*
X74273466Y-55614133D01*
X74306800Y-55680800D01*
X74340133Y-55814133D01*
X74340133Y-55980800D01*
X74306800Y-56114133D01*
X74273466Y-56180800D01*
X74240133Y-56214133D01*
X74173466Y-56247466D01*
X74106800Y-56247466D01*
X74040133Y-56214133D01*
X74006800Y-56180800D01*
X73973466Y-56114133D01*
X73940133Y-55980800D01*
X73940133Y-55814133D01*
X73973466Y-55680800D01*
X74006800Y-55614133D01*
X74040133Y-55580800D01*
X74106800Y-55547466D01*
X58902666Y-33017666D02*
X58902666Y-33584333D01*
X58936000Y-33651000D01*
X58969333Y-33684333D01*
X59036000Y-33717666D01*
X59169333Y-33717666D01*
X59236000Y-33684333D01*
X59269333Y-33651000D01*
X59302666Y-33584333D01*
X59302666Y-33017666D01*
X59569333Y-33017666D02*
X60036000Y-33017666D01*
X59736000Y-33717666D01*
X70739066Y-24102266D02*
X70739066Y-24668933D01*
X70772400Y-24735600D01*
X70805733Y-24768933D01*
X70872400Y-24802266D01*
X71005733Y-24802266D01*
X71072400Y-24768933D01*
X71105733Y-24735600D01*
X71139066Y-24668933D01*
X71139066Y-24102266D01*
X71439066Y-24168933D02*
X71472400Y-24135600D01*
X71539066Y-24102266D01*
X71705733Y-24102266D01*
X71772400Y-24135600D01*
X71805733Y-24168933D01*
X71839066Y-24235600D01*
X71839066Y-24302266D01*
X71805733Y-24402266D01*
X71405733Y-24802266D01*
X71839066Y-24802266D01*
X45274666Y-45408000D02*
X44941333Y-45641333D01*
X45274666Y-45808000D02*
X44574666Y-45808000D01*
X44574666Y-45541333D01*
X44608000Y-45474666D01*
X44641333Y-45441333D01*
X44708000Y-45408000D01*
X44808000Y-45408000D01*
X44874666Y-45441333D01*
X44908000Y-45474666D01*
X44941333Y-45541333D01*
X44941333Y-45808000D01*
X44574666Y-44774666D02*
X44574666Y-45108000D01*
X44908000Y-45141333D01*
X44874666Y-45108000D01*
X44841333Y-45041333D01*
X44841333Y-44874666D01*
X44874666Y-44808000D01*
X44908000Y-44774666D01*
X44974666Y-44741333D01*
X45141333Y-44741333D01*
X45208000Y-44774666D01*
X45241333Y-44808000D01*
X45274666Y-44874666D01*
X45274666Y-45041333D01*
X45241333Y-45108000D01*
X45208000Y-45141333D01*
X45274666Y-44074666D02*
X45274666Y-44474666D01*
X45274666Y-44274666D02*
X44574666Y-44274666D01*
X44674666Y-44341333D01*
X44741333Y-44408000D01*
X44774666Y-44474666D01*
X70485066Y-36827666D02*
X70485066Y-37394333D01*
X70518400Y-37461000D01*
X70551733Y-37494333D01*
X70618400Y-37527666D01*
X70751733Y-37527666D01*
X70818400Y-37494333D01*
X70851733Y-37461000D01*
X70885066Y-37394333D01*
X70885066Y-36827666D01*
X71518400Y-37061000D02*
X71518400Y-37527666D01*
X71351733Y-36794333D02*
X71185066Y-37294333D01*
X71618400Y-37294333D01*
X60916400Y-51929466D02*
X60683066Y-51596133D01*
X60516400Y-51929466D02*
X60516400Y-51229466D01*
X60783066Y-51229466D01*
X60849733Y-51262800D01*
X60883066Y-51296133D01*
X60916400Y-51362800D01*
X60916400Y-51462800D01*
X60883066Y-51529466D01*
X60849733Y-51562800D01*
X60783066Y-51596133D01*
X60516400Y-51596133D01*
X61516400Y-51462800D02*
X61516400Y-51929466D01*
X61349733Y-51196133D02*
X61183066Y-51696133D01*
X61616400Y-51696133D01*
X61983066Y-51529466D02*
X61916400Y-51496133D01*
X61883066Y-51462800D01*
X61849733Y-51396133D01*
X61849733Y-51362800D01*
X61883066Y-51296133D01*
X61916400Y-51262800D01*
X61983066Y-51229466D01*
X62116400Y-51229466D01*
X62183066Y-51262800D01*
X62216400Y-51296133D01*
X62249733Y-51362800D01*
X62249733Y-51396133D01*
X62216400Y-51462800D01*
X62183066Y-51496133D01*
X62116400Y-51529466D01*
X61983066Y-51529466D01*
X61916400Y-51562800D01*
X61883066Y-51596133D01*
X61849733Y-51662800D01*
X61849733Y-51796133D01*
X61883066Y-51862800D01*
X61916400Y-51896133D01*
X61983066Y-51929466D01*
X62116400Y-51929466D01*
X62183066Y-51896133D01*
X62216400Y-51862800D01*
X62249733Y-51796133D01*
X62249733Y-51662800D01*
X62216400Y-51596133D01*
X62183066Y-51562800D01*
X62116400Y-51529466D01*
X68812600Y-33418066D02*
X68579266Y-33084733D01*
X68412600Y-33418066D02*
X68412600Y-32718066D01*
X68679266Y-32718066D01*
X68745933Y-32751400D01*
X68779266Y-32784733D01*
X68812600Y-32851400D01*
X68812600Y-32951400D01*
X68779266Y-33018066D01*
X68745933Y-33051400D01*
X68679266Y-33084733D01*
X68412600Y-33084733D01*
X69079266Y-32784733D02*
X69112600Y-32751400D01*
X69179266Y-32718066D01*
X69345933Y-32718066D01*
X69412600Y-32751400D01*
X69445933Y-32784733D01*
X69479266Y-32851400D01*
X69479266Y-32918066D01*
X69445933Y-33018066D01*
X69045933Y-33418066D01*
X69479266Y-33418066D01*
X69812600Y-33418066D02*
X69945933Y-33418066D01*
X70012600Y-33384733D01*
X70045933Y-33351400D01*
X70112600Y-33251400D01*
X70145933Y-33118066D01*
X70145933Y-32851400D01*
X70112600Y-32784733D01*
X70079266Y-32751400D01*
X70012600Y-32718066D01*
X69879266Y-32718066D01*
X69812600Y-32751400D01*
X69779266Y-32784733D01*
X69745933Y-32851400D01*
X69745933Y-33018066D01*
X69779266Y-33084733D01*
X69812600Y-33118066D01*
X69879266Y-33151400D01*
X70012600Y-33151400D01*
X70079266Y-33118066D01*
X70112600Y-33084733D01*
X70145933Y-33018066D01*
X45376266Y-38092800D02*
X45042933Y-38326133D01*
X45376266Y-38492800D02*
X44676266Y-38492800D01*
X44676266Y-38226133D01*
X44709600Y-38159466D01*
X44742933Y-38126133D01*
X44809600Y-38092800D01*
X44909600Y-38092800D01*
X44976266Y-38126133D01*
X45009600Y-38159466D01*
X45042933Y-38226133D01*
X45042933Y-38492800D01*
X44676266Y-37859466D02*
X44676266Y-37426133D01*
X44942933Y-37659466D01*
X44942933Y-37559466D01*
X44976266Y-37492800D01*
X45009600Y-37459466D01*
X45076266Y-37426133D01*
X45242933Y-37426133D01*
X45309600Y-37459466D01*
X45342933Y-37492800D01*
X45376266Y-37559466D01*
X45376266Y-37759466D01*
X45342933Y-37826133D01*
X45309600Y-37859466D01*
X44676266Y-37192800D02*
X44676266Y-36759466D01*
X44942933Y-36992800D01*
X44942933Y-36892800D01*
X44976266Y-36826133D01*
X45009600Y-36792800D01*
X45076266Y-36759466D01*
X45242933Y-36759466D01*
X45309600Y-36792800D01*
X45342933Y-36826133D01*
X45376266Y-36892800D01*
X45376266Y-37092800D01*
X45342933Y-37159466D01*
X45309600Y-37192800D01*
X53181600Y-33165066D02*
X52948266Y-32831733D01*
X52781600Y-33165066D02*
X52781600Y-32465066D01*
X53048266Y-32465066D01*
X53114933Y-32498400D01*
X53148266Y-32531733D01*
X53181600Y-32598400D01*
X53181600Y-32698400D01*
X53148266Y-32765066D01*
X53114933Y-32798400D01*
X53048266Y-32831733D01*
X52781600Y-32831733D01*
X53448266Y-32531733D02*
X53481600Y-32498400D01*
X53548266Y-32465066D01*
X53714933Y-32465066D01*
X53781600Y-32498400D01*
X53814933Y-32531733D01*
X53848266Y-32598400D01*
X53848266Y-32665066D01*
X53814933Y-32765066D01*
X53414933Y-33165066D01*
X53848266Y-33165066D01*
X54281600Y-32465066D02*
X54348266Y-32465066D01*
X54414933Y-32498400D01*
X54448266Y-32531733D01*
X54481600Y-32598400D01*
X54514933Y-32731733D01*
X54514933Y-32898400D01*
X54481600Y-33031733D01*
X54448266Y-33098400D01*
X54414933Y-33131733D01*
X54348266Y-33165066D01*
X54281600Y-33165066D01*
X54214933Y-33131733D01*
X54181600Y-33098400D01*
X54148266Y-33031733D01*
X54114933Y-32898400D01*
X54114933Y-32731733D01*
X54148266Y-32598400D01*
X54181600Y-32531733D01*
X54214933Y-32498400D01*
X54281600Y-32465066D01*
X35047266Y-28471066D02*
X35047266Y-28971066D01*
X35013933Y-29071066D01*
X34947266Y-29137733D01*
X34847266Y-29171066D01*
X34780600Y-29171066D01*
X35747266Y-29171066D02*
X35347266Y-29171066D01*
X35547266Y-29171066D02*
X35547266Y-28471066D01*
X35480600Y-28571066D01*
X35413933Y-28637733D01*
X35347266Y-28671066D01*
X54584666Y-37462666D02*
X54584666Y-38029333D01*
X54618000Y-38096000D01*
X54651333Y-38129333D01*
X54718000Y-38162666D01*
X54851333Y-38162666D01*
X54918000Y-38129333D01*
X54951333Y-38096000D01*
X54984666Y-38029333D01*
X54984666Y-37462666D01*
X55251333Y-37462666D02*
X55684666Y-37462666D01*
X55451333Y-37729333D01*
X55551333Y-37729333D01*
X55618000Y-37762666D01*
X55651333Y-37796000D01*
X55684666Y-37862666D01*
X55684666Y-38029333D01*
X55651333Y-38096000D01*
X55618000Y-38129333D01*
X55551333Y-38162666D01*
X55351333Y-38162666D01*
X55284666Y-38129333D01*
X55251333Y-38096000D01*
X46087466Y-53282000D02*
X45754133Y-53515333D01*
X46087466Y-53682000D02*
X45387466Y-53682000D01*
X45387466Y-53415333D01*
X45420800Y-53348666D01*
X45454133Y-53315333D01*
X45520800Y-53282000D01*
X45620800Y-53282000D01*
X45687466Y-53315333D01*
X45720800Y-53348666D01*
X45754133Y-53415333D01*
X45754133Y-53682000D01*
X45387466Y-53048666D02*
X45387466Y-52615333D01*
X45654133Y-52848666D01*
X45654133Y-52748666D01*
X45687466Y-52682000D01*
X45720800Y-52648666D01*
X45787466Y-52615333D01*
X45954133Y-52615333D01*
X46020800Y-52648666D01*
X46054133Y-52682000D01*
X46087466Y-52748666D01*
X46087466Y-52948666D01*
X46054133Y-53015333D01*
X46020800Y-53048666D01*
X46087466Y-52282000D02*
X46087466Y-52148666D01*
X46054133Y-52082000D01*
X46020800Y-52048666D01*
X45920800Y-51982000D01*
X45787466Y-51948666D01*
X45520800Y-51948666D01*
X45454133Y-51982000D01*
X45420800Y-52015333D01*
X45387466Y-52082000D01*
X45387466Y-52215333D01*
X45420800Y-52282000D01*
X45454133Y-52315333D01*
X45520800Y-52348666D01*
X45687466Y-52348666D01*
X45754133Y-52315333D01*
X45787466Y-52282000D01*
X45820800Y-52215333D01*
X45820800Y-52082000D01*
X45787466Y-52015333D01*
X45754133Y-51982000D01*
X45687466Y-51948666D01*
X71432000Y-44817466D02*
X71198666Y-44484133D01*
X71032000Y-44817466D02*
X71032000Y-44117466D01*
X71298666Y-44117466D01*
X71365333Y-44150800D01*
X71398666Y-44184133D01*
X71432000Y-44250800D01*
X71432000Y-44350800D01*
X71398666Y-44417466D01*
X71365333Y-44450800D01*
X71298666Y-44484133D01*
X71032000Y-44484133D01*
X71665333Y-44117466D02*
X72098666Y-44117466D01*
X71865333Y-44384133D01*
X71965333Y-44384133D01*
X72032000Y-44417466D01*
X72065333Y-44450800D01*
X72098666Y-44517466D01*
X72098666Y-44684133D01*
X72065333Y-44750800D01*
X72032000Y-44784133D01*
X71965333Y-44817466D01*
X71765333Y-44817466D01*
X71698666Y-44784133D01*
X71665333Y-44750800D01*
X72698666Y-44350800D02*
X72698666Y-44817466D01*
X72532000Y-44084133D02*
X72365333Y-44584133D01*
X72798666Y-44584133D01*
X46489200Y-43903066D02*
X46255866Y-43569733D01*
X46089200Y-43903066D02*
X46089200Y-43203066D01*
X46355866Y-43203066D01*
X46422533Y-43236400D01*
X46455866Y-43269733D01*
X46489200Y-43336400D01*
X46489200Y-43436400D01*
X46455866Y-43503066D01*
X46422533Y-43536400D01*
X46355866Y-43569733D01*
X46089200Y-43569733D01*
X46755866Y-43269733D02*
X46789200Y-43236400D01*
X46855866Y-43203066D01*
X47022533Y-43203066D01*
X47089200Y-43236400D01*
X47122533Y-43269733D01*
X47155866Y-43336400D01*
X47155866Y-43403066D01*
X47122533Y-43503066D01*
X46722533Y-43903066D01*
X47155866Y-43903066D01*
X47422533Y-43269733D02*
X47455866Y-43236400D01*
X47522533Y-43203066D01*
X47689200Y-43203066D01*
X47755866Y-43236400D01*
X47789200Y-43269733D01*
X47822533Y-43336400D01*
X47822533Y-43403066D01*
X47789200Y-43503066D01*
X47389200Y-43903066D01*
X47822533Y-43903066D01*
X55610933Y-31711066D02*
X55377600Y-31377733D01*
X55210933Y-31711066D02*
X55210933Y-31011066D01*
X55477600Y-31011066D01*
X55544266Y-31044400D01*
X55577600Y-31077733D01*
X55610933Y-31144400D01*
X55610933Y-31244400D01*
X55577600Y-31311066D01*
X55544266Y-31344400D01*
X55477600Y-31377733D01*
X55210933Y-31377733D01*
X55844266Y-31011066D02*
X56310933Y-31011066D01*
X56010933Y-31711066D01*
X68987600Y-19393066D02*
X68754266Y-19059733D01*
X68587600Y-19393066D02*
X68587600Y-18693066D01*
X68854266Y-18693066D01*
X68920933Y-18726400D01*
X68954266Y-18759733D01*
X68987600Y-18826400D01*
X68987600Y-18926400D01*
X68954266Y-18993066D01*
X68920933Y-19026400D01*
X68854266Y-19059733D01*
X68587600Y-19059733D01*
X69654266Y-19393066D02*
X69254266Y-19393066D01*
X69454266Y-19393066D02*
X69454266Y-18693066D01*
X69387600Y-18793066D01*
X69320933Y-18859733D01*
X69254266Y-18893066D01*
X70320933Y-19393066D02*
X69920933Y-19393066D01*
X70120933Y-19393066D02*
X70120933Y-18693066D01*
X70054266Y-18793066D01*
X69987600Y-18859733D01*
X69920933Y-18893066D01*
X45958933Y-23227466D02*
X45725600Y-22894133D01*
X45558933Y-23227466D02*
X45558933Y-22527466D01*
X45825600Y-22527466D01*
X45892266Y-22560800D01*
X45925600Y-22594133D01*
X45958933Y-22660800D01*
X45958933Y-22760800D01*
X45925600Y-22827466D01*
X45892266Y-22860800D01*
X45825600Y-22894133D01*
X45558933Y-22894133D01*
X46192266Y-22527466D02*
X46625600Y-22527466D01*
X46392266Y-22794133D01*
X46492266Y-22794133D01*
X46558933Y-22827466D01*
X46592266Y-22860800D01*
X46625600Y-22927466D01*
X46625600Y-23094133D01*
X46592266Y-23160800D01*
X46558933Y-23194133D01*
X46492266Y-23227466D01*
X46292266Y-23227466D01*
X46225600Y-23194133D01*
X46192266Y-23160800D01*
X73616400Y-27393066D02*
X73383066Y-27059733D01*
X73216400Y-27393066D02*
X73216400Y-26693066D01*
X73483066Y-26693066D01*
X73549733Y-26726400D01*
X73583066Y-26759733D01*
X73616400Y-26826400D01*
X73616400Y-26926400D01*
X73583066Y-26993066D01*
X73549733Y-27026400D01*
X73483066Y-27059733D01*
X73216400Y-27059733D01*
X74283066Y-27393066D02*
X73883066Y-27393066D01*
X74083066Y-27393066D02*
X74083066Y-26693066D01*
X74016400Y-26793066D01*
X73949733Y-26859733D01*
X73883066Y-26893066D01*
X74883066Y-26926400D02*
X74883066Y-27393066D01*
X74716400Y-26659733D02*
X74549733Y-27159733D01*
X74983066Y-27159733D01*
X47381333Y-30593466D02*
X47148000Y-30260133D01*
X46981333Y-30593466D02*
X46981333Y-29893466D01*
X47248000Y-29893466D01*
X47314666Y-29926800D01*
X47348000Y-29960133D01*
X47381333Y-30026800D01*
X47381333Y-30126800D01*
X47348000Y-30193466D01*
X47314666Y-30226800D01*
X47248000Y-30260133D01*
X46981333Y-30260133D01*
X47781333Y-30193466D02*
X47714666Y-30160133D01*
X47681333Y-30126800D01*
X47648000Y-30060133D01*
X47648000Y-30026800D01*
X47681333Y-29960133D01*
X47714666Y-29926800D01*
X47781333Y-29893466D01*
X47914666Y-29893466D01*
X47981333Y-29926800D01*
X48014666Y-29960133D01*
X48048000Y-30026800D01*
X48048000Y-30060133D01*
X48014666Y-30126800D01*
X47981333Y-30160133D01*
X47914666Y-30193466D01*
X47781333Y-30193466D01*
X47714666Y-30226800D01*
X47681333Y-30260133D01*
X47648000Y-30326800D01*
X47648000Y-30460133D01*
X47681333Y-30526800D01*
X47714666Y-30560133D01*
X47781333Y-30593466D01*
X47914666Y-30593466D01*
X47981333Y-30560133D01*
X48014666Y-30526800D01*
X48048000Y-30460133D01*
X48048000Y-30326800D01*
X48014666Y-30260133D01*
X47981333Y-30226800D01*
X47914666Y-30193466D01*
X54991066Y-24153066D02*
X54991066Y-24719733D01*
X55024400Y-24786400D01*
X55057733Y-24819733D01*
X55124400Y-24853066D01*
X55257733Y-24853066D01*
X55324400Y-24819733D01*
X55357733Y-24786400D01*
X55391066Y-24719733D01*
X55391066Y-24153066D01*
X56091066Y-24853066D02*
X55691066Y-24853066D01*
X55891066Y-24853066D02*
X55891066Y-24153066D01*
X55824400Y-24253066D01*
X55757733Y-24319733D01*
X55691066Y-24353066D01*
X45325466Y-34435200D02*
X44992133Y-34668533D01*
X45325466Y-34835200D02*
X44625466Y-34835200D01*
X44625466Y-34568533D01*
X44658800Y-34501866D01*
X44692133Y-34468533D01*
X44758800Y-34435200D01*
X44858800Y-34435200D01*
X44925466Y-34468533D01*
X44958800Y-34501866D01*
X44992133Y-34568533D01*
X44992133Y-34835200D01*
X44692133Y-34168533D02*
X44658800Y-34135200D01*
X44625466Y-34068533D01*
X44625466Y-33901866D01*
X44658800Y-33835200D01*
X44692133Y-33801866D01*
X44758800Y-33768533D01*
X44825466Y-33768533D01*
X44925466Y-33801866D01*
X45325466Y-34201866D01*
X45325466Y-33768533D01*
X44858800Y-33168533D02*
X45325466Y-33168533D01*
X44592133Y-33335200D02*
X45092133Y-33501866D01*
X45092133Y-33068533D01*
X56496800Y-56349066D02*
X56263466Y-56015733D01*
X56096800Y-56349066D02*
X56096800Y-55649066D01*
X56363466Y-55649066D01*
X56430133Y-55682400D01*
X56463466Y-55715733D01*
X56496800Y-55782400D01*
X56496800Y-55882400D01*
X56463466Y-55949066D01*
X56430133Y-55982400D01*
X56363466Y-56015733D01*
X56096800Y-56015733D01*
X57096800Y-55882400D02*
X57096800Y-56349066D01*
X56930133Y-55615733D02*
X56763466Y-56115733D01*
X57196800Y-56115733D01*
X57830133Y-56349066D02*
X57430133Y-56349066D01*
X57630133Y-56349066D02*
X57630133Y-55649066D01*
X57563466Y-55749066D01*
X57496800Y-55815733D01*
X57430133Y-55849066D01*
X57157200Y-41617066D02*
X56923866Y-41283733D01*
X56757200Y-41617066D02*
X56757200Y-40917066D01*
X57023866Y-40917066D01*
X57090533Y-40950400D01*
X57123866Y-40983733D01*
X57157200Y-41050400D01*
X57157200Y-41150400D01*
X57123866Y-41217066D01*
X57090533Y-41250400D01*
X57023866Y-41283733D01*
X56757200Y-41283733D01*
X57423866Y-40983733D02*
X57457200Y-40950400D01*
X57523866Y-40917066D01*
X57690533Y-40917066D01*
X57757200Y-40950400D01*
X57790533Y-40983733D01*
X57823866Y-41050400D01*
X57823866Y-41117066D01*
X57790533Y-41217066D01*
X57390533Y-41617066D01*
X57823866Y-41617066D01*
X58057200Y-40917066D02*
X58490533Y-40917066D01*
X58257200Y-41183733D01*
X58357200Y-41183733D01*
X58423866Y-41217066D01*
X58457200Y-41250400D01*
X58490533Y-41317066D01*
X58490533Y-41483733D01*
X58457200Y-41550400D01*
X58423866Y-41583733D01*
X58357200Y-41617066D01*
X58157200Y-41617066D01*
X58090533Y-41583733D01*
X58057200Y-41550400D01*
X57490533Y-27540066D02*
X57257200Y-27206733D01*
X57090533Y-27540066D02*
X57090533Y-26840066D01*
X57357200Y-26840066D01*
X57423866Y-26873400D01*
X57457200Y-26906733D01*
X57490533Y-26973400D01*
X57490533Y-27073400D01*
X57457200Y-27140066D01*
X57423866Y-27173400D01*
X57357200Y-27206733D01*
X57090533Y-27206733D01*
X58123866Y-26840066D02*
X57790533Y-26840066D01*
X57757200Y-27173400D01*
X57790533Y-27140066D01*
X57857200Y-27106733D01*
X58023866Y-27106733D01*
X58090533Y-27140066D01*
X58123866Y-27173400D01*
X58157200Y-27240066D01*
X58157200Y-27406733D01*
X58123866Y-27473400D01*
X58090533Y-27506733D01*
X58023866Y-27540066D01*
X57857200Y-27540066D01*
X57790533Y-27506733D01*
X57757200Y-27473400D01*
X46263733Y-29120266D02*
X46030400Y-28786933D01*
X45863733Y-29120266D02*
X45863733Y-28420266D01*
X46130400Y-28420266D01*
X46197066Y-28453600D01*
X46230400Y-28486933D01*
X46263733Y-28553600D01*
X46263733Y-28653600D01*
X46230400Y-28720266D01*
X46197066Y-28753600D01*
X46130400Y-28786933D01*
X45863733Y-28786933D01*
X46863733Y-28653600D02*
X46863733Y-29120266D01*
X46697066Y-28386933D02*
X46530400Y-28886933D01*
X46963733Y-28886933D01*
X45274666Y-41852000D02*
X44941333Y-42085333D01*
X45274666Y-42252000D02*
X44574666Y-42252000D01*
X44574666Y-41985333D01*
X44608000Y-41918666D01*
X44641333Y-41885333D01*
X44708000Y-41852000D01*
X44808000Y-41852000D01*
X44874666Y-41885333D01*
X44908000Y-41918666D01*
X44941333Y-41985333D01*
X44941333Y-42252000D01*
X44808000Y-41252000D02*
X45274666Y-41252000D01*
X44541333Y-41418666D02*
X45041333Y-41585333D01*
X45041333Y-41152000D01*
X44641333Y-40918666D02*
X44608000Y-40885333D01*
X44574666Y-40818666D01*
X44574666Y-40652000D01*
X44608000Y-40585333D01*
X44641333Y-40552000D01*
X44708000Y-40518666D01*
X44774666Y-40518666D01*
X44874666Y-40552000D01*
X45274666Y-40952000D01*
X45274666Y-40518666D01*
X48981600Y-47965066D02*
X48748266Y-47631733D01*
X48581600Y-47965066D02*
X48581600Y-47265066D01*
X48848266Y-47265066D01*
X48914933Y-47298400D01*
X48948266Y-47331733D01*
X48981600Y-47398400D01*
X48981600Y-47498400D01*
X48948266Y-47565066D01*
X48914933Y-47598400D01*
X48848266Y-47631733D01*
X48581600Y-47631733D01*
X49214933Y-47265066D02*
X49648266Y-47265066D01*
X49414933Y-47531733D01*
X49514933Y-47531733D01*
X49581600Y-47565066D01*
X49614933Y-47598400D01*
X49648266Y-47665066D01*
X49648266Y-47831733D01*
X49614933Y-47898400D01*
X49581600Y-47931733D01*
X49514933Y-47965066D01*
X49314933Y-47965066D01*
X49248266Y-47931733D01*
X49214933Y-47898400D01*
X49881600Y-47265066D02*
X50348266Y-47265066D01*
X50048266Y-47965066D01*
X52481600Y-47965066D02*
X52248266Y-47631733D01*
X52081600Y-47965066D02*
X52081600Y-47265066D01*
X52348266Y-47265066D01*
X52414933Y-47298400D01*
X52448266Y-47331733D01*
X52481600Y-47398400D01*
X52481600Y-47498400D01*
X52448266Y-47565066D01*
X52414933Y-47598400D01*
X52348266Y-47631733D01*
X52081600Y-47631733D01*
X52714933Y-47265066D02*
X53148266Y-47265066D01*
X52914933Y-47531733D01*
X53014933Y-47531733D01*
X53081600Y-47565066D01*
X53114933Y-47598400D01*
X53148266Y-47665066D01*
X53148266Y-47831733D01*
X53114933Y-47898400D01*
X53081600Y-47931733D01*
X53014933Y-47965066D01*
X52814933Y-47965066D01*
X52748266Y-47931733D01*
X52714933Y-47898400D01*
X53548266Y-47565066D02*
X53481600Y-47531733D01*
X53448266Y-47498400D01*
X53414933Y-47431733D01*
X53414933Y-47398400D01*
X53448266Y-47331733D01*
X53481600Y-47298400D01*
X53548266Y-47265066D01*
X53681600Y-47265066D01*
X53748266Y-47298400D01*
X53781600Y-47331733D01*
X53814933Y-47398400D01*
X53814933Y-47431733D01*
X53781600Y-47498400D01*
X53748266Y-47531733D01*
X53681600Y-47565066D01*
X53548266Y-47565066D01*
X53481600Y-47598400D01*
X53448266Y-47631733D01*
X53414933Y-47698400D01*
X53414933Y-47831733D01*
X53448266Y-47898400D01*
X53481600Y-47931733D01*
X53548266Y-47965066D01*
X53681600Y-47965066D01*
X53748266Y-47931733D01*
X53781600Y-47898400D01*
X53814933Y-47831733D01*
X53814933Y-47698400D01*
X53781600Y-47631733D01*
X53748266Y-47598400D01*
X53681600Y-47565066D01*
X50029933Y-19140066D02*
X49796600Y-18806733D01*
X49629933Y-19140066D02*
X49629933Y-18440066D01*
X49896600Y-18440066D01*
X49963266Y-18473400D01*
X49996600Y-18506733D01*
X50029933Y-18573400D01*
X50029933Y-18673400D01*
X49996600Y-18740066D01*
X49963266Y-18773400D01*
X49896600Y-18806733D01*
X49629933Y-18806733D01*
X50696600Y-19140066D02*
X50296600Y-19140066D01*
X50496600Y-19140066D02*
X50496600Y-18440066D01*
X50429933Y-18540066D01*
X50363266Y-18606733D01*
X50296600Y-18640066D01*
X61678400Y-27443866D02*
X61445066Y-27110533D01*
X61278400Y-27443866D02*
X61278400Y-26743866D01*
X61545066Y-26743866D01*
X61611733Y-26777200D01*
X61645066Y-26810533D01*
X61678400Y-26877200D01*
X61678400Y-26977200D01*
X61645066Y-27043866D01*
X61611733Y-27077200D01*
X61545066Y-27110533D01*
X61278400Y-27110533D01*
X62345066Y-27443866D02*
X61945066Y-27443866D01*
X62145066Y-27443866D02*
X62145066Y-26743866D01*
X62078400Y-26843866D01*
X62011733Y-26910533D01*
X61945066Y-26943866D01*
X62578400Y-26743866D02*
X63011733Y-26743866D01*
X62778400Y-27010533D01*
X62878400Y-27010533D01*
X62945066Y-27043866D01*
X62978400Y-27077200D01*
X63011733Y-27143866D01*
X63011733Y-27310533D01*
X62978400Y-27377200D01*
X62945066Y-27410533D01*
X62878400Y-27443866D01*
X62678400Y-27443866D01*
X62611733Y-27410533D01*
X62578400Y-27377200D01*
X70949400Y-39458066D02*
X70716066Y-39124733D01*
X70549400Y-39458066D02*
X70549400Y-38758066D01*
X70816066Y-38758066D01*
X70882733Y-38791400D01*
X70916066Y-38824733D01*
X70949400Y-38891400D01*
X70949400Y-38991400D01*
X70916066Y-39058066D01*
X70882733Y-39091400D01*
X70816066Y-39124733D01*
X70549400Y-39124733D01*
X71182733Y-38758066D02*
X71616066Y-38758066D01*
X71382733Y-39024733D01*
X71482733Y-39024733D01*
X71549400Y-39058066D01*
X71582733Y-39091400D01*
X71616066Y-39158066D01*
X71616066Y-39324733D01*
X71582733Y-39391400D01*
X71549400Y-39424733D01*
X71482733Y-39458066D01*
X71282733Y-39458066D01*
X71216066Y-39424733D01*
X71182733Y-39391400D01*
X71882733Y-38824733D02*
X71916066Y-38791400D01*
X71982733Y-38758066D01*
X72149400Y-38758066D01*
X72216066Y-38791400D01*
X72249400Y-38824733D01*
X72282733Y-38891400D01*
X72282733Y-38958066D01*
X72249400Y-39058066D01*
X71849400Y-39458066D01*
X72282733Y-39458066D01*
X65312600Y-33418066D02*
X65079266Y-33084733D01*
X64912600Y-33418066D02*
X64912600Y-32718066D01*
X65179266Y-32718066D01*
X65245933Y-32751400D01*
X65279266Y-32784733D01*
X65312600Y-32851400D01*
X65312600Y-32951400D01*
X65279266Y-33018066D01*
X65245933Y-33051400D01*
X65179266Y-33084733D01*
X64912600Y-33084733D01*
X65579266Y-32784733D02*
X65612600Y-32751400D01*
X65679266Y-32718066D01*
X65845933Y-32718066D01*
X65912600Y-32751400D01*
X65945933Y-32784733D01*
X65979266Y-32851400D01*
X65979266Y-32918066D01*
X65945933Y-33018066D01*
X65545933Y-33418066D01*
X65979266Y-33418066D01*
X66379266Y-33018066D02*
X66312600Y-32984733D01*
X66279266Y-32951400D01*
X66245933Y-32884733D01*
X66245933Y-32851400D01*
X66279266Y-32784733D01*
X66312600Y-32751400D01*
X66379266Y-32718066D01*
X66512600Y-32718066D01*
X66579266Y-32751400D01*
X66612600Y-32784733D01*
X66645933Y-32851400D01*
X66645933Y-32884733D01*
X66612600Y-32951400D01*
X66579266Y-32984733D01*
X66512600Y-33018066D01*
X66379266Y-33018066D01*
X66312600Y-33051400D01*
X66279266Y-33084733D01*
X66245933Y-33151400D01*
X66245933Y-33284733D01*
X66279266Y-33351400D01*
X66312600Y-33384733D01*
X66379266Y-33418066D01*
X66512600Y-33418066D01*
X66579266Y-33384733D01*
X66612600Y-33351400D01*
X66645933Y-33284733D01*
X66645933Y-33151400D01*
X66612600Y-33084733D01*
X66579266Y-33051400D01*
X66512600Y-33018066D01*
X71533600Y-30009266D02*
X71300266Y-29675933D01*
X71133600Y-30009266D02*
X71133600Y-29309266D01*
X71400266Y-29309266D01*
X71466933Y-29342600D01*
X71500266Y-29375933D01*
X71533600Y-29442600D01*
X71533600Y-29542600D01*
X71500266Y-29609266D01*
X71466933Y-29642600D01*
X71400266Y-29675933D01*
X71133600Y-29675933D01*
X72200266Y-30009266D02*
X71800266Y-30009266D01*
X72000266Y-30009266D02*
X72000266Y-29309266D01*
X71933600Y-29409266D01*
X71866933Y-29475933D01*
X71800266Y-29509266D01*
X72800266Y-29309266D02*
X72666933Y-29309266D01*
X72600266Y-29342600D01*
X72566933Y-29375933D01*
X72500266Y-29475933D01*
X72466933Y-29609266D01*
X72466933Y-29875933D01*
X72500266Y-29942600D01*
X72533600Y-29975933D01*
X72600266Y-30009266D01*
X72733600Y-30009266D01*
X72800266Y-29975933D01*
X72833600Y-29942600D01*
X72866933Y-29875933D01*
X72866933Y-29709266D01*
X72833600Y-29642600D01*
X72800266Y-29609266D01*
X72733600Y-29575933D01*
X72600266Y-29575933D01*
X72533600Y-29609266D01*
X72500266Y-29642600D01*
X72466933Y-29709266D01*
X48978400Y-46036666D02*
X48745066Y-45703333D01*
X48578400Y-46036666D02*
X48578400Y-45336666D01*
X48845066Y-45336666D01*
X48911733Y-45370000D01*
X48945066Y-45403333D01*
X48978400Y-45470000D01*
X48978400Y-45570000D01*
X48945066Y-45636666D01*
X48911733Y-45670000D01*
X48845066Y-45703333D01*
X48578400Y-45703333D01*
X49245066Y-45403333D02*
X49278400Y-45370000D01*
X49345066Y-45336666D01*
X49511733Y-45336666D01*
X49578400Y-45370000D01*
X49611733Y-45403333D01*
X49645066Y-45470000D01*
X49645066Y-45536666D01*
X49611733Y-45636666D01*
X49211733Y-46036666D01*
X49645066Y-46036666D01*
X50245066Y-45336666D02*
X50111733Y-45336666D01*
X50045066Y-45370000D01*
X50011733Y-45403333D01*
X49945066Y-45503333D01*
X49911733Y-45636666D01*
X49911733Y-45903333D01*
X49945066Y-45970000D01*
X49978400Y-46003333D01*
X50045066Y-46036666D01*
X50178400Y-46036666D01*
X50245066Y-46003333D01*
X50278400Y-45970000D01*
X50311733Y-45903333D01*
X50311733Y-45736666D01*
X50278400Y-45670000D01*
X50245066Y-45636666D01*
X50178400Y-45603333D01*
X50045066Y-45603333D01*
X49978400Y-45636666D01*
X49945066Y-45670000D01*
X49911733Y-45736666D01*
X55023600Y-59244666D02*
X54790266Y-58911333D01*
X54623600Y-59244666D02*
X54623600Y-58544666D01*
X54890266Y-58544666D01*
X54956933Y-58578000D01*
X54990266Y-58611333D01*
X55023600Y-58678000D01*
X55023600Y-58778000D01*
X54990266Y-58844666D01*
X54956933Y-58878000D01*
X54890266Y-58911333D01*
X54623600Y-58911333D01*
X55623600Y-58778000D02*
X55623600Y-59244666D01*
X55456933Y-58511333D02*
X55290266Y-59011333D01*
X55723600Y-59011333D01*
X55923600Y-58544666D02*
X56356933Y-58544666D01*
X56123600Y-58811333D01*
X56223600Y-58811333D01*
X56290266Y-58844666D01*
X56323600Y-58878000D01*
X56356933Y-58944666D01*
X56356933Y-59111333D01*
X56323600Y-59178000D01*
X56290266Y-59211333D01*
X56223600Y-59244666D01*
X56023600Y-59244666D01*
X55956933Y-59211333D01*
X55923600Y-59178000D01*
X69857200Y-60768666D02*
X69623866Y-60435333D01*
X69457200Y-60768666D02*
X69457200Y-60068666D01*
X69723866Y-60068666D01*
X69790533Y-60102000D01*
X69823866Y-60135333D01*
X69857200Y-60202000D01*
X69857200Y-60302000D01*
X69823866Y-60368666D01*
X69790533Y-60402000D01*
X69723866Y-60435333D01*
X69457200Y-60435333D01*
X70490533Y-60068666D02*
X70157200Y-60068666D01*
X70123866Y-60402000D01*
X70157200Y-60368666D01*
X70223866Y-60335333D01*
X70390533Y-60335333D01*
X70457200Y-60368666D01*
X70490533Y-60402000D01*
X70523866Y-60468666D01*
X70523866Y-60635333D01*
X70490533Y-60702000D01*
X70457200Y-60735333D01*
X70390533Y-60768666D01*
X70223866Y-60768666D01*
X70157200Y-60735333D01*
X70123866Y-60702000D01*
X70790533Y-60135333D02*
X70823866Y-60102000D01*
X70890533Y-60068666D01*
X71057200Y-60068666D01*
X71123866Y-60102000D01*
X71157200Y-60135333D01*
X71190533Y-60202000D01*
X71190533Y-60268666D01*
X71157200Y-60368666D01*
X70757200Y-60768666D01*
X71190533Y-60768666D01*
X55531600Y-44411066D02*
X55298266Y-44077733D01*
X55131600Y-44411066D02*
X55131600Y-43711066D01*
X55398266Y-43711066D01*
X55464933Y-43744400D01*
X55498266Y-43777733D01*
X55531600Y-43844400D01*
X55531600Y-43944400D01*
X55498266Y-44011066D01*
X55464933Y-44044400D01*
X55398266Y-44077733D01*
X55131600Y-44077733D01*
X55798266Y-43777733D02*
X55831600Y-43744400D01*
X55898266Y-43711066D01*
X56064933Y-43711066D01*
X56131600Y-43744400D01*
X56164933Y-43777733D01*
X56198266Y-43844400D01*
X56198266Y-43911066D01*
X56164933Y-44011066D01*
X55764933Y-44411066D01*
X56198266Y-44411066D01*
X56831600Y-43711066D02*
X56498266Y-43711066D01*
X56464933Y-44044400D01*
X56498266Y-44011066D01*
X56564933Y-43977733D01*
X56731600Y-43977733D01*
X56798266Y-44011066D01*
X56831600Y-44044400D01*
X56864933Y-44111066D01*
X56864933Y-44277733D01*
X56831600Y-44344400D01*
X56798266Y-44377733D01*
X56731600Y-44411066D01*
X56564933Y-44411066D01*
X56498266Y-44377733D01*
X56464933Y-44344400D01*
X41358400Y-53758266D02*
X41125066Y-53424933D01*
X40958400Y-53758266D02*
X40958400Y-53058266D01*
X41225066Y-53058266D01*
X41291733Y-53091600D01*
X41325066Y-53124933D01*
X41358400Y-53191600D01*
X41358400Y-53291600D01*
X41325066Y-53358266D01*
X41291733Y-53391600D01*
X41225066Y-53424933D01*
X40958400Y-53424933D01*
X41991733Y-53058266D02*
X41658400Y-53058266D01*
X41625066Y-53391600D01*
X41658400Y-53358266D01*
X41725066Y-53324933D01*
X41891733Y-53324933D01*
X41958400Y-53358266D01*
X41991733Y-53391600D01*
X42025066Y-53458266D01*
X42025066Y-53624933D01*
X41991733Y-53691600D01*
X41958400Y-53724933D01*
X41891733Y-53758266D01*
X41725066Y-53758266D01*
X41658400Y-53724933D01*
X41625066Y-53691600D01*
X42658400Y-53058266D02*
X42325066Y-53058266D01*
X42291733Y-53391600D01*
X42325066Y-53358266D01*
X42391733Y-53324933D01*
X42558400Y-53324933D01*
X42625066Y-53358266D01*
X42658400Y-53391600D01*
X42691733Y-53458266D01*
X42691733Y-53624933D01*
X42658400Y-53691600D01*
X42625066Y-53724933D01*
X42558400Y-53758266D01*
X42391733Y-53758266D01*
X42325066Y-53724933D01*
X42291733Y-53691600D01*
X53592433Y-19140066D02*
X53359100Y-18806733D01*
X53192433Y-19140066D02*
X53192433Y-18440066D01*
X53459100Y-18440066D01*
X53525766Y-18473400D01*
X53559100Y-18506733D01*
X53592433Y-18573400D01*
X53592433Y-18673400D01*
X53559100Y-18740066D01*
X53525766Y-18773400D01*
X53459100Y-18806733D01*
X53192433Y-18806733D01*
X53859100Y-18506733D02*
X53892433Y-18473400D01*
X53959100Y-18440066D01*
X54125766Y-18440066D01*
X54192433Y-18473400D01*
X54225766Y-18506733D01*
X54259100Y-18573400D01*
X54259100Y-18640066D01*
X54225766Y-18740066D01*
X53825766Y-19140066D01*
X54259100Y-19140066D01*
X81732466Y-28445666D02*
X81732466Y-28945666D01*
X81699133Y-29045666D01*
X81632466Y-29112333D01*
X81532466Y-29145666D01*
X81465800Y-29145666D01*
X82032466Y-28512333D02*
X82065800Y-28479000D01*
X82132466Y-28445666D01*
X82299133Y-28445666D01*
X82365800Y-28479000D01*
X82399133Y-28512333D01*
X82432466Y-28579000D01*
X82432466Y-28645666D01*
X82399133Y-28745666D01*
X81999133Y-29145666D01*
X82432466Y-29145666D01*
X61018000Y-56298266D02*
X60784666Y-55964933D01*
X60618000Y-56298266D02*
X60618000Y-55598266D01*
X60884666Y-55598266D01*
X60951333Y-55631600D01*
X60984666Y-55664933D01*
X61018000Y-55731600D01*
X61018000Y-55831600D01*
X60984666Y-55898266D01*
X60951333Y-55931600D01*
X60884666Y-55964933D01*
X60618000Y-55964933D01*
X61618000Y-55831600D02*
X61618000Y-56298266D01*
X61451333Y-55564933D02*
X61284666Y-56064933D01*
X61718000Y-56064933D01*
X62018000Y-56298266D02*
X62151333Y-56298266D01*
X62218000Y-56264933D01*
X62251333Y-56231600D01*
X62318000Y-56131600D01*
X62351333Y-55998266D01*
X62351333Y-55731600D01*
X62318000Y-55664933D01*
X62284666Y-55631600D01*
X62218000Y-55598266D01*
X62084666Y-55598266D01*
X62018000Y-55631600D01*
X61984666Y-55664933D01*
X61951333Y-55731600D01*
X61951333Y-55898266D01*
X61984666Y-55964933D01*
X62018000Y-55998266D01*
X62084666Y-56031600D01*
X62218000Y-56031600D01*
X62284666Y-55998266D01*
X62318000Y-55964933D01*
X62351333Y-55898266D01*
X70332666Y-52143866D02*
X70332666Y-52710533D01*
X70366000Y-52777200D01*
X70399333Y-52810533D01*
X70466000Y-52843866D01*
X70599333Y-52843866D01*
X70666000Y-52810533D01*
X70699333Y-52777200D01*
X70732666Y-52710533D01*
X70732666Y-52143866D01*
X71366000Y-52143866D02*
X71232666Y-52143866D01*
X71166000Y-52177200D01*
X71132666Y-52210533D01*
X71066000Y-52310533D01*
X71032666Y-52443866D01*
X71032666Y-52710533D01*
X71066000Y-52777200D01*
X71099333Y-52810533D01*
X71166000Y-52843866D01*
X71299333Y-52843866D01*
X71366000Y-52810533D01*
X71399333Y-52777200D01*
X71432666Y-52710533D01*
X71432666Y-52543866D01*
X71399333Y-52477200D01*
X71366000Y-52443866D01*
X71299333Y-52410533D01*
X71166000Y-52410533D01*
X71099333Y-52443866D01*
X71066000Y-52477200D01*
X71032666Y-52543866D01*
X39158133Y-56298266D02*
X39158133Y-55598266D01*
X39324800Y-55598266D01*
X39424800Y-55631600D01*
X39491466Y-55698266D01*
X39524800Y-55764933D01*
X39558133Y-55898266D01*
X39558133Y-55998266D01*
X39524800Y-56131600D01*
X39491466Y-56198266D01*
X39424800Y-56264933D01*
X39324800Y-56298266D01*
X39158133Y-56298266D01*
X40224800Y-56298266D02*
X39824800Y-56298266D01*
X40024800Y-56298266D02*
X40024800Y-55598266D01*
X39958133Y-55698266D01*
X39891466Y-55764933D01*
X39824800Y-55798266D01*
X65437600Y-19393066D02*
X65204266Y-19059733D01*
X65037600Y-19393066D02*
X65037600Y-18693066D01*
X65304266Y-18693066D01*
X65370933Y-18726400D01*
X65404266Y-18759733D01*
X65437600Y-18826400D01*
X65437600Y-18926400D01*
X65404266Y-18993066D01*
X65370933Y-19026400D01*
X65304266Y-19059733D01*
X65037600Y-19059733D01*
X66104266Y-19393066D02*
X65704266Y-19393066D01*
X65904266Y-19393066D02*
X65904266Y-18693066D01*
X65837600Y-18793066D01*
X65770933Y-18859733D01*
X65704266Y-18893066D01*
X66537600Y-18693066D02*
X66604266Y-18693066D01*
X66670933Y-18726400D01*
X66704266Y-18759733D01*
X66737600Y-18826400D01*
X66770933Y-18959733D01*
X66770933Y-19126400D01*
X66737600Y-19259733D01*
X66704266Y-19326400D01*
X66670933Y-19359733D01*
X66604266Y-19393066D01*
X66537600Y-19393066D01*
X66470933Y-19359733D01*
X66437600Y-19326400D01*
X66404266Y-19259733D01*
X66370933Y-19126400D01*
X66370933Y-18959733D01*
X66404266Y-18826400D01*
X66437600Y-18759733D01*
X66470933Y-18726400D01*
X66537600Y-18693066D01*
D12*
X42140136Y-57329400D02*
X42594264Y-57329400D01*
X42140136Y-58799400D02*
X42594264Y-58799400D01*
X68735536Y-49686400D02*
X69189664Y-49686400D01*
X68735536Y-48216400D02*
X69189664Y-48216400D01*
X53691600Y-54148400D02*
X53691600Y-50698400D01*
X48571600Y-54148400D02*
X48571600Y-52198400D01*
X53691600Y-54148400D02*
X53691600Y-56098400D01*
X48571600Y-54148400D02*
X48571600Y-56098400D01*
X44169000Y-48844564D02*
X44169000Y-48390436D01*
X42699000Y-48844564D02*
X42699000Y-48390436D01*
X62927600Y-41729664D02*
X62927600Y-41275536D01*
X64397600Y-41729664D02*
X64397600Y-41275536D01*
X65636464Y-58016400D02*
X65182336Y-58016400D01*
X65636464Y-59486400D02*
X65182336Y-59486400D01*
X46546600Y-56325464D02*
X46546600Y-55871336D01*
X48016600Y-56325464D02*
X48016600Y-55871336D01*
X42699000Y-30707064D02*
X42699000Y-30252936D01*
X44169000Y-30707064D02*
X44169000Y-30252936D01*
X38581064Y-27205000D02*
X38126936Y-27205000D01*
X38581064Y-28675000D02*
X38126936Y-28675000D01*
X65235536Y-48216400D02*
X65689664Y-48216400D01*
X65235536Y-49686400D02*
X65689664Y-49686400D01*
X48616600Y-37471336D02*
X48616600Y-37925464D01*
X47146600Y-37471336D02*
X47146600Y-37925464D01*
X65689664Y-45036400D02*
X65235536Y-45036400D01*
X65689664Y-43566400D02*
X65235536Y-43566400D01*
X49854536Y-33763400D02*
X50308664Y-33763400D01*
X49854536Y-35233400D02*
X50308664Y-35233400D01*
X65827164Y-31161400D02*
X65373036Y-31161400D01*
X65827164Y-29691400D02*
X65373036Y-29691400D01*
X64822600Y-23799336D02*
X64822600Y-24253464D01*
X63352600Y-23799336D02*
X63352600Y-24253464D01*
X49196164Y-59633400D02*
X48742036Y-59633400D01*
X49196164Y-58163400D02*
X48742036Y-58163400D01*
X62927600Y-37721436D02*
X62927600Y-38175564D01*
X64397600Y-37721436D02*
X64397600Y-38175564D01*
X71997600Y-56078464D02*
X71997600Y-55624336D01*
X70527600Y-56078464D02*
X70527600Y-55624336D01*
X57856000Y-35917600D02*
X57856000Y-39077600D01*
X61016000Y-35917600D02*
X60086000Y-35917600D01*
X61016000Y-35917600D02*
X61016000Y-37377600D01*
X57856000Y-35917600D02*
X58786000Y-35917600D01*
X65377600Y-25576400D02*
X65377600Y-23626400D01*
X65377600Y-25576400D02*
X65377600Y-27526400D01*
X70497600Y-25576400D02*
X70497600Y-22126400D01*
X70497600Y-25576400D02*
X70497600Y-27526400D01*
X44169000Y-45185064D02*
X44169000Y-44730936D01*
X42699000Y-45185064D02*
X42699000Y-44730936D01*
X64952600Y-39551400D02*
X64952600Y-41501400D01*
X64952600Y-39551400D02*
X64952600Y-37601400D01*
X70072600Y-39551400D02*
X70072600Y-41501400D01*
X70072600Y-39551400D02*
X70072600Y-36101400D01*
X64347600Y-52274336D02*
X64347600Y-52728464D01*
X62877600Y-52274336D02*
X62877600Y-52728464D01*
X69035536Y-35486400D02*
X69489664Y-35486400D01*
X69035536Y-34016400D02*
X69489664Y-34016400D01*
X42699000Y-37922564D02*
X42699000Y-37468436D01*
X44169000Y-37922564D02*
X44169000Y-37468436D01*
X53404536Y-33763400D02*
X53858664Y-33763400D01*
X53404536Y-35233400D02*
X53858664Y-35233400D01*
X27660000Y-46715000D02*
X27660000Y-45955000D01*
X36717071Y-33255000D02*
X36320000Y-33255000D01*
X39257071Y-30715000D02*
X38802929Y-30715000D01*
X39257071Y-43415000D02*
X38802929Y-43415000D01*
X27660000Y-48495000D02*
X33660000Y-48495000D01*
X27660000Y-33255000D02*
X33660000Y-33255000D01*
X33660000Y-48835000D02*
X27660000Y-48835000D01*
X41570000Y-50145000D02*
X40300000Y-50145000D01*
X39190000Y-49255000D02*
X38802929Y-49255000D01*
X39257071Y-45955000D02*
X38802929Y-45955000D01*
X33660000Y-49075000D02*
X27660000Y-49075000D01*
X33660000Y-48595000D02*
X27660000Y-48595000D01*
X36320000Y-42525000D02*
X33660000Y-42525000D01*
X39257071Y-38335000D02*
X38802929Y-38335000D01*
X36320000Y-50205000D02*
X36320000Y-29765000D01*
X36717071Y-38335000D02*
X36320000Y-38335000D01*
X39257071Y-34015000D02*
X38802929Y-34015000D01*
X41570000Y-48875000D02*
X41570000Y-50145000D01*
X36320000Y-45065000D02*
X33660000Y-45065000D01*
X39257071Y-39095000D02*
X38802929Y-39095000D01*
X39257071Y-36555000D02*
X38802929Y-36555000D01*
X33660000Y-36555000D02*
X27660000Y-36555000D01*
X36320000Y-47605000D02*
X33660000Y-47605000D01*
X36717071Y-39095000D02*
X36320000Y-39095000D01*
X27660000Y-40875000D02*
X33660000Y-40875000D01*
X27660000Y-39095000D02*
X27660000Y-38335000D01*
X39257071Y-44175000D02*
X38802929Y-44175000D01*
X36717071Y-43415000D02*
X36320000Y-43415000D01*
X27660000Y-38335000D02*
X33660000Y-38335000D01*
X39257071Y-40875000D02*
X38802929Y-40875000D01*
X27660000Y-49255000D02*
X27660000Y-48495000D01*
X33660000Y-39095000D02*
X27660000Y-39095000D01*
X27660000Y-35795000D02*
X33660000Y-35795000D01*
X39190000Y-48495000D02*
X38802929Y-48495000D01*
X39257071Y-31475000D02*
X38802929Y-31475000D01*
X36717071Y-40875000D02*
X36320000Y-40875000D01*
X27660000Y-34015000D02*
X27660000Y-33255000D01*
X39257071Y-41635000D02*
X38802929Y-41635000D01*
X27660000Y-31475000D02*
X27660000Y-30715000D01*
X39257071Y-35795000D02*
X38802929Y-35795000D01*
X33660000Y-34015000D02*
X27660000Y-34015000D01*
X39257071Y-46715000D02*
X38802929Y-46715000D01*
X33660000Y-48955000D02*
X27660000Y-48955000D01*
X33660000Y-29765000D02*
X33660000Y-50205000D01*
X27660000Y-36555000D02*
X27660000Y-35795000D01*
X36717071Y-30715000D02*
X36320000Y-30715000D01*
X33660000Y-49195000D02*
X27660000Y-49195000D01*
X36717071Y-46715000D02*
X36320000Y-46715000D01*
X33660000Y-31475000D02*
X27660000Y-31475000D01*
X27660000Y-41635000D02*
X27660000Y-40875000D01*
X36717071Y-45955000D02*
X36320000Y-45955000D01*
X36717071Y-48495000D02*
X36320000Y-48495000D01*
X36717071Y-36555000D02*
X36320000Y-36555000D01*
X36320000Y-39985000D02*
X33660000Y-39985000D01*
X39257071Y-33255000D02*
X38802929Y-33255000D01*
X36320000Y-34905000D02*
X33660000Y-34905000D01*
X27660000Y-30715000D02*
X33660000Y-30715000D01*
X36717071Y-34015000D02*
X36320000Y-34015000D01*
X33660000Y-50205000D02*
X36320000Y-50205000D01*
X27660000Y-45955000D02*
X33660000Y-45955000D01*
X36320000Y-37445000D02*
X33660000Y-37445000D01*
X27660000Y-44175000D02*
X27660000Y-43415000D01*
X36717071Y-31475000D02*
X36320000Y-31475000D01*
X36320000Y-32365000D02*
X33660000Y-32365000D01*
X27660000Y-43415000D02*
X33660000Y-43415000D01*
X36717071Y-35795000D02*
X36320000Y-35795000D01*
X33660000Y-44175000D02*
X27660000Y-44175000D01*
X36717071Y-44175000D02*
X36320000Y-44175000D01*
X33660000Y-48715000D02*
X27660000Y-48715000D01*
X36320000Y-29765000D02*
X33660000Y-29765000D01*
X33660000Y-46715000D02*
X27660000Y-46715000D01*
X33660000Y-49255000D02*
X27660000Y-49255000D01*
X36717071Y-49255000D02*
X36320000Y-49255000D01*
X33660000Y-41635000D02*
X27660000Y-41635000D01*
X36717071Y-41635000D02*
X36320000Y-41635000D01*
X54291600Y-39298400D02*
X54291600Y-41248400D01*
X54291600Y-39298400D02*
X54291600Y-35848400D01*
X49171600Y-39298400D02*
X49171600Y-41248400D01*
X49171600Y-39298400D02*
X49171600Y-37348400D01*
X48016600Y-52371336D02*
X48016600Y-52825464D01*
X46546600Y-52371336D02*
X46546600Y-52825464D01*
X68685536Y-43566400D02*
X69139664Y-43566400D01*
X68685536Y-45036400D02*
X69139664Y-45036400D01*
X47146600Y-41425464D02*
X47146600Y-40971336D01*
X48616600Y-41425464D02*
X48616600Y-40971336D01*
X53319536Y-29388400D02*
X53773664Y-29388400D01*
X53319536Y-30858400D02*
X53773664Y-30858400D01*
X69210536Y-21461400D02*
X69664664Y-21461400D01*
X69210536Y-19991400D02*
X69664664Y-19991400D01*
X48831600Y-23446336D02*
X48831600Y-23900464D01*
X47361600Y-23446336D02*
X47361600Y-23900464D01*
X71052600Y-27103464D02*
X71052600Y-26649336D01*
X72522600Y-27103464D02*
X72522600Y-26649336D01*
X50273664Y-29388400D02*
X49819536Y-29388400D01*
X50273664Y-30858400D02*
X49819536Y-30858400D01*
X54556600Y-25323400D02*
X54556600Y-21873400D01*
X54556600Y-25323400D02*
X54556600Y-27273400D01*
X49436600Y-25323400D02*
X49436600Y-23373400D01*
X49436600Y-25323400D02*
X49436600Y-27273400D01*
X44169000Y-34263064D02*
X44169000Y-33808936D01*
X42699000Y-34263064D02*
X42699000Y-33808936D01*
X54146600Y-56275464D02*
X54146600Y-55821336D01*
X55616600Y-56275464D02*
X55616600Y-55821336D01*
X54796600Y-41525464D02*
X54796600Y-41071336D01*
X56266600Y-41525464D02*
X56266600Y-41071336D01*
X55111600Y-27450464D02*
X55111600Y-26996336D01*
X56581600Y-27450464D02*
X56581600Y-26996336D01*
X48831600Y-27350464D02*
X48831600Y-26896336D01*
X47361600Y-27350464D02*
X47361600Y-26896336D01*
X44169000Y-41629064D02*
X44169000Y-41174936D01*
X42699000Y-41629064D02*
X42699000Y-41174936D01*
X49204536Y-50033400D02*
X49658664Y-50033400D01*
X49204536Y-48563400D02*
X49658664Y-48563400D01*
X52704536Y-48563400D02*
X53158664Y-48563400D01*
X52704536Y-50033400D02*
X53158664Y-50033400D01*
X49919536Y-21208400D02*
X50373664Y-21208400D01*
X49919536Y-19738400D02*
X50373664Y-19738400D01*
X64822600Y-27703464D02*
X64822600Y-27249336D01*
X63352600Y-27703464D02*
X63352600Y-27249336D01*
X70527600Y-41728464D02*
X70527600Y-41274336D01*
X71997600Y-41728464D02*
X71997600Y-41274336D01*
X65535536Y-35486400D02*
X65989664Y-35486400D01*
X65535536Y-34016400D02*
X65989664Y-34016400D01*
X68948036Y-29691400D02*
X69402164Y-29691400D01*
X68948036Y-31161400D02*
X69402164Y-31161400D01*
X49958664Y-43463400D02*
X49504536Y-43463400D01*
X49958664Y-44933400D02*
X49504536Y-44933400D01*
X52267036Y-59633400D02*
X52721164Y-59633400D01*
X52267036Y-58163400D02*
X52721164Y-58163400D01*
X68685536Y-58016400D02*
X69139664Y-58016400D01*
X68685536Y-59486400D02*
X69139664Y-59486400D01*
X53004536Y-43463400D02*
X53458664Y-43463400D01*
X53004536Y-44933400D02*
X53458664Y-44933400D01*
X42748564Y-52551000D02*
X42294436Y-52551000D01*
X42748564Y-51081000D02*
X42294436Y-51081000D01*
X53482036Y-21208400D02*
X53936164Y-21208400D01*
X53482036Y-19738400D02*
X53936164Y-19738400D01*
X80646529Y-33285000D02*
X81043600Y-33285000D01*
X80646529Y-39125000D02*
X81043600Y-39125000D01*
X78106529Y-36585000D02*
X78560671Y-36585000D01*
X89703600Y-38365000D02*
X89703600Y-39125000D01*
X80646529Y-31505000D02*
X81043600Y-31505000D01*
X78106529Y-46745000D02*
X78560671Y-46745000D01*
X89703600Y-45985000D02*
X89703600Y-46745000D01*
X83703600Y-43445000D02*
X89703600Y-43445000D01*
X81043600Y-40015000D02*
X83703600Y-40015000D01*
X89703600Y-44205000D02*
X83703600Y-44205000D01*
X83703600Y-38365000D02*
X89703600Y-38365000D01*
X80646529Y-46745000D02*
X81043600Y-46745000D01*
X80646529Y-48525000D02*
X81043600Y-48525000D01*
X78106529Y-35825000D02*
X78560671Y-35825000D01*
X89703600Y-40905000D02*
X89703600Y-41665000D01*
X80646529Y-35825000D02*
X81043600Y-35825000D01*
X89703600Y-49285000D02*
X83703600Y-49285000D01*
X83703600Y-45985000D02*
X89703600Y-45985000D01*
X81043600Y-32395000D02*
X83703600Y-32395000D01*
X78106529Y-48525000D02*
X78560671Y-48525000D01*
X89703600Y-43445000D02*
X89703600Y-44205000D01*
X78106529Y-45985000D02*
X78560671Y-45985000D01*
X83703600Y-35825000D02*
X89703600Y-35825000D01*
X83703600Y-50235000D02*
X83703600Y-29795000D01*
X78106529Y-40905000D02*
X78560671Y-40905000D01*
X83703600Y-31045000D02*
X89703600Y-31045000D01*
X81043600Y-50235000D02*
X83703600Y-50235000D01*
X80646529Y-36585000D02*
X81043600Y-36585000D01*
X83703600Y-30805000D02*
X89703600Y-30805000D01*
X80646529Y-30745000D02*
X81043600Y-30745000D01*
X83703600Y-48525000D02*
X89703600Y-48525000D01*
X78106529Y-39125000D02*
X78560671Y-39125000D01*
X89703600Y-35825000D02*
X89703600Y-36585000D01*
X78106529Y-44205000D02*
X78560671Y-44205000D01*
X80646529Y-49285000D02*
X81043600Y-49285000D01*
X78106529Y-41665000D02*
X78560671Y-41665000D01*
X89703600Y-39125000D02*
X83703600Y-39125000D01*
X83703600Y-31405000D02*
X89703600Y-31405000D01*
X78106529Y-33285000D02*
X78560671Y-33285000D01*
X81043600Y-34935000D02*
X83703600Y-34935000D01*
X89703600Y-36585000D02*
X83703600Y-36585000D01*
X80646529Y-43445000D02*
X81043600Y-43445000D01*
X80646529Y-45985000D02*
X81043600Y-45985000D01*
X78106529Y-38365000D02*
X78560671Y-38365000D01*
X89703600Y-34045000D02*
X83703600Y-34045000D01*
X89703600Y-30745000D02*
X89703600Y-31505000D01*
X83703600Y-29795000D02*
X81043600Y-29795000D01*
X83703600Y-31165000D02*
X89703600Y-31165000D01*
X78106529Y-49285000D02*
X78560671Y-49285000D01*
X78106529Y-34045000D02*
X78560671Y-34045000D01*
X83703600Y-40905000D02*
X89703600Y-40905000D01*
X78173600Y-30745000D02*
X78560671Y-30745000D01*
X89703600Y-41665000D02*
X83703600Y-41665000D01*
X89703600Y-33285000D02*
X89703600Y-34045000D01*
X80646529Y-38365000D02*
X81043600Y-38365000D01*
X75793600Y-31125000D02*
X75793600Y-29855000D01*
X83703600Y-30925000D02*
X89703600Y-30925000D01*
X81043600Y-29795000D02*
X81043600Y-50235000D01*
X80646529Y-44205000D02*
X81043600Y-44205000D01*
X89703600Y-31505000D02*
X83703600Y-31505000D01*
X80646529Y-41665000D02*
X81043600Y-41665000D01*
X83703600Y-33285000D02*
X89703600Y-33285000D01*
X81043600Y-42555000D02*
X83703600Y-42555000D01*
X81043600Y-45095000D02*
X83703600Y-45095000D01*
X83703600Y-30745000D02*
X89703600Y-30745000D01*
X78106529Y-43445000D02*
X78560671Y-43445000D01*
X89703600Y-48525000D02*
X89703600Y-49285000D01*
X83703600Y-31285000D02*
X89703600Y-31285000D01*
X81043600Y-47635000D02*
X83703600Y-47635000D01*
X81043600Y-37475000D02*
X83703600Y-37475000D01*
X75793600Y-29855000D02*
X77063600Y-29855000D01*
X80646529Y-34045000D02*
X81043600Y-34045000D01*
X80646529Y-40905000D02*
X81043600Y-40905000D01*
X78173600Y-31505000D02*
X78560671Y-31505000D01*
X89703600Y-46745000D02*
X83703600Y-46745000D01*
X64347600Y-56228464D02*
X64347600Y-55774336D01*
X62877600Y-56228464D02*
X62877600Y-55774336D01*
X64902600Y-53851400D02*
X64902600Y-55801400D01*
X70022600Y-53851400D02*
X70022600Y-50401400D01*
X70022600Y-53851400D02*
X70022600Y-55801400D01*
X64902600Y-53851400D02*
X64902600Y-51901400D01*
X40558000Y-54970800D02*
X40558000Y-56890800D01*
X43418000Y-54970800D02*
X40558000Y-54970800D01*
X40558000Y-56890800D02*
X43418000Y-56890800D01*
X65660536Y-21461400D02*
X66114664Y-21461400D01*
X65660536Y-19991400D02*
X66114664Y-19991400D01*
%LPC*%
D13*
X41454700Y-58064400D03*
X43279700Y-58064400D03*
D14*
X80695800Y-20548600D03*
D13*
X68050100Y-48951400D03*
X69875100Y-48951400D03*
D15*
X53036600Y-51673400D03*
X51766600Y-51673400D03*
X50496600Y-51673400D03*
X49226600Y-51673400D03*
X49226600Y-56623400D03*
X50496600Y-56623400D03*
X51766600Y-56623400D03*
X53036600Y-56623400D03*
D16*
X43434000Y-49530000D03*
X43434000Y-47705000D03*
X63662600Y-42415100D03*
X63662600Y-40590100D03*
D17*
X66321900Y-58751400D03*
X64496900Y-58751400D03*
D16*
X47281600Y-57010900D03*
X47281600Y-55185900D03*
X43434000Y-31392500D03*
X43434000Y-29567500D03*
D17*
X39266500Y-27940000D03*
X37441500Y-27940000D03*
D13*
X64550100Y-48951400D03*
X66375100Y-48951400D03*
D18*
X47881600Y-36785900D03*
X47881600Y-38610900D03*
D17*
X66375100Y-44301400D03*
X64550100Y-44301400D03*
D13*
X49169100Y-34498400D03*
X50994100Y-34498400D03*
D17*
X66512600Y-30426400D03*
X64687600Y-30426400D03*
D18*
X64087600Y-23113900D03*
X64087600Y-24938900D03*
D17*
X49881600Y-58898400D03*
X48056600Y-58898400D03*
D18*
X63662600Y-37036000D03*
X63662600Y-38861000D03*
D16*
X71262600Y-56763900D03*
X71262600Y-54938900D03*
D19*
X58486000Y-38177600D03*
X60386000Y-38177600D03*
X59436000Y-35177600D03*
D15*
X69842600Y-23101400D03*
X68572600Y-23101400D03*
X67302600Y-23101400D03*
X66032600Y-23101400D03*
X66032600Y-28051400D03*
X67302600Y-28051400D03*
X68572600Y-28051400D03*
X69842600Y-28051400D03*
D16*
X43434000Y-45870500D03*
X43434000Y-44045500D03*
D15*
X69417600Y-37076400D03*
X68147600Y-37076400D03*
X66877600Y-37076400D03*
X65607600Y-37076400D03*
X65607600Y-42026400D03*
X66877600Y-42026400D03*
X68147600Y-42026400D03*
X69417600Y-42026400D03*
D18*
X63612600Y-51588900D03*
X63612600Y-53413900D03*
D13*
X68350100Y-34751400D03*
X70175100Y-34751400D03*
D16*
X43434000Y-38608000D03*
X43434000Y-36783000D03*
D13*
X52719100Y-34498400D03*
X54544100Y-34498400D03*
D20*
X40300000Y-48875000D03*
D21*
X37760000Y-48875000D03*
X40300000Y-46335000D03*
X37760000Y-46335000D03*
X40300000Y-43795000D03*
X37760000Y-43795000D03*
X40300000Y-41255000D03*
X37760000Y-41255000D03*
X40300000Y-38715000D03*
X37760000Y-38715000D03*
X40300000Y-36175000D03*
X37760000Y-36175000D03*
X40300000Y-33635000D03*
X37760000Y-33635000D03*
X40300000Y-31095000D03*
X37760000Y-31095000D03*
D15*
X53636600Y-36823400D03*
X52366600Y-36823400D03*
X51096600Y-36823400D03*
X49826600Y-36823400D03*
X49826600Y-41773400D03*
X51096600Y-41773400D03*
X52366600Y-41773400D03*
X53636600Y-41773400D03*
D18*
X47281600Y-51685900D03*
X47281600Y-53510900D03*
D13*
X68000100Y-44301400D03*
X69825100Y-44301400D03*
D16*
X47881600Y-42110900D03*
X47881600Y-40285900D03*
D13*
X52634100Y-30123400D03*
X54459100Y-30123400D03*
X68525100Y-20726400D03*
X70350100Y-20726400D03*
D18*
X48096600Y-22760900D03*
X48096600Y-24585900D03*
D16*
X71787600Y-27788900D03*
X71787600Y-25963900D03*
D17*
X50959100Y-30123400D03*
X49134100Y-30123400D03*
D15*
X53901600Y-22848400D03*
X52631600Y-22848400D03*
X51361600Y-22848400D03*
X50091600Y-22848400D03*
X50091600Y-27798400D03*
X51361600Y-27798400D03*
X52631600Y-27798400D03*
X53901600Y-27798400D03*
D16*
X43434000Y-34948500D03*
X43434000Y-33123500D03*
X54881600Y-56960900D03*
X54881600Y-55135900D03*
X55531600Y-42210900D03*
X55531600Y-40385900D03*
X55846600Y-28135900D03*
X55846600Y-26310900D03*
X48096600Y-28035900D03*
X48096600Y-26210900D03*
X43434000Y-42314500D03*
X43434000Y-40489500D03*
D13*
X48519100Y-49298400D03*
X50344100Y-49298400D03*
X52019100Y-49298400D03*
X53844100Y-49298400D03*
X49234100Y-20473400D03*
X51059100Y-20473400D03*
D16*
X64087600Y-28388900D03*
X64087600Y-26563900D03*
X71262600Y-42413900D03*
X71262600Y-40588900D03*
D13*
X64850100Y-34751400D03*
X66675100Y-34751400D03*
X68262600Y-30426400D03*
X70087600Y-30426400D03*
D17*
X50644100Y-44198400D03*
X48819100Y-44198400D03*
D13*
X51581600Y-58898400D03*
X53406600Y-58898400D03*
X68000100Y-58751400D03*
X69825100Y-58751400D03*
D14*
X80670400Y-59486800D03*
D13*
X52319100Y-44198400D03*
X54144100Y-44198400D03*
D17*
X43434000Y-51816000D03*
X41609000Y-51816000D03*
D13*
X52796600Y-20473400D03*
X54621600Y-20473400D03*
D20*
X77063600Y-31125000D03*
D21*
X79603600Y-31125000D03*
X77063600Y-33665000D03*
X79603600Y-33665000D03*
X77063600Y-36205000D03*
X79603600Y-36205000D03*
X77063600Y-38745000D03*
X79603600Y-38745000D03*
X77063600Y-41285000D03*
X79603600Y-41285000D03*
X77063600Y-43825000D03*
X79603600Y-43825000D03*
X77063600Y-46365000D03*
X79603600Y-46365000D03*
X77063600Y-48905000D03*
X79603600Y-48905000D03*
D16*
X63612600Y-56913900D03*
X63612600Y-55088900D03*
D15*
X69367600Y-51376400D03*
X68097600Y-51376400D03*
X66827600Y-51376400D03*
X65557600Y-51376400D03*
X65557600Y-56326400D03*
X66827600Y-56326400D03*
X68097600Y-56326400D03*
X69367600Y-56326400D03*
D22*
X41393000Y-55930800D03*
X43443000Y-55930800D03*
D13*
X64975100Y-20726400D03*
X66800100Y-20726400D03*
M02*
