M48
; DRILL file {KiCad (6.0.6)} date Mon Aug 29 15:29:24 2022
; FORMAT={-:-/ absolute / metric / decimal}
; #@! TF.CreationDate,2022-08-29T15:29:24+02:00
; #@! TF.GenerationSoftware,Kicad,Pcbnew,(6.0.6)
; #@! TF.FileFunction,Plated,1,2,PTH
FMAT,2
METRIC
; #@! TA.AperFunction,Plated,PTH,ViaDrill
T1C0.400
; #@! TA.AperFunction,Plated,PTH,ComponentDrill
T2C1.000
%
G90
G05
T1
X43.307Y-57.912
X43.434Y-49.53
X46.126Y-26.619
X46.126Y-32.207
X47.092Y-47.701
X48.057Y-58.877
X48.463Y-49.276
X48.819Y-44.196
X49.124Y-30.074
X49.174Y-51.613
X49.784Y-36.83
X50.038Y-22.86
X52.019Y-49.225
X52.73Y-34.493
X52.781Y-20.472
X53.035Y-56.642
X53.645Y-41.808
X53.848Y-49.276
X53.899Y-27.889
X54.61Y-34.417
X54.915Y-55.118
X55.169Y-52.527
X55.575Y-40.386
X55.88Y-26.314
X56.388Y-20.447
X56.54Y-30.124
X56.54Y-36.22
X56.794Y-49.505
X57.15Y-44.704
X57.252Y-42.266
X57.277Y-40.361
X57.912Y-55.753
X58.42Y-52.527
X58.471Y-38.202
X58.674Y-24.994
X59.487Y-41.351
X59.487Y-43.434
X59.588Y-45.034
X60.147Y-47.6
X60.223Y-27.813
X60.3Y-20.371
X60.3Y-39.878
X60.833Y-22.911
X61.214Y-53.594
X61.214Y-59.309
X61.9Y-44.628
X61.925Y-29.159
X62.382Y-26.645
X62.687Y-34.849
X62.941Y-20.371
X64.495Y-58.724
X64.546Y-44.297
X64.55Y-48.951
X64.698Y-30.428
X65.532Y-51.359
X65.659Y-37.084
X66.04Y-23.114
X66.548Y-32.004
X68.051Y-48.97
X68.356Y-34.746
X68.508Y-20.725
X69.372Y-56.285
X69.423Y-41.96
X69.829Y-28.041
X71.251Y-54.965
X71.302Y-40.588
X71.788Y-25.964
X71.882Y-22.352
X72.263Y-34.671
X74.295Y-58.039
X74.549Y-51.816
T2
X37.76Y-31.095
X37.76Y-33.635
X37.76Y-36.175
X37.76Y-38.715
X37.76Y-41.255
X37.76Y-43.795
X37.76Y-46.335
X37.76Y-48.875
X40.3Y-31.095
X40.3Y-33.635
X40.3Y-36.175
X40.3Y-38.715
X40.3Y-41.255
X40.3Y-43.795
X40.3Y-46.335
X40.3Y-48.875
X77.064Y-31.125
X77.064Y-33.665
X77.064Y-36.205
X77.064Y-38.745
X77.064Y-41.285
X77.064Y-43.825
X77.064Y-46.365
X77.064Y-48.905
X79.604Y-31.125
X79.604Y-33.665
X79.604Y-36.205
X79.604Y-38.745
X79.604Y-41.285
X79.604Y-43.825
X79.604Y-46.365
X79.604Y-48.905
T0
M30
