%TF.GenerationSoftware,KiCad,Pcbnew,8.0.5*%
%TF.CreationDate,2024-12-19T18:08:04+01:00*%
%TF.ProjectId,buck-boost-xp,6275636b-2d62-46f6-9f73-742d78702e6b,rev?*%
%TF.SameCoordinates,Original*%
%TF.FileFunction,Drillmap*%
%TF.FilePolarity,Positive*%
%FSLAX45Y45*%
G04 Gerber Fmt 4.5, Leading zero omitted, Abs format (unit mm)*
G04 Created by KiCad (PCBNEW 8.0.5) date 2024-12-19 18:08:04*
%MOMM*%
%LPD*%
G01*
G04 APERTURE LIST*
%ADD10C,0.100000*%
%ADD11C,0.200000*%
%ADD12C,0.110000*%
%ADD13C,0.120000*%
%ADD14C,0.150000*%
%ADD15C,0.220000*%
%ADD16C,0.640000*%
G04 APERTURE END LIST*
D10*
X1229000Y-4474000D02*
X28079000Y-4474000D01*
X28079000Y-16274000D01*
X1229000Y-16274000D01*
X1229000Y-4474000D01*
D11*
D10*
X1414000Y-5534000D02*
X1494000Y-5614000D01*
X1494000Y-5534000D02*
X1414000Y-5614000D01*
X1439000Y-7434000D02*
X1519000Y-7514000D01*
X1519000Y-7434000D02*
X1439000Y-7514000D01*
X2109000Y-6059000D02*
X2189000Y-6139000D01*
X2189000Y-6059000D02*
X2109000Y-6139000D01*
X2179000Y-4999000D02*
X2259000Y-5079000D01*
X2259000Y-4999000D02*
X2179000Y-5079000D01*
X3431500Y-7135750D02*
X3511500Y-7215750D01*
X3511500Y-7135750D02*
X3431500Y-7215750D01*
X4063250Y-8769500D02*
X4143250Y-8849500D01*
X4143250Y-8769500D02*
X4063250Y-8849500D01*
X4114000Y-10765000D02*
X4194000Y-10845000D01*
X4194000Y-10765000D02*
X4114000Y-10845000D01*
X4270750Y-8584000D02*
X4350750Y-8664000D01*
X4350750Y-8584000D02*
X4270750Y-8664000D01*
X4770750Y-9936500D02*
X4850750Y-10016500D01*
X4850750Y-9936500D02*
X4770750Y-10016500D01*
X4914000Y-11153000D02*
X4994000Y-11233000D01*
X4994000Y-11153000D02*
X4914000Y-11233000D01*
X4982460Y-9381500D02*
X5062460Y-9461500D01*
X5062460Y-9381500D02*
X4982460Y-9461500D01*
X5402750Y-10384000D02*
X5482750Y-10464000D01*
X5482750Y-10384000D02*
X5402750Y-10464000D01*
X5589000Y-8769500D02*
X5669000Y-8849500D01*
X5669000Y-8769500D02*
X5589000Y-8849500D01*
X5859000Y-7364000D02*
X5939000Y-7444000D01*
X5939000Y-7364000D02*
X5859000Y-7444000D01*
X5864000Y-4959000D02*
X5944000Y-5039000D01*
X5944000Y-4959000D02*
X5864000Y-5039000D01*
X5976500Y-8584000D02*
X6056500Y-8664000D01*
X6056500Y-8584000D02*
X5976500Y-8664000D01*
X6089000Y-10784000D02*
X6169000Y-10864000D01*
X6169000Y-10784000D02*
X6089000Y-10864000D01*
X6274000Y-4794000D02*
X6354000Y-4874000D01*
X6354000Y-4794000D02*
X6274000Y-4874000D01*
X6689000Y-10634000D02*
X6769000Y-10714000D01*
X6769000Y-10634000D02*
X6689000Y-10714000D01*
X6694000Y-9381500D02*
X6774000Y-9461500D01*
X6774000Y-9381500D02*
X6694000Y-9461500D01*
X7041000Y-5959000D02*
X7121000Y-6039000D01*
X7121000Y-5959000D02*
X7041000Y-6039000D01*
X7164000Y-8659000D02*
X7244000Y-8739000D01*
X7244000Y-8659000D02*
X7164000Y-8739000D01*
X7949000Y-10263840D02*
X8029000Y-10343840D01*
X8029000Y-10263840D02*
X7949000Y-10343840D01*
X8389000Y-11009000D02*
X8469000Y-11089000D01*
X8469000Y-11009000D02*
X8389000Y-11089000D01*
X8596500Y-10086500D02*
X8676500Y-10166500D01*
X8676500Y-10086500D02*
X8596500Y-10166500D01*
X8891970Y-9926040D02*
X8971970Y-10006040D01*
X8971970Y-9926040D02*
X8891970Y-10006040D01*
X8903600Y-11009000D02*
X8983600Y-11089000D01*
X8983600Y-11009000D02*
X8903600Y-11089000D01*
X9278600Y-9713540D02*
X9358600Y-9793540D01*
X9358600Y-9713540D02*
X9278600Y-9793540D01*
X9514000Y-10281263D02*
X9594000Y-10361263D01*
X9594000Y-10281263D02*
X9514000Y-10361263D01*
X10139000Y-10034000D02*
X10219000Y-10114000D01*
X10219000Y-10034000D02*
X10139000Y-10114000D01*
X10414000Y-10076097D02*
X10494000Y-10156097D01*
X10494000Y-10076097D02*
X10414000Y-10156097D01*
X10810000Y-10709000D02*
X10890000Y-10789000D01*
X10890000Y-10709000D02*
X10810000Y-10789000D01*
X11074000Y-4679000D02*
X11154000Y-4759000D01*
X11154000Y-4679000D02*
X11074000Y-4759000D01*
X11214000Y-9711000D02*
X11294000Y-9791000D01*
X11294000Y-9711000D02*
X11214000Y-9791000D01*
X11489000Y-5984000D02*
X11569000Y-6064000D01*
X11569000Y-5984000D02*
X11489000Y-6064000D01*
X11524240Y-9534000D02*
X11604240Y-9614000D01*
X11604240Y-9534000D02*
X11524240Y-9614000D01*
X11544620Y-10879680D02*
X11624620Y-10959680D01*
X11624620Y-10879680D02*
X11544620Y-10959680D01*
X11730000Y-10142000D02*
X11810000Y-10222000D01*
X11810000Y-10142000D02*
X11730000Y-10222000D01*
X12454000Y-10388430D02*
X12534000Y-10468430D01*
X12534000Y-10388430D02*
X12454000Y-10468430D01*
X13489000Y-7524000D02*
X13569000Y-7604000D01*
X13569000Y-7524000D02*
X13489000Y-7604000D01*
X13489000Y-7934000D02*
X13569000Y-8014000D01*
X13569000Y-7934000D02*
X13489000Y-8014000D01*
X14314000Y-10234000D02*
X14394000Y-10314000D01*
X14394000Y-10234000D02*
X14314000Y-10314000D01*
X14584000Y-7934000D02*
X14664000Y-8014000D01*
X14664000Y-7934000D02*
X14584000Y-8014000D01*
X14814000Y-11016500D02*
X14894000Y-11096500D01*
X14894000Y-11016500D02*
X14814000Y-11096500D01*
X14994000Y-7524000D02*
X15074000Y-7604000D01*
X15074000Y-7524000D02*
X14994000Y-7604000D01*
X15095250Y-9382000D02*
X15175250Y-9462000D01*
X15175250Y-9382000D02*
X15095250Y-9462000D01*
X15564000Y-11009000D02*
X15644000Y-11089000D01*
X15644000Y-11009000D02*
X15564000Y-11089000D01*
X15639000Y-10584000D02*
X15719000Y-10664000D01*
X15719000Y-10584000D02*
X15639000Y-10664000D01*
X15714000Y-6309000D02*
X15794000Y-6389000D01*
X15794000Y-6309000D02*
X15714000Y-6389000D01*
X16594000Y-6369000D02*
X16674000Y-6449000D01*
X16674000Y-6369000D02*
X16594000Y-6449000D01*
X16719000Y-10264000D02*
X16799000Y-10344000D01*
X16799000Y-10264000D02*
X16719000Y-10344000D01*
X16972880Y-9534000D02*
X17052880Y-9614000D01*
X17052880Y-9534000D02*
X16972880Y-9614000D01*
X17389000Y-9784000D02*
X17469000Y-9864000D01*
X17469000Y-9784000D02*
X17389000Y-9864000D01*
X17663370Y-9926040D02*
X17743370Y-10006040D01*
X17743370Y-9926040D02*
X17663370Y-10006040D01*
X17685000Y-10894000D02*
X17765000Y-10974000D01*
X17765000Y-10894000D02*
X17685000Y-10974000D01*
X17724000Y-5814000D02*
X17804000Y-5894000D01*
X17804000Y-5814000D02*
X17724000Y-5894000D01*
X17869000Y-9542000D02*
X17949000Y-9622000D01*
X17949000Y-9542000D02*
X17869000Y-9622000D01*
X18189000Y-8369000D02*
X18269000Y-8449000D01*
X18269000Y-8369000D02*
X18189000Y-8449000D01*
X18285400Y-10281263D02*
X18365400Y-10361263D01*
X18365400Y-10281263D02*
X18285400Y-10361263D01*
X18584000Y-5814000D02*
X18664000Y-5894000D01*
X18664000Y-5814000D02*
X18584000Y-5894000D01*
X18614000Y-7684000D02*
X18694000Y-7764000D01*
X18694000Y-7684000D02*
X18614000Y-7764000D01*
X18639000Y-9559000D02*
X18719000Y-9639000D01*
X18719000Y-9559000D02*
X18639000Y-9639000D01*
X19019000Y-7544000D02*
X19099000Y-7624000D01*
X19099000Y-7544000D02*
X19019000Y-7624000D01*
X19219000Y-5584000D02*
X19299000Y-5664000D01*
X19299000Y-5584000D02*
X19219000Y-5664000D01*
X19351643Y-10076269D02*
X19431643Y-10156269D01*
X19431643Y-10076269D02*
X19351643Y-10156269D01*
X19744000Y-10719000D02*
X19824000Y-10799000D01*
X19824000Y-10719000D02*
X19744000Y-10799000D01*
X19767383Y-9509000D02*
X19847383Y-9589000D01*
X19847383Y-9509000D02*
X19767383Y-9589000D01*
X19977423Y-9713713D02*
X20057423Y-9793713D01*
X20057423Y-9713713D02*
X19977423Y-9793713D01*
X19989000Y-10909000D02*
X20069000Y-10989000D01*
X20069000Y-10909000D02*
X19989000Y-10989000D01*
X20109000Y-8364160D02*
X20189000Y-8444160D01*
X20189000Y-8364160D02*
X20109000Y-8444160D01*
X20480793Y-10884000D02*
X20560793Y-10964000D01*
X20560793Y-10884000D02*
X20480793Y-10964000D01*
X20667913Y-10134000D02*
X20747913Y-10214000D01*
X20747913Y-10134000D02*
X20667913Y-10214000D01*
X21390173Y-10388430D02*
X21470173Y-10468430D01*
X21470173Y-10388430D02*
X21390173Y-10468430D01*
X21514000Y-7544000D02*
X21594000Y-7624000D01*
X21594000Y-7544000D02*
X21514000Y-7624000D01*
X22109000Y-8559000D02*
X22189000Y-8639000D01*
X22189000Y-8559000D02*
X22109000Y-8639000D01*
X22488000Y-10309000D02*
X22568000Y-10389000D01*
X22568000Y-10309000D02*
X22488000Y-10389000D01*
X22489000Y-11384000D02*
X22569000Y-11464000D01*
X22569000Y-11384000D02*
X22489000Y-11464000D01*
X23055210Y-10134160D02*
X23135210Y-10214160D01*
X23135210Y-10134160D02*
X23055210Y-10214160D01*
X23265960Y-9381660D02*
X23345960Y-9461660D01*
X23345960Y-9381660D02*
X23265960Y-9461660D01*
X23768250Y-8584000D02*
X23848250Y-8664000D01*
X23848250Y-8584000D02*
X23768250Y-8664000D01*
X23889000Y-10550998D02*
X23969000Y-10630998D01*
X23969000Y-10550998D02*
X23889000Y-10630998D01*
X23894000Y-7834000D02*
X23974000Y-7914000D01*
X23974000Y-7834000D02*
X23894000Y-7914000D01*
X23944000Y-5274000D02*
X24024000Y-5354000D01*
X24024000Y-5274000D02*
X23944000Y-5354000D01*
X24264000Y-10259000D02*
X24344000Y-10339000D01*
X24344000Y-10259000D02*
X24264000Y-10339000D01*
X24449000Y-7834000D02*
X24529000Y-7914000D01*
X24529000Y-7834000D02*
X24449000Y-7914000D01*
X24687460Y-9381500D02*
X24767460Y-9461500D01*
X24767460Y-9381500D02*
X24687460Y-9461500D01*
X24879000Y-9944000D02*
X24959000Y-10024000D01*
X24959000Y-9944000D02*
X24879000Y-10024000D01*
X25255250Y-8584000D02*
X25335250Y-8664000D01*
X25335250Y-8584000D02*
X25255250Y-8664000D01*
X25374000Y-7674000D02*
X25454000Y-7754000D01*
X25454000Y-7674000D02*
X25374000Y-7754000D01*
X25924000Y-5279000D02*
X26004000Y-5359000D01*
X26004000Y-5279000D02*
X25924000Y-5359000D01*
X25972000Y-9937535D02*
X26052000Y-10017535D01*
X26052000Y-9937535D02*
X25972000Y-10017535D01*
X26179500Y-9382535D02*
X26259500Y-9462535D01*
X26259500Y-9382535D02*
X26179500Y-9462535D01*
X26189000Y-10784000D02*
X26269000Y-10864000D01*
X26269000Y-10784000D02*
X26189000Y-10864000D01*
X27429000Y-4684000D02*
X27509000Y-4764000D01*
X27509000Y-4684000D02*
X27429000Y-4764000D01*
X3054000Y-6454750D02*
G75*
G02*
X2974000Y-6454750I-40000J0D01*
G01*
X2974000Y-6454750D02*
G75*
G02*
X3054000Y-6454750I40000J0D01*
G01*
X3054000Y-6644750D02*
G75*
G02*
X2974000Y-6644750I-40000J0D01*
G01*
X2974000Y-6644750D02*
G75*
G02*
X3054000Y-6644750I40000J0D01*
G01*
X3990000Y-10555000D02*
G75*
G02*
X3910000Y-10555000I-40000J0D01*
G01*
X3910000Y-10555000D02*
G75*
G02*
X3990000Y-10555000I40000J0D01*
G01*
X4244000Y-10555000D02*
G75*
G02*
X4164000Y-10555000I-40000J0D01*
G01*
X4164000Y-10555000D02*
G75*
G02*
X4244000Y-10555000I40000J0D01*
G01*
X20580000Y-5314000D02*
G75*
G02*
X20500000Y-5314000I-40000J0D01*
G01*
X20500000Y-5314000D02*
G75*
G02*
X20580000Y-5314000I40000J0D01*
G01*
X20834000Y-5314000D02*
G75*
G02*
X20754000Y-5314000I-40000J0D01*
G01*
X20754000Y-5314000D02*
G75*
G02*
X20834000Y-5314000I40000J0D01*
G01*
X27369230Y-5197000D02*
G75*
G02*
X27289230Y-5197000I-40000J0D01*
G01*
X27289230Y-5197000D02*
G75*
G02*
X27369230Y-5197000I40000J0D01*
G01*
X27623230Y-5197000D02*
G75*
G02*
X27543230Y-5197000I-40000J0D01*
G01*
X27543230Y-5197000D02*
G75*
G02*
X27623230Y-5197000I40000J0D01*
G01*
X2029000Y-11320000D02*
X2029000Y-11420000D01*
X1979000Y-11370000D02*
X2079000Y-11370000D01*
X2029000Y-11574000D02*
X2029000Y-11674000D01*
X1979000Y-11624000D02*
X2079000Y-11624000D01*
X2029000Y-11828000D02*
X2029000Y-11928000D01*
X1979000Y-11878000D02*
X2079000Y-11878000D01*
X2651500Y-4654000D02*
X2651500Y-4754000D01*
X2601500Y-4704000D02*
X2701500Y-4704000D01*
X2905500Y-4654000D02*
X2905500Y-4754000D01*
X2855500Y-4704000D02*
X2955500Y-4704000D01*
X7287940Y-10224000D02*
X7287940Y-10324000D01*
X7237940Y-10274000D02*
X7337940Y-10274000D01*
X7287940Y-10586240D02*
X7287940Y-10686240D01*
X7237940Y-10636240D02*
X7337940Y-10636240D01*
X8593375Y-9288606D02*
X8593375Y-9388606D01*
X8543375Y-9338606D02*
X8643375Y-9338606D01*
X9101375Y-9288606D02*
X9101375Y-9388606D01*
X9051375Y-9338606D02*
X9151375Y-9338606D01*
X9609375Y-9288606D02*
X9609375Y-9388606D01*
X9559375Y-9338606D02*
X9659375Y-9338606D01*
X9863375Y-9288606D02*
X9863375Y-9388606D01*
X9813375Y-9338606D02*
X9913375Y-9338606D01*
X9881500Y-10238430D02*
X9881500Y-10338430D01*
X9831500Y-10288430D02*
X9931500Y-10288430D01*
X9881500Y-10600670D02*
X9881500Y-10700670D01*
X9831500Y-10650670D02*
X9931500Y-10650670D01*
X10550840Y-9417824D02*
X10550840Y-9517824D01*
X10500840Y-9467824D02*
X10600840Y-9467824D01*
X10550840Y-9778064D02*
X10550840Y-9878064D01*
X10500840Y-9828064D02*
X10600840Y-9828064D01*
X11401000Y-4844000D02*
X11401000Y-4944000D01*
X11351000Y-4894000D02*
X11451000Y-4894000D01*
X11401000Y-5098000D02*
X11401000Y-5198000D01*
X11351000Y-5148000D02*
X11451000Y-5148000D01*
X11655000Y-4844000D02*
X11655000Y-4944000D01*
X11605000Y-4894000D02*
X11705000Y-4894000D01*
X11655000Y-5098000D02*
X11655000Y-5198000D01*
X11605000Y-5148000D02*
X11705000Y-5148000D01*
X11909000Y-4844000D02*
X11909000Y-4944000D01*
X11859000Y-4894000D02*
X11959000Y-4894000D01*
X11909000Y-5098000D02*
X11909000Y-5198000D01*
X11859000Y-5148000D02*
X11959000Y-5148000D01*
X12163000Y-4844000D02*
X12163000Y-4944000D01*
X12113000Y-4894000D02*
X12213000Y-4894000D01*
X12163000Y-5098000D02*
X12163000Y-5198000D01*
X12113000Y-5148000D02*
X12213000Y-5148000D01*
X12417000Y-4844000D02*
X12417000Y-4944000D01*
X12367000Y-4894000D02*
X12467000Y-4894000D01*
X12417000Y-5098000D02*
X12417000Y-5198000D01*
X12367000Y-5148000D02*
X12467000Y-5148000D01*
X12671000Y-4844000D02*
X12671000Y-4944000D01*
X12621000Y-4894000D02*
X12721000Y-4894000D01*
X12671000Y-5098000D02*
X12671000Y-5198000D01*
X12621000Y-5148000D02*
X12721000Y-5148000D01*
X12925000Y-4844000D02*
X12925000Y-4944000D01*
X12875000Y-4894000D02*
X12975000Y-4894000D01*
X12925000Y-5098000D02*
X12925000Y-5198000D01*
X12875000Y-5148000D02*
X12975000Y-5148000D01*
X13089000Y-10238430D02*
X13089000Y-10338430D01*
X13039000Y-10288430D02*
X13139000Y-10288430D01*
X13089000Y-10604000D02*
X13089000Y-10704000D01*
X13039000Y-10654000D02*
X13139000Y-10654000D01*
X13179000Y-4844000D02*
X13179000Y-4944000D01*
X13129000Y-4894000D02*
X13229000Y-4894000D01*
X13179000Y-5098000D02*
X13179000Y-5198000D01*
X13129000Y-5148000D02*
X13229000Y-5148000D01*
X16057900Y-10224000D02*
X16057900Y-10324000D01*
X16007900Y-10274000D02*
X16107900Y-10274000D01*
X16057900Y-10586240D02*
X16057900Y-10686240D01*
X16007900Y-10636240D02*
X16107900Y-10636240D01*
X16179000Y-4844000D02*
X16179000Y-4944000D01*
X16129000Y-4894000D02*
X16229000Y-4894000D01*
X16179000Y-5098000D02*
X16179000Y-5198000D01*
X16129000Y-5148000D02*
X16229000Y-5148000D01*
X16433000Y-4844000D02*
X16433000Y-4944000D01*
X16383000Y-4894000D02*
X16483000Y-4894000D01*
X16433000Y-5098000D02*
X16433000Y-5198000D01*
X16383000Y-5148000D02*
X16483000Y-5148000D01*
X16687000Y-4844000D02*
X16687000Y-4944000D01*
X16637000Y-4894000D02*
X16737000Y-4894000D01*
X16687000Y-5098000D02*
X16687000Y-5198000D01*
X16637000Y-5148000D02*
X16737000Y-5148000D01*
X16941000Y-4844000D02*
X16941000Y-4944000D01*
X16891000Y-4894000D02*
X16991000Y-4894000D01*
X16941000Y-5098000D02*
X16941000Y-5198000D01*
X16891000Y-5148000D02*
X16991000Y-5148000D01*
X17195000Y-4844000D02*
X17195000Y-4944000D01*
X17145000Y-4894000D02*
X17245000Y-4894000D01*
X17195000Y-5098000D02*
X17195000Y-5198000D01*
X17145000Y-5148000D02*
X17245000Y-5148000D01*
X17449000Y-4844000D02*
X17449000Y-4944000D01*
X17399000Y-4894000D02*
X17499000Y-4894000D01*
X17449000Y-5098000D02*
X17449000Y-5198000D01*
X17399000Y-5148000D02*
X17499000Y-5148000D01*
X17703000Y-4844000D02*
X17703000Y-4944000D01*
X17653000Y-4894000D02*
X17753000Y-4894000D01*
X17703000Y-5098000D02*
X17703000Y-5198000D01*
X17653000Y-5148000D02*
X17753000Y-5148000D01*
X17957000Y-4844000D02*
X17957000Y-4944000D01*
X17907000Y-4894000D02*
X18007000Y-4894000D01*
X17957000Y-5098000D02*
X17957000Y-5198000D01*
X17907000Y-5148000D02*
X18007000Y-5148000D01*
X18817500Y-10238430D02*
X18817500Y-10338430D01*
X18767500Y-10288430D02*
X18867500Y-10288430D01*
X18817500Y-10600670D02*
X18817500Y-10700670D01*
X18767500Y-10650670D02*
X18867500Y-10650670D01*
X19487013Y-9417997D02*
X19487013Y-9517997D01*
X19437013Y-9467997D02*
X19537013Y-9467997D01*
X19487013Y-9778237D02*
X19487013Y-9878237D01*
X19437013Y-9828237D02*
X19537013Y-9828237D01*
X20416500Y-5634000D02*
X20416500Y-5734000D01*
X20366500Y-5684000D02*
X20466500Y-5684000D01*
X20545173Y-9288603D02*
X20545173Y-9388603D01*
X20495173Y-9338603D02*
X20595173Y-9338603D01*
X20670500Y-5634000D02*
X20670500Y-5734000D01*
X20620500Y-5684000D02*
X20720500Y-5684000D01*
X20924500Y-5634000D02*
X20924500Y-5734000D01*
X20874500Y-5684000D02*
X20974500Y-5684000D01*
X21053173Y-9288603D02*
X21053173Y-9388603D01*
X21003173Y-9338603D02*
X21103173Y-9338603D01*
X21561173Y-9288603D02*
X21561173Y-9388603D01*
X21511173Y-9338603D02*
X21611173Y-9338603D01*
X21815173Y-9288603D02*
X21815173Y-9388603D01*
X21765173Y-9338603D02*
X21865173Y-9338603D01*
X22025173Y-10238603D02*
X22025173Y-10338603D01*
X21975173Y-10288603D02*
X22075173Y-10288603D01*
X22025173Y-10600843D02*
X22025173Y-10700843D01*
X21975173Y-10650843D02*
X22075173Y-10650843D01*
D12*
X3698891Y-14478891D02*
X3698891Y-14401109D01*
X3621109Y-14401109D01*
X3621109Y-14478891D01*
X3698891Y-14478891D01*
X4714891Y-14478891D02*
X4714891Y-14401109D01*
X4637109Y-14401109D01*
X4637109Y-14478891D01*
X4714891Y-14478891D01*
X8250811Y-11626311D02*
X8250811Y-11548529D01*
X8173029Y-11548529D01*
X8173029Y-11626311D01*
X8250811Y-11626311D01*
X8504811Y-11626311D02*
X8504811Y-11548529D01*
X8427029Y-11548529D01*
X8427029Y-11626311D01*
X8504811Y-11626311D01*
X8758811Y-11626311D02*
X8758811Y-11548529D01*
X8681029Y-11548529D01*
X8681029Y-11626311D01*
X8758811Y-11626311D01*
X11460411Y-11626311D02*
X11460411Y-11548529D01*
X11382629Y-11548529D01*
X11382629Y-11626311D01*
X11460411Y-11626311D01*
X11714411Y-11626311D02*
X11714411Y-11548529D01*
X11636629Y-11548529D01*
X11636629Y-11626311D01*
X11714411Y-11626311D01*
X11968411Y-11626311D02*
X11968411Y-11548529D01*
X11890629Y-11548529D01*
X11890629Y-11626311D01*
X11968411Y-11626311D01*
X17187891Y-11626291D02*
X17187891Y-11548509D01*
X17110109Y-11548509D01*
X17110109Y-11626291D01*
X17187891Y-11626291D01*
X17441891Y-11626291D02*
X17441891Y-11548509D01*
X17364109Y-11548509D01*
X17364109Y-11626291D01*
X17441891Y-11626291D01*
X17695891Y-11626291D02*
X17695891Y-11548509D01*
X17618109Y-11548509D01*
X17618109Y-11626291D01*
X17695891Y-11626291D01*
X20398978Y-11626788D02*
X20398978Y-11549006D01*
X20321196Y-11549006D01*
X20321196Y-11626788D01*
X20398978Y-11626788D01*
X20652978Y-11626788D02*
X20652978Y-11549006D01*
X20575196Y-11549006D01*
X20575196Y-11626788D01*
X20652978Y-11626788D01*
X20906978Y-11626788D02*
X20906978Y-11549006D01*
X20829196Y-11549006D01*
X20829196Y-11626788D01*
X20906978Y-11626788D01*
X24456891Y-11577891D02*
X24456891Y-11500109D01*
X24379109Y-11500109D01*
X24379109Y-11577891D01*
X24456891Y-11577891D01*
X25472891Y-11577891D02*
X25472891Y-11500109D01*
X25395109Y-11500109D01*
X25395109Y-11577891D01*
X25472891Y-11577891D01*
X27086620Y-7091391D02*
X27086620Y-7013609D01*
X27008838Y-7013609D01*
X27008838Y-7091391D01*
X27086620Y-7091391D01*
X27340620Y-7091391D02*
X27340620Y-7013609D01*
X27262838Y-7013609D01*
X27262838Y-7091391D01*
X27340620Y-7091391D01*
X27594620Y-7091391D02*
X27594620Y-7013609D01*
X27516838Y-7013609D01*
X27516838Y-7091391D01*
X27594620Y-7091391D01*
D13*
X6629000Y-13059000D02*
X6689000Y-12999000D01*
X6629000Y-12939000D01*
X6569000Y-12999000D01*
X6629000Y-13059000D01*
X6629000Y-13809000D02*
X6689000Y-13749000D01*
X6629000Y-13689000D01*
X6569000Y-13749000D01*
X6629000Y-13809000D01*
X6629000Y-14990666D02*
X6689000Y-14930666D01*
X6629000Y-14870666D01*
X6569000Y-14930666D01*
X6629000Y-14990666D01*
X6629000Y-15740666D02*
X6689000Y-15680666D01*
X6629000Y-15620666D01*
X6569000Y-15680666D01*
X6629000Y-15740666D01*
X7904000Y-13469000D02*
X7964000Y-13409000D01*
X7904000Y-13349000D01*
X7844000Y-13409000D01*
X7904000Y-13469000D01*
X7904000Y-14479000D02*
X7964000Y-14419000D01*
X7904000Y-14359000D01*
X7844000Y-14419000D01*
X7904000Y-14479000D01*
X7904000Y-15499000D02*
X7964000Y-15439000D01*
X7904000Y-15379000D01*
X7844000Y-15439000D01*
X7904000Y-15499000D01*
X10154000Y-14479000D02*
X10214000Y-14419000D01*
X10154000Y-14359000D01*
X10094000Y-14419000D01*
X10154000Y-14479000D01*
X10654000Y-14479000D02*
X10714000Y-14419000D01*
X10654000Y-14359000D01*
X10594000Y-14419000D01*
X10654000Y-14479000D01*
X11654000Y-13469000D02*
X11714000Y-13409000D01*
X11654000Y-13349000D01*
X11594000Y-13409000D01*
X11654000Y-13469000D01*
X11654000Y-14479000D02*
X11714000Y-14419000D01*
X11654000Y-14359000D01*
X11594000Y-14419000D01*
X11654000Y-14479000D01*
X11654000Y-15499000D02*
X11714000Y-15439000D01*
X11654000Y-15379000D01*
X11594000Y-15439000D01*
X11654000Y-15499000D01*
X16529000Y-13469000D02*
X16589000Y-13409000D01*
X16529000Y-13349000D01*
X16469000Y-13409000D01*
X16529000Y-13469000D01*
X16529000Y-14489000D02*
X16589000Y-14429000D01*
X16529000Y-14369000D01*
X16469000Y-14429000D01*
X16529000Y-14489000D01*
X16529000Y-15499000D02*
X16589000Y-15439000D01*
X16529000Y-15379000D01*
X16469000Y-15439000D01*
X16529000Y-15499000D01*
X17529000Y-14489000D02*
X17589000Y-14429000D01*
X17529000Y-14369000D01*
X17469000Y-14429000D01*
X17529000Y-14489000D01*
X18029000Y-14489000D02*
X18089000Y-14429000D01*
X18029000Y-14369000D01*
X17969000Y-14429000D01*
X18029000Y-14489000D01*
X20279000Y-13469000D02*
X20339000Y-13409000D01*
X20279000Y-13349000D01*
X20219000Y-13409000D01*
X20279000Y-13469000D01*
X20279000Y-14489000D02*
X20339000Y-14429000D01*
X20279000Y-14369000D01*
X20219000Y-14429000D01*
X20279000Y-14489000D01*
X20279000Y-15499000D02*
X20339000Y-15439000D01*
X20279000Y-15379000D01*
X20219000Y-15439000D01*
X20279000Y-15499000D01*
X21604000Y-13059000D02*
X21664000Y-12999000D01*
X21604000Y-12939000D01*
X21544000Y-12999000D01*
X21604000Y-13059000D01*
X21604000Y-13809000D02*
X21664000Y-13749000D01*
X21604000Y-13689000D01*
X21544000Y-13749000D01*
X21604000Y-13809000D01*
X21604000Y-14990666D02*
X21664000Y-14930666D01*
X21604000Y-14870666D01*
X21544000Y-14930666D01*
X21604000Y-14990666D01*
X21604000Y-15740666D02*
X21664000Y-15680666D01*
X21604000Y-15620666D01*
X21544000Y-15680666D01*
X21604000Y-15740666D01*
D14*
X7496920Y-11367920D02*
X7646920Y-11517920D01*
X7646920Y-11367920D02*
X7496920Y-11517920D01*
X7646920Y-11442920D02*
G75*
G02*
X7496920Y-11442920I-75000J0D01*
G01*
X7496920Y-11442920D02*
G75*
G02*
X7646920Y-11442920I75000J0D01*
G01*
X9276920Y-11367920D02*
X9426920Y-11517920D01*
X9426920Y-11367920D02*
X9276920Y-11517920D01*
X9426920Y-11442920D02*
G75*
G02*
X9276920Y-11442920I-75000J0D01*
G01*
X9276920Y-11442920D02*
G75*
G02*
X9426920Y-11442920I75000J0D01*
G01*
X10706520Y-11367920D02*
X10856520Y-11517920D01*
X10856520Y-11367920D02*
X10706520Y-11517920D01*
X10856520Y-11442920D02*
G75*
G02*
X10706520Y-11442920I-75000J0D01*
G01*
X10706520Y-11442920D02*
G75*
G02*
X10856520Y-11442920I75000J0D01*
G01*
X12486520Y-11367920D02*
X12636520Y-11517920D01*
X12636520Y-11367920D02*
X12486520Y-11517920D01*
X12636520Y-11442920D02*
G75*
G02*
X12486520Y-11442920I-75000J0D01*
G01*
X12486520Y-11442920D02*
G75*
G02*
X12636520Y-11442920I75000J0D01*
G01*
X16434000Y-11367900D02*
X16584000Y-11517900D01*
X16584000Y-11367900D02*
X16434000Y-11517900D01*
X16584000Y-11442900D02*
G75*
G02*
X16434000Y-11442900I-75000J0D01*
G01*
X16434000Y-11442900D02*
G75*
G02*
X16584000Y-11442900I75000J0D01*
G01*
X18214000Y-11367900D02*
X18364000Y-11517900D01*
X18364000Y-11367900D02*
X18214000Y-11517900D01*
X18364000Y-11442900D02*
G75*
G02*
X18214000Y-11442900I-75000J0D01*
G01*
X18214000Y-11442900D02*
G75*
G02*
X18364000Y-11442900I75000J0D01*
G01*
X19645087Y-11368397D02*
X19795087Y-11518397D01*
X19795087Y-11368397D02*
X19645087Y-11518397D01*
X19795087Y-11443397D02*
G75*
G02*
X19645087Y-11443397I-75000J0D01*
G01*
X19645087Y-11443397D02*
G75*
G02*
X19795087Y-11443397I75000J0D01*
G01*
X21425087Y-11368397D02*
X21575087Y-11518397D01*
X21575087Y-11368397D02*
X21425087Y-11518397D01*
X21575087Y-11443397D02*
G75*
G02*
X21425087Y-11443397I-75000J0D01*
G01*
X21425087Y-11443397D02*
G75*
G02*
X21575087Y-11443397I75000J0D01*
G01*
D15*
X3169000Y-13060000D02*
X3389000Y-13280000D01*
X3389000Y-13060000D02*
X3169000Y-13280000D01*
X3279000Y-13060000D02*
X3279000Y-13280000D01*
X3169000Y-13170000D02*
X3389000Y-13170000D01*
X4947000Y-12044000D02*
X5167000Y-12264000D01*
X5167000Y-12044000D02*
X4947000Y-12264000D01*
X5057000Y-12044000D02*
X5057000Y-12264000D01*
X4947000Y-12154000D02*
X5167000Y-12154000D01*
X4947000Y-12806000D02*
X5167000Y-13026000D01*
X5167000Y-12806000D02*
X4947000Y-13026000D01*
X5057000Y-12806000D02*
X5057000Y-13026000D01*
X4947000Y-12916000D02*
X5167000Y-12916000D01*
X23927000Y-12953000D02*
X24147000Y-13173000D01*
X24147000Y-12953000D02*
X23927000Y-13173000D01*
X24037000Y-12953000D02*
X24037000Y-13173000D01*
X23927000Y-13063000D02*
X24147000Y-13063000D01*
X23927000Y-13715000D02*
X24147000Y-13935000D01*
X24147000Y-13715000D02*
X23927000Y-13935000D01*
X24037000Y-13715000D02*
X24037000Y-13935000D01*
X23927000Y-13825000D02*
X24147000Y-13825000D01*
X25705000Y-12699000D02*
X25925000Y-12919000D01*
X25925000Y-12699000D02*
X25705000Y-12919000D01*
X25815000Y-12699000D02*
X25815000Y-12919000D01*
X25705000Y-12809000D02*
X25925000Y-12809000D01*
D16*
X1709000Y-8054000D02*
X2349000Y-8694000D01*
X2349000Y-8054000D02*
X1709000Y-8694000D01*
X2255276Y-8600276D02*
X2255276Y-8147724D01*
X1802724Y-8147724D01*
X1802724Y-8600276D01*
X2255276Y-8600276D01*
X1709000Y-10054000D02*
X2349000Y-10694000D01*
X2349000Y-10054000D02*
X1709000Y-10694000D01*
X2255276Y-10600276D02*
X2255276Y-10147724D01*
X1802724Y-10147724D01*
X1802724Y-10600276D01*
X2255276Y-10600276D01*
X1709000Y-12554000D02*
X2349000Y-13194000D01*
X2349000Y-12554000D02*
X1709000Y-13194000D01*
X2255276Y-13100276D02*
X2255276Y-12647724D01*
X1802724Y-12647724D01*
X1802724Y-13100276D01*
X2255276Y-13100276D01*
X1709000Y-14554000D02*
X2349000Y-15194000D01*
X2349000Y-14554000D02*
X1709000Y-15194000D01*
X2255276Y-15100276D02*
X2255276Y-14647724D01*
X1802724Y-14647724D01*
X1802724Y-15100276D01*
X2255276Y-15100276D01*
X26934000Y-8054000D02*
X27574000Y-8694000D01*
X27574000Y-8054000D02*
X26934000Y-8694000D01*
X27480276Y-8600276D02*
X27480276Y-8147724D01*
X27027724Y-8147724D01*
X27027724Y-8600276D01*
X27480276Y-8600276D01*
X26934000Y-10054000D02*
X27574000Y-10694000D01*
X27574000Y-10054000D02*
X26934000Y-10694000D01*
X27480276Y-10600276D02*
X27480276Y-10147724D01*
X27027724Y-10147724D01*
X27027724Y-10600276D01*
X27480276Y-10600276D01*
X26934000Y-12554000D02*
X27574000Y-13194000D01*
X27574000Y-12554000D02*
X26934000Y-13194000D01*
X27480276Y-13100276D02*
X27480276Y-12647724D01*
X27027724Y-12647724D01*
X27027724Y-13100276D01*
X27480276Y-13100276D01*
X26934000Y-14554000D02*
X27574000Y-15194000D01*
X27574000Y-14554000D02*
X26934000Y-15194000D01*
X27480276Y-15100276D02*
X27480276Y-14647724D01*
X27027724Y-14647724D01*
X27027724Y-15100276D01*
X27480276Y-15100276D01*
D11*
X1484777Y-16590484D02*
X1484777Y-16390484D01*
X1484777Y-16390484D02*
X1532396Y-16390484D01*
X1532396Y-16390484D02*
X1560967Y-16400008D01*
X1560967Y-16400008D02*
X1580015Y-16419055D01*
X1580015Y-16419055D02*
X1589539Y-16438103D01*
X1589539Y-16438103D02*
X1599062Y-16476198D01*
X1599062Y-16476198D02*
X1599062Y-16504769D01*
X1599062Y-16504769D02*
X1589539Y-16542865D01*
X1589539Y-16542865D02*
X1580015Y-16561912D01*
X1580015Y-16561912D02*
X1560967Y-16580960D01*
X1560967Y-16580960D02*
X1532396Y-16590484D01*
X1532396Y-16590484D02*
X1484777Y-16590484D01*
X1684777Y-16590484D02*
X1684777Y-16457150D01*
X1684777Y-16495246D02*
X1694301Y-16476198D01*
X1694301Y-16476198D02*
X1703824Y-16466674D01*
X1703824Y-16466674D02*
X1722872Y-16457150D01*
X1722872Y-16457150D02*
X1741920Y-16457150D01*
X1808586Y-16590484D02*
X1808586Y-16457150D01*
X1808586Y-16390484D02*
X1799062Y-16400008D01*
X1799062Y-16400008D02*
X1808586Y-16409531D01*
X1808586Y-16409531D02*
X1818110Y-16400008D01*
X1818110Y-16400008D02*
X1808586Y-16390484D01*
X1808586Y-16390484D02*
X1808586Y-16409531D01*
X1932396Y-16590484D02*
X1913348Y-16580960D01*
X1913348Y-16580960D02*
X1903824Y-16561912D01*
X1903824Y-16561912D02*
X1903824Y-16390484D01*
X2037158Y-16590484D02*
X2018110Y-16580960D01*
X2018110Y-16580960D02*
X2008586Y-16561912D01*
X2008586Y-16561912D02*
X2008586Y-16390484D01*
X2265729Y-16590484D02*
X2265729Y-16390484D01*
X2265729Y-16390484D02*
X2332396Y-16533341D01*
X2332396Y-16533341D02*
X2399063Y-16390484D01*
X2399063Y-16390484D02*
X2399063Y-16590484D01*
X2580015Y-16590484D02*
X2580015Y-16485722D01*
X2580015Y-16485722D02*
X2570491Y-16466674D01*
X2570491Y-16466674D02*
X2551444Y-16457150D01*
X2551444Y-16457150D02*
X2513348Y-16457150D01*
X2513348Y-16457150D02*
X2494301Y-16466674D01*
X2580015Y-16580960D02*
X2560967Y-16590484D01*
X2560967Y-16590484D02*
X2513348Y-16590484D01*
X2513348Y-16590484D02*
X2494301Y-16580960D01*
X2494301Y-16580960D02*
X2484777Y-16561912D01*
X2484777Y-16561912D02*
X2484777Y-16542865D01*
X2484777Y-16542865D02*
X2494301Y-16523817D01*
X2494301Y-16523817D02*
X2513348Y-16514293D01*
X2513348Y-16514293D02*
X2560967Y-16514293D01*
X2560967Y-16514293D02*
X2580015Y-16504769D01*
X2675253Y-16457150D02*
X2675253Y-16657150D01*
X2675253Y-16466674D02*
X2694301Y-16457150D01*
X2694301Y-16457150D02*
X2732396Y-16457150D01*
X2732396Y-16457150D02*
X2751444Y-16466674D01*
X2751444Y-16466674D02*
X2760967Y-16476198D01*
X2760967Y-16476198D02*
X2770491Y-16495246D01*
X2770491Y-16495246D02*
X2770491Y-16552388D01*
X2770491Y-16552388D02*
X2760967Y-16571436D01*
X2760967Y-16571436D02*
X2751444Y-16580960D01*
X2751444Y-16580960D02*
X2732396Y-16590484D01*
X2732396Y-16590484D02*
X2694301Y-16590484D01*
X2694301Y-16590484D02*
X2675253Y-16580960D01*
X2856205Y-16571436D02*
X2865729Y-16580960D01*
X2865729Y-16580960D02*
X2856205Y-16590484D01*
X2856205Y-16590484D02*
X2846682Y-16580960D01*
X2846682Y-16580960D02*
X2856205Y-16571436D01*
X2856205Y-16571436D02*
X2856205Y-16590484D01*
X2856205Y-16466674D02*
X2865729Y-16476198D01*
X2865729Y-16476198D02*
X2856205Y-16485722D01*
X2856205Y-16485722D02*
X2846682Y-16476198D01*
X2846682Y-16476198D02*
X2856205Y-16466674D01*
X2856205Y-16466674D02*
X2856205Y-16485722D01*
D10*
X1144000Y-16879000D02*
X1224000Y-16959000D01*
X1224000Y-16879000D02*
X1144000Y-16959000D01*
D11*
X1522872Y-16810484D02*
X1541920Y-16810484D01*
X1541920Y-16810484D02*
X1560967Y-16820008D01*
X1560967Y-16820008D02*
X1570491Y-16829531D01*
X1570491Y-16829531D02*
X1580015Y-16848579D01*
X1580015Y-16848579D02*
X1589539Y-16886674D01*
X1589539Y-16886674D02*
X1589539Y-16934293D01*
X1589539Y-16934293D02*
X1580015Y-16972389D01*
X1580015Y-16972389D02*
X1570491Y-16991436D01*
X1570491Y-16991436D02*
X1560967Y-17000960D01*
X1560967Y-17000960D02*
X1541920Y-17010484D01*
X1541920Y-17010484D02*
X1522872Y-17010484D01*
X1522872Y-17010484D02*
X1503824Y-17000960D01*
X1503824Y-17000960D02*
X1494301Y-16991436D01*
X1494301Y-16991436D02*
X1484777Y-16972389D01*
X1484777Y-16972389D02*
X1475253Y-16934293D01*
X1475253Y-16934293D02*
X1475253Y-16886674D01*
X1475253Y-16886674D02*
X1484777Y-16848579D01*
X1484777Y-16848579D02*
X1494301Y-16829531D01*
X1494301Y-16829531D02*
X1503824Y-16820008D01*
X1503824Y-16820008D02*
X1522872Y-16810484D01*
X1675253Y-16991436D02*
X1684777Y-17000960D01*
X1684777Y-17000960D02*
X1675253Y-17010484D01*
X1675253Y-17010484D02*
X1665729Y-17000960D01*
X1665729Y-17000960D02*
X1675253Y-16991436D01*
X1675253Y-16991436D02*
X1675253Y-17010484D01*
X1799062Y-16896198D02*
X1780015Y-16886674D01*
X1780015Y-16886674D02*
X1770491Y-16877150D01*
X1770491Y-16877150D02*
X1760967Y-16858103D01*
X1760967Y-16858103D02*
X1760967Y-16848579D01*
X1760967Y-16848579D02*
X1770491Y-16829531D01*
X1770491Y-16829531D02*
X1780015Y-16820008D01*
X1780015Y-16820008D02*
X1799062Y-16810484D01*
X1799062Y-16810484D02*
X1837158Y-16810484D01*
X1837158Y-16810484D02*
X1856205Y-16820008D01*
X1856205Y-16820008D02*
X1865729Y-16829531D01*
X1865729Y-16829531D02*
X1875253Y-16848579D01*
X1875253Y-16848579D02*
X1875253Y-16858103D01*
X1875253Y-16858103D02*
X1865729Y-16877150D01*
X1865729Y-16877150D02*
X1856205Y-16886674D01*
X1856205Y-16886674D02*
X1837158Y-16896198D01*
X1837158Y-16896198D02*
X1799062Y-16896198D01*
X1799062Y-16896198D02*
X1780015Y-16905722D01*
X1780015Y-16905722D02*
X1770491Y-16915246D01*
X1770491Y-16915246D02*
X1760967Y-16934293D01*
X1760967Y-16934293D02*
X1760967Y-16972389D01*
X1760967Y-16972389D02*
X1770491Y-16991436D01*
X1770491Y-16991436D02*
X1780015Y-17000960D01*
X1780015Y-17000960D02*
X1799062Y-17010484D01*
X1799062Y-17010484D02*
X1837158Y-17010484D01*
X1837158Y-17010484D02*
X1856205Y-17000960D01*
X1856205Y-17000960D02*
X1865729Y-16991436D01*
X1865729Y-16991436D02*
X1875253Y-16972389D01*
X1875253Y-16972389D02*
X1875253Y-16934293D01*
X1875253Y-16934293D02*
X1865729Y-16915246D01*
X1865729Y-16915246D02*
X1856205Y-16905722D01*
X1856205Y-16905722D02*
X1837158Y-16896198D01*
X1999062Y-16810484D02*
X2018110Y-16810484D01*
X2018110Y-16810484D02*
X2037158Y-16820008D01*
X2037158Y-16820008D02*
X2046682Y-16829531D01*
X2046682Y-16829531D02*
X2056205Y-16848579D01*
X2056205Y-16848579D02*
X2065729Y-16886674D01*
X2065729Y-16886674D02*
X2065729Y-16934293D01*
X2065729Y-16934293D02*
X2056205Y-16972389D01*
X2056205Y-16972389D02*
X2046682Y-16991436D01*
X2046682Y-16991436D02*
X2037158Y-17000960D01*
X2037158Y-17000960D02*
X2018110Y-17010484D01*
X2018110Y-17010484D02*
X1999062Y-17010484D01*
X1999062Y-17010484D02*
X1980015Y-17000960D01*
X1980015Y-17000960D02*
X1970491Y-16991436D01*
X1970491Y-16991436D02*
X1960967Y-16972389D01*
X1960967Y-16972389D02*
X1951443Y-16934293D01*
X1951443Y-16934293D02*
X1951443Y-16886674D01*
X1951443Y-16886674D02*
X1960967Y-16848579D01*
X1960967Y-16848579D02*
X1970491Y-16829531D01*
X1970491Y-16829531D02*
X1980015Y-16820008D01*
X1980015Y-16820008D02*
X1999062Y-16810484D01*
X2189539Y-16810484D02*
X2208586Y-16810484D01*
X2208586Y-16810484D02*
X2227634Y-16820008D01*
X2227634Y-16820008D02*
X2237158Y-16829531D01*
X2237158Y-16829531D02*
X2246682Y-16848579D01*
X2246682Y-16848579D02*
X2256205Y-16886674D01*
X2256205Y-16886674D02*
X2256205Y-16934293D01*
X2256205Y-16934293D02*
X2246682Y-16972389D01*
X2246682Y-16972389D02*
X2237158Y-16991436D01*
X2237158Y-16991436D02*
X2227634Y-17000960D01*
X2227634Y-17000960D02*
X2208586Y-17010484D01*
X2208586Y-17010484D02*
X2189539Y-17010484D01*
X2189539Y-17010484D02*
X2170491Y-17000960D01*
X2170491Y-17000960D02*
X2160967Y-16991436D01*
X2160967Y-16991436D02*
X2151444Y-16972389D01*
X2151444Y-16972389D02*
X2141920Y-16934293D01*
X2141920Y-16934293D02*
X2141920Y-16886674D01*
X2141920Y-16886674D02*
X2151444Y-16848579D01*
X2151444Y-16848579D02*
X2160967Y-16829531D01*
X2160967Y-16829531D02*
X2170491Y-16820008D01*
X2170491Y-16820008D02*
X2189539Y-16810484D01*
X2341920Y-17010484D02*
X2341920Y-16877150D01*
X2341920Y-16896198D02*
X2351444Y-16886674D01*
X2351444Y-16886674D02*
X2370491Y-16877150D01*
X2370491Y-16877150D02*
X2399063Y-16877150D01*
X2399063Y-16877150D02*
X2418110Y-16886674D01*
X2418110Y-16886674D02*
X2427634Y-16905722D01*
X2427634Y-16905722D02*
X2427634Y-17010484D01*
X2427634Y-16905722D02*
X2437158Y-16886674D01*
X2437158Y-16886674D02*
X2456205Y-16877150D01*
X2456205Y-16877150D02*
X2484777Y-16877150D01*
X2484777Y-16877150D02*
X2503825Y-16886674D01*
X2503825Y-16886674D02*
X2513348Y-16905722D01*
X2513348Y-16905722D02*
X2513348Y-17010484D01*
X2608586Y-17010484D02*
X2608586Y-16877150D01*
X2608586Y-16896198D02*
X2618110Y-16886674D01*
X2618110Y-16886674D02*
X2637158Y-16877150D01*
X2637158Y-16877150D02*
X2665729Y-16877150D01*
X2665729Y-16877150D02*
X2684777Y-16886674D01*
X2684777Y-16886674D02*
X2694301Y-16905722D01*
X2694301Y-16905722D02*
X2694301Y-17010484D01*
X2694301Y-16905722D02*
X2703825Y-16886674D01*
X2703825Y-16886674D02*
X2722872Y-16877150D01*
X2722872Y-16877150D02*
X2751444Y-16877150D01*
X2751444Y-16877150D02*
X2770491Y-16886674D01*
X2770491Y-16886674D02*
X2780015Y-16905722D01*
X2780015Y-16905722D02*
X2780015Y-17010484D01*
X3170491Y-16800960D02*
X2999063Y-17058103D01*
X3427634Y-16810484D02*
X3446682Y-16810484D01*
X3446682Y-16810484D02*
X3465729Y-16820008D01*
X3465729Y-16820008D02*
X3475253Y-16829531D01*
X3475253Y-16829531D02*
X3484777Y-16848579D01*
X3484777Y-16848579D02*
X3494301Y-16886674D01*
X3494301Y-16886674D02*
X3494301Y-16934293D01*
X3494301Y-16934293D02*
X3484777Y-16972389D01*
X3484777Y-16972389D02*
X3475253Y-16991436D01*
X3475253Y-16991436D02*
X3465729Y-17000960D01*
X3465729Y-17000960D02*
X3446682Y-17010484D01*
X3446682Y-17010484D02*
X3427634Y-17010484D01*
X3427634Y-17010484D02*
X3408586Y-17000960D01*
X3408586Y-17000960D02*
X3399063Y-16991436D01*
X3399063Y-16991436D02*
X3389539Y-16972389D01*
X3389539Y-16972389D02*
X3380015Y-16934293D01*
X3380015Y-16934293D02*
X3380015Y-16886674D01*
X3380015Y-16886674D02*
X3389539Y-16848579D01*
X3389539Y-16848579D02*
X3399063Y-16829531D01*
X3399063Y-16829531D02*
X3408586Y-16820008D01*
X3408586Y-16820008D02*
X3427634Y-16810484D01*
X3580015Y-16991436D02*
X3589539Y-17000960D01*
X3589539Y-17000960D02*
X3580015Y-17010484D01*
X3580015Y-17010484D02*
X3570491Y-17000960D01*
X3570491Y-17000960D02*
X3580015Y-16991436D01*
X3580015Y-16991436D02*
X3580015Y-17010484D01*
X3713348Y-16810484D02*
X3732396Y-16810484D01*
X3732396Y-16810484D02*
X3751444Y-16820008D01*
X3751444Y-16820008D02*
X3760967Y-16829531D01*
X3760967Y-16829531D02*
X3770491Y-16848579D01*
X3770491Y-16848579D02*
X3780015Y-16886674D01*
X3780015Y-16886674D02*
X3780015Y-16934293D01*
X3780015Y-16934293D02*
X3770491Y-16972389D01*
X3770491Y-16972389D02*
X3760967Y-16991436D01*
X3760967Y-16991436D02*
X3751444Y-17000960D01*
X3751444Y-17000960D02*
X3732396Y-17010484D01*
X3732396Y-17010484D02*
X3713348Y-17010484D01*
X3713348Y-17010484D02*
X3694301Y-17000960D01*
X3694301Y-17000960D02*
X3684777Y-16991436D01*
X3684777Y-16991436D02*
X3675253Y-16972389D01*
X3675253Y-16972389D02*
X3665729Y-16934293D01*
X3665729Y-16934293D02*
X3665729Y-16886674D01*
X3665729Y-16886674D02*
X3675253Y-16848579D01*
X3675253Y-16848579D02*
X3684777Y-16829531D01*
X3684777Y-16829531D02*
X3694301Y-16820008D01*
X3694301Y-16820008D02*
X3713348Y-16810484D01*
X3846682Y-16810484D02*
X3970491Y-16810484D01*
X3970491Y-16810484D02*
X3903825Y-16886674D01*
X3903825Y-16886674D02*
X3932396Y-16886674D01*
X3932396Y-16886674D02*
X3951444Y-16896198D01*
X3951444Y-16896198D02*
X3960967Y-16905722D01*
X3960967Y-16905722D02*
X3970491Y-16924770D01*
X3970491Y-16924770D02*
X3970491Y-16972389D01*
X3970491Y-16972389D02*
X3960967Y-16991436D01*
X3960967Y-16991436D02*
X3951444Y-17000960D01*
X3951444Y-17000960D02*
X3932396Y-17010484D01*
X3932396Y-17010484D02*
X3875253Y-17010484D01*
X3875253Y-17010484D02*
X3856206Y-17000960D01*
X3856206Y-17000960D02*
X3846682Y-16991436D01*
X4160967Y-17010484D02*
X4046682Y-17010484D01*
X4103825Y-17010484D02*
X4103825Y-16810484D01*
X4103825Y-16810484D02*
X4084777Y-16839055D01*
X4084777Y-16839055D02*
X4065729Y-16858103D01*
X4065729Y-16858103D02*
X4046682Y-16867627D01*
X4341920Y-16810484D02*
X4246682Y-16810484D01*
X4246682Y-16810484D02*
X4237158Y-16905722D01*
X4237158Y-16905722D02*
X4246682Y-16896198D01*
X4246682Y-16896198D02*
X4265729Y-16886674D01*
X4265729Y-16886674D02*
X4313349Y-16886674D01*
X4313349Y-16886674D02*
X4332396Y-16896198D01*
X4332396Y-16896198D02*
X4341920Y-16905722D01*
X4341920Y-16905722D02*
X4351444Y-16924770D01*
X4351444Y-16924770D02*
X4351444Y-16972389D01*
X4351444Y-16972389D02*
X4341920Y-16991436D01*
X4341920Y-16991436D02*
X4332396Y-17000960D01*
X4332396Y-17000960D02*
X4313349Y-17010484D01*
X4313349Y-17010484D02*
X4265729Y-17010484D01*
X4265729Y-17010484D02*
X4246682Y-17000960D01*
X4246682Y-17000960D02*
X4237158Y-16991436D01*
X4427634Y-16810484D02*
X4427634Y-16848579D01*
X4503825Y-16810484D02*
X4503825Y-16848579D01*
X4799063Y-17086674D02*
X4789539Y-17077150D01*
X4789539Y-17077150D02*
X4770491Y-17048579D01*
X4770491Y-17048579D02*
X4760968Y-17029531D01*
X4760968Y-17029531D02*
X4751444Y-17000960D01*
X4751444Y-17000960D02*
X4741920Y-16953341D01*
X4741920Y-16953341D02*
X4741920Y-16915246D01*
X4741920Y-16915246D02*
X4751444Y-16867627D01*
X4751444Y-16867627D02*
X4760968Y-16839055D01*
X4760968Y-16839055D02*
X4770491Y-16820008D01*
X4770491Y-16820008D02*
X4789539Y-16791436D01*
X4789539Y-16791436D02*
X4799063Y-16781912D01*
X4884777Y-17010484D02*
X4922872Y-17010484D01*
X4922872Y-17010484D02*
X4941920Y-17000960D01*
X4941920Y-17000960D02*
X4951444Y-16991436D01*
X4951444Y-16991436D02*
X4970491Y-16962865D01*
X4970491Y-16962865D02*
X4980015Y-16924770D01*
X4980015Y-16924770D02*
X4980015Y-16848579D01*
X4980015Y-16848579D02*
X4970491Y-16829531D01*
X4970491Y-16829531D02*
X4960968Y-16820008D01*
X4960968Y-16820008D02*
X4941920Y-16810484D01*
X4941920Y-16810484D02*
X4903825Y-16810484D01*
X4903825Y-16810484D02*
X4884777Y-16820008D01*
X4884777Y-16820008D02*
X4875253Y-16829531D01*
X4875253Y-16829531D02*
X4865730Y-16848579D01*
X4865730Y-16848579D02*
X4865730Y-16896198D01*
X4865730Y-16896198D02*
X4875253Y-16915246D01*
X4875253Y-16915246D02*
X4884777Y-16924770D01*
X4884777Y-16924770D02*
X4903825Y-16934293D01*
X4903825Y-16934293D02*
X4941920Y-16934293D01*
X4941920Y-16934293D02*
X4960968Y-16924770D01*
X4960968Y-16924770D02*
X4970491Y-16915246D01*
X4970491Y-16915246D02*
X4980015Y-16896198D01*
X5151444Y-16877150D02*
X5151444Y-17010484D01*
X5103825Y-16800960D02*
X5056206Y-16943817D01*
X5056206Y-16943817D02*
X5180015Y-16943817D01*
X5408587Y-17010484D02*
X5408587Y-16810484D01*
X5494301Y-17010484D02*
X5494301Y-16905722D01*
X5494301Y-16905722D02*
X5484777Y-16886674D01*
X5484777Y-16886674D02*
X5465730Y-16877150D01*
X5465730Y-16877150D02*
X5437158Y-16877150D01*
X5437158Y-16877150D02*
X5418111Y-16886674D01*
X5418111Y-16886674D02*
X5408587Y-16896198D01*
X5618110Y-17010484D02*
X5599063Y-17000960D01*
X5599063Y-17000960D02*
X5589539Y-16991436D01*
X5589539Y-16991436D02*
X5580015Y-16972389D01*
X5580015Y-16972389D02*
X5580015Y-16915246D01*
X5580015Y-16915246D02*
X5589539Y-16896198D01*
X5589539Y-16896198D02*
X5599063Y-16886674D01*
X5599063Y-16886674D02*
X5618110Y-16877150D01*
X5618110Y-16877150D02*
X5646682Y-16877150D01*
X5646682Y-16877150D02*
X5665730Y-16886674D01*
X5665730Y-16886674D02*
X5675253Y-16896198D01*
X5675253Y-16896198D02*
X5684777Y-16915246D01*
X5684777Y-16915246D02*
X5684777Y-16972389D01*
X5684777Y-16972389D02*
X5675253Y-16991436D01*
X5675253Y-16991436D02*
X5665730Y-17000960D01*
X5665730Y-17000960D02*
X5646682Y-17010484D01*
X5646682Y-17010484D02*
X5618110Y-17010484D01*
X5799063Y-17010484D02*
X5780015Y-17000960D01*
X5780015Y-17000960D02*
X5770491Y-16981912D01*
X5770491Y-16981912D02*
X5770491Y-16810484D01*
X5951444Y-17000960D02*
X5932396Y-17010484D01*
X5932396Y-17010484D02*
X5894301Y-17010484D01*
X5894301Y-17010484D02*
X5875253Y-17000960D01*
X5875253Y-17000960D02*
X5865730Y-16981912D01*
X5865730Y-16981912D02*
X5865730Y-16905722D01*
X5865730Y-16905722D02*
X5875253Y-16886674D01*
X5875253Y-16886674D02*
X5894301Y-16877150D01*
X5894301Y-16877150D02*
X5932396Y-16877150D01*
X5932396Y-16877150D02*
X5951444Y-16886674D01*
X5951444Y-16886674D02*
X5960968Y-16905722D01*
X5960968Y-16905722D02*
X5960968Y-16924770D01*
X5960968Y-16924770D02*
X5865730Y-16943817D01*
X6037158Y-17000960D02*
X6056206Y-17010484D01*
X6056206Y-17010484D02*
X6094301Y-17010484D01*
X6094301Y-17010484D02*
X6113349Y-17000960D01*
X6113349Y-17000960D02*
X6122872Y-16981912D01*
X6122872Y-16981912D02*
X6122872Y-16972389D01*
X6122872Y-16972389D02*
X6113349Y-16953341D01*
X6113349Y-16953341D02*
X6094301Y-16943817D01*
X6094301Y-16943817D02*
X6065730Y-16943817D01*
X6065730Y-16943817D02*
X6046682Y-16934293D01*
X6046682Y-16934293D02*
X6037158Y-16915246D01*
X6037158Y-16915246D02*
X6037158Y-16905722D01*
X6037158Y-16905722D02*
X6046682Y-16886674D01*
X6046682Y-16886674D02*
X6065730Y-16877150D01*
X6065730Y-16877150D02*
X6094301Y-16877150D01*
X6094301Y-16877150D02*
X6113349Y-16886674D01*
X6189539Y-17086674D02*
X6199063Y-17077150D01*
X6199063Y-17077150D02*
X6218111Y-17048579D01*
X6218111Y-17048579D02*
X6227634Y-17029531D01*
X6227634Y-17029531D02*
X6237158Y-17000960D01*
X6237158Y-17000960D02*
X6246682Y-16953341D01*
X6246682Y-16953341D02*
X6246682Y-16915246D01*
X6246682Y-16915246D02*
X6237158Y-16867627D01*
X6237158Y-16867627D02*
X6227634Y-16839055D01*
X6227634Y-16839055D02*
X6218111Y-16820008D01*
X6218111Y-16820008D02*
X6199063Y-16791436D01*
X6199063Y-16791436D02*
X6189539Y-16781912D01*
D10*
X1224000Y-17183000D02*
G75*
G02*
X1144000Y-17183000I-40000J0D01*
G01*
X1144000Y-17183000D02*
G75*
G02*
X1224000Y-17183000I40000J0D01*
G01*
D11*
X1522872Y-17074484D02*
X1541920Y-17074484D01*
X1541920Y-17074484D02*
X1560967Y-17084008D01*
X1560967Y-17084008D02*
X1570491Y-17093531D01*
X1570491Y-17093531D02*
X1580015Y-17112579D01*
X1580015Y-17112579D02*
X1589539Y-17150674D01*
X1589539Y-17150674D02*
X1589539Y-17198293D01*
X1589539Y-17198293D02*
X1580015Y-17236389D01*
X1580015Y-17236389D02*
X1570491Y-17255436D01*
X1570491Y-17255436D02*
X1560967Y-17264960D01*
X1560967Y-17264960D02*
X1541920Y-17274484D01*
X1541920Y-17274484D02*
X1522872Y-17274484D01*
X1522872Y-17274484D02*
X1503824Y-17264960D01*
X1503824Y-17264960D02*
X1494301Y-17255436D01*
X1494301Y-17255436D02*
X1484777Y-17236389D01*
X1484777Y-17236389D02*
X1475253Y-17198293D01*
X1475253Y-17198293D02*
X1475253Y-17150674D01*
X1475253Y-17150674D02*
X1484777Y-17112579D01*
X1484777Y-17112579D02*
X1494301Y-17093531D01*
X1494301Y-17093531D02*
X1503824Y-17084008D01*
X1503824Y-17084008D02*
X1522872Y-17074484D01*
X1675253Y-17255436D02*
X1684777Y-17264960D01*
X1684777Y-17264960D02*
X1675253Y-17274484D01*
X1675253Y-17274484D02*
X1665729Y-17264960D01*
X1665729Y-17264960D02*
X1675253Y-17255436D01*
X1675253Y-17255436D02*
X1675253Y-17274484D01*
X1799062Y-17160198D02*
X1780015Y-17150674D01*
X1780015Y-17150674D02*
X1770491Y-17141150D01*
X1770491Y-17141150D02*
X1760967Y-17122103D01*
X1760967Y-17122103D02*
X1760967Y-17112579D01*
X1760967Y-17112579D02*
X1770491Y-17093531D01*
X1770491Y-17093531D02*
X1780015Y-17084008D01*
X1780015Y-17084008D02*
X1799062Y-17074484D01*
X1799062Y-17074484D02*
X1837158Y-17074484D01*
X1837158Y-17074484D02*
X1856205Y-17084008D01*
X1856205Y-17084008D02*
X1865729Y-17093531D01*
X1865729Y-17093531D02*
X1875253Y-17112579D01*
X1875253Y-17112579D02*
X1875253Y-17122103D01*
X1875253Y-17122103D02*
X1865729Y-17141150D01*
X1865729Y-17141150D02*
X1856205Y-17150674D01*
X1856205Y-17150674D02*
X1837158Y-17160198D01*
X1837158Y-17160198D02*
X1799062Y-17160198D01*
X1799062Y-17160198D02*
X1780015Y-17169722D01*
X1780015Y-17169722D02*
X1770491Y-17179246D01*
X1770491Y-17179246D02*
X1760967Y-17198293D01*
X1760967Y-17198293D02*
X1760967Y-17236389D01*
X1760967Y-17236389D02*
X1770491Y-17255436D01*
X1770491Y-17255436D02*
X1780015Y-17264960D01*
X1780015Y-17264960D02*
X1799062Y-17274484D01*
X1799062Y-17274484D02*
X1837158Y-17274484D01*
X1837158Y-17274484D02*
X1856205Y-17264960D01*
X1856205Y-17264960D02*
X1865729Y-17255436D01*
X1865729Y-17255436D02*
X1875253Y-17236389D01*
X1875253Y-17236389D02*
X1875253Y-17198293D01*
X1875253Y-17198293D02*
X1865729Y-17179246D01*
X1865729Y-17179246D02*
X1856205Y-17169722D01*
X1856205Y-17169722D02*
X1837158Y-17160198D01*
X1999062Y-17074484D02*
X2018110Y-17074484D01*
X2018110Y-17074484D02*
X2037158Y-17084008D01*
X2037158Y-17084008D02*
X2046682Y-17093531D01*
X2046682Y-17093531D02*
X2056205Y-17112579D01*
X2056205Y-17112579D02*
X2065729Y-17150674D01*
X2065729Y-17150674D02*
X2065729Y-17198293D01*
X2065729Y-17198293D02*
X2056205Y-17236389D01*
X2056205Y-17236389D02*
X2046682Y-17255436D01*
X2046682Y-17255436D02*
X2037158Y-17264960D01*
X2037158Y-17264960D02*
X2018110Y-17274484D01*
X2018110Y-17274484D02*
X1999062Y-17274484D01*
X1999062Y-17274484D02*
X1980015Y-17264960D01*
X1980015Y-17264960D02*
X1970491Y-17255436D01*
X1970491Y-17255436D02*
X1960967Y-17236389D01*
X1960967Y-17236389D02*
X1951443Y-17198293D01*
X1951443Y-17198293D02*
X1951443Y-17150674D01*
X1951443Y-17150674D02*
X1960967Y-17112579D01*
X1960967Y-17112579D02*
X1970491Y-17093531D01*
X1970491Y-17093531D02*
X1980015Y-17084008D01*
X1980015Y-17084008D02*
X1999062Y-17074484D01*
X2189539Y-17074484D02*
X2208586Y-17074484D01*
X2208586Y-17074484D02*
X2227634Y-17084008D01*
X2227634Y-17084008D02*
X2237158Y-17093531D01*
X2237158Y-17093531D02*
X2246682Y-17112579D01*
X2246682Y-17112579D02*
X2256205Y-17150674D01*
X2256205Y-17150674D02*
X2256205Y-17198293D01*
X2256205Y-17198293D02*
X2246682Y-17236389D01*
X2246682Y-17236389D02*
X2237158Y-17255436D01*
X2237158Y-17255436D02*
X2227634Y-17264960D01*
X2227634Y-17264960D02*
X2208586Y-17274484D01*
X2208586Y-17274484D02*
X2189539Y-17274484D01*
X2189539Y-17274484D02*
X2170491Y-17264960D01*
X2170491Y-17264960D02*
X2160967Y-17255436D01*
X2160967Y-17255436D02*
X2151444Y-17236389D01*
X2151444Y-17236389D02*
X2141920Y-17198293D01*
X2141920Y-17198293D02*
X2141920Y-17150674D01*
X2141920Y-17150674D02*
X2151444Y-17112579D01*
X2151444Y-17112579D02*
X2160967Y-17093531D01*
X2160967Y-17093531D02*
X2170491Y-17084008D01*
X2170491Y-17084008D02*
X2189539Y-17074484D01*
X2341920Y-17274484D02*
X2341920Y-17141150D01*
X2341920Y-17160198D02*
X2351444Y-17150674D01*
X2351444Y-17150674D02*
X2370491Y-17141150D01*
X2370491Y-17141150D02*
X2399063Y-17141150D01*
X2399063Y-17141150D02*
X2418110Y-17150674D01*
X2418110Y-17150674D02*
X2427634Y-17169722D01*
X2427634Y-17169722D02*
X2427634Y-17274484D01*
X2427634Y-17169722D02*
X2437158Y-17150674D01*
X2437158Y-17150674D02*
X2456205Y-17141150D01*
X2456205Y-17141150D02*
X2484777Y-17141150D01*
X2484777Y-17141150D02*
X2503825Y-17150674D01*
X2503825Y-17150674D02*
X2513348Y-17169722D01*
X2513348Y-17169722D02*
X2513348Y-17274484D01*
X2608586Y-17274484D02*
X2608586Y-17141150D01*
X2608586Y-17160198D02*
X2618110Y-17150674D01*
X2618110Y-17150674D02*
X2637158Y-17141150D01*
X2637158Y-17141150D02*
X2665729Y-17141150D01*
X2665729Y-17141150D02*
X2684777Y-17150674D01*
X2684777Y-17150674D02*
X2694301Y-17169722D01*
X2694301Y-17169722D02*
X2694301Y-17274484D01*
X2694301Y-17169722D02*
X2703825Y-17150674D01*
X2703825Y-17150674D02*
X2722872Y-17141150D01*
X2722872Y-17141150D02*
X2751444Y-17141150D01*
X2751444Y-17141150D02*
X2770491Y-17150674D01*
X2770491Y-17150674D02*
X2780015Y-17169722D01*
X2780015Y-17169722D02*
X2780015Y-17274484D01*
X3170491Y-17064960D02*
X2999063Y-17322103D01*
X3427634Y-17074484D02*
X3446682Y-17074484D01*
X3446682Y-17074484D02*
X3465729Y-17084008D01*
X3465729Y-17084008D02*
X3475253Y-17093531D01*
X3475253Y-17093531D02*
X3484777Y-17112579D01*
X3484777Y-17112579D02*
X3494301Y-17150674D01*
X3494301Y-17150674D02*
X3494301Y-17198293D01*
X3494301Y-17198293D02*
X3484777Y-17236389D01*
X3484777Y-17236389D02*
X3475253Y-17255436D01*
X3475253Y-17255436D02*
X3465729Y-17264960D01*
X3465729Y-17264960D02*
X3446682Y-17274484D01*
X3446682Y-17274484D02*
X3427634Y-17274484D01*
X3427634Y-17274484D02*
X3408586Y-17264960D01*
X3408586Y-17264960D02*
X3399063Y-17255436D01*
X3399063Y-17255436D02*
X3389539Y-17236389D01*
X3389539Y-17236389D02*
X3380015Y-17198293D01*
X3380015Y-17198293D02*
X3380015Y-17150674D01*
X3380015Y-17150674D02*
X3389539Y-17112579D01*
X3389539Y-17112579D02*
X3399063Y-17093531D01*
X3399063Y-17093531D02*
X3408586Y-17084008D01*
X3408586Y-17084008D02*
X3427634Y-17074484D01*
X3580015Y-17255436D02*
X3589539Y-17264960D01*
X3589539Y-17264960D02*
X3580015Y-17274484D01*
X3580015Y-17274484D02*
X3570491Y-17264960D01*
X3570491Y-17264960D02*
X3580015Y-17255436D01*
X3580015Y-17255436D02*
X3580015Y-17274484D01*
X3713348Y-17074484D02*
X3732396Y-17074484D01*
X3732396Y-17074484D02*
X3751444Y-17084008D01*
X3751444Y-17084008D02*
X3760967Y-17093531D01*
X3760967Y-17093531D02*
X3770491Y-17112579D01*
X3770491Y-17112579D02*
X3780015Y-17150674D01*
X3780015Y-17150674D02*
X3780015Y-17198293D01*
X3780015Y-17198293D02*
X3770491Y-17236389D01*
X3770491Y-17236389D02*
X3760967Y-17255436D01*
X3760967Y-17255436D02*
X3751444Y-17264960D01*
X3751444Y-17264960D02*
X3732396Y-17274484D01*
X3732396Y-17274484D02*
X3713348Y-17274484D01*
X3713348Y-17274484D02*
X3694301Y-17264960D01*
X3694301Y-17264960D02*
X3684777Y-17255436D01*
X3684777Y-17255436D02*
X3675253Y-17236389D01*
X3675253Y-17236389D02*
X3665729Y-17198293D01*
X3665729Y-17198293D02*
X3665729Y-17150674D01*
X3665729Y-17150674D02*
X3675253Y-17112579D01*
X3675253Y-17112579D02*
X3684777Y-17093531D01*
X3684777Y-17093531D02*
X3694301Y-17084008D01*
X3694301Y-17084008D02*
X3713348Y-17074484D01*
X3846682Y-17074484D02*
X3970491Y-17074484D01*
X3970491Y-17074484D02*
X3903825Y-17150674D01*
X3903825Y-17150674D02*
X3932396Y-17150674D01*
X3932396Y-17150674D02*
X3951444Y-17160198D01*
X3951444Y-17160198D02*
X3960967Y-17169722D01*
X3960967Y-17169722D02*
X3970491Y-17188770D01*
X3970491Y-17188770D02*
X3970491Y-17236389D01*
X3970491Y-17236389D02*
X3960967Y-17255436D01*
X3960967Y-17255436D02*
X3951444Y-17264960D01*
X3951444Y-17264960D02*
X3932396Y-17274484D01*
X3932396Y-17274484D02*
X3875253Y-17274484D01*
X3875253Y-17274484D02*
X3856206Y-17264960D01*
X3856206Y-17264960D02*
X3846682Y-17255436D01*
X4160967Y-17274484D02*
X4046682Y-17274484D01*
X4103825Y-17274484D02*
X4103825Y-17074484D01*
X4103825Y-17074484D02*
X4084777Y-17103055D01*
X4084777Y-17103055D02*
X4065729Y-17122103D01*
X4065729Y-17122103D02*
X4046682Y-17131627D01*
X4341920Y-17074484D02*
X4246682Y-17074484D01*
X4246682Y-17074484D02*
X4237158Y-17169722D01*
X4237158Y-17169722D02*
X4246682Y-17160198D01*
X4246682Y-17160198D02*
X4265729Y-17150674D01*
X4265729Y-17150674D02*
X4313349Y-17150674D01*
X4313349Y-17150674D02*
X4332396Y-17160198D01*
X4332396Y-17160198D02*
X4341920Y-17169722D01*
X4341920Y-17169722D02*
X4351444Y-17188770D01*
X4351444Y-17188770D02*
X4351444Y-17236389D01*
X4351444Y-17236389D02*
X4341920Y-17255436D01*
X4341920Y-17255436D02*
X4332396Y-17264960D01*
X4332396Y-17264960D02*
X4313349Y-17274484D01*
X4313349Y-17274484D02*
X4265729Y-17274484D01*
X4265729Y-17274484D02*
X4246682Y-17264960D01*
X4246682Y-17264960D02*
X4237158Y-17255436D01*
X4427634Y-17074484D02*
X4427634Y-17112579D01*
X4503825Y-17074484D02*
X4503825Y-17112579D01*
X4799063Y-17350674D02*
X4789539Y-17341150D01*
X4789539Y-17341150D02*
X4770491Y-17312579D01*
X4770491Y-17312579D02*
X4760968Y-17293531D01*
X4760968Y-17293531D02*
X4751444Y-17264960D01*
X4751444Y-17264960D02*
X4741920Y-17217341D01*
X4741920Y-17217341D02*
X4741920Y-17179246D01*
X4741920Y-17179246D02*
X4751444Y-17131627D01*
X4751444Y-17131627D02*
X4760968Y-17103055D01*
X4760968Y-17103055D02*
X4770491Y-17084008D01*
X4770491Y-17084008D02*
X4789539Y-17055436D01*
X4789539Y-17055436D02*
X4799063Y-17045912D01*
X4903825Y-17160198D02*
X4884777Y-17150674D01*
X4884777Y-17150674D02*
X4875253Y-17141150D01*
X4875253Y-17141150D02*
X4865730Y-17122103D01*
X4865730Y-17122103D02*
X4865730Y-17112579D01*
X4865730Y-17112579D02*
X4875253Y-17093531D01*
X4875253Y-17093531D02*
X4884777Y-17084008D01*
X4884777Y-17084008D02*
X4903825Y-17074484D01*
X4903825Y-17074484D02*
X4941920Y-17074484D01*
X4941920Y-17074484D02*
X4960968Y-17084008D01*
X4960968Y-17084008D02*
X4970491Y-17093531D01*
X4970491Y-17093531D02*
X4980015Y-17112579D01*
X4980015Y-17112579D02*
X4980015Y-17122103D01*
X4980015Y-17122103D02*
X4970491Y-17141150D01*
X4970491Y-17141150D02*
X4960968Y-17150674D01*
X4960968Y-17150674D02*
X4941920Y-17160198D01*
X4941920Y-17160198D02*
X4903825Y-17160198D01*
X4903825Y-17160198D02*
X4884777Y-17169722D01*
X4884777Y-17169722D02*
X4875253Y-17179246D01*
X4875253Y-17179246D02*
X4865730Y-17198293D01*
X4865730Y-17198293D02*
X4865730Y-17236389D01*
X4865730Y-17236389D02*
X4875253Y-17255436D01*
X4875253Y-17255436D02*
X4884777Y-17264960D01*
X4884777Y-17264960D02*
X4903825Y-17274484D01*
X4903825Y-17274484D02*
X4941920Y-17274484D01*
X4941920Y-17274484D02*
X4960968Y-17264960D01*
X4960968Y-17264960D02*
X4970491Y-17255436D01*
X4970491Y-17255436D02*
X4980015Y-17236389D01*
X4980015Y-17236389D02*
X4980015Y-17198293D01*
X4980015Y-17198293D02*
X4970491Y-17179246D01*
X4970491Y-17179246D02*
X4960968Y-17169722D01*
X4960968Y-17169722D02*
X4941920Y-17160198D01*
X5218111Y-17274484D02*
X5218111Y-17074484D01*
X5303825Y-17274484D02*
X5303825Y-17169722D01*
X5303825Y-17169722D02*
X5294301Y-17150674D01*
X5294301Y-17150674D02*
X5275253Y-17141150D01*
X5275253Y-17141150D02*
X5246682Y-17141150D01*
X5246682Y-17141150D02*
X5227634Y-17150674D01*
X5227634Y-17150674D02*
X5218111Y-17160198D01*
X5427634Y-17274484D02*
X5408587Y-17264960D01*
X5408587Y-17264960D02*
X5399063Y-17255436D01*
X5399063Y-17255436D02*
X5389539Y-17236389D01*
X5389539Y-17236389D02*
X5389539Y-17179246D01*
X5389539Y-17179246D02*
X5399063Y-17160198D01*
X5399063Y-17160198D02*
X5408587Y-17150674D01*
X5408587Y-17150674D02*
X5427634Y-17141150D01*
X5427634Y-17141150D02*
X5456206Y-17141150D01*
X5456206Y-17141150D02*
X5475253Y-17150674D01*
X5475253Y-17150674D02*
X5484777Y-17160198D01*
X5484777Y-17160198D02*
X5494301Y-17179246D01*
X5494301Y-17179246D02*
X5494301Y-17236389D01*
X5494301Y-17236389D02*
X5484777Y-17255436D01*
X5484777Y-17255436D02*
X5475253Y-17264960D01*
X5475253Y-17264960D02*
X5456206Y-17274484D01*
X5456206Y-17274484D02*
X5427634Y-17274484D01*
X5608587Y-17274484D02*
X5589539Y-17264960D01*
X5589539Y-17264960D02*
X5580015Y-17245912D01*
X5580015Y-17245912D02*
X5580015Y-17074484D01*
X5760968Y-17264960D02*
X5741920Y-17274484D01*
X5741920Y-17274484D02*
X5703825Y-17274484D01*
X5703825Y-17274484D02*
X5684777Y-17264960D01*
X5684777Y-17264960D02*
X5675253Y-17245912D01*
X5675253Y-17245912D02*
X5675253Y-17169722D01*
X5675253Y-17169722D02*
X5684777Y-17150674D01*
X5684777Y-17150674D02*
X5703825Y-17141150D01*
X5703825Y-17141150D02*
X5741920Y-17141150D01*
X5741920Y-17141150D02*
X5760968Y-17150674D01*
X5760968Y-17150674D02*
X5770491Y-17169722D01*
X5770491Y-17169722D02*
X5770491Y-17188770D01*
X5770491Y-17188770D02*
X5675253Y-17207817D01*
X5846682Y-17264960D02*
X5865730Y-17274484D01*
X5865730Y-17274484D02*
X5903825Y-17274484D01*
X5903825Y-17274484D02*
X5922872Y-17264960D01*
X5922872Y-17264960D02*
X5932396Y-17245912D01*
X5932396Y-17245912D02*
X5932396Y-17236389D01*
X5932396Y-17236389D02*
X5922872Y-17217341D01*
X5922872Y-17217341D02*
X5903825Y-17207817D01*
X5903825Y-17207817D02*
X5875253Y-17207817D01*
X5875253Y-17207817D02*
X5856206Y-17198293D01*
X5856206Y-17198293D02*
X5846682Y-17179246D01*
X5846682Y-17179246D02*
X5846682Y-17169722D01*
X5846682Y-17169722D02*
X5856206Y-17150674D01*
X5856206Y-17150674D02*
X5875253Y-17141150D01*
X5875253Y-17141150D02*
X5903825Y-17141150D01*
X5903825Y-17141150D02*
X5922872Y-17150674D01*
X5999063Y-17350674D02*
X6008587Y-17341150D01*
X6008587Y-17341150D02*
X6027634Y-17312579D01*
X6027634Y-17312579D02*
X6037158Y-17293531D01*
X6037158Y-17293531D02*
X6046682Y-17264960D01*
X6046682Y-17264960D02*
X6056206Y-17217341D01*
X6056206Y-17217341D02*
X6056206Y-17179246D01*
X6056206Y-17179246D02*
X6046682Y-17131627D01*
X6046682Y-17131627D02*
X6037158Y-17103055D01*
X6037158Y-17103055D02*
X6027634Y-17084008D01*
X6027634Y-17084008D02*
X6008587Y-17055436D01*
X6008587Y-17055436D02*
X5999063Y-17045912D01*
D10*
X1174000Y-17397000D02*
X1174000Y-17497000D01*
X1124000Y-17447000D02*
X1224000Y-17447000D01*
D11*
X1589539Y-17538484D02*
X1475253Y-17538484D01*
X1532396Y-17538484D02*
X1532396Y-17338484D01*
X1532396Y-17338484D02*
X1513348Y-17367055D01*
X1513348Y-17367055D02*
X1494301Y-17386103D01*
X1494301Y-17386103D02*
X1475253Y-17395627D01*
X1675253Y-17519436D02*
X1684777Y-17528960D01*
X1684777Y-17528960D02*
X1675253Y-17538484D01*
X1675253Y-17538484D02*
X1665729Y-17528960D01*
X1665729Y-17528960D02*
X1675253Y-17519436D01*
X1675253Y-17519436D02*
X1675253Y-17538484D01*
X1808586Y-17338484D02*
X1827634Y-17338484D01*
X1827634Y-17338484D02*
X1846682Y-17348008D01*
X1846682Y-17348008D02*
X1856205Y-17357531D01*
X1856205Y-17357531D02*
X1865729Y-17376579D01*
X1865729Y-17376579D02*
X1875253Y-17414674D01*
X1875253Y-17414674D02*
X1875253Y-17462293D01*
X1875253Y-17462293D02*
X1865729Y-17500389D01*
X1865729Y-17500389D02*
X1856205Y-17519436D01*
X1856205Y-17519436D02*
X1846682Y-17528960D01*
X1846682Y-17528960D02*
X1827634Y-17538484D01*
X1827634Y-17538484D02*
X1808586Y-17538484D01*
X1808586Y-17538484D02*
X1789539Y-17528960D01*
X1789539Y-17528960D02*
X1780015Y-17519436D01*
X1780015Y-17519436D02*
X1770491Y-17500389D01*
X1770491Y-17500389D02*
X1760967Y-17462293D01*
X1760967Y-17462293D02*
X1760967Y-17414674D01*
X1760967Y-17414674D02*
X1770491Y-17376579D01*
X1770491Y-17376579D02*
X1780015Y-17357531D01*
X1780015Y-17357531D02*
X1789539Y-17348008D01*
X1789539Y-17348008D02*
X1808586Y-17338484D01*
X1999062Y-17338484D02*
X2018110Y-17338484D01*
X2018110Y-17338484D02*
X2037158Y-17348008D01*
X2037158Y-17348008D02*
X2046682Y-17357531D01*
X2046682Y-17357531D02*
X2056205Y-17376579D01*
X2056205Y-17376579D02*
X2065729Y-17414674D01*
X2065729Y-17414674D02*
X2065729Y-17462293D01*
X2065729Y-17462293D02*
X2056205Y-17500389D01*
X2056205Y-17500389D02*
X2046682Y-17519436D01*
X2046682Y-17519436D02*
X2037158Y-17528960D01*
X2037158Y-17528960D02*
X2018110Y-17538484D01*
X2018110Y-17538484D02*
X1999062Y-17538484D01*
X1999062Y-17538484D02*
X1980015Y-17528960D01*
X1980015Y-17528960D02*
X1970491Y-17519436D01*
X1970491Y-17519436D02*
X1960967Y-17500389D01*
X1960967Y-17500389D02*
X1951443Y-17462293D01*
X1951443Y-17462293D02*
X1951443Y-17414674D01*
X1951443Y-17414674D02*
X1960967Y-17376579D01*
X1960967Y-17376579D02*
X1970491Y-17357531D01*
X1970491Y-17357531D02*
X1980015Y-17348008D01*
X1980015Y-17348008D02*
X1999062Y-17338484D01*
X2189539Y-17338484D02*
X2208586Y-17338484D01*
X2208586Y-17338484D02*
X2227634Y-17348008D01*
X2227634Y-17348008D02*
X2237158Y-17357531D01*
X2237158Y-17357531D02*
X2246682Y-17376579D01*
X2246682Y-17376579D02*
X2256205Y-17414674D01*
X2256205Y-17414674D02*
X2256205Y-17462293D01*
X2256205Y-17462293D02*
X2246682Y-17500389D01*
X2246682Y-17500389D02*
X2237158Y-17519436D01*
X2237158Y-17519436D02*
X2227634Y-17528960D01*
X2227634Y-17528960D02*
X2208586Y-17538484D01*
X2208586Y-17538484D02*
X2189539Y-17538484D01*
X2189539Y-17538484D02*
X2170491Y-17528960D01*
X2170491Y-17528960D02*
X2160967Y-17519436D01*
X2160967Y-17519436D02*
X2151444Y-17500389D01*
X2151444Y-17500389D02*
X2141920Y-17462293D01*
X2141920Y-17462293D02*
X2141920Y-17414674D01*
X2141920Y-17414674D02*
X2151444Y-17376579D01*
X2151444Y-17376579D02*
X2160967Y-17357531D01*
X2160967Y-17357531D02*
X2170491Y-17348008D01*
X2170491Y-17348008D02*
X2189539Y-17338484D01*
X2341920Y-17538484D02*
X2341920Y-17405150D01*
X2341920Y-17424198D02*
X2351444Y-17414674D01*
X2351444Y-17414674D02*
X2370491Y-17405150D01*
X2370491Y-17405150D02*
X2399063Y-17405150D01*
X2399063Y-17405150D02*
X2418110Y-17414674D01*
X2418110Y-17414674D02*
X2427634Y-17433722D01*
X2427634Y-17433722D02*
X2427634Y-17538484D01*
X2427634Y-17433722D02*
X2437158Y-17414674D01*
X2437158Y-17414674D02*
X2456205Y-17405150D01*
X2456205Y-17405150D02*
X2484777Y-17405150D01*
X2484777Y-17405150D02*
X2503825Y-17414674D01*
X2503825Y-17414674D02*
X2513348Y-17433722D01*
X2513348Y-17433722D02*
X2513348Y-17538484D01*
X2608586Y-17538484D02*
X2608586Y-17405150D01*
X2608586Y-17424198D02*
X2618110Y-17414674D01*
X2618110Y-17414674D02*
X2637158Y-17405150D01*
X2637158Y-17405150D02*
X2665729Y-17405150D01*
X2665729Y-17405150D02*
X2684777Y-17414674D01*
X2684777Y-17414674D02*
X2694301Y-17433722D01*
X2694301Y-17433722D02*
X2694301Y-17538484D01*
X2694301Y-17433722D02*
X2703825Y-17414674D01*
X2703825Y-17414674D02*
X2722872Y-17405150D01*
X2722872Y-17405150D02*
X2751444Y-17405150D01*
X2751444Y-17405150D02*
X2770491Y-17414674D01*
X2770491Y-17414674D02*
X2780015Y-17433722D01*
X2780015Y-17433722D02*
X2780015Y-17538484D01*
X3170491Y-17328960D02*
X2999063Y-17586103D01*
X3427634Y-17338484D02*
X3446682Y-17338484D01*
X3446682Y-17338484D02*
X3465729Y-17348008D01*
X3465729Y-17348008D02*
X3475253Y-17357531D01*
X3475253Y-17357531D02*
X3484777Y-17376579D01*
X3484777Y-17376579D02*
X3494301Y-17414674D01*
X3494301Y-17414674D02*
X3494301Y-17462293D01*
X3494301Y-17462293D02*
X3484777Y-17500389D01*
X3484777Y-17500389D02*
X3475253Y-17519436D01*
X3475253Y-17519436D02*
X3465729Y-17528960D01*
X3465729Y-17528960D02*
X3446682Y-17538484D01*
X3446682Y-17538484D02*
X3427634Y-17538484D01*
X3427634Y-17538484D02*
X3408586Y-17528960D01*
X3408586Y-17528960D02*
X3399063Y-17519436D01*
X3399063Y-17519436D02*
X3389539Y-17500389D01*
X3389539Y-17500389D02*
X3380015Y-17462293D01*
X3380015Y-17462293D02*
X3380015Y-17414674D01*
X3380015Y-17414674D02*
X3389539Y-17376579D01*
X3389539Y-17376579D02*
X3399063Y-17357531D01*
X3399063Y-17357531D02*
X3408586Y-17348008D01*
X3408586Y-17348008D02*
X3427634Y-17338484D01*
X3580015Y-17519436D02*
X3589539Y-17528960D01*
X3589539Y-17528960D02*
X3580015Y-17538484D01*
X3580015Y-17538484D02*
X3570491Y-17528960D01*
X3570491Y-17528960D02*
X3580015Y-17519436D01*
X3580015Y-17519436D02*
X3580015Y-17538484D01*
X3713348Y-17338484D02*
X3732396Y-17338484D01*
X3732396Y-17338484D02*
X3751444Y-17348008D01*
X3751444Y-17348008D02*
X3760967Y-17357531D01*
X3760967Y-17357531D02*
X3770491Y-17376579D01*
X3770491Y-17376579D02*
X3780015Y-17414674D01*
X3780015Y-17414674D02*
X3780015Y-17462293D01*
X3780015Y-17462293D02*
X3770491Y-17500389D01*
X3770491Y-17500389D02*
X3760967Y-17519436D01*
X3760967Y-17519436D02*
X3751444Y-17528960D01*
X3751444Y-17528960D02*
X3732396Y-17538484D01*
X3732396Y-17538484D02*
X3713348Y-17538484D01*
X3713348Y-17538484D02*
X3694301Y-17528960D01*
X3694301Y-17528960D02*
X3684777Y-17519436D01*
X3684777Y-17519436D02*
X3675253Y-17500389D01*
X3675253Y-17500389D02*
X3665729Y-17462293D01*
X3665729Y-17462293D02*
X3665729Y-17414674D01*
X3665729Y-17414674D02*
X3675253Y-17376579D01*
X3675253Y-17376579D02*
X3684777Y-17357531D01*
X3684777Y-17357531D02*
X3694301Y-17348008D01*
X3694301Y-17348008D02*
X3713348Y-17338484D01*
X3846682Y-17338484D02*
X3970491Y-17338484D01*
X3970491Y-17338484D02*
X3903825Y-17414674D01*
X3903825Y-17414674D02*
X3932396Y-17414674D01*
X3932396Y-17414674D02*
X3951444Y-17424198D01*
X3951444Y-17424198D02*
X3960967Y-17433722D01*
X3960967Y-17433722D02*
X3970491Y-17452770D01*
X3970491Y-17452770D02*
X3970491Y-17500389D01*
X3970491Y-17500389D02*
X3960967Y-17519436D01*
X3960967Y-17519436D02*
X3951444Y-17528960D01*
X3951444Y-17528960D02*
X3932396Y-17538484D01*
X3932396Y-17538484D02*
X3875253Y-17538484D01*
X3875253Y-17538484D02*
X3856206Y-17528960D01*
X3856206Y-17528960D02*
X3846682Y-17519436D01*
X4065729Y-17538484D02*
X4103825Y-17538484D01*
X4103825Y-17538484D02*
X4122872Y-17528960D01*
X4122872Y-17528960D02*
X4132396Y-17519436D01*
X4132396Y-17519436D02*
X4151444Y-17490865D01*
X4151444Y-17490865D02*
X4160967Y-17452770D01*
X4160967Y-17452770D02*
X4160967Y-17376579D01*
X4160967Y-17376579D02*
X4151444Y-17357531D01*
X4151444Y-17357531D02*
X4141920Y-17348008D01*
X4141920Y-17348008D02*
X4122872Y-17338484D01*
X4122872Y-17338484D02*
X4084777Y-17338484D01*
X4084777Y-17338484D02*
X4065729Y-17348008D01*
X4065729Y-17348008D02*
X4056206Y-17357531D01*
X4056206Y-17357531D02*
X4046682Y-17376579D01*
X4046682Y-17376579D02*
X4046682Y-17424198D01*
X4046682Y-17424198D02*
X4056206Y-17443246D01*
X4056206Y-17443246D02*
X4065729Y-17452770D01*
X4065729Y-17452770D02*
X4084777Y-17462293D01*
X4084777Y-17462293D02*
X4122872Y-17462293D01*
X4122872Y-17462293D02*
X4141920Y-17452770D01*
X4141920Y-17452770D02*
X4151444Y-17443246D01*
X4151444Y-17443246D02*
X4160967Y-17424198D01*
X4332396Y-17405150D02*
X4332396Y-17538484D01*
X4284777Y-17328960D02*
X4237158Y-17471817D01*
X4237158Y-17471817D02*
X4360968Y-17471817D01*
X4427634Y-17338484D02*
X4427634Y-17376579D01*
X4503825Y-17338484D02*
X4503825Y-17376579D01*
X4799063Y-17614674D02*
X4789539Y-17605150D01*
X4789539Y-17605150D02*
X4770491Y-17576579D01*
X4770491Y-17576579D02*
X4760968Y-17557531D01*
X4760968Y-17557531D02*
X4751444Y-17528960D01*
X4751444Y-17528960D02*
X4741920Y-17481341D01*
X4741920Y-17481341D02*
X4741920Y-17443246D01*
X4741920Y-17443246D02*
X4751444Y-17395627D01*
X4751444Y-17395627D02*
X4760968Y-17367055D01*
X4760968Y-17367055D02*
X4770491Y-17348008D01*
X4770491Y-17348008D02*
X4789539Y-17319436D01*
X4789539Y-17319436D02*
X4799063Y-17309912D01*
X4960968Y-17338484D02*
X4922872Y-17338484D01*
X4922872Y-17338484D02*
X4903825Y-17348008D01*
X4903825Y-17348008D02*
X4894301Y-17357531D01*
X4894301Y-17357531D02*
X4875253Y-17386103D01*
X4875253Y-17386103D02*
X4865730Y-17424198D01*
X4865730Y-17424198D02*
X4865730Y-17500389D01*
X4865730Y-17500389D02*
X4875253Y-17519436D01*
X4875253Y-17519436D02*
X4884777Y-17528960D01*
X4884777Y-17528960D02*
X4903825Y-17538484D01*
X4903825Y-17538484D02*
X4941920Y-17538484D01*
X4941920Y-17538484D02*
X4960968Y-17528960D01*
X4960968Y-17528960D02*
X4970491Y-17519436D01*
X4970491Y-17519436D02*
X4980015Y-17500389D01*
X4980015Y-17500389D02*
X4980015Y-17452770D01*
X4980015Y-17452770D02*
X4970491Y-17433722D01*
X4970491Y-17433722D02*
X4960968Y-17424198D01*
X4960968Y-17424198D02*
X4941920Y-17414674D01*
X4941920Y-17414674D02*
X4903825Y-17414674D01*
X4903825Y-17414674D02*
X4884777Y-17424198D01*
X4884777Y-17424198D02*
X4875253Y-17433722D01*
X4875253Y-17433722D02*
X4865730Y-17452770D01*
X5151444Y-17405150D02*
X5151444Y-17538484D01*
X5103825Y-17328960D02*
X5056206Y-17471817D01*
X5056206Y-17471817D02*
X5180015Y-17471817D01*
X5408587Y-17538484D02*
X5408587Y-17338484D01*
X5494301Y-17538484D02*
X5494301Y-17433722D01*
X5494301Y-17433722D02*
X5484777Y-17414674D01*
X5484777Y-17414674D02*
X5465730Y-17405150D01*
X5465730Y-17405150D02*
X5437158Y-17405150D01*
X5437158Y-17405150D02*
X5418111Y-17414674D01*
X5418111Y-17414674D02*
X5408587Y-17424198D01*
X5618110Y-17538484D02*
X5599063Y-17528960D01*
X5599063Y-17528960D02*
X5589539Y-17519436D01*
X5589539Y-17519436D02*
X5580015Y-17500389D01*
X5580015Y-17500389D02*
X5580015Y-17443246D01*
X5580015Y-17443246D02*
X5589539Y-17424198D01*
X5589539Y-17424198D02*
X5599063Y-17414674D01*
X5599063Y-17414674D02*
X5618110Y-17405150D01*
X5618110Y-17405150D02*
X5646682Y-17405150D01*
X5646682Y-17405150D02*
X5665730Y-17414674D01*
X5665730Y-17414674D02*
X5675253Y-17424198D01*
X5675253Y-17424198D02*
X5684777Y-17443246D01*
X5684777Y-17443246D02*
X5684777Y-17500389D01*
X5684777Y-17500389D02*
X5675253Y-17519436D01*
X5675253Y-17519436D02*
X5665730Y-17528960D01*
X5665730Y-17528960D02*
X5646682Y-17538484D01*
X5646682Y-17538484D02*
X5618110Y-17538484D01*
X5799063Y-17538484D02*
X5780015Y-17528960D01*
X5780015Y-17528960D02*
X5770491Y-17509912D01*
X5770491Y-17509912D02*
X5770491Y-17338484D01*
X5951444Y-17528960D02*
X5932396Y-17538484D01*
X5932396Y-17538484D02*
X5894301Y-17538484D01*
X5894301Y-17538484D02*
X5875253Y-17528960D01*
X5875253Y-17528960D02*
X5865730Y-17509912D01*
X5865730Y-17509912D02*
X5865730Y-17433722D01*
X5865730Y-17433722D02*
X5875253Y-17414674D01*
X5875253Y-17414674D02*
X5894301Y-17405150D01*
X5894301Y-17405150D02*
X5932396Y-17405150D01*
X5932396Y-17405150D02*
X5951444Y-17414674D01*
X5951444Y-17414674D02*
X5960968Y-17433722D01*
X5960968Y-17433722D02*
X5960968Y-17452770D01*
X5960968Y-17452770D02*
X5865730Y-17471817D01*
X6037158Y-17528960D02*
X6056206Y-17538484D01*
X6056206Y-17538484D02*
X6094301Y-17538484D01*
X6094301Y-17538484D02*
X6113349Y-17528960D01*
X6113349Y-17528960D02*
X6122872Y-17509912D01*
X6122872Y-17509912D02*
X6122872Y-17500389D01*
X6122872Y-17500389D02*
X6113349Y-17481341D01*
X6113349Y-17481341D02*
X6094301Y-17471817D01*
X6094301Y-17471817D02*
X6065730Y-17471817D01*
X6065730Y-17471817D02*
X6046682Y-17462293D01*
X6046682Y-17462293D02*
X6037158Y-17443246D01*
X6037158Y-17443246D02*
X6037158Y-17433722D01*
X6037158Y-17433722D02*
X6046682Y-17414674D01*
X6046682Y-17414674D02*
X6065730Y-17405150D01*
X6065730Y-17405150D02*
X6094301Y-17405150D01*
X6094301Y-17405150D02*
X6113349Y-17414674D01*
X6189539Y-17614674D02*
X6199063Y-17605150D01*
X6199063Y-17605150D02*
X6218111Y-17576579D01*
X6218111Y-17576579D02*
X6227634Y-17557531D01*
X6227634Y-17557531D02*
X6237158Y-17528960D01*
X6237158Y-17528960D02*
X6246682Y-17481341D01*
X6246682Y-17481341D02*
X6246682Y-17443246D01*
X6246682Y-17443246D02*
X6237158Y-17395627D01*
X6237158Y-17395627D02*
X6227634Y-17367055D01*
X6227634Y-17367055D02*
X6218111Y-17348008D01*
X6218111Y-17348008D02*
X6199063Y-17319436D01*
X6199063Y-17319436D02*
X6189539Y-17309912D01*
D12*
X1207891Y-17749891D02*
X1207891Y-17672109D01*
X1130109Y-17672109D01*
X1130109Y-17749891D01*
X1207891Y-17749891D01*
D11*
X1589539Y-17802484D02*
X1475253Y-17802484D01*
X1532396Y-17802484D02*
X1532396Y-17602484D01*
X1532396Y-17602484D02*
X1513348Y-17631055D01*
X1513348Y-17631055D02*
X1494301Y-17650103D01*
X1494301Y-17650103D02*
X1475253Y-17659627D01*
X1675253Y-17783436D02*
X1684777Y-17792960D01*
X1684777Y-17792960D02*
X1675253Y-17802484D01*
X1675253Y-17802484D02*
X1665729Y-17792960D01*
X1665729Y-17792960D02*
X1675253Y-17783436D01*
X1675253Y-17783436D02*
X1675253Y-17802484D01*
X1875253Y-17802484D02*
X1760967Y-17802484D01*
X1818110Y-17802484D02*
X1818110Y-17602484D01*
X1818110Y-17602484D02*
X1799062Y-17631055D01*
X1799062Y-17631055D02*
X1780015Y-17650103D01*
X1780015Y-17650103D02*
X1760967Y-17659627D01*
X1999062Y-17602484D02*
X2018110Y-17602484D01*
X2018110Y-17602484D02*
X2037158Y-17612008D01*
X2037158Y-17612008D02*
X2046682Y-17621531D01*
X2046682Y-17621531D02*
X2056205Y-17640579D01*
X2056205Y-17640579D02*
X2065729Y-17678674D01*
X2065729Y-17678674D02*
X2065729Y-17726293D01*
X2065729Y-17726293D02*
X2056205Y-17764389D01*
X2056205Y-17764389D02*
X2046682Y-17783436D01*
X2046682Y-17783436D02*
X2037158Y-17792960D01*
X2037158Y-17792960D02*
X2018110Y-17802484D01*
X2018110Y-17802484D02*
X1999062Y-17802484D01*
X1999062Y-17802484D02*
X1980015Y-17792960D01*
X1980015Y-17792960D02*
X1970491Y-17783436D01*
X1970491Y-17783436D02*
X1960967Y-17764389D01*
X1960967Y-17764389D02*
X1951443Y-17726293D01*
X1951443Y-17726293D02*
X1951443Y-17678674D01*
X1951443Y-17678674D02*
X1960967Y-17640579D01*
X1960967Y-17640579D02*
X1970491Y-17621531D01*
X1970491Y-17621531D02*
X1980015Y-17612008D01*
X1980015Y-17612008D02*
X1999062Y-17602484D01*
X2189539Y-17602484D02*
X2208586Y-17602484D01*
X2208586Y-17602484D02*
X2227634Y-17612008D01*
X2227634Y-17612008D02*
X2237158Y-17621531D01*
X2237158Y-17621531D02*
X2246682Y-17640579D01*
X2246682Y-17640579D02*
X2256205Y-17678674D01*
X2256205Y-17678674D02*
X2256205Y-17726293D01*
X2256205Y-17726293D02*
X2246682Y-17764389D01*
X2246682Y-17764389D02*
X2237158Y-17783436D01*
X2237158Y-17783436D02*
X2227634Y-17792960D01*
X2227634Y-17792960D02*
X2208586Y-17802484D01*
X2208586Y-17802484D02*
X2189539Y-17802484D01*
X2189539Y-17802484D02*
X2170491Y-17792960D01*
X2170491Y-17792960D02*
X2160967Y-17783436D01*
X2160967Y-17783436D02*
X2151444Y-17764389D01*
X2151444Y-17764389D02*
X2141920Y-17726293D01*
X2141920Y-17726293D02*
X2141920Y-17678674D01*
X2141920Y-17678674D02*
X2151444Y-17640579D01*
X2151444Y-17640579D02*
X2160967Y-17621531D01*
X2160967Y-17621531D02*
X2170491Y-17612008D01*
X2170491Y-17612008D02*
X2189539Y-17602484D01*
X2341920Y-17802484D02*
X2341920Y-17669150D01*
X2341920Y-17688198D02*
X2351444Y-17678674D01*
X2351444Y-17678674D02*
X2370491Y-17669150D01*
X2370491Y-17669150D02*
X2399063Y-17669150D01*
X2399063Y-17669150D02*
X2418110Y-17678674D01*
X2418110Y-17678674D02*
X2427634Y-17697722D01*
X2427634Y-17697722D02*
X2427634Y-17802484D01*
X2427634Y-17697722D02*
X2437158Y-17678674D01*
X2437158Y-17678674D02*
X2456205Y-17669150D01*
X2456205Y-17669150D02*
X2484777Y-17669150D01*
X2484777Y-17669150D02*
X2503825Y-17678674D01*
X2503825Y-17678674D02*
X2513348Y-17697722D01*
X2513348Y-17697722D02*
X2513348Y-17802484D01*
X2608586Y-17802484D02*
X2608586Y-17669150D01*
X2608586Y-17688198D02*
X2618110Y-17678674D01*
X2618110Y-17678674D02*
X2637158Y-17669150D01*
X2637158Y-17669150D02*
X2665729Y-17669150D01*
X2665729Y-17669150D02*
X2684777Y-17678674D01*
X2684777Y-17678674D02*
X2694301Y-17697722D01*
X2694301Y-17697722D02*
X2694301Y-17802484D01*
X2694301Y-17697722D02*
X2703825Y-17678674D01*
X2703825Y-17678674D02*
X2722872Y-17669150D01*
X2722872Y-17669150D02*
X2751444Y-17669150D01*
X2751444Y-17669150D02*
X2770491Y-17678674D01*
X2770491Y-17678674D02*
X2780015Y-17697722D01*
X2780015Y-17697722D02*
X2780015Y-17802484D01*
X3170491Y-17592960D02*
X2999063Y-17850103D01*
X3427634Y-17602484D02*
X3446682Y-17602484D01*
X3446682Y-17602484D02*
X3465729Y-17612008D01*
X3465729Y-17612008D02*
X3475253Y-17621531D01*
X3475253Y-17621531D02*
X3484777Y-17640579D01*
X3484777Y-17640579D02*
X3494301Y-17678674D01*
X3494301Y-17678674D02*
X3494301Y-17726293D01*
X3494301Y-17726293D02*
X3484777Y-17764389D01*
X3484777Y-17764389D02*
X3475253Y-17783436D01*
X3475253Y-17783436D02*
X3465729Y-17792960D01*
X3465729Y-17792960D02*
X3446682Y-17802484D01*
X3446682Y-17802484D02*
X3427634Y-17802484D01*
X3427634Y-17802484D02*
X3408586Y-17792960D01*
X3408586Y-17792960D02*
X3399063Y-17783436D01*
X3399063Y-17783436D02*
X3389539Y-17764389D01*
X3389539Y-17764389D02*
X3380015Y-17726293D01*
X3380015Y-17726293D02*
X3380015Y-17678674D01*
X3380015Y-17678674D02*
X3389539Y-17640579D01*
X3389539Y-17640579D02*
X3399063Y-17621531D01*
X3399063Y-17621531D02*
X3408586Y-17612008D01*
X3408586Y-17612008D02*
X3427634Y-17602484D01*
X3580015Y-17783436D02*
X3589539Y-17792960D01*
X3589539Y-17792960D02*
X3580015Y-17802484D01*
X3580015Y-17802484D02*
X3570491Y-17792960D01*
X3570491Y-17792960D02*
X3580015Y-17783436D01*
X3580015Y-17783436D02*
X3580015Y-17802484D01*
X3713348Y-17602484D02*
X3732396Y-17602484D01*
X3732396Y-17602484D02*
X3751444Y-17612008D01*
X3751444Y-17612008D02*
X3760967Y-17621531D01*
X3760967Y-17621531D02*
X3770491Y-17640579D01*
X3770491Y-17640579D02*
X3780015Y-17678674D01*
X3780015Y-17678674D02*
X3780015Y-17726293D01*
X3780015Y-17726293D02*
X3770491Y-17764389D01*
X3770491Y-17764389D02*
X3760967Y-17783436D01*
X3760967Y-17783436D02*
X3751444Y-17792960D01*
X3751444Y-17792960D02*
X3732396Y-17802484D01*
X3732396Y-17802484D02*
X3713348Y-17802484D01*
X3713348Y-17802484D02*
X3694301Y-17792960D01*
X3694301Y-17792960D02*
X3684777Y-17783436D01*
X3684777Y-17783436D02*
X3675253Y-17764389D01*
X3675253Y-17764389D02*
X3665729Y-17726293D01*
X3665729Y-17726293D02*
X3665729Y-17678674D01*
X3665729Y-17678674D02*
X3675253Y-17640579D01*
X3675253Y-17640579D02*
X3684777Y-17621531D01*
X3684777Y-17621531D02*
X3694301Y-17612008D01*
X3694301Y-17612008D02*
X3713348Y-17602484D01*
X3951444Y-17669150D02*
X3951444Y-17802484D01*
X3903825Y-17592960D02*
X3856206Y-17735817D01*
X3856206Y-17735817D02*
X3980015Y-17735817D01*
X4037158Y-17602484D02*
X4160967Y-17602484D01*
X4160967Y-17602484D02*
X4094301Y-17678674D01*
X4094301Y-17678674D02*
X4122872Y-17678674D01*
X4122872Y-17678674D02*
X4141920Y-17688198D01*
X4141920Y-17688198D02*
X4151444Y-17697722D01*
X4151444Y-17697722D02*
X4160967Y-17716770D01*
X4160967Y-17716770D02*
X4160967Y-17764389D01*
X4160967Y-17764389D02*
X4151444Y-17783436D01*
X4151444Y-17783436D02*
X4141920Y-17792960D01*
X4141920Y-17792960D02*
X4122872Y-17802484D01*
X4122872Y-17802484D02*
X4065729Y-17802484D01*
X4065729Y-17802484D02*
X4046682Y-17792960D01*
X4046682Y-17792960D02*
X4037158Y-17783436D01*
X4227634Y-17602484D02*
X4351444Y-17602484D01*
X4351444Y-17602484D02*
X4284777Y-17678674D01*
X4284777Y-17678674D02*
X4313349Y-17678674D01*
X4313349Y-17678674D02*
X4332396Y-17688198D01*
X4332396Y-17688198D02*
X4341920Y-17697722D01*
X4341920Y-17697722D02*
X4351444Y-17716770D01*
X4351444Y-17716770D02*
X4351444Y-17764389D01*
X4351444Y-17764389D02*
X4341920Y-17783436D01*
X4341920Y-17783436D02*
X4332396Y-17792960D01*
X4332396Y-17792960D02*
X4313349Y-17802484D01*
X4313349Y-17802484D02*
X4256206Y-17802484D01*
X4256206Y-17802484D02*
X4237158Y-17792960D01*
X4237158Y-17792960D02*
X4227634Y-17783436D01*
X4427634Y-17602484D02*
X4427634Y-17640579D01*
X4503825Y-17602484D02*
X4503825Y-17640579D01*
X4799063Y-17878674D02*
X4789539Y-17869150D01*
X4789539Y-17869150D02*
X4770491Y-17840579D01*
X4770491Y-17840579D02*
X4760968Y-17821531D01*
X4760968Y-17821531D02*
X4751444Y-17792960D01*
X4751444Y-17792960D02*
X4741920Y-17745341D01*
X4741920Y-17745341D02*
X4741920Y-17707246D01*
X4741920Y-17707246D02*
X4751444Y-17659627D01*
X4751444Y-17659627D02*
X4760968Y-17631055D01*
X4760968Y-17631055D02*
X4770491Y-17612008D01*
X4770491Y-17612008D02*
X4789539Y-17583436D01*
X4789539Y-17583436D02*
X4799063Y-17573912D01*
X4980015Y-17802484D02*
X4865730Y-17802484D01*
X4922872Y-17802484D02*
X4922872Y-17602484D01*
X4922872Y-17602484D02*
X4903825Y-17631055D01*
X4903825Y-17631055D02*
X4884777Y-17650103D01*
X4884777Y-17650103D02*
X4865730Y-17659627D01*
X5075253Y-17802484D02*
X5113349Y-17802484D01*
X5113349Y-17802484D02*
X5132396Y-17792960D01*
X5132396Y-17792960D02*
X5141920Y-17783436D01*
X5141920Y-17783436D02*
X5160968Y-17754865D01*
X5160968Y-17754865D02*
X5170491Y-17716770D01*
X5170491Y-17716770D02*
X5170491Y-17640579D01*
X5170491Y-17640579D02*
X5160968Y-17621531D01*
X5160968Y-17621531D02*
X5151444Y-17612008D01*
X5151444Y-17612008D02*
X5132396Y-17602484D01*
X5132396Y-17602484D02*
X5094301Y-17602484D01*
X5094301Y-17602484D02*
X5075253Y-17612008D01*
X5075253Y-17612008D02*
X5065730Y-17621531D01*
X5065730Y-17621531D02*
X5056206Y-17640579D01*
X5056206Y-17640579D02*
X5056206Y-17688198D01*
X5056206Y-17688198D02*
X5065730Y-17707246D01*
X5065730Y-17707246D02*
X5075253Y-17716770D01*
X5075253Y-17716770D02*
X5094301Y-17726293D01*
X5094301Y-17726293D02*
X5132396Y-17726293D01*
X5132396Y-17726293D02*
X5151444Y-17716770D01*
X5151444Y-17716770D02*
X5160968Y-17707246D01*
X5160968Y-17707246D02*
X5170491Y-17688198D01*
X5408587Y-17802484D02*
X5408587Y-17602484D01*
X5494301Y-17802484D02*
X5494301Y-17697722D01*
X5494301Y-17697722D02*
X5484777Y-17678674D01*
X5484777Y-17678674D02*
X5465730Y-17669150D01*
X5465730Y-17669150D02*
X5437158Y-17669150D01*
X5437158Y-17669150D02*
X5418111Y-17678674D01*
X5418111Y-17678674D02*
X5408587Y-17688198D01*
X5618110Y-17802484D02*
X5599063Y-17792960D01*
X5599063Y-17792960D02*
X5589539Y-17783436D01*
X5589539Y-17783436D02*
X5580015Y-17764389D01*
X5580015Y-17764389D02*
X5580015Y-17707246D01*
X5580015Y-17707246D02*
X5589539Y-17688198D01*
X5589539Y-17688198D02*
X5599063Y-17678674D01*
X5599063Y-17678674D02*
X5618110Y-17669150D01*
X5618110Y-17669150D02*
X5646682Y-17669150D01*
X5646682Y-17669150D02*
X5665730Y-17678674D01*
X5665730Y-17678674D02*
X5675253Y-17688198D01*
X5675253Y-17688198D02*
X5684777Y-17707246D01*
X5684777Y-17707246D02*
X5684777Y-17764389D01*
X5684777Y-17764389D02*
X5675253Y-17783436D01*
X5675253Y-17783436D02*
X5665730Y-17792960D01*
X5665730Y-17792960D02*
X5646682Y-17802484D01*
X5646682Y-17802484D02*
X5618110Y-17802484D01*
X5799063Y-17802484D02*
X5780015Y-17792960D01*
X5780015Y-17792960D02*
X5770491Y-17773912D01*
X5770491Y-17773912D02*
X5770491Y-17602484D01*
X5951444Y-17792960D02*
X5932396Y-17802484D01*
X5932396Y-17802484D02*
X5894301Y-17802484D01*
X5894301Y-17802484D02*
X5875253Y-17792960D01*
X5875253Y-17792960D02*
X5865730Y-17773912D01*
X5865730Y-17773912D02*
X5865730Y-17697722D01*
X5865730Y-17697722D02*
X5875253Y-17678674D01*
X5875253Y-17678674D02*
X5894301Y-17669150D01*
X5894301Y-17669150D02*
X5932396Y-17669150D01*
X5932396Y-17669150D02*
X5951444Y-17678674D01*
X5951444Y-17678674D02*
X5960968Y-17697722D01*
X5960968Y-17697722D02*
X5960968Y-17716770D01*
X5960968Y-17716770D02*
X5865730Y-17735817D01*
X6037158Y-17792960D02*
X6056206Y-17802484D01*
X6056206Y-17802484D02*
X6094301Y-17802484D01*
X6094301Y-17802484D02*
X6113349Y-17792960D01*
X6113349Y-17792960D02*
X6122872Y-17773912D01*
X6122872Y-17773912D02*
X6122872Y-17764389D01*
X6122872Y-17764389D02*
X6113349Y-17745341D01*
X6113349Y-17745341D02*
X6094301Y-17735817D01*
X6094301Y-17735817D02*
X6065730Y-17735817D01*
X6065730Y-17735817D02*
X6046682Y-17726293D01*
X6046682Y-17726293D02*
X6037158Y-17707246D01*
X6037158Y-17707246D02*
X6037158Y-17697722D01*
X6037158Y-17697722D02*
X6046682Y-17678674D01*
X6046682Y-17678674D02*
X6065730Y-17669150D01*
X6065730Y-17669150D02*
X6094301Y-17669150D01*
X6094301Y-17669150D02*
X6113349Y-17678674D01*
X6189539Y-17878674D02*
X6199063Y-17869150D01*
X6199063Y-17869150D02*
X6218111Y-17840579D01*
X6218111Y-17840579D02*
X6227634Y-17821531D01*
X6227634Y-17821531D02*
X6237158Y-17792960D01*
X6237158Y-17792960D02*
X6246682Y-17745341D01*
X6246682Y-17745341D02*
X6246682Y-17707246D01*
X6246682Y-17707246D02*
X6237158Y-17659627D01*
X6237158Y-17659627D02*
X6227634Y-17631055D01*
X6227634Y-17631055D02*
X6218111Y-17612008D01*
X6218111Y-17612008D02*
X6199063Y-17583436D01*
X6199063Y-17583436D02*
X6189539Y-17573912D01*
D13*
X1164000Y-18035000D02*
X1224000Y-17975000D01*
X1164000Y-17915000D01*
X1104000Y-17975000D01*
X1164000Y-18035000D01*
D11*
X1589539Y-18066484D02*
X1475253Y-18066484D01*
X1532396Y-18066484D02*
X1532396Y-17866484D01*
X1532396Y-17866484D02*
X1513348Y-17895055D01*
X1513348Y-17895055D02*
X1494301Y-17914103D01*
X1494301Y-17914103D02*
X1475253Y-17923627D01*
X1675253Y-18047436D02*
X1684777Y-18056960D01*
X1684777Y-18056960D02*
X1675253Y-18066484D01*
X1675253Y-18066484D02*
X1665729Y-18056960D01*
X1665729Y-18056960D02*
X1675253Y-18047436D01*
X1675253Y-18047436D02*
X1675253Y-18066484D01*
X1760967Y-17885531D02*
X1770491Y-17876008D01*
X1770491Y-17876008D02*
X1789539Y-17866484D01*
X1789539Y-17866484D02*
X1837158Y-17866484D01*
X1837158Y-17866484D02*
X1856205Y-17876008D01*
X1856205Y-17876008D02*
X1865729Y-17885531D01*
X1865729Y-17885531D02*
X1875253Y-17904579D01*
X1875253Y-17904579D02*
X1875253Y-17923627D01*
X1875253Y-17923627D02*
X1865729Y-17952198D01*
X1865729Y-17952198D02*
X1751443Y-18066484D01*
X1751443Y-18066484D02*
X1875253Y-18066484D01*
X1999062Y-17866484D02*
X2018110Y-17866484D01*
X2018110Y-17866484D02*
X2037158Y-17876008D01*
X2037158Y-17876008D02*
X2046682Y-17885531D01*
X2046682Y-17885531D02*
X2056205Y-17904579D01*
X2056205Y-17904579D02*
X2065729Y-17942674D01*
X2065729Y-17942674D02*
X2065729Y-17990293D01*
X2065729Y-17990293D02*
X2056205Y-18028389D01*
X2056205Y-18028389D02*
X2046682Y-18047436D01*
X2046682Y-18047436D02*
X2037158Y-18056960D01*
X2037158Y-18056960D02*
X2018110Y-18066484D01*
X2018110Y-18066484D02*
X1999062Y-18066484D01*
X1999062Y-18066484D02*
X1980015Y-18056960D01*
X1980015Y-18056960D02*
X1970491Y-18047436D01*
X1970491Y-18047436D02*
X1960967Y-18028389D01*
X1960967Y-18028389D02*
X1951443Y-17990293D01*
X1951443Y-17990293D02*
X1951443Y-17942674D01*
X1951443Y-17942674D02*
X1960967Y-17904579D01*
X1960967Y-17904579D02*
X1970491Y-17885531D01*
X1970491Y-17885531D02*
X1980015Y-17876008D01*
X1980015Y-17876008D02*
X1999062Y-17866484D01*
X2189539Y-17866484D02*
X2208586Y-17866484D01*
X2208586Y-17866484D02*
X2227634Y-17876008D01*
X2227634Y-17876008D02*
X2237158Y-17885531D01*
X2237158Y-17885531D02*
X2246682Y-17904579D01*
X2246682Y-17904579D02*
X2256205Y-17942674D01*
X2256205Y-17942674D02*
X2256205Y-17990293D01*
X2256205Y-17990293D02*
X2246682Y-18028389D01*
X2246682Y-18028389D02*
X2237158Y-18047436D01*
X2237158Y-18047436D02*
X2227634Y-18056960D01*
X2227634Y-18056960D02*
X2208586Y-18066484D01*
X2208586Y-18066484D02*
X2189539Y-18066484D01*
X2189539Y-18066484D02*
X2170491Y-18056960D01*
X2170491Y-18056960D02*
X2160967Y-18047436D01*
X2160967Y-18047436D02*
X2151444Y-18028389D01*
X2151444Y-18028389D02*
X2141920Y-17990293D01*
X2141920Y-17990293D02*
X2141920Y-17942674D01*
X2141920Y-17942674D02*
X2151444Y-17904579D01*
X2151444Y-17904579D02*
X2160967Y-17885531D01*
X2160967Y-17885531D02*
X2170491Y-17876008D01*
X2170491Y-17876008D02*
X2189539Y-17866484D01*
X2341920Y-18066484D02*
X2341920Y-17933150D01*
X2341920Y-17952198D02*
X2351444Y-17942674D01*
X2351444Y-17942674D02*
X2370491Y-17933150D01*
X2370491Y-17933150D02*
X2399063Y-17933150D01*
X2399063Y-17933150D02*
X2418110Y-17942674D01*
X2418110Y-17942674D02*
X2427634Y-17961722D01*
X2427634Y-17961722D02*
X2427634Y-18066484D01*
X2427634Y-17961722D02*
X2437158Y-17942674D01*
X2437158Y-17942674D02*
X2456205Y-17933150D01*
X2456205Y-17933150D02*
X2484777Y-17933150D01*
X2484777Y-17933150D02*
X2503825Y-17942674D01*
X2503825Y-17942674D02*
X2513348Y-17961722D01*
X2513348Y-17961722D02*
X2513348Y-18066484D01*
X2608586Y-18066484D02*
X2608586Y-17933150D01*
X2608586Y-17952198D02*
X2618110Y-17942674D01*
X2618110Y-17942674D02*
X2637158Y-17933150D01*
X2637158Y-17933150D02*
X2665729Y-17933150D01*
X2665729Y-17933150D02*
X2684777Y-17942674D01*
X2684777Y-17942674D02*
X2694301Y-17961722D01*
X2694301Y-17961722D02*
X2694301Y-18066484D01*
X2694301Y-17961722D02*
X2703825Y-17942674D01*
X2703825Y-17942674D02*
X2722872Y-17933150D01*
X2722872Y-17933150D02*
X2751444Y-17933150D01*
X2751444Y-17933150D02*
X2770491Y-17942674D01*
X2770491Y-17942674D02*
X2780015Y-17961722D01*
X2780015Y-17961722D02*
X2780015Y-18066484D01*
X3170491Y-17856960D02*
X2999063Y-18114103D01*
X3427634Y-17866484D02*
X3446682Y-17866484D01*
X3446682Y-17866484D02*
X3465729Y-17876008D01*
X3465729Y-17876008D02*
X3475253Y-17885531D01*
X3475253Y-17885531D02*
X3484777Y-17904579D01*
X3484777Y-17904579D02*
X3494301Y-17942674D01*
X3494301Y-17942674D02*
X3494301Y-17990293D01*
X3494301Y-17990293D02*
X3484777Y-18028389D01*
X3484777Y-18028389D02*
X3475253Y-18047436D01*
X3475253Y-18047436D02*
X3465729Y-18056960D01*
X3465729Y-18056960D02*
X3446682Y-18066484D01*
X3446682Y-18066484D02*
X3427634Y-18066484D01*
X3427634Y-18066484D02*
X3408586Y-18056960D01*
X3408586Y-18056960D02*
X3399063Y-18047436D01*
X3399063Y-18047436D02*
X3389539Y-18028389D01*
X3389539Y-18028389D02*
X3380015Y-17990293D01*
X3380015Y-17990293D02*
X3380015Y-17942674D01*
X3380015Y-17942674D02*
X3389539Y-17904579D01*
X3389539Y-17904579D02*
X3399063Y-17885531D01*
X3399063Y-17885531D02*
X3408586Y-17876008D01*
X3408586Y-17876008D02*
X3427634Y-17866484D01*
X3580015Y-18047436D02*
X3589539Y-18056960D01*
X3589539Y-18056960D02*
X3580015Y-18066484D01*
X3580015Y-18066484D02*
X3570491Y-18056960D01*
X3570491Y-18056960D02*
X3580015Y-18047436D01*
X3580015Y-18047436D02*
X3580015Y-18066484D01*
X3713348Y-17866484D02*
X3732396Y-17866484D01*
X3732396Y-17866484D02*
X3751444Y-17876008D01*
X3751444Y-17876008D02*
X3760967Y-17885531D01*
X3760967Y-17885531D02*
X3770491Y-17904579D01*
X3770491Y-17904579D02*
X3780015Y-17942674D01*
X3780015Y-17942674D02*
X3780015Y-17990293D01*
X3780015Y-17990293D02*
X3770491Y-18028389D01*
X3770491Y-18028389D02*
X3760967Y-18047436D01*
X3760967Y-18047436D02*
X3751444Y-18056960D01*
X3751444Y-18056960D02*
X3732396Y-18066484D01*
X3732396Y-18066484D02*
X3713348Y-18066484D01*
X3713348Y-18066484D02*
X3694301Y-18056960D01*
X3694301Y-18056960D02*
X3684777Y-18047436D01*
X3684777Y-18047436D02*
X3675253Y-18028389D01*
X3675253Y-18028389D02*
X3665729Y-17990293D01*
X3665729Y-17990293D02*
X3665729Y-17942674D01*
X3665729Y-17942674D02*
X3675253Y-17904579D01*
X3675253Y-17904579D02*
X3684777Y-17885531D01*
X3684777Y-17885531D02*
X3694301Y-17876008D01*
X3694301Y-17876008D02*
X3713348Y-17866484D01*
X3951444Y-17933150D02*
X3951444Y-18066484D01*
X3903825Y-17856960D02*
X3856206Y-17999817D01*
X3856206Y-17999817D02*
X3980015Y-17999817D01*
X4037158Y-17866484D02*
X4170491Y-17866484D01*
X4170491Y-17866484D02*
X4084777Y-18066484D01*
X4237158Y-17885531D02*
X4246682Y-17876008D01*
X4246682Y-17876008D02*
X4265729Y-17866484D01*
X4265729Y-17866484D02*
X4313349Y-17866484D01*
X4313349Y-17866484D02*
X4332396Y-17876008D01*
X4332396Y-17876008D02*
X4341920Y-17885531D01*
X4341920Y-17885531D02*
X4351444Y-17904579D01*
X4351444Y-17904579D02*
X4351444Y-17923627D01*
X4351444Y-17923627D02*
X4341920Y-17952198D01*
X4341920Y-17952198D02*
X4227634Y-18066484D01*
X4227634Y-18066484D02*
X4351444Y-18066484D01*
X4427634Y-17866484D02*
X4427634Y-17904579D01*
X4503825Y-17866484D02*
X4503825Y-17904579D01*
X4799063Y-18142674D02*
X4789539Y-18133150D01*
X4789539Y-18133150D02*
X4770491Y-18104579D01*
X4770491Y-18104579D02*
X4760968Y-18085531D01*
X4760968Y-18085531D02*
X4751444Y-18056960D01*
X4751444Y-18056960D02*
X4741920Y-18009341D01*
X4741920Y-18009341D02*
X4741920Y-17971246D01*
X4741920Y-17971246D02*
X4751444Y-17923627D01*
X4751444Y-17923627D02*
X4760968Y-17895055D01*
X4760968Y-17895055D02*
X4770491Y-17876008D01*
X4770491Y-17876008D02*
X4789539Y-17847436D01*
X4789539Y-17847436D02*
X4799063Y-17837912D01*
X4865730Y-17885531D02*
X4875253Y-17876008D01*
X4875253Y-17876008D02*
X4894301Y-17866484D01*
X4894301Y-17866484D02*
X4941920Y-17866484D01*
X4941920Y-17866484D02*
X4960968Y-17876008D01*
X4960968Y-17876008D02*
X4970491Y-17885531D01*
X4970491Y-17885531D02*
X4980015Y-17904579D01*
X4980015Y-17904579D02*
X4980015Y-17923627D01*
X4980015Y-17923627D02*
X4970491Y-17952198D01*
X4970491Y-17952198D02*
X4856206Y-18066484D01*
X4856206Y-18066484D02*
X4980015Y-18066484D01*
X5151444Y-17933150D02*
X5151444Y-18066484D01*
X5103825Y-17856960D02*
X5056206Y-17999817D01*
X5056206Y-17999817D02*
X5180015Y-17999817D01*
X5408587Y-18066484D02*
X5408587Y-17866484D01*
X5494301Y-18066484D02*
X5494301Y-17961722D01*
X5494301Y-17961722D02*
X5484777Y-17942674D01*
X5484777Y-17942674D02*
X5465730Y-17933150D01*
X5465730Y-17933150D02*
X5437158Y-17933150D01*
X5437158Y-17933150D02*
X5418111Y-17942674D01*
X5418111Y-17942674D02*
X5408587Y-17952198D01*
X5618110Y-18066484D02*
X5599063Y-18056960D01*
X5599063Y-18056960D02*
X5589539Y-18047436D01*
X5589539Y-18047436D02*
X5580015Y-18028389D01*
X5580015Y-18028389D02*
X5580015Y-17971246D01*
X5580015Y-17971246D02*
X5589539Y-17952198D01*
X5589539Y-17952198D02*
X5599063Y-17942674D01*
X5599063Y-17942674D02*
X5618110Y-17933150D01*
X5618110Y-17933150D02*
X5646682Y-17933150D01*
X5646682Y-17933150D02*
X5665730Y-17942674D01*
X5665730Y-17942674D02*
X5675253Y-17952198D01*
X5675253Y-17952198D02*
X5684777Y-17971246D01*
X5684777Y-17971246D02*
X5684777Y-18028389D01*
X5684777Y-18028389D02*
X5675253Y-18047436D01*
X5675253Y-18047436D02*
X5665730Y-18056960D01*
X5665730Y-18056960D02*
X5646682Y-18066484D01*
X5646682Y-18066484D02*
X5618110Y-18066484D01*
X5799063Y-18066484D02*
X5780015Y-18056960D01*
X5780015Y-18056960D02*
X5770491Y-18037912D01*
X5770491Y-18037912D02*
X5770491Y-17866484D01*
X5951444Y-18056960D02*
X5932396Y-18066484D01*
X5932396Y-18066484D02*
X5894301Y-18066484D01*
X5894301Y-18066484D02*
X5875253Y-18056960D01*
X5875253Y-18056960D02*
X5865730Y-18037912D01*
X5865730Y-18037912D02*
X5865730Y-17961722D01*
X5865730Y-17961722D02*
X5875253Y-17942674D01*
X5875253Y-17942674D02*
X5894301Y-17933150D01*
X5894301Y-17933150D02*
X5932396Y-17933150D01*
X5932396Y-17933150D02*
X5951444Y-17942674D01*
X5951444Y-17942674D02*
X5960968Y-17961722D01*
X5960968Y-17961722D02*
X5960968Y-17980770D01*
X5960968Y-17980770D02*
X5865730Y-17999817D01*
X6037158Y-18056960D02*
X6056206Y-18066484D01*
X6056206Y-18066484D02*
X6094301Y-18066484D01*
X6094301Y-18066484D02*
X6113349Y-18056960D01*
X6113349Y-18056960D02*
X6122872Y-18037912D01*
X6122872Y-18037912D02*
X6122872Y-18028389D01*
X6122872Y-18028389D02*
X6113349Y-18009341D01*
X6113349Y-18009341D02*
X6094301Y-17999817D01*
X6094301Y-17999817D02*
X6065730Y-17999817D01*
X6065730Y-17999817D02*
X6046682Y-17990293D01*
X6046682Y-17990293D02*
X6037158Y-17971246D01*
X6037158Y-17971246D02*
X6037158Y-17961722D01*
X6037158Y-17961722D02*
X6046682Y-17942674D01*
X6046682Y-17942674D02*
X6065730Y-17933150D01*
X6065730Y-17933150D02*
X6094301Y-17933150D01*
X6094301Y-17933150D02*
X6113349Y-17942674D01*
X6189539Y-18142674D02*
X6199063Y-18133150D01*
X6199063Y-18133150D02*
X6218111Y-18104579D01*
X6218111Y-18104579D02*
X6227634Y-18085531D01*
X6227634Y-18085531D02*
X6237158Y-18056960D01*
X6237158Y-18056960D02*
X6246682Y-18009341D01*
X6246682Y-18009341D02*
X6246682Y-17971246D01*
X6246682Y-17971246D02*
X6237158Y-17923627D01*
X6237158Y-17923627D02*
X6227634Y-17895055D01*
X6227634Y-17895055D02*
X6218111Y-17876008D01*
X6218111Y-17876008D02*
X6199063Y-17847436D01*
X6199063Y-17847436D02*
X6189539Y-17837912D01*
D14*
X1074000Y-18164000D02*
X1224000Y-18314000D01*
X1224000Y-18164000D02*
X1074000Y-18314000D01*
X1224000Y-18239000D02*
G75*
G02*
X1074000Y-18239000I-75000J0D01*
G01*
X1074000Y-18239000D02*
G75*
G02*
X1224000Y-18239000I75000J0D01*
G01*
D11*
X1589539Y-18330484D02*
X1475253Y-18330484D01*
X1532396Y-18330484D02*
X1532396Y-18130484D01*
X1532396Y-18130484D02*
X1513348Y-18159055D01*
X1513348Y-18159055D02*
X1494301Y-18178103D01*
X1494301Y-18178103D02*
X1475253Y-18187627D01*
X1675253Y-18311436D02*
X1684777Y-18320960D01*
X1684777Y-18320960D02*
X1675253Y-18330484D01*
X1675253Y-18330484D02*
X1665729Y-18320960D01*
X1665729Y-18320960D02*
X1675253Y-18311436D01*
X1675253Y-18311436D02*
X1675253Y-18330484D01*
X1865729Y-18130484D02*
X1770491Y-18130484D01*
X1770491Y-18130484D02*
X1760967Y-18225722D01*
X1760967Y-18225722D02*
X1770491Y-18216198D01*
X1770491Y-18216198D02*
X1789539Y-18206674D01*
X1789539Y-18206674D02*
X1837158Y-18206674D01*
X1837158Y-18206674D02*
X1856205Y-18216198D01*
X1856205Y-18216198D02*
X1865729Y-18225722D01*
X1865729Y-18225722D02*
X1875253Y-18244770D01*
X1875253Y-18244770D02*
X1875253Y-18292389D01*
X1875253Y-18292389D02*
X1865729Y-18311436D01*
X1865729Y-18311436D02*
X1856205Y-18320960D01*
X1856205Y-18320960D02*
X1837158Y-18330484D01*
X1837158Y-18330484D02*
X1789539Y-18330484D01*
X1789539Y-18330484D02*
X1770491Y-18320960D01*
X1770491Y-18320960D02*
X1760967Y-18311436D01*
X1999062Y-18130484D02*
X2018110Y-18130484D01*
X2018110Y-18130484D02*
X2037158Y-18140008D01*
X2037158Y-18140008D02*
X2046682Y-18149531D01*
X2046682Y-18149531D02*
X2056205Y-18168579D01*
X2056205Y-18168579D02*
X2065729Y-18206674D01*
X2065729Y-18206674D02*
X2065729Y-18254293D01*
X2065729Y-18254293D02*
X2056205Y-18292389D01*
X2056205Y-18292389D02*
X2046682Y-18311436D01*
X2046682Y-18311436D02*
X2037158Y-18320960D01*
X2037158Y-18320960D02*
X2018110Y-18330484D01*
X2018110Y-18330484D02*
X1999062Y-18330484D01*
X1999062Y-18330484D02*
X1980015Y-18320960D01*
X1980015Y-18320960D02*
X1970491Y-18311436D01*
X1970491Y-18311436D02*
X1960967Y-18292389D01*
X1960967Y-18292389D02*
X1951443Y-18254293D01*
X1951443Y-18254293D02*
X1951443Y-18206674D01*
X1951443Y-18206674D02*
X1960967Y-18168579D01*
X1960967Y-18168579D02*
X1970491Y-18149531D01*
X1970491Y-18149531D02*
X1980015Y-18140008D01*
X1980015Y-18140008D02*
X1999062Y-18130484D01*
X2189539Y-18130484D02*
X2208586Y-18130484D01*
X2208586Y-18130484D02*
X2227634Y-18140008D01*
X2227634Y-18140008D02*
X2237158Y-18149531D01*
X2237158Y-18149531D02*
X2246682Y-18168579D01*
X2246682Y-18168579D02*
X2256205Y-18206674D01*
X2256205Y-18206674D02*
X2256205Y-18254293D01*
X2256205Y-18254293D02*
X2246682Y-18292389D01*
X2246682Y-18292389D02*
X2237158Y-18311436D01*
X2237158Y-18311436D02*
X2227634Y-18320960D01*
X2227634Y-18320960D02*
X2208586Y-18330484D01*
X2208586Y-18330484D02*
X2189539Y-18330484D01*
X2189539Y-18330484D02*
X2170491Y-18320960D01*
X2170491Y-18320960D02*
X2160967Y-18311436D01*
X2160967Y-18311436D02*
X2151444Y-18292389D01*
X2151444Y-18292389D02*
X2141920Y-18254293D01*
X2141920Y-18254293D02*
X2141920Y-18206674D01*
X2141920Y-18206674D02*
X2151444Y-18168579D01*
X2151444Y-18168579D02*
X2160967Y-18149531D01*
X2160967Y-18149531D02*
X2170491Y-18140008D01*
X2170491Y-18140008D02*
X2189539Y-18130484D01*
X2341920Y-18330484D02*
X2341920Y-18197150D01*
X2341920Y-18216198D02*
X2351444Y-18206674D01*
X2351444Y-18206674D02*
X2370491Y-18197150D01*
X2370491Y-18197150D02*
X2399063Y-18197150D01*
X2399063Y-18197150D02*
X2418110Y-18206674D01*
X2418110Y-18206674D02*
X2427634Y-18225722D01*
X2427634Y-18225722D02*
X2427634Y-18330484D01*
X2427634Y-18225722D02*
X2437158Y-18206674D01*
X2437158Y-18206674D02*
X2456205Y-18197150D01*
X2456205Y-18197150D02*
X2484777Y-18197150D01*
X2484777Y-18197150D02*
X2503825Y-18206674D01*
X2503825Y-18206674D02*
X2513348Y-18225722D01*
X2513348Y-18225722D02*
X2513348Y-18330484D01*
X2608586Y-18330484D02*
X2608586Y-18197150D01*
X2608586Y-18216198D02*
X2618110Y-18206674D01*
X2618110Y-18206674D02*
X2637158Y-18197150D01*
X2637158Y-18197150D02*
X2665729Y-18197150D01*
X2665729Y-18197150D02*
X2684777Y-18206674D01*
X2684777Y-18206674D02*
X2694301Y-18225722D01*
X2694301Y-18225722D02*
X2694301Y-18330484D01*
X2694301Y-18225722D02*
X2703825Y-18206674D01*
X2703825Y-18206674D02*
X2722872Y-18197150D01*
X2722872Y-18197150D02*
X2751444Y-18197150D01*
X2751444Y-18197150D02*
X2770491Y-18206674D01*
X2770491Y-18206674D02*
X2780015Y-18225722D01*
X2780015Y-18225722D02*
X2780015Y-18330484D01*
X3170491Y-18120960D02*
X2999063Y-18378103D01*
X3427634Y-18130484D02*
X3446682Y-18130484D01*
X3446682Y-18130484D02*
X3465729Y-18140008D01*
X3465729Y-18140008D02*
X3475253Y-18149531D01*
X3475253Y-18149531D02*
X3484777Y-18168579D01*
X3484777Y-18168579D02*
X3494301Y-18206674D01*
X3494301Y-18206674D02*
X3494301Y-18254293D01*
X3494301Y-18254293D02*
X3484777Y-18292389D01*
X3484777Y-18292389D02*
X3475253Y-18311436D01*
X3475253Y-18311436D02*
X3465729Y-18320960D01*
X3465729Y-18320960D02*
X3446682Y-18330484D01*
X3446682Y-18330484D02*
X3427634Y-18330484D01*
X3427634Y-18330484D02*
X3408586Y-18320960D01*
X3408586Y-18320960D02*
X3399063Y-18311436D01*
X3399063Y-18311436D02*
X3389539Y-18292389D01*
X3389539Y-18292389D02*
X3380015Y-18254293D01*
X3380015Y-18254293D02*
X3380015Y-18206674D01*
X3380015Y-18206674D02*
X3389539Y-18168579D01*
X3389539Y-18168579D02*
X3399063Y-18149531D01*
X3399063Y-18149531D02*
X3408586Y-18140008D01*
X3408586Y-18140008D02*
X3427634Y-18130484D01*
X3580015Y-18311436D02*
X3589539Y-18320960D01*
X3589539Y-18320960D02*
X3580015Y-18330484D01*
X3580015Y-18330484D02*
X3570491Y-18320960D01*
X3570491Y-18320960D02*
X3580015Y-18311436D01*
X3580015Y-18311436D02*
X3580015Y-18330484D01*
X3713348Y-18130484D02*
X3732396Y-18130484D01*
X3732396Y-18130484D02*
X3751444Y-18140008D01*
X3751444Y-18140008D02*
X3760967Y-18149531D01*
X3760967Y-18149531D02*
X3770491Y-18168579D01*
X3770491Y-18168579D02*
X3780015Y-18206674D01*
X3780015Y-18206674D02*
X3780015Y-18254293D01*
X3780015Y-18254293D02*
X3770491Y-18292389D01*
X3770491Y-18292389D02*
X3760967Y-18311436D01*
X3760967Y-18311436D02*
X3751444Y-18320960D01*
X3751444Y-18320960D02*
X3732396Y-18330484D01*
X3732396Y-18330484D02*
X3713348Y-18330484D01*
X3713348Y-18330484D02*
X3694301Y-18320960D01*
X3694301Y-18320960D02*
X3684777Y-18311436D01*
X3684777Y-18311436D02*
X3675253Y-18292389D01*
X3675253Y-18292389D02*
X3665729Y-18254293D01*
X3665729Y-18254293D02*
X3665729Y-18206674D01*
X3665729Y-18206674D02*
X3675253Y-18168579D01*
X3675253Y-18168579D02*
X3684777Y-18149531D01*
X3684777Y-18149531D02*
X3694301Y-18140008D01*
X3694301Y-18140008D02*
X3713348Y-18130484D01*
X3960967Y-18130484D02*
X3865729Y-18130484D01*
X3865729Y-18130484D02*
X3856206Y-18225722D01*
X3856206Y-18225722D02*
X3865729Y-18216198D01*
X3865729Y-18216198D02*
X3884777Y-18206674D01*
X3884777Y-18206674D02*
X3932396Y-18206674D01*
X3932396Y-18206674D02*
X3951444Y-18216198D01*
X3951444Y-18216198D02*
X3960967Y-18225722D01*
X3960967Y-18225722D02*
X3970491Y-18244770D01*
X3970491Y-18244770D02*
X3970491Y-18292389D01*
X3970491Y-18292389D02*
X3960967Y-18311436D01*
X3960967Y-18311436D02*
X3951444Y-18320960D01*
X3951444Y-18320960D02*
X3932396Y-18330484D01*
X3932396Y-18330484D02*
X3884777Y-18330484D01*
X3884777Y-18330484D02*
X3865729Y-18320960D01*
X3865729Y-18320960D02*
X3856206Y-18311436D01*
X4065729Y-18330484D02*
X4103825Y-18330484D01*
X4103825Y-18330484D02*
X4122872Y-18320960D01*
X4122872Y-18320960D02*
X4132396Y-18311436D01*
X4132396Y-18311436D02*
X4151444Y-18282865D01*
X4151444Y-18282865D02*
X4160967Y-18244770D01*
X4160967Y-18244770D02*
X4160967Y-18168579D01*
X4160967Y-18168579D02*
X4151444Y-18149531D01*
X4151444Y-18149531D02*
X4141920Y-18140008D01*
X4141920Y-18140008D02*
X4122872Y-18130484D01*
X4122872Y-18130484D02*
X4084777Y-18130484D01*
X4084777Y-18130484D02*
X4065729Y-18140008D01*
X4065729Y-18140008D02*
X4056206Y-18149531D01*
X4056206Y-18149531D02*
X4046682Y-18168579D01*
X4046682Y-18168579D02*
X4046682Y-18216198D01*
X4046682Y-18216198D02*
X4056206Y-18235246D01*
X4056206Y-18235246D02*
X4065729Y-18244770D01*
X4065729Y-18244770D02*
X4084777Y-18254293D01*
X4084777Y-18254293D02*
X4122872Y-18254293D01*
X4122872Y-18254293D02*
X4141920Y-18244770D01*
X4141920Y-18244770D02*
X4151444Y-18235246D01*
X4151444Y-18235246D02*
X4160967Y-18216198D01*
X4351444Y-18330484D02*
X4237158Y-18330484D01*
X4294301Y-18330484D02*
X4294301Y-18130484D01*
X4294301Y-18130484D02*
X4275253Y-18159055D01*
X4275253Y-18159055D02*
X4256206Y-18178103D01*
X4256206Y-18178103D02*
X4237158Y-18187627D01*
X4427634Y-18130484D02*
X4427634Y-18168579D01*
X4503825Y-18130484D02*
X4503825Y-18168579D01*
X4799063Y-18406674D02*
X4789539Y-18397150D01*
X4789539Y-18397150D02*
X4770491Y-18368579D01*
X4770491Y-18368579D02*
X4760968Y-18349531D01*
X4760968Y-18349531D02*
X4751444Y-18320960D01*
X4751444Y-18320960D02*
X4741920Y-18273341D01*
X4741920Y-18273341D02*
X4741920Y-18235246D01*
X4741920Y-18235246D02*
X4751444Y-18187627D01*
X4751444Y-18187627D02*
X4760968Y-18159055D01*
X4760968Y-18159055D02*
X4770491Y-18140008D01*
X4770491Y-18140008D02*
X4789539Y-18111436D01*
X4789539Y-18111436D02*
X4799063Y-18101912D01*
X4903825Y-18216198D02*
X4884777Y-18206674D01*
X4884777Y-18206674D02*
X4875253Y-18197150D01*
X4875253Y-18197150D02*
X4865730Y-18178103D01*
X4865730Y-18178103D02*
X4865730Y-18168579D01*
X4865730Y-18168579D02*
X4875253Y-18149531D01*
X4875253Y-18149531D02*
X4884777Y-18140008D01*
X4884777Y-18140008D02*
X4903825Y-18130484D01*
X4903825Y-18130484D02*
X4941920Y-18130484D01*
X4941920Y-18130484D02*
X4960968Y-18140008D01*
X4960968Y-18140008D02*
X4970491Y-18149531D01*
X4970491Y-18149531D02*
X4980015Y-18168579D01*
X4980015Y-18168579D02*
X4980015Y-18178103D01*
X4980015Y-18178103D02*
X4970491Y-18197150D01*
X4970491Y-18197150D02*
X4960968Y-18206674D01*
X4960968Y-18206674D02*
X4941920Y-18216198D01*
X4941920Y-18216198D02*
X4903825Y-18216198D01*
X4903825Y-18216198D02*
X4884777Y-18225722D01*
X4884777Y-18225722D02*
X4875253Y-18235246D01*
X4875253Y-18235246D02*
X4865730Y-18254293D01*
X4865730Y-18254293D02*
X4865730Y-18292389D01*
X4865730Y-18292389D02*
X4875253Y-18311436D01*
X4875253Y-18311436D02*
X4884777Y-18320960D01*
X4884777Y-18320960D02*
X4903825Y-18330484D01*
X4903825Y-18330484D02*
X4941920Y-18330484D01*
X4941920Y-18330484D02*
X4960968Y-18320960D01*
X4960968Y-18320960D02*
X4970491Y-18311436D01*
X4970491Y-18311436D02*
X4980015Y-18292389D01*
X4980015Y-18292389D02*
X4980015Y-18254293D01*
X4980015Y-18254293D02*
X4970491Y-18235246D01*
X4970491Y-18235246D02*
X4960968Y-18225722D01*
X4960968Y-18225722D02*
X4941920Y-18216198D01*
X5218111Y-18330484D02*
X5218111Y-18130484D01*
X5303825Y-18330484D02*
X5303825Y-18225722D01*
X5303825Y-18225722D02*
X5294301Y-18206674D01*
X5294301Y-18206674D02*
X5275253Y-18197150D01*
X5275253Y-18197150D02*
X5246682Y-18197150D01*
X5246682Y-18197150D02*
X5227634Y-18206674D01*
X5227634Y-18206674D02*
X5218111Y-18216198D01*
X5427634Y-18330484D02*
X5408587Y-18320960D01*
X5408587Y-18320960D02*
X5399063Y-18311436D01*
X5399063Y-18311436D02*
X5389539Y-18292389D01*
X5389539Y-18292389D02*
X5389539Y-18235246D01*
X5389539Y-18235246D02*
X5399063Y-18216198D01*
X5399063Y-18216198D02*
X5408587Y-18206674D01*
X5408587Y-18206674D02*
X5427634Y-18197150D01*
X5427634Y-18197150D02*
X5456206Y-18197150D01*
X5456206Y-18197150D02*
X5475253Y-18206674D01*
X5475253Y-18206674D02*
X5484777Y-18216198D01*
X5484777Y-18216198D02*
X5494301Y-18235246D01*
X5494301Y-18235246D02*
X5494301Y-18292389D01*
X5494301Y-18292389D02*
X5484777Y-18311436D01*
X5484777Y-18311436D02*
X5475253Y-18320960D01*
X5475253Y-18320960D02*
X5456206Y-18330484D01*
X5456206Y-18330484D02*
X5427634Y-18330484D01*
X5608587Y-18330484D02*
X5589539Y-18320960D01*
X5589539Y-18320960D02*
X5580015Y-18301912D01*
X5580015Y-18301912D02*
X5580015Y-18130484D01*
X5760968Y-18320960D02*
X5741920Y-18330484D01*
X5741920Y-18330484D02*
X5703825Y-18330484D01*
X5703825Y-18330484D02*
X5684777Y-18320960D01*
X5684777Y-18320960D02*
X5675253Y-18301912D01*
X5675253Y-18301912D02*
X5675253Y-18225722D01*
X5675253Y-18225722D02*
X5684777Y-18206674D01*
X5684777Y-18206674D02*
X5703825Y-18197150D01*
X5703825Y-18197150D02*
X5741920Y-18197150D01*
X5741920Y-18197150D02*
X5760968Y-18206674D01*
X5760968Y-18206674D02*
X5770491Y-18225722D01*
X5770491Y-18225722D02*
X5770491Y-18244770D01*
X5770491Y-18244770D02*
X5675253Y-18263817D01*
X5846682Y-18320960D02*
X5865730Y-18330484D01*
X5865730Y-18330484D02*
X5903825Y-18330484D01*
X5903825Y-18330484D02*
X5922872Y-18320960D01*
X5922872Y-18320960D02*
X5932396Y-18301912D01*
X5932396Y-18301912D02*
X5932396Y-18292389D01*
X5932396Y-18292389D02*
X5922872Y-18273341D01*
X5922872Y-18273341D02*
X5903825Y-18263817D01*
X5903825Y-18263817D02*
X5875253Y-18263817D01*
X5875253Y-18263817D02*
X5856206Y-18254293D01*
X5856206Y-18254293D02*
X5846682Y-18235246D01*
X5846682Y-18235246D02*
X5846682Y-18225722D01*
X5846682Y-18225722D02*
X5856206Y-18206674D01*
X5856206Y-18206674D02*
X5875253Y-18197150D01*
X5875253Y-18197150D02*
X5903825Y-18197150D01*
X5903825Y-18197150D02*
X5922872Y-18206674D01*
X5999063Y-18406674D02*
X6008587Y-18397150D01*
X6008587Y-18397150D02*
X6027634Y-18368579D01*
X6027634Y-18368579D02*
X6037158Y-18349531D01*
X6037158Y-18349531D02*
X6046682Y-18320960D01*
X6046682Y-18320960D02*
X6056206Y-18273341D01*
X6056206Y-18273341D02*
X6056206Y-18235246D01*
X6056206Y-18235246D02*
X6046682Y-18187627D01*
X6046682Y-18187627D02*
X6037158Y-18159055D01*
X6037158Y-18159055D02*
X6027634Y-18140008D01*
X6027634Y-18140008D02*
X6008587Y-18111436D01*
X6008587Y-18111436D02*
X5999063Y-18101912D01*
X1024000Y-18409000D02*
X1224000Y-18609000D01*
X1224000Y-18409000D02*
X1024000Y-18609000D01*
X1124000Y-18409000D02*
X1124000Y-18609000D01*
X1024000Y-18509000D02*
X1224000Y-18509000D01*
X1475253Y-18419531D02*
X1484777Y-18410008D01*
X1484777Y-18410008D02*
X1503824Y-18400484D01*
X1503824Y-18400484D02*
X1551443Y-18400484D01*
X1551443Y-18400484D02*
X1570491Y-18410008D01*
X1570491Y-18410008D02*
X1580015Y-18419531D01*
X1580015Y-18419531D02*
X1589539Y-18438579D01*
X1589539Y-18438579D02*
X1589539Y-18457627D01*
X1589539Y-18457627D02*
X1580015Y-18486198D01*
X1580015Y-18486198D02*
X1465729Y-18600484D01*
X1465729Y-18600484D02*
X1589539Y-18600484D01*
X1675253Y-18581436D02*
X1684777Y-18590960D01*
X1684777Y-18590960D02*
X1675253Y-18600484D01*
X1675253Y-18600484D02*
X1665729Y-18590960D01*
X1665729Y-18590960D02*
X1675253Y-18581436D01*
X1675253Y-18581436D02*
X1675253Y-18600484D01*
X1760967Y-18419531D02*
X1770491Y-18410008D01*
X1770491Y-18410008D02*
X1789539Y-18400484D01*
X1789539Y-18400484D02*
X1837158Y-18400484D01*
X1837158Y-18400484D02*
X1856205Y-18410008D01*
X1856205Y-18410008D02*
X1865729Y-18419531D01*
X1865729Y-18419531D02*
X1875253Y-18438579D01*
X1875253Y-18438579D02*
X1875253Y-18457627D01*
X1875253Y-18457627D02*
X1865729Y-18486198D01*
X1865729Y-18486198D02*
X1751443Y-18600484D01*
X1751443Y-18600484D02*
X1875253Y-18600484D01*
X1999062Y-18400484D02*
X2018110Y-18400484D01*
X2018110Y-18400484D02*
X2037158Y-18410008D01*
X2037158Y-18410008D02*
X2046682Y-18419531D01*
X2046682Y-18419531D02*
X2056205Y-18438579D01*
X2056205Y-18438579D02*
X2065729Y-18476674D01*
X2065729Y-18476674D02*
X2065729Y-18524293D01*
X2065729Y-18524293D02*
X2056205Y-18562389D01*
X2056205Y-18562389D02*
X2046682Y-18581436D01*
X2046682Y-18581436D02*
X2037158Y-18590960D01*
X2037158Y-18590960D02*
X2018110Y-18600484D01*
X2018110Y-18600484D02*
X1999062Y-18600484D01*
X1999062Y-18600484D02*
X1980015Y-18590960D01*
X1980015Y-18590960D02*
X1970491Y-18581436D01*
X1970491Y-18581436D02*
X1960967Y-18562389D01*
X1960967Y-18562389D02*
X1951443Y-18524293D01*
X1951443Y-18524293D02*
X1951443Y-18476674D01*
X1951443Y-18476674D02*
X1960967Y-18438579D01*
X1960967Y-18438579D02*
X1970491Y-18419531D01*
X1970491Y-18419531D02*
X1980015Y-18410008D01*
X1980015Y-18410008D02*
X1999062Y-18400484D01*
X2189539Y-18400484D02*
X2208586Y-18400484D01*
X2208586Y-18400484D02*
X2227634Y-18410008D01*
X2227634Y-18410008D02*
X2237158Y-18419531D01*
X2237158Y-18419531D02*
X2246682Y-18438579D01*
X2246682Y-18438579D02*
X2256205Y-18476674D01*
X2256205Y-18476674D02*
X2256205Y-18524293D01*
X2256205Y-18524293D02*
X2246682Y-18562389D01*
X2246682Y-18562389D02*
X2237158Y-18581436D01*
X2237158Y-18581436D02*
X2227634Y-18590960D01*
X2227634Y-18590960D02*
X2208586Y-18600484D01*
X2208586Y-18600484D02*
X2189539Y-18600484D01*
X2189539Y-18600484D02*
X2170491Y-18590960D01*
X2170491Y-18590960D02*
X2160967Y-18581436D01*
X2160967Y-18581436D02*
X2151444Y-18562389D01*
X2151444Y-18562389D02*
X2141920Y-18524293D01*
X2141920Y-18524293D02*
X2141920Y-18476674D01*
X2141920Y-18476674D02*
X2151444Y-18438579D01*
X2151444Y-18438579D02*
X2160967Y-18419531D01*
X2160967Y-18419531D02*
X2170491Y-18410008D01*
X2170491Y-18410008D02*
X2189539Y-18400484D01*
X2341920Y-18600484D02*
X2341920Y-18467150D01*
X2341920Y-18486198D02*
X2351444Y-18476674D01*
X2351444Y-18476674D02*
X2370491Y-18467150D01*
X2370491Y-18467150D02*
X2399063Y-18467150D01*
X2399063Y-18467150D02*
X2418110Y-18476674D01*
X2418110Y-18476674D02*
X2427634Y-18495722D01*
X2427634Y-18495722D02*
X2427634Y-18600484D01*
X2427634Y-18495722D02*
X2437158Y-18476674D01*
X2437158Y-18476674D02*
X2456205Y-18467150D01*
X2456205Y-18467150D02*
X2484777Y-18467150D01*
X2484777Y-18467150D02*
X2503825Y-18476674D01*
X2503825Y-18476674D02*
X2513348Y-18495722D01*
X2513348Y-18495722D02*
X2513348Y-18600484D01*
X2608586Y-18600484D02*
X2608586Y-18467150D01*
X2608586Y-18486198D02*
X2618110Y-18476674D01*
X2618110Y-18476674D02*
X2637158Y-18467150D01*
X2637158Y-18467150D02*
X2665729Y-18467150D01*
X2665729Y-18467150D02*
X2684777Y-18476674D01*
X2684777Y-18476674D02*
X2694301Y-18495722D01*
X2694301Y-18495722D02*
X2694301Y-18600484D01*
X2694301Y-18495722D02*
X2703825Y-18476674D01*
X2703825Y-18476674D02*
X2722872Y-18467150D01*
X2722872Y-18467150D02*
X2751444Y-18467150D01*
X2751444Y-18467150D02*
X2770491Y-18476674D01*
X2770491Y-18476674D02*
X2780015Y-18495722D01*
X2780015Y-18495722D02*
X2780015Y-18600484D01*
X3170491Y-18390960D02*
X2999063Y-18648103D01*
X3427634Y-18400484D02*
X3446682Y-18400484D01*
X3446682Y-18400484D02*
X3465729Y-18410008D01*
X3465729Y-18410008D02*
X3475253Y-18419531D01*
X3475253Y-18419531D02*
X3484777Y-18438579D01*
X3484777Y-18438579D02*
X3494301Y-18476674D01*
X3494301Y-18476674D02*
X3494301Y-18524293D01*
X3494301Y-18524293D02*
X3484777Y-18562389D01*
X3484777Y-18562389D02*
X3475253Y-18581436D01*
X3475253Y-18581436D02*
X3465729Y-18590960D01*
X3465729Y-18590960D02*
X3446682Y-18600484D01*
X3446682Y-18600484D02*
X3427634Y-18600484D01*
X3427634Y-18600484D02*
X3408586Y-18590960D01*
X3408586Y-18590960D02*
X3399063Y-18581436D01*
X3399063Y-18581436D02*
X3389539Y-18562389D01*
X3389539Y-18562389D02*
X3380015Y-18524293D01*
X3380015Y-18524293D02*
X3380015Y-18476674D01*
X3380015Y-18476674D02*
X3389539Y-18438579D01*
X3389539Y-18438579D02*
X3399063Y-18419531D01*
X3399063Y-18419531D02*
X3408586Y-18410008D01*
X3408586Y-18410008D02*
X3427634Y-18400484D01*
X3580015Y-18581436D02*
X3589539Y-18590960D01*
X3589539Y-18590960D02*
X3580015Y-18600484D01*
X3580015Y-18600484D02*
X3570491Y-18590960D01*
X3570491Y-18590960D02*
X3580015Y-18581436D01*
X3580015Y-18581436D02*
X3580015Y-18600484D01*
X3713348Y-18400484D02*
X3732396Y-18400484D01*
X3732396Y-18400484D02*
X3751444Y-18410008D01*
X3751444Y-18410008D02*
X3760967Y-18419531D01*
X3760967Y-18419531D02*
X3770491Y-18438579D01*
X3770491Y-18438579D02*
X3780015Y-18476674D01*
X3780015Y-18476674D02*
X3780015Y-18524293D01*
X3780015Y-18524293D02*
X3770491Y-18562389D01*
X3770491Y-18562389D02*
X3760967Y-18581436D01*
X3760967Y-18581436D02*
X3751444Y-18590960D01*
X3751444Y-18590960D02*
X3732396Y-18600484D01*
X3732396Y-18600484D02*
X3713348Y-18600484D01*
X3713348Y-18600484D02*
X3694301Y-18590960D01*
X3694301Y-18590960D02*
X3684777Y-18581436D01*
X3684777Y-18581436D02*
X3675253Y-18562389D01*
X3675253Y-18562389D02*
X3665729Y-18524293D01*
X3665729Y-18524293D02*
X3665729Y-18476674D01*
X3665729Y-18476674D02*
X3675253Y-18438579D01*
X3675253Y-18438579D02*
X3684777Y-18419531D01*
X3684777Y-18419531D02*
X3694301Y-18410008D01*
X3694301Y-18410008D02*
X3713348Y-18400484D01*
X3894301Y-18486198D02*
X3875253Y-18476674D01*
X3875253Y-18476674D02*
X3865729Y-18467150D01*
X3865729Y-18467150D02*
X3856206Y-18448103D01*
X3856206Y-18448103D02*
X3856206Y-18438579D01*
X3856206Y-18438579D02*
X3865729Y-18419531D01*
X3865729Y-18419531D02*
X3875253Y-18410008D01*
X3875253Y-18410008D02*
X3894301Y-18400484D01*
X3894301Y-18400484D02*
X3932396Y-18400484D01*
X3932396Y-18400484D02*
X3951444Y-18410008D01*
X3951444Y-18410008D02*
X3960967Y-18419531D01*
X3960967Y-18419531D02*
X3970491Y-18438579D01*
X3970491Y-18438579D02*
X3970491Y-18448103D01*
X3970491Y-18448103D02*
X3960967Y-18467150D01*
X3960967Y-18467150D02*
X3951444Y-18476674D01*
X3951444Y-18476674D02*
X3932396Y-18486198D01*
X3932396Y-18486198D02*
X3894301Y-18486198D01*
X3894301Y-18486198D02*
X3875253Y-18495722D01*
X3875253Y-18495722D02*
X3865729Y-18505246D01*
X3865729Y-18505246D02*
X3856206Y-18524293D01*
X3856206Y-18524293D02*
X3856206Y-18562389D01*
X3856206Y-18562389D02*
X3865729Y-18581436D01*
X3865729Y-18581436D02*
X3875253Y-18590960D01*
X3875253Y-18590960D02*
X3894301Y-18600484D01*
X3894301Y-18600484D02*
X3932396Y-18600484D01*
X3932396Y-18600484D02*
X3951444Y-18590960D01*
X3951444Y-18590960D02*
X3960967Y-18581436D01*
X3960967Y-18581436D02*
X3970491Y-18562389D01*
X3970491Y-18562389D02*
X3970491Y-18524293D01*
X3970491Y-18524293D02*
X3960967Y-18505246D01*
X3960967Y-18505246D02*
X3951444Y-18495722D01*
X3951444Y-18495722D02*
X3932396Y-18486198D01*
X4141920Y-18400484D02*
X4103825Y-18400484D01*
X4103825Y-18400484D02*
X4084777Y-18410008D01*
X4084777Y-18410008D02*
X4075253Y-18419531D01*
X4075253Y-18419531D02*
X4056206Y-18448103D01*
X4056206Y-18448103D02*
X4046682Y-18486198D01*
X4046682Y-18486198D02*
X4046682Y-18562389D01*
X4046682Y-18562389D02*
X4056206Y-18581436D01*
X4056206Y-18581436D02*
X4065729Y-18590960D01*
X4065729Y-18590960D02*
X4084777Y-18600484D01*
X4084777Y-18600484D02*
X4122872Y-18600484D01*
X4122872Y-18600484D02*
X4141920Y-18590960D01*
X4141920Y-18590960D02*
X4151444Y-18581436D01*
X4151444Y-18581436D02*
X4160967Y-18562389D01*
X4160967Y-18562389D02*
X4160967Y-18514770D01*
X4160967Y-18514770D02*
X4151444Y-18495722D01*
X4151444Y-18495722D02*
X4141920Y-18486198D01*
X4141920Y-18486198D02*
X4122872Y-18476674D01*
X4122872Y-18476674D02*
X4084777Y-18476674D01*
X4084777Y-18476674D02*
X4065729Y-18486198D01*
X4065729Y-18486198D02*
X4056206Y-18495722D01*
X4056206Y-18495722D02*
X4046682Y-18514770D01*
X4332396Y-18400484D02*
X4294301Y-18400484D01*
X4294301Y-18400484D02*
X4275253Y-18410008D01*
X4275253Y-18410008D02*
X4265729Y-18419531D01*
X4265729Y-18419531D02*
X4246682Y-18448103D01*
X4246682Y-18448103D02*
X4237158Y-18486198D01*
X4237158Y-18486198D02*
X4237158Y-18562389D01*
X4237158Y-18562389D02*
X4246682Y-18581436D01*
X4246682Y-18581436D02*
X4256206Y-18590960D01*
X4256206Y-18590960D02*
X4275253Y-18600484D01*
X4275253Y-18600484D02*
X4313349Y-18600484D01*
X4313349Y-18600484D02*
X4332396Y-18590960D01*
X4332396Y-18590960D02*
X4341920Y-18581436D01*
X4341920Y-18581436D02*
X4351444Y-18562389D01*
X4351444Y-18562389D02*
X4351444Y-18514770D01*
X4351444Y-18514770D02*
X4341920Y-18495722D01*
X4341920Y-18495722D02*
X4332396Y-18486198D01*
X4332396Y-18486198D02*
X4313349Y-18476674D01*
X4313349Y-18476674D02*
X4275253Y-18476674D01*
X4275253Y-18476674D02*
X4256206Y-18486198D01*
X4256206Y-18486198D02*
X4246682Y-18495722D01*
X4246682Y-18495722D02*
X4237158Y-18514770D01*
X4427634Y-18400484D02*
X4427634Y-18438579D01*
X4503825Y-18400484D02*
X4503825Y-18438579D01*
X4799063Y-18676674D02*
X4789539Y-18667150D01*
X4789539Y-18667150D02*
X4770491Y-18638579D01*
X4770491Y-18638579D02*
X4760968Y-18619531D01*
X4760968Y-18619531D02*
X4751444Y-18590960D01*
X4751444Y-18590960D02*
X4741920Y-18543341D01*
X4741920Y-18543341D02*
X4741920Y-18505246D01*
X4741920Y-18505246D02*
X4751444Y-18457627D01*
X4751444Y-18457627D02*
X4760968Y-18429055D01*
X4760968Y-18429055D02*
X4770491Y-18410008D01*
X4770491Y-18410008D02*
X4789539Y-18381436D01*
X4789539Y-18381436D02*
X4799063Y-18371912D01*
X4960968Y-18400484D02*
X4922872Y-18400484D01*
X4922872Y-18400484D02*
X4903825Y-18410008D01*
X4903825Y-18410008D02*
X4894301Y-18419531D01*
X4894301Y-18419531D02*
X4875253Y-18448103D01*
X4875253Y-18448103D02*
X4865730Y-18486198D01*
X4865730Y-18486198D02*
X4865730Y-18562389D01*
X4865730Y-18562389D02*
X4875253Y-18581436D01*
X4875253Y-18581436D02*
X4884777Y-18590960D01*
X4884777Y-18590960D02*
X4903825Y-18600484D01*
X4903825Y-18600484D02*
X4941920Y-18600484D01*
X4941920Y-18600484D02*
X4960968Y-18590960D01*
X4960968Y-18590960D02*
X4970491Y-18581436D01*
X4970491Y-18581436D02*
X4980015Y-18562389D01*
X4980015Y-18562389D02*
X4980015Y-18514770D01*
X4980015Y-18514770D02*
X4970491Y-18495722D01*
X4970491Y-18495722D02*
X4960968Y-18486198D01*
X4960968Y-18486198D02*
X4941920Y-18476674D01*
X4941920Y-18476674D02*
X4903825Y-18476674D01*
X4903825Y-18476674D02*
X4884777Y-18486198D01*
X4884777Y-18486198D02*
X4875253Y-18495722D01*
X4875253Y-18495722D02*
X4865730Y-18514770D01*
X5218111Y-18600484D02*
X5218111Y-18400484D01*
X5303825Y-18600484D02*
X5303825Y-18495722D01*
X5303825Y-18495722D02*
X5294301Y-18476674D01*
X5294301Y-18476674D02*
X5275253Y-18467150D01*
X5275253Y-18467150D02*
X5246682Y-18467150D01*
X5246682Y-18467150D02*
X5227634Y-18476674D01*
X5227634Y-18476674D02*
X5218111Y-18486198D01*
X5427634Y-18600484D02*
X5408587Y-18590960D01*
X5408587Y-18590960D02*
X5399063Y-18581436D01*
X5399063Y-18581436D02*
X5389539Y-18562389D01*
X5389539Y-18562389D02*
X5389539Y-18505246D01*
X5389539Y-18505246D02*
X5399063Y-18486198D01*
X5399063Y-18486198D02*
X5408587Y-18476674D01*
X5408587Y-18476674D02*
X5427634Y-18467150D01*
X5427634Y-18467150D02*
X5456206Y-18467150D01*
X5456206Y-18467150D02*
X5475253Y-18476674D01*
X5475253Y-18476674D02*
X5484777Y-18486198D01*
X5484777Y-18486198D02*
X5494301Y-18505246D01*
X5494301Y-18505246D02*
X5494301Y-18562389D01*
X5494301Y-18562389D02*
X5484777Y-18581436D01*
X5484777Y-18581436D02*
X5475253Y-18590960D01*
X5475253Y-18590960D02*
X5456206Y-18600484D01*
X5456206Y-18600484D02*
X5427634Y-18600484D01*
X5608587Y-18600484D02*
X5589539Y-18590960D01*
X5589539Y-18590960D02*
X5580015Y-18571912D01*
X5580015Y-18571912D02*
X5580015Y-18400484D01*
X5760968Y-18590960D02*
X5741920Y-18600484D01*
X5741920Y-18600484D02*
X5703825Y-18600484D01*
X5703825Y-18600484D02*
X5684777Y-18590960D01*
X5684777Y-18590960D02*
X5675253Y-18571912D01*
X5675253Y-18571912D02*
X5675253Y-18495722D01*
X5675253Y-18495722D02*
X5684777Y-18476674D01*
X5684777Y-18476674D02*
X5703825Y-18467150D01*
X5703825Y-18467150D02*
X5741920Y-18467150D01*
X5741920Y-18467150D02*
X5760968Y-18476674D01*
X5760968Y-18476674D02*
X5770491Y-18495722D01*
X5770491Y-18495722D02*
X5770491Y-18514770D01*
X5770491Y-18514770D02*
X5675253Y-18533817D01*
X5846682Y-18590960D02*
X5865730Y-18600484D01*
X5865730Y-18600484D02*
X5903825Y-18600484D01*
X5903825Y-18600484D02*
X5922872Y-18590960D01*
X5922872Y-18590960D02*
X5932396Y-18571912D01*
X5932396Y-18571912D02*
X5932396Y-18562389D01*
X5932396Y-18562389D02*
X5922872Y-18543341D01*
X5922872Y-18543341D02*
X5903825Y-18533817D01*
X5903825Y-18533817D02*
X5875253Y-18533817D01*
X5875253Y-18533817D02*
X5856206Y-18524293D01*
X5856206Y-18524293D02*
X5846682Y-18505246D01*
X5846682Y-18505246D02*
X5846682Y-18495722D01*
X5846682Y-18495722D02*
X5856206Y-18476674D01*
X5856206Y-18476674D02*
X5875253Y-18467150D01*
X5875253Y-18467150D02*
X5903825Y-18467150D01*
X5903825Y-18467150D02*
X5922872Y-18476674D01*
X5999063Y-18676674D02*
X6008587Y-18667150D01*
X6008587Y-18667150D02*
X6027634Y-18638579D01*
X6027634Y-18638579D02*
X6037158Y-18619531D01*
X6037158Y-18619531D02*
X6046682Y-18590960D01*
X6046682Y-18590960D02*
X6056206Y-18543341D01*
X6056206Y-18543341D02*
X6056206Y-18505246D01*
X6056206Y-18505246D02*
X6046682Y-18457627D01*
X6046682Y-18457627D02*
X6037158Y-18429055D01*
X6037158Y-18429055D02*
X6027634Y-18410008D01*
X6027634Y-18410008D02*
X6008587Y-18381436D01*
X6008587Y-18381436D02*
X5999063Y-18371912D01*
X1024000Y-18729000D02*
X1224000Y-18929000D01*
X1224000Y-18729000D02*
X1024000Y-18929000D01*
X1194711Y-18899711D02*
X1194711Y-18758289D01*
X1053289Y-18758289D01*
X1053289Y-18899711D01*
X1194711Y-18899711D01*
X1570491Y-18720484D02*
X1532396Y-18720484D01*
X1532396Y-18720484D02*
X1513348Y-18730008D01*
X1513348Y-18730008D02*
X1503824Y-18739531D01*
X1503824Y-18739531D02*
X1484777Y-18768103D01*
X1484777Y-18768103D02*
X1475253Y-18806198D01*
X1475253Y-18806198D02*
X1475253Y-18882389D01*
X1475253Y-18882389D02*
X1484777Y-18901436D01*
X1484777Y-18901436D02*
X1494301Y-18910960D01*
X1494301Y-18910960D02*
X1513348Y-18920484D01*
X1513348Y-18920484D02*
X1551443Y-18920484D01*
X1551443Y-18920484D02*
X1570491Y-18910960D01*
X1570491Y-18910960D02*
X1580015Y-18901436D01*
X1580015Y-18901436D02*
X1589539Y-18882389D01*
X1589539Y-18882389D02*
X1589539Y-18834770D01*
X1589539Y-18834770D02*
X1580015Y-18815722D01*
X1580015Y-18815722D02*
X1570491Y-18806198D01*
X1570491Y-18806198D02*
X1551443Y-18796674D01*
X1551443Y-18796674D02*
X1513348Y-18796674D01*
X1513348Y-18796674D02*
X1494301Y-18806198D01*
X1494301Y-18806198D02*
X1484777Y-18815722D01*
X1484777Y-18815722D02*
X1475253Y-18834770D01*
X1675253Y-18901436D02*
X1684777Y-18910960D01*
X1684777Y-18910960D02*
X1675253Y-18920484D01*
X1675253Y-18920484D02*
X1665729Y-18910960D01*
X1665729Y-18910960D02*
X1675253Y-18901436D01*
X1675253Y-18901436D02*
X1675253Y-18920484D01*
X1856205Y-18787150D02*
X1856205Y-18920484D01*
X1808586Y-18710960D02*
X1760967Y-18853817D01*
X1760967Y-18853817D02*
X1884777Y-18853817D01*
X1999062Y-18720484D02*
X2018110Y-18720484D01*
X2018110Y-18720484D02*
X2037158Y-18730008D01*
X2037158Y-18730008D02*
X2046682Y-18739531D01*
X2046682Y-18739531D02*
X2056205Y-18758579D01*
X2056205Y-18758579D02*
X2065729Y-18796674D01*
X2065729Y-18796674D02*
X2065729Y-18844293D01*
X2065729Y-18844293D02*
X2056205Y-18882389D01*
X2056205Y-18882389D02*
X2046682Y-18901436D01*
X2046682Y-18901436D02*
X2037158Y-18910960D01*
X2037158Y-18910960D02*
X2018110Y-18920484D01*
X2018110Y-18920484D02*
X1999062Y-18920484D01*
X1999062Y-18920484D02*
X1980015Y-18910960D01*
X1980015Y-18910960D02*
X1970491Y-18901436D01*
X1970491Y-18901436D02*
X1960967Y-18882389D01*
X1960967Y-18882389D02*
X1951443Y-18844293D01*
X1951443Y-18844293D02*
X1951443Y-18796674D01*
X1951443Y-18796674D02*
X1960967Y-18758579D01*
X1960967Y-18758579D02*
X1970491Y-18739531D01*
X1970491Y-18739531D02*
X1980015Y-18730008D01*
X1980015Y-18730008D02*
X1999062Y-18720484D01*
X2189539Y-18720484D02*
X2208586Y-18720484D01*
X2208586Y-18720484D02*
X2227634Y-18730008D01*
X2227634Y-18730008D02*
X2237158Y-18739531D01*
X2237158Y-18739531D02*
X2246682Y-18758579D01*
X2246682Y-18758579D02*
X2256205Y-18796674D01*
X2256205Y-18796674D02*
X2256205Y-18844293D01*
X2256205Y-18844293D02*
X2246682Y-18882389D01*
X2246682Y-18882389D02*
X2237158Y-18901436D01*
X2237158Y-18901436D02*
X2227634Y-18910960D01*
X2227634Y-18910960D02*
X2208586Y-18920484D01*
X2208586Y-18920484D02*
X2189539Y-18920484D01*
X2189539Y-18920484D02*
X2170491Y-18910960D01*
X2170491Y-18910960D02*
X2160967Y-18901436D01*
X2160967Y-18901436D02*
X2151444Y-18882389D01*
X2151444Y-18882389D02*
X2141920Y-18844293D01*
X2141920Y-18844293D02*
X2141920Y-18796674D01*
X2141920Y-18796674D02*
X2151444Y-18758579D01*
X2151444Y-18758579D02*
X2160967Y-18739531D01*
X2160967Y-18739531D02*
X2170491Y-18730008D01*
X2170491Y-18730008D02*
X2189539Y-18720484D01*
X2341920Y-18920484D02*
X2341920Y-18787150D01*
X2341920Y-18806198D02*
X2351444Y-18796674D01*
X2351444Y-18796674D02*
X2370491Y-18787150D01*
X2370491Y-18787150D02*
X2399063Y-18787150D01*
X2399063Y-18787150D02*
X2418110Y-18796674D01*
X2418110Y-18796674D02*
X2427634Y-18815722D01*
X2427634Y-18815722D02*
X2427634Y-18920484D01*
X2427634Y-18815722D02*
X2437158Y-18796674D01*
X2437158Y-18796674D02*
X2456205Y-18787150D01*
X2456205Y-18787150D02*
X2484777Y-18787150D01*
X2484777Y-18787150D02*
X2503825Y-18796674D01*
X2503825Y-18796674D02*
X2513348Y-18815722D01*
X2513348Y-18815722D02*
X2513348Y-18920484D01*
X2608586Y-18920484D02*
X2608586Y-18787150D01*
X2608586Y-18806198D02*
X2618110Y-18796674D01*
X2618110Y-18796674D02*
X2637158Y-18787150D01*
X2637158Y-18787150D02*
X2665729Y-18787150D01*
X2665729Y-18787150D02*
X2684777Y-18796674D01*
X2684777Y-18796674D02*
X2694301Y-18815722D01*
X2694301Y-18815722D02*
X2694301Y-18920484D01*
X2694301Y-18815722D02*
X2703825Y-18796674D01*
X2703825Y-18796674D02*
X2722872Y-18787150D01*
X2722872Y-18787150D02*
X2751444Y-18787150D01*
X2751444Y-18787150D02*
X2770491Y-18796674D01*
X2770491Y-18796674D02*
X2780015Y-18815722D01*
X2780015Y-18815722D02*
X2780015Y-18920484D01*
X3170491Y-18710960D02*
X2999063Y-18968103D01*
X3427634Y-18720484D02*
X3446682Y-18720484D01*
X3446682Y-18720484D02*
X3465729Y-18730008D01*
X3465729Y-18730008D02*
X3475253Y-18739531D01*
X3475253Y-18739531D02*
X3484777Y-18758579D01*
X3484777Y-18758579D02*
X3494301Y-18796674D01*
X3494301Y-18796674D02*
X3494301Y-18844293D01*
X3494301Y-18844293D02*
X3484777Y-18882389D01*
X3484777Y-18882389D02*
X3475253Y-18901436D01*
X3475253Y-18901436D02*
X3465729Y-18910960D01*
X3465729Y-18910960D02*
X3446682Y-18920484D01*
X3446682Y-18920484D02*
X3427634Y-18920484D01*
X3427634Y-18920484D02*
X3408586Y-18910960D01*
X3408586Y-18910960D02*
X3399063Y-18901436D01*
X3399063Y-18901436D02*
X3389539Y-18882389D01*
X3389539Y-18882389D02*
X3380015Y-18844293D01*
X3380015Y-18844293D02*
X3380015Y-18796674D01*
X3380015Y-18796674D02*
X3389539Y-18758579D01*
X3389539Y-18758579D02*
X3399063Y-18739531D01*
X3399063Y-18739531D02*
X3408586Y-18730008D01*
X3408586Y-18730008D02*
X3427634Y-18720484D01*
X3580015Y-18901436D02*
X3589539Y-18910960D01*
X3589539Y-18910960D02*
X3580015Y-18920484D01*
X3580015Y-18920484D02*
X3570491Y-18910960D01*
X3570491Y-18910960D02*
X3580015Y-18901436D01*
X3580015Y-18901436D02*
X3580015Y-18920484D01*
X3665729Y-18739531D02*
X3675253Y-18730008D01*
X3675253Y-18730008D02*
X3694301Y-18720484D01*
X3694301Y-18720484D02*
X3741920Y-18720484D01*
X3741920Y-18720484D02*
X3760967Y-18730008D01*
X3760967Y-18730008D02*
X3770491Y-18739531D01*
X3770491Y-18739531D02*
X3780015Y-18758579D01*
X3780015Y-18758579D02*
X3780015Y-18777627D01*
X3780015Y-18777627D02*
X3770491Y-18806198D01*
X3770491Y-18806198D02*
X3656206Y-18920484D01*
X3656206Y-18920484D02*
X3780015Y-18920484D01*
X3960967Y-18720484D02*
X3865729Y-18720484D01*
X3865729Y-18720484D02*
X3856206Y-18815722D01*
X3856206Y-18815722D02*
X3865729Y-18806198D01*
X3865729Y-18806198D02*
X3884777Y-18796674D01*
X3884777Y-18796674D02*
X3932396Y-18796674D01*
X3932396Y-18796674D02*
X3951444Y-18806198D01*
X3951444Y-18806198D02*
X3960967Y-18815722D01*
X3960967Y-18815722D02*
X3970491Y-18834770D01*
X3970491Y-18834770D02*
X3970491Y-18882389D01*
X3970491Y-18882389D02*
X3960967Y-18901436D01*
X3960967Y-18901436D02*
X3951444Y-18910960D01*
X3951444Y-18910960D02*
X3932396Y-18920484D01*
X3932396Y-18920484D02*
X3884777Y-18920484D01*
X3884777Y-18920484D02*
X3865729Y-18910960D01*
X3865729Y-18910960D02*
X3856206Y-18901436D01*
X4046682Y-18739531D02*
X4056206Y-18730008D01*
X4056206Y-18730008D02*
X4075253Y-18720484D01*
X4075253Y-18720484D02*
X4122872Y-18720484D01*
X4122872Y-18720484D02*
X4141920Y-18730008D01*
X4141920Y-18730008D02*
X4151444Y-18739531D01*
X4151444Y-18739531D02*
X4160967Y-18758579D01*
X4160967Y-18758579D02*
X4160967Y-18777627D01*
X4160967Y-18777627D02*
X4151444Y-18806198D01*
X4151444Y-18806198D02*
X4037158Y-18920484D01*
X4037158Y-18920484D02*
X4160967Y-18920484D01*
X4284777Y-18720484D02*
X4303825Y-18720484D01*
X4303825Y-18720484D02*
X4322872Y-18730008D01*
X4322872Y-18730008D02*
X4332396Y-18739531D01*
X4332396Y-18739531D02*
X4341920Y-18758579D01*
X4341920Y-18758579D02*
X4351444Y-18796674D01*
X4351444Y-18796674D02*
X4351444Y-18844293D01*
X4351444Y-18844293D02*
X4341920Y-18882389D01*
X4341920Y-18882389D02*
X4332396Y-18901436D01*
X4332396Y-18901436D02*
X4322872Y-18910960D01*
X4322872Y-18910960D02*
X4303825Y-18920484D01*
X4303825Y-18920484D02*
X4284777Y-18920484D01*
X4284777Y-18920484D02*
X4265729Y-18910960D01*
X4265729Y-18910960D02*
X4256206Y-18901436D01*
X4256206Y-18901436D02*
X4246682Y-18882389D01*
X4246682Y-18882389D02*
X4237158Y-18844293D01*
X4237158Y-18844293D02*
X4237158Y-18796674D01*
X4237158Y-18796674D02*
X4246682Y-18758579D01*
X4246682Y-18758579D02*
X4256206Y-18739531D01*
X4256206Y-18739531D02*
X4265729Y-18730008D01*
X4265729Y-18730008D02*
X4284777Y-18720484D01*
X4427634Y-18720484D02*
X4427634Y-18758579D01*
X4503825Y-18720484D02*
X4503825Y-18758579D01*
X4799063Y-18996674D02*
X4789539Y-18987150D01*
X4789539Y-18987150D02*
X4770491Y-18958579D01*
X4770491Y-18958579D02*
X4760968Y-18939531D01*
X4760968Y-18939531D02*
X4751444Y-18910960D01*
X4751444Y-18910960D02*
X4741920Y-18863341D01*
X4741920Y-18863341D02*
X4741920Y-18825246D01*
X4741920Y-18825246D02*
X4751444Y-18777627D01*
X4751444Y-18777627D02*
X4760968Y-18749055D01*
X4760968Y-18749055D02*
X4770491Y-18730008D01*
X4770491Y-18730008D02*
X4789539Y-18701436D01*
X4789539Y-18701436D02*
X4799063Y-18691912D01*
X4903825Y-18806198D02*
X4884777Y-18796674D01*
X4884777Y-18796674D02*
X4875253Y-18787150D01*
X4875253Y-18787150D02*
X4865730Y-18768103D01*
X4865730Y-18768103D02*
X4865730Y-18758579D01*
X4865730Y-18758579D02*
X4875253Y-18739531D01*
X4875253Y-18739531D02*
X4884777Y-18730008D01*
X4884777Y-18730008D02*
X4903825Y-18720484D01*
X4903825Y-18720484D02*
X4941920Y-18720484D01*
X4941920Y-18720484D02*
X4960968Y-18730008D01*
X4960968Y-18730008D02*
X4970491Y-18739531D01*
X4970491Y-18739531D02*
X4980015Y-18758579D01*
X4980015Y-18758579D02*
X4980015Y-18768103D01*
X4980015Y-18768103D02*
X4970491Y-18787150D01*
X4970491Y-18787150D02*
X4960968Y-18796674D01*
X4960968Y-18796674D02*
X4941920Y-18806198D01*
X4941920Y-18806198D02*
X4903825Y-18806198D01*
X4903825Y-18806198D02*
X4884777Y-18815722D01*
X4884777Y-18815722D02*
X4875253Y-18825246D01*
X4875253Y-18825246D02*
X4865730Y-18844293D01*
X4865730Y-18844293D02*
X4865730Y-18882389D01*
X4865730Y-18882389D02*
X4875253Y-18901436D01*
X4875253Y-18901436D02*
X4884777Y-18910960D01*
X4884777Y-18910960D02*
X4903825Y-18920484D01*
X4903825Y-18920484D02*
X4941920Y-18920484D01*
X4941920Y-18920484D02*
X4960968Y-18910960D01*
X4960968Y-18910960D02*
X4970491Y-18901436D01*
X4970491Y-18901436D02*
X4980015Y-18882389D01*
X4980015Y-18882389D02*
X4980015Y-18844293D01*
X4980015Y-18844293D02*
X4970491Y-18825246D01*
X4970491Y-18825246D02*
X4960968Y-18815722D01*
X4960968Y-18815722D02*
X4941920Y-18806198D01*
X5218111Y-18920484D02*
X5218111Y-18720484D01*
X5303825Y-18920484D02*
X5303825Y-18815722D01*
X5303825Y-18815722D02*
X5294301Y-18796674D01*
X5294301Y-18796674D02*
X5275253Y-18787150D01*
X5275253Y-18787150D02*
X5246682Y-18787150D01*
X5246682Y-18787150D02*
X5227634Y-18796674D01*
X5227634Y-18796674D02*
X5218111Y-18806198D01*
X5427634Y-18920484D02*
X5408587Y-18910960D01*
X5408587Y-18910960D02*
X5399063Y-18901436D01*
X5399063Y-18901436D02*
X5389539Y-18882389D01*
X5389539Y-18882389D02*
X5389539Y-18825246D01*
X5389539Y-18825246D02*
X5399063Y-18806198D01*
X5399063Y-18806198D02*
X5408587Y-18796674D01*
X5408587Y-18796674D02*
X5427634Y-18787150D01*
X5427634Y-18787150D02*
X5456206Y-18787150D01*
X5456206Y-18787150D02*
X5475253Y-18796674D01*
X5475253Y-18796674D02*
X5484777Y-18806198D01*
X5484777Y-18806198D02*
X5494301Y-18825246D01*
X5494301Y-18825246D02*
X5494301Y-18882389D01*
X5494301Y-18882389D02*
X5484777Y-18901436D01*
X5484777Y-18901436D02*
X5475253Y-18910960D01*
X5475253Y-18910960D02*
X5456206Y-18920484D01*
X5456206Y-18920484D02*
X5427634Y-18920484D01*
X5608587Y-18920484D02*
X5589539Y-18910960D01*
X5589539Y-18910960D02*
X5580015Y-18891912D01*
X5580015Y-18891912D02*
X5580015Y-18720484D01*
X5760968Y-18910960D02*
X5741920Y-18920484D01*
X5741920Y-18920484D02*
X5703825Y-18920484D01*
X5703825Y-18920484D02*
X5684777Y-18910960D01*
X5684777Y-18910960D02*
X5675253Y-18891912D01*
X5675253Y-18891912D02*
X5675253Y-18815722D01*
X5675253Y-18815722D02*
X5684777Y-18796674D01*
X5684777Y-18796674D02*
X5703825Y-18787150D01*
X5703825Y-18787150D02*
X5741920Y-18787150D01*
X5741920Y-18787150D02*
X5760968Y-18796674D01*
X5760968Y-18796674D02*
X5770491Y-18815722D01*
X5770491Y-18815722D02*
X5770491Y-18834770D01*
X5770491Y-18834770D02*
X5675253Y-18853817D01*
X5846682Y-18910960D02*
X5865730Y-18920484D01*
X5865730Y-18920484D02*
X5903825Y-18920484D01*
X5903825Y-18920484D02*
X5922872Y-18910960D01*
X5922872Y-18910960D02*
X5932396Y-18891912D01*
X5932396Y-18891912D02*
X5932396Y-18882389D01*
X5932396Y-18882389D02*
X5922872Y-18863341D01*
X5922872Y-18863341D02*
X5903825Y-18853817D01*
X5903825Y-18853817D02*
X5875253Y-18853817D01*
X5875253Y-18853817D02*
X5856206Y-18844293D01*
X5856206Y-18844293D02*
X5846682Y-18825246D01*
X5846682Y-18825246D02*
X5846682Y-18815722D01*
X5846682Y-18815722D02*
X5856206Y-18796674D01*
X5856206Y-18796674D02*
X5875253Y-18787150D01*
X5875253Y-18787150D02*
X5903825Y-18787150D01*
X5903825Y-18787150D02*
X5922872Y-18796674D01*
X5999063Y-18996674D02*
X6008587Y-18987150D01*
X6008587Y-18987150D02*
X6027634Y-18958579D01*
X6027634Y-18958579D02*
X6037158Y-18939531D01*
X6037158Y-18939531D02*
X6046682Y-18910960D01*
X6046682Y-18910960D02*
X6056206Y-18863341D01*
X6056206Y-18863341D02*
X6056206Y-18825246D01*
X6056206Y-18825246D02*
X6046682Y-18777627D01*
X6046682Y-18777627D02*
X6037158Y-18749055D01*
X6037158Y-18749055D02*
X6027634Y-18730008D01*
X6027634Y-18730008D02*
X6008587Y-18701436D01*
X6008587Y-18701436D02*
X5999063Y-18691912D01*
M02*
