G04 #@! TF.GenerationSoftware,KiCad,Pcbnew,8.0.5*
G04 #@! TF.CreationDate,2024-12-19T18:07:51+01:00*
G04 #@! TF.ProjectId,buck-boost-xp,6275636b-2d62-46f6-9f73-742d78702e6b,rev?*
G04 #@! TF.SameCoordinates,Original*
G04 #@! TF.FileFunction,Soldermask,Top*
G04 #@! TF.FilePolarity,Negative*
%FSLAX46Y46*%
G04 Gerber Fmt 4.6, Leading zero omitted, Abs format (unit mm)*
G04 Created by KiCad (PCBNEW 8.0.5) date 2024-12-19 18:07:51*
%MOMM*%
%LPD*%
G01*
G04 APERTURE LIST*
%ADD10R,1.700000X1.700000*%
%ADD11O,1.700000X1.700000*%
%ADD12R,1.905000X2.000000*%
%ADD13O,1.905000X2.000000*%
%ADD14R,2.100000X2.600000*%
%ADD15R,2.400000X2.400000*%
%ADD16C,2.400000*%
%ADD17C,12.800000*%
%ADD18R,1.550000X0.600000*%
%ADD19R,2.600000X3.100000*%
%ADD20C,3.200000*%
%ADD21R,1.500000X1.500000*%
%ADD22C,1.500000*%
%ADD23C,1.400000*%
%ADD24C,3.000000*%
%ADD25C,2.000000*%
%ADD26R,2.900000X5.400000*%
%ADD27R,2.600000X2.100000*%
%ADD28R,2.918000X2.600000*%
G04 APERTURE END LIST*
G36*
G01*
X229810000Y-101291600D02*
X229810000Y-102241600D01*
G75*
G02*
X229560000Y-102491600I-250000J0D01*
G01*
X228885000Y-102491600D01*
G75*
G02*
X228635000Y-102241600I0J250000D01*
G01*
X228635000Y-101291600D01*
G75*
G02*
X228885000Y-101041600I250000J0D01*
G01*
X229560000Y-101041600D01*
G75*
G02*
X229810000Y-101291600I0J-250000D01*
G01*
G37*
G36*
G01*
X227735000Y-101291600D02*
X227735000Y-102241600D01*
G75*
G02*
X227485000Y-102491600I-250000J0D01*
G01*
X226810000Y-102491600D01*
G75*
G02*
X226560000Y-102241600I0J250000D01*
G01*
X226560000Y-101291600D01*
G75*
G02*
X226810000Y-101041600I250000J0D01*
G01*
X227485000Y-101041600D01*
G75*
G02*
X227735000Y-101291600I0J-250000D01*
G01*
G37*
G36*
G01*
X111400000Y-99202600D02*
X111400000Y-100152600D01*
G75*
G02*
X111150000Y-100402600I-250000J0D01*
G01*
X110475000Y-100402600D01*
G75*
G02*
X110225000Y-100152600I0J250000D01*
G01*
X110225000Y-99202600D01*
G75*
G02*
X110475000Y-98952600I250000J0D01*
G01*
X111150000Y-98952600D01*
G75*
G02*
X111400000Y-99202600I0J-250000D01*
G01*
G37*
G36*
G01*
X109325000Y-99202600D02*
X109325000Y-100152600D01*
G75*
G02*
X109075000Y-100402600I-250000J0D01*
G01*
X108400000Y-100402600D01*
G75*
G02*
X108150000Y-100152600I0J250000D01*
G01*
X108150000Y-99202600D01*
G75*
G02*
X108400000Y-98952600I250000J0D01*
G01*
X109075000Y-98952600D01*
G75*
G02*
X109325000Y-99202600I0J-250000D01*
G01*
G37*
G36*
G01*
X63760000Y-87605000D02*
X64710000Y-87605000D01*
G75*
G02*
X64960000Y-87855000I0J-250000D01*
G01*
X64960000Y-88530000D01*
G75*
G02*
X64710000Y-88780000I-250000J0D01*
G01*
X63760000Y-88780000D01*
G75*
G02*
X63510000Y-88530000I0J250000D01*
G01*
X63510000Y-87855000D01*
G75*
G02*
X63760000Y-87605000I250000J0D01*
G01*
G37*
G36*
G01*
X63760000Y-89680000D02*
X64710000Y-89680000D01*
G75*
G02*
X64960000Y-89930000I0J-250000D01*
G01*
X64960000Y-90605000D01*
G75*
G02*
X64710000Y-90855000I-250000J0D01*
G01*
X63760000Y-90855000D01*
G75*
G02*
X63510000Y-90605000I0J250000D01*
G01*
X63510000Y-89930000D01*
G75*
G02*
X63760000Y-89680000I250000J0D01*
G01*
G37*
G36*
G01*
X197511734Y-100154325D02*
X197511734Y-99204325D01*
G75*
G02*
X197761734Y-98954325I250000J0D01*
G01*
X198436734Y-98954325D01*
G75*
G02*
X198686734Y-99204325I0J-250000D01*
G01*
X198686734Y-100154325D01*
G75*
G02*
X198436734Y-100404325I-250000J0D01*
G01*
X197761734Y-100404325D01*
G75*
G02*
X197511734Y-100154325I0J250000D01*
G01*
G37*
G36*
G01*
X199586734Y-100154325D02*
X199586734Y-99204325D01*
G75*
G02*
X199836734Y-98954325I250000J0D01*
G01*
X200511734Y-98954325D01*
G75*
G02*
X200761734Y-99204325I0J-250000D01*
G01*
X200761734Y-100154325D01*
G75*
G02*
X200511734Y-100404325I-250000J0D01*
G01*
X199836734Y-100404325D01*
G75*
G02*
X199586734Y-100154325I0J250000D01*
G01*
G37*
G36*
G01*
X81827300Y-100152600D02*
X81827300Y-99202600D01*
G75*
G02*
X82077300Y-98952600I250000J0D01*
G01*
X82752300Y-98952600D01*
G75*
G02*
X83002300Y-99202600I0J-250000D01*
G01*
X83002300Y-100152600D01*
G75*
G02*
X82752300Y-100402600I-250000J0D01*
G01*
X82077300Y-100402600D01*
G75*
G02*
X81827300Y-100152600I0J250000D01*
G01*
G37*
G36*
G01*
X83902300Y-100152600D02*
X83902300Y-99202600D01*
G75*
G02*
X84152300Y-98952600I250000J0D01*
G01*
X84827300Y-98952600D01*
G75*
G02*
X85077300Y-99202600I0J-250000D01*
G01*
X85077300Y-100152600D01*
G75*
G02*
X84827300Y-100402600I-250000J0D01*
G01*
X84152300Y-100402600D01*
G75*
G02*
X83902300Y-100152600I0J250000D01*
G01*
G37*
D10*
X204165000Y-56840000D03*
D11*
X206705000Y-56840000D03*
X209245000Y-56840000D03*
G36*
G01*
X92915000Y-107760967D02*
X92915000Y-106810967D01*
G75*
G02*
X93165000Y-106560967I250000J0D01*
G01*
X93840000Y-106560967D01*
G75*
G02*
X94090000Y-106810967I0J-250000D01*
G01*
X94090000Y-107760967D01*
G75*
G02*
X93840000Y-108010967I-250000J0D01*
G01*
X93165000Y-108010967D01*
G75*
G02*
X92915000Y-107760967I0J250000D01*
G01*
G37*
G36*
G01*
X94990000Y-107760967D02*
X94990000Y-106810967D01*
G75*
G02*
X95240000Y-106560967I250000J0D01*
G01*
X95915000Y-106560967D01*
G75*
G02*
X96165000Y-106810967I0J-250000D01*
G01*
X96165000Y-107760967D01*
G75*
G02*
X95915000Y-108010967I-250000J0D01*
G01*
X95240000Y-108010967D01*
G75*
G02*
X94990000Y-107760967I0J250000D01*
G01*
G37*
D12*
X114215200Y-115874200D03*
D13*
X116755200Y-115874200D03*
X119295200Y-115874200D03*
D14*
X209409234Y-101009300D03*
X214309234Y-101009300D03*
D15*
X216040000Y-149306660D03*
D16*
X216040000Y-156806660D03*
G36*
G01*
X193353934Y-105686025D02*
X193353934Y-104786025D01*
G75*
G02*
X193603934Y-104536025I250000J0D01*
G01*
X194303934Y-104536025D01*
G75*
G02*
X194553934Y-104786025I0J-250000D01*
G01*
X194553934Y-105686025D01*
G75*
G02*
X194303934Y-105936025I-250000J0D01*
G01*
X193603934Y-105936025D01*
G75*
G02*
X193353934Y-105686025I0J250000D01*
G01*
G37*
G36*
G01*
X195353934Y-105686025D02*
X195353934Y-104786025D01*
G75*
G02*
X195603934Y-104536025I250000J0D01*
G01*
X196303934Y-104536025D01*
G75*
G02*
X196553934Y-104786025I0J-250000D01*
G01*
X196553934Y-105686025D01*
G75*
G02*
X196303934Y-105936025I-250000J0D01*
G01*
X195603934Y-105936025D01*
G75*
G02*
X195353934Y-105686025I0J250000D01*
G01*
G37*
G36*
G01*
X36565000Y-61962500D02*
X37515000Y-61962500D01*
G75*
G02*
X37765000Y-62212500I0J-250000D01*
G01*
X37765000Y-62887500D01*
G75*
G02*
X37515000Y-63137500I-250000J0D01*
G01*
X36565000Y-63137500D01*
G75*
G02*
X36315000Y-62887500I0J250000D01*
G01*
X36315000Y-62212500D01*
G75*
G02*
X36565000Y-61962500I250000J0D01*
G01*
G37*
G36*
G01*
X36565000Y-64037500D02*
X37515000Y-64037500D01*
G75*
G02*
X37765000Y-64287500I0J-250000D01*
G01*
X37765000Y-64962500D01*
G75*
G02*
X37515000Y-65212500I-250000J0D01*
G01*
X36565000Y-65212500D01*
G75*
G02*
X36315000Y-64962500I0J250000D01*
G01*
X36315000Y-64287500D01*
G75*
G02*
X36565000Y-64037500I250000J0D01*
G01*
G37*
D10*
X130890000Y-106540000D03*
D15*
X66290000Y-149306660D03*
D16*
X66290000Y-156806660D03*
G36*
G01*
X44707100Y-83440000D02*
X45607100Y-83440000D01*
G75*
G02*
X45857100Y-83690000I0J-250000D01*
G01*
X45857100Y-84390000D01*
G75*
G02*
X45607100Y-84640000I-250000J0D01*
G01*
X44707100Y-84640000D01*
G75*
G02*
X44457100Y-84390000I0J250000D01*
G01*
X44457100Y-83690000D01*
G75*
G02*
X44707100Y-83440000I250000J0D01*
G01*
G37*
G36*
G01*
X44707100Y-85440000D02*
X45607100Y-85440000D01*
G75*
G02*
X45857100Y-85690000I0J-250000D01*
G01*
X45857100Y-86390000D01*
G75*
G02*
X45607100Y-86640000I-250000J0D01*
G01*
X44707100Y-86640000D01*
G75*
G02*
X44457100Y-86390000I0J250000D01*
G01*
X44457100Y-85690000D01*
G75*
G02*
X44707100Y-85440000I250000J0D01*
G01*
G37*
G36*
G01*
X151907500Y-93745000D02*
X151907500Y-94695000D01*
G75*
G02*
X151657500Y-94945000I-250000J0D01*
G01*
X150982500Y-94945000D01*
G75*
G02*
X150732500Y-94695000I0J250000D01*
G01*
X150732500Y-93745000D01*
G75*
G02*
X150982500Y-93495000I250000J0D01*
G01*
X151657500Y-93495000D01*
G75*
G02*
X151907500Y-93745000I0J-250000D01*
G01*
G37*
G36*
G01*
X149832500Y-93745000D02*
X149832500Y-94695000D01*
G75*
G02*
X149582500Y-94945000I-250000J0D01*
G01*
X148907500Y-94945000D01*
G75*
G02*
X148657500Y-94695000I0J250000D01*
G01*
X148657500Y-93745000D01*
G75*
G02*
X148907500Y-93495000I250000J0D01*
G01*
X149582500Y-93495000D01*
G75*
G02*
X149832500Y-93745000I0J-250000D01*
G01*
G37*
G36*
G01*
X179696200Y-99185400D02*
X179696200Y-100135400D01*
G75*
G02*
X179446200Y-100385400I-250000J0D01*
G01*
X178771200Y-100385400D01*
G75*
G02*
X178521200Y-100135400I0J250000D01*
G01*
X178521200Y-99185400D01*
G75*
G02*
X178771200Y-98935400I250000J0D01*
G01*
X179446200Y-98935400D01*
G75*
G02*
X179696200Y-99185400I0J-250000D01*
G01*
G37*
G36*
G01*
X177621200Y-99185400D02*
X177621200Y-100135400D01*
G75*
G02*
X177371200Y-100385400I-250000J0D01*
G01*
X176696200Y-100385400D01*
G75*
G02*
X176446200Y-100135400I0J250000D01*
G01*
X176446200Y-99185400D01*
G75*
G02*
X176696200Y-98935400I250000J0D01*
G01*
X177371200Y-98935400D01*
G75*
G02*
X177621200Y-99185400I0J-250000D01*
G01*
G37*
G36*
G01*
X180629000Y-101635968D02*
X180629000Y-100685968D01*
G75*
G02*
X180879000Y-100435968I250000J0D01*
G01*
X181554000Y-100435968D01*
G75*
G02*
X181804000Y-100685968I0J-250000D01*
G01*
X181804000Y-101635968D01*
G75*
G02*
X181554000Y-101885968I-250000J0D01*
G01*
X180879000Y-101885968D01*
G75*
G02*
X180629000Y-101635968I0J250000D01*
G01*
G37*
G36*
G01*
X182704000Y-101635968D02*
X182704000Y-100685968D01*
G75*
G02*
X182954000Y-100435968I250000J0D01*
G01*
X183629000Y-100435968D01*
G75*
G02*
X183879000Y-100685968I0J-250000D01*
G01*
X183879000Y-101635968D01*
G75*
G02*
X183629000Y-101885968I-250000J0D01*
G01*
X182954000Y-101885968D01*
G75*
G02*
X182704000Y-101635968I0J250000D01*
G01*
G37*
G36*
G01*
X59110400Y-99148400D02*
X60010400Y-99148400D01*
G75*
G02*
X60260400Y-99398400I0J-250000D01*
G01*
X60260400Y-100098400D01*
G75*
G02*
X60010400Y-100348400I-250000J0D01*
G01*
X59110400Y-100348400D01*
G75*
G02*
X58860400Y-100098400I0J250000D01*
G01*
X58860400Y-99398400D01*
G75*
G02*
X59110400Y-99148400I250000J0D01*
G01*
G37*
G36*
G01*
X59110400Y-101148400D02*
X60010400Y-101148400D01*
G75*
G02*
X60260400Y-101398400I0J-250000D01*
G01*
X60260400Y-102098400D01*
G75*
G02*
X60010400Y-102348400I-250000J0D01*
G01*
X59110400Y-102348400D01*
G75*
G02*
X58860400Y-102098400I0J250000D01*
G01*
X58860400Y-101398400D01*
G75*
G02*
X59110400Y-101148400I250000J0D01*
G01*
G37*
G36*
G01*
X260667500Y-87640350D02*
X261567500Y-87640350D01*
G75*
G02*
X261817500Y-87890350I0J-250000D01*
G01*
X261817500Y-88590350D01*
G75*
G02*
X261567500Y-88840350I-250000J0D01*
G01*
X260667500Y-88840350D01*
G75*
G02*
X260417500Y-88590350I0J250000D01*
G01*
X260417500Y-87890350D01*
G75*
G02*
X260667500Y-87640350I250000J0D01*
G01*
G37*
G36*
G01*
X260667500Y-89640350D02*
X261567500Y-89640350D01*
G75*
G02*
X261817500Y-89890350I0J-250000D01*
G01*
X261817500Y-90590350D01*
G75*
G02*
X261567500Y-90840350I-250000J0D01*
G01*
X260667500Y-90840350D01*
G75*
G02*
X260417500Y-90590350I0J250000D01*
G01*
X260417500Y-89890350D01*
G75*
G02*
X260667500Y-89640350I250000J0D01*
G01*
G37*
G36*
G01*
X247837100Y-91765000D02*
X247837100Y-92665000D01*
G75*
G02*
X247587100Y-92915000I-250000J0D01*
G01*
X246887100Y-92915000D01*
G75*
G02*
X246637100Y-92665000I0J250000D01*
G01*
X246637100Y-91765000D01*
G75*
G02*
X246887100Y-91515000I250000J0D01*
G01*
X247587100Y-91515000D01*
G75*
G02*
X247837100Y-91765000I0J-250000D01*
G01*
G37*
G36*
G01*
X245837100Y-91765000D02*
X245837100Y-92665000D01*
G75*
G02*
X245587100Y-92915000I-250000J0D01*
G01*
X244887100Y-92915000D01*
G75*
G02*
X244637100Y-92665000I0J250000D01*
G01*
X244637100Y-91765000D01*
G75*
G02*
X244887100Y-91515000I250000J0D01*
G01*
X245587100Y-91515000D01*
G75*
G02*
X245837100Y-91765000I0J-250000D01*
G01*
G37*
G36*
G01*
X232950000Y-107421480D02*
X232950000Y-108371480D01*
G75*
G02*
X232700000Y-108621480I-250000J0D01*
G01*
X232025000Y-108621480D01*
G75*
G02*
X231775000Y-108371480I0J250000D01*
G01*
X231775000Y-107421480D01*
G75*
G02*
X232025000Y-107171480I250000J0D01*
G01*
X232700000Y-107171480D01*
G75*
G02*
X232950000Y-107421480I0J-250000D01*
G01*
G37*
G36*
G01*
X230875000Y-107421480D02*
X230875000Y-108371480D01*
G75*
G02*
X230625000Y-108621480I-250000J0D01*
G01*
X229950000Y-108621480D01*
G75*
G02*
X229700000Y-108371480I0J250000D01*
G01*
X229700000Y-107421480D01*
G75*
G02*
X229950000Y-107171480I250000J0D01*
G01*
X230625000Y-107171480D01*
G75*
G02*
X230875000Y-107421480I0J-250000D01*
G01*
G37*
G36*
G01*
X46957100Y-99315000D02*
X46957100Y-100215000D01*
G75*
G02*
X46707100Y-100465000I-250000J0D01*
G01*
X46007100Y-100465000D01*
G75*
G02*
X45757100Y-100215000I0J250000D01*
G01*
X45757100Y-99315000D01*
G75*
G02*
X46007100Y-99065000I250000J0D01*
G01*
X46707100Y-99065000D01*
G75*
G02*
X46957100Y-99315000I0J-250000D01*
G01*
G37*
G36*
G01*
X44957100Y-99315000D02*
X44957100Y-100215000D01*
G75*
G02*
X44707100Y-100465000I-250000J0D01*
G01*
X44007100Y-100465000D01*
G75*
G02*
X43757100Y-100215000I0J250000D01*
G01*
X43757100Y-99315000D01*
G75*
G02*
X44007100Y-99065000I250000J0D01*
G01*
X44707100Y-99065000D01*
G75*
G02*
X44957100Y-99315000I0J-250000D01*
G01*
G37*
G36*
G01*
X64040400Y-99315000D02*
X64040400Y-100215000D01*
G75*
G02*
X63790400Y-100465000I-250000J0D01*
G01*
X63090400Y-100465000D01*
G75*
G02*
X62840400Y-100215000I0J250000D01*
G01*
X62840400Y-99315000D01*
G75*
G02*
X63090400Y-99065000I250000J0D01*
G01*
X63790400Y-99065000D01*
G75*
G02*
X64040400Y-99315000I0J-250000D01*
G01*
G37*
G36*
G01*
X62040400Y-99315000D02*
X62040400Y-100215000D01*
G75*
G02*
X61790400Y-100465000I-250000J0D01*
G01*
X61090400Y-100465000D01*
G75*
G02*
X60840400Y-100215000I0J250000D01*
G01*
X60840400Y-99315000D01*
G75*
G02*
X61090400Y-99065000I250000J0D01*
G01*
X61790400Y-99065000D01*
G75*
G02*
X62040400Y-99315000I0J-250000D01*
G01*
G37*
G36*
G01*
X92915000Y-101635968D02*
X92915000Y-100685968D01*
G75*
G02*
X93165000Y-100435968I250000J0D01*
G01*
X93840000Y-100435968D01*
G75*
G02*
X94090000Y-100685968I0J-250000D01*
G01*
X94090000Y-101635968D01*
G75*
G02*
X93840000Y-101885968I-250000J0D01*
G01*
X93165000Y-101885968D01*
G75*
G02*
X92915000Y-101635968I0J250000D01*
G01*
G37*
G36*
G01*
X94990000Y-101635968D02*
X94990000Y-100685968D01*
G75*
G02*
X95240000Y-100435968I250000J0D01*
G01*
X95915000Y-100435968D01*
G75*
G02*
X96165000Y-100685968I0J-250000D01*
G01*
X96165000Y-101635968D01*
G75*
G02*
X95915000Y-101885968I-250000J0D01*
G01*
X95240000Y-101885968D01*
G75*
G02*
X94990000Y-101635968I0J250000D01*
G01*
G37*
G36*
G01*
X80340600Y-100135000D02*
X80340600Y-100885000D01*
G75*
G02*
X80115600Y-101110000I-225000J0D01*
G01*
X79665600Y-101110000D01*
G75*
G02*
X79440600Y-100885000I0J225000D01*
G01*
X79440600Y-100135000D01*
G75*
G02*
X79665600Y-99910000I225000J0D01*
G01*
X80115600Y-99910000D01*
G75*
G02*
X80340600Y-100135000I0J-225000D01*
G01*
G37*
G36*
G01*
X77040600Y-100135000D02*
X77040600Y-100885000D01*
G75*
G02*
X76815600Y-101110000I-225000J0D01*
G01*
X76365600Y-101110000D01*
G75*
G02*
X76140600Y-100885000I0J225000D01*
G01*
X76140600Y-100135000D01*
G75*
G02*
X76365600Y-99910000I225000J0D01*
G01*
X76815600Y-99910000D01*
G75*
G02*
X77040600Y-100135000I0J-225000D01*
G01*
G37*
G36*
G01*
X40445000Y-90590000D02*
X40445000Y-89640000D01*
G75*
G02*
X40695000Y-89390000I250000J0D01*
G01*
X41370000Y-89390000D01*
G75*
G02*
X41620000Y-89640000I0J-250000D01*
G01*
X41620000Y-90590000D01*
G75*
G02*
X41370000Y-90840000I-250000J0D01*
G01*
X40695000Y-90840000D01*
G75*
G02*
X40445000Y-90590000I0J250000D01*
G01*
G37*
G36*
G01*
X42520000Y-90590000D02*
X42520000Y-89640000D01*
G75*
G02*
X42770000Y-89390000I250000J0D01*
G01*
X43445000Y-89390000D01*
G75*
G02*
X43695000Y-89640000I0J-250000D01*
G01*
X43695000Y-90590000D01*
G75*
G02*
X43445000Y-90840000I-250000J0D01*
G01*
X42770000Y-90840000D01*
G75*
G02*
X42520000Y-90590000I0J250000D01*
G01*
G37*
G36*
G01*
X233614600Y-99291600D02*
X233614600Y-100241600D01*
G75*
G02*
X233364600Y-100491600I-250000J0D01*
G01*
X232689600Y-100491600D01*
G75*
G02*
X232439600Y-100241600I0J250000D01*
G01*
X232439600Y-99291600D01*
G75*
G02*
X232689600Y-99041600I250000J0D01*
G01*
X233364600Y-99041600D01*
G75*
G02*
X233614600Y-99291600I0J-250000D01*
G01*
G37*
G36*
G01*
X231539600Y-99291600D02*
X231539600Y-100241600D01*
G75*
G02*
X231289600Y-100491600I-250000J0D01*
G01*
X230614600Y-100491600D01*
G75*
G02*
X230364600Y-100241600I0J250000D01*
G01*
X230364600Y-99291600D01*
G75*
G02*
X230614600Y-99041600I250000J0D01*
G01*
X231289600Y-99041600D01*
G75*
G02*
X231539600Y-99291600I0J-250000D01*
G01*
G37*
G36*
G01*
X34265000Y-69157500D02*
X35165000Y-69157500D01*
G75*
G02*
X35415000Y-69407500I0J-250000D01*
G01*
X35415000Y-70107500D01*
G75*
G02*
X35165000Y-70357500I-250000J0D01*
G01*
X34265000Y-70357500D01*
G75*
G02*
X34015000Y-70107500I0J250000D01*
G01*
X34015000Y-69407500D01*
G75*
G02*
X34265000Y-69157500I250000J0D01*
G01*
G37*
G36*
G01*
X34265000Y-71157500D02*
X35165000Y-71157500D01*
G75*
G02*
X35415000Y-71407500I0J-250000D01*
G01*
X35415000Y-72107500D01*
G75*
G02*
X35165000Y-72357500I-250000J0D01*
G01*
X34265000Y-72357500D01*
G75*
G02*
X34015000Y-72107500I0J250000D01*
G01*
X34015000Y-71407500D01*
G75*
G02*
X34265000Y-71157500I250000J0D01*
G01*
G37*
G36*
G01*
X54735000Y-116490000D02*
X54435000Y-116490000D01*
G75*
G02*
X54285000Y-116340000I0J150000D01*
G01*
X54285000Y-114690000D01*
G75*
G02*
X54435000Y-114540000I150000J0D01*
G01*
X54735000Y-114540000D01*
G75*
G02*
X54885000Y-114690000I0J-150000D01*
G01*
X54885000Y-116340000D01*
G75*
G02*
X54735000Y-116490000I-150000J0D01*
G01*
G37*
G36*
G01*
X56005000Y-116490000D02*
X55705000Y-116490000D01*
G75*
G02*
X55555000Y-116340000I0J150000D01*
G01*
X55555000Y-114690000D01*
G75*
G02*
X55705000Y-114540000I150000J0D01*
G01*
X56005000Y-114540000D01*
G75*
G02*
X56155000Y-114690000I0J-150000D01*
G01*
X56155000Y-116340000D01*
G75*
G02*
X56005000Y-116490000I-150000J0D01*
G01*
G37*
G36*
G01*
X57275000Y-116490000D02*
X56975000Y-116490000D01*
G75*
G02*
X56825000Y-116340000I0J150000D01*
G01*
X56825000Y-114690000D01*
G75*
G02*
X56975000Y-114540000I150000J0D01*
G01*
X57275000Y-114540000D01*
G75*
G02*
X57425000Y-114690000I0J-150000D01*
G01*
X57425000Y-116340000D01*
G75*
G02*
X57275000Y-116490000I-150000J0D01*
G01*
G37*
G36*
G01*
X58545000Y-116490000D02*
X58245000Y-116490000D01*
G75*
G02*
X58095000Y-116340000I0J150000D01*
G01*
X58095000Y-114690000D01*
G75*
G02*
X58245000Y-114540000I150000J0D01*
G01*
X58545000Y-114540000D01*
G75*
G02*
X58695000Y-114690000I0J-150000D01*
G01*
X58695000Y-116340000D01*
G75*
G02*
X58545000Y-116490000I-150000J0D01*
G01*
G37*
G36*
G01*
X58545000Y-111540000D02*
X58245000Y-111540000D01*
G75*
G02*
X58095000Y-111390000I0J150000D01*
G01*
X58095000Y-109740000D01*
G75*
G02*
X58245000Y-109590000I150000J0D01*
G01*
X58545000Y-109590000D01*
G75*
G02*
X58695000Y-109740000I0J-150000D01*
G01*
X58695000Y-111390000D01*
G75*
G02*
X58545000Y-111540000I-150000J0D01*
G01*
G37*
G36*
G01*
X57275000Y-111540000D02*
X56975000Y-111540000D01*
G75*
G02*
X56825000Y-111390000I0J150000D01*
G01*
X56825000Y-109740000D01*
G75*
G02*
X56975000Y-109590000I150000J0D01*
G01*
X57275000Y-109590000D01*
G75*
G02*
X57425000Y-109740000I0J-150000D01*
G01*
X57425000Y-111390000D01*
G75*
G02*
X57275000Y-111540000I-150000J0D01*
G01*
G37*
G36*
G01*
X56005000Y-111540000D02*
X55705000Y-111540000D01*
G75*
G02*
X55555000Y-111390000I0J150000D01*
G01*
X55555000Y-109740000D01*
G75*
G02*
X55705000Y-109590000I150000J0D01*
G01*
X56005000Y-109590000D01*
G75*
G02*
X56155000Y-109740000I0J-150000D01*
G01*
X56155000Y-111390000D01*
G75*
G02*
X56005000Y-111540000I-150000J0D01*
G01*
G37*
G36*
G01*
X54735000Y-111540000D02*
X54435000Y-111540000D01*
G75*
G02*
X54285000Y-111390000I0J150000D01*
G01*
X54285000Y-109740000D01*
G75*
G02*
X54435000Y-109590000I150000J0D01*
G01*
X54735000Y-109590000D01*
G75*
G02*
X54885000Y-109740000I0J-150000D01*
G01*
X54885000Y-111390000D01*
G75*
G02*
X54735000Y-111540000I-150000J0D01*
G01*
G37*
G36*
G01*
X232670000Y-116246480D02*
X232370000Y-116246480D01*
G75*
G02*
X232220000Y-116096480I0J150000D01*
G01*
X232220000Y-114446480D01*
G75*
G02*
X232370000Y-114296480I150000J0D01*
G01*
X232670000Y-114296480D01*
G75*
G02*
X232820000Y-114446480I0J-150000D01*
G01*
X232820000Y-116096480D01*
G75*
G02*
X232670000Y-116246480I-150000J0D01*
G01*
G37*
G36*
G01*
X233940000Y-116246480D02*
X233640000Y-116246480D01*
G75*
G02*
X233490000Y-116096480I0J150000D01*
G01*
X233490000Y-114446480D01*
G75*
G02*
X233640000Y-114296480I150000J0D01*
G01*
X233940000Y-114296480D01*
G75*
G02*
X234090000Y-114446480I0J-150000D01*
G01*
X234090000Y-116096480D01*
G75*
G02*
X233940000Y-116246480I-150000J0D01*
G01*
G37*
G36*
G01*
X235210000Y-116246480D02*
X234910000Y-116246480D01*
G75*
G02*
X234760000Y-116096480I0J150000D01*
G01*
X234760000Y-114446480D01*
G75*
G02*
X234910000Y-114296480I150000J0D01*
G01*
X235210000Y-114296480D01*
G75*
G02*
X235360000Y-114446480I0J-150000D01*
G01*
X235360000Y-116096480D01*
G75*
G02*
X235210000Y-116246480I-150000J0D01*
G01*
G37*
G36*
G01*
X236480000Y-116246480D02*
X236180000Y-116246480D01*
G75*
G02*
X236030000Y-116096480I0J150000D01*
G01*
X236030000Y-114446480D01*
G75*
G02*
X236180000Y-114296480I150000J0D01*
G01*
X236480000Y-114296480D01*
G75*
G02*
X236630000Y-114446480I0J-150000D01*
G01*
X236630000Y-116096480D01*
G75*
G02*
X236480000Y-116246480I-150000J0D01*
G01*
G37*
G36*
G01*
X236480000Y-111296480D02*
X236180000Y-111296480D01*
G75*
G02*
X236030000Y-111146480I0J150000D01*
G01*
X236030000Y-109496480D01*
G75*
G02*
X236180000Y-109346480I150000J0D01*
G01*
X236480000Y-109346480D01*
G75*
G02*
X236630000Y-109496480I0J-150000D01*
G01*
X236630000Y-111146480D01*
G75*
G02*
X236480000Y-111296480I-150000J0D01*
G01*
G37*
G36*
G01*
X235210000Y-111296480D02*
X234910000Y-111296480D01*
G75*
G02*
X234760000Y-111146480I0J150000D01*
G01*
X234760000Y-109496480D01*
G75*
G02*
X234910000Y-109346480I150000J0D01*
G01*
X235210000Y-109346480D01*
G75*
G02*
X235360000Y-109496480I0J-150000D01*
G01*
X235360000Y-111146480D01*
G75*
G02*
X235210000Y-111296480I-150000J0D01*
G01*
G37*
G36*
G01*
X233940000Y-111296480D02*
X233640000Y-111296480D01*
G75*
G02*
X233490000Y-111146480I0J150000D01*
G01*
X233490000Y-109496480D01*
G75*
G02*
X233640000Y-109346480I150000J0D01*
G01*
X233940000Y-109346480D01*
G75*
G02*
X234090000Y-109496480I0J-150000D01*
G01*
X234090000Y-111146480D01*
G75*
G02*
X233940000Y-111296480I-150000J0D01*
G01*
G37*
G36*
G01*
X232670000Y-111296480D02*
X232370000Y-111296480D01*
G75*
G02*
X232220000Y-111146480I0J150000D01*
G01*
X232220000Y-109496480D01*
G75*
G02*
X232370000Y-109346480I150000J0D01*
G01*
X232670000Y-109346480D01*
G75*
G02*
X232820000Y-109496480I0J-150000D01*
G01*
X232820000Y-111146480D01*
G75*
G02*
X232670000Y-111296480I-150000J0D01*
G01*
G37*
D17*
X20290000Y-128740000D03*
D18*
X32840000Y-63642500D03*
X32840000Y-64912500D03*
X32840000Y-66182500D03*
X32840000Y-67452500D03*
X27440000Y-67452500D03*
X27440000Y-66182500D03*
X27440000Y-64912500D03*
X27440000Y-63642500D03*
D19*
X30140000Y-65547500D03*
D16*
X202790000Y-154390000D03*
X202790000Y-144290000D03*
X202790000Y-134090000D03*
X180290000Y-144290000D03*
X175290000Y-144290000D03*
X165290000Y-154390000D03*
X165290000Y-144290000D03*
X165290000Y-134090000D03*
G36*
G01*
X124560000Y-97759300D02*
X124560000Y-98509300D01*
G75*
G02*
X124335000Y-98734300I-225000J0D01*
G01*
X123885000Y-98734300D01*
G75*
G02*
X123660000Y-98509300I0J225000D01*
G01*
X123660000Y-97759300D01*
G75*
G02*
X123885000Y-97534300I225000J0D01*
G01*
X124335000Y-97534300D01*
G75*
G02*
X124560000Y-97759300I0J-225000D01*
G01*
G37*
G36*
G01*
X121260000Y-97759300D02*
X121260000Y-98509300D01*
G75*
G02*
X121035000Y-98734300I-225000J0D01*
G01*
X120585000Y-98734300D01*
G75*
G02*
X120360000Y-98509300I0J225000D01*
G01*
X120360000Y-97759300D01*
G75*
G02*
X120585000Y-97534300I225000J0D01*
G01*
X121035000Y-97534300D01*
G75*
G02*
X121260000Y-97759300I0J-225000D01*
G01*
G37*
D10*
X26515000Y-47040000D03*
D11*
X29055000Y-47040000D03*
G36*
G01*
X109821200Y-103830000D02*
X109821200Y-103530000D01*
G75*
G02*
X109971200Y-103380000I150000J0D01*
G01*
X111421200Y-103380000D01*
G75*
G02*
X111571200Y-103530000I0J-150000D01*
G01*
X111571200Y-103830000D01*
G75*
G02*
X111421200Y-103980000I-150000J0D01*
G01*
X109971200Y-103980000D01*
G75*
G02*
X109821200Y-103830000I0J150000D01*
G01*
G37*
G36*
G01*
X109821200Y-105100000D02*
X109821200Y-104800000D01*
G75*
G02*
X109971200Y-104650000I150000J0D01*
G01*
X111421200Y-104650000D01*
G75*
G02*
X111571200Y-104800000I0J-150000D01*
G01*
X111571200Y-105100000D01*
G75*
G02*
X111421200Y-105250000I-150000J0D01*
G01*
X109971200Y-105250000D01*
G75*
G02*
X109821200Y-105100000I0J150000D01*
G01*
G37*
G36*
G01*
X109821200Y-106370000D02*
X109821200Y-106070000D01*
G75*
G02*
X109971200Y-105920000I150000J0D01*
G01*
X111421200Y-105920000D01*
G75*
G02*
X111571200Y-106070000I0J-150000D01*
G01*
X111571200Y-106370000D01*
G75*
G02*
X111421200Y-106520000I-150000J0D01*
G01*
X109971200Y-106520000D01*
G75*
G02*
X109821200Y-106370000I0J150000D01*
G01*
G37*
G36*
G01*
X109821200Y-107640000D02*
X109821200Y-107340000D01*
G75*
G02*
X109971200Y-107190000I150000J0D01*
G01*
X111421200Y-107190000D01*
G75*
G02*
X111571200Y-107340000I0J-150000D01*
G01*
X111571200Y-107640000D01*
G75*
G02*
X111421200Y-107790000I-150000J0D01*
G01*
X109971200Y-107790000D01*
G75*
G02*
X109821200Y-107640000I0J150000D01*
G01*
G37*
G36*
G01*
X114971200Y-107640000D02*
X114971200Y-107340000D01*
G75*
G02*
X115121200Y-107190000I150000J0D01*
G01*
X116571200Y-107190000D01*
G75*
G02*
X116721200Y-107340000I0J-150000D01*
G01*
X116721200Y-107640000D01*
G75*
G02*
X116571200Y-107790000I-150000J0D01*
G01*
X115121200Y-107790000D01*
G75*
G02*
X114971200Y-107640000I0J150000D01*
G01*
G37*
G36*
G01*
X114971200Y-106370000D02*
X114971200Y-106070000D01*
G75*
G02*
X115121200Y-105920000I150000J0D01*
G01*
X116571200Y-105920000D01*
G75*
G02*
X116721200Y-106070000I0J-150000D01*
G01*
X116721200Y-106370000D01*
G75*
G02*
X116571200Y-106520000I-150000J0D01*
G01*
X115121200Y-106520000D01*
G75*
G02*
X114971200Y-106370000I0J150000D01*
G01*
G37*
G36*
G01*
X114971200Y-105100000D02*
X114971200Y-104800000D01*
G75*
G02*
X115121200Y-104650000I150000J0D01*
G01*
X116571200Y-104650000D01*
G75*
G02*
X116721200Y-104800000I0J-150000D01*
G01*
X116721200Y-105100000D01*
G75*
G02*
X116571200Y-105250000I-150000J0D01*
G01*
X115121200Y-105250000D01*
G75*
G02*
X114971200Y-105100000I0J150000D01*
G01*
G37*
G36*
G01*
X114971200Y-103830000D02*
X114971200Y-103530000D01*
G75*
G02*
X115121200Y-103380000I150000J0D01*
G01*
X116571200Y-103380000D01*
G75*
G02*
X116721200Y-103530000I0J-150000D01*
G01*
X116721200Y-103830000D01*
G75*
G02*
X116571200Y-103980000I-150000J0D01*
G01*
X115121200Y-103980000D01*
G75*
G02*
X114971200Y-103830000I0J150000D01*
G01*
G37*
D17*
X20290000Y-83740000D03*
G36*
G01*
X140877900Y-90595000D02*
X140877900Y-89645000D01*
G75*
G02*
X141127900Y-89395000I250000J0D01*
G01*
X141802900Y-89395000D01*
G75*
G02*
X142052900Y-89645000I0J-250000D01*
G01*
X142052900Y-90595000D01*
G75*
G02*
X141802900Y-90845000I-250000J0D01*
G01*
X141127900Y-90845000D01*
G75*
G02*
X140877900Y-90595000I0J250000D01*
G01*
G37*
G36*
G01*
X142952900Y-90595000D02*
X142952900Y-89645000D01*
G75*
G02*
X143202900Y-89395000I250000J0D01*
G01*
X143877900Y-89395000D01*
G75*
G02*
X144127900Y-89645000I0J-250000D01*
G01*
X144127900Y-90595000D01*
G75*
G02*
X143877900Y-90845000I-250000J0D01*
G01*
X143202900Y-90845000D01*
G75*
G02*
X142952900Y-90595000I0J250000D01*
G01*
G37*
G36*
G01*
X253997900Y-99158750D02*
X254897900Y-99158750D01*
G75*
G02*
X255147900Y-99408750I0J-250000D01*
G01*
X255147900Y-100108750D01*
G75*
G02*
X254897900Y-100358750I-250000J0D01*
G01*
X253997900Y-100358750D01*
G75*
G02*
X253747900Y-100108750I0J250000D01*
G01*
X253747900Y-99408750D01*
G75*
G02*
X253997900Y-99158750I250000J0D01*
G01*
G37*
G36*
G01*
X253997900Y-101158750D02*
X254897900Y-101158750D01*
G75*
G02*
X255147900Y-101408750I0J-250000D01*
G01*
X255147900Y-102108750D01*
G75*
G02*
X254897900Y-102358750I-250000J0D01*
G01*
X253997900Y-102358750D01*
G75*
G02*
X253747900Y-102108750I0J250000D01*
G01*
X253747900Y-101408750D01*
G75*
G02*
X253997900Y-101158750I250000J0D01*
G01*
G37*
G36*
G01*
X55440000Y-47590000D02*
X56340000Y-47590000D01*
G75*
G02*
X56590000Y-47840000I0J-250000D01*
G01*
X56590000Y-48540000D01*
G75*
G02*
X56340000Y-48790000I-250000J0D01*
G01*
X55440000Y-48790000D01*
G75*
G02*
X55190000Y-48540000I0J250000D01*
G01*
X55190000Y-47840000D01*
G75*
G02*
X55440000Y-47590000I250000J0D01*
G01*
G37*
G36*
G01*
X55440000Y-49590000D02*
X56340000Y-49590000D01*
G75*
G02*
X56590000Y-49840000I0J-250000D01*
G01*
X56590000Y-50540000D01*
G75*
G02*
X56340000Y-50790000I-250000J0D01*
G01*
X55440000Y-50790000D01*
G75*
G02*
X55190000Y-50540000I0J250000D01*
G01*
X55190000Y-49840000D01*
G75*
G02*
X55440000Y-49590000I250000J0D01*
G01*
G37*
G36*
G01*
X47587100Y-98190000D02*
X47587100Y-97290000D01*
G75*
G02*
X47837100Y-97040000I250000J0D01*
G01*
X48537100Y-97040000D01*
G75*
G02*
X48787100Y-97290000I0J-250000D01*
G01*
X48787100Y-98190000D01*
G75*
G02*
X48537100Y-98440000I-250000J0D01*
G01*
X47837100Y-98440000D01*
G75*
G02*
X47587100Y-98190000I0J250000D01*
G01*
G37*
G36*
G01*
X49587100Y-98190000D02*
X49587100Y-97290000D01*
G75*
G02*
X49837100Y-97040000I250000J0D01*
G01*
X50537100Y-97040000D01*
G75*
G02*
X50787100Y-97290000I0J-250000D01*
G01*
X50787100Y-98190000D01*
G75*
G02*
X50537100Y-98440000I-250000J0D01*
G01*
X49837100Y-98440000D01*
G75*
G02*
X49587100Y-98190000I0J250000D01*
G01*
G37*
D10*
X194870134Y-94679968D03*
G36*
G01*
X46702100Y-83440000D02*
X47602100Y-83440000D01*
G75*
G02*
X47852100Y-83690000I0J-250000D01*
G01*
X47852100Y-84390000D01*
G75*
G02*
X47602100Y-84640000I-250000J0D01*
G01*
X46702100Y-84640000D01*
G75*
G02*
X46452100Y-84390000I0J250000D01*
G01*
X46452100Y-83690000D01*
G75*
G02*
X46702100Y-83440000I250000J0D01*
G01*
G37*
G36*
G01*
X46702100Y-85440000D02*
X47602100Y-85440000D01*
G75*
G02*
X47852100Y-85690000I0J-250000D01*
G01*
X47852100Y-86390000D01*
G75*
G02*
X47602100Y-86640000I-250000J0D01*
G01*
X46702100Y-86640000D01*
G75*
G02*
X46452100Y-86390000I0J250000D01*
G01*
X46452100Y-85690000D01*
G75*
G02*
X46702100Y-85440000I250000J0D01*
G01*
G37*
G36*
G01*
X241757100Y-87640000D02*
X242657100Y-87640000D01*
G75*
G02*
X242907100Y-87890000I0J-250000D01*
G01*
X242907100Y-88590000D01*
G75*
G02*
X242657100Y-88840000I-250000J0D01*
G01*
X241757100Y-88840000D01*
G75*
G02*
X241507100Y-88590000I0J250000D01*
G01*
X241507100Y-87890000D01*
G75*
G02*
X241757100Y-87640000I250000J0D01*
G01*
G37*
G36*
G01*
X241757100Y-89640000D02*
X242657100Y-89640000D01*
G75*
G02*
X242907100Y-89890000I0J-250000D01*
G01*
X242907100Y-90590000D01*
G75*
G02*
X242657100Y-90840000I-250000J0D01*
G01*
X241757100Y-90840000D01*
G75*
G02*
X241507100Y-90590000I0J250000D01*
G01*
X241507100Y-89890000D01*
G75*
G02*
X241757100Y-89640000I250000J0D01*
G01*
G37*
G36*
G01*
X245747100Y-87630000D02*
X246647100Y-87630000D01*
G75*
G02*
X246897100Y-87880000I0J-250000D01*
G01*
X246897100Y-88580000D01*
G75*
G02*
X246647100Y-88830000I-250000J0D01*
G01*
X245747100Y-88830000D01*
G75*
G02*
X245497100Y-88580000I0J250000D01*
G01*
X245497100Y-87880000D01*
G75*
G02*
X245747100Y-87630000I250000J0D01*
G01*
G37*
G36*
G01*
X245747100Y-89630000D02*
X246647100Y-89630000D01*
G75*
G02*
X246897100Y-89880000I0J-250000D01*
G01*
X246897100Y-90580000D01*
G75*
G02*
X246647100Y-90830000I-250000J0D01*
G01*
X245747100Y-90830000D01*
G75*
G02*
X245497100Y-90580000I0J250000D01*
G01*
X245497100Y-89880000D01*
G75*
G02*
X245747100Y-89630000I250000J0D01*
G01*
G37*
G36*
G01*
X273013800Y-54770000D02*
X273913800Y-54770000D01*
G75*
G02*
X274163800Y-55020000I0J-250000D01*
G01*
X274163800Y-55720000D01*
G75*
G02*
X273913800Y-55970000I-250000J0D01*
G01*
X273013800Y-55970000D01*
G75*
G02*
X272763800Y-55720000I0J250000D01*
G01*
X272763800Y-55020000D01*
G75*
G02*
X273013800Y-54770000I250000J0D01*
G01*
G37*
G36*
G01*
X273013800Y-56770000D02*
X273913800Y-56770000D01*
G75*
G02*
X274163800Y-57020000I0J-250000D01*
G01*
X274163800Y-57720000D01*
G75*
G02*
X273913800Y-57970000I-250000J0D01*
G01*
X273013800Y-57970000D01*
G75*
G02*
X272763800Y-57720000I0J250000D01*
G01*
X272763800Y-57020000D01*
G75*
G02*
X273013800Y-56770000I250000J0D01*
G01*
G37*
D14*
X120047500Y-101009300D03*
X124947500Y-101009300D03*
G36*
G01*
X237495000Y-90590000D02*
X237495000Y-89640000D01*
G75*
G02*
X237745000Y-89390000I250000J0D01*
G01*
X238420000Y-89390000D01*
G75*
G02*
X238670000Y-89640000I0J-250000D01*
G01*
X238670000Y-90590000D01*
G75*
G02*
X238420000Y-90840000I-250000J0D01*
G01*
X237745000Y-90840000D01*
G75*
G02*
X237495000Y-90590000I0J250000D01*
G01*
G37*
G36*
G01*
X239570000Y-90590000D02*
X239570000Y-89640000D01*
G75*
G02*
X239820000Y-89390000I250000J0D01*
G01*
X240495000Y-89390000D01*
G75*
G02*
X240745000Y-89640000I0J-250000D01*
G01*
X240745000Y-90590000D01*
G75*
G02*
X240495000Y-90840000I-250000J0D01*
G01*
X239820000Y-90840000D01*
G75*
G02*
X239570000Y-90590000I0J250000D01*
G01*
G37*
G36*
G01*
X67895000Y-99290000D02*
X67895000Y-100240000D01*
G75*
G02*
X67645000Y-100490000I-250000J0D01*
G01*
X66970000Y-100490000D01*
G75*
G02*
X66720000Y-100240000I0J250000D01*
G01*
X66720000Y-99290000D01*
G75*
G02*
X66970000Y-99040000I250000J0D01*
G01*
X67645000Y-99040000D01*
G75*
G02*
X67895000Y-99290000I0J-250000D01*
G01*
G37*
G36*
G01*
X65820000Y-99290000D02*
X65820000Y-100240000D01*
G75*
G02*
X65570000Y-100490000I-250000J0D01*
G01*
X64895000Y-100490000D01*
G75*
G02*
X64645000Y-100240000I0J250000D01*
G01*
X64645000Y-99290000D01*
G75*
G02*
X64895000Y-99040000I250000J0D01*
G01*
X65570000Y-99040000D01*
G75*
G02*
X65820000Y-99290000I0J-250000D01*
G01*
G37*
G36*
G01*
X38940000Y-108500000D02*
X38940000Y-107600000D01*
G75*
G02*
X39190000Y-107350000I250000J0D01*
G01*
X39890000Y-107350000D01*
G75*
G02*
X40140000Y-107600000I0J-250000D01*
G01*
X40140000Y-108500000D01*
G75*
G02*
X39890000Y-108750000I-250000J0D01*
G01*
X39190000Y-108750000D01*
G75*
G02*
X38940000Y-108500000I0J250000D01*
G01*
G37*
G36*
G01*
X40940000Y-108500000D02*
X40940000Y-107600000D01*
G75*
G02*
X41190000Y-107350000I250000J0D01*
G01*
X41890000Y-107350000D01*
G75*
G02*
X42140000Y-107600000I0J-250000D01*
G01*
X42140000Y-108500000D01*
G75*
G02*
X41890000Y-108750000I-250000J0D01*
G01*
X41190000Y-108750000D01*
G75*
G02*
X40940000Y-108500000I0J250000D01*
G01*
G37*
G36*
G01*
X73740000Y-54165000D02*
X74640000Y-54165000D01*
G75*
G02*
X74890000Y-54415000I0J-250000D01*
G01*
X74890000Y-55065000D01*
G75*
G02*
X74640000Y-55315000I-250000J0D01*
G01*
X73740000Y-55315000D01*
G75*
G02*
X73490000Y-55065000I0J250000D01*
G01*
X73490000Y-54415000D01*
G75*
G02*
X73740000Y-54165000I250000J0D01*
G01*
G37*
G36*
G01*
X73740000Y-56215000D02*
X74640000Y-56215000D01*
G75*
G02*
X74890000Y-56465000I0J-250000D01*
G01*
X74890000Y-57115000D01*
G75*
G02*
X74640000Y-57365000I-250000J0D01*
G01*
X73740000Y-57365000D01*
G75*
G02*
X73490000Y-57115000I0J250000D01*
G01*
X73490000Y-56465000D01*
G75*
G02*
X73740000Y-56215000I250000J0D01*
G01*
G37*
D20*
X265040000Y-48990000D03*
G36*
G01*
X149792500Y-87635000D02*
X150692500Y-87635000D01*
G75*
G02*
X150942500Y-87885000I0J-250000D01*
G01*
X150942500Y-88585000D01*
G75*
G02*
X150692500Y-88835000I-250000J0D01*
G01*
X149792500Y-88835000D01*
G75*
G02*
X149542500Y-88585000I0J250000D01*
G01*
X149542500Y-87885000D01*
G75*
G02*
X149792500Y-87635000I250000J0D01*
G01*
G37*
G36*
G01*
X149792500Y-89635000D02*
X150692500Y-89635000D01*
G75*
G02*
X150942500Y-89885000I0J-250000D01*
G01*
X150942500Y-90585000D01*
G75*
G02*
X150692500Y-90835000I-250000J0D01*
G01*
X149792500Y-90835000D01*
G75*
G02*
X149542500Y-90585000I0J250000D01*
G01*
X149542500Y-89885000D01*
G75*
G02*
X149792500Y-89635000I250000J0D01*
G01*
G37*
G36*
G01*
X258672500Y-83450350D02*
X259572500Y-83450350D01*
G75*
G02*
X259822500Y-83700350I0J-250000D01*
G01*
X259822500Y-84400350D01*
G75*
G02*
X259572500Y-84650350I-250000J0D01*
G01*
X258672500Y-84650350D01*
G75*
G02*
X258422500Y-84400350I0J250000D01*
G01*
X258422500Y-83700350D01*
G75*
G02*
X258672500Y-83450350I250000J0D01*
G01*
G37*
G36*
G01*
X258672500Y-85450350D02*
X259572500Y-85450350D01*
G75*
G02*
X259822500Y-85700350I0J-250000D01*
G01*
X259822500Y-86400350D01*
G75*
G02*
X259572500Y-86650350I-250000J0D01*
G01*
X258672500Y-86650350D01*
G75*
G02*
X258422500Y-86400350I0J250000D01*
G01*
X258422500Y-85700350D01*
G75*
G02*
X258672500Y-85450350I250000J0D01*
G01*
G37*
G36*
G01*
X51765000Y-106528500D02*
X51765000Y-105578500D01*
G75*
G02*
X52015000Y-105328500I250000J0D01*
G01*
X52690000Y-105328500D01*
G75*
G02*
X52940000Y-105578500I0J-250000D01*
G01*
X52940000Y-106528500D01*
G75*
G02*
X52690000Y-106778500I-250000J0D01*
G01*
X52015000Y-106778500D01*
G75*
G02*
X51765000Y-106528500I0J250000D01*
G01*
G37*
G36*
G01*
X53840000Y-106528500D02*
X53840000Y-105578500D01*
G75*
G02*
X54090000Y-105328500I250000J0D01*
G01*
X54765000Y-105328500D01*
G75*
G02*
X55015000Y-105578500I0J-250000D01*
G01*
X55015000Y-106528500D01*
G75*
G02*
X54765000Y-106778500I-250000J0D01*
G01*
X54090000Y-106778500D01*
G75*
G02*
X53840000Y-106528500I0J250000D01*
G01*
G37*
D10*
X188175000Y-102884300D03*
D21*
X218151734Y-93386025D03*
D22*
X215611734Y-93386025D03*
X210531734Y-93386025D03*
X205451734Y-93386025D03*
G36*
G01*
X254722500Y-98425350D02*
X254422500Y-98425350D01*
G75*
G02*
X254272500Y-98275350I0J150000D01*
G01*
X254272500Y-96625350D01*
G75*
G02*
X254422500Y-96475350I150000J0D01*
G01*
X254722500Y-96475350D01*
G75*
G02*
X254872500Y-96625350I0J-150000D01*
G01*
X254872500Y-98275350D01*
G75*
G02*
X254722500Y-98425350I-150000J0D01*
G01*
G37*
G36*
G01*
X255992500Y-98425350D02*
X255692500Y-98425350D01*
G75*
G02*
X255542500Y-98275350I0J150000D01*
G01*
X255542500Y-96625350D01*
G75*
G02*
X255692500Y-96475350I150000J0D01*
G01*
X255992500Y-96475350D01*
G75*
G02*
X256142500Y-96625350I0J-150000D01*
G01*
X256142500Y-98275350D01*
G75*
G02*
X255992500Y-98425350I-150000J0D01*
G01*
G37*
G36*
G01*
X257262500Y-98425350D02*
X256962500Y-98425350D01*
G75*
G02*
X256812500Y-98275350I0J150000D01*
G01*
X256812500Y-96625350D01*
G75*
G02*
X256962500Y-96475350I150000J0D01*
G01*
X257262500Y-96475350D01*
G75*
G02*
X257412500Y-96625350I0J-150000D01*
G01*
X257412500Y-98275350D01*
G75*
G02*
X257262500Y-98425350I-150000J0D01*
G01*
G37*
G36*
G01*
X258532500Y-98425350D02*
X258232500Y-98425350D01*
G75*
G02*
X258082500Y-98275350I0J150000D01*
G01*
X258082500Y-96625350D01*
G75*
G02*
X258232500Y-96475350I150000J0D01*
G01*
X258532500Y-96475350D01*
G75*
G02*
X258682500Y-96625350I0J-150000D01*
G01*
X258682500Y-98275350D01*
G75*
G02*
X258532500Y-98425350I-150000J0D01*
G01*
G37*
G36*
G01*
X258532500Y-93475350D02*
X258232500Y-93475350D01*
G75*
G02*
X258082500Y-93325350I0J150000D01*
G01*
X258082500Y-91675350D01*
G75*
G02*
X258232500Y-91525350I150000J0D01*
G01*
X258532500Y-91525350D01*
G75*
G02*
X258682500Y-91675350I0J-150000D01*
G01*
X258682500Y-93325350D01*
G75*
G02*
X258532500Y-93475350I-150000J0D01*
G01*
G37*
G36*
G01*
X257262500Y-93475350D02*
X256962500Y-93475350D01*
G75*
G02*
X256812500Y-93325350I0J150000D01*
G01*
X256812500Y-91675350D01*
G75*
G02*
X256962500Y-91525350I150000J0D01*
G01*
X257262500Y-91525350D01*
G75*
G02*
X257412500Y-91675350I0J-150000D01*
G01*
X257412500Y-93325350D01*
G75*
G02*
X257262500Y-93475350I-150000J0D01*
G01*
G37*
G36*
G01*
X255992500Y-93475350D02*
X255692500Y-93475350D01*
G75*
G02*
X255542500Y-93325350I0J150000D01*
G01*
X255542500Y-91675350D01*
G75*
G02*
X255692500Y-91525350I150000J0D01*
G01*
X255992500Y-91525350D01*
G75*
G02*
X256142500Y-91675350I0J-150000D01*
G01*
X256142500Y-93325350D01*
G75*
G02*
X255992500Y-93475350I-150000J0D01*
G01*
G37*
G36*
G01*
X254722500Y-93475350D02*
X254422500Y-93475350D01*
G75*
G02*
X254272500Y-93325350I0J150000D01*
G01*
X254272500Y-91675350D01*
G75*
G02*
X254422500Y-91525350I150000J0D01*
G01*
X254722500Y-91525350D01*
G75*
G02*
X254872500Y-91675350I0J-150000D01*
G01*
X254872500Y-93325350D01*
G75*
G02*
X254722500Y-93475350I-150000J0D01*
G01*
G37*
G36*
G01*
X107217200Y-100685968D02*
X107217200Y-101635968D01*
G75*
G02*
X106967200Y-101885968I-250000J0D01*
G01*
X106292200Y-101885968D01*
G75*
G02*
X106042200Y-101635968I0J250000D01*
G01*
X106042200Y-100685968D01*
G75*
G02*
X106292200Y-100435968I250000J0D01*
G01*
X106967200Y-100435968D01*
G75*
G02*
X107217200Y-100685968I0J-250000D01*
G01*
G37*
G36*
G01*
X105142200Y-100685968D02*
X105142200Y-101635968D01*
G75*
G02*
X104892200Y-101885968I-250000J0D01*
G01*
X104217200Y-101885968D01*
G75*
G02*
X103967200Y-101635968I0J250000D01*
G01*
X103967200Y-100685968D01*
G75*
G02*
X104217200Y-100435968I250000J0D01*
G01*
X104892200Y-100435968D01*
G75*
G02*
X105142200Y-100685968I0J-250000D01*
G01*
G37*
G36*
G01*
X199182934Y-103831725D02*
X199182934Y-103531725D01*
G75*
G02*
X199332934Y-103381725I150000J0D01*
G01*
X200782934Y-103381725D01*
G75*
G02*
X200932934Y-103531725I0J-150000D01*
G01*
X200932934Y-103831725D01*
G75*
G02*
X200782934Y-103981725I-150000J0D01*
G01*
X199332934Y-103981725D01*
G75*
G02*
X199182934Y-103831725I0J150000D01*
G01*
G37*
G36*
G01*
X199182934Y-105101725D02*
X199182934Y-104801725D01*
G75*
G02*
X199332934Y-104651725I150000J0D01*
G01*
X200782934Y-104651725D01*
G75*
G02*
X200932934Y-104801725I0J-150000D01*
G01*
X200932934Y-105101725D01*
G75*
G02*
X200782934Y-105251725I-150000J0D01*
G01*
X199332934Y-105251725D01*
G75*
G02*
X199182934Y-105101725I0J150000D01*
G01*
G37*
G36*
G01*
X199182934Y-106371725D02*
X199182934Y-106071725D01*
G75*
G02*
X199332934Y-105921725I150000J0D01*
G01*
X200782934Y-105921725D01*
G75*
G02*
X200932934Y-106071725I0J-150000D01*
G01*
X200932934Y-106371725D01*
G75*
G02*
X200782934Y-106521725I-150000J0D01*
G01*
X199332934Y-106521725D01*
G75*
G02*
X199182934Y-106371725I0J150000D01*
G01*
G37*
G36*
G01*
X199182934Y-107641725D02*
X199182934Y-107341725D01*
G75*
G02*
X199332934Y-107191725I150000J0D01*
G01*
X200782934Y-107191725D01*
G75*
G02*
X200932934Y-107341725I0J-150000D01*
G01*
X200932934Y-107641725D01*
G75*
G02*
X200782934Y-107791725I-150000J0D01*
G01*
X199332934Y-107791725D01*
G75*
G02*
X199182934Y-107641725I0J150000D01*
G01*
G37*
G36*
G01*
X204332934Y-107641725D02*
X204332934Y-107341725D01*
G75*
G02*
X204482934Y-107191725I150000J0D01*
G01*
X205932934Y-107191725D01*
G75*
G02*
X206082934Y-107341725I0J-150000D01*
G01*
X206082934Y-107641725D01*
G75*
G02*
X205932934Y-107791725I-150000J0D01*
G01*
X204482934Y-107791725D01*
G75*
G02*
X204332934Y-107641725I0J150000D01*
G01*
G37*
G36*
G01*
X204332934Y-106371725D02*
X204332934Y-106071725D01*
G75*
G02*
X204482934Y-105921725I150000J0D01*
G01*
X205932934Y-105921725D01*
G75*
G02*
X206082934Y-106071725I0J-150000D01*
G01*
X206082934Y-106371725D01*
G75*
G02*
X205932934Y-106521725I-150000J0D01*
G01*
X204482934Y-106521725D01*
G75*
G02*
X204332934Y-106371725I0J150000D01*
G01*
G37*
G36*
G01*
X204332934Y-105101725D02*
X204332934Y-104801725D01*
G75*
G02*
X204482934Y-104651725I150000J0D01*
G01*
X205932934Y-104651725D01*
G75*
G02*
X206082934Y-104801725I0J-150000D01*
G01*
X206082934Y-105101725D01*
G75*
G02*
X205932934Y-105251725I-150000J0D01*
G01*
X204482934Y-105251725D01*
G75*
G02*
X204332934Y-105101725I0J150000D01*
G01*
G37*
G36*
G01*
X204332934Y-103831725D02*
X204332934Y-103531725D01*
G75*
G02*
X204482934Y-103381725I150000J0D01*
G01*
X205932934Y-103381725D01*
G75*
G02*
X206082934Y-103531725I0J-150000D01*
G01*
X206082934Y-103831725D01*
G75*
G02*
X205932934Y-103981725I-150000J0D01*
G01*
X204482934Y-103981725D01*
G75*
G02*
X204332934Y-103831725I0J150000D01*
G01*
G37*
G36*
G01*
X90311000Y-107340000D02*
X90311000Y-107640000D01*
G75*
G02*
X90161000Y-107790000I-150000J0D01*
G01*
X88711000Y-107790000D01*
G75*
G02*
X88561000Y-107640000I0J150000D01*
G01*
X88561000Y-107340000D01*
G75*
G02*
X88711000Y-107190000I150000J0D01*
G01*
X90161000Y-107190000D01*
G75*
G02*
X90311000Y-107340000I0J-150000D01*
G01*
G37*
G36*
G01*
X90311000Y-106070000D02*
X90311000Y-106370000D01*
G75*
G02*
X90161000Y-106520000I-150000J0D01*
G01*
X88711000Y-106520000D01*
G75*
G02*
X88561000Y-106370000I0J150000D01*
G01*
X88561000Y-106070000D01*
G75*
G02*
X88711000Y-105920000I150000J0D01*
G01*
X90161000Y-105920000D01*
G75*
G02*
X90311000Y-106070000I0J-150000D01*
G01*
G37*
G36*
G01*
X90311000Y-104800000D02*
X90311000Y-105100000D01*
G75*
G02*
X90161000Y-105250000I-150000J0D01*
G01*
X88711000Y-105250000D01*
G75*
G02*
X88561000Y-105100000I0J150000D01*
G01*
X88561000Y-104800000D01*
G75*
G02*
X88711000Y-104650000I150000J0D01*
G01*
X90161000Y-104650000D01*
G75*
G02*
X90311000Y-104800000I0J-150000D01*
G01*
G37*
G36*
G01*
X90311000Y-103530000D02*
X90311000Y-103830000D01*
G75*
G02*
X90161000Y-103980000I-150000J0D01*
G01*
X88711000Y-103980000D01*
G75*
G02*
X88561000Y-103830000I0J150000D01*
G01*
X88561000Y-103530000D01*
G75*
G02*
X88711000Y-103380000I150000J0D01*
G01*
X90161000Y-103380000D01*
G75*
G02*
X90311000Y-103530000I0J-150000D01*
G01*
G37*
G36*
G01*
X85161000Y-103530000D02*
X85161000Y-103830000D01*
G75*
G02*
X85011000Y-103980000I-150000J0D01*
G01*
X83561000Y-103980000D01*
G75*
G02*
X83411000Y-103830000I0J150000D01*
G01*
X83411000Y-103530000D01*
G75*
G02*
X83561000Y-103380000I150000J0D01*
G01*
X85011000Y-103380000D01*
G75*
G02*
X85161000Y-103530000I0J-150000D01*
G01*
G37*
G36*
G01*
X85161000Y-104800000D02*
X85161000Y-105100000D01*
G75*
G02*
X85011000Y-105250000I-150000J0D01*
G01*
X83561000Y-105250000D01*
G75*
G02*
X83411000Y-105100000I0J150000D01*
G01*
X83411000Y-104800000D01*
G75*
G02*
X83561000Y-104650000I150000J0D01*
G01*
X85011000Y-104650000D01*
G75*
G02*
X85161000Y-104800000I0J-150000D01*
G01*
G37*
G36*
G01*
X85161000Y-106070000D02*
X85161000Y-106370000D01*
G75*
G02*
X85011000Y-106520000I-150000J0D01*
G01*
X83561000Y-106520000D01*
G75*
G02*
X83411000Y-106370000I0J150000D01*
G01*
X83411000Y-106070000D01*
G75*
G02*
X83561000Y-105920000I150000J0D01*
G01*
X85011000Y-105920000D01*
G75*
G02*
X85161000Y-106070000I0J-150000D01*
G01*
G37*
G36*
G01*
X85161000Y-107340000D02*
X85161000Y-107640000D01*
G75*
G02*
X85011000Y-107790000I-150000J0D01*
G01*
X83561000Y-107790000D01*
G75*
G02*
X83411000Y-107640000I0J150000D01*
G01*
X83411000Y-107340000D01*
G75*
G02*
X83561000Y-107190000I150000J0D01*
G01*
X85011000Y-107190000D01*
G75*
G02*
X85161000Y-107340000I0J-150000D01*
G01*
G37*
G36*
G01*
X152560000Y-108715000D02*
X152560000Y-107765000D01*
G75*
G02*
X152810000Y-107515000I250000J0D01*
G01*
X153485000Y-107515000D01*
G75*
G02*
X153735000Y-107765000I0J-250000D01*
G01*
X153735000Y-108715000D01*
G75*
G02*
X153485000Y-108965000I-250000J0D01*
G01*
X152810000Y-108965000D01*
G75*
G02*
X152560000Y-108715000I0J250000D01*
G01*
G37*
G36*
G01*
X154635000Y-108715000D02*
X154635000Y-107765000D01*
G75*
G02*
X154885000Y-107515000I250000J0D01*
G01*
X155560000Y-107515000D01*
G75*
G02*
X155810000Y-107765000I0J-250000D01*
G01*
X155810000Y-108715000D01*
G75*
G02*
X155560000Y-108965000I-250000J0D01*
G01*
X154885000Y-108965000D01*
G75*
G02*
X154635000Y-108715000I0J250000D01*
G01*
G37*
G36*
G01*
X143847500Y-98420000D02*
X143547500Y-98420000D01*
G75*
G02*
X143397500Y-98270000I0J150000D01*
G01*
X143397500Y-96620000D01*
G75*
G02*
X143547500Y-96470000I150000J0D01*
G01*
X143847500Y-96470000D01*
G75*
G02*
X143997500Y-96620000I0J-150000D01*
G01*
X143997500Y-98270000D01*
G75*
G02*
X143847500Y-98420000I-150000J0D01*
G01*
G37*
G36*
G01*
X145117500Y-98420000D02*
X144817500Y-98420000D01*
G75*
G02*
X144667500Y-98270000I0J150000D01*
G01*
X144667500Y-96620000D01*
G75*
G02*
X144817500Y-96470000I150000J0D01*
G01*
X145117500Y-96470000D01*
G75*
G02*
X145267500Y-96620000I0J-150000D01*
G01*
X145267500Y-98270000D01*
G75*
G02*
X145117500Y-98420000I-150000J0D01*
G01*
G37*
G36*
G01*
X146387500Y-98420000D02*
X146087500Y-98420000D01*
G75*
G02*
X145937500Y-98270000I0J150000D01*
G01*
X145937500Y-96620000D01*
G75*
G02*
X146087500Y-96470000I150000J0D01*
G01*
X146387500Y-96470000D01*
G75*
G02*
X146537500Y-96620000I0J-150000D01*
G01*
X146537500Y-98270000D01*
G75*
G02*
X146387500Y-98420000I-150000J0D01*
G01*
G37*
G36*
G01*
X147657500Y-98420000D02*
X147357500Y-98420000D01*
G75*
G02*
X147207500Y-98270000I0J150000D01*
G01*
X147207500Y-96620000D01*
G75*
G02*
X147357500Y-96470000I150000J0D01*
G01*
X147657500Y-96470000D01*
G75*
G02*
X147807500Y-96620000I0J-150000D01*
G01*
X147807500Y-98270000D01*
G75*
G02*
X147657500Y-98420000I-150000J0D01*
G01*
G37*
G36*
G01*
X147657500Y-93470000D02*
X147357500Y-93470000D01*
G75*
G02*
X147207500Y-93320000I0J150000D01*
G01*
X147207500Y-91670000D01*
G75*
G02*
X147357500Y-91520000I150000J0D01*
G01*
X147657500Y-91520000D01*
G75*
G02*
X147807500Y-91670000I0J-150000D01*
G01*
X147807500Y-93320000D01*
G75*
G02*
X147657500Y-93470000I-150000J0D01*
G01*
G37*
G36*
G01*
X146387500Y-93470000D02*
X146087500Y-93470000D01*
G75*
G02*
X145937500Y-93320000I0J150000D01*
G01*
X145937500Y-91670000D01*
G75*
G02*
X146087500Y-91520000I150000J0D01*
G01*
X146387500Y-91520000D01*
G75*
G02*
X146537500Y-91670000I0J-150000D01*
G01*
X146537500Y-93320000D01*
G75*
G02*
X146387500Y-93470000I-150000J0D01*
G01*
G37*
G36*
G01*
X145117500Y-93470000D02*
X144817500Y-93470000D01*
G75*
G02*
X144667500Y-93320000I0J150000D01*
G01*
X144667500Y-91670000D01*
G75*
G02*
X144817500Y-91520000I150000J0D01*
G01*
X145117500Y-91520000D01*
G75*
G02*
X145267500Y-91670000I0J-150000D01*
G01*
X145267500Y-93320000D01*
G75*
G02*
X145117500Y-93470000I-150000J0D01*
G01*
G37*
G36*
G01*
X143847500Y-93470000D02*
X143547500Y-93470000D01*
G75*
G02*
X143397500Y-93320000I0J150000D01*
G01*
X143397500Y-91670000D01*
G75*
G02*
X143547500Y-91520000I150000J0D01*
G01*
X143847500Y-91520000D01*
G75*
G02*
X143997500Y-91670000I0J-150000D01*
G01*
X143997500Y-93320000D01*
G75*
G02*
X143847500Y-93470000I-150000J0D01*
G01*
G37*
G36*
G01*
X169541300Y-97985000D02*
X169541300Y-97035000D01*
G75*
G02*
X169791300Y-96785000I250000J0D01*
G01*
X170466300Y-96785000D01*
G75*
G02*
X170716300Y-97035000I0J-250000D01*
G01*
X170716300Y-97985000D01*
G75*
G02*
X170466300Y-98235000I-250000J0D01*
G01*
X169791300Y-98235000D01*
G75*
G02*
X169541300Y-97985000I0J250000D01*
G01*
G37*
G36*
G01*
X171616300Y-97985000D02*
X171616300Y-97035000D01*
G75*
G02*
X171866300Y-96785000I250000J0D01*
G01*
X172541300Y-96785000D01*
G75*
G02*
X172791300Y-97035000I0J-250000D01*
G01*
X172791300Y-97985000D01*
G75*
G02*
X172541300Y-98235000I-250000J0D01*
G01*
X171866300Y-98235000D01*
G75*
G02*
X171616300Y-97985000I0J250000D01*
G01*
G37*
G36*
G01*
X183854000Y-104784300D02*
X183854000Y-105684300D01*
G75*
G02*
X183604000Y-105934300I-250000J0D01*
G01*
X182904000Y-105934300D01*
G75*
G02*
X182654000Y-105684300I0J250000D01*
G01*
X182654000Y-104784300D01*
G75*
G02*
X182904000Y-104534300I250000J0D01*
G01*
X183604000Y-104534300D01*
G75*
G02*
X183854000Y-104784300I0J-250000D01*
G01*
G37*
G36*
G01*
X181854000Y-104784300D02*
X181854000Y-105684300D01*
G75*
G02*
X181604000Y-105934300I-250000J0D01*
G01*
X180904000Y-105934300D01*
G75*
G02*
X180654000Y-105684300I0J250000D01*
G01*
X180654000Y-104784300D01*
G75*
G02*
X180904000Y-104534300I250000J0D01*
G01*
X181604000Y-104534300D01*
G75*
G02*
X181854000Y-104784300I0J-250000D01*
G01*
G37*
G36*
G01*
X169541300Y-100152600D02*
X169541300Y-99202600D01*
G75*
G02*
X169791300Y-98952600I250000J0D01*
G01*
X170466300Y-98952600D01*
G75*
G02*
X170716300Y-99202600I0J-250000D01*
G01*
X170716300Y-100152600D01*
G75*
G02*
X170466300Y-100402600I-250000J0D01*
G01*
X169791300Y-100402600D01*
G75*
G02*
X169541300Y-100152600I0J250000D01*
G01*
G37*
G36*
G01*
X171616300Y-100152600D02*
X171616300Y-99202600D01*
G75*
G02*
X171866300Y-98952600I250000J0D01*
G01*
X172541300Y-98952600D01*
G75*
G02*
X172791300Y-99202600I0J-250000D01*
G01*
X172791300Y-100152600D01*
G75*
G02*
X172541300Y-100402600I-250000J0D01*
G01*
X171866300Y-100402600D01*
G75*
G02*
X171616300Y-100152600I0J250000D01*
G01*
G37*
G36*
G01*
X252365000Y-88580350D02*
X252365000Y-87630350D01*
G75*
G02*
X252615000Y-87380350I250000J0D01*
G01*
X253290000Y-87380350D01*
G75*
G02*
X253540000Y-87630350I0J-250000D01*
G01*
X253540000Y-88580350D01*
G75*
G02*
X253290000Y-88830350I-250000J0D01*
G01*
X252615000Y-88830350D01*
G75*
G02*
X252365000Y-88580350I0J250000D01*
G01*
G37*
G36*
G01*
X254440000Y-88580350D02*
X254440000Y-87630350D01*
G75*
G02*
X254690000Y-87380350I250000J0D01*
G01*
X255365000Y-87380350D01*
G75*
G02*
X255615000Y-87630350I0J-250000D01*
G01*
X255615000Y-88580350D01*
G75*
G02*
X255365000Y-88830350I-250000J0D01*
G01*
X254690000Y-88830350D01*
G75*
G02*
X254440000Y-88580350I0J250000D01*
G01*
G37*
G36*
G01*
X39190000Y-109330000D02*
X40090000Y-109330000D01*
G75*
G02*
X40340000Y-109580000I0J-250000D01*
G01*
X40340000Y-110280000D01*
G75*
G02*
X40090000Y-110530000I-250000J0D01*
G01*
X39190000Y-110530000D01*
G75*
G02*
X38940000Y-110280000I0J250000D01*
G01*
X38940000Y-109580000D01*
G75*
G02*
X39190000Y-109330000I250000J0D01*
G01*
G37*
G36*
G01*
X39190000Y-111330000D02*
X40090000Y-111330000D01*
G75*
G02*
X40340000Y-111580000I0J-250000D01*
G01*
X40340000Y-112280000D01*
G75*
G02*
X40090000Y-112530000I-250000J0D01*
G01*
X39190000Y-112530000D01*
G75*
G02*
X38940000Y-112280000I0J250000D01*
G01*
X38940000Y-111580000D01*
G75*
G02*
X39190000Y-111330000I250000J0D01*
G01*
G37*
G36*
G01*
X271040000Y-64570000D02*
X271940000Y-64570000D01*
G75*
G02*
X272190000Y-64820000I0J-250000D01*
G01*
X272190000Y-65520000D01*
G75*
G02*
X271940000Y-65770000I-250000J0D01*
G01*
X271040000Y-65770000D01*
G75*
G02*
X270790000Y-65520000I0J250000D01*
G01*
X270790000Y-64820000D01*
G75*
G02*
X271040000Y-64570000I250000J0D01*
G01*
G37*
G36*
G01*
X271040000Y-66570000D02*
X271940000Y-66570000D01*
G75*
G02*
X272190000Y-66820000I0J-250000D01*
G01*
X272190000Y-67520000D01*
G75*
G02*
X271940000Y-67770000I-250000J0D01*
G01*
X271040000Y-67770000D01*
G75*
G02*
X270790000Y-67520000I0J250000D01*
G01*
X270790000Y-66820000D01*
G75*
G02*
X271040000Y-66570000I250000J0D01*
G01*
G37*
G36*
G01*
X275269600Y-58570000D02*
X275619600Y-58570000D01*
G75*
G02*
X275794600Y-58745000I0J-175000D01*
G01*
X275794600Y-60395000D01*
G75*
G02*
X275619600Y-60570000I-175000J0D01*
G01*
X275269600Y-60570000D01*
G75*
G02*
X275094600Y-60395000I0J175000D01*
G01*
X275094600Y-58745000D01*
G75*
G02*
X275269600Y-58570000I175000J0D01*
G01*
G37*
G36*
G01*
X273369600Y-58570000D02*
X273719600Y-58570000D01*
G75*
G02*
X273894600Y-58745000I0J-175000D01*
G01*
X273894600Y-60395000D01*
G75*
G02*
X273719600Y-60570000I-175000J0D01*
G01*
X273369600Y-60570000D01*
G75*
G02*
X273194600Y-60395000I0J175000D01*
G01*
X273194600Y-58745000D01*
G75*
G02*
X273369600Y-58570000I175000J0D01*
G01*
G37*
G36*
G01*
X274319600Y-61970000D02*
X274669600Y-61970000D01*
G75*
G02*
X274844600Y-62145000I0J-175000D01*
G01*
X274844600Y-63795000D01*
G75*
G02*
X274669600Y-63970000I-175000J0D01*
G01*
X274319600Y-63970000D01*
G75*
G02*
X274144600Y-63795000I0J175000D01*
G01*
X274144600Y-62145000D01*
G75*
G02*
X274319600Y-61970000I175000J0D01*
G01*
G37*
D23*
X42040000Y-105550000D03*
X39500000Y-105550000D03*
G36*
G01*
X247862100Y-99290000D02*
X247862100Y-100240000D01*
G75*
G02*
X247612100Y-100490000I-250000J0D01*
G01*
X246937100Y-100490000D01*
G75*
G02*
X246687100Y-100240000I0J250000D01*
G01*
X246687100Y-99290000D01*
G75*
G02*
X246937100Y-99040000I250000J0D01*
G01*
X247612100Y-99040000D01*
G75*
G02*
X247862100Y-99290000I0J-250000D01*
G01*
G37*
G36*
G01*
X245787100Y-99290000D02*
X245787100Y-100240000D01*
G75*
G02*
X245537100Y-100490000I-250000J0D01*
G01*
X244862100Y-100490000D01*
G75*
G02*
X244612100Y-100240000I0J250000D01*
G01*
X244612100Y-99290000D01*
G75*
G02*
X244862100Y-99040000I250000J0D01*
G01*
X245537100Y-99040000D01*
G75*
G02*
X245787100Y-99290000I0J-250000D01*
G01*
G37*
D10*
X105508400Y-98280643D03*
G36*
G01*
X168045700Y-100136600D02*
X168045700Y-100886600D01*
G75*
G02*
X167820700Y-101111600I-225000J0D01*
G01*
X167370700Y-101111600D01*
G75*
G02*
X167145700Y-100886600I0J225000D01*
G01*
X167145700Y-100136600D01*
G75*
G02*
X167370700Y-99911600I225000J0D01*
G01*
X167820700Y-99911600D01*
G75*
G02*
X168045700Y-100136600I0J-225000D01*
G01*
G37*
G36*
G01*
X164745700Y-100136600D02*
X164745700Y-100886600D01*
G75*
G02*
X164520700Y-101111600I-225000J0D01*
G01*
X164070700Y-101111600D01*
G75*
G02*
X163845700Y-100886600I0J225000D01*
G01*
X163845700Y-100136600D01*
G75*
G02*
X164070700Y-99911600I225000J0D01*
G01*
X164520700Y-99911600D01*
G75*
G02*
X164745700Y-100136600I0J-225000D01*
G01*
G37*
D17*
X20290000Y-148740000D03*
G36*
G01*
X250102500Y-104680000D02*
X250102500Y-103780000D01*
G75*
G02*
X250352500Y-103530000I250000J0D01*
G01*
X251002500Y-103530000D01*
G75*
G02*
X251252500Y-103780000I0J-250000D01*
G01*
X251252500Y-104680000D01*
G75*
G02*
X251002500Y-104930000I-250000J0D01*
G01*
X250352500Y-104930000D01*
G75*
G02*
X250102500Y-104680000I0J250000D01*
G01*
G37*
G36*
G01*
X252152500Y-104680000D02*
X252152500Y-103780000D01*
G75*
G02*
X252402500Y-103530000I250000J0D01*
G01*
X253052500Y-103530000D01*
G75*
G02*
X253302500Y-103780000I0J-250000D01*
G01*
X253302500Y-104680000D01*
G75*
G02*
X253052500Y-104930000I-250000J0D01*
G01*
X252402500Y-104930000D01*
G75*
G02*
X252152500Y-104680000I0J250000D01*
G01*
G37*
G36*
G01*
X223222100Y-90591600D02*
X223222100Y-89641600D01*
G75*
G02*
X223472100Y-89391600I250000J0D01*
G01*
X224147100Y-89391600D01*
G75*
G02*
X224397100Y-89641600I0J-250000D01*
G01*
X224397100Y-90591600D01*
G75*
G02*
X224147100Y-90841600I-250000J0D01*
G01*
X223472100Y-90841600D01*
G75*
G02*
X223222100Y-90591600I0J250000D01*
G01*
G37*
G36*
G01*
X225297100Y-90591600D02*
X225297100Y-89641600D01*
G75*
G02*
X225547100Y-89391600I250000J0D01*
G01*
X226222100Y-89391600D01*
G75*
G02*
X226472100Y-89641600I0J-250000D01*
G01*
X226472100Y-90591600D01*
G75*
G02*
X226222100Y-90841600I-250000J0D01*
G01*
X225547100Y-90841600D01*
G75*
G02*
X225297100Y-90591600I0J250000D01*
G01*
G37*
G36*
G01*
X262757500Y-91775350D02*
X262757500Y-92675350D01*
G75*
G02*
X262507500Y-92925350I-250000J0D01*
G01*
X261807500Y-92925350D01*
G75*
G02*
X261557500Y-92675350I0J250000D01*
G01*
X261557500Y-91775350D01*
G75*
G02*
X261807500Y-91525350I250000J0D01*
G01*
X262507500Y-91525350D01*
G75*
G02*
X262757500Y-91775350I0J-250000D01*
G01*
G37*
G36*
G01*
X260757500Y-91775350D02*
X260757500Y-92675350D01*
G75*
G02*
X260507500Y-92925350I-250000J0D01*
G01*
X259807500Y-92925350D01*
G75*
G02*
X259557500Y-92675350I0J250000D01*
G01*
X259557500Y-91775350D01*
G75*
G02*
X259807500Y-91525350I250000J0D01*
G01*
X260507500Y-91525350D01*
G75*
G02*
X260757500Y-91775350I0J-250000D01*
G01*
G37*
G36*
G01*
X41590000Y-65277500D02*
X42490000Y-65277500D01*
G75*
G02*
X42740000Y-65527500I0J-250000D01*
G01*
X42740000Y-66227500D01*
G75*
G02*
X42490000Y-66477500I-250000J0D01*
G01*
X41590000Y-66477500D01*
G75*
G02*
X41340000Y-66227500I0J250000D01*
G01*
X41340000Y-65527500D01*
G75*
G02*
X41590000Y-65277500I250000J0D01*
G01*
G37*
G36*
G01*
X41590000Y-67277500D02*
X42490000Y-67277500D01*
G75*
G02*
X42740000Y-67527500I0J-250000D01*
G01*
X42740000Y-68227500D01*
G75*
G02*
X42490000Y-68477500I-250000J0D01*
G01*
X41590000Y-68477500D01*
G75*
G02*
X41340000Y-68227500I0J250000D01*
G01*
X41340000Y-67527500D01*
G75*
G02*
X41590000Y-67277500I250000J0D01*
G01*
G37*
G36*
G01*
X16790000Y-63152500D02*
X18990000Y-63152500D01*
G75*
G02*
X19240000Y-63402500I0J-250000D01*
G01*
X19240000Y-64227500D01*
G75*
G02*
X18990000Y-64477500I-250000J0D01*
G01*
X16790000Y-64477500D01*
G75*
G02*
X16540000Y-64227500I0J250000D01*
G01*
X16540000Y-63402500D01*
G75*
G02*
X16790000Y-63152500I250000J0D01*
G01*
G37*
G36*
G01*
X16790000Y-66277500D02*
X18990000Y-66277500D01*
G75*
G02*
X19240000Y-66527500I0J-250000D01*
G01*
X19240000Y-67352500D01*
G75*
G02*
X18990000Y-67602500I-250000J0D01*
G01*
X16790000Y-67602500D01*
G75*
G02*
X16540000Y-67352500I0J250000D01*
G01*
X16540000Y-66527500D01*
G75*
G02*
X16790000Y-66277500I250000J0D01*
G01*
G37*
D24*
X258150000Y-128090000D03*
X240370000Y-138250000D03*
X240370000Y-130630000D03*
G36*
G01*
X254840000Y-116390000D02*
X253840000Y-116390000D01*
G75*
G02*
X253340000Y-115890000I0J500000D01*
G01*
X253340000Y-114890000D01*
G75*
G02*
X253840000Y-114390000I500000J0D01*
G01*
X254840000Y-114390000D01*
G75*
G02*
X255340000Y-114890000I0J-500000D01*
G01*
X255340000Y-115890000D01*
G75*
G02*
X254840000Y-116390000I-500000J0D01*
G01*
G37*
D25*
X244180000Y-115390000D03*
G36*
G01*
X183854000Y-102762634D02*
X183854000Y-103662634D01*
G75*
G02*
X183604000Y-103912634I-250000J0D01*
G01*
X182904000Y-103912634D01*
G75*
G02*
X182654000Y-103662634I0J250000D01*
G01*
X182654000Y-102762634D01*
G75*
G02*
X182904000Y-102512634I250000J0D01*
G01*
X183604000Y-102512634D01*
G75*
G02*
X183854000Y-102762634I0J-250000D01*
G01*
G37*
G36*
G01*
X181854000Y-102762634D02*
X181854000Y-103662634D01*
G75*
G02*
X181604000Y-103912634I-250000J0D01*
G01*
X180904000Y-103912634D01*
G75*
G02*
X180654000Y-103662634I0J250000D01*
G01*
X180654000Y-102762634D01*
G75*
G02*
X180904000Y-102512634I250000J0D01*
G01*
X181604000Y-102512634D01*
G75*
G02*
X181854000Y-102762634I0J-250000D01*
G01*
G37*
G36*
G01*
X44707100Y-87640000D02*
X45607100Y-87640000D01*
G75*
G02*
X45857100Y-87890000I0J-250000D01*
G01*
X45857100Y-88590000D01*
G75*
G02*
X45607100Y-88840000I-250000J0D01*
G01*
X44707100Y-88840000D01*
G75*
G02*
X44457100Y-88590000I0J250000D01*
G01*
X44457100Y-87890000D01*
G75*
G02*
X44707100Y-87640000I250000J0D01*
G01*
G37*
G36*
G01*
X44707100Y-89640000D02*
X45607100Y-89640000D01*
G75*
G02*
X45857100Y-89890000I0J-250000D01*
G01*
X45857100Y-90590000D01*
G75*
G02*
X45607100Y-90840000I-250000J0D01*
G01*
X44707100Y-90840000D01*
G75*
G02*
X44457100Y-90590000I0J250000D01*
G01*
X44457100Y-89890000D01*
G75*
G02*
X44707100Y-89640000I250000J0D01*
G01*
G37*
G36*
G01*
X81827300Y-97985000D02*
X81827300Y-97035000D01*
G75*
G02*
X82077300Y-96785000I250000J0D01*
G01*
X82752300Y-96785000D01*
G75*
G02*
X83002300Y-97035000I0J-250000D01*
G01*
X83002300Y-97985000D01*
G75*
G02*
X82752300Y-98235000I-250000J0D01*
G01*
X82077300Y-98235000D01*
G75*
G02*
X81827300Y-97985000I0J250000D01*
G01*
G37*
G36*
G01*
X83902300Y-97985000D02*
X83902300Y-97035000D01*
G75*
G02*
X84152300Y-96785000I250000J0D01*
G01*
X84827300Y-96785000D01*
G75*
G02*
X85077300Y-97035000I0J-250000D01*
G01*
X85077300Y-97985000D01*
G75*
G02*
X84827300Y-98235000I-250000J0D01*
G01*
X84152300Y-98235000D01*
G75*
G02*
X83902300Y-97985000I0J250000D01*
G01*
G37*
G36*
G01*
X148052500Y-99320000D02*
X148052500Y-100220000D01*
G75*
G02*
X147802500Y-100470000I-250000J0D01*
G01*
X147102500Y-100470000D01*
G75*
G02*
X146852500Y-100220000I0J250000D01*
G01*
X146852500Y-99320000D01*
G75*
G02*
X147102500Y-99070000I250000J0D01*
G01*
X147802500Y-99070000D01*
G75*
G02*
X148052500Y-99320000I0J-250000D01*
G01*
G37*
G36*
G01*
X146052500Y-99320000D02*
X146052500Y-100220000D01*
G75*
G02*
X145802500Y-100470000I-250000J0D01*
G01*
X145102500Y-100470000D01*
G75*
G02*
X144852500Y-100220000I0J250000D01*
G01*
X144852500Y-99320000D01*
G75*
G02*
X145102500Y-99070000I250000J0D01*
G01*
X145802500Y-99070000D01*
G75*
G02*
X146052500Y-99320000I0J-250000D01*
G01*
G37*
D15*
X66290000Y-137490000D03*
D16*
X66290000Y-129990000D03*
D26*
X54860000Y-65790000D03*
X64560000Y-65790000D03*
G36*
G01*
X81827300Y-102277600D02*
X81827300Y-101327600D01*
G75*
G02*
X82077300Y-101077600I250000J0D01*
G01*
X82752300Y-101077600D01*
G75*
G02*
X83002300Y-101327600I0J-250000D01*
G01*
X83002300Y-102277600D01*
G75*
G02*
X82752300Y-102527600I-250000J0D01*
G01*
X82077300Y-102527600D01*
G75*
G02*
X81827300Y-102277600I0J250000D01*
G01*
G37*
G36*
G01*
X83902300Y-102277600D02*
X83902300Y-101327600D01*
G75*
G02*
X84152300Y-101077600I250000J0D01*
G01*
X84827300Y-101077600D01*
G75*
G02*
X85077300Y-101327600I0J-250000D01*
G01*
X85077300Y-102277600D01*
G75*
G02*
X84827300Y-102527600I-250000J0D01*
G01*
X84152300Y-102527600D01*
G75*
G02*
X83902300Y-102277600I0J250000D01*
G01*
G37*
D10*
X160579000Y-102740000D03*
G36*
G01*
X96140000Y-104784300D02*
X96140000Y-105684300D01*
G75*
G02*
X95890000Y-105934300I-250000J0D01*
G01*
X95190000Y-105934300D01*
G75*
G02*
X94940000Y-105684300I0J250000D01*
G01*
X94940000Y-104784300D01*
G75*
G02*
X95190000Y-104534300I250000J0D01*
G01*
X95890000Y-104534300D01*
G75*
G02*
X96140000Y-104784300I0J-250000D01*
G01*
G37*
G36*
G01*
X94140000Y-104784300D02*
X94140000Y-105684300D01*
G75*
G02*
X93890000Y-105934300I-250000J0D01*
G01*
X93190000Y-105934300D01*
G75*
G02*
X92940000Y-105684300I0J250000D01*
G01*
X92940000Y-104784300D01*
G75*
G02*
X93190000Y-104534300I250000J0D01*
G01*
X93890000Y-104534300D01*
G75*
G02*
X94140000Y-104784300I0J-250000D01*
G01*
G37*
G36*
G01*
X122324000Y-151320140D02*
X122324000Y-128759860D01*
G75*
G02*
X122981860Y-128102000I657860J0D01*
G01*
X131064140Y-128102000D01*
G75*
G02*
X131722000Y-128759860I0J-657860D01*
G01*
X131722000Y-151320140D01*
G75*
G02*
X131064140Y-151978000I-657860J0D01*
G01*
X122981860Y-151978000D01*
G75*
G02*
X122324000Y-151320140I0J657860D01*
G01*
G37*
G36*
G01*
X140358000Y-151320140D02*
X140358000Y-128759860D01*
G75*
G02*
X141015860Y-128102000I657860J0D01*
G01*
X149098140Y-128102000D01*
G75*
G02*
X149756000Y-128759860I0J-657860D01*
G01*
X149756000Y-151320140D01*
G75*
G02*
X149098140Y-151978000I-657860J0D01*
G01*
X141015860Y-151978000D01*
G75*
G02*
X140358000Y-151320140I0J657860D01*
G01*
G37*
D23*
X207940000Y-53140000D03*
X205400000Y-53140000D03*
G36*
G01*
X273965000Y-67770000D02*
X273065000Y-67770000D01*
G75*
G02*
X272815000Y-67520000I0J250000D01*
G01*
X272815000Y-66820000D01*
G75*
G02*
X273065000Y-66570000I250000J0D01*
G01*
X273965000Y-66570000D01*
G75*
G02*
X274215000Y-66820000I0J-250000D01*
G01*
X274215000Y-67520000D01*
G75*
G02*
X273965000Y-67770000I-250000J0D01*
G01*
G37*
G36*
G01*
X273965000Y-65770000D02*
X273065000Y-65770000D01*
G75*
G02*
X272815000Y-65520000I0J250000D01*
G01*
X272815000Y-64820000D01*
G75*
G02*
X273065000Y-64570000I250000J0D01*
G01*
X273965000Y-64570000D01*
G75*
G02*
X274215000Y-64820000I0J-250000D01*
G01*
X274215000Y-65520000D01*
G75*
G02*
X273965000Y-65770000I-250000J0D01*
G01*
G37*
G36*
G01*
X244480000Y-104680000D02*
X244480000Y-103780000D01*
G75*
G02*
X244730000Y-103530000I250000J0D01*
G01*
X245430000Y-103530000D01*
G75*
G02*
X245680000Y-103780000I0J-250000D01*
G01*
X245680000Y-104680000D01*
G75*
G02*
X245430000Y-104930000I-250000J0D01*
G01*
X244730000Y-104930000D01*
G75*
G02*
X244480000Y-104680000I0J250000D01*
G01*
G37*
G36*
G01*
X246480000Y-104680000D02*
X246480000Y-103780000D01*
G75*
G02*
X246730000Y-103530000I250000J0D01*
G01*
X247430000Y-103530000D01*
G75*
G02*
X247680000Y-103780000I0J-250000D01*
G01*
X247680000Y-104680000D01*
G75*
G02*
X247430000Y-104930000I-250000J0D01*
G01*
X246730000Y-104930000D01*
G75*
G02*
X246480000Y-104680000I0J250000D01*
G01*
G37*
D27*
X167590000Y-107940000D03*
X167590000Y-103040000D03*
G36*
G01*
X224830000Y-99150000D02*
X225730000Y-99150000D01*
G75*
G02*
X225980000Y-99400000I0J-250000D01*
G01*
X225980000Y-100100000D01*
G75*
G02*
X225730000Y-100350000I-250000J0D01*
G01*
X224830000Y-100350000D01*
G75*
G02*
X224580000Y-100100000I0J250000D01*
G01*
X224580000Y-99400000D01*
G75*
G02*
X224830000Y-99150000I250000J0D01*
G01*
G37*
G36*
G01*
X224830000Y-101150000D02*
X225730000Y-101150000D01*
G75*
G02*
X225980000Y-101400000I0J-250000D01*
G01*
X225980000Y-102100000D01*
G75*
G02*
X225730000Y-102350000I-250000J0D01*
G01*
X224830000Y-102350000D01*
G75*
G02*
X224580000Y-102100000I0J250000D01*
G01*
X224580000Y-101400000D01*
G75*
G02*
X224830000Y-101150000I250000J0D01*
G01*
G37*
G36*
G01*
X243752100Y-83440000D02*
X244652100Y-83440000D01*
G75*
G02*
X244902100Y-83690000I0J-250000D01*
G01*
X244902100Y-84390000D01*
G75*
G02*
X244652100Y-84640000I-250000J0D01*
G01*
X243752100Y-84640000D01*
G75*
G02*
X243502100Y-84390000I0J250000D01*
G01*
X243502100Y-83690000D01*
G75*
G02*
X243752100Y-83440000I250000J0D01*
G01*
G37*
G36*
G01*
X243752100Y-85440000D02*
X244652100Y-85440000D01*
G75*
G02*
X244902100Y-85690000I0J-250000D01*
G01*
X244902100Y-86390000D01*
G75*
G02*
X244652100Y-86640000I-250000J0D01*
G01*
X243752100Y-86640000D01*
G75*
G02*
X243502100Y-86390000I0J250000D01*
G01*
X243502100Y-85690000D01*
G75*
G02*
X243752100Y-85440000I250000J0D01*
G01*
G37*
G36*
G01*
X237495000Y-88570000D02*
X237495000Y-87620000D01*
G75*
G02*
X237745000Y-87370000I250000J0D01*
G01*
X238420000Y-87370000D01*
G75*
G02*
X238670000Y-87620000I0J-250000D01*
G01*
X238670000Y-88570000D01*
G75*
G02*
X238420000Y-88820000I-250000J0D01*
G01*
X237745000Y-88820000D01*
G75*
G02*
X237495000Y-88570000I0J250000D01*
G01*
G37*
G36*
G01*
X239570000Y-88570000D02*
X239570000Y-87620000D01*
G75*
G02*
X239820000Y-87370000I250000J0D01*
G01*
X240495000Y-87370000D01*
G75*
G02*
X240745000Y-87620000I0J-250000D01*
G01*
X240745000Y-88570000D01*
G75*
G02*
X240495000Y-88820000I-250000J0D01*
G01*
X239820000Y-88820000D01*
G75*
G02*
X239570000Y-88570000I0J250000D01*
G01*
G37*
G36*
G01*
X24465000Y-63055000D02*
X25415000Y-63055000D01*
G75*
G02*
X25665000Y-63305000I0J-250000D01*
G01*
X25665000Y-63980000D01*
G75*
G02*
X25415000Y-64230000I-250000J0D01*
G01*
X24465000Y-64230000D01*
G75*
G02*
X24215000Y-63980000I0J250000D01*
G01*
X24215000Y-63305000D01*
G75*
G02*
X24465000Y-63055000I250000J0D01*
G01*
G37*
G36*
G01*
X24465000Y-65130000D02*
X25415000Y-65130000D01*
G75*
G02*
X25665000Y-65380000I0J-250000D01*
G01*
X25665000Y-66055000D01*
G75*
G02*
X25415000Y-66305000I-250000J0D01*
G01*
X24465000Y-66305000D01*
G75*
G02*
X24215000Y-66055000I0J250000D01*
G01*
X24215000Y-65380000D01*
G75*
G02*
X24465000Y-65130000I250000J0D01*
G01*
G37*
G36*
G01*
X96140000Y-102762634D02*
X96140000Y-103662634D01*
G75*
G02*
X95890000Y-103912634I-250000J0D01*
G01*
X95190000Y-103912634D01*
G75*
G02*
X94940000Y-103662634I0J250000D01*
G01*
X94940000Y-102762634D01*
G75*
G02*
X95190000Y-102512634I250000J0D01*
G01*
X95890000Y-102512634D01*
G75*
G02*
X96140000Y-102762634I0J-250000D01*
G01*
G37*
G36*
G01*
X94140000Y-102762634D02*
X94140000Y-103662634D01*
G75*
G02*
X93890000Y-103912634I-250000J0D01*
G01*
X93190000Y-103912634D01*
G75*
G02*
X92940000Y-103662634I0J250000D01*
G01*
X92940000Y-102762634D01*
G75*
G02*
X93190000Y-102512634I250000J0D01*
G01*
X93890000Y-102512634D01*
G75*
G02*
X94140000Y-102762634I0J-250000D01*
G01*
G37*
G36*
G01*
X204416634Y-102262125D02*
X204416634Y-101312125D01*
G75*
G02*
X204666634Y-101062125I250000J0D01*
G01*
X205341634Y-101062125D01*
G75*
G02*
X205591634Y-101312125I0J-250000D01*
G01*
X205591634Y-102262125D01*
G75*
G02*
X205341634Y-102512125I-250000J0D01*
G01*
X204666634Y-102512125D01*
G75*
G02*
X204416634Y-102262125I0J250000D01*
G01*
G37*
G36*
G01*
X206491634Y-102262125D02*
X206491634Y-101312125D01*
G75*
G02*
X206741634Y-101062125I250000J0D01*
G01*
X207416634Y-101062125D01*
G75*
G02*
X207666634Y-101312125I0J-250000D01*
G01*
X207666634Y-102262125D01*
G75*
G02*
X207416634Y-102512125I-250000J0D01*
G01*
X206741634Y-102512125D01*
G75*
G02*
X206491634Y-102262125I0J250000D01*
G01*
G37*
G36*
G01*
X204416634Y-100137125D02*
X204416634Y-99187125D01*
G75*
G02*
X204666634Y-98937125I250000J0D01*
G01*
X205341634Y-98937125D01*
G75*
G02*
X205591634Y-99187125I0J-250000D01*
G01*
X205591634Y-100137125D01*
G75*
G02*
X205341634Y-100387125I-250000J0D01*
G01*
X204666634Y-100387125D01*
G75*
G02*
X204416634Y-100137125I0J250000D01*
G01*
G37*
G36*
G01*
X206491634Y-100137125D02*
X206491634Y-99187125D01*
G75*
G02*
X206741634Y-98937125I250000J0D01*
G01*
X207416634Y-98937125D01*
G75*
G02*
X207666634Y-99187125I0J-250000D01*
G01*
X207666634Y-100137125D01*
G75*
G02*
X207416634Y-100387125I-250000J0D01*
G01*
X206741634Y-100387125D01*
G75*
G02*
X206491634Y-100137125I0J250000D01*
G01*
G37*
G36*
G01*
X127910500Y-104740000D02*
X127160500Y-104740000D01*
G75*
G02*
X126935500Y-104515000I0J225000D01*
G01*
X126935500Y-104065000D01*
G75*
G02*
X127160500Y-103840000I225000J0D01*
G01*
X127910500Y-103840000D01*
G75*
G02*
X128135500Y-104065000I0J-225000D01*
G01*
X128135500Y-104515000D01*
G75*
G02*
X127910500Y-104740000I-225000J0D01*
G01*
G37*
G36*
G01*
X127910500Y-101440000D02*
X127160500Y-101440000D01*
G75*
G02*
X126935500Y-101215000I0J225000D01*
G01*
X126935500Y-100765000D01*
G75*
G02*
X127160500Y-100540000I225000J0D01*
G01*
X127910500Y-100540000D01*
G75*
G02*
X128135500Y-100765000I0J-225000D01*
G01*
X128135500Y-101215000D01*
G75*
G02*
X127910500Y-101440000I-225000J0D01*
G01*
G37*
D20*
X262290000Y-157740000D03*
G36*
G01*
X61990000Y-53497100D02*
X61990000Y-53822100D01*
G75*
G02*
X61827500Y-53984600I-162500J0D01*
G01*
X60592500Y-53984600D01*
G75*
G02*
X60430000Y-53822100I0J162500D01*
G01*
X60430000Y-53497100D01*
G75*
G02*
X60592500Y-53334600I162500J0D01*
G01*
X61827500Y-53334600D01*
G75*
G02*
X61990000Y-53497100I0J-162500D01*
G01*
G37*
G36*
G01*
X61990000Y-52547100D02*
X61990000Y-52872100D01*
G75*
G02*
X61827500Y-53034600I-162500J0D01*
G01*
X60592500Y-53034600D01*
G75*
G02*
X60430000Y-52872100I0J162500D01*
G01*
X60430000Y-52547100D01*
G75*
G02*
X60592500Y-52384600I162500J0D01*
G01*
X61827500Y-52384600D01*
G75*
G02*
X61990000Y-52547100I0J-162500D01*
G01*
G37*
G36*
G01*
X61990000Y-51597100D02*
X61990000Y-51922100D01*
G75*
G02*
X61827500Y-52084600I-162500J0D01*
G01*
X60592500Y-52084600D01*
G75*
G02*
X60430000Y-51922100I0J162500D01*
G01*
X60430000Y-51597100D01*
G75*
G02*
X60592500Y-51434600I162500J0D01*
G01*
X61827500Y-51434600D01*
G75*
G02*
X61990000Y-51597100I0J-162500D01*
G01*
G37*
G36*
G01*
X59290000Y-51597100D02*
X59290000Y-51922100D01*
G75*
G02*
X59127500Y-52084600I-162500J0D01*
G01*
X57892500Y-52084600D01*
G75*
G02*
X57730000Y-51922100I0J162500D01*
G01*
X57730000Y-51597100D01*
G75*
G02*
X57892500Y-51434600I162500J0D01*
G01*
X59127500Y-51434600D01*
G75*
G02*
X59290000Y-51597100I0J-162500D01*
G01*
G37*
G36*
G01*
X59290000Y-53497100D02*
X59290000Y-53822100D01*
G75*
G02*
X59127500Y-53984600I-162500J0D01*
G01*
X57892500Y-53984600D01*
G75*
G02*
X57730000Y-53822100I0J162500D01*
G01*
X57730000Y-53497100D01*
G75*
G02*
X57892500Y-53334600I162500J0D01*
G01*
X59127500Y-53334600D01*
G75*
G02*
X59290000Y-53497100I0J-162500D01*
G01*
G37*
G36*
G01*
X65780000Y-87630000D02*
X66680000Y-87630000D01*
G75*
G02*
X66930000Y-87880000I0J-250000D01*
G01*
X66930000Y-88580000D01*
G75*
G02*
X66680000Y-88830000I-250000J0D01*
G01*
X65780000Y-88830000D01*
G75*
G02*
X65530000Y-88580000I0J250000D01*
G01*
X65530000Y-87880000D01*
G75*
G02*
X65780000Y-87630000I250000J0D01*
G01*
G37*
G36*
G01*
X65780000Y-89630000D02*
X66680000Y-89630000D01*
G75*
G02*
X66930000Y-89880000I0J-250000D01*
G01*
X66930000Y-90580000D01*
G75*
G02*
X66680000Y-90830000I-250000J0D01*
G01*
X65780000Y-90830000D01*
G75*
G02*
X65530000Y-90580000I0J250000D01*
G01*
X65530000Y-89880000D01*
G75*
G02*
X65780000Y-89630000I250000J0D01*
G01*
G37*
G36*
G01*
X37765000Y-72382500D02*
X36815000Y-72382500D01*
G75*
G02*
X36565000Y-72132500I0J250000D01*
G01*
X36565000Y-71457500D01*
G75*
G02*
X36815000Y-71207500I250000J0D01*
G01*
X37765000Y-71207500D01*
G75*
G02*
X38015000Y-71457500I0J-250000D01*
G01*
X38015000Y-72132500D01*
G75*
G02*
X37765000Y-72382500I-250000J0D01*
G01*
G37*
G36*
G01*
X37765000Y-70307500D02*
X36815000Y-70307500D01*
G75*
G02*
X36565000Y-70057500I0J250000D01*
G01*
X36565000Y-69382500D01*
G75*
G02*
X36815000Y-69132500I250000J0D01*
G01*
X37765000Y-69132500D01*
G75*
G02*
X38015000Y-69382500I0J-250000D01*
G01*
X38015000Y-70057500D01*
G75*
G02*
X37765000Y-70307500I-250000J0D01*
G01*
G37*
G36*
G01*
X150430000Y-116490000D02*
X150130000Y-116490000D01*
G75*
G02*
X149980000Y-116340000I0J150000D01*
G01*
X149980000Y-114690000D01*
G75*
G02*
X150130000Y-114540000I150000J0D01*
G01*
X150430000Y-114540000D01*
G75*
G02*
X150580000Y-114690000I0J-150000D01*
G01*
X150580000Y-116340000D01*
G75*
G02*
X150430000Y-116490000I-150000J0D01*
G01*
G37*
G36*
G01*
X151700000Y-116490000D02*
X151400000Y-116490000D01*
G75*
G02*
X151250000Y-116340000I0J150000D01*
G01*
X151250000Y-114690000D01*
G75*
G02*
X151400000Y-114540000I150000J0D01*
G01*
X151700000Y-114540000D01*
G75*
G02*
X151850000Y-114690000I0J-150000D01*
G01*
X151850000Y-116340000D01*
G75*
G02*
X151700000Y-116490000I-150000J0D01*
G01*
G37*
G36*
G01*
X152970000Y-116490000D02*
X152670000Y-116490000D01*
G75*
G02*
X152520000Y-116340000I0J150000D01*
G01*
X152520000Y-114690000D01*
G75*
G02*
X152670000Y-114540000I150000J0D01*
G01*
X152970000Y-114540000D01*
G75*
G02*
X153120000Y-114690000I0J-150000D01*
G01*
X153120000Y-116340000D01*
G75*
G02*
X152970000Y-116490000I-150000J0D01*
G01*
G37*
G36*
G01*
X154240000Y-116490000D02*
X153940000Y-116490000D01*
G75*
G02*
X153790000Y-116340000I0J150000D01*
G01*
X153790000Y-114690000D01*
G75*
G02*
X153940000Y-114540000I150000J0D01*
G01*
X154240000Y-114540000D01*
G75*
G02*
X154390000Y-114690000I0J-150000D01*
G01*
X154390000Y-116340000D01*
G75*
G02*
X154240000Y-116490000I-150000J0D01*
G01*
G37*
G36*
G01*
X154240000Y-111540000D02*
X153940000Y-111540000D01*
G75*
G02*
X153790000Y-111390000I0J150000D01*
G01*
X153790000Y-109740000D01*
G75*
G02*
X153940000Y-109590000I150000J0D01*
G01*
X154240000Y-109590000D01*
G75*
G02*
X154390000Y-109740000I0J-150000D01*
G01*
X154390000Y-111390000D01*
G75*
G02*
X154240000Y-111540000I-150000J0D01*
G01*
G37*
G36*
G01*
X152970000Y-111540000D02*
X152670000Y-111540000D01*
G75*
G02*
X152520000Y-111390000I0J150000D01*
G01*
X152520000Y-109740000D01*
G75*
G02*
X152670000Y-109590000I150000J0D01*
G01*
X152970000Y-109590000D01*
G75*
G02*
X153120000Y-109740000I0J-150000D01*
G01*
X153120000Y-111390000D01*
G75*
G02*
X152970000Y-111540000I-150000J0D01*
G01*
G37*
G36*
G01*
X151700000Y-111540000D02*
X151400000Y-111540000D01*
G75*
G02*
X151250000Y-111390000I0J150000D01*
G01*
X151250000Y-109740000D01*
G75*
G02*
X151400000Y-109590000I150000J0D01*
G01*
X151700000Y-109590000D01*
G75*
G02*
X151850000Y-109740000I0J-150000D01*
G01*
X151850000Y-111390000D01*
G75*
G02*
X151700000Y-111540000I-150000J0D01*
G01*
G37*
G36*
G01*
X150430000Y-111540000D02*
X150130000Y-111540000D01*
G75*
G02*
X149980000Y-111390000I0J150000D01*
G01*
X149980000Y-109740000D01*
G75*
G02*
X150130000Y-109590000I150000J0D01*
G01*
X150430000Y-109590000D01*
G75*
G02*
X150580000Y-109740000I0J-150000D01*
G01*
X150580000Y-111390000D01*
G75*
G02*
X150430000Y-111540000I-150000J0D01*
G01*
G37*
G36*
G01*
X241757100Y-83440000D02*
X242657100Y-83440000D01*
G75*
G02*
X242907100Y-83690000I0J-250000D01*
G01*
X242907100Y-84390000D01*
G75*
G02*
X242657100Y-84640000I-250000J0D01*
G01*
X241757100Y-84640000D01*
G75*
G02*
X241507100Y-84390000I0J250000D01*
G01*
X241507100Y-83690000D01*
G75*
G02*
X241757100Y-83440000I250000J0D01*
G01*
G37*
G36*
G01*
X241757100Y-85440000D02*
X242657100Y-85440000D01*
G75*
G02*
X242907100Y-85690000I0J-250000D01*
G01*
X242907100Y-86390000D01*
G75*
G02*
X242657100Y-86640000I-250000J0D01*
G01*
X241757100Y-86640000D01*
G75*
G02*
X241507100Y-86390000I0J250000D01*
G01*
X241507100Y-85690000D01*
G75*
G02*
X241757100Y-85440000I250000J0D01*
G01*
G37*
G36*
G01*
X57502500Y-88570000D02*
X57502500Y-87620000D01*
G75*
G02*
X57752500Y-87370000I250000J0D01*
G01*
X58427500Y-87370000D01*
G75*
G02*
X58677500Y-87620000I0J-250000D01*
G01*
X58677500Y-88570000D01*
G75*
G02*
X58427500Y-88820000I-250000J0D01*
G01*
X57752500Y-88820000D01*
G75*
G02*
X57502500Y-88570000I0J250000D01*
G01*
G37*
G36*
G01*
X59577500Y-88570000D02*
X59577500Y-87620000D01*
G75*
G02*
X59827500Y-87370000I250000J0D01*
G01*
X60502500Y-87370000D01*
G75*
G02*
X60752500Y-87620000I0J-250000D01*
G01*
X60752500Y-88570000D01*
G75*
G02*
X60502500Y-88820000I-250000J0D01*
G01*
X59827500Y-88820000D01*
G75*
G02*
X59577500Y-88570000I0J250000D01*
G01*
G37*
G36*
G01*
X259557500Y-98200350D02*
X259557500Y-97300350D01*
G75*
G02*
X259807500Y-97050350I250000J0D01*
G01*
X260507500Y-97050350D01*
G75*
G02*
X260757500Y-97300350I0J-250000D01*
G01*
X260757500Y-98200350D01*
G75*
G02*
X260507500Y-98450350I-250000J0D01*
G01*
X259807500Y-98450350D01*
G75*
G02*
X259557500Y-98200350I0J250000D01*
G01*
G37*
G36*
G01*
X261557500Y-98200350D02*
X261557500Y-97300350D01*
G75*
G02*
X261807500Y-97050350I250000J0D01*
G01*
X262507500Y-97050350D01*
G75*
G02*
X262757500Y-97300350I0J-250000D01*
G01*
X262757500Y-98200350D01*
G75*
G02*
X262507500Y-98450350I-250000J0D01*
G01*
X261807500Y-98450350D01*
G75*
G02*
X261557500Y-98200350I0J250000D01*
G01*
G37*
G36*
G01*
X51765000Y-108615000D02*
X51765000Y-107665000D01*
G75*
G02*
X52015000Y-107415000I250000J0D01*
G01*
X52690000Y-107415000D01*
G75*
G02*
X52940000Y-107665000I0J-250000D01*
G01*
X52940000Y-108615000D01*
G75*
G02*
X52690000Y-108865000I-250000J0D01*
G01*
X52015000Y-108865000D01*
G75*
G02*
X51765000Y-108615000I0J250000D01*
G01*
G37*
G36*
G01*
X53840000Y-108615000D02*
X53840000Y-107665000D01*
G75*
G02*
X54090000Y-107415000I250000J0D01*
G01*
X54765000Y-107415000D01*
G75*
G02*
X55015000Y-107665000I0J-250000D01*
G01*
X55015000Y-108615000D01*
G75*
G02*
X54765000Y-108865000I-250000J0D01*
G01*
X54090000Y-108865000D01*
G75*
G02*
X53840000Y-108615000I0J250000D01*
G01*
G37*
D17*
X272540000Y-103740000D03*
G36*
G01*
X72560000Y-55890000D02*
X72560000Y-57690000D01*
G75*
G02*
X72310000Y-57940000I-250000J0D01*
G01*
X69310000Y-57940000D01*
G75*
G02*
X69060000Y-57690000I0J250000D01*
G01*
X69060000Y-55890000D01*
G75*
G02*
X69310000Y-55640000I250000J0D01*
G01*
X72310000Y-55640000D01*
G75*
G02*
X72560000Y-55890000I0J-250000D01*
G01*
G37*
G36*
G01*
X67160000Y-55890000D02*
X67160000Y-57690000D01*
G75*
G02*
X66910000Y-57940000I-250000J0D01*
G01*
X63910000Y-57940000D01*
G75*
G02*
X63660000Y-57690000I0J250000D01*
G01*
X63660000Y-55890000D01*
G75*
G02*
X63910000Y-55640000I250000J0D01*
G01*
X66910000Y-55640000D01*
G75*
G02*
X67160000Y-55890000I0J-250000D01*
G01*
G37*
D28*
X33681000Y-116490000D03*
X39399000Y-116490000D03*
G36*
G01*
X67870000Y-91765000D02*
X67870000Y-92665000D01*
G75*
G02*
X67620000Y-92915000I-250000J0D01*
G01*
X66920000Y-92915000D01*
G75*
G02*
X66670000Y-92665000I0J250000D01*
G01*
X66670000Y-91765000D01*
G75*
G02*
X66920000Y-91515000I250000J0D01*
G01*
X67620000Y-91515000D01*
G75*
G02*
X67870000Y-91765000I0J-250000D01*
G01*
G37*
G36*
G01*
X65870000Y-91765000D02*
X65870000Y-92665000D01*
G75*
G02*
X65620000Y-92915000I-250000J0D01*
G01*
X64920000Y-92915000D01*
G75*
G02*
X64670000Y-92665000I0J250000D01*
G01*
X64670000Y-91765000D01*
G75*
G02*
X64920000Y-91515000I250000J0D01*
G01*
X65620000Y-91515000D01*
G75*
G02*
X65870000Y-91765000I0J-250000D01*
G01*
G37*
G36*
G01*
X271315000Y-58570000D02*
X271665000Y-58570000D01*
G75*
G02*
X271840000Y-58745000I0J-175000D01*
G01*
X271840000Y-60395000D01*
G75*
G02*
X271665000Y-60570000I-175000J0D01*
G01*
X271315000Y-60570000D01*
G75*
G02*
X271140000Y-60395000I0J175000D01*
G01*
X271140000Y-58745000D01*
G75*
G02*
X271315000Y-58570000I175000J0D01*
G01*
G37*
G36*
G01*
X269415000Y-58570000D02*
X269765000Y-58570000D01*
G75*
G02*
X269940000Y-58745000I0J-175000D01*
G01*
X269940000Y-60395000D01*
G75*
G02*
X269765000Y-60570000I-175000J0D01*
G01*
X269415000Y-60570000D01*
G75*
G02*
X269240000Y-60395000I0J175000D01*
G01*
X269240000Y-58745000D01*
G75*
G02*
X269415000Y-58570000I175000J0D01*
G01*
G37*
G36*
G01*
X270365000Y-61970000D02*
X270715000Y-61970000D01*
G75*
G02*
X270890000Y-62145000I0J-175000D01*
G01*
X270890000Y-63795000D01*
G75*
G02*
X270715000Y-63970000I-175000J0D01*
G01*
X270365000Y-63970000D01*
G75*
G02*
X270190000Y-63795000I0J175000D01*
G01*
X270190000Y-62145000D01*
G75*
G02*
X270365000Y-61970000I175000J0D01*
G01*
G37*
G36*
G01*
X151907500Y-99295000D02*
X151907500Y-100245000D01*
G75*
G02*
X151657500Y-100495000I-250000J0D01*
G01*
X150982500Y-100495000D01*
G75*
G02*
X150732500Y-100245000I0J250000D01*
G01*
X150732500Y-99295000D01*
G75*
G02*
X150982500Y-99045000I250000J0D01*
G01*
X151657500Y-99045000D01*
G75*
G02*
X151907500Y-99295000I0J-250000D01*
G01*
G37*
G36*
G01*
X149832500Y-99295000D02*
X149832500Y-100245000D01*
G75*
G02*
X149582500Y-100495000I-250000J0D01*
G01*
X148907500Y-100495000D01*
G75*
G02*
X148657500Y-100245000I0J250000D01*
G01*
X148657500Y-99295000D01*
G75*
G02*
X148907500Y-99045000I250000J0D01*
G01*
X149582500Y-99045000D01*
G75*
G02*
X149832500Y-99295000I0J-250000D01*
G01*
G37*
G36*
G01*
X67895000Y-93740000D02*
X67895000Y-94690000D01*
G75*
G02*
X67645000Y-94940000I-250000J0D01*
G01*
X66970000Y-94940000D01*
G75*
G02*
X66720000Y-94690000I0J250000D01*
G01*
X66720000Y-93740000D01*
G75*
G02*
X66970000Y-93490000I250000J0D01*
G01*
X67645000Y-93490000D01*
G75*
G02*
X67895000Y-93740000I0J-250000D01*
G01*
G37*
G36*
G01*
X65820000Y-93740000D02*
X65820000Y-94690000D01*
G75*
G02*
X65570000Y-94940000I-250000J0D01*
G01*
X64895000Y-94940000D01*
G75*
G02*
X64645000Y-94690000I0J250000D01*
G01*
X64645000Y-93740000D01*
G75*
G02*
X64895000Y-93490000I250000J0D01*
G01*
X65570000Y-93490000D01*
G75*
G02*
X65820000Y-93740000I0J-250000D01*
G01*
G37*
G36*
G01*
X46677100Y-87605000D02*
X47627100Y-87605000D01*
G75*
G02*
X47877100Y-87855000I0J-250000D01*
G01*
X47877100Y-88530000D01*
G75*
G02*
X47627100Y-88780000I-250000J0D01*
G01*
X46677100Y-88780000D01*
G75*
G02*
X46427100Y-88530000I0J250000D01*
G01*
X46427100Y-87855000D01*
G75*
G02*
X46677100Y-87605000I250000J0D01*
G01*
G37*
G36*
G01*
X46677100Y-89680000D02*
X47627100Y-89680000D01*
G75*
G02*
X47877100Y-89930000I0J-250000D01*
G01*
X47877100Y-90605000D01*
G75*
G02*
X47627100Y-90855000I-250000J0D01*
G01*
X46677100Y-90855000D01*
G75*
G02*
X46427100Y-90605000I0J250000D01*
G01*
X46427100Y-89930000D01*
G75*
G02*
X46677100Y-89680000I250000J0D01*
G01*
G37*
G36*
G01*
X180629000Y-107760967D02*
X180629000Y-106810967D01*
G75*
G02*
X180879000Y-106560967I250000J0D01*
G01*
X181554000Y-106560967D01*
G75*
G02*
X181804000Y-106810967I0J-250000D01*
G01*
X181804000Y-107760967D01*
G75*
G02*
X181554000Y-108010967I-250000J0D01*
G01*
X180879000Y-108010967D01*
G75*
G02*
X180629000Y-107760967I0J250000D01*
G01*
G37*
G36*
G01*
X182704000Y-107760967D02*
X182704000Y-106810967D01*
G75*
G02*
X182954000Y-106560967I250000J0D01*
G01*
X183629000Y-106560967D01*
G75*
G02*
X183879000Y-106810967I0J-250000D01*
G01*
X183879000Y-107760967D01*
G75*
G02*
X183629000Y-108010967I-250000J0D01*
G01*
X182954000Y-108010967D01*
G75*
G02*
X182704000Y-107760967I0J250000D01*
G01*
G37*
G36*
G01*
X61790000Y-87640000D02*
X62690000Y-87640000D01*
G75*
G02*
X62940000Y-87890000I0J-250000D01*
G01*
X62940000Y-88590000D01*
G75*
G02*
X62690000Y-88840000I-250000J0D01*
G01*
X61790000Y-88840000D01*
G75*
G02*
X61540000Y-88590000I0J250000D01*
G01*
X61540000Y-87890000D01*
G75*
G02*
X61790000Y-87640000I250000J0D01*
G01*
G37*
G36*
G01*
X61790000Y-89640000D02*
X62690000Y-89640000D01*
G75*
G02*
X62940000Y-89890000I0J-250000D01*
G01*
X62940000Y-90590000D01*
G75*
G02*
X62690000Y-90840000I-250000J0D01*
G01*
X61790000Y-90840000D01*
G75*
G02*
X61540000Y-90590000I0J250000D01*
G01*
X61540000Y-89890000D01*
G75*
G02*
X61790000Y-89640000I250000J0D01*
G01*
G37*
G36*
G01*
X29440000Y-70440000D02*
X29440000Y-69540000D01*
G75*
G02*
X29690000Y-69290000I250000J0D01*
G01*
X30390000Y-69290000D01*
G75*
G02*
X30640000Y-69540000I0J-250000D01*
G01*
X30640000Y-70440000D01*
G75*
G02*
X30390000Y-70690000I-250000J0D01*
G01*
X29690000Y-70690000D01*
G75*
G02*
X29440000Y-70440000I0J250000D01*
G01*
G37*
G36*
G01*
X31440000Y-70440000D02*
X31440000Y-69540000D01*
G75*
G02*
X31690000Y-69290000I250000J0D01*
G01*
X32390000Y-69290000D01*
G75*
G02*
X32640000Y-69540000I0J-250000D01*
G01*
X32640000Y-70440000D01*
G75*
G02*
X32390000Y-70690000I-250000J0D01*
G01*
X31690000Y-70690000D01*
G75*
G02*
X31440000Y-70440000I0J250000D01*
G01*
G37*
G36*
G01*
X60435000Y-55424600D02*
X60435000Y-56374600D01*
G75*
G02*
X60185000Y-56624600I-250000J0D01*
G01*
X59510000Y-56624600D01*
G75*
G02*
X59260000Y-56374600I0J250000D01*
G01*
X59260000Y-55424600D01*
G75*
G02*
X59510000Y-55174600I250000J0D01*
G01*
X60185000Y-55174600D01*
G75*
G02*
X60435000Y-55424600I0J-250000D01*
G01*
G37*
G36*
G01*
X58360000Y-55424600D02*
X58360000Y-56374600D01*
G75*
G02*
X58110000Y-56624600I-250000J0D01*
G01*
X57435000Y-56624600D01*
G75*
G02*
X57185000Y-56374600I0J250000D01*
G01*
X57185000Y-55424600D01*
G75*
G02*
X57435000Y-55174600I250000J0D01*
G01*
X58110000Y-55174600D01*
G75*
G02*
X58360000Y-55424600I0J-250000D01*
G01*
G37*
G36*
G01*
X59940000Y-45565000D02*
X60840000Y-45565000D01*
G75*
G02*
X61090000Y-45815000I0J-250000D01*
G01*
X61090000Y-46515000D01*
G75*
G02*
X60840000Y-46765000I-250000J0D01*
G01*
X59940000Y-46765000D01*
G75*
G02*
X59690000Y-46515000I0J250000D01*
G01*
X59690000Y-45815000D01*
G75*
G02*
X59940000Y-45565000I250000J0D01*
G01*
G37*
G36*
G01*
X59940000Y-47565000D02*
X60840000Y-47565000D01*
G75*
G02*
X61090000Y-47815000I0J-250000D01*
G01*
X61090000Y-48515000D01*
G75*
G02*
X60840000Y-48765000I-250000J0D01*
G01*
X59940000Y-48765000D01*
G75*
G02*
X59690000Y-48515000I0J250000D01*
G01*
X59690000Y-47815000D01*
G75*
G02*
X59940000Y-47565000I250000J0D01*
G01*
G37*
G36*
G01*
X197536734Y-102254325D02*
X197536734Y-101354325D01*
G75*
G02*
X197786734Y-101104325I250000J0D01*
G01*
X198486734Y-101104325D01*
G75*
G02*
X198736734Y-101354325I0J-250000D01*
G01*
X198736734Y-102254325D01*
G75*
G02*
X198486734Y-102504325I-250000J0D01*
G01*
X197786734Y-102504325D01*
G75*
G02*
X197536734Y-102254325I0J250000D01*
G01*
G37*
G36*
G01*
X199536734Y-102254325D02*
X199536734Y-101354325D01*
G75*
G02*
X199786734Y-101104325I250000J0D01*
G01*
X200486734Y-101104325D01*
G75*
G02*
X200736734Y-101354325I0J-250000D01*
G01*
X200736734Y-102254325D01*
G75*
G02*
X200486734Y-102504325I-250000J0D01*
G01*
X199786734Y-102504325D01*
G75*
G02*
X199536734Y-102254325I0J250000D01*
G01*
G37*
D10*
X220251734Y-102886025D03*
G36*
G01*
X64090400Y-101290000D02*
X64090400Y-102240000D01*
G75*
G02*
X63840400Y-102490000I-250000J0D01*
G01*
X63165400Y-102490000D01*
G75*
G02*
X62915400Y-102240000I0J250000D01*
G01*
X62915400Y-101290000D01*
G75*
G02*
X63165400Y-101040000I250000J0D01*
G01*
X63840400Y-101040000D01*
G75*
G02*
X64090400Y-101290000I0J-250000D01*
G01*
G37*
G36*
G01*
X62015400Y-101290000D02*
X62015400Y-102240000D01*
G75*
G02*
X61765400Y-102490000I-250000J0D01*
G01*
X61090400Y-102490000D01*
G75*
G02*
X60840400Y-102240000I0J250000D01*
G01*
X60840400Y-101290000D01*
G75*
G02*
X61090400Y-101040000I250000J0D01*
G01*
X61765400Y-101040000D01*
G75*
G02*
X62015400Y-101290000I0J-250000D01*
G01*
G37*
G36*
G01*
X50812100Y-93740000D02*
X50812100Y-94690000D01*
G75*
G02*
X50562100Y-94940000I-250000J0D01*
G01*
X49887100Y-94940000D01*
G75*
G02*
X49637100Y-94690000I0J250000D01*
G01*
X49637100Y-93740000D01*
G75*
G02*
X49887100Y-93490000I250000J0D01*
G01*
X50562100Y-93490000D01*
G75*
G02*
X50812100Y-93740000I0J-250000D01*
G01*
G37*
G36*
G01*
X48737100Y-93740000D02*
X48737100Y-94690000D01*
G75*
G02*
X48487100Y-94940000I-250000J0D01*
G01*
X47812100Y-94940000D01*
G75*
G02*
X47562100Y-94690000I0J250000D01*
G01*
X47562100Y-93740000D01*
G75*
G02*
X47812100Y-93490000I250000J0D01*
G01*
X48487100Y-93490000D01*
G75*
G02*
X48737100Y-93740000I0J-250000D01*
G01*
G37*
G36*
G01*
X111374600Y-97035000D02*
X111374600Y-97985000D01*
G75*
G02*
X111124600Y-98235000I-250000J0D01*
G01*
X110449600Y-98235000D01*
G75*
G02*
X110199600Y-97985000I0J250000D01*
G01*
X110199600Y-97035000D01*
G75*
G02*
X110449600Y-96785000I250000J0D01*
G01*
X111124600Y-96785000D01*
G75*
G02*
X111374600Y-97035000I0J-250000D01*
G01*
G37*
G36*
G01*
X109299600Y-97035000D02*
X109299600Y-97985000D01*
G75*
G02*
X109049600Y-98235000I-250000J0D01*
G01*
X108374600Y-98235000D01*
G75*
G02*
X108124600Y-97985000I0J250000D01*
G01*
X108124600Y-97035000D01*
G75*
G02*
X108374600Y-96785000I250000J0D01*
G01*
X109049600Y-96785000D01*
G75*
G02*
X109299600Y-97035000I0J-250000D01*
G01*
G37*
D14*
X209401734Y-104284300D03*
X214301734Y-104284300D03*
D24*
X125615200Y-114429200D03*
X107815200Y-114429200D03*
G36*
G01*
X108175000Y-102252600D02*
X108175000Y-101352600D01*
G75*
G02*
X108425000Y-101102600I250000J0D01*
G01*
X109125000Y-101102600D01*
G75*
G02*
X109375000Y-101352600I0J-250000D01*
G01*
X109375000Y-102252600D01*
G75*
G02*
X109125000Y-102502600I-250000J0D01*
G01*
X108425000Y-102502600D01*
G75*
G02*
X108175000Y-102252600I0J250000D01*
G01*
G37*
G36*
G01*
X110175000Y-102252600D02*
X110175000Y-101352600D01*
G75*
G02*
X110425000Y-101102600I250000J0D01*
G01*
X111125000Y-101102600D01*
G75*
G02*
X111375000Y-101352600I0J-250000D01*
G01*
X111375000Y-102252600D01*
G75*
G02*
X111125000Y-102502600I-250000J0D01*
G01*
X110425000Y-102502600D01*
G75*
G02*
X110175000Y-102252600I0J250000D01*
G01*
G37*
G36*
G01*
X145802500Y-83445000D02*
X146702500Y-83445000D01*
G75*
G02*
X146952500Y-83695000I0J-250000D01*
G01*
X146952500Y-84395000D01*
G75*
G02*
X146702500Y-84645000I-250000J0D01*
G01*
X145802500Y-84645000D01*
G75*
G02*
X145552500Y-84395000I0J250000D01*
G01*
X145552500Y-83695000D01*
G75*
G02*
X145802500Y-83445000I250000J0D01*
G01*
G37*
G36*
G01*
X145802500Y-85445000D02*
X146702500Y-85445000D01*
G75*
G02*
X146952500Y-85695000I0J-250000D01*
G01*
X146952500Y-86395000D01*
G75*
G02*
X146702500Y-86645000I-250000J0D01*
G01*
X145802500Y-86645000D01*
G75*
G02*
X145552500Y-86395000I0J250000D01*
G01*
X145552500Y-85695000D01*
G75*
G02*
X145802500Y-85445000I250000J0D01*
G01*
G37*
D10*
X98815000Y-106506700D03*
G36*
G01*
X60435000Y-57565000D02*
X60435000Y-58515000D01*
G75*
G02*
X60185000Y-58765000I-250000J0D01*
G01*
X59510000Y-58765000D01*
G75*
G02*
X59260000Y-58515000I0J250000D01*
G01*
X59260000Y-57565000D01*
G75*
G02*
X59510000Y-57315000I250000J0D01*
G01*
X60185000Y-57315000D01*
G75*
G02*
X60435000Y-57565000I0J-250000D01*
G01*
G37*
G36*
G01*
X58360000Y-57565000D02*
X58360000Y-58515000D01*
G75*
G02*
X58110000Y-58765000I-250000J0D01*
G01*
X57435000Y-58765000D01*
G75*
G02*
X57185000Y-58515000I0J250000D01*
G01*
X57185000Y-57565000D01*
G75*
G02*
X57435000Y-57315000I250000J0D01*
G01*
X58110000Y-57315000D01*
G75*
G02*
X58360000Y-57565000I0J-250000D01*
G01*
G37*
D27*
X76615000Y-107938400D03*
X76615000Y-103038400D03*
X79890000Y-107938400D03*
X79890000Y-103038400D03*
G36*
G01*
X147772500Y-87610000D02*
X148722500Y-87610000D01*
G75*
G02*
X148972500Y-87860000I0J-250000D01*
G01*
X148972500Y-88535000D01*
G75*
G02*
X148722500Y-88785000I-250000J0D01*
G01*
X147772500Y-88785000D01*
G75*
G02*
X147522500Y-88535000I0J250000D01*
G01*
X147522500Y-87860000D01*
G75*
G02*
X147772500Y-87610000I250000J0D01*
G01*
G37*
G36*
G01*
X147772500Y-89685000D02*
X148722500Y-89685000D01*
G75*
G02*
X148972500Y-89935000I0J-250000D01*
G01*
X148972500Y-90610000D01*
G75*
G02*
X148722500Y-90860000I-250000J0D01*
G01*
X147772500Y-90860000D01*
G75*
G02*
X147522500Y-90610000I0J250000D01*
G01*
X147522500Y-89935000D01*
G75*
G02*
X147772500Y-89685000I250000J0D01*
G01*
G37*
G36*
G01*
X64670000Y-98190000D02*
X64670000Y-97290000D01*
G75*
G02*
X64920000Y-97040000I250000J0D01*
G01*
X65620000Y-97040000D01*
G75*
G02*
X65870000Y-97290000I0J-250000D01*
G01*
X65870000Y-98190000D01*
G75*
G02*
X65620000Y-98440000I-250000J0D01*
G01*
X64920000Y-98440000D01*
G75*
G02*
X64670000Y-98190000I0J250000D01*
G01*
G37*
G36*
G01*
X66670000Y-98190000D02*
X66670000Y-97290000D01*
G75*
G02*
X66920000Y-97040000I250000J0D01*
G01*
X67620000Y-97040000D01*
G75*
G02*
X67870000Y-97290000I0J-250000D01*
G01*
X67870000Y-98190000D01*
G75*
G02*
X67620000Y-98440000I-250000J0D01*
G01*
X66920000Y-98440000D01*
G75*
G02*
X66670000Y-98190000I0J250000D01*
G01*
G37*
G36*
G01*
X91957200Y-97085400D02*
X91957200Y-97985400D01*
G75*
G02*
X91707200Y-98235400I-250000J0D01*
G01*
X91007200Y-98235400D01*
G75*
G02*
X90757200Y-97985400I0J250000D01*
G01*
X90757200Y-97085400D01*
G75*
G02*
X91007200Y-96835400I250000J0D01*
G01*
X91707200Y-96835400D01*
G75*
G02*
X91957200Y-97085400I0J-250000D01*
G01*
G37*
G36*
G01*
X89957200Y-97085400D02*
X89957200Y-97985400D01*
G75*
G02*
X89707200Y-98235400I-250000J0D01*
G01*
X89007200Y-98235400D01*
G75*
G02*
X88757200Y-97985400I0J250000D01*
G01*
X88757200Y-97085400D01*
G75*
G02*
X89007200Y-96835400I250000J0D01*
G01*
X89707200Y-96835400D01*
G75*
G02*
X89957200Y-97085400I0J-250000D01*
G01*
G37*
G36*
G01*
X148682500Y-98195000D02*
X148682500Y-97295000D01*
G75*
G02*
X148932500Y-97045000I250000J0D01*
G01*
X149632500Y-97045000D01*
G75*
G02*
X149882500Y-97295000I0J-250000D01*
G01*
X149882500Y-98195000D01*
G75*
G02*
X149632500Y-98445000I-250000J0D01*
G01*
X148932500Y-98445000D01*
G75*
G02*
X148682500Y-98195000I0J250000D01*
G01*
G37*
G36*
G01*
X150682500Y-98195000D02*
X150682500Y-97295000D01*
G75*
G02*
X150932500Y-97045000I250000J0D01*
G01*
X151632500Y-97045000D01*
G75*
G02*
X151882500Y-97295000I0J-250000D01*
G01*
X151882500Y-98195000D01*
G75*
G02*
X151632500Y-98445000I-250000J0D01*
G01*
X150932500Y-98445000D01*
G75*
G02*
X150682500Y-98195000I0J250000D01*
G01*
G37*
G36*
G01*
X234825000Y-106359980D02*
X234825000Y-105459980D01*
G75*
G02*
X235075000Y-105209980I250000J0D01*
G01*
X235775000Y-105209980D01*
G75*
G02*
X236025000Y-105459980I0J-250000D01*
G01*
X236025000Y-106359980D01*
G75*
G02*
X235775000Y-106609980I-250000J0D01*
G01*
X235075000Y-106609980D01*
G75*
G02*
X234825000Y-106359980I0J250000D01*
G01*
G37*
G36*
G01*
X236825000Y-106359980D02*
X236825000Y-105459980D01*
G75*
G02*
X237075000Y-105209980I250000J0D01*
G01*
X237775000Y-105209980D01*
G75*
G02*
X238025000Y-105459980I0J-250000D01*
G01*
X238025000Y-106359980D01*
G75*
G02*
X237775000Y-106609980I-250000J0D01*
G01*
X237075000Y-106609980D01*
G75*
G02*
X236825000Y-106359980I0J250000D01*
G01*
G37*
D20*
X27290000Y-157740000D03*
G36*
G01*
X20390000Y-63152500D02*
X22590000Y-63152500D01*
G75*
G02*
X22840000Y-63402500I0J-250000D01*
G01*
X22840000Y-64227500D01*
G75*
G02*
X22590000Y-64477500I-250000J0D01*
G01*
X20390000Y-64477500D01*
G75*
G02*
X20140000Y-64227500I0J250000D01*
G01*
X20140000Y-63402500D01*
G75*
G02*
X20390000Y-63152500I250000J0D01*
G01*
G37*
G36*
G01*
X20390000Y-66277500D02*
X22590000Y-66277500D01*
G75*
G02*
X22840000Y-66527500I0J-250000D01*
G01*
X22840000Y-67352500D01*
G75*
G02*
X22590000Y-67602500I-250000J0D01*
G01*
X20390000Y-67602500D01*
G75*
G02*
X20140000Y-67352500I0J250000D01*
G01*
X20140000Y-66527500D01*
G75*
G02*
X20390000Y-66277500I250000J0D01*
G01*
G37*
G36*
G01*
X140877900Y-88575000D02*
X140877900Y-87625000D01*
G75*
G02*
X141127900Y-87375000I250000J0D01*
G01*
X141802900Y-87375000D01*
G75*
G02*
X142052900Y-87625000I0J-250000D01*
G01*
X142052900Y-88575000D01*
G75*
G02*
X141802900Y-88825000I-250000J0D01*
G01*
X141127900Y-88825000D01*
G75*
G02*
X140877900Y-88575000I0J250000D01*
G01*
G37*
G36*
G01*
X142952900Y-88575000D02*
X142952900Y-87625000D01*
G75*
G02*
X143202900Y-87375000I250000J0D01*
G01*
X143877900Y-87375000D01*
G75*
G02*
X144127900Y-87625000I0J-250000D01*
G01*
X144127900Y-88575000D01*
G75*
G02*
X143877900Y-88825000I-250000J0D01*
G01*
X143202900Y-88825000D01*
G75*
G02*
X142952900Y-88575000I0J250000D01*
G01*
G37*
G36*
G01*
X45490000Y-108665000D02*
X44590000Y-108665000D01*
G75*
G02*
X44340000Y-108415000I0J250000D01*
G01*
X44340000Y-107765000D01*
G75*
G02*
X44590000Y-107515000I250000J0D01*
G01*
X45490000Y-107515000D01*
G75*
G02*
X45740000Y-107765000I0J-250000D01*
G01*
X45740000Y-108415000D01*
G75*
G02*
X45490000Y-108665000I-250000J0D01*
G01*
G37*
G36*
G01*
X45490000Y-106615000D02*
X44590000Y-106615000D01*
G75*
G02*
X44340000Y-106365000I0J250000D01*
G01*
X44340000Y-105715000D01*
G75*
G02*
X44590000Y-105465000I250000J0D01*
G01*
X45490000Y-105465000D01*
G75*
G02*
X45740000Y-105715000I0J-250000D01*
G01*
X45740000Y-106365000D01*
G75*
G02*
X45490000Y-106615000I-250000J0D01*
G01*
G37*
G36*
G01*
X16790000Y-57202500D02*
X18990000Y-57202500D01*
G75*
G02*
X19240000Y-57452500I0J-250000D01*
G01*
X19240000Y-58277500D01*
G75*
G02*
X18990000Y-58527500I-250000J0D01*
G01*
X16790000Y-58527500D01*
G75*
G02*
X16540000Y-58277500I0J250000D01*
G01*
X16540000Y-57452500D01*
G75*
G02*
X16790000Y-57202500I250000J0D01*
G01*
G37*
G36*
G01*
X16790000Y-60327500D02*
X18990000Y-60327500D01*
G75*
G02*
X19240000Y-60577500I0J-250000D01*
G01*
X19240000Y-61402500D01*
G75*
G02*
X18990000Y-61652500I-250000J0D01*
G01*
X16790000Y-61652500D01*
G75*
G02*
X16540000Y-61402500I0J250000D01*
G01*
X16540000Y-60577500D01*
G75*
G02*
X16790000Y-60327500I250000J0D01*
G01*
G37*
G36*
G01*
X244637100Y-98190000D02*
X244637100Y-97290000D01*
G75*
G02*
X244887100Y-97040000I250000J0D01*
G01*
X245587100Y-97040000D01*
G75*
G02*
X245837100Y-97290000I0J-250000D01*
G01*
X245837100Y-98190000D01*
G75*
G02*
X245587100Y-98440000I-250000J0D01*
G01*
X244887100Y-98440000D01*
G75*
G02*
X244637100Y-98190000I0J250000D01*
G01*
G37*
G36*
G01*
X246637100Y-98190000D02*
X246637100Y-97290000D01*
G75*
G02*
X246887100Y-97040000I250000J0D01*
G01*
X247587100Y-97040000D01*
G75*
G02*
X247837100Y-97290000I0J-250000D01*
G01*
X247837100Y-98190000D01*
G75*
G02*
X247587100Y-98440000I-250000J0D01*
G01*
X246887100Y-98440000D01*
G75*
G02*
X246637100Y-98190000I0J250000D01*
G01*
G37*
G36*
G01*
X179671200Y-97085400D02*
X179671200Y-97985400D01*
G75*
G02*
X179421200Y-98235400I-250000J0D01*
G01*
X178721200Y-98235400D01*
G75*
G02*
X178471200Y-97985400I0J250000D01*
G01*
X178471200Y-97085400D01*
G75*
G02*
X178721200Y-96835400I250000J0D01*
G01*
X179421200Y-96835400D01*
G75*
G02*
X179671200Y-97085400I0J-250000D01*
G01*
G37*
G36*
G01*
X177671200Y-97085400D02*
X177671200Y-97985400D01*
G75*
G02*
X177421200Y-98235400I-250000J0D01*
G01*
X176721200Y-98235400D01*
G75*
G02*
X176471200Y-97985400I0J250000D01*
G01*
X176471200Y-97085400D01*
G75*
G02*
X176721200Y-96835400I250000J0D01*
G01*
X177421200Y-96835400D01*
G75*
G02*
X177671200Y-97085400I0J-250000D01*
G01*
G37*
G36*
G01*
X63785000Y-83440000D02*
X64685000Y-83440000D01*
G75*
G02*
X64935000Y-83690000I0J-250000D01*
G01*
X64935000Y-84390000D01*
G75*
G02*
X64685000Y-84640000I-250000J0D01*
G01*
X63785000Y-84640000D01*
G75*
G02*
X63535000Y-84390000I0J250000D01*
G01*
X63535000Y-83690000D01*
G75*
G02*
X63785000Y-83440000I250000J0D01*
G01*
G37*
G36*
G01*
X63785000Y-85440000D02*
X64685000Y-85440000D01*
G75*
G02*
X64935000Y-85690000I0J-250000D01*
G01*
X64935000Y-86390000D01*
G75*
G02*
X64685000Y-86640000I-250000J0D01*
G01*
X63785000Y-86640000D01*
G75*
G02*
X63535000Y-86390000I0J250000D01*
G01*
X63535000Y-85690000D01*
G75*
G02*
X63785000Y-85440000I250000J0D01*
G01*
G37*
D17*
X20290000Y-103740000D03*
G36*
G01*
X197486334Y-97986725D02*
X197486334Y-97036725D01*
G75*
G02*
X197736334Y-96786725I250000J0D01*
G01*
X198411334Y-96786725D01*
G75*
G02*
X198661334Y-97036725I0J-250000D01*
G01*
X198661334Y-97986725D01*
G75*
G02*
X198411334Y-98236725I-250000J0D01*
G01*
X197736334Y-98236725D01*
G75*
G02*
X197486334Y-97986725I0J250000D01*
G01*
G37*
G36*
G01*
X199561334Y-97986725D02*
X199561334Y-97036725D01*
G75*
G02*
X199811334Y-96786725I250000J0D01*
G01*
X200486334Y-96786725D01*
G75*
G02*
X200736334Y-97036725I0J-250000D01*
G01*
X200736334Y-97986725D01*
G75*
G02*
X200486334Y-98236725I-250000J0D01*
G01*
X199811334Y-98236725D01*
G75*
G02*
X199561334Y-97986725I0J250000D01*
G01*
G37*
G36*
G01*
X40970000Y-110265000D02*
X40970000Y-109915000D01*
G75*
G02*
X41145000Y-109740000I175000J0D01*
G01*
X42795000Y-109740000D01*
G75*
G02*
X42970000Y-109915000I0J-175000D01*
G01*
X42970000Y-110265000D01*
G75*
G02*
X42795000Y-110440000I-175000J0D01*
G01*
X41145000Y-110440000D01*
G75*
G02*
X40970000Y-110265000I0J175000D01*
G01*
G37*
G36*
G01*
X40970000Y-112165000D02*
X40970000Y-111815000D01*
G75*
G02*
X41145000Y-111640000I175000J0D01*
G01*
X42795000Y-111640000D01*
G75*
G02*
X42970000Y-111815000I0J-175000D01*
G01*
X42970000Y-112165000D01*
G75*
G02*
X42795000Y-112340000I-175000J0D01*
G01*
X41145000Y-112340000D01*
G75*
G02*
X40970000Y-112165000I0J175000D01*
G01*
G37*
G36*
G01*
X44370000Y-111215000D02*
X44370000Y-110865000D01*
G75*
G02*
X44545000Y-110690000I175000J0D01*
G01*
X46195000Y-110690000D01*
G75*
G02*
X46370000Y-110865000I0J-175000D01*
G01*
X46370000Y-111215000D01*
G75*
G02*
X46195000Y-111390000I-175000J0D01*
G01*
X44545000Y-111390000D01*
G75*
G02*
X44370000Y-111215000I0J175000D01*
G01*
G37*
D10*
X105508400Y-94678243D03*
X160579000Y-106362400D03*
G36*
G01*
X55440000Y-51390000D02*
X56340000Y-51390000D01*
G75*
G02*
X56590000Y-51640000I0J-250000D01*
G01*
X56590000Y-52340000D01*
G75*
G02*
X56340000Y-52590000I-250000J0D01*
G01*
X55440000Y-52590000D01*
G75*
G02*
X55190000Y-52340000I0J250000D01*
G01*
X55190000Y-51640000D01*
G75*
G02*
X55440000Y-51390000I250000J0D01*
G01*
G37*
G36*
G01*
X55440000Y-53390000D02*
X56340000Y-53390000D01*
G75*
G02*
X56590000Y-53640000I0J-250000D01*
G01*
X56590000Y-54340000D01*
G75*
G02*
X56340000Y-54590000I-250000J0D01*
G01*
X55440000Y-54590000D01*
G75*
G02*
X55190000Y-54340000I0J250000D01*
G01*
X55190000Y-53640000D01*
G75*
G02*
X55440000Y-53390000I250000J0D01*
G01*
G37*
G36*
G01*
X258647500Y-87615350D02*
X259597500Y-87615350D01*
G75*
G02*
X259847500Y-87865350I0J-250000D01*
G01*
X259847500Y-88540350D01*
G75*
G02*
X259597500Y-88790350I-250000J0D01*
G01*
X258647500Y-88790350D01*
G75*
G02*
X258397500Y-88540350I0J250000D01*
G01*
X258397500Y-87865350D01*
G75*
G02*
X258647500Y-87615350I250000J0D01*
G01*
G37*
G36*
G01*
X258647500Y-89690350D02*
X259597500Y-89690350D01*
G75*
G02*
X259847500Y-89940350I0J-250000D01*
G01*
X259847500Y-90615350D01*
G75*
G02*
X259597500Y-90865350I-250000J0D01*
G01*
X258647500Y-90865350D01*
G75*
G02*
X258397500Y-90615350I0J250000D01*
G01*
X258397500Y-89940350D01*
G75*
G02*
X258647500Y-89690350I250000J0D01*
G01*
G37*
X114010000Y-51480000D03*
D11*
X114010000Y-48940000D03*
X116550000Y-51480000D03*
X116550000Y-48940000D03*
X119090000Y-51480000D03*
X119090000Y-48940000D03*
X121630000Y-51480000D03*
X121630000Y-48940000D03*
X124170000Y-51480000D03*
X124170000Y-48940000D03*
X126710000Y-51480000D03*
X126710000Y-48940000D03*
X129250000Y-51480000D03*
X129250000Y-48940000D03*
X131790000Y-51480000D03*
X131790000Y-48940000D03*
G36*
G01*
X256677500Y-87650350D02*
X257577500Y-87650350D01*
G75*
G02*
X257827500Y-87900350I0J-250000D01*
G01*
X257827500Y-88600350D01*
G75*
G02*
X257577500Y-88850350I-250000J0D01*
G01*
X256677500Y-88850350D01*
G75*
G02*
X256427500Y-88600350I0J250000D01*
G01*
X256427500Y-87900350D01*
G75*
G02*
X256677500Y-87650350I250000J0D01*
G01*
G37*
G36*
G01*
X256677500Y-89650350D02*
X257577500Y-89650350D01*
G75*
G02*
X257827500Y-89900350I0J-250000D01*
G01*
X257827500Y-90600350D01*
G75*
G02*
X257577500Y-90850350I-250000J0D01*
G01*
X256677500Y-90850350D01*
G75*
G02*
X256427500Y-90600350I0J250000D01*
G01*
X256427500Y-89900350D01*
G75*
G02*
X256677500Y-89650350I250000J0D01*
G01*
G37*
D10*
X130890000Y-102884300D03*
G36*
G01*
X204416634Y-98012125D02*
X204416634Y-97062125D01*
G75*
G02*
X204666634Y-96812125I250000J0D01*
G01*
X205341634Y-96812125D01*
G75*
G02*
X205591634Y-97062125I0J-250000D01*
G01*
X205591634Y-98012125D01*
G75*
G02*
X205341634Y-98262125I-250000J0D01*
G01*
X204666634Y-98262125D01*
G75*
G02*
X204416634Y-98012125I0J250000D01*
G01*
G37*
G36*
G01*
X206491634Y-98012125D02*
X206491634Y-97062125D01*
G75*
G02*
X206741634Y-96812125I250000J0D01*
G01*
X207416634Y-96812125D01*
G75*
G02*
X207666634Y-97062125I0J-250000D01*
G01*
X207666634Y-98012125D01*
G75*
G02*
X207416634Y-98262125I-250000J0D01*
G01*
X206741634Y-98262125D01*
G75*
G02*
X206491634Y-98012125I0J250000D01*
G01*
G37*
G36*
G01*
X234800000Y-108471480D02*
X234800000Y-107521480D01*
G75*
G02*
X235050000Y-107271480I250000J0D01*
G01*
X235725000Y-107271480D01*
G75*
G02*
X235975000Y-107521480I0J-250000D01*
G01*
X235975000Y-108471480D01*
G75*
G02*
X235725000Y-108721480I-250000J0D01*
G01*
X235050000Y-108721480D01*
G75*
G02*
X234800000Y-108471480I0J250000D01*
G01*
G37*
G36*
G01*
X236875000Y-108471480D02*
X236875000Y-107521480D01*
G75*
G02*
X237125000Y-107271480I250000J0D01*
G01*
X237800000Y-107271480D01*
G75*
G02*
X238050000Y-107521480I0J-250000D01*
G01*
X238050000Y-108471480D01*
G75*
G02*
X237800000Y-108721480I-250000J0D01*
G01*
X237125000Y-108721480D01*
G75*
G02*
X236875000Y-108471480I0J250000D01*
G01*
G37*
G36*
G01*
X57502500Y-90590000D02*
X57502500Y-89640000D01*
G75*
G02*
X57752500Y-89390000I250000J0D01*
G01*
X58427500Y-89390000D01*
G75*
G02*
X58677500Y-89640000I0J-250000D01*
G01*
X58677500Y-90590000D01*
G75*
G02*
X58427500Y-90840000I-250000J0D01*
G01*
X57752500Y-90840000D01*
G75*
G02*
X57502500Y-90590000I0J250000D01*
G01*
G37*
G36*
G01*
X59577500Y-90590000D02*
X59577500Y-89640000D01*
G75*
G02*
X59827500Y-89390000I250000J0D01*
G01*
X60502500Y-89390000D01*
G75*
G02*
X60752500Y-89640000I0J-250000D01*
G01*
X60752500Y-90590000D01*
G75*
G02*
X60502500Y-90840000I-250000J0D01*
G01*
X59827500Y-90840000D01*
G75*
G02*
X59577500Y-90590000I0J250000D01*
G01*
G37*
G36*
G01*
X243727100Y-87605000D02*
X244677100Y-87605000D01*
G75*
G02*
X244927100Y-87855000I0J-250000D01*
G01*
X244927100Y-88530000D01*
G75*
G02*
X244677100Y-88780000I-250000J0D01*
G01*
X243727100Y-88780000D01*
G75*
G02*
X243477100Y-88530000I0J250000D01*
G01*
X243477100Y-87855000D01*
G75*
G02*
X243727100Y-87605000I250000J0D01*
G01*
G37*
G36*
G01*
X243727100Y-89680000D02*
X244677100Y-89680000D01*
G75*
G02*
X244927100Y-89930000I0J-250000D01*
G01*
X244927100Y-90605000D01*
G75*
G02*
X244677100Y-90855000I-250000J0D01*
G01*
X243727100Y-90855000D01*
G75*
G02*
X243477100Y-90605000I0J250000D01*
G01*
X243477100Y-89930000D01*
G75*
G02*
X243727100Y-89680000I250000J0D01*
G01*
G37*
G36*
G01*
X256677500Y-83450350D02*
X257577500Y-83450350D01*
G75*
G02*
X257827500Y-83700350I0J-250000D01*
G01*
X257827500Y-84400350D01*
G75*
G02*
X257577500Y-84650350I-250000J0D01*
G01*
X256677500Y-84650350D01*
G75*
G02*
X256427500Y-84400350I0J250000D01*
G01*
X256427500Y-83700350D01*
G75*
G02*
X256677500Y-83450350I250000J0D01*
G01*
G37*
G36*
G01*
X256677500Y-85450350D02*
X257577500Y-85450350D01*
G75*
G02*
X257827500Y-85700350I0J-250000D01*
G01*
X257827500Y-86400350D01*
G75*
G02*
X257577500Y-86650350I-250000J0D01*
G01*
X256677500Y-86650350D01*
G75*
G02*
X256427500Y-86400350I0J250000D01*
G01*
X256427500Y-85700350D01*
G75*
G02*
X256677500Y-85450350I250000J0D01*
G01*
G37*
G36*
G01*
X213921734Y-97761025D02*
X213921734Y-98511025D01*
G75*
G02*
X213696734Y-98736025I-225000J0D01*
G01*
X213246734Y-98736025D01*
G75*
G02*
X213021734Y-98511025I0J225000D01*
G01*
X213021734Y-97761025D01*
G75*
G02*
X213246734Y-97536025I225000J0D01*
G01*
X213696734Y-97536025D01*
G75*
G02*
X213921734Y-97761025I0J-225000D01*
G01*
G37*
G36*
G01*
X210621734Y-97761025D02*
X210621734Y-98511025D01*
G75*
G02*
X210396734Y-98736025I-225000J0D01*
G01*
X209946734Y-98736025D01*
G75*
G02*
X209721734Y-98511025I0J225000D01*
G01*
X209721734Y-97761025D01*
G75*
G02*
X209946734Y-97536025I225000J0D01*
G01*
X210396734Y-97536025D01*
G75*
G02*
X210621734Y-97761025I0J-225000D01*
G01*
G37*
D12*
X275557291Y-70525000D03*
D13*
X273017291Y-70525000D03*
X270477291Y-70525000D03*
G36*
G01*
X229504600Y-83441600D02*
X230404600Y-83441600D01*
G75*
G02*
X230654600Y-83691600I0J-250000D01*
G01*
X230654600Y-84391600D01*
G75*
G02*
X230404600Y-84641600I-250000J0D01*
G01*
X229504600Y-84641600D01*
G75*
G02*
X229254600Y-84391600I0J250000D01*
G01*
X229254600Y-83691600D01*
G75*
G02*
X229504600Y-83441600I250000J0D01*
G01*
G37*
G36*
G01*
X229504600Y-85441600D02*
X230404600Y-85441600D01*
G75*
G02*
X230654600Y-85691600I0J-250000D01*
G01*
X230654600Y-86391600D01*
G75*
G02*
X230404600Y-86641600I-250000J0D01*
G01*
X229504600Y-86641600D01*
G75*
G02*
X229254600Y-86391600I0J250000D01*
G01*
X229254600Y-85691600D01*
G75*
G02*
X229504600Y-85441600I250000J0D01*
G01*
G37*
D15*
X216040000Y-137490000D03*
D16*
X216040000Y-129990000D03*
G36*
G01*
X231499600Y-87631600D02*
X232399600Y-87631600D01*
G75*
G02*
X232649600Y-87881600I0J-250000D01*
G01*
X232649600Y-88581600D01*
G75*
G02*
X232399600Y-88831600I-250000J0D01*
G01*
X231499600Y-88831600D01*
G75*
G02*
X231249600Y-88581600I0J250000D01*
G01*
X231249600Y-87881600D01*
G75*
G02*
X231499600Y-87631600I250000J0D01*
G01*
G37*
G36*
G01*
X231499600Y-89631600D02*
X232399600Y-89631600D01*
G75*
G02*
X232649600Y-89881600I0J-250000D01*
G01*
X232649600Y-90581600D01*
G75*
G02*
X232399600Y-90831600I-250000J0D01*
G01*
X231499600Y-90831600D01*
G75*
G02*
X231249600Y-90581600I0J250000D01*
G01*
X231249600Y-89881600D01*
G75*
G02*
X231499600Y-89631600I250000J0D01*
G01*
G37*
D17*
X272540000Y-148740000D03*
D12*
X171490000Y-115874000D03*
D13*
X174030000Y-115874000D03*
X176570000Y-115874000D03*
G36*
G01*
X103992200Y-105684300D02*
X103992200Y-104784300D01*
G75*
G02*
X104242200Y-104534300I250000J0D01*
G01*
X104942200Y-104534300D01*
G75*
G02*
X105192200Y-104784300I0J-250000D01*
G01*
X105192200Y-105684300D01*
G75*
G02*
X104942200Y-105934300I-250000J0D01*
G01*
X104242200Y-105934300D01*
G75*
G02*
X103992200Y-105684300I0J250000D01*
G01*
G37*
G36*
G01*
X105992200Y-105684300D02*
X105992200Y-104784300D01*
G75*
G02*
X106242200Y-104534300I250000J0D01*
G01*
X106942200Y-104534300D01*
G75*
G02*
X107192200Y-104784300I0J-250000D01*
G01*
X107192200Y-105684300D01*
G75*
G02*
X106942200Y-105934300I-250000J0D01*
G01*
X106242200Y-105934300D01*
G75*
G02*
X105992200Y-105684300I0J250000D01*
G01*
G37*
G36*
G01*
X146925000Y-108615000D02*
X146925000Y-107665000D01*
G75*
G02*
X147175000Y-107415000I250000J0D01*
G01*
X147850000Y-107415000D01*
G75*
G02*
X148100000Y-107665000I0J-250000D01*
G01*
X148100000Y-108615000D01*
G75*
G02*
X147850000Y-108865000I-250000J0D01*
G01*
X147175000Y-108865000D01*
G75*
G02*
X146925000Y-108615000I0J250000D01*
G01*
G37*
G36*
G01*
X149000000Y-108615000D02*
X149000000Y-107665000D01*
G75*
G02*
X149250000Y-107415000I250000J0D01*
G01*
X149925000Y-107415000D01*
G75*
G02*
X150175000Y-107665000I0J-250000D01*
G01*
X150175000Y-108615000D01*
G75*
G02*
X149925000Y-108865000I-250000J0D01*
G01*
X149250000Y-108865000D01*
G75*
G02*
X149000000Y-108615000I0J250000D01*
G01*
G37*
G36*
G01*
X193353934Y-103664359D02*
X193353934Y-102764359D01*
G75*
G02*
X193603934Y-102514359I250000J0D01*
G01*
X194303934Y-102514359D01*
G75*
G02*
X194553934Y-102764359I0J-250000D01*
G01*
X194553934Y-103664359D01*
G75*
G02*
X194303934Y-103914359I-250000J0D01*
G01*
X193603934Y-103914359D01*
G75*
G02*
X193353934Y-103664359I0J250000D01*
G01*
G37*
G36*
G01*
X195353934Y-103664359D02*
X195353934Y-102764359D01*
G75*
G02*
X195603934Y-102514359I250000J0D01*
G01*
X196303934Y-102514359D01*
G75*
G02*
X196553934Y-102764359I0J-250000D01*
G01*
X196553934Y-103664359D01*
G75*
G02*
X196303934Y-103914359I-250000J0D01*
G01*
X195603934Y-103914359D01*
G75*
G02*
X195353934Y-103664359I0J250000D01*
G01*
G37*
G36*
G01*
X42752100Y-98415000D02*
X42452100Y-98415000D01*
G75*
G02*
X42302100Y-98265000I0J150000D01*
G01*
X42302100Y-96615000D01*
G75*
G02*
X42452100Y-96465000I150000J0D01*
G01*
X42752100Y-96465000D01*
G75*
G02*
X42902100Y-96615000I0J-150000D01*
G01*
X42902100Y-98265000D01*
G75*
G02*
X42752100Y-98415000I-150000J0D01*
G01*
G37*
G36*
G01*
X44022100Y-98415000D02*
X43722100Y-98415000D01*
G75*
G02*
X43572100Y-98265000I0J150000D01*
G01*
X43572100Y-96615000D01*
G75*
G02*
X43722100Y-96465000I150000J0D01*
G01*
X44022100Y-96465000D01*
G75*
G02*
X44172100Y-96615000I0J-150000D01*
G01*
X44172100Y-98265000D01*
G75*
G02*
X44022100Y-98415000I-150000J0D01*
G01*
G37*
G36*
G01*
X45292100Y-98415000D02*
X44992100Y-98415000D01*
G75*
G02*
X44842100Y-98265000I0J150000D01*
G01*
X44842100Y-96615000D01*
G75*
G02*
X44992100Y-96465000I150000J0D01*
G01*
X45292100Y-96465000D01*
G75*
G02*
X45442100Y-96615000I0J-150000D01*
G01*
X45442100Y-98265000D01*
G75*
G02*
X45292100Y-98415000I-150000J0D01*
G01*
G37*
G36*
G01*
X46562100Y-98415000D02*
X46262100Y-98415000D01*
G75*
G02*
X46112100Y-98265000I0J150000D01*
G01*
X46112100Y-96615000D01*
G75*
G02*
X46262100Y-96465000I150000J0D01*
G01*
X46562100Y-96465000D01*
G75*
G02*
X46712100Y-96615000I0J-150000D01*
G01*
X46712100Y-98265000D01*
G75*
G02*
X46562100Y-98415000I-150000J0D01*
G01*
G37*
G36*
G01*
X46562100Y-93465000D02*
X46262100Y-93465000D01*
G75*
G02*
X46112100Y-93315000I0J150000D01*
G01*
X46112100Y-91665000D01*
G75*
G02*
X46262100Y-91515000I150000J0D01*
G01*
X46562100Y-91515000D01*
G75*
G02*
X46712100Y-91665000I0J-150000D01*
G01*
X46712100Y-93315000D01*
G75*
G02*
X46562100Y-93465000I-150000J0D01*
G01*
G37*
G36*
G01*
X45292100Y-93465000D02*
X44992100Y-93465000D01*
G75*
G02*
X44842100Y-93315000I0J150000D01*
G01*
X44842100Y-91665000D01*
G75*
G02*
X44992100Y-91515000I150000J0D01*
G01*
X45292100Y-91515000D01*
G75*
G02*
X45442100Y-91665000I0J-150000D01*
G01*
X45442100Y-93315000D01*
G75*
G02*
X45292100Y-93465000I-150000J0D01*
G01*
G37*
G36*
G01*
X44022100Y-93465000D02*
X43722100Y-93465000D01*
G75*
G02*
X43572100Y-93315000I0J150000D01*
G01*
X43572100Y-91665000D01*
G75*
G02*
X43722100Y-91515000I150000J0D01*
G01*
X44022100Y-91515000D01*
G75*
G02*
X44172100Y-91665000I0J-150000D01*
G01*
X44172100Y-93315000D01*
G75*
G02*
X44022100Y-93465000I-150000J0D01*
G01*
G37*
G36*
G01*
X42752100Y-93465000D02*
X42452100Y-93465000D01*
G75*
G02*
X42302100Y-93315000I0J150000D01*
G01*
X42302100Y-91665000D01*
G75*
G02*
X42452100Y-91515000I150000J0D01*
G01*
X42752100Y-91515000D01*
G75*
G02*
X42902100Y-91665000I0J-150000D01*
G01*
X42902100Y-93315000D01*
G75*
G02*
X42752100Y-93465000I-150000J0D01*
G01*
G37*
D10*
X72879400Y-106362400D03*
G36*
G01*
X233614600Y-93741600D02*
X233614600Y-94691600D01*
G75*
G02*
X233364600Y-94941600I-250000J0D01*
G01*
X232689600Y-94941600D01*
G75*
G02*
X232439600Y-94691600I0J250000D01*
G01*
X232439600Y-93741600D01*
G75*
G02*
X232689600Y-93491600I250000J0D01*
G01*
X233364600Y-93491600D01*
G75*
G02*
X233614600Y-93741600I0J-250000D01*
G01*
G37*
G36*
G01*
X231539600Y-93741600D02*
X231539600Y-94691600D01*
G75*
G02*
X231289600Y-94941600I-250000J0D01*
G01*
X230614600Y-94941600D01*
G75*
G02*
X230364600Y-94691600I0J250000D01*
G01*
X230364600Y-93741600D01*
G75*
G02*
X230614600Y-93491600I250000J0D01*
G01*
X231289600Y-93491600D01*
G75*
G02*
X231539600Y-93741600I0J-250000D01*
G01*
G37*
G36*
G01*
X115054900Y-98010400D02*
X115054900Y-97060400D01*
G75*
G02*
X115304900Y-96810400I250000J0D01*
G01*
X115979900Y-96810400D01*
G75*
G02*
X116229900Y-97060400I0J-250000D01*
G01*
X116229900Y-98010400D01*
G75*
G02*
X115979900Y-98260400I-250000J0D01*
G01*
X115304900Y-98260400D01*
G75*
G02*
X115054900Y-98010400I0J250000D01*
G01*
G37*
G36*
G01*
X117129900Y-98010400D02*
X117129900Y-97060400D01*
G75*
G02*
X117379900Y-96810400I250000J0D01*
G01*
X118054900Y-96810400D01*
G75*
G02*
X118304900Y-97060400I0J-250000D01*
G01*
X118304900Y-98010400D01*
G75*
G02*
X118054900Y-98260400I-250000J0D01*
G01*
X117379900Y-98260400D01*
G75*
G02*
X117129900Y-98010400I0J250000D01*
G01*
G37*
G36*
G01*
X91982200Y-99185400D02*
X91982200Y-100135400D01*
G75*
G02*
X91732200Y-100385400I-250000J0D01*
G01*
X91057200Y-100385400D01*
G75*
G02*
X90807200Y-100135400I0J250000D01*
G01*
X90807200Y-99185400D01*
G75*
G02*
X91057200Y-98935400I250000J0D01*
G01*
X91732200Y-98935400D01*
G75*
G02*
X91982200Y-99185400I0J-250000D01*
G01*
G37*
G36*
G01*
X89907200Y-99185400D02*
X89907200Y-100135400D01*
G75*
G02*
X89657200Y-100385400I-250000J0D01*
G01*
X88982200Y-100385400D01*
G75*
G02*
X88732200Y-100135400I0J250000D01*
G01*
X88732200Y-99185400D01*
G75*
G02*
X88982200Y-98935400I250000J0D01*
G01*
X89657200Y-98935400D01*
G75*
G02*
X89907200Y-99185400I0J-250000D01*
G01*
G37*
X194870134Y-98282368D03*
G36*
G01*
X232950000Y-105334980D02*
X232950000Y-106284980D01*
G75*
G02*
X232700000Y-106534980I-250000J0D01*
G01*
X232025000Y-106534980D01*
G75*
G02*
X231775000Y-106284980I0J250000D01*
G01*
X231775000Y-105334980D01*
G75*
G02*
X232025000Y-105084980I250000J0D01*
G01*
X232700000Y-105084980D01*
G75*
G02*
X232950000Y-105334980I0J-250000D01*
G01*
G37*
G36*
G01*
X230875000Y-105334980D02*
X230875000Y-106284980D01*
G75*
G02*
X230625000Y-106534980I-250000J0D01*
G01*
X229950000Y-106534980D01*
G75*
G02*
X229700000Y-106284980I0J250000D01*
G01*
X229700000Y-105334980D01*
G75*
G02*
X229950000Y-105084980I250000J0D01*
G01*
X230625000Y-105084980D01*
G75*
G02*
X230875000Y-105334980I0J-250000D01*
G01*
G37*
G36*
G01*
X20390000Y-57202500D02*
X22590000Y-57202500D01*
G75*
G02*
X22840000Y-57452500I0J-250000D01*
G01*
X22840000Y-58277500D01*
G75*
G02*
X22590000Y-58527500I-250000J0D01*
G01*
X20390000Y-58527500D01*
G75*
G02*
X20140000Y-58277500I0J250000D01*
G01*
X20140000Y-57452500D01*
G75*
G02*
X20390000Y-57202500I250000J0D01*
G01*
G37*
G36*
G01*
X20390000Y-60327500D02*
X22590000Y-60327500D01*
G75*
G02*
X22840000Y-60577500I0J-250000D01*
G01*
X22840000Y-61402500D01*
G75*
G02*
X22590000Y-61652500I-250000J0D01*
G01*
X20390000Y-61652500D01*
G75*
G02*
X20140000Y-61402500I0J250000D01*
G01*
X20140000Y-60577500D01*
G75*
G02*
X20390000Y-60327500I250000J0D01*
G01*
G37*
G36*
G01*
X239802100Y-98415000D02*
X239502100Y-98415000D01*
G75*
G02*
X239352100Y-98265000I0J150000D01*
G01*
X239352100Y-96615000D01*
G75*
G02*
X239502100Y-96465000I150000J0D01*
G01*
X239802100Y-96465000D01*
G75*
G02*
X239952100Y-96615000I0J-150000D01*
G01*
X239952100Y-98265000D01*
G75*
G02*
X239802100Y-98415000I-150000J0D01*
G01*
G37*
G36*
G01*
X241072100Y-98415000D02*
X240772100Y-98415000D01*
G75*
G02*
X240622100Y-98265000I0J150000D01*
G01*
X240622100Y-96615000D01*
G75*
G02*
X240772100Y-96465000I150000J0D01*
G01*
X241072100Y-96465000D01*
G75*
G02*
X241222100Y-96615000I0J-150000D01*
G01*
X241222100Y-98265000D01*
G75*
G02*
X241072100Y-98415000I-150000J0D01*
G01*
G37*
G36*
G01*
X242342100Y-98415000D02*
X242042100Y-98415000D01*
G75*
G02*
X241892100Y-98265000I0J150000D01*
G01*
X241892100Y-96615000D01*
G75*
G02*
X242042100Y-96465000I150000J0D01*
G01*
X242342100Y-96465000D01*
G75*
G02*
X242492100Y-96615000I0J-150000D01*
G01*
X242492100Y-98265000D01*
G75*
G02*
X242342100Y-98415000I-150000J0D01*
G01*
G37*
G36*
G01*
X243612100Y-98415000D02*
X243312100Y-98415000D01*
G75*
G02*
X243162100Y-98265000I0J150000D01*
G01*
X243162100Y-96615000D01*
G75*
G02*
X243312100Y-96465000I150000J0D01*
G01*
X243612100Y-96465000D01*
G75*
G02*
X243762100Y-96615000I0J-150000D01*
G01*
X243762100Y-98265000D01*
G75*
G02*
X243612100Y-98415000I-150000J0D01*
G01*
G37*
G36*
G01*
X243612100Y-93465000D02*
X243312100Y-93465000D01*
G75*
G02*
X243162100Y-93315000I0J150000D01*
G01*
X243162100Y-91665000D01*
G75*
G02*
X243312100Y-91515000I150000J0D01*
G01*
X243612100Y-91515000D01*
G75*
G02*
X243762100Y-91665000I0J-150000D01*
G01*
X243762100Y-93315000D01*
G75*
G02*
X243612100Y-93465000I-150000J0D01*
G01*
G37*
G36*
G01*
X242342100Y-93465000D02*
X242042100Y-93465000D01*
G75*
G02*
X241892100Y-93315000I0J150000D01*
G01*
X241892100Y-91665000D01*
G75*
G02*
X242042100Y-91515000I150000J0D01*
G01*
X242342100Y-91515000D01*
G75*
G02*
X242492100Y-91665000I0J-150000D01*
G01*
X242492100Y-93315000D01*
G75*
G02*
X242342100Y-93465000I-150000J0D01*
G01*
G37*
G36*
G01*
X241072100Y-93465000D02*
X240772100Y-93465000D01*
G75*
G02*
X240622100Y-93315000I0J150000D01*
G01*
X240622100Y-91665000D01*
G75*
G02*
X240772100Y-91515000I150000J0D01*
G01*
X241072100Y-91515000D01*
G75*
G02*
X241222100Y-91665000I0J-150000D01*
G01*
X241222100Y-93315000D01*
G75*
G02*
X241072100Y-93465000I-150000J0D01*
G01*
G37*
G36*
G01*
X239802100Y-93465000D02*
X239502100Y-93465000D01*
G75*
G02*
X239352100Y-93315000I0J150000D01*
G01*
X239352100Y-91665000D01*
G75*
G02*
X239502100Y-91515000I150000J0D01*
G01*
X239802100Y-91515000D01*
G75*
G02*
X239952100Y-91665000I0J-150000D01*
G01*
X239952100Y-93315000D01*
G75*
G02*
X239802100Y-93465000I-150000J0D01*
G01*
G37*
G36*
G01*
X196578934Y-106812692D02*
X196578934Y-107762692D01*
G75*
G02*
X196328934Y-108012692I-250000J0D01*
G01*
X195653934Y-108012692D01*
G75*
G02*
X195403934Y-107762692I0J250000D01*
G01*
X195403934Y-106812692D01*
G75*
G02*
X195653934Y-106562692I250000J0D01*
G01*
X196328934Y-106562692D01*
G75*
G02*
X196578934Y-106812692I0J-250000D01*
G01*
G37*
G36*
G01*
X194503934Y-106812692D02*
X194503934Y-107762692D01*
G75*
G02*
X194253934Y-108012692I-250000J0D01*
G01*
X193578934Y-108012692D01*
G75*
G02*
X193328934Y-107762692I0J250000D01*
G01*
X193328934Y-106812692D01*
G75*
G02*
X193578934Y-106562692I250000J0D01*
G01*
X194253934Y-106562692D01*
G75*
G02*
X194503934Y-106812692I0J-250000D01*
G01*
G37*
G36*
G01*
X247862100Y-93740000D02*
X247862100Y-94690000D01*
G75*
G02*
X247612100Y-94940000I-250000J0D01*
G01*
X246937100Y-94940000D01*
G75*
G02*
X246687100Y-94690000I0J250000D01*
G01*
X246687100Y-93740000D01*
G75*
G02*
X246937100Y-93490000I250000J0D01*
G01*
X247612100Y-93490000D01*
G75*
G02*
X247862100Y-93740000I0J-250000D01*
G01*
G37*
G36*
G01*
X245787100Y-93740000D02*
X245787100Y-94690000D01*
G75*
G02*
X245537100Y-94940000I-250000J0D01*
G01*
X244862100Y-94940000D01*
G75*
G02*
X244612100Y-94690000I0J250000D01*
G01*
X244612100Y-93740000D01*
G75*
G02*
X244862100Y-93490000I250000J0D01*
G01*
X245537100Y-93490000D01*
G75*
G02*
X245787100Y-93740000I0J-250000D01*
G01*
G37*
G36*
G01*
X40445000Y-88570000D02*
X40445000Y-87620000D01*
G75*
G02*
X40695000Y-87370000I250000J0D01*
G01*
X41370000Y-87370000D01*
G75*
G02*
X41620000Y-87620000I0J-250000D01*
G01*
X41620000Y-88570000D01*
G75*
G02*
X41370000Y-88820000I-250000J0D01*
G01*
X40695000Y-88820000D01*
G75*
G02*
X40445000Y-88570000I0J250000D01*
G01*
G37*
G36*
G01*
X42520000Y-88570000D02*
X42520000Y-87620000D01*
G75*
G02*
X42770000Y-87370000I250000J0D01*
G01*
X43445000Y-87370000D01*
G75*
G02*
X43695000Y-87620000I0J-250000D01*
G01*
X43695000Y-88570000D01*
G75*
G02*
X43445000Y-88820000I-250000J0D01*
G01*
X42770000Y-88820000D01*
G75*
G02*
X42520000Y-88570000I0J250000D01*
G01*
G37*
G36*
G01*
X13290000Y-57202500D02*
X15490000Y-57202500D01*
G75*
G02*
X15740000Y-57452500I0J-250000D01*
G01*
X15740000Y-58277500D01*
G75*
G02*
X15490000Y-58527500I-250000J0D01*
G01*
X13290000Y-58527500D01*
G75*
G02*
X13040000Y-58277500I0J250000D01*
G01*
X13040000Y-57452500D01*
G75*
G02*
X13290000Y-57202500I250000J0D01*
G01*
G37*
G36*
G01*
X13290000Y-60327500D02*
X15490000Y-60327500D01*
G75*
G02*
X15740000Y-60577500I0J-250000D01*
G01*
X15740000Y-61402500D01*
G75*
G02*
X15490000Y-61652500I-250000J0D01*
G01*
X13290000Y-61652500D01*
G75*
G02*
X13040000Y-61402500I0J250000D01*
G01*
X13040000Y-60577500D01*
G75*
G02*
X13290000Y-60327500I250000J0D01*
G01*
G37*
D17*
X272540000Y-128740000D03*
G36*
G01*
X151882500Y-91770000D02*
X151882500Y-92670000D01*
G75*
G02*
X151632500Y-92920000I-250000J0D01*
G01*
X150932500Y-92920000D01*
G75*
G02*
X150682500Y-92670000I0J250000D01*
G01*
X150682500Y-91770000D01*
G75*
G02*
X150932500Y-91520000I250000J0D01*
G01*
X151632500Y-91520000D01*
G75*
G02*
X151882500Y-91770000I0J-250000D01*
G01*
G37*
G36*
G01*
X149882500Y-91770000D02*
X149882500Y-92670000D01*
G75*
G02*
X149632500Y-92920000I-250000J0D01*
G01*
X148932500Y-92920000D01*
G75*
G02*
X148682500Y-92670000I0J250000D01*
G01*
X148682500Y-91770000D01*
G75*
G02*
X148932500Y-91520000I250000J0D01*
G01*
X149632500Y-91520000D01*
G75*
G02*
X149882500Y-91770000I0J-250000D01*
G01*
G37*
G36*
G01*
X252365000Y-90600350D02*
X252365000Y-89650350D01*
G75*
G02*
X252615000Y-89400350I250000J0D01*
G01*
X253290000Y-89400350D01*
G75*
G02*
X253540000Y-89650350I0J-250000D01*
G01*
X253540000Y-90600350D01*
G75*
G02*
X253290000Y-90850350I-250000J0D01*
G01*
X252615000Y-90850350D01*
G75*
G02*
X252365000Y-90600350I0J250000D01*
G01*
G37*
G36*
G01*
X254440000Y-90600350D02*
X254440000Y-89650350D01*
G75*
G02*
X254690000Y-89400350I250000J0D01*
G01*
X255365000Y-89400350D01*
G75*
G02*
X255615000Y-89650350I0J-250000D01*
G01*
X255615000Y-90600350D01*
G75*
G02*
X255365000Y-90850350I-250000J0D01*
G01*
X254690000Y-90850350D01*
G75*
G02*
X254440000Y-90600350I0J250000D01*
G01*
G37*
G36*
G01*
X73740000Y-50215000D02*
X74640000Y-50215000D01*
G75*
G02*
X74890000Y-50465000I0J-250000D01*
G01*
X74890000Y-51165000D01*
G75*
G02*
X74640000Y-51415000I-250000J0D01*
G01*
X73740000Y-51415000D01*
G75*
G02*
X73490000Y-51165000I0J250000D01*
G01*
X73490000Y-50465000D01*
G75*
G02*
X73740000Y-50215000I250000J0D01*
G01*
G37*
G36*
G01*
X73740000Y-52215000D02*
X74640000Y-52215000D01*
G75*
G02*
X74890000Y-52465000I0J-250000D01*
G01*
X74890000Y-53165000D01*
G75*
G02*
X74640000Y-53415000I-250000J0D01*
G01*
X73740000Y-53415000D01*
G75*
G02*
X73490000Y-53165000I0J250000D01*
G01*
X73490000Y-52465000D01*
G75*
G02*
X73740000Y-52215000I250000J0D01*
G01*
G37*
G36*
G01*
X48697100Y-87630000D02*
X49597100Y-87630000D01*
G75*
G02*
X49847100Y-87880000I0J-250000D01*
G01*
X49847100Y-88580000D01*
G75*
G02*
X49597100Y-88830000I-250000J0D01*
G01*
X48697100Y-88830000D01*
G75*
G02*
X48447100Y-88580000I0J250000D01*
G01*
X48447100Y-87880000D01*
G75*
G02*
X48697100Y-87630000I250000J0D01*
G01*
G37*
G36*
G01*
X48697100Y-89630000D02*
X49597100Y-89630000D01*
G75*
G02*
X49847100Y-89880000I0J-250000D01*
G01*
X49847100Y-90580000D01*
G75*
G02*
X49597100Y-90830000I-250000J0D01*
G01*
X48697100Y-90830000D01*
G75*
G02*
X48447100Y-90580000I0J250000D01*
G01*
X48447100Y-89880000D01*
G75*
G02*
X48697100Y-89630000I250000J0D01*
G01*
G37*
D10*
X72879400Y-102740000D03*
D20*
X98040000Y-66490000D03*
G36*
G01*
X39565000Y-66457500D02*
X39565000Y-67407500D01*
G75*
G02*
X39315000Y-67657500I-250000J0D01*
G01*
X38640000Y-67657500D01*
G75*
G02*
X38390000Y-67407500I0J250000D01*
G01*
X38390000Y-66457500D01*
G75*
G02*
X38640000Y-66207500I250000J0D01*
G01*
X39315000Y-66207500D01*
G75*
G02*
X39565000Y-66457500I0J-250000D01*
G01*
G37*
G36*
G01*
X37490000Y-66457500D02*
X37490000Y-67407500D01*
G75*
G02*
X37240000Y-67657500I-250000J0D01*
G01*
X36565000Y-67657500D01*
G75*
G02*
X36315000Y-67407500I0J250000D01*
G01*
X36315000Y-66457500D01*
G75*
G02*
X36565000Y-66207500I250000J0D01*
G01*
X37240000Y-66207500D01*
G75*
G02*
X37490000Y-66457500I0J-250000D01*
G01*
G37*
G36*
G01*
X258927900Y-99325350D02*
X258927900Y-100225350D01*
G75*
G02*
X258677900Y-100475350I-250000J0D01*
G01*
X257977900Y-100475350D01*
G75*
G02*
X257727900Y-100225350I0J250000D01*
G01*
X257727900Y-99325350D01*
G75*
G02*
X257977900Y-99075350I250000J0D01*
G01*
X258677900Y-99075350D01*
G75*
G02*
X258927900Y-99325350I0J-250000D01*
G01*
G37*
G36*
G01*
X256927900Y-99325350D02*
X256927900Y-100225350D01*
G75*
G02*
X256677900Y-100475350I-250000J0D01*
G01*
X255977900Y-100475350D01*
G75*
G02*
X255727900Y-100225350I0J250000D01*
G01*
X255727900Y-99325350D01*
G75*
G02*
X255977900Y-99075350I250000J0D01*
G01*
X256677900Y-99075350D01*
G75*
G02*
X256927900Y-99325350I0J-250000D01*
G01*
G37*
G36*
G01*
X115054900Y-102260400D02*
X115054900Y-101310400D01*
G75*
G02*
X115304900Y-101060400I250000J0D01*
G01*
X115979900Y-101060400D01*
G75*
G02*
X116229900Y-101310400I0J-250000D01*
G01*
X116229900Y-102260400D01*
G75*
G02*
X115979900Y-102510400I-250000J0D01*
G01*
X115304900Y-102510400D01*
G75*
G02*
X115054900Y-102260400I0J250000D01*
G01*
G37*
G36*
G01*
X117129900Y-102260400D02*
X117129900Y-101310400D01*
G75*
G02*
X117379900Y-101060400I250000J0D01*
G01*
X118054900Y-101060400D01*
G75*
G02*
X118304900Y-101310400I0J-250000D01*
G01*
X118304900Y-102260400D01*
G75*
G02*
X118054900Y-102510400I-250000J0D01*
G01*
X117379900Y-102510400D01*
G75*
G02*
X117129900Y-102260400I0J250000D01*
G01*
G37*
G36*
G01*
X152585000Y-106603500D02*
X152585000Y-105703500D01*
G75*
G02*
X152835000Y-105453500I250000J0D01*
G01*
X153535000Y-105453500D01*
G75*
G02*
X153785000Y-105703500I0J-250000D01*
G01*
X153785000Y-106603500D01*
G75*
G02*
X153535000Y-106853500I-250000J0D01*
G01*
X152835000Y-106853500D01*
G75*
G02*
X152585000Y-106603500I0J250000D01*
G01*
G37*
G36*
G01*
X154585000Y-106603500D02*
X154585000Y-105703500D01*
G75*
G02*
X154835000Y-105453500I250000J0D01*
G01*
X155535000Y-105453500D01*
G75*
G02*
X155785000Y-105703500I0J-250000D01*
G01*
X155785000Y-106603500D01*
G75*
G02*
X155535000Y-106853500I-250000J0D01*
G01*
X154835000Y-106853500D01*
G75*
G02*
X154585000Y-106603500I0J250000D01*
G01*
G37*
D10*
X98815000Y-102884300D03*
X220251734Y-106508425D03*
G36*
G01*
X274995000Y-54770000D02*
X275895000Y-54770000D01*
G75*
G02*
X276145000Y-55020000I0J-250000D01*
G01*
X276145000Y-55720000D01*
G75*
G02*
X275895000Y-55970000I-250000J0D01*
G01*
X274995000Y-55970000D01*
G75*
G02*
X274745000Y-55720000I0J250000D01*
G01*
X274745000Y-55020000D01*
G75*
G02*
X274995000Y-54770000I250000J0D01*
G01*
G37*
G36*
G01*
X274995000Y-56770000D02*
X275895000Y-56770000D01*
G75*
G02*
X276145000Y-57020000I0J-250000D01*
G01*
X276145000Y-57720000D01*
G75*
G02*
X275895000Y-57970000I-250000J0D01*
G01*
X274995000Y-57970000D01*
G75*
G02*
X274745000Y-57720000I0J250000D01*
G01*
X274745000Y-57020000D01*
G75*
G02*
X274995000Y-56770000I250000J0D01*
G01*
G37*
G36*
G01*
X147797500Y-83445000D02*
X148697500Y-83445000D01*
G75*
G02*
X148947500Y-83695000I0J-250000D01*
G01*
X148947500Y-84395000D01*
G75*
G02*
X148697500Y-84645000I-250000J0D01*
G01*
X147797500Y-84645000D01*
G75*
G02*
X147547500Y-84395000I0J250000D01*
G01*
X147547500Y-83695000D01*
G75*
G02*
X147797500Y-83445000I250000J0D01*
G01*
G37*
G36*
G01*
X147797500Y-85445000D02*
X148697500Y-85445000D01*
G75*
G02*
X148947500Y-85695000I0J-250000D01*
G01*
X148947500Y-86395000D01*
G75*
G02*
X148697500Y-86645000I-250000J0D01*
G01*
X147797500Y-86645000D01*
G75*
G02*
X147547500Y-86395000I0J250000D01*
G01*
X147547500Y-85695000D01*
G75*
G02*
X147797500Y-85445000I250000J0D01*
G01*
G37*
D26*
X34540000Y-55940000D03*
X24840000Y-55940000D03*
G36*
G01*
X223222100Y-88571600D02*
X223222100Y-87621600D01*
G75*
G02*
X223472100Y-87371600I250000J0D01*
G01*
X224147100Y-87371600D01*
G75*
G02*
X224397100Y-87621600I0J-250000D01*
G01*
X224397100Y-88571600D01*
G75*
G02*
X224147100Y-88821600I-250000J0D01*
G01*
X223472100Y-88821600D01*
G75*
G02*
X223222100Y-88571600I0J250000D01*
G01*
G37*
G36*
G01*
X225297100Y-88571600D02*
X225297100Y-87621600D01*
G75*
G02*
X225547100Y-87371600I250000J0D01*
G01*
X226222100Y-87371600D01*
G75*
G02*
X226472100Y-87621600I0J-250000D01*
G01*
X226472100Y-88571600D01*
G75*
G02*
X226222100Y-88821600I-250000J0D01*
G01*
X225547100Y-88821600D01*
G75*
G02*
X225297100Y-88571600I0J250000D01*
G01*
G37*
G36*
G01*
X275990000Y-67770000D02*
X275090000Y-67770000D01*
G75*
G02*
X274840000Y-67520000I0J250000D01*
G01*
X274840000Y-66820000D01*
G75*
G02*
X275090000Y-66570000I250000J0D01*
G01*
X275990000Y-66570000D01*
G75*
G02*
X276240000Y-66820000I0J-250000D01*
G01*
X276240000Y-67520000D01*
G75*
G02*
X275990000Y-67770000I-250000J0D01*
G01*
G37*
G36*
G01*
X275990000Y-65770000D02*
X275090000Y-65770000D01*
G75*
G02*
X274840000Y-65520000I0J250000D01*
G01*
X274840000Y-64820000D01*
G75*
G02*
X275090000Y-64570000I250000J0D01*
G01*
X275990000Y-64570000D01*
G75*
G02*
X276240000Y-64820000I0J-250000D01*
G01*
X276240000Y-65520000D01*
G75*
G02*
X275990000Y-65770000I-250000J0D01*
G01*
G37*
G36*
G01*
X229760000Y-99316600D02*
X229760000Y-100216600D01*
G75*
G02*
X229510000Y-100466600I-250000J0D01*
G01*
X228810000Y-100466600D01*
G75*
G02*
X228560000Y-100216600I0J250000D01*
G01*
X228560000Y-99316600D01*
G75*
G02*
X228810000Y-99066600I250000J0D01*
G01*
X229510000Y-99066600D01*
G75*
G02*
X229760000Y-99316600I0J-250000D01*
G01*
G37*
G36*
G01*
X227760000Y-99316600D02*
X227760000Y-100216600D01*
G75*
G02*
X227510000Y-100466600I-250000J0D01*
G01*
X226810000Y-100466600D01*
G75*
G02*
X226560000Y-100216600I0J250000D01*
G01*
X226560000Y-99316600D01*
G75*
G02*
X226810000Y-99066600I250000J0D01*
G01*
X227510000Y-99066600D01*
G75*
G02*
X227760000Y-99316600I0J-250000D01*
G01*
G37*
G36*
G01*
X39240000Y-69180000D02*
X40140000Y-69180000D01*
G75*
G02*
X40390000Y-69430000I0J-250000D01*
G01*
X40390000Y-70080000D01*
G75*
G02*
X40140000Y-70330000I-250000J0D01*
G01*
X39240000Y-70330000D01*
G75*
G02*
X38990000Y-70080000I0J250000D01*
G01*
X38990000Y-69430000D01*
G75*
G02*
X39240000Y-69180000I250000J0D01*
G01*
G37*
G36*
G01*
X39240000Y-71230000D02*
X40140000Y-71230000D01*
G75*
G02*
X40390000Y-71480000I0J-250000D01*
G01*
X40390000Y-72130000D01*
G75*
G02*
X40140000Y-72380000I-250000J0D01*
G01*
X39240000Y-72380000D01*
G75*
G02*
X38990000Y-72130000I0J250000D01*
G01*
X38990000Y-71480000D01*
G75*
G02*
X39240000Y-71230000I250000J0D01*
G01*
G37*
G36*
G01*
X229479600Y-87606600D02*
X230429600Y-87606600D01*
G75*
G02*
X230679600Y-87856600I0J-250000D01*
G01*
X230679600Y-88531600D01*
G75*
G02*
X230429600Y-88781600I-250000J0D01*
G01*
X229479600Y-88781600D01*
G75*
G02*
X229229600Y-88531600I0J250000D01*
G01*
X229229600Y-87856600D01*
G75*
G02*
X229479600Y-87606600I250000J0D01*
G01*
G37*
G36*
G01*
X229479600Y-89681600D02*
X230429600Y-89681600D01*
G75*
G02*
X230679600Y-89931600I0J-250000D01*
G01*
X230679600Y-90606600D01*
G75*
G02*
X230429600Y-90856600I-250000J0D01*
G01*
X229479600Y-90856600D01*
G75*
G02*
X229229600Y-90606600I0J250000D01*
G01*
X229229600Y-89931600D01*
G75*
G02*
X229479600Y-89681600I250000J0D01*
G01*
G37*
D10*
X188175000Y-106506700D03*
D23*
X275832300Y-51970000D03*
X273292300Y-51970000D03*
G36*
G01*
X262782500Y-93750350D02*
X262782500Y-94700350D01*
G75*
G02*
X262532500Y-94950350I-250000J0D01*
G01*
X261857500Y-94950350D01*
G75*
G02*
X261607500Y-94700350I0J250000D01*
G01*
X261607500Y-93750350D01*
G75*
G02*
X261857500Y-93500350I250000J0D01*
G01*
X262532500Y-93500350D01*
G75*
G02*
X262782500Y-93750350I0J-250000D01*
G01*
G37*
G36*
G01*
X260707500Y-93750350D02*
X260707500Y-94700350D01*
G75*
G02*
X260457500Y-94950350I-250000J0D01*
G01*
X259782500Y-94950350D01*
G75*
G02*
X259532500Y-94700350I0J250000D01*
G01*
X259532500Y-93750350D01*
G75*
G02*
X259782500Y-93500350I250000J0D01*
G01*
X260457500Y-93500350D01*
G75*
G02*
X260707500Y-93750350I0J-250000D01*
G01*
G37*
G36*
G01*
X68765000Y-47115000D02*
X68765000Y-49315000D01*
G75*
G02*
X68515000Y-49565000I-250000J0D01*
G01*
X67690000Y-49565000D01*
G75*
G02*
X67440000Y-49315000I0J250000D01*
G01*
X67440000Y-47115000D01*
G75*
G02*
X67690000Y-46865000I250000J0D01*
G01*
X68515000Y-46865000D01*
G75*
G02*
X68765000Y-47115000I0J-250000D01*
G01*
G37*
G36*
G01*
X65640000Y-47115000D02*
X65640000Y-49315000D01*
G75*
G02*
X65390000Y-49565000I-250000J0D01*
G01*
X64565000Y-49565000D01*
G75*
G02*
X64315000Y-49315000I0J250000D01*
G01*
X64315000Y-47115000D01*
G75*
G02*
X64565000Y-46865000I250000J0D01*
G01*
X65390000Y-46865000D01*
G75*
G02*
X65640000Y-47115000I0J-250000D01*
G01*
G37*
G36*
G01*
X56890000Y-106603500D02*
X56890000Y-105703500D01*
G75*
G02*
X57140000Y-105453500I250000J0D01*
G01*
X57840000Y-105453500D01*
G75*
G02*
X58090000Y-105703500I0J-250000D01*
G01*
X58090000Y-106603500D01*
G75*
G02*
X57840000Y-106853500I-250000J0D01*
G01*
X57140000Y-106853500D01*
G75*
G02*
X56890000Y-106603500I0J250000D01*
G01*
G37*
G36*
G01*
X58890000Y-106603500D02*
X58890000Y-105703500D01*
G75*
G02*
X59140000Y-105453500I250000J0D01*
G01*
X59840000Y-105453500D01*
G75*
G02*
X60090000Y-105703500I0J-250000D01*
G01*
X60090000Y-106603500D01*
G75*
G02*
X59840000Y-106853500I-250000J0D01*
G01*
X59140000Y-106853500D01*
G75*
G02*
X58890000Y-106603500I0J250000D01*
G01*
G37*
D24*
X75719200Y-114429200D03*
X93519200Y-114429200D03*
G36*
G01*
X64315000Y-52590000D02*
X64315000Y-50390000D01*
G75*
G02*
X64565000Y-50140000I250000J0D01*
G01*
X65390000Y-50140000D01*
G75*
G02*
X65640000Y-50390000I0J-250000D01*
G01*
X65640000Y-52590000D01*
G75*
G02*
X65390000Y-52840000I-250000J0D01*
G01*
X64565000Y-52840000D01*
G75*
G02*
X64315000Y-52590000I0J250000D01*
G01*
G37*
G36*
G01*
X67440000Y-52590000D02*
X67440000Y-50390000D01*
G75*
G02*
X67690000Y-50140000I250000J0D01*
G01*
X68515000Y-50140000D01*
G75*
G02*
X68765000Y-50390000I0J-250000D01*
G01*
X68765000Y-52590000D01*
G75*
G02*
X68515000Y-52840000I-250000J0D01*
G01*
X67690000Y-52840000D01*
G75*
G02*
X67440000Y-52590000I0J250000D01*
G01*
G37*
G36*
G01*
X169541300Y-102277600D02*
X169541300Y-101327600D01*
G75*
G02*
X169791300Y-101077600I250000J0D01*
G01*
X170466300Y-101077600D01*
G75*
G02*
X170716300Y-101327600I0J-250000D01*
G01*
X170716300Y-102277600D01*
G75*
G02*
X170466300Y-102527600I-250000J0D01*
G01*
X169791300Y-102527600D01*
G75*
G02*
X169541300Y-102277600I0J250000D01*
G01*
G37*
G36*
G01*
X171616300Y-102277600D02*
X171616300Y-101327600D01*
G75*
G02*
X171866300Y-101077600I250000J0D01*
G01*
X172541300Y-101077600D01*
G75*
G02*
X172791300Y-101327600I0J-250000D01*
G01*
X172791300Y-102277600D01*
G75*
G02*
X172541300Y-102527600I-250000J0D01*
G01*
X171866300Y-102527600D01*
G75*
G02*
X171616300Y-102277600I0J250000D01*
G01*
G37*
D14*
X120040000Y-104284300D03*
X124940000Y-104284300D03*
G36*
G01*
X225554600Y-98416600D02*
X225254600Y-98416600D01*
G75*
G02*
X225104600Y-98266600I0J150000D01*
G01*
X225104600Y-96616600D01*
G75*
G02*
X225254600Y-96466600I150000J0D01*
G01*
X225554600Y-96466600D01*
G75*
G02*
X225704600Y-96616600I0J-150000D01*
G01*
X225704600Y-98266600D01*
G75*
G02*
X225554600Y-98416600I-150000J0D01*
G01*
G37*
G36*
G01*
X226824600Y-98416600D02*
X226524600Y-98416600D01*
G75*
G02*
X226374600Y-98266600I0J150000D01*
G01*
X226374600Y-96616600D01*
G75*
G02*
X226524600Y-96466600I150000J0D01*
G01*
X226824600Y-96466600D01*
G75*
G02*
X226974600Y-96616600I0J-150000D01*
G01*
X226974600Y-98266600D01*
G75*
G02*
X226824600Y-98416600I-150000J0D01*
G01*
G37*
G36*
G01*
X228094600Y-98416600D02*
X227794600Y-98416600D01*
G75*
G02*
X227644600Y-98266600I0J150000D01*
G01*
X227644600Y-96616600D01*
G75*
G02*
X227794600Y-96466600I150000J0D01*
G01*
X228094600Y-96466600D01*
G75*
G02*
X228244600Y-96616600I0J-150000D01*
G01*
X228244600Y-98266600D01*
G75*
G02*
X228094600Y-98416600I-150000J0D01*
G01*
G37*
G36*
G01*
X229364600Y-98416600D02*
X229064600Y-98416600D01*
G75*
G02*
X228914600Y-98266600I0J150000D01*
G01*
X228914600Y-96616600D01*
G75*
G02*
X229064600Y-96466600I150000J0D01*
G01*
X229364600Y-96466600D01*
G75*
G02*
X229514600Y-96616600I0J-150000D01*
G01*
X229514600Y-98266600D01*
G75*
G02*
X229364600Y-98416600I-150000J0D01*
G01*
G37*
G36*
G01*
X229364600Y-93466600D02*
X229064600Y-93466600D01*
G75*
G02*
X228914600Y-93316600I0J150000D01*
G01*
X228914600Y-91666600D01*
G75*
G02*
X229064600Y-91516600I150000J0D01*
G01*
X229364600Y-91516600D01*
G75*
G02*
X229514600Y-91666600I0J-150000D01*
G01*
X229514600Y-93316600D01*
G75*
G02*
X229364600Y-93466600I-150000J0D01*
G01*
G37*
G36*
G01*
X228094600Y-93466600D02*
X227794600Y-93466600D01*
G75*
G02*
X227644600Y-93316600I0J150000D01*
G01*
X227644600Y-91666600D01*
G75*
G02*
X227794600Y-91516600I150000J0D01*
G01*
X228094600Y-91516600D01*
G75*
G02*
X228244600Y-91666600I0J-150000D01*
G01*
X228244600Y-93316600D01*
G75*
G02*
X228094600Y-93466600I-150000J0D01*
G01*
G37*
G36*
G01*
X226824600Y-93466600D02*
X226524600Y-93466600D01*
G75*
G02*
X226374600Y-93316600I0J150000D01*
G01*
X226374600Y-91666600D01*
G75*
G02*
X226524600Y-91516600I150000J0D01*
G01*
X226824600Y-91516600D01*
G75*
G02*
X226974600Y-91666600I0J-150000D01*
G01*
X226974600Y-93316600D01*
G75*
G02*
X226824600Y-93466600I-150000J0D01*
G01*
G37*
G36*
G01*
X225554600Y-93466600D02*
X225254600Y-93466600D01*
G75*
G02*
X225104600Y-93316600I0J150000D01*
G01*
X225104600Y-91666600D01*
G75*
G02*
X225254600Y-91516600I150000J0D01*
G01*
X225554600Y-91516600D01*
G75*
G02*
X225704600Y-91666600I0J-150000D01*
G01*
X225704600Y-93316600D01*
G75*
G02*
X225554600Y-93466600I-150000J0D01*
G01*
G37*
G36*
G01*
X91982200Y-101310400D02*
X91982200Y-102260400D01*
G75*
G02*
X91732200Y-102510400I-250000J0D01*
G01*
X91057200Y-102510400D01*
G75*
G02*
X90807200Y-102260400I0J250000D01*
G01*
X90807200Y-101310400D01*
G75*
G02*
X91057200Y-101060400I250000J0D01*
G01*
X91732200Y-101060400D01*
G75*
G02*
X91982200Y-101310400I0J-250000D01*
G01*
G37*
G36*
G01*
X89907200Y-101310400D02*
X89907200Y-102260400D01*
G75*
G02*
X89657200Y-102510400I-250000J0D01*
G01*
X88982200Y-102510400D01*
G75*
G02*
X88732200Y-102260400I0J250000D01*
G01*
X88732200Y-101310400D01*
G75*
G02*
X88982200Y-101060400I250000J0D01*
G01*
X89657200Y-101060400D01*
G75*
G02*
X89907200Y-101310400I0J-250000D01*
G01*
G37*
D12*
X203600867Y-115878968D03*
D13*
X206140867Y-115878968D03*
X208680867Y-115878968D03*
D24*
X32790000Y-131700000D03*
X50570000Y-121540000D03*
X50570000Y-129160000D03*
G36*
G01*
X36100000Y-143400000D02*
X37100000Y-143400000D01*
G75*
G02*
X37600000Y-143900000I0J-500000D01*
G01*
X37600000Y-144900000D01*
G75*
G02*
X37100000Y-145400000I-500000J0D01*
G01*
X36100000Y-145400000D01*
G75*
G02*
X35600000Y-144900000I0J500000D01*
G01*
X35600000Y-143900000D01*
G75*
G02*
X36100000Y-143400000I500000J0D01*
G01*
G37*
D25*
X46760000Y-144400000D03*
D21*
X98633750Y-93386057D03*
D22*
X96093750Y-93386057D03*
X91013750Y-93386057D03*
X85933750Y-93386057D03*
D12*
X82119200Y-115874200D03*
D13*
X84659200Y-115874200D03*
X87199200Y-115874200D03*
G36*
G01*
X103992200Y-103662634D02*
X103992200Y-102762634D01*
G75*
G02*
X104242200Y-102512634I250000J0D01*
G01*
X104942200Y-102512634D01*
G75*
G02*
X105192200Y-102762634I0J-250000D01*
G01*
X105192200Y-103662634D01*
G75*
G02*
X104942200Y-103912634I-250000J0D01*
G01*
X104242200Y-103912634D01*
G75*
G02*
X103992200Y-103662634I0J250000D01*
G01*
G37*
G36*
G01*
X105992200Y-103662634D02*
X105992200Y-102762634D01*
G75*
G02*
X106242200Y-102512634I250000J0D01*
G01*
X106942200Y-102512634D01*
G75*
G02*
X107192200Y-102762634I0J-250000D01*
G01*
X107192200Y-103662634D01*
G75*
G02*
X106942200Y-103912634I-250000J0D01*
G01*
X106242200Y-103912634D01*
G75*
G02*
X105992200Y-103662634I0J250000D01*
G01*
G37*
G36*
G01*
X262782500Y-99300350D02*
X262782500Y-100250350D01*
G75*
G02*
X262532500Y-100500350I-250000J0D01*
G01*
X261857500Y-100500350D01*
G75*
G02*
X261607500Y-100250350I0J250000D01*
G01*
X261607500Y-99300350D01*
G75*
G02*
X261857500Y-99050350I250000J0D01*
G01*
X262532500Y-99050350D01*
G75*
G02*
X262782500Y-99300350I0J-250000D01*
G01*
G37*
G36*
G01*
X260707500Y-99300350D02*
X260707500Y-100250350D01*
G75*
G02*
X260457500Y-100500350I-250000J0D01*
G01*
X259782500Y-100500350D01*
G75*
G02*
X259532500Y-100250350I0J250000D01*
G01*
X259532500Y-99300350D01*
G75*
G02*
X259782500Y-99050350I250000J0D01*
G01*
X260457500Y-99050350D01*
G75*
G02*
X260707500Y-99300350I0J-250000D01*
G01*
G37*
D27*
X164315000Y-107940000D03*
X164315000Y-103040000D03*
G36*
G01*
X103967200Y-107760967D02*
X103967200Y-106810967D01*
G75*
G02*
X104217200Y-106560967I250000J0D01*
G01*
X104892200Y-106560967D01*
G75*
G02*
X105142200Y-106810967I0J-250000D01*
G01*
X105142200Y-107760967D01*
G75*
G02*
X104892200Y-108010967I-250000J0D01*
G01*
X104217200Y-108010967D01*
G75*
G02*
X103967200Y-107760967I0J250000D01*
G01*
G37*
G36*
G01*
X106042200Y-107760967D02*
X106042200Y-106810967D01*
G75*
G02*
X106292200Y-106560967I250000J0D01*
G01*
X106967200Y-106560967D01*
G75*
G02*
X107217200Y-106810967I0J-250000D01*
G01*
X107217200Y-107760967D01*
G75*
G02*
X106967200Y-108010967I-250000J0D01*
G01*
X106292200Y-108010967D01*
G75*
G02*
X106042200Y-107760967I0J250000D01*
G01*
G37*
G36*
G01*
X58760000Y-48790000D02*
X57810000Y-48790000D01*
G75*
G02*
X57560000Y-48540000I0J250000D01*
G01*
X57560000Y-47865000D01*
G75*
G02*
X57810000Y-47615000I250000J0D01*
G01*
X58760000Y-47615000D01*
G75*
G02*
X59010000Y-47865000I0J-250000D01*
G01*
X59010000Y-48540000D01*
G75*
G02*
X58760000Y-48790000I-250000J0D01*
G01*
G37*
G36*
G01*
X58760000Y-46715000D02*
X57810000Y-46715000D01*
G75*
G02*
X57560000Y-46465000I0J250000D01*
G01*
X57560000Y-45790000D01*
G75*
G02*
X57810000Y-45540000I250000J0D01*
G01*
X58760000Y-45540000D01*
G75*
G02*
X59010000Y-45790000I0J-250000D01*
G01*
X59010000Y-46465000D01*
G75*
G02*
X58760000Y-46715000I-250000J0D01*
G01*
G37*
G36*
G01*
X146925000Y-106528500D02*
X146925000Y-105578500D01*
G75*
G02*
X147175000Y-105328500I250000J0D01*
G01*
X147850000Y-105328500D01*
G75*
G02*
X148100000Y-105578500I0J-250000D01*
G01*
X148100000Y-106528500D01*
G75*
G02*
X147850000Y-106778500I-250000J0D01*
G01*
X147175000Y-106778500D01*
G75*
G02*
X146925000Y-106528500I0J250000D01*
G01*
G37*
G36*
G01*
X149000000Y-106528500D02*
X149000000Y-105578500D01*
G75*
G02*
X149250000Y-105328500I250000J0D01*
G01*
X149925000Y-105328500D01*
G75*
G02*
X150175000Y-105578500I0J-250000D01*
G01*
X150175000Y-106528500D01*
G75*
G02*
X149925000Y-106778500I-250000J0D01*
G01*
X149250000Y-106778500D01*
G75*
G02*
X149000000Y-106528500I0J250000D01*
G01*
G37*
G36*
G01*
X145802500Y-87645000D02*
X146702500Y-87645000D01*
G75*
G02*
X146952500Y-87895000I0J-250000D01*
G01*
X146952500Y-88595000D01*
G75*
G02*
X146702500Y-88845000I-250000J0D01*
G01*
X145802500Y-88845000D01*
G75*
G02*
X145552500Y-88595000I0J250000D01*
G01*
X145552500Y-87895000D01*
G75*
G02*
X145802500Y-87645000I250000J0D01*
G01*
G37*
G36*
G01*
X145802500Y-89645000D02*
X146702500Y-89645000D01*
G75*
G02*
X146952500Y-89895000I0J-250000D01*
G01*
X146952500Y-90595000D01*
G75*
G02*
X146702500Y-90845000I-250000J0D01*
G01*
X145802500Y-90845000D01*
G75*
G02*
X145552500Y-90595000I0J250000D01*
G01*
X145552500Y-89895000D01*
G75*
G02*
X145802500Y-89645000I250000J0D01*
G01*
G37*
G36*
G01*
X59835000Y-98415000D02*
X59535000Y-98415000D01*
G75*
G02*
X59385000Y-98265000I0J150000D01*
G01*
X59385000Y-96615000D01*
G75*
G02*
X59535000Y-96465000I150000J0D01*
G01*
X59835000Y-96465000D01*
G75*
G02*
X59985000Y-96615000I0J-150000D01*
G01*
X59985000Y-98265000D01*
G75*
G02*
X59835000Y-98415000I-150000J0D01*
G01*
G37*
G36*
G01*
X61105000Y-98415000D02*
X60805000Y-98415000D01*
G75*
G02*
X60655000Y-98265000I0J150000D01*
G01*
X60655000Y-96615000D01*
G75*
G02*
X60805000Y-96465000I150000J0D01*
G01*
X61105000Y-96465000D01*
G75*
G02*
X61255000Y-96615000I0J-150000D01*
G01*
X61255000Y-98265000D01*
G75*
G02*
X61105000Y-98415000I-150000J0D01*
G01*
G37*
G36*
G01*
X62375000Y-98415000D02*
X62075000Y-98415000D01*
G75*
G02*
X61925000Y-98265000I0J150000D01*
G01*
X61925000Y-96615000D01*
G75*
G02*
X62075000Y-96465000I150000J0D01*
G01*
X62375000Y-96465000D01*
G75*
G02*
X62525000Y-96615000I0J-150000D01*
G01*
X62525000Y-98265000D01*
G75*
G02*
X62375000Y-98415000I-150000J0D01*
G01*
G37*
G36*
G01*
X63645000Y-98415000D02*
X63345000Y-98415000D01*
G75*
G02*
X63195000Y-98265000I0J150000D01*
G01*
X63195000Y-96615000D01*
G75*
G02*
X63345000Y-96465000I150000J0D01*
G01*
X63645000Y-96465000D01*
G75*
G02*
X63795000Y-96615000I0J-150000D01*
G01*
X63795000Y-98265000D01*
G75*
G02*
X63645000Y-98415000I-150000J0D01*
G01*
G37*
G36*
G01*
X63645000Y-93465000D02*
X63345000Y-93465000D01*
G75*
G02*
X63195000Y-93315000I0J150000D01*
G01*
X63195000Y-91665000D01*
G75*
G02*
X63345000Y-91515000I150000J0D01*
G01*
X63645000Y-91515000D01*
G75*
G02*
X63795000Y-91665000I0J-150000D01*
G01*
X63795000Y-93315000D01*
G75*
G02*
X63645000Y-93465000I-150000J0D01*
G01*
G37*
G36*
G01*
X62375000Y-93465000D02*
X62075000Y-93465000D01*
G75*
G02*
X61925000Y-93315000I0J150000D01*
G01*
X61925000Y-91665000D01*
G75*
G02*
X62075000Y-91515000I150000J0D01*
G01*
X62375000Y-91515000D01*
G75*
G02*
X62525000Y-91665000I0J-150000D01*
G01*
X62525000Y-93315000D01*
G75*
G02*
X62375000Y-93465000I-150000J0D01*
G01*
G37*
G36*
G01*
X61105000Y-93465000D02*
X60805000Y-93465000D01*
G75*
G02*
X60655000Y-93315000I0J150000D01*
G01*
X60655000Y-91665000D01*
G75*
G02*
X60805000Y-91515000I150000J0D01*
G01*
X61105000Y-91515000D01*
G75*
G02*
X61255000Y-91665000I0J-150000D01*
G01*
X61255000Y-93315000D01*
G75*
G02*
X61105000Y-93465000I-150000J0D01*
G01*
G37*
G36*
G01*
X59835000Y-93465000D02*
X59535000Y-93465000D01*
G75*
G02*
X59385000Y-93315000I0J150000D01*
G01*
X59385000Y-91665000D01*
G75*
G02*
X59535000Y-91515000I150000J0D01*
G01*
X59835000Y-91515000D01*
G75*
G02*
X59985000Y-91665000I0J-150000D01*
G01*
X59985000Y-93315000D01*
G75*
G02*
X59835000Y-93465000I-150000J0D01*
G01*
G37*
D17*
X272540000Y-83740000D03*
G36*
G01*
X246510000Y-106445000D02*
X246510000Y-106095000D01*
G75*
G02*
X246685000Y-105920000I175000J0D01*
G01*
X248335000Y-105920000D01*
G75*
G02*
X248510000Y-106095000I0J-175000D01*
G01*
X248510000Y-106445000D01*
G75*
G02*
X248335000Y-106620000I-175000J0D01*
G01*
X246685000Y-106620000D01*
G75*
G02*
X246510000Y-106445000I0J175000D01*
G01*
G37*
G36*
G01*
X246510000Y-108345000D02*
X246510000Y-107995000D01*
G75*
G02*
X246685000Y-107820000I175000J0D01*
G01*
X248335000Y-107820000D01*
G75*
G02*
X248510000Y-107995000I0J-175000D01*
G01*
X248510000Y-108345000D01*
G75*
G02*
X248335000Y-108520000I-175000J0D01*
G01*
X246685000Y-108520000D01*
G75*
G02*
X246510000Y-108345000I0J175000D01*
G01*
G37*
G36*
G01*
X249910000Y-107395000D02*
X249910000Y-107045000D01*
G75*
G02*
X250085000Y-106870000I175000J0D01*
G01*
X251735000Y-106870000D01*
G75*
G02*
X251910000Y-107045000I0J-175000D01*
G01*
X251910000Y-107395000D01*
G75*
G02*
X251735000Y-107570000I-175000J0D01*
G01*
X250085000Y-107570000D01*
G75*
G02*
X249910000Y-107395000I0J175000D01*
G01*
G37*
D20*
X136290000Y-157740000D03*
G36*
G01*
X61790000Y-83440000D02*
X62690000Y-83440000D01*
G75*
G02*
X62940000Y-83690000I0J-250000D01*
G01*
X62940000Y-84390000D01*
G75*
G02*
X62690000Y-84640000I-250000J0D01*
G01*
X61790000Y-84640000D01*
G75*
G02*
X61540000Y-84390000I0J250000D01*
G01*
X61540000Y-83690000D01*
G75*
G02*
X61790000Y-83440000I250000J0D01*
G01*
G37*
G36*
G01*
X61790000Y-85440000D02*
X62690000Y-85440000D01*
G75*
G02*
X62940000Y-85690000I0J-250000D01*
G01*
X62940000Y-86390000D01*
G75*
G02*
X62690000Y-86640000I-250000J0D01*
G01*
X61790000Y-86640000D01*
G75*
G02*
X61540000Y-86390000I0J250000D01*
G01*
X61540000Y-85690000D01*
G75*
G02*
X61790000Y-85440000I250000J0D01*
G01*
G37*
X210790000Y-66490000D03*
X17290000Y-48990000D03*
G36*
G01*
X217272234Y-104740000D02*
X216522234Y-104740000D01*
G75*
G02*
X216297234Y-104515000I0J225000D01*
G01*
X216297234Y-104065000D01*
G75*
G02*
X216522234Y-103840000I225000J0D01*
G01*
X217272234Y-103840000D01*
G75*
G02*
X217497234Y-104065000I0J-225000D01*
G01*
X217497234Y-104515000D01*
G75*
G02*
X217272234Y-104740000I-225000J0D01*
G01*
G37*
G36*
G01*
X217272234Y-101440000D02*
X216522234Y-101440000D01*
G75*
G02*
X216297234Y-101215000I0J225000D01*
G01*
X216297234Y-100765000D01*
G75*
G02*
X216522234Y-100540000I225000J0D01*
G01*
X217272234Y-100540000D01*
G75*
G02*
X217497234Y-100765000I0J-225000D01*
G01*
X217497234Y-101215000D01*
G75*
G02*
X217272234Y-101440000I-225000J0D01*
G01*
G37*
G36*
G01*
X230389600Y-98191600D02*
X230389600Y-97291600D01*
G75*
G02*
X230639600Y-97041600I250000J0D01*
G01*
X231339600Y-97041600D01*
G75*
G02*
X231589600Y-97291600I0J-250000D01*
G01*
X231589600Y-98191600D01*
G75*
G02*
X231339600Y-98441600I-250000J0D01*
G01*
X230639600Y-98441600D01*
G75*
G02*
X230389600Y-98191600I0J250000D01*
G01*
G37*
G36*
G01*
X232389600Y-98191600D02*
X232389600Y-97291600D01*
G75*
G02*
X232639600Y-97041600I250000J0D01*
G01*
X233339600Y-97041600D01*
G75*
G02*
X233589600Y-97291600I0J-250000D01*
G01*
X233589600Y-98191600D01*
G75*
G02*
X233339600Y-98441600I-250000J0D01*
G01*
X232639600Y-98441600D01*
G75*
G02*
X232389600Y-98191600I0J250000D01*
G01*
G37*
G36*
G01*
X227509600Y-87641600D02*
X228409600Y-87641600D01*
G75*
G02*
X228659600Y-87891600I0J-250000D01*
G01*
X228659600Y-88591600D01*
G75*
G02*
X228409600Y-88841600I-250000J0D01*
G01*
X227509600Y-88841600D01*
G75*
G02*
X227259600Y-88591600I0J250000D01*
G01*
X227259600Y-87891600D01*
G75*
G02*
X227509600Y-87641600I250000J0D01*
G01*
G37*
G36*
G01*
X227509600Y-89641600D02*
X228409600Y-89641600D01*
G75*
G02*
X228659600Y-89891600I0J-250000D01*
G01*
X228659600Y-90591600D01*
G75*
G02*
X228409600Y-90841600I-250000J0D01*
G01*
X227509600Y-90841600D01*
G75*
G02*
X227259600Y-90591600I0J250000D01*
G01*
X227259600Y-89891600D01*
G75*
G02*
X227509600Y-89641600I250000J0D01*
G01*
G37*
G36*
G01*
X252800000Y-105530000D02*
X253700000Y-105530000D01*
G75*
G02*
X253950000Y-105780000I0J-250000D01*
G01*
X253950000Y-106480000D01*
G75*
G02*
X253700000Y-106730000I-250000J0D01*
G01*
X252800000Y-106730000D01*
G75*
G02*
X252550000Y-106480000I0J250000D01*
G01*
X252550000Y-105780000D01*
G75*
G02*
X252800000Y-105530000I250000J0D01*
G01*
G37*
G36*
G01*
X252800000Y-107530000D02*
X253700000Y-107530000D01*
G75*
G02*
X253950000Y-107780000I0J-250000D01*
G01*
X253950000Y-108480000D01*
G75*
G02*
X253700000Y-108730000I-250000J0D01*
G01*
X252800000Y-108730000D01*
G75*
G02*
X252550000Y-108480000I0J250000D01*
G01*
X252550000Y-107780000D01*
G75*
G02*
X252800000Y-107530000I250000J0D01*
G01*
G37*
D16*
X79040000Y-134090000D03*
X79040000Y-144190000D03*
X79040000Y-154390000D03*
X101540000Y-144190000D03*
X106540000Y-144190000D03*
X116540000Y-134090000D03*
X116540000Y-144190000D03*
X116540000Y-154390000D03*
G36*
G01*
X50812100Y-99290000D02*
X50812100Y-100240000D01*
G75*
G02*
X50562100Y-100490000I-250000J0D01*
G01*
X49887100Y-100490000D01*
G75*
G02*
X49637100Y-100240000I0J250000D01*
G01*
X49637100Y-99290000D01*
G75*
G02*
X49887100Y-99040000I250000J0D01*
G01*
X50562100Y-99040000D01*
G75*
G02*
X50812100Y-99290000I0J-250000D01*
G01*
G37*
G36*
G01*
X48737100Y-99290000D02*
X48737100Y-100240000D01*
G75*
G02*
X48487100Y-100490000I-250000J0D01*
G01*
X47812100Y-100490000D01*
G75*
G02*
X47562100Y-100240000I0J250000D01*
G01*
X47562100Y-99290000D01*
G75*
G02*
X47812100Y-99040000I250000J0D01*
G01*
X48487100Y-99040000D01*
G75*
G02*
X48737100Y-99290000I0J-250000D01*
G01*
G37*
G36*
G01*
X196578934Y-100687693D02*
X196578934Y-101637693D01*
G75*
G02*
X196328934Y-101887693I-250000J0D01*
G01*
X195653934Y-101887693D01*
G75*
G02*
X195403934Y-101637693I0J250000D01*
G01*
X195403934Y-100687693D01*
G75*
G02*
X195653934Y-100437693I250000J0D01*
G01*
X196328934Y-100437693D01*
G75*
G02*
X196578934Y-100687693I0J-250000D01*
G01*
G37*
G36*
G01*
X194503934Y-100687693D02*
X194503934Y-101637693D01*
G75*
G02*
X194253934Y-101887693I-250000J0D01*
G01*
X193578934Y-101887693D01*
G75*
G02*
X193328934Y-101637693I0J250000D01*
G01*
X193328934Y-100687693D01*
G75*
G02*
X193578934Y-100437693I250000J0D01*
G01*
X194253934Y-100437693D01*
G75*
G02*
X194503934Y-100687693I0J-250000D01*
G01*
G37*
D24*
X165090000Y-114429000D03*
X182890000Y-114429000D03*
X197200867Y-114433968D03*
X215000867Y-114433968D03*
G36*
G01*
X179696200Y-101310400D02*
X179696200Y-102260400D01*
G75*
G02*
X179446200Y-102510400I-250000J0D01*
G01*
X178771200Y-102510400D01*
G75*
G02*
X178521200Y-102260400I0J250000D01*
G01*
X178521200Y-101310400D01*
G75*
G02*
X178771200Y-101060400I250000J0D01*
G01*
X179446200Y-101060400D01*
G75*
G02*
X179696200Y-101310400I0J-250000D01*
G01*
G37*
G36*
G01*
X177621200Y-101310400D02*
X177621200Y-102260400D01*
G75*
G02*
X177371200Y-102510400I-250000J0D01*
G01*
X176696200Y-102510400D01*
G75*
G02*
X176446200Y-102260400I0J250000D01*
G01*
X176446200Y-101310400D01*
G75*
G02*
X176696200Y-101060400I250000J0D01*
G01*
X177371200Y-101060400D01*
G75*
G02*
X177621200Y-101310400I0J-250000D01*
G01*
G37*
G36*
G01*
X233589600Y-91766600D02*
X233589600Y-92666600D01*
G75*
G02*
X233339600Y-92916600I-250000J0D01*
G01*
X232639600Y-92916600D01*
G75*
G02*
X232389600Y-92666600I0J250000D01*
G01*
X232389600Y-91766600D01*
G75*
G02*
X232639600Y-91516600I250000J0D01*
G01*
X233339600Y-91516600D01*
G75*
G02*
X233589600Y-91766600I0J-250000D01*
G01*
G37*
G36*
G01*
X231589600Y-91766600D02*
X231589600Y-92666600D01*
G75*
G02*
X231339600Y-92916600I-250000J0D01*
G01*
X230639600Y-92916600D01*
G75*
G02*
X230389600Y-92666600I0J250000D01*
G01*
X230389600Y-91766600D01*
G75*
G02*
X230639600Y-91516600I250000J0D01*
G01*
X231339600Y-91516600D01*
G75*
G02*
X231589600Y-91766600I0J-250000D01*
G01*
G37*
G36*
G01*
X21940000Y-69590000D02*
X21940000Y-71390000D01*
G75*
G02*
X21690000Y-71640000I-250000J0D01*
G01*
X18690000Y-71640000D01*
G75*
G02*
X18440000Y-71390000I0J250000D01*
G01*
X18440000Y-69590000D01*
G75*
G02*
X18690000Y-69340000I250000J0D01*
G01*
X21690000Y-69340000D01*
G75*
G02*
X21940000Y-69590000I0J-250000D01*
G01*
G37*
G36*
G01*
X16540000Y-69590000D02*
X16540000Y-71390000D01*
G75*
G02*
X16290000Y-71640000I-250000J0D01*
G01*
X13290000Y-71640000D01*
G75*
G02*
X13040000Y-71390000I0J250000D01*
G01*
X13040000Y-69590000D01*
G75*
G02*
X13290000Y-69340000I250000J0D01*
G01*
X16290000Y-69340000D01*
G75*
G02*
X16540000Y-69590000I0J-250000D01*
G01*
G37*
G36*
G01*
X47340000Y-109330000D02*
X48240000Y-109330000D01*
G75*
G02*
X48490000Y-109580000I0J-250000D01*
G01*
X48490000Y-110280000D01*
G75*
G02*
X48240000Y-110530000I-250000J0D01*
G01*
X47340000Y-110530000D01*
G75*
G02*
X47090000Y-110280000I0J250000D01*
G01*
X47090000Y-109580000D01*
G75*
G02*
X47340000Y-109330000I250000J0D01*
G01*
G37*
G36*
G01*
X47340000Y-111330000D02*
X48240000Y-111330000D01*
G75*
G02*
X48490000Y-111580000I0J-250000D01*
G01*
X48490000Y-112280000D01*
G75*
G02*
X48240000Y-112530000I-250000J0D01*
G01*
X47340000Y-112530000D01*
G75*
G02*
X47090000Y-112280000I0J250000D01*
G01*
X47090000Y-111580000D01*
G75*
G02*
X47340000Y-111330000I250000J0D01*
G01*
G37*
D10*
X20290000Y-118780000D03*
D11*
X20290000Y-116240000D03*
X20290000Y-113700000D03*
G36*
G01*
X56865000Y-108715000D02*
X56865000Y-107765000D01*
G75*
G02*
X57115000Y-107515000I250000J0D01*
G01*
X57790000Y-107515000D01*
G75*
G02*
X58040000Y-107765000I0J-250000D01*
G01*
X58040000Y-108715000D01*
G75*
G02*
X57790000Y-108965000I-250000J0D01*
G01*
X57115000Y-108965000D01*
G75*
G02*
X56865000Y-108715000I0J250000D01*
G01*
G37*
G36*
G01*
X58940000Y-108715000D02*
X58940000Y-107765000D01*
G75*
G02*
X59190000Y-107515000I250000J0D01*
G01*
X59865000Y-107515000D01*
G75*
G02*
X60115000Y-107765000I0J-250000D01*
G01*
X60115000Y-108715000D01*
G75*
G02*
X59865000Y-108965000I-250000J0D01*
G01*
X59190000Y-108965000D01*
G75*
G02*
X58940000Y-108715000I0J250000D01*
G01*
G37*
G36*
G01*
X50787100Y-91765000D02*
X50787100Y-92665000D01*
G75*
G02*
X50537100Y-92915000I-250000J0D01*
G01*
X49837100Y-92915000D01*
G75*
G02*
X49587100Y-92665000I0J250000D01*
G01*
X49587100Y-91765000D01*
G75*
G02*
X49837100Y-91515000I250000J0D01*
G01*
X50537100Y-91515000D01*
G75*
G02*
X50787100Y-91765000I0J-250000D01*
G01*
G37*
G36*
G01*
X48787100Y-91765000D02*
X48787100Y-92665000D01*
G75*
G02*
X48537100Y-92915000I-250000J0D01*
G01*
X47837100Y-92915000D01*
G75*
G02*
X47587100Y-92665000I0J250000D01*
G01*
X47587100Y-91765000D01*
G75*
G02*
X47837100Y-91515000I250000J0D01*
G01*
X48537100Y-91515000D01*
G75*
G02*
X48787100Y-91765000I0J-250000D01*
G01*
G37*
G36*
G01*
X244007100Y-99315000D02*
X244007100Y-100215000D01*
G75*
G02*
X243757100Y-100465000I-250000J0D01*
G01*
X243057100Y-100465000D01*
G75*
G02*
X242807100Y-100215000I0J250000D01*
G01*
X242807100Y-99315000D01*
G75*
G02*
X243057100Y-99065000I250000J0D01*
G01*
X243757100Y-99065000D01*
G75*
G02*
X244007100Y-99315000I0J-250000D01*
G01*
G37*
G36*
G01*
X242007100Y-99315000D02*
X242007100Y-100215000D01*
G75*
G02*
X241757100Y-100465000I-250000J0D01*
G01*
X241057100Y-100465000D01*
G75*
G02*
X240807100Y-100215000I0J250000D01*
G01*
X240807100Y-99315000D01*
G75*
G02*
X241057100Y-99065000I250000J0D01*
G01*
X241757100Y-99065000D01*
G75*
G02*
X242007100Y-99315000I0J-250000D01*
G01*
G37*
G36*
G01*
X227509600Y-83441600D02*
X228409600Y-83441600D01*
G75*
G02*
X228659600Y-83691600I0J-250000D01*
G01*
X228659600Y-84391600D01*
G75*
G02*
X228409600Y-84641600I-250000J0D01*
G01*
X227509600Y-84641600D01*
G75*
G02*
X227259600Y-84391600I0J250000D01*
G01*
X227259600Y-83691600D01*
G75*
G02*
X227509600Y-83441600I250000J0D01*
G01*
G37*
G36*
G01*
X227509600Y-85441600D02*
X228409600Y-85441600D01*
G75*
G02*
X228659600Y-85691600I0J-250000D01*
G01*
X228659600Y-86391600D01*
G75*
G02*
X228409600Y-86641600I-250000J0D01*
G01*
X227509600Y-86641600D01*
G75*
G02*
X227259600Y-86391600I0J250000D01*
G01*
X227259600Y-85691600D01*
G75*
G02*
X227509600Y-85441600I250000J0D01*
G01*
G37*
G36*
G01*
X178025000Y-107340000D02*
X178025000Y-107640000D01*
G75*
G02*
X177875000Y-107790000I-150000J0D01*
G01*
X176425000Y-107790000D01*
G75*
G02*
X176275000Y-107640000I0J150000D01*
G01*
X176275000Y-107340000D01*
G75*
G02*
X176425000Y-107190000I150000J0D01*
G01*
X177875000Y-107190000D01*
G75*
G02*
X178025000Y-107340000I0J-150000D01*
G01*
G37*
G36*
G01*
X178025000Y-106070000D02*
X178025000Y-106370000D01*
G75*
G02*
X177875000Y-106520000I-150000J0D01*
G01*
X176425000Y-106520000D01*
G75*
G02*
X176275000Y-106370000I0J150000D01*
G01*
X176275000Y-106070000D01*
G75*
G02*
X176425000Y-105920000I150000J0D01*
G01*
X177875000Y-105920000D01*
G75*
G02*
X178025000Y-106070000I0J-150000D01*
G01*
G37*
G36*
G01*
X178025000Y-104800000D02*
X178025000Y-105100000D01*
G75*
G02*
X177875000Y-105250000I-150000J0D01*
G01*
X176425000Y-105250000D01*
G75*
G02*
X176275000Y-105100000I0J150000D01*
G01*
X176275000Y-104800000D01*
G75*
G02*
X176425000Y-104650000I150000J0D01*
G01*
X177875000Y-104650000D01*
G75*
G02*
X178025000Y-104800000I0J-150000D01*
G01*
G37*
G36*
G01*
X178025000Y-103530000D02*
X178025000Y-103830000D01*
G75*
G02*
X177875000Y-103980000I-150000J0D01*
G01*
X176425000Y-103980000D01*
G75*
G02*
X176275000Y-103830000I0J150000D01*
G01*
X176275000Y-103530000D01*
G75*
G02*
X176425000Y-103380000I150000J0D01*
G01*
X177875000Y-103380000D01*
G75*
G02*
X178025000Y-103530000I0J-150000D01*
G01*
G37*
G36*
G01*
X172875000Y-103530000D02*
X172875000Y-103830000D01*
G75*
G02*
X172725000Y-103980000I-150000J0D01*
G01*
X171275000Y-103980000D01*
G75*
G02*
X171125000Y-103830000I0J150000D01*
G01*
X171125000Y-103530000D01*
G75*
G02*
X171275000Y-103380000I150000J0D01*
G01*
X172725000Y-103380000D01*
G75*
G02*
X172875000Y-103530000I0J-150000D01*
G01*
G37*
G36*
G01*
X172875000Y-104800000D02*
X172875000Y-105100000D01*
G75*
G02*
X172725000Y-105250000I-150000J0D01*
G01*
X171275000Y-105250000D01*
G75*
G02*
X171125000Y-105100000I0J150000D01*
G01*
X171125000Y-104800000D01*
G75*
G02*
X171275000Y-104650000I150000J0D01*
G01*
X172725000Y-104650000D01*
G75*
G02*
X172875000Y-104800000I0J-150000D01*
G01*
G37*
G36*
G01*
X172875000Y-106070000D02*
X172875000Y-106370000D01*
G75*
G02*
X172725000Y-106520000I-150000J0D01*
G01*
X171275000Y-106520000D01*
G75*
G02*
X171125000Y-106370000I0J150000D01*
G01*
X171125000Y-106070000D01*
G75*
G02*
X171275000Y-105920000I150000J0D01*
G01*
X172725000Y-105920000D01*
G75*
G02*
X172875000Y-106070000I0J-150000D01*
G01*
G37*
G36*
G01*
X172875000Y-107340000D02*
X172875000Y-107640000D01*
G75*
G02*
X172725000Y-107790000I-150000J0D01*
G01*
X171275000Y-107790000D01*
G75*
G02*
X171125000Y-107640000I0J150000D01*
G01*
X171125000Y-107340000D01*
G75*
G02*
X171275000Y-107190000I150000J0D01*
G01*
X172725000Y-107190000D01*
G75*
G02*
X172875000Y-107340000I0J-150000D01*
G01*
G37*
G36*
G01*
X115054900Y-100135400D02*
X115054900Y-99185400D01*
G75*
G02*
X115304900Y-98935400I250000J0D01*
G01*
X115979900Y-98935400D01*
G75*
G02*
X116229900Y-99185400I0J-250000D01*
G01*
X116229900Y-100135400D01*
G75*
G02*
X115979900Y-100385400I-250000J0D01*
G01*
X115304900Y-100385400D01*
G75*
G02*
X115054900Y-100135400I0J250000D01*
G01*
G37*
G36*
G01*
X117129900Y-100135400D02*
X117129900Y-99185400D01*
G75*
G02*
X117379900Y-98935400I250000J0D01*
G01*
X118054900Y-98935400D01*
G75*
G02*
X118304900Y-99185400I0J-250000D01*
G01*
X118304900Y-100135400D01*
G75*
G02*
X118054900Y-100385400I-250000J0D01*
G01*
X117379900Y-100385400D01*
G75*
G02*
X117129900Y-100135400I0J250000D01*
G01*
G37*
G36*
G01*
X258977900Y-101300350D02*
X258977900Y-102250350D01*
G75*
G02*
X258727900Y-102500350I-250000J0D01*
G01*
X258052900Y-102500350D01*
G75*
G02*
X257802900Y-102250350I0J250000D01*
G01*
X257802900Y-101300350D01*
G75*
G02*
X258052900Y-101050350I250000J0D01*
G01*
X258727900Y-101050350D01*
G75*
G02*
X258977900Y-101300350I0J-250000D01*
G01*
G37*
G36*
G01*
X256902900Y-101300350D02*
X256902900Y-102250350D01*
G75*
G02*
X256652900Y-102500350I-250000J0D01*
G01*
X255977900Y-102500350D01*
G75*
G02*
X255727900Y-102250350I0J250000D01*
G01*
X255727900Y-101300350D01*
G75*
G02*
X255977900Y-101050350I250000J0D01*
G01*
X256652900Y-101050350D01*
G75*
G02*
X256902900Y-101300350I0J-250000D01*
G01*
G37*
G36*
G01*
X244730000Y-105510000D02*
X245630000Y-105510000D01*
G75*
G02*
X245880000Y-105760000I0J-250000D01*
G01*
X245880000Y-106460000D01*
G75*
G02*
X245630000Y-106710000I-250000J0D01*
G01*
X244730000Y-106710000D01*
G75*
G02*
X244480000Y-106460000I0J250000D01*
G01*
X244480000Y-105760000D01*
G75*
G02*
X244730000Y-105510000I250000J0D01*
G01*
G37*
G36*
G01*
X244730000Y-107510000D02*
X245630000Y-107510000D01*
G75*
G02*
X245880000Y-107760000I0J-250000D01*
G01*
X245880000Y-108460000D01*
G75*
G02*
X245630000Y-108710000I-250000J0D01*
G01*
X244730000Y-108710000D01*
G75*
G02*
X244480000Y-108460000I0J250000D01*
G01*
X244480000Y-107760000D01*
G75*
G02*
X244730000Y-107510000I250000J0D01*
G01*
G37*
D10*
X161790000Y-51480000D03*
D11*
X161790000Y-48940000D03*
X164330000Y-51480000D03*
X164330000Y-48940000D03*
X166870000Y-51480000D03*
X166870000Y-48940000D03*
X169410000Y-51480000D03*
X169410000Y-48940000D03*
X171950000Y-51480000D03*
X171950000Y-48940000D03*
X174490000Y-51480000D03*
X174490000Y-48940000D03*
X177030000Y-51480000D03*
X177030000Y-48940000D03*
X179570000Y-51480000D03*
X179570000Y-48940000D03*
M02*
