G04 #@! TF.GenerationSoftware,KiCad,Pcbnew,8.0.5*
G04 #@! TF.CreationDate,2024-12-19T18:07:51+01:00*
G04 #@! TF.ProjectId,buck-boost-xp,6275636b-2d62-46f6-9f73-742d78702e6b,rev?*
G04 #@! TF.SameCoordinates,Original*
G04 #@! TF.FileFunction,Legend,Bot*
G04 #@! TF.FilePolarity,Positive*
%FSLAX46Y46*%
G04 Gerber Fmt 4.6, Leading zero omitted, Abs format (unit mm)*
G04 Created by KiCad (PCBNEW 8.0.5) date 2024-12-19 18:07:51*
%MOMM*%
%LPD*%
G01*
G04 APERTURE LIST*
%ADD10C,0.150000*%
%ADD11C,0.120000*%
%ADD12R,1.700000X1.700000*%
%ADD13O,1.700000X1.700000*%
%ADD14R,1.905000X2.000000*%
%ADD15O,1.905000X2.000000*%
%ADD16R,2.400000X2.400000*%
%ADD17C,2.400000*%
%ADD18C,12.800000*%
%ADD19C,3.200000*%
%ADD20R,1.500000X1.500000*%
%ADD21C,1.500000*%
%ADD22C,1.400000*%
%ADD23C,3.000000*%
%ADD24C,2.000000*%
%ADD25R,2.918000X2.600000*%
G04 APERTURE END LIST*
D10*
X220632857Y-121749580D02*
X220680476Y-121797200D01*
X220680476Y-121797200D02*
X220823333Y-121844819D01*
X220823333Y-121844819D02*
X220918571Y-121844819D01*
X220918571Y-121844819D02*
X221061428Y-121797200D01*
X221061428Y-121797200D02*
X221156666Y-121701961D01*
X221156666Y-121701961D02*
X221204285Y-121606723D01*
X221204285Y-121606723D02*
X221251904Y-121416247D01*
X221251904Y-121416247D02*
X221251904Y-121273390D01*
X221251904Y-121273390D02*
X221204285Y-121082914D01*
X221204285Y-121082914D02*
X221156666Y-120987676D01*
X221156666Y-120987676D02*
X221061428Y-120892438D01*
X221061428Y-120892438D02*
X220918571Y-120844819D01*
X220918571Y-120844819D02*
X220823333Y-120844819D01*
X220823333Y-120844819D02*
X220680476Y-120892438D01*
X220680476Y-120892438D02*
X220632857Y-120940057D01*
X219680476Y-121844819D02*
X220251904Y-121844819D01*
X219966190Y-121844819D02*
X219966190Y-120844819D01*
X219966190Y-120844819D02*
X220061428Y-120987676D01*
X220061428Y-120987676D02*
X220156666Y-121082914D01*
X220156666Y-121082914D02*
X220251904Y-121130533D01*
X219204285Y-121844819D02*
X219013809Y-121844819D01*
X219013809Y-121844819D02*
X218918571Y-121797200D01*
X218918571Y-121797200D02*
X218870952Y-121749580D01*
X218870952Y-121749580D02*
X218775714Y-121606723D01*
X218775714Y-121606723D02*
X218728095Y-121416247D01*
X218728095Y-121416247D02*
X218728095Y-121035295D01*
X218728095Y-121035295D02*
X218775714Y-120940057D01*
X218775714Y-120940057D02*
X218823333Y-120892438D01*
X218823333Y-120892438D02*
X218918571Y-120844819D01*
X218918571Y-120844819D02*
X219109047Y-120844819D01*
X219109047Y-120844819D02*
X219204285Y-120892438D01*
X219204285Y-120892438D02*
X219251904Y-120940057D01*
X219251904Y-120940057D02*
X219299523Y-121035295D01*
X219299523Y-121035295D02*
X219299523Y-121273390D01*
X219299523Y-121273390D02*
X219251904Y-121368628D01*
X219251904Y-121368628D02*
X219204285Y-121416247D01*
X219204285Y-121416247D02*
X219109047Y-121463866D01*
X219109047Y-121463866D02*
X218918571Y-121463866D01*
X218918571Y-121463866D02*
X218823333Y-121416247D01*
X218823333Y-121416247D02*
X218775714Y-121368628D01*
X218775714Y-121368628D02*
X218728095Y-121273390D01*
X215335528Y-105282671D02*
X214335528Y-105282671D01*
X214335528Y-105282671D02*
X214335528Y-105520766D01*
X214335528Y-105520766D02*
X214383147Y-105663623D01*
X214383147Y-105663623D02*
X214478385Y-105758861D01*
X214478385Y-105758861D02*
X214573623Y-105806480D01*
X214573623Y-105806480D02*
X214764099Y-105854099D01*
X214764099Y-105854099D02*
X214906956Y-105854099D01*
X214906956Y-105854099D02*
X215097432Y-105806480D01*
X215097432Y-105806480D02*
X215192670Y-105758861D01*
X215192670Y-105758861D02*
X215287909Y-105663623D01*
X215287909Y-105663623D02*
X215335528Y-105520766D01*
X215335528Y-105520766D02*
X215335528Y-105282671D01*
X214335528Y-106187433D02*
X214335528Y-106854099D01*
X214335528Y-106854099D02*
X215335528Y-106425528D01*
X130594819Y-98751905D02*
X129594819Y-98751905D01*
X129594819Y-98751905D02*
X129594819Y-98990000D01*
X129594819Y-98990000D02*
X129642438Y-99132857D01*
X129642438Y-99132857D02*
X129737676Y-99228095D01*
X129737676Y-99228095D02*
X129832914Y-99275714D01*
X129832914Y-99275714D02*
X130023390Y-99323333D01*
X130023390Y-99323333D02*
X130166247Y-99323333D01*
X130166247Y-99323333D02*
X130356723Y-99275714D01*
X130356723Y-99275714D02*
X130451961Y-99228095D01*
X130451961Y-99228095D02*
X130547200Y-99132857D01*
X130547200Y-99132857D02*
X130594819Y-98990000D01*
X130594819Y-98990000D02*
X130594819Y-98751905D01*
X129928152Y-100180476D02*
X130594819Y-100180476D01*
X129547200Y-99942381D02*
X130261485Y-99704286D01*
X130261485Y-99704286D02*
X130261485Y-100323333D01*
X86032857Y-124944819D02*
X86366190Y-124468628D01*
X86604285Y-124944819D02*
X86604285Y-123944819D01*
X86604285Y-123944819D02*
X86223333Y-123944819D01*
X86223333Y-123944819D02*
X86128095Y-123992438D01*
X86128095Y-123992438D02*
X86080476Y-124040057D01*
X86080476Y-124040057D02*
X86032857Y-124135295D01*
X86032857Y-124135295D02*
X86032857Y-124278152D01*
X86032857Y-124278152D02*
X86080476Y-124373390D01*
X86080476Y-124373390D02*
X86128095Y-124421009D01*
X86128095Y-124421009D02*
X86223333Y-124468628D01*
X86223333Y-124468628D02*
X86604285Y-124468628D01*
X85651904Y-124040057D02*
X85604285Y-123992438D01*
X85604285Y-123992438D02*
X85509047Y-123944819D01*
X85509047Y-123944819D02*
X85270952Y-123944819D01*
X85270952Y-123944819D02*
X85175714Y-123992438D01*
X85175714Y-123992438D02*
X85128095Y-124040057D01*
X85128095Y-124040057D02*
X85080476Y-124135295D01*
X85080476Y-124135295D02*
X85080476Y-124230533D01*
X85080476Y-124230533D02*
X85128095Y-124373390D01*
X85128095Y-124373390D02*
X85699523Y-124944819D01*
X85699523Y-124944819D02*
X85080476Y-124944819D01*
X84699523Y-124040057D02*
X84651904Y-123992438D01*
X84651904Y-123992438D02*
X84556666Y-123944819D01*
X84556666Y-123944819D02*
X84318571Y-123944819D01*
X84318571Y-123944819D02*
X84223333Y-123992438D01*
X84223333Y-123992438D02*
X84175714Y-124040057D01*
X84175714Y-124040057D02*
X84128095Y-124135295D01*
X84128095Y-124135295D02*
X84128095Y-124230533D01*
X84128095Y-124230533D02*
X84175714Y-124373390D01*
X84175714Y-124373390D02*
X84747142Y-124944819D01*
X84747142Y-124944819D02*
X84128095Y-124944819D01*
X214306666Y-91294819D02*
X214782856Y-91294819D01*
X214782856Y-91294819D02*
X214782856Y-90294819D01*
X213544761Y-90628152D02*
X213544761Y-91294819D01*
X213782856Y-90247200D02*
X214020951Y-90961485D01*
X214020951Y-90961485D02*
X213401904Y-90961485D01*
X94656666Y-90544819D02*
X95132856Y-90544819D01*
X95132856Y-90544819D02*
X95132856Y-89544819D01*
X94370951Y-89640057D02*
X94323332Y-89592438D01*
X94323332Y-89592438D02*
X94228094Y-89544819D01*
X94228094Y-89544819D02*
X93989999Y-89544819D01*
X93989999Y-89544819D02*
X93894761Y-89592438D01*
X93894761Y-89592438D02*
X93847142Y-89640057D01*
X93847142Y-89640057D02*
X93799523Y-89735295D01*
X93799523Y-89735295D02*
X93799523Y-89830533D01*
X93799523Y-89830533D02*
X93847142Y-89973390D01*
X93847142Y-89973390D02*
X94418570Y-90544819D01*
X94418570Y-90544819D02*
X93799523Y-90544819D01*
X116932857Y-124994819D02*
X117266190Y-124518628D01*
X117504285Y-124994819D02*
X117504285Y-123994819D01*
X117504285Y-123994819D02*
X117123333Y-123994819D01*
X117123333Y-123994819D02*
X117028095Y-124042438D01*
X117028095Y-124042438D02*
X116980476Y-124090057D01*
X116980476Y-124090057D02*
X116932857Y-124185295D01*
X116932857Y-124185295D02*
X116932857Y-124328152D01*
X116932857Y-124328152D02*
X116980476Y-124423390D01*
X116980476Y-124423390D02*
X117028095Y-124471009D01*
X117028095Y-124471009D02*
X117123333Y-124518628D01*
X117123333Y-124518628D02*
X117504285Y-124518628D01*
X116551904Y-124090057D02*
X116504285Y-124042438D01*
X116504285Y-124042438D02*
X116409047Y-123994819D01*
X116409047Y-123994819D02*
X116170952Y-123994819D01*
X116170952Y-123994819D02*
X116075714Y-124042438D01*
X116075714Y-124042438D02*
X116028095Y-124090057D01*
X116028095Y-124090057D02*
X115980476Y-124185295D01*
X115980476Y-124185295D02*
X115980476Y-124280533D01*
X115980476Y-124280533D02*
X116028095Y-124423390D01*
X116028095Y-124423390D02*
X116599523Y-124994819D01*
X116599523Y-124994819D02*
X115980476Y-124994819D01*
X115647142Y-123994819D02*
X115028095Y-123994819D01*
X115028095Y-123994819D02*
X115361428Y-124375771D01*
X115361428Y-124375771D02*
X115218571Y-124375771D01*
X115218571Y-124375771D02*
X115123333Y-124423390D01*
X115123333Y-124423390D02*
X115075714Y-124471009D01*
X115075714Y-124471009D02*
X115028095Y-124566247D01*
X115028095Y-124566247D02*
X115028095Y-124804342D01*
X115028095Y-124804342D02*
X115075714Y-124899580D01*
X115075714Y-124899580D02*
X115123333Y-124947200D01*
X115123333Y-124947200D02*
X115218571Y-124994819D01*
X115218571Y-124994819D02*
X115504285Y-124994819D01*
X115504285Y-124994819D02*
X115599523Y-124947200D01*
X115599523Y-124947200D02*
X115647142Y-124899580D01*
X250604285Y-118588339D02*
X250604285Y-117588339D01*
X250604285Y-117588339D02*
X250366190Y-117588339D01*
X250366190Y-117588339D02*
X250223333Y-117635958D01*
X250223333Y-117635958D02*
X250128095Y-117731196D01*
X250128095Y-117731196D02*
X250080476Y-117826434D01*
X250080476Y-117826434D02*
X250032857Y-118016910D01*
X250032857Y-118016910D02*
X250032857Y-118159767D01*
X250032857Y-118159767D02*
X250080476Y-118350243D01*
X250080476Y-118350243D02*
X250128095Y-118445481D01*
X250128095Y-118445481D02*
X250223333Y-118540720D01*
X250223333Y-118540720D02*
X250366190Y-118588339D01*
X250366190Y-118588339D02*
X250604285Y-118588339D01*
X249080476Y-118588339D02*
X249651904Y-118588339D01*
X249366190Y-118588339D02*
X249366190Y-117588339D01*
X249366190Y-117588339D02*
X249461428Y-117731196D01*
X249461428Y-117731196D02*
X249556666Y-117826434D01*
X249556666Y-117826434D02*
X249651904Y-117874053D01*
X248223333Y-117588339D02*
X248413809Y-117588339D01*
X248413809Y-117588339D02*
X248509047Y-117635958D01*
X248509047Y-117635958D02*
X248556666Y-117683577D01*
X248556666Y-117683577D02*
X248651904Y-117826434D01*
X248651904Y-117826434D02*
X248699523Y-118016910D01*
X248699523Y-118016910D02*
X248699523Y-118397862D01*
X248699523Y-118397862D02*
X248651904Y-118493100D01*
X248651904Y-118493100D02*
X248604285Y-118540720D01*
X248604285Y-118540720D02*
X248509047Y-118588339D01*
X248509047Y-118588339D02*
X248318571Y-118588339D01*
X248318571Y-118588339D02*
X248223333Y-118540720D01*
X248223333Y-118540720D02*
X248175714Y-118493100D01*
X248175714Y-118493100D02*
X248128095Y-118397862D01*
X248128095Y-118397862D02*
X248128095Y-118159767D01*
X248128095Y-118159767D02*
X248175714Y-118064529D01*
X248175714Y-118064529D02*
X248223333Y-118016910D01*
X248223333Y-118016910D02*
X248318571Y-117969291D01*
X248318571Y-117969291D02*
X248509047Y-117969291D01*
X248509047Y-117969291D02*
X248604285Y-118016910D01*
X248604285Y-118016910D02*
X248651904Y-118064529D01*
X248651904Y-118064529D02*
X248699523Y-118159767D01*
X212332857Y-89699580D02*
X212380476Y-89747200D01*
X212380476Y-89747200D02*
X212523333Y-89794819D01*
X212523333Y-89794819D02*
X212618571Y-89794819D01*
X212618571Y-89794819D02*
X212761428Y-89747200D01*
X212761428Y-89747200D02*
X212856666Y-89651961D01*
X212856666Y-89651961D02*
X212904285Y-89556723D01*
X212904285Y-89556723D02*
X212951904Y-89366247D01*
X212951904Y-89366247D02*
X212951904Y-89223390D01*
X212951904Y-89223390D02*
X212904285Y-89032914D01*
X212904285Y-89032914D02*
X212856666Y-88937676D01*
X212856666Y-88937676D02*
X212761428Y-88842438D01*
X212761428Y-88842438D02*
X212618571Y-88794819D01*
X212618571Y-88794819D02*
X212523333Y-88794819D01*
X212523333Y-88794819D02*
X212380476Y-88842438D01*
X212380476Y-88842438D02*
X212332857Y-88890057D01*
X211951904Y-88890057D02*
X211904285Y-88842438D01*
X211904285Y-88842438D02*
X211809047Y-88794819D01*
X211809047Y-88794819D02*
X211570952Y-88794819D01*
X211570952Y-88794819D02*
X211475714Y-88842438D01*
X211475714Y-88842438D02*
X211428095Y-88890057D01*
X211428095Y-88890057D02*
X211380476Y-88985295D01*
X211380476Y-88985295D02*
X211380476Y-89080533D01*
X211380476Y-89080533D02*
X211428095Y-89223390D01*
X211428095Y-89223390D02*
X211999523Y-89794819D01*
X211999523Y-89794819D02*
X211380476Y-89794819D01*
X210904285Y-89794819D02*
X210713809Y-89794819D01*
X210713809Y-89794819D02*
X210618571Y-89747200D01*
X210618571Y-89747200D02*
X210570952Y-89699580D01*
X210570952Y-89699580D02*
X210475714Y-89556723D01*
X210475714Y-89556723D02*
X210428095Y-89366247D01*
X210428095Y-89366247D02*
X210428095Y-88985295D01*
X210428095Y-88985295D02*
X210475714Y-88890057D01*
X210475714Y-88890057D02*
X210523333Y-88842438D01*
X210523333Y-88842438D02*
X210618571Y-88794819D01*
X210618571Y-88794819D02*
X210809047Y-88794819D01*
X210809047Y-88794819D02*
X210904285Y-88842438D01*
X210904285Y-88842438D02*
X210951904Y-88890057D01*
X210951904Y-88890057D02*
X210999523Y-88985295D01*
X210999523Y-88985295D02*
X210999523Y-89223390D01*
X210999523Y-89223390D02*
X210951904Y-89318628D01*
X210951904Y-89318628D02*
X210904285Y-89366247D01*
X210904285Y-89366247D02*
X210809047Y-89413866D01*
X210809047Y-89413866D02*
X210618571Y-89413866D01*
X210618571Y-89413866D02*
X210523333Y-89366247D01*
X210523333Y-89366247D02*
X210475714Y-89318628D01*
X210475714Y-89318628D02*
X210428095Y-89223390D01*
X183482857Y-124299580D02*
X183530476Y-124347200D01*
X183530476Y-124347200D02*
X183673333Y-124394819D01*
X183673333Y-124394819D02*
X183768571Y-124394819D01*
X183768571Y-124394819D02*
X183911428Y-124347200D01*
X183911428Y-124347200D02*
X184006666Y-124251961D01*
X184006666Y-124251961D02*
X184054285Y-124156723D01*
X184054285Y-124156723D02*
X184101904Y-123966247D01*
X184101904Y-123966247D02*
X184101904Y-123823390D01*
X184101904Y-123823390D02*
X184054285Y-123632914D01*
X184054285Y-123632914D02*
X184006666Y-123537676D01*
X184006666Y-123537676D02*
X183911428Y-123442438D01*
X183911428Y-123442438D02*
X183768571Y-123394819D01*
X183768571Y-123394819D02*
X183673333Y-123394819D01*
X183673333Y-123394819D02*
X183530476Y-123442438D01*
X183530476Y-123442438D02*
X183482857Y-123490057D01*
X182625714Y-123728152D02*
X182625714Y-124394819D01*
X182863809Y-123347200D02*
X183101904Y-124061485D01*
X183101904Y-124061485D02*
X182482857Y-124061485D01*
X181673333Y-123728152D02*
X181673333Y-124394819D01*
X181911428Y-123347200D02*
X182149523Y-124061485D01*
X182149523Y-124061485D02*
X181530476Y-124061485D01*
X215432857Y-84899580D02*
X215480476Y-84947200D01*
X215480476Y-84947200D02*
X215623333Y-84994819D01*
X215623333Y-84994819D02*
X215718571Y-84994819D01*
X215718571Y-84994819D02*
X215861428Y-84947200D01*
X215861428Y-84947200D02*
X215956666Y-84851961D01*
X215956666Y-84851961D02*
X216004285Y-84756723D01*
X216004285Y-84756723D02*
X216051904Y-84566247D01*
X216051904Y-84566247D02*
X216051904Y-84423390D01*
X216051904Y-84423390D02*
X216004285Y-84232914D01*
X216004285Y-84232914D02*
X215956666Y-84137676D01*
X215956666Y-84137676D02*
X215861428Y-84042438D01*
X215861428Y-84042438D02*
X215718571Y-83994819D01*
X215718571Y-83994819D02*
X215623333Y-83994819D01*
X215623333Y-83994819D02*
X215480476Y-84042438D01*
X215480476Y-84042438D02*
X215432857Y-84090057D01*
X215051904Y-84090057D02*
X215004285Y-84042438D01*
X215004285Y-84042438D02*
X214909047Y-83994819D01*
X214909047Y-83994819D02*
X214670952Y-83994819D01*
X214670952Y-83994819D02*
X214575714Y-84042438D01*
X214575714Y-84042438D02*
X214528095Y-84090057D01*
X214528095Y-84090057D02*
X214480476Y-84185295D01*
X214480476Y-84185295D02*
X214480476Y-84280533D01*
X214480476Y-84280533D02*
X214528095Y-84423390D01*
X214528095Y-84423390D02*
X215099523Y-84994819D01*
X215099523Y-84994819D02*
X214480476Y-84994819D01*
X214147142Y-83994819D02*
X213480476Y-83994819D01*
X213480476Y-83994819D02*
X213909047Y-84994819D01*
X170395753Y-98518214D02*
X169395753Y-98518214D01*
X169395753Y-98518214D02*
X169395753Y-98756309D01*
X169395753Y-98756309D02*
X169443372Y-98899166D01*
X169443372Y-98899166D02*
X169538610Y-98994404D01*
X169538610Y-98994404D02*
X169633848Y-99042023D01*
X169633848Y-99042023D02*
X169824324Y-99089642D01*
X169824324Y-99089642D02*
X169967181Y-99089642D01*
X169967181Y-99089642D02*
X170157657Y-99042023D01*
X170157657Y-99042023D02*
X170252895Y-98994404D01*
X170252895Y-98994404D02*
X170348134Y-98899166D01*
X170348134Y-98899166D02*
X170395753Y-98756309D01*
X170395753Y-98756309D02*
X170395753Y-98518214D01*
X170395753Y-100042023D02*
X170395753Y-99470595D01*
X170395753Y-99756309D02*
X169395753Y-99756309D01*
X169395753Y-99756309D02*
X169538610Y-99661071D01*
X169538610Y-99661071D02*
X169633848Y-99565833D01*
X169633848Y-99565833D02*
X169681467Y-99470595D01*
X169395753Y-100661071D02*
X169395753Y-100756309D01*
X169395753Y-100756309D02*
X169443372Y-100851547D01*
X169443372Y-100851547D02*
X169490991Y-100899166D01*
X169490991Y-100899166D02*
X169586229Y-100946785D01*
X169586229Y-100946785D02*
X169776705Y-100994404D01*
X169776705Y-100994404D02*
X170014800Y-100994404D01*
X170014800Y-100994404D02*
X170205276Y-100946785D01*
X170205276Y-100946785D02*
X170300514Y-100899166D01*
X170300514Y-100899166D02*
X170348134Y-100851547D01*
X170348134Y-100851547D02*
X170395753Y-100756309D01*
X170395753Y-100756309D02*
X170395753Y-100661071D01*
X170395753Y-100661071D02*
X170348134Y-100565833D01*
X170348134Y-100565833D02*
X170300514Y-100518214D01*
X170300514Y-100518214D02*
X170205276Y-100470595D01*
X170205276Y-100470595D02*
X170014800Y-100422976D01*
X170014800Y-100422976D02*
X169776705Y-100422976D01*
X169776705Y-100422976D02*
X169586229Y-100470595D01*
X169586229Y-100470595D02*
X169490991Y-100518214D01*
X169490991Y-100518214D02*
X169443372Y-100565833D01*
X169443372Y-100565833D02*
X169395753Y-100661071D01*
X175582857Y-125244819D02*
X175916190Y-124768628D01*
X176154285Y-125244819D02*
X176154285Y-124244819D01*
X176154285Y-124244819D02*
X175773333Y-124244819D01*
X175773333Y-124244819D02*
X175678095Y-124292438D01*
X175678095Y-124292438D02*
X175630476Y-124340057D01*
X175630476Y-124340057D02*
X175582857Y-124435295D01*
X175582857Y-124435295D02*
X175582857Y-124578152D01*
X175582857Y-124578152D02*
X175630476Y-124673390D01*
X175630476Y-124673390D02*
X175678095Y-124721009D01*
X175678095Y-124721009D02*
X175773333Y-124768628D01*
X175773333Y-124768628D02*
X176154285Y-124768628D01*
X175201904Y-124340057D02*
X175154285Y-124292438D01*
X175154285Y-124292438D02*
X175059047Y-124244819D01*
X175059047Y-124244819D02*
X174820952Y-124244819D01*
X174820952Y-124244819D02*
X174725714Y-124292438D01*
X174725714Y-124292438D02*
X174678095Y-124340057D01*
X174678095Y-124340057D02*
X174630476Y-124435295D01*
X174630476Y-124435295D02*
X174630476Y-124530533D01*
X174630476Y-124530533D02*
X174678095Y-124673390D01*
X174678095Y-124673390D02*
X175249523Y-125244819D01*
X175249523Y-125244819D02*
X174630476Y-125244819D01*
X173725714Y-124244819D02*
X174201904Y-124244819D01*
X174201904Y-124244819D02*
X174249523Y-124721009D01*
X174249523Y-124721009D02*
X174201904Y-124673390D01*
X174201904Y-124673390D02*
X174106666Y-124625771D01*
X174106666Y-124625771D02*
X173868571Y-124625771D01*
X173868571Y-124625771D02*
X173773333Y-124673390D01*
X173773333Y-124673390D02*
X173725714Y-124721009D01*
X173725714Y-124721009D02*
X173678095Y-124816247D01*
X173678095Y-124816247D02*
X173678095Y-125054342D01*
X173678095Y-125054342D02*
X173725714Y-125149580D01*
X173725714Y-125149580D02*
X173773333Y-125197200D01*
X173773333Y-125197200D02*
X173868571Y-125244819D01*
X173868571Y-125244819D02*
X174106666Y-125244819D01*
X174106666Y-125244819D02*
X174201904Y-125197200D01*
X174201904Y-125197200D02*
X174249523Y-125149580D01*
X42854285Y-146854819D02*
X42854285Y-145854819D01*
X42854285Y-145854819D02*
X42616190Y-145854819D01*
X42616190Y-145854819D02*
X42473333Y-145902438D01*
X42473333Y-145902438D02*
X42378095Y-145997676D01*
X42378095Y-145997676D02*
X42330476Y-146092914D01*
X42330476Y-146092914D02*
X42282857Y-146283390D01*
X42282857Y-146283390D02*
X42282857Y-146426247D01*
X42282857Y-146426247D02*
X42330476Y-146616723D01*
X42330476Y-146616723D02*
X42378095Y-146711961D01*
X42378095Y-146711961D02*
X42473333Y-146807200D01*
X42473333Y-146807200D02*
X42616190Y-146854819D01*
X42616190Y-146854819D02*
X42854285Y-146854819D01*
X41330476Y-146854819D02*
X41901904Y-146854819D01*
X41616190Y-146854819D02*
X41616190Y-145854819D01*
X41616190Y-145854819D02*
X41711428Y-145997676D01*
X41711428Y-145997676D02*
X41806666Y-146092914D01*
X41806666Y-146092914D02*
X41901904Y-146140533D01*
X40997142Y-145854819D02*
X40378095Y-145854819D01*
X40378095Y-145854819D02*
X40711428Y-146235771D01*
X40711428Y-146235771D02*
X40568571Y-146235771D01*
X40568571Y-146235771D02*
X40473333Y-146283390D01*
X40473333Y-146283390D02*
X40425714Y-146331009D01*
X40425714Y-146331009D02*
X40378095Y-146426247D01*
X40378095Y-146426247D02*
X40378095Y-146664342D01*
X40378095Y-146664342D02*
X40425714Y-146759580D01*
X40425714Y-146759580D02*
X40473333Y-146807200D01*
X40473333Y-146807200D02*
X40568571Y-146854819D01*
X40568571Y-146854819D02*
X40854285Y-146854819D01*
X40854285Y-146854819D02*
X40949523Y-146807200D01*
X40949523Y-146807200D02*
X40997142Y-146759580D01*
X98882857Y-84049580D02*
X98930476Y-84097200D01*
X98930476Y-84097200D02*
X99073333Y-84144819D01*
X99073333Y-84144819D02*
X99168571Y-84144819D01*
X99168571Y-84144819D02*
X99311428Y-84097200D01*
X99311428Y-84097200D02*
X99406666Y-84001961D01*
X99406666Y-84001961D02*
X99454285Y-83906723D01*
X99454285Y-83906723D02*
X99501904Y-83716247D01*
X99501904Y-83716247D02*
X99501904Y-83573390D01*
X99501904Y-83573390D02*
X99454285Y-83382914D01*
X99454285Y-83382914D02*
X99406666Y-83287676D01*
X99406666Y-83287676D02*
X99311428Y-83192438D01*
X99311428Y-83192438D02*
X99168571Y-83144819D01*
X99168571Y-83144819D02*
X99073333Y-83144819D01*
X99073333Y-83144819D02*
X98930476Y-83192438D01*
X98930476Y-83192438D02*
X98882857Y-83240057D01*
X98501904Y-83240057D02*
X98454285Y-83192438D01*
X98454285Y-83192438D02*
X98359047Y-83144819D01*
X98359047Y-83144819D02*
X98120952Y-83144819D01*
X98120952Y-83144819D02*
X98025714Y-83192438D01*
X98025714Y-83192438D02*
X97978095Y-83240057D01*
X97978095Y-83240057D02*
X97930476Y-83335295D01*
X97930476Y-83335295D02*
X97930476Y-83430533D01*
X97930476Y-83430533D02*
X97978095Y-83573390D01*
X97978095Y-83573390D02*
X98549523Y-84144819D01*
X98549523Y-84144819D02*
X97930476Y-84144819D01*
X97073333Y-83478152D02*
X97073333Y-84144819D01*
X97311428Y-83097200D02*
X97549523Y-83811485D01*
X97549523Y-83811485D02*
X96930476Y-83811485D01*
X84682857Y-90299580D02*
X84730476Y-90347200D01*
X84730476Y-90347200D02*
X84873333Y-90394819D01*
X84873333Y-90394819D02*
X84968571Y-90394819D01*
X84968571Y-90394819D02*
X85111428Y-90347200D01*
X85111428Y-90347200D02*
X85206666Y-90251961D01*
X85206666Y-90251961D02*
X85254285Y-90156723D01*
X85254285Y-90156723D02*
X85301904Y-89966247D01*
X85301904Y-89966247D02*
X85301904Y-89823390D01*
X85301904Y-89823390D02*
X85254285Y-89632914D01*
X85254285Y-89632914D02*
X85206666Y-89537676D01*
X85206666Y-89537676D02*
X85111428Y-89442438D01*
X85111428Y-89442438D02*
X84968571Y-89394819D01*
X84968571Y-89394819D02*
X84873333Y-89394819D01*
X84873333Y-89394819D02*
X84730476Y-89442438D01*
X84730476Y-89442438D02*
X84682857Y-89490057D01*
X84301904Y-89490057D02*
X84254285Y-89442438D01*
X84254285Y-89442438D02*
X84159047Y-89394819D01*
X84159047Y-89394819D02*
X83920952Y-89394819D01*
X83920952Y-89394819D02*
X83825714Y-89442438D01*
X83825714Y-89442438D02*
X83778095Y-89490057D01*
X83778095Y-89490057D02*
X83730476Y-89585295D01*
X83730476Y-89585295D02*
X83730476Y-89680533D01*
X83730476Y-89680533D02*
X83778095Y-89823390D01*
X83778095Y-89823390D02*
X84349523Y-90394819D01*
X84349523Y-90394819D02*
X83730476Y-90394819D01*
X82873333Y-89394819D02*
X83063809Y-89394819D01*
X83063809Y-89394819D02*
X83159047Y-89442438D01*
X83159047Y-89442438D02*
X83206666Y-89490057D01*
X83206666Y-89490057D02*
X83301904Y-89632914D01*
X83301904Y-89632914D02*
X83349523Y-89823390D01*
X83349523Y-89823390D02*
X83349523Y-90204342D01*
X83349523Y-90204342D02*
X83301904Y-90299580D01*
X83301904Y-90299580D02*
X83254285Y-90347200D01*
X83254285Y-90347200D02*
X83159047Y-90394819D01*
X83159047Y-90394819D02*
X82968571Y-90394819D01*
X82968571Y-90394819D02*
X82873333Y-90347200D01*
X82873333Y-90347200D02*
X82825714Y-90299580D01*
X82825714Y-90299580D02*
X82778095Y-90204342D01*
X82778095Y-90204342D02*
X82778095Y-89966247D01*
X82778095Y-89966247D02*
X82825714Y-89871009D01*
X82825714Y-89871009D02*
X82873333Y-89823390D01*
X82873333Y-89823390D02*
X82968571Y-89775771D01*
X82968571Y-89775771D02*
X83159047Y-89775771D01*
X83159047Y-89775771D02*
X83254285Y-89823390D01*
X83254285Y-89823390D02*
X83301904Y-89871009D01*
X83301904Y-89871009D02*
X83349523Y-89966247D01*
X221932857Y-90949580D02*
X221980476Y-90997200D01*
X221980476Y-90997200D02*
X222123333Y-91044819D01*
X222123333Y-91044819D02*
X222218571Y-91044819D01*
X222218571Y-91044819D02*
X222361428Y-90997200D01*
X222361428Y-90997200D02*
X222456666Y-90901961D01*
X222456666Y-90901961D02*
X222504285Y-90806723D01*
X222504285Y-90806723D02*
X222551904Y-90616247D01*
X222551904Y-90616247D02*
X222551904Y-90473390D01*
X222551904Y-90473390D02*
X222504285Y-90282914D01*
X222504285Y-90282914D02*
X222456666Y-90187676D01*
X222456666Y-90187676D02*
X222361428Y-90092438D01*
X222361428Y-90092438D02*
X222218571Y-90044819D01*
X222218571Y-90044819D02*
X222123333Y-90044819D01*
X222123333Y-90044819D02*
X221980476Y-90092438D01*
X221980476Y-90092438D02*
X221932857Y-90140057D01*
X221551904Y-90140057D02*
X221504285Y-90092438D01*
X221504285Y-90092438D02*
X221409047Y-90044819D01*
X221409047Y-90044819D02*
X221170952Y-90044819D01*
X221170952Y-90044819D02*
X221075714Y-90092438D01*
X221075714Y-90092438D02*
X221028095Y-90140057D01*
X221028095Y-90140057D02*
X220980476Y-90235295D01*
X220980476Y-90235295D02*
X220980476Y-90330533D01*
X220980476Y-90330533D02*
X221028095Y-90473390D01*
X221028095Y-90473390D02*
X221599523Y-91044819D01*
X221599523Y-91044819D02*
X220980476Y-91044819D01*
X220409047Y-90473390D02*
X220504285Y-90425771D01*
X220504285Y-90425771D02*
X220551904Y-90378152D01*
X220551904Y-90378152D02*
X220599523Y-90282914D01*
X220599523Y-90282914D02*
X220599523Y-90235295D01*
X220599523Y-90235295D02*
X220551904Y-90140057D01*
X220551904Y-90140057D02*
X220504285Y-90092438D01*
X220504285Y-90092438D02*
X220409047Y-90044819D01*
X220409047Y-90044819D02*
X220218571Y-90044819D01*
X220218571Y-90044819D02*
X220123333Y-90092438D01*
X220123333Y-90092438D02*
X220075714Y-90140057D01*
X220075714Y-90140057D02*
X220028095Y-90235295D01*
X220028095Y-90235295D02*
X220028095Y-90282914D01*
X220028095Y-90282914D02*
X220075714Y-90378152D01*
X220075714Y-90378152D02*
X220123333Y-90425771D01*
X220123333Y-90425771D02*
X220218571Y-90473390D01*
X220218571Y-90473390D02*
X220409047Y-90473390D01*
X220409047Y-90473390D02*
X220504285Y-90521009D01*
X220504285Y-90521009D02*
X220551904Y-90568628D01*
X220551904Y-90568628D02*
X220599523Y-90663866D01*
X220599523Y-90663866D02*
X220599523Y-90854342D01*
X220599523Y-90854342D02*
X220551904Y-90949580D01*
X220551904Y-90949580D02*
X220504285Y-90997200D01*
X220504285Y-90997200D02*
X220409047Y-91044819D01*
X220409047Y-91044819D02*
X220218571Y-91044819D01*
X220218571Y-91044819D02*
X220123333Y-90997200D01*
X220123333Y-90997200D02*
X220075714Y-90949580D01*
X220075714Y-90949580D02*
X220028095Y-90854342D01*
X220028095Y-90854342D02*
X220028095Y-90663866D01*
X220028095Y-90663866D02*
X220075714Y-90568628D01*
X220075714Y-90568628D02*
X220123333Y-90521009D01*
X220123333Y-90521009D02*
X220218571Y-90473390D01*
X166044819Y-105225714D02*
X165044819Y-105225714D01*
X165044819Y-105225714D02*
X165044819Y-105463809D01*
X165044819Y-105463809D02*
X165092438Y-105606666D01*
X165092438Y-105606666D02*
X165187676Y-105701904D01*
X165187676Y-105701904D02*
X165282914Y-105749523D01*
X165282914Y-105749523D02*
X165473390Y-105797142D01*
X165473390Y-105797142D02*
X165616247Y-105797142D01*
X165616247Y-105797142D02*
X165806723Y-105749523D01*
X165806723Y-105749523D02*
X165901961Y-105701904D01*
X165901961Y-105701904D02*
X165997200Y-105606666D01*
X165997200Y-105606666D02*
X166044819Y-105463809D01*
X166044819Y-105463809D02*
X166044819Y-105225714D01*
X166044819Y-106749523D02*
X166044819Y-106178095D01*
X166044819Y-106463809D02*
X165044819Y-106463809D01*
X165044819Y-106463809D02*
X165187676Y-106368571D01*
X165187676Y-106368571D02*
X165282914Y-106273333D01*
X165282914Y-106273333D02*
X165330533Y-106178095D01*
X166044819Y-107701904D02*
X166044819Y-107130476D01*
X166044819Y-107416190D02*
X165044819Y-107416190D01*
X165044819Y-107416190D02*
X165187676Y-107320952D01*
X165187676Y-107320952D02*
X165282914Y-107225714D01*
X165282914Y-107225714D02*
X165330533Y-107130476D01*
X77603094Y-106144819D02*
X77603094Y-105144819D01*
X77603094Y-105144819D02*
X77364999Y-105144819D01*
X77364999Y-105144819D02*
X77222142Y-105192438D01*
X77222142Y-105192438D02*
X77126904Y-105287676D01*
X77126904Y-105287676D02*
X77079285Y-105382914D01*
X77079285Y-105382914D02*
X77031666Y-105573390D01*
X77031666Y-105573390D02*
X77031666Y-105716247D01*
X77031666Y-105716247D02*
X77079285Y-105906723D01*
X77079285Y-105906723D02*
X77126904Y-106001961D01*
X77126904Y-106001961D02*
X77222142Y-106097200D01*
X77222142Y-106097200D02*
X77364999Y-106144819D01*
X77364999Y-106144819D02*
X77603094Y-106144819D01*
X76650713Y-105240057D02*
X76603094Y-105192438D01*
X76603094Y-105192438D02*
X76507856Y-105144819D01*
X76507856Y-105144819D02*
X76269761Y-105144819D01*
X76269761Y-105144819D02*
X76174523Y-105192438D01*
X76174523Y-105192438D02*
X76126904Y-105240057D01*
X76126904Y-105240057D02*
X76079285Y-105335295D01*
X76079285Y-105335295D02*
X76079285Y-105430533D01*
X76079285Y-105430533D02*
X76126904Y-105573390D01*
X76126904Y-105573390D02*
X76698332Y-106144819D01*
X76698332Y-106144819D02*
X76079285Y-106144819D01*
X94132857Y-124699580D02*
X94180476Y-124747200D01*
X94180476Y-124747200D02*
X94323333Y-124794819D01*
X94323333Y-124794819D02*
X94418571Y-124794819D01*
X94418571Y-124794819D02*
X94561428Y-124747200D01*
X94561428Y-124747200D02*
X94656666Y-124651961D01*
X94656666Y-124651961D02*
X94704285Y-124556723D01*
X94704285Y-124556723D02*
X94751904Y-124366247D01*
X94751904Y-124366247D02*
X94751904Y-124223390D01*
X94751904Y-124223390D02*
X94704285Y-124032914D01*
X94704285Y-124032914D02*
X94656666Y-123937676D01*
X94656666Y-123937676D02*
X94561428Y-123842438D01*
X94561428Y-123842438D02*
X94418571Y-123794819D01*
X94418571Y-123794819D02*
X94323333Y-123794819D01*
X94323333Y-123794819D02*
X94180476Y-123842438D01*
X94180476Y-123842438D02*
X94132857Y-123890057D01*
X93180476Y-124794819D02*
X93751904Y-124794819D01*
X93466190Y-124794819D02*
X93466190Y-123794819D01*
X93466190Y-123794819D02*
X93561428Y-123937676D01*
X93561428Y-123937676D02*
X93656666Y-124032914D01*
X93656666Y-124032914D02*
X93751904Y-124080533D01*
X92847142Y-123794819D02*
X92180476Y-123794819D01*
X92180476Y-123794819D02*
X92609047Y-124794819D01*
X78228094Y-100994819D02*
X78228094Y-99994819D01*
X78228094Y-99994819D02*
X77989999Y-99994819D01*
X77989999Y-99994819D02*
X77847142Y-100042438D01*
X77847142Y-100042438D02*
X77751904Y-100137676D01*
X77751904Y-100137676D02*
X77704285Y-100232914D01*
X77704285Y-100232914D02*
X77656666Y-100423390D01*
X77656666Y-100423390D02*
X77656666Y-100566247D01*
X77656666Y-100566247D02*
X77704285Y-100756723D01*
X77704285Y-100756723D02*
X77751904Y-100851961D01*
X77751904Y-100851961D02*
X77847142Y-100947200D01*
X77847142Y-100947200D02*
X77989999Y-100994819D01*
X77989999Y-100994819D02*
X78228094Y-100994819D01*
X76704285Y-100994819D02*
X77275713Y-100994819D01*
X76989999Y-100994819D02*
X76989999Y-99994819D01*
X76989999Y-99994819D02*
X77085237Y-100137676D01*
X77085237Y-100137676D02*
X77180475Y-100232914D01*
X77180475Y-100232914D02*
X77275713Y-100280533D01*
X126382857Y-124599580D02*
X126430476Y-124647200D01*
X126430476Y-124647200D02*
X126573333Y-124694819D01*
X126573333Y-124694819D02*
X126668571Y-124694819D01*
X126668571Y-124694819D02*
X126811428Y-124647200D01*
X126811428Y-124647200D02*
X126906666Y-124551961D01*
X126906666Y-124551961D02*
X126954285Y-124456723D01*
X126954285Y-124456723D02*
X127001904Y-124266247D01*
X127001904Y-124266247D02*
X127001904Y-124123390D01*
X127001904Y-124123390D02*
X126954285Y-123932914D01*
X126954285Y-123932914D02*
X126906666Y-123837676D01*
X126906666Y-123837676D02*
X126811428Y-123742438D01*
X126811428Y-123742438D02*
X126668571Y-123694819D01*
X126668571Y-123694819D02*
X126573333Y-123694819D01*
X126573333Y-123694819D02*
X126430476Y-123742438D01*
X126430476Y-123742438D02*
X126382857Y-123790057D01*
X125430476Y-124694819D02*
X126001904Y-124694819D01*
X125716190Y-124694819D02*
X125716190Y-123694819D01*
X125716190Y-123694819D02*
X125811428Y-123837676D01*
X125811428Y-123837676D02*
X125906666Y-123932914D01*
X125906666Y-123932914D02*
X126001904Y-123980533D01*
X124859047Y-124123390D02*
X124954285Y-124075771D01*
X124954285Y-124075771D02*
X125001904Y-124028152D01*
X125001904Y-124028152D02*
X125049523Y-123932914D01*
X125049523Y-123932914D02*
X125049523Y-123885295D01*
X125049523Y-123885295D02*
X125001904Y-123790057D01*
X125001904Y-123790057D02*
X124954285Y-123742438D01*
X124954285Y-123742438D02*
X124859047Y-123694819D01*
X124859047Y-123694819D02*
X124668571Y-123694819D01*
X124668571Y-123694819D02*
X124573333Y-123742438D01*
X124573333Y-123742438D02*
X124525714Y-123790057D01*
X124525714Y-123790057D02*
X124478095Y-123885295D01*
X124478095Y-123885295D02*
X124478095Y-123932914D01*
X124478095Y-123932914D02*
X124525714Y-124028152D01*
X124525714Y-124028152D02*
X124573333Y-124075771D01*
X124573333Y-124075771D02*
X124668571Y-124123390D01*
X124668571Y-124123390D02*
X124859047Y-124123390D01*
X124859047Y-124123390D02*
X124954285Y-124171009D01*
X124954285Y-124171009D02*
X125001904Y-124218628D01*
X125001904Y-124218628D02*
X125049523Y-124313866D01*
X125049523Y-124313866D02*
X125049523Y-124504342D01*
X125049523Y-124504342D02*
X125001904Y-124599580D01*
X125001904Y-124599580D02*
X124954285Y-124647200D01*
X124954285Y-124647200D02*
X124859047Y-124694819D01*
X124859047Y-124694819D02*
X124668571Y-124694819D01*
X124668571Y-124694819D02*
X124573333Y-124647200D01*
X124573333Y-124647200D02*
X124525714Y-124599580D01*
X124525714Y-124599580D02*
X124478095Y-124504342D01*
X124478095Y-124504342D02*
X124478095Y-124313866D01*
X124478095Y-124313866D02*
X124525714Y-124218628D01*
X124525714Y-124218628D02*
X124573333Y-124171009D01*
X124573333Y-124171009D02*
X124668571Y-124123390D01*
X199432857Y-122244819D02*
X199766190Y-121768628D01*
X200004285Y-122244819D02*
X200004285Y-121244819D01*
X200004285Y-121244819D02*
X199623333Y-121244819D01*
X199623333Y-121244819D02*
X199528095Y-121292438D01*
X199528095Y-121292438D02*
X199480476Y-121340057D01*
X199480476Y-121340057D02*
X199432857Y-121435295D01*
X199432857Y-121435295D02*
X199432857Y-121578152D01*
X199432857Y-121578152D02*
X199480476Y-121673390D01*
X199480476Y-121673390D02*
X199528095Y-121721009D01*
X199528095Y-121721009D02*
X199623333Y-121768628D01*
X199623333Y-121768628D02*
X200004285Y-121768628D01*
X199051904Y-121340057D02*
X199004285Y-121292438D01*
X199004285Y-121292438D02*
X198909047Y-121244819D01*
X198909047Y-121244819D02*
X198670952Y-121244819D01*
X198670952Y-121244819D02*
X198575714Y-121292438D01*
X198575714Y-121292438D02*
X198528095Y-121340057D01*
X198528095Y-121340057D02*
X198480476Y-121435295D01*
X198480476Y-121435295D02*
X198480476Y-121530533D01*
X198480476Y-121530533D02*
X198528095Y-121673390D01*
X198528095Y-121673390D02*
X199099523Y-122244819D01*
X199099523Y-122244819D02*
X198480476Y-122244819D01*
X197623333Y-121578152D02*
X197623333Y-122244819D01*
X197861428Y-121197200D02*
X198099523Y-121911485D01*
X198099523Y-121911485D02*
X197480476Y-121911485D01*
X101149580Y-89247142D02*
X101197200Y-89199523D01*
X101197200Y-89199523D02*
X101244819Y-89056666D01*
X101244819Y-89056666D02*
X101244819Y-88961428D01*
X101244819Y-88961428D02*
X101197200Y-88818571D01*
X101197200Y-88818571D02*
X101101961Y-88723333D01*
X101101961Y-88723333D02*
X101006723Y-88675714D01*
X101006723Y-88675714D02*
X100816247Y-88628095D01*
X100816247Y-88628095D02*
X100673390Y-88628095D01*
X100673390Y-88628095D02*
X100482914Y-88675714D01*
X100482914Y-88675714D02*
X100387676Y-88723333D01*
X100387676Y-88723333D02*
X100292438Y-88818571D01*
X100292438Y-88818571D02*
X100244819Y-88961428D01*
X100244819Y-88961428D02*
X100244819Y-89056666D01*
X100244819Y-89056666D02*
X100292438Y-89199523D01*
X100292438Y-89199523D02*
X100340057Y-89247142D01*
X100340057Y-89628095D02*
X100292438Y-89675714D01*
X100292438Y-89675714D02*
X100244819Y-89770952D01*
X100244819Y-89770952D02*
X100244819Y-90009047D01*
X100244819Y-90009047D02*
X100292438Y-90104285D01*
X100292438Y-90104285D02*
X100340057Y-90151904D01*
X100340057Y-90151904D02*
X100435295Y-90199523D01*
X100435295Y-90199523D02*
X100530533Y-90199523D01*
X100530533Y-90199523D02*
X100673390Y-90151904D01*
X100673390Y-90151904D02*
X101244819Y-89580476D01*
X101244819Y-89580476D02*
X101244819Y-90199523D01*
X100244819Y-91104285D02*
X100244819Y-90628095D01*
X100244819Y-90628095D02*
X100721009Y-90580476D01*
X100721009Y-90580476D02*
X100673390Y-90628095D01*
X100673390Y-90628095D02*
X100625771Y-90723333D01*
X100625771Y-90723333D02*
X100625771Y-90961428D01*
X100625771Y-90961428D02*
X100673390Y-91056666D01*
X100673390Y-91056666D02*
X100721009Y-91104285D01*
X100721009Y-91104285D02*
X100816247Y-91151904D01*
X100816247Y-91151904D02*
X101054342Y-91151904D01*
X101054342Y-91151904D02*
X101149580Y-91104285D01*
X101149580Y-91104285D02*
X101197200Y-91056666D01*
X101197200Y-91056666D02*
X101244819Y-90961428D01*
X101244819Y-90961428D02*
X101244819Y-90723333D01*
X101244819Y-90723333D02*
X101197200Y-90628095D01*
X101197200Y-90628095D02*
X101149580Y-90580476D01*
D11*
X215592119Y-120423968D02*
X214169615Y-120423968D01*
X215592119Y-122243968D02*
X214169615Y-122243968D01*
X213301734Y-102240000D02*
X213301734Y-98230000D01*
X215301734Y-98230000D02*
X213301734Y-98230000D01*
X215301734Y-102240000D02*
X215301734Y-98230000D01*
X123940000Y-102240000D02*
X123940000Y-98230000D01*
X125940000Y-98230000D02*
X123940000Y-98230000D01*
X125940000Y-102240000D02*
X125940000Y-98230000D01*
X84120400Y-120129200D02*
X86520400Y-120129200D01*
X84120400Y-122529200D02*
X86520400Y-122529200D01*
X215380000Y-90487502D02*
X215380000Y-89964998D01*
X216800000Y-90487502D02*
X216800000Y-89964998D01*
X95850000Y-90493752D02*
X95850000Y-89971248D01*
X97270000Y-90493752D02*
X97270000Y-89971248D01*
X116214200Y-120129200D02*
X118614200Y-120129200D01*
X116214200Y-122529200D02*
X118614200Y-122529200D01*
X247740000Y-114390000D02*
X251750000Y-114390000D01*
X247740000Y-116390000D02*
X251750000Y-116390000D01*
X251750000Y-116390000D02*
X251750000Y-114390000D01*
X208251252Y-90005000D02*
X207728748Y-90005000D01*
X208251252Y-91475000D02*
X207728748Y-91475000D01*
X183481252Y-120419000D02*
X182058748Y-120419000D01*
X183481252Y-122239000D02*
X182058748Y-122239000D01*
X217381252Y-86491250D02*
X216858748Y-86491250D01*
X217381252Y-87961250D02*
X216858748Y-87961250D01*
X166690000Y-101290000D02*
X166690000Y-97280000D01*
X168690000Y-97280000D02*
X166690000Y-97280000D01*
X168690000Y-101290000D02*
X168690000Y-97280000D01*
X173489000Y-120129000D02*
X175889000Y-120129000D01*
X173489000Y-122529000D02*
X175889000Y-122529000D01*
X39280000Y-143400000D02*
X39280000Y-145400000D01*
X43290000Y-143400000D02*
X39280000Y-143400000D01*
X43290000Y-145400000D02*
X39280000Y-145400000D01*
X97851252Y-86467500D02*
X97328748Y-86467500D01*
X97851252Y-87937500D02*
X97328748Y-87937500D01*
X88820002Y-90005000D02*
X88297498Y-90005000D01*
X88820002Y-91475000D02*
X88297498Y-91475000D01*
X217435000Y-89964998D02*
X217435000Y-90487502D01*
X218905000Y-89964998D02*
X218905000Y-90487502D01*
X166640000Y-108090000D02*
X166640000Y-104080000D01*
X168640000Y-104080000D02*
X166640000Y-104080000D01*
X168640000Y-108090000D02*
X168640000Y-104080000D01*
X78890000Y-108103600D02*
X78890000Y-104093600D01*
X80890000Y-104093600D02*
X78890000Y-104093600D01*
X80890000Y-108103600D02*
X80890000Y-104093600D01*
X94112652Y-120419200D02*
X92690148Y-120419200D01*
X94112652Y-122239200D02*
X92690148Y-122239200D01*
X78917000Y-100534400D02*
X78917000Y-96524400D01*
X80917000Y-96524400D02*
X78917000Y-96524400D01*
X80917000Y-100534400D02*
X80917000Y-96524400D01*
X126206452Y-120419200D02*
X124783948Y-120419200D01*
X126206452Y-122239200D02*
X124783948Y-122239200D01*
X205599867Y-120133968D02*
X207999867Y-120133968D01*
X205599867Y-122533968D02*
X207999867Y-122533968D01*
X97905000Y-89941248D02*
X97905000Y-90463752D01*
X99375000Y-89941248D02*
X99375000Y-90463752D01*
%LPC*%
D12*
X204165000Y-56840000D03*
D13*
X206705000Y-56840000D03*
X209245000Y-56840000D03*
D14*
X114215200Y-115874200D03*
D15*
X116755200Y-115874200D03*
X119295200Y-115874200D03*
D16*
X216040000Y-149306660D03*
D17*
X216040000Y-156806660D03*
D12*
X130890000Y-106540000D03*
D16*
X66290000Y-149306660D03*
D17*
X66290000Y-156806660D03*
D18*
X20290000Y-128740000D03*
D17*
X202790000Y-154390000D03*
X202790000Y-144290000D03*
X202790000Y-134090000D03*
X180290000Y-144290000D03*
X175290000Y-144290000D03*
X165290000Y-154390000D03*
X165290000Y-144290000D03*
X165290000Y-134090000D03*
D12*
X26515000Y-47040000D03*
D13*
X29055000Y-47040000D03*
D18*
X20290000Y-83740000D03*
D12*
X194870134Y-94679968D03*
D19*
X265040000Y-48990000D03*
D12*
X188175000Y-102884300D03*
D20*
X218151734Y-93386025D03*
D21*
X215611734Y-93386025D03*
X210531734Y-93386025D03*
X205451734Y-93386025D03*
D22*
X42040000Y-105550000D03*
X39500000Y-105550000D03*
D12*
X105508400Y-98280643D03*
D18*
X20290000Y-148740000D03*
D23*
X258150000Y-128090000D03*
X240370000Y-138250000D03*
X240370000Y-130630000D03*
G36*
G01*
X254840000Y-116390000D02*
X253840000Y-116390000D01*
G75*
G02*
X253340000Y-115890000I0J500000D01*
G01*
X253340000Y-114890000D01*
G75*
G02*
X253840000Y-114390000I500000J0D01*
G01*
X254840000Y-114390000D01*
G75*
G02*
X255340000Y-114890000I0J-500000D01*
G01*
X255340000Y-115890000D01*
G75*
G02*
X254840000Y-116390000I-500000J0D01*
G01*
G37*
D24*
X244180000Y-115390000D03*
D16*
X66290000Y-137490000D03*
D17*
X66290000Y-129990000D03*
D12*
X160579000Y-102740000D03*
D22*
X207940000Y-53140000D03*
X205400000Y-53140000D03*
D19*
X262290000Y-157740000D03*
D18*
X272540000Y-103740000D03*
D12*
X220251734Y-102886025D03*
D23*
X125615200Y-114429200D03*
X107815200Y-114429200D03*
D12*
X98815000Y-106506700D03*
D19*
X27290000Y-157740000D03*
D18*
X20290000Y-103740000D03*
D12*
X105508400Y-94678243D03*
X160579000Y-106362400D03*
X114010000Y-51480000D03*
D13*
X114010000Y-48940000D03*
X116550000Y-51480000D03*
X116550000Y-48940000D03*
X119090000Y-51480000D03*
X119090000Y-48940000D03*
X121630000Y-51480000D03*
X121630000Y-48940000D03*
X124170000Y-51480000D03*
X124170000Y-48940000D03*
X126710000Y-51480000D03*
X126710000Y-48940000D03*
X129250000Y-51480000D03*
X129250000Y-48940000D03*
X131790000Y-51480000D03*
X131790000Y-48940000D03*
D12*
X130890000Y-102884300D03*
D14*
X275557291Y-70525000D03*
D15*
X273017291Y-70525000D03*
X270477291Y-70525000D03*
D16*
X216040000Y-137490000D03*
D17*
X216040000Y-129990000D03*
D18*
X272540000Y-148740000D03*
D14*
X171490000Y-115874000D03*
D15*
X174030000Y-115874000D03*
X176570000Y-115874000D03*
D12*
X72879400Y-106362400D03*
X194870134Y-98282368D03*
D18*
X272540000Y-128740000D03*
D12*
X72879400Y-102740000D03*
D19*
X98040000Y-66490000D03*
D12*
X98815000Y-102884300D03*
X220251734Y-106508425D03*
X188175000Y-106506700D03*
D22*
X275832300Y-51970000D03*
X273292300Y-51970000D03*
D23*
X75719200Y-114429200D03*
X93519200Y-114429200D03*
D14*
X203600867Y-115878968D03*
D15*
X206140867Y-115878968D03*
X208680867Y-115878968D03*
D23*
X32790000Y-131700000D03*
X50570000Y-121540000D03*
X50570000Y-129160000D03*
G36*
G01*
X36100000Y-143400000D02*
X37100000Y-143400000D01*
G75*
G02*
X37600000Y-143900000I0J-500000D01*
G01*
X37600000Y-144900000D01*
G75*
G02*
X37100000Y-145400000I-500000J0D01*
G01*
X36100000Y-145400000D01*
G75*
G02*
X35600000Y-144900000I0J500000D01*
G01*
X35600000Y-143900000D01*
G75*
G02*
X36100000Y-143400000I500000J0D01*
G01*
G37*
D24*
X46760000Y-144400000D03*
D20*
X98633750Y-93386057D03*
D21*
X96093750Y-93386057D03*
X91013750Y-93386057D03*
X85933750Y-93386057D03*
D14*
X82119200Y-115874200D03*
D15*
X84659200Y-115874200D03*
X87199200Y-115874200D03*
D18*
X272540000Y-83740000D03*
D19*
X136290000Y-157740000D03*
X210790000Y-66490000D03*
X17290000Y-48990000D03*
D17*
X79040000Y-134090000D03*
X79040000Y-144190000D03*
X79040000Y-154390000D03*
X101540000Y-144190000D03*
X106540000Y-144190000D03*
X116540000Y-134090000D03*
X116540000Y-144190000D03*
X116540000Y-154390000D03*
D23*
X165090000Y-114429000D03*
X182890000Y-114429000D03*
X197200867Y-114433968D03*
X215000867Y-114433968D03*
D12*
X20290000Y-118780000D03*
D13*
X20290000Y-116240000D03*
X20290000Y-113700000D03*
D12*
X161790000Y-51480000D03*
D13*
X161790000Y-48940000D03*
X164330000Y-51480000D03*
X164330000Y-48940000D03*
X166870000Y-51480000D03*
X166870000Y-48940000D03*
X169410000Y-51480000D03*
X169410000Y-48940000D03*
X171950000Y-51480000D03*
X171950000Y-48940000D03*
X174490000Y-51480000D03*
X174490000Y-48940000D03*
X177030000Y-51480000D03*
X177030000Y-48940000D03*
X179570000Y-51480000D03*
X179570000Y-48940000D03*
G36*
G01*
X212655867Y-121983968D02*
X212655867Y-120683968D01*
G75*
G02*
X212905867Y-120433968I250000J0D01*
G01*
X213730867Y-120433968D01*
G75*
G02*
X213980867Y-120683968I0J-250000D01*
G01*
X213980867Y-121983968D01*
G75*
G02*
X213730867Y-122233968I-250000J0D01*
G01*
X212905867Y-122233968D01*
G75*
G02*
X212655867Y-121983968I0J250000D01*
G01*
G37*
G36*
G01*
X215780867Y-121983968D02*
X215780867Y-120683968D01*
G75*
G02*
X216030867Y-120433968I250000J0D01*
G01*
X216855867Y-120433968D01*
G75*
G02*
X217105867Y-120683968I0J-250000D01*
G01*
X217105867Y-121983968D01*
G75*
G02*
X216855867Y-122233968I-250000J0D01*
G01*
X216030867Y-122233968D01*
G75*
G02*
X215780867Y-121983968I0J250000D01*
G01*
G37*
G36*
G01*
X213926734Y-98490000D02*
X214676734Y-98490000D01*
G75*
G02*
X214901734Y-98715000I0J-225000D01*
G01*
X214901734Y-99165000D01*
G75*
G02*
X214676734Y-99390000I-225000J0D01*
G01*
X213926734Y-99390000D01*
G75*
G02*
X213701734Y-99165000I0J225000D01*
G01*
X213701734Y-98715000D01*
G75*
G02*
X213926734Y-98490000I225000J0D01*
G01*
G37*
G36*
G01*
X213926734Y-101790000D02*
X214676734Y-101790000D01*
G75*
G02*
X214901734Y-102015000I0J-225000D01*
G01*
X214901734Y-102465000D01*
G75*
G02*
X214676734Y-102690000I-225000J0D01*
G01*
X213926734Y-102690000D01*
G75*
G02*
X213701734Y-102465000I0J225000D01*
G01*
X213701734Y-102015000D01*
G75*
G02*
X213926734Y-101790000I225000J0D01*
G01*
G37*
G36*
G01*
X124565000Y-98490000D02*
X125315000Y-98490000D01*
G75*
G02*
X125540000Y-98715000I0J-225000D01*
G01*
X125540000Y-99165000D01*
G75*
G02*
X125315000Y-99390000I-225000J0D01*
G01*
X124565000Y-99390000D01*
G75*
G02*
X124340000Y-99165000I0J225000D01*
G01*
X124340000Y-98715000D01*
G75*
G02*
X124565000Y-98490000I225000J0D01*
G01*
G37*
G36*
G01*
X124565000Y-101790000D02*
X125315000Y-101790000D01*
G75*
G02*
X125540000Y-102015000I0J-225000D01*
G01*
X125540000Y-102465000D01*
G75*
G02*
X125315000Y-102690000I-225000J0D01*
G01*
X124565000Y-102690000D01*
G75*
G02*
X124340000Y-102465000I0J225000D01*
G01*
X124340000Y-102015000D01*
G75*
G02*
X124565000Y-101790000I225000J0D01*
G01*
G37*
D25*
X82461400Y-121329200D03*
X88179400Y-121329200D03*
G36*
G01*
X215640000Y-88626250D02*
X216540000Y-88626250D01*
G75*
G02*
X216790000Y-88876250I0J-250000D01*
G01*
X216790000Y-89526250D01*
G75*
G02*
X216540000Y-89776250I-250000J0D01*
G01*
X215640000Y-89776250D01*
G75*
G02*
X215390000Y-89526250I0J250000D01*
G01*
X215390000Y-88876250D01*
G75*
G02*
X215640000Y-88626250I250000J0D01*
G01*
G37*
G36*
G01*
X215640000Y-90676250D02*
X216540000Y-90676250D01*
G75*
G02*
X216790000Y-90926250I0J-250000D01*
G01*
X216790000Y-91576250D01*
G75*
G02*
X216540000Y-91826250I-250000J0D01*
G01*
X215640000Y-91826250D01*
G75*
G02*
X215390000Y-91576250I0J250000D01*
G01*
X215390000Y-90926250D01*
G75*
G02*
X215640000Y-90676250I250000J0D01*
G01*
G37*
G36*
G01*
X96110000Y-88632500D02*
X97010000Y-88632500D01*
G75*
G02*
X97260000Y-88882500I0J-250000D01*
G01*
X97260000Y-89532500D01*
G75*
G02*
X97010000Y-89782500I-250000J0D01*
G01*
X96110000Y-89782500D01*
G75*
G02*
X95860000Y-89532500I0J250000D01*
G01*
X95860000Y-88882500D01*
G75*
G02*
X96110000Y-88632500I250000J0D01*
G01*
G37*
G36*
G01*
X96110000Y-90682500D02*
X97010000Y-90682500D01*
G75*
G02*
X97260000Y-90932500I0J-250000D01*
G01*
X97260000Y-91582500D01*
G75*
G02*
X97010000Y-91832500I-250000J0D01*
G01*
X96110000Y-91832500D01*
G75*
G02*
X95860000Y-91582500I0J250000D01*
G01*
X95860000Y-90932500D01*
G75*
G02*
X96110000Y-90682500I250000J0D01*
G01*
G37*
X114555200Y-121329200D03*
X120273200Y-121329200D03*
G36*
G01*
X251490000Y-115015000D02*
X251490000Y-115765000D01*
G75*
G02*
X251265000Y-115990000I-225000J0D01*
G01*
X250815000Y-115990000D01*
G75*
G02*
X250590000Y-115765000I0J225000D01*
G01*
X250590000Y-115015000D01*
G75*
G02*
X250815000Y-114790000I225000J0D01*
G01*
X251265000Y-114790000D01*
G75*
G02*
X251490000Y-115015000I0J-225000D01*
G01*
G37*
G36*
G01*
X248190000Y-115015000D02*
X248190000Y-115765000D01*
G75*
G02*
X247965000Y-115990000I-225000J0D01*
G01*
X247515000Y-115990000D01*
G75*
G02*
X247290000Y-115765000I0J225000D01*
G01*
X247290000Y-115015000D01*
G75*
G02*
X247515000Y-114790000I225000J0D01*
G01*
X247965000Y-114790000D01*
G75*
G02*
X248190000Y-115015000I0J-225000D01*
G01*
G37*
G36*
G01*
X206365000Y-91215000D02*
X206365000Y-90265000D01*
G75*
G02*
X206615000Y-90015000I250000J0D01*
G01*
X207290000Y-90015000D01*
G75*
G02*
X207540000Y-90265000I0J-250000D01*
G01*
X207540000Y-91215000D01*
G75*
G02*
X207290000Y-91465000I-250000J0D01*
G01*
X206615000Y-91465000D01*
G75*
G02*
X206365000Y-91215000I0J250000D01*
G01*
G37*
G36*
G01*
X208440000Y-91215000D02*
X208440000Y-90265000D01*
G75*
G02*
X208690000Y-90015000I250000J0D01*
G01*
X209365000Y-90015000D01*
G75*
G02*
X209615000Y-90265000I0J-250000D01*
G01*
X209615000Y-91215000D01*
G75*
G02*
X209365000Y-91465000I-250000J0D01*
G01*
X208690000Y-91465000D01*
G75*
G02*
X208440000Y-91215000I0J250000D01*
G01*
G37*
G36*
G01*
X180545000Y-121979000D02*
X180545000Y-120679000D01*
G75*
G02*
X180795000Y-120429000I250000J0D01*
G01*
X181620000Y-120429000D01*
G75*
G02*
X181870000Y-120679000I0J-250000D01*
G01*
X181870000Y-121979000D01*
G75*
G02*
X181620000Y-122229000I-250000J0D01*
G01*
X180795000Y-122229000D01*
G75*
G02*
X180545000Y-121979000I0J250000D01*
G01*
G37*
G36*
G01*
X183670000Y-121979000D02*
X183670000Y-120679000D01*
G75*
G02*
X183920000Y-120429000I250000J0D01*
G01*
X184745000Y-120429000D01*
G75*
G02*
X184995000Y-120679000I0J-250000D01*
G01*
X184995000Y-121979000D01*
G75*
G02*
X184745000Y-122229000I-250000J0D01*
G01*
X183920000Y-122229000D01*
G75*
G02*
X183670000Y-121979000I0J250000D01*
G01*
G37*
G36*
G01*
X215495000Y-87701250D02*
X215495000Y-86751250D01*
G75*
G02*
X215745000Y-86501250I250000J0D01*
G01*
X216420000Y-86501250D01*
G75*
G02*
X216670000Y-86751250I0J-250000D01*
G01*
X216670000Y-87701250D01*
G75*
G02*
X216420000Y-87951250I-250000J0D01*
G01*
X215745000Y-87951250D01*
G75*
G02*
X215495000Y-87701250I0J250000D01*
G01*
G37*
G36*
G01*
X217570000Y-87701250D02*
X217570000Y-86751250D01*
G75*
G02*
X217820000Y-86501250I250000J0D01*
G01*
X218495000Y-86501250D01*
G75*
G02*
X218745000Y-86751250I0J-250000D01*
G01*
X218745000Y-87701250D01*
G75*
G02*
X218495000Y-87951250I-250000J0D01*
G01*
X217820000Y-87951250D01*
G75*
G02*
X217570000Y-87701250I0J250000D01*
G01*
G37*
G36*
G01*
X167315000Y-97540000D02*
X168065000Y-97540000D01*
G75*
G02*
X168290000Y-97765000I0J-225000D01*
G01*
X168290000Y-98215000D01*
G75*
G02*
X168065000Y-98440000I-225000J0D01*
G01*
X167315000Y-98440000D01*
G75*
G02*
X167090000Y-98215000I0J225000D01*
G01*
X167090000Y-97765000D01*
G75*
G02*
X167315000Y-97540000I225000J0D01*
G01*
G37*
G36*
G01*
X167315000Y-100840000D02*
X168065000Y-100840000D01*
G75*
G02*
X168290000Y-101065000I0J-225000D01*
G01*
X168290000Y-101515000D01*
G75*
G02*
X168065000Y-101740000I-225000J0D01*
G01*
X167315000Y-101740000D01*
G75*
G02*
X167090000Y-101515000I0J225000D01*
G01*
X167090000Y-101065000D01*
G75*
G02*
X167315000Y-100840000I225000J0D01*
G01*
G37*
X171830000Y-121329000D03*
X177548000Y-121329000D03*
G36*
G01*
X39540000Y-144775000D02*
X39540000Y-144025000D01*
G75*
G02*
X39765000Y-143800000I225000J0D01*
G01*
X40215000Y-143800000D01*
G75*
G02*
X40440000Y-144025000I0J-225000D01*
G01*
X40440000Y-144775000D01*
G75*
G02*
X40215000Y-145000000I-225000J0D01*
G01*
X39765000Y-145000000D01*
G75*
G02*
X39540000Y-144775000I0J225000D01*
G01*
G37*
G36*
G01*
X42840000Y-144775000D02*
X42840000Y-144025000D01*
G75*
G02*
X43065000Y-143800000I225000J0D01*
G01*
X43515000Y-143800000D01*
G75*
G02*
X43740000Y-144025000I0J-225000D01*
G01*
X43740000Y-144775000D01*
G75*
G02*
X43515000Y-145000000I-225000J0D01*
G01*
X43065000Y-145000000D01*
G75*
G02*
X42840000Y-144775000I0J225000D01*
G01*
G37*
G36*
G01*
X95965000Y-87677500D02*
X95965000Y-86727500D01*
G75*
G02*
X96215000Y-86477500I250000J0D01*
G01*
X96890000Y-86477500D01*
G75*
G02*
X97140000Y-86727500I0J-250000D01*
G01*
X97140000Y-87677500D01*
G75*
G02*
X96890000Y-87927500I-250000J0D01*
G01*
X96215000Y-87927500D01*
G75*
G02*
X95965000Y-87677500I0J250000D01*
G01*
G37*
G36*
G01*
X98040000Y-87677500D02*
X98040000Y-86727500D01*
G75*
G02*
X98290000Y-86477500I250000J0D01*
G01*
X98965000Y-86477500D01*
G75*
G02*
X99215000Y-86727500I0J-250000D01*
G01*
X99215000Y-87677500D01*
G75*
G02*
X98965000Y-87927500I-250000J0D01*
G01*
X98290000Y-87927500D01*
G75*
G02*
X98040000Y-87677500I0J250000D01*
G01*
G37*
G36*
G01*
X86933750Y-91215000D02*
X86933750Y-90265000D01*
G75*
G02*
X87183750Y-90015000I250000J0D01*
G01*
X87858750Y-90015000D01*
G75*
G02*
X88108750Y-90265000I0J-250000D01*
G01*
X88108750Y-91215000D01*
G75*
G02*
X87858750Y-91465000I-250000J0D01*
G01*
X87183750Y-91465000D01*
G75*
G02*
X86933750Y-91215000I0J250000D01*
G01*
G37*
G36*
G01*
X89008750Y-91215000D02*
X89008750Y-90265000D01*
G75*
G02*
X89258750Y-90015000I250000J0D01*
G01*
X89933750Y-90015000D01*
G75*
G02*
X90183750Y-90265000I0J-250000D01*
G01*
X90183750Y-91215000D01*
G75*
G02*
X89933750Y-91465000I-250000J0D01*
G01*
X89258750Y-91465000D01*
G75*
G02*
X89008750Y-91215000I0J250000D01*
G01*
G37*
G36*
G01*
X218645000Y-91851250D02*
X217695000Y-91851250D01*
G75*
G02*
X217445000Y-91601250I0J250000D01*
G01*
X217445000Y-90926250D01*
G75*
G02*
X217695000Y-90676250I250000J0D01*
G01*
X218645000Y-90676250D01*
G75*
G02*
X218895000Y-90926250I0J-250000D01*
G01*
X218895000Y-91601250D01*
G75*
G02*
X218645000Y-91851250I-250000J0D01*
G01*
G37*
G36*
G01*
X218645000Y-89776250D02*
X217695000Y-89776250D01*
G75*
G02*
X217445000Y-89526250I0J250000D01*
G01*
X217445000Y-88851250D01*
G75*
G02*
X217695000Y-88601250I250000J0D01*
G01*
X218645000Y-88601250D01*
G75*
G02*
X218895000Y-88851250I0J-250000D01*
G01*
X218895000Y-89526250D01*
G75*
G02*
X218645000Y-89776250I-250000J0D01*
G01*
G37*
G36*
G01*
X167265000Y-104340000D02*
X168015000Y-104340000D01*
G75*
G02*
X168240000Y-104565000I0J-225000D01*
G01*
X168240000Y-105015000D01*
G75*
G02*
X168015000Y-105240000I-225000J0D01*
G01*
X167265000Y-105240000D01*
G75*
G02*
X167040000Y-105015000I0J225000D01*
G01*
X167040000Y-104565000D01*
G75*
G02*
X167265000Y-104340000I225000J0D01*
G01*
G37*
G36*
G01*
X167265000Y-107640000D02*
X168015000Y-107640000D01*
G75*
G02*
X168240000Y-107865000I0J-225000D01*
G01*
X168240000Y-108315000D01*
G75*
G02*
X168015000Y-108540000I-225000J0D01*
G01*
X167265000Y-108540000D01*
G75*
G02*
X167040000Y-108315000I0J225000D01*
G01*
X167040000Y-107865000D01*
G75*
G02*
X167265000Y-107640000I225000J0D01*
G01*
G37*
G36*
G01*
X79515000Y-104353600D02*
X80265000Y-104353600D01*
G75*
G02*
X80490000Y-104578600I0J-225000D01*
G01*
X80490000Y-105028600D01*
G75*
G02*
X80265000Y-105253600I-225000J0D01*
G01*
X79515000Y-105253600D01*
G75*
G02*
X79290000Y-105028600I0J225000D01*
G01*
X79290000Y-104578600D01*
G75*
G02*
X79515000Y-104353600I225000J0D01*
G01*
G37*
G36*
G01*
X79515000Y-107653600D02*
X80265000Y-107653600D01*
G75*
G02*
X80490000Y-107878600I0J-225000D01*
G01*
X80490000Y-108328600D01*
G75*
G02*
X80265000Y-108553600I-225000J0D01*
G01*
X79515000Y-108553600D01*
G75*
G02*
X79290000Y-108328600I0J225000D01*
G01*
X79290000Y-107878600D01*
G75*
G02*
X79515000Y-107653600I225000J0D01*
G01*
G37*
G36*
G01*
X91176400Y-121979200D02*
X91176400Y-120679200D01*
G75*
G02*
X91426400Y-120429200I250000J0D01*
G01*
X92251400Y-120429200D01*
G75*
G02*
X92501400Y-120679200I0J-250000D01*
G01*
X92501400Y-121979200D01*
G75*
G02*
X92251400Y-122229200I-250000J0D01*
G01*
X91426400Y-122229200D01*
G75*
G02*
X91176400Y-121979200I0J250000D01*
G01*
G37*
G36*
G01*
X94301400Y-121979200D02*
X94301400Y-120679200D01*
G75*
G02*
X94551400Y-120429200I250000J0D01*
G01*
X95376400Y-120429200D01*
G75*
G02*
X95626400Y-120679200I0J-250000D01*
G01*
X95626400Y-121979200D01*
G75*
G02*
X95376400Y-122229200I-250000J0D01*
G01*
X94551400Y-122229200D01*
G75*
G02*
X94301400Y-121979200I0J250000D01*
G01*
G37*
G36*
G01*
X79542000Y-96784400D02*
X80292000Y-96784400D01*
G75*
G02*
X80517000Y-97009400I0J-225000D01*
G01*
X80517000Y-97459400D01*
G75*
G02*
X80292000Y-97684400I-225000J0D01*
G01*
X79542000Y-97684400D01*
G75*
G02*
X79317000Y-97459400I0J225000D01*
G01*
X79317000Y-97009400D01*
G75*
G02*
X79542000Y-96784400I225000J0D01*
G01*
G37*
G36*
G01*
X79542000Y-100084400D02*
X80292000Y-100084400D01*
G75*
G02*
X80517000Y-100309400I0J-225000D01*
G01*
X80517000Y-100759400D01*
G75*
G02*
X80292000Y-100984400I-225000J0D01*
G01*
X79542000Y-100984400D01*
G75*
G02*
X79317000Y-100759400I0J225000D01*
G01*
X79317000Y-100309400D01*
G75*
G02*
X79542000Y-100084400I225000J0D01*
G01*
G37*
G36*
G01*
X123270200Y-121979200D02*
X123270200Y-120679200D01*
G75*
G02*
X123520200Y-120429200I250000J0D01*
G01*
X124345200Y-120429200D01*
G75*
G02*
X124595200Y-120679200I0J-250000D01*
G01*
X124595200Y-121979200D01*
G75*
G02*
X124345200Y-122229200I-250000J0D01*
G01*
X123520200Y-122229200D01*
G75*
G02*
X123270200Y-121979200I0J250000D01*
G01*
G37*
G36*
G01*
X126395200Y-121979200D02*
X126395200Y-120679200D01*
G75*
G02*
X126645200Y-120429200I250000J0D01*
G01*
X127470200Y-120429200D01*
G75*
G02*
X127720200Y-120679200I0J-250000D01*
G01*
X127720200Y-121979200D01*
G75*
G02*
X127470200Y-122229200I-250000J0D01*
G01*
X126645200Y-122229200D01*
G75*
G02*
X126395200Y-121979200I0J250000D01*
G01*
G37*
X203940867Y-121333968D03*
X209658867Y-121333968D03*
G36*
G01*
X99115000Y-91827500D02*
X98165000Y-91827500D01*
G75*
G02*
X97915000Y-91577500I0J250000D01*
G01*
X97915000Y-90902500D01*
G75*
G02*
X98165000Y-90652500I250000J0D01*
G01*
X99115000Y-90652500D01*
G75*
G02*
X99365000Y-90902500I0J-250000D01*
G01*
X99365000Y-91577500D01*
G75*
G02*
X99115000Y-91827500I-250000J0D01*
G01*
G37*
G36*
G01*
X99115000Y-89752500D02*
X98165000Y-89752500D01*
G75*
G02*
X97915000Y-89502500I0J250000D01*
G01*
X97915000Y-88827500D01*
G75*
G02*
X98165000Y-88577500I250000J0D01*
G01*
X99115000Y-88577500D01*
G75*
G02*
X99365000Y-88827500I0J-250000D01*
G01*
X99365000Y-89502500D01*
G75*
G02*
X99115000Y-89752500I-250000J0D01*
G01*
G37*
%LPD*%
M02*
