%TF.GenerationSoftware,KiCad,Pcbnew,8.0.5*%
%TF.CreationDate,2024-12-19T18:08:04+01:00*%
%TF.ProjectId,buck-boost-xp,6275636b-2d62-46f6-9f73-742d78702e6b,rev?*%
%TF.SameCoordinates,Original*%
%TF.FileFunction,Drillmap*%
%TF.FilePolarity,Positive*%
%FSLAX45Y45*%
G04 Gerber Fmt 4.5, Leading zero omitted, Abs format (unit mm)*
G04 Created by KiCad (PCBNEW 8.0.5) date 2024-12-19 18:08:04*
%MOMM*%
%LPD*%
G01*
G04 APERTURE LIST*
%ADD10C,0.100000*%
%ADD11C,0.200000*%
%ADD12C,0.320000*%
G04 APERTURE END LIST*
D10*
X1229000Y-4474000D02*
X28079000Y-4474000D01*
X28079000Y-16274000D01*
X1229000Y-16274000D01*
X1229000Y-4474000D01*
D11*
D12*
X1569000Y-4739000D02*
X1889000Y-5059000D01*
X1889000Y-4739000D02*
X1569000Y-5059000D01*
X2569000Y-15614000D02*
X2889000Y-15934000D01*
X2889000Y-15614000D02*
X2569000Y-15934000D01*
X9644000Y-6489000D02*
X9964000Y-6809000D01*
X9964000Y-6489000D02*
X9644000Y-6809000D01*
X13469000Y-15614000D02*
X13789000Y-15934000D01*
X13789000Y-15614000D02*
X13469000Y-15934000D01*
X20919000Y-6489000D02*
X21239000Y-6809000D01*
X21239000Y-6489000D02*
X20919000Y-6809000D01*
X26069000Y-15614000D02*
X26389000Y-15934000D01*
X26389000Y-15614000D02*
X26069000Y-15934000D01*
X26344000Y-4739000D02*
X26664000Y-5059000D01*
X26664000Y-4739000D02*
X26344000Y-5059000D01*
D11*
X1484777Y-16590484D02*
X1484777Y-16390484D01*
X1484777Y-16390484D02*
X1532396Y-16390484D01*
X1532396Y-16390484D02*
X1560967Y-16400008D01*
X1560967Y-16400008D02*
X1580015Y-16419055D01*
X1580015Y-16419055D02*
X1589539Y-16438103D01*
X1589539Y-16438103D02*
X1599062Y-16476198D01*
X1599062Y-16476198D02*
X1599062Y-16504769D01*
X1599062Y-16504769D02*
X1589539Y-16542865D01*
X1589539Y-16542865D02*
X1580015Y-16561912D01*
X1580015Y-16561912D02*
X1560967Y-16580960D01*
X1560967Y-16580960D02*
X1532396Y-16590484D01*
X1532396Y-16590484D02*
X1484777Y-16590484D01*
X1684777Y-16590484D02*
X1684777Y-16457150D01*
X1684777Y-16495246D02*
X1694301Y-16476198D01*
X1694301Y-16476198D02*
X1703824Y-16466674D01*
X1703824Y-16466674D02*
X1722872Y-16457150D01*
X1722872Y-16457150D02*
X1741920Y-16457150D01*
X1808586Y-16590484D02*
X1808586Y-16457150D01*
X1808586Y-16390484D02*
X1799062Y-16400008D01*
X1799062Y-16400008D02*
X1808586Y-16409531D01*
X1808586Y-16409531D02*
X1818110Y-16400008D01*
X1818110Y-16400008D02*
X1808586Y-16390484D01*
X1808586Y-16390484D02*
X1808586Y-16409531D01*
X1932396Y-16590484D02*
X1913348Y-16580960D01*
X1913348Y-16580960D02*
X1903824Y-16561912D01*
X1903824Y-16561912D02*
X1903824Y-16390484D01*
X2037158Y-16590484D02*
X2018110Y-16580960D01*
X2018110Y-16580960D02*
X2008586Y-16561912D01*
X2008586Y-16561912D02*
X2008586Y-16390484D01*
X2265729Y-16590484D02*
X2265729Y-16390484D01*
X2265729Y-16390484D02*
X2332396Y-16533341D01*
X2332396Y-16533341D02*
X2399063Y-16390484D01*
X2399063Y-16390484D02*
X2399063Y-16590484D01*
X2580015Y-16590484D02*
X2580015Y-16485722D01*
X2580015Y-16485722D02*
X2570491Y-16466674D01*
X2570491Y-16466674D02*
X2551444Y-16457150D01*
X2551444Y-16457150D02*
X2513348Y-16457150D01*
X2513348Y-16457150D02*
X2494301Y-16466674D01*
X2580015Y-16580960D02*
X2560967Y-16590484D01*
X2560967Y-16590484D02*
X2513348Y-16590484D01*
X2513348Y-16590484D02*
X2494301Y-16580960D01*
X2494301Y-16580960D02*
X2484777Y-16561912D01*
X2484777Y-16561912D02*
X2484777Y-16542865D01*
X2484777Y-16542865D02*
X2494301Y-16523817D01*
X2494301Y-16523817D02*
X2513348Y-16514293D01*
X2513348Y-16514293D02*
X2560967Y-16514293D01*
X2560967Y-16514293D02*
X2580015Y-16504769D01*
X2675253Y-16457150D02*
X2675253Y-16657150D01*
X2675253Y-16466674D02*
X2694301Y-16457150D01*
X2694301Y-16457150D02*
X2732396Y-16457150D01*
X2732396Y-16457150D02*
X2751444Y-16466674D01*
X2751444Y-16466674D02*
X2760967Y-16476198D01*
X2760967Y-16476198D02*
X2770491Y-16495246D01*
X2770491Y-16495246D02*
X2770491Y-16552388D01*
X2770491Y-16552388D02*
X2760967Y-16571436D01*
X2760967Y-16571436D02*
X2751444Y-16580960D01*
X2751444Y-16580960D02*
X2732396Y-16590484D01*
X2732396Y-16590484D02*
X2694301Y-16590484D01*
X2694301Y-16590484D02*
X2675253Y-16580960D01*
X2856205Y-16571436D02*
X2865729Y-16580960D01*
X2865729Y-16580960D02*
X2856205Y-16590484D01*
X2856205Y-16590484D02*
X2846682Y-16580960D01*
X2846682Y-16580960D02*
X2856205Y-16571436D01*
X2856205Y-16571436D02*
X2856205Y-16590484D01*
X2856205Y-16466674D02*
X2865729Y-16476198D01*
X2865729Y-16476198D02*
X2856205Y-16485722D01*
X2856205Y-16485722D02*
X2846682Y-16476198D01*
X2846682Y-16476198D02*
X2856205Y-16466674D01*
X2856205Y-16466674D02*
X2856205Y-16485722D01*
X1024000Y-16819000D02*
X1224000Y-17019000D01*
X1224000Y-16819000D02*
X1024000Y-17019000D01*
X1465729Y-16810484D02*
X1589539Y-16810484D01*
X1589539Y-16810484D02*
X1522872Y-16886674D01*
X1522872Y-16886674D02*
X1551443Y-16886674D01*
X1551443Y-16886674D02*
X1570491Y-16896198D01*
X1570491Y-16896198D02*
X1580015Y-16905722D01*
X1580015Y-16905722D02*
X1589539Y-16924770D01*
X1589539Y-16924770D02*
X1589539Y-16972389D01*
X1589539Y-16972389D02*
X1580015Y-16991436D01*
X1580015Y-16991436D02*
X1570491Y-17000960D01*
X1570491Y-17000960D02*
X1551443Y-17010484D01*
X1551443Y-17010484D02*
X1494301Y-17010484D01*
X1494301Y-17010484D02*
X1475253Y-17000960D01*
X1475253Y-17000960D02*
X1465729Y-16991436D01*
X1675253Y-16991436D02*
X1684777Y-17000960D01*
X1684777Y-17000960D02*
X1675253Y-17010484D01*
X1675253Y-17010484D02*
X1665729Y-17000960D01*
X1665729Y-17000960D02*
X1675253Y-16991436D01*
X1675253Y-16991436D02*
X1675253Y-17010484D01*
X1760967Y-16829531D02*
X1770491Y-16820008D01*
X1770491Y-16820008D02*
X1789539Y-16810484D01*
X1789539Y-16810484D02*
X1837158Y-16810484D01*
X1837158Y-16810484D02*
X1856205Y-16820008D01*
X1856205Y-16820008D02*
X1865729Y-16829531D01*
X1865729Y-16829531D02*
X1875253Y-16848579D01*
X1875253Y-16848579D02*
X1875253Y-16867627D01*
X1875253Y-16867627D02*
X1865729Y-16896198D01*
X1865729Y-16896198D02*
X1751443Y-17010484D01*
X1751443Y-17010484D02*
X1875253Y-17010484D01*
X1999062Y-16810484D02*
X2018110Y-16810484D01*
X2018110Y-16810484D02*
X2037158Y-16820008D01*
X2037158Y-16820008D02*
X2046682Y-16829531D01*
X2046682Y-16829531D02*
X2056205Y-16848579D01*
X2056205Y-16848579D02*
X2065729Y-16886674D01*
X2065729Y-16886674D02*
X2065729Y-16934293D01*
X2065729Y-16934293D02*
X2056205Y-16972389D01*
X2056205Y-16972389D02*
X2046682Y-16991436D01*
X2046682Y-16991436D02*
X2037158Y-17000960D01*
X2037158Y-17000960D02*
X2018110Y-17010484D01*
X2018110Y-17010484D02*
X1999062Y-17010484D01*
X1999062Y-17010484D02*
X1980015Y-17000960D01*
X1980015Y-17000960D02*
X1970491Y-16991436D01*
X1970491Y-16991436D02*
X1960967Y-16972389D01*
X1960967Y-16972389D02*
X1951443Y-16934293D01*
X1951443Y-16934293D02*
X1951443Y-16886674D01*
X1951443Y-16886674D02*
X1960967Y-16848579D01*
X1960967Y-16848579D02*
X1970491Y-16829531D01*
X1970491Y-16829531D02*
X1980015Y-16820008D01*
X1980015Y-16820008D02*
X1999062Y-16810484D01*
X2189539Y-16810484D02*
X2208586Y-16810484D01*
X2208586Y-16810484D02*
X2227634Y-16820008D01*
X2227634Y-16820008D02*
X2237158Y-16829531D01*
X2237158Y-16829531D02*
X2246682Y-16848579D01*
X2246682Y-16848579D02*
X2256205Y-16886674D01*
X2256205Y-16886674D02*
X2256205Y-16934293D01*
X2256205Y-16934293D02*
X2246682Y-16972389D01*
X2246682Y-16972389D02*
X2237158Y-16991436D01*
X2237158Y-16991436D02*
X2227634Y-17000960D01*
X2227634Y-17000960D02*
X2208586Y-17010484D01*
X2208586Y-17010484D02*
X2189539Y-17010484D01*
X2189539Y-17010484D02*
X2170491Y-17000960D01*
X2170491Y-17000960D02*
X2160967Y-16991436D01*
X2160967Y-16991436D02*
X2151444Y-16972389D01*
X2151444Y-16972389D02*
X2141920Y-16934293D01*
X2141920Y-16934293D02*
X2141920Y-16886674D01*
X2141920Y-16886674D02*
X2151444Y-16848579D01*
X2151444Y-16848579D02*
X2160967Y-16829531D01*
X2160967Y-16829531D02*
X2170491Y-16820008D01*
X2170491Y-16820008D02*
X2189539Y-16810484D01*
X2341920Y-17010484D02*
X2341920Y-16877150D01*
X2341920Y-16896198D02*
X2351444Y-16886674D01*
X2351444Y-16886674D02*
X2370491Y-16877150D01*
X2370491Y-16877150D02*
X2399063Y-16877150D01*
X2399063Y-16877150D02*
X2418110Y-16886674D01*
X2418110Y-16886674D02*
X2427634Y-16905722D01*
X2427634Y-16905722D02*
X2427634Y-17010484D01*
X2427634Y-16905722D02*
X2437158Y-16886674D01*
X2437158Y-16886674D02*
X2456205Y-16877150D01*
X2456205Y-16877150D02*
X2484777Y-16877150D01*
X2484777Y-16877150D02*
X2503825Y-16886674D01*
X2503825Y-16886674D02*
X2513348Y-16905722D01*
X2513348Y-16905722D02*
X2513348Y-17010484D01*
X2608586Y-17010484D02*
X2608586Y-16877150D01*
X2608586Y-16896198D02*
X2618110Y-16886674D01*
X2618110Y-16886674D02*
X2637158Y-16877150D01*
X2637158Y-16877150D02*
X2665729Y-16877150D01*
X2665729Y-16877150D02*
X2684777Y-16886674D01*
X2684777Y-16886674D02*
X2694301Y-16905722D01*
X2694301Y-16905722D02*
X2694301Y-17010484D01*
X2694301Y-16905722D02*
X2703825Y-16886674D01*
X2703825Y-16886674D02*
X2722872Y-16877150D01*
X2722872Y-16877150D02*
X2751444Y-16877150D01*
X2751444Y-16877150D02*
X2770491Y-16886674D01*
X2770491Y-16886674D02*
X2780015Y-16905722D01*
X2780015Y-16905722D02*
X2780015Y-17010484D01*
X3170491Y-16800960D02*
X2999063Y-17058103D01*
X3427634Y-16810484D02*
X3446682Y-16810484D01*
X3446682Y-16810484D02*
X3465729Y-16820008D01*
X3465729Y-16820008D02*
X3475253Y-16829531D01*
X3475253Y-16829531D02*
X3484777Y-16848579D01*
X3484777Y-16848579D02*
X3494301Y-16886674D01*
X3494301Y-16886674D02*
X3494301Y-16934293D01*
X3494301Y-16934293D02*
X3484777Y-16972389D01*
X3484777Y-16972389D02*
X3475253Y-16991436D01*
X3475253Y-16991436D02*
X3465729Y-17000960D01*
X3465729Y-17000960D02*
X3446682Y-17010484D01*
X3446682Y-17010484D02*
X3427634Y-17010484D01*
X3427634Y-17010484D02*
X3408586Y-17000960D01*
X3408586Y-17000960D02*
X3399063Y-16991436D01*
X3399063Y-16991436D02*
X3389539Y-16972389D01*
X3389539Y-16972389D02*
X3380015Y-16934293D01*
X3380015Y-16934293D02*
X3380015Y-16886674D01*
X3380015Y-16886674D02*
X3389539Y-16848579D01*
X3389539Y-16848579D02*
X3399063Y-16829531D01*
X3399063Y-16829531D02*
X3408586Y-16820008D01*
X3408586Y-16820008D02*
X3427634Y-16810484D01*
X3580015Y-16991436D02*
X3589539Y-17000960D01*
X3589539Y-17000960D02*
X3580015Y-17010484D01*
X3580015Y-17010484D02*
X3570491Y-17000960D01*
X3570491Y-17000960D02*
X3580015Y-16991436D01*
X3580015Y-16991436D02*
X3580015Y-17010484D01*
X3780015Y-17010484D02*
X3665729Y-17010484D01*
X3722872Y-17010484D02*
X3722872Y-16810484D01*
X3722872Y-16810484D02*
X3703825Y-16839055D01*
X3703825Y-16839055D02*
X3684777Y-16858103D01*
X3684777Y-16858103D02*
X3665729Y-16867627D01*
X3856206Y-16829531D02*
X3865729Y-16820008D01*
X3865729Y-16820008D02*
X3884777Y-16810484D01*
X3884777Y-16810484D02*
X3932396Y-16810484D01*
X3932396Y-16810484D02*
X3951444Y-16820008D01*
X3951444Y-16820008D02*
X3960967Y-16829531D01*
X3960967Y-16829531D02*
X3970491Y-16848579D01*
X3970491Y-16848579D02*
X3970491Y-16867627D01*
X3970491Y-16867627D02*
X3960967Y-16896198D01*
X3960967Y-16896198D02*
X3846682Y-17010484D01*
X3846682Y-17010484D02*
X3970491Y-17010484D01*
X4141920Y-16810484D02*
X4103825Y-16810484D01*
X4103825Y-16810484D02*
X4084777Y-16820008D01*
X4084777Y-16820008D02*
X4075253Y-16829531D01*
X4075253Y-16829531D02*
X4056206Y-16858103D01*
X4056206Y-16858103D02*
X4046682Y-16896198D01*
X4046682Y-16896198D02*
X4046682Y-16972389D01*
X4046682Y-16972389D02*
X4056206Y-16991436D01*
X4056206Y-16991436D02*
X4065729Y-17000960D01*
X4065729Y-17000960D02*
X4084777Y-17010484D01*
X4084777Y-17010484D02*
X4122872Y-17010484D01*
X4122872Y-17010484D02*
X4141920Y-17000960D01*
X4141920Y-17000960D02*
X4151444Y-16991436D01*
X4151444Y-16991436D02*
X4160967Y-16972389D01*
X4160967Y-16972389D02*
X4160967Y-16924770D01*
X4160967Y-16924770D02*
X4151444Y-16905722D01*
X4151444Y-16905722D02*
X4141920Y-16896198D01*
X4141920Y-16896198D02*
X4122872Y-16886674D01*
X4122872Y-16886674D02*
X4084777Y-16886674D01*
X4084777Y-16886674D02*
X4065729Y-16896198D01*
X4065729Y-16896198D02*
X4056206Y-16905722D01*
X4056206Y-16905722D02*
X4046682Y-16924770D01*
X4284777Y-16810484D02*
X4303825Y-16810484D01*
X4303825Y-16810484D02*
X4322872Y-16820008D01*
X4322872Y-16820008D02*
X4332396Y-16829531D01*
X4332396Y-16829531D02*
X4341920Y-16848579D01*
X4341920Y-16848579D02*
X4351444Y-16886674D01*
X4351444Y-16886674D02*
X4351444Y-16934293D01*
X4351444Y-16934293D02*
X4341920Y-16972389D01*
X4341920Y-16972389D02*
X4332396Y-16991436D01*
X4332396Y-16991436D02*
X4322872Y-17000960D01*
X4322872Y-17000960D02*
X4303825Y-17010484D01*
X4303825Y-17010484D02*
X4284777Y-17010484D01*
X4284777Y-17010484D02*
X4265729Y-17000960D01*
X4265729Y-17000960D02*
X4256206Y-16991436D01*
X4256206Y-16991436D02*
X4246682Y-16972389D01*
X4246682Y-16972389D02*
X4237158Y-16934293D01*
X4237158Y-16934293D02*
X4237158Y-16886674D01*
X4237158Y-16886674D02*
X4246682Y-16848579D01*
X4246682Y-16848579D02*
X4256206Y-16829531D01*
X4256206Y-16829531D02*
X4265729Y-16820008D01*
X4265729Y-16820008D02*
X4284777Y-16810484D01*
X4427634Y-16810484D02*
X4427634Y-16848579D01*
X4503825Y-16810484D02*
X4503825Y-16848579D01*
X4799063Y-17086674D02*
X4789539Y-17077150D01*
X4789539Y-17077150D02*
X4770491Y-17048579D01*
X4770491Y-17048579D02*
X4760968Y-17029531D01*
X4760968Y-17029531D02*
X4751444Y-17000960D01*
X4751444Y-17000960D02*
X4741920Y-16953341D01*
X4741920Y-16953341D02*
X4741920Y-16915246D01*
X4741920Y-16915246D02*
X4751444Y-16867627D01*
X4751444Y-16867627D02*
X4760968Y-16839055D01*
X4760968Y-16839055D02*
X4770491Y-16820008D01*
X4770491Y-16820008D02*
X4789539Y-16791436D01*
X4789539Y-16791436D02*
X4799063Y-16781912D01*
X4856206Y-16810484D02*
X4989539Y-16810484D01*
X4989539Y-16810484D02*
X4903825Y-17010484D01*
X5218111Y-17010484D02*
X5218111Y-16810484D01*
X5303825Y-17010484D02*
X5303825Y-16905722D01*
X5303825Y-16905722D02*
X5294301Y-16886674D01*
X5294301Y-16886674D02*
X5275253Y-16877150D01*
X5275253Y-16877150D02*
X5246682Y-16877150D01*
X5246682Y-16877150D02*
X5227634Y-16886674D01*
X5227634Y-16886674D02*
X5218111Y-16896198D01*
X5427634Y-17010484D02*
X5408587Y-17000960D01*
X5408587Y-17000960D02*
X5399063Y-16991436D01*
X5399063Y-16991436D02*
X5389539Y-16972389D01*
X5389539Y-16972389D02*
X5389539Y-16915246D01*
X5389539Y-16915246D02*
X5399063Y-16896198D01*
X5399063Y-16896198D02*
X5408587Y-16886674D01*
X5408587Y-16886674D02*
X5427634Y-16877150D01*
X5427634Y-16877150D02*
X5456206Y-16877150D01*
X5456206Y-16877150D02*
X5475253Y-16886674D01*
X5475253Y-16886674D02*
X5484777Y-16896198D01*
X5484777Y-16896198D02*
X5494301Y-16915246D01*
X5494301Y-16915246D02*
X5494301Y-16972389D01*
X5494301Y-16972389D02*
X5484777Y-16991436D01*
X5484777Y-16991436D02*
X5475253Y-17000960D01*
X5475253Y-17000960D02*
X5456206Y-17010484D01*
X5456206Y-17010484D02*
X5427634Y-17010484D01*
X5608587Y-17010484D02*
X5589539Y-17000960D01*
X5589539Y-17000960D02*
X5580015Y-16981912D01*
X5580015Y-16981912D02*
X5580015Y-16810484D01*
X5760968Y-17000960D02*
X5741920Y-17010484D01*
X5741920Y-17010484D02*
X5703825Y-17010484D01*
X5703825Y-17010484D02*
X5684777Y-17000960D01*
X5684777Y-17000960D02*
X5675253Y-16981912D01*
X5675253Y-16981912D02*
X5675253Y-16905722D01*
X5675253Y-16905722D02*
X5684777Y-16886674D01*
X5684777Y-16886674D02*
X5703825Y-16877150D01*
X5703825Y-16877150D02*
X5741920Y-16877150D01*
X5741920Y-16877150D02*
X5760968Y-16886674D01*
X5760968Y-16886674D02*
X5770491Y-16905722D01*
X5770491Y-16905722D02*
X5770491Y-16924770D01*
X5770491Y-16924770D02*
X5675253Y-16943817D01*
X5846682Y-17000960D02*
X5865730Y-17010484D01*
X5865730Y-17010484D02*
X5903825Y-17010484D01*
X5903825Y-17010484D02*
X5922872Y-17000960D01*
X5922872Y-17000960D02*
X5932396Y-16981912D01*
X5932396Y-16981912D02*
X5932396Y-16972389D01*
X5932396Y-16972389D02*
X5922872Y-16953341D01*
X5922872Y-16953341D02*
X5903825Y-16943817D01*
X5903825Y-16943817D02*
X5875253Y-16943817D01*
X5875253Y-16943817D02*
X5856206Y-16934293D01*
X5856206Y-16934293D02*
X5846682Y-16915246D01*
X5846682Y-16915246D02*
X5846682Y-16905722D01*
X5846682Y-16905722D02*
X5856206Y-16886674D01*
X5856206Y-16886674D02*
X5875253Y-16877150D01*
X5875253Y-16877150D02*
X5903825Y-16877150D01*
X5903825Y-16877150D02*
X5922872Y-16886674D01*
X5999063Y-17086674D02*
X6008587Y-17077150D01*
X6008587Y-17077150D02*
X6027634Y-17048579D01*
X6027634Y-17048579D02*
X6037158Y-17029531D01*
X6037158Y-17029531D02*
X6046682Y-17000960D01*
X6046682Y-17000960D02*
X6056206Y-16953341D01*
X6056206Y-16953341D02*
X6056206Y-16915246D01*
X6056206Y-16915246D02*
X6046682Y-16867627D01*
X6046682Y-16867627D02*
X6037158Y-16839055D01*
X6037158Y-16839055D02*
X6027634Y-16820008D01*
X6027634Y-16820008D02*
X6008587Y-16791436D01*
X6008587Y-16791436D02*
X5999063Y-16781912D01*
X6360968Y-17086674D02*
X6351444Y-17077150D01*
X6351444Y-17077150D02*
X6332396Y-17048579D01*
X6332396Y-17048579D02*
X6322872Y-17029531D01*
X6322872Y-17029531D02*
X6313349Y-17000960D01*
X6313349Y-17000960D02*
X6303825Y-16953341D01*
X6303825Y-16953341D02*
X6303825Y-16915246D01*
X6303825Y-16915246D02*
X6313349Y-16867627D01*
X6313349Y-16867627D02*
X6322872Y-16839055D01*
X6322872Y-16839055D02*
X6332396Y-16820008D01*
X6332396Y-16820008D02*
X6351444Y-16791436D01*
X6351444Y-16791436D02*
X6360968Y-16781912D01*
X6437158Y-16877150D02*
X6437158Y-17010484D01*
X6437158Y-16896198D02*
X6446682Y-16886674D01*
X6446682Y-16886674D02*
X6465730Y-16877150D01*
X6465730Y-16877150D02*
X6494301Y-16877150D01*
X6494301Y-16877150D02*
X6513349Y-16886674D01*
X6513349Y-16886674D02*
X6522872Y-16905722D01*
X6522872Y-16905722D02*
X6522872Y-17010484D01*
X6646682Y-17010484D02*
X6627634Y-17000960D01*
X6627634Y-17000960D02*
X6618111Y-16991436D01*
X6618111Y-16991436D02*
X6608587Y-16972389D01*
X6608587Y-16972389D02*
X6608587Y-16915246D01*
X6608587Y-16915246D02*
X6618111Y-16896198D01*
X6618111Y-16896198D02*
X6627634Y-16886674D01*
X6627634Y-16886674D02*
X6646682Y-16877150D01*
X6646682Y-16877150D02*
X6675253Y-16877150D01*
X6675253Y-16877150D02*
X6694301Y-16886674D01*
X6694301Y-16886674D02*
X6703825Y-16896198D01*
X6703825Y-16896198D02*
X6713349Y-16915246D01*
X6713349Y-16915246D02*
X6713349Y-16972389D01*
X6713349Y-16972389D02*
X6703825Y-16991436D01*
X6703825Y-16991436D02*
X6694301Y-17000960D01*
X6694301Y-17000960D02*
X6675253Y-17010484D01*
X6675253Y-17010484D02*
X6646682Y-17010484D01*
X6770492Y-16877150D02*
X6846682Y-16877150D01*
X6799063Y-16810484D02*
X6799063Y-16981912D01*
X6799063Y-16981912D02*
X6808587Y-17000960D01*
X6808587Y-17000960D02*
X6827634Y-17010484D01*
X6827634Y-17010484D02*
X6846682Y-17010484D01*
X7065730Y-16877150D02*
X7065730Y-17077150D01*
X7065730Y-16886674D02*
X7084777Y-16877150D01*
X7084777Y-16877150D02*
X7122873Y-16877150D01*
X7122873Y-16877150D02*
X7141920Y-16886674D01*
X7141920Y-16886674D02*
X7151444Y-16896198D01*
X7151444Y-16896198D02*
X7160968Y-16915246D01*
X7160968Y-16915246D02*
X7160968Y-16972389D01*
X7160968Y-16972389D02*
X7151444Y-16991436D01*
X7151444Y-16991436D02*
X7141920Y-17000960D01*
X7141920Y-17000960D02*
X7122873Y-17010484D01*
X7122873Y-17010484D02*
X7084777Y-17010484D01*
X7084777Y-17010484D02*
X7065730Y-17000960D01*
X7275253Y-17010484D02*
X7256206Y-17000960D01*
X7256206Y-17000960D02*
X7246682Y-16981912D01*
X7246682Y-16981912D02*
X7246682Y-16810484D01*
X7437158Y-17010484D02*
X7437158Y-16905722D01*
X7437158Y-16905722D02*
X7427634Y-16886674D01*
X7427634Y-16886674D02*
X7408587Y-16877150D01*
X7408587Y-16877150D02*
X7370492Y-16877150D01*
X7370492Y-16877150D02*
X7351444Y-16886674D01*
X7437158Y-17000960D02*
X7418111Y-17010484D01*
X7418111Y-17010484D02*
X7370492Y-17010484D01*
X7370492Y-17010484D02*
X7351444Y-17000960D01*
X7351444Y-17000960D02*
X7341920Y-16981912D01*
X7341920Y-16981912D02*
X7341920Y-16962865D01*
X7341920Y-16962865D02*
X7351444Y-16943817D01*
X7351444Y-16943817D02*
X7370492Y-16934293D01*
X7370492Y-16934293D02*
X7418111Y-16934293D01*
X7418111Y-16934293D02*
X7437158Y-16924770D01*
X7503825Y-16877150D02*
X7580015Y-16877150D01*
X7532396Y-16810484D02*
X7532396Y-16981912D01*
X7532396Y-16981912D02*
X7541920Y-17000960D01*
X7541920Y-17000960D02*
X7560968Y-17010484D01*
X7560968Y-17010484D02*
X7580015Y-17010484D01*
X7722873Y-17000960D02*
X7703825Y-17010484D01*
X7703825Y-17010484D02*
X7665730Y-17010484D01*
X7665730Y-17010484D02*
X7646682Y-17000960D01*
X7646682Y-17000960D02*
X7637158Y-16981912D01*
X7637158Y-16981912D02*
X7637158Y-16905722D01*
X7637158Y-16905722D02*
X7646682Y-16886674D01*
X7646682Y-16886674D02*
X7665730Y-16877150D01*
X7665730Y-16877150D02*
X7703825Y-16877150D01*
X7703825Y-16877150D02*
X7722873Y-16886674D01*
X7722873Y-16886674D02*
X7732396Y-16905722D01*
X7732396Y-16905722D02*
X7732396Y-16924770D01*
X7732396Y-16924770D02*
X7637158Y-16943817D01*
X7903825Y-17010484D02*
X7903825Y-16810484D01*
X7903825Y-17000960D02*
X7884777Y-17010484D01*
X7884777Y-17010484D02*
X7846682Y-17010484D01*
X7846682Y-17010484D02*
X7827634Y-17000960D01*
X7827634Y-17000960D02*
X7818111Y-16991436D01*
X7818111Y-16991436D02*
X7808587Y-16972389D01*
X7808587Y-16972389D02*
X7808587Y-16915246D01*
X7808587Y-16915246D02*
X7818111Y-16896198D01*
X7818111Y-16896198D02*
X7827634Y-16886674D01*
X7827634Y-16886674D02*
X7846682Y-16877150D01*
X7846682Y-16877150D02*
X7884777Y-16877150D01*
X7884777Y-16877150D02*
X7903825Y-16886674D01*
X7980015Y-17086674D02*
X7989539Y-17077150D01*
X7989539Y-17077150D02*
X8008587Y-17048579D01*
X8008587Y-17048579D02*
X8018111Y-17029531D01*
X8018111Y-17029531D02*
X8027634Y-17000960D01*
X8027634Y-17000960D02*
X8037158Y-16953341D01*
X8037158Y-16953341D02*
X8037158Y-16915246D01*
X8037158Y-16915246D02*
X8027634Y-16867627D01*
X8027634Y-16867627D02*
X8018111Y-16839055D01*
X8018111Y-16839055D02*
X8008587Y-16820008D01*
X8008587Y-16820008D02*
X7989539Y-16791436D01*
X7989539Y-16791436D02*
X7980015Y-16781912D01*
M02*
