G04 #@! TF.GenerationSoftware,KiCad,Pcbnew,(6.0.6)*
G04 #@! TF.CreationDate,2022-08-29T15:24:00+02:00*
G04 #@! TF.ProjectId,analog-buffer-six-channels,616e616c-6f67-42d6-9275-666665722d73,rev?*
G04 #@! TF.SameCoordinates,Original*
G04 #@! TF.FileFunction,Soldermask,Top*
G04 #@! TF.FilePolarity,Negative*
%FSLAX46Y46*%
G04 Gerber Fmt 4.6, Leading zero omitted, Abs format (unit mm)*
G04 Created by KiCad (PCBNEW (6.0.6)) date 2022-08-29 15:24:00*
%MOMM*%
%LPD*%
G01*
G04 APERTURE LIST*
G04 Aperture macros list*
%AMRoundRect*
0 Rectangle with rounded corners*
0 $1 Rounding radius*
0 $2 $3 $4 $5 $6 $7 $8 $9 X,Y pos of 4 corners*
0 Add a 4 corners polygon primitive as box body*
4,1,4,$2,$3,$4,$5,$6,$7,$8,$9,$2,$3,0*
0 Add four circle primitives for the rounded corners*
1,1,$1+$1,$2,$3*
1,1,$1+$1,$4,$5*
1,1,$1+$1,$6,$7*
1,1,$1+$1,$8,$9*
0 Add four rect primitives between the rounded corners*
20,1,$1+$1,$2,$3,$4,$5,0*
20,1,$1+$1,$4,$5,$6,$7,0*
20,1,$1+$1,$6,$7,$8,$9,0*
20,1,$1+$1,$8,$9,$2,$3,0*%
G04 Aperture macros list end*
%ADD10RoundRect,0.150000X-0.150000X0.825000X-0.150000X-0.825000X0.150000X-0.825000X0.150000X0.825000X0*%
%ADD11C,3.200000*%
%ADD12RoundRect,0.250000X-0.475000X0.250000X-0.475000X-0.250000X0.475000X-0.250000X0.475000X0.250000X0*%
%ADD13R,1.700000X1.700000*%
%ADD14O,1.700000X1.700000*%
%ADD15RoundRect,0.250000X0.475000X-0.250000X0.475000X0.250000X-0.475000X0.250000X-0.475000X-0.250000X0*%
%ADD16RoundRect,0.250000X-0.325000X-0.450000X0.325000X-0.450000X0.325000X0.450000X-0.325000X0.450000X0*%
G04 APERTURE END LIST*
D10*
X70076700Y-45618400D03*
X68806700Y-45618400D03*
X67536700Y-45618400D03*
X66266700Y-45618400D03*
X66266700Y-50568400D03*
X67536700Y-50568400D03*
X68806700Y-50568400D03*
X70076700Y-50568400D03*
D11*
X81508600Y-35788600D03*
D12*
X72009000Y-43652400D03*
X72009000Y-45552400D03*
D13*
X59066200Y-61678900D03*
D14*
X56526200Y-61678900D03*
X59066200Y-59138900D03*
X56526200Y-59138900D03*
X59066200Y-56598900D03*
X56526200Y-56598900D03*
X59066200Y-54058900D03*
X56526200Y-54058900D03*
X59066200Y-51518900D03*
X56526200Y-51518900D03*
X59066200Y-48978900D03*
X56526200Y-48978900D03*
X59066200Y-46438900D03*
X56526200Y-46438900D03*
X59066200Y-43898900D03*
X56526200Y-43898900D03*
X59066200Y-41358900D03*
X56526200Y-41358900D03*
X59066200Y-38818900D03*
X56526200Y-38818900D03*
D12*
X71983600Y-52212200D03*
X71983600Y-54112200D03*
D15*
X64363600Y-54300200D03*
X64363600Y-52400200D03*
D10*
X70102100Y-37087000D03*
X68832100Y-37087000D03*
X67562100Y-37087000D03*
X66292100Y-37087000D03*
X66292100Y-42037000D03*
X67562100Y-42037000D03*
X68832100Y-42037000D03*
X70102100Y-42037000D03*
X70102100Y-54167000D03*
X68832100Y-54167000D03*
X67562100Y-54167000D03*
X66292100Y-54167000D03*
X66292100Y-59117000D03*
X67562100Y-59117000D03*
X68832100Y-59117000D03*
X70102100Y-59117000D03*
D11*
X81508600Y-64770000D03*
D16*
X57014000Y-65735200D03*
X59064000Y-65735200D03*
D13*
X77890600Y-41378900D03*
D14*
X80430600Y-41378900D03*
X77890600Y-43918900D03*
X80430600Y-43918900D03*
X77890600Y-46458900D03*
X80430600Y-46458900D03*
X77890600Y-48998900D03*
X80430600Y-48998900D03*
X77890600Y-51538900D03*
X80430600Y-51538900D03*
X77890600Y-54078900D03*
X80430600Y-54078900D03*
X77890600Y-56618900D03*
X80430600Y-56618900D03*
X77890600Y-59158900D03*
X80430600Y-59158900D03*
D15*
X64389000Y-45654000D03*
X64389000Y-43754000D03*
M02*
