M48
; DRILL file {KiCad (6.0.6)} date Mon Aug 29 15:24:07 2022
; FORMAT={-:-/ absolute / metric / decimal}
; #@! TF.CreationDate,2022-08-29T15:24:07+02:00
; #@! TF.GenerationSoftware,Kicad,Pcbnew,(6.0.6)
; #@! TF.FileFunction,Plated,1,2,PTH
FMAT,2
METRIC
; #@! TA.AperFunction,Plated,PTH,ViaDrill
T1C0.400
; #@! TA.AperFunction,Plated,PTH,ComponentDrill
T2C1.000
%
G90
G05
T1
X57.048Y-65.71
X60.935Y-39.776
X60.935Y-45.288
X61.112Y-42.52
X61.189Y-52.883
X64.364Y-54.305
X64.364Y-56.032
X64.389Y-42.062
X64.389Y-45.644
X64.389Y-47.625
X64.821Y-60.96
X65.583Y-62.128
X66.218Y-50.546
X66.241Y-42.051
X66.254Y-59.12
X66.267Y-47.636
X66.277Y-56.185
X66.353Y-39.141
X67.511Y-45.579
X67.535Y-54.127
X67.541Y-37.056
X68.047Y-47.879
X68.275Y-56.54
X68.807Y-50.568
X68.832Y-42.037
X68.832Y-59.117
X70.053Y-45.618
X70.066Y-48.525
X70.102Y-54.167
X70.117Y-40.03
X70.117Y-57.074
X70.129Y-37.033
X71.907Y-46.99
X72.009Y-40.03
X73.457Y-61.417
X74.041Y-55.118
X74.117Y-52.019
X74.168Y-44.145
X74.32Y-47.701
T2
X56.526Y-38.819
X56.526Y-41.359
X56.526Y-43.899
X56.526Y-46.439
X56.526Y-48.979
X56.526Y-51.519
X56.526Y-54.059
X56.526Y-56.599
X56.526Y-59.139
X56.526Y-61.679
X59.066Y-38.819
X59.066Y-41.359
X59.066Y-43.899
X59.066Y-46.439
X59.066Y-48.979
X59.066Y-51.519
X59.066Y-54.059
X59.066Y-56.599
X59.066Y-59.139
X59.066Y-61.679
X77.891Y-41.379
X77.891Y-43.919
X77.891Y-46.459
X77.891Y-48.999
X77.891Y-51.539
X77.891Y-54.079
X77.891Y-56.619
X77.891Y-59.159
X80.431Y-41.379
X80.431Y-43.919
X80.431Y-46.459
X80.431Y-48.999
X80.431Y-51.539
X80.431Y-54.079
X80.431Y-56.619
X80.431Y-59.159
T0
M30
