G04 #@! TF.GenerationSoftware,KiCad,Pcbnew,(6.0.6)*
G04 #@! TF.CreationDate,2022-08-29T15:24:00+02:00*
G04 #@! TF.ProjectId,analog-buffer-six-channels,616e616c-6f67-42d6-9275-666665722d73,rev?*
G04 #@! TF.SameCoordinates,Original*
G04 #@! TF.FileFunction,Legend,Bot*
G04 #@! TF.FilePolarity,Positive*
%FSLAX46Y46*%
G04 Gerber Fmt 4.6, Leading zero omitted, Abs format (unit mm)*
G04 Created by KiCad (PCBNEW (6.0.6)) date 2022-08-29 15:24:00*
%MOMM*%
%LPD*%
G01*
G04 APERTURE LIST*
G04 Aperture macros list*
%AMRoundRect*
0 Rectangle with rounded corners*
0 $1 Rounding radius*
0 $2 $3 $4 $5 $6 $7 $8 $9 X,Y pos of 4 corners*
0 Add a 4 corners polygon primitive as box body*
4,1,4,$2,$3,$4,$5,$6,$7,$8,$9,$2,$3,0*
0 Add four circle primitives for the rounded corners*
1,1,$1+$1,$2,$3*
1,1,$1+$1,$4,$5*
1,1,$1+$1,$6,$7*
1,1,$1+$1,$8,$9*
0 Add four rect primitives between the rounded corners*
20,1,$1+$1,$2,$3,$4,$5,0*
20,1,$1+$1,$4,$5,$6,$7,0*
20,1,$1+$1,$6,$7,$8,$9,0*
20,1,$1+$1,$8,$9,$2,$3,0*%
G04 Aperture macros list end*
%ADD10C,0.150000*%
%ADD11C,0.120000*%
%ADD12C,3.200000*%
%ADD13R,1.700000X1.700000*%
%ADD14O,1.700000X1.700000*%
%ADD15RoundRect,0.250000X-0.250000X-0.475000X0.250000X-0.475000X0.250000X0.475000X-0.250000X0.475000X0*%
%ADD16RoundRect,0.250000X-0.262500X-0.450000X0.262500X-0.450000X0.262500X0.450000X-0.262500X0.450000X0*%
%ADD17RoundRect,0.250000X0.250000X0.475000X-0.250000X0.475000X-0.250000X-0.475000X0.250000X-0.475000X0*%
%ADD18RoundRect,0.250000X0.450000X-0.262500X0.450000X0.262500X-0.450000X0.262500X-0.450000X-0.262500X0*%
G04 APERTURE END LIST*
D10*
X73649666Y-57349200D02*
X73683000Y-57382533D01*
X73783000Y-57415866D01*
X73849666Y-57415866D01*
X73949666Y-57382533D01*
X74016333Y-57315866D01*
X74049666Y-57249200D01*
X74083000Y-57115866D01*
X74083000Y-57015866D01*
X74049666Y-56882533D01*
X74016333Y-56815866D01*
X73949666Y-56749200D01*
X73849666Y-56715866D01*
X73783000Y-56715866D01*
X73683000Y-56749200D01*
X73649666Y-56782533D01*
X73316333Y-57415866D02*
X73183000Y-57415866D01*
X73116333Y-57382533D01*
X73083000Y-57349200D01*
X73016333Y-57249200D01*
X72983000Y-57115866D01*
X72983000Y-56849200D01*
X73016333Y-56782533D01*
X73049666Y-56749200D01*
X73116333Y-56715866D01*
X73249666Y-56715866D01*
X73316333Y-56749200D01*
X73349666Y-56782533D01*
X73383000Y-56849200D01*
X73383000Y-57015866D01*
X73349666Y-57082533D01*
X73316333Y-57115866D01*
X73249666Y-57149200D01*
X73116333Y-57149200D01*
X73049666Y-57115866D01*
X73016333Y-57082533D01*
X72983000Y-57015866D01*
X73573466Y-54469466D02*
X73806800Y-54136133D01*
X73973466Y-54469466D02*
X73973466Y-53769466D01*
X73706800Y-53769466D01*
X73640133Y-53802800D01*
X73606800Y-53836133D01*
X73573466Y-53902800D01*
X73573466Y-54002800D01*
X73606800Y-54069466D01*
X73640133Y-54102800D01*
X73706800Y-54136133D01*
X73973466Y-54136133D01*
X73240133Y-54469466D02*
X73106800Y-54469466D01*
X73040133Y-54436133D01*
X73006800Y-54402800D01*
X72940133Y-54302800D01*
X72906800Y-54169466D01*
X72906800Y-53902800D01*
X72940133Y-53836133D01*
X72973466Y-53802800D01*
X73040133Y-53769466D01*
X73173466Y-53769466D01*
X73240133Y-53802800D01*
X73273466Y-53836133D01*
X73306800Y-53902800D01*
X73306800Y-54069466D01*
X73273466Y-54136133D01*
X73240133Y-54169466D01*
X73173466Y-54202800D01*
X73040133Y-54202800D01*
X72973466Y-54169466D01*
X72940133Y-54136133D01*
X72906800Y-54069466D01*
X73421066Y-37400666D02*
X73654400Y-37067333D01*
X73821066Y-37400666D02*
X73821066Y-36700666D01*
X73554400Y-36700666D01*
X73487733Y-36734000D01*
X73454400Y-36767333D01*
X73421066Y-36834000D01*
X73421066Y-36934000D01*
X73454400Y-37000666D01*
X73487733Y-37034000D01*
X73554400Y-37067333D01*
X73821066Y-37067333D01*
X72754400Y-37400666D02*
X73154400Y-37400666D01*
X72954400Y-37400666D02*
X72954400Y-36700666D01*
X73021066Y-36800666D01*
X73087733Y-36867333D01*
X73154400Y-36900666D01*
X73573466Y-45884266D02*
X73806800Y-45550933D01*
X73973466Y-45884266D02*
X73973466Y-45184266D01*
X73706800Y-45184266D01*
X73640133Y-45217600D01*
X73606800Y-45250933D01*
X73573466Y-45317600D01*
X73573466Y-45417600D01*
X73606800Y-45484266D01*
X73640133Y-45517600D01*
X73706800Y-45550933D01*
X73973466Y-45550933D01*
X72940133Y-45184266D02*
X73273466Y-45184266D01*
X73306800Y-45517600D01*
X73273466Y-45484266D01*
X73206800Y-45450933D01*
X73040133Y-45450933D01*
X72973466Y-45484266D01*
X72940133Y-45517600D01*
X72906800Y-45584266D01*
X72906800Y-45750933D01*
X72940133Y-45817600D01*
X72973466Y-45850933D01*
X73040133Y-45884266D01*
X73206800Y-45884266D01*
X73273466Y-45850933D01*
X73306800Y-45817600D01*
X63134066Y-42480666D02*
X63367400Y-42147333D01*
X63534066Y-42480666D02*
X63534066Y-41780666D01*
X63267400Y-41780666D01*
X63200733Y-41814000D01*
X63167400Y-41847333D01*
X63134066Y-41914000D01*
X63134066Y-42014000D01*
X63167400Y-42080666D01*
X63200733Y-42114000D01*
X63267400Y-42147333D01*
X63534066Y-42147333D01*
X62534066Y-42014000D02*
X62534066Y-42480666D01*
X62700733Y-41747333D02*
X62867400Y-42247333D01*
X62434066Y-42247333D01*
X73573466Y-48840200D02*
X73606800Y-48873533D01*
X73706800Y-48906866D01*
X73773466Y-48906866D01*
X73873466Y-48873533D01*
X73940133Y-48806866D01*
X73973466Y-48740200D01*
X74006800Y-48606866D01*
X74006800Y-48506866D01*
X73973466Y-48373533D01*
X73940133Y-48306866D01*
X73873466Y-48240200D01*
X73773466Y-48206866D01*
X73706800Y-48206866D01*
X73606800Y-48240200D01*
X73573466Y-48273533D01*
X73340133Y-48206866D02*
X72873466Y-48206866D01*
X73173466Y-48906866D01*
X63007066Y-50913466D02*
X63240400Y-50580133D01*
X63407066Y-50913466D02*
X63407066Y-50213466D01*
X63140400Y-50213466D01*
X63073733Y-50246800D01*
X63040400Y-50280133D01*
X63007066Y-50346800D01*
X63007066Y-50446800D01*
X63040400Y-50513466D01*
X63073733Y-50546800D01*
X63140400Y-50580133D01*
X63407066Y-50580133D01*
X62607066Y-50513466D02*
X62673733Y-50480133D01*
X62707066Y-50446800D01*
X62740400Y-50380133D01*
X62740400Y-50346800D01*
X62707066Y-50280133D01*
X62673733Y-50246800D01*
X62607066Y-50213466D01*
X62473733Y-50213466D01*
X62407066Y-50246800D01*
X62373733Y-50280133D01*
X62340400Y-50346800D01*
X62340400Y-50380133D01*
X62373733Y-50446800D01*
X62407066Y-50480133D01*
X62473733Y-50513466D01*
X62607066Y-50513466D01*
X62673733Y-50546800D01*
X62707066Y-50580133D01*
X62740400Y-50646800D01*
X62740400Y-50780133D01*
X62707066Y-50846800D01*
X62673733Y-50880133D01*
X62607066Y-50913466D01*
X62473733Y-50913466D01*
X62407066Y-50880133D01*
X62373733Y-50846800D01*
X62340400Y-50780133D01*
X62340400Y-50646800D01*
X62373733Y-50580133D01*
X62407066Y-50546800D01*
X62473733Y-50513466D01*
X63134066Y-39391400D02*
X63167400Y-39424733D01*
X63267400Y-39458066D01*
X63334066Y-39458066D01*
X63434066Y-39424733D01*
X63500733Y-39358066D01*
X63534066Y-39291400D01*
X63567400Y-39158066D01*
X63567400Y-39058066D01*
X63534066Y-38924733D01*
X63500733Y-38858066D01*
X63434066Y-38791400D01*
X63334066Y-38758066D01*
X63267400Y-38758066D01*
X63167400Y-38791400D01*
X63134066Y-38824733D01*
X62534066Y-38758066D02*
X62667400Y-38758066D01*
X62734066Y-38791400D01*
X62767400Y-38824733D01*
X62834066Y-38924733D01*
X62867400Y-39058066D01*
X62867400Y-39324733D01*
X62834066Y-39391400D01*
X62800733Y-39424733D01*
X62734066Y-39458066D01*
X62600733Y-39458066D01*
X62534066Y-39424733D01*
X62500733Y-39391400D01*
X62467400Y-39324733D01*
X62467400Y-39158066D01*
X62500733Y-39091400D01*
X62534066Y-39058066D01*
X62600733Y-39024733D01*
X62734066Y-39024733D01*
X62800733Y-39058066D01*
X62834066Y-39091400D01*
X62867400Y-39158066D01*
X67074200Y-52996266D02*
X67307533Y-52662933D01*
X67474200Y-52996266D02*
X67474200Y-52296266D01*
X67207533Y-52296266D01*
X67140866Y-52329600D01*
X67107533Y-52362933D01*
X67074200Y-52429600D01*
X67074200Y-52529600D01*
X67107533Y-52596266D01*
X67140866Y-52629600D01*
X67207533Y-52662933D01*
X67474200Y-52662933D01*
X66407533Y-52996266D02*
X66807533Y-52996266D01*
X66607533Y-52996266D02*
X66607533Y-52296266D01*
X66674200Y-52396266D01*
X66740866Y-52462933D01*
X66807533Y-52496266D01*
X65974200Y-52296266D02*
X65907533Y-52296266D01*
X65840866Y-52329600D01*
X65807533Y-52362933D01*
X65774200Y-52429600D01*
X65740866Y-52562933D01*
X65740866Y-52729600D01*
X65774200Y-52862933D01*
X65807533Y-52929600D01*
X65840866Y-52962933D01*
X65907533Y-52996266D01*
X65974200Y-52996266D01*
X66040866Y-52962933D01*
X66074200Y-52929600D01*
X66107533Y-52862933D01*
X66140866Y-52729600D01*
X66140866Y-52562933D01*
X66107533Y-52429600D01*
X66074200Y-52362933D01*
X66040866Y-52329600D01*
X65974200Y-52296266D01*
X72303466Y-42353666D02*
X72536800Y-42020333D01*
X72703466Y-42353666D02*
X72703466Y-41653666D01*
X72436800Y-41653666D01*
X72370133Y-41687000D01*
X72336800Y-41720333D01*
X72303466Y-41787000D01*
X72303466Y-41887000D01*
X72336800Y-41953666D01*
X72370133Y-41987000D01*
X72436800Y-42020333D01*
X72703466Y-42020333D01*
X72070133Y-41653666D02*
X71636800Y-41653666D01*
X71870133Y-41920333D01*
X71770133Y-41920333D01*
X71703466Y-41953666D01*
X71670133Y-41987000D01*
X71636800Y-42053666D01*
X71636800Y-42220333D01*
X71670133Y-42287000D01*
X71703466Y-42320333D01*
X71770133Y-42353666D01*
X71970133Y-42353666D01*
X72036800Y-42320333D01*
X72070133Y-42287000D01*
X62934000Y-56434800D02*
X62967333Y-56468133D01*
X63067333Y-56501466D01*
X63134000Y-56501466D01*
X63234000Y-56468133D01*
X63300666Y-56401466D01*
X63334000Y-56334800D01*
X63367333Y-56201466D01*
X63367333Y-56101466D01*
X63334000Y-55968133D01*
X63300666Y-55901466D01*
X63234000Y-55834800D01*
X63134000Y-55801466D01*
X63067333Y-55801466D01*
X62967333Y-55834800D01*
X62934000Y-55868133D01*
X62267333Y-56501466D02*
X62667333Y-56501466D01*
X62467333Y-56501466D02*
X62467333Y-55801466D01*
X62534000Y-55901466D01*
X62600666Y-55968133D01*
X62667333Y-56001466D01*
X61834000Y-55801466D02*
X61767333Y-55801466D01*
X61700666Y-55834800D01*
X61667333Y-55868133D01*
X61634000Y-55934800D01*
X61600666Y-56068133D01*
X61600666Y-56234800D01*
X61634000Y-56368133D01*
X61667333Y-56434800D01*
X61700666Y-56468133D01*
X61767333Y-56501466D01*
X61834000Y-56501466D01*
X61900666Y-56468133D01*
X61934000Y-56434800D01*
X61967333Y-56368133D01*
X62000666Y-56234800D01*
X62000666Y-56068133D01*
X61967333Y-55934800D01*
X61934000Y-55868133D01*
X61900666Y-55834800D01*
X61834000Y-55801466D01*
X73170200Y-59447866D02*
X73403533Y-59114533D01*
X73570200Y-59447866D02*
X73570200Y-58747866D01*
X73303533Y-58747866D01*
X73236866Y-58781200D01*
X73203533Y-58814533D01*
X73170200Y-58881200D01*
X73170200Y-58981200D01*
X73203533Y-59047866D01*
X73236866Y-59081200D01*
X73303533Y-59114533D01*
X73570200Y-59114533D01*
X72503533Y-59447866D02*
X72903533Y-59447866D01*
X72703533Y-59447866D02*
X72703533Y-58747866D01*
X72770200Y-58847866D01*
X72836866Y-58914533D01*
X72903533Y-58947866D01*
X71836866Y-59447866D02*
X72236866Y-59447866D01*
X72036866Y-59447866D02*
X72036866Y-58747866D01*
X72103533Y-58847866D01*
X72170200Y-58914533D01*
X72236866Y-58947866D01*
X67680666Y-44309466D02*
X67914000Y-43976133D01*
X68080666Y-44309466D02*
X68080666Y-43609466D01*
X67814000Y-43609466D01*
X67747333Y-43642800D01*
X67714000Y-43676133D01*
X67680666Y-43742800D01*
X67680666Y-43842800D01*
X67714000Y-43909466D01*
X67747333Y-43942800D01*
X67814000Y-43976133D01*
X68080666Y-43976133D01*
X67080666Y-43609466D02*
X67214000Y-43609466D01*
X67280666Y-43642800D01*
X67314000Y-43676133D01*
X67380666Y-43776133D01*
X67414000Y-43909466D01*
X67414000Y-44176133D01*
X67380666Y-44242800D01*
X67347333Y-44276133D01*
X67280666Y-44309466D01*
X67147333Y-44309466D01*
X67080666Y-44276133D01*
X67047333Y-44242800D01*
X67014000Y-44176133D01*
X67014000Y-44009466D01*
X67047333Y-43942800D01*
X67080666Y-43909466D01*
X67147333Y-43876133D01*
X67280666Y-43876133D01*
X67347333Y-43909466D01*
X67380666Y-43942800D01*
X67414000Y-44009466D01*
X55441000Y-66051866D02*
X55674333Y-65718533D01*
X55841000Y-66051866D02*
X55841000Y-65351866D01*
X55574333Y-65351866D01*
X55507666Y-65385200D01*
X55474333Y-65418533D01*
X55441000Y-65485200D01*
X55441000Y-65585200D01*
X55474333Y-65651866D01*
X55507666Y-65685200D01*
X55574333Y-65718533D01*
X55841000Y-65718533D01*
X54774333Y-66051866D02*
X55174333Y-66051866D01*
X54974333Y-66051866D02*
X54974333Y-65351866D01*
X55041000Y-65451866D01*
X55107666Y-65518533D01*
X55174333Y-65551866D01*
X54541000Y-65351866D02*
X54107666Y-65351866D01*
X54341000Y-65618533D01*
X54241000Y-65618533D01*
X54174333Y-65651866D01*
X54141000Y-65685200D01*
X54107666Y-65751866D01*
X54107666Y-65918533D01*
X54141000Y-65985200D01*
X54174333Y-66018533D01*
X54241000Y-66051866D01*
X54441000Y-66051866D01*
X54507666Y-66018533D01*
X54541000Y-65985200D01*
X73624266Y-40305800D02*
X73657600Y-40339133D01*
X73757600Y-40372466D01*
X73824266Y-40372466D01*
X73924266Y-40339133D01*
X73990933Y-40272466D01*
X74024266Y-40205800D01*
X74057600Y-40072466D01*
X74057600Y-39972466D01*
X74024266Y-39839133D01*
X73990933Y-39772466D01*
X73924266Y-39705800D01*
X73824266Y-39672466D01*
X73757600Y-39672466D01*
X73657600Y-39705800D01*
X73624266Y-39739133D01*
X72990933Y-39672466D02*
X73324266Y-39672466D01*
X73357600Y-40005800D01*
X73324266Y-39972466D01*
X73257600Y-39939133D01*
X73090933Y-39939133D01*
X73024266Y-39972466D01*
X72990933Y-40005800D01*
X72957600Y-40072466D01*
X72957600Y-40239133D01*
X72990933Y-40305800D01*
X73024266Y-40339133D01*
X73090933Y-40372466D01*
X73257600Y-40372466D01*
X73324266Y-40339133D01*
X73357600Y-40305800D01*
X63010200Y-59447866D02*
X63243533Y-59114533D01*
X63410200Y-59447866D02*
X63410200Y-58747866D01*
X63143533Y-58747866D01*
X63076866Y-58781200D01*
X63043533Y-58814533D01*
X63010200Y-58881200D01*
X63010200Y-58981200D01*
X63043533Y-59047866D01*
X63076866Y-59081200D01*
X63143533Y-59114533D01*
X63410200Y-59114533D01*
X62343533Y-59447866D02*
X62743533Y-59447866D01*
X62543533Y-59447866D02*
X62543533Y-58747866D01*
X62610200Y-58847866D01*
X62676866Y-58914533D01*
X62743533Y-58947866D01*
X62076866Y-58814533D02*
X62043533Y-58781200D01*
X61976866Y-58747866D01*
X61810200Y-58747866D01*
X61743533Y-58781200D01*
X61710200Y-58814533D01*
X61676866Y-58881200D01*
X61676866Y-58947866D01*
X61710200Y-59047866D01*
X62110200Y-59447866D01*
X61676866Y-59447866D01*
X72303466Y-50888066D02*
X72536800Y-50554733D01*
X72703466Y-50888066D02*
X72703466Y-50188066D01*
X72436800Y-50188066D01*
X72370133Y-50221400D01*
X72336800Y-50254733D01*
X72303466Y-50321400D01*
X72303466Y-50421400D01*
X72336800Y-50488066D01*
X72370133Y-50521400D01*
X72436800Y-50554733D01*
X72703466Y-50554733D01*
X72070133Y-50188066D02*
X71603466Y-50188066D01*
X71903466Y-50888066D01*
X62905466Y-47900400D02*
X62938800Y-47933733D01*
X63038800Y-47967066D01*
X63105466Y-47967066D01*
X63205466Y-47933733D01*
X63272133Y-47867066D01*
X63305466Y-47800400D01*
X63338800Y-47667066D01*
X63338800Y-47567066D01*
X63305466Y-47433733D01*
X63272133Y-47367066D01*
X63205466Y-47300400D01*
X63105466Y-47267066D01*
X63038800Y-47267066D01*
X62938800Y-47300400D01*
X62905466Y-47333733D01*
X62505466Y-47567066D02*
X62572133Y-47533733D01*
X62605466Y-47500400D01*
X62638800Y-47433733D01*
X62638800Y-47400400D01*
X62605466Y-47333733D01*
X62572133Y-47300400D01*
X62505466Y-47267066D01*
X62372133Y-47267066D01*
X62305466Y-47300400D01*
X62272133Y-47333733D01*
X62238800Y-47400400D01*
X62238800Y-47433733D01*
X62272133Y-47500400D01*
X62305466Y-47533733D01*
X62372133Y-47567066D01*
X62505466Y-47567066D01*
X62572133Y-47600400D01*
X62605466Y-47633733D01*
X62638800Y-47700400D01*
X62638800Y-47833733D01*
X62605466Y-47900400D01*
X62572133Y-47933733D01*
X62505466Y-47967066D01*
X62372133Y-47967066D01*
X62305466Y-47933733D01*
X62272133Y-47900400D01*
X62238800Y-47833733D01*
X62238800Y-47700400D01*
X62272133Y-47633733D01*
X62305466Y-47600400D01*
X62372133Y-47567066D01*
X54729800Y-63384866D02*
X54963133Y-63051533D01*
X55129800Y-63384866D02*
X55129800Y-62684866D01*
X54863133Y-62684866D01*
X54796466Y-62718200D01*
X54763133Y-62751533D01*
X54729800Y-62818200D01*
X54729800Y-62918200D01*
X54763133Y-62984866D01*
X54796466Y-63018200D01*
X54863133Y-63051533D01*
X55129800Y-63051533D01*
X54063133Y-63384866D02*
X54463133Y-63384866D01*
X54263133Y-63384866D02*
X54263133Y-62684866D01*
X54329800Y-62784866D01*
X54396466Y-62851533D01*
X54463133Y-62884866D01*
X53463133Y-62918200D02*
X53463133Y-63384866D01*
X53629800Y-62651533D02*
X53796466Y-63151533D01*
X53363133Y-63151533D01*
X64302466Y-37426066D02*
X64535800Y-37092733D01*
X64702466Y-37426066D02*
X64702466Y-36726066D01*
X64435800Y-36726066D01*
X64369133Y-36759400D01*
X64335800Y-36792733D01*
X64302466Y-36859400D01*
X64302466Y-36959400D01*
X64335800Y-37026066D01*
X64369133Y-37059400D01*
X64435800Y-37092733D01*
X64702466Y-37092733D01*
X64035800Y-36792733D02*
X64002466Y-36759400D01*
X63935800Y-36726066D01*
X63769133Y-36726066D01*
X63702466Y-36759400D01*
X63669133Y-36792733D01*
X63635800Y-36859400D01*
X63635800Y-36926066D01*
X63669133Y-37026066D01*
X64069133Y-37426066D01*
X63635800Y-37426066D01*
D11*
X70806048Y-56338800D02*
X71328552Y-56338800D01*
X70806048Y-57808800D02*
X71328552Y-57808800D01*
X70789436Y-54887800D02*
X71243564Y-54887800D01*
X70789436Y-53417800D02*
X71243564Y-53417800D01*
X70762136Y-36337800D02*
X71216264Y-36337800D01*
X70762136Y-37807800D02*
X71216264Y-37807800D01*
X70713236Y-44843800D02*
X71167364Y-44843800D01*
X70713236Y-46313800D02*
X71167364Y-46313800D01*
X65101736Y-42786200D02*
X65555864Y-42786200D01*
X65101736Y-41316200D02*
X65555864Y-41316200D01*
X70755248Y-49260200D02*
X71277752Y-49260200D01*
X70755248Y-47790200D02*
X71277752Y-47790200D01*
X65099836Y-49847600D02*
X65553964Y-49847600D01*
X65099836Y-51317600D02*
X65553964Y-51317600D01*
X65664352Y-38406400D02*
X65141848Y-38406400D01*
X65664352Y-39876400D02*
X65141848Y-39876400D01*
X66395236Y-53392400D02*
X66849364Y-53392400D01*
X66395236Y-54862400D02*
X66849364Y-54862400D01*
X69542936Y-41316200D02*
X69997064Y-41316200D01*
X69542936Y-42786200D02*
X69997064Y-42786200D01*
X65588152Y-56919800D02*
X65065648Y-56919800D01*
X65588152Y-55449800D02*
X65065648Y-55449800D01*
X69621036Y-59866200D02*
X70075164Y-59866200D01*
X69621036Y-58396200D02*
X70075164Y-58396200D01*
X66371736Y-44843800D02*
X66825864Y-44843800D01*
X66371736Y-46313800D02*
X66825864Y-46313800D01*
X57710336Y-66470200D02*
X58164464Y-66470200D01*
X57710336Y-65000200D02*
X58164464Y-65000200D01*
X70806048Y-40765400D02*
X71328552Y-40765400D01*
X70806048Y-39295400D02*
X71328552Y-39295400D01*
X65125236Y-58396200D02*
X65579364Y-58396200D01*
X65125236Y-59866200D02*
X65579364Y-59866200D01*
X69494036Y-49847600D02*
X69948164Y-49847600D01*
X69494036Y-51317600D02*
X69948164Y-51317600D01*
X65577952Y-46901200D02*
X65055448Y-46901200D01*
X65577952Y-48371200D02*
X65055448Y-48371200D01*
X53544800Y-60985764D02*
X53544800Y-60531636D01*
X55014800Y-60985764D02*
X55014800Y-60531636D01*
X66418736Y-37807800D02*
X66872864Y-37807800D01*
X66418736Y-36337800D02*
X66872864Y-36337800D01*
%LPC*%
D12*
X81508600Y-35788600D03*
D13*
X59066200Y-61678900D03*
D14*
X56526200Y-61678900D03*
X59066200Y-59138900D03*
X56526200Y-59138900D03*
X59066200Y-56598900D03*
X56526200Y-56598900D03*
X59066200Y-54058900D03*
X56526200Y-54058900D03*
X59066200Y-51518900D03*
X56526200Y-51518900D03*
X59066200Y-48978900D03*
X56526200Y-48978900D03*
X59066200Y-46438900D03*
X56526200Y-46438900D03*
X59066200Y-43898900D03*
X56526200Y-43898900D03*
X59066200Y-41358900D03*
X56526200Y-41358900D03*
X59066200Y-38818900D03*
X56526200Y-38818900D03*
D12*
X81508600Y-64770000D03*
D13*
X77890600Y-41378900D03*
D14*
X80430600Y-41378900D03*
X77890600Y-43918900D03*
X80430600Y-43918900D03*
X77890600Y-46458900D03*
X80430600Y-46458900D03*
X77890600Y-48998900D03*
X80430600Y-48998900D03*
X77890600Y-51538900D03*
X80430600Y-51538900D03*
X77890600Y-54078900D03*
X80430600Y-54078900D03*
X77890600Y-56618900D03*
X80430600Y-56618900D03*
X77890600Y-59158900D03*
X80430600Y-59158900D03*
D15*
X70117300Y-57073800D03*
X72017300Y-57073800D03*
D16*
X70104000Y-54152800D03*
X71929000Y-54152800D03*
X70076700Y-37072800D03*
X71901700Y-37072800D03*
X70027800Y-45578800D03*
X71852800Y-45578800D03*
X64416300Y-42051200D03*
X66241300Y-42051200D03*
D15*
X70066500Y-48525200D03*
X71966500Y-48525200D03*
D16*
X64414400Y-50582600D03*
X66239400Y-50582600D03*
D17*
X66353100Y-39141400D03*
X64453100Y-39141400D03*
D16*
X65709800Y-54127400D03*
X67534800Y-54127400D03*
X68857500Y-42051200D03*
X70682500Y-42051200D03*
D17*
X66276900Y-56184800D03*
X64376900Y-56184800D03*
D16*
X68935600Y-59131200D03*
X70760600Y-59131200D03*
X65686300Y-45578800D03*
X67511300Y-45578800D03*
X57024900Y-65735200D03*
X58849900Y-65735200D03*
D15*
X70117300Y-40030400D03*
X72017300Y-40030400D03*
D16*
X64439800Y-59131200D03*
X66264800Y-59131200D03*
X68808600Y-50582600D03*
X70633600Y-50582600D03*
D17*
X66266700Y-47636200D03*
X64366700Y-47636200D03*
D18*
X54279800Y-61671200D03*
X54279800Y-59846200D03*
D16*
X65733300Y-37072800D03*
X67558300Y-37072800D03*
M02*
