G04 #@! TF.GenerationSoftware,KiCad,Pcbnew,(6.0.6)*
G04 #@! TF.CreationDate,2022-08-29T15:24:00+02:00*
G04 #@! TF.ProjectId,analog-buffer-six-channels,616e616c-6f67-42d6-9275-666665722d73,rev?*
G04 #@! TF.SameCoordinates,Original*
G04 #@! TF.FileFunction,Copper,L1,Top*
G04 #@! TF.FilePolarity,Positive*
%FSLAX46Y46*%
G04 Gerber Fmt 4.6, Leading zero omitted, Abs format (unit mm)*
G04 Created by KiCad (PCBNEW (6.0.6)) date 2022-08-29 15:24:00*
%MOMM*%
%LPD*%
G01*
G04 APERTURE LIST*
G04 Aperture macros list*
%AMRoundRect*
0 Rectangle with rounded corners*
0 $1 Rounding radius*
0 $2 $3 $4 $5 $6 $7 $8 $9 X,Y pos of 4 corners*
0 Add a 4 corners polygon primitive as box body*
4,1,4,$2,$3,$4,$5,$6,$7,$8,$9,$2,$3,0*
0 Add four circle primitives for the rounded corners*
1,1,$1+$1,$2,$3*
1,1,$1+$1,$4,$5*
1,1,$1+$1,$6,$7*
1,1,$1+$1,$8,$9*
0 Add four rect primitives between the rounded corners*
20,1,$1+$1,$2,$3,$4,$5,0*
20,1,$1+$1,$4,$5,$6,$7,0*
20,1,$1+$1,$6,$7,$8,$9,0*
20,1,$1+$1,$8,$9,$2,$3,0*%
G04 Aperture macros list end*
G04 #@! TA.AperFunction,SMDPad,CuDef*
%ADD10RoundRect,0.150000X-0.150000X0.825000X-0.150000X-0.825000X0.150000X-0.825000X0.150000X0.825000X0*%
G04 #@! TD*
G04 #@! TA.AperFunction,SMDPad,CuDef*
%ADD11RoundRect,0.250000X-0.475000X0.250000X-0.475000X-0.250000X0.475000X-0.250000X0.475000X0.250000X0*%
G04 #@! TD*
G04 #@! TA.AperFunction,ComponentPad*
%ADD12R,1.700000X1.700000*%
G04 #@! TD*
G04 #@! TA.AperFunction,ComponentPad*
%ADD13O,1.700000X1.700000*%
G04 #@! TD*
G04 #@! TA.AperFunction,SMDPad,CuDef*
%ADD14RoundRect,0.250000X0.475000X-0.250000X0.475000X0.250000X-0.475000X0.250000X-0.475000X-0.250000X0*%
G04 #@! TD*
G04 #@! TA.AperFunction,SMDPad,CuDef*
%ADD15RoundRect,0.250000X-0.325000X-0.450000X0.325000X-0.450000X0.325000X0.450000X-0.325000X0.450000X0*%
G04 #@! TD*
G04 #@! TA.AperFunction,ViaPad*
%ADD16C,0.800000*%
G04 #@! TD*
G04 #@! TA.AperFunction,Conductor*
%ADD17C,0.300000*%
G04 #@! TD*
G04 #@! TA.AperFunction,Conductor*
%ADD18C,0.350000*%
G04 #@! TD*
G04 #@! TA.AperFunction,Conductor*
%ADD19C,0.254000*%
G04 #@! TD*
G04 #@! TA.AperFunction,Conductor*
%ADD20C,1.000000*%
G04 #@! TD*
G04 APERTURE END LIST*
D10*
X70076700Y-45618400D03*
X68806700Y-45618400D03*
X67536700Y-45618400D03*
X66266700Y-45618400D03*
X66266700Y-50568400D03*
X67536700Y-50568400D03*
X68806700Y-50568400D03*
X70076700Y-50568400D03*
D11*
X72009000Y-43652400D03*
X72009000Y-45552400D03*
D12*
X59066200Y-61678900D03*
D13*
X56526200Y-61678900D03*
X59066200Y-59138900D03*
X56526200Y-59138900D03*
X59066200Y-56598900D03*
X56526200Y-56598900D03*
X59066200Y-54058900D03*
X56526200Y-54058900D03*
X59066200Y-51518900D03*
X56526200Y-51518900D03*
X59066200Y-48978900D03*
X56526200Y-48978900D03*
X59066200Y-46438900D03*
X56526200Y-46438900D03*
X59066200Y-43898900D03*
X56526200Y-43898900D03*
X59066200Y-41358900D03*
X56526200Y-41358900D03*
X59066200Y-38818900D03*
X56526200Y-38818900D03*
D11*
X71983600Y-52212200D03*
X71983600Y-54112200D03*
D14*
X64363600Y-54300200D03*
X64363600Y-52400200D03*
D10*
X70102100Y-37087000D03*
X68832100Y-37087000D03*
X67562100Y-37087000D03*
X66292100Y-37087000D03*
X66292100Y-42037000D03*
X67562100Y-42037000D03*
X68832100Y-42037000D03*
X70102100Y-42037000D03*
X70102100Y-54167000D03*
X68832100Y-54167000D03*
X67562100Y-54167000D03*
X66292100Y-54167000D03*
X66292100Y-59117000D03*
X67562100Y-59117000D03*
X68832100Y-59117000D03*
X70102100Y-59117000D03*
D15*
X57014000Y-65735200D03*
X59064000Y-65735200D03*
D12*
X77890600Y-41378900D03*
D13*
X80430600Y-41378900D03*
X77890600Y-43918900D03*
X80430600Y-43918900D03*
X77890600Y-46458900D03*
X80430600Y-46458900D03*
X77890600Y-48998900D03*
X80430600Y-48998900D03*
X77890600Y-51538900D03*
X80430600Y-51538900D03*
X77890600Y-54078900D03*
X80430600Y-54078900D03*
X77890600Y-56618900D03*
X80430600Y-56618900D03*
X77890600Y-59158900D03*
X80430600Y-59158900D03*
D14*
X64389000Y-45654000D03*
X64389000Y-43754000D03*
D16*
X70117300Y-57073800D03*
X65582800Y-62128400D03*
X70066500Y-48525200D03*
X70117300Y-40030400D03*
X60934600Y-39776400D03*
X64363600Y-56032400D03*
X64389000Y-42062400D03*
X64389000Y-47625000D03*
X72009000Y-40030400D03*
X61112400Y-42519600D03*
X73456800Y-61417200D03*
X68046600Y-47879000D03*
X68275200Y-56540400D03*
X64363600Y-54305200D03*
X71907400Y-46990000D03*
X64820800Y-60960000D03*
X64389000Y-45643800D03*
X74041000Y-55118000D03*
X74168000Y-44145200D03*
X74117200Y-52019200D03*
X60934600Y-45288200D03*
X74320400Y-47701200D03*
X66353100Y-39141400D03*
X61188600Y-52882800D03*
X66276900Y-56184800D03*
X66266700Y-47636200D03*
X57048400Y-65709800D03*
X66254000Y-59120400D03*
X67534800Y-54127400D03*
X66217800Y-50546000D03*
X67511300Y-45578800D03*
X66241300Y-42051200D03*
X67541350Y-37055850D03*
X70129400Y-37033200D03*
X68832100Y-42037000D03*
X70053200Y-45618400D03*
X68806700Y-50568400D03*
X70102100Y-54167000D03*
X68832100Y-59117000D03*
D17*
X71717500Y-43652400D02*
X70102100Y-42037000D01*
X73112600Y-53478400D02*
X73112600Y-53341200D01*
X65582800Y-62128400D02*
X66040000Y-61671200D01*
X68910200Y-61671200D02*
X70459600Y-61671200D01*
X70102100Y-60479300D02*
X70102100Y-59117000D01*
D18*
X70076700Y-50568400D02*
X70076700Y-48535400D01*
D17*
X73112600Y-53341200D02*
X71983600Y-52212200D01*
X66040000Y-61671200D02*
X68910200Y-61671200D01*
D19*
X59066200Y-65733000D02*
X59066200Y-61678900D01*
D17*
X72009000Y-43652400D02*
X71717500Y-43652400D01*
X73112600Y-46098696D02*
X73138000Y-46073296D01*
D18*
X70102100Y-59117000D02*
X70102100Y-57089000D01*
D17*
X73112600Y-53478400D02*
X73112600Y-46098696D01*
D18*
X70102100Y-40045600D02*
X70117300Y-40030400D01*
D17*
X71720500Y-52212200D02*
X70076700Y-50568400D01*
D19*
X59064000Y-65735200D02*
X59066200Y-65733000D01*
D17*
X70459600Y-61671200D02*
X73112600Y-59018200D01*
D18*
X70102100Y-57089000D02*
X70117300Y-57073800D01*
D17*
X73138000Y-46073296D02*
X73138000Y-44781400D01*
X68910200Y-61671200D02*
X70102100Y-60479300D01*
X71983600Y-52212200D02*
X71720500Y-52212200D01*
D18*
X70102100Y-42037000D02*
X70102100Y-40045600D01*
D17*
X73112600Y-59018200D02*
X73112600Y-53478400D01*
X73138000Y-44781400D02*
X72009000Y-43652400D01*
D18*
X70076700Y-48535400D02*
X70066500Y-48525200D01*
D17*
X61188600Y-52882800D02*
X61671200Y-52400200D01*
X61671200Y-52400200D02*
X64363600Y-52400200D01*
X61188600Y-52882800D02*
X62611000Y-51460400D01*
X66292100Y-37087000D02*
X66292100Y-39080400D01*
X62611000Y-45532000D02*
X64389000Y-43754000D01*
X62611000Y-40768100D02*
X66292100Y-37087000D01*
X66292100Y-54167000D02*
X66292100Y-56169600D01*
X66266700Y-45618400D02*
X66266700Y-47636200D01*
X62611000Y-45532000D02*
X62611000Y-40768100D01*
X64402300Y-43754000D02*
X66266700Y-45618400D01*
X66292100Y-56169600D02*
X66276900Y-56184800D01*
X66292100Y-39080400D02*
X66353100Y-39141400D01*
X64389000Y-43754000D02*
X64402300Y-43754000D01*
X64363600Y-52400200D02*
X64525300Y-52400200D01*
X64525300Y-52400200D02*
X66292100Y-54167000D01*
X62611000Y-51460400D02*
X62611000Y-45532000D01*
D20*
X63652400Y-63169800D02*
X64668400Y-64185800D01*
X64668400Y-64185800D02*
X74218800Y-64185800D01*
X75539600Y-62865000D02*
X75539600Y-57785000D01*
X76705700Y-56618900D02*
X77890600Y-56618900D01*
X59066200Y-54058900D02*
X60535900Y-54058900D01*
X75539600Y-57785000D02*
X76705700Y-56618900D01*
X60535900Y-54058900D02*
X63652400Y-57175400D01*
X74218800Y-64185800D02*
X75539600Y-62865000D01*
X63652400Y-57175400D02*
X63652400Y-63169800D01*
X60434300Y-56598900D02*
X61798200Y-57962800D01*
X77890600Y-64120800D02*
X77890600Y-59158900D01*
X61798200Y-57962800D02*
X61798200Y-64744600D01*
X59066200Y-56598900D02*
X60434300Y-56598900D01*
X63042800Y-65989200D02*
X76022200Y-65989200D01*
X61798200Y-64744600D02*
X63042800Y-65989200D01*
X76022200Y-65989200D02*
X77890600Y-64120800D01*
D19*
X68832100Y-37087000D02*
X70129400Y-37033200D01*
X70129400Y-37033200D02*
X70102100Y-37087000D01*
X67562100Y-42037000D02*
X68832100Y-42037000D01*
X68806700Y-45618400D02*
X70053200Y-45618400D01*
X70053200Y-45618400D02*
X70076700Y-45618400D01*
X67536700Y-50568400D02*
X68806700Y-50568400D01*
X68832100Y-54167000D02*
X70102100Y-54167000D01*
X67562100Y-59117000D02*
X68832100Y-59117000D01*
G04 #@! TA.AperFunction,Conductor*
G36*
X83972821Y-33261102D02*
G01*
X84019314Y-33314758D01*
X84030700Y-33367100D01*
X84030700Y-67140700D01*
X84010698Y-67208821D01*
X83957042Y-67255314D01*
X83904700Y-67266700D01*
X53077500Y-67266700D01*
X53009379Y-67246698D01*
X52962886Y-67193042D01*
X52951500Y-67140700D01*
X52951500Y-66232956D01*
X56184500Y-66232956D01*
X56191202Y-66294648D01*
X56241929Y-66429964D01*
X56247309Y-66437143D01*
X56247311Y-66437146D01*
X56287216Y-66490391D01*
X56328596Y-66545604D01*
X56337081Y-66551963D01*
X56437054Y-66626889D01*
X56437057Y-66626891D01*
X56444236Y-66632271D01*
X56529989Y-66664418D01*
X56572157Y-66680226D01*
X56572159Y-66680226D01*
X56579552Y-66682998D01*
X56587402Y-66683851D01*
X56587403Y-66683851D01*
X56637847Y-66689331D01*
X56641244Y-66689700D01*
X57386756Y-66689700D01*
X57390153Y-66689331D01*
X57440597Y-66683851D01*
X57440598Y-66683851D01*
X57448448Y-66682998D01*
X57455841Y-66680226D01*
X57455843Y-66680226D01*
X57498011Y-66664418D01*
X57583764Y-66632271D01*
X57590943Y-66626891D01*
X57590946Y-66626889D01*
X57690919Y-66551963D01*
X57699404Y-66545604D01*
X57740784Y-66490391D01*
X57780689Y-66437146D01*
X57780691Y-66437143D01*
X57786071Y-66429964D01*
X57836798Y-66294648D01*
X57843500Y-66232956D01*
X57843500Y-65237444D01*
X57836798Y-65175752D01*
X57826128Y-65147288D01*
X57802677Y-65084734D01*
X57786071Y-65040436D01*
X57780691Y-65033257D01*
X57780689Y-65033254D01*
X57712470Y-64942230D01*
X57699404Y-64924796D01*
X57647837Y-64886149D01*
X57590946Y-64843511D01*
X57590943Y-64843509D01*
X57583764Y-64838129D01*
X57494046Y-64804496D01*
X57455843Y-64790174D01*
X57455841Y-64790174D01*
X57448448Y-64787402D01*
X57440598Y-64786549D01*
X57440597Y-64786549D01*
X57390153Y-64781069D01*
X57390152Y-64781069D01*
X57386756Y-64780700D01*
X56641244Y-64780700D01*
X56637848Y-64781069D01*
X56637847Y-64781069D01*
X56587403Y-64786549D01*
X56587402Y-64786549D01*
X56579552Y-64787402D01*
X56572159Y-64790174D01*
X56572157Y-64790174D01*
X56533954Y-64804496D01*
X56444236Y-64838129D01*
X56437057Y-64843509D01*
X56437054Y-64843511D01*
X56380163Y-64886149D01*
X56328596Y-64924796D01*
X56315530Y-64942230D01*
X56247311Y-65033254D01*
X56247309Y-65033257D01*
X56241929Y-65040436D01*
X56225323Y-65084734D01*
X56201873Y-65147288D01*
X56191202Y-65175752D01*
X56184500Y-65237444D01*
X56184500Y-66232956D01*
X52951500Y-66232956D01*
X52951500Y-61649864D01*
X55417348Y-61649864D01*
X55430624Y-61852422D01*
X55432045Y-61858018D01*
X55432046Y-61858023D01*
X55479171Y-62043574D01*
X55480592Y-62049169D01*
X55483009Y-62054412D01*
X55520210Y-62135108D01*
X55565577Y-62233516D01*
X55682733Y-62399289D01*
X55828138Y-62540935D01*
X55996920Y-62653712D01*
X56002223Y-62655990D01*
X56002226Y-62655992D01*
X56133483Y-62712384D01*
X56183428Y-62733842D01*
X56225377Y-62743334D01*
X56375779Y-62777367D01*
X56375784Y-62777368D01*
X56381416Y-62778642D01*
X56387187Y-62778869D01*
X56387189Y-62778869D01*
X56446956Y-62781217D01*
X56584253Y-62786612D01*
X56691548Y-62771055D01*
X56779431Y-62758313D01*
X56779436Y-62758312D01*
X56785145Y-62757484D01*
X56790609Y-62755629D01*
X56790614Y-62755628D01*
X56971893Y-62694092D01*
X56971898Y-62694090D01*
X56977365Y-62692234D01*
X57003584Y-62677551D01*
X57051883Y-62650502D01*
X57154476Y-62593047D01*
X57170640Y-62579604D01*
X57306113Y-62466931D01*
X57310545Y-62463245D01*
X57440347Y-62307176D01*
X57539534Y-62130065D01*
X57541390Y-62124598D01*
X57541392Y-62124593D01*
X57602928Y-61943314D01*
X57602929Y-61943309D01*
X57604784Y-61937845D01*
X57605612Y-61932136D01*
X57605613Y-61932131D01*
X57633379Y-61740627D01*
X57633912Y-61736953D01*
X57635432Y-61678900D01*
X57616858Y-61476759D01*
X57615290Y-61471199D01*
X57563325Y-61286946D01*
X57563324Y-61286944D01*
X57561757Y-61281387D01*
X57554515Y-61266700D01*
X57474531Y-61104509D01*
X57471976Y-61099328D01*
X57350520Y-60936679D01*
X57206809Y-60803833D01*
X57961700Y-60803833D01*
X57961701Y-62553966D01*
X57976466Y-62628201D01*
X57983361Y-62638520D01*
X57983362Y-62638522D01*
X58023716Y-62698915D01*
X58032716Y-62712384D01*
X58116899Y-62768634D01*
X58191133Y-62783400D01*
X58558700Y-62783400D01*
X58626821Y-62803402D01*
X58673314Y-62857058D01*
X58684700Y-62909400D01*
X58684700Y-64679400D01*
X58664698Y-64747521D01*
X58611042Y-64794014D01*
X58602929Y-64797382D01*
X58563440Y-64812186D01*
X58494236Y-64838129D01*
X58487057Y-64843509D01*
X58487054Y-64843511D01*
X58430163Y-64886149D01*
X58378596Y-64924796D01*
X58365530Y-64942230D01*
X58297311Y-65033254D01*
X58297309Y-65033257D01*
X58291929Y-65040436D01*
X58275323Y-65084734D01*
X58251873Y-65147288D01*
X58241202Y-65175752D01*
X58234500Y-65237444D01*
X58234500Y-66232956D01*
X58241202Y-66294648D01*
X58291929Y-66429964D01*
X58297309Y-66437143D01*
X58297311Y-66437146D01*
X58337216Y-66490391D01*
X58378596Y-66545604D01*
X58387081Y-66551963D01*
X58487054Y-66626889D01*
X58487057Y-66626891D01*
X58494236Y-66632271D01*
X58579989Y-66664418D01*
X58622157Y-66680226D01*
X58622159Y-66680226D01*
X58629552Y-66682998D01*
X58637402Y-66683851D01*
X58637403Y-66683851D01*
X58687847Y-66689331D01*
X58691244Y-66689700D01*
X59436756Y-66689700D01*
X59440153Y-66689331D01*
X59490597Y-66683851D01*
X59490598Y-66683851D01*
X59498448Y-66682998D01*
X59505841Y-66680226D01*
X59505843Y-66680226D01*
X59548011Y-66664418D01*
X59633764Y-66632271D01*
X59640943Y-66626891D01*
X59640946Y-66626889D01*
X59740919Y-66551963D01*
X59749404Y-66545604D01*
X59790784Y-66490391D01*
X59830689Y-66437146D01*
X59830691Y-66437143D01*
X59836071Y-66429964D01*
X59886798Y-66294648D01*
X59893500Y-66232956D01*
X59893500Y-65237444D01*
X59886798Y-65175752D01*
X59876128Y-65147288D01*
X59852677Y-65084734D01*
X59836071Y-65040436D01*
X59830691Y-65033257D01*
X59830689Y-65033254D01*
X59762470Y-64942230D01*
X59749404Y-64924796D01*
X59697837Y-64886149D01*
X59640946Y-64843511D01*
X59640943Y-64843509D01*
X59633764Y-64838129D01*
X59529471Y-64799032D01*
X59472706Y-64756391D01*
X59448006Y-64689830D01*
X59447700Y-64681050D01*
X59447700Y-62909399D01*
X59467702Y-62841278D01*
X59521358Y-62794785D01*
X59573700Y-62783399D01*
X59941266Y-62783399D01*
X59977018Y-62776288D01*
X60003326Y-62771056D01*
X60003328Y-62771055D01*
X60015501Y-62768634D01*
X60025821Y-62761739D01*
X60025822Y-62761738D01*
X60089368Y-62719277D01*
X60099684Y-62712384D01*
X60155934Y-62628201D01*
X60170700Y-62553967D01*
X60170699Y-60803834D01*
X60155934Y-60729599D01*
X60143634Y-60711190D01*
X60106577Y-60655732D01*
X60099684Y-60645416D01*
X60015501Y-60589166D01*
X59941267Y-60574400D01*
X59066342Y-60574400D01*
X58191134Y-60574401D01*
X58155382Y-60581512D01*
X58129074Y-60586744D01*
X58129072Y-60586745D01*
X58116899Y-60589166D01*
X58106579Y-60596061D01*
X58106578Y-60596062D01*
X58062158Y-60625743D01*
X58032716Y-60645416D01*
X57976466Y-60729599D01*
X57961700Y-60803833D01*
X57206809Y-60803833D01*
X57201458Y-60798887D01*
X57196575Y-60795806D01*
X57196571Y-60795803D01*
X57034664Y-60693648D01*
X57029781Y-60690567D01*
X56841239Y-60615346D01*
X56835579Y-60614220D01*
X56835575Y-60614219D01*
X56647813Y-60576871D01*
X56647810Y-60576871D01*
X56642146Y-60575744D01*
X56636371Y-60575668D01*
X56636367Y-60575668D01*
X56534993Y-60574341D01*
X56439171Y-60573087D01*
X56433474Y-60574066D01*
X56433473Y-60574066D01*
X56244807Y-60606485D01*
X56239110Y-60607464D01*
X56048663Y-60677724D01*
X55874210Y-60781512D01*
X55869870Y-60785318D01*
X55869866Y-60785321D01*
X55725933Y-60911548D01*
X55721592Y-60915355D01*
X55595920Y-61074769D01*
X55593231Y-61079880D01*
X55593229Y-61079883D01*
X55580273Y-61104509D01*
X55501403Y-61254415D01*
X55441207Y-61448278D01*
X55417348Y-61649864D01*
X52951500Y-61649864D01*
X52951500Y-59405862D01*
X55454871Y-59405862D01*
X55479643Y-59503402D01*
X55483484Y-59514248D01*
X55563594Y-59688020D01*
X55569345Y-59697981D01*
X55679779Y-59854243D01*
X55687257Y-59862998D01*
X55824314Y-59996512D01*
X55833258Y-60003755D01*
X55992356Y-60110061D01*
X56002466Y-60115551D01*
X56178277Y-60191085D01*
X56189220Y-60194640D01*
X56254532Y-60209419D01*
X56268605Y-60208530D01*
X56272028Y-60199581D01*
X56780200Y-60199581D01*
X56784166Y-60213087D01*
X56792872Y-60214333D01*
X56971697Y-60153630D01*
X56982194Y-60148956D01*
X57149158Y-60055452D01*
X57158630Y-60048942D01*
X57305753Y-59926582D01*
X57313882Y-59918453D01*
X57436242Y-59771330D01*
X57442752Y-59761858D01*
X57536256Y-59594894D01*
X57540930Y-59584397D01*
X57601535Y-59405862D01*
X57994871Y-59405862D01*
X58019643Y-59503402D01*
X58023484Y-59514248D01*
X58103594Y-59688020D01*
X58109345Y-59697981D01*
X58219779Y-59854243D01*
X58227257Y-59862998D01*
X58364314Y-59996512D01*
X58373258Y-60003755D01*
X58532356Y-60110061D01*
X58542466Y-60115551D01*
X58718277Y-60191085D01*
X58729220Y-60194640D01*
X58794532Y-60209419D01*
X58808605Y-60208530D01*
X58812028Y-60199581D01*
X59320200Y-60199581D01*
X59324166Y-60213087D01*
X59332872Y-60214333D01*
X59511697Y-60153630D01*
X59522194Y-60148956D01*
X59689158Y-60055452D01*
X59698630Y-60048942D01*
X59845753Y-59926582D01*
X59853882Y-59918453D01*
X59976242Y-59771330D01*
X59982752Y-59761858D01*
X60076256Y-59594894D01*
X60080930Y-59584397D01*
X60141643Y-59405544D01*
X60140410Y-59396893D01*
X60126842Y-59392900D01*
X59338315Y-59392900D01*
X59323076Y-59397375D01*
X59321871Y-59398765D01*
X59320200Y-59406448D01*
X59320200Y-60199581D01*
X58812028Y-60199581D01*
X58812200Y-60199132D01*
X58812200Y-59411015D01*
X58807725Y-59395776D01*
X58806335Y-59394571D01*
X58798652Y-59392900D01*
X58009694Y-59392900D01*
X57996163Y-59396873D01*
X57994871Y-59405862D01*
X57601535Y-59405862D01*
X57601643Y-59405544D01*
X57600410Y-59396893D01*
X57586842Y-59392900D01*
X56798315Y-59392900D01*
X56783076Y-59397375D01*
X56781871Y-59398765D01*
X56780200Y-59406448D01*
X56780200Y-60199581D01*
X56272028Y-60199581D01*
X56272200Y-60199132D01*
X56272200Y-59411015D01*
X56267725Y-59395776D01*
X56266335Y-59394571D01*
X56258652Y-59392900D01*
X55469694Y-59392900D01*
X55456163Y-59396873D01*
X55454871Y-59405862D01*
X52951500Y-59405862D01*
X52951500Y-58881699D01*
X55454143Y-58881699D01*
X55460875Y-58884900D01*
X56254085Y-58884900D01*
X56269324Y-58880425D01*
X56270529Y-58879035D01*
X56272200Y-58871352D01*
X56272200Y-58866785D01*
X56780200Y-58866785D01*
X56784675Y-58882024D01*
X56786065Y-58883229D01*
X56793748Y-58884900D01*
X57583598Y-58884900D01*
X57594500Y-58881699D01*
X57994143Y-58881699D01*
X58000875Y-58884900D01*
X58794085Y-58884900D01*
X58809324Y-58880425D01*
X58810529Y-58879035D01*
X58812200Y-58871352D01*
X58812200Y-58866785D01*
X59320200Y-58866785D01*
X59324675Y-58882024D01*
X59326065Y-58883229D01*
X59333748Y-58884900D01*
X60123598Y-58884900D01*
X60137129Y-58880927D01*
X60138298Y-58872792D01*
X60102858Y-58747131D01*
X60098733Y-58736384D01*
X60014103Y-58564771D01*
X60008093Y-58554963D01*
X59893600Y-58401639D01*
X59885910Y-58393099D01*
X59745392Y-58263204D01*
X59736267Y-58256203D01*
X59574436Y-58154095D01*
X59564189Y-58148874D01*
X59386460Y-58077968D01*
X59375432Y-58074701D01*
X59337969Y-58067250D01*
X59325094Y-58068402D01*
X59320200Y-58083558D01*
X59320200Y-58866785D01*
X58812200Y-58866785D01*
X58812200Y-58080400D01*
X58808394Y-58067438D01*
X58793479Y-58065502D01*
X58784932Y-58066971D01*
X58773820Y-58069948D01*
X58594295Y-58136179D01*
X58583917Y-58141129D01*
X58419473Y-58238963D01*
X58410161Y-58245729D01*
X58266297Y-58371894D01*
X58258380Y-58380237D01*
X58139918Y-58530505D01*
X58133650Y-58540156D01*
X58044558Y-58709492D01*
X58040153Y-58720127D01*
X57994362Y-58867598D01*
X57994143Y-58881699D01*
X57594500Y-58881699D01*
X57597129Y-58880927D01*
X57598298Y-58872792D01*
X57562858Y-58747131D01*
X57558733Y-58736384D01*
X57474103Y-58564771D01*
X57468093Y-58554963D01*
X57353600Y-58401639D01*
X57345910Y-58393099D01*
X57205392Y-58263204D01*
X57196267Y-58256203D01*
X57034436Y-58154095D01*
X57024189Y-58148874D01*
X56846460Y-58077968D01*
X56835432Y-58074701D01*
X56797969Y-58067250D01*
X56785094Y-58068402D01*
X56780200Y-58083558D01*
X56780200Y-58866785D01*
X56272200Y-58866785D01*
X56272200Y-58080400D01*
X56268394Y-58067438D01*
X56253479Y-58065502D01*
X56244932Y-58066971D01*
X56233820Y-58069948D01*
X56054295Y-58136179D01*
X56043917Y-58141129D01*
X55879473Y-58238963D01*
X55870161Y-58245729D01*
X55726297Y-58371894D01*
X55718380Y-58380237D01*
X55599918Y-58530505D01*
X55593650Y-58540156D01*
X55504558Y-58709492D01*
X55500153Y-58720127D01*
X55454362Y-58867598D01*
X55454143Y-58881699D01*
X52951500Y-58881699D01*
X52951500Y-56865862D01*
X55454871Y-56865862D01*
X55479643Y-56963402D01*
X55483484Y-56974248D01*
X55563594Y-57148020D01*
X55569345Y-57157981D01*
X55679779Y-57314243D01*
X55687257Y-57322998D01*
X55824314Y-57456512D01*
X55833258Y-57463755D01*
X55992356Y-57570061D01*
X56002466Y-57575551D01*
X56178277Y-57651085D01*
X56189220Y-57654640D01*
X56254532Y-57669419D01*
X56268605Y-57668530D01*
X56272028Y-57659581D01*
X56780200Y-57659581D01*
X56784166Y-57673087D01*
X56792872Y-57674333D01*
X56971697Y-57613630D01*
X56982194Y-57608956D01*
X57149158Y-57515452D01*
X57158630Y-57508942D01*
X57305753Y-57386582D01*
X57313882Y-57378453D01*
X57436242Y-57231330D01*
X57442752Y-57221858D01*
X57536256Y-57054894D01*
X57540930Y-57044397D01*
X57601643Y-56865544D01*
X57600410Y-56856893D01*
X57586842Y-56852900D01*
X56798315Y-56852900D01*
X56783076Y-56857375D01*
X56781871Y-56858765D01*
X56780200Y-56866448D01*
X56780200Y-57659581D01*
X56272028Y-57659581D01*
X56272200Y-57659132D01*
X56272200Y-56871015D01*
X56267725Y-56855776D01*
X56266335Y-56854571D01*
X56258652Y-56852900D01*
X55469694Y-56852900D01*
X55456163Y-56856873D01*
X55454871Y-56865862D01*
X52951500Y-56865862D01*
X52951500Y-56569864D01*
X57957348Y-56569864D01*
X57965672Y-56696873D01*
X57969550Y-56756028D01*
X57970624Y-56772422D01*
X57972045Y-56778018D01*
X57972046Y-56778023D01*
X58011250Y-56932387D01*
X58020592Y-56969169D01*
X58023009Y-56974412D01*
X58103043Y-57148020D01*
X58105577Y-57153516D01*
X58108910Y-57158232D01*
X58168228Y-57242165D01*
X58222733Y-57319289D01*
X58226875Y-57323324D01*
X58278280Y-57373400D01*
X58368138Y-57460935D01*
X58372942Y-57464145D01*
X58392028Y-57476898D01*
X58536920Y-57573712D01*
X58542223Y-57575990D01*
X58542226Y-57575992D01*
X58717011Y-57651085D01*
X58723428Y-57653842D01*
X58788340Y-57668530D01*
X58915779Y-57697367D01*
X58915784Y-57697368D01*
X58921416Y-57698642D01*
X58927187Y-57698869D01*
X58927189Y-57698869D01*
X58986956Y-57701217D01*
X59124253Y-57706612D01*
X59231182Y-57691108D01*
X59319431Y-57678313D01*
X59319436Y-57678312D01*
X59325145Y-57677484D01*
X59330609Y-57675629D01*
X59330614Y-57675628D01*
X59511893Y-57614092D01*
X59511898Y-57614090D01*
X59517365Y-57612234D01*
X59523219Y-57608956D01*
X59640996Y-57542997D01*
X59694476Y-57513047D01*
X59704627Y-57504605D01*
X59850545Y-57383245D01*
X59852145Y-57385169D01*
X59905051Y-57356279D01*
X59931834Y-57353400D01*
X60069584Y-57353400D01*
X60137705Y-57373402D01*
X60158679Y-57390304D01*
X61006795Y-58238419D01*
X61040820Y-58300732D01*
X61043700Y-58327515D01*
X61043700Y-64677835D01*
X61042267Y-64696785D01*
X61040219Y-64710248D01*
X61039026Y-64718089D01*
X61039619Y-64725380D01*
X61039619Y-64725383D01*
X61043285Y-64770448D01*
X61043700Y-64780663D01*
X61043700Y-64788653D01*
X61044125Y-64792297D01*
X61046971Y-64816713D01*
X61047404Y-64821087D01*
X61051911Y-64876488D01*
X61053290Y-64893447D01*
X61055545Y-64900409D01*
X61056718Y-64906277D01*
X61058090Y-64912084D01*
X61058938Y-64919354D01*
X61083732Y-64987660D01*
X61085140Y-64991763D01*
X61107512Y-65060822D01*
X61111309Y-65067079D01*
X61113802Y-65072526D01*
X61116470Y-65077854D01*
X61118968Y-65084734D01*
X61122982Y-65090856D01*
X61158768Y-65145439D01*
X61161115Y-65149159D01*
X61195873Y-65206438D01*
X61198783Y-65211233D01*
X61202495Y-65215436D01*
X61206149Y-65219574D01*
X61206124Y-65219596D01*
X61208824Y-65222641D01*
X61211420Y-65225746D01*
X61215434Y-65231868D01*
X61220747Y-65236901D01*
X61271327Y-65284816D01*
X61273769Y-65287194D01*
X62462077Y-66475501D01*
X62474462Y-66489912D01*
X62487237Y-66507271D01*
X62496169Y-66514859D01*
X62527279Y-66541289D01*
X62534795Y-66548219D01*
X62540438Y-66553862D01*
X62562622Y-66571414D01*
X62565996Y-66574181D01*
X62621320Y-66621182D01*
X62627839Y-66624511D01*
X62632813Y-66627828D01*
X62637889Y-66630963D01*
X62643632Y-66635507D01*
X62650264Y-66638606D01*
X62650263Y-66638606D01*
X62709418Y-66666253D01*
X62713370Y-66668185D01*
X62778012Y-66701193D01*
X62785120Y-66702932D01*
X62790718Y-66705014D01*
X62796391Y-66706901D01*
X62803021Y-66710000D01*
X62856525Y-66721129D01*
X62874103Y-66724785D01*
X62878375Y-66725752D01*
X62948908Y-66743011D01*
X62954510Y-66743359D01*
X62954513Y-66743359D01*
X62960014Y-66743700D01*
X62960012Y-66743734D01*
X62964071Y-66743977D01*
X62968105Y-66744337D01*
X62975273Y-66745828D01*
X62982590Y-66745630D01*
X63052215Y-66743746D01*
X63055623Y-66743700D01*
X75955435Y-66743700D01*
X75974385Y-66745133D01*
X75988455Y-66747274D01*
X75988459Y-66747274D01*
X75995689Y-66748374D01*
X76002980Y-66747781D01*
X76002983Y-66747781D01*
X76048048Y-66744115D01*
X76058263Y-66743700D01*
X76066253Y-66743700D01*
X76073502Y-66742855D01*
X76094313Y-66740429D01*
X76098687Y-66739996D01*
X76163749Y-66734704D01*
X76163752Y-66734703D01*
X76171047Y-66734110D01*
X76178009Y-66731855D01*
X76183877Y-66730682D01*
X76189684Y-66729310D01*
X76196954Y-66728462D01*
X76265260Y-66703668D01*
X76269363Y-66702260D01*
X76338422Y-66679888D01*
X76344679Y-66676091D01*
X76350126Y-66673598D01*
X76355454Y-66670930D01*
X76362334Y-66668432D01*
X76423049Y-66628626D01*
X76426759Y-66626285D01*
X76484038Y-66591527D01*
X76484040Y-66591525D01*
X76488833Y-66588617D01*
X76497174Y-66581251D01*
X76497196Y-66581276D01*
X76500241Y-66578576D01*
X76503346Y-66575980D01*
X76509468Y-66571966D01*
X76562416Y-66516073D01*
X76564793Y-66513632D01*
X78266239Y-64812186D01*
X79649618Y-64812186D01*
X79675179Y-65080100D01*
X79676264Y-65084534D01*
X79676265Y-65084540D01*
X79718265Y-65256180D01*
X79739147Y-65341518D01*
X79840183Y-65590963D01*
X79976169Y-65823210D01*
X80144258Y-66033395D01*
X80340927Y-66217113D01*
X80562057Y-66370516D01*
X80803016Y-66490391D01*
X80807350Y-66491812D01*
X80807353Y-66491813D01*
X81054423Y-66572807D01*
X81054429Y-66572808D01*
X81058756Y-66574227D01*
X81063247Y-66575007D01*
X81063248Y-66575007D01*
X81320138Y-66619611D01*
X81320146Y-66619612D01*
X81323919Y-66620267D01*
X81327756Y-66620458D01*
X81407377Y-66624422D01*
X81407385Y-66624422D01*
X81408948Y-66624500D01*
X81576974Y-66624500D01*
X81579242Y-66624335D01*
X81579254Y-66624335D01*
X81710057Y-66614844D01*
X81777025Y-66609985D01*
X81781480Y-66609001D01*
X81781483Y-66609001D01*
X82035370Y-66552947D01*
X82035372Y-66552946D01*
X82039826Y-66551963D01*
X82291500Y-66456613D01*
X82354608Y-66421560D01*
X82522779Y-66328149D01*
X82522780Y-66328148D01*
X82526772Y-66325931D01*
X82644147Y-66236353D01*
X82737091Y-66165421D01*
X82737095Y-66165417D01*
X82740716Y-66162654D01*
X82928849Y-65970203D01*
X83035842Y-65823210D01*
X83084542Y-65756304D01*
X83084547Y-65756297D01*
X83087230Y-65752610D01*
X83212541Y-65514433D01*
X83302157Y-65260662D01*
X83327288Y-65133156D01*
X83353320Y-65001083D01*
X83353321Y-65001077D01*
X83354201Y-64996611D01*
X83354428Y-64992055D01*
X83367355Y-64732383D01*
X83367355Y-64732377D01*
X83367582Y-64727814D01*
X83342021Y-64459900D01*
X83340623Y-64454183D01*
X83279139Y-64202920D01*
X83278053Y-64198482D01*
X83177017Y-63949037D01*
X83041031Y-63716790D01*
X82872942Y-63506605D01*
X82676273Y-63322887D01*
X82455143Y-63169484D01*
X82214184Y-63049609D01*
X82209850Y-63048188D01*
X82209847Y-63048187D01*
X81962777Y-62967193D01*
X81962771Y-62967192D01*
X81958444Y-62965773D01*
X81918814Y-62958892D01*
X81697062Y-62920389D01*
X81697054Y-62920388D01*
X81693281Y-62919733D01*
X81683318Y-62919237D01*
X81609823Y-62915578D01*
X81609815Y-62915578D01*
X81608252Y-62915500D01*
X81440226Y-62915500D01*
X81437958Y-62915665D01*
X81437946Y-62915665D01*
X81307143Y-62925156D01*
X81240175Y-62930015D01*
X81235720Y-62930999D01*
X81235717Y-62930999D01*
X80981830Y-62987053D01*
X80981828Y-62987054D01*
X80977374Y-62988037D01*
X80725700Y-63083387D01*
X80721714Y-63085601D01*
X80721712Y-63085602D01*
X80497410Y-63210191D01*
X80490428Y-63214069D01*
X80486796Y-63216841D01*
X80280109Y-63374579D01*
X80280105Y-63374583D01*
X80276484Y-63377346D01*
X80273299Y-63380604D01*
X80273298Y-63380605D01*
X80243294Y-63411298D01*
X80088351Y-63569797D01*
X80062451Y-63605379D01*
X79932658Y-63783696D01*
X79932653Y-63783703D01*
X79929970Y-63787390D01*
X79804659Y-64025567D01*
X79715043Y-64279338D01*
X79699031Y-64360578D01*
X79668923Y-64513334D01*
X79662999Y-64543389D01*
X79662772Y-64547942D01*
X79662772Y-64547945D01*
X79650273Y-64799032D01*
X79649618Y-64812186D01*
X78266239Y-64812186D01*
X78376904Y-64701521D01*
X78391317Y-64689134D01*
X78402772Y-64680704D01*
X78408671Y-64676363D01*
X78442683Y-64636328D01*
X78449613Y-64628812D01*
X78455263Y-64623162D01*
X78457533Y-64620293D01*
X78457540Y-64620285D01*
X78472786Y-64601014D01*
X78475573Y-64597614D01*
X78517847Y-64547854D01*
X78517848Y-64547852D01*
X78522582Y-64542280D01*
X78525909Y-64535764D01*
X78529222Y-64530796D01*
X78532363Y-64525710D01*
X78536907Y-64519967D01*
X78567653Y-64454183D01*
X78569584Y-64450233D01*
X78581006Y-64427863D01*
X78602593Y-64385588D01*
X78604333Y-64378478D01*
X78606420Y-64372866D01*
X78608302Y-64367209D01*
X78611401Y-64360578D01*
X78626192Y-64289467D01*
X78627162Y-64285183D01*
X78643076Y-64220146D01*
X78644411Y-64214692D01*
X78645100Y-64203586D01*
X78645134Y-64203588D01*
X78645377Y-64199550D01*
X78645739Y-64195489D01*
X78647229Y-64188327D01*
X78645146Y-64111348D01*
X78645100Y-64107940D01*
X78645100Y-60024534D01*
X78665102Y-59956413D01*
X78675405Y-59943628D01*
X78674945Y-59943245D01*
X78801053Y-59791618D01*
X78801055Y-59791615D01*
X78804747Y-59787176D01*
X78903934Y-59610065D01*
X78905790Y-59604598D01*
X78905792Y-59604593D01*
X78966463Y-59425862D01*
X79359271Y-59425862D01*
X79384043Y-59523402D01*
X79387884Y-59534248D01*
X79467994Y-59708020D01*
X79473745Y-59717981D01*
X79584179Y-59874243D01*
X79591657Y-59882998D01*
X79728714Y-60016512D01*
X79737658Y-60023755D01*
X79896756Y-60130061D01*
X79906866Y-60135551D01*
X80082677Y-60211085D01*
X80093620Y-60214640D01*
X80158932Y-60229419D01*
X80173005Y-60228530D01*
X80176428Y-60219581D01*
X80684600Y-60219581D01*
X80688566Y-60233087D01*
X80697272Y-60234333D01*
X80876097Y-60173630D01*
X80886594Y-60168956D01*
X81053558Y-60075452D01*
X81063030Y-60068942D01*
X81210153Y-59946582D01*
X81218282Y-59938453D01*
X81340642Y-59791330D01*
X81347152Y-59781858D01*
X81440656Y-59614894D01*
X81445330Y-59604397D01*
X81506043Y-59425544D01*
X81504810Y-59416893D01*
X81491242Y-59412900D01*
X80702715Y-59412900D01*
X80687476Y-59417375D01*
X80686271Y-59418765D01*
X80684600Y-59426448D01*
X80684600Y-60219581D01*
X80176428Y-60219581D01*
X80176600Y-60219132D01*
X80176600Y-59431015D01*
X80172125Y-59415776D01*
X80170735Y-59414571D01*
X80163052Y-59412900D01*
X79374094Y-59412900D01*
X79360563Y-59416873D01*
X79359271Y-59425862D01*
X78966463Y-59425862D01*
X78967328Y-59423314D01*
X78967329Y-59423309D01*
X78969184Y-59417845D01*
X78970012Y-59412136D01*
X78970013Y-59412131D01*
X78991577Y-59263403D01*
X78998312Y-59216953D01*
X78999832Y-59158900D01*
X78981258Y-58956759D01*
X78979170Y-58949357D01*
X78965729Y-58901699D01*
X79358543Y-58901699D01*
X79365275Y-58904900D01*
X80158485Y-58904900D01*
X80173724Y-58900425D01*
X80174929Y-58899035D01*
X80176600Y-58891352D01*
X80176600Y-58886785D01*
X80684600Y-58886785D01*
X80689075Y-58902024D01*
X80690465Y-58903229D01*
X80698148Y-58904900D01*
X81487998Y-58904900D01*
X81501529Y-58900927D01*
X81502698Y-58892792D01*
X81467258Y-58767131D01*
X81463133Y-58756384D01*
X81378503Y-58584771D01*
X81372493Y-58574963D01*
X81258000Y-58421639D01*
X81250310Y-58413099D01*
X81109792Y-58283204D01*
X81100667Y-58276203D01*
X80938836Y-58174095D01*
X80928589Y-58168874D01*
X80750860Y-58097968D01*
X80739832Y-58094701D01*
X80702369Y-58087250D01*
X80689494Y-58088402D01*
X80684600Y-58103558D01*
X80684600Y-58886785D01*
X80176600Y-58886785D01*
X80176600Y-58100400D01*
X80172794Y-58087438D01*
X80157879Y-58085502D01*
X80149332Y-58086971D01*
X80138220Y-58089948D01*
X79958695Y-58156179D01*
X79948317Y-58161129D01*
X79783873Y-58258963D01*
X79774561Y-58265729D01*
X79630697Y-58391894D01*
X79622780Y-58400237D01*
X79504318Y-58550505D01*
X79498050Y-58560156D01*
X79408958Y-58729492D01*
X79404553Y-58740127D01*
X79358762Y-58887598D01*
X79358543Y-58901699D01*
X78965729Y-58901699D01*
X78927725Y-58766946D01*
X78927724Y-58766944D01*
X78926157Y-58761387D01*
X78915578Y-58739933D01*
X78838931Y-58584509D01*
X78836376Y-58579328D01*
X78714920Y-58416679D01*
X78565858Y-58278887D01*
X78560975Y-58275806D01*
X78560971Y-58275803D01*
X78401584Y-58175238D01*
X78394181Y-58170567D01*
X78205639Y-58095346D01*
X78199979Y-58094220D01*
X78199975Y-58094219D01*
X78012213Y-58056871D01*
X78012210Y-58056871D01*
X78006546Y-58055744D01*
X78000771Y-58055668D01*
X78000767Y-58055668D01*
X77899393Y-58054341D01*
X77803571Y-58053087D01*
X77797874Y-58054066D01*
X77797873Y-58054066D01*
X77637665Y-58081595D01*
X77603510Y-58087464D01*
X77413063Y-58157724D01*
X77238610Y-58261512D01*
X77234270Y-58265318D01*
X77234266Y-58265321D01*
X77214323Y-58282811D01*
X77085992Y-58395355D01*
X76960320Y-58554769D01*
X76957631Y-58559880D01*
X76957629Y-58559883D01*
X76944673Y-58584509D01*
X76865803Y-58734415D01*
X76805607Y-58928278D01*
X76781748Y-59129864D01*
X76795024Y-59332422D01*
X76796445Y-59338018D01*
X76796446Y-59338023D01*
X76843527Y-59523402D01*
X76844992Y-59529169D01*
X76847409Y-59534412D01*
X76884512Y-59614894D01*
X76929977Y-59713516D01*
X77047133Y-59879289D01*
X77098023Y-59928863D01*
X77132859Y-59990721D01*
X77136100Y-60019115D01*
X77136100Y-63756086D01*
X77116098Y-63824207D01*
X77099195Y-63845181D01*
X75746581Y-65197795D01*
X75684269Y-65231821D01*
X75657486Y-65234700D01*
X63407514Y-65234700D01*
X63339393Y-65214698D01*
X63318419Y-65197795D01*
X62589605Y-64468981D01*
X62555579Y-64406669D01*
X62552700Y-64379886D01*
X62552700Y-58029565D01*
X62554133Y-58010615D01*
X62556274Y-57996545D01*
X62556274Y-57996541D01*
X62557374Y-57989311D01*
X62553115Y-57936952D01*
X62552700Y-57926737D01*
X62552700Y-57918747D01*
X62550625Y-57900951D01*
X62549429Y-57890687D01*
X62548996Y-57886313D01*
X62543704Y-57821251D01*
X62543703Y-57821248D01*
X62543110Y-57813953D01*
X62540855Y-57806993D01*
X62539681Y-57801116D01*
X62538309Y-57795313D01*
X62537462Y-57788046D01*
X62512676Y-57719763D01*
X62511273Y-57715676D01*
X62488889Y-57646578D01*
X62485090Y-57640317D01*
X62482595Y-57634868D01*
X62479928Y-57629542D01*
X62477432Y-57622666D01*
X62444788Y-57572876D01*
X62437621Y-57561945D01*
X62435274Y-57558224D01*
X62400532Y-57500970D01*
X62400529Y-57500966D01*
X62397617Y-57496167D01*
X62390251Y-57487827D01*
X62390277Y-57487804D01*
X62387577Y-57484761D01*
X62384982Y-57481657D01*
X62380966Y-57475532D01*
X62325054Y-57422566D01*
X62322613Y-57420189D01*
X61015024Y-56112600D01*
X61002637Y-56098187D01*
X60994204Y-56086728D01*
X60989863Y-56080829D01*
X60949821Y-56046811D01*
X60942305Y-56039881D01*
X60936662Y-56034238D01*
X60914502Y-56016706D01*
X60911116Y-56013930D01*
X60910913Y-56013757D01*
X60855780Y-55966918D01*
X60849260Y-55963589D01*
X60844282Y-55960269D01*
X60839209Y-55957136D01*
X60833467Y-55952593D01*
X60767683Y-55921847D01*
X60763733Y-55919916D01*
X60705607Y-55890236D01*
X60699088Y-55886907D01*
X60691978Y-55885167D01*
X60686358Y-55883077D01*
X60680707Y-55881197D01*
X60674078Y-55878099D01*
X60666914Y-55876609D01*
X60666911Y-55876608D01*
X60623946Y-55867672D01*
X60602986Y-55863313D01*
X60598727Y-55862349D01*
X60528192Y-55845089D01*
X60522595Y-55844742D01*
X60522590Y-55844741D01*
X60517086Y-55844400D01*
X60517088Y-55844366D01*
X60513029Y-55844123D01*
X60508995Y-55843763D01*
X60501827Y-55842272D01*
X60494510Y-55842470D01*
X60424885Y-55844354D01*
X60421477Y-55844400D01*
X59926553Y-55844400D01*
X59858432Y-55824398D01*
X59841024Y-55810925D01*
X59745698Y-55722806D01*
X59745695Y-55722804D01*
X59741458Y-55718887D01*
X59569781Y-55610567D01*
X59381239Y-55535346D01*
X59375579Y-55534220D01*
X59375575Y-55534219D01*
X59187813Y-55496871D01*
X59187810Y-55496871D01*
X59182146Y-55495744D01*
X59176371Y-55495668D01*
X59176367Y-55495668D01*
X59074993Y-55494341D01*
X58979171Y-55493087D01*
X58973474Y-55494066D01*
X58973473Y-55494066D01*
X58840757Y-55516871D01*
X58779110Y-55527464D01*
X58588663Y-55597724D01*
X58414210Y-55701512D01*
X58409870Y-55705318D01*
X58409866Y-55705321D01*
X58289449Y-55810925D01*
X58261592Y-55835355D01*
X58135920Y-55994769D01*
X58133231Y-55999880D01*
X58133229Y-55999883D01*
X58113788Y-56036834D01*
X58041403Y-56174415D01*
X57994091Y-56326785D01*
X57983490Y-56360927D01*
X57981207Y-56368278D01*
X57957348Y-56569864D01*
X52951500Y-56569864D01*
X52951500Y-56341699D01*
X55454143Y-56341699D01*
X55460875Y-56344900D01*
X56254085Y-56344900D01*
X56269324Y-56340425D01*
X56270529Y-56339035D01*
X56272200Y-56331352D01*
X56272200Y-56326785D01*
X56780200Y-56326785D01*
X56784675Y-56342024D01*
X56786065Y-56343229D01*
X56793748Y-56344900D01*
X57583598Y-56344900D01*
X57597129Y-56340927D01*
X57598298Y-56332792D01*
X57562858Y-56207131D01*
X57558733Y-56196384D01*
X57474103Y-56024771D01*
X57468093Y-56014963D01*
X57353600Y-55861639D01*
X57345910Y-55853099D01*
X57205392Y-55723204D01*
X57196267Y-55716203D01*
X57034436Y-55614095D01*
X57024189Y-55608874D01*
X56846460Y-55537968D01*
X56835432Y-55534701D01*
X56797969Y-55527250D01*
X56785094Y-55528402D01*
X56780200Y-55543558D01*
X56780200Y-56326785D01*
X56272200Y-56326785D01*
X56272200Y-55540400D01*
X56268394Y-55527438D01*
X56253479Y-55525502D01*
X56244932Y-55526971D01*
X56233820Y-55529948D01*
X56054295Y-55596179D01*
X56043917Y-55601129D01*
X55879473Y-55698963D01*
X55870161Y-55705729D01*
X55726297Y-55831894D01*
X55718380Y-55840237D01*
X55599918Y-55990505D01*
X55593650Y-56000156D01*
X55504558Y-56169492D01*
X55500153Y-56180127D01*
X55454362Y-56327598D01*
X55454143Y-56341699D01*
X52951500Y-56341699D01*
X52951500Y-54325862D01*
X55454871Y-54325862D01*
X55479643Y-54423402D01*
X55483484Y-54434248D01*
X55563594Y-54608020D01*
X55569345Y-54617981D01*
X55679779Y-54774243D01*
X55687257Y-54782998D01*
X55824314Y-54916512D01*
X55833258Y-54923755D01*
X55992356Y-55030061D01*
X56002466Y-55035551D01*
X56178277Y-55111085D01*
X56189220Y-55114640D01*
X56254532Y-55129419D01*
X56268605Y-55128530D01*
X56272028Y-55119581D01*
X56780200Y-55119581D01*
X56784166Y-55133087D01*
X56792872Y-55134333D01*
X56971697Y-55073630D01*
X56982194Y-55068956D01*
X57149158Y-54975452D01*
X57158630Y-54968942D01*
X57305753Y-54846582D01*
X57313882Y-54838453D01*
X57436242Y-54691330D01*
X57442752Y-54681858D01*
X57536256Y-54514894D01*
X57540930Y-54504397D01*
X57601643Y-54325544D01*
X57600410Y-54316893D01*
X57586842Y-54312900D01*
X56798315Y-54312900D01*
X56783076Y-54317375D01*
X56781871Y-54318765D01*
X56780200Y-54326448D01*
X56780200Y-55119581D01*
X56272028Y-55119581D01*
X56272200Y-55119132D01*
X56272200Y-54331015D01*
X56267725Y-54315776D01*
X56266335Y-54314571D01*
X56258652Y-54312900D01*
X55469694Y-54312900D01*
X55456163Y-54316873D01*
X55454871Y-54325862D01*
X52951500Y-54325862D01*
X52951500Y-54029864D01*
X57957348Y-54029864D01*
X57970624Y-54232422D01*
X57972045Y-54238018D01*
X57972046Y-54238023D01*
X58009200Y-54384315D01*
X58020592Y-54429169D01*
X58023009Y-54434412D01*
X58060112Y-54514894D01*
X58105577Y-54613516D01*
X58108910Y-54618232D01*
X58168011Y-54701858D01*
X58222733Y-54779289D01*
X58226875Y-54783324D01*
X58257749Y-54813400D01*
X58368138Y-54920935D01*
X58372942Y-54924145D01*
X58392034Y-54936902D01*
X58536920Y-55033712D01*
X58542223Y-55035990D01*
X58542226Y-55035992D01*
X58690844Y-55099843D01*
X58723428Y-55113842D01*
X58783293Y-55127388D01*
X58915779Y-55157367D01*
X58915784Y-55157368D01*
X58921416Y-55158642D01*
X58927187Y-55158869D01*
X58927189Y-55158869D01*
X58986956Y-55161217D01*
X59124253Y-55166612D01*
X59228768Y-55151458D01*
X59319431Y-55138313D01*
X59319436Y-55138312D01*
X59325145Y-55137484D01*
X59330609Y-55135629D01*
X59330614Y-55135628D01*
X59511893Y-55074092D01*
X59511898Y-55074090D01*
X59517365Y-55072234D01*
X59523219Y-55068956D01*
X59661622Y-54991446D01*
X59694476Y-54973047D01*
X59733087Y-54940935D01*
X59850545Y-54843245D01*
X59852145Y-54845169D01*
X59905051Y-54816279D01*
X59931834Y-54813400D01*
X60171185Y-54813400D01*
X60239306Y-54833402D01*
X60260280Y-54850305D01*
X62860995Y-57451020D01*
X62895021Y-57513332D01*
X62897900Y-57540115D01*
X62897900Y-63103035D01*
X62896467Y-63121984D01*
X62893226Y-63143289D01*
X62893819Y-63150580D01*
X62893819Y-63150583D01*
X62897485Y-63195648D01*
X62897900Y-63205863D01*
X62897900Y-63213853D01*
X62898325Y-63217497D01*
X62901171Y-63241913D01*
X62901604Y-63246287D01*
X62904874Y-63286480D01*
X62907490Y-63318647D01*
X62909745Y-63325609D01*
X62910918Y-63331477D01*
X62912290Y-63337284D01*
X62913138Y-63344554D01*
X62937932Y-63412860D01*
X62939340Y-63416963D01*
X62961712Y-63486022D01*
X62965509Y-63492279D01*
X62968002Y-63497726D01*
X62970670Y-63503054D01*
X62973168Y-63509934D01*
X62977182Y-63516056D01*
X63012968Y-63570639D01*
X63015315Y-63574359D01*
X63052983Y-63636433D01*
X63056695Y-63640636D01*
X63060349Y-63644774D01*
X63060324Y-63644796D01*
X63063024Y-63647841D01*
X63065620Y-63650946D01*
X63069634Y-63657068D01*
X63074947Y-63662101D01*
X63125508Y-63709998D01*
X63127950Y-63712375D01*
X63609827Y-64194251D01*
X64087679Y-64672103D01*
X64100066Y-64686517D01*
X64112837Y-64703871D01*
X64118420Y-64708614D01*
X64152879Y-64737889D01*
X64160395Y-64744819D01*
X64166038Y-64750462D01*
X64188198Y-64767994D01*
X64191573Y-64770761D01*
X64246920Y-64817782D01*
X64253440Y-64821111D01*
X64258418Y-64824431D01*
X64263491Y-64827564D01*
X64269233Y-64832107D01*
X64275867Y-64835207D01*
X64275866Y-64835207D01*
X64335017Y-64862853D01*
X64338967Y-64864784D01*
X64403612Y-64897793D01*
X64410722Y-64899533D01*
X64416342Y-64901623D01*
X64421993Y-64903503D01*
X64428622Y-64906601D01*
X64435786Y-64908091D01*
X64435789Y-64908092D01*
X64475895Y-64916433D01*
X64499714Y-64921387D01*
X64503973Y-64922351D01*
X64574508Y-64939611D01*
X64580105Y-64939958D01*
X64580110Y-64939959D01*
X64585614Y-64940300D01*
X64585612Y-64940334D01*
X64589671Y-64940577D01*
X64593705Y-64940937D01*
X64600873Y-64942428D01*
X64608190Y-64942230D01*
X64677815Y-64940346D01*
X64681223Y-64940300D01*
X74152035Y-64940300D01*
X74170985Y-64941733D01*
X74185055Y-64943874D01*
X74185059Y-64943874D01*
X74192289Y-64944974D01*
X74199580Y-64944381D01*
X74199583Y-64944381D01*
X74244648Y-64940715D01*
X74254863Y-64940300D01*
X74262853Y-64940300D01*
X74270102Y-64939455D01*
X74290913Y-64937029D01*
X74295287Y-64936596D01*
X74360349Y-64931304D01*
X74360352Y-64931303D01*
X74367647Y-64930710D01*
X74374609Y-64928455D01*
X74380477Y-64927282D01*
X74386284Y-64925910D01*
X74393554Y-64925062D01*
X74461860Y-64900268D01*
X74465963Y-64898860D01*
X74535022Y-64876488D01*
X74541279Y-64872691D01*
X74546726Y-64870198D01*
X74552054Y-64867530D01*
X74558934Y-64865032D01*
X74619649Y-64825226D01*
X74623359Y-64822885D01*
X74680638Y-64788127D01*
X74680640Y-64788125D01*
X74685433Y-64785217D01*
X74693774Y-64777851D01*
X74693795Y-64777875D01*
X74696838Y-64775179D01*
X74699948Y-64772579D01*
X74706068Y-64768566D01*
X74721067Y-64752733D01*
X74758998Y-64712691D01*
X74761376Y-64710248D01*
X76025901Y-63445723D01*
X76040312Y-63433338D01*
X76057671Y-63420563D01*
X76091689Y-63380521D01*
X76098619Y-63373005D01*
X76104262Y-63367362D01*
X76121814Y-63345178D01*
X76124581Y-63341804D01*
X76166843Y-63292058D01*
X76171582Y-63286480D01*
X76174911Y-63279961D01*
X76178228Y-63274987D01*
X76181363Y-63269911D01*
X76185907Y-63264168D01*
X76216653Y-63198382D01*
X76218585Y-63194430D01*
X76248265Y-63136305D01*
X76251593Y-63129788D01*
X76253332Y-63122680D01*
X76255414Y-63117082D01*
X76257301Y-63111409D01*
X76260400Y-63104779D01*
X76275185Y-63033697D01*
X76276156Y-63029406D01*
X76292077Y-62964344D01*
X76292077Y-62964343D01*
X76293411Y-62958892D01*
X76294100Y-62947786D01*
X76294134Y-62947788D01*
X76294377Y-62943729D01*
X76294737Y-62939695D01*
X76296228Y-62932527D01*
X76294146Y-62855585D01*
X76294100Y-62852177D01*
X76294100Y-58149716D01*
X76314102Y-58081595D01*
X76331004Y-58060621D01*
X76961831Y-57429793D01*
X77024144Y-57395768D01*
X77094959Y-57400832D01*
X77138848Y-57428634D01*
X77188393Y-57476898D01*
X77188398Y-57476902D01*
X77192538Y-57480935D01*
X77361320Y-57593712D01*
X77366623Y-57595990D01*
X77366626Y-57595992D01*
X77535464Y-57668530D01*
X77547828Y-57673842D01*
X77600043Y-57685657D01*
X77740179Y-57717367D01*
X77740184Y-57717368D01*
X77745816Y-57718642D01*
X77751587Y-57718869D01*
X77751589Y-57718869D01*
X77811356Y-57721217D01*
X77948653Y-57726612D01*
X78049099Y-57712048D01*
X78143831Y-57698313D01*
X78143836Y-57698312D01*
X78149545Y-57697484D01*
X78155009Y-57695629D01*
X78155014Y-57695628D01*
X78336293Y-57634092D01*
X78336298Y-57634090D01*
X78341765Y-57632234D01*
X78347619Y-57628956D01*
X78473919Y-57558224D01*
X78518876Y-57533047D01*
X78534309Y-57520212D01*
X78670513Y-57406931D01*
X78674945Y-57403245D01*
X78712623Y-57357942D01*
X78801053Y-57251618D01*
X78801055Y-57251615D01*
X78804747Y-57247176D01*
X78903934Y-57070065D01*
X78905790Y-57064598D01*
X78905792Y-57064593D01*
X78966463Y-56885862D01*
X79359271Y-56885862D01*
X79384043Y-56983402D01*
X79387884Y-56994248D01*
X79467994Y-57168020D01*
X79473745Y-57177981D01*
X79584179Y-57334243D01*
X79591657Y-57342998D01*
X79728714Y-57476512D01*
X79737658Y-57483755D01*
X79896756Y-57590061D01*
X79906866Y-57595551D01*
X80082677Y-57671085D01*
X80093620Y-57674640D01*
X80158932Y-57689419D01*
X80173005Y-57688530D01*
X80176428Y-57679581D01*
X80684600Y-57679581D01*
X80688566Y-57693087D01*
X80697272Y-57694333D01*
X80876097Y-57633630D01*
X80886594Y-57628956D01*
X81053558Y-57535452D01*
X81063030Y-57528942D01*
X81210153Y-57406582D01*
X81218282Y-57398453D01*
X81340642Y-57251330D01*
X81347152Y-57241858D01*
X81440656Y-57074894D01*
X81445330Y-57064397D01*
X81506043Y-56885544D01*
X81504810Y-56876893D01*
X81491242Y-56872900D01*
X80702715Y-56872900D01*
X80687476Y-56877375D01*
X80686271Y-56878765D01*
X80684600Y-56886448D01*
X80684600Y-57679581D01*
X80176428Y-57679581D01*
X80176600Y-57679132D01*
X80176600Y-56891015D01*
X80172125Y-56875776D01*
X80170735Y-56874571D01*
X80163052Y-56872900D01*
X79374094Y-56872900D01*
X79360563Y-56876873D01*
X79359271Y-56885862D01*
X78966463Y-56885862D01*
X78967328Y-56883314D01*
X78967329Y-56883309D01*
X78969184Y-56877845D01*
X78970012Y-56872136D01*
X78970013Y-56872131D01*
X78997779Y-56680627D01*
X78998312Y-56676953D01*
X78999832Y-56618900D01*
X78988027Y-56490423D01*
X78981787Y-56422513D01*
X78981786Y-56422510D01*
X78981258Y-56416759D01*
X78965729Y-56361699D01*
X79358543Y-56361699D01*
X79365275Y-56364900D01*
X80158485Y-56364900D01*
X80173724Y-56360425D01*
X80174929Y-56359035D01*
X80176600Y-56351352D01*
X80176600Y-56346785D01*
X80684600Y-56346785D01*
X80689075Y-56362024D01*
X80690465Y-56363229D01*
X80698148Y-56364900D01*
X81487998Y-56364900D01*
X81501529Y-56360927D01*
X81502698Y-56352792D01*
X81467258Y-56227131D01*
X81463133Y-56216384D01*
X81378503Y-56044771D01*
X81372493Y-56034963D01*
X81258000Y-55881639D01*
X81250310Y-55873099D01*
X81109792Y-55743204D01*
X81100667Y-55736203D01*
X80938836Y-55634095D01*
X80928589Y-55628874D01*
X80750860Y-55557968D01*
X80739832Y-55554701D01*
X80702369Y-55547250D01*
X80689494Y-55548402D01*
X80684600Y-55563558D01*
X80684600Y-56346785D01*
X80176600Y-56346785D01*
X80176600Y-55560400D01*
X80172794Y-55547438D01*
X80157879Y-55545502D01*
X80149332Y-55546971D01*
X80138220Y-55549948D01*
X79958695Y-55616179D01*
X79948317Y-55621129D01*
X79783873Y-55718963D01*
X79774561Y-55725729D01*
X79630697Y-55851894D01*
X79622780Y-55860237D01*
X79504318Y-56010505D01*
X79498050Y-56020156D01*
X79408958Y-56189492D01*
X79404553Y-56200127D01*
X79358762Y-56347598D01*
X79358543Y-56361699D01*
X78965729Y-56361699D01*
X78964978Y-56359035D01*
X78927725Y-56226946D01*
X78927724Y-56226944D01*
X78926157Y-56221387D01*
X78916938Y-56202691D01*
X78838931Y-56044509D01*
X78836376Y-56039328D01*
X78829712Y-56030403D01*
X78791685Y-55979479D01*
X78714920Y-55876679D01*
X78565858Y-55738887D01*
X78560975Y-55735806D01*
X78560971Y-55735803D01*
X78415328Y-55643910D01*
X78394181Y-55630567D01*
X78205639Y-55555346D01*
X78199979Y-55554220D01*
X78199975Y-55554219D01*
X78012213Y-55516871D01*
X78012210Y-55516871D01*
X78006546Y-55515744D01*
X78000771Y-55515668D01*
X78000767Y-55515668D01*
X77899393Y-55514341D01*
X77803571Y-55513087D01*
X77797874Y-55514066D01*
X77797873Y-55514066D01*
X77626241Y-55543558D01*
X77603510Y-55547464D01*
X77413063Y-55617724D01*
X77238610Y-55721512D01*
X77165796Y-55785369D01*
X77111332Y-55833132D01*
X77046928Y-55863009D01*
X77028254Y-55864400D01*
X76772465Y-55864400D01*
X76753514Y-55862967D01*
X76739444Y-55860826D01*
X76739440Y-55860826D01*
X76732211Y-55859726D01*
X76724920Y-55860319D01*
X76724917Y-55860319D01*
X76679852Y-55863985D01*
X76669637Y-55864400D01*
X76661647Y-55864400D01*
X76633565Y-55867674D01*
X76629222Y-55868104D01*
X76556852Y-55873990D01*
X76549886Y-55876247D01*
X76544018Y-55877419D01*
X76538217Y-55878790D01*
X76530946Y-55879638D01*
X76462671Y-55904421D01*
X76458510Y-55905849D01*
X76396444Y-55925955D01*
X76396441Y-55925956D01*
X76389478Y-55928212D01*
X76383223Y-55932008D01*
X76377759Y-55934509D01*
X76372441Y-55937172D01*
X76365566Y-55939668D01*
X76345852Y-55952593D01*
X76304844Y-55979479D01*
X76301140Y-55981816D01*
X76239066Y-56019484D01*
X76230726Y-56026850D01*
X76230703Y-56026824D01*
X76227662Y-56029522D01*
X76224556Y-56032119D01*
X76218432Y-56036134D01*
X76213398Y-56041448D01*
X76165467Y-56092045D01*
X76163089Y-56094487D01*
X75053300Y-57204276D01*
X75038887Y-57216663D01*
X75021529Y-57229437D01*
X75016786Y-57235020D01*
X74987511Y-57269479D01*
X74980581Y-57276995D01*
X74974938Y-57282638D01*
X74957406Y-57304798D01*
X74954639Y-57308173D01*
X74907618Y-57363520D01*
X74904289Y-57370040D01*
X74900969Y-57375018D01*
X74897836Y-57380091D01*
X74893293Y-57385833D01*
X74886283Y-57400832D01*
X74862547Y-57451617D01*
X74860616Y-57455567D01*
X74859934Y-57456902D01*
X74827607Y-57520212D01*
X74825867Y-57527322D01*
X74823777Y-57532942D01*
X74821897Y-57538593D01*
X74818799Y-57545222D01*
X74817309Y-57552386D01*
X74817308Y-57552389D01*
X74809473Y-57590061D01*
X74805449Y-57609410D01*
X74804015Y-57616303D01*
X74803049Y-57620573D01*
X74785789Y-57691108D01*
X74785442Y-57696705D01*
X74785441Y-57696710D01*
X74785100Y-57702212D01*
X74785100Y-57702214D01*
X74785066Y-57702212D01*
X74784823Y-57706271D01*
X74784463Y-57710305D01*
X74782972Y-57717473D01*
X74783170Y-57724790D01*
X74785054Y-57794415D01*
X74785100Y-57797823D01*
X74785100Y-62500286D01*
X74765098Y-62568407D01*
X74748195Y-62589381D01*
X73943181Y-63394395D01*
X73880869Y-63428421D01*
X73854086Y-63431300D01*
X65033116Y-63431300D01*
X64964995Y-63411298D01*
X64944021Y-63394396D01*
X64443805Y-62894181D01*
X64409780Y-62831868D01*
X64406900Y-62805085D01*
X64406900Y-62121496D01*
X64923529Y-62121496D01*
X64924363Y-62129046D01*
X64935897Y-62233516D01*
X64940913Y-62278953D01*
X64943523Y-62286084D01*
X64943523Y-62286086D01*
X64986426Y-62403324D01*
X64995353Y-62427719D01*
X64999589Y-62434022D01*
X64999589Y-62434023D01*
X65076029Y-62547777D01*
X65083708Y-62559205D01*
X65089327Y-62564318D01*
X65089328Y-62564319D01*
X65170877Y-62638522D01*
X65200876Y-62665819D01*
X65340093Y-62741408D01*
X65493322Y-62781607D01*
X65577277Y-62782926D01*
X65644119Y-62783976D01*
X65644122Y-62783976D01*
X65651716Y-62784095D01*
X65806132Y-62748729D01*
X65914767Y-62694092D01*
X65940872Y-62680963D01*
X65940875Y-62680961D01*
X65947655Y-62677551D01*
X65953426Y-62672622D01*
X65953429Y-62672620D01*
X66062336Y-62579604D01*
X66062336Y-62579603D01*
X66068114Y-62574669D01*
X66160555Y-62446024D01*
X66219642Y-62299041D01*
X66236022Y-62183947D01*
X66265423Y-62119324D01*
X66325094Y-62080855D01*
X66360765Y-62075700D01*
X70523666Y-62075700D01*
X70533098Y-62072635D01*
X70533100Y-62072635D01*
X70544887Y-62068805D01*
X70564113Y-62064189D01*
X70576362Y-62062249D01*
X70586155Y-62060698D01*
X70606039Y-62050566D01*
X70624305Y-62043001D01*
X70636096Y-62039170D01*
X70645529Y-62036105D01*
X70663589Y-62022984D01*
X70680446Y-62012654D01*
X70700323Y-62002526D01*
X70723111Y-61979738D01*
X70723115Y-61979735D01*
X73421135Y-59281714D01*
X73443926Y-59258923D01*
X73454056Y-59239042D01*
X73464387Y-59222183D01*
X73471677Y-59212150D01*
X73471678Y-59212148D01*
X73477505Y-59204128D01*
X73480569Y-59194699D01*
X73480571Y-59194694D01*
X73484403Y-59182900D01*
X73491970Y-59164632D01*
X73497595Y-59153593D01*
X73497596Y-59153591D01*
X73502098Y-59144755D01*
X73505589Y-59122713D01*
X73510205Y-59103487D01*
X73514035Y-59091700D01*
X73514035Y-59091698D01*
X73517100Y-59082266D01*
X73517100Y-54049864D01*
X76781748Y-54049864D01*
X76795024Y-54252422D01*
X76796445Y-54258018D01*
X76796446Y-54258023D01*
X76841244Y-54434412D01*
X76844992Y-54449169D01*
X76847409Y-54454412D01*
X76915129Y-54601308D01*
X76929977Y-54633516D01*
X77047133Y-54799289D01*
X77051275Y-54803324D01*
X77094231Y-54845169D01*
X77192538Y-54940935D01*
X77361320Y-55053712D01*
X77366623Y-55055990D01*
X77366626Y-55055992D01*
X77532806Y-55127388D01*
X77547828Y-55133842D01*
X77612740Y-55148530D01*
X77740179Y-55177367D01*
X77740184Y-55177368D01*
X77745816Y-55178642D01*
X77751587Y-55178869D01*
X77751589Y-55178869D01*
X77811356Y-55181217D01*
X77948653Y-55186612D01*
X78049099Y-55172048D01*
X78143831Y-55158313D01*
X78143836Y-55158312D01*
X78149545Y-55157484D01*
X78155009Y-55155629D01*
X78155014Y-55155628D01*
X78336293Y-55094092D01*
X78336298Y-55094090D01*
X78341765Y-55092234D01*
X78347619Y-55088956D01*
X78452783Y-55030061D01*
X78518876Y-54993047D01*
X78528990Y-54984636D01*
X78670513Y-54866931D01*
X78674945Y-54863245D01*
X78699765Y-54833402D01*
X78801053Y-54711618D01*
X78801055Y-54711615D01*
X78804747Y-54707176D01*
X78880273Y-54572315D01*
X78901110Y-54535108D01*
X78901111Y-54535106D01*
X78903934Y-54530065D01*
X78905790Y-54524598D01*
X78905792Y-54524593D01*
X78966463Y-54345862D01*
X79359271Y-54345862D01*
X79384043Y-54443402D01*
X79387884Y-54454248D01*
X79467994Y-54628020D01*
X79473745Y-54637981D01*
X79584179Y-54794243D01*
X79591657Y-54802998D01*
X79728714Y-54936512D01*
X79737658Y-54943755D01*
X79896756Y-55050061D01*
X79906866Y-55055551D01*
X80082677Y-55131085D01*
X80093620Y-55134640D01*
X80158932Y-55149419D01*
X80173005Y-55148530D01*
X80176428Y-55139581D01*
X80684600Y-55139581D01*
X80688566Y-55153087D01*
X80697272Y-55154333D01*
X80876097Y-55093630D01*
X80886594Y-55088956D01*
X81053558Y-54995452D01*
X81063030Y-54988942D01*
X81210153Y-54866582D01*
X81218282Y-54858453D01*
X81340642Y-54711330D01*
X81347152Y-54701858D01*
X81440656Y-54534894D01*
X81445330Y-54524397D01*
X81506043Y-54345544D01*
X81504810Y-54336893D01*
X81491242Y-54332900D01*
X80702715Y-54332900D01*
X80687476Y-54337375D01*
X80686271Y-54338765D01*
X80684600Y-54346448D01*
X80684600Y-55139581D01*
X80176428Y-55139581D01*
X80176600Y-55139132D01*
X80176600Y-54351015D01*
X80172125Y-54335776D01*
X80170735Y-54334571D01*
X80163052Y-54332900D01*
X79374094Y-54332900D01*
X79360563Y-54336873D01*
X79359271Y-54345862D01*
X78966463Y-54345862D01*
X78967328Y-54343314D01*
X78967329Y-54343309D01*
X78969184Y-54337845D01*
X78970012Y-54332136D01*
X78970013Y-54332131D01*
X78991953Y-54180807D01*
X78998312Y-54136953D01*
X78999832Y-54078900D01*
X78981258Y-53876759D01*
X78978971Y-53868649D01*
X78965730Y-53821699D01*
X79358543Y-53821699D01*
X79365275Y-53824900D01*
X80158485Y-53824900D01*
X80173724Y-53820425D01*
X80174929Y-53819035D01*
X80176600Y-53811352D01*
X80176600Y-53806785D01*
X80684600Y-53806785D01*
X80689075Y-53822024D01*
X80690465Y-53823229D01*
X80698148Y-53824900D01*
X81487998Y-53824900D01*
X81501529Y-53820927D01*
X81502698Y-53812792D01*
X81467258Y-53687131D01*
X81463133Y-53676384D01*
X81378503Y-53504771D01*
X81372493Y-53494963D01*
X81258000Y-53341639D01*
X81250310Y-53333099D01*
X81109792Y-53203204D01*
X81100667Y-53196203D01*
X80938836Y-53094095D01*
X80928589Y-53088874D01*
X80750860Y-53017968D01*
X80739832Y-53014701D01*
X80702369Y-53007250D01*
X80689494Y-53008402D01*
X80684600Y-53023558D01*
X80684600Y-53806785D01*
X80176600Y-53806785D01*
X80176600Y-53020400D01*
X80172794Y-53007438D01*
X80157879Y-53005502D01*
X80149332Y-53006971D01*
X80138220Y-53009948D01*
X79958695Y-53076179D01*
X79948317Y-53081129D01*
X79783873Y-53178963D01*
X79774561Y-53185729D01*
X79630697Y-53311894D01*
X79622780Y-53320237D01*
X79504318Y-53470505D01*
X79498050Y-53480156D01*
X79408958Y-53649492D01*
X79404553Y-53660127D01*
X79358762Y-53807598D01*
X79358543Y-53821699D01*
X78965730Y-53821699D01*
X78927725Y-53686946D01*
X78927724Y-53686944D01*
X78926157Y-53681387D01*
X78920472Y-53669857D01*
X78838931Y-53504509D01*
X78836376Y-53499328D01*
X78714920Y-53336679D01*
X78604013Y-53234157D01*
X78570103Y-53202811D01*
X78565858Y-53198887D01*
X78560975Y-53195806D01*
X78560971Y-53195803D01*
X78404806Y-53097271D01*
X78394181Y-53090567D01*
X78205639Y-53015346D01*
X78199979Y-53014220D01*
X78199975Y-53014219D01*
X78012213Y-52976871D01*
X78012210Y-52976871D01*
X78006546Y-52975744D01*
X78000771Y-52975668D01*
X78000767Y-52975668D01*
X77899393Y-52974341D01*
X77803571Y-52973087D01*
X77797874Y-52974066D01*
X77797873Y-52974066D01*
X77614928Y-53005502D01*
X77603510Y-53007464D01*
X77413063Y-53077724D01*
X77238610Y-53181512D01*
X77234270Y-53185318D01*
X77234266Y-53185321D01*
X77103625Y-53299891D01*
X77085992Y-53315355D01*
X76960320Y-53474769D01*
X76957631Y-53479880D01*
X76957629Y-53479883D01*
X76922543Y-53546570D01*
X76865803Y-53654415D01*
X76805607Y-53848278D01*
X76781748Y-54049864D01*
X73517100Y-54049864D01*
X73517100Y-51509864D01*
X76781748Y-51509864D01*
X76795024Y-51712422D01*
X76796445Y-51718018D01*
X76796446Y-51718023D01*
X76841244Y-51894412D01*
X76844992Y-51909169D01*
X76847409Y-51914412D01*
X76909272Y-52048603D01*
X76929977Y-52093516D01*
X76933310Y-52098232D01*
X77023280Y-52225537D01*
X77047133Y-52259289D01*
X77051275Y-52263324D01*
X77095681Y-52306582D01*
X77192538Y-52400935D01*
X77361320Y-52513712D01*
X77366623Y-52515990D01*
X77366626Y-52515992D01*
X77535464Y-52588530D01*
X77547828Y-52593842D01*
X77612740Y-52608530D01*
X77740179Y-52637367D01*
X77740184Y-52637368D01*
X77745816Y-52638642D01*
X77751587Y-52638869D01*
X77751589Y-52638869D01*
X77811356Y-52641217D01*
X77948653Y-52646612D01*
X78049099Y-52632048D01*
X78143831Y-52618313D01*
X78143836Y-52618312D01*
X78149545Y-52617484D01*
X78155009Y-52615629D01*
X78155014Y-52615628D01*
X78336293Y-52554092D01*
X78336298Y-52554090D01*
X78341765Y-52552234D01*
X78347619Y-52548956D01*
X78452783Y-52490061D01*
X78518876Y-52453047D01*
X78525123Y-52447852D01*
X78670513Y-52326931D01*
X78674945Y-52323245D01*
X78724781Y-52263324D01*
X78801053Y-52171618D01*
X78801055Y-52171615D01*
X78804747Y-52167176D01*
X78903934Y-51990065D01*
X78905790Y-51984598D01*
X78905792Y-51984593D01*
X78966463Y-51805862D01*
X79359271Y-51805862D01*
X79384043Y-51903402D01*
X79387884Y-51914248D01*
X79467994Y-52088020D01*
X79473745Y-52097981D01*
X79584179Y-52254243D01*
X79591657Y-52262998D01*
X79728714Y-52396512D01*
X79737658Y-52403755D01*
X79896756Y-52510061D01*
X79906866Y-52515551D01*
X80082677Y-52591085D01*
X80093620Y-52594640D01*
X80158932Y-52609419D01*
X80173005Y-52608530D01*
X80176428Y-52599581D01*
X80684600Y-52599581D01*
X80688566Y-52613087D01*
X80697272Y-52614333D01*
X80876097Y-52553630D01*
X80886594Y-52548956D01*
X81053558Y-52455452D01*
X81063030Y-52448942D01*
X81210153Y-52326582D01*
X81218282Y-52318453D01*
X81340642Y-52171330D01*
X81347152Y-52161858D01*
X81440656Y-51994894D01*
X81445330Y-51984397D01*
X81506043Y-51805544D01*
X81504810Y-51796893D01*
X81491242Y-51792900D01*
X80702715Y-51792900D01*
X80687476Y-51797375D01*
X80686271Y-51798765D01*
X80684600Y-51806448D01*
X80684600Y-52599581D01*
X80176428Y-52599581D01*
X80176600Y-52599132D01*
X80176600Y-51811015D01*
X80172125Y-51795776D01*
X80170735Y-51794571D01*
X80163052Y-51792900D01*
X79374094Y-51792900D01*
X79360563Y-51796873D01*
X79359271Y-51805862D01*
X78966463Y-51805862D01*
X78967328Y-51803314D01*
X78967329Y-51803309D01*
X78969184Y-51797845D01*
X78970012Y-51792136D01*
X78970013Y-51792131D01*
X78991153Y-51646329D01*
X78998312Y-51596953D01*
X78999832Y-51538900D01*
X78981258Y-51336759D01*
X78975617Y-51316759D01*
X78965729Y-51281699D01*
X79358543Y-51281699D01*
X79365275Y-51284900D01*
X80158485Y-51284900D01*
X80173724Y-51280425D01*
X80174929Y-51279035D01*
X80176600Y-51271352D01*
X80176600Y-51266785D01*
X80684600Y-51266785D01*
X80689075Y-51282024D01*
X80690465Y-51283229D01*
X80698148Y-51284900D01*
X81487998Y-51284900D01*
X81501529Y-51280927D01*
X81502698Y-51272792D01*
X81467258Y-51147131D01*
X81463133Y-51136384D01*
X81378503Y-50964771D01*
X81372493Y-50954963D01*
X81258000Y-50801639D01*
X81250310Y-50793099D01*
X81109792Y-50663204D01*
X81100667Y-50656203D01*
X80938836Y-50554095D01*
X80928589Y-50548874D01*
X80750860Y-50477968D01*
X80739832Y-50474701D01*
X80702369Y-50467250D01*
X80689494Y-50468402D01*
X80684600Y-50483558D01*
X80684600Y-51266785D01*
X80176600Y-51266785D01*
X80176600Y-50480400D01*
X80172794Y-50467438D01*
X80157879Y-50465502D01*
X80149332Y-50466971D01*
X80138220Y-50469948D01*
X79958695Y-50536179D01*
X79948317Y-50541129D01*
X79783873Y-50638963D01*
X79774561Y-50645729D01*
X79630697Y-50771894D01*
X79622780Y-50780237D01*
X79504318Y-50930505D01*
X79498050Y-50940156D01*
X79408958Y-51109492D01*
X79404553Y-51120127D01*
X79358762Y-51267598D01*
X79358543Y-51281699D01*
X78965729Y-51281699D01*
X78927725Y-51146946D01*
X78927724Y-51146944D01*
X78926157Y-51141387D01*
X78916295Y-51121387D01*
X78838931Y-50964509D01*
X78836376Y-50959328D01*
X78714920Y-50796679D01*
X78565858Y-50658887D01*
X78560975Y-50655806D01*
X78560971Y-50655803D01*
X78415328Y-50563910D01*
X78394181Y-50550567D01*
X78205639Y-50475346D01*
X78199979Y-50474220D01*
X78199975Y-50474219D01*
X78012213Y-50436871D01*
X78012210Y-50436871D01*
X78006546Y-50435744D01*
X78000771Y-50435668D01*
X78000767Y-50435668D01*
X77899393Y-50434341D01*
X77803571Y-50433087D01*
X77797874Y-50434066D01*
X77797873Y-50434066D01*
X77626241Y-50463558D01*
X77603510Y-50467464D01*
X77413063Y-50537724D01*
X77238610Y-50641512D01*
X77234270Y-50645318D01*
X77234266Y-50645321D01*
X77103625Y-50759891D01*
X77085992Y-50775355D01*
X76960320Y-50934769D01*
X76957631Y-50939880D01*
X76957629Y-50939883D01*
X76944673Y-50964509D01*
X76865803Y-51114415D01*
X76805607Y-51308278D01*
X76781748Y-51509864D01*
X73517100Y-51509864D01*
X73517100Y-48969864D01*
X76781748Y-48969864D01*
X76795024Y-49172422D01*
X76796445Y-49178018D01*
X76796446Y-49178023D01*
X76841244Y-49354412D01*
X76844992Y-49369169D01*
X76847409Y-49374412D01*
X76882648Y-49450851D01*
X76929977Y-49553516D01*
X76933310Y-49558232D01*
X77038218Y-49706674D01*
X77047133Y-49719289D01*
X77051275Y-49723324D01*
X77095681Y-49766582D01*
X77192538Y-49860935D01*
X77361320Y-49973712D01*
X77366623Y-49975990D01*
X77366626Y-49975992D01*
X77535464Y-50048530D01*
X77547828Y-50053842D01*
X77612740Y-50068530D01*
X77740179Y-50097367D01*
X77740184Y-50097368D01*
X77745816Y-50098642D01*
X77751587Y-50098869D01*
X77751589Y-50098869D01*
X77811356Y-50101217D01*
X77948653Y-50106612D01*
X78049099Y-50092048D01*
X78143831Y-50078313D01*
X78143836Y-50078312D01*
X78149545Y-50077484D01*
X78155009Y-50075629D01*
X78155014Y-50075628D01*
X78336293Y-50014092D01*
X78336298Y-50014090D01*
X78341765Y-50012234D01*
X78347619Y-50008956D01*
X78452783Y-49950061D01*
X78518876Y-49913047D01*
X78542924Y-49893047D01*
X78670513Y-49786931D01*
X78674945Y-49783245D01*
X78744771Y-49699289D01*
X78801053Y-49631618D01*
X78801055Y-49631615D01*
X78804747Y-49627176D01*
X78903934Y-49450065D01*
X78905790Y-49444598D01*
X78905792Y-49444593D01*
X78966463Y-49265862D01*
X79359271Y-49265862D01*
X79384043Y-49363402D01*
X79387884Y-49374248D01*
X79467994Y-49548020D01*
X79473745Y-49557981D01*
X79584179Y-49714243D01*
X79591657Y-49722998D01*
X79728714Y-49856512D01*
X79737658Y-49863755D01*
X79896756Y-49970061D01*
X79906866Y-49975551D01*
X80082677Y-50051085D01*
X80093620Y-50054640D01*
X80158932Y-50069419D01*
X80173005Y-50068530D01*
X80176428Y-50059581D01*
X80684600Y-50059581D01*
X80688566Y-50073087D01*
X80697272Y-50074333D01*
X80876097Y-50013630D01*
X80886594Y-50008956D01*
X81053558Y-49915452D01*
X81063030Y-49908942D01*
X81210153Y-49786582D01*
X81218282Y-49778453D01*
X81340642Y-49631330D01*
X81347152Y-49621858D01*
X81440656Y-49454894D01*
X81445330Y-49444397D01*
X81506043Y-49265544D01*
X81504810Y-49256893D01*
X81491242Y-49252900D01*
X80702715Y-49252900D01*
X80687476Y-49257375D01*
X80686271Y-49258765D01*
X80684600Y-49266448D01*
X80684600Y-50059581D01*
X80176428Y-50059581D01*
X80176600Y-50059132D01*
X80176600Y-49271015D01*
X80172125Y-49255776D01*
X80170735Y-49254571D01*
X80163052Y-49252900D01*
X79374094Y-49252900D01*
X79360563Y-49256873D01*
X79359271Y-49265862D01*
X78966463Y-49265862D01*
X78967328Y-49263314D01*
X78967329Y-49263309D01*
X78969184Y-49257845D01*
X78970012Y-49252136D01*
X78970013Y-49252131D01*
X78997779Y-49060627D01*
X78998312Y-49056953D01*
X78999832Y-48998900D01*
X78981258Y-48796759D01*
X78975617Y-48776759D01*
X78965729Y-48741699D01*
X79358543Y-48741699D01*
X79365275Y-48744900D01*
X80158485Y-48744900D01*
X80173724Y-48740425D01*
X80174929Y-48739035D01*
X80176600Y-48731352D01*
X80176600Y-48726785D01*
X80684600Y-48726785D01*
X80689075Y-48742024D01*
X80690465Y-48743229D01*
X80698148Y-48744900D01*
X81487998Y-48744900D01*
X81501529Y-48740927D01*
X81502698Y-48732792D01*
X81467258Y-48607131D01*
X81463133Y-48596384D01*
X81378503Y-48424771D01*
X81372493Y-48414963D01*
X81258000Y-48261639D01*
X81250310Y-48253099D01*
X81109792Y-48123204D01*
X81100667Y-48116203D01*
X80938836Y-48014095D01*
X80928589Y-48008874D01*
X80750860Y-47937968D01*
X80739832Y-47934701D01*
X80702369Y-47927250D01*
X80689494Y-47928402D01*
X80684600Y-47943558D01*
X80684600Y-48726785D01*
X80176600Y-48726785D01*
X80176600Y-47940400D01*
X80172794Y-47927438D01*
X80157879Y-47925502D01*
X80149332Y-47926971D01*
X80138220Y-47929948D01*
X79958695Y-47996179D01*
X79948317Y-48001129D01*
X79783873Y-48098963D01*
X79774561Y-48105729D01*
X79630697Y-48231894D01*
X79622780Y-48240237D01*
X79504318Y-48390505D01*
X79498050Y-48400156D01*
X79408958Y-48569492D01*
X79404553Y-48580127D01*
X79358762Y-48727598D01*
X79358543Y-48741699D01*
X78965729Y-48741699D01*
X78927725Y-48606946D01*
X78927724Y-48606944D01*
X78926157Y-48601387D01*
X78916295Y-48581387D01*
X78838931Y-48424509D01*
X78836376Y-48419328D01*
X78714920Y-48256679D01*
X78565858Y-48118887D01*
X78560975Y-48115806D01*
X78560971Y-48115803D01*
X78415328Y-48023910D01*
X78394181Y-48010567D01*
X78205639Y-47935346D01*
X78199979Y-47934220D01*
X78199975Y-47934219D01*
X78012213Y-47896871D01*
X78012210Y-47896871D01*
X78006546Y-47895744D01*
X78000771Y-47895668D01*
X78000767Y-47895668D01*
X77899393Y-47894341D01*
X77803571Y-47893087D01*
X77797874Y-47894066D01*
X77797873Y-47894066D01*
X77626241Y-47923558D01*
X77603510Y-47927464D01*
X77413063Y-47997724D01*
X77238610Y-48101512D01*
X77234270Y-48105318D01*
X77234266Y-48105321D01*
X77103625Y-48219891D01*
X77085992Y-48235355D01*
X77082417Y-48239890D01*
X77082416Y-48239891D01*
X77065531Y-48261309D01*
X76960320Y-48394769D01*
X76957631Y-48399880D01*
X76957629Y-48399883D01*
X76944673Y-48424509D01*
X76865803Y-48574415D01*
X76805607Y-48768278D01*
X76781748Y-48969864D01*
X73517100Y-48969864D01*
X73517100Y-46429864D01*
X76781748Y-46429864D01*
X76795024Y-46632422D01*
X76796445Y-46638018D01*
X76796446Y-46638023D01*
X76841244Y-46814412D01*
X76844992Y-46829169D01*
X76847409Y-46834412D01*
X76884512Y-46914894D01*
X76929977Y-47013516D01*
X77047133Y-47179289D01*
X77051275Y-47183324D01*
X77095681Y-47226582D01*
X77192538Y-47320935D01*
X77361320Y-47433712D01*
X77366623Y-47435990D01*
X77366626Y-47435992D01*
X77535464Y-47508530D01*
X77547828Y-47513842D01*
X77612740Y-47528530D01*
X77740179Y-47557367D01*
X77740184Y-47557368D01*
X77745816Y-47558642D01*
X77751587Y-47558869D01*
X77751589Y-47558869D01*
X77811356Y-47561217D01*
X77948653Y-47566612D01*
X78049099Y-47552048D01*
X78143831Y-47538313D01*
X78143836Y-47538312D01*
X78149545Y-47537484D01*
X78155009Y-47535629D01*
X78155014Y-47535628D01*
X78336293Y-47474092D01*
X78336298Y-47474090D01*
X78341765Y-47472234D01*
X78347619Y-47468956D01*
X78452783Y-47410061D01*
X78518876Y-47373047D01*
X78542924Y-47353047D01*
X78670513Y-47246931D01*
X78674945Y-47243245D01*
X78744771Y-47159289D01*
X78801053Y-47091618D01*
X78801055Y-47091615D01*
X78804747Y-47087176D01*
X78903934Y-46910065D01*
X78905790Y-46904598D01*
X78905792Y-46904593D01*
X78966463Y-46725862D01*
X79359271Y-46725862D01*
X79384043Y-46823402D01*
X79387884Y-46834248D01*
X79467994Y-47008020D01*
X79473745Y-47017981D01*
X79584179Y-47174243D01*
X79591657Y-47182998D01*
X79728714Y-47316512D01*
X79737658Y-47323755D01*
X79896756Y-47430061D01*
X79906866Y-47435551D01*
X80082677Y-47511085D01*
X80093620Y-47514640D01*
X80158932Y-47529419D01*
X80173005Y-47528530D01*
X80176428Y-47519581D01*
X80684600Y-47519581D01*
X80688566Y-47533087D01*
X80697272Y-47534333D01*
X80876097Y-47473630D01*
X80886594Y-47468956D01*
X81053558Y-47375452D01*
X81063030Y-47368942D01*
X81210153Y-47246582D01*
X81218282Y-47238453D01*
X81340642Y-47091330D01*
X81347152Y-47081858D01*
X81440656Y-46914894D01*
X81445330Y-46904397D01*
X81506043Y-46725544D01*
X81504810Y-46716893D01*
X81491242Y-46712900D01*
X80702715Y-46712900D01*
X80687476Y-46717375D01*
X80686271Y-46718765D01*
X80684600Y-46726448D01*
X80684600Y-47519581D01*
X80176428Y-47519581D01*
X80176600Y-47519132D01*
X80176600Y-46731015D01*
X80172125Y-46715776D01*
X80170735Y-46714571D01*
X80163052Y-46712900D01*
X79374094Y-46712900D01*
X79360563Y-46716873D01*
X79359271Y-46725862D01*
X78966463Y-46725862D01*
X78967328Y-46723314D01*
X78967329Y-46723309D01*
X78969184Y-46717845D01*
X78970012Y-46712136D01*
X78970013Y-46712131D01*
X78993340Y-46551243D01*
X78998312Y-46516953D01*
X78999832Y-46458900D01*
X78988397Y-46334451D01*
X78981787Y-46262513D01*
X78981786Y-46262510D01*
X78981258Y-46256759D01*
X78979690Y-46251199D01*
X78965729Y-46201699D01*
X79358543Y-46201699D01*
X79365275Y-46204900D01*
X80158485Y-46204900D01*
X80173724Y-46200425D01*
X80174929Y-46199035D01*
X80176600Y-46191352D01*
X80176600Y-46186785D01*
X80684600Y-46186785D01*
X80689075Y-46202024D01*
X80690465Y-46203229D01*
X80698148Y-46204900D01*
X81487998Y-46204900D01*
X81501529Y-46200927D01*
X81502698Y-46192792D01*
X81467258Y-46067131D01*
X81463133Y-46056384D01*
X81378503Y-45884771D01*
X81372493Y-45874963D01*
X81258000Y-45721639D01*
X81250310Y-45713099D01*
X81109792Y-45583204D01*
X81100667Y-45576203D01*
X80938836Y-45474095D01*
X80928589Y-45468874D01*
X80750860Y-45397968D01*
X80739832Y-45394701D01*
X80702369Y-45387250D01*
X80689494Y-45388402D01*
X80684600Y-45403558D01*
X80684600Y-46186785D01*
X80176600Y-46186785D01*
X80176600Y-45400400D01*
X80172794Y-45387438D01*
X80157879Y-45385502D01*
X80149332Y-45386971D01*
X80138220Y-45389948D01*
X79958695Y-45456179D01*
X79948317Y-45461129D01*
X79783873Y-45558963D01*
X79774561Y-45565729D01*
X79630697Y-45691894D01*
X79622780Y-45700237D01*
X79504318Y-45850505D01*
X79498050Y-45860156D01*
X79408958Y-46029492D01*
X79404553Y-46040127D01*
X79358762Y-46187598D01*
X79358543Y-46201699D01*
X78965729Y-46201699D01*
X78927725Y-46066946D01*
X78927724Y-46066944D01*
X78926157Y-46061387D01*
X78922566Y-46054104D01*
X78838931Y-45884509D01*
X78836376Y-45879328D01*
X78812006Y-45846692D01*
X78781918Y-45806400D01*
X78714920Y-45716679D01*
X78565858Y-45578887D01*
X78560975Y-45575806D01*
X78560971Y-45575803D01*
X78415328Y-45483910D01*
X78394181Y-45470567D01*
X78205639Y-45395346D01*
X78199979Y-45394220D01*
X78199975Y-45394219D01*
X78012213Y-45356871D01*
X78012210Y-45356871D01*
X78006546Y-45355744D01*
X78000771Y-45355668D01*
X78000767Y-45355668D01*
X77899393Y-45354341D01*
X77803571Y-45353087D01*
X77797874Y-45354066D01*
X77797873Y-45354066D01*
X77626241Y-45383558D01*
X77603510Y-45387464D01*
X77413063Y-45457724D01*
X77238610Y-45561512D01*
X77234270Y-45565318D01*
X77234266Y-45565321D01*
X77103625Y-45679891D01*
X77085992Y-45695355D01*
X76960320Y-45854769D01*
X76957631Y-45859880D01*
X76957629Y-45859883D01*
X76922783Y-45926115D01*
X76865803Y-46034415D01*
X76828142Y-46155704D01*
X76811949Y-46207855D01*
X76805607Y-46228278D01*
X76781748Y-46429864D01*
X73517100Y-46429864D01*
X73517100Y-46246790D01*
X73523198Y-46208290D01*
X73527498Y-46199851D01*
X73529568Y-46186785D01*
X73530989Y-46177809D01*
X73535605Y-46158583D01*
X73539435Y-46146796D01*
X73539435Y-46146794D01*
X73542500Y-46137362D01*
X73542500Y-44717334D01*
X73535605Y-44696114D01*
X73530988Y-44676882D01*
X73529050Y-44664644D01*
X73529050Y-44664643D01*
X73527498Y-44654845D01*
X73522996Y-44646010D01*
X73522995Y-44646006D01*
X73517365Y-44634957D01*
X73509801Y-44616695D01*
X73505969Y-44604903D01*
X73505968Y-44604901D01*
X73502904Y-44595471D01*
X73489787Y-44577417D01*
X73479457Y-44560560D01*
X73475440Y-44552677D01*
X73469326Y-44540677D01*
X73446538Y-44517889D01*
X73446535Y-44517885D01*
X73020439Y-44091789D01*
X72986413Y-44029477D01*
X72984271Y-43989087D01*
X72988131Y-43953555D01*
X72988131Y-43953550D01*
X72988500Y-43950156D01*
X72988500Y-43889864D01*
X76781748Y-43889864D01*
X76795024Y-44092422D01*
X76796445Y-44098018D01*
X76796446Y-44098023D01*
X76841244Y-44274412D01*
X76844992Y-44289169D01*
X76847409Y-44294412D01*
X76884275Y-44374381D01*
X76929977Y-44473516D01*
X76933310Y-44478232D01*
X77022832Y-44604903D01*
X77047133Y-44639289D01*
X77051275Y-44643324D01*
X77093960Y-44684905D01*
X77192538Y-44780935D01*
X77197342Y-44784145D01*
X77248057Y-44818032D01*
X77361320Y-44893712D01*
X77366623Y-44895990D01*
X77366626Y-44895992D01*
X77535464Y-44968530D01*
X77547828Y-44973842D01*
X77612740Y-44988530D01*
X77740179Y-45017367D01*
X77740184Y-45017368D01*
X77745816Y-45018642D01*
X77751587Y-45018869D01*
X77751589Y-45018869D01*
X77811356Y-45021217D01*
X77948653Y-45026612D01*
X78049099Y-45012048D01*
X78143831Y-44998313D01*
X78143836Y-44998312D01*
X78149545Y-44997484D01*
X78155009Y-44995629D01*
X78155014Y-44995628D01*
X78336293Y-44934092D01*
X78336298Y-44934090D01*
X78341765Y-44932234D01*
X78347619Y-44928956D01*
X78483922Y-44852622D01*
X78518876Y-44833047D01*
X78536930Y-44818032D01*
X78670513Y-44706931D01*
X78674945Y-44703245D01*
X78715199Y-44654845D01*
X78801053Y-44551618D01*
X78801055Y-44551615D01*
X78804747Y-44547176D01*
X78882464Y-44408403D01*
X78901110Y-44375108D01*
X78901111Y-44375106D01*
X78903934Y-44370065D01*
X78905790Y-44364598D01*
X78905792Y-44364593D01*
X78966463Y-44185862D01*
X79359271Y-44185862D01*
X79384043Y-44283402D01*
X79387884Y-44294248D01*
X79467994Y-44468020D01*
X79473745Y-44477981D01*
X79584179Y-44634243D01*
X79591657Y-44642998D01*
X79728714Y-44776512D01*
X79737658Y-44783755D01*
X79896756Y-44890061D01*
X79906866Y-44895551D01*
X80082677Y-44971085D01*
X80093620Y-44974640D01*
X80158932Y-44989419D01*
X80173005Y-44988530D01*
X80176428Y-44979581D01*
X80684600Y-44979581D01*
X80688566Y-44993087D01*
X80697272Y-44994333D01*
X80876097Y-44933630D01*
X80886594Y-44928956D01*
X81053558Y-44835452D01*
X81063030Y-44828942D01*
X81210153Y-44706582D01*
X81218282Y-44698453D01*
X81340642Y-44551330D01*
X81347152Y-44541858D01*
X81440656Y-44374894D01*
X81445330Y-44364397D01*
X81506043Y-44185544D01*
X81504810Y-44176893D01*
X81491242Y-44172900D01*
X80702715Y-44172900D01*
X80687476Y-44177375D01*
X80686271Y-44178765D01*
X80684600Y-44186448D01*
X80684600Y-44979581D01*
X80176428Y-44979581D01*
X80176600Y-44979132D01*
X80176600Y-44191015D01*
X80172125Y-44175776D01*
X80170735Y-44174571D01*
X80163052Y-44172900D01*
X79374094Y-44172900D01*
X79360563Y-44176873D01*
X79359271Y-44185862D01*
X78966463Y-44185862D01*
X78967328Y-44183314D01*
X78967329Y-44183309D01*
X78969184Y-44177845D01*
X78970012Y-44172136D01*
X78970013Y-44172131D01*
X78987591Y-44050896D01*
X78998312Y-43976953D01*
X78999832Y-43918900D01*
X78981258Y-43716759D01*
X78975617Y-43696759D01*
X78965729Y-43661699D01*
X79358543Y-43661699D01*
X79365275Y-43664900D01*
X80158485Y-43664900D01*
X80173724Y-43660425D01*
X80174929Y-43659035D01*
X80176600Y-43651352D01*
X80176600Y-43646785D01*
X80684600Y-43646785D01*
X80689075Y-43662024D01*
X80690465Y-43663229D01*
X80698148Y-43664900D01*
X81487998Y-43664900D01*
X81501529Y-43660927D01*
X81502698Y-43652792D01*
X81467258Y-43527131D01*
X81463133Y-43516384D01*
X81378503Y-43344771D01*
X81372493Y-43334963D01*
X81258000Y-43181639D01*
X81250310Y-43173099D01*
X81109792Y-43043204D01*
X81100667Y-43036203D01*
X80938836Y-42934095D01*
X80928589Y-42928874D01*
X80750860Y-42857968D01*
X80739832Y-42854701D01*
X80702369Y-42847250D01*
X80689494Y-42848402D01*
X80684600Y-42863558D01*
X80684600Y-43646785D01*
X80176600Y-43646785D01*
X80176600Y-42860400D01*
X80172794Y-42847438D01*
X80157879Y-42845502D01*
X80149332Y-42846971D01*
X80138220Y-42849948D01*
X79958695Y-42916179D01*
X79948317Y-42921129D01*
X79783873Y-43018963D01*
X79774561Y-43025729D01*
X79630697Y-43151894D01*
X79622780Y-43160237D01*
X79504318Y-43310505D01*
X79498050Y-43320156D01*
X79408958Y-43489492D01*
X79404553Y-43500127D01*
X79358762Y-43647598D01*
X79358543Y-43661699D01*
X78965729Y-43661699D01*
X78927725Y-43526946D01*
X78927724Y-43526944D01*
X78926157Y-43521387D01*
X78916295Y-43501387D01*
X78838931Y-43344509D01*
X78836376Y-43339328D01*
X78714920Y-43176679D01*
X78565858Y-43038887D01*
X78560975Y-43035806D01*
X78560971Y-43035803D01*
X78415328Y-42943910D01*
X78394181Y-42930567D01*
X78205639Y-42855346D01*
X78199979Y-42854220D01*
X78199975Y-42854219D01*
X78012213Y-42816871D01*
X78012210Y-42816871D01*
X78006546Y-42815744D01*
X78000771Y-42815668D01*
X78000767Y-42815668D01*
X77899393Y-42814341D01*
X77803571Y-42813087D01*
X77797874Y-42814066D01*
X77797873Y-42814066D01*
X77626241Y-42843558D01*
X77603510Y-42847464D01*
X77413063Y-42917724D01*
X77238610Y-43021512D01*
X77234270Y-43025318D01*
X77234266Y-43025321D01*
X77091580Y-43150454D01*
X77085992Y-43155355D01*
X77082417Y-43159890D01*
X77082416Y-43159891D01*
X77065534Y-43181306D01*
X76960320Y-43314769D01*
X76957631Y-43319880D01*
X76957629Y-43319883D01*
X76918344Y-43394552D01*
X76865803Y-43494415D01*
X76805607Y-43688278D01*
X76781748Y-43889864D01*
X72988500Y-43889864D01*
X72988500Y-43354644D01*
X72986362Y-43334963D01*
X72982651Y-43300803D01*
X72982651Y-43300802D01*
X72981798Y-43292952D01*
X72931071Y-43157636D01*
X72925691Y-43150457D01*
X72925689Y-43150454D01*
X72849785Y-43049176D01*
X72844404Y-43041996D01*
X72795506Y-43005349D01*
X72735946Y-42960711D01*
X72735943Y-42960709D01*
X72728764Y-42955329D01*
X72636326Y-42920676D01*
X72600843Y-42907374D01*
X72600841Y-42907374D01*
X72593448Y-42904602D01*
X72585598Y-42903749D01*
X72585597Y-42903749D01*
X72535153Y-42898269D01*
X72535152Y-42898269D01*
X72531756Y-42897900D01*
X71587240Y-42897900D01*
X71519119Y-42877898D01*
X71498144Y-42860995D01*
X70693504Y-42056354D01*
X70659479Y-41994042D01*
X70656600Y-41967259D01*
X70656600Y-41180166D01*
X70641598Y-41085445D01*
X70583426Y-40971277D01*
X70568505Y-40956356D01*
X70534479Y-40894044D01*
X70531600Y-40867261D01*
X70531600Y-40595408D01*
X70551602Y-40527287D01*
X70572072Y-40503833D01*
X76786100Y-40503833D01*
X76786101Y-42253966D01*
X76800866Y-42328201D01*
X76807761Y-42338520D01*
X76807762Y-42338522D01*
X76819141Y-42355551D01*
X76857116Y-42412384D01*
X76941299Y-42468634D01*
X77015533Y-42483400D01*
X77890458Y-42483400D01*
X78765666Y-42483399D01*
X78801418Y-42476288D01*
X78827726Y-42471056D01*
X78827728Y-42471055D01*
X78839901Y-42468634D01*
X78850221Y-42461739D01*
X78850222Y-42461738D01*
X78913768Y-42419277D01*
X78924084Y-42412384D01*
X78962059Y-42355551D01*
X78973439Y-42338520D01*
X78980334Y-42328201D01*
X78995100Y-42253967D01*
X78995099Y-41645862D01*
X79359271Y-41645862D01*
X79384043Y-41743402D01*
X79387884Y-41754248D01*
X79467994Y-41928020D01*
X79473745Y-41937981D01*
X79584179Y-42094243D01*
X79591657Y-42102998D01*
X79728714Y-42236512D01*
X79737658Y-42243755D01*
X79896756Y-42350061D01*
X79906866Y-42355551D01*
X80082677Y-42431085D01*
X80093620Y-42434640D01*
X80158932Y-42449419D01*
X80173005Y-42448530D01*
X80176428Y-42439581D01*
X80684600Y-42439581D01*
X80688566Y-42453087D01*
X80697272Y-42454333D01*
X80876097Y-42393630D01*
X80886594Y-42388956D01*
X81053558Y-42295452D01*
X81063030Y-42288942D01*
X81210153Y-42166582D01*
X81218282Y-42158453D01*
X81340642Y-42011330D01*
X81347152Y-42001858D01*
X81440656Y-41834894D01*
X81445330Y-41824397D01*
X81506043Y-41645544D01*
X81504810Y-41636893D01*
X81491242Y-41632900D01*
X80702715Y-41632900D01*
X80687476Y-41637375D01*
X80686271Y-41638765D01*
X80684600Y-41646448D01*
X80684600Y-42439581D01*
X80176428Y-42439581D01*
X80176600Y-42439132D01*
X80176600Y-41651015D01*
X80172125Y-41635776D01*
X80170735Y-41634571D01*
X80163052Y-41632900D01*
X79374094Y-41632900D01*
X79360563Y-41636873D01*
X79359271Y-41645862D01*
X78995099Y-41645862D01*
X78995099Y-41121699D01*
X79358543Y-41121699D01*
X79365275Y-41124900D01*
X80158485Y-41124900D01*
X80173724Y-41120425D01*
X80174929Y-41119035D01*
X80176600Y-41111352D01*
X80176600Y-41106785D01*
X80684600Y-41106785D01*
X80689075Y-41122024D01*
X80690465Y-41123229D01*
X80698148Y-41124900D01*
X81487998Y-41124900D01*
X81501529Y-41120927D01*
X81502698Y-41112792D01*
X81467258Y-40987131D01*
X81463133Y-40976384D01*
X81378503Y-40804771D01*
X81372493Y-40794963D01*
X81258000Y-40641639D01*
X81250310Y-40633099D01*
X81109792Y-40503204D01*
X81100667Y-40496203D01*
X80938836Y-40394095D01*
X80928589Y-40388874D01*
X80750860Y-40317968D01*
X80739832Y-40314701D01*
X80702369Y-40307250D01*
X80689494Y-40308402D01*
X80684600Y-40323558D01*
X80684600Y-41106785D01*
X80176600Y-41106785D01*
X80176600Y-40320400D01*
X80172794Y-40307438D01*
X80157879Y-40305502D01*
X80149332Y-40306971D01*
X80138220Y-40309948D01*
X79958695Y-40376179D01*
X79948317Y-40381129D01*
X79783873Y-40478963D01*
X79774561Y-40485729D01*
X79630697Y-40611894D01*
X79622780Y-40620237D01*
X79504318Y-40770505D01*
X79498050Y-40780156D01*
X79408958Y-40949492D01*
X79404553Y-40960127D01*
X79358762Y-41107598D01*
X79358543Y-41121699D01*
X78995099Y-41121699D01*
X78995099Y-40503834D01*
X78986620Y-40461205D01*
X78982756Y-40441774D01*
X78982755Y-40441772D01*
X78980334Y-40429599D01*
X78944640Y-40376179D01*
X78930977Y-40355732D01*
X78924084Y-40345416D01*
X78839901Y-40289166D01*
X78765667Y-40274400D01*
X77890742Y-40274400D01*
X77015534Y-40274401D01*
X76979782Y-40281512D01*
X76953474Y-40286744D01*
X76953472Y-40286745D01*
X76941299Y-40289166D01*
X76930979Y-40296061D01*
X76930978Y-40296062D01*
X76889828Y-40323558D01*
X76857116Y-40345416D01*
X76800866Y-40429599D01*
X76786100Y-40503833D01*
X70572072Y-40503833D01*
X70575769Y-40499597D01*
X70596836Y-40481604D01*
X70602614Y-40476669D01*
X70695055Y-40348024D01*
X70754142Y-40201041D01*
X70776462Y-40044207D01*
X70776607Y-40030400D01*
X70757576Y-39873133D01*
X70701580Y-39724946D01*
X70620231Y-39606582D01*
X70616155Y-39600651D01*
X70616154Y-39600649D01*
X70611853Y-39594392D01*
X70493575Y-39489011D01*
X70486189Y-39485100D01*
X70360288Y-39418439D01*
X70360289Y-39418439D01*
X70353574Y-39414884D01*
X70199933Y-39376292D01*
X70192334Y-39376252D01*
X70192333Y-39376252D01*
X70126481Y-39375907D01*
X70041521Y-39375462D01*
X70034141Y-39377234D01*
X70034139Y-39377234D01*
X69894863Y-39410671D01*
X69894860Y-39410672D01*
X69887484Y-39412443D01*
X69746714Y-39485100D01*
X69627339Y-39589238D01*
X69536250Y-39718844D01*
X69529775Y-39735452D01*
X69506403Y-39795399D01*
X69478706Y-39866437D01*
X69477714Y-39873970D01*
X69477714Y-39873971D01*
X69474619Y-39897484D01*
X69458029Y-40023496D01*
X69475413Y-40180953D01*
X69478023Y-40188084D01*
X69478023Y-40188086D01*
X69526443Y-40320400D01*
X69529853Y-40329719D01*
X69618208Y-40461205D01*
X69623824Y-40466315D01*
X69631400Y-40473209D01*
X69668322Y-40533850D01*
X69672600Y-40566402D01*
X69672600Y-40867261D01*
X69652598Y-40935382D01*
X69635695Y-40956356D01*
X69620774Y-40971277D01*
X69612335Y-40987840D01*
X69579367Y-41052542D01*
X69530618Y-41104157D01*
X69461703Y-41121223D01*
X69394502Y-41098322D01*
X69354833Y-41052542D01*
X69321865Y-40987840D01*
X69313426Y-40971277D01*
X69222823Y-40880674D01*
X69108655Y-40822502D01*
X69013934Y-40807500D01*
X68650266Y-40807500D01*
X68555545Y-40822502D01*
X68441377Y-40880674D01*
X68350774Y-40971277D01*
X68342335Y-40987840D01*
X68309367Y-41052542D01*
X68260618Y-41104157D01*
X68191703Y-41121223D01*
X68124502Y-41098322D01*
X68084833Y-41052542D01*
X68051865Y-40987840D01*
X68043426Y-40971277D01*
X67952823Y-40880674D01*
X67838655Y-40822502D01*
X67743934Y-40807500D01*
X67380266Y-40807500D01*
X67285545Y-40822502D01*
X67171377Y-40880674D01*
X67080774Y-40971277D01*
X67072335Y-40987840D01*
X67039367Y-41052542D01*
X66990618Y-41104157D01*
X66921703Y-41121223D01*
X66854502Y-41098322D01*
X66814833Y-41052542D01*
X66781865Y-40987840D01*
X66773426Y-40971277D01*
X66682823Y-40880674D01*
X66568655Y-40822502D01*
X66473934Y-40807500D01*
X66110266Y-40807500D01*
X66015545Y-40822502D01*
X65901377Y-40880674D01*
X65810774Y-40971277D01*
X65752602Y-41085445D01*
X65737600Y-41180166D01*
X65737600Y-41589738D01*
X65714686Y-41662189D01*
X65664622Y-41733422D01*
X65664619Y-41733428D01*
X65660250Y-41739644D01*
X65632794Y-41810065D01*
X65605632Y-41879733D01*
X65602706Y-41887237D01*
X65601714Y-41894770D01*
X65601714Y-41894771D01*
X65598659Y-41917981D01*
X65582029Y-42044296D01*
X65599413Y-42201753D01*
X65602023Y-42208884D01*
X65602023Y-42208886D01*
X65649463Y-42338522D01*
X65653853Y-42350519D01*
X65658089Y-42356822D01*
X65658089Y-42356823D01*
X65716182Y-42443275D01*
X65737600Y-42513551D01*
X65737600Y-42893834D01*
X65752602Y-42988555D01*
X65810774Y-43102723D01*
X65901377Y-43193326D01*
X66015545Y-43251498D01*
X66110266Y-43266500D01*
X66473934Y-43266500D01*
X66568655Y-43251498D01*
X66682823Y-43193326D01*
X66773426Y-43102723D01*
X66814833Y-43021458D01*
X66863582Y-42969843D01*
X66932497Y-42952777D01*
X66999698Y-42975678D01*
X67039367Y-43021458D01*
X67080774Y-43102723D01*
X67171377Y-43193326D01*
X67285545Y-43251498D01*
X67380266Y-43266500D01*
X67743934Y-43266500D01*
X67838655Y-43251498D01*
X67952823Y-43193326D01*
X68043426Y-43102723D01*
X68084833Y-43021458D01*
X68133582Y-42969843D01*
X68202497Y-42952777D01*
X68269698Y-42975678D01*
X68309367Y-43021458D01*
X68350774Y-43102723D01*
X68441377Y-43193326D01*
X68555545Y-43251498D01*
X68650266Y-43266500D01*
X69013934Y-43266500D01*
X69108655Y-43251498D01*
X69222823Y-43193326D01*
X69313426Y-43102723D01*
X69354833Y-43021458D01*
X69403582Y-42969843D01*
X69472497Y-42952777D01*
X69539698Y-42975678D01*
X69579367Y-43021458D01*
X69620774Y-43102723D01*
X69711377Y-43193326D01*
X69825545Y-43251498D01*
X69920266Y-43266500D01*
X70283934Y-43266500D01*
X70378655Y-43251498D01*
X70492823Y-43193326D01*
X70500505Y-43185644D01*
X70501521Y-43185089D01*
X70507855Y-43180487D01*
X70508450Y-43181306D01*
X70562817Y-43151618D01*
X70633632Y-43156683D01*
X70678695Y-43185644D01*
X70992595Y-43499544D01*
X71026621Y-43561856D01*
X71029500Y-43588639D01*
X71029500Y-43950156D01*
X71029869Y-43953552D01*
X71029869Y-43953553D01*
X71030638Y-43960627D01*
X71036202Y-44011848D01*
X71086929Y-44147164D01*
X71092309Y-44154343D01*
X71092311Y-44154346D01*
X71158287Y-44242377D01*
X71173596Y-44262804D01*
X71180776Y-44268185D01*
X71282054Y-44344089D01*
X71282057Y-44344091D01*
X71289236Y-44349471D01*
X71357053Y-44374894D01*
X71417157Y-44397426D01*
X71417159Y-44397426D01*
X71424552Y-44400198D01*
X71432402Y-44401051D01*
X71432403Y-44401051D01*
X71444370Y-44402351D01*
X71486244Y-44406900D01*
X72139260Y-44406900D01*
X72207381Y-44426902D01*
X72228355Y-44443805D01*
X72367855Y-44583305D01*
X72401881Y-44645617D01*
X72396816Y-44716432D01*
X72354269Y-44773268D01*
X72287749Y-44798079D01*
X72281441Y-44798304D01*
X72265876Y-44802875D01*
X72264671Y-44804265D01*
X72263000Y-44811948D01*
X72263000Y-46288284D01*
X72267475Y-46303523D01*
X72268865Y-46304728D01*
X72276548Y-46306399D01*
X72528292Y-46306399D01*
X72535115Y-46306029D01*
X72568496Y-46302404D01*
X72638378Y-46314934D01*
X72690392Y-46363256D01*
X72708100Y-46427667D01*
X72708100Y-51339245D01*
X72688098Y-51407366D01*
X72634442Y-51453859D01*
X72568158Y-51463389D01*
X72568048Y-51464402D01*
X72509753Y-51458069D01*
X72509752Y-51458069D01*
X72506356Y-51457700D01*
X71590240Y-51457700D01*
X71522119Y-51437698D01*
X71501145Y-51420795D01*
X70668105Y-50587755D01*
X70634079Y-50525443D01*
X70631200Y-50498660D01*
X70631200Y-49711566D01*
X70616198Y-49616845D01*
X70558026Y-49502677D01*
X70543105Y-49487756D01*
X70509079Y-49425444D01*
X70506200Y-49398661D01*
X70506200Y-49068513D01*
X70526202Y-49000392D01*
X70541653Y-48982690D01*
X70540896Y-48981994D01*
X70546038Y-48976402D01*
X70551814Y-48971469D01*
X70563196Y-48955630D01*
X70571460Y-48944129D01*
X70644255Y-48842824D01*
X70703342Y-48695841D01*
X70720623Y-48574415D01*
X70725081Y-48543091D01*
X70725081Y-48543088D01*
X70725662Y-48539007D01*
X70725807Y-48525200D01*
X70706776Y-48367933D01*
X70650780Y-48219746D01*
X70570413Y-48102811D01*
X70565355Y-48095451D01*
X70565354Y-48095449D01*
X70561053Y-48089192D01*
X70549117Y-48078557D01*
X70476765Y-48014095D01*
X70442775Y-47983811D01*
X70435389Y-47979900D01*
X70317509Y-47917486D01*
X70302774Y-47909684D01*
X70149133Y-47871092D01*
X70141534Y-47871052D01*
X70141533Y-47871052D01*
X70075681Y-47870707D01*
X69990721Y-47870262D01*
X69983341Y-47872034D01*
X69983339Y-47872034D01*
X69844063Y-47905471D01*
X69844060Y-47905472D01*
X69836684Y-47907243D01*
X69695914Y-47979900D01*
X69576539Y-48084038D01*
X69485450Y-48213644D01*
X69468069Y-48258224D01*
X69455603Y-48290199D01*
X69427906Y-48361237D01*
X69426914Y-48368770D01*
X69426914Y-48368771D01*
X69419542Y-48424771D01*
X69407229Y-48518296D01*
X69424613Y-48675753D01*
X69427223Y-48682884D01*
X69427223Y-48682886D01*
X69466860Y-48791199D01*
X69479053Y-48824519D01*
X69483289Y-48830822D01*
X69483289Y-48830823D01*
X69559428Y-48944129D01*
X69567408Y-48956005D01*
X69573027Y-48961118D01*
X69573028Y-48961119D01*
X69605999Y-48991120D01*
X69642922Y-49051761D01*
X69647200Y-49084314D01*
X69647200Y-49398661D01*
X69627198Y-49466782D01*
X69610295Y-49487756D01*
X69595374Y-49502677D01*
X69569470Y-49553516D01*
X69553967Y-49583942D01*
X69505218Y-49635557D01*
X69436303Y-49652623D01*
X69369102Y-49629722D01*
X69329433Y-49583942D01*
X69313930Y-49553516D01*
X69288026Y-49502677D01*
X69197423Y-49412074D01*
X69083255Y-49353902D01*
X68988534Y-49338900D01*
X68624866Y-49338900D01*
X68530145Y-49353902D01*
X68415977Y-49412074D01*
X68325374Y-49502677D01*
X68299470Y-49553516D01*
X68283967Y-49583942D01*
X68235218Y-49635557D01*
X68166303Y-49652623D01*
X68099102Y-49629722D01*
X68059433Y-49583942D01*
X68043930Y-49553516D01*
X68018026Y-49502677D01*
X67927423Y-49412074D01*
X67813255Y-49353902D01*
X67718534Y-49338900D01*
X67354866Y-49338900D01*
X67260145Y-49353902D01*
X67145977Y-49412074D01*
X67055374Y-49502677D01*
X67029470Y-49553516D01*
X67013967Y-49583942D01*
X66965218Y-49635557D01*
X66896303Y-49652623D01*
X66829102Y-49629722D01*
X66789433Y-49583942D01*
X66773930Y-49553516D01*
X66748026Y-49502677D01*
X66657423Y-49412074D01*
X66543255Y-49353902D01*
X66448534Y-49338900D01*
X66084866Y-49338900D01*
X65990145Y-49353902D01*
X65875977Y-49412074D01*
X65785374Y-49502677D01*
X65727202Y-49616845D01*
X65712200Y-49711566D01*
X65712200Y-50087241D01*
X65689287Y-50159692D01*
X65636750Y-50234444D01*
X65579206Y-50382037D01*
X65578214Y-50389570D01*
X65578214Y-50389571D01*
X65559652Y-50530567D01*
X65558529Y-50539096D01*
X65563289Y-50582207D01*
X65572188Y-50662811D01*
X65575913Y-50696553D01*
X65630353Y-50845319D01*
X65634590Y-50851625D01*
X65634592Y-50851628D01*
X65673973Y-50910232D01*
X65690592Y-50934963D01*
X65690781Y-50935245D01*
X65712200Y-51005521D01*
X65712200Y-51425234D01*
X65727202Y-51519955D01*
X65785374Y-51634123D01*
X65875977Y-51724726D01*
X65990145Y-51782898D01*
X66084866Y-51797900D01*
X66448534Y-51797900D01*
X66543255Y-51782898D01*
X66657423Y-51724726D01*
X66748026Y-51634123D01*
X66789433Y-51552858D01*
X66838182Y-51501243D01*
X66907097Y-51484177D01*
X66974298Y-51507078D01*
X67013967Y-51552858D01*
X67055374Y-51634123D01*
X67145977Y-51724726D01*
X67260145Y-51782898D01*
X67354866Y-51797900D01*
X67718534Y-51797900D01*
X67813255Y-51782898D01*
X67927423Y-51724726D01*
X68018026Y-51634123D01*
X68059433Y-51552858D01*
X68108182Y-51501243D01*
X68177097Y-51484177D01*
X68244298Y-51507078D01*
X68283967Y-51552858D01*
X68325374Y-51634123D01*
X68415977Y-51724726D01*
X68530145Y-51782898D01*
X68624866Y-51797900D01*
X68988534Y-51797900D01*
X69083255Y-51782898D01*
X69197423Y-51724726D01*
X69288026Y-51634123D01*
X69329433Y-51552858D01*
X69378182Y-51501243D01*
X69447097Y-51484177D01*
X69514298Y-51507078D01*
X69553967Y-51552858D01*
X69595374Y-51634123D01*
X69685977Y-51724726D01*
X69800145Y-51782898D01*
X69894866Y-51797900D01*
X70258534Y-51797900D01*
X70353255Y-51782898D01*
X70467423Y-51724726D01*
X70475110Y-51717039D01*
X70476133Y-51716481D01*
X70482455Y-51711887D01*
X70483049Y-51712705D01*
X70537425Y-51683018D01*
X70608240Y-51688087D01*
X70653295Y-51717045D01*
X70967195Y-52030945D01*
X71001221Y-52093257D01*
X71004100Y-52120040D01*
X71004100Y-52509956D01*
X71010802Y-52571648D01*
X71013574Y-52579041D01*
X71013574Y-52579043D01*
X71026337Y-52613087D01*
X71061529Y-52706964D01*
X71066909Y-52714143D01*
X71066911Y-52714146D01*
X71132887Y-52802177D01*
X71148196Y-52822604D01*
X71155376Y-52827985D01*
X71256654Y-52903889D01*
X71256657Y-52903891D01*
X71263836Y-52909271D01*
X71339138Y-52937500D01*
X71391757Y-52957226D01*
X71391759Y-52957226D01*
X71399152Y-52959998D01*
X71407002Y-52960851D01*
X71407003Y-52960851D01*
X71457447Y-52966331D01*
X71460844Y-52966700D01*
X72113860Y-52966700D01*
X72181981Y-52986702D01*
X72202955Y-53003605D01*
X72342455Y-53143105D01*
X72376481Y-53205417D01*
X72371416Y-53276232D01*
X72328869Y-53333068D01*
X72262349Y-53357879D01*
X72256041Y-53358104D01*
X72240476Y-53362675D01*
X72239271Y-53364065D01*
X72237600Y-53371748D01*
X72237600Y-54848084D01*
X72242075Y-54863323D01*
X72243465Y-54864528D01*
X72251148Y-54866199D01*
X72502892Y-54866199D01*
X72509710Y-54865830D01*
X72567940Y-54859505D01*
X72568305Y-54862864D01*
X72623798Y-54865736D01*
X72681461Y-54907154D01*
X72707577Y-54973172D01*
X72708100Y-54984636D01*
X72708100Y-58798461D01*
X72688098Y-58866582D01*
X72671195Y-58887556D01*
X70328955Y-61229795D01*
X70266643Y-61263821D01*
X70239860Y-61266700D01*
X70190940Y-61266700D01*
X70122819Y-61246698D01*
X70076326Y-61193042D01*
X70066222Y-61122768D01*
X70095716Y-61058188D01*
X70101845Y-61051605D01*
X70410635Y-60742815D01*
X70410638Y-60742811D01*
X70433426Y-60720023D01*
X70443557Y-60700140D01*
X70453887Y-60683283D01*
X70457926Y-60677724D01*
X70467004Y-60665229D01*
X70473442Y-60645416D01*
X70473901Y-60644005D01*
X70481465Y-60625743D01*
X70487095Y-60614694D01*
X70487096Y-60614690D01*
X70491598Y-60605855D01*
X70495088Y-60583817D01*
X70499705Y-60564586D01*
X70503535Y-60552799D01*
X70506600Y-60543366D01*
X70506600Y-60311739D01*
X70526602Y-60243618D01*
X70543505Y-60222644D01*
X70583426Y-60182723D01*
X70641598Y-60068555D01*
X70656600Y-59973834D01*
X70656600Y-58260166D01*
X70641598Y-58165445D01*
X70583426Y-58051277D01*
X70568505Y-58036356D01*
X70534479Y-57974044D01*
X70531600Y-57947261D01*
X70531600Y-57638808D01*
X70551602Y-57570687D01*
X70575769Y-57542997D01*
X70596836Y-57525004D01*
X70602614Y-57520069D01*
X70695055Y-57391424D01*
X70754142Y-57244441D01*
X70770756Y-57127703D01*
X70775881Y-57091691D01*
X70775881Y-57091688D01*
X70776462Y-57087607D01*
X70776607Y-57073800D01*
X70757576Y-56916533D01*
X70701580Y-56768346D01*
X70660633Y-56708767D01*
X70616155Y-56644051D01*
X70616154Y-56644049D01*
X70611853Y-56637792D01*
X70493575Y-56532411D01*
X70486189Y-56528500D01*
X70360288Y-56461839D01*
X70360289Y-56461839D01*
X70353574Y-56458284D01*
X70199933Y-56419692D01*
X70192334Y-56419652D01*
X70192333Y-56419652D01*
X70126481Y-56419307D01*
X70041521Y-56418862D01*
X70034141Y-56420634D01*
X70034139Y-56420634D01*
X69894863Y-56454071D01*
X69894860Y-56454072D01*
X69887484Y-56455843D01*
X69746714Y-56528500D01*
X69627339Y-56632638D01*
X69536250Y-56762244D01*
X69531102Y-56775449D01*
X69492456Y-56874571D01*
X69478706Y-56909837D01*
X69477714Y-56917370D01*
X69477714Y-56917371D01*
X69467657Y-56993767D01*
X69458029Y-57066896D01*
X69461564Y-57098913D01*
X69473941Y-57211017D01*
X69475413Y-57224353D01*
X69478023Y-57231484D01*
X69478023Y-57231486D01*
X69523691Y-57356279D01*
X69529853Y-57373119D01*
X69534089Y-57379422D01*
X69534089Y-57379423D01*
X69546302Y-57397598D01*
X69618208Y-57504605D01*
X69623824Y-57509715D01*
X69631400Y-57516609D01*
X69668322Y-57577250D01*
X69672600Y-57609802D01*
X69672600Y-57947261D01*
X69652598Y-58015382D01*
X69635695Y-58036356D01*
X69620774Y-58051277D01*
X69582350Y-58126687D01*
X69579367Y-58132542D01*
X69530618Y-58184157D01*
X69461703Y-58201223D01*
X69394502Y-58178322D01*
X69354833Y-58132542D01*
X69351850Y-58126687D01*
X69313426Y-58051277D01*
X69222823Y-57960674D01*
X69108655Y-57902502D01*
X69013934Y-57887500D01*
X68650266Y-57887500D01*
X68555545Y-57902502D01*
X68441377Y-57960674D01*
X68350774Y-58051277D01*
X68312350Y-58126687D01*
X68309367Y-58132542D01*
X68260618Y-58184157D01*
X68191703Y-58201223D01*
X68124502Y-58178322D01*
X68084833Y-58132542D01*
X68081850Y-58126687D01*
X68043426Y-58051277D01*
X67952823Y-57960674D01*
X67838655Y-57902502D01*
X67743934Y-57887500D01*
X67380266Y-57887500D01*
X67285545Y-57902502D01*
X67171377Y-57960674D01*
X67080774Y-58051277D01*
X67042350Y-58126687D01*
X67039367Y-58132542D01*
X66990618Y-58184157D01*
X66921703Y-58201223D01*
X66854502Y-58178322D01*
X66814833Y-58132542D01*
X66811850Y-58126687D01*
X66773426Y-58051277D01*
X66682823Y-57960674D01*
X66568655Y-57902502D01*
X66473934Y-57887500D01*
X66110266Y-57887500D01*
X66015545Y-57902502D01*
X65901377Y-57960674D01*
X65810774Y-58051277D01*
X65752602Y-58165445D01*
X65737600Y-58260166D01*
X65737600Y-58677008D01*
X65714686Y-58749459D01*
X65677322Y-58802622D01*
X65677319Y-58802628D01*
X65672950Y-58808844D01*
X65656650Y-58850651D01*
X65626385Y-58928278D01*
X65615406Y-58956437D01*
X65614414Y-58963970D01*
X65614414Y-58963971D01*
X65596047Y-59103487D01*
X65594729Y-59113496D01*
X65597016Y-59134207D01*
X65610785Y-59258923D01*
X65612113Y-59270953D01*
X65614723Y-59278084D01*
X65614723Y-59278086D01*
X65663368Y-59411015D01*
X65666553Y-59419719D01*
X65670789Y-59426022D01*
X65670789Y-59426023D01*
X65716182Y-59493575D01*
X65737600Y-59563851D01*
X65737600Y-59973834D01*
X65752602Y-60068555D01*
X65810774Y-60182723D01*
X65901377Y-60273326D01*
X66015545Y-60331498D01*
X66110266Y-60346500D01*
X66473934Y-60346500D01*
X66568655Y-60331498D01*
X66682823Y-60273326D01*
X66773426Y-60182723D01*
X66814833Y-60101458D01*
X66863582Y-60049843D01*
X66932497Y-60032777D01*
X66999698Y-60055678D01*
X67039367Y-60101458D01*
X67080774Y-60182723D01*
X67171377Y-60273326D01*
X67285545Y-60331498D01*
X67380266Y-60346500D01*
X67743934Y-60346500D01*
X67838655Y-60331498D01*
X67952823Y-60273326D01*
X68043426Y-60182723D01*
X68084833Y-60101458D01*
X68133582Y-60049843D01*
X68202497Y-60032777D01*
X68269698Y-60055678D01*
X68309367Y-60101458D01*
X68350774Y-60182723D01*
X68441377Y-60273326D01*
X68555545Y-60331498D01*
X68650266Y-60346500D01*
X69013934Y-60346500D01*
X69108655Y-60331498D01*
X69222823Y-60273326D01*
X69313426Y-60182723D01*
X69354833Y-60101458D01*
X69403582Y-60049843D01*
X69472497Y-60032777D01*
X69539698Y-60055678D01*
X69579367Y-60101458D01*
X69620774Y-60182723D01*
X69634606Y-60196555D01*
X69668632Y-60258867D01*
X69663567Y-60329682D01*
X69634610Y-60374740D01*
X68779553Y-61229797D01*
X68717243Y-61263821D01*
X68690460Y-61266700D01*
X66008166Y-61266700D01*
X66008162Y-61266701D01*
X65975934Y-61266701D01*
X65966497Y-61269767D01*
X65966498Y-61269767D01*
X65954718Y-61273594D01*
X65935493Y-61278210D01*
X65913445Y-61281702D01*
X65893560Y-61291834D01*
X65875296Y-61299399D01*
X65863507Y-61303230D01*
X65863506Y-61303231D01*
X65854071Y-61306296D01*
X65846047Y-61312126D01*
X65846045Y-61312127D01*
X65836023Y-61319409D01*
X65819164Y-61329741D01*
X65799277Y-61339874D01*
X65702040Y-61437111D01*
X65639728Y-61471137D01*
X65612288Y-61474014D01*
X65507021Y-61473462D01*
X65499641Y-61475234D01*
X65499639Y-61475234D01*
X65360363Y-61508671D01*
X65360360Y-61508672D01*
X65352984Y-61510443D01*
X65212214Y-61583100D01*
X65092839Y-61687238D01*
X65001750Y-61816844D01*
X64998990Y-61823924D01*
X64956802Y-61932131D01*
X64944206Y-61964437D01*
X64943214Y-61971970D01*
X64943214Y-61971971D01*
X64929962Y-62072635D01*
X64923529Y-62121496D01*
X64406900Y-62121496D01*
X64406900Y-57242165D01*
X64408333Y-57223215D01*
X64410474Y-57209145D01*
X64410474Y-57209141D01*
X64411574Y-57201911D01*
X64409628Y-57177981D01*
X64407315Y-57149552D01*
X64406900Y-57139337D01*
X64406900Y-57131347D01*
X64406055Y-57124098D01*
X64403629Y-57103287D01*
X64403196Y-57098913D01*
X64397904Y-57033851D01*
X64397903Y-57033848D01*
X64397310Y-57026553D01*
X64395055Y-57019591D01*
X64393882Y-57013723D01*
X64392510Y-57007917D01*
X64391662Y-57000646D01*
X64366878Y-56932368D01*
X64365457Y-56928227D01*
X64364112Y-56924073D01*
X64348466Y-56875776D01*
X64345346Y-56866145D01*
X64345345Y-56866142D01*
X64343089Y-56859179D01*
X64339291Y-56852920D01*
X64336797Y-56847473D01*
X64334129Y-56842146D01*
X64331632Y-56835266D01*
X64303690Y-56792647D01*
X64291826Y-56774552D01*
X64289479Y-56770832D01*
X64254732Y-56713570D01*
X64254729Y-56713566D01*
X64251817Y-56708767D01*
X64244451Y-56700427D01*
X64244477Y-56700404D01*
X64241777Y-56697361D01*
X64239182Y-56694257D01*
X64235166Y-56688132D01*
X64179254Y-56635166D01*
X64176813Y-56632789D01*
X62138516Y-54594492D01*
X63384601Y-54594492D01*
X63384970Y-54601310D01*
X63390441Y-54651682D01*
X63394070Y-54666941D01*
X63438822Y-54786318D01*
X63447354Y-54801904D01*
X63523172Y-54903067D01*
X63535733Y-54915628D01*
X63636896Y-54991446D01*
X63652482Y-54999978D01*
X63771865Y-55044733D01*
X63787110Y-55048358D01*
X63837492Y-55053831D01*
X63844306Y-55054200D01*
X64091485Y-55054200D01*
X64106724Y-55049725D01*
X64107929Y-55048335D01*
X64109600Y-55040652D01*
X64109600Y-55036084D01*
X64617600Y-55036084D01*
X64622075Y-55051323D01*
X64623465Y-55052528D01*
X64631148Y-55054199D01*
X64882892Y-55054199D01*
X64889710Y-55053830D01*
X64940082Y-55048359D01*
X64955341Y-55044730D01*
X65074718Y-54999978D01*
X65090304Y-54991446D01*
X65191467Y-54915628D01*
X65204028Y-54903067D01*
X65279846Y-54801904D01*
X65288378Y-54786318D01*
X65333133Y-54666935D01*
X65336758Y-54651690D01*
X65342231Y-54601308D01*
X65342600Y-54594494D01*
X65342600Y-54572315D01*
X65338125Y-54557076D01*
X65336735Y-54555871D01*
X65329052Y-54554200D01*
X64635715Y-54554200D01*
X64620476Y-54558675D01*
X64619271Y-54560065D01*
X64617600Y-54567748D01*
X64617600Y-55036084D01*
X64109600Y-55036084D01*
X64109600Y-54572315D01*
X64105125Y-54557076D01*
X64103735Y-54555871D01*
X64096052Y-54554200D01*
X63402716Y-54554200D01*
X63387477Y-54558675D01*
X63386272Y-54560065D01*
X63384601Y-54567748D01*
X63384601Y-54594492D01*
X62138516Y-54594492D01*
X61572109Y-54028085D01*
X63384600Y-54028085D01*
X63389075Y-54043324D01*
X63390465Y-54044529D01*
X63398148Y-54046200D01*
X64091485Y-54046200D01*
X64106724Y-54041725D01*
X64107929Y-54040335D01*
X64109600Y-54032652D01*
X64109600Y-53564316D01*
X64105125Y-53549077D01*
X64103735Y-53547872D01*
X64096052Y-53546201D01*
X63844308Y-53546201D01*
X63837490Y-53546570D01*
X63787118Y-53552041D01*
X63771859Y-53555670D01*
X63652482Y-53600422D01*
X63636896Y-53608954D01*
X63535733Y-53684772D01*
X63523172Y-53697333D01*
X63447354Y-53798496D01*
X63438822Y-53814082D01*
X63394067Y-53933465D01*
X63390442Y-53948710D01*
X63384969Y-53999092D01*
X63384600Y-54005906D01*
X63384600Y-54028085D01*
X61572109Y-54028085D01*
X61276193Y-53732169D01*
X61242167Y-53669857D01*
X61247232Y-53599042D01*
X61289779Y-53542206D01*
X61337158Y-53520255D01*
X61384844Y-53509333D01*
X61404528Y-53504825D01*
X61404530Y-53504824D01*
X61411932Y-53503129D01*
X61508086Y-53454769D01*
X61546672Y-53435363D01*
X61546675Y-53435361D01*
X61553455Y-53431951D01*
X61559226Y-53427022D01*
X61559229Y-53427020D01*
X61668136Y-53334004D01*
X61668136Y-53334003D01*
X61673914Y-53329069D01*
X61766355Y-53200424D01*
X61825442Y-53053441D01*
X61831632Y-53009948D01*
X61845437Y-52912947D01*
X61874838Y-52848324D01*
X61934509Y-52809855D01*
X61970180Y-52804700D01*
X63320363Y-52804700D01*
X63388484Y-52824702D01*
X63434977Y-52878358D01*
X63438344Y-52886469D01*
X63438377Y-52886558D01*
X63438379Y-52886562D01*
X63441529Y-52894964D01*
X63446909Y-52902143D01*
X63446911Y-52902146D01*
X63510484Y-52986971D01*
X63528196Y-53010604D01*
X63535376Y-53015985D01*
X63636654Y-53091889D01*
X63636657Y-53091891D01*
X63643836Y-53097271D01*
X63733554Y-53130904D01*
X63771757Y-53145226D01*
X63771759Y-53145226D01*
X63779152Y-53147998D01*
X63787002Y-53148851D01*
X63787003Y-53148851D01*
X63837447Y-53154331D01*
X63840844Y-53154700D01*
X64655560Y-53154700D01*
X64723681Y-53174702D01*
X64744655Y-53191605D01*
X64884155Y-53331105D01*
X64918181Y-53393417D01*
X64913116Y-53464232D01*
X64870569Y-53521068D01*
X64804049Y-53545879D01*
X64795060Y-53546200D01*
X64635715Y-53546200D01*
X64620476Y-53550675D01*
X64619271Y-53552065D01*
X64617600Y-53559748D01*
X64617600Y-54028085D01*
X64622075Y-54043324D01*
X64623465Y-54044529D01*
X64631148Y-54046200D01*
X65324484Y-54046200D01*
X65339723Y-54041725D01*
X65357032Y-54021750D01*
X65371013Y-53996147D01*
X65433326Y-53962124D01*
X65504142Y-53967191D01*
X65549201Y-53996150D01*
X65700695Y-54147644D01*
X65734721Y-54209956D01*
X65737600Y-54236739D01*
X65737600Y-55023834D01*
X65752602Y-55118555D01*
X65810774Y-55232723D01*
X65850695Y-55272644D01*
X65884721Y-55334956D01*
X65887600Y-55361739D01*
X65887600Y-55598536D01*
X65867598Y-55666657D01*
X65844430Y-55693485D01*
X65786939Y-55743638D01*
X65695850Y-55873244D01*
X65677263Y-55920918D01*
X65646476Y-55999883D01*
X65638306Y-56020837D01*
X65637314Y-56028370D01*
X65637314Y-56028371D01*
X65618761Y-56169299D01*
X65617629Y-56177896D01*
X65623065Y-56227131D01*
X65634157Y-56327598D01*
X65635013Y-56335353D01*
X65637623Y-56342484D01*
X65637623Y-56342486D01*
X65681300Y-56461839D01*
X65689453Y-56484119D01*
X65693689Y-56490422D01*
X65693689Y-56490423D01*
X65743218Y-56564129D01*
X65777808Y-56615605D01*
X65783427Y-56620718D01*
X65783428Y-56620719D01*
X65867121Y-56696873D01*
X65894976Y-56722219D01*
X66034193Y-56797808D01*
X66187422Y-56838007D01*
X66271377Y-56839326D01*
X66338219Y-56840376D01*
X66338222Y-56840376D01*
X66345816Y-56840495D01*
X66500232Y-56805129D01*
X66585500Y-56762244D01*
X66634972Y-56737363D01*
X66634975Y-56737361D01*
X66641755Y-56733951D01*
X66647526Y-56729022D01*
X66647529Y-56729020D01*
X66756436Y-56636004D01*
X66756436Y-56636003D01*
X66762214Y-56631069D01*
X66854655Y-56502424D01*
X66913742Y-56355441D01*
X66936062Y-56198607D01*
X66936207Y-56184800D01*
X66917176Y-56027533D01*
X66861180Y-55879346D01*
X66847696Y-55859726D01*
X66775755Y-55755051D01*
X66775754Y-55755049D01*
X66771453Y-55748792D01*
X66765787Y-55743744D01*
X66765781Y-55743737D01*
X66738782Y-55719683D01*
X66701226Y-55659434D01*
X66696600Y-55625606D01*
X66696600Y-55361739D01*
X66716602Y-55293618D01*
X66733505Y-55272644D01*
X66773426Y-55232723D01*
X66814833Y-55151458D01*
X66863582Y-55099843D01*
X66932497Y-55082777D01*
X66999698Y-55105678D01*
X67039367Y-55151458D01*
X67080774Y-55232723D01*
X67171377Y-55323326D01*
X67285545Y-55381498D01*
X67380266Y-55396500D01*
X67743934Y-55396500D01*
X67838655Y-55381498D01*
X67952823Y-55323326D01*
X68043426Y-55232723D01*
X68084833Y-55151458D01*
X68133582Y-55099843D01*
X68202497Y-55082777D01*
X68269698Y-55105678D01*
X68309367Y-55151458D01*
X68350774Y-55232723D01*
X68441377Y-55323326D01*
X68555545Y-55381498D01*
X68650266Y-55396500D01*
X69013934Y-55396500D01*
X69108655Y-55381498D01*
X69222823Y-55323326D01*
X69313426Y-55232723D01*
X69354833Y-55151458D01*
X69403582Y-55099843D01*
X69472497Y-55082777D01*
X69539698Y-55105678D01*
X69579367Y-55151458D01*
X69620774Y-55232723D01*
X69711377Y-55323326D01*
X69825545Y-55381498D01*
X69920266Y-55396500D01*
X70283934Y-55396500D01*
X70378655Y-55381498D01*
X70492823Y-55323326D01*
X70583426Y-55232723D01*
X70641598Y-55118555D01*
X70656600Y-55023834D01*
X70656600Y-54557382D01*
X70672185Y-54496682D01*
X70675424Y-54490791D01*
X70679855Y-54484624D01*
X70711264Y-54406492D01*
X71004601Y-54406492D01*
X71004970Y-54413310D01*
X71010441Y-54463682D01*
X71014070Y-54478941D01*
X71058822Y-54598318D01*
X71067354Y-54613904D01*
X71143172Y-54715067D01*
X71155733Y-54727628D01*
X71256896Y-54803446D01*
X71272482Y-54811978D01*
X71391865Y-54856733D01*
X71407110Y-54860358D01*
X71457492Y-54865831D01*
X71464306Y-54866200D01*
X71711485Y-54866200D01*
X71726724Y-54861725D01*
X71727929Y-54860335D01*
X71729600Y-54852652D01*
X71729600Y-54384315D01*
X71725125Y-54369076D01*
X71723735Y-54367871D01*
X71716052Y-54366200D01*
X71022716Y-54366200D01*
X71007477Y-54370675D01*
X71006272Y-54372065D01*
X71004601Y-54379748D01*
X71004601Y-54406492D01*
X70711264Y-54406492D01*
X70738942Y-54337641D01*
X70761262Y-54180807D01*
X70761407Y-54167000D01*
X70742376Y-54009733D01*
X70686380Y-53861546D01*
X70680050Y-53852335D01*
X70678761Y-53850460D01*
X70675539Y-53840085D01*
X71004600Y-53840085D01*
X71009075Y-53855324D01*
X71010465Y-53856529D01*
X71018148Y-53858200D01*
X71711485Y-53858200D01*
X71726724Y-53853725D01*
X71727929Y-53852335D01*
X71729600Y-53844652D01*
X71729600Y-53376316D01*
X71725125Y-53361077D01*
X71723735Y-53359872D01*
X71716052Y-53358201D01*
X71464308Y-53358201D01*
X71457490Y-53358570D01*
X71407118Y-53364041D01*
X71391859Y-53367670D01*
X71272482Y-53412422D01*
X71256896Y-53420954D01*
X71155733Y-53496772D01*
X71143172Y-53509333D01*
X71067354Y-53610496D01*
X71058822Y-53626082D01*
X71014067Y-53745465D01*
X71010442Y-53760710D01*
X71004969Y-53811092D01*
X71004600Y-53817906D01*
X71004600Y-53840085D01*
X70675539Y-53840085D01*
X70656600Y-53779092D01*
X70656600Y-53310166D01*
X70641598Y-53215445D01*
X70583426Y-53101277D01*
X70492823Y-53010674D01*
X70378655Y-52952502D01*
X70283934Y-52937500D01*
X69920266Y-52937500D01*
X69825545Y-52952502D01*
X69711377Y-53010674D01*
X69620774Y-53101277D01*
X69588142Y-53165321D01*
X69579367Y-53182542D01*
X69530618Y-53234157D01*
X69461703Y-53251223D01*
X69394502Y-53228322D01*
X69354833Y-53182542D01*
X69346058Y-53165321D01*
X69313426Y-53101277D01*
X69222823Y-53010674D01*
X69108655Y-52952502D01*
X69013934Y-52937500D01*
X68650266Y-52937500D01*
X68555545Y-52952502D01*
X68441377Y-53010674D01*
X68350774Y-53101277D01*
X68318142Y-53165321D01*
X68309367Y-53182542D01*
X68260618Y-53234157D01*
X68191703Y-53251223D01*
X68124502Y-53228322D01*
X68084833Y-53182542D01*
X68076058Y-53165321D01*
X68043426Y-53101277D01*
X67952823Y-53010674D01*
X67838655Y-52952502D01*
X67743934Y-52937500D01*
X67380266Y-52937500D01*
X67285545Y-52952502D01*
X67171377Y-53010674D01*
X67080774Y-53101277D01*
X67048142Y-53165321D01*
X67039367Y-53182542D01*
X66990618Y-53234157D01*
X66921703Y-53251223D01*
X66854502Y-53228322D01*
X66814833Y-53182542D01*
X66806058Y-53165321D01*
X66773426Y-53101277D01*
X66682823Y-53010674D01*
X66568655Y-52952502D01*
X66473934Y-52937500D01*
X66110266Y-52937500D01*
X66015545Y-52952502D01*
X65901377Y-53010674D01*
X65893696Y-53018355D01*
X65892682Y-53018909D01*
X65886345Y-53023513D01*
X65885750Y-53022694D01*
X65831384Y-53052381D01*
X65760569Y-53047316D01*
X65715506Y-53018355D01*
X65380005Y-52682854D01*
X65345979Y-52620542D01*
X65343100Y-52593759D01*
X65343100Y-52102444D01*
X65336398Y-52040752D01*
X65285671Y-51905436D01*
X65280291Y-51898257D01*
X65280289Y-51898254D01*
X65204385Y-51796976D01*
X65199004Y-51789796D01*
X65175434Y-51772131D01*
X65090546Y-51708511D01*
X65090543Y-51708509D01*
X65083364Y-51703129D01*
X64979992Y-51664377D01*
X64955443Y-51655174D01*
X64955441Y-51655174D01*
X64948048Y-51652402D01*
X64940198Y-51651549D01*
X64940197Y-51651549D01*
X64889753Y-51646069D01*
X64889752Y-51646069D01*
X64886356Y-51645700D01*
X63840844Y-51645700D01*
X63837448Y-51646069D01*
X63837447Y-51646069D01*
X63787003Y-51651549D01*
X63787002Y-51651549D01*
X63779152Y-51652402D01*
X63771759Y-51655174D01*
X63771757Y-51655174D01*
X63747208Y-51664377D01*
X63643836Y-51703129D01*
X63636657Y-51708509D01*
X63636654Y-51708511D01*
X63551766Y-51772131D01*
X63528196Y-51789796D01*
X63522815Y-51796976D01*
X63446911Y-51898254D01*
X63446909Y-51898257D01*
X63441529Y-51905436D01*
X63438379Y-51913838D01*
X63438377Y-51913842D01*
X63438344Y-51913931D01*
X63438287Y-51914006D01*
X63434067Y-51921715D01*
X63432954Y-51921106D01*
X63395702Y-51970695D01*
X63329140Y-51995394D01*
X63320363Y-51995700D01*
X62951939Y-51995700D01*
X62883818Y-51975698D01*
X62837325Y-51922042D01*
X62827221Y-51851768D01*
X62856715Y-51787188D01*
X62862844Y-51780605D01*
X62942326Y-51701123D01*
X62952459Y-51681236D01*
X62962791Y-51664377D01*
X62970073Y-51654355D01*
X62970074Y-51654353D01*
X62975904Y-51646329D01*
X62979870Y-51634123D01*
X62982801Y-51625104D01*
X62990367Y-51606837D01*
X62993532Y-51600627D01*
X63000498Y-51586955D01*
X63003990Y-51564907D01*
X63008606Y-51545682D01*
X63012433Y-51533902D01*
X63015499Y-51524466D01*
X63015499Y-51492240D01*
X63015500Y-51492234D01*
X63015500Y-45948292D01*
X63410001Y-45948292D01*
X63410370Y-45955110D01*
X63415841Y-46005482D01*
X63419470Y-46020741D01*
X63464222Y-46140118D01*
X63472754Y-46155704D01*
X63548572Y-46256867D01*
X63561133Y-46269428D01*
X63662296Y-46345246D01*
X63677882Y-46353778D01*
X63797265Y-46398533D01*
X63812510Y-46402158D01*
X63862892Y-46407631D01*
X63869706Y-46408000D01*
X64116885Y-46408000D01*
X64132124Y-46403525D01*
X64133329Y-46402135D01*
X64135000Y-46394452D01*
X64135000Y-46389884D01*
X64643000Y-46389884D01*
X64647475Y-46405123D01*
X64648865Y-46406328D01*
X64656548Y-46407999D01*
X64908292Y-46407999D01*
X64915110Y-46407630D01*
X64965482Y-46402159D01*
X64980741Y-46398530D01*
X65100118Y-46353778D01*
X65115704Y-46345246D01*
X65216867Y-46269428D01*
X65229428Y-46256867D01*
X65305246Y-46155704D01*
X65313778Y-46140118D01*
X65358533Y-46020735D01*
X65362158Y-46005490D01*
X65367631Y-45955108D01*
X65368000Y-45948294D01*
X65368000Y-45926115D01*
X65363525Y-45910876D01*
X65362135Y-45909671D01*
X65354452Y-45908000D01*
X64661115Y-45908000D01*
X64645876Y-45912475D01*
X64644671Y-45913865D01*
X64643000Y-45921548D01*
X64643000Y-46389884D01*
X64135000Y-46389884D01*
X64135000Y-45926115D01*
X64130525Y-45910876D01*
X64129135Y-45909671D01*
X64121452Y-45908000D01*
X63428116Y-45908000D01*
X63412877Y-45912475D01*
X63411672Y-45913865D01*
X63410001Y-45921548D01*
X63410001Y-45948292D01*
X63015500Y-45948292D01*
X63015500Y-45751740D01*
X63035502Y-45683619D01*
X63052405Y-45662645D01*
X63285785Y-45429265D01*
X63348097Y-45395239D01*
X63401664Y-45395240D01*
X63423545Y-45400000D01*
X64116885Y-45400000D01*
X64132124Y-45395525D01*
X64133329Y-45394135D01*
X64135000Y-45386452D01*
X64135000Y-44918116D01*
X64130525Y-44902877D01*
X64129135Y-44901672D01*
X64121452Y-44900001D01*
X64119238Y-44900001D01*
X64112909Y-44898143D01*
X64108217Y-44897122D01*
X64108290Y-44896786D01*
X64051117Y-44879999D01*
X64004624Y-44826343D01*
X63994520Y-44756069D01*
X64024014Y-44691489D01*
X64030143Y-44684906D01*
X64169644Y-44545405D01*
X64231956Y-44511379D01*
X64258739Y-44508500D01*
X64532559Y-44508500D01*
X64600680Y-44528502D01*
X64621654Y-44545405D01*
X64761154Y-44684905D01*
X64795180Y-44747217D01*
X64790115Y-44818032D01*
X64747568Y-44874868D01*
X64681048Y-44899679D01*
X64672059Y-44900000D01*
X64661115Y-44900000D01*
X64645876Y-44904475D01*
X64644671Y-44905865D01*
X64643000Y-44913548D01*
X64643000Y-45381885D01*
X64647475Y-45397124D01*
X64648865Y-45398329D01*
X64656548Y-45400000D01*
X65349882Y-45400000D01*
X65375837Y-45392379D01*
X65446834Y-45392379D01*
X65500431Y-45424180D01*
X65675295Y-45599044D01*
X65709321Y-45661356D01*
X65712200Y-45688139D01*
X65712200Y-46475234D01*
X65727202Y-46569955D01*
X65785374Y-46684123D01*
X65825295Y-46724044D01*
X65859321Y-46786356D01*
X65862200Y-46813139D01*
X65862200Y-47063196D01*
X65842198Y-47131317D01*
X65819030Y-47158145D01*
X65776739Y-47195038D01*
X65685650Y-47324644D01*
X65665841Y-47375452D01*
X65635361Y-47453630D01*
X65628106Y-47472237D01*
X65627114Y-47479770D01*
X65627114Y-47479771D01*
X65615791Y-47565783D01*
X65607429Y-47629296D01*
X65624813Y-47786753D01*
X65627423Y-47793884D01*
X65627423Y-47793886D01*
X65676296Y-47927438D01*
X65679253Y-47935519D01*
X65683489Y-47941822D01*
X65683489Y-47941823D01*
X65731754Y-48013648D01*
X65767608Y-48067005D01*
X65773227Y-48072118D01*
X65773228Y-48072119D01*
X65821676Y-48116203D01*
X65884776Y-48173619D01*
X66023993Y-48249208D01*
X66177222Y-48289407D01*
X66261177Y-48290726D01*
X66328019Y-48291776D01*
X66328022Y-48291776D01*
X66335616Y-48291895D01*
X66490032Y-48256529D01*
X66575300Y-48213644D01*
X66624772Y-48188763D01*
X66624775Y-48188761D01*
X66631555Y-48185351D01*
X66637326Y-48180422D01*
X66637329Y-48180420D01*
X66746236Y-48087404D01*
X66746236Y-48087403D01*
X66752014Y-48082469D01*
X66844455Y-47953824D01*
X66903542Y-47806841D01*
X66925862Y-47650007D01*
X66926007Y-47636200D01*
X66906976Y-47478933D01*
X66850980Y-47330746D01*
X66793136Y-47246582D01*
X66765555Y-47206451D01*
X66765554Y-47206449D01*
X66761253Y-47200192D01*
X66713381Y-47157539D01*
X66675826Y-47097290D01*
X66671200Y-47063463D01*
X66671200Y-46813139D01*
X66691202Y-46745018D01*
X66708105Y-46724044D01*
X66748026Y-46684123D01*
X66789433Y-46602858D01*
X66838182Y-46551243D01*
X66907097Y-46534177D01*
X66974298Y-46557078D01*
X67013967Y-46602858D01*
X67055374Y-46684123D01*
X67145977Y-46774726D01*
X67260145Y-46832898D01*
X67354866Y-46847900D01*
X67718534Y-46847900D01*
X67813255Y-46832898D01*
X67927423Y-46774726D01*
X68018026Y-46684123D01*
X68059433Y-46602858D01*
X68108182Y-46551243D01*
X68177097Y-46534177D01*
X68244298Y-46557078D01*
X68283967Y-46602858D01*
X68325374Y-46684123D01*
X68415977Y-46774726D01*
X68530145Y-46832898D01*
X68624866Y-46847900D01*
X68988534Y-46847900D01*
X69083255Y-46832898D01*
X69197423Y-46774726D01*
X69288026Y-46684123D01*
X69329433Y-46602858D01*
X69378182Y-46551243D01*
X69447097Y-46534177D01*
X69514298Y-46557078D01*
X69553967Y-46602858D01*
X69595374Y-46684123D01*
X69685977Y-46774726D01*
X69800145Y-46832898D01*
X69894866Y-46847900D01*
X70258534Y-46847900D01*
X70353255Y-46832898D01*
X70467423Y-46774726D01*
X70558026Y-46684123D01*
X70616198Y-46569955D01*
X70631200Y-46475234D01*
X70631200Y-45959791D01*
X70640292Y-45912797D01*
X70666866Y-45846692D01*
X71030001Y-45846692D01*
X71030370Y-45853510D01*
X71035841Y-45903882D01*
X71039470Y-45919141D01*
X71084222Y-46038518D01*
X71092754Y-46054104D01*
X71168572Y-46155267D01*
X71181133Y-46167828D01*
X71282296Y-46243646D01*
X71297882Y-46252178D01*
X71417265Y-46296933D01*
X71432510Y-46300558D01*
X71482892Y-46306031D01*
X71489706Y-46306400D01*
X71736885Y-46306400D01*
X71752124Y-46301925D01*
X71753329Y-46300535D01*
X71755000Y-46292852D01*
X71755000Y-45824515D01*
X71750525Y-45809276D01*
X71749135Y-45808071D01*
X71741452Y-45806400D01*
X71048116Y-45806400D01*
X71032877Y-45810875D01*
X71031672Y-45812265D01*
X71030001Y-45819948D01*
X71030001Y-45846692D01*
X70666866Y-45846692D01*
X70690042Y-45789041D01*
X70702680Y-45700237D01*
X70711781Y-45636291D01*
X70711781Y-45636288D01*
X70712362Y-45632207D01*
X70712507Y-45618400D01*
X70693476Y-45461133D01*
X70645461Y-45334066D01*
X70639334Y-45317852D01*
X70632473Y-45280285D01*
X71030000Y-45280285D01*
X71034475Y-45295524D01*
X71035865Y-45296729D01*
X71043548Y-45298400D01*
X71736885Y-45298400D01*
X71752124Y-45293925D01*
X71753329Y-45292535D01*
X71755000Y-45284852D01*
X71755000Y-44816516D01*
X71750525Y-44801277D01*
X71749135Y-44800072D01*
X71741452Y-44798401D01*
X71489708Y-44798401D01*
X71482890Y-44798770D01*
X71432518Y-44804241D01*
X71417259Y-44807870D01*
X71297882Y-44852622D01*
X71282296Y-44861154D01*
X71181133Y-44936972D01*
X71168572Y-44949533D01*
X71092754Y-45050696D01*
X71084222Y-45066282D01*
X71039467Y-45185665D01*
X71035842Y-45200910D01*
X71030369Y-45251292D01*
X71030000Y-45258105D01*
X71030000Y-45280285D01*
X70632473Y-45280285D01*
X70631200Y-45273314D01*
X70631200Y-44761566D01*
X70616198Y-44666845D01*
X70558026Y-44552677D01*
X70467423Y-44462074D01*
X70353255Y-44403902D01*
X70258534Y-44388900D01*
X69894866Y-44388900D01*
X69800145Y-44403902D01*
X69685977Y-44462074D01*
X69595374Y-44552677D01*
X69564004Y-44614243D01*
X69553967Y-44633942D01*
X69505218Y-44685557D01*
X69436303Y-44702623D01*
X69369102Y-44679722D01*
X69329433Y-44633942D01*
X69319396Y-44614243D01*
X69288026Y-44552677D01*
X69197423Y-44462074D01*
X69083255Y-44403902D01*
X68988534Y-44388900D01*
X68624866Y-44388900D01*
X68530145Y-44403902D01*
X68415977Y-44462074D01*
X68325374Y-44552677D01*
X68294004Y-44614243D01*
X68283967Y-44633942D01*
X68235218Y-44685557D01*
X68166303Y-44702623D01*
X68099102Y-44679722D01*
X68059433Y-44633942D01*
X68049396Y-44614243D01*
X68018026Y-44552677D01*
X67927423Y-44462074D01*
X67813255Y-44403902D01*
X67718534Y-44388900D01*
X67354866Y-44388900D01*
X67260145Y-44403902D01*
X67145977Y-44462074D01*
X67055374Y-44552677D01*
X67024004Y-44614243D01*
X67013967Y-44633942D01*
X66965218Y-44685557D01*
X66896303Y-44702623D01*
X66829102Y-44679722D01*
X66789433Y-44633942D01*
X66779396Y-44614243D01*
X66748026Y-44552677D01*
X66657423Y-44462074D01*
X66543255Y-44403902D01*
X66448534Y-44388900D01*
X66084866Y-44388900D01*
X65990145Y-44403902D01*
X65875977Y-44462074D01*
X65868295Y-44469756D01*
X65867279Y-44470311D01*
X65860945Y-44474913D01*
X65860350Y-44474094D01*
X65805983Y-44503782D01*
X65735168Y-44498717D01*
X65690105Y-44469756D01*
X65401742Y-44181393D01*
X65367716Y-44119081D01*
X65365574Y-44078690D01*
X65368131Y-44055153D01*
X65368131Y-44055152D01*
X65368500Y-44051756D01*
X65368500Y-43456244D01*
X65361798Y-43394552D01*
X65311071Y-43259236D01*
X65305691Y-43252057D01*
X65305689Y-43252054D01*
X65229785Y-43150776D01*
X65224404Y-43143596D01*
X65169867Y-43102723D01*
X65115946Y-43062311D01*
X65115943Y-43062309D01*
X65108764Y-43056929D01*
X65014144Y-43021458D01*
X64980843Y-43008974D01*
X64980841Y-43008974D01*
X64973448Y-43006202D01*
X64965598Y-43005349D01*
X64965597Y-43005349D01*
X64915153Y-42999869D01*
X64915152Y-42999869D01*
X64911756Y-42999500D01*
X63866244Y-42999500D01*
X63862848Y-42999869D01*
X63862847Y-42999869D01*
X63812403Y-43005349D01*
X63812402Y-43005349D01*
X63804552Y-43006202D01*
X63797159Y-43008974D01*
X63797157Y-43008974D01*
X63763856Y-43021458D01*
X63669236Y-43056929D01*
X63662057Y-43062309D01*
X63662054Y-43062311D01*
X63608133Y-43102723D01*
X63553596Y-43143596D01*
X63548215Y-43150776D01*
X63472311Y-43252054D01*
X63472309Y-43252057D01*
X63466929Y-43259236D01*
X63416202Y-43394552D01*
X63409500Y-43456244D01*
X63409500Y-44051756D01*
X63409869Y-44055150D01*
X63409869Y-44055155D01*
X63413729Y-44090687D01*
X63401201Y-44160569D01*
X63377561Y-44193389D01*
X63230595Y-44340355D01*
X63168283Y-44374381D01*
X63097468Y-44369316D01*
X63040632Y-44326769D01*
X63015821Y-44260249D01*
X63015500Y-44251260D01*
X63015500Y-40987840D01*
X63035502Y-40919719D01*
X63052405Y-40898745D01*
X64361912Y-39589238D01*
X65672505Y-38278644D01*
X65734817Y-38244618D01*
X65805632Y-38249683D01*
X65862468Y-38292230D01*
X65887279Y-38358750D01*
X65887600Y-38367739D01*
X65887600Y-38626068D01*
X65867598Y-38694189D01*
X65863035Y-38700165D01*
X65863139Y-38700238D01*
X65772050Y-38829844D01*
X65714506Y-38977437D01*
X65713514Y-38984970D01*
X65713514Y-38984971D01*
X65700155Y-39086448D01*
X65693829Y-39134496D01*
X65699865Y-39189169D01*
X65709330Y-39274894D01*
X65711213Y-39291953D01*
X65713823Y-39299084D01*
X65713823Y-39299086D01*
X65757500Y-39418439D01*
X65765653Y-39440719D01*
X65769889Y-39447022D01*
X65769889Y-39447023D01*
X65828718Y-39534569D01*
X65854008Y-39572205D01*
X65859627Y-39577318D01*
X65859628Y-39577319D01*
X65965560Y-39673709D01*
X65971176Y-39678819D01*
X66110393Y-39754408D01*
X66263622Y-39794607D01*
X66347577Y-39795926D01*
X66414419Y-39796976D01*
X66414422Y-39796976D01*
X66422016Y-39797095D01*
X66576432Y-39761729D01*
X66661700Y-39718844D01*
X66711172Y-39693963D01*
X66711175Y-39693961D01*
X66717955Y-39690551D01*
X66723726Y-39685622D01*
X66723729Y-39685620D01*
X66832636Y-39592604D01*
X66832636Y-39592603D01*
X66838414Y-39587669D01*
X66930855Y-39459024D01*
X66989942Y-39312041D01*
X66996723Y-39264397D01*
X67011681Y-39159291D01*
X67011681Y-39159288D01*
X67012262Y-39155207D01*
X67012407Y-39141400D01*
X66993376Y-38984133D01*
X66937380Y-38835946D01*
X66847653Y-38705392D01*
X66748173Y-38616759D01*
X66738781Y-38608391D01*
X66701225Y-38548140D01*
X66696600Y-38514314D01*
X66696600Y-38281739D01*
X66716602Y-38213618D01*
X66733505Y-38192644D01*
X66773426Y-38152723D01*
X66814833Y-38071458D01*
X66863582Y-38019843D01*
X66932497Y-38002777D01*
X66999698Y-38025678D01*
X67039367Y-38071458D01*
X67080774Y-38152723D01*
X67171377Y-38243326D01*
X67285545Y-38301498D01*
X67380266Y-38316500D01*
X67743934Y-38316500D01*
X67838655Y-38301498D01*
X67952823Y-38243326D01*
X68043426Y-38152723D01*
X68084833Y-38071458D01*
X68133582Y-38019843D01*
X68202497Y-38002777D01*
X68269698Y-38025678D01*
X68309367Y-38071458D01*
X68350774Y-38152723D01*
X68441377Y-38243326D01*
X68555545Y-38301498D01*
X68650266Y-38316500D01*
X69013934Y-38316500D01*
X69108655Y-38301498D01*
X69222823Y-38243326D01*
X69313426Y-38152723D01*
X69354833Y-38071458D01*
X69403582Y-38019843D01*
X69472497Y-38002777D01*
X69539698Y-38025678D01*
X69579367Y-38071458D01*
X69620774Y-38152723D01*
X69711377Y-38243326D01*
X69825545Y-38301498D01*
X69920266Y-38316500D01*
X70283934Y-38316500D01*
X70378655Y-38301498D01*
X70492823Y-38243326D01*
X70583426Y-38152723D01*
X70641598Y-38038555D01*
X70656600Y-37943834D01*
X70656600Y-37461755D01*
X70680277Y-37388229D01*
X70702724Y-37356990D01*
X70707155Y-37350824D01*
X70766242Y-37203841D01*
X70785368Y-37069451D01*
X70787981Y-37051091D01*
X70787981Y-37051088D01*
X70788562Y-37047007D01*
X70788707Y-37033200D01*
X70769676Y-36875933D01*
X70713680Y-36727746D01*
X70678760Y-36676937D01*
X70656600Y-36605570D01*
X70656600Y-36230166D01*
X70641598Y-36135445D01*
X70583426Y-36021277D01*
X70492823Y-35930674D01*
X70378655Y-35872502D01*
X70283934Y-35857500D01*
X69920266Y-35857500D01*
X69825545Y-35872502D01*
X69711377Y-35930674D01*
X69620774Y-36021277D01*
X69583644Y-36094148D01*
X69579367Y-36102542D01*
X69530618Y-36154157D01*
X69461703Y-36171223D01*
X69394502Y-36148322D01*
X69354833Y-36102542D01*
X69350556Y-36094148D01*
X69313426Y-36021277D01*
X69222823Y-35930674D01*
X69108655Y-35872502D01*
X69013934Y-35857500D01*
X68650266Y-35857500D01*
X68555545Y-35872502D01*
X68441377Y-35930674D01*
X68350774Y-36021277D01*
X68313644Y-36094148D01*
X68309367Y-36102542D01*
X68260618Y-36154157D01*
X68191703Y-36171223D01*
X68124502Y-36148322D01*
X68084833Y-36102542D01*
X68080556Y-36094148D01*
X68043426Y-36021277D01*
X67952823Y-35930674D01*
X67838655Y-35872502D01*
X67743934Y-35857500D01*
X67380266Y-35857500D01*
X67285545Y-35872502D01*
X67171377Y-35930674D01*
X67080774Y-36021277D01*
X67043644Y-36094148D01*
X67039367Y-36102542D01*
X66990618Y-36154157D01*
X66921703Y-36171223D01*
X66854502Y-36148322D01*
X66814833Y-36102542D01*
X66810556Y-36094148D01*
X66773426Y-36021277D01*
X66682823Y-35930674D01*
X66568655Y-35872502D01*
X66473934Y-35857500D01*
X66110266Y-35857500D01*
X66015545Y-35872502D01*
X65901377Y-35930674D01*
X65810774Y-36021277D01*
X65752602Y-36135445D01*
X65737600Y-36230166D01*
X65737600Y-37017261D01*
X65717598Y-37085382D01*
X65700695Y-37106356D01*
X62302465Y-40504585D01*
X62302462Y-40504589D01*
X62279674Y-40527377D01*
X62275171Y-40536215D01*
X62269546Y-40547254D01*
X62259216Y-40564111D01*
X62246095Y-40582171D01*
X62243030Y-40591604D01*
X62239199Y-40603395D01*
X62231634Y-40621661D01*
X62221502Y-40641545D01*
X62219951Y-40651338D01*
X62218011Y-40663587D01*
X62213395Y-40682813D01*
X62206500Y-40704034D01*
X62206500Y-51240660D01*
X62186498Y-51308781D01*
X62169595Y-51329755D01*
X61307839Y-52191511D01*
X61245527Y-52225537D01*
X61218087Y-52228414D01*
X61112821Y-52227862D01*
X61105441Y-52229634D01*
X61105439Y-52229634D01*
X60966163Y-52263071D01*
X60966160Y-52263072D01*
X60958784Y-52264843D01*
X60818014Y-52337500D01*
X60698639Y-52441638D01*
X60607550Y-52571244D01*
X60585963Y-52626612D01*
X60557912Y-52698560D01*
X60550006Y-52718837D01*
X60549014Y-52726370D01*
X60549014Y-52726371D01*
X60532959Y-52848324D01*
X60529329Y-52875896D01*
X60531616Y-52896607D01*
X60545632Y-53023558D01*
X60546713Y-53033353D01*
X60549323Y-53040486D01*
X60549324Y-53040489D01*
X60583946Y-53135100D01*
X60588572Y-53205945D01*
X60554162Y-53268046D01*
X60491640Y-53301684D01*
X60465620Y-53304400D01*
X59926553Y-53304400D01*
X59858432Y-53284398D01*
X59841024Y-53270925D01*
X59745698Y-53182806D01*
X59745695Y-53182804D01*
X59741458Y-53178887D01*
X59569781Y-53070567D01*
X59381239Y-52995346D01*
X59375579Y-52994220D01*
X59375575Y-52994219D01*
X59187813Y-52956871D01*
X59187810Y-52956871D01*
X59182146Y-52955744D01*
X59176371Y-52955668D01*
X59176367Y-52955668D01*
X59074993Y-52954341D01*
X58979171Y-52953087D01*
X58973474Y-52954066D01*
X58973473Y-52954066D01*
X58840757Y-52976871D01*
X58779110Y-52987464D01*
X58588663Y-53057724D01*
X58414210Y-53161512D01*
X58409870Y-53165318D01*
X58409866Y-53165321D01*
X58274086Y-53284398D01*
X58261592Y-53295355D01*
X58258017Y-53299890D01*
X58258016Y-53299891D01*
X58245825Y-53315355D01*
X58135920Y-53454769D01*
X58133231Y-53459880D01*
X58133229Y-53459883D01*
X58114773Y-53494963D01*
X58041403Y-53634415D01*
X58011050Y-53732169D01*
X57983490Y-53820927D01*
X57981207Y-53828278D01*
X57957348Y-54029864D01*
X52951500Y-54029864D01*
X52951500Y-53801699D01*
X55454143Y-53801699D01*
X55460875Y-53804900D01*
X56254085Y-53804900D01*
X56269324Y-53800425D01*
X56270529Y-53799035D01*
X56272200Y-53791352D01*
X56272200Y-53786785D01*
X56780200Y-53786785D01*
X56784675Y-53802024D01*
X56786065Y-53803229D01*
X56793748Y-53804900D01*
X57583598Y-53804900D01*
X57597129Y-53800927D01*
X57598298Y-53792792D01*
X57562858Y-53667131D01*
X57558733Y-53656384D01*
X57474103Y-53484771D01*
X57468093Y-53474963D01*
X57353600Y-53321639D01*
X57345910Y-53313099D01*
X57205392Y-53183204D01*
X57196267Y-53176203D01*
X57034436Y-53074095D01*
X57024189Y-53068874D01*
X56846460Y-52997968D01*
X56835432Y-52994701D01*
X56797969Y-52987250D01*
X56785094Y-52988402D01*
X56780200Y-53003558D01*
X56780200Y-53786785D01*
X56272200Y-53786785D01*
X56272200Y-53000400D01*
X56268394Y-52987438D01*
X56253479Y-52985502D01*
X56244932Y-52986971D01*
X56233820Y-52989948D01*
X56054295Y-53056179D01*
X56043917Y-53061129D01*
X55879473Y-53158963D01*
X55870161Y-53165729D01*
X55726297Y-53291894D01*
X55718380Y-53300237D01*
X55599918Y-53450505D01*
X55593650Y-53460156D01*
X55504558Y-53629492D01*
X55500153Y-53640127D01*
X55454362Y-53787598D01*
X55454143Y-53801699D01*
X52951500Y-53801699D01*
X52951500Y-51785862D01*
X55454871Y-51785862D01*
X55479643Y-51883402D01*
X55483484Y-51894248D01*
X55563594Y-52068020D01*
X55569345Y-52077981D01*
X55679779Y-52234243D01*
X55687257Y-52242998D01*
X55824314Y-52376512D01*
X55833258Y-52383755D01*
X55992356Y-52490061D01*
X56002466Y-52495551D01*
X56178277Y-52571085D01*
X56189220Y-52574640D01*
X56254532Y-52589419D01*
X56268605Y-52588530D01*
X56272028Y-52579581D01*
X56780200Y-52579581D01*
X56784166Y-52593087D01*
X56792872Y-52594333D01*
X56971697Y-52533630D01*
X56982194Y-52528956D01*
X57149158Y-52435452D01*
X57158630Y-52428942D01*
X57305753Y-52306582D01*
X57313882Y-52298453D01*
X57436242Y-52151330D01*
X57442752Y-52141858D01*
X57536256Y-51974894D01*
X57540930Y-51964397D01*
X57601643Y-51785544D01*
X57600410Y-51776893D01*
X57586842Y-51772900D01*
X56798315Y-51772900D01*
X56783076Y-51777375D01*
X56781871Y-51778765D01*
X56780200Y-51786448D01*
X56780200Y-52579581D01*
X56272028Y-52579581D01*
X56272200Y-52579132D01*
X56272200Y-51791015D01*
X56267725Y-51775776D01*
X56266335Y-51774571D01*
X56258652Y-51772900D01*
X55469694Y-51772900D01*
X55456163Y-51776873D01*
X55454871Y-51785862D01*
X52951500Y-51785862D01*
X52951500Y-51489864D01*
X57957348Y-51489864D01*
X57970624Y-51692422D01*
X57972045Y-51698018D01*
X57972046Y-51698023D01*
X57999434Y-51805862D01*
X58020592Y-51889169D01*
X58023009Y-51894412D01*
X58087063Y-52033357D01*
X58105577Y-52073516D01*
X58119712Y-52093516D01*
X58215910Y-52229634D01*
X58222733Y-52239289D01*
X58226875Y-52243324D01*
X58283467Y-52298453D01*
X58368138Y-52380935D01*
X58372942Y-52384145D01*
X58392034Y-52396902D01*
X58536920Y-52493712D01*
X58542223Y-52495990D01*
X58542226Y-52495992D01*
X58702913Y-52565028D01*
X58723428Y-52573842D01*
X58788340Y-52588530D01*
X58915779Y-52617367D01*
X58915784Y-52617368D01*
X58921416Y-52618642D01*
X58927187Y-52618869D01*
X58927189Y-52618869D01*
X58986956Y-52621217D01*
X59124253Y-52626612D01*
X59224699Y-52612048D01*
X59319431Y-52598313D01*
X59319436Y-52598312D01*
X59325145Y-52597484D01*
X59330609Y-52595629D01*
X59330614Y-52595628D01*
X59511893Y-52534092D01*
X59511898Y-52534090D01*
X59517365Y-52532234D01*
X59523219Y-52528956D01*
X59658763Y-52453047D01*
X59694476Y-52433047D01*
X59733087Y-52400935D01*
X59846113Y-52306931D01*
X59850545Y-52303245D01*
X59912782Y-52228414D01*
X59976653Y-52151618D01*
X59976655Y-52151615D01*
X59980347Y-52147176D01*
X60065629Y-51994894D01*
X60076710Y-51975108D01*
X60076711Y-51975106D01*
X60079534Y-51970065D01*
X60081390Y-51964598D01*
X60081392Y-51964593D01*
X60142928Y-51783314D01*
X60142929Y-51783309D01*
X60144784Y-51777845D01*
X60145612Y-51772136D01*
X60145613Y-51772131D01*
X60173379Y-51580627D01*
X60173912Y-51576953D01*
X60175432Y-51518900D01*
X60163997Y-51394451D01*
X60157387Y-51322513D01*
X60157386Y-51322510D01*
X60156858Y-51316759D01*
X60152910Y-51302761D01*
X60103325Y-51126946D01*
X60103324Y-51126944D01*
X60101757Y-51121387D01*
X60095892Y-51109492D01*
X60014531Y-50944509D01*
X60011976Y-50939328D01*
X59890520Y-50776679D01*
X59811557Y-50703686D01*
X59745703Y-50642811D01*
X59741458Y-50638887D01*
X59736575Y-50635806D01*
X59736571Y-50635803D01*
X59578675Y-50536179D01*
X59569781Y-50530567D01*
X59381239Y-50455346D01*
X59375579Y-50454220D01*
X59375575Y-50454219D01*
X59187813Y-50416871D01*
X59187810Y-50416871D01*
X59182146Y-50415744D01*
X59176371Y-50415668D01*
X59176367Y-50415668D01*
X59074993Y-50414341D01*
X58979171Y-50413087D01*
X58973474Y-50414066D01*
X58973473Y-50414066D01*
X58840757Y-50436871D01*
X58779110Y-50447464D01*
X58588663Y-50517724D01*
X58414210Y-50621512D01*
X58409870Y-50625318D01*
X58409866Y-50625321D01*
X58280194Y-50739041D01*
X58261592Y-50755355D01*
X58135920Y-50914769D01*
X58133231Y-50919880D01*
X58133229Y-50919883D01*
X58088173Y-51005521D01*
X58041403Y-51094415D01*
X57995993Y-51240660D01*
X57983490Y-51280927D01*
X57981207Y-51288278D01*
X57957348Y-51489864D01*
X52951500Y-51489864D01*
X52951500Y-51261699D01*
X55454143Y-51261699D01*
X55460875Y-51264900D01*
X56254085Y-51264900D01*
X56269324Y-51260425D01*
X56270529Y-51259035D01*
X56272200Y-51251352D01*
X56272200Y-51246785D01*
X56780200Y-51246785D01*
X56784675Y-51262024D01*
X56786065Y-51263229D01*
X56793748Y-51264900D01*
X57583598Y-51264900D01*
X57597129Y-51260927D01*
X57598298Y-51252792D01*
X57562858Y-51127131D01*
X57558733Y-51116384D01*
X57474103Y-50944771D01*
X57468093Y-50934963D01*
X57353600Y-50781639D01*
X57345910Y-50773099D01*
X57205392Y-50643204D01*
X57196267Y-50636203D01*
X57034436Y-50534095D01*
X57024189Y-50528874D01*
X56846460Y-50457968D01*
X56835432Y-50454701D01*
X56797969Y-50447250D01*
X56785094Y-50448402D01*
X56780200Y-50463558D01*
X56780200Y-51246785D01*
X56272200Y-51246785D01*
X56272200Y-50460400D01*
X56268394Y-50447438D01*
X56253479Y-50445502D01*
X56244932Y-50446971D01*
X56233820Y-50449948D01*
X56054295Y-50516179D01*
X56043917Y-50521129D01*
X55879473Y-50618963D01*
X55870161Y-50625729D01*
X55726297Y-50751894D01*
X55718380Y-50760237D01*
X55599918Y-50910505D01*
X55593650Y-50920156D01*
X55504558Y-51089492D01*
X55500153Y-51100127D01*
X55454362Y-51247598D01*
X55454143Y-51261699D01*
X52951500Y-51261699D01*
X52951500Y-49245862D01*
X55454871Y-49245862D01*
X55479643Y-49343402D01*
X55483484Y-49354248D01*
X55563594Y-49528020D01*
X55569345Y-49537981D01*
X55679779Y-49694243D01*
X55687257Y-49702998D01*
X55824314Y-49836512D01*
X55833258Y-49843755D01*
X55992356Y-49950061D01*
X56002466Y-49955551D01*
X56178277Y-50031085D01*
X56189220Y-50034640D01*
X56254532Y-50049419D01*
X56268605Y-50048530D01*
X56272028Y-50039581D01*
X56780200Y-50039581D01*
X56784166Y-50053087D01*
X56792872Y-50054333D01*
X56971697Y-49993630D01*
X56982194Y-49988956D01*
X57149158Y-49895452D01*
X57158630Y-49888942D01*
X57305753Y-49766582D01*
X57313882Y-49758453D01*
X57436242Y-49611330D01*
X57442752Y-49601858D01*
X57536256Y-49434894D01*
X57540930Y-49424397D01*
X57601643Y-49245544D01*
X57600410Y-49236893D01*
X57586842Y-49232900D01*
X56798315Y-49232900D01*
X56783076Y-49237375D01*
X56781871Y-49238765D01*
X56780200Y-49246448D01*
X56780200Y-50039581D01*
X56272028Y-50039581D01*
X56272200Y-50039132D01*
X56272200Y-49251015D01*
X56267725Y-49235776D01*
X56266335Y-49234571D01*
X56258652Y-49232900D01*
X55469694Y-49232900D01*
X55456163Y-49236873D01*
X55454871Y-49245862D01*
X52951500Y-49245862D01*
X52951500Y-48949864D01*
X57957348Y-48949864D01*
X57970624Y-49152422D01*
X57972045Y-49158018D01*
X57972046Y-49158023D01*
X57999434Y-49265862D01*
X58020592Y-49349169D01*
X58023009Y-49354412D01*
X58060112Y-49434894D01*
X58105577Y-49533516D01*
X58108910Y-49538232D01*
X58168011Y-49621858D01*
X58222733Y-49699289D01*
X58226875Y-49703324D01*
X58240421Y-49716520D01*
X58368138Y-49840935D01*
X58372942Y-49844145D01*
X58392034Y-49856902D01*
X58536920Y-49953712D01*
X58542223Y-49955990D01*
X58542226Y-49955992D01*
X58717011Y-50031085D01*
X58723428Y-50033842D01*
X58788340Y-50048530D01*
X58915779Y-50077367D01*
X58915784Y-50077368D01*
X58921416Y-50078642D01*
X58927187Y-50078869D01*
X58927189Y-50078869D01*
X58986956Y-50081217D01*
X59124253Y-50086612D01*
X59224699Y-50072048D01*
X59319431Y-50058313D01*
X59319436Y-50058312D01*
X59325145Y-50057484D01*
X59330609Y-50055629D01*
X59330614Y-50055628D01*
X59511893Y-49994092D01*
X59511898Y-49994090D01*
X59517365Y-49992234D01*
X59523219Y-49988956D01*
X59658763Y-49913047D01*
X59694476Y-49893047D01*
X59733087Y-49860935D01*
X59846113Y-49766931D01*
X59850545Y-49763245D01*
X59960019Y-49631618D01*
X59976653Y-49611618D01*
X59976655Y-49611615D01*
X59980347Y-49607176D01*
X60042796Y-49495666D01*
X60076710Y-49435108D01*
X60076711Y-49435106D01*
X60079534Y-49430065D01*
X60081390Y-49424598D01*
X60081392Y-49424593D01*
X60142928Y-49243314D01*
X60142929Y-49243309D01*
X60144784Y-49237845D01*
X60145612Y-49232136D01*
X60145613Y-49232131D01*
X60173379Y-49040627D01*
X60173912Y-49036953D01*
X60175432Y-48978900D01*
X60163496Y-48848998D01*
X60157387Y-48782513D01*
X60157386Y-48782510D01*
X60156858Y-48776759D01*
X60152910Y-48762761D01*
X60103325Y-48586946D01*
X60103324Y-48586944D01*
X60101757Y-48581387D01*
X60095892Y-48569492D01*
X60014531Y-48404509D01*
X60011976Y-48399328D01*
X59890520Y-48236679D01*
X59741458Y-48098887D01*
X59736575Y-48095806D01*
X59736571Y-48095803D01*
X59578675Y-47996179D01*
X59569781Y-47990567D01*
X59381239Y-47915346D01*
X59375579Y-47914220D01*
X59375575Y-47914219D01*
X59187813Y-47876871D01*
X59187810Y-47876871D01*
X59182146Y-47875744D01*
X59176371Y-47875668D01*
X59176367Y-47875668D01*
X59074993Y-47874341D01*
X58979171Y-47873087D01*
X58973474Y-47874066D01*
X58973473Y-47874066D01*
X58840757Y-47896871D01*
X58779110Y-47907464D01*
X58588663Y-47977724D01*
X58414210Y-48081512D01*
X58409870Y-48085318D01*
X58409866Y-48085321D01*
X58295805Y-48185351D01*
X58261592Y-48215355D01*
X58135920Y-48374769D01*
X58133231Y-48379880D01*
X58133229Y-48379883D01*
X58114773Y-48414963D01*
X58041403Y-48554415D01*
X58006071Y-48668203D01*
X57983490Y-48740927D01*
X57981207Y-48748278D01*
X57957348Y-48949864D01*
X52951500Y-48949864D01*
X52951500Y-48721699D01*
X55454143Y-48721699D01*
X55460875Y-48724900D01*
X56254085Y-48724900D01*
X56269324Y-48720425D01*
X56270529Y-48719035D01*
X56272200Y-48711352D01*
X56272200Y-48706785D01*
X56780200Y-48706785D01*
X56784675Y-48722024D01*
X56786065Y-48723229D01*
X56793748Y-48724900D01*
X57583598Y-48724900D01*
X57597129Y-48720927D01*
X57598298Y-48712792D01*
X57562858Y-48587131D01*
X57558733Y-48576384D01*
X57474103Y-48404771D01*
X57468093Y-48394963D01*
X57353600Y-48241639D01*
X57345910Y-48233099D01*
X57205392Y-48103204D01*
X57196267Y-48096203D01*
X57034436Y-47994095D01*
X57024189Y-47988874D01*
X56846460Y-47917968D01*
X56835432Y-47914701D01*
X56797969Y-47907250D01*
X56785094Y-47908402D01*
X56780200Y-47923558D01*
X56780200Y-48706785D01*
X56272200Y-48706785D01*
X56272200Y-47920400D01*
X56268394Y-47907438D01*
X56253479Y-47905502D01*
X56244932Y-47906971D01*
X56233820Y-47909948D01*
X56054295Y-47976179D01*
X56043917Y-47981129D01*
X55879473Y-48078963D01*
X55870161Y-48085729D01*
X55726297Y-48211894D01*
X55718380Y-48220237D01*
X55599918Y-48370505D01*
X55593650Y-48380156D01*
X55504558Y-48549492D01*
X55500153Y-48560127D01*
X55454362Y-48707598D01*
X55454143Y-48721699D01*
X52951500Y-48721699D01*
X52951500Y-46705862D01*
X55454871Y-46705862D01*
X55479643Y-46803402D01*
X55483484Y-46814248D01*
X55563594Y-46988020D01*
X55569345Y-46997981D01*
X55679779Y-47154243D01*
X55687257Y-47162998D01*
X55824314Y-47296512D01*
X55833258Y-47303755D01*
X55992356Y-47410061D01*
X56002466Y-47415551D01*
X56178277Y-47491085D01*
X56189220Y-47494640D01*
X56254532Y-47509419D01*
X56268605Y-47508530D01*
X56272028Y-47499581D01*
X56780200Y-47499581D01*
X56784166Y-47513087D01*
X56792872Y-47514333D01*
X56971697Y-47453630D01*
X56982194Y-47448956D01*
X57149158Y-47355452D01*
X57158630Y-47348942D01*
X57305753Y-47226582D01*
X57313882Y-47218453D01*
X57436242Y-47071330D01*
X57442752Y-47061858D01*
X57536256Y-46894894D01*
X57540930Y-46884397D01*
X57601643Y-46705544D01*
X57600410Y-46696893D01*
X57586842Y-46692900D01*
X56798315Y-46692900D01*
X56783076Y-46697375D01*
X56781871Y-46698765D01*
X56780200Y-46706448D01*
X56780200Y-47499581D01*
X56272028Y-47499581D01*
X56272200Y-47499132D01*
X56272200Y-46711015D01*
X56267725Y-46695776D01*
X56266335Y-46694571D01*
X56258652Y-46692900D01*
X55469694Y-46692900D01*
X55456163Y-46696873D01*
X55454871Y-46705862D01*
X52951500Y-46705862D01*
X52951500Y-46409864D01*
X57957348Y-46409864D01*
X57970624Y-46612422D01*
X57972045Y-46618018D01*
X57972046Y-46618023D01*
X58010064Y-46767715D01*
X58020592Y-46809169D01*
X58023009Y-46814412D01*
X58060112Y-46894894D01*
X58105577Y-46993516D01*
X58108910Y-46998232D01*
X58168011Y-47081858D01*
X58222733Y-47159289D01*
X58226875Y-47163324D01*
X58243264Y-47179289D01*
X58368138Y-47300935D01*
X58372942Y-47304145D01*
X58392034Y-47316902D01*
X58536920Y-47413712D01*
X58542223Y-47415990D01*
X58542226Y-47415992D01*
X58688726Y-47478933D01*
X58723428Y-47493842D01*
X58788340Y-47508530D01*
X58915779Y-47537367D01*
X58915784Y-47537368D01*
X58921416Y-47538642D01*
X58927187Y-47538869D01*
X58927189Y-47538869D01*
X58986956Y-47541217D01*
X59124253Y-47546612D01*
X59224699Y-47532048D01*
X59319431Y-47518313D01*
X59319436Y-47518312D01*
X59325145Y-47517484D01*
X59330609Y-47515629D01*
X59330614Y-47515628D01*
X59511893Y-47454092D01*
X59511898Y-47454090D01*
X59517365Y-47452234D01*
X59523219Y-47448956D01*
X59658763Y-47373047D01*
X59694476Y-47353047D01*
X59712750Y-47337849D01*
X59846113Y-47226931D01*
X59850545Y-47223245D01*
X59903737Y-47159289D01*
X59976653Y-47071618D01*
X59976655Y-47071615D01*
X59980347Y-47067176D01*
X60065629Y-46914894D01*
X60076710Y-46895108D01*
X60076711Y-46895106D01*
X60079534Y-46890065D01*
X60081390Y-46884598D01*
X60081392Y-46884593D01*
X60142928Y-46703314D01*
X60142929Y-46703309D01*
X60144784Y-46697845D01*
X60145612Y-46692136D01*
X60145613Y-46692131D01*
X60173379Y-46500627D01*
X60173912Y-46496953D01*
X60175432Y-46438900D01*
X60162012Y-46292852D01*
X60157387Y-46242513D01*
X60157386Y-46242510D01*
X60156858Y-46236759D01*
X60152204Y-46220258D01*
X60103325Y-46046946D01*
X60103324Y-46046944D01*
X60101757Y-46041387D01*
X60095892Y-46029492D01*
X60014531Y-45864509D01*
X60011976Y-45859328D01*
X60007632Y-45853510D01*
X59974600Y-45809276D01*
X59890520Y-45696679D01*
X59741458Y-45558887D01*
X59736575Y-45555806D01*
X59736571Y-45555803D01*
X59578675Y-45456179D01*
X59569781Y-45450567D01*
X59381239Y-45375346D01*
X59375579Y-45374220D01*
X59375575Y-45374219D01*
X59187813Y-45336871D01*
X59187810Y-45336871D01*
X59182146Y-45335744D01*
X59176371Y-45335668D01*
X59176367Y-45335668D01*
X59074993Y-45334341D01*
X58979171Y-45333087D01*
X58973474Y-45334066D01*
X58973473Y-45334066D01*
X58840757Y-45356871D01*
X58779110Y-45367464D01*
X58588663Y-45437724D01*
X58414210Y-45541512D01*
X58409870Y-45545318D01*
X58409866Y-45545321D01*
X58306526Y-45635949D01*
X58261592Y-45675355D01*
X58135920Y-45834769D01*
X58133231Y-45839880D01*
X58133229Y-45839883D01*
X58114773Y-45874963D01*
X58041403Y-46014415D01*
X58006307Y-46127443D01*
X57983490Y-46200927D01*
X57981207Y-46208278D01*
X57957348Y-46409864D01*
X52951500Y-46409864D01*
X52951500Y-46181699D01*
X55454143Y-46181699D01*
X55460875Y-46184900D01*
X56254085Y-46184900D01*
X56269324Y-46180425D01*
X56270529Y-46179035D01*
X56272200Y-46171352D01*
X56272200Y-46166785D01*
X56780200Y-46166785D01*
X56784675Y-46182024D01*
X56786065Y-46183229D01*
X56793748Y-46184900D01*
X57583598Y-46184900D01*
X57597129Y-46180927D01*
X57598298Y-46172792D01*
X57562858Y-46047131D01*
X57558733Y-46036384D01*
X57474103Y-45864771D01*
X57468093Y-45854963D01*
X57353600Y-45701639D01*
X57345910Y-45693099D01*
X57205392Y-45563204D01*
X57196267Y-45556203D01*
X57034436Y-45454095D01*
X57024189Y-45448874D01*
X56846460Y-45377968D01*
X56835432Y-45374701D01*
X56797969Y-45367250D01*
X56785094Y-45368402D01*
X56780200Y-45383558D01*
X56780200Y-46166785D01*
X56272200Y-46166785D01*
X56272200Y-45380400D01*
X56268394Y-45367438D01*
X56253479Y-45365502D01*
X56244932Y-45366971D01*
X56233820Y-45369948D01*
X56054295Y-45436179D01*
X56043917Y-45441129D01*
X55879473Y-45538963D01*
X55870161Y-45545729D01*
X55726297Y-45671894D01*
X55718380Y-45680237D01*
X55599918Y-45830505D01*
X55593650Y-45840156D01*
X55504558Y-46009492D01*
X55500153Y-46020127D01*
X55454362Y-46167598D01*
X55454143Y-46181699D01*
X52951500Y-46181699D01*
X52951500Y-44165862D01*
X55454871Y-44165862D01*
X55479643Y-44263402D01*
X55483484Y-44274248D01*
X55563594Y-44448020D01*
X55569345Y-44457981D01*
X55679779Y-44614243D01*
X55687257Y-44622998D01*
X55824314Y-44756512D01*
X55833258Y-44763755D01*
X55992356Y-44870061D01*
X56002466Y-44875551D01*
X56178277Y-44951085D01*
X56189220Y-44954640D01*
X56254532Y-44969419D01*
X56268605Y-44968530D01*
X56272028Y-44959581D01*
X56780200Y-44959581D01*
X56784166Y-44973087D01*
X56792872Y-44974333D01*
X56971697Y-44913630D01*
X56982194Y-44908956D01*
X57149158Y-44815452D01*
X57158630Y-44808942D01*
X57305753Y-44686582D01*
X57313882Y-44678453D01*
X57436242Y-44531330D01*
X57442752Y-44521858D01*
X57536256Y-44354894D01*
X57540930Y-44344397D01*
X57601643Y-44165544D01*
X57600410Y-44156893D01*
X57586842Y-44152900D01*
X56798315Y-44152900D01*
X56783076Y-44157375D01*
X56781871Y-44158765D01*
X56780200Y-44166448D01*
X56780200Y-44959581D01*
X56272028Y-44959581D01*
X56272200Y-44959132D01*
X56272200Y-44171015D01*
X56267725Y-44155776D01*
X56266335Y-44154571D01*
X56258652Y-44152900D01*
X55469694Y-44152900D01*
X55456163Y-44156873D01*
X55454871Y-44165862D01*
X52951500Y-44165862D01*
X52951500Y-43869864D01*
X57957348Y-43869864D01*
X57970624Y-44072422D01*
X57972045Y-44078018D01*
X57972046Y-44078023D01*
X57999434Y-44185862D01*
X58020592Y-44269169D01*
X58023009Y-44274412D01*
X58059064Y-44352621D01*
X58105577Y-44453516D01*
X58119712Y-44473516D01*
X58200232Y-44587450D01*
X58222733Y-44619289D01*
X58226875Y-44623324D01*
X58238817Y-44634957D01*
X58368138Y-44760935D01*
X58372942Y-44764145D01*
X58392034Y-44776902D01*
X58536920Y-44873712D01*
X58542223Y-44875990D01*
X58542226Y-44875992D01*
X58717011Y-44951085D01*
X58723428Y-44953842D01*
X58788340Y-44968530D01*
X58915779Y-44997367D01*
X58915784Y-44997368D01*
X58921416Y-44998642D01*
X58927187Y-44998869D01*
X58927189Y-44998869D01*
X58986956Y-45001217D01*
X59124253Y-45006612D01*
X59224699Y-44992048D01*
X59319431Y-44978313D01*
X59319436Y-44978312D01*
X59325145Y-44977484D01*
X59330609Y-44975629D01*
X59330614Y-44975628D01*
X59511893Y-44914092D01*
X59511898Y-44914090D01*
X59517365Y-44912234D01*
X59523219Y-44908956D01*
X59658763Y-44833047D01*
X59694476Y-44813047D01*
X59705036Y-44804265D01*
X59846113Y-44686931D01*
X59850545Y-44683245D01*
X59903737Y-44619289D01*
X59976653Y-44531618D01*
X59976655Y-44531615D01*
X59980347Y-44527176D01*
X60047705Y-44406900D01*
X60076710Y-44355108D01*
X60076711Y-44355106D01*
X60079534Y-44350065D01*
X60081390Y-44344598D01*
X60081392Y-44344593D01*
X60142928Y-44163314D01*
X60142929Y-44163309D01*
X60144784Y-44157845D01*
X60145612Y-44152136D01*
X60145613Y-44152131D01*
X60163191Y-44030896D01*
X60173912Y-43956953D01*
X60175432Y-43898900D01*
X60163997Y-43774451D01*
X60157387Y-43702513D01*
X60157386Y-43702510D01*
X60156858Y-43696759D01*
X60152910Y-43682761D01*
X60103325Y-43506946D01*
X60103324Y-43506944D01*
X60101757Y-43501387D01*
X60095892Y-43489492D01*
X60014531Y-43324509D01*
X60011976Y-43319328D01*
X59890520Y-43156679D01*
X59741458Y-43018887D01*
X59736575Y-43015806D01*
X59736571Y-43015803D01*
X59578675Y-42916179D01*
X59569781Y-42910567D01*
X59381239Y-42835346D01*
X59375579Y-42834220D01*
X59375575Y-42834219D01*
X59187813Y-42796871D01*
X59187810Y-42796871D01*
X59182146Y-42795744D01*
X59176371Y-42795668D01*
X59176367Y-42795668D01*
X59074993Y-42794341D01*
X58979171Y-42793087D01*
X58973474Y-42794066D01*
X58973473Y-42794066D01*
X58840757Y-42816871D01*
X58779110Y-42827464D01*
X58588663Y-42897724D01*
X58414210Y-43001512D01*
X58409870Y-43005318D01*
X58409866Y-43005321D01*
X58308129Y-43094543D01*
X58261592Y-43135355D01*
X58135920Y-43294769D01*
X58133231Y-43299880D01*
X58133229Y-43299883D01*
X58114773Y-43334963D01*
X58041403Y-43474415D01*
X58022141Y-43536449D01*
X57983490Y-43660927D01*
X57981207Y-43668278D01*
X57957348Y-43869864D01*
X52951500Y-43869864D01*
X52951500Y-43641699D01*
X55454143Y-43641699D01*
X55460875Y-43644900D01*
X56254085Y-43644900D01*
X56269324Y-43640425D01*
X56270529Y-43639035D01*
X56272200Y-43631352D01*
X56272200Y-43626785D01*
X56780200Y-43626785D01*
X56784675Y-43642024D01*
X56786065Y-43643229D01*
X56793748Y-43644900D01*
X57583598Y-43644900D01*
X57597129Y-43640927D01*
X57598298Y-43632792D01*
X57562858Y-43507131D01*
X57558733Y-43496384D01*
X57474103Y-43324771D01*
X57468093Y-43314963D01*
X57353600Y-43161639D01*
X57345910Y-43153099D01*
X57205392Y-43023204D01*
X57196267Y-43016203D01*
X57034436Y-42914095D01*
X57024189Y-42908874D01*
X56846460Y-42837968D01*
X56835432Y-42834701D01*
X56797969Y-42827250D01*
X56785094Y-42828402D01*
X56780200Y-42843558D01*
X56780200Y-43626785D01*
X56272200Y-43626785D01*
X56272200Y-42840400D01*
X56268394Y-42827438D01*
X56253479Y-42825502D01*
X56244932Y-42826971D01*
X56233820Y-42829948D01*
X56054295Y-42896179D01*
X56043917Y-42901129D01*
X55879473Y-42998963D01*
X55870161Y-43005729D01*
X55726297Y-43131894D01*
X55718380Y-43140237D01*
X55599918Y-43290505D01*
X55593650Y-43300156D01*
X55504558Y-43469492D01*
X55500153Y-43480127D01*
X55454362Y-43627598D01*
X55454143Y-43641699D01*
X52951500Y-43641699D01*
X52951500Y-41625862D01*
X55454871Y-41625862D01*
X55479643Y-41723402D01*
X55483484Y-41734248D01*
X55563594Y-41908020D01*
X55569345Y-41917981D01*
X55679779Y-42074243D01*
X55687257Y-42082998D01*
X55824314Y-42216512D01*
X55833258Y-42223755D01*
X55992356Y-42330061D01*
X56002466Y-42335551D01*
X56178277Y-42411085D01*
X56189220Y-42414640D01*
X56254532Y-42429419D01*
X56268605Y-42428530D01*
X56272028Y-42419581D01*
X56780200Y-42419581D01*
X56784166Y-42433087D01*
X56792872Y-42434333D01*
X56971697Y-42373630D01*
X56982194Y-42368956D01*
X57149158Y-42275452D01*
X57158630Y-42268942D01*
X57305753Y-42146582D01*
X57313882Y-42138453D01*
X57436242Y-41991330D01*
X57442752Y-41981858D01*
X57536256Y-41814894D01*
X57540930Y-41804397D01*
X57601643Y-41625544D01*
X57600410Y-41616893D01*
X57586842Y-41612900D01*
X56798315Y-41612900D01*
X56783076Y-41617375D01*
X56781871Y-41618765D01*
X56780200Y-41626448D01*
X56780200Y-42419581D01*
X56272028Y-42419581D01*
X56272200Y-42419132D01*
X56272200Y-41631015D01*
X56267725Y-41615776D01*
X56266335Y-41614571D01*
X56258652Y-41612900D01*
X55469694Y-41612900D01*
X55456163Y-41616873D01*
X55454871Y-41625862D01*
X52951500Y-41625862D01*
X52951500Y-41329864D01*
X57957348Y-41329864D01*
X57970624Y-41532422D01*
X57972045Y-41538018D01*
X57972046Y-41538023D01*
X57999434Y-41645862D01*
X58020592Y-41729169D01*
X58023009Y-41734412D01*
X58060112Y-41814894D01*
X58105577Y-41913516D01*
X58108910Y-41918232D01*
X58212640Y-42065007D01*
X58222733Y-42079289D01*
X58368138Y-42220935D01*
X58372942Y-42224145D01*
X58402290Y-42243755D01*
X58536920Y-42333712D01*
X58542223Y-42335990D01*
X58542226Y-42335992D01*
X58630907Y-42374092D01*
X58723428Y-42413842D01*
X58788340Y-42428530D01*
X58915779Y-42457367D01*
X58915784Y-42457368D01*
X58921416Y-42458642D01*
X58927187Y-42458869D01*
X58927189Y-42458869D01*
X58986956Y-42461217D01*
X59124253Y-42466612D01*
X59224699Y-42452048D01*
X59319431Y-42438313D01*
X59319436Y-42438312D01*
X59325145Y-42437484D01*
X59330609Y-42435629D01*
X59330614Y-42435628D01*
X59511893Y-42374092D01*
X59511898Y-42374090D01*
X59517365Y-42372234D01*
X59523219Y-42368956D01*
X59592670Y-42330061D01*
X59694476Y-42273047D01*
X59710122Y-42260035D01*
X59846113Y-42146931D01*
X59850545Y-42143245D01*
X59926561Y-42051846D01*
X59976653Y-41991618D01*
X59976655Y-41991615D01*
X59980347Y-41987176D01*
X60079534Y-41810065D01*
X60081390Y-41804598D01*
X60081392Y-41804593D01*
X60142928Y-41623314D01*
X60142929Y-41623309D01*
X60144784Y-41617845D01*
X60145612Y-41612136D01*
X60145613Y-41612131D01*
X60173379Y-41420627D01*
X60173912Y-41416953D01*
X60175432Y-41358900D01*
X60159009Y-41180166D01*
X60157387Y-41162513D01*
X60157386Y-41162510D01*
X60156858Y-41156759D01*
X60155290Y-41151199D01*
X60103325Y-40966946D01*
X60103324Y-40966944D01*
X60101757Y-40961387D01*
X60095892Y-40949492D01*
X60014531Y-40784509D01*
X60011976Y-40779328D01*
X59890520Y-40616679D01*
X59741458Y-40478887D01*
X59736575Y-40475806D01*
X59736571Y-40475803D01*
X59578675Y-40376179D01*
X59569781Y-40370567D01*
X59381239Y-40295346D01*
X59375579Y-40294220D01*
X59375575Y-40294219D01*
X59187813Y-40256871D01*
X59187810Y-40256871D01*
X59182146Y-40255744D01*
X59176371Y-40255668D01*
X59176367Y-40255668D01*
X59074993Y-40254341D01*
X58979171Y-40253087D01*
X58973474Y-40254066D01*
X58973473Y-40254066D01*
X58790528Y-40285502D01*
X58779110Y-40287464D01*
X58588663Y-40357724D01*
X58414210Y-40461512D01*
X58409870Y-40465318D01*
X58409866Y-40465321D01*
X58316440Y-40547254D01*
X58261592Y-40595355D01*
X58135920Y-40754769D01*
X58133231Y-40759880D01*
X58133229Y-40759883D01*
X58085328Y-40850927D01*
X58041403Y-40934415D01*
X58024814Y-40987840D01*
X57983490Y-41120927D01*
X57981207Y-41128278D01*
X57957348Y-41329864D01*
X52951500Y-41329864D01*
X52951500Y-41101699D01*
X55454143Y-41101699D01*
X55460875Y-41104900D01*
X56254085Y-41104900D01*
X56269324Y-41100425D01*
X56270529Y-41099035D01*
X56272200Y-41091352D01*
X56272200Y-41086785D01*
X56780200Y-41086785D01*
X56784675Y-41102024D01*
X56786065Y-41103229D01*
X56793748Y-41104900D01*
X57583598Y-41104900D01*
X57597129Y-41100927D01*
X57598298Y-41092792D01*
X57562858Y-40967131D01*
X57558733Y-40956384D01*
X57474103Y-40784771D01*
X57468093Y-40774963D01*
X57353600Y-40621639D01*
X57345910Y-40613099D01*
X57205392Y-40483204D01*
X57196267Y-40476203D01*
X57034436Y-40374095D01*
X57024189Y-40368874D01*
X56846460Y-40297968D01*
X56835432Y-40294701D01*
X56797969Y-40287250D01*
X56785094Y-40288402D01*
X56780200Y-40303558D01*
X56780200Y-41086785D01*
X56272200Y-41086785D01*
X56272200Y-40300400D01*
X56268394Y-40287438D01*
X56253479Y-40285502D01*
X56244932Y-40286971D01*
X56233820Y-40289948D01*
X56054295Y-40356179D01*
X56043917Y-40361129D01*
X55879473Y-40458963D01*
X55870161Y-40465729D01*
X55726297Y-40591894D01*
X55718380Y-40600237D01*
X55599918Y-40750505D01*
X55593650Y-40760156D01*
X55504558Y-40929492D01*
X55500153Y-40940127D01*
X55454362Y-41087598D01*
X55454143Y-41101699D01*
X52951500Y-41101699D01*
X52951500Y-39085862D01*
X55454871Y-39085862D01*
X55479643Y-39183402D01*
X55483484Y-39194248D01*
X55563594Y-39368020D01*
X55569345Y-39377981D01*
X55679779Y-39534243D01*
X55687257Y-39542998D01*
X55824314Y-39676512D01*
X55833258Y-39683755D01*
X55992356Y-39790061D01*
X56002466Y-39795551D01*
X56178277Y-39871085D01*
X56189220Y-39874640D01*
X56254532Y-39889419D01*
X56268605Y-39888530D01*
X56272028Y-39879581D01*
X56780200Y-39879581D01*
X56784166Y-39893087D01*
X56792872Y-39894333D01*
X56971697Y-39833630D01*
X56982194Y-39828956D01*
X57149158Y-39735452D01*
X57158630Y-39728942D01*
X57305753Y-39606582D01*
X57313882Y-39598453D01*
X57436242Y-39451330D01*
X57442752Y-39441858D01*
X57536256Y-39274894D01*
X57540930Y-39264397D01*
X57601643Y-39085544D01*
X57600410Y-39076893D01*
X57586842Y-39072900D01*
X56798315Y-39072900D01*
X56783076Y-39077375D01*
X56781871Y-39078765D01*
X56780200Y-39086448D01*
X56780200Y-39879581D01*
X56272028Y-39879581D01*
X56272200Y-39879132D01*
X56272200Y-39091015D01*
X56267725Y-39075776D01*
X56266335Y-39074571D01*
X56258652Y-39072900D01*
X55469694Y-39072900D01*
X55456163Y-39076873D01*
X55454871Y-39085862D01*
X52951500Y-39085862D01*
X52951500Y-38789864D01*
X57957348Y-38789864D01*
X57970624Y-38992422D01*
X57972045Y-38998018D01*
X57972046Y-38998023D01*
X58007417Y-39137292D01*
X58020592Y-39189169D01*
X58023009Y-39194412D01*
X58060112Y-39274894D01*
X58105577Y-39373516D01*
X58222733Y-39539289D01*
X58226875Y-39543324D01*
X58261772Y-39577319D01*
X58368138Y-39680935D01*
X58372942Y-39684145D01*
X58439985Y-39728942D01*
X58536920Y-39793712D01*
X58542223Y-39795990D01*
X58542226Y-39795992D01*
X58630907Y-39834092D01*
X58723428Y-39873842D01*
X58788340Y-39888530D01*
X58915779Y-39917367D01*
X58915784Y-39917368D01*
X58921416Y-39918642D01*
X58927187Y-39918869D01*
X58927189Y-39918869D01*
X58986956Y-39921217D01*
X59124253Y-39926612D01*
X59224699Y-39912048D01*
X59319431Y-39898313D01*
X59319436Y-39898312D01*
X59325145Y-39897484D01*
X59330609Y-39895629D01*
X59330614Y-39895628D01*
X59511893Y-39834092D01*
X59511898Y-39834090D01*
X59517365Y-39832234D01*
X59523219Y-39828956D01*
X59640234Y-39763424D01*
X59694476Y-39733047D01*
X59703041Y-39725924D01*
X59846113Y-39606931D01*
X59850545Y-39603245D01*
X59907934Y-39534243D01*
X59976653Y-39451618D01*
X59976655Y-39451615D01*
X59980347Y-39447176D01*
X60060241Y-39304515D01*
X60076710Y-39275108D01*
X60076711Y-39275106D01*
X60079534Y-39270065D01*
X60081390Y-39264598D01*
X60081392Y-39264593D01*
X60142928Y-39083314D01*
X60142929Y-39083309D01*
X60144784Y-39077845D01*
X60145612Y-39072136D01*
X60145613Y-39072131D01*
X60173379Y-38880627D01*
X60173912Y-38876953D01*
X60175432Y-38818900D01*
X60162568Y-38678899D01*
X60157387Y-38622513D01*
X60157386Y-38622510D01*
X60156858Y-38616759D01*
X60152135Y-38600011D01*
X60103325Y-38426946D01*
X60103324Y-38426944D01*
X60101757Y-38421387D01*
X60091178Y-38399933D01*
X60014531Y-38244509D01*
X60011976Y-38239328D01*
X59890520Y-38076679D01*
X59741458Y-37938887D01*
X59736575Y-37935806D01*
X59736571Y-37935803D01*
X59590928Y-37843910D01*
X59569781Y-37830567D01*
X59381239Y-37755346D01*
X59375579Y-37754220D01*
X59375575Y-37754219D01*
X59187813Y-37716871D01*
X59187810Y-37716871D01*
X59182146Y-37715744D01*
X59176371Y-37715668D01*
X59176367Y-37715668D01*
X59074993Y-37714341D01*
X58979171Y-37713087D01*
X58973474Y-37714066D01*
X58973473Y-37714066D01*
X58790528Y-37745502D01*
X58779110Y-37747464D01*
X58588663Y-37817724D01*
X58414210Y-37921512D01*
X58409870Y-37925318D01*
X58409866Y-37925321D01*
X58321545Y-38002777D01*
X58261592Y-38055355D01*
X58135920Y-38214769D01*
X58133231Y-38219880D01*
X58133229Y-38219883D01*
X58092657Y-38296997D01*
X58041403Y-38394415D01*
X57981207Y-38588278D01*
X57957348Y-38789864D01*
X52951500Y-38789864D01*
X52951500Y-38561699D01*
X55454143Y-38561699D01*
X55460875Y-38564900D01*
X56254085Y-38564900D01*
X56269324Y-38560425D01*
X56270529Y-38559035D01*
X56272200Y-38551352D01*
X56272200Y-38546785D01*
X56780200Y-38546785D01*
X56784675Y-38562024D01*
X56786065Y-38563229D01*
X56793748Y-38564900D01*
X57583598Y-38564900D01*
X57597129Y-38560927D01*
X57598298Y-38552792D01*
X57562858Y-38427131D01*
X57558733Y-38416384D01*
X57474103Y-38244771D01*
X57468093Y-38234963D01*
X57353600Y-38081639D01*
X57345910Y-38073099D01*
X57205392Y-37943204D01*
X57196267Y-37936203D01*
X57034436Y-37834095D01*
X57024189Y-37828874D01*
X56846460Y-37757968D01*
X56835432Y-37754701D01*
X56797969Y-37747250D01*
X56785094Y-37748402D01*
X56780200Y-37763558D01*
X56780200Y-38546785D01*
X56272200Y-38546785D01*
X56272200Y-37760400D01*
X56268394Y-37747438D01*
X56253479Y-37745502D01*
X56244932Y-37746971D01*
X56233820Y-37749948D01*
X56054295Y-37816179D01*
X56043917Y-37821129D01*
X55879473Y-37918963D01*
X55870161Y-37925729D01*
X55726297Y-38051894D01*
X55718380Y-38060237D01*
X55599918Y-38210505D01*
X55593650Y-38220156D01*
X55504558Y-38389492D01*
X55500153Y-38400127D01*
X55454362Y-38547598D01*
X55454143Y-38561699D01*
X52951500Y-38561699D01*
X52951500Y-35830786D01*
X79649618Y-35830786D01*
X79675179Y-36098700D01*
X79676264Y-36103134D01*
X79676265Y-36103140D01*
X79687321Y-36148322D01*
X79739147Y-36360118D01*
X79840183Y-36609563D01*
X79976169Y-36841810D01*
X80087214Y-36980665D01*
X80116481Y-37017261D01*
X80144258Y-37051995D01*
X80340927Y-37235713D01*
X80562057Y-37389116D01*
X80803016Y-37508991D01*
X80807350Y-37510412D01*
X80807353Y-37510413D01*
X81054423Y-37591407D01*
X81054429Y-37591408D01*
X81058756Y-37592827D01*
X81063247Y-37593607D01*
X81063248Y-37593607D01*
X81320138Y-37638211D01*
X81320146Y-37638212D01*
X81323919Y-37638867D01*
X81327756Y-37639058D01*
X81407377Y-37643022D01*
X81407385Y-37643022D01*
X81408948Y-37643100D01*
X81576974Y-37643100D01*
X81579242Y-37642935D01*
X81579254Y-37642935D01*
X81710057Y-37633444D01*
X81777025Y-37628585D01*
X81781480Y-37627601D01*
X81781483Y-37627601D01*
X82035370Y-37571547D01*
X82035372Y-37571546D01*
X82039826Y-37570563D01*
X82291500Y-37475213D01*
X82515443Y-37350824D01*
X82522779Y-37346749D01*
X82522780Y-37346748D01*
X82526772Y-37344531D01*
X82673442Y-37232596D01*
X82737091Y-37184021D01*
X82737095Y-37184017D01*
X82740716Y-37181254D01*
X82928849Y-36988803D01*
X82999392Y-36891887D01*
X83084542Y-36774904D01*
X83084547Y-36774897D01*
X83087230Y-36771210D01*
X83212541Y-36533033D01*
X83302157Y-36279262D01*
X83332244Y-36126612D01*
X83353320Y-36019683D01*
X83353321Y-36019677D01*
X83354201Y-36015211D01*
X83354428Y-36010655D01*
X83367355Y-35750983D01*
X83367355Y-35750977D01*
X83367582Y-35746414D01*
X83342021Y-35478500D01*
X83278053Y-35217082D01*
X83177017Y-34967637D01*
X83041031Y-34735390D01*
X82872942Y-34525205D01*
X82676273Y-34341487D01*
X82455143Y-34188084D01*
X82214184Y-34068209D01*
X82209850Y-34066788D01*
X82209847Y-34066787D01*
X81962777Y-33985793D01*
X81962771Y-33985792D01*
X81958444Y-33984373D01*
X81953952Y-33983593D01*
X81697062Y-33938989D01*
X81697054Y-33938988D01*
X81693281Y-33938333D01*
X81683318Y-33937837D01*
X81609823Y-33934178D01*
X81609815Y-33934178D01*
X81608252Y-33934100D01*
X81440226Y-33934100D01*
X81437958Y-33934265D01*
X81437946Y-33934265D01*
X81307143Y-33943756D01*
X81240175Y-33948615D01*
X81235720Y-33949599D01*
X81235717Y-33949599D01*
X80981830Y-34005653D01*
X80981828Y-34005654D01*
X80977374Y-34006637D01*
X80725700Y-34101987D01*
X80490428Y-34232669D01*
X80486796Y-34235441D01*
X80280109Y-34393179D01*
X80280105Y-34393183D01*
X80276484Y-34395946D01*
X80088351Y-34588397D01*
X80085666Y-34592086D01*
X79932658Y-34802296D01*
X79932653Y-34802303D01*
X79929970Y-34805990D01*
X79804659Y-35044167D01*
X79715043Y-35297938D01*
X79714160Y-35302420D01*
X79679455Y-35478500D01*
X79662999Y-35561989D01*
X79662772Y-35566542D01*
X79662772Y-35566545D01*
X79653591Y-35750983D01*
X79649618Y-35830786D01*
X52951500Y-35830786D01*
X52951500Y-33367100D01*
X52971502Y-33298979D01*
X53025158Y-33252486D01*
X53077500Y-33241100D01*
X83904700Y-33241100D01*
X83972821Y-33261102D01*
G37*
G04 #@! TD.AperFunction*
M02*
