G04 #@! TF.GenerationSoftware,KiCad,Pcbnew,(6.0.6)*
G04 #@! TF.CreationDate,2022-08-27T12:40:56+02:00*
G04 #@! TF.ProjectId,afe-power-supply,6166652d-706f-4776-9572-2d737570706c,rev?*
G04 #@! TF.SameCoordinates,Original*
G04 #@! TF.FileFunction,Legend,Bot*
G04 #@! TF.FilePolarity,Positive*
%FSLAX46Y46*%
G04 Gerber Fmt 4.6, Leading zero omitted, Abs format (unit mm)*
G04 Created by KiCad (PCBNEW (6.0.6)) date 2022-08-27 12:40:56*
%MOMM*%
%LPD*%
G01*
G04 APERTURE LIST*
G04 Aperture macros list*
%AMRoundRect*
0 Rectangle with rounded corners*
0 $1 Rounding radius*
0 $2 $3 $4 $5 $6 $7 $8 $9 X,Y pos of 4 corners*
0 Add a 4 corners polygon primitive as box body*
4,1,4,$2,$3,$4,$5,$6,$7,$8,$9,$2,$3,0*
0 Add four circle primitives for the rounded corners*
1,1,$1+$1,$2,$3*
1,1,$1+$1,$4,$5*
1,1,$1+$1,$6,$7*
1,1,$1+$1,$8,$9*
0 Add four rect primitives between the rounded corners*
20,1,$1+$1,$2,$3,$4,$5,0*
20,1,$1+$1,$4,$5,$6,$7,0*
20,1,$1+$1,$6,$7,$8,$9,0*
20,1,$1+$1,$8,$9,$2,$3,0*%
G04 Aperture macros list end*
%ADD10C,0.150000*%
%ADD11C,0.120000*%
%ADD12C,3.200000*%
%ADD13R,2.400000X2.400000*%
%ADD14C,2.400000*%
%ADD15R,2.600000X2.600000*%
%ADD16C,2.600000*%
%ADD17R,1.700000X1.700000*%
%ADD18R,1.600000X2.400000*%
%ADD19O,1.600000X2.400000*%
%ADD20R,2.000000X2.000000*%
%ADD21C,2.000000*%
%ADD22RoundRect,0.250000X-0.650000X0.412500X-0.650000X-0.412500X0.650000X-0.412500X0.650000X0.412500X0*%
%ADD23RoundRect,0.250000X-0.350000X-0.450000X0.350000X-0.450000X0.350000X0.450000X-0.350000X0.450000X0*%
%ADD24R,1.500000X4.000000*%
G04 APERTURE END LIST*
D10*
X102383333Y-41735714D02*
X102421428Y-41773809D01*
X102535714Y-41811904D01*
X102611904Y-41811904D01*
X102726190Y-41773809D01*
X102802380Y-41697619D01*
X102840476Y-41621428D01*
X102878571Y-41469047D01*
X102878571Y-41354761D01*
X102840476Y-41202380D01*
X102802380Y-41126190D01*
X102726190Y-41050000D01*
X102611904Y-41011904D01*
X102535714Y-41011904D01*
X102421428Y-41050000D01*
X102383333Y-41088095D01*
X101697619Y-41278571D02*
X101697619Y-41811904D01*
X101888095Y-40973809D02*
X102078571Y-41545238D01*
X101583333Y-41545238D01*
X111433333Y-41135714D02*
X111471428Y-41173809D01*
X111585714Y-41211904D01*
X111661904Y-41211904D01*
X111776190Y-41173809D01*
X111852380Y-41097619D01*
X111890476Y-41021428D01*
X111928571Y-40869047D01*
X111928571Y-40754761D01*
X111890476Y-40602380D01*
X111852380Y-40526190D01*
X111776190Y-40450000D01*
X111661904Y-40411904D01*
X111585714Y-40411904D01*
X111471428Y-40450000D01*
X111433333Y-40488095D01*
X110709523Y-40411904D02*
X111090476Y-40411904D01*
X111128571Y-40792857D01*
X111090476Y-40754761D01*
X111014285Y-40716666D01*
X110823809Y-40716666D01*
X110747619Y-40754761D01*
X110709523Y-40792857D01*
X110671428Y-40869047D01*
X110671428Y-41059523D01*
X110709523Y-41135714D01*
X110747619Y-41173809D01*
X110823809Y-41211904D01*
X111014285Y-41211904D01*
X111090476Y-41173809D01*
X111128571Y-41135714D01*
X78783333Y-30111904D02*
X79050000Y-29730952D01*
X79240476Y-30111904D02*
X79240476Y-29311904D01*
X78935714Y-29311904D01*
X78859523Y-29350000D01*
X78821428Y-29388095D01*
X78783333Y-29464285D01*
X78783333Y-29578571D01*
X78821428Y-29654761D01*
X78859523Y-29692857D01*
X78935714Y-29730952D01*
X79240476Y-29730952D01*
X78478571Y-29388095D02*
X78440476Y-29350000D01*
X78364285Y-29311904D01*
X78173809Y-29311904D01*
X78097619Y-29350000D01*
X78059523Y-29388095D01*
X78021428Y-29464285D01*
X78021428Y-29540476D01*
X78059523Y-29654761D01*
X78516666Y-30111904D01*
X78021428Y-30111904D01*
X106983333Y-39411904D02*
X107364285Y-39411904D01*
X107364285Y-38611904D01*
X106297619Y-39411904D02*
X106754761Y-39411904D01*
X106526190Y-39411904D02*
X106526190Y-38611904D01*
X106602380Y-38726190D01*
X106678571Y-38802380D01*
X106754761Y-38840476D01*
X106183333Y-48661904D02*
X106450000Y-48280952D01*
X106640476Y-48661904D02*
X106640476Y-47861904D01*
X106335714Y-47861904D01*
X106259523Y-47900000D01*
X106221428Y-47938095D01*
X106183333Y-48014285D01*
X106183333Y-48128571D01*
X106221428Y-48204761D01*
X106259523Y-48242857D01*
X106335714Y-48280952D01*
X106640476Y-48280952D01*
X105421428Y-48661904D02*
X105878571Y-48661904D01*
X105650000Y-48661904D02*
X105650000Y-47861904D01*
X105726190Y-47976190D01*
X105802380Y-48052380D01*
X105878571Y-48090476D01*
D11*
X101340000Y-37538748D02*
X101340000Y-38961252D01*
X103160000Y-37538748D02*
X103160000Y-38961252D01*
X110390000Y-36588748D02*
X110390000Y-38011252D01*
X112210000Y-36588748D02*
X112210000Y-38011252D01*
X78422936Y-30665000D02*
X78877064Y-30665000D01*
X78422936Y-32135000D02*
X78877064Y-32135000D01*
X104300000Y-38150000D02*
X109400000Y-38150000D01*
X104300000Y-33050000D02*
X109400000Y-33050000D01*
X109022936Y-47415000D02*
X109477064Y-47415000D01*
X109022936Y-48885000D02*
X109477064Y-48885000D01*
%LPC*%
D12*
X145350000Y-58300000D03*
X145350000Y-17350000D03*
X76800000Y-58300000D03*
X76800000Y-17350000D03*
D13*
X94537246Y-21200000D03*
D14*
X102037246Y-21200000D03*
D15*
X78495000Y-36055000D03*
D16*
X78495000Y-41135000D03*
D15*
X144000000Y-43160000D03*
D16*
X144000000Y-38080000D03*
X144000000Y-33000000D03*
D17*
X110250000Y-51250000D03*
D18*
X108250000Y-45400000D03*
D19*
X110790000Y-45400000D03*
X113330000Y-45400000D03*
X128570000Y-45400000D03*
X133650000Y-45400000D03*
X133650000Y-30160000D03*
X128570000Y-30160000D03*
X113330000Y-30160000D03*
X110790000Y-30160000D03*
D13*
X97700000Y-34137246D03*
D14*
X97700000Y-41637246D03*
D20*
X86867500Y-46107500D03*
D21*
X86867500Y-41107500D03*
X86867500Y-36107500D03*
X86867500Y-31107500D03*
D13*
X93750000Y-54550000D03*
D14*
X101250000Y-54550000D03*
D22*
X102250000Y-36687500D03*
X102250000Y-39812500D03*
X111300000Y-35737500D03*
X111300000Y-38862500D03*
D23*
X77650000Y-31400000D03*
X79650000Y-31400000D03*
D24*
X105050000Y-35600000D03*
X108650000Y-35600000D03*
D23*
X108250000Y-48150000D03*
X110250000Y-48150000D03*
M02*
