G04 #@! TF.GenerationSoftware,KiCad,Pcbnew,(6.0.6)*
G04 #@! TF.CreationDate,2022-08-27T12:40:56+02:00*
G04 #@! TF.ProjectId,afe-power-supply,6166652d-706f-4776-9572-2d737570706c,rev?*
G04 #@! TF.SameCoordinates,Original*
G04 #@! TF.FileFunction,Legend,Top*
G04 #@! TF.FilePolarity,Positive*
%FSLAX46Y46*%
G04 Gerber Fmt 4.6, Leading zero omitted, Abs format (unit mm)*
G04 Created by KiCad (PCBNEW (6.0.6)) date 2022-08-27 12:40:56*
%MOMM*%
%LPD*%
G01*
G04 APERTURE LIST*
G04 Aperture macros list*
%AMRoundRect*
0 Rectangle with rounded corners*
0 $1 Rounding radius*
0 $2 $3 $4 $5 $6 $7 $8 $9 X,Y pos of 4 corners*
0 Add a 4 corners polygon primitive as box body*
4,1,4,$2,$3,$4,$5,$6,$7,$8,$9,$2,$3,0*
0 Add four circle primitives for the rounded corners*
1,1,$1+$1,$2,$3*
1,1,$1+$1,$4,$5*
1,1,$1+$1,$6,$7*
1,1,$1+$1,$8,$9*
0 Add four rect primitives between the rounded corners*
20,1,$1+$1,$2,$3,$4,$5,0*
20,1,$1+$1,$4,$5,$6,$7,0*
20,1,$1+$1,$6,$7,$8,$9,0*
20,1,$1+$1,$8,$9,$2,$3,0*%
G04 Aperture macros list end*
%ADD10C,0.150000*%
%ADD11C,0.200000*%
%ADD12C,0.120000*%
%ADD13C,3.200000*%
%ADD14RoundRect,0.250000X1.075000X-0.400000X1.075000X0.400000X-1.075000X0.400000X-1.075000X-0.400000X0*%
%ADD15R,2.400000X2.400000*%
%ADD16C,2.400000*%
%ADD17R,2.600000X2.600000*%
%ADD18C,2.600000*%
%ADD19R,1.700000X1.700000*%
%ADD20R,1.600000X2.400000*%
%ADD21O,1.600000X2.400000*%
%ADD22RoundRect,0.250000X-0.325000X-0.450000X0.325000X-0.450000X0.325000X0.450000X-0.325000X0.450000X0*%
%ADD23R,2.000000X2.000000*%
%ADD24C,2.000000*%
G04 APERTURE END LIST*
D10*
X108869047Y-54135714D02*
X108830952Y-54173809D01*
X108716666Y-54211904D01*
X108640476Y-54211904D01*
X108526190Y-54173809D01*
X108450000Y-54097619D01*
X108411904Y-54021428D01*
X108373809Y-53869047D01*
X108373809Y-53754761D01*
X108411904Y-53602380D01*
X108450000Y-53526190D01*
X108526190Y-53450000D01*
X108640476Y-53411904D01*
X108716666Y-53411904D01*
X108830952Y-53450000D01*
X108869047Y-53488095D01*
X109097619Y-53411904D02*
X109554761Y-53411904D01*
X109326190Y-54211904D02*
X109326190Y-53411904D01*
X110278571Y-54211904D02*
X110011904Y-53830952D01*
X109821428Y-54211904D02*
X109821428Y-53411904D01*
X110126190Y-53411904D01*
X110202380Y-53450000D01*
X110240476Y-53488095D01*
X110278571Y-53564285D01*
X110278571Y-53678571D01*
X110240476Y-53754761D01*
X110202380Y-53792857D01*
X110126190Y-53830952D01*
X109821428Y-53830952D01*
X111002380Y-54211904D02*
X110621428Y-54211904D01*
X110621428Y-53411904D01*
D11*
X149635714Y-38628571D02*
X149673809Y-38666666D01*
X149711904Y-38780952D01*
X149711904Y-38857142D01*
X149673809Y-38971428D01*
X149597619Y-39047619D01*
X149521428Y-39085714D01*
X149369047Y-39123809D01*
X149254761Y-39123809D01*
X149102380Y-39085714D01*
X149026190Y-39047619D01*
X148950000Y-38971428D01*
X148911904Y-38857142D01*
X148911904Y-38780952D01*
X148950000Y-38666666D01*
X148988095Y-38628571D01*
X148911904Y-38133333D02*
X148911904Y-37980952D01*
X148950000Y-37904761D01*
X149026190Y-37828571D01*
X149178571Y-37790476D01*
X149445238Y-37790476D01*
X149597619Y-37828571D01*
X149673809Y-37904761D01*
X149711904Y-37980952D01*
X149711904Y-38133333D01*
X149673809Y-38209523D01*
X149597619Y-38285714D01*
X149445238Y-38323809D01*
X149178571Y-38323809D01*
X149026190Y-38285714D01*
X148950000Y-38209523D01*
X148911904Y-38133333D01*
X149711904Y-37447619D02*
X148911904Y-37447619D01*
X149483333Y-37180952D01*
X148911904Y-36914285D01*
X149711904Y-36914285D01*
X149407142Y-43454761D02*
X149407142Y-42845238D01*
X73088095Y-37628571D02*
X72288095Y-37895238D01*
X73088095Y-38161904D01*
X72288095Y-38771428D02*
X72707142Y-38771428D01*
X72783333Y-38733333D01*
X72821428Y-38657142D01*
X72821428Y-38504761D01*
X72783333Y-38428571D01*
X72326190Y-38771428D02*
X72288095Y-38695238D01*
X72288095Y-38504761D01*
X72326190Y-38428571D01*
X72402380Y-38390476D01*
X72478571Y-38390476D01*
X72554761Y-38428571D01*
X72592857Y-38504761D01*
X72592857Y-38695238D01*
X72630952Y-38771428D01*
X72326190Y-39495238D02*
X72288095Y-39419047D01*
X72288095Y-39266666D01*
X72326190Y-39190476D01*
X72364285Y-39152380D01*
X72440476Y-39114285D01*
X72669047Y-39114285D01*
X72745238Y-39152380D01*
X72783333Y-39190476D01*
X72821428Y-39266666D01*
X72821428Y-39419047D01*
X72783333Y-39495238D01*
X122329380Y-59331733D02*
X122710333Y-59331733D01*
X122253190Y-59560304D02*
X122519857Y-58760304D01*
X122786523Y-59560304D01*
X123319857Y-59141257D02*
X123053190Y-59141257D01*
X123053190Y-59560304D02*
X123053190Y-58760304D01*
X123434142Y-58760304D01*
X123738904Y-59141257D02*
X124005571Y-59141257D01*
X124119857Y-59560304D02*
X123738904Y-59560304D01*
X123738904Y-58760304D01*
X124119857Y-58760304D01*
X125072238Y-59560304D02*
X125072238Y-59026971D01*
X125072238Y-59103161D02*
X125110333Y-59065066D01*
X125186523Y-59026971D01*
X125300809Y-59026971D01*
X125377000Y-59065066D01*
X125415095Y-59141257D01*
X125415095Y-59560304D01*
X125415095Y-59141257D02*
X125453190Y-59065066D01*
X125529380Y-59026971D01*
X125643666Y-59026971D01*
X125719857Y-59065066D01*
X125757952Y-59141257D01*
X125757952Y-59560304D01*
X126443666Y-59522209D02*
X126367476Y-59560304D01*
X126215095Y-59560304D01*
X126138904Y-59522209D01*
X126100809Y-59446019D01*
X126100809Y-59141257D01*
X126138904Y-59065066D01*
X126215095Y-59026971D01*
X126367476Y-59026971D01*
X126443666Y-59065066D01*
X126481761Y-59141257D01*
X126481761Y-59217447D01*
X126100809Y-59293638D01*
X127167476Y-59560304D02*
X127167476Y-59141257D01*
X127129380Y-59065066D01*
X127053190Y-59026971D01*
X126900809Y-59026971D01*
X126824619Y-59065066D01*
X127167476Y-59522209D02*
X127091285Y-59560304D01*
X126900809Y-59560304D01*
X126824619Y-59522209D01*
X126786523Y-59446019D01*
X126786523Y-59369828D01*
X126824619Y-59293638D01*
X126900809Y-59255542D01*
X127091285Y-59255542D01*
X127167476Y-59217447D01*
X127510333Y-59522209D02*
X127586523Y-59560304D01*
X127738904Y-59560304D01*
X127815095Y-59522209D01*
X127853190Y-59446019D01*
X127853190Y-59407923D01*
X127815095Y-59331733D01*
X127738904Y-59293638D01*
X127624619Y-59293638D01*
X127548428Y-59255542D01*
X127510333Y-59179352D01*
X127510333Y-59141257D01*
X127548428Y-59065066D01*
X127624619Y-59026971D01*
X127738904Y-59026971D01*
X127815095Y-59065066D01*
X128196047Y-59484114D02*
X128234142Y-59522209D01*
X128196047Y-59560304D01*
X128157952Y-59522209D01*
X128196047Y-59484114D01*
X128196047Y-59560304D01*
X129148428Y-59522209D02*
X129224619Y-59560304D01*
X129377000Y-59560304D01*
X129453190Y-59522209D01*
X129491285Y-59446019D01*
X129491285Y-59407923D01*
X129453190Y-59331733D01*
X129377000Y-59293638D01*
X129262714Y-59293638D01*
X129186523Y-59255542D01*
X129148428Y-59179352D01*
X129148428Y-59141257D01*
X129186523Y-59065066D01*
X129262714Y-59026971D01*
X129377000Y-59026971D01*
X129453190Y-59065066D01*
X130177000Y-59026971D02*
X130177000Y-59560304D01*
X129834142Y-59026971D02*
X129834142Y-59446019D01*
X129872238Y-59522209D01*
X129948428Y-59560304D01*
X130062714Y-59560304D01*
X130138904Y-59522209D01*
X130177000Y-59484114D01*
X130557952Y-59026971D02*
X130557952Y-59826971D01*
X130557952Y-59065066D02*
X130634142Y-59026971D01*
X130786523Y-59026971D01*
X130862714Y-59065066D01*
X130900809Y-59103161D01*
X130938904Y-59179352D01*
X130938904Y-59407923D01*
X130900809Y-59484114D01*
X130862714Y-59522209D01*
X130786523Y-59560304D01*
X130634142Y-59560304D01*
X130557952Y-59522209D01*
X131281761Y-59026971D02*
X131281761Y-59826971D01*
X131281761Y-59065066D02*
X131357952Y-59026971D01*
X131510333Y-59026971D01*
X131586523Y-59065066D01*
X131624619Y-59103161D01*
X131662714Y-59179352D01*
X131662714Y-59407923D01*
X131624619Y-59484114D01*
X131586523Y-59522209D01*
X131510333Y-59560304D01*
X131357952Y-59560304D01*
X131281761Y-59522209D01*
X132119857Y-59560304D02*
X132043666Y-59522209D01*
X132005571Y-59446019D01*
X132005571Y-58760304D01*
X132348428Y-59026971D02*
X132538904Y-59560304D01*
X132729380Y-59026971D02*
X132538904Y-59560304D01*
X132462714Y-59750780D01*
X132424619Y-59788876D01*
X132348428Y-59826971D01*
X122291285Y-60314971D02*
X122481761Y-60848304D01*
X122672238Y-60314971D01*
X123396047Y-60848304D02*
X122938904Y-60848304D01*
X123167476Y-60848304D02*
X123167476Y-60048304D01*
X123091285Y-60162590D01*
X123015095Y-60238780D01*
X122938904Y-60276876D01*
X123738904Y-60772114D02*
X123777000Y-60810209D01*
X123738904Y-60848304D01*
X123700809Y-60810209D01*
X123738904Y-60772114D01*
X123738904Y-60848304D01*
X124272238Y-60048304D02*
X124348428Y-60048304D01*
X124424619Y-60086400D01*
X124462714Y-60124495D01*
X124500809Y-60200685D01*
X124538904Y-60353066D01*
X124538904Y-60543542D01*
X124500809Y-60695923D01*
X124462714Y-60772114D01*
X124424619Y-60810209D01*
X124348428Y-60848304D01*
X124272238Y-60848304D01*
X124196047Y-60810209D01*
X124157952Y-60772114D01*
X124119857Y-60695923D01*
X124081761Y-60543542D01*
X124081761Y-60353066D01*
X124119857Y-60200685D01*
X124157952Y-60124495D01*
X124196047Y-60086400D01*
X124272238Y-60048304D01*
X125491285Y-60543542D02*
X126100809Y-60543542D01*
X127243666Y-60048304D02*
X127319857Y-60048304D01*
X127396047Y-60086400D01*
X127434142Y-60124495D01*
X127472238Y-60200685D01*
X127510333Y-60353066D01*
X127510333Y-60543542D01*
X127472238Y-60695923D01*
X127434142Y-60772114D01*
X127396047Y-60810209D01*
X127319857Y-60848304D01*
X127243666Y-60848304D01*
X127167476Y-60810209D01*
X127129380Y-60772114D01*
X127091285Y-60695923D01*
X127053190Y-60543542D01*
X127053190Y-60353066D01*
X127091285Y-60200685D01*
X127129380Y-60124495D01*
X127167476Y-60086400D01*
X127243666Y-60048304D01*
X127967476Y-60391161D02*
X127891285Y-60353066D01*
X127853190Y-60314971D01*
X127815095Y-60238780D01*
X127815095Y-60200685D01*
X127853190Y-60124495D01*
X127891285Y-60086400D01*
X127967476Y-60048304D01*
X128119857Y-60048304D01*
X128196047Y-60086400D01*
X128234142Y-60124495D01*
X128272238Y-60200685D01*
X128272238Y-60238780D01*
X128234142Y-60314971D01*
X128196047Y-60353066D01*
X128119857Y-60391161D01*
X127967476Y-60391161D01*
X127891285Y-60429257D01*
X127853190Y-60467352D01*
X127815095Y-60543542D01*
X127815095Y-60695923D01*
X127853190Y-60772114D01*
X127891285Y-60810209D01*
X127967476Y-60848304D01*
X128119857Y-60848304D01*
X128196047Y-60810209D01*
X128234142Y-60772114D01*
X128272238Y-60695923D01*
X128272238Y-60543542D01*
X128234142Y-60467352D01*
X128196047Y-60429257D01*
X128119857Y-60391161D01*
X128615095Y-60772114D02*
X128653190Y-60810209D01*
X128615095Y-60848304D01*
X128577000Y-60810209D01*
X128615095Y-60772114D01*
X128615095Y-60848304D01*
X128957952Y-60124495D02*
X128996047Y-60086400D01*
X129072238Y-60048304D01*
X129262714Y-60048304D01*
X129338904Y-60086400D01*
X129377000Y-60124495D01*
X129415095Y-60200685D01*
X129415095Y-60276876D01*
X129377000Y-60391161D01*
X128919857Y-60848304D01*
X129415095Y-60848304D01*
X129910333Y-60048304D02*
X129986523Y-60048304D01*
X130062714Y-60086400D01*
X130100809Y-60124495D01*
X130138904Y-60200685D01*
X130177000Y-60353066D01*
X130177000Y-60543542D01*
X130138904Y-60695923D01*
X130100809Y-60772114D01*
X130062714Y-60810209D01*
X129986523Y-60848304D01*
X129910333Y-60848304D01*
X129834142Y-60810209D01*
X129796047Y-60772114D01*
X129757952Y-60695923D01*
X129719857Y-60543542D01*
X129719857Y-60353066D01*
X129757952Y-60200685D01*
X129796047Y-60124495D01*
X129834142Y-60086400D01*
X129910333Y-60048304D01*
X130481761Y-60124495D02*
X130519857Y-60086400D01*
X130596047Y-60048304D01*
X130786523Y-60048304D01*
X130862714Y-60086400D01*
X130900809Y-60124495D01*
X130938904Y-60200685D01*
X130938904Y-60276876D01*
X130900809Y-60391161D01*
X130443666Y-60848304D01*
X130938904Y-60848304D01*
X131243666Y-60124495D02*
X131281761Y-60086400D01*
X131357952Y-60048304D01*
X131548428Y-60048304D01*
X131624619Y-60086400D01*
X131662714Y-60124495D01*
X131700809Y-60200685D01*
X131700809Y-60276876D01*
X131662714Y-60391161D01*
X131205571Y-60848304D01*
X131700809Y-60848304D01*
X149045238Y-32907142D02*
X149654761Y-32907142D01*
X149350000Y-33211904D02*
X149350000Y-32602380D01*
D10*
X83623333Y-25802857D02*
X83356666Y-25802857D01*
X83356666Y-26221904D02*
X83356666Y-25421904D01*
X83737619Y-25421904D01*
X84461428Y-26221904D02*
X84004285Y-26221904D01*
X84232857Y-26221904D02*
X84232857Y-25421904D01*
X84156666Y-25536190D01*
X84080476Y-25612380D01*
X84004285Y-25650476D01*
X88766666Y-21485714D02*
X88728571Y-21523809D01*
X88614285Y-21561904D01*
X88538095Y-21561904D01*
X88423809Y-21523809D01*
X88347619Y-21447619D01*
X88309523Y-21371428D01*
X88271428Y-21219047D01*
X88271428Y-21104761D01*
X88309523Y-20952380D01*
X88347619Y-20876190D01*
X88423809Y-20800000D01*
X88538095Y-20761904D01*
X88614285Y-20761904D01*
X88728571Y-20800000D01*
X88766666Y-20838095D01*
X89071428Y-20838095D02*
X89109523Y-20800000D01*
X89185714Y-20761904D01*
X89376190Y-20761904D01*
X89452380Y-20800000D01*
X89490476Y-20838095D01*
X89528571Y-20914285D01*
X89528571Y-20990476D01*
X89490476Y-21104761D01*
X89033333Y-21561904D01*
X89528571Y-21561904D01*
X74283333Y-31961904D02*
X74283333Y-32533333D01*
X74245238Y-32647619D01*
X74169047Y-32723809D01*
X74054761Y-32761904D01*
X73978571Y-32761904D01*
X74626190Y-32038095D02*
X74664285Y-32000000D01*
X74740476Y-31961904D01*
X74930952Y-31961904D01*
X75007142Y-32000000D01*
X75045238Y-32038095D01*
X75083333Y-32114285D01*
X75083333Y-32190476D01*
X75045238Y-32304761D01*
X74588095Y-32761904D01*
X75083333Y-32761904D01*
X139433333Y-46171904D02*
X139433333Y-46743333D01*
X139395238Y-46857619D01*
X139319047Y-46933809D01*
X139204761Y-46971904D01*
X139128571Y-46971904D01*
X140233333Y-46971904D02*
X139776190Y-46971904D01*
X140004761Y-46971904D02*
X140004761Y-46171904D01*
X139928571Y-46286190D01*
X139852380Y-46362380D01*
X139776190Y-46400476D01*
X109183333Y-48661904D02*
X109183333Y-49233333D01*
X109145238Y-49347619D01*
X109069047Y-49423809D01*
X108954761Y-49461904D01*
X108878571Y-49461904D01*
X109488095Y-48661904D02*
X109983333Y-48661904D01*
X109716666Y-48966666D01*
X109830952Y-48966666D01*
X109907142Y-49004761D01*
X109945238Y-49042857D01*
X109983333Y-49119047D01*
X109983333Y-49309523D01*
X109945238Y-49385714D01*
X109907142Y-49423809D01*
X109830952Y-49461904D01*
X109602380Y-49461904D01*
X109526190Y-49423809D01*
X109488095Y-49385714D01*
X107190476Y-30361904D02*
X107190476Y-31009523D01*
X107228571Y-31085714D01*
X107266666Y-31123809D01*
X107342857Y-31161904D01*
X107495238Y-31161904D01*
X107571428Y-31123809D01*
X107609523Y-31085714D01*
X107647619Y-31009523D01*
X107647619Y-30361904D01*
X108447619Y-31161904D02*
X107990476Y-31161904D01*
X108219047Y-31161904D02*
X108219047Y-30361904D01*
X108142857Y-30476190D01*
X108066666Y-30552380D01*
X107990476Y-30590476D01*
X78059523Y-30111904D02*
X78059523Y-29311904D01*
X78250000Y-29311904D01*
X78364285Y-29350000D01*
X78440476Y-29426190D01*
X78478571Y-29502380D01*
X78516666Y-29654761D01*
X78516666Y-29769047D01*
X78478571Y-29921428D01*
X78440476Y-29997619D01*
X78364285Y-30073809D01*
X78250000Y-30111904D01*
X78059523Y-30111904D01*
X78821428Y-29388095D02*
X78859523Y-29350000D01*
X78935714Y-29311904D01*
X79126190Y-29311904D01*
X79202380Y-29350000D01*
X79240476Y-29388095D01*
X79278571Y-29464285D01*
X79278571Y-29540476D01*
X79240476Y-29654761D01*
X78783333Y-30111904D01*
X79278571Y-30111904D01*
X90916666Y-31485714D02*
X90878571Y-31523809D01*
X90764285Y-31561904D01*
X90688095Y-31561904D01*
X90573809Y-31523809D01*
X90497619Y-31447619D01*
X90459523Y-31371428D01*
X90421428Y-31219047D01*
X90421428Y-31104761D01*
X90459523Y-30952380D01*
X90497619Y-30876190D01*
X90573809Y-30800000D01*
X90688095Y-30761904D01*
X90764285Y-30761904D01*
X90878571Y-30800000D01*
X90916666Y-30838095D01*
X91678571Y-31561904D02*
X91221428Y-31561904D01*
X91450000Y-31561904D02*
X91450000Y-30761904D01*
X91373809Y-30876190D01*
X91297619Y-30952380D01*
X91221428Y-30990476D01*
X83389523Y-29881904D02*
X83389523Y-29081904D01*
X83580000Y-29081904D01*
X83694285Y-29120000D01*
X83770476Y-29196190D01*
X83808571Y-29272380D01*
X83846666Y-29424761D01*
X83846666Y-29539047D01*
X83808571Y-29691428D01*
X83770476Y-29767619D01*
X83694285Y-29843809D01*
X83580000Y-29881904D01*
X83389523Y-29881904D01*
X84608571Y-29881904D02*
X84151428Y-29881904D01*
X84380000Y-29881904D02*
X84380000Y-29081904D01*
X84303809Y-29196190D01*
X84227619Y-29272380D01*
X84151428Y-29310476D01*
X89566666Y-60435714D02*
X89528571Y-60473809D01*
X89414285Y-60511904D01*
X89338095Y-60511904D01*
X89223809Y-60473809D01*
X89147619Y-60397619D01*
X89109523Y-60321428D01*
X89071428Y-60169047D01*
X89071428Y-60054761D01*
X89109523Y-59902380D01*
X89147619Y-59826190D01*
X89223809Y-59750000D01*
X89338095Y-59711904D01*
X89414285Y-59711904D01*
X89528571Y-59750000D01*
X89566666Y-59788095D01*
X89833333Y-59711904D02*
X90328571Y-59711904D01*
X90061904Y-60016666D01*
X90176190Y-60016666D01*
X90252380Y-60054761D01*
X90290476Y-60092857D01*
X90328571Y-60169047D01*
X90328571Y-60359523D01*
X90290476Y-60435714D01*
X90252380Y-60473809D01*
X90176190Y-60511904D01*
X89947619Y-60511904D01*
X89871428Y-60473809D01*
X89833333Y-60435714D01*
D12*
X85515000Y-26613737D02*
X85515000Y-25166263D01*
X88225000Y-26613737D02*
X88225000Y-25166263D01*
X102608246Y-22640000D02*
X102608246Y-28036000D01*
X104248246Y-15725000D02*
X104248246Y-26675000D01*
X103288246Y-14842000D02*
X103288246Y-19760000D01*
X100568246Y-13446000D02*
X100568246Y-28954000D01*
X101408246Y-13743000D02*
X101408246Y-19760000D01*
X102888246Y-14548000D02*
X102888246Y-19760000D01*
X102288246Y-14173000D02*
X102288246Y-19760000D01*
X104888246Y-16509000D02*
X104888246Y-25891000D01*
X104488246Y-15996000D02*
X104488246Y-26404000D01*
X100808246Y-13520000D02*
X100808246Y-19760000D01*
X105248246Y-17057000D02*
X105248246Y-25343000D01*
X101488246Y-13777000D02*
X101488246Y-19760000D01*
X100768246Y-22640000D02*
X100768246Y-28893000D01*
X99328246Y-13186000D02*
X99328246Y-29214000D01*
X104768246Y-16346000D02*
X104768246Y-26054000D01*
X103808246Y-15284000D02*
X103808246Y-27116000D01*
X102328246Y-22640000D02*
X102328246Y-28204000D01*
X101088246Y-13618000D02*
X101088246Y-19760000D01*
X103688246Y-15175000D02*
X103688246Y-27225000D01*
X102088246Y-14064000D02*
X102088246Y-19760000D01*
X102408246Y-14242000D02*
X102408246Y-19760000D01*
X102128246Y-14085000D02*
X102128246Y-19760000D01*
X98447246Y-13121000D02*
X98447246Y-29279000D01*
X102448246Y-14266000D02*
X102448246Y-19760000D01*
X102048246Y-14043000D02*
X102048246Y-19760000D01*
X103288246Y-22640000D02*
X103288246Y-27558000D01*
X105128246Y-16864000D02*
X105128246Y-25536000D01*
X100328246Y-13380000D02*
X100328246Y-29020000D01*
X104208246Y-15682000D02*
X104208246Y-26718000D01*
X99008246Y-13151000D02*
X99008246Y-29249000D01*
X102088246Y-22640000D02*
X102088246Y-28336000D01*
X105088246Y-16802000D02*
X105088246Y-25598000D01*
X100808246Y-22640000D02*
X100808246Y-28880000D01*
X106168246Y-19280000D02*
X106168246Y-23120000D01*
X104608246Y-16141000D02*
X104608246Y-26259000D01*
X100288246Y-13370000D02*
X100288246Y-29030000D01*
X102168246Y-14106000D02*
X102168246Y-19760000D01*
X101408246Y-22640000D02*
X101408246Y-28657000D01*
X101728246Y-13884000D02*
X101728246Y-19760000D01*
X102448246Y-22640000D02*
X102448246Y-28134000D01*
X106128246Y-19126000D02*
X106128246Y-23274000D01*
X98607246Y-13126000D02*
X98607246Y-29274000D01*
X101848246Y-13942000D02*
X101848246Y-19760000D01*
X102488246Y-14290000D02*
X102488246Y-19760000D01*
X103328246Y-14873000D02*
X103328246Y-19760000D01*
X104448246Y-15949000D02*
X104448246Y-26451000D01*
X100248246Y-13360000D02*
X100248246Y-29040000D01*
X99688246Y-13241000D02*
X99688246Y-29159000D01*
X98847246Y-13139000D02*
X98847246Y-29261000D01*
X99968246Y-13295000D02*
X99968246Y-29105000D01*
X104048246Y-15516000D02*
X104048246Y-26884000D01*
X98927246Y-13145000D02*
X98927246Y-29255000D01*
X105208246Y-16991000D02*
X105208246Y-25409000D01*
X101208246Y-13663000D02*
X101208246Y-19760000D01*
X102848246Y-22640000D02*
X102848246Y-27879000D01*
X102688246Y-22640000D02*
X102688246Y-27985000D01*
X99488246Y-13209000D02*
X99488246Y-29191000D01*
X103128246Y-14720000D02*
X103128246Y-19760000D01*
X99648246Y-13234000D02*
X99648246Y-29166000D01*
X106088246Y-18982000D02*
X106088246Y-23418000D01*
X99608246Y-13228000D02*
X99608246Y-29172000D01*
X99528246Y-13215000D02*
X99528246Y-29185000D01*
X103168246Y-22640000D02*
X103168246Y-27650000D01*
X102768246Y-14467000D02*
X102768246Y-19760000D01*
X103368246Y-14905000D02*
X103368246Y-19760000D01*
X103208246Y-14780000D02*
X103208246Y-19760000D01*
X104368246Y-15857000D02*
X104368246Y-26543000D01*
X99848246Y-13271000D02*
X99848246Y-29129000D01*
X104848246Y-16454000D02*
X104848246Y-25946000D01*
X101808246Y-22640000D02*
X101808246Y-28478000D01*
X106368246Y-20435000D02*
X106368246Y-21965000D01*
X99808246Y-13263000D02*
X99808246Y-29137000D01*
X103888246Y-15360000D02*
X103888246Y-27040000D01*
X102608246Y-14364000D02*
X102608246Y-19760000D01*
X105288246Y-17124000D02*
X105288246Y-25276000D01*
X102248246Y-22640000D02*
X102248246Y-28249000D01*
X100448246Y-13412000D02*
X100448246Y-28988000D01*
X101448246Y-13760000D02*
X101448246Y-19760000D01*
X101128246Y-22640000D02*
X101128246Y-28768000D01*
X98287246Y-13119000D02*
X98287246Y-29281000D01*
X101648246Y-13847000D02*
X101648246Y-19760000D01*
X100888246Y-22640000D02*
X100888246Y-28853000D01*
X103368246Y-22640000D02*
X103368246Y-27495000D01*
X98407246Y-13120000D02*
X98407246Y-29280000D01*
X99048246Y-13155000D02*
X99048246Y-29245000D01*
X100168246Y-13340000D02*
X100168246Y-29060000D01*
X101768246Y-13903000D02*
X101768246Y-19760000D01*
X102168246Y-22640000D02*
X102168246Y-28294000D01*
X100968246Y-13575000D02*
X100968246Y-19760000D01*
X101288246Y-13694000D02*
X101288246Y-19760000D01*
X101528246Y-13794000D02*
X101528246Y-19760000D01*
X103248246Y-22640000D02*
X103248246Y-27590000D01*
X98967246Y-13148000D02*
X98967246Y-29252000D01*
X98527246Y-13123000D02*
X98527246Y-29277000D01*
X101848246Y-22640000D02*
X101848246Y-28458000D01*
X102808246Y-14494000D02*
X102808246Y-19760000D01*
X102128246Y-22640000D02*
X102128246Y-28315000D01*
X101368246Y-13726000D02*
X101368246Y-19760000D01*
X104528246Y-16044000D02*
X104528246Y-26356000D01*
X105168246Y-16927000D02*
X105168246Y-25473000D01*
X102568246Y-14339000D02*
X102568246Y-19760000D01*
X102208246Y-14128000D02*
X102208246Y-19760000D01*
X103448246Y-22640000D02*
X103448246Y-27430000D01*
X105808246Y-18176000D02*
X105808246Y-24224000D01*
X102648246Y-22640000D02*
X102648246Y-28011000D01*
X100368246Y-13390000D02*
X100368246Y-29010000D01*
X100608246Y-13458000D02*
X100608246Y-19760000D01*
X100848246Y-22640000D02*
X100848246Y-28866000D01*
X99208246Y-13172000D02*
X99208246Y-29228000D01*
X105928246Y-18489000D02*
X105928246Y-23911000D01*
X98327246Y-13120000D02*
X98327246Y-29280000D01*
X106248246Y-19636000D02*
X106248246Y-22764000D01*
X102928246Y-22640000D02*
X102928246Y-27824000D01*
X100648246Y-13470000D02*
X100648246Y-19760000D01*
X104328246Y-15812000D02*
X104328246Y-26588000D01*
X105368246Y-17264000D02*
X105368246Y-25136000D01*
X102288246Y-22640000D02*
X102288246Y-28227000D01*
X100528246Y-13435000D02*
X100528246Y-28965000D01*
X99768246Y-13256000D02*
X99768246Y-29144000D01*
X100928246Y-22640000D02*
X100928246Y-28839000D01*
X102328246Y-14196000D02*
X102328246Y-19760000D01*
X101128246Y-13632000D02*
X101128246Y-19760000D01*
X105488246Y-17485000D02*
X105488246Y-24915000D01*
X101288246Y-22640000D02*
X101288246Y-28706000D01*
X101968246Y-14001000D02*
X101968246Y-19760000D01*
X101888246Y-22640000D02*
X101888246Y-28439000D01*
X102528246Y-22640000D02*
X102528246Y-28086000D01*
X98687246Y-13129000D02*
X98687246Y-29271000D01*
X98487246Y-13122000D02*
X98487246Y-29278000D01*
X100648246Y-22640000D02*
X100648246Y-28930000D01*
X104928246Y-16566000D02*
X104928246Y-25834000D01*
X101808246Y-13922000D02*
X101808246Y-19760000D01*
X100008246Y-13304000D02*
X100008246Y-29096000D01*
X102728246Y-22640000D02*
X102728246Y-27959000D01*
X99248246Y-13176000D02*
X99248246Y-29224000D01*
X99568246Y-13221000D02*
X99568246Y-29179000D01*
X103088246Y-22640000D02*
X103088246Y-27710000D01*
X105528246Y-17563000D02*
X105528246Y-24837000D01*
X103128246Y-22640000D02*
X103128246Y-27680000D01*
X103528246Y-15037000D02*
X103528246Y-27363000D01*
X103968246Y-15437000D02*
X103968246Y-26963000D01*
X105688246Y-17897000D02*
X105688246Y-24503000D01*
X105048246Y-16741000D02*
X105048246Y-25659000D01*
X99408246Y-13197000D02*
X99408246Y-29203000D01*
X101328246Y-22640000D02*
X101328246Y-28690000D01*
X103008246Y-22640000D02*
X103008246Y-27768000D01*
X102568246Y-22640000D02*
X102568246Y-28061000D01*
X104168246Y-15640000D02*
X104168246Y-26760000D01*
X102368246Y-14219000D02*
X102368246Y-19760000D01*
X98887246Y-13142000D02*
X98887246Y-29258000D01*
X102648246Y-14389000D02*
X102648246Y-19760000D01*
X103408246Y-22640000D02*
X103408246Y-27463000D01*
X104648246Y-16191000D02*
X104648246Y-26209000D01*
X101008246Y-13589000D02*
X101008246Y-19760000D01*
X102728246Y-14441000D02*
X102728246Y-19760000D01*
X102768246Y-22640000D02*
X102768246Y-27933000D01*
X102688246Y-14415000D02*
X102688246Y-19760000D01*
X106208246Y-19448000D02*
X106208246Y-22952000D01*
X105968246Y-18603000D02*
X105968246Y-23797000D01*
X102408246Y-22640000D02*
X102408246Y-28158000D01*
X98727246Y-13131000D02*
X98727246Y-29269000D01*
X105888246Y-18380000D02*
X105888246Y-24020000D01*
X106288246Y-19849000D02*
X106288246Y-22551000D01*
X101928246Y-13981000D02*
X101928246Y-19760000D01*
X103248246Y-14810000D02*
X103248246Y-19760000D01*
X105448246Y-17410000D02*
X105448246Y-24990000D01*
X101688246Y-22640000D02*
X101688246Y-28534000D01*
X100888246Y-13547000D02*
X100888246Y-19760000D01*
X104408246Y-15903000D02*
X104408246Y-26497000D01*
X101168246Y-13647000D02*
X101168246Y-19760000D01*
X104008246Y-15476000D02*
X104008246Y-26924000D01*
X100488246Y-13423000D02*
X100488246Y-28977000D01*
X104968246Y-16623000D02*
X104968246Y-25777000D01*
X101488246Y-22640000D02*
X101488246Y-28623000D01*
X99088246Y-13159000D02*
X99088246Y-29241000D01*
X101688246Y-13866000D02*
X101688246Y-19760000D01*
X90397755Y-15845000D02*
X90397755Y-17445000D01*
X105768246Y-18080000D02*
X105768246Y-24320000D01*
X101048246Y-13603000D02*
X101048246Y-19760000D01*
X98367246Y-13120000D02*
X98367246Y-29280000D01*
X103008246Y-14632000D02*
X103008246Y-19760000D01*
X100688246Y-22640000D02*
X100688246Y-28918000D01*
X102808246Y-22640000D02*
X102808246Y-27906000D01*
X99368246Y-13192000D02*
X99368246Y-29208000D01*
X100128246Y-13331000D02*
X100128246Y-29069000D01*
X99288246Y-13181000D02*
X99288246Y-29219000D01*
X104728246Y-16294000D02*
X104728246Y-26106000D01*
X102968246Y-14604000D02*
X102968246Y-19760000D01*
X103048246Y-22640000D02*
X103048246Y-27739000D01*
X104808246Y-16400000D02*
X104808246Y-26000000D01*
X104288246Y-15768000D02*
X104288246Y-26632000D01*
X101568246Y-22640000D02*
X101568246Y-28589000D01*
X104688246Y-16242000D02*
X104688246Y-26158000D01*
X102488246Y-22640000D02*
X102488246Y-28110000D01*
X102968246Y-22640000D02*
X102968246Y-27796000D01*
X101568246Y-13811000D02*
X101568246Y-19760000D01*
X102008246Y-14022000D02*
X102008246Y-19760000D01*
X100728246Y-22640000D02*
X100728246Y-28905000D01*
X100608246Y-22640000D02*
X100608246Y-28942000D01*
X103408246Y-14937000D02*
X103408246Y-19760000D01*
X102048246Y-22640000D02*
X102048246Y-28357000D01*
X101248246Y-13678000D02*
X101248246Y-19760000D01*
X105408246Y-17336000D02*
X105408246Y-25064000D01*
X101048246Y-22640000D02*
X101048246Y-28797000D01*
X105608246Y-17725000D02*
X105608246Y-24675000D01*
X101528246Y-22640000D02*
X101528246Y-28606000D01*
X101008246Y-22640000D02*
X101008246Y-28811000D01*
X99928246Y-13287000D02*
X99928246Y-29113000D01*
X101768246Y-22640000D02*
X101768246Y-28497000D01*
X98647246Y-13127000D02*
X98647246Y-29273000D01*
X101168246Y-22640000D02*
X101168246Y-28753000D01*
X102368246Y-22640000D02*
X102368246Y-28181000D01*
X100088246Y-13322000D02*
X100088246Y-29078000D01*
X100408246Y-13401000D02*
X100408246Y-28999000D01*
X100688246Y-13482000D02*
X100688246Y-19760000D01*
X98567246Y-13124000D02*
X98567246Y-29276000D01*
X101248246Y-22640000D02*
X101248246Y-28722000D01*
X101448246Y-22640000D02*
X101448246Y-28640000D01*
X100928246Y-13561000D02*
X100928246Y-19760000D01*
X106008246Y-18722000D02*
X106008246Y-23678000D01*
X101608246Y-13829000D02*
X101608246Y-19760000D01*
X102848246Y-14521000D02*
X102848246Y-19760000D01*
X103848246Y-15322000D02*
X103848246Y-27078000D01*
X100768246Y-13507000D02*
X100768246Y-19760000D01*
X100848246Y-13534000D02*
X100848246Y-19760000D01*
X104568246Y-16092000D02*
X104568246Y-26308000D01*
X99448246Y-13203000D02*
X99448246Y-29197000D01*
X101648246Y-22640000D02*
X101648246Y-28553000D01*
X101608246Y-22640000D02*
X101608246Y-28571000D01*
X106328246Y-20102000D02*
X106328246Y-22298000D01*
X100048246Y-13313000D02*
X100048246Y-29087000D01*
X101968246Y-22640000D02*
X101968246Y-28399000D01*
X103088246Y-14690000D02*
X103088246Y-19760000D01*
X103568246Y-15071000D02*
X103568246Y-27329000D01*
X103448246Y-14970000D02*
X103448246Y-19760000D01*
X105008246Y-16681000D02*
X105008246Y-25719000D01*
X101928246Y-22640000D02*
X101928246Y-28419000D01*
X100208246Y-13350000D02*
X100208246Y-29050000D01*
X103048246Y-14661000D02*
X103048246Y-19760000D01*
X102528246Y-14314000D02*
X102528246Y-19760000D01*
X103768246Y-15248000D02*
X103768246Y-27152000D01*
X101888246Y-13961000D02*
X101888246Y-19760000D01*
X99888246Y-13279000D02*
X99888246Y-29121000D01*
X101088246Y-22640000D02*
X101088246Y-28782000D01*
X101328246Y-13710000D02*
X101328246Y-19760000D01*
X103208246Y-22640000D02*
X103208246Y-27620000D01*
X101728246Y-22640000D02*
X101728246Y-28516000D01*
X99128246Y-13163000D02*
X99128246Y-29237000D01*
X103608246Y-15105000D02*
X103608246Y-27295000D01*
X101368246Y-22640000D02*
X101368246Y-28674000D01*
X98767246Y-13134000D02*
X98767246Y-29266000D01*
X100968246Y-22640000D02*
X100968246Y-28825000D01*
X103328246Y-22640000D02*
X103328246Y-27527000D01*
X104128246Y-15598000D02*
X104128246Y-26802000D01*
X102008246Y-22640000D02*
X102008246Y-28378000D01*
X102208246Y-22640000D02*
X102208246Y-28272000D01*
X98807246Y-13136000D02*
X98807246Y-29264000D01*
X103648246Y-15140000D02*
X103648246Y-27260000D01*
X99168246Y-13167000D02*
X99168246Y-29233000D01*
X102248246Y-14151000D02*
X102248246Y-19760000D01*
X105648246Y-17810000D02*
X105648246Y-24590000D01*
X100728246Y-13495000D02*
X100728246Y-19760000D01*
X102888246Y-22640000D02*
X102888246Y-27852000D01*
X103728246Y-15211000D02*
X103728246Y-27189000D01*
X103928246Y-15398000D02*
X103928246Y-27002000D01*
X102928246Y-14576000D02*
X102928246Y-19760000D01*
X103168246Y-14750000D02*
X103168246Y-19760000D01*
X101208246Y-22640000D02*
X101208246Y-28737000D01*
X89597755Y-16645000D02*
X91197755Y-16645000D01*
X105728246Y-17987000D02*
X105728246Y-24413000D01*
X105568246Y-17643000D02*
X105568246Y-24757000D01*
X104088246Y-15557000D02*
X104088246Y-26843000D01*
X106048246Y-18849000D02*
X106048246Y-23551000D01*
X105328246Y-17193000D02*
X105328246Y-25207000D01*
X105848246Y-18276000D02*
X105848246Y-24124000D01*
X99728246Y-13248000D02*
X99728246Y-29152000D01*
X103488246Y-15003000D02*
X103488246Y-27397000D01*
X106407246Y-21200000D02*
G75*
G03*
X106407246Y-21200000I-8120000J0D01*
G01*
X83756000Y-43735000D02*
X73835000Y-43735000D01*
X79770000Y-42205000D02*
X79734000Y-42170000D01*
X83756000Y-33455000D02*
X73835000Y-33455000D01*
X74395000Y-33455000D02*
X74395000Y-43735000D01*
X77256000Y-40101000D02*
X77221000Y-40066000D01*
X73595000Y-33215000D02*
X73595000Y-33715000D01*
X75895000Y-33455000D02*
X75895000Y-43735000D01*
X74335000Y-33215000D02*
X73595000Y-33215000D01*
X83756000Y-33455000D02*
X83756000Y-43735000D01*
X77472000Y-39908000D02*
X77426000Y-39861000D01*
X73835000Y-33455000D02*
X73835000Y-43735000D01*
X80796000Y-33455000D02*
X80796000Y-43735000D01*
X79564000Y-42410000D02*
X79518000Y-42363000D01*
X79179000Y-34520000D02*
G75*
G03*
X77811958Y-34519573I-684001J-1534993D01*
G01*
X76960000Y-35371000D02*
G75*
G03*
X76814747Y-36083805I1535001J-683999D01*
G01*
X77811000Y-37590001D02*
G75*
G03*
X79178042Y-37590427I684000J1535001D01*
G01*
X80030000Y-36739000D02*
G75*
G03*
X80030427Y-35371958I-1534993J684001D01*
G01*
X76815000Y-36055000D02*
G75*
G03*
X76960244Y-36738318I1680000J0D01*
G01*
X80175000Y-41135000D02*
G75*
G03*
X80175000Y-41135000I-1680000J0D01*
G01*
X145023000Y-39307000D02*
X145069000Y-39354000D01*
X138739000Y-45760000D02*
X148660000Y-45760000D01*
X142725000Y-37010000D02*
X142761000Y-37045000D01*
X138739000Y-45760000D02*
X138739000Y-30400000D01*
X145239000Y-39114000D02*
X145274000Y-39149000D01*
X146600000Y-45760000D02*
X146600000Y-30400000D01*
X141699000Y-45760000D02*
X141699000Y-30400000D01*
X148660000Y-45760000D02*
X148660000Y-30400000D01*
X142725000Y-31930000D02*
X142761000Y-31965000D01*
X148100000Y-45760000D02*
X148100000Y-30400000D01*
X148160000Y-46000000D02*
X148900000Y-46000000D01*
X145023000Y-34227000D02*
X145069000Y-34274000D01*
X145239000Y-34034000D02*
X145274000Y-34069000D01*
X138739000Y-30400000D02*
X148660000Y-30400000D01*
X142931000Y-36805000D02*
X142977000Y-36852000D01*
X148900000Y-46000000D02*
X148900000Y-45500000D01*
X142931000Y-31725000D02*
X142977000Y-31772000D01*
X144684000Y-41624999D02*
G75*
G03*
X143316958Y-41624573I-684000J-1535001D01*
G01*
X143316000Y-44695000D02*
G75*
G03*
X144683042Y-44695427I684001J1534993D01*
G01*
X142465000Y-42476000D02*
G75*
G03*
X142464573Y-43843042I1534993J-684001D01*
G01*
X145535000Y-43844000D02*
G75*
G03*
X145680253Y-43131195I-1535001J683999D01*
G01*
X145680000Y-43160000D02*
G75*
G03*
X145534756Y-42476682I-1680000J0D01*
G01*
X145680000Y-38080000D02*
G75*
G03*
X145680000Y-38080000I-1680000J0D01*
G01*
X145680000Y-33000000D02*
G75*
G03*
X145680000Y-33000000I-1680000J0D01*
G01*
X111580000Y-52520000D02*
X111580000Y-52580000D01*
X108920000Y-49920000D02*
X110250000Y-49920000D01*
X108920000Y-52520000D02*
X111580000Y-52520000D01*
X108920000Y-51250000D02*
X108920000Y-49920000D01*
X108920000Y-52520000D02*
X108920000Y-52580000D01*
X108920000Y-52580000D02*
X111580000Y-52580000D01*
X106920000Y-31720000D02*
X106920000Y-36780000D01*
X137520000Y-31720000D02*
X106920000Y-31720000D01*
X106920000Y-38780000D02*
X106920000Y-43840000D01*
X137520000Y-43840000D02*
X137520000Y-31720000D01*
X106920000Y-43840000D02*
X137520000Y-43840000D01*
X106920000Y-38780000D02*
G75*
G03*
X106920000Y-36780000I0J1000000D01*
G01*
X76790000Y-30440000D02*
X76790000Y-32360000D01*
X79650000Y-30440000D02*
X76790000Y-30440000D01*
X76790000Y-32360000D02*
X79650000Y-32360000D01*
X96260000Y-42528246D02*
X91076000Y-42528246D01*
X96260000Y-41688246D02*
X90564000Y-41688246D01*
X105703000Y-39008246D02*
X89697000Y-39008246D01*
X101909000Y-44808246D02*
X93491000Y-44808246D01*
X96260000Y-40928246D02*
X90210000Y-40928246D01*
X102219000Y-44608246D02*
X93181000Y-44608246D01*
X103995000Y-42968246D02*
X99140000Y-42968246D01*
X96260000Y-42368246D02*
X90967000Y-42368246D01*
X105268000Y-40728246D02*
X99140000Y-40728246D01*
X102904000Y-44088246D02*
X92496000Y-44088246D01*
X96260000Y-42568246D02*
X91104000Y-42568246D01*
X101636000Y-44968246D02*
X93764000Y-44968246D01*
X102997000Y-44008246D02*
X92403000Y-44008246D01*
X104958000Y-41448246D02*
X99140000Y-41448246D01*
X105418000Y-40288246D02*
X99140000Y-40288246D01*
X105106000Y-41128246D02*
X99140000Y-41128246D01*
X105769000Y-38327246D02*
X89631000Y-38327246D01*
X103689000Y-43328246D02*
X91711000Y-43328246D01*
X105089000Y-41168246D02*
X99140000Y-41168246D01*
X99774000Y-45728246D02*
X95626000Y-45728246D01*
X103260000Y-43768246D02*
X92140000Y-43768246D01*
X100820000Y-45368246D02*
X94580000Y-45368246D01*
X105685000Y-39128246D02*
X89715000Y-39128246D01*
X96260000Y-40728246D02*
X90132000Y-40728246D01*
X104772000Y-41808246D02*
X99140000Y-41808246D01*
X105237000Y-40808246D02*
X99140000Y-40808246D01*
X96260000Y-41928246D02*
X90696000Y-41928246D01*
X105393000Y-40368246D02*
X99140000Y-40368246D01*
X105477000Y-40088246D02*
X89923000Y-40088246D01*
X99051000Y-45888246D02*
X96349000Y-45888246D01*
X105499000Y-40008246D02*
X89901000Y-40008246D01*
X105771000Y-38287246D02*
X89629000Y-38287246D01*
X105569000Y-39728246D02*
X89831000Y-39728246D01*
X99452000Y-45808246D02*
X95948000Y-45808246D01*
X103963000Y-43008246D02*
X99140000Y-43008246D01*
X100520000Y-45488246D02*
X94880000Y-45488246D01*
X104268000Y-42608246D02*
X99140000Y-42608246D01*
X96260000Y-41528246D02*
X90481000Y-41528246D01*
X96260000Y-41208246D02*
X90329000Y-41208246D01*
X105311000Y-40608246D02*
X99140000Y-40608246D01*
X105222000Y-40848246D02*
X99140000Y-40848246D01*
X105629000Y-39448246D02*
X89771000Y-39448246D01*
X96260000Y-42688246D02*
X91190000Y-42688246D01*
X96260000Y-40408246D02*
X90020000Y-40408246D01*
X105190000Y-40928246D02*
X99140000Y-40928246D01*
X102500000Y-44408246D02*
X92900000Y-44408246D01*
X96260000Y-42848246D02*
X91310000Y-42848246D01*
X105465000Y-40128246D02*
X89935000Y-40128246D01*
X105578000Y-39688246D02*
X89822000Y-39688246D01*
X96260000Y-40528246D02*
X90061000Y-40528246D01*
X105282000Y-40688246D02*
X99140000Y-40688246D01*
X105779000Y-38047246D02*
X89621000Y-38047246D01*
X103343000Y-43688246D02*
X92057000Y-43688246D01*
X96260000Y-42888246D02*
X91342000Y-42888246D01*
X105724000Y-38848246D02*
X89676000Y-38848246D01*
X101003000Y-45288246D02*
X94397000Y-45288246D01*
X96260000Y-42008246D02*
X90742000Y-42008246D01*
X100913000Y-45328246D02*
X94487000Y-45328246D01*
X102709000Y-44248246D02*
X92691000Y-44248246D01*
X105637000Y-39408246D02*
X89763000Y-39408246D01*
X96260000Y-40808246D02*
X90163000Y-40808246D01*
X96260000Y-41328246D02*
X90384000Y-41328246D01*
X96260000Y-40448246D02*
X90034000Y-40448246D01*
X105714000Y-38928246D02*
X89686000Y-38928246D01*
X105672000Y-39208246D02*
X89728000Y-39208246D01*
X105749000Y-38608246D02*
X89651000Y-38608246D01*
X99918000Y-45688246D02*
X95482000Y-45688246D01*
X96260000Y-42408246D02*
X90994000Y-42408246D01*
X104027000Y-42928246D02*
X99140000Y-42928246D01*
X104150000Y-42768246D02*
X99140000Y-42768246D01*
X103463000Y-43568246D02*
X91937000Y-43568246D01*
X105520000Y-39928246D02*
X89880000Y-39928246D01*
X96260000Y-42288246D02*
X90915000Y-42288246D01*
X102098000Y-44688246D02*
X93302000Y-44688246D01*
X101776000Y-44888246D02*
X93624000Y-44888246D01*
X105752000Y-38567246D02*
X89648000Y-38567246D01*
X103218000Y-43808246D02*
X92182000Y-43808246D01*
X103930000Y-43048246D02*
X99140000Y-43048246D01*
X105728000Y-38808246D02*
X89672000Y-38808246D01*
X101090000Y-45248246D02*
X94310000Y-45248246D01*
X96260000Y-40568246D02*
X90075000Y-40568246D01*
X104749000Y-41848246D02*
X99140000Y-41848246D01*
X96260000Y-42088246D02*
X90790000Y-42088246D01*
X96260000Y-41008246D02*
X90243000Y-41008246D01*
X104433000Y-42368246D02*
X99140000Y-42368246D01*
X104997000Y-41368246D02*
X99140000Y-41368246D01*
X102036000Y-44728246D02*
X93364000Y-44728246D01*
X96260000Y-42728246D02*
X91220000Y-42728246D01*
X105587000Y-39648246D02*
X89813000Y-39648246D01*
X96260000Y-40848246D02*
X90178000Y-40848246D01*
X105442000Y-40208246D02*
X99140000Y-40208246D01*
X96260000Y-42128246D02*
X90814000Y-42128246D01*
X105755000Y-38527246D02*
X89645000Y-38527246D01*
X105366000Y-40448246D02*
X99140000Y-40448246D01*
X96260000Y-41288246D02*
X90366000Y-41288246D01*
X104978000Y-41408246D02*
X99140000Y-41408246D01*
X102658000Y-44288246D02*
X92742000Y-44288246D01*
X103795000Y-43208246D02*
X91605000Y-43208246D01*
X103175000Y-43848246D02*
X92225000Y-43848246D01*
X102554000Y-44368246D02*
X92846000Y-44368246D01*
X104239000Y-42648246D02*
X99140000Y-42648246D01*
X102856000Y-44128246D02*
X92544000Y-44128246D01*
X104836000Y-41688246D02*
X99140000Y-41688246D01*
X105737000Y-38728246D02*
X89663000Y-38728246D01*
X103897000Y-43088246D02*
X91503000Y-43088246D01*
X99620000Y-45768246D02*
X95780000Y-45768246D01*
X105777000Y-38127246D02*
X89623000Y-38127246D01*
X96260000Y-41568246D02*
X90501000Y-41568246D01*
X105733000Y-38768246D02*
X89667000Y-38768246D01*
X96260000Y-41608246D02*
X90522000Y-41608246D01*
X104586000Y-42128246D02*
X99140000Y-42128246D01*
X103540000Y-43488246D02*
X91860000Y-43488246D01*
X96260000Y-40328246D02*
X89995000Y-40328246D01*
X102159000Y-44648246D02*
X93241000Y-44648246D01*
X96260000Y-41088246D02*
X90277000Y-41088246D01*
X105780000Y-37927246D02*
X89620000Y-37927246D01*
X105430000Y-40248246D02*
X99140000Y-40248246D01*
X96260000Y-40488246D02*
X90047000Y-40488246D01*
X105781000Y-37887246D02*
X89619000Y-37887246D01*
X96260000Y-41848246D02*
X90651000Y-41848246D01*
X104485000Y-42288246D02*
X99140000Y-42288246D01*
X105454000Y-40168246D02*
X89946000Y-40168246D01*
X96260000Y-40208246D02*
X89958000Y-40208246D01*
X105764000Y-38407246D02*
X89636000Y-38407246D01*
X105550000Y-39808246D02*
X89850000Y-39808246D01*
X103578000Y-43448246D02*
X91822000Y-43448246D01*
X96260000Y-41488246D02*
X90461000Y-41488246D01*
X101564000Y-45008246D02*
X93836000Y-45008246D01*
X105540000Y-39848246D02*
X89860000Y-39848246D01*
X96260000Y-42208246D02*
X90864000Y-42208246D01*
X105776000Y-38167246D02*
X89624000Y-38167246D01*
X104939000Y-41488246D02*
X99140000Y-41488246D01*
X105053000Y-41248246D02*
X99140000Y-41248246D01*
X103088000Y-43928246D02*
X92312000Y-43928246D01*
X104536000Y-42208246D02*
X99140000Y-42208246D01*
X102277000Y-44568246D02*
X93123000Y-44568246D01*
X104919000Y-41528246D02*
X99140000Y-41528246D01*
X104610000Y-42088246D02*
X99140000Y-42088246D01*
X104658000Y-42008246D02*
X99140000Y-42008246D01*
X105741000Y-38688246D02*
X89659000Y-38688246D01*
X96260000Y-41648246D02*
X90543000Y-41648246D01*
X96260000Y-42968246D02*
X91405000Y-42968246D01*
X103502000Y-43528246D02*
X91898000Y-43528246D01*
X96260000Y-40648246D02*
X90103000Y-40648246D01*
X100411000Y-45528246D02*
X94989000Y-45528246D01*
X104794000Y-41768246D02*
X99140000Y-41768246D01*
X105605000Y-39568246D02*
X89795000Y-39568246D01*
X103760000Y-43248246D02*
X91640000Y-43248246D01*
X101257000Y-45168246D02*
X94143000Y-45168246D01*
X100297000Y-45568246D02*
X95103000Y-45568246D01*
X96260000Y-40888246D02*
X90194000Y-40888246D01*
X96260000Y-41128246D02*
X90294000Y-41128246D01*
X105659000Y-39288246D02*
X89741000Y-39288246D01*
X105596000Y-39608246D02*
X89804000Y-39608246D01*
X103384000Y-43648246D02*
X92016000Y-43648246D01*
X105488000Y-40048246D02*
X89912000Y-40048246D01*
X105652000Y-39328246D02*
X89748000Y-39328246D01*
X105140000Y-41048246D02*
X99140000Y-41048246D01*
X100624000Y-45448246D02*
X94776000Y-45448246D01*
X105297000Y-40648246D02*
X99140000Y-40648246D01*
X103616000Y-43408246D02*
X91784000Y-43408246D01*
X96260000Y-40288246D02*
X89982000Y-40288246D01*
X105708000Y-38968246D02*
X89692000Y-38968246D01*
X100051000Y-45648246D02*
X95349000Y-45648246D01*
X101973000Y-44768246D02*
X93427000Y-44768246D01*
X96260000Y-41448246D02*
X90442000Y-41448246D01*
X105253000Y-40768246D02*
X99140000Y-40768246D01*
X102951000Y-44048246D02*
X92449000Y-44048246D01*
X105697000Y-39048246D02*
X89703000Y-39048246D01*
X104511000Y-42248246D02*
X99140000Y-42248246D01*
X105380000Y-40408246D02*
X99140000Y-40408246D01*
X104561000Y-42168246D02*
X99140000Y-42168246D01*
X105778000Y-38087246D02*
X89622000Y-38087246D01*
X105339000Y-40528246D02*
X99140000Y-40528246D01*
X96260000Y-43048246D02*
X91470000Y-43048246D01*
X100724000Y-45408246D02*
X94676000Y-45408246D01*
X104090000Y-42848246D02*
X99140000Y-42848246D01*
X104899000Y-41568246D02*
X99140000Y-41568246D01*
X96260000Y-42928246D02*
X91373000Y-42928246D01*
X96260000Y-41168246D02*
X90311000Y-41168246D01*
X96260000Y-42608246D02*
X91132000Y-42608246D01*
X104324000Y-42528246D02*
X99140000Y-42528246D01*
X96260000Y-40768246D02*
X90147000Y-40768246D01*
X105758000Y-38487246D02*
X89642000Y-38487246D01*
X96260000Y-42248246D02*
X90889000Y-42248246D01*
X103132000Y-43888246D02*
X92268000Y-43888246D01*
X105123000Y-41088246D02*
X99140000Y-41088246D01*
X102255000Y-29197755D02*
X102255000Y-30797755D01*
X105621000Y-39488246D02*
X89779000Y-39488246D01*
X103725000Y-43288246D02*
X91675000Y-43288246D01*
X103652000Y-43368246D02*
X91748000Y-43368246D01*
X101490000Y-45048246D02*
X93910000Y-45048246D01*
X96260000Y-41248246D02*
X90347000Y-41248246D01*
X102446000Y-44448246D02*
X92954000Y-44448246D01*
X105644000Y-39368246D02*
X89756000Y-39368246D01*
X105766000Y-38367246D02*
X89634000Y-38367246D01*
X96260000Y-42808246D02*
X91280000Y-42808246D01*
X96260000Y-42448246D02*
X91021000Y-42448246D01*
X104704000Y-41928246D02*
X99140000Y-41928246D01*
X96260000Y-41768246D02*
X90606000Y-41768246D01*
X96260000Y-41048246D02*
X90260000Y-41048246D01*
X104379000Y-42448246D02*
X99140000Y-42448246D01*
X96260000Y-42048246D02*
X90766000Y-42048246D01*
X104634000Y-42048246D02*
X99140000Y-42048246D01*
X96260000Y-43008246D02*
X91437000Y-43008246D01*
X104120000Y-42808246D02*
X99140000Y-42808246D01*
X105679000Y-39168246D02*
X89721000Y-39168246D01*
X101175000Y-45208246D02*
X94225000Y-45208246D01*
X96260000Y-41408246D02*
X90422000Y-41408246D01*
X96260000Y-42168246D02*
X90839000Y-42168246D01*
X105613000Y-39528246D02*
X89787000Y-39528246D01*
X105405000Y-40328246D02*
X99140000Y-40328246D01*
X104058000Y-42888246D02*
X99140000Y-42888246D01*
X96260000Y-41888246D02*
X90673000Y-41888246D01*
X96260000Y-41968246D02*
X90719000Y-41968246D01*
X105157000Y-41008246D02*
X99140000Y-41008246D01*
X105780000Y-37967246D02*
X89620000Y-37967246D01*
X96260000Y-41368246D02*
X90403000Y-41368246D01*
X105016000Y-41328246D02*
X99140000Y-41328246D01*
X101707000Y-44928246D02*
X93693000Y-44928246D01*
X100178000Y-45608246D02*
X95222000Y-45608246D01*
X104180000Y-42728246D02*
X99140000Y-42728246D01*
X105666000Y-39248246D02*
X89734000Y-39248246D01*
X105071000Y-41208246D02*
X99140000Y-41208246D01*
X104878000Y-41608246D02*
X99140000Y-41608246D01*
X105206000Y-40888246D02*
X99140000Y-40888246D01*
X105774000Y-38207246D02*
X89626000Y-38207246D01*
X105034000Y-41288246D02*
X99140000Y-41288246D01*
X96260000Y-40368246D02*
X90007000Y-40368246D01*
X105530000Y-39888246D02*
X89870000Y-39888246D01*
X102759000Y-44208246D02*
X92641000Y-44208246D01*
X96260000Y-40248246D02*
X89970000Y-40248246D01*
X102391000Y-44488246D02*
X93009000Y-44488246D01*
X102606000Y-44328246D02*
X92794000Y-44328246D01*
X104352000Y-42488246D02*
X99140000Y-42488246D01*
X105353000Y-40488246D02*
X99140000Y-40488246D01*
X101337000Y-45128246D02*
X94063000Y-45128246D01*
X102334000Y-44528246D02*
X93066000Y-44528246D01*
X104406000Y-42408246D02*
X99140000Y-42408246D01*
X96260000Y-40968246D02*
X90226000Y-40968246D01*
X103043000Y-43968246D02*
X92357000Y-43968246D01*
X96260000Y-41728246D02*
X90585000Y-41728246D01*
X96260000Y-42648246D02*
X91161000Y-42648246D01*
X104727000Y-41888246D02*
X99140000Y-41888246D01*
X105773000Y-38247246D02*
X89627000Y-38247246D01*
X105560000Y-39768246D02*
X89840000Y-39768246D01*
X105325000Y-40568246D02*
X99140000Y-40568246D01*
X96260000Y-42488246D02*
X91048000Y-42488246D01*
X96260000Y-40608246D02*
X90089000Y-40608246D01*
X105780000Y-38007246D02*
X89620000Y-38007246D01*
X104815000Y-41728246D02*
X99140000Y-41728246D01*
X105510000Y-39968246D02*
X89890000Y-39968246D01*
X103424000Y-43608246D02*
X91976000Y-43608246D01*
X105745000Y-38648246D02*
X89655000Y-38648246D01*
X98798000Y-45928246D02*
X96602000Y-45928246D01*
X102808000Y-44168246D02*
X92592000Y-44168246D01*
X104459000Y-42328246D02*
X99140000Y-42328246D01*
X103302000Y-43728246D02*
X92098000Y-43728246D01*
X105719000Y-38888246D02*
X89681000Y-38888246D01*
X104210000Y-42688246D02*
X99140000Y-42688246D01*
X104857000Y-41648246D02*
X99140000Y-41648246D01*
X99264000Y-45848246D02*
X96136000Y-45848246D01*
X96260000Y-41808246D02*
X90628000Y-41808246D01*
X96260000Y-42768246D02*
X91250000Y-42768246D01*
X103055000Y-29997755D02*
X101455000Y-29997755D01*
X104296000Y-42568246D02*
X99140000Y-42568246D01*
X96260000Y-42328246D02*
X90941000Y-42328246D01*
X105691000Y-39088246D02*
X89709000Y-39088246D01*
X101415000Y-45088246D02*
X93985000Y-45088246D01*
X98465000Y-45968246D02*
X96935000Y-45968246D01*
X103829000Y-43168246D02*
X91571000Y-43168246D01*
X96260000Y-40688246D02*
X90118000Y-40688246D01*
X104681000Y-41968246D02*
X99140000Y-41968246D01*
X105174000Y-40968246D02*
X99140000Y-40968246D01*
X101843000Y-44848246D02*
X93557000Y-44848246D01*
X103863000Y-43128246D02*
X91537000Y-43128246D01*
X105761000Y-38447246D02*
X89639000Y-38447246D01*
X105820000Y-37887246D02*
G75*
G03*
X105820000Y-37887246I-8120000J0D01*
G01*
X86167500Y-48407500D02*
X84867500Y-48407500D01*
X85067500Y-48207500D02*
X85067500Y-29007500D01*
X88667500Y-29007500D02*
X88667500Y-48207500D01*
X88667500Y-48207500D02*
X85067500Y-48207500D01*
X85067500Y-29007500D02*
X88667500Y-29007500D01*
X84867500Y-48407500D02*
X84867500Y-47107500D01*
X98261000Y-46505000D02*
X98261000Y-62595000D01*
X99661000Y-46762000D02*
X99661000Y-62338000D01*
X103461000Y-49075000D02*
X103461000Y-60025000D01*
X100941000Y-55990000D02*
X100941000Y-61866000D01*
X98221000Y-46501000D02*
X98221000Y-62599000D01*
X99701000Y-46773000D02*
X99701000Y-62327000D01*
X101101000Y-55990000D02*
X101101000Y-61789000D01*
X97820000Y-46476000D02*
X97820000Y-62624000D01*
X101101000Y-47311000D02*
X101101000Y-53110000D01*
X103661000Y-49299000D02*
X103661000Y-59801000D01*
X99901000Y-55990000D02*
X99901000Y-62268000D01*
X104261000Y-50091000D02*
X104261000Y-59009000D01*
X103021000Y-48634000D02*
X103021000Y-60466000D01*
X99381000Y-46690000D02*
X99381000Y-62410000D01*
X100541000Y-47060000D02*
X100541000Y-53110000D01*
X102061000Y-55990000D02*
X102061000Y-61229000D01*
X98381000Y-46517000D02*
X98381000Y-62583000D01*
X105061000Y-51626000D02*
X105061000Y-57474000D01*
X103941000Y-49644000D02*
X103941000Y-59456000D01*
X103781000Y-49442000D02*
X103781000Y-59658000D01*
X98140000Y-46495000D02*
X98140000Y-62605000D01*
X100141000Y-55990000D02*
X100141000Y-62189000D01*
X103541000Y-49162000D02*
X103541000Y-59938000D01*
X100741000Y-47144000D02*
X100741000Y-53110000D01*
X102541000Y-48223000D02*
X102541000Y-53110000D01*
X100141000Y-46911000D02*
X100141000Y-53110000D01*
X100581000Y-47076000D02*
X100581000Y-53110000D01*
X101981000Y-55990000D02*
X101981000Y-61283000D01*
X100181000Y-55990000D02*
X100181000Y-62175000D01*
X102421000Y-55990000D02*
X102421000Y-60970000D01*
X103621000Y-49253000D02*
X103621000Y-59847000D01*
X99421000Y-46700000D02*
X99421000Y-62400000D01*
X99101000Y-46629000D02*
X99101000Y-62471000D01*
X99501000Y-46720000D02*
X99501000Y-62380000D01*
X101781000Y-47689000D02*
X101781000Y-53110000D01*
X98621000Y-46547000D02*
X98621000Y-62553000D01*
X104101000Y-49859000D02*
X104101000Y-59241000D01*
X102501000Y-48192000D02*
X102501000Y-53110000D01*
X100341000Y-55990000D02*
X100341000Y-62118000D01*
X102061000Y-47871000D02*
X102061000Y-53110000D01*
X104061000Y-49804000D02*
X104061000Y-59296000D01*
X101221000Y-47372000D02*
X101221000Y-53110000D01*
X104341000Y-50214000D02*
X104341000Y-58886000D01*
X100261000Y-55990000D02*
X100261000Y-62147000D01*
X101941000Y-55990000D02*
X101941000Y-61309000D01*
X100781000Y-55990000D02*
X100781000Y-61939000D01*
X99021000Y-46613000D02*
X99021000Y-62487000D01*
X102381000Y-55990000D02*
X102381000Y-61000000D01*
X99941000Y-55990000D02*
X99941000Y-62255000D01*
X101141000Y-47331000D02*
X101141000Y-53110000D01*
X99061000Y-46621000D02*
X99061000Y-62479000D01*
X105181000Y-51953000D02*
X105181000Y-57147000D01*
X99901000Y-46832000D02*
X99901000Y-53110000D01*
X99941000Y-46845000D02*
X99941000Y-53110000D01*
X102941000Y-48561000D02*
X102941000Y-60539000D01*
X103301000Y-48907000D02*
X103301000Y-60193000D01*
X101181000Y-47351000D02*
X101181000Y-53110000D01*
X98100000Y-46492000D02*
X98100000Y-62608000D01*
X99461000Y-46710000D02*
X99461000Y-62390000D01*
X100861000Y-47197000D02*
X100861000Y-53110000D01*
X102581000Y-48255000D02*
X102581000Y-53110000D01*
X100661000Y-55990000D02*
X100661000Y-61990000D01*
X100741000Y-55990000D02*
X100741000Y-61956000D01*
X99861000Y-46820000D02*
X99861000Y-53110000D01*
X99261000Y-46663000D02*
X99261000Y-62437000D01*
X99181000Y-46645000D02*
X99181000Y-62455000D01*
X101581000Y-55990000D02*
X101581000Y-61531000D01*
X101301000Y-47414000D02*
X101301000Y-53110000D01*
X99781000Y-46796000D02*
X99781000Y-62304000D01*
X102181000Y-47954000D02*
X102181000Y-53110000D01*
X101221000Y-55990000D02*
X101221000Y-61728000D01*
X100421000Y-47013000D02*
X100421000Y-53110000D01*
X101861000Y-47739000D02*
X101861000Y-53110000D01*
X105141000Y-51839000D02*
X105141000Y-57261000D01*
X103221000Y-48826000D02*
X103221000Y-60274000D01*
X104941000Y-51337000D02*
X104941000Y-57763000D01*
X101021000Y-47272000D02*
X101021000Y-53110000D01*
X104621000Y-50686000D02*
X104621000Y-58414000D01*
X98741000Y-46565000D02*
X98741000Y-62535000D01*
X103341000Y-48948000D02*
X103341000Y-60152000D01*
X102661000Y-55990000D02*
X102661000Y-60780000D01*
X97700000Y-46472000D02*
X97700000Y-62628000D01*
X102101000Y-55990000D02*
X102101000Y-61202000D01*
X102341000Y-48070000D02*
X102341000Y-53110000D01*
X101461000Y-47501000D02*
X101461000Y-53110000D01*
X97660000Y-46471000D02*
X97660000Y-62629000D01*
X97540000Y-46470000D02*
X97540000Y-62630000D01*
X102301000Y-48040000D02*
X102301000Y-53110000D01*
X100621000Y-47093000D02*
X100621000Y-53110000D01*
X101661000Y-55990000D02*
X101661000Y-61484000D01*
X97900000Y-46479000D02*
X97900000Y-62621000D01*
X98781000Y-46571000D02*
X98781000Y-62529000D01*
X100021000Y-46870000D02*
X100021000Y-53110000D01*
X100901000Y-55990000D02*
X100901000Y-61884000D01*
X102581000Y-55990000D02*
X102581000Y-60845000D01*
X101821000Y-47714000D02*
X101821000Y-53110000D01*
X104181000Y-49973000D02*
X104181000Y-59127000D01*
X100821000Y-47179000D02*
X100821000Y-53110000D01*
X102341000Y-55990000D02*
X102341000Y-61030000D01*
X98501000Y-46531000D02*
X98501000Y-62569000D01*
X105581000Y-53785000D02*
X105581000Y-55315000D01*
X100221000Y-55990000D02*
X100221000Y-62161000D01*
X98341000Y-46513000D02*
X98341000Y-62587000D01*
X102981000Y-48598000D02*
X102981000Y-60502000D01*
X105381000Y-52630000D02*
X105381000Y-56470000D01*
X102021000Y-55990000D02*
X102021000Y-61256000D01*
X102661000Y-48320000D02*
X102661000Y-53110000D01*
X105261000Y-52199000D02*
X105261000Y-56901000D01*
X101741000Y-55990000D02*
X101741000Y-61436000D01*
X103501000Y-49118000D02*
X103501000Y-59982000D01*
X101261000Y-47393000D02*
X101261000Y-53110000D01*
X104821000Y-51075000D02*
X104821000Y-58025000D01*
X102101000Y-47898000D02*
X102101000Y-53110000D01*
X103981000Y-49696000D02*
X103981000Y-59404000D01*
X97860000Y-46477000D02*
X97860000Y-62623000D01*
X101461000Y-55990000D02*
X101461000Y-61599000D01*
X102501000Y-55990000D02*
X102501000Y-60908000D01*
X98461000Y-46526000D02*
X98461000Y-62574000D01*
X100501000Y-47044000D02*
X100501000Y-53110000D01*
X104301000Y-50152000D02*
X104301000Y-58948000D01*
X97780000Y-46474000D02*
X97780000Y-62626000D01*
X101821000Y-55990000D02*
X101821000Y-61386000D01*
X97980000Y-46484000D02*
X97980000Y-62616000D01*
X102541000Y-55990000D02*
X102541000Y-60877000D01*
X101581000Y-47569000D02*
X101581000Y-53110000D01*
X101901000Y-47765000D02*
X101901000Y-53110000D01*
X102821000Y-48455000D02*
X102821000Y-60645000D01*
X100701000Y-47127000D02*
X100701000Y-53110000D01*
X98981000Y-46606000D02*
X98981000Y-62494000D01*
X104661000Y-50760000D02*
X104661000Y-58340000D01*
X99981000Y-46857000D02*
X99981000Y-53110000D01*
X100381000Y-55990000D02*
X100381000Y-62103000D01*
X97580000Y-46470000D02*
X97580000Y-62630000D01*
X101981000Y-47817000D02*
X101981000Y-53110000D01*
X100661000Y-47110000D02*
X100661000Y-53110000D01*
X101781000Y-55990000D02*
X101781000Y-61411000D01*
X102221000Y-55990000D02*
X102221000Y-61118000D01*
X100981000Y-55990000D02*
X100981000Y-61847000D01*
X102621000Y-55990000D02*
X102621000Y-60813000D01*
X99621000Y-46751000D02*
X99621000Y-62349000D01*
X102261000Y-55990000D02*
X102261000Y-61089000D01*
X101421000Y-47478000D02*
X101421000Y-53110000D01*
X104741000Y-50913000D02*
X104741000Y-58187000D01*
X102381000Y-48100000D02*
X102381000Y-53110000D01*
X100981000Y-47253000D02*
X100981000Y-53110000D01*
X101501000Y-55990000D02*
X101501000Y-61577000D01*
X105101000Y-51730000D02*
X105101000Y-57370000D01*
X103381000Y-48990000D02*
X103381000Y-60110000D01*
X102261000Y-48011000D02*
X102261000Y-53110000D01*
X101141000Y-55990000D02*
X101141000Y-61769000D01*
X101301000Y-55990000D02*
X101301000Y-61686000D01*
X104861000Y-51160000D02*
X104861000Y-57940000D01*
X101661000Y-47616000D02*
X101661000Y-53110000D01*
X98180000Y-46498000D02*
X98180000Y-62602000D01*
X99821000Y-46808000D02*
X99821000Y-53110000D01*
X100901000Y-47216000D02*
X100901000Y-53110000D01*
X104141000Y-49916000D02*
X104141000Y-59184000D01*
X98901000Y-46591000D02*
X98901000Y-62509000D01*
X103101000Y-48710000D02*
X103101000Y-60390000D01*
X101501000Y-47523000D02*
X101501000Y-53110000D01*
X100781000Y-47161000D02*
X100781000Y-53110000D01*
X105221000Y-52072000D02*
X105221000Y-57028000D01*
X102221000Y-47982000D02*
X102221000Y-53110000D01*
X100941000Y-47234000D02*
X100941000Y-53110000D01*
X102781000Y-48421000D02*
X102781000Y-60679000D01*
X98020000Y-46486000D02*
X98020000Y-62614000D01*
X101061000Y-47292000D02*
X101061000Y-53110000D01*
X101261000Y-55990000D02*
X101261000Y-61707000D01*
X102301000Y-55990000D02*
X102301000Y-61060000D01*
X97620000Y-46470000D02*
X97620000Y-62630000D01*
X103581000Y-49207000D02*
X103581000Y-59893000D01*
X99341000Y-46681000D02*
X99341000Y-62419000D01*
X102741000Y-48387000D02*
X102741000Y-60713000D01*
X105541000Y-53452000D02*
X105541000Y-55648000D01*
X100621000Y-55990000D02*
X100621000Y-62007000D01*
X102861000Y-48490000D02*
X102861000Y-60610000D01*
X100021000Y-55990000D02*
X100021000Y-62230000D01*
X98421000Y-46522000D02*
X98421000Y-62578000D01*
X101421000Y-55990000D02*
X101421000Y-61622000D01*
X100061000Y-55990000D02*
X100061000Y-62216000D01*
X104901000Y-51247000D02*
X104901000Y-57853000D01*
X101541000Y-55990000D02*
X101541000Y-61554000D01*
X101381000Y-47456000D02*
X101381000Y-53110000D01*
X99301000Y-46672000D02*
X99301000Y-62428000D01*
X104981000Y-51430000D02*
X104981000Y-57670000D01*
X98941000Y-46598000D02*
X98941000Y-62502000D01*
X102141000Y-47926000D02*
X102141000Y-53110000D01*
X99741000Y-46785000D02*
X99741000Y-62315000D01*
X98301000Y-46509000D02*
X98301000Y-62591000D01*
X98541000Y-46536000D02*
X98541000Y-62564000D01*
X98861000Y-46584000D02*
X98861000Y-62516000D01*
X88810509Y-49995000D02*
X90410509Y-49995000D01*
X100581000Y-55990000D02*
X100581000Y-62024000D01*
X103741000Y-49394000D02*
X103741000Y-59706000D01*
X100541000Y-55990000D02*
X100541000Y-62040000D01*
X100501000Y-55990000D02*
X100501000Y-62056000D01*
X103421000Y-49032000D02*
X103421000Y-60068000D01*
X102181000Y-55990000D02*
X102181000Y-61146000D01*
X98661000Y-46553000D02*
X98661000Y-62547000D01*
X103901000Y-49592000D02*
X103901000Y-59508000D01*
X101381000Y-55990000D02*
X101381000Y-61644000D01*
X101341000Y-47435000D02*
X101341000Y-53110000D01*
X100701000Y-55990000D02*
X100701000Y-61973000D01*
X104781000Y-50993000D02*
X104781000Y-58107000D01*
X103701000Y-49346000D02*
X103701000Y-59754000D01*
X105301000Y-52332000D02*
X105301000Y-56768000D01*
X102461000Y-55990000D02*
X102461000Y-60940000D01*
X100301000Y-55990000D02*
X100301000Y-62132000D01*
X98821000Y-46578000D02*
X98821000Y-62522000D01*
X103181000Y-48787000D02*
X103181000Y-60313000D01*
X102901000Y-48525000D02*
X102901000Y-60575000D01*
X100221000Y-46939000D02*
X100221000Y-53110000D01*
X104701000Y-50835000D02*
X104701000Y-58265000D01*
X100181000Y-46925000D02*
X100181000Y-53110000D01*
X100381000Y-46997000D02*
X100381000Y-53110000D01*
X102461000Y-48160000D02*
X102461000Y-53110000D01*
X101701000Y-55990000D02*
X101701000Y-61460000D01*
X101341000Y-55990000D02*
X101341000Y-61665000D01*
X102421000Y-48130000D02*
X102421000Y-53110000D01*
X100461000Y-47028000D02*
X100461000Y-53110000D01*
X102701000Y-48353000D02*
X102701000Y-60747000D01*
X104501000Y-50474000D02*
X104501000Y-58626000D01*
X100861000Y-55990000D02*
X100861000Y-61903000D01*
X104221000Y-50031000D02*
X104221000Y-59069000D01*
X99581000Y-46740000D02*
X99581000Y-62360000D01*
X105421000Y-52798000D02*
X105421000Y-56302000D01*
X99141000Y-46637000D02*
X99141000Y-62463000D01*
X100101000Y-55990000D02*
X100101000Y-62203000D01*
X97740000Y-46473000D02*
X97740000Y-62627000D01*
X101741000Y-47664000D02*
X101741000Y-53110000D01*
X101061000Y-55990000D02*
X101061000Y-61808000D01*
X101621000Y-47592000D02*
X101621000Y-53110000D01*
X104021000Y-49750000D02*
X104021000Y-59350000D01*
X101621000Y-55990000D02*
X101621000Y-61508000D01*
X99221000Y-46654000D02*
X99221000Y-62446000D01*
X101861000Y-55990000D02*
X101861000Y-61361000D01*
X104381000Y-50277000D02*
X104381000Y-58823000D01*
X100101000Y-46897000D02*
X100101000Y-53110000D01*
X104541000Y-50543000D02*
X104541000Y-58557000D01*
X100261000Y-46953000D02*
X100261000Y-53110000D01*
X103261000Y-48866000D02*
X103261000Y-60234000D01*
X101701000Y-47640000D02*
X101701000Y-53110000D01*
X100301000Y-46968000D02*
X100301000Y-53110000D01*
X104421000Y-50341000D02*
X104421000Y-58759000D01*
X102621000Y-48287000D02*
X102621000Y-53110000D01*
X105501000Y-53199000D02*
X105501000Y-55901000D01*
X105461000Y-52986000D02*
X105461000Y-56114000D01*
X104581000Y-50614000D02*
X104581000Y-58486000D01*
X98701000Y-46559000D02*
X98701000Y-62541000D01*
X103861000Y-49541000D02*
X103861000Y-59559000D01*
X100061000Y-46884000D02*
X100061000Y-53110000D01*
X102141000Y-55990000D02*
X102141000Y-61174000D01*
X97940000Y-46481000D02*
X97940000Y-62619000D01*
X99861000Y-55990000D02*
X99861000Y-62280000D01*
X99821000Y-55990000D02*
X99821000Y-62292000D01*
X100421000Y-55990000D02*
X100421000Y-62087000D01*
X103061000Y-48672000D02*
X103061000Y-60428000D01*
X101181000Y-55990000D02*
X101181000Y-61749000D01*
X99981000Y-55990000D02*
X99981000Y-62243000D01*
X105021000Y-51526000D02*
X105021000Y-57574000D01*
X100821000Y-55990000D02*
X100821000Y-61921000D01*
X97500000Y-46469000D02*
X97500000Y-62631000D01*
X98581000Y-46542000D02*
X98581000Y-62558000D01*
X100341000Y-46982000D02*
X100341000Y-53110000D01*
X100461000Y-55990000D02*
X100461000Y-62072000D01*
X105341000Y-52476000D02*
X105341000Y-56624000D01*
X101541000Y-47546000D02*
X101541000Y-53110000D01*
X103821000Y-49491000D02*
X103821000Y-59609000D01*
X101901000Y-55990000D02*
X101901000Y-61335000D01*
X98060000Y-46489000D02*
X98060000Y-62611000D01*
X103141000Y-48748000D02*
X103141000Y-60352000D01*
X101021000Y-55990000D02*
X101021000Y-61828000D01*
X104461000Y-50407000D02*
X104461000Y-58693000D01*
X102021000Y-47844000D02*
X102021000Y-53110000D01*
X101941000Y-47791000D02*
X101941000Y-53110000D01*
X99541000Y-46730000D02*
X99541000Y-62370000D01*
X89610509Y-49195000D02*
X89610509Y-50795000D01*
X105620000Y-54550000D02*
G75*
G03*
X105620000Y-54550000I-8120000J0D01*
G01*
%LPC*%
D13*
X145350000Y-58300000D03*
X145350000Y-17350000D03*
X76800000Y-58300000D03*
X76800000Y-17350000D03*
D14*
X86870000Y-24340000D03*
X86870000Y-27440000D03*
D15*
X94537246Y-21200000D03*
D16*
X102037246Y-21200000D03*
D17*
X78495000Y-36055000D03*
D18*
X78495000Y-41135000D03*
D17*
X144000000Y-43160000D03*
D18*
X144000000Y-38080000D03*
X144000000Y-33000000D03*
D19*
X110250000Y-51250000D03*
D20*
X108250000Y-45400000D03*
D21*
X110790000Y-45400000D03*
X113330000Y-45400000D03*
X128570000Y-45400000D03*
X133650000Y-45400000D03*
X133650000Y-30160000D03*
X128570000Y-30160000D03*
X113330000Y-30160000D03*
X110790000Y-30160000D03*
D22*
X77625000Y-31400000D03*
X79675000Y-31400000D03*
D15*
X97700000Y-34137246D03*
D16*
X97700000Y-41637246D03*
D23*
X86867500Y-46107500D03*
D24*
X86867500Y-41107500D03*
X86867500Y-36107500D03*
X86867500Y-31107500D03*
D15*
X93750000Y-54550000D03*
D16*
X101250000Y-54550000D03*
M02*
