%FSLAX45Y45*%
G04 Gerber Fmt 4.5, Leading zero omitted, Abs format (unit mm)*
G04 Created by KiCad (PCBNEW (6.0.6)) date 2022-08-27 12:41:10*
%MOMM*%
%LPD*%
G01*
G04 APERTURE LIST*
%TA.AperFunction,Profile*%
%ADD10C,0.100000*%
%TD*%
%ADD11C,0.200000*%
%ADD12C,0.320000*%
G04 APERTURE END LIST*
D10*
X14960000Y-1235000D02*
X15035000Y-1235000D01*
X15035000Y-6330000D02*
X15035000Y-1235000D01*
X7180000Y-1235000D02*
X14960000Y-1235000D01*
X7180000Y-6330000D02*
X7180000Y-1235000D01*
X7180000Y-6330000D02*
X15035000Y-6330000D01*
D11*
D12*
X7520000Y-1575000D02*
X7840000Y-1895000D01*
X7840000Y-1575000D02*
X7520000Y-1895000D01*
X7520000Y-5670000D02*
X7840000Y-5990000D01*
X7840000Y-5670000D02*
X7520000Y-5990000D01*
X14375000Y-1575000D02*
X14695000Y-1895000D01*
X14695000Y-1575000D02*
X14375000Y-1895000D01*
X14375000Y-5670000D02*
X14695000Y-5990000D01*
X14695000Y-5670000D02*
X14375000Y-5990000D01*
D11*
X7432619Y-6645476D02*
X7432619Y-6445476D01*
X7480238Y-6445476D01*
X7508809Y-6455000D01*
X7527857Y-6474048D01*
X7537381Y-6493095D01*
X7546905Y-6531190D01*
X7546905Y-6559762D01*
X7537381Y-6597857D01*
X7527857Y-6616905D01*
X7508809Y-6635952D01*
X7480238Y-6645476D01*
X7432619Y-6645476D01*
X7632619Y-6645476D02*
X7632619Y-6512143D01*
X7632619Y-6550238D02*
X7642143Y-6531190D01*
X7651667Y-6521667D01*
X7670714Y-6512143D01*
X7689762Y-6512143D01*
X7756428Y-6645476D02*
X7756428Y-6512143D01*
X7756428Y-6445476D02*
X7746905Y-6455000D01*
X7756428Y-6464524D01*
X7765952Y-6455000D01*
X7756428Y-6445476D01*
X7756428Y-6464524D01*
X7880238Y-6645476D02*
X7861190Y-6635952D01*
X7851667Y-6616905D01*
X7851667Y-6445476D01*
X7985000Y-6645476D02*
X7965952Y-6635952D01*
X7956428Y-6616905D01*
X7956428Y-6445476D01*
X8213571Y-6645476D02*
X8213571Y-6445476D01*
X8280238Y-6588333D01*
X8346905Y-6445476D01*
X8346905Y-6645476D01*
X8527857Y-6645476D02*
X8527857Y-6540714D01*
X8518333Y-6521667D01*
X8499286Y-6512143D01*
X8461190Y-6512143D01*
X8442143Y-6521667D01*
X8527857Y-6635952D02*
X8508810Y-6645476D01*
X8461190Y-6645476D01*
X8442143Y-6635952D01*
X8432619Y-6616905D01*
X8432619Y-6597857D01*
X8442143Y-6578809D01*
X8461190Y-6569286D01*
X8508810Y-6569286D01*
X8527857Y-6559762D01*
X8623095Y-6512143D02*
X8623095Y-6712143D01*
X8623095Y-6521667D02*
X8642143Y-6512143D01*
X8680238Y-6512143D01*
X8699286Y-6521667D01*
X8708810Y-6531190D01*
X8718333Y-6550238D01*
X8718333Y-6607381D01*
X8708810Y-6626428D01*
X8699286Y-6635952D01*
X8680238Y-6645476D01*
X8642143Y-6645476D01*
X8623095Y-6635952D01*
X8804048Y-6626428D02*
X8813571Y-6635952D01*
X8804048Y-6645476D01*
X8794524Y-6635952D01*
X8804048Y-6626428D01*
X8804048Y-6645476D01*
X8804048Y-6521667D02*
X8813571Y-6531190D01*
X8804048Y-6540714D01*
X8794524Y-6531190D01*
X8804048Y-6521667D01*
X8804048Y-6540714D01*
X6975000Y-6875000D02*
X7175000Y-7075000D01*
X7175000Y-6875000D02*
X6975000Y-7075000D01*
X7413571Y-6865476D02*
X7537381Y-6865476D01*
X7470714Y-6941667D01*
X7499286Y-6941667D01*
X7518333Y-6951190D01*
X7527857Y-6960714D01*
X7537381Y-6979762D01*
X7537381Y-7027381D01*
X7527857Y-7046428D01*
X7518333Y-7055952D01*
X7499286Y-7065476D01*
X7442143Y-7065476D01*
X7423095Y-7055952D01*
X7413571Y-7046428D01*
X7623095Y-7046428D02*
X7632619Y-7055952D01*
X7623095Y-7065476D01*
X7613571Y-7055952D01*
X7623095Y-7046428D01*
X7623095Y-7065476D01*
X7708809Y-6884524D02*
X7718333Y-6875000D01*
X7737381Y-6865476D01*
X7785000Y-6865476D01*
X7804048Y-6875000D01*
X7813571Y-6884524D01*
X7823095Y-6903571D01*
X7823095Y-6922619D01*
X7813571Y-6951190D01*
X7699286Y-7065476D01*
X7823095Y-7065476D01*
X7946905Y-6865476D02*
X7965952Y-6865476D01*
X7985000Y-6875000D01*
X7994524Y-6884524D01*
X8004048Y-6903571D01*
X8013571Y-6941667D01*
X8013571Y-6989286D01*
X8004048Y-7027381D01*
X7994524Y-7046428D01*
X7985000Y-7055952D01*
X7965952Y-7065476D01*
X7946905Y-7065476D01*
X7927857Y-7055952D01*
X7918333Y-7046428D01*
X7908809Y-7027381D01*
X7899286Y-6989286D01*
X7899286Y-6941667D01*
X7908809Y-6903571D01*
X7918333Y-6884524D01*
X7927857Y-6875000D01*
X7946905Y-6865476D01*
X8137381Y-6865476D02*
X8156428Y-6865476D01*
X8175476Y-6875000D01*
X8185000Y-6884524D01*
X8194524Y-6903571D01*
X8204048Y-6941667D01*
X8204048Y-6989286D01*
X8194524Y-7027381D01*
X8185000Y-7046428D01*
X8175476Y-7055952D01*
X8156428Y-7065476D01*
X8137381Y-7065476D01*
X8118333Y-7055952D01*
X8108809Y-7046428D01*
X8099286Y-7027381D01*
X8089762Y-6989286D01*
X8089762Y-6941667D01*
X8099286Y-6903571D01*
X8108809Y-6884524D01*
X8118333Y-6875000D01*
X8137381Y-6865476D01*
X8289762Y-7065476D02*
X8289762Y-6932143D01*
X8289762Y-6951190D02*
X8299286Y-6941667D01*
X8318333Y-6932143D01*
X8346905Y-6932143D01*
X8365952Y-6941667D01*
X8375476Y-6960714D01*
X8375476Y-7065476D01*
X8375476Y-6960714D02*
X8385000Y-6941667D01*
X8404048Y-6932143D01*
X8432619Y-6932143D01*
X8451667Y-6941667D01*
X8461190Y-6960714D01*
X8461190Y-7065476D01*
X8556429Y-7065476D02*
X8556429Y-6932143D01*
X8556429Y-6951190D02*
X8565952Y-6941667D01*
X8585000Y-6932143D01*
X8613571Y-6932143D01*
X8632619Y-6941667D01*
X8642143Y-6960714D01*
X8642143Y-7065476D01*
X8642143Y-6960714D02*
X8651667Y-6941667D01*
X8670714Y-6932143D01*
X8699286Y-6932143D01*
X8718333Y-6941667D01*
X8727857Y-6960714D01*
X8727857Y-7065476D01*
X9118333Y-6855952D02*
X8946905Y-7113095D01*
X9375476Y-6865476D02*
X9394524Y-6865476D01*
X9413571Y-6875000D01*
X9423095Y-6884524D01*
X9432619Y-6903571D01*
X9442143Y-6941667D01*
X9442143Y-6989286D01*
X9432619Y-7027381D01*
X9423095Y-7046428D01*
X9413571Y-7055952D01*
X9394524Y-7065476D01*
X9375476Y-7065476D01*
X9356429Y-7055952D01*
X9346905Y-7046428D01*
X9337381Y-7027381D01*
X9327857Y-6989286D01*
X9327857Y-6941667D01*
X9337381Y-6903571D01*
X9346905Y-6884524D01*
X9356429Y-6875000D01*
X9375476Y-6865476D01*
X9527857Y-7046428D02*
X9537381Y-7055952D01*
X9527857Y-7065476D01*
X9518333Y-7055952D01*
X9527857Y-7046428D01*
X9527857Y-7065476D01*
X9727857Y-7065476D02*
X9613571Y-7065476D01*
X9670714Y-7065476D02*
X9670714Y-6865476D01*
X9651667Y-6894048D01*
X9632619Y-6913095D01*
X9613571Y-6922619D01*
X9804048Y-6884524D02*
X9813571Y-6875000D01*
X9832619Y-6865476D01*
X9880238Y-6865476D01*
X9899286Y-6875000D01*
X9908810Y-6884524D01*
X9918333Y-6903571D01*
X9918333Y-6922619D01*
X9908810Y-6951190D01*
X9794524Y-7065476D01*
X9918333Y-7065476D01*
X10089762Y-6865476D02*
X10051667Y-6865476D01*
X10032619Y-6875000D01*
X10023095Y-6884524D01*
X10004048Y-6913095D01*
X9994524Y-6951190D01*
X9994524Y-7027381D01*
X10004048Y-7046428D01*
X10013571Y-7055952D01*
X10032619Y-7065476D01*
X10070714Y-7065476D01*
X10089762Y-7055952D01*
X10099286Y-7046428D01*
X10108810Y-7027381D01*
X10108810Y-6979762D01*
X10099286Y-6960714D01*
X10089762Y-6951190D01*
X10070714Y-6941667D01*
X10032619Y-6941667D01*
X10013571Y-6951190D01*
X10004048Y-6960714D01*
X9994524Y-6979762D01*
X10232619Y-6865476D02*
X10251667Y-6865476D01*
X10270714Y-6875000D01*
X10280238Y-6884524D01*
X10289762Y-6903571D01*
X10299286Y-6941667D01*
X10299286Y-6989286D01*
X10289762Y-7027381D01*
X10280238Y-7046428D01*
X10270714Y-7055952D01*
X10251667Y-7065476D01*
X10232619Y-7065476D01*
X10213571Y-7055952D01*
X10204048Y-7046428D01*
X10194524Y-7027381D01*
X10185000Y-6989286D01*
X10185000Y-6941667D01*
X10194524Y-6903571D01*
X10204048Y-6884524D01*
X10213571Y-6875000D01*
X10232619Y-6865476D01*
X10375476Y-6865476D02*
X10375476Y-6903571D01*
X10451667Y-6865476D02*
X10451667Y-6903571D01*
X10746905Y-7141667D02*
X10737381Y-7132143D01*
X10718333Y-7103571D01*
X10708810Y-7084524D01*
X10699286Y-7055952D01*
X10689762Y-7008333D01*
X10689762Y-6970238D01*
X10699286Y-6922619D01*
X10708810Y-6894048D01*
X10718333Y-6875000D01*
X10737381Y-6846428D01*
X10746905Y-6836905D01*
X10908810Y-6932143D02*
X10908810Y-7065476D01*
X10861190Y-6855952D02*
X10813571Y-6998809D01*
X10937381Y-6998809D01*
X11165952Y-7065476D02*
X11165952Y-6865476D01*
X11251667Y-7065476D02*
X11251667Y-6960714D01*
X11242143Y-6941667D01*
X11223095Y-6932143D01*
X11194524Y-6932143D01*
X11175476Y-6941667D01*
X11165952Y-6951190D01*
X11375476Y-7065476D02*
X11356428Y-7055952D01*
X11346905Y-7046428D01*
X11337381Y-7027381D01*
X11337381Y-6970238D01*
X11346905Y-6951190D01*
X11356428Y-6941667D01*
X11375476Y-6932143D01*
X11404048Y-6932143D01*
X11423095Y-6941667D01*
X11432619Y-6951190D01*
X11442143Y-6970238D01*
X11442143Y-7027381D01*
X11432619Y-7046428D01*
X11423095Y-7055952D01*
X11404048Y-7065476D01*
X11375476Y-7065476D01*
X11556428Y-7065476D02*
X11537381Y-7055952D01*
X11527857Y-7036905D01*
X11527857Y-6865476D01*
X11708809Y-7055952D02*
X11689762Y-7065476D01*
X11651667Y-7065476D01*
X11632619Y-7055952D01*
X11623095Y-7036905D01*
X11623095Y-6960714D01*
X11632619Y-6941667D01*
X11651667Y-6932143D01*
X11689762Y-6932143D01*
X11708809Y-6941667D01*
X11718333Y-6960714D01*
X11718333Y-6979762D01*
X11623095Y-6998809D01*
X11794524Y-7055952D02*
X11813571Y-7065476D01*
X11851667Y-7065476D01*
X11870714Y-7055952D01*
X11880238Y-7036905D01*
X11880238Y-7027381D01*
X11870714Y-7008333D01*
X11851667Y-6998809D01*
X11823095Y-6998809D01*
X11804048Y-6989286D01*
X11794524Y-6970238D01*
X11794524Y-6960714D01*
X11804048Y-6941667D01*
X11823095Y-6932143D01*
X11851667Y-6932143D01*
X11870714Y-6941667D01*
X11946905Y-7141667D02*
X11956428Y-7132143D01*
X11975476Y-7103571D01*
X11985000Y-7084524D01*
X11994524Y-7055952D01*
X12004048Y-7008333D01*
X12004048Y-6970238D01*
X11994524Y-6922619D01*
X11985000Y-6894048D01*
X11975476Y-6875000D01*
X11956428Y-6846428D01*
X11946905Y-6836905D01*
X12308809Y-7141667D02*
X12299286Y-7132143D01*
X12280238Y-7103571D01*
X12270714Y-7084524D01*
X12261190Y-7055952D01*
X12251667Y-7008333D01*
X12251667Y-6970238D01*
X12261190Y-6922619D01*
X12270714Y-6894048D01*
X12280238Y-6875000D01*
X12299286Y-6846428D01*
X12308809Y-6836905D01*
X12385000Y-6932143D02*
X12385000Y-7065476D01*
X12385000Y-6951190D02*
X12394524Y-6941667D01*
X12413571Y-6932143D01*
X12442143Y-6932143D01*
X12461190Y-6941667D01*
X12470714Y-6960714D01*
X12470714Y-7065476D01*
X12594524Y-7065476D02*
X12575476Y-7055952D01*
X12565952Y-7046428D01*
X12556428Y-7027381D01*
X12556428Y-6970238D01*
X12565952Y-6951190D01*
X12575476Y-6941667D01*
X12594524Y-6932143D01*
X12623095Y-6932143D01*
X12642143Y-6941667D01*
X12651667Y-6951190D01*
X12661190Y-6970238D01*
X12661190Y-7027381D01*
X12651667Y-7046428D01*
X12642143Y-7055952D01*
X12623095Y-7065476D01*
X12594524Y-7065476D01*
X12718333Y-6932143D02*
X12794524Y-6932143D01*
X12746905Y-6865476D02*
X12746905Y-7036905D01*
X12756428Y-7055952D01*
X12775476Y-7065476D01*
X12794524Y-7065476D01*
X13013571Y-6932143D02*
X13013571Y-7132143D01*
X13013571Y-6941667D02*
X13032619Y-6932143D01*
X13070714Y-6932143D01*
X13089762Y-6941667D01*
X13099286Y-6951190D01*
X13108809Y-6970238D01*
X13108809Y-7027381D01*
X13099286Y-7046428D01*
X13089762Y-7055952D01*
X13070714Y-7065476D01*
X13032619Y-7065476D01*
X13013571Y-7055952D01*
X13223095Y-7065476D02*
X13204048Y-7055952D01*
X13194524Y-7036905D01*
X13194524Y-6865476D01*
X13385000Y-7065476D02*
X13385000Y-6960714D01*
X13375476Y-6941667D01*
X13356428Y-6932143D01*
X13318333Y-6932143D01*
X13299286Y-6941667D01*
X13385000Y-7055952D02*
X13365952Y-7065476D01*
X13318333Y-7065476D01*
X13299286Y-7055952D01*
X13289762Y-7036905D01*
X13289762Y-7017857D01*
X13299286Y-6998809D01*
X13318333Y-6989286D01*
X13365952Y-6989286D01*
X13385000Y-6979762D01*
X13451667Y-6932143D02*
X13527857Y-6932143D01*
X13480238Y-6865476D02*
X13480238Y-7036905D01*
X13489762Y-7055952D01*
X13508809Y-7065476D01*
X13527857Y-7065476D01*
X13670714Y-7055952D02*
X13651667Y-7065476D01*
X13613571Y-7065476D01*
X13594524Y-7055952D01*
X13585000Y-7036905D01*
X13585000Y-6960714D01*
X13594524Y-6941667D01*
X13613571Y-6932143D01*
X13651667Y-6932143D01*
X13670714Y-6941667D01*
X13680238Y-6960714D01*
X13680238Y-6979762D01*
X13585000Y-6998809D01*
X13851667Y-7065476D02*
X13851667Y-6865476D01*
X13851667Y-7055952D02*
X13832619Y-7065476D01*
X13794524Y-7065476D01*
X13775476Y-7055952D01*
X13765952Y-7046428D01*
X13756428Y-7027381D01*
X13756428Y-6970238D01*
X13765952Y-6951190D01*
X13775476Y-6941667D01*
X13794524Y-6932143D01*
X13832619Y-6932143D01*
X13851667Y-6941667D01*
X13927857Y-7141667D02*
X13937381Y-7132143D01*
X13956428Y-7103571D01*
X13965952Y-7084524D01*
X13975476Y-7055952D01*
X13985000Y-7008333D01*
X13985000Y-6970238D01*
X13975476Y-6922619D01*
X13965952Y-6894048D01*
X13956428Y-6875000D01*
X13937381Y-6846428D01*
X13927857Y-6836905D01*
M02*
