%FSLAX45Y45*%
G04 Gerber Fmt 4.5, Leading zero omitted, Abs format (unit mm)*
G04 Created by KiCad (PCBNEW (6.0.6)) date 2022-08-29 16:13:38*
%MOMM*%
%LPD*%
G01*
G04 APERTURE LIST*
%TA.AperFunction,Profile*%
%ADD10C,0.100000*%
%TD*%
%ADD11C,0.200000*%
%ADD12C,0.320000*%
G04 APERTURE END LIST*
D10*
X13500000Y-2953440D02*
X9624840Y-2953440D01*
X9624840Y-2953440D02*
X9624840Y-9319560D01*
X9624840Y-9319560D02*
X13500000Y-9319560D01*
X13500000Y-9319560D02*
X13500000Y-2953440D01*
D11*
D12*
X12936240Y-3197880D02*
X13256240Y-3517880D01*
X13256240Y-3197880D02*
X12936240Y-3517880D01*
X12938780Y-8760480D02*
X13258780Y-9080480D01*
X13258780Y-8760480D02*
X12938780Y-9080480D01*
D11*
X9877459Y-9635036D02*
X9877459Y-9435036D01*
X9925078Y-9435036D01*
X9953650Y-9444560D01*
X9972697Y-9463608D01*
X9982221Y-9482655D01*
X9991745Y-9520750D01*
X9991745Y-9549322D01*
X9982221Y-9587417D01*
X9972697Y-9606465D01*
X9953650Y-9625512D01*
X9925078Y-9635036D01*
X9877459Y-9635036D01*
X10077459Y-9635036D02*
X10077459Y-9501703D01*
X10077459Y-9539798D02*
X10086983Y-9520750D01*
X10096507Y-9511227D01*
X10115554Y-9501703D01*
X10134602Y-9501703D01*
X10201269Y-9635036D02*
X10201269Y-9501703D01*
X10201269Y-9435036D02*
X10191745Y-9444560D01*
X10201269Y-9454084D01*
X10210792Y-9444560D01*
X10201269Y-9435036D01*
X10201269Y-9454084D01*
X10325078Y-9635036D02*
X10306030Y-9625512D01*
X10296507Y-9606465D01*
X10296507Y-9435036D01*
X10429840Y-9635036D02*
X10410792Y-9625512D01*
X10401269Y-9606465D01*
X10401269Y-9435036D01*
X10658411Y-9635036D02*
X10658411Y-9435036D01*
X10725078Y-9577893D01*
X10791745Y-9435036D01*
X10791745Y-9635036D01*
X10972697Y-9635036D02*
X10972697Y-9530274D01*
X10963173Y-9511227D01*
X10944126Y-9501703D01*
X10906030Y-9501703D01*
X10886983Y-9511227D01*
X10972697Y-9625512D02*
X10953650Y-9635036D01*
X10906030Y-9635036D01*
X10886983Y-9625512D01*
X10877459Y-9606465D01*
X10877459Y-9587417D01*
X10886983Y-9568370D01*
X10906030Y-9558846D01*
X10953650Y-9558846D01*
X10972697Y-9549322D01*
X11067935Y-9501703D02*
X11067935Y-9701703D01*
X11067935Y-9511227D02*
X11086983Y-9501703D01*
X11125078Y-9501703D01*
X11144126Y-9511227D01*
X11153650Y-9520750D01*
X11163173Y-9539798D01*
X11163173Y-9596941D01*
X11153650Y-9615989D01*
X11144126Y-9625512D01*
X11125078Y-9635036D01*
X11086983Y-9635036D01*
X11067935Y-9625512D01*
X11248888Y-9615989D02*
X11258411Y-9625512D01*
X11248888Y-9635036D01*
X11239364Y-9625512D01*
X11248888Y-9615989D01*
X11248888Y-9635036D01*
X11248888Y-9511227D02*
X11258411Y-9520750D01*
X11248888Y-9530274D01*
X11239364Y-9520750D01*
X11248888Y-9511227D01*
X11248888Y-9530274D01*
X9419840Y-9864560D02*
X9619840Y-10064560D01*
X9619840Y-9864560D02*
X9419840Y-10064560D01*
X9858411Y-9855036D02*
X9982221Y-9855036D01*
X9915554Y-9931227D01*
X9944126Y-9931227D01*
X9963173Y-9940750D01*
X9972697Y-9950274D01*
X9982221Y-9969322D01*
X9982221Y-10016941D01*
X9972697Y-10035989D01*
X9963173Y-10045512D01*
X9944126Y-10055036D01*
X9886983Y-10055036D01*
X9867935Y-10045512D01*
X9858411Y-10035989D01*
X10067935Y-10035989D02*
X10077459Y-10045512D01*
X10067935Y-10055036D01*
X10058411Y-10045512D01*
X10067935Y-10035989D01*
X10067935Y-10055036D01*
X10153650Y-9874084D02*
X10163173Y-9864560D01*
X10182221Y-9855036D01*
X10229840Y-9855036D01*
X10248888Y-9864560D01*
X10258411Y-9874084D01*
X10267935Y-9893131D01*
X10267935Y-9912179D01*
X10258411Y-9940750D01*
X10144126Y-10055036D01*
X10267935Y-10055036D01*
X10391745Y-9855036D02*
X10410792Y-9855036D01*
X10429840Y-9864560D01*
X10439364Y-9874084D01*
X10448888Y-9893131D01*
X10458411Y-9931227D01*
X10458411Y-9978846D01*
X10448888Y-10016941D01*
X10439364Y-10035989D01*
X10429840Y-10045512D01*
X10410792Y-10055036D01*
X10391745Y-10055036D01*
X10372697Y-10045512D01*
X10363173Y-10035989D01*
X10353650Y-10016941D01*
X10344126Y-9978846D01*
X10344126Y-9931227D01*
X10353650Y-9893131D01*
X10363173Y-9874084D01*
X10372697Y-9864560D01*
X10391745Y-9855036D01*
X10582221Y-9855036D02*
X10601269Y-9855036D01*
X10620316Y-9864560D01*
X10629840Y-9874084D01*
X10639364Y-9893131D01*
X10648888Y-9931227D01*
X10648888Y-9978846D01*
X10639364Y-10016941D01*
X10629840Y-10035989D01*
X10620316Y-10045512D01*
X10601269Y-10055036D01*
X10582221Y-10055036D01*
X10563173Y-10045512D01*
X10553650Y-10035989D01*
X10544126Y-10016941D01*
X10534602Y-9978846D01*
X10534602Y-9931227D01*
X10544126Y-9893131D01*
X10553650Y-9874084D01*
X10563173Y-9864560D01*
X10582221Y-9855036D01*
X10734602Y-10055036D02*
X10734602Y-9921703D01*
X10734602Y-9940750D02*
X10744126Y-9931227D01*
X10763173Y-9921703D01*
X10791745Y-9921703D01*
X10810792Y-9931227D01*
X10820316Y-9950274D01*
X10820316Y-10055036D01*
X10820316Y-9950274D02*
X10829840Y-9931227D01*
X10848888Y-9921703D01*
X10877459Y-9921703D01*
X10896507Y-9931227D01*
X10906030Y-9950274D01*
X10906030Y-10055036D01*
X11001269Y-10055036D02*
X11001269Y-9921703D01*
X11001269Y-9940750D02*
X11010792Y-9931227D01*
X11029840Y-9921703D01*
X11058411Y-9921703D01*
X11077459Y-9931227D01*
X11086983Y-9950274D01*
X11086983Y-10055036D01*
X11086983Y-9950274D02*
X11096507Y-9931227D01*
X11115554Y-9921703D01*
X11144126Y-9921703D01*
X11163173Y-9931227D01*
X11172697Y-9950274D01*
X11172697Y-10055036D01*
X11563173Y-9845512D02*
X11391745Y-10102655D01*
X11820316Y-9855036D02*
X11839364Y-9855036D01*
X11858411Y-9864560D01*
X11867935Y-9874084D01*
X11877459Y-9893131D01*
X11886983Y-9931227D01*
X11886983Y-9978846D01*
X11877459Y-10016941D01*
X11867935Y-10035989D01*
X11858411Y-10045512D01*
X11839364Y-10055036D01*
X11820316Y-10055036D01*
X11801268Y-10045512D01*
X11791745Y-10035989D01*
X11782221Y-10016941D01*
X11772697Y-9978846D01*
X11772697Y-9931227D01*
X11782221Y-9893131D01*
X11791745Y-9874084D01*
X11801268Y-9864560D01*
X11820316Y-9855036D01*
X11972697Y-10035989D02*
X11982221Y-10045512D01*
X11972697Y-10055036D01*
X11963173Y-10045512D01*
X11972697Y-10035989D01*
X11972697Y-10055036D01*
X12172697Y-10055036D02*
X12058411Y-10055036D01*
X12115554Y-10055036D02*
X12115554Y-9855036D01*
X12096507Y-9883608D01*
X12077459Y-9902655D01*
X12058411Y-9912179D01*
X12248888Y-9874084D02*
X12258411Y-9864560D01*
X12277459Y-9855036D01*
X12325078Y-9855036D01*
X12344126Y-9864560D01*
X12353649Y-9874084D01*
X12363173Y-9893131D01*
X12363173Y-9912179D01*
X12353649Y-9940750D01*
X12239364Y-10055036D01*
X12363173Y-10055036D01*
X12534602Y-9855036D02*
X12496507Y-9855036D01*
X12477459Y-9864560D01*
X12467935Y-9874084D01*
X12448888Y-9902655D01*
X12439364Y-9940750D01*
X12439364Y-10016941D01*
X12448888Y-10035989D01*
X12458411Y-10045512D01*
X12477459Y-10055036D01*
X12515554Y-10055036D01*
X12534602Y-10045512D01*
X12544126Y-10035989D01*
X12553649Y-10016941D01*
X12553649Y-9969322D01*
X12544126Y-9950274D01*
X12534602Y-9940750D01*
X12515554Y-9931227D01*
X12477459Y-9931227D01*
X12458411Y-9940750D01*
X12448888Y-9950274D01*
X12439364Y-9969322D01*
X12677459Y-9855036D02*
X12696507Y-9855036D01*
X12715554Y-9864560D01*
X12725078Y-9874084D01*
X12734602Y-9893131D01*
X12744126Y-9931227D01*
X12744126Y-9978846D01*
X12734602Y-10016941D01*
X12725078Y-10035989D01*
X12715554Y-10045512D01*
X12696507Y-10055036D01*
X12677459Y-10055036D01*
X12658411Y-10045512D01*
X12648888Y-10035989D01*
X12639364Y-10016941D01*
X12629840Y-9978846D01*
X12629840Y-9931227D01*
X12639364Y-9893131D01*
X12648888Y-9874084D01*
X12658411Y-9864560D01*
X12677459Y-9855036D01*
X12820316Y-9855036D02*
X12820316Y-9893131D01*
X12896507Y-9855036D02*
X12896507Y-9893131D01*
X13191745Y-10131227D02*
X13182221Y-10121703D01*
X13163173Y-10093131D01*
X13153649Y-10074084D01*
X13144126Y-10045512D01*
X13134602Y-9997893D01*
X13134602Y-9959798D01*
X13144126Y-9912179D01*
X13153649Y-9883608D01*
X13163173Y-9864560D01*
X13182221Y-9835989D01*
X13191745Y-9826465D01*
X13258411Y-9874084D02*
X13267935Y-9864560D01*
X13286983Y-9855036D01*
X13334602Y-9855036D01*
X13353649Y-9864560D01*
X13363173Y-9874084D01*
X13372697Y-9893131D01*
X13372697Y-9912179D01*
X13363173Y-9940750D01*
X13248888Y-10055036D01*
X13372697Y-10055036D01*
X13610792Y-10055036D02*
X13610792Y-9855036D01*
X13696507Y-10055036D02*
X13696507Y-9950274D01*
X13686983Y-9931227D01*
X13667935Y-9921703D01*
X13639364Y-9921703D01*
X13620316Y-9931227D01*
X13610792Y-9940750D01*
X13820316Y-10055036D02*
X13801268Y-10045512D01*
X13791745Y-10035989D01*
X13782221Y-10016941D01*
X13782221Y-9959798D01*
X13791745Y-9940750D01*
X13801268Y-9931227D01*
X13820316Y-9921703D01*
X13848888Y-9921703D01*
X13867935Y-9931227D01*
X13877459Y-9940750D01*
X13886983Y-9959798D01*
X13886983Y-10016941D01*
X13877459Y-10035989D01*
X13867935Y-10045512D01*
X13848888Y-10055036D01*
X13820316Y-10055036D01*
X14001268Y-10055036D02*
X13982221Y-10045512D01*
X13972697Y-10026465D01*
X13972697Y-9855036D01*
X14153649Y-10045512D02*
X14134602Y-10055036D01*
X14096507Y-10055036D01*
X14077459Y-10045512D01*
X14067935Y-10026465D01*
X14067935Y-9950274D01*
X14077459Y-9931227D01*
X14096507Y-9921703D01*
X14134602Y-9921703D01*
X14153649Y-9931227D01*
X14163173Y-9950274D01*
X14163173Y-9969322D01*
X14067935Y-9988370D01*
X14239364Y-10045512D02*
X14258411Y-10055036D01*
X14296507Y-10055036D01*
X14315554Y-10045512D01*
X14325078Y-10026465D01*
X14325078Y-10016941D01*
X14315554Y-9997893D01*
X14296507Y-9988370D01*
X14267935Y-9988370D01*
X14248888Y-9978846D01*
X14239364Y-9959798D01*
X14239364Y-9950274D01*
X14248888Y-9931227D01*
X14267935Y-9921703D01*
X14296507Y-9921703D01*
X14315554Y-9931227D01*
X14391745Y-10131227D02*
X14401268Y-10121703D01*
X14420316Y-10093131D01*
X14429840Y-10074084D01*
X14439364Y-10045512D01*
X14448888Y-9997893D01*
X14448888Y-9959798D01*
X14439364Y-9912179D01*
X14429840Y-9883608D01*
X14420316Y-9864560D01*
X14401268Y-9835989D01*
X14391745Y-9826465D01*
X14753649Y-10131227D02*
X14744126Y-10121703D01*
X14725078Y-10093131D01*
X14715554Y-10074084D01*
X14706030Y-10045512D01*
X14696507Y-9997893D01*
X14696507Y-9959798D01*
X14706030Y-9912179D01*
X14715554Y-9883608D01*
X14725078Y-9864560D01*
X14744126Y-9835989D01*
X14753649Y-9826465D01*
X14829840Y-9921703D02*
X14829840Y-10055036D01*
X14829840Y-9940750D02*
X14839364Y-9931227D01*
X14858411Y-9921703D01*
X14886983Y-9921703D01*
X14906030Y-9931227D01*
X14915554Y-9950274D01*
X14915554Y-10055036D01*
X15039364Y-10055036D02*
X15020316Y-10045512D01*
X15010792Y-10035989D01*
X15001268Y-10016941D01*
X15001268Y-9959798D01*
X15010792Y-9940750D01*
X15020316Y-9931227D01*
X15039364Y-9921703D01*
X15067935Y-9921703D01*
X15086983Y-9931227D01*
X15096507Y-9940750D01*
X15106030Y-9959798D01*
X15106030Y-10016941D01*
X15096507Y-10035989D01*
X15086983Y-10045512D01*
X15067935Y-10055036D01*
X15039364Y-10055036D01*
X15163173Y-9921703D02*
X15239364Y-9921703D01*
X15191745Y-9855036D02*
X15191745Y-10026465D01*
X15201268Y-10045512D01*
X15220316Y-10055036D01*
X15239364Y-10055036D01*
X15458411Y-9921703D02*
X15458411Y-10121703D01*
X15458411Y-9931227D02*
X15477459Y-9921703D01*
X15515554Y-9921703D01*
X15534602Y-9931227D01*
X15544126Y-9940750D01*
X15553649Y-9959798D01*
X15553649Y-10016941D01*
X15544126Y-10035989D01*
X15534602Y-10045512D01*
X15515554Y-10055036D01*
X15477459Y-10055036D01*
X15458411Y-10045512D01*
X15667935Y-10055036D02*
X15648888Y-10045512D01*
X15639364Y-10026465D01*
X15639364Y-9855036D01*
X15829840Y-10055036D02*
X15829840Y-9950274D01*
X15820316Y-9931227D01*
X15801268Y-9921703D01*
X15763173Y-9921703D01*
X15744126Y-9931227D01*
X15829840Y-10045512D02*
X15810792Y-10055036D01*
X15763173Y-10055036D01*
X15744126Y-10045512D01*
X15734602Y-10026465D01*
X15734602Y-10007417D01*
X15744126Y-9988370D01*
X15763173Y-9978846D01*
X15810792Y-9978846D01*
X15829840Y-9969322D01*
X15896507Y-9921703D02*
X15972697Y-9921703D01*
X15925078Y-9855036D02*
X15925078Y-10026465D01*
X15934602Y-10045512D01*
X15953649Y-10055036D01*
X15972697Y-10055036D01*
X16115554Y-10045512D02*
X16096507Y-10055036D01*
X16058411Y-10055036D01*
X16039364Y-10045512D01*
X16029840Y-10026465D01*
X16029840Y-9950274D01*
X16039364Y-9931227D01*
X16058411Y-9921703D01*
X16096507Y-9921703D01*
X16115554Y-9931227D01*
X16125078Y-9950274D01*
X16125078Y-9969322D01*
X16029840Y-9988370D01*
X16296507Y-10055036D02*
X16296507Y-9855036D01*
X16296507Y-10045512D02*
X16277459Y-10055036D01*
X16239364Y-10055036D01*
X16220316Y-10045512D01*
X16210792Y-10035989D01*
X16201268Y-10016941D01*
X16201268Y-9959798D01*
X16210792Y-9940750D01*
X16220316Y-9931227D01*
X16239364Y-9921703D01*
X16277459Y-9921703D01*
X16296507Y-9931227D01*
X16372697Y-10131227D02*
X16382221Y-10121703D01*
X16401268Y-10093131D01*
X16410792Y-10074084D01*
X16420316Y-10045512D01*
X16429840Y-9997893D01*
X16429840Y-9959798D01*
X16420316Y-9912179D01*
X16410792Y-9883608D01*
X16401268Y-9864560D01*
X16382221Y-9835989D01*
X16372697Y-9826465D01*
M02*
