M48
; DRILL file {KiCad (6.0.6)} date Mon Aug 29 16:13:37 2022
; FORMAT={-:-/ absolute / metric / decimal}
; #@! TF.CreationDate,2022-08-29T16:13:37+02:00
; #@! TF.GenerationSoftware,Kicad,Pcbnew,(6.0.6)
; #@! TF.FileFunction,Plated,1,2,PTH
FMAT,2
METRIC
; #@! TA.AperFunction,Plated,PTH,ViaDrill
T1C0.400
; #@! TA.AperFunction,Plated,PTH,ComponentDrill
T2C1.000
%
G90
G05
T1
X98.908Y-76.556
X102.953Y-45.466
X104.494Y-71.628
X105.156Y-41.402
X106.731Y-74.27
X106.985Y-45.517
X106.985Y-56.896
X107.474Y-79.724
X107.493Y-48.006
X107.493Y-58.724
X108.864Y-62.586
X109.525Y-51.968
X110.084Y-45.517
X110.084Y-47.803
X110.338Y-62.332
X110.795Y-77.677
X111.76Y-68.224
X111.76Y-73.101
X111.862Y-62.078
X112.166Y-64.77
X112.725Y-47.803
X113.218Y-45.517
X113.538Y-53.442
X113.97Y-59.563
X114.452Y-73.101
X114.452Y-80.518
X114.554Y-50.19
X114.554Y-68.224
X115.418Y-41.199
X115.562Y-53.442
X116.383Y-48.666
X117.196Y-45.466
X117.856Y-58.064
X117.927Y-79.736
X118.066Y-59.785
X118.262Y-81.636
X118.415Y-47.549
X118.618Y-51.105
X119.482Y-76.81
X119.532Y-45.161
X120.244Y-69.952
X120.55Y-65.642
X120.829Y-55.66
X121.056Y-77.652
X121.32Y-72.838
X123.393Y-79.299
X123.495Y-43.79
X123.495Y-74.574
X123.546Y-72.746
T2
X100.29Y-51.344
X100.29Y-53.884
X100.29Y-56.424
X100.29Y-58.964
X100.29Y-61.504
X100.29Y-64.044
X100.29Y-66.584
X100.29Y-69.124
X102.83Y-51.344
X102.83Y-53.884
X102.83Y-56.424
X102.83Y-58.964
X102.83Y-61.504
X102.83Y-64.044
X102.83Y-66.584
X102.83Y-69.124
X103.2Y-83.539
X103.2Y-91.159
X103.274Y-31.599
X103.274Y-39.219
X105.74Y-83.539
X105.814Y-39.219
X108.28Y-83.539
X108.354Y-39.219
X110.82Y-83.539
X110.82Y-91.159
X110.894Y-31.599
X110.894Y-39.219
X113.369Y-83.539
X113.369Y-91.159
X113.434Y-31.599
X113.434Y-39.219
X115.909Y-83.539
X115.974Y-39.219
X118.449Y-83.539
X118.514Y-39.219
X120.989Y-83.539
X120.989Y-91.159
X121.054Y-31.599
X121.054Y-39.219
X125.349Y-42.621
X125.349Y-45.161
X125.349Y-47.701
X125.349Y-50.241
X125.349Y-52.781
X125.349Y-55.321
X125.349Y-57.861
X125.349Y-60.401
X125.349Y-62.941
X125.349Y-65.481
X125.349Y-68.021
X125.349Y-70.561
X125.349Y-73.101
X125.349Y-75.641
X125.349Y-78.181
X125.349Y-80.721
X132.969Y-42.621
X132.969Y-50.241
X132.969Y-52.781
X132.969Y-60.401
X132.969Y-62.941
X132.969Y-70.561
X132.969Y-73.101
X132.969Y-80.721
T0
M30
