G04 #@! TF.GenerationSoftware,KiCad,Pcbnew,(6.0.6)*
G04 #@! TF.CreationDate,2022-08-29T16:13:27+02:00*
G04 #@! TF.ProjectId,adc-fiber-interface-board-six-channels,6164632d-6669-4626-9572-2d696e746572,rev?*
G04 #@! TF.SameCoordinates,Original*
G04 #@! TF.FileFunction,Soldermask,Top*
G04 #@! TF.FilePolarity,Negative*
%FSLAX46Y46*%
G04 Gerber Fmt 4.6, Leading zero omitted, Abs format (unit mm)*
G04 Created by KiCad (PCBNEW (6.0.6)) date 2022-08-29 16:13:27*
%MOMM*%
%LPD*%
G01*
G04 APERTURE LIST*
G04 Aperture macros list*
%AMRoundRect*
0 Rectangle with rounded corners*
0 $1 Rounding radius*
0 $2 $3 $4 $5 $6 $7 $8 $9 X,Y pos of 4 corners*
0 Add a 4 corners polygon primitive as box body*
4,1,4,$2,$3,$4,$5,$6,$7,$8,$9,$2,$3,0*
0 Add four circle primitives for the rounded corners*
1,1,$1+$1,$2,$3*
1,1,$1+$1,$4,$5*
1,1,$1+$1,$6,$7*
1,1,$1+$1,$8,$9*
0 Add four rect primitives between the rounded corners*
20,1,$1+$1,$2,$3,$4,$5,0*
20,1,$1+$1,$4,$5,$6,$7,0*
20,1,$1+$1,$6,$7,$8,$9,0*
20,1,$1+$1,$8,$9,$2,$3,0*%
G04 Aperture macros list end*
%ADD10C,1.515000*%
%ADD11RoundRect,0.250000X-0.337500X-0.475000X0.337500X-0.475000X0.337500X0.475000X-0.337500X0.475000X0*%
%ADD12RoundRect,0.250000X0.350000X0.450000X-0.350000X0.450000X-0.350000X-0.450000X0.350000X-0.450000X0*%
%ADD13RoundRect,0.100000X-0.637500X-0.100000X0.637500X-0.100000X0.637500X0.100000X-0.637500X0.100000X0*%
%ADD14R,1.700000X1.700000*%
%ADD15O,1.700000X1.700000*%
%ADD16C,3.200000*%
%ADD17RoundRect,0.250000X-0.325000X-0.450000X0.325000X-0.450000X0.325000X0.450000X-0.325000X0.450000X0*%
%ADD18RoundRect,0.250000X0.450000X-0.350000X0.450000X0.350000X-0.450000X0.350000X-0.450000X-0.350000X0*%
%ADD19RoundRect,0.250000X-0.450000X0.350000X-0.450000X-0.350000X0.450000X-0.350000X0.450000X0.350000X0*%
G04 APERTURE END LIST*
D10*
X125349000Y-62941200D03*
X125349000Y-65481200D03*
X125349000Y-68021200D03*
X125349000Y-70561200D03*
X132969000Y-70561200D03*
X132969000Y-62941200D03*
D11*
X113487200Y-53441600D03*
X115562200Y-53441600D03*
D12*
X104952800Y-43408600D03*
X102952800Y-43408600D03*
X121481600Y-43129200D03*
X119481600Y-43129200D03*
D10*
X125349000Y-52781200D03*
X125349000Y-55321200D03*
X125349000Y-57861200D03*
X125349000Y-60401200D03*
X132969000Y-60401200D03*
X132969000Y-52781200D03*
D13*
X109913500Y-55088600D03*
X109913500Y-55738600D03*
X109913500Y-56388600D03*
X109913500Y-57038600D03*
X109913500Y-57688600D03*
X109913500Y-58338600D03*
X109913500Y-58988600D03*
X109913500Y-59638600D03*
X109913500Y-60288600D03*
X109913500Y-60938600D03*
X115638500Y-60938600D03*
X115638500Y-60288600D03*
X115638500Y-59638600D03*
X115638500Y-58988600D03*
X115638500Y-58338600D03*
X115638500Y-57688600D03*
X115638500Y-57038600D03*
X115638500Y-56388600D03*
X115638500Y-55738600D03*
X115638500Y-55088600D03*
D10*
X103274400Y-39219000D03*
X105814400Y-39219000D03*
X108354400Y-39219000D03*
X110894400Y-39219000D03*
X110894400Y-31599000D03*
X103274400Y-31599000D03*
D12*
X121497600Y-45161200D03*
X119497600Y-45161200D03*
D10*
X125349000Y-73101200D03*
X125349000Y-75641200D03*
X125349000Y-78181200D03*
X125349000Y-80721200D03*
X132969000Y-80721200D03*
X132969000Y-73101200D03*
D14*
X102830400Y-69123800D03*
D15*
X100290400Y-69123800D03*
X102830400Y-66583800D03*
X100290400Y-66583800D03*
X102830400Y-64043800D03*
X100290400Y-64043800D03*
X102830400Y-61503800D03*
X100290400Y-61503800D03*
X102830400Y-58963800D03*
X100290400Y-58963800D03*
X102830400Y-56423800D03*
X100290400Y-56423800D03*
X102830400Y-53883800D03*
X100290400Y-53883800D03*
X102830400Y-51343800D03*
X100290400Y-51343800D03*
D10*
X120988800Y-83539200D03*
X118448800Y-83539200D03*
X115908800Y-83539200D03*
X113368800Y-83539200D03*
X113368800Y-91159200D03*
X120988800Y-91159200D03*
D16*
X130962400Y-33578800D03*
D12*
X115218300Y-43434000D03*
X113218300Y-43434000D03*
D17*
X98847800Y-76606400D03*
X100897800Y-76606400D03*
D18*
X121031000Y-79663800D03*
X121031000Y-77663800D03*
D12*
X115218300Y-45516800D03*
X113218300Y-45516800D03*
X104952800Y-45466000D03*
X102952800Y-45466000D03*
D19*
X120829200Y-55650600D03*
X120829200Y-57650600D03*
D10*
X125349000Y-42621200D03*
X125349000Y-45161200D03*
X125349000Y-47701200D03*
X125349000Y-50241200D03*
X132969000Y-50241200D03*
X132969000Y-42621200D03*
D19*
X117867500Y-77724000D03*
X117867500Y-79724000D03*
D16*
X130987800Y-89204800D03*
D18*
X121361200Y-74837800D03*
X121361200Y-72837800D03*
X110794800Y-79689200D03*
X110794800Y-77689200D03*
D19*
X120549800Y-65642200D03*
X120549800Y-67642200D03*
D10*
X113434400Y-39219000D03*
X115974400Y-39219000D03*
X118514400Y-39219000D03*
X121054400Y-39219000D03*
X121054400Y-31599000D03*
X113434400Y-31599000D03*
X110820200Y-83539200D03*
X108280200Y-83539200D03*
X105740200Y-83539200D03*
X103200200Y-83539200D03*
X103200200Y-91159200D03*
X110820200Y-91159200D03*
D19*
X107492800Y-77724000D03*
X107492800Y-79724000D03*
D18*
X119253000Y-74837800D03*
X119253000Y-72837800D03*
M02*
