%FSLAX45Y45*%
G04 Gerber Fmt 4.5, Leading zero omitted, Abs format (unit mm)*
G04 Created by KiCad (PCBNEW (6.0.6)) date 2022-08-29 16:13:38*
%MOMM*%
%LPD*%
G01*
G04 APERTURE LIST*
%TA.AperFunction,Profile*%
%ADD10C,0.100000*%
%TD*%
%ADD11C,0.200000*%
%ADD12C,0.040000*%
%ADD13C,0.100000*%
G04 APERTURE END LIST*
D10*
X13500000Y-2953440D02*
X9624840Y-2953440D01*
X9624840Y-2953440D02*
X9624840Y-9319560D01*
X9624840Y-9319560D02*
X13500000Y-9319560D01*
X13500000Y-9319560D02*
X13500000Y-2953440D01*
D11*
D12*
X9870760Y-7635560D02*
X9910760Y-7675560D01*
X9910760Y-7635560D02*
X9870760Y-7675560D01*
X10275280Y-4526600D02*
X10315280Y-4566600D01*
X10315280Y-4526600D02*
X10275280Y-4566600D01*
X10429370Y-7142800D02*
X10469370Y-7182800D01*
X10469370Y-7142800D02*
X10429370Y-7182800D01*
X10495600Y-4120200D02*
X10535600Y-4160200D01*
X10535600Y-4120200D02*
X10495600Y-4160200D01*
X10653080Y-7406960D02*
X10693080Y-7446960D01*
X10693080Y-7406960D02*
X10653080Y-7446960D01*
X10678480Y-4531680D02*
X10718480Y-4571680D01*
X10718480Y-4531680D02*
X10678480Y-4571680D01*
X10678480Y-5669600D02*
X10718480Y-5709600D01*
X10718480Y-5669600D02*
X10678480Y-5709600D01*
X10727400Y-7952400D02*
X10767400Y-7992400D01*
X10767400Y-7952400D02*
X10727400Y-7992400D01*
X10729280Y-4780600D02*
X10769280Y-4820600D01*
X10769280Y-4780600D02*
X10729280Y-4820600D01*
X10729280Y-5852430D02*
X10769280Y-5892430D01*
X10769280Y-5852430D02*
X10729280Y-5892430D01*
X10866440Y-6238560D02*
X10906440Y-6278560D01*
X10906440Y-6238560D02*
X10866440Y-6278560D01*
X10932480Y-5176840D02*
X10972480Y-5216840D01*
X10972480Y-5176840D02*
X10932480Y-5216840D01*
X10988360Y-4531680D02*
X11028360Y-4571680D01*
X11028360Y-4531680D02*
X10988360Y-4571680D01*
X10988360Y-4760280D02*
X11028360Y-4800280D01*
X11028360Y-4760280D02*
X10988360Y-4800280D01*
X11013760Y-6213160D02*
X11053760Y-6253160D01*
X11053760Y-6213160D02*
X11013760Y-6253160D01*
X11059480Y-7747710D02*
X11099480Y-7787710D01*
X11099480Y-7747710D02*
X11059480Y-7787710D01*
X11156000Y-6802440D02*
X11196000Y-6842440D01*
X11196000Y-6802440D02*
X11156000Y-6842440D01*
X11156000Y-7290120D02*
X11196000Y-7330120D01*
X11196000Y-7290120D02*
X11156000Y-7330120D01*
X11166160Y-6187760D02*
X11206160Y-6227760D01*
X11206160Y-6187760D02*
X11166160Y-6227760D01*
X11196640Y-6457000D02*
X11236640Y-6497000D01*
X11236640Y-6457000D02*
X11196640Y-6497000D01*
X11252520Y-4760280D02*
X11292520Y-4800280D01*
X11292520Y-4760280D02*
X11252520Y-4800280D01*
X11301830Y-4531680D02*
X11341830Y-4571680D01*
X11341830Y-4531680D02*
X11301830Y-4571680D01*
X11333800Y-5324160D02*
X11373800Y-5364160D01*
X11373800Y-5324160D02*
X11333800Y-5364160D01*
X11376980Y-5936300D02*
X11416980Y-5976300D01*
X11416980Y-5936300D02*
X11376980Y-5976300D01*
X11425240Y-7290120D02*
X11465240Y-7330120D01*
X11465240Y-7290120D02*
X11425240Y-7330120D01*
X11425240Y-8031800D02*
X11465240Y-8071800D01*
X11465240Y-8031800D02*
X11425240Y-8071800D01*
X11435400Y-4999040D02*
X11475400Y-5039040D01*
X11475400Y-4999040D02*
X11435400Y-5039040D01*
X11435400Y-6802440D02*
X11475400Y-6842440D01*
X11475400Y-6802440D02*
X11435400Y-6842440D01*
X11521760Y-4099880D02*
X11561760Y-4139880D01*
X11561760Y-4099880D02*
X11521760Y-4139880D01*
X11536220Y-5324160D02*
X11576220Y-5364160D01*
X11576220Y-5324160D02*
X11536220Y-5364160D01*
X11618280Y-4846640D02*
X11658280Y-4886640D01*
X11658280Y-4846640D02*
X11618280Y-4886640D01*
X11699560Y-4526600D02*
X11739560Y-4566600D01*
X11739560Y-4526600D02*
X11699560Y-4566600D01*
X11765600Y-5786440D02*
X11805600Y-5826440D01*
X11805600Y-5786440D02*
X11765600Y-5826440D01*
X11772670Y-7953610D02*
X11812670Y-7993610D01*
X11812670Y-7953610D02*
X11772670Y-7993610D01*
X11786610Y-5958470D02*
X11826610Y-5998470D01*
X11826610Y-5958470D02*
X11786610Y-5998470D01*
X11806240Y-8143560D02*
X11846240Y-8183560D01*
X11846240Y-8143560D02*
X11806240Y-8183560D01*
X11821480Y-4734880D02*
X11861480Y-4774880D01*
X11861480Y-4734880D02*
X11821480Y-4774880D01*
X11841800Y-5090480D02*
X11881800Y-5130480D01*
X11881800Y-5090480D02*
X11841800Y-5130480D01*
X11928160Y-7660960D02*
X11968160Y-7700960D01*
X11968160Y-7660960D02*
X11928160Y-7700960D01*
X11933240Y-4496120D02*
X11973240Y-4536120D01*
X11973240Y-4496120D02*
X11933240Y-4536120D01*
X12004360Y-6975160D02*
X12044360Y-7015160D01*
X12044360Y-6975160D02*
X12004360Y-7015160D01*
X12034980Y-6544220D02*
X12074980Y-6584220D01*
X12074980Y-6544220D02*
X12034980Y-6584220D01*
X12062920Y-5546000D02*
X12102920Y-5586000D01*
X12102920Y-5546000D02*
X12062920Y-5586000D01*
X12085640Y-7745170D02*
X12125640Y-7785170D01*
X12125640Y-7745170D02*
X12085640Y-7785170D01*
X12111980Y-7263780D02*
X12151980Y-7303780D01*
X12151980Y-7263780D02*
X12111980Y-7303780D01*
X12319320Y-7909880D02*
X12359320Y-7949880D01*
X12359320Y-7909880D02*
X12319320Y-7949880D01*
X12329480Y-4358960D02*
X12369480Y-4398960D01*
X12369480Y-4358960D02*
X12329480Y-4398960D01*
X12329480Y-7437440D02*
X12369480Y-7477440D01*
X12369480Y-7437440D02*
X12329480Y-7477440D01*
X12334560Y-7254560D02*
X12374560Y-7294560D01*
X12374560Y-7254560D02*
X12334560Y-7294560D01*
D13*
X10079040Y-5134380D02*
G75*
G03*
X10079040Y-5134380I-50000J0D01*
G01*
X10079040Y-5388380D02*
G75*
G03*
X10079040Y-5388380I-50000J0D01*
G01*
X10079040Y-5642380D02*
G75*
G03*
X10079040Y-5642380I-50000J0D01*
G01*
X10079040Y-5896380D02*
G75*
G03*
X10079040Y-5896380I-50000J0D01*
G01*
X10079040Y-6150380D02*
G75*
G03*
X10079040Y-6150380I-50000J0D01*
G01*
X10079040Y-6404380D02*
G75*
G03*
X10079040Y-6404380I-50000J0D01*
G01*
X10079040Y-6658380D02*
G75*
G03*
X10079040Y-6658380I-50000J0D01*
G01*
X10079040Y-6912380D02*
G75*
G03*
X10079040Y-6912380I-50000J0D01*
G01*
X10333040Y-5134380D02*
G75*
G03*
X10333040Y-5134380I-50000J0D01*
G01*
X10333040Y-5388380D02*
G75*
G03*
X10333040Y-5388380I-50000J0D01*
G01*
X10333040Y-5642380D02*
G75*
G03*
X10333040Y-5642380I-50000J0D01*
G01*
X10333040Y-5896380D02*
G75*
G03*
X10333040Y-5896380I-50000J0D01*
G01*
X10333040Y-6150380D02*
G75*
G03*
X10333040Y-6150380I-50000J0D01*
G01*
X10333040Y-6404380D02*
G75*
G03*
X10333040Y-6404380I-50000J0D01*
G01*
X10333040Y-6658380D02*
G75*
G03*
X10333040Y-6658380I-50000J0D01*
G01*
X10333040Y-6912380D02*
G75*
G03*
X10333040Y-6912380I-50000J0D01*
G01*
X10370020Y-8353920D02*
G75*
G03*
X10370020Y-8353920I-50000J0D01*
G01*
X10370020Y-9115920D02*
G75*
G03*
X10370020Y-9115920I-50000J0D01*
G01*
X10377440Y-3159900D02*
G75*
G03*
X10377440Y-3159900I-50000J0D01*
G01*
X10377440Y-3921900D02*
G75*
G03*
X10377440Y-3921900I-50000J0D01*
G01*
X10624020Y-8353920D02*
G75*
G03*
X10624020Y-8353920I-50000J0D01*
G01*
X10631440Y-3921900D02*
G75*
G03*
X10631440Y-3921900I-50000J0D01*
G01*
X10878020Y-8353920D02*
G75*
G03*
X10878020Y-8353920I-50000J0D01*
G01*
X10885440Y-3921900D02*
G75*
G03*
X10885440Y-3921900I-50000J0D01*
G01*
X11132020Y-8353920D02*
G75*
G03*
X11132020Y-8353920I-50000J0D01*
G01*
X11132020Y-9115920D02*
G75*
G03*
X11132020Y-9115920I-50000J0D01*
G01*
X11139440Y-3159900D02*
G75*
G03*
X11139440Y-3159900I-50000J0D01*
G01*
X11139440Y-3921900D02*
G75*
G03*
X11139440Y-3921900I-50000J0D01*
G01*
X11386880Y-8353920D02*
G75*
G03*
X11386880Y-8353920I-50000J0D01*
G01*
X11386880Y-9115920D02*
G75*
G03*
X11386880Y-9115920I-50000J0D01*
G01*
X11393440Y-3159900D02*
G75*
G03*
X11393440Y-3159900I-50000J0D01*
G01*
X11393440Y-3921900D02*
G75*
G03*
X11393440Y-3921900I-50000J0D01*
G01*
X11640880Y-8353920D02*
G75*
G03*
X11640880Y-8353920I-50000J0D01*
G01*
X11647440Y-3921900D02*
G75*
G03*
X11647440Y-3921900I-50000J0D01*
G01*
X11894880Y-8353920D02*
G75*
G03*
X11894880Y-8353920I-50000J0D01*
G01*
X11901440Y-3921900D02*
G75*
G03*
X11901440Y-3921900I-50000J0D01*
G01*
X12148880Y-8353920D02*
G75*
G03*
X12148880Y-8353920I-50000J0D01*
G01*
X12148880Y-9115920D02*
G75*
G03*
X12148880Y-9115920I-50000J0D01*
G01*
X12155440Y-3159900D02*
G75*
G03*
X12155440Y-3159900I-50000J0D01*
G01*
X12155440Y-3921900D02*
G75*
G03*
X12155440Y-3921900I-50000J0D01*
G01*
X12584900Y-4262120D02*
G75*
G03*
X12584900Y-4262120I-50000J0D01*
G01*
X12584900Y-4516120D02*
G75*
G03*
X12584900Y-4516120I-50000J0D01*
G01*
X12584900Y-4770120D02*
G75*
G03*
X12584900Y-4770120I-50000J0D01*
G01*
X12584900Y-5024120D02*
G75*
G03*
X12584900Y-5024120I-50000J0D01*
G01*
X12584900Y-5278120D02*
G75*
G03*
X12584900Y-5278120I-50000J0D01*
G01*
X12584900Y-5532120D02*
G75*
G03*
X12584900Y-5532120I-50000J0D01*
G01*
X12584900Y-5786120D02*
G75*
G03*
X12584900Y-5786120I-50000J0D01*
G01*
X12584900Y-6040120D02*
G75*
G03*
X12584900Y-6040120I-50000J0D01*
G01*
X12584900Y-6294120D02*
G75*
G03*
X12584900Y-6294120I-50000J0D01*
G01*
X12584900Y-6548120D02*
G75*
G03*
X12584900Y-6548120I-50000J0D01*
G01*
X12584900Y-6802120D02*
G75*
G03*
X12584900Y-6802120I-50000J0D01*
G01*
X12584900Y-7056120D02*
G75*
G03*
X12584900Y-7056120I-50000J0D01*
G01*
X12584900Y-7310120D02*
G75*
G03*
X12584900Y-7310120I-50000J0D01*
G01*
X12584900Y-7564120D02*
G75*
G03*
X12584900Y-7564120I-50000J0D01*
G01*
X12584900Y-7818120D02*
G75*
G03*
X12584900Y-7818120I-50000J0D01*
G01*
X12584900Y-8072120D02*
G75*
G03*
X12584900Y-8072120I-50000J0D01*
G01*
X13346900Y-4262120D02*
G75*
G03*
X13346900Y-4262120I-50000J0D01*
G01*
X13346900Y-5024120D02*
G75*
G03*
X13346900Y-5024120I-50000J0D01*
G01*
X13346900Y-5278120D02*
G75*
G03*
X13346900Y-5278120I-50000J0D01*
G01*
X13346900Y-6040120D02*
G75*
G03*
X13346900Y-6040120I-50000J0D01*
G01*
X13346900Y-6294120D02*
G75*
G03*
X13346900Y-6294120I-50000J0D01*
G01*
X13346900Y-7056120D02*
G75*
G03*
X13346900Y-7056120I-50000J0D01*
G01*
X13346900Y-7310120D02*
G75*
G03*
X13346900Y-7310120I-50000J0D01*
G01*
X13346900Y-8072120D02*
G75*
G03*
X13346900Y-8072120I-50000J0D01*
G01*
D11*
X9877459Y-9635036D02*
X9877459Y-9435036D01*
X9925078Y-9435036D01*
X9953650Y-9444560D01*
X9972697Y-9463608D01*
X9982221Y-9482655D01*
X9991745Y-9520750D01*
X9991745Y-9549322D01*
X9982221Y-9587417D01*
X9972697Y-9606465D01*
X9953650Y-9625512D01*
X9925078Y-9635036D01*
X9877459Y-9635036D01*
X10077459Y-9635036D02*
X10077459Y-9501703D01*
X10077459Y-9539798D02*
X10086983Y-9520750D01*
X10096507Y-9511227D01*
X10115554Y-9501703D01*
X10134602Y-9501703D01*
X10201269Y-9635036D02*
X10201269Y-9501703D01*
X10201269Y-9435036D02*
X10191745Y-9444560D01*
X10201269Y-9454084D01*
X10210792Y-9444560D01*
X10201269Y-9435036D01*
X10201269Y-9454084D01*
X10325078Y-9635036D02*
X10306030Y-9625512D01*
X10296507Y-9606465D01*
X10296507Y-9435036D01*
X10429840Y-9635036D02*
X10410792Y-9625512D01*
X10401269Y-9606465D01*
X10401269Y-9435036D01*
X10658411Y-9635036D02*
X10658411Y-9435036D01*
X10725078Y-9577893D01*
X10791745Y-9435036D01*
X10791745Y-9635036D01*
X10972697Y-9635036D02*
X10972697Y-9530274D01*
X10963173Y-9511227D01*
X10944126Y-9501703D01*
X10906030Y-9501703D01*
X10886983Y-9511227D01*
X10972697Y-9625512D02*
X10953650Y-9635036D01*
X10906030Y-9635036D01*
X10886983Y-9625512D01*
X10877459Y-9606465D01*
X10877459Y-9587417D01*
X10886983Y-9568370D01*
X10906030Y-9558846D01*
X10953650Y-9558846D01*
X10972697Y-9549322D01*
X11067935Y-9501703D02*
X11067935Y-9701703D01*
X11067935Y-9511227D02*
X11086983Y-9501703D01*
X11125078Y-9501703D01*
X11144126Y-9511227D01*
X11153650Y-9520750D01*
X11163173Y-9539798D01*
X11163173Y-9596941D01*
X11153650Y-9615989D01*
X11144126Y-9625512D01*
X11125078Y-9635036D01*
X11086983Y-9635036D01*
X11067935Y-9625512D01*
X11248888Y-9615989D02*
X11258411Y-9625512D01*
X11248888Y-9635036D01*
X11239364Y-9625512D01*
X11248888Y-9615989D01*
X11248888Y-9635036D01*
X11248888Y-9511227D02*
X11258411Y-9520750D01*
X11248888Y-9530274D01*
X11239364Y-9520750D01*
X11248888Y-9511227D01*
X11248888Y-9530274D01*
D12*
X9579840Y-9944560D02*
X9619840Y-9984560D01*
X9619840Y-9944560D02*
X9579840Y-9984560D01*
D11*
X9915554Y-9855036D02*
X9934602Y-9855036D01*
X9953650Y-9864560D01*
X9963173Y-9874084D01*
X9972697Y-9893131D01*
X9982221Y-9931227D01*
X9982221Y-9978846D01*
X9972697Y-10016941D01*
X9963173Y-10035989D01*
X9953650Y-10045512D01*
X9934602Y-10055036D01*
X9915554Y-10055036D01*
X9896507Y-10045512D01*
X9886983Y-10035989D01*
X9877459Y-10016941D01*
X9867935Y-9978846D01*
X9867935Y-9931227D01*
X9877459Y-9893131D01*
X9886983Y-9874084D01*
X9896507Y-9864560D01*
X9915554Y-9855036D01*
X10067935Y-10035989D02*
X10077459Y-10045512D01*
X10067935Y-10055036D01*
X10058411Y-10045512D01*
X10067935Y-10035989D01*
X10067935Y-10055036D01*
X10248888Y-9921703D02*
X10248888Y-10055036D01*
X10201269Y-9845512D02*
X10153650Y-9988370D01*
X10277459Y-9988370D01*
X10391745Y-9855036D02*
X10410792Y-9855036D01*
X10429840Y-9864560D01*
X10439364Y-9874084D01*
X10448888Y-9893131D01*
X10458411Y-9931227D01*
X10458411Y-9978846D01*
X10448888Y-10016941D01*
X10439364Y-10035989D01*
X10429840Y-10045512D01*
X10410792Y-10055036D01*
X10391745Y-10055036D01*
X10372697Y-10045512D01*
X10363173Y-10035989D01*
X10353650Y-10016941D01*
X10344126Y-9978846D01*
X10344126Y-9931227D01*
X10353650Y-9893131D01*
X10363173Y-9874084D01*
X10372697Y-9864560D01*
X10391745Y-9855036D01*
X10582221Y-9855036D02*
X10601269Y-9855036D01*
X10620316Y-9864560D01*
X10629840Y-9874084D01*
X10639364Y-9893131D01*
X10648888Y-9931227D01*
X10648888Y-9978846D01*
X10639364Y-10016941D01*
X10629840Y-10035989D01*
X10620316Y-10045512D01*
X10601269Y-10055036D01*
X10582221Y-10055036D01*
X10563173Y-10045512D01*
X10553650Y-10035989D01*
X10544126Y-10016941D01*
X10534602Y-9978846D01*
X10534602Y-9931227D01*
X10544126Y-9893131D01*
X10553650Y-9874084D01*
X10563173Y-9864560D01*
X10582221Y-9855036D01*
X10734602Y-10055036D02*
X10734602Y-9921703D01*
X10734602Y-9940750D02*
X10744126Y-9931227D01*
X10763173Y-9921703D01*
X10791745Y-9921703D01*
X10810792Y-9931227D01*
X10820316Y-9950274D01*
X10820316Y-10055036D01*
X10820316Y-9950274D02*
X10829840Y-9931227D01*
X10848888Y-9921703D01*
X10877459Y-9921703D01*
X10896507Y-9931227D01*
X10906030Y-9950274D01*
X10906030Y-10055036D01*
X11001269Y-10055036D02*
X11001269Y-9921703D01*
X11001269Y-9940750D02*
X11010792Y-9931227D01*
X11029840Y-9921703D01*
X11058411Y-9921703D01*
X11077459Y-9931227D01*
X11086983Y-9950274D01*
X11086983Y-10055036D01*
X11086983Y-9950274D02*
X11096507Y-9931227D01*
X11115554Y-9921703D01*
X11144126Y-9921703D01*
X11163173Y-9931227D01*
X11172697Y-9950274D01*
X11172697Y-10055036D01*
X11563173Y-9845512D02*
X11391745Y-10102655D01*
X11820316Y-9855036D02*
X11839364Y-9855036D01*
X11858411Y-9864560D01*
X11867935Y-9874084D01*
X11877459Y-9893131D01*
X11886983Y-9931227D01*
X11886983Y-9978846D01*
X11877459Y-10016941D01*
X11867935Y-10035989D01*
X11858411Y-10045512D01*
X11839364Y-10055036D01*
X11820316Y-10055036D01*
X11801268Y-10045512D01*
X11791745Y-10035989D01*
X11782221Y-10016941D01*
X11772697Y-9978846D01*
X11772697Y-9931227D01*
X11782221Y-9893131D01*
X11791745Y-9874084D01*
X11801268Y-9864560D01*
X11820316Y-9855036D01*
X11972697Y-10035989D02*
X11982221Y-10045512D01*
X11972697Y-10055036D01*
X11963173Y-10045512D01*
X11972697Y-10035989D01*
X11972697Y-10055036D01*
X12106030Y-9855036D02*
X12125078Y-9855036D01*
X12144126Y-9864560D01*
X12153649Y-9874084D01*
X12163173Y-9893131D01*
X12172697Y-9931227D01*
X12172697Y-9978846D01*
X12163173Y-10016941D01*
X12153649Y-10035989D01*
X12144126Y-10045512D01*
X12125078Y-10055036D01*
X12106030Y-10055036D01*
X12086983Y-10045512D01*
X12077459Y-10035989D01*
X12067935Y-10016941D01*
X12058411Y-9978846D01*
X12058411Y-9931227D01*
X12067935Y-9893131D01*
X12077459Y-9874084D01*
X12086983Y-9864560D01*
X12106030Y-9855036D01*
X12363173Y-10055036D02*
X12248888Y-10055036D01*
X12306030Y-10055036D02*
X12306030Y-9855036D01*
X12286983Y-9883608D01*
X12267935Y-9902655D01*
X12248888Y-9912179D01*
X12544126Y-9855036D02*
X12448888Y-9855036D01*
X12439364Y-9950274D01*
X12448888Y-9940750D01*
X12467935Y-9931227D01*
X12515554Y-9931227D01*
X12534602Y-9940750D01*
X12544126Y-9950274D01*
X12553649Y-9969322D01*
X12553649Y-10016941D01*
X12544126Y-10035989D01*
X12534602Y-10045512D01*
X12515554Y-10055036D01*
X12467935Y-10055036D01*
X12448888Y-10045512D01*
X12439364Y-10035989D01*
X12620316Y-9855036D02*
X12753649Y-9855036D01*
X12667935Y-10055036D01*
X12820316Y-9855036D02*
X12820316Y-9893131D01*
X12896507Y-9855036D02*
X12896507Y-9893131D01*
X13191745Y-10131227D02*
X13182221Y-10121703D01*
X13163173Y-10093131D01*
X13153649Y-10074084D01*
X13144126Y-10045512D01*
X13134602Y-9997893D01*
X13134602Y-9959798D01*
X13144126Y-9912179D01*
X13153649Y-9883608D01*
X13163173Y-9864560D01*
X13182221Y-9835989D01*
X13191745Y-9826465D01*
X13353649Y-9921703D02*
X13353649Y-10055036D01*
X13306030Y-9845512D02*
X13258411Y-9988370D01*
X13382221Y-9988370D01*
X13467935Y-10055036D02*
X13506030Y-10055036D01*
X13525078Y-10045512D01*
X13534602Y-10035989D01*
X13553649Y-10007417D01*
X13563173Y-9969322D01*
X13563173Y-9893131D01*
X13553649Y-9874084D01*
X13544126Y-9864560D01*
X13525078Y-9855036D01*
X13486983Y-9855036D01*
X13467935Y-9864560D01*
X13458411Y-9874084D01*
X13448888Y-9893131D01*
X13448888Y-9940750D01*
X13458411Y-9959798D01*
X13467935Y-9969322D01*
X13486983Y-9978846D01*
X13525078Y-9978846D01*
X13544126Y-9969322D01*
X13553649Y-9959798D01*
X13563173Y-9940750D01*
X13801268Y-10055036D02*
X13801268Y-9855036D01*
X13886983Y-10055036D02*
X13886983Y-9950274D01*
X13877459Y-9931227D01*
X13858411Y-9921703D01*
X13829840Y-9921703D01*
X13810792Y-9931227D01*
X13801268Y-9940750D01*
X14010792Y-10055036D02*
X13991745Y-10045512D01*
X13982221Y-10035989D01*
X13972697Y-10016941D01*
X13972697Y-9959798D01*
X13982221Y-9940750D01*
X13991745Y-9931227D01*
X14010792Y-9921703D01*
X14039364Y-9921703D01*
X14058411Y-9931227D01*
X14067935Y-9940750D01*
X14077459Y-9959798D01*
X14077459Y-10016941D01*
X14067935Y-10035989D01*
X14058411Y-10045512D01*
X14039364Y-10055036D01*
X14010792Y-10055036D01*
X14191745Y-10055036D02*
X14172697Y-10045512D01*
X14163173Y-10026465D01*
X14163173Y-9855036D01*
X14344126Y-10045512D02*
X14325078Y-10055036D01*
X14286983Y-10055036D01*
X14267935Y-10045512D01*
X14258411Y-10026465D01*
X14258411Y-9950274D01*
X14267935Y-9931227D01*
X14286983Y-9921703D01*
X14325078Y-9921703D01*
X14344126Y-9931227D01*
X14353649Y-9950274D01*
X14353649Y-9969322D01*
X14258411Y-9988370D01*
X14429840Y-10045512D02*
X14448888Y-10055036D01*
X14486983Y-10055036D01*
X14506030Y-10045512D01*
X14515554Y-10026465D01*
X14515554Y-10016941D01*
X14506030Y-9997893D01*
X14486983Y-9988370D01*
X14458411Y-9988370D01*
X14439364Y-9978846D01*
X14429840Y-9959798D01*
X14429840Y-9950274D01*
X14439364Y-9931227D01*
X14458411Y-9921703D01*
X14486983Y-9921703D01*
X14506030Y-9931227D01*
X14582221Y-10131227D02*
X14591745Y-10121703D01*
X14610792Y-10093131D01*
X14620316Y-10074084D01*
X14629840Y-10045512D01*
X14639364Y-9997893D01*
X14639364Y-9959798D01*
X14629840Y-9912179D01*
X14620316Y-9883608D01*
X14610792Y-9864560D01*
X14591745Y-9835989D01*
X14582221Y-9826465D01*
D13*
X9619840Y-10228560D02*
G75*
G03*
X9619840Y-10228560I-50000J0D01*
G01*
D11*
X9982221Y-10319036D02*
X9867935Y-10319036D01*
X9925078Y-10319036D02*
X9925078Y-10119036D01*
X9906030Y-10147608D01*
X9886983Y-10166655D01*
X9867935Y-10176179D01*
X10067935Y-10299989D02*
X10077459Y-10309512D01*
X10067935Y-10319036D01*
X10058411Y-10309512D01*
X10067935Y-10299989D01*
X10067935Y-10319036D01*
X10201269Y-10119036D02*
X10220316Y-10119036D01*
X10239364Y-10128560D01*
X10248888Y-10138084D01*
X10258411Y-10157131D01*
X10267935Y-10195227D01*
X10267935Y-10242846D01*
X10258411Y-10280941D01*
X10248888Y-10299989D01*
X10239364Y-10309512D01*
X10220316Y-10319036D01*
X10201269Y-10319036D01*
X10182221Y-10309512D01*
X10172697Y-10299989D01*
X10163173Y-10280941D01*
X10153650Y-10242846D01*
X10153650Y-10195227D01*
X10163173Y-10157131D01*
X10172697Y-10138084D01*
X10182221Y-10128560D01*
X10201269Y-10119036D01*
X10391745Y-10119036D02*
X10410792Y-10119036D01*
X10429840Y-10128560D01*
X10439364Y-10138084D01*
X10448888Y-10157131D01*
X10458411Y-10195227D01*
X10458411Y-10242846D01*
X10448888Y-10280941D01*
X10439364Y-10299989D01*
X10429840Y-10309512D01*
X10410792Y-10319036D01*
X10391745Y-10319036D01*
X10372697Y-10309512D01*
X10363173Y-10299989D01*
X10353650Y-10280941D01*
X10344126Y-10242846D01*
X10344126Y-10195227D01*
X10353650Y-10157131D01*
X10363173Y-10138084D01*
X10372697Y-10128560D01*
X10391745Y-10119036D01*
X10582221Y-10119036D02*
X10601269Y-10119036D01*
X10620316Y-10128560D01*
X10629840Y-10138084D01*
X10639364Y-10157131D01*
X10648888Y-10195227D01*
X10648888Y-10242846D01*
X10639364Y-10280941D01*
X10629840Y-10299989D01*
X10620316Y-10309512D01*
X10601269Y-10319036D01*
X10582221Y-10319036D01*
X10563173Y-10309512D01*
X10553650Y-10299989D01*
X10544126Y-10280941D01*
X10534602Y-10242846D01*
X10534602Y-10195227D01*
X10544126Y-10157131D01*
X10553650Y-10138084D01*
X10563173Y-10128560D01*
X10582221Y-10119036D01*
X10734602Y-10319036D02*
X10734602Y-10185703D01*
X10734602Y-10204750D02*
X10744126Y-10195227D01*
X10763173Y-10185703D01*
X10791745Y-10185703D01*
X10810792Y-10195227D01*
X10820316Y-10214274D01*
X10820316Y-10319036D01*
X10820316Y-10214274D02*
X10829840Y-10195227D01*
X10848888Y-10185703D01*
X10877459Y-10185703D01*
X10896507Y-10195227D01*
X10906030Y-10214274D01*
X10906030Y-10319036D01*
X11001269Y-10319036D02*
X11001269Y-10185703D01*
X11001269Y-10204750D02*
X11010792Y-10195227D01*
X11029840Y-10185703D01*
X11058411Y-10185703D01*
X11077459Y-10195227D01*
X11086983Y-10214274D01*
X11086983Y-10319036D01*
X11086983Y-10214274D02*
X11096507Y-10195227D01*
X11115554Y-10185703D01*
X11144126Y-10185703D01*
X11163173Y-10195227D01*
X11172697Y-10214274D01*
X11172697Y-10319036D01*
X11563173Y-10109512D02*
X11391745Y-10366655D01*
X11820316Y-10119036D02*
X11839364Y-10119036D01*
X11858411Y-10128560D01*
X11867935Y-10138084D01*
X11877459Y-10157131D01*
X11886983Y-10195227D01*
X11886983Y-10242846D01*
X11877459Y-10280941D01*
X11867935Y-10299989D01*
X11858411Y-10309512D01*
X11839364Y-10319036D01*
X11820316Y-10319036D01*
X11801268Y-10309512D01*
X11791745Y-10299989D01*
X11782221Y-10280941D01*
X11772697Y-10242846D01*
X11772697Y-10195227D01*
X11782221Y-10157131D01*
X11791745Y-10138084D01*
X11801268Y-10128560D01*
X11820316Y-10119036D01*
X11972697Y-10299989D02*
X11982221Y-10309512D01*
X11972697Y-10319036D01*
X11963173Y-10309512D01*
X11972697Y-10299989D01*
X11972697Y-10319036D01*
X12106030Y-10119036D02*
X12125078Y-10119036D01*
X12144126Y-10128560D01*
X12153649Y-10138084D01*
X12163173Y-10157131D01*
X12172697Y-10195227D01*
X12172697Y-10242846D01*
X12163173Y-10280941D01*
X12153649Y-10299989D01*
X12144126Y-10309512D01*
X12125078Y-10319036D01*
X12106030Y-10319036D01*
X12086983Y-10309512D01*
X12077459Y-10299989D01*
X12067935Y-10280941D01*
X12058411Y-10242846D01*
X12058411Y-10195227D01*
X12067935Y-10157131D01*
X12077459Y-10138084D01*
X12086983Y-10128560D01*
X12106030Y-10119036D01*
X12239364Y-10119036D02*
X12363173Y-10119036D01*
X12296507Y-10195227D01*
X12325078Y-10195227D01*
X12344126Y-10204750D01*
X12353649Y-10214274D01*
X12363173Y-10233322D01*
X12363173Y-10280941D01*
X12353649Y-10299989D01*
X12344126Y-10309512D01*
X12325078Y-10319036D01*
X12267935Y-10319036D01*
X12248888Y-10309512D01*
X12239364Y-10299989D01*
X12458411Y-10319036D02*
X12496507Y-10319036D01*
X12515554Y-10309512D01*
X12525078Y-10299989D01*
X12544126Y-10271417D01*
X12553649Y-10233322D01*
X12553649Y-10157131D01*
X12544126Y-10138084D01*
X12534602Y-10128560D01*
X12515554Y-10119036D01*
X12477459Y-10119036D01*
X12458411Y-10128560D01*
X12448888Y-10138084D01*
X12439364Y-10157131D01*
X12439364Y-10204750D01*
X12448888Y-10223798D01*
X12458411Y-10233322D01*
X12477459Y-10242846D01*
X12515554Y-10242846D01*
X12534602Y-10233322D01*
X12544126Y-10223798D01*
X12553649Y-10204750D01*
X12725078Y-10185703D02*
X12725078Y-10319036D01*
X12677459Y-10109512D02*
X12629840Y-10252370D01*
X12753649Y-10252370D01*
X12820316Y-10119036D02*
X12820316Y-10157131D01*
X12896507Y-10119036D02*
X12896507Y-10157131D01*
X13191745Y-10395227D02*
X13182221Y-10385703D01*
X13163173Y-10357131D01*
X13153649Y-10338084D01*
X13144126Y-10309512D01*
X13134602Y-10261893D01*
X13134602Y-10223798D01*
X13144126Y-10176179D01*
X13153649Y-10147608D01*
X13163173Y-10128560D01*
X13182221Y-10099989D01*
X13191745Y-10090465D01*
X13353649Y-10119036D02*
X13315554Y-10119036D01*
X13296507Y-10128560D01*
X13286983Y-10138084D01*
X13267935Y-10166655D01*
X13258411Y-10204750D01*
X13258411Y-10280941D01*
X13267935Y-10299989D01*
X13277459Y-10309512D01*
X13296507Y-10319036D01*
X13334602Y-10319036D01*
X13353649Y-10309512D01*
X13363173Y-10299989D01*
X13372697Y-10280941D01*
X13372697Y-10233322D01*
X13363173Y-10214274D01*
X13353649Y-10204750D01*
X13334602Y-10195227D01*
X13296507Y-10195227D01*
X13277459Y-10204750D01*
X13267935Y-10214274D01*
X13258411Y-10233322D01*
X13544126Y-10185703D02*
X13544126Y-10319036D01*
X13496507Y-10109512D02*
X13448888Y-10252370D01*
X13572697Y-10252370D01*
X13801268Y-10319036D02*
X13801268Y-10119036D01*
X13886983Y-10319036D02*
X13886983Y-10214274D01*
X13877459Y-10195227D01*
X13858411Y-10185703D01*
X13829840Y-10185703D01*
X13810792Y-10195227D01*
X13801268Y-10204750D01*
X14010792Y-10319036D02*
X13991745Y-10309512D01*
X13982221Y-10299989D01*
X13972697Y-10280941D01*
X13972697Y-10223798D01*
X13982221Y-10204750D01*
X13991745Y-10195227D01*
X14010792Y-10185703D01*
X14039364Y-10185703D01*
X14058411Y-10195227D01*
X14067935Y-10204750D01*
X14077459Y-10223798D01*
X14077459Y-10280941D01*
X14067935Y-10299989D01*
X14058411Y-10309512D01*
X14039364Y-10319036D01*
X14010792Y-10319036D01*
X14191745Y-10319036D02*
X14172697Y-10309512D01*
X14163173Y-10290465D01*
X14163173Y-10119036D01*
X14344126Y-10309512D02*
X14325078Y-10319036D01*
X14286983Y-10319036D01*
X14267935Y-10309512D01*
X14258411Y-10290465D01*
X14258411Y-10214274D01*
X14267935Y-10195227D01*
X14286983Y-10185703D01*
X14325078Y-10185703D01*
X14344126Y-10195227D01*
X14353649Y-10214274D01*
X14353649Y-10233322D01*
X14258411Y-10252370D01*
X14429840Y-10309512D02*
X14448888Y-10319036D01*
X14486983Y-10319036D01*
X14506030Y-10309512D01*
X14515554Y-10290465D01*
X14515554Y-10280941D01*
X14506030Y-10261893D01*
X14486983Y-10252370D01*
X14458411Y-10252370D01*
X14439364Y-10242846D01*
X14429840Y-10223798D01*
X14429840Y-10214274D01*
X14439364Y-10195227D01*
X14458411Y-10185703D01*
X14486983Y-10185703D01*
X14506030Y-10195227D01*
X14582221Y-10395227D02*
X14591745Y-10385703D01*
X14610792Y-10357131D01*
X14620316Y-10338084D01*
X14629840Y-10309512D01*
X14639364Y-10261893D01*
X14639364Y-10223798D01*
X14629840Y-10176179D01*
X14620316Y-10147608D01*
X14610792Y-10128560D01*
X14591745Y-10099989D01*
X14582221Y-10090465D01*
M02*
