G04 #@! TF.GenerationSoftware,KiCad,Pcbnew,(6.0.6)*
G04 #@! TF.CreationDate,2022-08-29T16:13:27+02:00*
G04 #@! TF.ProjectId,adc-fiber-interface-board-six-channels,6164632d-6669-4626-9572-2d696e746572,rev?*
G04 #@! TF.SameCoordinates,Original*
G04 #@! TF.FileFunction,Paste,Bot*
G04 #@! TF.FilePolarity,Positive*
%FSLAX46Y46*%
G04 Gerber Fmt 4.6, Leading zero omitted, Abs format (unit mm)*
G04 Created by KiCad (PCBNEW (6.0.6)) date 2022-08-29 16:13:27*
%MOMM*%
%LPD*%
G01*
G04 APERTURE LIST*
G04 Aperture macros list*
%AMRoundRect*
0 Rectangle with rounded corners*
0 $1 Rounding radius*
0 $2 $3 $4 $5 $6 $7 $8 $9 X,Y pos of 4 corners*
0 Add a 4 corners polygon primitive as box body*
4,1,4,$2,$3,$4,$5,$6,$7,$8,$9,$2,$3,0*
0 Add four circle primitives for the rounded corners*
1,1,$1+$1,$2,$3*
1,1,$1+$1,$4,$5*
1,1,$1+$1,$6,$7*
1,1,$1+$1,$8,$9*
0 Add four rect primitives between the rounded corners*
20,1,$1+$1,$2,$3,$4,$5,0*
20,1,$1+$1,$4,$5,$6,$7,0*
20,1,$1+$1,$6,$7,$8,$9,0*
20,1,$1+$1,$8,$9,$2,$3,0*%
G04 Aperture macros list end*
%ADD10RoundRect,0.250000X0.337500X0.475000X-0.337500X0.475000X-0.337500X-0.475000X0.337500X-0.475000X0*%
%ADD11RoundRect,0.250000X-0.475000X0.337500X-0.475000X-0.337500X0.475000X-0.337500X0.475000X0.337500X0*%
%ADD12RoundRect,0.250000X-0.262500X-0.450000X0.262500X-0.450000X0.262500X0.450000X-0.262500X0.450000X0*%
%ADD13RoundRect,0.250000X0.475000X-0.337500X0.475000X0.337500X-0.475000X0.337500X-0.475000X-0.337500X0*%
%ADD14RoundRect,0.250000X-0.337500X-0.475000X0.337500X-0.475000X0.337500X0.475000X-0.337500X0.475000X0*%
%ADD15RoundRect,0.250000X0.450000X-0.262500X0.450000X0.262500X-0.450000X0.262500X-0.450000X-0.262500X0*%
%ADD16RoundRect,0.250000X-0.350000X-0.450000X0.350000X-0.450000X0.350000X0.450000X-0.350000X0.450000X0*%
%ADD17RoundRect,0.250000X-0.450000X0.350000X-0.450000X-0.350000X0.450000X-0.350000X0.450000X0.350000X0*%
%ADD18RoundRect,0.250000X0.262500X0.450000X-0.262500X0.450000X-0.262500X-0.450000X0.262500X-0.450000X0*%
G04 APERTURE END LIST*
D10*
X121556600Y-43129200D03*
X119481600Y-43129200D03*
D11*
X117892900Y-77661100D03*
X117892900Y-79736100D03*
D12*
X98858700Y-76606400D03*
X100683700Y-76606400D03*
D10*
X104990300Y-43408600D03*
X102915300Y-43408600D03*
X115277300Y-45491400D03*
X113202300Y-45491400D03*
D13*
X110794800Y-79752100D03*
X110794800Y-77677100D03*
D14*
X113495000Y-55524400D03*
X115570000Y-55524400D03*
D10*
X104990300Y-45491400D03*
X102915300Y-45491400D03*
D15*
X105156000Y-68679700D03*
X105156000Y-66854700D03*
D13*
X121056400Y-79726700D03*
X121056400Y-77651700D03*
D10*
X115285100Y-43434000D03*
X113210100Y-43434000D03*
D16*
X121021600Y-63010000D03*
X123021600Y-63010000D03*
D17*
X120829200Y-55660000D03*
X120829200Y-57660000D03*
D13*
X119278400Y-74896800D03*
X119278400Y-72821800D03*
D16*
X120920000Y-53187600D03*
X122920000Y-53187600D03*
D14*
X113465700Y-53441600D03*
X115540700Y-53441600D03*
D13*
X121361200Y-74900700D03*
X121361200Y-72825700D03*
D11*
X122658000Y-65604700D03*
X122658000Y-67679700D03*
X122937400Y-55622500D03*
X122937400Y-57697500D03*
D10*
X121607400Y-45161200D03*
X119532400Y-45161200D03*
D11*
X107492800Y-77645100D03*
X107492800Y-79720100D03*
D17*
X120549800Y-65642200D03*
X120549800Y-67642200D03*
D18*
X104493700Y-71628000D03*
X102668700Y-71628000D03*
M02*
