G04 #@! TF.GenerationSoftware,KiCad,Pcbnew,(6.0.6)*
G04 #@! TF.CreationDate,2022-08-29T16:13:27+02:00*
G04 #@! TF.ProjectId,adc-fiber-interface-board-six-channels,6164632d-6669-4626-9572-2d696e746572,rev?*
G04 #@! TF.SameCoordinates,Original*
G04 #@! TF.FileFunction,Legend,Top*
G04 #@! TF.FilePolarity,Positive*
%FSLAX46Y46*%
G04 Gerber Fmt 4.6, Leading zero omitted, Abs format (unit mm)*
G04 Created by KiCad (PCBNEW (6.0.6)) date 2022-08-29 16:13:27*
%MOMM*%
%LPD*%
G01*
G04 APERTURE LIST*
G04 Aperture macros list*
%AMRoundRect*
0 Rectangle with rounded corners*
0 $1 Rounding radius*
0 $2 $3 $4 $5 $6 $7 $8 $9 X,Y pos of 4 corners*
0 Add a 4 corners polygon primitive as box body*
4,1,4,$2,$3,$4,$5,$6,$7,$8,$9,$2,$3,0*
0 Add four circle primitives for the rounded corners*
1,1,$1+$1,$2,$3*
1,1,$1+$1,$4,$5*
1,1,$1+$1,$6,$7*
1,1,$1+$1,$8,$9*
0 Add four rect primitives between the rounded corners*
20,1,$1+$1,$2,$3,$4,$5,0*
20,1,$1+$1,$4,$5,$6,$7,0*
20,1,$1+$1,$6,$7,$8,$9,0*
20,1,$1+$1,$8,$9,$2,$3,0*%
G04 Aperture macros list end*
%ADD10C,0.150000*%
%ADD11C,0.120000*%
%ADD12C,1.515000*%
%ADD13RoundRect,0.250000X-0.337500X-0.475000X0.337500X-0.475000X0.337500X0.475000X-0.337500X0.475000X0*%
%ADD14RoundRect,0.250000X0.350000X0.450000X-0.350000X0.450000X-0.350000X-0.450000X0.350000X-0.450000X0*%
%ADD15RoundRect,0.100000X-0.637500X-0.100000X0.637500X-0.100000X0.637500X0.100000X-0.637500X0.100000X0*%
%ADD16R,1.700000X1.700000*%
%ADD17O,1.700000X1.700000*%
%ADD18C,3.200000*%
%ADD19RoundRect,0.250000X-0.325000X-0.450000X0.325000X-0.450000X0.325000X0.450000X-0.325000X0.450000X0*%
%ADD20RoundRect,0.250000X0.450000X-0.350000X0.450000X0.350000X-0.450000X0.350000X-0.450000X-0.350000X0*%
%ADD21RoundRect,0.250000X-0.450000X0.350000X-0.450000X-0.350000X0.450000X-0.350000X0.450000X0.350000X0*%
G04 APERTURE END LIST*
D10*
X104532766Y-63599266D02*
X104932766Y-63599266D01*
X104732766Y-64299266D02*
X104732766Y-63599266D01*
X105099433Y-63599266D02*
X105566100Y-64299266D01*
X105566100Y-63599266D02*
X105099433Y-64299266D01*
X106132766Y-63599266D02*
X105999433Y-63599266D01*
X105932766Y-63632600D01*
X105899433Y-63665933D01*
X105832766Y-63765933D01*
X105799433Y-63899266D01*
X105799433Y-64165933D01*
X105832766Y-64232600D01*
X105866100Y-64265933D01*
X105932766Y-64299266D01*
X106066100Y-64299266D01*
X106132766Y-64265933D01*
X106166100Y-64232600D01*
X106199433Y-64165933D01*
X106199433Y-63999266D01*
X106166100Y-63932600D01*
X106132766Y-63899266D01*
X106066100Y-63865933D01*
X105932766Y-63865933D01*
X105866100Y-63899266D01*
X105832766Y-63932600D01*
X105799433Y-63999266D01*
X120653766Y-63130866D02*
X120420433Y-62797533D01*
X120253766Y-63130866D02*
X120253766Y-62430866D01*
X120520433Y-62430866D01*
X120587100Y-62464200D01*
X120620433Y-62497533D01*
X120653766Y-62564200D01*
X120653766Y-62664200D01*
X120620433Y-62730866D01*
X120587100Y-62764200D01*
X120520433Y-62797533D01*
X120253766Y-62797533D01*
X120887100Y-62430866D02*
X121353766Y-63130866D01*
X121353766Y-62430866D02*
X120887100Y-63130866D01*
X121587100Y-62497533D02*
X121620433Y-62464200D01*
X121687100Y-62430866D01*
X121853766Y-62430866D01*
X121920433Y-62464200D01*
X121953766Y-62497533D01*
X121987100Y-62564200D01*
X121987100Y-62630866D01*
X121953766Y-62730866D01*
X121553766Y-63130866D01*
X121987100Y-63130866D01*
X132523566Y-83131866D02*
X132923566Y-83131866D01*
X132723566Y-83831866D02*
X132723566Y-83131866D01*
X133090233Y-83131866D02*
X133556900Y-83831866D01*
X133556900Y-83131866D02*
X133090233Y-83831866D01*
X134123566Y-83365200D02*
X134123566Y-83831866D01*
X133956900Y-83098533D02*
X133790233Y-83598533D01*
X134223566Y-83598533D01*
X101408566Y-79474266D02*
X101808566Y-79474266D01*
X101608566Y-80174266D02*
X101608566Y-79474266D01*
X101975233Y-79474266D02*
X102441900Y-80174266D01*
X102441900Y-79474266D02*
X101975233Y-80174266D01*
X103008566Y-79474266D02*
X102875233Y-79474266D01*
X102808566Y-79507600D01*
X102775233Y-79540933D01*
X102708566Y-79640933D01*
X102675233Y-79774266D01*
X102675233Y-80040933D01*
X102708566Y-80107600D01*
X102741900Y-80140933D01*
X102808566Y-80174266D01*
X102941900Y-80174266D01*
X103008566Y-80140933D01*
X103041900Y-80107600D01*
X103075233Y-80040933D01*
X103075233Y-79874266D01*
X103041900Y-79807600D01*
X103008566Y-79774266D01*
X102941900Y-79740933D01*
X102808566Y-79740933D01*
X102741900Y-79774266D01*
X102708566Y-79807600D01*
X102675233Y-79874266D01*
X104532766Y-55542766D02*
X104932766Y-55542766D01*
X104732766Y-56242766D02*
X104732766Y-55542766D01*
X105099433Y-55542766D02*
X105566100Y-56242766D01*
X105566100Y-55542766D02*
X105099433Y-56242766D01*
X105766100Y-55542766D02*
X106199433Y-55542766D01*
X105966100Y-55809433D01*
X106066100Y-55809433D01*
X106132766Y-55842766D01*
X106166100Y-55876100D01*
X106199433Y-55942766D01*
X106199433Y-56109433D01*
X106166100Y-56176100D01*
X106132766Y-56209433D01*
X106066100Y-56242766D01*
X105866100Y-56242766D01*
X105799433Y-56209433D01*
X105766100Y-56176100D01*
X106999433Y-55509433D02*
X106399433Y-56409433D01*
X105032766Y-57369766D02*
X104799433Y-57036433D01*
X104632766Y-57369766D02*
X104632766Y-56669766D01*
X104899433Y-56669766D01*
X104966100Y-56703100D01*
X104999433Y-56736433D01*
X105032766Y-56803100D01*
X105032766Y-56903100D01*
X104999433Y-56969766D01*
X104966100Y-57003100D01*
X104899433Y-57036433D01*
X104632766Y-57036433D01*
X105266100Y-56669766D02*
X105732766Y-57369766D01*
X105732766Y-56669766D02*
X105266100Y-57369766D01*
X106366100Y-57369766D02*
X105966100Y-57369766D01*
X106166100Y-57369766D02*
X106166100Y-56669766D01*
X106099433Y-56769766D01*
X106032766Y-56836433D01*
X105966100Y-56869766D01*
X120704566Y-53580466D02*
X120471233Y-53247133D01*
X120304566Y-53580466D02*
X120304566Y-52880466D01*
X120571233Y-52880466D01*
X120637900Y-52913800D01*
X120671233Y-52947133D01*
X120704566Y-53013800D01*
X120704566Y-53113800D01*
X120671233Y-53180466D01*
X120637900Y-53213800D01*
X120571233Y-53247133D01*
X120304566Y-53247133D01*
X120937900Y-52880466D02*
X121404566Y-53580466D01*
X121404566Y-52880466D02*
X120937900Y-53580466D01*
X122037900Y-53580466D02*
X121637900Y-53580466D01*
X121837900Y-53580466D02*
X121837900Y-52880466D01*
X121771233Y-52980466D01*
X121704566Y-53047133D01*
X121637900Y-53080466D01*
X103770766Y-72565466D02*
X104004100Y-73265466D01*
X104237433Y-72565466D01*
X104770766Y-73232133D02*
X104704100Y-73265466D01*
X104570766Y-73265466D01*
X104504100Y-73232133D01*
X104470766Y-73198800D01*
X104437433Y-73132133D01*
X104437433Y-72932133D01*
X104470766Y-72865466D01*
X104504100Y-72832133D01*
X104570766Y-72798800D01*
X104704100Y-72798800D01*
X104770766Y-72832133D01*
X105370766Y-73232133D02*
X105304100Y-73265466D01*
X105170766Y-73265466D01*
X105104100Y-73232133D01*
X105070766Y-73198800D01*
X105037433Y-73132133D01*
X105037433Y-72932133D01*
X105070766Y-72865466D01*
X105104100Y-72832133D01*
X105170766Y-72798800D01*
X105304100Y-72798800D01*
X105370766Y-72832133D01*
X104566100Y-66317066D02*
X104999433Y-66317066D01*
X104766100Y-66583733D01*
X104866100Y-66583733D01*
X104932766Y-66617066D01*
X104966100Y-66650400D01*
X104999433Y-66717066D01*
X104999433Y-66883733D01*
X104966100Y-66950400D01*
X104932766Y-66983733D01*
X104866100Y-67017066D01*
X104666100Y-67017066D01*
X104599433Y-66983733D01*
X104566100Y-66950400D01*
X105199433Y-66317066D02*
X105432766Y-67017066D01*
X105666100Y-66317066D01*
X105832766Y-66317066D02*
X106266100Y-66317066D01*
X106032766Y-66583733D01*
X106132766Y-66583733D01*
X106199433Y-66617066D01*
X106232766Y-66650400D01*
X106266100Y-66717066D01*
X106266100Y-66883733D01*
X106232766Y-66950400D01*
X106199433Y-66983733D01*
X106132766Y-67017066D01*
X105932766Y-67017066D01*
X105866100Y-66983733D01*
X105832766Y-66950400D01*
X104532766Y-53464666D02*
X104932766Y-53464666D01*
X104732766Y-54164666D02*
X104732766Y-53464666D01*
X105099433Y-53464666D02*
X105566100Y-54164666D01*
X105566100Y-53464666D02*
X105099433Y-54164666D01*
X105799433Y-53531333D02*
X105832766Y-53498000D01*
X105899433Y-53464666D01*
X106066100Y-53464666D01*
X106132766Y-53498000D01*
X106166100Y-53531333D01*
X106199433Y-53598000D01*
X106199433Y-53664666D01*
X106166100Y-53764666D01*
X105766100Y-54164666D01*
X106199433Y-54164666D01*
X104532766Y-58108166D02*
X104932766Y-58108166D01*
X104732766Y-58808166D02*
X104732766Y-58108166D01*
X105099433Y-58108166D02*
X105566100Y-58808166D01*
X105566100Y-58108166D02*
X105099433Y-58808166D01*
X106132766Y-58341500D02*
X106132766Y-58808166D01*
X105966100Y-58074833D02*
X105799433Y-58574833D01*
X106232766Y-58574833D01*
X106999433Y-58074833D02*
X106399433Y-58974833D01*
X105032766Y-59935166D02*
X104799433Y-59601833D01*
X104632766Y-59935166D02*
X104632766Y-59235166D01*
X104899433Y-59235166D01*
X104966100Y-59268500D01*
X104999433Y-59301833D01*
X105032766Y-59368500D01*
X105032766Y-59468500D01*
X104999433Y-59535166D01*
X104966100Y-59568500D01*
X104899433Y-59601833D01*
X104632766Y-59601833D01*
X105266100Y-59235166D02*
X105732766Y-59935166D01*
X105732766Y-59235166D02*
X105266100Y-59935166D01*
X105966100Y-59301833D02*
X105999433Y-59268500D01*
X106066100Y-59235166D01*
X106232766Y-59235166D01*
X106299433Y-59268500D01*
X106332766Y-59301833D01*
X106366100Y-59368500D01*
X106366100Y-59435166D01*
X106332766Y-59535166D01*
X105932766Y-59935166D01*
X106366100Y-59935166D01*
X104532766Y-50924666D02*
X104932766Y-50924666D01*
X104732766Y-51624666D02*
X104732766Y-50924666D01*
X105099433Y-50924666D02*
X105566100Y-51624666D01*
X105566100Y-50924666D02*
X105099433Y-51624666D01*
X106199433Y-51624666D02*
X105799433Y-51624666D01*
X105999433Y-51624666D02*
X105999433Y-50924666D01*
X105932766Y-51024666D01*
X105866100Y-51091333D01*
X105799433Y-51124666D01*
X107275966Y-43406266D02*
X107675966Y-43406266D01*
X107475966Y-44106266D02*
X107475966Y-43406266D01*
X107842633Y-43406266D02*
X108309300Y-44106266D01*
X108309300Y-43406266D02*
X107842633Y-44106266D01*
X108942633Y-44106266D02*
X108542633Y-44106266D01*
X108742633Y-44106266D02*
X108742633Y-43406266D01*
X108675966Y-43506266D01*
X108609300Y-43572933D01*
X108542633Y-43606266D01*
X120610966Y-48816466D02*
X121010966Y-48816466D01*
X120810966Y-49516466D02*
X120810966Y-48816466D01*
X121177633Y-48816466D02*
X121644300Y-49516466D01*
X121644300Y-48816466D02*
X121177633Y-49516466D01*
X121844300Y-48816466D02*
X122277633Y-48816466D01*
X122044300Y-49083133D01*
X122144300Y-49083133D01*
X122210966Y-49116466D01*
X122244300Y-49149800D01*
X122277633Y-49216466D01*
X122277633Y-49383133D01*
X122244300Y-49449800D01*
X122210966Y-49483133D01*
X122144300Y-49516466D01*
X121944300Y-49516466D01*
X121877633Y-49483133D01*
X121844300Y-49449800D01*
X113016366Y-78712266D02*
X113416366Y-78712266D01*
X113216366Y-79412266D02*
X113216366Y-78712266D01*
X113583033Y-78712266D02*
X114049700Y-79412266D01*
X114049700Y-78712266D02*
X113583033Y-79412266D01*
X114649700Y-78712266D02*
X114316366Y-78712266D01*
X114283033Y-79045600D01*
X114316366Y-79012266D01*
X114383033Y-78978933D01*
X114549700Y-78978933D01*
X114616366Y-79012266D01*
X114649700Y-79045600D01*
X114683033Y-79112266D01*
X114683033Y-79278933D01*
X114649700Y-79345600D01*
X114616366Y-79378933D01*
X114549700Y-79412266D01*
X114383033Y-79412266D01*
X114316366Y-79378933D01*
X114283033Y-79345600D01*
X123333500Y-35776866D02*
X123466833Y-35776866D01*
X123533500Y-35810200D01*
X123600166Y-35876866D01*
X123633500Y-36010200D01*
X123633500Y-36243533D01*
X123600166Y-36376866D01*
X123533500Y-36443533D01*
X123466833Y-36476866D01*
X123333500Y-36476866D01*
X123266833Y-36443533D01*
X123200166Y-36376866D01*
X123166833Y-36243533D01*
X123166833Y-36010200D01*
X123200166Y-35876866D01*
X123266833Y-35810200D01*
X123333500Y-35776866D01*
X123933500Y-36010200D02*
X123933500Y-36710200D01*
X123933500Y-36043533D02*
X124000166Y-36010200D01*
X124133500Y-36010200D01*
X124200166Y-36043533D01*
X124233500Y-36076866D01*
X124266833Y-36143533D01*
X124266833Y-36343533D01*
X124233500Y-36410200D01*
X124200166Y-36443533D01*
X124133500Y-36476866D01*
X124000166Y-36476866D01*
X123933500Y-36443533D01*
X124466833Y-36010200D02*
X124733500Y-36010200D01*
X124566833Y-35776866D02*
X124566833Y-36376866D01*
X124600166Y-36443533D01*
X124666833Y-36476866D01*
X124733500Y-36476866D01*
X124966833Y-36476866D02*
X124966833Y-36010200D01*
X124966833Y-35776866D02*
X124933500Y-35810200D01*
X124966833Y-35843533D01*
X125000166Y-35810200D01*
X124966833Y-35776866D01*
X124966833Y-35843533D01*
X125600166Y-36443533D02*
X125533500Y-36476866D01*
X125400166Y-36476866D01*
X125333500Y-36443533D01*
X125300166Y-36410200D01*
X125266833Y-36343533D01*
X125266833Y-36143533D01*
X125300166Y-36076866D01*
X125333500Y-36043533D01*
X125400166Y-36010200D01*
X125533500Y-36010200D01*
X125600166Y-36043533D01*
X125866833Y-36443533D02*
X125933500Y-36476866D01*
X126066833Y-36476866D01*
X126133500Y-36443533D01*
X126166833Y-36376866D01*
X126166833Y-36343533D01*
X126133500Y-36276866D01*
X126066833Y-36243533D01*
X125966833Y-36243533D01*
X125900166Y-36210200D01*
X125866833Y-36143533D01*
X125866833Y-36110200D01*
X125900166Y-36043533D01*
X125966833Y-36010200D01*
X126066833Y-36010200D01*
X126133500Y-36043533D01*
X127000166Y-36476866D02*
X127000166Y-35776866D01*
X127000166Y-36043533D02*
X127066833Y-36010200D01*
X127200166Y-36010200D01*
X127266833Y-36043533D01*
X127300166Y-36076866D01*
X127333500Y-36143533D01*
X127333500Y-36343533D01*
X127300166Y-36410200D01*
X127266833Y-36443533D01*
X127200166Y-36476866D01*
X127066833Y-36476866D01*
X127000166Y-36443533D01*
X127733500Y-36476866D02*
X127666833Y-36443533D01*
X127633500Y-36410200D01*
X127600166Y-36343533D01*
X127600166Y-36143533D01*
X127633500Y-36076866D01*
X127666833Y-36043533D01*
X127733500Y-36010200D01*
X127833500Y-36010200D01*
X127900166Y-36043533D01*
X127933500Y-36076866D01*
X127966833Y-36143533D01*
X127966833Y-36343533D01*
X127933500Y-36410200D01*
X127900166Y-36443533D01*
X127833500Y-36476866D01*
X127733500Y-36476866D01*
X128566833Y-36476866D02*
X128566833Y-36110200D01*
X128533500Y-36043533D01*
X128466833Y-36010200D01*
X128333500Y-36010200D01*
X128266833Y-36043533D01*
X128566833Y-36443533D02*
X128500166Y-36476866D01*
X128333500Y-36476866D01*
X128266833Y-36443533D01*
X128233500Y-36376866D01*
X128233500Y-36310200D01*
X128266833Y-36243533D01*
X128333500Y-36210200D01*
X128500166Y-36210200D01*
X128566833Y-36176866D01*
X128900166Y-36476866D02*
X128900166Y-36010200D01*
X128900166Y-36143533D02*
X128933500Y-36076866D01*
X128966833Y-36043533D01*
X129033500Y-36010200D01*
X129100166Y-36010200D01*
X129633500Y-36476866D02*
X129633500Y-35776866D01*
X129633500Y-36443533D02*
X129566833Y-36476866D01*
X129433500Y-36476866D01*
X129366833Y-36443533D01*
X129333500Y-36410200D01*
X129300166Y-36343533D01*
X129300166Y-36143533D01*
X129333500Y-36076866D01*
X129366833Y-36043533D01*
X129433500Y-36010200D01*
X129566833Y-36010200D01*
X129633500Y-36043533D01*
X123166833Y-36970533D02*
X123200166Y-36937200D01*
X123266833Y-36903866D01*
X123433500Y-36903866D01*
X123500166Y-36937200D01*
X123533500Y-36970533D01*
X123566833Y-37037200D01*
X123566833Y-37103866D01*
X123533500Y-37203866D01*
X123133500Y-37603866D01*
X123566833Y-37603866D01*
X124800166Y-37603866D02*
X124566833Y-37270533D01*
X124400166Y-37603866D02*
X124400166Y-36903866D01*
X124666833Y-36903866D01*
X124733500Y-36937200D01*
X124766833Y-36970533D01*
X124800166Y-37037200D01*
X124800166Y-37137200D01*
X124766833Y-37203866D01*
X124733500Y-37237200D01*
X124666833Y-37270533D01*
X124400166Y-37270533D01*
X125033500Y-36903866D02*
X125500166Y-37603866D01*
X125500166Y-36903866D02*
X125033500Y-37603866D01*
X126266833Y-36870533D02*
X125666833Y-37770533D01*
X126800166Y-36903866D02*
X126666833Y-36903866D01*
X126600166Y-36937200D01*
X126566833Y-36970533D01*
X126500166Y-37070533D01*
X126466833Y-37203866D01*
X126466833Y-37470533D01*
X126500166Y-37537200D01*
X126533500Y-37570533D01*
X126600166Y-37603866D01*
X126733500Y-37603866D01*
X126800166Y-37570533D01*
X126833500Y-37537200D01*
X126866833Y-37470533D01*
X126866833Y-37303866D01*
X126833500Y-37237200D01*
X126800166Y-37203866D01*
X126733500Y-37170533D01*
X126600166Y-37170533D01*
X126533500Y-37203866D01*
X126500166Y-37237200D01*
X126466833Y-37303866D01*
X127600166Y-36903866D02*
X128000166Y-36903866D01*
X127800166Y-37603866D02*
X127800166Y-36903866D01*
X128166833Y-36903866D02*
X128633500Y-37603866D01*
X128633500Y-36903866D02*
X128166833Y-37603866D01*
X123133500Y-38264200D02*
X123300166Y-38730866D01*
X123466833Y-38264200D01*
X124100166Y-38730866D02*
X123700166Y-38730866D01*
X123900166Y-38730866D02*
X123900166Y-38030866D01*
X123833500Y-38130866D01*
X123766833Y-38197533D01*
X123700166Y-38230866D01*
X124400166Y-38664200D02*
X124433500Y-38697533D01*
X124400166Y-38730866D01*
X124366833Y-38697533D01*
X124400166Y-38664200D01*
X124400166Y-38730866D01*
X124866833Y-38030866D02*
X124933500Y-38030866D01*
X125000166Y-38064200D01*
X125033500Y-38097533D01*
X125066833Y-38164200D01*
X125100166Y-38297533D01*
X125100166Y-38464200D01*
X125066833Y-38597533D01*
X125033500Y-38664200D01*
X125000166Y-38697533D01*
X124933500Y-38730866D01*
X124866833Y-38730866D01*
X124800166Y-38697533D01*
X124766833Y-38664200D01*
X124733500Y-38597533D01*
X124700166Y-38464200D01*
X124700166Y-38297533D01*
X124733500Y-38164200D01*
X124766833Y-38097533D01*
X124800166Y-38064200D01*
X124866833Y-38030866D01*
X125933500Y-38464200D02*
X126466833Y-38464200D01*
X127466833Y-38030866D02*
X127533500Y-38030866D01*
X127600166Y-38064200D01*
X127633500Y-38097533D01*
X127666833Y-38164200D01*
X127700166Y-38297533D01*
X127700166Y-38464200D01*
X127666833Y-38597533D01*
X127633500Y-38664200D01*
X127600166Y-38697533D01*
X127533500Y-38730866D01*
X127466833Y-38730866D01*
X127400166Y-38697533D01*
X127366833Y-38664200D01*
X127333500Y-38597533D01*
X127300166Y-38464200D01*
X127300166Y-38297533D01*
X127333500Y-38164200D01*
X127366833Y-38097533D01*
X127400166Y-38064200D01*
X127466833Y-38030866D01*
X128100166Y-38330866D02*
X128033500Y-38297533D01*
X128000166Y-38264200D01*
X127966833Y-38197533D01*
X127966833Y-38164200D01*
X128000166Y-38097533D01*
X128033500Y-38064200D01*
X128100166Y-38030866D01*
X128233500Y-38030866D01*
X128300166Y-38064200D01*
X128333500Y-38097533D01*
X128366833Y-38164200D01*
X128366833Y-38197533D01*
X128333500Y-38264200D01*
X128300166Y-38297533D01*
X128233500Y-38330866D01*
X128100166Y-38330866D01*
X128033500Y-38364200D01*
X128000166Y-38397533D01*
X127966833Y-38464200D01*
X127966833Y-38597533D01*
X128000166Y-38664200D01*
X128033500Y-38697533D01*
X128100166Y-38730866D01*
X128233500Y-38730866D01*
X128300166Y-38697533D01*
X128333500Y-38664200D01*
X128366833Y-38597533D01*
X128366833Y-38464200D01*
X128333500Y-38397533D01*
X128300166Y-38364200D01*
X128233500Y-38330866D01*
X128666833Y-38664200D02*
X128700166Y-38697533D01*
X128666833Y-38730866D01*
X128633500Y-38697533D01*
X128666833Y-38664200D01*
X128666833Y-38730866D01*
X128966833Y-38097533D02*
X129000166Y-38064200D01*
X129066833Y-38030866D01*
X129233500Y-38030866D01*
X129300166Y-38064200D01*
X129333500Y-38097533D01*
X129366833Y-38164200D01*
X129366833Y-38230866D01*
X129333500Y-38330866D01*
X128933500Y-38730866D01*
X129366833Y-38730866D01*
X129800166Y-38030866D02*
X129866833Y-38030866D01*
X129933500Y-38064200D01*
X129966833Y-38097533D01*
X130000166Y-38164200D01*
X130033500Y-38297533D01*
X130033500Y-38464200D01*
X130000166Y-38597533D01*
X129966833Y-38664200D01*
X129933500Y-38697533D01*
X129866833Y-38730866D01*
X129800166Y-38730866D01*
X129733500Y-38697533D01*
X129700166Y-38664200D01*
X129666833Y-38597533D01*
X129633500Y-38464200D01*
X129633500Y-38297533D01*
X129666833Y-38164200D01*
X129700166Y-38097533D01*
X129733500Y-38064200D01*
X129800166Y-38030866D01*
X130300166Y-38097533D02*
X130333500Y-38064200D01*
X130400166Y-38030866D01*
X130566833Y-38030866D01*
X130633500Y-38064200D01*
X130666833Y-38097533D01*
X130700166Y-38164200D01*
X130700166Y-38230866D01*
X130666833Y-38330866D01*
X130266833Y-38730866D01*
X130700166Y-38730866D01*
X130966833Y-38097533D02*
X131000166Y-38064200D01*
X131066833Y-38030866D01*
X131233500Y-38030866D01*
X131300166Y-38064200D01*
X131333500Y-38097533D01*
X131366833Y-38164200D01*
X131366833Y-38230866D01*
X131333500Y-38330866D01*
X130933500Y-38730866D01*
X131366833Y-38730866D01*
X116826366Y-43761866D02*
X117226366Y-43761866D01*
X117026366Y-44461866D02*
X117026366Y-43761866D01*
X117393033Y-43761866D02*
X117859700Y-44461866D01*
X117859700Y-43761866D02*
X117393033Y-44461866D01*
X118093033Y-43828533D02*
X118126366Y-43795200D01*
X118193033Y-43761866D01*
X118359700Y-43761866D01*
X118426366Y-43795200D01*
X118459700Y-43828533D01*
X118493033Y-43895200D01*
X118493033Y-43961866D01*
X118459700Y-44061866D01*
X118059700Y-44461866D01*
X118493033Y-44461866D01*
X104532766Y-61033866D02*
X104932766Y-61033866D01*
X104732766Y-61733866D02*
X104732766Y-61033866D01*
X105099433Y-61033866D02*
X105566100Y-61733866D01*
X105566100Y-61033866D02*
X105099433Y-61733866D01*
X106166100Y-61033866D02*
X105832766Y-61033866D01*
X105799433Y-61367200D01*
X105832766Y-61333866D01*
X105899433Y-61300533D01*
X106066100Y-61300533D01*
X106132766Y-61333866D01*
X106166100Y-61367200D01*
X106199433Y-61433866D01*
X106199433Y-61600533D01*
X106166100Y-61667200D01*
X106132766Y-61700533D01*
X106066100Y-61733866D01*
X105899433Y-61733866D01*
X105832766Y-61700533D01*
X105799433Y-61667200D01*
X104966100Y-68577666D02*
X104632766Y-68577666D01*
X104599433Y-68911000D01*
X104632766Y-68877666D01*
X104699433Y-68844333D01*
X104866100Y-68844333D01*
X104932766Y-68877666D01*
X104966100Y-68911000D01*
X104999433Y-68977666D01*
X104999433Y-69144333D01*
X104966100Y-69211000D01*
X104932766Y-69244333D01*
X104866100Y-69277666D01*
X104699433Y-69277666D01*
X104632766Y-69244333D01*
X104599433Y-69211000D01*
X105199433Y-68577666D02*
X105432766Y-69277666D01*
X105666100Y-68577666D01*
X121081866Y-69009466D02*
X121081866Y-69576133D01*
X121115200Y-69642800D01*
X121148533Y-69676133D01*
X121215200Y-69709466D01*
X121348533Y-69709466D01*
X121415200Y-69676133D01*
X121448533Y-69642800D01*
X121481866Y-69576133D01*
X121481866Y-69009466D01*
X121915200Y-69309466D02*
X121848533Y-69276133D01*
X121815200Y-69242800D01*
X121781866Y-69176133D01*
X121781866Y-69142800D01*
X121815200Y-69076133D01*
X121848533Y-69042800D01*
X121915200Y-69009466D01*
X122048533Y-69009466D01*
X122115200Y-69042800D01*
X122148533Y-69076133D01*
X122181866Y-69142800D01*
X122181866Y-69176133D01*
X122148533Y-69242800D01*
X122115200Y-69276133D01*
X122048533Y-69309466D01*
X121915200Y-69309466D01*
X121848533Y-69342800D01*
X121815200Y-69376133D01*
X121781866Y-69442800D01*
X121781866Y-69576133D01*
X121815200Y-69642800D01*
X121848533Y-69676133D01*
X121915200Y-69709466D01*
X122048533Y-69709466D01*
X122115200Y-69676133D01*
X122148533Y-69642800D01*
X122181866Y-69576133D01*
X122181866Y-69442800D01*
X122148533Y-69376133D01*
X122115200Y-69342800D01*
X122048533Y-69309466D01*
X114074700Y-52011600D02*
X114041366Y-52044933D01*
X113941366Y-52078266D01*
X113874700Y-52078266D01*
X113774700Y-52044933D01*
X113708033Y-51978266D01*
X113674700Y-51911600D01*
X113641366Y-51778266D01*
X113641366Y-51678266D01*
X113674700Y-51544933D01*
X113708033Y-51478266D01*
X113774700Y-51411600D01*
X113874700Y-51378266D01*
X113941366Y-51378266D01*
X114041366Y-51411600D01*
X114074700Y-51444933D01*
X114741366Y-52078266D02*
X114341366Y-52078266D01*
X114541366Y-52078266D02*
X114541366Y-51378266D01*
X114474700Y-51478266D01*
X114408033Y-51544933D01*
X114341366Y-51578266D01*
X115374700Y-51378266D02*
X115041366Y-51378266D01*
X115008033Y-51711600D01*
X115041366Y-51678266D01*
X115108033Y-51644933D01*
X115274700Y-51644933D01*
X115341366Y-51678266D01*
X115374700Y-51711600D01*
X115408033Y-51778266D01*
X115408033Y-51944933D01*
X115374700Y-52011600D01*
X115341366Y-52044933D01*
X115274700Y-52078266D01*
X115108033Y-52078266D01*
X115041366Y-52044933D01*
X115008033Y-52011600D01*
X101229333Y-43725266D02*
X100996000Y-43391933D01*
X100829333Y-43725266D02*
X100829333Y-43025266D01*
X101096000Y-43025266D01*
X101162666Y-43058600D01*
X101196000Y-43091933D01*
X101229333Y-43158600D01*
X101229333Y-43258600D01*
X101196000Y-43325266D01*
X101162666Y-43358600D01*
X101096000Y-43391933D01*
X100829333Y-43391933D01*
X101896000Y-43725266D02*
X101496000Y-43725266D01*
X101696000Y-43725266D02*
X101696000Y-43025266D01*
X101629333Y-43125266D01*
X101562666Y-43191933D01*
X101496000Y-43225266D01*
X117739333Y-43344266D02*
X117506000Y-43010933D01*
X117339333Y-43344266D02*
X117339333Y-42644266D01*
X117606000Y-42644266D01*
X117672666Y-42677600D01*
X117706000Y-42710933D01*
X117739333Y-42777600D01*
X117739333Y-42877600D01*
X117706000Y-42944266D01*
X117672666Y-42977600D01*
X117606000Y-43010933D01*
X117339333Y-43010933D01*
X118372666Y-42644266D02*
X118039333Y-42644266D01*
X118006000Y-42977600D01*
X118039333Y-42944266D01*
X118106000Y-42910933D01*
X118272666Y-42910933D01*
X118339333Y-42944266D01*
X118372666Y-42977600D01*
X118406000Y-43044266D01*
X118406000Y-43210933D01*
X118372666Y-43277600D01*
X118339333Y-43310933D01*
X118272666Y-43344266D01*
X118106000Y-43344266D01*
X118039333Y-43310933D01*
X118006000Y-43277600D01*
X121132666Y-59763866D02*
X121132666Y-60330533D01*
X121166000Y-60397200D01*
X121199333Y-60430533D01*
X121266000Y-60463866D01*
X121399333Y-60463866D01*
X121466000Y-60430533D01*
X121499333Y-60397200D01*
X121532666Y-60330533D01*
X121532666Y-59763866D01*
X121799333Y-59763866D02*
X122266000Y-59763866D01*
X121966000Y-60463866D01*
X110617066Y-53515466D02*
X110617066Y-54082133D01*
X110650400Y-54148800D01*
X110683733Y-54182133D01*
X110750400Y-54215466D01*
X110883733Y-54215466D01*
X110950400Y-54182133D01*
X110983733Y-54148800D01*
X111017066Y-54082133D01*
X111017066Y-53515466D01*
X111383733Y-54215466D02*
X111517066Y-54215466D01*
X111583733Y-54182133D01*
X111617066Y-54148800D01*
X111683733Y-54048800D01*
X111717066Y-53915466D01*
X111717066Y-53648800D01*
X111683733Y-53582133D01*
X111650400Y-53548800D01*
X111583733Y-53515466D01*
X111450400Y-53515466D01*
X111383733Y-53548800D01*
X111350400Y-53582133D01*
X111317066Y-53648800D01*
X111317066Y-53815466D01*
X111350400Y-53882133D01*
X111383733Y-53915466D01*
X111450400Y-53948800D01*
X111583733Y-53948800D01*
X111650400Y-53915466D01*
X111683733Y-53882133D01*
X111717066Y-53815466D01*
X107619866Y-42390266D02*
X107619866Y-42956933D01*
X107653200Y-43023600D01*
X107686533Y-43056933D01*
X107753200Y-43090266D01*
X107886533Y-43090266D01*
X107953200Y-43056933D01*
X107986533Y-43023600D01*
X108019866Y-42956933D01*
X108019866Y-42390266D01*
X108719866Y-43090266D02*
X108319866Y-43090266D01*
X108519866Y-43090266D02*
X108519866Y-42390266D01*
X108453200Y-42490266D01*
X108386533Y-42556933D01*
X108319866Y-42590266D01*
X121447733Y-47103466D02*
X121214400Y-46770133D01*
X121047733Y-47103466D02*
X121047733Y-46403466D01*
X121314400Y-46403466D01*
X121381066Y-46436800D01*
X121414400Y-46470133D01*
X121447733Y-46536800D01*
X121447733Y-46636800D01*
X121414400Y-46703466D01*
X121381066Y-46736800D01*
X121314400Y-46770133D01*
X121047733Y-46770133D01*
X122047733Y-46403466D02*
X121914400Y-46403466D01*
X121847733Y-46436800D01*
X121814400Y-46470133D01*
X121747733Y-46570133D01*
X121714400Y-46703466D01*
X121714400Y-46970133D01*
X121747733Y-47036800D01*
X121781066Y-47070133D01*
X121847733Y-47103466D01*
X121981066Y-47103466D01*
X122047733Y-47070133D01*
X122081066Y-47036800D01*
X122114400Y-46970133D01*
X122114400Y-46803466D01*
X122081066Y-46736800D01*
X122047733Y-46703466D01*
X121981066Y-46670133D01*
X121847733Y-46670133D01*
X121781066Y-46703466D01*
X121747733Y-46736800D01*
X121714400Y-46803466D01*
X132715066Y-82141266D02*
X132715066Y-82707933D01*
X132748400Y-82774600D01*
X132781733Y-82807933D01*
X132848400Y-82841266D01*
X132981733Y-82841266D01*
X133048400Y-82807933D01*
X133081733Y-82774600D01*
X133115066Y-82707933D01*
X133115066Y-82141266D01*
X133748400Y-82374600D02*
X133748400Y-82841266D01*
X133581733Y-82107933D02*
X133415066Y-82607933D01*
X133848400Y-82607933D01*
X97937666Y-71346266D02*
X97937666Y-71846266D01*
X97904333Y-71946266D01*
X97837666Y-72012933D01*
X97737666Y-72046266D01*
X97671000Y-72046266D01*
X98637666Y-72046266D02*
X98237666Y-72046266D01*
X98437666Y-72046266D02*
X98437666Y-71346266D01*
X98371000Y-71446266D01*
X98304333Y-71512933D01*
X98237666Y-71546266D01*
X115087466Y-79423466D02*
X115087466Y-79990133D01*
X115120800Y-80056800D01*
X115154133Y-80090133D01*
X115220800Y-80123466D01*
X115354133Y-80123466D01*
X115420800Y-80090133D01*
X115454133Y-80056800D01*
X115487466Y-79990133D01*
X115487466Y-79423466D01*
X116154133Y-79423466D02*
X115820800Y-79423466D01*
X115787466Y-79756800D01*
X115820800Y-79723466D01*
X115887466Y-79690133D01*
X116054133Y-79690133D01*
X116120800Y-79723466D01*
X116154133Y-79756800D01*
X116187466Y-79823466D01*
X116187466Y-79990133D01*
X116154133Y-80056800D01*
X116120800Y-80090133D01*
X116054133Y-80123466D01*
X115887466Y-80123466D01*
X115820800Y-80090133D01*
X115787466Y-80056800D01*
X111389333Y-43750666D02*
X111156000Y-43417333D01*
X110989333Y-43750666D02*
X110989333Y-43050666D01*
X111256000Y-43050666D01*
X111322666Y-43084000D01*
X111356000Y-43117333D01*
X111389333Y-43184000D01*
X111389333Y-43284000D01*
X111356000Y-43350666D01*
X111322666Y-43384000D01*
X111256000Y-43417333D01*
X110989333Y-43417333D01*
X111622666Y-43050666D02*
X112056000Y-43050666D01*
X111822666Y-43317333D01*
X111922666Y-43317333D01*
X111989333Y-43350666D01*
X112022666Y-43384000D01*
X112056000Y-43450666D01*
X112056000Y-43617333D01*
X112022666Y-43684000D01*
X111989333Y-43717333D01*
X111922666Y-43750666D01*
X111722666Y-43750666D01*
X111656000Y-43717333D01*
X111622666Y-43684000D01*
X99356133Y-75273066D02*
X99356133Y-74573066D01*
X99522800Y-74573066D01*
X99622800Y-74606400D01*
X99689466Y-74673066D01*
X99722800Y-74739733D01*
X99756133Y-74873066D01*
X99756133Y-74973066D01*
X99722800Y-75106400D01*
X99689466Y-75173066D01*
X99622800Y-75239733D01*
X99522800Y-75273066D01*
X99356133Y-75273066D01*
X100422800Y-75273066D02*
X100022800Y-75273066D01*
X100222800Y-75273066D02*
X100222800Y-74573066D01*
X100156133Y-74673066D01*
X100089466Y-74739733D01*
X100022800Y-74773066D01*
X119950666Y-78704266D02*
X119617333Y-78937600D01*
X119950666Y-79104266D02*
X119250666Y-79104266D01*
X119250666Y-78837600D01*
X119284000Y-78770933D01*
X119317333Y-78737600D01*
X119384000Y-78704266D01*
X119484000Y-78704266D01*
X119550666Y-78737600D01*
X119584000Y-78770933D01*
X119617333Y-78837600D01*
X119617333Y-79104266D01*
X119950666Y-78370933D02*
X119950666Y-78237600D01*
X119917333Y-78170933D01*
X119884000Y-78137600D01*
X119784000Y-78070933D01*
X119650666Y-78037600D01*
X119384000Y-78037600D01*
X119317333Y-78070933D01*
X119284000Y-78104266D01*
X119250666Y-78170933D01*
X119250666Y-78304266D01*
X119284000Y-78370933D01*
X119317333Y-78404266D01*
X119384000Y-78437600D01*
X119550666Y-78437600D01*
X119617333Y-78404266D01*
X119650666Y-78370933D01*
X119684000Y-78304266D01*
X119684000Y-78170933D01*
X119650666Y-78104266D01*
X119617333Y-78070933D01*
X119550666Y-78037600D01*
X111440133Y-45833466D02*
X111206800Y-45500133D01*
X111040133Y-45833466D02*
X111040133Y-45133466D01*
X111306800Y-45133466D01*
X111373466Y-45166800D01*
X111406800Y-45200133D01*
X111440133Y-45266800D01*
X111440133Y-45366800D01*
X111406800Y-45433466D01*
X111373466Y-45466800D01*
X111306800Y-45500133D01*
X111040133Y-45500133D01*
X112040133Y-45366800D02*
X112040133Y-45833466D01*
X111873466Y-45100133D02*
X111706800Y-45600133D01*
X112140133Y-45600133D01*
X101577066Y-45582666D02*
X101243733Y-45816000D01*
X101577066Y-45982666D02*
X100877066Y-45982666D01*
X100877066Y-45716000D01*
X100910400Y-45649333D01*
X100943733Y-45616000D01*
X101010400Y-45582666D01*
X101110400Y-45582666D01*
X101177066Y-45616000D01*
X101210400Y-45649333D01*
X101243733Y-45716000D01*
X101243733Y-45982666D01*
X100943733Y-45316000D02*
X100910400Y-45282666D01*
X100877066Y-45216000D01*
X100877066Y-45049333D01*
X100910400Y-44982666D01*
X100943733Y-44949333D01*
X101010400Y-44916000D01*
X101077066Y-44916000D01*
X101177066Y-44949333D01*
X101577066Y-45349333D01*
X101577066Y-44916000D01*
X118194800Y-56925866D02*
X117961466Y-56592533D01*
X117794800Y-56925866D02*
X117794800Y-56225866D01*
X118061466Y-56225866D01*
X118128133Y-56259200D01*
X118161466Y-56292533D01*
X118194800Y-56359200D01*
X118194800Y-56459200D01*
X118161466Y-56525866D01*
X118128133Y-56559200D01*
X118061466Y-56592533D01*
X117794800Y-56592533D01*
X118861466Y-56925866D02*
X118461466Y-56925866D01*
X118661466Y-56925866D02*
X118661466Y-56225866D01*
X118594800Y-56325866D01*
X118528133Y-56392533D01*
X118461466Y-56425866D01*
X119094800Y-56225866D02*
X119528133Y-56225866D01*
X119294800Y-56492533D01*
X119394800Y-56492533D01*
X119461466Y-56525866D01*
X119494800Y-56559200D01*
X119528133Y-56625866D01*
X119528133Y-56792533D01*
X119494800Y-56859200D01*
X119461466Y-56892533D01*
X119394800Y-56925866D01*
X119194800Y-56925866D01*
X119128133Y-56892533D01*
X119094800Y-56859200D01*
X121056466Y-47622666D02*
X121056466Y-48189333D01*
X121089800Y-48256000D01*
X121123133Y-48289333D01*
X121189800Y-48322666D01*
X121323133Y-48322666D01*
X121389800Y-48289333D01*
X121423133Y-48256000D01*
X121456466Y-48189333D01*
X121456466Y-47622666D01*
X121723133Y-47622666D02*
X122156466Y-47622666D01*
X121923133Y-47889333D01*
X122023133Y-47889333D01*
X122089800Y-47922666D01*
X122123133Y-47956000D01*
X122156466Y-48022666D01*
X122156466Y-48189333D01*
X122123133Y-48256000D01*
X122089800Y-48289333D01*
X122023133Y-48322666D01*
X121823133Y-48322666D01*
X121756466Y-48289333D01*
X121723133Y-48256000D01*
X115120000Y-78294666D02*
X114886666Y-77961333D01*
X114720000Y-78294666D02*
X114720000Y-77594666D01*
X114986666Y-77594666D01*
X115053333Y-77628000D01*
X115086666Y-77661333D01*
X115120000Y-77728000D01*
X115120000Y-77828000D01*
X115086666Y-77894666D01*
X115053333Y-77928000D01*
X114986666Y-77961333D01*
X114720000Y-77961333D01*
X115786666Y-78294666D02*
X115386666Y-78294666D01*
X115586666Y-78294666D02*
X115586666Y-77594666D01*
X115520000Y-77694666D01*
X115453333Y-77761333D01*
X115386666Y-77794666D01*
X116220000Y-77594666D02*
X116286666Y-77594666D01*
X116353333Y-77628000D01*
X116386666Y-77661333D01*
X116420000Y-77728000D01*
X116453333Y-77861333D01*
X116453333Y-78028000D01*
X116420000Y-78161333D01*
X116386666Y-78228000D01*
X116353333Y-78261333D01*
X116286666Y-78294666D01*
X116220000Y-78294666D01*
X116153333Y-78261333D01*
X116120000Y-78228000D01*
X116086666Y-78161333D01*
X116053333Y-78028000D01*
X116053333Y-77861333D01*
X116086666Y-77728000D01*
X116120000Y-77661333D01*
X116153333Y-77628000D01*
X116220000Y-77594666D01*
X121244533Y-71446066D02*
X121011200Y-71112733D01*
X120844533Y-71446066D02*
X120844533Y-70746066D01*
X121111200Y-70746066D01*
X121177866Y-70779400D01*
X121211200Y-70812733D01*
X121244533Y-70879400D01*
X121244533Y-70979400D01*
X121211200Y-71046066D01*
X121177866Y-71079400D01*
X121111200Y-71112733D01*
X120844533Y-71112733D01*
X121477866Y-70746066D02*
X121944533Y-70746066D01*
X121644533Y-71446066D01*
X110344800Y-76491266D02*
X110111466Y-76157933D01*
X109944800Y-76491266D02*
X109944800Y-75791266D01*
X110211466Y-75791266D01*
X110278133Y-75824600D01*
X110311466Y-75857933D01*
X110344800Y-75924600D01*
X110344800Y-76024600D01*
X110311466Y-76091266D01*
X110278133Y-76124600D01*
X110211466Y-76157933D01*
X109944800Y-76157933D01*
X111011466Y-76491266D02*
X110611466Y-76491266D01*
X110811466Y-76491266D02*
X110811466Y-75791266D01*
X110744800Y-75891266D01*
X110678133Y-75957933D01*
X110611466Y-75991266D01*
X111678133Y-76491266D02*
X111278133Y-76491266D01*
X111478133Y-76491266D02*
X111478133Y-75791266D01*
X111411466Y-75891266D01*
X111344800Y-75957933D01*
X111278133Y-75991266D01*
X119895200Y-64375466D02*
X119661866Y-64042133D01*
X119495200Y-64375466D02*
X119495200Y-63675466D01*
X119761866Y-63675466D01*
X119828533Y-63708800D01*
X119861866Y-63742133D01*
X119895200Y-63808800D01*
X119895200Y-63908800D01*
X119861866Y-63975466D01*
X119828533Y-64008800D01*
X119761866Y-64042133D01*
X119495200Y-64042133D01*
X120561866Y-64375466D02*
X120161866Y-64375466D01*
X120361866Y-64375466D02*
X120361866Y-63675466D01*
X120295200Y-63775466D01*
X120228533Y-63842133D01*
X120161866Y-63875466D01*
X121161866Y-63675466D02*
X121028533Y-63675466D01*
X120961866Y-63708800D01*
X120928533Y-63742133D01*
X120861866Y-63842133D01*
X120828533Y-63975466D01*
X120828533Y-64242133D01*
X120861866Y-64308800D01*
X120895200Y-64342133D01*
X120961866Y-64375466D01*
X121095200Y-64375466D01*
X121161866Y-64342133D01*
X121195200Y-64308800D01*
X121228533Y-64242133D01*
X121228533Y-64075466D01*
X121195200Y-64008800D01*
X121161866Y-63975466D01*
X121095200Y-63942133D01*
X120961866Y-63942133D01*
X120895200Y-63975466D01*
X120861866Y-64008800D01*
X120828533Y-64075466D01*
X122555066Y-39850266D02*
X122555066Y-40416933D01*
X122588400Y-40483600D01*
X122621733Y-40516933D01*
X122688400Y-40550266D01*
X122821733Y-40550266D01*
X122888400Y-40516933D01*
X122921733Y-40483600D01*
X122955066Y-40416933D01*
X122955066Y-39850266D01*
X123255066Y-39916933D02*
X123288400Y-39883600D01*
X123355066Y-39850266D01*
X123521733Y-39850266D01*
X123588400Y-39883600D01*
X123621733Y-39916933D01*
X123655066Y-39983600D01*
X123655066Y-40050266D01*
X123621733Y-40150266D01*
X123221733Y-40550266D01*
X123655066Y-40550266D01*
X103657466Y-79728266D02*
X103657466Y-80294933D01*
X103690800Y-80361600D01*
X103724133Y-80394933D01*
X103790800Y-80428266D01*
X103924133Y-80428266D01*
X103990800Y-80394933D01*
X104024133Y-80361600D01*
X104057466Y-80294933D01*
X104057466Y-79728266D01*
X104690800Y-79728266D02*
X104557466Y-79728266D01*
X104490800Y-79761600D01*
X104457466Y-79794933D01*
X104390800Y-79894933D01*
X104357466Y-80028266D01*
X104357466Y-80294933D01*
X104390800Y-80361600D01*
X104424133Y-80394933D01*
X104490800Y-80428266D01*
X104624133Y-80428266D01*
X104690800Y-80394933D01*
X104724133Y-80361600D01*
X104757466Y-80294933D01*
X104757466Y-80128266D01*
X104724133Y-80061600D01*
X104690800Y-80028266D01*
X104624133Y-79994933D01*
X104490800Y-79994933D01*
X104424133Y-80028266D01*
X104390800Y-80061600D01*
X104357466Y-80128266D01*
X107042800Y-76618266D02*
X106809466Y-76284933D01*
X106642800Y-76618266D02*
X106642800Y-75918266D01*
X106909466Y-75918266D01*
X106976133Y-75951600D01*
X107009466Y-75984933D01*
X107042800Y-76051600D01*
X107042800Y-76151600D01*
X107009466Y-76218266D01*
X106976133Y-76251600D01*
X106909466Y-76284933D01*
X106642800Y-76284933D01*
X107709466Y-76618266D02*
X107309466Y-76618266D01*
X107509466Y-76618266D02*
X107509466Y-75918266D01*
X107442800Y-76018266D01*
X107376133Y-76084933D01*
X107309466Y-76118266D01*
X107976133Y-75984933D02*
X108009466Y-75951600D01*
X108076133Y-75918266D01*
X108242800Y-75918266D01*
X108309466Y-75951600D01*
X108342800Y-75984933D01*
X108376133Y-76051600D01*
X108376133Y-76118266D01*
X108342800Y-76218266D01*
X107942800Y-76618266D01*
X108376133Y-76618266D01*
X119136333Y-71436666D02*
X118903000Y-71103333D01*
X118736333Y-71436666D02*
X118736333Y-70736666D01*
X119003000Y-70736666D01*
X119069666Y-70770000D01*
X119103000Y-70803333D01*
X119136333Y-70870000D01*
X119136333Y-70970000D01*
X119103000Y-71036666D01*
X119069666Y-71070000D01*
X119003000Y-71103333D01*
X118736333Y-71103333D01*
X119536333Y-71036666D02*
X119469666Y-71003333D01*
X119436333Y-70970000D01*
X119403000Y-70903333D01*
X119403000Y-70870000D01*
X119436333Y-70803333D01*
X119469666Y-70770000D01*
X119536333Y-70736666D01*
X119669666Y-70736666D01*
X119736333Y-70770000D01*
X119769666Y-70803333D01*
X119803000Y-70870000D01*
X119803000Y-70903333D01*
X119769666Y-70970000D01*
X119736333Y-71003333D01*
X119669666Y-71036666D01*
X119536333Y-71036666D01*
X119469666Y-71070000D01*
X119436333Y-71103333D01*
X119403000Y-71170000D01*
X119403000Y-71303333D01*
X119436333Y-71370000D01*
X119469666Y-71403333D01*
X119536333Y-71436666D01*
X119669666Y-71436666D01*
X119736333Y-71403333D01*
X119769666Y-71370000D01*
X119803000Y-71303333D01*
X119803000Y-71170000D01*
X119769666Y-71103333D01*
X119736333Y-71070000D01*
X119669666Y-71036666D01*
D11*
X122555000Y-61671200D02*
X122555000Y-71831200D01*
X135001000Y-71831200D02*
X135001000Y-61671200D01*
X135001000Y-61671200D02*
X122555000Y-61671200D01*
X122555000Y-71831200D02*
X135001000Y-71831200D01*
X114263448Y-54176600D02*
X114785952Y-54176600D01*
X114263448Y-52706600D02*
X114785952Y-52706600D01*
X104179864Y-42673600D02*
X103725736Y-42673600D01*
X104179864Y-44143600D02*
X103725736Y-44143600D01*
X120708664Y-42394200D02*
X120254536Y-42394200D01*
X120708664Y-43864200D02*
X120254536Y-43864200D01*
X135001000Y-61671200D02*
X135001000Y-51511200D01*
X122555000Y-51511200D02*
X122555000Y-61671200D01*
X135001000Y-51511200D02*
X122555000Y-51511200D01*
X122555000Y-61671200D02*
X135001000Y-61671200D01*
X112776000Y-54628600D02*
X114976000Y-54628600D01*
X112776000Y-61398600D02*
X114976000Y-61398600D01*
X112776000Y-54628600D02*
X109176000Y-54628600D01*
X112776000Y-61398600D02*
X110576000Y-61398600D01*
X112164400Y-29567000D02*
X102004400Y-29567000D01*
X102004400Y-42013000D02*
X112164400Y-42013000D01*
X102004400Y-29567000D02*
X102004400Y-42013000D01*
X112164400Y-42013000D02*
X112164400Y-29567000D01*
X120724664Y-44426200D02*
X120270536Y-44426200D01*
X120724664Y-45896200D02*
X120270536Y-45896200D01*
X122555000Y-81991200D02*
X135001000Y-81991200D01*
X122555000Y-71831200D02*
X122555000Y-81991200D01*
X135001000Y-71831200D02*
X122555000Y-71831200D01*
X135001000Y-81991200D02*
X135001000Y-71831200D01*
X98850400Y-55153800D02*
X96190400Y-55153800D01*
X90190400Y-66963800D02*
X90190400Y-66203800D01*
X99247471Y-50963800D02*
X98850400Y-50963800D01*
X101720400Y-68743800D02*
X101333329Y-68743800D01*
X98850400Y-70453800D02*
X98850400Y-50013800D01*
X90190400Y-59343800D02*
X90190400Y-58583800D01*
X101787471Y-66963800D02*
X101333329Y-66963800D01*
X96190400Y-61883800D02*
X90190400Y-61883800D01*
X90190400Y-58583800D02*
X96190400Y-58583800D01*
X96190400Y-69323800D02*
X90190400Y-69323800D01*
X98850400Y-65313800D02*
X96190400Y-65313800D01*
X90190400Y-61123800D02*
X96190400Y-61123800D01*
X101787471Y-58583800D02*
X101333329Y-58583800D01*
X90190400Y-69503800D02*
X90190400Y-68743800D01*
X90190400Y-56043800D02*
X96190400Y-56043800D01*
X101787471Y-59343800D02*
X101333329Y-59343800D01*
X90190400Y-53503800D02*
X96190400Y-53503800D01*
X96190400Y-68843800D02*
X90190400Y-68843800D01*
X96190400Y-50013800D02*
X96190400Y-70453800D01*
X104100400Y-70393800D02*
X102830400Y-70393800D01*
X101787471Y-63663800D02*
X101333329Y-63663800D01*
X101787471Y-53503800D02*
X101333329Y-53503800D01*
X99247471Y-61883800D02*
X98850400Y-61883800D01*
X90190400Y-51723800D02*
X90190400Y-50963800D01*
X96190400Y-54263800D02*
X90190400Y-54263800D01*
X96190400Y-56803800D02*
X90190400Y-56803800D01*
X96190400Y-64423800D02*
X90190400Y-64423800D01*
X101787471Y-56043800D02*
X101333329Y-56043800D01*
X99247471Y-66203800D02*
X98850400Y-66203800D01*
X101787471Y-54263800D02*
X101333329Y-54263800D01*
X96190400Y-51723800D02*
X90190400Y-51723800D01*
X104100400Y-69123800D02*
X104100400Y-70393800D01*
X90190400Y-64423800D02*
X90190400Y-63663800D01*
X101720400Y-69503800D02*
X101333329Y-69503800D01*
X99247471Y-54263800D02*
X98850400Y-54263800D01*
X101787471Y-51723800D02*
X101333329Y-51723800D01*
X96190400Y-69503800D02*
X90190400Y-69503800D01*
X98850400Y-67853800D02*
X96190400Y-67853800D01*
X101787471Y-50963800D02*
X101333329Y-50963800D01*
X98850400Y-52613800D02*
X96190400Y-52613800D01*
X99247471Y-53503800D02*
X98850400Y-53503800D01*
X96190400Y-70453800D02*
X98850400Y-70453800D01*
X99247471Y-66963800D02*
X98850400Y-66963800D01*
X98850400Y-50013800D02*
X96190400Y-50013800D01*
X90190400Y-66203800D02*
X96190400Y-66203800D01*
X96190400Y-69203800D02*
X90190400Y-69203800D01*
X99247471Y-58583800D02*
X98850400Y-58583800D01*
X96190400Y-59343800D02*
X90190400Y-59343800D01*
X99247471Y-68743800D02*
X98850400Y-68743800D01*
X101787471Y-56803800D02*
X101333329Y-56803800D01*
X96190400Y-66963800D02*
X90190400Y-66963800D01*
X99247471Y-69503800D02*
X98850400Y-69503800D01*
X98850400Y-60233800D02*
X96190400Y-60233800D01*
X96190400Y-69083800D02*
X90190400Y-69083800D01*
X99247471Y-51723800D02*
X98850400Y-51723800D01*
X99247471Y-59343800D02*
X98850400Y-59343800D01*
X99247471Y-56043800D02*
X98850400Y-56043800D01*
X90190400Y-68743800D02*
X96190400Y-68743800D01*
X99247471Y-61123800D02*
X98850400Y-61123800D01*
X96190400Y-69443800D02*
X90190400Y-69443800D01*
X99247471Y-56803800D02*
X98850400Y-56803800D01*
X90190400Y-50963800D02*
X96190400Y-50963800D01*
X90190400Y-54263800D02*
X90190400Y-53503800D01*
X101787471Y-61123800D02*
X101333329Y-61123800D01*
X101787471Y-66203800D02*
X101333329Y-66203800D01*
X96190400Y-68963800D02*
X90190400Y-68963800D01*
X99247471Y-64423800D02*
X98850400Y-64423800D01*
X101787471Y-64423800D02*
X101333329Y-64423800D01*
X98850400Y-57693800D02*
X96190400Y-57693800D01*
X99247471Y-63663800D02*
X98850400Y-63663800D01*
X90190400Y-61883800D02*
X90190400Y-61123800D01*
X90190400Y-56803800D02*
X90190400Y-56043800D01*
X90190400Y-63663800D02*
X96190400Y-63663800D01*
X101787471Y-61883800D02*
X101333329Y-61883800D01*
X98850400Y-62773800D02*
X96190400Y-62773800D01*
X122258800Y-80745200D02*
X112098800Y-80745200D01*
X122258800Y-93191200D02*
X122258800Y-80745200D01*
X112098800Y-93191200D02*
X122258800Y-93191200D01*
X112098800Y-80745200D02*
X112098800Y-93191200D01*
X114445364Y-44169000D02*
X113991236Y-44169000D01*
X114445364Y-42699000D02*
X113991236Y-42699000D01*
X98012800Y-77566400D02*
X100872800Y-77566400D01*
X100872800Y-75646400D02*
X98012800Y-75646400D01*
X98012800Y-75646400D02*
X98012800Y-77566400D01*
X120296000Y-78890864D02*
X120296000Y-78436736D01*
X121766000Y-78890864D02*
X121766000Y-78436736D01*
X114445364Y-44781800D02*
X113991236Y-44781800D01*
X114445364Y-46251800D02*
X113991236Y-46251800D01*
X104179864Y-46201000D02*
X103725736Y-46201000D01*
X104179864Y-44731000D02*
X103725736Y-44731000D01*
X121564200Y-56423536D02*
X121564200Y-56877664D01*
X120094200Y-56423536D02*
X120094200Y-56877664D01*
X135001000Y-51511200D02*
X135001000Y-41351200D01*
X122555000Y-51511200D02*
X135001000Y-51511200D01*
X135001000Y-41351200D02*
X122555000Y-41351200D01*
X122555000Y-41351200D02*
X122555000Y-51511200D01*
X118602500Y-78496936D02*
X118602500Y-78951064D01*
X117132500Y-78496936D02*
X117132500Y-78951064D01*
X122096200Y-74064864D02*
X122096200Y-73610736D01*
X120626200Y-74064864D02*
X120626200Y-73610736D01*
X111529800Y-78916264D02*
X111529800Y-78462136D01*
X110059800Y-78916264D02*
X110059800Y-78462136D01*
X119814800Y-66415136D02*
X119814800Y-66869264D01*
X121284800Y-66415136D02*
X121284800Y-66869264D01*
X122324400Y-29567000D02*
X112164400Y-29567000D01*
X122324400Y-42013000D02*
X122324400Y-29567000D01*
X112164400Y-42013000D02*
X122324400Y-42013000D01*
X112164400Y-29567000D02*
X112164400Y-42013000D01*
X112090200Y-80745200D02*
X101930200Y-80745200D01*
X112090200Y-93191200D02*
X112090200Y-80745200D01*
X101930200Y-80745200D02*
X101930200Y-93191200D01*
X101930200Y-93191200D02*
X112090200Y-93191200D01*
X106757800Y-78496936D02*
X106757800Y-78951064D01*
X108227800Y-78496936D02*
X108227800Y-78951064D01*
X118518000Y-74064864D02*
X118518000Y-73610736D01*
X119988000Y-74064864D02*
X119988000Y-73610736D01*
%LPC*%
D12*
X125349000Y-62941200D03*
X125349000Y-65481200D03*
X125349000Y-68021200D03*
X125349000Y-70561200D03*
X132969000Y-70561200D03*
X132969000Y-62941200D03*
D13*
X113487200Y-53441600D03*
X115562200Y-53441600D03*
D14*
X104952800Y-43408600D03*
X102952800Y-43408600D03*
X121481600Y-43129200D03*
X119481600Y-43129200D03*
D12*
X125349000Y-52781200D03*
X125349000Y-55321200D03*
X125349000Y-57861200D03*
X125349000Y-60401200D03*
X132969000Y-60401200D03*
X132969000Y-52781200D03*
D15*
X109913500Y-55088600D03*
X109913500Y-55738600D03*
X109913500Y-56388600D03*
X109913500Y-57038600D03*
X109913500Y-57688600D03*
X109913500Y-58338600D03*
X109913500Y-58988600D03*
X109913500Y-59638600D03*
X109913500Y-60288600D03*
X109913500Y-60938600D03*
X115638500Y-60938600D03*
X115638500Y-60288600D03*
X115638500Y-59638600D03*
X115638500Y-58988600D03*
X115638500Y-58338600D03*
X115638500Y-57688600D03*
X115638500Y-57038600D03*
X115638500Y-56388600D03*
X115638500Y-55738600D03*
X115638500Y-55088600D03*
D12*
X103274400Y-39219000D03*
X105814400Y-39219000D03*
X108354400Y-39219000D03*
X110894400Y-39219000D03*
X110894400Y-31599000D03*
X103274400Y-31599000D03*
D14*
X121497600Y-45161200D03*
X119497600Y-45161200D03*
D12*
X125349000Y-73101200D03*
X125349000Y-75641200D03*
X125349000Y-78181200D03*
X125349000Y-80721200D03*
X132969000Y-80721200D03*
X132969000Y-73101200D03*
D16*
X102830400Y-69123800D03*
D17*
X100290400Y-69123800D03*
X102830400Y-66583800D03*
X100290400Y-66583800D03*
X102830400Y-64043800D03*
X100290400Y-64043800D03*
X102830400Y-61503800D03*
X100290400Y-61503800D03*
X102830400Y-58963800D03*
X100290400Y-58963800D03*
X102830400Y-56423800D03*
X100290400Y-56423800D03*
X102830400Y-53883800D03*
X100290400Y-53883800D03*
X102830400Y-51343800D03*
X100290400Y-51343800D03*
D12*
X120988800Y-83539200D03*
X118448800Y-83539200D03*
X115908800Y-83539200D03*
X113368800Y-83539200D03*
X113368800Y-91159200D03*
X120988800Y-91159200D03*
D18*
X130962400Y-33578800D03*
D14*
X115218300Y-43434000D03*
X113218300Y-43434000D03*
D19*
X98847800Y-76606400D03*
X100897800Y-76606400D03*
D20*
X121031000Y-79663800D03*
X121031000Y-77663800D03*
D14*
X115218300Y-45516800D03*
X113218300Y-45516800D03*
X104952800Y-45466000D03*
X102952800Y-45466000D03*
D21*
X120829200Y-55650600D03*
X120829200Y-57650600D03*
D12*
X125349000Y-42621200D03*
X125349000Y-45161200D03*
X125349000Y-47701200D03*
X125349000Y-50241200D03*
X132969000Y-50241200D03*
X132969000Y-42621200D03*
D21*
X117867500Y-77724000D03*
X117867500Y-79724000D03*
D18*
X130987800Y-89204800D03*
D20*
X121361200Y-74837800D03*
X121361200Y-72837800D03*
X110794800Y-79689200D03*
X110794800Y-77689200D03*
D21*
X120549800Y-65642200D03*
X120549800Y-67642200D03*
D12*
X113434400Y-39219000D03*
X115974400Y-39219000D03*
X118514400Y-39219000D03*
X121054400Y-39219000D03*
X121054400Y-31599000D03*
X113434400Y-31599000D03*
X110820200Y-83539200D03*
X108280200Y-83539200D03*
X105740200Y-83539200D03*
X103200200Y-83539200D03*
X103200200Y-91159200D03*
X110820200Y-91159200D03*
D21*
X107492800Y-77724000D03*
X107492800Y-79724000D03*
D20*
X119253000Y-74837800D03*
X119253000Y-72837800D03*
M02*
